<svg width="235" height="61" viewBox="0 0 235 61" xmlns="http://www.w3.org/2000/svg"><title>8674DFF3-C0B2-421D-A724-2771D00F2899</title><desc>Created with sketchtool.</desc><g fill="#FFFFFE"><path d="M111 12h-9.83l.017 18.577c0 5.43-2.304 9.82-7.68 9.82-5.375 0-7.7-4.39-7.7-9.82v-18.56h-9.804L76 30.578C76 41.305 82.827 50 93.45 50c10.618 0 17.547-8.695 17.547-19.423L111 12"/><path d="M200 49h9V1h-9z"/><path d="M216 2.664V1h8v1.664h-2.926V10h-2.146V2.664H216"/><path d="M227.873 1l2.172 6.188h.026L232.125 1H235v9h-1.91V3.62h-.028L230.787 10h-1.575l-2.274-6.316h-.026V10H225V1h2.873"/><path d="M67.87 11.298c-8.52-1.98-13.895 6.545-14.12 7.003-.108.225-.112.356-.49.346-.312-.007-.347-.345-.347-.345l-1.058-6.52H43V49h9.926V28.853c0-1.647 4.402-9.54 12.93-7.51C70.172 22.374 72 24.216 72 24.216V12.877c-1.596-.84-2.69-1.245-4.13-1.58"/><path d="M133.62 21.117c5.387 0 9.752 4.364 9.752 9.743 0 5.385-4.365 9.748-9.75 9.748-5.386 0-9.75-4.363-9.75-9.748 0-5.38 4.364-9.743 9.75-9.743zm-10.003 39.83V47.625s.003 0 .003.002l.002-4.99s.016-.398.373-.403c.32-.004.39.21.47.404.748 1.876 4.874 9.024 14.028 6.782 8.195-2.32 14.205-9.886 14.205-18.87 0-10.825-8.73-19.603-19.5-19.603s-19.5 8.778-19.5 19.603v30.397h9.92z"/><path d="M185.372 30.87c0 5.386-4.365 9.75-9.75 9.75-5.384 0-9.75-4.364-9.75-9.75 0-5.383 4.366-9.75 9.75-9.75 5.385 0 9.75 4.367 9.75 9.75zm-.593 17.992h9.918V30.6c0-10.853-8.73-19.653-19.5-19.653s-19.5 8.8-19.5 19.652c0 9.005 6.01 16.59 14.206 18.916 9.155 2.247 13.278-4.92 14.03-6.8.077-.195.147-.408.467-.405.36.006.374.406.374.406l.005 6.146z"/><path d="M14.725 9.37h-3.933v31.053l4.04.104c8.283 0 13.62-.753 13.62-15.627 0-14.264-4.712-15.53-13.727-15.53zM11.72 48.947H.7v-48h11.824c14.318 0 25.177 2.674 25.177 24 0 21.12-11.502 24-25.98 24z"/></g></svg>