<svg width="155" height="155" viewBox="0 0 155 155" xmlns="http://www.w3.org/2000/svg"><title>B262A99E-C6A4-424D-A3DB-AD2D2951630C</title><desc>Created with sketchtool.</desc><path d="M17.118 0C7.715 0 0 7.63 0 17.01v64.633c0 9.38 7.715 17.012 17.118 17.012H27.19v31.71c-.006 1.516.957 2.867 2.393 3.354 1.435.486 3.022 0 3.938-1.208l26.366-33.857H75.74v27.14c0 6.268 5.037 11.506 11.282 11.506h29.448l17.063 16.682c1.007.996 2.513 1.292 3.82.75 1.31-.54 2.168-1.81 2.18-3.227V137.3h4.183c6.246 0 11.284-5.237 11.284-11.505v-43.82c0-6.27-5.038-11.507-11.284-11.507h-9.852V17.01c0-9.38-7.715-17.01-17.12-17.01H17.12zm-.026 7.362h99.816c5.662 0 10.092 4.4 10.092 9.968V70.8H87.13c-6.26 0-11.306 5.24-11.306 11.51v9.637H58.176c-1.09-.018-2.13.47-2.812 1.322l-21.12 27.092v-24.89c-.002-1.947-1.582-3.525-3.53-3.525H17.09C11.43 91.947 7 87.547 7 81.98V17.33c0-5.568 4.43-9.968 10.092-9.968zm45.785 7c-9.937 0-18.6 6.112-20.686 14.877-.434 1.272-.113 2.684.828 3.637.94.954 2.338 1.284 3.6.85 1.263-.433 2.17-1.554 2.34-2.89 1.204-5.052 6.807-9.422 13.92-9.422 8.134 0 14.136 5.547 14.136 11.68 0 10.028-3.244 12.55-7.587 16.587-4.343 4.038-9.88 9.594-9.88 21.104-.017 1.27.645 2.454 1.733 3.095 1.088.642 2.434.642 3.522 0 1.088-.64 1.75-1.823 1.732-3.094 0-9.54 3.197-11.843 7.587-15.925C78.51 50.78 84 45.013 84 33.097c0-10.612-9.773-18.734-21.123-18.734zm.623 63c-1.933 0-3.5 1.567-3.5 3.5s1.567 3.5 3.5 3.5 3.5-1.567 3.5-3.5-1.567-3.5-3.5-3.5zm23.727 0h42.547c.47.1.956.1 1.427 0h12.573c2.32 0 4.227 1.854 4.227 4.49v44.11c0 2.634-1.906 4.488-4.227 4.488h-7.686c-1.94 0-3.513 1.588-3.514 3.547v9.365l-12.022-11.86c-.653-.666-1.54-1.044-2.47-1.052H87.227c-2.32 0-4.227-1.854-4.227-4.488V95.76c.052-.35.052-.704 0-1.053V81.85c0-2.634 1.906-4.488 4.227-4.488zm28.218 4c-.928.015-1.812.397-2.458 1.06-.646.666-1 1.56-.987 2.485v27.916c-.017 1.258.646 2.43 1.736 3.063 1.09.635 2.438.635 3.528 0 1.09-.634 1.753-1.805 1.736-3.063V84.907c.014-.945-.355-1.855-1.025-2.523-.67-.668-1.583-1.036-2.53-1.02zm.055 39c-1.933 0-3.5 1.567-3.5 3.5s1.567 3.5 3.5 3.5 3.5-1.567 3.5-3.5-1.567-3.5-3.5-3.5z" fill="#fff" fill-rule="nonzero"/></svg>