<svg xmlns="http://www.w3.org/2000/svg" xmlns:xlink="http://www.w3.org/1999/xlink" width="192" height="234" viewBox="0 0 192 234"><style type="text/css">.st0{fill:#F2F2F2;} .st1{fill:#D54339;} .st2{clip-path:url(#SVGID_2_);} .st3{clip-path:url(#SVGID_4_);fill:#382D1B;} .st4{clip-path:url(#SVGID_4_);fill:#D6BA9D;} .st5{clip-path:url(#SVGID_4_);fill:#24261C;} .st6{clip-path:url(#SVGID_4_);fill:#635040;} .st7{clip-path:url(#SVGID_4_);fill:#332B21;} .st8{clip-path:url(#SVGID_6_);fill:#E0C2AE;} .st9{clip-path:url(#SVGID_6_);fill:#DCB79B;} .st10{clip-path:url(#SVGID_6_);fill:#DAC099;} .st11{clip-path:url(#SVGID_6_);fill:#DCBC9E;} .st12{clip-path:url(#SVGID_6_);fill:#DDC3AB;} .st13{clip-path:url(#SVGID_6_);fill:#D7BB98;} .st14{clip-path:url(#SVGID_6_);fill:#D6BA9D;} .st15{clip-path:url(#SVGID_6_);fill:#D8B797;} .st16{clip-path:url(#SVGID_6_);fill:#D7AD91;} .st17{clip-path:url(#SVGID_6_);fill:#D8AF88;} .st18{clip-path:url(#SVGID_6_);fill:#A77E47;} .st19{clip-path:url(#SVGID_6_);fill:#D1B79A;} .st20{clip-path:url(#SVGID_6_);fill:#D8C2AD;} .st21{clip-path:url(#SVGID_6_);fill:#E0BDAB;} .st22{clip-path:url(#SVGID_6_);fill:#DAB69E;} .st23{clip-path:url(#SVGID_6_);fill:#D3B496;} .st24{clip-path:url(#SVGID_6_);fill:#D1AA92;} .st25{clip-path:url(#SVGID_6_);fill:#E2B498;} .st26{clip-path:url(#SVGID_6_);fill:#E6C5A8;} .st27{clip-path:url(#SVGID_6_);fill:#E6C2A6;} .st28{clip-path:url(#SVGID_6_);fill:#C48F64;} .st29{clip-path:url(#SVGID_6_);fill:#874923;} .st30{clip-path:url(#SVGID_6_);fill:#994824;} .st31{clip-path:url(#SVGID_6_);fill:#E5C6B5;} .st32{clip-path:url(#SVGID_6_);fill:#E5BC9F;} .st33{clip-path:url(#SVGID_6_);fill:#E6C0A2;} .st34{clip-path:url(#SVGID_6_);fill:#E9C0A9;} .st35{clip-path:url(#SVGID_6_);fill:#D8B08B;} .st36{clip-path:url(#SVGID_6_);fill:#E4BEA4;} .st37{clip-path:url(#SVGID_6_);fill:#E0B693;} .st38{clip-path:url(#SVGID_6_);fill:#E2BEA6;} .st39{clip-path:url(#SVGID_6_);fill:#3C382D;} .st40{clip-path:url(#SVGID_6_);fill:#767C73;} .st41{clip-path:url(#SVGID_6_);fill:#383A36;} .st42{clip-path:url(#SVGID_6_);fill:#423C37;} .st43{clip-path:url(#SVGID_6_);fill:#343533;} .st44{clip-path:url(#SVGID_6_);fill:#473E2E;} .st45{clip-path:url(#SVGID_6_);fill:#4A4231;} .st46{clip-path:url(#SVGID_6_);fill:#4C4234;} .st47{clip-path:url(#SVGID_6_);fill:#24261C;} .st48{clip-path:url(#SVGID_6_);fill:#3F2B15;} .st49{clip-path:url(#SVGID_6_);fill:#493B39;} .st50{clip-path:url(#SVGID_6_);fill:#635040;} .st51{clip-path:url(#SVGID_6_);fill:#685542;} .st52{clip-path:url(#SVGID_6_);fill:#5A4F39;} .st53{clip-path:url(#SVGID_6_);fill:#604C3B;} .st54{clip-path:url(#SVGID_6_);fill:#6E634F;} .st55{clip-path:url(#SVGID_6_);fill:#675945;} .st56{clip-path:url(#SVGID_6_);fill:#5C554C;} .st57{clip-path:url(#SVGID_6_);fill:#6E6252;} .st58{clip-path:url(#SVGID_6_);fill:#63503A;} .st59{clip-path:url(#SVGID_6_);fill:#574F43;} .st60{clip-path:url(#SVGID_6_);fill:#695746;} .st61{clip-path:url(#SVGID_6_);fill:#675D4F;} .st62{clip-path:url(#SVGID_6_);fill:#EBCEB4;} .st63{clip-path:url(#SVGID_6_);fill:#F0D4C2;} .st64{clip-path:url(#SVGID_6_);fill:#E5CEB7;} .st65{clip-path:url(#SVGID_6_);fill:#EED3A8;} .st66{clip-path:url(#SVGID_6_);fill:#E9D2C1;} .st67{clip-path:url(#SVGID_6_);fill:#EFDCC6;} .st68{clip-path:url(#SVGID_6_);fill:#DDBB9D;} .st69{clip-path:url(#SVGID_6_);fill:#E1B889;} .st70{clip-path:url(#SVGID_6_);fill:#D6B086;} .st71{clip-path:url(#SVGID_6_);fill:#E9CCB4;} .st72{clip-path:url(#SVGID_6_);fill:#DCB191;} .st73{clip-path:url(#SVGID_6_);fill:#D2AC89;} .st74{clip-path:url(#SVGID_6_);fill:#D3B295;} .st75{clip-path:url(#SVGID_6_);fill:#D8C4A9;} .st76{clip-path:url(#SVGID_6_);fill:#EDDEC0;} .st77{clip-path:url(#SVGID_6_);fill:#DABD9A;} .st78{clip-path:url(#SVGID_6_);fill:#36281E;} .st79{clip-path:url(#SVGID_6_);fill:#EBD9B1;} .st80{clip-path:url(#SVGID_6_);fill:#E2CCA8;} .st81{clip-path:url(#SVGID_6_);fill:#D7BD97;} .st82{clip-path:url(#SVGID_6_);fill:#DFC6A5;} .st83{clip-path:url(#SVGID_6_);fill:#D5AE8C;} .st84{clip-path:url(#SVGID_6_);fill:#C6B584;} .st85{clip-path:url(#SVGID_6_);fill:#CA9E83;} .st86{clip-path:url(#SVGID_6_);fill:#453621;} .st87{clip-path:url(#SVGID_6_);fill:#382D1B;} .st88{clip-path:url(#SVGID_6_);fill:#2D2315;} .st89{clip-path:url(#SVGID_6_);fill:#3A2B1C;} .st90{clip-path:url(#SVGID_6_);fill:#332B21;} .st91{clip-path:url(#SVGID_6_);fill:#563A23;} .st92{clip-path:url(#SVGID_6_);fill:#8B613A;} .st93{clip-path:url(#SVGID_6_);fill:#CDAA7D;} .st94{clip-path:url(#SVGID_6_);fill:#B89562;} .st95{clip-path:url(#SVGID_6_);fill:#D1AE7E;} .st96{clip-path:url(#SVGID_6_);fill:#CE857D;} .st97{clip-path:url(#SVGID_6_);fill:#DC9A99;} .st98{clip-path:url(#SVGID_6_);fill:#DA898B;} .st99{clip-path:url(#SVGID_6_);fill:#DF9DA0;} .st100{clip-path:url(#SVGID_6_);fill:#DA9A9E;} .st101{clip-path:url(#SVGID_6_);fill:#D2827A;} .st102{clip-path:url(#SVGID_6_);fill:#C27A70;} .st103{clip-path:url(#SVGID_6_);fill:#9D4738;} .st104{clip-path:url(#SVGID_6_);fill:#D7AE82;} .st105{clip-path:url(#SVGID_6_);fill:#97504C;} .st106{clip-path:url(#SVGID_6_);fill:#6F5A47;} .st107{clip-path:url(#SVGID_6_);fill:#A5857C;} .st108{clip-path:url(#SVGID_6_);fill:#D8DCC1;} .st109{clip-path:url(#SVGID_6_);fill:#A78F87;} .st110{clip-path:url(#SVGID_6_);fill:#171316;} .st111{clip-path:url(#SVGID_6_);fill:#AB8363;} .st112{clip-path:url(#SVGID_6_);fill:#0E0D11;} .st113{clip-path:url(#SVGID_6_);fill:#110A0B;} .st114{clip-path:url(#SVGID_6_);fill:#AC9C8B;} .st115{clip-path:url(#SVGID_6_);fill:#D8C2BC;} .st116{clip-path:url(#SVGID_6_);fill:#D4BDA1;} .st117{clip-path:url(#SVGID_6_);fill:#E6C3AB;} .st118{clip-path:url(#SVGID_6_);fill:#CF9D6F;}</style><path class="st0" d="M0 0h192v234H0z"/><path class="st1" d="M192 215.5L172.5 234H192z"/><defs><path id="SVGID_1_" d="M-108.6-131.6h367.2v475.2h-367.2z"/></defs><clipPath id="SVGID_2_"><use xlink:href="#SVGID_1_" overflow="visible"/></clipPath><g class="st2"><defs><path id="SVGID_3_" d="M-108.6-131.6h367.2v475.2h-367.2z"/></defs><clipPath id="SVGID_4_"><use xlink:href="#SVGID_3_" overflow="visible"/></clipPath><path class="st3" d="M62.3 106.4c.2 6.8-.8 13.5-1.6 20.2-.3 3.3-.8 6.5-1.2 9.8-.5 3.7.1 7.5-.8 11.1-.3 1.2 1 2.4 2.2 1.7 3.5-2.2 6.5-5.1 8.7-8.6 2.6-4.1 2.2-9.2 1.9-13.8-.4-5.5-1.8-10.8-2.1-16.2-.3-4.4-3.5-7.2-4.6-11.3-1.1-3.8-1.7-8.3-.5-12 .5-1.6 2.6-3 3.5-4.5 1.2-2.2 1.3-4.8 1.9-7.2.9-4.2 7.9-6.4 11.3-7.7 5.1-1.8 10.6-2.4 15.9-2.6 1.9-.1 1.9-3.1 0-3-9.1.4-18.5 2.1-26.2 7.3-4 2.7-3.9 6.9-5.2 11.1-.7 2.2-3 3.1-3.8 5.2-.7 1.7-.8 3.4-.9 5.2-.1 3.6.6 7.5 1.8 10.8.7 1.9 1.9 3.5 2.9 5.2 1.5 2.4 1 5.8 1.3 8.5.2 2.7 1 5.4 1.4 8.1.5 3.3.7 6.6.5 9.9-.3 5.7-4.7 10.1-9.3 13 .7.6 1.5 1.1 2.2 1.7.7-3.2.5-6.5.6-9.8.2-3.6 1-7.2 1.4-10.8.6-7.1 1.8-14.2 1.6-21.3 0-2-3-2-2.9 0M90.4 60.9c-2.6 0-5.2-.5-7.8-.1-2.4.3-4.2 1.4-6.3 2.7-3.1 2.1-7.3 4.5-8.4 8.3-.2.8.3 1.6 1 1.8 7 1.9 15.7 1 22.6-1.1-.6-.7-1.1-1.5-1.7-2.2-5.4 9.6-6.1 20.9-11.1 30.6.9.1 1.8.2 2.7.4-1.6-7.6.1-16 2-23.4.4-1.4-1.5-2.7-2.5-1.5-4.8 5.9-7.9 12.7-10.6 19.8-.7 1.8 2.2 2.6 2.9.8 2.5-6.5 5.4-13 9.8-18.4-.8-.5-1.7-1-2.5-1.5-2.1 7.9-3.7 16.9-2 25 .3 1.3 2.2 1.5 2.7.4 5-9.7 5.7-21.1 11.1-30.6.6-1.1-.4-2.6-1.7-2.2-6.3 1.9-14.5 2.9-21 1.1.3.6.7 1.2 1 1.8 1-3.1 5.1-5.2 7.6-6.9 3.9-2.5 7.6-1.9 12-1.8 2.2.1 2.1-2.9.2-3M56.5 143.5c1.3 10.6 3.1 21.6 8 31.2.9 1.7 3.5.2 2.6-1.5-4.6-9.1-6.4-19.6-7.6-29.7-.2-1.9-3.2-2-3 0M56.9 144.9c-2.4 4.8-6.9 9.3-6.6 15 .1 1.9 3.1 1.9 3 0-.2-5 4.1-9.2 6.2-13.5.9-1.7-1.7-3.2-2.6-1.5"/><path class="st4" d="M89 131.9c1.2 4.9 3.8 8.8 8.4 11.1 2.1 1 4.5 1.8 6.9 2 1.5.2 3.1.3 4.6.6 2.4.5 1.8 2.7 1.9 4.5.1 1.3 1.6 2 2.6 1.1 3.9-3.9 9-9.2 9.2-15.1.1-2.3-1.9-5.5-4.5-5.4-1.2 0-2.4.4-3.6.1-1.4-.3-2.5-1.4-3.5-2.3-2.1-1.8-4.3-3.7-6.7-4.9-1.2-.6-3 .7-2.1 2.1.3.4.6.9.7 1.4.7-.6 1.5-1.1 2.2-1.7-2.5-1.5-4.5-3.5-6.9-5.1-1.5-1-2.8 1.1-1.8 2.4 4.6 5.5 11.3 8.3 17.2 12.2 1.6 1.1 3.1-1.5 1.5-2.6-5.6-3.8-12.1-6.4-16.6-11.8l-1.8 2.4c2.4 1.6 4.4 3.6 6.9 5.1 1 .6 2.7-.4 2.2-1.7-.3-.7-.6-1.5-1-2.1l-2.1 2.1c3.7 1.7 6.2 5.2 9.8 7 2.5 1.3 7.1-.5 7 3.5-.1 4.6-5.2 9.4-8.3 12.5.9.4 1.7.7 2.6 1.1-.1-2.4.3-4.7-1.8-6.4-1.8-1.5-4.9-1.4-7.1-1.6-6.7-.7-11.4-4.5-13-11-.5-2.2-3.4-1.4-2.9.5M96 94.3c1.9 0 1.9-3 0-3-2 0-2 3 0 3M94.3 83.8c-2.9 7.9-5.7 15.8-7.5 24-.4 1.6 1.9 2.7 2.7 1.2 4.3-8.3 7.4-17.1 10.4-25.9H97c.9 5.4-.6 10.8-.1 16.3.1 1.3 2.1 2.2 2.8.8 3.7-7.8 3.8-16.7 7.5-24.4-.9-.1-1.8-.2-2.7-.4 2.8 12.8 3.4 25.9 5.1 38.9.2 1.3 2.2 1.5 2.7.4 2.1-4.9 1-10.6.8-15.8-.2-7.7-2.1-15.3-2.6-22.9-1 .1-2 .3-2.9.4 3.6 9.9 6.6 20 10.8 29.7.4.8 1.8 1 2.4.3 3.5-4.5 3-10.3 4.2-15.5-.9.1-1.8.2-2.7.4 7.5 10.9 1.5 26.4-3.3 37.1h2.6c-2.2-3.7-3.2-7.9-5.8-11.3-.5-.7-1.7-1.1-2.4-.3-5.5 6.3-5.2 15-8.7 22.3.9.1 1.8.2 2.7.4-1.7-6-.7-12.3-3.3-18.1-.4-.8-1.4-.8-2.1-.5-3 1.3-4.1 4.6-6.9 6.2-.3.1-.6.3-.9.4.6.6.7.7.3.2-.3-.6-.9-1.1-1.4-1.4-1-.6-2.4-1.8-3.7-1.8-4.5 0-9.2 8.5-8.3 12.5 1.4 6.2 8.4 4.4 12.9 5.7 2.2.6 2.9 4.6 4 6.3 1.3 2.1 3.3 3 5.7 2.4 1.9-.4 1.1-3.3-.8-2.9-2.3.5-3.2-2.6-3.9-4.2-.8-1.7-1.6-3.2-3.3-4.1-2.9-1.5-11.4.4-11.6-4.2-.1-2.4 1.9-5.4 3.5-7 1.2-1.3 1.8-1.4 3.2-.5 1 .6 1.2 1.6 2.1 2.1 1.3.8 3.5-.6 4.5-1.4 2.2-1.7 3.4-4.5 6-5.6-.7-.2-1.4-.4-2.1-.5 2.4 5.5 1.4 11.7 3 17.4.3 1.2 2.2 1.6 2.7.4 3.3-6.9 3.1-15.7 8.2-21.7l-2.4-.3c2.6 3.4 3.6 7.6 5.8 11.3.5.9 2.1 1.1 2.6 0 5.3-11.7 11.5-28.3 3.3-40.1-.7-1-2.4-1-2.7.4-1 4.5-.4 10.4-3.4 14.2l2.4.3c-4.1-9.4-7-19.3-10.5-29-.5-1.5-3.1-1.4-2.9.4.5 7 1.9 13.8 2.5 20.8.2 2.7.3 5.3.4 8 .2 2.7.4 5.9-.7 8.4.9.1 1.8.2 2.7.4-1.7-13-2.3-26.1-5.1-38.9-.3-1.2-2.2-1.5-2.7-.4-3.8 7.7-3.8 16.7-7.5 24.4.9.3 1.9.5 2.8.8-.5-5.7.9-11.4-.1-17.1-.3-1.6-2.5-1.3-2.9 0-2.9 8.6-5.9 17.1-10.1 25.2l2.7 1.2c1.8-8.2 4.7-16.1 7.5-24 1-2.4-1.9-3.2-2.6-1.4"/><path class="st5" d="M133.8 95.7c.7-4-.7-8-2.4-11.6-.8-1.8-3.4-.2-2.6 1.5 1.3 2.8 2.6 6.2 2.1 9.3-.3 1.9 2.6 2.7 2.9.8M126.1 83.8v.4c0 .8.7 1.5 1.5 1.5s1.5-.7 1.5-1.5v-.4c0-.8-.7-1.5-1.5-1.5s-1.5.7-1.5 1.5M128.6 84.1c-3.6-4.3-4.6-10.2-8.8-14.2-1.4-1.3-3.5.8-2.1 2.1 4.2 3.9 5.3 9.8 8.8 14.2 1.2 1.5 3.3-.6 2.1-2.1M120.6 78.5c1.4 3.9 3.1 7.7 5.5 11.1 1.1 1.6 3.7.1 2.6-1.5-2.2-3.2-3.8-6.8-5.2-10.4-.7-1.8-3.6-1-2.9.8M129.3 82.7c1.9 0 1.9-3 0-3-2 0-2 3 0 3"/><path class="st6" d="M89 71.5c1.9 0 1.9-3 0-3-2 0-2 3 0 3M90 68.8c-5.7-1.2-11.2-3.4-17-3.4-1.9 0-1.9 3 0 3 5.6 0 10.9 2.1 16.3 3.2 1.7.5 2.5-2.3.7-2.8M80.1 65.6c5.8-.7 12.3-4.2 18.1-2 1.8.7 2.6-2.2.8-2.9-6.3-2.4-12.6 1.1-18.8 1.9-2 .3-2 3.3-.1 3M81.6 59.9c-3.3.1-4.2 2.5-6.9 4-2.8 1.6-6.8 1.7-8 5.1-1.1 3-2.1 6.2-3 9.3-.8 2.7-1.2 5.7.3 8.2 1 1.7 3.6.2 2.6-1.5-2.1-3.6 1.5-9.3 2.5-13 .4-1.5.6-2.6 2.1-3.4 1.3-.7 2.9-1 4.3-1.7.9-.4 1.9-.9 2.6-1.6 1.1-1.1 1.8-2.3 3.6-2.4 1.8 0 1.8-3-.1-3M85.5 84.1c-.3 3.2-1 6.3-1.4 9.5-.4 2.8-1.7 5.4-2.1 8.2-.3 1.9 2.6 2.7 2.9.8.4-2.8 1.6-5.4 2.1-8.2.6-3.4 1.2-6.9 1.6-10.3.1-1.9-2.9-1.9-3.1 0M72.1 100c1-1.9 2.4-3.5 3.6-5.2 1.5-2.2 2.5-4.7 3.7-7 2.6-4.9 6.5-9 9.2-13.9.9-1.7-1.7-3.2-2.6-1.5-2.5 4.6-5.8 8.7-8.7 13-1.5 2.2-2.4 4.8-3.8 7.1-1.3 2.1-2.9 3.8-4 6-.9 1.7 1.7 3.2 2.6 1.5M61.4 96.6c4.3 1.2 8.3 3.7 12.8 3.5 1.9-.1 1.9-3.1 0-3-4.2.1-8.1-2.3-12.1-3.4-1.8-.5-2.5 2.4-.7 2.9M82.6 99.7c-.1.3-.1.6-.2.8 0 .2-.1.3-.1.5 0 .1-.1.2-.1.2.1-.2.1-.2 0 0-.4.7-.2 1.6.5 2.1.7.4 1.7.2 2.1-.5.4-.7.6-1.5.8-2.3.2-.8-.2-1.6-1-1.8-1-.2-1.8.3-2 1M82.9 99.9c-.1.6-.3 1.1-.4 1.6-.3.8.3 1.6 1 1.8.8.2 1.6-.3 1.8-1 .2-.5.3-1.1.4-1.6.2-.8-.2-1.6-1-1.8-.8-.3-1.6.2-1.8 1M85.6 104.1c.2-.7.2-1.5.2-2.2 0-.8-.7-1.5-1.5-1.5s-1.5.7-1.5 1.5V103.3c-.2.8.2 1.6 1 1.8.7.3 1.6-.2 1.8-1M90.9 70.3c3.3-3.6 7.6-6.4 12.1-8.3-.8-.4-1.5-.9-2.3-1.3-.7 5.7-4.6 10.5-6.1 16-.5 1.9 2.4 2.7 2.9.8 1.6-5.8 5.5-10.7 6.2-16.7.2-1.3-1.4-1.7-2.3-1.3-4.7 2-9.3 5-12.8 8.8-1.1 1.3 1 3.4 2.3 2M102.4 57.8c-4.2 5.9-8.2 11.9-10.7 18.8-.6 1.8 2.3 2.6 2.9.8 2.3-6.6 6.3-12.4 10.3-18.1 1.2-1.5-1.4-3-2.5-1.5M97 77.5c-1.6-2.1-3.5-3.9-5.6-5.5-1.2-.9-2.9.9-2.1 2.1 1.4 2.1 3.3 3.7 5.3 5.2.7.5 1.7.1 2.1-.5.4-.8.1-1.6-.5-2.1-1.6-1.2-3.1-2.5-4.3-4.1l-2.1 2.1c1.7 1.3 3.3 2.7 4.6 4.4.5.6 1.3 1 2.1.5.6-.4 1-1.5.5-2.1"/><path class="st5" d="M132.5 93.8c1.9 0 1.9-3 0-3-2 0-2 3 0 3M134.6 93.7c-.1-4.8-1.6-9.3-2.6-13.9-.4-1.9-3.3-1.1-2.9.8.9 4.4 2.4 8.6 2.5 13.1 0 1.9 3 1.9 3 0"/><path class="st7" d="M57.6 145.3c.1 4.9 1.3 9.6 2.2 14.4 1.1 5.4 1.1 10.9 2.2 16.3.4 1.9 3.3 1.1 2.9-.8-.9-4.7-1-9.5-1.8-14.2-.8-5.3-2.4-10.4-2.5-15.7 0-1.9-3-1.9-3 0M64.8 178.9c1.9 0 1.9-3 0-3s-1.9 3 0 3M49.6 166.4c2.2-3.7 3.8-7.8 5.8-11.5 1.7-3.1 4.1-5.7 5.1-9.2.6-1.9-2.3-2.6-2.9-.8-1.1 3.5-3.6 6.3-5.3 9.4-1.9 3.5-3.3 7.2-5.3 10.6-1 1.7 1.6 3.2 2.6 1.5M58.3 145.8c3.3 4.9 7.5 9 11.4 13.4 4.1 4.6 9.4 7.9 13.4 12.6 1.3 1.5 3.4-.7 2.1-2.1-3.8-4.4-8.6-7.8-12.7-11.8-4.2-4.1-8.4-8.7-11.7-13.5-1-1.8-3.6-.3-2.5 1.4M76.5 160.6c-1.2-4-4.2-7.1-7.6-9.4-1.4-.9-3.1 1.2-1.8 2.4.7.6 1.5 1.1 2 1.9l2.4-1.8c-3-3.9-6.9-6.9-10.3-10.3-1.4-1.4-3.5.7-2.1 2.1 3.4 3.5 7.3 6.5 10.3 10.3 1.1 1.4 3.3-.4 2.4-1.8-.7-1.1-1.5-1.7-2.5-2.6l-1.8 2.4c2.8 1.9 5.3 4.4 6.2 7.7.4 1.8 3.3 1 2.8-.9M86.1 172.7c1.9 0 1.9-3 0-3s-1.9 3 0 3M88.1 170.8c0-1.9-.5-3.4-1.3-5.1-1.2-2.7-1.8-5.5-2.4-8.3-.9-4.1-2.4-8.4-5.2-11.6-1.3-1.5-3.4.7-2.1 2.1 2.5 2.8 3.5 6.7 4.4 10.3.5 1.9.8 3.8 1.4 5.7.7 2.4 2.2 4.4 2.2 6.9-.1 1.9 2.9 1.9 3 0M88.8 169.1c.5-3.8 1.7-7.5 2.1-11.4.2-1.9-2.8-1.9-3 0-.4 3.9-1.6 7.6-2.1 11.4-.2 2 2.8 1.9 3 0M61.5 144.2c3.9-2.4 7.5-5.2 11.7-7 1.8-.8.2-3.4-1.5-2.6-4.2 1.9-7.8 4.7-11.7 7-1.6 1-.1 3.6 1.5 2.6M64.7 111.3c.8 4.7 2.1 9.2 3.6 13.7 1.2 3.6 2.3 7.6 4.7 10.6 1.2 1.5 3.3-.6 2.1-2.1-2.2-2.8-3.1-7-4.3-10.3-1.4-4.2-2.5-8.4-3.3-12.8-.2-1.8-3.1-.9-2.8.9M47 131.7c1.4 2.6 3.7 4.4 5.4 6.7 1.7 2.3 3 4.9 4.9 7.2 1.2 1.5 3.3-.6 2.1-2.1-1.9-2.3-3.2-4.9-4.9-7.3-1.6-2.1-3.6-3.7-4.9-6-.9-1.8-3.5-.3-2.6 1.5M61.2 145.8c2.8-1.4 5.8-2.4 8.8-3.3 1.9-.5 1.1-3.4-.8-2.9-3.3.9-6.4 2.1-9.5 3.6-1.7.9-.2 3.5 1.5 2.6"/></g><g class="st2"><defs><path id="SVGID_5_" d="M-108.6-131.6h367.2v475.2h-367.2z"/></defs><clipPath id="SVGID_6_"><use xlink:href="#SVGID_5_" overflow="visible"/></clipPath><path class="st8" d="M108.6 162.8c-4.2 0-7.7-1.4-7.8-1.5h-.1l8.1-16.6 9.7 14.4h-.1c-2.5 2.4-5.8 3.7-9.8 3.7zM108.8 144.8l-8 16.4s10.7 4.4 17.5-2.2l-9.5-14.2z"/><path class="st9" d="M108.6 144.7l19.1 5.2-9.3 9.2zM127.5 149.9l-9.1 9.1-9.6-14.2z"/><path class="st10" d="M108.8 144.9v-.2c.6.1 1.2.2 1.9.2 6 0 10.7-6.3 10.7-6.4v-.1l11.5 3.8v.1c-.4 1.1-5.1 7.3-5.3 7.6l-18.8-5zM121.5 138.6s-5.6 7.8-12.7 6.2l18.7 5.1s4.9-6.4 5.3-7.5l-11.3-3.8z"/><path class="st11" d="M121.3 138.6l15-10.9-3.4 14.8zM136.2 127.9l-14.7 10.7 11.3 3.7z"/><path class="st12" d="M90 156.1l19-11.5-8.1 16.7zM90.2 156.1l10.7 5.1 7.9-16.4z"/><path class="st13" d="M80.1 147.2l15.1-8.8-5 17.9zM80.2 147.2l10 8.9 4.9-17.5z"/><path class="st14" d="M95 138.4l.1.1c3.1 3.1 13.6 6.2 13.7 6.2l.2.1-19 11.5 5-17.9zM108.8 144.8s-10.7-3.1-13.8-6.2l-4.9 17.5 18.7-11.3z"/><path class="st15" d="M74.3 135.2c-.4-5.5 2.5-12.4 2.6-12.5l.1-.1 10.6 14.8-13.3-2.2zM77 122.8s-2.9 6.9-2.6 12.4l13 2.2L77 122.8z"/><path class="st16" d="M76.8 122.7l23.6-2.4-13 17.1zM100.2 120.4l-12.8 16.9L77 122.8z"/><path class="st17" d="M87.3 137.4l4.1-5.5 3.8 6.8zM95.1 138.6l-3.7-6.6-4 5.3z"/><path class="st18" d="M91.2 131.9l6.1 2-.1.2-4.5.4zM97.2 134l-4.5.4-1.3-2.4z"/><path class="st19" d="M91.3 132.1l8.8-11.7h.2l-3 13.7zM100.2 120.4l-3 13.6-5.8-2z"/><path class="st20" d="M99.7 122.2l6.7 11.3-9.3.6zM106.2 133.5l-9 .5 2.6-11.6z"/><path class="st21" d="M106.2 133.5l-6.3-10.7.1-.1 16.4 11.4zM116.1 134l-9.9-.5-6.2-10.7z"/><path class="st22" d="M116.1 134.1c-.6 0-8.9-6.1-12.5-8.7l.1-.2 10.6 1.6v.1c.2.7 2 6.7 1.8 7.2m-12.1-8.6c4.6 3.4 11.2 8.1 12 8.5-.1-.6-1.2-4.4-1.9-6.9l-10.1-1.6zM114.2 126.9l-10.5-1.6s12.4 9.1 12.5 8.7c0-.4-2-7.1-2-7.1"/><path class="st23" d="M116.1 134.1c-.4-.1-1.6-5.1-2-7.2v-.1l11.4-.8-.2.2c-.2.1-8.7 7.5-9.2 7.9zm-1.8-7.1c.6 2.5 1.5 6.5 1.8 6.9.7-.6 7.6-6.6 8.8-7.7l-10.6.8zM125.2 126.1l-11 .8s1.7 7.3 1.9 7.1c.4-.3 9.1-7.9 9.1-7.9"/><path class="st24" d="M115.9 134.1l9.4-8.1v10zM125.2 135.9l-9.1-1.9 9.1-7.9z"/><path class="st25" d="M125.1 126.1l11.8-7.6-.7 9.5-11.1 8.1zM136.8 118.7l-11.6 7.4v9.8l11-8z"/><path class="st26" d="M129.5 109l5.3.7c1.3 1.2 2 8.7 2 9v.1l-11.8 7.6 4.5-17.4zM129.6 109.1l-4.4 17 11.6-7.4s-.7-7.8-1.9-8.9l-5.3-.7z"/><path class="st27" d="M117.1 110.2l12.6-1.2-4.5 17.4zM117.2 110.3l8 15.8 4.4-17z"/><path class="st28" d="M121.2 126.4s2.2-3.7 1.6-4.8l.2-.1 2.4 4.8-4.2.3v-.2zM121.2 126.4s2.2-3.7 1.6-4.9l2.3 4.6-3.9.3z"/><path class="st29" d="M110.8 125.5c-.3 0-.5-.1-.8-.2-.3-.1-.6-.3-1.1-.3-.5-.1-.8-.2-1-.2-.3-.1-.3-.1-.5 0-.3.2-.7.3-1.1.5-.1.1-.3.1-.4.2-.1 0-1.1-.4-1.2-.9 0-.2.1-.4.4-.6 1.2-.7 3.6-.9 4.7-.4.9.4 1.8 1.1 1.8 1.6 0 .1-.1.2-.3.3h-.5m-3.2-1c.1 0 .2 0 .3.1.2.1.5.1 1 .2s.9.2 1.2.4c.4.2.7.3 1.1.1.2-.1.2-.2.2-.2 0-.3-.7-.9-1.7-1.4-1-.5-3.4-.3-4.5.4-.2.1-.3.3-.3.4 0 .3.7.7 1 .8.1-.1.3-.1.4-.2.4-.2.8-.3 1-.5.1-.1.2-.1.3-.1M105.8 125.3s-1.9-.7-.8-1.4c1.1-.7 3.5-.9 4.6-.4 1.1.6 2.3 1.4 1.6 1.7-.7.3-1.1-.2-2.3-.5-1.2-.2-1.2-.4-1.6-.2-.4.4-1 .6-1.5.8"/><path class="st30" d="M117.5 126.2c-.4 0-.7-.1-.8-.3-.2-.4-.3-1 0-1.3.1-.2.3-.3.6-.3h.1c.2 0 .4 0 .6-.1.4-.1.8-.1 1.3.1.8.2 1.5 1.1 1.5 1.1s-.4.8-1.6.4c-.2.2-1 .4-1.7.4m-.3-1.8c-.2 0-.3.1-.4.2-.2.2-.1.7.1 1.1.2.4 1.5.2 2.3 0 .9.3 1.2-.1 1.3-.3-.2-.2-.8-.8-1.4-1-.5-.1-.8-.1-1.2 0h-.7zM119.2 125.8s-2.1.6-2.4 0c-.3-.6-.3-1.5.4-1.5s1.2-.2 1.9 0c.8.2 1.5 1.1 1.5 1.1s-.3.7-1.4.4"/><path class="st31" d="M84.9 104.6l5.4 16.9-13.5 1.4zM84.9 104.9L77 122.8l13.2-1.4z"/><path class="st32" d="M90.2 121.6l-5.4-16.9c.2-.2 12 .3 17.2 1.2h.1l-.1.1-11.8 15.6zM85 104.8l5.2 16.5 11.6-15.3c-5.4-.9-15.7-1.3-16.8-1.2M102 105.9l-11.8 15.5-5.3-16.7c.2-.1 11.6.3 17.1 1.2"/><path class="st33" d="M102.1 105.6l-1.8 14.9-10.3 1zM100.2 120.4l1.8-14.5-11.8 15.5z"/><path class="st34" d="M102 105.8l7.4 6-9.3 8.9zM109.2 111.8l-9 8.6 1.8-14.5z"/><path class="st35" d="M118.1 126l1.1-.2c.2 0 .4.1.5.1.5 0 .8-.3.9-.4-.6-1-1.5-1.1-2-1.1h-.4l-.9-14.1h.2l5.6 11.2c.5 1.6-1.5 4.9-1.6 5l-2.9.2-.5-.7zM117.2 110.3l.9 14s1.6-.3 2.5 1.2c0 0-.4.7-1.5.4l-1 .2.2.6 2.8-.2s2.1-3.3 1.6-4.9l-5.5-11.3z"/><path class="st36" d="M111.6 121.6l3-15.9 2.7 4.5 1 14.2zM114.6 105.9l2.6 4.4 1 13.9-6.5-2.7z"/><path class="st37" d="M105.8 125.4h-2.2l-3.9-3v-.1l.4-2 4.6-4.3.1.1 5.1 7.7-.3-.1c-2.2-.9-4.5.4-4.5.4-.2.2-.3.3-.3.5 0 .4.8.7 1.1.8h-.1zm-2.1-.1h1.7c-.3-.2-.7-.4-.8-.7 0-.2.1-.4.4-.6 0 0 2.3-1.2 4.4-.5l-4.8-7.1-4.4 4.2-.4 1.9 3.9 2.8zM109.6 123.6l-5-7.4-4.5 4.3-.4 2 3.9 2.9h2.1s-1.9-.6-.8-1.4c.1 0 2.5-1.3 4.7-.4"/><path class="st38" d="M104.6 116.2l4.7-4.5 2.5 9.8-2.2 2.2zM109.2 111.8l2.5 9.7-2.1 2.1-4.9-7.4z"/><path class="st39" d="M109.2 61l-5.2-4.1h.2s1.3-.4 3.4-.4c5.6 0 16 2.6 23.5 20.3l.1.3-22-16.1zM104.2 56.9s16.3-4.8 26.8 19.9l-21.7-15.9-5.1-4z"/><path class="st40" d="M108.1 66.7L104 56.6l4.8 3.8 1.2 6.3zM108.2 66.7l-4-9.8 4.5 3.6 1.2 6.2z"/><path class="st41" d="M96 77.9l8.2-21.3 4.1 10.1h-.1c-4.9.8-12 11.2-12 11.3l-.2-.1zM96.1 78c.1-.2 7.1-10.5 12.1-11.3l-4-9.8L96.1 78z"/><path class="st42" d="M89.1 70.3l15.1-13.5.1.1-8.2 21.2zM89.2 70.3l6.9 7.7 8.1-21.1z"/><path class="st43" d="M76.7 60.8l.3-.1s.1 0 .1-.1c2.9-1.8 10.6-5.9 18.5-5.9 3.3 0 6.2.7 8.7 2.1l.1.1-6 5.4-21.7-1.5zM77 60.7c.3-.2 16-10.2 27.2-3.8l-5.9 5.3L77 60.7z"/><path class="st44" d="M109.8 66.7l-1.2-6.4L131 76.7l-.1.2zM109.9 66.7L131 76.8l-22.3-16.3z"/><path class="st45" d="M68.9 66c.1 0 5.8-4.1 8.1-5.3l21.3 1.5v.2l-29.4 3.9V66zM68.9 66.1s5.8-4 8.1-5.3l21.3 1.5-29.4 3.8z"/><path class="st46" d="M68.9 66.1V66l29.6-3.9-9.3 8.3zM89.2 70.3l-20.3-4.2 29.4-3.9z"/><path class="st47" d="M117 70l14 6.7 2.9 18h-.2zM117.2 70.2l16.6 24.5-2.8-17.9z"/><path class="st48" d="M134.9 109.9h-.2l-.6-13.2-3.2-19.9h.2c0 .2 9 19.8 3.8 33.1m-3.7-32.5l3.1 19.3.6 12.8c4.3-11.9-2.3-28.7-3.7-32.1M134.8 109.9l-.6-13.2-3.2-19.9s9 19.7 3.8 33.1"/><path class="st49" d="M84.7 105.2l4.5-35.1 7.1 7.9h-.1c-.1.1-5.3 5.1-6.4 10.4l-5 16.8h-.1zM96.1 78s-5.3 5.1-6.4 10.5l-5 16.8 4.5-34.9 6.9 7.6z"/><path class="st50" d="M72.6 97.4l16.5-27.1h.2l-4.5 35.1zM72.7 97.4l12.1 7.8 4.4-34.9z"/><path class="st51" d="M72.7 97.5c-.3 0-1.6-10.6-3.9-31.4V66l20.5 4.3-16.6 27.2zM68.9 66.1s3.5 31.8 3.8 31.3c.3-.5 16.5-27.1 16.5-27.1l-20.3-4.2z"/><path class="st52" d="M62.2 95.2L68.8 66h.2l3.8 31.5zM62.3 95.1l6.6-29 3.8 31.3z"/><path class="st53" d="M53.3 97.3c0-.1.1-.3.2-.7C58.1 82 63.5 71.1 68.8 66l.2-.2-6.7 29.4-9.2 2.3.2-.2zM53.3 97.4c.2-.6 6.5-22.6 15.6-31.3l-6.6 29.1-9 2.2z"/><path class="st54" d="M101.3 94.8c-.1 0-.3 0-.5-3.4v-.1l3.6.8-.1.1c-.7.6-2.7 2.1-2.9 2.5l-.1.1zM100.9 91.4s.2 3.7.4 3.2c.2-.4 2.9-2.5 2.9-2.5l-3.3-.7z"/><path class="st55" d="M97 93.1l3.9-1.8.5 3.5zM97.2 93.1l3.7-1.7.4 3.3z"/><path class="st56" d="M95.6 91l5.3.4v.1l-3.7 1.7zM95.8 91.1l1.4 2 3.7-1.7z"/><path class="st57" d="M91.4 91.5v-.1l4.4-.4 1.7 2.2zM91.4 91.4l4.4-.3 1.4 2z"/><path class="st58" d="M119.4 95.3l3.6-2.4 1.1 3zM119.7 95.3l3.2-2.2 1 2.7z"/><path class="st59" d="M122.8 93h4.5l-3.4 2.9zM127.1 93.1l-3.2 2.7-1-2.7z"/><path class="st60" d="M123.9 95.9c-.1-.1-.1-.1 0-.1l.4-.4 2.8-2.3.1.1 2.6 2.8h-.2c-2-.3-5.3-.4-5.7-.1.1-.1.1 0 0 0 .1 0 .1 0 0 0m1.8-.4c1.4 0 3.1.1 3.7.1l-2.3-2.5c-.4.3-2.1 1.8-2.8 2.4.3.1.8 0 1.4 0M129.6 95.8l-2.5-2.7s-3.6 3-3.2 2.7c.5-.4 5.7 0 5.7 0"/><path class="st61" d="M126.9 92.9l3.5.8-.8 2.2zM130.3 93.8l-.7 2-2.5-2.7z"/><path class="st62" d="M111.7 96.4c-.1 0-.3 0-2.9-29.8v-.1h1.1l7.8 3.7v.1c-1 4.4-5.8 25.9-6 26.1zM108.8 66.7s2.6 30 2.8 29.7c.2-.2 5.9-26 5.9-26l-7.7-3.7h-1z"/><path class="st63" d="M111.7 96.5c-.1 0-.5-.6-5.9-11.9-2.8-5.9-5.6-11.8-5.7-11.9 4.1-5.2 8-6.1 8-6.1h.8v.1c0 .3 2.7 29 2.8 29.7v.1m-11.4-23.8c3.5 7.5 10.1 21.1 11.3 23.3-.4-3.3-2.6-27.4-2.8-29.3h-.6c-.1 0-3.9.9-7.9 6M100.2 72.7s11.6 24.4 11.5 23.7c-.1-.8-2.8-29.7-2.8-29.7h-.7s-3.9.7-8 6"/><path class="st64" d="M117.5 70.3h.2l5.3 22.8-3.3 2.2-8.1 1.2zM119.7 95.3l-8 1.1 5.9-26 5.3 22.7z"/><path class="st65" d="M127.5 93.2h-4.6l-5.3-22.6c0-.1-.1-.2 0-.2h.2v.2c.9 2.2 13.6 20.4 13.7 20.5l-1.1 2.8-2.9-.7zM130.3 93.8l1.1-2.7s-14-20-13.8-20.8l5.3 22.7h4.6l2.8.8z"/><path class="st66" d="M111.6 96.4c-.7-.4-7.4-4.1-7.5-4.2l-3.4-.8-.7-18.8h.2l11.6 23.9-.2-.1zM111.7 96.4c-.7-.4-7.5-4.2-7.5-4.2l-3.4-.8-.7-18.8 11.6 23.8z"/><path class="st67" d="M95.8 91.2l-4.4.3-1.9-2.4c0-.1.6-5.7 6.6-11.2l4.2-5.4.7 19.1-5.2-.4zM91.4 91.4l-1.9-2.3s.6-5.7 6.6-11.1l4.1-5.3.7 18.8-5.1-.3-4.4.2z"/><path class="st68" d="M104 92l7.8 4.3-2.6 7.8zM109.2 103.9l-5-11.7 7.5 4.2z"/><path class="st69" d="M109.1 103.9l2.6-7.8 3.1 10zM114.6 105.9l-5.4-2 2.5-7.5z"/><path class="st70" d="M111.6 96.3l8.6-1.1-5.6 11zM120.1 95.3l-5.5 10.6-2.9-9.5z"/><path class="st71" d="M109.2 111.8l-.1-8.1 5.6 2.2-2.9 15.6h-.2zM109.2 111.8v-7.9l5.4 2-2.9 15.6z"/><path class="st72" d="M101.8 105.9l7.5-2.2v8.3zM102 105.9l7.2-2v7.9z"/><path class="st73" d="M101.9 106l.4-2.6 1.8-11.5.1.3c.9 1.9 5.2 11.2 5 11.7-.2.6-6.1 1.9-7.3 2.1zm2.4-13.5l-2.1 13.3c3.3-.7 6.9-1.7 7-2 0-.4-2.9-6.9-4.9-11.3M104.2 92.2l-1.8 11.2-.4 2.5s7-1.5 7.2-2.1c.2-.5-5-11.6-5-11.6"/><path class="st74" d="M98.2 99.1l3-4.5 3.1-2.6-1.9 12.2zM102.4 104l1.8-11.8-2.9 2.5-3 4.4z"/><path class="st75" d="M91.1 91.3l6.2 1.7 4 1.8-3 4.4zM91.4 91.4l6.9 7.7 2.9-4.2-4-1.8z"/><path class="st76" d="M98.8 99.7c-1.6-.3-4.7-.4-6.8-.4-1.4 0-2 .1-2 .1l-.2.1 1.6-8.2 7.7 8.4h-.3zM89.9 99.3c.4-.2 6.5-.1 8.9.3l-7.4-8.1-1.5 7.8z"/><path class="st77" d="M89.5 88.9l2 2.5-1.4 7.8-4.5 3zM85.7 102l4.3-2.8 1.4-7.8-1.9-2.3z"/><path class="st78" d="M100.2 103.6l-1.8-1.9c-1.7-.7-3.4-1.1-5.2-1.1-4.4 0-7.6 2.4-7.7 2.4l-.2.1.3-1.3 4.2-2.6c1.1-.3 2.4-.5 3.7-.5 2.9 0 5.2.8 5.3.8l3.8 4.6-2.4-.5zM85.4 102.9s5.9-4.5 13-1.3l1.7 1.8 2.2.5-3.6-4.4s-4.7-1.5-8.9-.3l-4.1 2.6-.3 1.1z"/><path class="st79" d="M129.5 95.8l.7-2 1.1-2.9 2.7 3.9.3 1.9.6 12.9-.2.1zM134.8 109.6l-5.2-13.8.7-2 1.1-2.7 2.5 3.7.3 1.9z"/><path class="st80" d="M126.8 101.5l-2.9-5.7h.1c.5-.3 5.2 0 5.7 0h.1l-3 5.7zm-2.7-5.7l2.7 5.3 2.7-5.2c-2-.2-4.9-.2-5.4-.1M123.9 95.8l2.8 5.5 2.8-5.5c.1 0-5.1-.3-5.6 0"/><path class="st81" d="M132.7 103.7l-.2-.1s-3.3-2.2-5.6-2.2h-.2l3-5.8 3 8.1zm-5.8-2.5c2.1 0 4.7 1.6 5.4 2.1l-2.7-7.3-2.7 5.2zM132.5 103.5s-3.3-2.2-5.7-2.2l2.8-5.5 2.9 7.7"/><path class="st82" d="M120.1 95.1l1.5 7.1-7.1 3.9zM114.7 105.9l6.8-3.7-1.4-6.9z"/><path class="st83" d="M114.5 105.8l5.1-2.7-2.3 7.4zM119.4 103.3l-2.2 7-2.5-4.4z"/><path class="st84" d="M129.5 109.2c-.1-.7.1-1.2.5-1.7 1-1.1 3.1-1.1 3.5-1.1h.1l1.3 3.5-5.4-.7zM133.6 106.5s-4.3-.1-4 2.6l5.2.7-1.2-3.3z"/><path class="st85" d="M119.4 103.1l.1.3s1 3.5 11.2 3.9c.1 0 .1 0 .1.1.1.3-.8 1.5-1.1 1.7l-12.5 1.2 2.2-7.2zM119.4 103.4s.9 3.6 11.3 4c.3 0-.6 1.5-1 1.7l-12.4 1.2 2.1-6.9z"/><path class="st86" d="M46.6 128.2l6.7-30.9 9-2.3 10.6 2.3-26.2 31zM46.7 128.2l6.6-30.8 9-2.3 10.4 2.3z"/><path class="st87" d="M74.3 135.2L65 106.4l7.8-9.2 12.3 7.6v.1l-7.9 17.9c0 .1-3.1 10-2.5 12.3l-.4.1zm-9.1-28.7l9.1 27.9c0-3.2 2.5-11.3 2.6-11.6l7.9-17.8-12-7.4-7.6 8.9zM74.4 135.1L65 106.4l7.7-9.1 12.2 7.5-7.9 18s-3.2 9.9-2.6 12.3"/><path class="st88" d="M65 106.4h.1l9.4 28.8-14.9 9.8zM59.7 144.8l5.4-38.3 9.3 28.6z"/><path class="st87" d="M46.6 128.2l18.6-22-5.4 38.8zM46.7 128.2l13 16.6 5.4-38.3z"/><path class="st89" d="M59.6 144.8l14.9-9.8 13 37.5-.2.1zM87.4 172.5l-27.7-27.7 14.7-9.7z"/><path class="st90" d="M59.6 144.5l28 28.1-22.6 6.7zM65.1 179.2l-5.4-34.4 27.7 27.7z"/><path class="st87" d="M46.6 168.6l13.2-24.1 5.4 34.9zM46.7 168.5l18.4 10.7-5.4-34.4zM46.6 168.5V128l13.2 16.8-13.1 23.8zM46.7 128.2v40.3l13-23.7z"/><path class="st91" d="M77.4 144l.2-.1c.9 1.2 2.3 3.1 2.7 3.3l10.1 8.9-2.8 16.5h-.2l-10-28.6zM90.2 156.1l-2.8 16.4-9.9-28.6s2.1 3.1 2.7 3.3l10 8.9z"/><path class="st92" d="M90.1 156l10.9 5.2-13.7 11.6zM100.9 161.2l-13.5 11.3 2.8-16.4z"/><path class="st93" d="M111.1 171.6l-.2-.2-10.1-10.1.1-.1c.1 0 6.5 2.8 13.1.5l.2-.1-.1.2c0 .1-3.1 6.6-3 9.5v.3zm-9.9-10.1l9.7 9.7c0-2.8 2.4-8.2 2.9-9.2-5.7 1.7-11.1 0-12.6-.5M114 161.8s-3.1 6.5-3 9.6l-10.1-10.1c0-.1 6.4 2.7 13.1.5"/><path class="st94" d="M101 161l-1.1 10.9-12.7.7zM87.4 172.5l12.4-.7 1.1-10.6z"/><path class="st95" d="M100.8 161l10.4 10.4-11.5.5zM111 171.3l-11.2.5 1.1-10.6z"/><path class="st96" d="M108.8 139.7l5.7-.2-5.7 5.5zM108.8 139.8v5l5.5-5.2z"/><path class="st97" d="M110.7 145c-1.1 0-1.8-.2-1.8-.2h-.2l.1-.1 5.5-5.2.1.1 3.1 3-.1.1c-2.4 1.9-5 2.3-6.7 2.3m-1.7-.3c.8.1 4.7.7 8.2-2.2l-2.9-2.9-5.3 5.1zM117.4 142.6l-3.1-3-5.5 5.2s4.6 1.1 8.6-2.2"/><path class="st98" d="M117.4 142.7l-3.3-3.2 6.6-.1v.1c0 .6-2.9 2.9-3.3 3.2zm-2.9-3l2.9 2.8c1.1-.9 2.9-2.4 3.1-2.9l-6 .1zM120.6 139.5l-6.3.1 3.1 3s3.2-2.6 3.2-3.1"/><path class="st99" d="M108.9 144.9h-.1c-.2-.1-6.1-1.9-7.4-2.6l-.2-.1 7.7-2.5v5.2zm-7.2-2.7c1.5.7 6.3 2.2 7.1 2.5v-4.8l-7.1 2.3zM101.4 142.2l7.4-2.4v5s-6-1.8-7.4-2.6"/><path class="st100" d="M101.4 142.3c-.1 0-4.2-1.5-6.4-3.6l-.2-.2h.2c.1 0 12.5 1.2 13.8 1.2v.2c.1 0-5.3 1.7-7.4 2.4zm-6.1-3.6c2.1 1.9 5.8 3.3 6.1 3.4 1.7-.5 5.6-1.8 6.9-2.2-2.3-.2-11.3-1.1-13-1.2M95.1 138.6s12.5 1.2 13.8 1.2c0 0-5.4 1.7-7.4 2.4-.1 0-4.2-1.5-6.4-3.6"/><path class="st101" d="M109.9 135.2v-.2l6.2-1.1 9.1 1.9v.2zM125.2 135.9l-15.3-.8 6.2-1.1z"/><path class="st102" d="M103.2 133.7v-.1l3-.2 9.9.5v.2l-5.9 1.1zM103.2 133.7l7 1.4 5.9-1.1-9.9-.5z"/><path class="st103" d="M93 134.5v-.2l4.2-.4 6-.3 7 1.4v.2zM93 134.4l17.2.7-7-1.4-6 .3z"/><path class="st104" d="M121.8 135.6l3.6.2-4 3zM121.8 135.7l-.3 2.9 3.7-2.7z"/><path class="st105" d="M117.6 139.6l-.2-4.2 4.5.3-.3 2.9-.9 1zM117.5 135.5l.2 4h2.9l.9-.9.3-2.9z"/><path class="st106" d="M93.5 136l-.9-1.7 5.1.2-.2 4.5zM97.5 138.8l-3.9-2.9-.9-1.5 4.9.2z"/><path class="st107" d="M95 138.7l-1.5-2.8.1-.1 4.1 3.1zM95.1 138.6l-1.5-2.7 3.9 2.9z"/><path class="st108" d="M97.4 138.9l.1-4.4 20.1.9.2 4.2-9 .3zM97.6 134.6l-.1 4.2 11.3 1 8.9-.3-.2-4z"/><path class="st109" d="M84.8 104.8l.6-1.9 3.5-1.9v.2s-.3 3 .4 3.8l.1.2-4.6-.4zM88.8 101.1s-.3 3 .5 3.8l-4.3-.3.5-1.8 3.3-1.7z"/><path class="st110" d="M96.8 105.4l-7.5-.3s-.9-.7-.6-4c0 0 3.8-1.9 8.5 0h.1v.1l-.5 4.2zm-7.4-.5l7.3.3.5-4c-4.4-1.8-7.9-.2-8.3 0-.3 2.8.4 3.6.5 3.7M97.2 101.1l-.5 4.2-7.4-.3s-.9-.7-.6-3.9c.1 0 3.8-1.9 8.5 0"/><path class="st111" d="M100 105.7l.1-2.3 2.3.5-.3 2.1zM100.2 103.5l-.1 2.1 1.9.3.3-1.9z"/><path class="st109" d="M96.7 105.4l.5-4.4h.1s.8.2 1.2.5l1.8 1.9-.1 2.2-3.5-.2zM100.1 105.6l-3.3-.3.5-4.2s.8.2 1.2.5l1.7 1.8-.1 2.2z"/><path class="st112" d="M127.3 102.7c-.7-.2-1.4-.3-2.1-.3-3.2 0-5.9 2.1-5.9 2.1l-.2.1.1-1.4 2.1-1.2c2.2-.8 4-.9 4.9-.9h.5c2.4 0 5.5 2 5.7 2.1l1 2.5-6.1-3zM119.3 104.5s4-3.2 8.1-1.8l5.9 3-.9-2.3s-3.2-2.1-5.7-2.1c0 0-2.2-.2-5.2.9l-2.1 1.1-.1 1.2z"/><path class="st113" d="M130.5 107.4c.1-.8.2-3-.3-3.2l.1-.2 3.1 1.5.4.9-3.2 1h-.1zM130.6 107.4s.4-3-.4-3.3l3 1.5.3.8-2.9 1z"/><path class="st114" d="M130.5 107.5l-2.2-.1.1-.1c.4-.7-.1-4.1-.1-4.2v-.2l2.1 1c.8.6.4 3.4.4 3.5l-.3.1zM128.3 103.2s.5 3.5.1 4.2h2.2v.1s.4-2.9-.4-3.4l-1.9-.9z"/><path class="st110" d="M128.5 107.5h-.1c-3.4.2-7.4-.8-7.5-.8-.4-.5.2-3.1.2-3.4 2.3-1.2 4.1-1.2 5.2-1 1.2.3 1.9.8 1.9.8.7 4.3.5 4.4.3 4.4.1 0 0 0 0 0m-7.5-1c.4.1 4.2 1 7.4.8h.1c.1-.2.1-.9-.3-4.1-.3-.2-2.9-2-6.9.2-.2.7-.5 2.7-.3 3.1M121.3 103.3s-.7 2.8-.3 3.3c0 0 4 1 7.5.8 0 0 .5.8-.1-4.2-.1 0-2.8-2.2-7.1.1"/><path class="st114" d="M120.9 106.7c-.1 0-.6 0-1-.4s-.7-1-.8-1.8c.1 0 1.6-1.1 2-1.2h.1v.1s-.2 2.8-.3 3.3v.1-.1c.1 0 .1 0 0 0m-1.5-2.2c.1.8.3 1.3.7 1.7.3.3.7.3.8.3 0-.6.2-2.6.2-3.1-.4.2-1.3.8-1.7 1.1M119.3 104.5s1.5-1.1 2-1.2c0 0-.2 2.8-.3 3.3 0 0-1.5.1-1.7-2.1"/><path class="st115" d="M124.7 104.8h-.4c-.1 0-1.1-.3-1.2-.7-.1-.4-.2-1.2-.2-1.3v-.1s1.1-.6 2.3-.4h.1c0 .1.6 1.6 0 2.2-.1.2-.4.3-.6.3m-.4-.2c.4.1.7 0 .9-.2.4-.5 0-1.8-.1-2-1-.1-1.9.3-2.1.4 0 .2.1.9.2 1.2 0 .2.7.5 1.1.6M124.3 104.7s-1.1-.3-1.2-.6c-.1-.4-.2-1.3-.2-1.3s1-.6 2.3-.4c0-.1 1 2.7-.9 2.3M95 102.9c-.2 0-.5-.1-.7-.1h-.1c-1-.2-.5-2.4-.5-2.5v-.1h.1c.8-.2 2.5.4 2.6.4h.1v.1c0 1.1-.2 1.7-.6 2-.5.2-.7.2-.9.2m-1.2-2.5c-.1.6-.3 2.1.4 2.3h.1c.5.1.9.2 1.3-.1.3-.3.5-.9.6-1.8-.4-.2-1.8-.5-2.4-.4M93.7 100.3s-.4 2.2.4 2.4c.9.2 2 .5 2.1-2 0 0-1.8-.6-2.5-.4"/><path class="st116" d="M120 95.2l4 .5 2.9 5.7h-.7c-1.5 0-4.7.9-4.7.9h-.1l-1.4-7.1zM121.5 102.2s4.1-1.2 5.2-.9l-2.8-5.5-3.9-.5 1.5 6.9z"/><path class="st117" d="M80.1 147.3c-4.1-3.6-5.8-12.1-5.8-12.1v-.1l21 3.5-15.2 8.7zM74.4 135.1s1.7 8.4 5.8 12.1l14.9-8.7-20.7-3.4z"/><path class="st118" d="M114.2 127l-8.5-1.3.1-.4 1.8-.8c.1 0 2.4.5 2.9.9.3 0 .8 0 .8-.2 0-.1-.1-.5-1.7-1.5l-.1-.1 2.2-2.2h.1l6.5 2.7v.2s-1.1 0-1.4.4c-.1.2-.1.4 0 .7 0 0 0 .1.1.3.1.1.4.3 1.4.2h.1l.3.8-4.6.3zm-8.4-1.4l8.3 1.3 4.1-.3-.2-.4c-.8.1-1.3 0-1.5-.3-.1-.2-.1-.3-.1-.4-.1-.3-.1-.6 0-.8.2-.3.8-.4 1.2-.5l-6.1-2.6-1.9 2c1.7 1 1.8 1.4 1.7 1.6-.1.4-.9.3-1 .3-.3-.3-2.1-.7-2.8-.8l-1.7.8v.1zM109.6 123.6l2.1-2.1 6.5 2.7s-2-.1-1.5 1.2c0 0-.3.8 1.5.6l.2.6-4.2.3-8.4-1.3.1-.3 1.8-.8s2.5.5 2.9.9c-.1 0 2.5.2-1-1.8"/></g></svg>