<svg xmlns="http://www.w3.org/2000/svg" xmlns:xlink="http://www.w3.org/1999/xlink" width="192" height="234" viewBox="0 0 192 234"><style type="text/css">.st0{fill:#F2F2F2;} .st1{fill:#23A684;} .st2{clip-path:url(#SVGID_2_);} .st3{clip-path:url(#SVGID_4_);fill:#F8A382;} .st4{clip-path:url(#SVGID_4_);fill:#CD745B;} .st5{clip-path:url(#SVGID_4_);fill:#955843;} .st6{clip-path:url(#SVGID_4_);fill:#DAA18E;} .st7{clip-path:url(#SVGID_4_);fill:#200D0C;} .st8{clip-path:url(#SVGID_4_);fill:#B17058;} .st9{clip-path:url(#SVGID_4_);fill:#FCC8AD;} .st10{clip-path:url(#SVGID_6_);fill:#AB754E;} .st11{clip-path:url(#SVGID_6_);fill:#9B795D;} .st12{clip-path:url(#SVGID_6_);fill:#F9B096;} .st13{clip-path:url(#SVGID_6_);fill:#DB9075;} .st14{clip-path:url(#SVGID_6_);fill:#AC7354;} .st15{clip-path:url(#SVGID_6_);fill:#A26E56;} .st16{clip-path:url(#SVGID_6_);fill:#F6C097;} .st17{clip-path:url(#SVGID_6_);fill:#ECA48A;} .st18{clip-path:url(#SVGID_6_);fill:#FBBC96;} .st19{clip-path:url(#SVGID_6_);fill:#FCC49F;} .st20{clip-path:url(#SVGID_6_);fill:#F9B296;} .st21{clip-path:url(#SVGID_6_);fill:#F3AA8B;} .st22{clip-path:url(#SVGID_6_);fill:#BA7C55;} .st23{clip-path:url(#SVGID_6_);fill:#FAB594;} .st24{clip-path:url(#SVGID_6_);fill:#A86C4A;} .st25{clip-path:url(#SVGID_6_);fill:#955843;} .st26{clip-path:url(#SVGID_6_);fill:#B9795D;} .st27{clip-path:url(#SVGID_6_);fill:#CD7B5C;} .st28{clip-path:url(#SVGID_6_);fill:#A45945;} .st29{clip-path:url(#SVGID_6_);fill:#C87260;} .st30{clip-path:url(#SVGID_6_);fill:#CD7468;} .st31{clip-path:url(#SVGID_6_);fill:#DB8B7B;} .st32{clip-path:url(#SVGID_6_);fill:#0D0809;} .st33{clip-path:url(#SVGID_6_);fill:#B96459;} .st34{clip-path:url(#SVGID_6_);fill:#A7654F;} .st35{clip-path:url(#SVGID_6_);fill:#CD8977;} .st36{clip-path:url(#SVGID_6_);fill:#DD947E;} .st37{clip-path:url(#SVGID_6_);fill:#EEAA94;} .st38{clip-path:url(#SVGID_6_);fill:#F8B399;} .st39{clip-path:url(#SVGID_6_);fill:#1B140D;} .st40{clip-path:url(#SVGID_6_);fill:#F69B90;} .st41{clip-path:url(#SVGID_6_);fill:#F69989;} .st42{clip-path:url(#SVGID_6_);fill:#F8A68C;} .st43{clip-path:url(#SVGID_6_);fill:#AD533C;} .st44{clip-path:url(#SVGID_6_);fill:#B35642;} .st45{clip-path:url(#SVGID_6_);fill:#FAB8A7;} .st46{clip-path:url(#SVGID_6_);fill:#A43022;} .st47{clip-path:url(#SVGID_6_);fill:#A54227;} .st48{clip-path:url(#SVGID_6_);fill:#52332B;} .st49{clip-path:url(#SVGID_6_);fill:#DD9E88;} .st50{clip-path:url(#SVGID_6_);fill:#F9B4A0;} .st51{clip-path:url(#SVGID_6_);fill:#B77452;} .st52{clip-path:url(#SVGID_6_);fill:#200D0C;} .st53{clip-path:url(#SVGID_6_);fill:#673F26;} .st54{clip-path:url(#SVGID_6_);fill:#5E3A29;} .st55{clip-path:url(#SVGID_6_);fill:#784E3C;} .st56{clip-path:url(#SVGID_6_);fill:#8E6855;} .st57{clip-path:url(#SVGID_6_);fill:#1C140D;} .st58{clip-path:url(#SVGID_6_);fill:#130B09;} .st59{clip-path:url(#SVGID_6_);fill:#84553D;} .st60{clip-path:url(#SVGID_6_);fill:#704730;} .st61{clip-path:url(#SVGID_6_);fill:#CA9374;} .st62{clip-path:url(#SVGID_6_);fill:#EFAF97;} .st63{clip-path:url(#SVGID_6_);fill:#FBC5AD;} .st64{clip-path:url(#SVGID_6_);fill:#FDCFB3;} .st65{clip-path:url(#SVGID_6_);fill:#FBBF9E;} .st66{clip-path:url(#SVGID_6_);fill:#FBBC9A;} .st67{clip-path:url(#SVGID_6_);fill:#F9AB87;} .st68{clip-path:url(#SVGID_6_);fill:#F3B187;} .st69{clip-path:url(#SVGID_6_);fill:#F8A382;} .st70{clip-path:url(#SVGID_6_);fill:#D18460;} .st71{clip-path:url(#SVGID_6_);fill:#FAB289;} .st72{clip-path:url(#SVGID_6_);fill:#171610;} .st73{clip-path:url(#SVGID_6_);fill:#1B1C1C;} .st74{clip-path:url(#SVGID_6_);fill:#0B0809;} .st75{clip-path:url(#SVGID_6_);fill:#13100E;} .st76{clip-path:url(#SVGID_6_);fill:#0C0609;} .st77{clip-path:url(#SVGID_6_);fill:#141512;} .st78{clip-path:url(#SVGID_6_);fill:#050404;} .st79{clip-path:url(#SVGID_6_);fill:#10100F;} .st80{clip-path:url(#SVGID_6_);fill:#120F0B;} .st81{clip-path:url(#SVGID_6_);fill:#100E0D;} .st82{clip-path:url(#SVGID_6_);fill:#080505;} .st83{clip-path:url(#SVGID_6_);} .st84{clip-path:url(#SVGID_6_);fill:#0F0D0B;} .st85{clip-path:url(#SVGID_6_);fill:#101010;} .st86{clip-path:url(#SVGID_6_);fill:#030303;} .st87{clip-path:url(#SVGID_6_);fill:#070707;} .st88{clip-path:url(#SVGID_6_);fill:#161412;} .st89{clip-path:url(#SVGID_6_);fill:#FDD0B2;} .st90{clip-path:url(#SVGID_6_);fill:#FCC8AD;} .st91{clip-path:url(#SVGID_6_);fill:#FAB99F;} .st92{clip-path:url(#SVGID_6_);fill:#F8A88C;} .st93{clip-path:url(#SVGID_6_);fill:#F8A48F;} .st94{clip-path:url(#SVGID_6_);fill:#CD745B;} .st95{clip-path:url(#SVGID_6_);fill:#C97959;} .st96{clip-path:url(#SVGID_6_);fill:#F59E80;} .st97{clip-path:url(#SVGID_6_);fill:#824A3A;} .st98{clip-path:url(#SVGID_6_);fill:#E2906F;} .st99{clip-path:url(#SVGID_6_);fill:#F8A993;} .st100{clip-path:url(#SVGID_6_);fill:#F3F3F3;} .st101{clip-path:url(#SVGID_6_);fill:#4C3233;} .st102{clip-path:url(#SVGID_6_);fill:#242722;} .st103{clip-path:url(#SVGID_6_);fill:#CCB6B4;} .st104{clip-path:url(#SVGID_6_);fill:#A98068;} .st105{clip-path:url(#SVGID_6_);fill:#A06E55;} .st106{clip-path:url(#SVGID_6_);fill:#985F49;} .st107{clip-path:url(#SVGID_6_);fill:#A26854;} .st108{clip-path:url(#SVGID_6_);fill:#B17058;} .st109{clip-path:url(#SVGID_6_);fill:#E09779;} .st110{clip-path:url(#SVGID_6_);fill:#F1AD8A;} .st111{clip-path:url(#SVGID_6_);fill:#DA988A;} .st112{clip-path:url(#SVGID_6_);fill:#DAA18E;} .st113{clip-path:url(#SVGID_6_);fill:#A5796A;} .st114{clip-path:url(#SVGID_6_);fill:#CD9B8B;} .st115{clip-path:url(#SVGID_6_);fill:#EFE3B3;} .st116{clip-path:url(#SVGID_8_);fill:#C08D7A;} .st117{clip-path:url(#SVGID_8_);fill:#E2BAA2;} .st118{clip-path:url(#SVGID_8_);fill:#EAB09A;} .st119{clip-path:url(#SVGID_8_);fill:#DEBA9F;} .st120{clip-path:url(#SVGID_8_);fill:#C98970;} .st121{clip-path:url(#SVGID_10_);fill:#FBC0A5;} .st122{clip-path:url(#SVGID_10_);fill:#FBC4A8;} .st123{clip-path:url(#SVGID_10_);fill:#53160B;} .st124{clip-path:url(#SVGID_10_);fill:#C17E57;} .st125{clip-path:url(#SVGID_10_);fill:#D78868;} .st126{clip-path:url(#SVGID_10_);fill:#EAAC95;} .st127{clip-path:url(#SVGID_10_);fill:#F1A68C;} .st128{clip-path:url(#SVGID_10_);fill:#F2AB91;} .st129{clip-path:url(#SVGID_10_);fill:#C9805E;} .st130{clip-path:url(#SVGID_10_);fill:#F69289;} .st131{clip-path:url(#SVGID_10_);fill:#EB9281;} .st132{clip-path:url(#SVGID_10_);fill:#FCC8AD;} .st133{clip-path:url(#SVGID_10_);fill:#242722;}</style><path class="st0" d="M0 0h192v234H0z"/><path class="st1" d="M192 215.5L172.5 234H192z"/><defs><path id="SVGID_1_" d="M5 55.5h171v172H5z"/></defs><clipPath id="SVGID_2_"><use xlink:href="#SVGID_1_" overflow="visible"/></clipPath><g class="st2"><defs><path id="SVGID_3_" d="M5 55.5h171v172H5z"/></defs><clipPath id="SVGID_4_"><use xlink:href="#SVGID_3_" overflow="visible"/></clipPath><path class="st3" d="M72.3 114.1c-.5-3.1-2.5-5.7-2.9-8.8-.3.5-.7.9-1 1.4 4.4-.8 9-.4 13.4-.8 2.1-.1 4.1-.5 6-1.1 1.6-.5 2.9-1.6 4.6-2 4.3-1.2 9.3-1 13.8-1.6 1.8-.2 3.6-.5 5.4-1 1.4-.4 2.2-1.7 3.4-2.1 1.5-.5 1.3-2.9-.4-2.8-8.2.4-16.1 2.7-23.5 6.2-1.7.8-.2 3.2 1.4 2.5 6.9-3.2 14.5-5.4 22.1-5.8-.1-.9-.3-1.9-.4-2.8-1.4.4-2 1.6-3.4 2.1-2.1.8-4.6.9-6.8 1.1-4.1.5-8.4.5-12.4 1.4-1 .2-2.4.7-3.2 1.4-1.9 1.5-5.3 1.6-7.6 1.8-4.4.3-8.8 0-13.2.8-.6.1-1.1.8-1 1.4.4 3.4 2.5 6.3 3 9.6.2 1.7 3 .9 2.7-.9M68.6 85.3c.2 2.1.2 4.2.2 6.3 0 1.8 2.9 1.8 2.9 0 0-2.1 0-4.2-.2-6.3-.2-1.8-3-1.8-2.9 0M65.4 115.7c.1-7.8-3.7-15.5-2-23.3-.9.1-1.7.2-2.6.3 3.4 7.7 5 16.1 8.9 23.6.9 1.6 3.3.2 2.5-1.4-3.9-7.5-5.6-15.9-8.9-23.6-.5-1.1-2.4-.8-2.6.3-1.8 8.1 2.1 16 1.9 24-.1 2 2.8 2 2.8.1"/><path class="st4" d="M77.4 131c.6 3.3.4 6.6.4 9.9 0 1.8 2.8 1.8 2.9 0 0-3.6.1-7.1-.5-10.6-.4-1.8-3.1-1.1-2.8.7"/><path class="st5" d="M76.9 141.3c1 4.4 1.9 8.9 2.3 13.4.2 1.8 3 1.8 2.9 0-.4-4.8-1.4-9.5-2.4-14.2-.4-1.8-3.2-1-2.8.8M78.4 143.2c1.5 1.1 3.6 1.2 5.5 1.2 1.8 0 1.8-2.8 0-2.9-1.3 0-2.9-.1-4-.9-1.6-.9-3 1.6-1.5 2.6M84.9 161.5c.9.5 1.9.8 2.9 1.1.9.3 2 .5 2.7 1.1 1.4 1.1 3.4-.9 2-2-1.9-1.5-4.2-1.5-6.2-2.6-1.6-.9-3 1.6-1.4 2.4M93 158.6c-2 0-4-.2-5.9.3-1.8.5-1 3.3.8 2.7 1.7-.5 3.4-.3 5.1-.2 1.8.1 1.8-2.8 0-2.8M79.9 173.2c-.2-.2.4.4.5.4.4.3.7.6 1.1.9.7.6 1.5 1.2 2.4 1.5.9.3 2.2 0 2.7-.9.6-1.1.2-2.3-.5-3.2-.5-.6-1.5-.5-2 0-.6.6-.5 1.4 0 2 0 0 0 .1 0 0 .1-.5.4-.7.8-.6-.1 0-.2 0 0 0-.4-.2-.8-.5-1.1-.7-.8-.6-1.6-1.3-2.4-2-.6-.5-1.6-.1-1.9.5-.6.9-.2 1.6.4 2.1M79.2 168.5c0-.6 2.7-1.9 3.2-2.3.9-.8 1.4-2.2.8-3.3-.8-1.4-2.3-2.1-3.9-1.5-1.7.6-1.4 2.4-1.3 3.8.1 1.5 2.5 2.1 2.8.4.2-1.4.1-2.7-.1-4.1-.1-.8-.2-1.7-.3-2.5-.1-.4.4-.3.7-.5 1.7-1 1.7-3.4.2-4.6-1.4-1.2-3.4.8-2 2 .4.3-.6.4-.9.7-.6.6-.8.9-.9 1.7-.3 2.2.8 4.3.5 6.5.9.1 1.9.3 2.8.4-.1-.9 0-1.3-.9-.7-.7.5-1.4.8-2 1.3-1 .7-1.6 1.5-1.6 2.7 0 1.8 2.8 1.8 2.9 0M91.8 116.2c1.2-.1 2.2-.6 3.3-.8.8-.2 1.2-1 1-1.8-.2-.8-1-1.2-1.8-1-.9.2-1.7.6-2.6.7-.8.1-1.4.6-1.4 1.4.1.8.7 1.6 1.5 1.5"/><path class="st6" d="M96.9 116.1c2.3-.5 4.6-1.2 6.9-1.4 1.8-.2 1.8-3 0-2.9-2.6.2-5.1.9-7.7 1.5-1.7.4-1 3.1.8 2.8M96.3 130c2.9-.8 5.9-1.3 8.8-1.8 1.8-.3 1-3-.8-2.7-3 .5-5.9 1-8.8 1.8-1.8.4-1 3.2.8 2.7M107.1 113c1.8.2 3.7.1 5.5.1 1.8 0 1.8-2.9 0-2.9s-3.7.1-5.5-.1c-1.8-.1-1.8 2.7 0 2.9"/><path class="st7" d="M84.5 118.1c-1.6 1.6-.1 4 .7 5.6l.9-2.1c-1 .2-2 .1-3 .1-1.9 0-1.8 2.7 0 2.9 1 .1 2.3.1 2.9-.9.2-.3.2-.6.3-1 .1-.6 1.3-1.2 1.8-1.6.7-.7.5-2.2-.6-2.4-3-.4-7.8-.9-9.6 2.2-.5.9 0 1.8.9 2.1.7.3 1.3.4 2.1.4 1.8.1 1.8-2.7 0-2.9-.5 0-.9-.1-1.3-.3l.9 2.1c.9-1.6 4.9-1.1 6.4-.9l-.6-2.4c-.8.8-1.8 1.2-2.3 2.3l-.3.9c-.1.4.1.2.6-.5h-.9v2.9c1.3 0 2.5 0 3.8-.2.9-.2 1.3-1.3.9-2.1l-.6-1.2c-.1-.2-.4-1.2-.6-1 .9-1.3-1.1-3.3-2.4-2M62.8 121.2c4.4.4 8.8.3 13.2 0 1.8-.1 1.8-3 0-2.9-4.4.3-8.8.4-13.2 0-1.8-.1-1.8 2.8 0 2.9M67.6 119.8c2.1.4 4.2.1 6.3.3 1.8.2 1.8-2.6 0-2.9-1.8-.2-3.7.1-5.5-.2-1.9-.3-2.6 2.5-.8 2.8"/><path class="st8" d="M63.9 126c.8.6 1.6 1.3 2.4 1.8.6.5 1.6.1 1.9-.5.4-.7.1-1.5-.5-1.9-.3-.2-.6-.5-.9-.7-.1-.1-.2-.1-.1-.1-.1-.1-.2-.1-.2-.2-.2-.2-.4-.3-.6-.5-.6-.5-1.4-.6-2 0-.5.6-.6 1.6 0 2.1M62.8 129.6c1.2-.3 2.4 0 3.7-.2 1.3-.2 2.6-1.1 2.7-2.5.1-.8-.7-1.4-1.4-1.4h.2c-1.8-.4-2.5 2.3-.8 2.7.2 0 .4.1.6.1-.5-.5-.9-1-1.4-1.4.1-.6.1-.4-.4-.3-.4.1-.8 0-1.2 0-.9 0-1.8-.1-2.7.2-1.8.5-1 3.3.7 2.8M65.1 127.7c1.8 0 1.8-2.9 0-2.9-1.8.1-1.8 2.9 0 2.9M72.3 125.9c1-.3 2-.5 3-.8 1.8-.5 1-3.3-.8-2.7-1 .3-2 .5-3 .8-1.7.5-.9 3.2.8 2.7M67.5 124.7c1.6-2.6 6.2-2.3 8.6-1.2 1.7.7 3.1-1.7 1.4-2.5-3.9-1.7-10-1.8-12.5 2.2-.9 1.7 1.5 3.1 2.5 1.5"/><path class="st9" d="M108.8 125.3c-1 1.7 0 3.2.6 4.9.3-.6.7-1.2 1-1.8-2 .5-4.1.1-4.4 2.8-.3 2.5 2.8 4.4 4.8 4.8.7.1 1.6-.2 1.8-1 .3-1.7-.1-2.9-.8-4.4-.8.5-1.6 1-2.5 1.4 1 1.8 1.7 3.5 2 5.6.3 1.8 3 1 2.7-.8-.4-2.3-1.2-4.3-2.3-6.2-.9-1.6-3.2-.2-2.5 1.4.4.7.6 1.4.5 2.2l1.8-1c-.6-.1-1.1-.3-1.7-.7-.2-.2-.4-.3-.6-.5-.1-1-.4-1.2-.7-.5.8-.3 1.8-.2 2.7-.4.7-.2 1.3-1 1-1.8-.2-.6-1.2-2.1-.9-2.7.9-1.5-1.5-2.9-2.5-1.3"/></g><g class="st2"><defs><path id="SVGID_5_" d="M5 55.5h171v172H5z"/></defs><clipPath id="SVGID_6_"><use xlink:href="#SVGID_5_" overflow="visible"/></clipPath><path class="st10" d="M77.8 171.3c-3.6-3.2-8.9-12.4-8.9-12.5l11.2-5.1-2.3 17.6zM68.9 158.8s5.3 9.2 8.9 12.4l2.3-17.5-11.2 5.1z"/><path class="st11" d="M77.8 171.3l9.4 2.1-5.8 1.6zM77.8 171.2l3.6 3.8 5.8-1.6z"/><path class="st12" d="M92.7 163.3l13.6 5.7-11.3 2.3-7.8 2.1zM92.7 163.3l-5.5 10.1 7.8-2.2 11.3-2.1z"/><path class="st13" d="M77.8 171.3l14.9-8-5.5 10.1zM77.8 171.2l14.9-7.9-5.5 10.1z"/><path class="st14" d="M80.1 153.8c.1.1 2.7 6.8 12.6 9.5l-14.8 8 2.2-17.5zM80.1 153.8s2.6 6.7 12.5 9.5l-14.8 8 2.3-17.5z"/><path class="st15" d="M92.7 163.3c-3.6-.8-7.7-3.7-7.7-3.7 1 .3 2.1.4 3.3.4 4.3 0 8.4-1.9 8.5-1.9-2.4 4.9-4.1 5.2-4.1 5.2zM96.7 158s-6.4 3-11.8 1.5c0 0 4.1 2.9 7.7 3.7.1.1 1.7-.1 4.1-5.2"/><path class="st16" d="M108.7 153l13.1 9.5-15.6 6.6zM108.7 153l-2.4 16.1 15.5-6.6z"/><path class="st17" d="M131.6 133.8c0 .1 1.5 11.6-1 13.7l-11 2.8 12-16.5zM131.6 133.8s1.5 11.6-1 13.7l-10.9 2.8 11.9-16.5z"/><path class="st18" d="M100.6 155.5c0-.1 3.9-3.5 4.7-5.7l3.4 3.2-2.5 16.1-5.6-13.6zM108.7 153l-2.5 16.1-5.6-13.6s3.9-3.4 4.7-5.7l3.4 3.2z"/><path class="st19" d="M112.9 137.7l6.8 12.5-11 2.8zM108.7 153l4.2-15.2 6.8 12.4z"/><path class="st20" d="M112.9 137.8l18.7-4-11.9 16.5zM131.6 133.8l-18.7 4 6.8 12.4z"/><path class="st21" d="M125.8 116.9c1.7 2.6 5.8 16.7 5.8 16.9l-18.7 4 12.9-20.9zM125.9 116.9L113 137.7l18.7-3.9c-.1 0-4.1-14.2-5.8-16.9"/><path class="st22" d="M105.4 149.8l.8-.8 3.4.8-.9 3.2zM109.6 149.8l-3.3-.8-.9.8 3.3 3.2z"/><path class="st23" d="M105.4 138.6l7.5-.9-2.5 9.3zM110.4 146.9l-5-8.3 7.5-.8z"/><path class="st24" d="M68.9 158.8c-.9-.8-3.1-8.2-3.2-8.6l14.5 3.5-11.3 5.1zM65.7 150.2s2.3 7.8 3.2 8.6l11.2-5-14.4-3.6z"/><path class="st25" d="M73.9 152.3l5-11.3 1.2 12.8zM78.9 141l-5 11.3 6.2 1.5z"/><path class="st26" d="M65.7 150.3l13.2-9.4-5 11.4zM65.7 150.2l13.2-9.2-5 11.3z"/><path class="st27" d="M62.3 140.2c-1.3-3.9-1.2-6.7-1.2-6.8l17.8 7.5-13.3 9.3-3.3-10zM61.1 133.4s-.1 2.9 1.2 6.8l3.3 10.1 13.3-9.3-17.8-7.6z"/><path class="st28" d="M84.9 159.6c-3.4-2.3-4.8-5.8-4.8-5.8 2.4 1 6.7 1.3 6.7 1.3l-1.9 4.5zM86.8 155.1s-4.3-.3-6.7-1.3c0 0 1.4 3.4 4.8 5.8l1.9-4.5z"/><path class="st29" d="M88.3 160c-2.1 0-3.4-.4-3.4-.4l1.9-4.5 8.8 3.4c-2.5 1-4.9 1.5-7.3 1.5zM95.6 158.5l-8.7-3.4-1.9 4.5s4.3 1.4 10.6-1.1"/><path class="st30" d="M86.8 155.1h1c4.5 0 10.1-1.7 10.2-1.8l-2.4 5.2-8.8-3.4zM98 153.4s-6.5 2-11.1 1.7l8.7 3.4 2.4-5.1z"/><path class="st31" d="M97.9 153.4l7.4-3.6c-.7 2.1-4.7 5.7-4.7 5.7l-3.9 2.5-1.2.5 2.4-5.1zM105.4 149.8l-7.4 3.6-2.4 5.2 1.2-.5 3.9-2.5c-.1-.1 3.9-3.7 4.7-5.8"/><path class="st32" d="M86.8 155.1c-3 0-6.7-1.3-6.7-1.3l2.2-1.4 4.5 2.7zM82.3 152.4l-2.2 1.4s3.7 1.3 6.7 1.3l-4.5-2.7z"/><path class="st33" d="M80.1 153.8c.1-.1 2-2.6 2.5-2.9.5-.3 2.9-1.5 4-1.5h.5c.7 0 1.9-.3 2.7-.6.4-.1.8-.2 1-.3.1 0 .3-.1.6-.1 1-.2 2.7-.5 3.8-.5h.3c1.3.1 10.6 1 10.7 1l-.9.8c-2.9-.3-5.7-.5-8.3-.5-10.7 0-14.7 3.1-14.8 3.1l-2.1 1.5zM82.3 152.4s5.9-4.7 23.1-2.6l.9-.8s-9.4-.9-10.7-1c-1.3-.1-4.1.5-4.7.6-.6.1-3 1-4 .9-1-.2-3.7 1.1-4.3 1.4-.5.3-2.5 2.9-2.5 2.9l2.2-1.4z"/><path class="st34" d="M78.9 141s1.9 1.4 5.7 1.4h1l-3 8.5s-1.9 2-2.5 2.9L78.9 141zM85.6 142.3l-3 8.5s-1.9 2-2.5 2.9L78.9 141s2.2 1.6 6.7 1.3"/><path class="st35" d="M85.6 142.3l7.7 5.8-3 .6c-1.9.6-2.8.8-3.2.8-.2 0-.3-.1-.3-.1h-.2c-1.5 0-4 1.4-4 1.5l3-8.6zM93.3 148.1l-7.7-5.8-3 8.5s2.8-1.6 4.3-1.4c0 0 .2.4 3.4-.7l3-.6z"/><path class="st36" d="M85.6 142.4h.4c4.2 0 9.5-2.9 9.6-2.9l-2.3 8.7-7.7-5.8zM95.6 139.4s-5.6 3.1-9.9 2.9l7.7 5.8 2.2-8.7z"/><path class="st37" d="M106.3 149c-.1 0-10.2-1-10.7-1h-.2c-.6 0-2.1.2-2.1.2l12.1-9.6 5 8.3-.8 2.9-3.3-.8zM105.4 138.6l-12.1 9.5s1.8-.2 2.3-.2c.5 0 10.7 1 10.7 1l3.4.8.8-2.9-5.1-8.2z"/><path class="st38" d="M95.6 139.4l1.3-5.8 8.5 5-12.1 9.6zM97 133.7l-1.4 5.7-2.3 8.7 12.1-9.5z"/><path class="st39" d="M131.6 133.8c.3.7.9 1 1.8 1 1.5 0 3.2-1 3.2-1.1l-4.5 6.3-.5-6.2zM136.6 133.8s-3.9 2.4-5 0l.4 6.3 4.6-6.3z"/><path class="st40" d="M133.3 134.9c-1.5 0-1.7-1.1-1.7-1.1l3.1-6.8 1.9 6.7c-1.3.8-2.4 1.2-3.3 1.2zM134.8 127.1l-3.1 6.7s.5 2.4 5 0l-1.9-6.7z"/><path class="st41" d="M134.7 127.1l3.9 1.9c0 .1-1 4.1-2 4.9l-1.9-6.8zM138.6 129s-1 4.1-2 4.8l-1.8-6.7 3.8 1.9z"/><path class="st42" d="M130.1 128.6l5.4-4.1-.7 2.6-3.2 6.8zM130.1 128.6l5.4-4.1-.7 2.6-3.2 6.7z"/><path class="st43" d="M130.6 125.6l4.9-1.1-5.4 4.2zM130.6 125.6l-.5 3 5.4-4.1z"/><path class="st44" d="M129.2 119.9l1.7-3.5 4.6 8.1-1.7.4zM129.2 119.9l4.6 5 1.7-.4-4.6-8.1z"/><path class="st45" d="M127.9 121.8l1.3-1.9 4.6 5-3.2.8-.5 2.9zM127.9 121.8l1.3-1.9 4.6 5-3.2.7-.5 3z"/><path class="st46" d="M133.1 110.9l2.4-.3 2.2 13.7zM133.1 110.9l4.6 13.4-2.2-13.7z"/><path class="st47" d="M135.9 126.6l1.8-2.3-.4 3.1zM135.9 126.6l1.4.7.4-3z"/><path class="st48" d="M127.9 121.8s-1.6-4.2-2-4.9l-2-5.4 5.7-.3-.3 8.7-1.4 1.9zM129.6 111.2l-.3 8.7-1.4 1.9s-1.6-4.1-2-4.9l-2-5.4 5.7-.3z"/><path class="st49" d="M129.2 119.9l.4-8.7 5.2-3 1.8 1.9-1.1.5-2.4.3-2.2 5.5-1.6 3.5zM134.8 108.2l-5.2 3-.4 8.7 1.7-3.5 2.2-5.5 2.4-.3 1.1-.5z"/><path class="st50" d="M135.5 124.5l-4.6-8.1 2.2-5.5 4.6 13.4-1.8 2.3-1.2.5zM134.8 127.1l1.1-.5 1.8-2.3-4.6-13.4-2.2 5.5 4.6 8.1z"/><path class="st51" d="M60.5 119.7C57.3 97.8 62 91.2 62 91.2l1.6 24.3-2.1 3.9-1 .3zM62.1 91.1s-4.7 6.4-1.5 28.5l1.1-.3 2.1-3.9-1.7-24.3z"/><path class="st52" d="M63.7 133.5c-.9 0-1.7 0-2.6-.1-.2 0-2.2-.1-3.2-2.3l-2.7-7.8s0-1.8 2.3-2.6c0 0 3.8-2.2 13.5-2.2 2.6 0 5.4.2 8.3.5 0 0 1.8.1 1.8 2.2l-.4 7s-.5 1.9-2.3 2.6c-2.6 1-8 2.7-14.7 2.7m8.2-14c-5 0-11.8.5-15.4 2.7 0 0-.6.4-.5 1.1.4 1.4 2.8 9.3 4.1 9.3 0 0 1.2.1 2.9.1 3.9 0 11.1-.4 15.4-3.1 0 0 .9-1 1.1-1.9.2-.9 0-6.6 0-6.6s-.2-1.3-1.2-1.4h-.1c-2.5-.2-4.8-.2-6.3-.2"/><path class="st52" d="M78.5 119.7c1.1.1 1.2 1.4 1.2 1.4s.2 5.7 0 6.6c-.2 1-1.1 1.9-1.1 1.9-6.2 3.8-18.3 3-18.3 3-1.5 0-3.9-8.6-4.1-9.3-.2-.7.5-1.1.5-1.1 6-3.8 21.3-2.5 21.8-2.5m-20.6 11.4c1 2.4 3.2 2.3 3.2 2.3 8.6.6 15.5-1.9 17.3-2.6 1.8-.7 2.3-2.6 2.3-2.6l.4-7c-.1-2.1-1.8-2.2-1.8-2.2-16-1.7-21.8 1.7-21.8 1.7-2.3.8-2.2 2.6-2.2 2.6l2.6 7.8z"/><path class="st53" d="M63.7 115.5l6.7-1.5-8.8 5.5zM70.4 114l-8.8 5.4 2.1-3.9z"/><path class="st54" d="M61.6 119.4l8.8-5.4c.3.4 2.4 4.4 2.3 4.6h-2c-4.7-.1-9 .8-9.1.8zM72.7 118.6c.3 0-2.2-4.6-2.2-4.6l-8.8 5.4c-.1 0 5.6-1.2 11-.8"/><path class="st55" d="M72.6 118.6s-.3-1-2.2-4.6l8.1.3-5.9 4.3zM78.6 114.3l-5.9 4.2s-.2-.9-2.2-4.6l8.1.4z"/><path class="st56" d="M80.3 119.4c-.3-.6-7.6-.9-7.6-.9l5.9-4.2 1.7 5.1zM80.3 119.4l-1.7-5.1-5.9 4.2c-.1 0 7.5.3 7.6.9"/><path class="st52" d="M80.3 119.4l3.1-.4c.9-.1 2.4-.7 2.4-.7l.9 3.3c-.6-1.2-1.2-1.7-2.3-1.7-.3 0-.7 0-1.2.1-1.7.3-2.1 2.5-2.1 2.5l-.8-3.1zM81.1 122.5s.3-2.2 2.1-2.5c1.8-.3 2.7-.2 3.5 1.6l-.9-3.2s-1.5.6-2.4.7l-3.1.4.8 3zM92.8 128.4c-.6 0-1.8-.3-3.3-2.3-2.3-2.9-2.8-4.6-2.9-4.6l-.9-3.2c.1-.1 7-6.5 28-7l1.6 4.7s-.4 1.9-.4 4c0 2.2-.2 3.6-1.8 4.4-.1 0-7.8 3.9-19.9 4.1.1-.1-.1-.1-.4-.1m18.4-16.5h-.2c-1.5.1-16.8 2-22.7 5.5 0 0-2.1 1.1-1.2 3.2.8 1.9 3.9 6.7 5.9 6.7 1.8 0 15.6-.8 19.9-3.8 0 0 1.1-.2 1.1-1.7s-1.1-8.7-1.1-8.8c0 0-.3-1.1-1.7-1.1"/><path class="st52" d="M114 121.8c0 1.5-1.1 1.7-1.1 1.7-4.3 3.1-18 3.8-19.9 3.8-1.9 0-5-4.6-5.9-6.7-.9-2.1 1.2-3.2 1.2-3.2 5.8-3.5 21.1-5.4 22.7-5.5 1.6-.1 1.9 1.1 1.9 1.1s1.1 7.3 1.1 8.8m-27.3-.3s.6 1.7 2.9 4.6c2.3 2.9 3.8 2.2 3.8 2.2 10.8-.2 18.3-3.3 19.9-4.1 1.6-.8 1.9-2.2 1.8-4.3 0-2.2.4-4 .4-4l-1.6-4.7c-21.2.6-27.9 7-27.9 7l.7 3.3z"/><path class="st57" d="M113.8 111.3l9-2.6 1.1 2.8-3.2.9zM122.8 108.7l-9 2.5 6.9 1.2 3.2-.9z"/><path class="st58" d="M113.7 111.2l6.9 1.2c-4.3.7-5.3 3.5-5.3 3.5l-1.6-4.7zM115.4 115.9s.9-2.8 5.3-3.5l-6.9-1.2 1.6 4.7z"/><path class="st59" d="M104.7 106.8l9 4.5c-5 0-11.5 1-11.5 1.1l2.5-5.6zM104.7 106.8l-2.5 5.5s6.5-1 11.5-1l-9-4.5z"/><path class="st60" d="M95.2 108.5l9.5-1.7-2.5 5.5zM95.2 108.4l7 3.9 2.5-5.5z"/><path class="st53" d="M91.4 115.1l3.8-6.7 7.1 3.8c-.2.1-9.2 1.8-10.9 2.9zM91.4 115.1l3.8-6.7 7 3.8c0 .1-9 1.7-10.8 2.9"/><path class="st54" d="M85.8 110.6c1.8-.9 9.3-2.2 9.4-2.2l-3.8 6.7-5.6-4.5zM85.8 110.6l5.6 4.6 3.8-6.7c0-.1-7.5 1.2-9.4 2.1"/><path class="st61" d="M82.5 112.4l3.3-1.8 5.6 4.5-2 .9zM82.5 112.4l6.9 3.6 2-.9-5.6-4.5z"/><path class="st62" d="M111.5 87.5l11.3 21.2-9.1 2.6zM111.5 87.5l2.3 23.7 9-2.5z"/><path class="st63" d="M104.7 106.8l7.4-12.6 1.7 17.1zM104.7 106.8l7.4-12.6 1.7 17z"/><path class="st64" d="M99.9 82c7.5.4 11.5 5.4 11.6 5.5l.6 6.7-7.4 12.6L99.9 82zM100 82l4.8 24.8 7.4-12.6-.6-6.7c-.1 0-4.1-5.1-11.6-5.5"/><path class="st65" d="M99.9 82l4.8 24.8-9.5 1.7zM95.2 108.4L100 82l4.7 24.8z"/><path class="st66" d="M84.8 82.5c4-.6 8-.7 10.7-.7 2.6 0 4.4.1 4.4.1l-4.8 26.5-10.3-25.9zM84.8 82.5l10.4 25.9L100 82s-7.8-.5-15.2.5"/><path class="st67" d="M84.8 82.5l10.4 25.9c-.1 0-8.8 1.6-9.4 2.2l-3.3 1.9 2.3-30zM82.5 112.4l2.3-29.9 10.4 25.9s-8.8 1.6-9.4 2.1l-3.3 1.9z"/><path class="st68" d="M78.5 114.3l4-1.9 6.9 3.6s-2.9 1.5-3.6 2.3c0 0-2.5.9-5.5 1.2l-1.8-5.2zM78.6 114.3l4-1.9 6.9 3.6s-2.9 1.4-3.6 2.3c0 0-2.4.9-5.5 1.1l-1.8-5.1z"/><path class="st69" d="M70.4 114l.5-29 12.2 20.4-.5 7-4 1.9zM70.4 114l.5-29 12.2 20.4-.6 7-3.9 1.9z"/><path class="st70" d="M62 91.2c.1-.1 5-4.4 8.8-6.2l-.3 29L62 91.2zM62 91.2s5-4.4 8.8-6.2l-.4 29L62 91.2z"/><path class="st71" d="M70.9 85c3.9-2.2 9.1-2.6 11.8-2.6 1.3 0 2.1.1 2.1.1l-1.7 22.9L70.9 85zM84.8 82.5s-8.3-.7-13.9 2.5L83 105.4l1.8-22.9z"/><path class="st72" d="M133.8 86.4l2.8 23.7-1.9-1.9-5.1 3.1-5.7.2zM133.8 86.4l-9.9 25.1 5.7-.3 5.2-3 1.8 1.9z"/><path class="st73" d="M122.8 108.7l-11.3-21.2 17 12.4-4.6 11.7zM111.5 87.5l17 12.4-4.6 11.6-1.1-2.8z"/><path class="st74" d="M120.7 94.2l5.2-23.4c3.1 3 7.9 15.4 7.9 15.5l-5.3 13.5-7.8-5.6zM125.9 70.9l-5.2 23.4 7.8 5.7 5.3-13.5c0-.1-4.8-12.6-7.9-15.6"/><path class="st75" d="M111.5 87.5l1.7-13.7 10.2 8.1-2.7 12.3zM113.2 73.8l-1.7 13.7 9.2 6.7 2.7-12.3z"/><path class="st76" d="M111.5 87.5s-3.9-5-11.5-5.5l13.2-8.2-1.7 13.7zM100 82l13.2-8.2-1.7 13.7s-3.9-5-11.5-5.5"/><path class="st77" d="M113.2 73.8l-2-15c5.2 1.6 14.6 11.9 14.7 12l-2.4 11-10.3-8zM111.2 58.8l2 15 10.2 8.1 2.4-11c.1 0-9.4-10.4-14.6-12.1"/><path class="st78" d="M105.6 71.8l7.6 2L99.9 82zM105.6 71.9L100 82l13.2-8.2z"/><path class="st79" d="M105.6 71.9L100 55.3h.5c4.6 0 10.7 3.6 10.7 3.6l2 15-7.6-2zM100 55.2l5.6 16.6 7.6 1.9-2-15c0 .1-6.5-3.8-11.2-3.5"/><path class="st80" d="M89.6 69.9L100 82h-3.9c-3.5 0-8.3.1-11.2.6l4.7-12.7zM84.8 82.5l4.8-12.6L100 82s-10.2-.3-15.2.5"/><path class="st81" d="M89.6 69.9l10.3-14.7 5.7 16.6L100 82zM100 55.2L89.6 69.9 100 82l5.6-10.1z"/><path class="st82" d="M75.9 63.6s.1-.1.4-.1c1.2-.1 4.3-.4 6-2.1 1.1-1.1 5.3-4.2 6.1-4.2.2 0 .8-.2 1.6-.5 2.1-.7 5.5-1.8 8-1.8.8 0 1.4.1 1.9.3L89.6 69.9l-13.7-6.3zM75.9 63.6c.1-.1 4.4-.1 6.4-2.1 1-1 5.3-4.2 6.1-4.2.9 0 8.5-3.3 11.5-2L89.6 69.9l-13.7-6.3z"/><path class="st83" d="M70.9 85l18.6-15.1-4.7 12.7c-.1 0-.8-.1-1.8-.1-2.7 0-7.7.3-12.1 2.5zM70.9 85l18.6-15.1-4.8 12.6c.1 0-7.6-.6-13.8 2.5"/><path class="st84" d="M75.9 63.6l13.7 6.3-18.7 15.2zM75.9 63.6l-5 21.4 18.7-15.1z"/><path class="st85" d="M61.5 66.5c.8-1.1 2-1.7 3.6-1.7.6 0 1.2.1 1.8.2.5.1 1.1.2 1.7.2 3.4 0 7.2-1.7 7.2-1.7L70.9 85l-9.4-18.5zM61.6 66.5c.4-.5 1.6-2.2 5.4-1.4 3.8.8 8.9-1.5 8.9-1.5l-5 21.4-9.3-18.5z"/><path class="st86" d="M64 71.3L71 85s-4.1 2-8.9 6.1L64 71.3zM62.1 91.1L64 71.3 71 85c-.1 0-4.1 1.9-8.9 6.1"/><path class="st87" d="M54.1 75.7c1.5-.6 7.4-9.1 7.4-9.2l2.4 4.8L62 91.2l-7.9-15.5zM54.1 75.7L62 91.1l2-19.8-2.4-4.8s-5.9 8.6-7.5 9.2"/><path class="st88" d="M48.2 85.8c.1-.3 5.7-9.7 5.9-10.1l8 15.5-13.9-5.4zM48.2 85.8c.1-.3 5.9-10.1 5.9-10.1L62 91.1l-13.8-5.3z"/><path class="st75" d="M54.5 105.7c-6-4.2-6.3-19.7-6.3-19.9l13.9 5.3-7.6 14.6zM54.5 105.7l7.6-14.5-13.9-5.3c0-.1.3 15.6 6.3 19.8"/><path class="st78" d="M54.5 105.7L61.6 92l.4-.8-.3.8c-1.1 2.6-3.5 10.4-1 27.7l-1.8.6-4.4-14.6zM58.8 120.2l-4.3-14.5 7.6-14.5s-4.6 6.9-1.5 28.5l-1.8.5z"/><path class="st89" d="M114.4 123.2c.4-.6.5-2 .5-2-.2-1.2.4-5.2.4-5.3 1-2.2 3.7-3.1 3.7-3.1l1.5 12.7-6.1-2.3zM114.5 123.2l6.1 2.4-1.5-12.7s-2.7.9-3.7 3.1c0 0-.6 4-.4 5.3 0-.1-.1 1.3-.5 1.9"/><path class="st90" d="M110.2 125.5c3.8-1.5 4.3-2.1 4.4-2.3v-.1l6.1 2.3-7.6 12.3-2.9-12.2zM110.2 125.5l2.8 12.2 7.6-12.2-6.1-2.4s.6.5-4.3 2.4"/><path class="st91" d="M106.5 126.6l3.6-1.1 2.8 12.2-7.5.9zM106.5 126.6l-1.1 12 7.5-.8-2.8-12.3z"/><path class="st92" d="M97 133.7l-1.4-5.4h.4c1.1 0 4.2-.2 10.5-1.7l-1.1 12.1-8.4-5zM97 133.7l-1.4-5.4s2.9.3 11-1.7l-1.2 12-8.4-4.9z"/><path class="st93" d="M92.5 128.4h.4c.3 0 .4-.1.4-.1l2.3-.1 1.4 5.4-1.2 5.2-3.3-10.4zM92.5 128.4l3.2 10.4 1.2-5.1-1.4-5.4-2.3.1c.1-.1-.1.2-.7 0"/><path class="st94" d="M61.1 133.4c.3 0 1.2.1 2.5.1 3 0 8.9-.3 14.8-2.7 0 .1-.5 9 .5 10.2l-17.8-7.6zM78.4 130.8s-.6 8.9.5 10.2l-17.8-7.6s8.7.9 17.3-2.6"/><path class="st95" d="M78.5 139.4c-.2-1 0-8.6 0-8.6 2-1 2.3-2.6 2.3-2.6l1.2 3 .4 2.4-3.9 5.8zM78.5 139.4l3.8-5.8-.4-2.4-1.1-3s-.2 1.6-2.3 2.6c-.1 0-.2 7.7 0 8.6"/><path class="st96" d="M82.3 133.7l-.4-2.4 4.9-9.5s2.2 3.9 3.1 4.8l-4.4 13.6-3.2-6.5zM85.5 140.1l-3.2-6.4-.4-2.4 4.9-9.5s2.2 3.9 3.1 4.8l-4.4 13.5z"/><path class="st97" d="M84 142.4c-2.3 0-4.5-1-4.5-1l2.3-1.4 2.2 2.4zM84 142.3l-2.1-2.4-2.3 1.4c-.1 0 2 1 4.4 1"/><path class="st98" d="M81.8 139.9l-2.3 1.4s-.9-.2-1.1-1.9l3.8-5.8 3.3 6.4-1.5 2.3-2.2-2.4zM85.5 140.1l-1.5 2.3-2.1-2.4-2.3 1.4s-.8-.1-1.1-1.9l3.8-5.8 3.2 6.4z"/><path class="st99" d="M84 142.4l1.5-2.3 4.4-13.5c1.4 1.7 2.6 1.8 2.6 1.8l3.2 10.4-.2.7c-3.4 1.9-6.9 2.9-9.8 2.9H84zM92.5 128.4s-1.3-.1-2.6-1.8l-4.4 13.5-1.5 2.3h1.6c.8 0 4.5.1 9.9-2.9l.2-.7-3.2-10.4z"/><path class="st52" d="M88.9 123.7c-2.1-3.1-2-4.5-2-4.5l3.6 2-1.6 2.5zM90.5 121.2l-3.6-2s-.2 1.4 2 4.5l1.6-2.5z"/><path class="st100" d="M60.2 132.7c-.2 0-.5-.1-1-.9-.5-.9-2.1-4.2-3.1-8.4 0 0-.3-.8.8-1.4 1.1-.5 4-1.5 4-1.5l.2 12.2h-.9M60.9 120.5l.2 12.2h-.9s-.4.1-1-.9-2.1-4.2-3.1-8.4c0 0-.3-.8.8-1.4 1.1-.5 4-1.5 4-1.5"/><path class="st52" d="M65.3 127c-.2 0-.3-.2-.3-.6 0-.1 1.8-5.2 8-5.2.8 0 1.6.1 2.4.2l1.8.7-.3.6s-1.9-.9-4.1-.9c-2.7 0-4.9 1.3-6.3 4 0 0-.7 1.2-1.2 1.2M65 126.3s2.2-6.5 10.4-4.9l1.8.7-.3.6s-6.8-3.6-10.4 3.1c0 0-1.4 2.2-1.5.5"/><path class="st101" d="M76.9 122.7l.3-.6-1.8-.7-1.6-.2 3.2-1.6s.6 0 1.5.1c1 .1 1.2 1.4 1.2 1.4l.1 3.6-2.9-2zM77 119.6l-3.2 1.6 1.6.2 1.8.7-.3.6 2.9 2-.1-3.5s-.3-1.3-1.2-1.4c-1-.1-1.5-.2-1.5-.2"/><path class="st102" d="M73.9 124.1h-.1c.4-.6-.4-2.3-.4-2.3h.3c1 0 3.3.9 3.3.9-1.3 1.3-2.7 1.4-3.1 1.4M73.4 121.8s.9 1.7.4 2.3c0 0 1.6.1 3.1-1.4 0 0-2.7-1.1-3.5-.9"/><path class="st103" d="M68.8 125c-1 0-1.6-.2-1.6-.2.9-1.7 2.6-2.4 2.6-2.4-.2 1.1 1.4 2.2 1.4 2.2-.8.3-1.6.4-2.4.4M67.2 124.9s1.8.5 4-.2c0 0-1.6-1.1-1.4-2.2-.1 0-1.7.7-2.6 2.4"/><path class="st104" d="M60.9 120.5c3.6-.9 8.4-1 11.8-1 2.5 0 4.3.1 4.3.1l-3.2 1.6h-.1c-5.4 0-7 2.5-7 2.5l-5.8-3.2zM60.9 120.5l5.8 3.2s1.6-2.6 7.1-2.6l3.2-1.6c0 .1-9.8-.4-16.1 1"/><path class="st105" d="M61 129l-.1-8.5 5.8 3.2c-1.4 1.3-1.7 2.6-1.7 2.6-1.6 1.1-3.9 2.6-4 2.7zM61.1 129c0-.1 3.9-2.6 3.9-2.6s.3-1.4 1.7-2.6l-5.8-3.2.2 8.4z"/><path class="st106" d="M73.8 124.2c1.6-.3 3.1-1.5 3.1-1.5l2.9 2s0 2-.1 3.1c-.1.9-.5 1.3-.9 1.6l-.3.3c-.3.4-2.8 1.3-2.9 1.4l-1.8-6.9zM73.8 124.2l1.8 6.9s2.6-.9 2.9-1.3c.3-.4 1.1-.7 1.1-1.9.1-1.2.1-3.1.1-3.1l-2.9-2c.1-.1-1.4 1.1-3 1.4"/><path class="st107" d="M67.1 124.9c.6.1 1.2.1 1.7.1 1.4 0 2.2-.3 2.2-.3 2.2 0 2.7-.6 2.7-.6l1.9 7-8.5-6.2zM67.2 124.9l8.5 6.2-1.8-7s-.5.6-2.7.6c-.1 0-1.5.5-4 .2"/><path class="st108" d="M65.7 126.8c.7-.2 1.5-1.9 1.5-1.9l8.5 6.2c-3.6 1.5-10.5 1.7-10.5 1.7l.5-6zM65.7 126.8l-.6 5.9s6.9-.1 10.5-1.7l-8.5-6.2c.1.1-.7 1.8-1.4 2"/><path class="st103" d="M97.3 119.9c-.7 0-1.2-.1-1.6-.2 0-.1 1.8-2.8 3.9-3.4 0 0-.5.8-.3 1.6.2.6.7 1.1 1.6 1.5 0 0-1.9.5-3.6.5M95.7 119.6s1.8-2.7 3.9-3.3c0 0-1.5 1.9 1.3 3.1 0 0-3.6.8-5.2.2"/><path class="st102" d="M100.9 119.4s-1.2-.4-1.6-1.3c-.2-.5-.1-1.2.3-1.8 0 0 1.6-.7 3.6-.7.6 0 1.1.1 1.6.2 0 0 .8 1.6 0 2.4-.1-.1-2.7 1.2-3.9 1.2zM104.7 118.1s-2.6 1.3-3.8 1.3c0 0-2.7-.8-1.3-3.1 0 0 2.6-1.2 5.1-.6 0 0 .8 1.6 0 2.4"/><path class="st103" d="M104.7 118.1c.8-.6 0-2.3 0-2.3l2.4 1.2-2.4 1.1zM107.1 116.9l-2.4-1.2s.8 1.7 0 2.3l2.4-1.1z"/><path class="st52" d="M95.7 119.6s1.5-4.6 6.6-4.6c1.6 0 3.4.4 5.4 1.3l1.2.5v.4l-1.8-.3-2.4-1.2s-.5-.2-1.4-.2c-1.1 0-2.4.2-3.8.7.1.1-2.1 1.1-3.8 3.4zM95.7 119.6s2.3-7.6 12-3.3l1.2.5v.3l-1.8-.3-2.4-1.2s-1.7-.6-5.1.6c0 .1-2.2 1-3.9 3.4"/><path class="st109" d="M93.3 120.7l2.4-1.1c.4.2.9.3 1.6.3 1.6 0 3.6-.5 3.6-.5l1.7-.4-3.3 8-6-6.3zM95.7 119.6l-2.4 1 6 6.3 3.3-7.9-1.7.4s-3.8.9-5.2.2"/><path class="st110" d="M102.6 119c1-.3 4.5-2.1 4.5-2.1l1.8.3v-.3l4.6.4s.6 2.9.5 4.5c-.1 1.6-1.1 1.7-1.1 1.7l-10.3-4.5zM113.5 117.3l-4.6-.5v.3l-1.8-.3s-3.5 1.8-4.5 2l10.3 4.5s1-.1 1.1-1.7c.1-1.4-.5-4.3-.5-4.3"/><path class="st111" d="M108.9 116.9c-1.1-.7-4.4-1.6-4.4-1.6l1.5-2.8s3.4-.5 5-.7h.3c1.4 0 1.6 1.2 1.7 1.2l.6 4.3-4.7-.4zM106 112.6l-1.5 2.7s3.3.9 4.4 1.6l4.6.5-.6-4.3s-.3-1.3-1.9-1.1c-1.6.1-5 .6-5 .6"/><path class="st112" d="M96.1 114.6l9.9-2.1-1.5 2.8c-.8-.1-1.6-.2-2.3-.2-2.8 0-4 1.1-4 1.2l-2.1-1.7zM96.1 114.6l2.2 1.6s1.8-1.8 6.2-.9l1.5-2.7-9.9 2z"/><path class="st113" d="M89.4 116.9c0-.1 4.7-2.1 6.7-2.3l2.2 1.6s-2.3 1.7-2.6 3.4l-6.3-2.7zM95.7 119.6l-6.3-2.8s4.7-2.1 6.7-2.2l2.2 1.6s-2.3 1.7-2.6 3.4"/><path class="st114" d="M86.9 119.2s.1-1.3 2.6-2.3l6.3 2.8-2.4 1.1-2.8.5-3.7-2.1zM86.9 119.2s.1-1.2 2.6-2.3l6.3 2.8-2.4 1-2.8.5-3.7-2z"/><path class="st115" d="M87.8 155.1h-1l-4.6-2.7c4-2.6 10.2-3.2 14.8-3.2 4.6 0 8.3.5 8.3.5l-7.4 3.6c-4.6 1.6-8.3 1.8-10.1 1.8zM82.3 152.4l4.6 2.7s4.6.4 11.1-1.7l7.4-3.6s-15.6-2.3-23.1 2.6"/></g><g class="st2"><defs><path id="SVGID_7_" d="M106.3 169.1L95 171.2 81.4 175s19 14.7 40.5-12.5l-15.6 6.6z"/></defs><clipPath id="SVGID_8_"><use xlink:href="#SVGID_7_" overflow="visible"/></clipPath><path class="st116" d="M96.9 182c-3.7 0-6.4-1-6.4-1l4.6-9.7 8 9.7c-2 .6-4.1 1-6.2 1zM95 171.2l-4.6 9.7s6 2.3 12.5 0l-7.9-9.7z"/><path class="st117" d="M106.2 169.1l8.2 4.7c-2.9 4.7-11.3 7.1-11.4 7.2l3.2-11.9zM106.3 169.1l-3.2 11.9s8.5-2.4 11.4-7.1l-8.2-4.8z"/><path class="st118" d="M95 171.3l11.3-2.3-3.3 12zM95 171.2l11.3-2.1-3.3 11.8z"/><path class="st119" d="M106.2 169.1l15.6-6.6-7.4 11.3zM121.8 162.5l-7.4 11.3-8.1-4.7z"/><path class="st120" d="M90.5 181c-2.8-.3-9.1-5.9-9.1-5.9l13.7-3.8-4.6 9.7zM81.4 175s6.3 5.7 9.1 5.9l4.6-9.7-13.7 3.8z"/></g><g class="st2"><defs><path id="SVGID_9_" d="M5 55.5h171v172H5z"/></defs><clipPath id="SVGID_10_"><use xlink:href="#SVGID_9_" overflow="visible"/></clipPath><path class="st121" d="M108.7 153l21.9-5.5-8.8 15zM130.6 147.5l-8.8 15-13.1-9.5z"/><path class="st122" d="M92.7 163.3s1.8-.3 4.1-5.2l3.9-2.5 5.6 13.6-13.6-5.9zM92.7 163.3s1.8-.2 4.1-5.2l3.9-2.5 5.6 13.6-13.6-5.9z"/><path class="st123" d="M93 139.8c-.1 0-2.6 0-3.1-.5-.2-.2-.3-.3-.2-.5 0-.2.2-.4.2-.4s.7-.1 1.5-.1c1 0 1.7.3 1.9.7.2.5-.3.8-.3.8zM93 139.7s-2.6 0-3.1-.5 0-.8 0-.8 2.9-.6 3.4.6c.2.5-.3.7-.3.7"/><path class="st124" d="M61.1 132.7L61 129l4-2.7c0 .4.1.6.3.6.2 0 .4-.2.4-.2l-.5 6h-4.1zM61.1 132.7h4l.6-5.9s-.6.6-.7-.4l-3.9 2.6v3.7z"/><path class="st125" d="M80.7 128.2l.4-5.8s.6-2.2 2.1-2.5c.4-.1.8-.1 1.1-.1 1 0 1.4.3 1.6.5.3.3 1 1.5 1 1.5l-5 9.5-1.2-3.1zM86.8 121.8l-4.9 9.5-1.1-3 .4-5.8s.6-2.2 2.1-2.5c1.5-.3 2.3 0 2.7.4.1.2.8 1.4.8 1.4"/><path class="st126" d="M102.6 119l10.3 4.5c-2.6 2.3-13.5 3.4-13.6 3.4l3.3-7.9zM112.9 123.5l-10.3-4.5-3.3 7.9s11-1.1 13.6-3.4"/><path class="st127" d="M93 127.4c-1.7 0-4.1-3.6-4.1-3.7l1.6-2.5 2.8-.5 6.1 6.3c-.1-.1-4.7.3-6.4.4zM99.3 126.9l-6-6.3-2.8.5-1.6 2.5s2.4 3.7 4.1 3.7c1.7 0 6.3-.4 6.3-.4"/><path class="st128" d="M119 112.8l1.6-.4 3.3-.9 2 5.4-5.4 8.7zM119.1 112.8l1.4 12.7 5.4-8.6-2-5.4-3.2.9z"/><path class="st129" d="M62.1 91.1l8.3 22.9-6.7 1.5zM70.4 114l-8.3-22.9 1.6 24.4z"/><path class="st130" d="M134.8 127.1l1.1-.5 1.4.8.4-3.1h1.6c.1 1.1-.6 4.7-.6 4.7l-3.9-1.9zM138.6 129s.7-3.6.7-4.7h-1.6l-.4 3.1-1.4-.8-1.1.5 3.8 1.9z"/><path class="st131" d="M137.7 124.3l-2.2-13.7 1.1-.5c0 .1 2.6 9.1 2.7 14.1h-1.6zM136.6 110.1s2.6 9 2.7 14.1h-1.6l-2.2-13.7 1.1-.4z"/><path class="st132" d="M103.1 117.5c-.2 0-.5 0-.7-.3-.2-.2-.2-.5-.1-.9 0 0 .4-.3.8-.3.2 0 .5.1.6.3.2.2.2.4.1.6-.1.3-.6.5-.6.5.1.1 0 .1-.1.1M103.3 117.5s-1.3.2-1-1.1c0 0 .9-.7 1.4 0 .6.7-.4 1.1-.4 1.1"/><path class="st133" d="M71.6 124.7h-.5s-1.6-1.1-1.4-2.2c0 0 1.3-.7 2.9-.7.3 0 .5 0 .8.1 0 0 1 1.4.7 2.3 0-.1-1.1.5-2.5.5M74.1 124.1s-1.4.8-2.9.6c0 0-1.6-1.1-1.4-2.2 0 0 1.7-1 3.6-.7 0 0 1 1.3.7 2.3"/></g></svg>