<svg xmlns="http://www.w3.org/2000/svg" xmlns:xlink="http://www.w3.org/1999/xlink" width="192" height="234" viewBox="0 0 192 234"><style type="text/css">.st0{fill:#F2F2F2;} .st1{fill:#D54339;} .st2{clip-path:url(#SVGID_2_);} .st3{clip-path:url(#SVGID_4_);fill:#83432F;} .st4{clip-path:url(#SVGID_4_);fill:#491D0A;} .st5{clip-path:url(#SVGID_4_);fill:#260704;} .st6{clip-path:url(#SVGID_4_);fill:#492616;} .st7{clip-path:url(#SVGID_4_);fill:#A8694D;} .st8{clip-path:url(#SVGID_4_);fill:#3C2410;} .st9{clip-path:url(#SVGID_4_);fill:#B17B60;} .st10{clip-path:url(#SVGID_4_);fill:#1A1E0E;} .st11{clip-path:url(#SVGID_4_);fill:#2E2216;} .st12{clip-path:url(#SVGID_4_);fill:#7F573F;} .st13{clip-path:url(#SVGID_4_);fill:#BB8969;} .st14{clip-path:url(#SVGID_4_);fill:#4E210A;} .st15{clip-path:url(#SVGID_4_);fill:#E97371;} .st16{clip-path:url(#SVGID_4_);fill:#55150A;} .st17{clip-path:url(#SVGID_4_);fill:#F4B1A6;} .st18{clip-path:url(#SVGID_4_);fill:#772D19;} .st19{clip-path:url(#SVGID_4_);fill:#3C0E00;} .st20{clip-path:url(#SVGID_4_);fill:#5E321F;} .st21{clip-path:url(#SVGID_4_);fill:#4B3C1F;} .st22{clip-path:url(#SVGID_4_);fill:#BCA38C;} .st23{clip-path:url(#SVGID_4_);fill:#D9E3E6;} .st24{clip-path:url(#SVGID_4_);fill:#FEE1DB;} .st25{clip-path:url(#SVGID_4_);fill:#D3825E;} .st26{clip-path:url(#SVGID_4_);fill:#FBE0DA;} .st27{clip-path:url(#SVGID_4_);fill:#222612;} .st28{clip-path:url(#SVGID_4_);fill:#FDE6D9;} .st29{clip-path:url(#SVGID_4_);fill:none;stroke:#462E19;stroke-width:0.5;stroke-miterlimit:10;} .st30{clip-path:url(#SVGID_4_);fill:#DDAC9B;} .st31{clip-path:url(#SVGID_4_);fill:#D29375;} .st32{clip-path:url(#SVGID_4_);fill:#B16B47;} .st33{clip-path:url(#SVGID_4_);fill:#8E6550;} .st34{clip-path:url(#SVGID_4_);fill:#413318;} .st35{clip-path:url(#SVGID_4_);fill:#784938;} .st36{clip-path:url(#SVGID_4_);fill:#85503A;} .st37{clip-path:url(#SVGID_4_);fill:#7D563A;} .st38{clip-path:url(#SVGID_4_);fill:#8F6141;} .st39{clip-path:url(#SVGID_4_);fill:#DCAF94;} .st40{clip-path:url(#SVGID_4_);fill:#FAD8C6;} .st41{clip-path:url(#SVGID_4_);fill:#F1C3AB;} .st42{clip-path:url(#SVGID_4_);fill:#C69689;} .st43{clip-path:url(#SVGID_4_);fill:#5E2F1B;} .st44{clip-path:url(#SVGID_4_);fill:#7E3718;} .st45{clip-path:url(#SVGID_4_);fill:#632E0F;} .st46{clip-path:url(#SVGID_4_);fill:#8E4B29;} .st47{clip-path:url(#SVGID_4_);fill:#935C37;} .st48{clip-path:url(#SVGID_4_);fill:#724C30;} .st49{clip-path:url(#SVGID_4_);fill:#2B1C0C;} .st50{clip-path:url(#SVGID_4_);fill:#221006;} .st51{clip-path:url(#SVGID_4_);fill:#34230D;} .st52{clip-path:url(#SVGID_4_);fill:#2D1901;} .st53{clip-path:url(#SVGID_4_);fill:#754029;} .st54{clip-path:url(#SVGID_4_);fill:#331F0A;} .st55{clip-path:url(#SVGID_4_);fill:#240901;} .st56{clip-path:url(#SVGID_4_);fill:#49190E;} .st57{clip-path:url(#SVGID_4_);fill:#5E2012;} .st58{clip-path:url(#SVGID_4_);fill:#321905;} .st59{clip-path:url(#SVGID_4_);fill:#281D0B;} .st60{clip-path:url(#SVGID_4_);fill:#281A05;} .st61{clip-path:url(#SVGID_4_);fill:#592E21;} .st62{clip-path:url(#SVGID_4_);fill:#8C573F;} .st63{clip-path:url(#SVGID_4_);fill:#7C431C;} .st64{clip-path:url(#SVGID_4_);fill:#5B3618;} .st65{clip-path:url(#SVGID_4_);fill:#8E5E46;} .st66{clip-path:url(#SVGID_4_);fill:#EAB4A4;} .st67{clip-path:url(#SVGID_4_);} .st68{clip-path:url(#SVGID_4_);fill:#171B06;} .st69{clip-path:url(#SVGID_4_);fill:#131004;} .st70{clip-path:url(#SVGID_4_);fill:#101202;} .st71{clip-path:url(#SVGID_4_);fill:#0A0A02;} .st72{clip-path:url(#SVGID_4_);fill:#030300;} .st73{clip-path:url(#SVGID_4_);fill:#201D0A;} .st74{clip-path:url(#SVGID_4_);fill:#100D02;} .st75{clip-path:url(#SVGID_4_);fill:#3A3C2B;} .st76{clip-path:url(#SVGID_4_);fill:#010202;} .st77{clip-path:url(#SVGID_4_);fill:#000100;} .st78{clip-path:url(#SVGID_4_);fill:#373017;} .st79{clip-path:url(#SVGID_4_);fill:#5A3C1F;} .st80{clip-path:url(#SVGID_4_);fill:#FED7D0;} .st81{clip-path:url(#SVGID_4_);fill:#FDCBBA;} .st82{clip-path:url(#SVGID_4_);fill:#BA876D;} .st83{clip-path:url(#SVGID_4_);fill:#F0BB95;} .st84{clip-path:url(#SVGID_4_);fill:#443717;} .st85{clip-path:url(#SVGID_4_);fill:#F3D3C2;} .st86{clip-path:url(#SVGID_4_);fill:#B59169;} .st87{clip-path:url(#SVGID_4_);fill:#D29B74;} .st88{clip-path:url(#SVGID_4_);fill:#BE7D65;} .st89{clip-path:url(#SVGID_4_);fill:#3A1B0B;} .st90{clip-path:url(#SVGID_4_);fill:#955D3D;} .st91{clip-path:url(#SVGID_4_);fill:#393322;} .st92{clip-path:url(#SVGID_4_);fill:#2E2A13;} .st93{clip-path:url(#SVGID_4_);fill:#593E2F;} .st94{clip-path:url(#SVGID_4_);fill:#B1AAA5;} .st95{clip-path:url(#SVGID_4_);fill:#B9C4B0;} .st96{clip-path:url(#SVGID_4_);fill:#C2BFB4;} .st97{clip-path:url(#SVGID_4_);fill:#FFFFFE;} .st98{clip-path:url(#SVGID_4_);fill:#0A0F06;} .st99{clip-path:url(#SVGID_4_);fill:#BF9072;} .st100{clip-path:url(#SVGID_4_);fill:#EDBAA7;} .st101{clip-path:url(#SVGID_4_);fill:#CE9C7D;} .st102{clip-path:url(#SVGID_4_);fill:#B6B2AB;} .st103{clip-path:url(#SVGID_4_);fill:#BA8063;} .st104{clip-path:url(#SVGID_4_);fill:#D6A28B;} .st105{clip-path:url(#SVGID_4_);fill:#F7DCD0;} .st106{clip-path:url(#SVGID_4_);fill:#FAD4BC;} .st107{clip-path:url(#SVGID_4_);fill:#FED3C4;}</style><path class="st0" d="M0 0h192v234H0z"/><path class="st1" d="M192 215.5L172.5 234H192z"/><defs><path id="SVGID_1_" d="M23.6 47.3H160v140.9H23.6z"/></defs><clipPath id="SVGID_2_"><use xlink:href="#SVGID_1_" overflow="visible"/></clipPath><g class="st2"><defs><path id="SVGID_3_" d="M23.6 47.3H160v140.9H23.6z"/></defs><clipPath id="SVGID_4_"><use xlink:href="#SVGID_3_" overflow="visible"/></clipPath><path class="st3" d="M119.3 136.4l-.5.4c.6-.1 1.2-.1 1.7-.4.2-.1.4-.3.5-.4 0 0 .4-.6.3-.6-.2-.2-.3-.4-.5-.6.2-.1.3-.2.5-.3-.3 0-.5.1-.6.3-.2.2-.2.5-.4.6-.4.4-1 .5-1.5.5-.6.1-.6 1 0 1 .6-.1 1.1-.1 1.6-.4.2-.1.4-.3.6-.4.1-.1.4-.6.3-.6.2 0 .4-.1.5-.3.1-.3-.1-.6-.5-.6-.2 0-.4.1-.6.2-.2.2-.2.4-.4.6-.3.5-1 .5-1.5.6-.2 0-.5.2-.5.5.1.5 1.1.5 1-.1M118.9 136.9c.6-.1 1.1-.1 1.7-.4.2-.1.4-.3.6-.4 0 0 .4-.6.3-.6.6 0 .6-1 0-1-.2 0-.4.1-.6.2-.2.2-.2.4-.4.6-.3.5-1 .5-1.5.6-.7.1-.8 1.1-.1 1M123.7 133.2v.6c1-.8 2-1.8 2.9-2.8.4-.5.8-1 1.2-1.6.2-.3.4-.5.5-.8.1-.2.1-.3.2-.5 0-.1 0-.3.1-.4h-.7v-.7c-.2.2-.2.5-.3.8-.1.3-.3.6-.5.8-.4.6-.8 1.1-1.2 1.6-.9 1-1.8 2-2.9 2.8-.5.4.2 1.1.7.7 1-.8 2-1.8 2.9-2.8.4-.5.8-1 1.2-1.6.2-.3.4-.5.5-.8.1-.2.2-.3.2-.5 0-.1 0-.3.1-.4.2-.2.2-.5 0-.7-.2-.2-.5-.2-.7 0-.2.3-.2.5-.3.8-.1.3-.3.6-.4.8-.4.6-.8 1.1-1.2 1.6-.9 1-1.8 2-2.9 2.8-.2.2-.1.5 0 .7.3.8 1 .1.6-.4M123.7 133.9c1-.8 2-1.8 2.9-2.8.4-.5.8-1 1.2-1.6.2-.3.4-.5.5-.8.1-.2.1-.3.2-.5 0-.1 0-.3.1-.4.4-.5-.3-1.1-.7-.7-.2.3-.2.5-.3.8-.1.3-.3.6-.5.8-.4.6-.8 1.1-1.2 1.6-.9 1-1.8 2-2.9 2.8-.4.5.2 1.1.7.8"/><path class="st4" d="M128.8 123.8c-.2-.9.4-1.7.7-2.5.4-.9.3-1.9.8-2.8-.2.1-.4.1-.7.2-.1-.2-.1-.4-.2-.7-.5.9-.5 2-.8 3-.3.9-.9 1.8-.8 2.8.1.5.7.6.9.1.2-.4.3-.7.4-1.1l-.6.3-.3-.6c-.1.4-.2.8-.4 1.1-.2.6.6 1 .8.5.2-.4.4-.9.5-1.4.1-.2-.1-.5-.3-.6-.3-.1-.5.1-.6.3-.1.4-.2.7-.4 1.1.4.2.7.2 1 .3-.1-.9.5-1.7.8-2.6.3-.9.3-1.9.7-2.7.1-.2.1-.5-.2-.7-.2-.1-.5-.1-.7.2-.5 1-.5 2.2-.9 3.2-.4.9-.9 1.8-.7 2.8.2.7 1.1.4 1-.2M129.5 118c-.5.9-.5 2-.8 3-.4 1-1 1.9-.8 3 .1.5.8.4.9 0 .2-.4.3-.8.4-1.2.2-.6-.7-.8-.9-.3-.1.4-.3.8-.4 1.2h.9c-.2-.9.5-1.8.8-2.6.3-.9.3-1.8.7-2.6.3-.5-.5-1-.8-.5M129 119l.4.5c-.1-1.2-.3-2.3-.5-3.5l-.3.6-.6-.3c.2 1 .4 2.1.4 3.1 0 .2.1.4.3.5l-.3-.6v.1c-.1.6.8.8.9.3v-.1c.1-.2-.1-.5-.3-.6.1.2.2.3.3.5-.1-1.1-.3-2.3-.5-3.4-.1-.3-.3-.4-.6-.3-.3.1-.4.3-.3.6.2 1.1.4 2.1.5 3.2 0 .3.2.5.5.5.7-.1.7-1 .1-1.1M128.1 116.3c.2 1.1.4 2.1.5 3.2 0 .5.8.7.9.1v-.1c.1-.6-.8-.8-.9-.3v.1l.9.1c-.1-1.2-.3-2.3-.5-3.5-.1-.5-1-.2-.9.4M127.8 112.9c-.3-.3-.5-.7-.7-1.1-.1.2-.1.4-.2.7-.2-.1-.4-.1-.7-.2.2.4.5.8.8 1.2.2.3.7.1.8-.2v-.1l-.3.3c-.2-.2-.4-.3-.6-.5v.1c0-.1 0-.2.1-.2-.4.4.2 1.1.7.7.1-.1.2-.3.2-.5 0-.3-.3-.5-.6-.5-.2 0-.3.2-.3.3v.1c.2 0 .5-.1.8-.1-.3-.4-.5-.7-.7-1.1-.1-.2-.4-.3-.7-.2-.2.1-.3.4-.2.7.3.4.6.9.9 1.2.2.2.5.2.7 0 .1-.1.1-.4 0-.6M126.2 112.4c.3.4.5.8.9 1.2.2.2.6.1.7-.1.1-.1.1-.2.1-.3 0-.3-.2-.5-.5-.5s-.4.2-.5.5v.1c0-.1 0-.2.1-.2.2 0 .5-.1.7-.1-.3-.3-.5-.7-.7-1-.3-.7-1.1-.2-.8.4M124.3 110s0-.1 0 0l.1.1c.1-.1.1-.1-.1-.1.1.2.2.4.2.5v-.1c-.3.1-.5.1-.8.2v-.6c-.1.2-.2.4-.1.6.2.3.6.3.9.3h.8l-.5-.5.5-.5H124c-.6 0-.6 1 0 1h1.3c.3 0 .5-.2.5-.5s-.2-.5-.5-.5h-.7c.1 0-.1 0-.3.1.1-.1 0-.1 0 0-.1-.1-.1-.2 0 0 .1 0 .2.1.2.1 0 .2 0 .4-.1.6.2-.2.2-.5 0-.7-.2-.3-.7-.1-.8.2v.1c0 .2 0 .3.1.5.1.1.2.2.3.2.7 0 .9-.9.3-1M123.7 110.2c0 .2 0 .4.1.5.2.2.5.2.8.2h.9c.6 0 .6-1 0-1h-1.2c.1 0 .1.1.2.1 0 .2.1.3.1.5 0-.3-.1-.5-.3-.6-.3-.1-.6 0-.6.3M130.6 113.1c-.2-1.2-.2-2.5-.5-3.7-.1-.6-.4-1.1-.7-1.7-.3-.6-.7-1.1-1.1-1.6-.5-.6-1.3-.6-2.1-.6h-1.9c-.4 0-.8 0-1.2.1-.6.2-1.1.6-1.5 1.1h.7v.7c.2-.2.4-.5.7-.7.3-.2.7-.3 1-.3h2.7c.5 0 .9.1 1.2.5.4.6.8 1.2 1.1 1.9.3.6.4 1.3.5 1.9l.3 2.4c.1.4.7.5.9.1.6-1.2.4-2.5.1-3.7l-.3.6-.6-.3c.2 1 .4 2.2-.1 3.1-.3.5.5 1 .8.5.7-1.2.5-2.6.2-3.9-.1-.3-.3-.4-.6-.3-.3.1-.4.3-.3.6.2 1 .4 2 0 3 .3 0 .6.1.9.1-.1-.7-.2-1.4-.3-2-.1-.6-.1-1.3-.4-1.9-.2-.6-.5-1.1-.8-1.6-.3-.5-.6-1.1-1.1-1.5-.6-.5-1.3-.5-2-.5h-1.9c-.4 0-.8 0-1.2.1-.6.2-1.1.7-1.6 1.1-.2.2-.2.5 0 .7.2.2.5.2.7 0 .2-.2.4-.5.7-.7.3-.2.6-.3 1-.3h2.7c.2 0 .4 0 .7.1.3.1.5.5.7.8.4.6.7 1.1 1 1.8.3.7.3 1.4.4 2.1l.3 2.1c0 .3.4.4.6.3.3.1.4-.1.3-.4M122.2 107.3c.3-.3.6-.7 1-.8.5-.2 1.1-.1 1.6-.1h1.7c.3 0 .5 0 .8.1.2.1.4.3.5.5.6.8 1.2 1.8 1.4 2.8.2 1.1.3 2.3.5 3.4.1.4.7.5.9.1.6-1.2.4-2.5.2-3.8-.1-.6-1-.3-.9.3.2 1 .4 2.1-.1 3.1.3 0 .6.1.9.1-.1-.7-.2-1.4-.3-2-.1-.6-.1-1.3-.4-1.9-.2-.6-.5-1.1-.8-1.6-.3-.5-.6-1.1-1.1-1.5-.4-.4-1-.4-1.6-.5h-2c-.6 0-1.2-.1-1.8.2-.5.2-.9.6-1.3 1-.3.4.4 1.1.8.6M122.1 118.5c.6 0 .6-1 0-1s-.6 1 0 1M122.1 118.5c.6 0 .6-1 0-1s-.6 1 0 1"/><path class="st5" d="M122.9 119.9c0-.1-.1-.1-.1-.2-.1.2-.1.4-.2.7-.2-.1-.4-.1-.7-.2 0 0 0 .1.1.1.2.3.5.3.7.1.4-.5.6-.9.6-1.5v-1.1l-.5.5-.5-.5v1.3c0 .3-.2.5-.4.7-.4.4.3 1.1.7.7.4-.5.6-.9.7-1.5v-1.1c0-.3-.2-.5-.5-.5s-.5.2-.5.5v.9c0 .4 0 .7-.3 1 .4-.1.6 0 .9.1 0-.1 0-.1-.1-.2-.1-.2-.4-.3-.7-.2-.2.1-.3.4-.2.7 0 .1.1.1.1.2.4.5 1.2 0 .9-.5M122.5 117.8v1.2c0 .3-.1.5-.3.8.2 0 .5.1.7.1l-.1-.1c-.3-.5-1.1 0-.8.5l.1.1c.2.3.5.3.7.1.3-.3.5-.6.6-1.1.1-.5 0-1 0-1.5.1-.7-.9-.7-.9-.1M119.2 116.1c.1.1.2.3.3.4 0-.9.2-1.8.4-2.6l-.6.3-.3-.6c-.3.9-.5 1.8-.5 2.8 0 .4.7.7.9.2.4-.9.5-1.9.6-2.9-.3.1-.5.1-.8.2.7.7 1.3 1.4 1.7 2.3.1-.2.1-.4.2-.7.2.1.4.1.7.2-.5-.9-1.1-1.7-1.8-2.4-.2-.2-.7-.2-.8.2-.1.9-.2 1.9-.6 2.7-.3.5.6 1 .8.5.4-.9.5-1.9.7-2.9-.3.1-.5.1-.8.2.7.6 1.2 1.4 1.6 2.2.1.2.4.3.7.2.2-.1.3-.4.2-.7-.5-.9-1.1-1.8-1.9-2.5-.2-.2-.7-.2-.8.2-.1.9-.2 1.9-.5 2.7.3.1.6.2.9.2 0-.9.2-1.7.4-2.5.1-.3-.1-.5-.3-.6-.3-.1-.5.1-.6.3-.3.9-.5 1.9-.5 2.9 0 .2.1.4.3.5.8.2 1-.7.4-.8M119.1 113.6c-.3.9-.5 1.9-.5 2.9 0 .5.7.7.9.2.5-.9.5-2 .7-3-.3.1-.5.1-.8.2.7.6 1.2 1.4 1.7 2.2.3.5 1.1.1.8-.5-.5-.9-1.1-1.7-1.8-2.4-.2-.2-.7-.2-.8.2-.1.9-.2 1.9-.6 2.7.3.1.6.2.9.2 0-.9.2-1.8.4-2.6.2-.4-.7-.6-.9-.1"/><path class="st6" d="M123.3 118.6c.6 0 .6-1 0-1-.7.1-.7 1 0 1M123.3 118.6c.6 0 .6-1 0-1-.7.1-.7 1 0 1M124 124.4c-.1 0-.1-.1 0 0v.6c.8-.9 1.9-1.8 2.1-3.1.1-.6.1-1.1-.2-1.6-.1-.2-.3-.4-.4-.6-.2-.3-.3-.5-.5-.8-.4-.5-.8-.8-1.3-1.2.1.2.1.4.2.7-.2.1-.4.1-.7.2.4.3.8.5 1.1.9.1.2.2.3.3.5.1.2.3.4.4.6.2.2.2.4.2.7 0 .4-.1.9-.4 1.2-.1.2-.3.3-.4.5-.3.3-.5.6-.8.9-.4.5.2 1.1.7.7.3-.2.5-.5.8-.7.3-.3.7-.6.7-1-.1.1-.2.3-.2.4-.2-.1-.5-.2-.7-.3-.1-.4.1-.1 0-.1l-.2.2c-.2.2-.4.3-.6.5l-.8.8c-.5.4.2 1.1.7.7.3-.3.7-.6 1-.9.4-.3 1-.7.8-1.3-.1-.3-.4-.4-.7-.3-.1.1-.2.3-.2.4 0 0 .1-.1 0-.1l-.1.1-.4.4c-.2.2-.4.4-.7.6l.7.7c.3-.3.6-.7.9-1 .3-.3.5-.6.7-.9.2-.5.3-1 .3-1.5 0-.7-.4-1.2-.7-1.7-.2-.3-.3-.5-.5-.7-.3-.5-.8-.8-1.2-1.1-.2-.1-.5 0-.7.2-.1.2 0 .5.2.7.5.3.8.6 1.1 1 .1.2.2.4.3.5.1.2.2.4.4.5.2.4.2.8.1 1.3s-.6.9-1 1.4c-.3.3-.6.6-.8.9-.2.2-.2.5 0 .7.2.5.9-.2.5-.6M123.2 118.7c.6.3.9.7 1.3 1.3.2.2.3.5.5.7.2.3.3.5.2.8-.1.6-.2 1-.6 1.4-.4.5-.9 1-1.3 1.4-.4.5.2 1.1.7.7.4-.3.8-.7 1.1-1 .3-.3.8-.6.7-1-.1-.6-1-.6-1 0 0-.1 0-.1-.1 0s-.2.1-.2.2c-.1.1-.3.2-.4.4-.3.3-.6.5-.9.8l.7.7c.5-.6 1.1-1.1 1.5-1.7.5-.6.6-1.2.6-2s-.5-1.4-.9-2c-.4-.7-.9-1.1-1.6-1.6-.4-.3-.8.5-.3.9"/><path class="st7" d="M128.9 125.8l.4.5c0-.3.2-.7.3-1 .1-.3 0-.6-.3-.7.2.3.3.3.2.1v-.1c0-.1.1-.3.1-.4.1-.1.1-.3.2-.4.1-.2.2-.3.2-.5.3-.5.6-1.1.9-1.6.8-1.5 1.8-3.1 1.5-4.9-.1.2-.2.3-.3.5-.2-.2-.4-.3-.6-.5.2 1.8-.8 3.4-1.6 4.9-.3.5-.5 1-.8 1.5-.2.3-.3.6-.4.9-.1.4-.2 1.2.3 1.3.2 0 .4 0 .5-.2.4-1 .9-2 1.5-3-.2.1-.4.1-.7.2-.1-.2-.1-.4-.2-.5-.3.7-.5 1.5-.8 2.2-.1.1-.2.3-.3.4l-.3.3c-.2.3-.3.7-.4 1-.1.2.1.5.3.6l-.3-.6c0 .1 0 .2-.1.3-.1.6.8.8.9.3 0-.1 0-.2.1-.3.1-.2-.1-.5-.3-.6l.3.6c.1-.2.2-.4.2-.5.1-.2 0-.1.2-.3.3-.2.4-.5.6-.8.3-.7.6-1.5.9-2.2.1-.2 0-.5-.2-.5-.2-.1-.5-.1-.7.2l-1.5 3c.2-.1.4-.1.5-.2.1.1.2.1.3.2-.1-.3.2-.8.4-1 .1-.2.2-.3.3-.5.3-.5.6-1 .8-1.6.8-1.5 1.7-3.1 1.5-4.9 0-.3-.3-.5-.6-.5-.2 0-.4.3-.3.5.2 1.8-.9 3.4-1.7 4.9-.4.8-2.1 3.3-.8 3.8-.1-.2-.2-.5-.3-.7-.2.5-.5.9-.5 1.4 0 .3.2.5.5.5.7-.1.7-1.1.1-1.1M130.2 122.1c-.5.9-.9 1.8-1.3 2.7-.2.4.2 1 .7.7.4-.3.6-.7.8-1.1.3-.6.5-1.2.7-1.8.2-.6-.7-.8-.9-.3-.2.5-.3 1-.5 1.4-.1.3-.3.7-.6.9l.7.7c.4-.9.8-1.8 1.3-2.7.2-.6-.6-1-.9-.5M131.6 116.8c.2 1.2-.3 2.4-.9 3.5l-1.8 3.3c-.2.4-.4 1-.3 1.5.2.5.7.5 1 .2.4-.3.6-.8.7-1.2.2-.6.5-1.2.7-1.8.2-.5-.6-.8-.9-.4-.4.7-.8 1.5-1.1 2.2-.2.4-.3.7-.5 1.1-.2.4-.3.7-.3 1.1 0 .5.8.7.9.1 0-.1 0-.2.1-.3.1-.6-.8-.8-.9-.3 0 .1 0 .2-.1.3l.9.1c0-.3.2-.7.3-1 .2-.3.3-.7.5-1 .3-.7.6-1.3 1-1.9-.3-.1-.6-.2-.9-.4-.2.5-.4 1-.6 1.6l-.3.6c-.1.1-.1.2-.2.3l-.1.1c-.1.1-.1.1 0 0 .1.1.3.2.4.2-.1-.2.2-.8.3-1 .2-.3.3-.6.5-1 .3-.7.7-1.3 1-2 .7-1.3 1.3-2.6 1.1-4.1 0-.3-.2-.5-.5-.5.3.3 0 .5 0 .7M132.3 116.4l.4.5v-.6l-.5.5-.5-.5v.6c0 .2.2.5.5.5s.5-.2.5-.5v-.6c0-.3-.2-.5-.5-.5s-.5.2-.5.5v.6c0 .3.2.5.5.5.2 0 .5-.2.5-.5.1-.3-.1-.5-.4-.5M132.8 116.8v-.6c0-.2-.2-.5-.5-.5s-.5.2-.5.5v.6c0 .2.2.5.5.5.2 0 .5-.2.5-.5"/><path class="st8" d="M112.7 115.4s0-.1 0 0l-.5.4c.4 0 .8-.1 1.2-.1l-.5-.5c0 .2.2.5.5.5h.5l-.5-.5.5-.5h-1.2l.5.5c0-.2-.2-.5-.5-.5h-.5c-.3 0-.5.2-.5.5 0 .2.2.5.5.5h.5l-.5-.5c0 .3.2.5.5.5h1.2c.2 0 .5-.2.5-.5 0-.2-.2-.5-.5-.5h-.5l.5.5c0-.3-.2-.5-.5-.5-.4 0-.8 0-1.2.1-.2 0-.5.2-.5.5s.2.5.5.5.6-.2.5-.4M112.3 115.8c.4 0 .8-.1 1.2-.1v-1h-.7c-.6 0-.6.9 0 1h1.2c.6-.1.6-1 0-1h-1.2v1h.7c.6 0 .6-.9 0-1-.4 0-.8 0-1.2.1-.3 0-.5.2-.5.5s.2.6.5.5"/><path class="st7" d="M121.8 103.5c-.1.2-.1.4-.2.6.8-.4 1.6-.7 2.5-.9.8-.2 1.6-.2 2.3.3-.1-.2-.1-.4-.2-.7.2-.1.4-.1.7-.2-.8-.6-1.8-.6-2.8-.4-1 .2-2 .5-2.9 1-.5.3-.1 1.1.5.8.8-.4 1.6-.7 2.4-.8.8-.2 1.6-.2 2.3.3.2.2.5 0 .7-.2.2-.2 0-.5-.2-.7-.8-.6-1.9-.6-2.8-.4-1 .2-2 .5-2.9 1-.2.1-.3.4-.2.7.2.7 1.1.2.8-.4M121.6 104.2c.8-.4 1.6-.7 2.5-.9.8-.1 1.6-.2 2.3.3.5.3 1-.5.5-.8-.8-.5-1.8-.6-2.7-.4-1 .2-2.1.5-3 1-.6.3-.2 1.1.4.8"/><path class="st9" d="M96.7 79.3c-1.8-2-4.4-2.9-6.8-3.7l.3.6-.6.3c2.3.8 4.8 1.6 6.4 3.5v-.7c-.5.4.2 1.1.7.7.2-.2.2-.5 0-.7-1.8-2-4.4-2.9-6.8-3.8-.3-.1-.5.1-.6.3-.1.3.1.5.3.6 2.3.8 4.8 1.6 6.4 3.5.4.5 1.1-.1.7-.6M89.6 76.5c2.3.8 4.8 1.6 6.4 3.5.4.5 1.1-.2.7-.7-1.8-2-4.4-2.9-6.9-3.7-.6-.2-.8.7-.2.9M90.3 105.5c0 .2.1.4.1.6.7-1.4 1.4-2.8 1.8-4.4.4-1.5.5-3 1.4-4.3-.2.1-.4.1-.7.2-.1-.2-.1-.4-.2-.5-.2.5-.3 1.1-.4 1.6l.6-.3.3.6c.1-.5.2-1 .4-1.5.1-.5-.6-.8-.9-.4-.8 1.3-.9 2.8-1.3 4.2-.4 1.5-1.1 2.9-1.8 4.3-.3.5.5 1 .8.5.7-1.4 1.4-2.8 1.8-4.2.4-1.4.5-3 1.3-4.3-.3-.1-.6-.2-.9-.4-.1.5-.3 1-.4 1.5-.1.2.1.5.3.6.2.1.5-.1.6-.3.1-.5.3-1.1.4-1.6.1-.2 0-.4-.2-.5-.2-.1-.5-.1-.7.2-.9 1.3-1 2.8-1.4 4.2-.4 1.5-1.1 3-1.8 4.4-.1.2-.1.5.2.7.7.2 1.2-.6.7-.9M90.4 106.1c.7-1.4 1.4-2.8 1.8-4.2.5-1.5.5-3.1 1.4-4.4-.3-.1-.6-.2-.9-.4-.2.5-.3 1.1-.4 1.6-.1.6.8.8.9.3.1-.6.3-1.1.4-1.6.2-.5-.6-.8-.9-.4-.9 1.3-1 2.9-1.4 4.3-.4 1.5-1.1 2.9-1.8 4.3-.2.6.7 1.1.9.5"/><path class="st10" d="M80.2 110.3c-1.5-.5-3-.9-4.6-.7l.6.3-.3.6c1.4-.2 2.8.2 4.1.7l-.3-.6c-.2.6.7.8.9.3.1-.3-.1-.5-.4-.6-1.5-.5-3-1-4.6-.7-.3 0-.4.4-.3.6.1.3.3.4.6.3 1.4-.2 2.8.2 4.1.7.6.2.8-.7.2-.9M75.9 110.6c1.4-.2 2.8.2 4.1.7.6.2.8-.7.3-.9-1.5-.5-3-.9-4.6-.7-.6 0-.4 1 .2.9"/><path class="st11" d="M73.3 110.6c-.1.2-.1.4-.2.6.2-.2.5-.3.7-.5-.1-.1-.4-.1-.5-.1-.1-.1-.1 0 0 0 0-.2 0-.4.1-.7-.2.2-.5.3-.7.5-.2.1-.3.4-.2.7.1.2.4.3.7.2.2-.2.5-.3.7-.5.2-.1.3-.4.2-.7-.1-.2-.4-.3-.7-.2-.2.2-.5.3-.7.5-.2.1-.3.4-.2.7.1.2.4.3.7.2.2-.2.3-.5.1-.7M73.1 111.2c.2-.2.5-.3.7-.5.2-.1.3-.4.2-.7-.1-.2-.4-.3-.7-.2-.2.2-.5.3-.7.5-.2.1-.3.4-.2.7.2.2.5.4.7.2"/><path class="st12" d="M75.3 108.5h-.9l.5.5-.5.5c.3 0 .7-.1 1-.1.6-.1.6-.9 0-1-.3 0-.6 0-.9-.1l.5.5-.5.5c.4 0 .8.1 1.1.1l-.5-.5.5-.5c-.3 0-.5 0-.8.1-.6.1-.6.9 0 1h.4l-.5-.5c0 .6.9.6 1 0 .1-.4-.2-.6-.4-.5h-.4v1c.3 0 .5 0 .8-.1.3 0 .5-.2.5-.5s-.2-.5-.5-.5c-.4 0-.8-.1-1.1-.1-.3 0-.5.2-.5.5s.2.5.5.5.6 0 .9.1v-1c-.3 0-.7.1-1 .1-.2 0-.5.2-.5.5s.2.5.5.5h.9c.5-.1.5-1-.1-1M75.3 108.5h-.9v1c.4 0 .8-.1 1.3-.1.6-.1.6-.9 0-1-.4 0-.8-.1-1.1-.1-.3 0-.5.2-.5.5s.2.5.5.5c.4 0 .8.1 1.1.1v-1c-.4 0-.8.1-1.3.1-.6.1-.6.9 0 1h.9c.6-.1.6-1 0-1M81.1 109.7c-1-.4-2.1-.4-3-.8l.3.6-.6.3c.9.3 1.9.3 2.8.7-.1-.2-.1-.4-.2-.7-.3.5.6 1 .8.5.2-.2.1-.5-.1-.6-1-.5-2-.4-3-.8-.3-.1-.5.1-.6.3-.1.3.1.5.3.6.9.3 1.9.3 2.8.7.5.3 1-.5.5-.8M77.8 109.9c.9.3 1.9.3 2.8.7.6.3 1-.6.5-.8-1-.4-2.1-.4-3-.8-.7-.3-.9.7-.3.9M86.1 112.1c-.4-.3-.9-.6-1.5-.8l.3.6-.6.3c.5.2.9.4 1.3.7-.1-.2-.1-.4-.2-.7-.2.2 0 .5.2.7.2.1.5 0 .7-.2.2-.2 0-.5-.2-.6-.4-.4-.9-.6-1.5-.8-.3-.1-.5.1-.6.3-.1.3.1.5.3.6.4.2.9.4 1.2.7.2.2.5 0 .7-.2.2-.2.1-.5-.1-.6M84.4 112.2c.5.2.9.4 1.2.7.2.2.5 0 .7-.2.1-.2 0-.5-.2-.7-.4-.3-.9-.6-1.5-.8-.5-.1-.8.8-.2 1"/><path class="st13" d="M81.2 90.2c-.5-1.2-1.4-2.2-2-3.3-.6-1.1-1.1-2.2-1.8-3.3-1.2-2.1-3.1-4-3.8-6.4l-.3.6-.6-.3c.7 2.4 2.6 4.3 3.8 6.5.6 1.1 1.2 2.3 1.8 3.4.6 1.1 1.5 2.1 2 3.3.1-.2.1-.4.2-.7-.6.2-.1 1.1.5.8.4-.1.4-.5.2-.6-.5-1.2-1.3-2.2-2-3.3-.6-1.1-1.1-2.2-1.8-3.3-1.2-2.1-3.1-4-3.8-6.4-.1-.2-.3-.4-.6-.3-.2.1-.4.3-.3.6.7 2.5 2.6 4.3 3.8 6.5.6 1.1 1.2 2.3 1.8 3.4.6 1.1 1.5 2.1 2 3.3.4.5 1.2 0 .9-.5M81.3 90.1c-.6-1.2-1.4-2.2-2.1-3.4-.7-1.1-1.2-2.3-1.8-3.4-1.2-2-3-3.8-3.7-6.1-.2-.6-1.1-.3-.9.3.7 2.4 2.5 4.1 3.7 6.2.7 1.2 1.2 2.4 1.9 3.6.7 1.1 1.5 2.2 2.1 3.4.2.5 1 0 .8-.6"/><path class="st9" d="M76 76.1c-.1.2-.2.3-.3.5 3.2-.6 6.4-.8 9.7-.5l-.5-.5.5-.5c-3.3-.3-6.6-.1-9.9.5-.6.1-.3 1 .3.9 3.2-.6 6.4-.8 9.6-.5.3 0 .5-.2.5-.5s-.2-.5-.5-.5c-3.3-.3-6.6-.1-9.9.5-.3.1-.4.3-.3.6 0 .9.9.6.8 0M75.6 76.7c3.2-.6 6.4-.8 9.7-.5.6.1.6-.9 0-1-3.3-.3-6.6-.1-9.9.5-.6.2-.4 1.1.2 1"/><path class="st14" d="M79.6 149.4c-.4-.4-.8-.8-1.1-1.2-.3-.4-.5-.8-.8-1.1-.4-.4-.9-.6-1.3-.9-.5-.3-1-.5-1.5-.8.1.2.1.4.2.7-.2.1-.4.1-.7.2.5.2 1 .5 1.5.7.4.2.9.5 1.2.8.3.3.5.8.8 1.1.3.4.7.8 1.1 1.2v-.7c-.4.5.3 1.1.7.7.1-.2.1-.5-.1-.7-.4-.4-.7-.8-1.1-1.3-.3-.4-.5-.8-.8-1.2-.4-.4-.8-.6-1.3-.9-.5-.3-1-.5-1.5-.8-.2-.1-.5-.1-.7.2-.1.2-.1.5.2.7.5.2.9.4 1.4.7.4.3 1 .5 1.3.9.3.3.5.7.7 1.1.3.4.7.8 1.1 1.2.5.5 1.2-.2.7-.6M74.4 146.2c.5.2.9.4 1.4.7.4.2 1 .5 1.3.9.3.4.5.8.8 1.2.3.4.6.8 1 1.1.4.4 1.1-.3.7-.7-.4-.4-.8-.7-1.1-1.2-.3-.4-.5-.9-.9-1.2-.7-.7-1.8-1.2-2.8-1.6-.4-.2-.9.6-.4.8"/><path class="st15" d="M64.8 142.2c-.9-.1-1.7-.2-2.6-.3l.5.5-.5.5c.8.1 1.6.1 2.4.2l-.3-.6c-.1.6.8.9.9.3-.1-.2-.2-.6-.4-.6-.9-.2-1.7-.3-2.6-.3-.3 0-.5.2-.5.5s.2.5.5.5c.8.1 1.6.1 2.4.2.3 0 .5-.1.6-.3-.1-.2-.2-.5-.4-.6M62.1 142.9c.8.1 1.6.1 2.4.2.3 0 .5-.1.6-.3.1-.2-.1-.6-.3-.6-.9-.1-1.7-.2-2.6-.3-.7 0-.7 1-.1 1"/><path class="st16" d="M69.4 143.1h-.7l.5.5-.5.5c.7 0 1.3 0 2-.1s1.3-.4 1.9-.3l-.5-.5.5-.5c-1.1-.2-2.1.4-3.2.4-.6 0-.6 1 0 1s1.1-.1 1.6-.2 1-.3 1.6-.3c.3 0 .4-.2.5-.5 0-.3-.2-.5-.5-.5-.7-.1-1.3.1-1.9.3-.7.2-1.3.2-2 .1-.3 0-.5.2-.5.5s.2.5.5.5h.7c.6 0 .6-.9 0-.9M68.7 144c.7 0 1.4 0 2-.1.6-.1 1.3-.4 1.9-.3.6 0 .6-.9 0-1-.7 0-1.3.1-1.9.3-.7.2-1.3.2-2 .1-.6 0-.6.9 0 1"/><path class="st17" d="M69.3 142.3c-.6 0-1.1-.1-1.7-.3l.3.6-.6.3c1 .4 2.1.4 3.1.2l-.6-.3.3-.6c-.2.1-.5.1-.8.1-.6 0-.6 1 0 1 .4 0 .8 0 1.2-.1.3 0 .4-.4.3-.6-.1-.3-.3-.4-.6-.3-.9.2-1.8.1-2.6-.2-.3-.1-.5.1-.6.3-.1.3.1.5.3.6.6.2 1.3.3 2 .3.6 0 .6-1 0-1M67.3 142.9c1 .4 2.1.4 3.1.2.6-.1.3-1-.3-.9-.9.2-1.8.1-2.6-.2-.5-.2-.7.7-.2.9M60.2 141.6h-1.1l.5.5-.5.5c1.1.1 2.3 0 3.4-.1l-.6-.3.3-.6c-.6-.1-1.3 0-2 0-.6 0-.6 1 0 1 .8 0 1.6-.1 2.3-.2.3 0 .4-.4.3-.6 0-.3-.4-.4-.6-.3-1 .1-2.1.2-3.2.1-.3 0-.5.2-.5.5s.2.5.5.5h1.1c.7-.1.7-1 .1-1M59.1 142.5c1.1.1 2.3 0 3.4-.1.6-.1.3-1-.3-.9-1 .1-2.1.2-3.2.1-.5-.1-.5.8.1.9M54.1 141.9c-.1.2-.2.3-.3.5.4-.1.8-.2 1.1-.3l-.6-.3.3-.6c-.4.1-.8.2-1.1.3-.6.1-.3 1.1.3.9.4-.1.8-.2 1.1-.3.2-.1.4-.3.3-.6-.1-.2-.3-.4-.6-.3-.4.1-.8.2-1.1.3-.3.1-.4.3-.3.6.1.6 1.1.4.9-.2M53.8 142.4c.4-.1.8-.2 1.1-.3.6-.2.3-1.1-.3-.9-.4.1-.8.2-1.1.3-.6.2-.3 1.1.3.9"/><path class="st18" d="M60.3 136.4c0 .2.1.4.1.6.3-.6.5-1.1.8-1.7.3-.7.6-1.4 1-2.1-.2.1-.4.1-.7.2-.1-.2-.1-.4-.2-.7-.4.6-.7 1.4-1 2.1-.3.6-.5 1.1-.8 1.7-.3.6.6 1 .8.5.3-.6.5-1.1.8-1.7.3-.7.6-1.4 1-2.1.1-.2 0-.5-.2-.7-.2-.2-.5 0-.7.2-.4.6-.7 1.4-1 2.1-.3.6-.5 1.1-.8 1.7-.1.2-.1.5.2.7.8.3 1.3-.5.7-.8M60.5 137.1c.3-.7.6-1.3.9-2 .3-.6.5-1.2.9-1.8.3-.5-.5-1-.8-.5-.4.6-.6 1.2-.9 1.8l-.9 2c-.3.5.5 1 .8.5M59.3 138.4c-.1 0-.1 0 0 0 0 .2.1.4.1.6.3-.7.8-1.4 1.2-2.1-.2.1-.4.1-.7.2-.1-.2-.1-.4-.2-.5-.2.5-.4 1-.8 1.4.2-.1.4-.1.7-.2.1.2.1.4.2.7.3-.5.6-.9.8-1.5.2-.5-.6-.8-.9-.4-.4.6-.8 1.2-1.1 1.9-.3.6.6 1 .8.5.3-.7.7-1.3 1.1-1.9-.3-.1-.6-.2-.9-.4-.2.4-.4.9-.7 1.2-.2.2 0 .5.2.7.2.2.5 0 .7-.2.4-.5.6-1 .9-1.6.1-.2 0-.4-.2-.5-.2-.1-.5 0-.7.2-.5.6-.9 1.3-1.2 2.1-.1.2-.1.5.2.7.5.2 1-.7.5-.9M59.8 138.5c.4-.5.6-1 .9-1.6.2-.6-.6-.8-.9-.4-.5.6-.9 1.3-1.2 2.1-.3.6.6 1 .8.5.3-.7.8-1.4 1.2-2.1-.3-.1-.6-.2-.9-.4-.2.5-.4 1-.8 1.4-.2.5.6 1 .9.5"/><path class="st19" d="M63.8 129.2c0 .2.1.4.1.6.2-.3.5-.5.7-.7.2-.1.3-.3.2-.5-.3-.9-1.1-1-1.9-1-.9-.1-1.9-.1-2.9-.1l.5.5-.5.5h2.2c.4 0 1.6 0 1.7.5.1-.2.1-.4.2-.5-.4.3-.8.7-1.1 1.1-.4.5.5 1 .8.5.2-.3.5-.5.7-.7.2-.1.3-.3.2-.5-.2-.9-1.2-1-1.9-1.1-1-.1-2-.1-2.9-.1-.3 0-.5.2-.5.5s.2.5.5.5H62c.3 0 .7 0 1 .1.2 0 .7 0 .8.3.1-.2.1-.4.2-.5-.4.3-.8.6-1.1 1.1-.2.2 0 .5.2.7.7-.1 1.2-.9.7-1.2M60.1 128.3h2.1c.3 0 .7 0 1 .1.3 0 .7.1.8.4.1-.2.1-.4.2-.5-.4.3-.8.6-1.1 1.1-.4.5.5 1 .8.5.2-.3.5-.5.7-.7.2-.1.3-.3.2-.5-.3-.9-1.2-1-1.9-1.1-.9-.1-1.9-.1-2.9-.1-.5-.1-.5.8.1.8"/><path class="st20" d="M66.7 130.3v.6l1.5-1.2h-.7v-.7l-1.5 1.2c-.2.2-.2.5 0 .7.2.2.5.2.7 0l1.5-1.2c.2-.2.1-.5 0-.7-.2-.2-.5-.1-.7 0l-1.5 1.2c-.2.2-.1.5 0 .7.2.2.5.2.7 0 .2-.1.2-.4 0-.6M66.7 131l1.5-1.2c.2-.2.2-.5 0-.7-.2-.2-.5-.2-.7 0l-1.5 1.2c-.2.2-.2.5 0 .7.2.2.5.2.7 0M65 130.9l-.5.4c.6 0 1.2 0 1.9-.1.6 0 .6-.9 0-1h-.2l.5.5-.5.5h.8l-.5-.5.5-.5c-.8 0-1.6.1-2.4.1-.6 0-.6 1 0 1 .8 0 1.6-.1 2.4-.1.3 0 .5-.2.5-.5s-.2-.5-.5-.5h-.8c-.3 0-.5.2-.5.5s.2.5.5.5h.2v-1c-.6 0-1.2 0-1.9.1-.3 0-.5.2-.5.5.1.7 1 .7 1 .1M64.5 131.3c.8 0 1.6-.1 2.4-.1.6 0 .6-.9 0-1h-.8c-.6 0-.6.9 0 1h.8v-1c-.8 0-1.6.1-2.4.1-.6.1-.6 1.1 0 1"/><path class="st21" d="M62.4 77c-.1.2-.2.3-.3.5 2.1-.6 4.2-.8 6.4-.6l-.5-.4.5-.5c-2.2-.1-4.5.1-6.6.7-.6.2-.3 1.1.3.9 2.1-.6 4.2-.8 6.4-.6.3 0 .5-.2.5-.5s-.2-.5-.5-.5c-2.2-.1-4.5.1-6.6.7-.2.1-.4.3-.3.6 0 .6.9.3.7-.3M62.1 77.6c2.1-.6 4.2-.8 6.4-.6.6 0 .6-.9 0-1-2.2-.1-4.5.1-6.6.7-.6.1-.4 1.1.2.9"/><path class="st22" d="M56.1 113.6c-.1.2-.2.3-.3.5.2-.1.5-.1.7-.2.2 0 .4-.1.5-.3.2-.3.2-.6.1-.8l-.3.6-.6-.3v.1l.1-.1s.1 0 0 0h-.2c-.2 0-.4.1-.5.1-.3.1-.4.3-.3.6.1.3.3.4.6.3.2-.1.5-.1.7-.2.2-.1.5-.2.6-.4.2-.3.1-.6.1-.9 0-.3-.4-.4-.6-.3-.3.1-.4.3-.3.6v.1l.1-.1c.1 0 .1-.1 0 0-.1 0-.2 0-.2.1-.2 0-.4.1-.5.1-.3.1-.4.3-.3.6.1.3.3.4.6.3-.1.1 0-.2 0-.4M55.8 114.2c.2 0 .4-.1.6-.1.2 0 .4-.1.5-.2.3-.3.3-.6.2-1 0-.3-.4-.4-.6-.3-.3.1-.4.3-.3.6v.1l.1-.1h-.1c-.2 0-.5.1-.7.1-.3.1-.4.3-.3.6 0 .2.3.3.6.3M54.4 114.8c-.1.2-.1.3-.1.5.4-.3 0-.9-.5-.8h-.1c.2.1.4.1.5.2 0 .2 0 .4-.1.6.4-.3.8-.5 1.2-.7-.2-.1-.4-.1-.7-.2 0-.2 0-.4.1-.6l-.1.1c-.5.4.1.9.6.7.2-.1.4-.2.5-.3H55v-.7l-.1.1c-.4.4.1 1 .6.7.2-.1.3-.2.4-.3h-.7v-.7c-.1.1-.2.1-.4.2s-.3.2-.4.4c-.3.2-.6.3-.9.5-.5.3 0 1.1.5.8.3-.2.7-.3 1.1-.6l.9-.6c.2-.2.2-.5 0-.7-.2-.2-.5-.2-.7 0-.1.1-.1.1-.2.1.2.2.4.5.6.7l.1-.1c.2-.2.2-.5 0-.7-.2-.2-.5-.2-.7 0-.2.2.1 0 0 .1-.1 0-.2.1-.3.1.2.2.4.5.6.7l.1-.1c.2-.1.2-.4.1-.6-.1-.2-.4-.3-.7-.2-.5.2-1 .5-1.4.9-.2.1-.2.4-.1.6.1.2.3.3.5.2h.1c-.2-.3-.3-.5-.5-.8-.1.1-.2.4-.1.6.6.9 1.4.4 1-.1M54.8 113.9c-.4.2-.8.5-1.2.7-.2.1-.2.4-.1.6.1.2.3.3.5.2.3-.1.4-.2.6-.4.2-.1.4-.3.6-.4.2-.2.2-.5 0-.7 0-.1-.3-.1-.4 0-.2.2-.4.2-.5.3-.2.1-.3.2-.5.4.1 0 .1-.1.2-.1h-.1c.2.3.3.5.5.8.3-.2.6-.4 1-.6.2-.1.3-.4.2-.7-.3-.2-.6-.2-.8-.1M54.4 114.2c-.1.1-.2.1-.3.2-.1.1-.2.2-.2.3v.4c.1.2.4.3.7.2.1-.1.2-.1.3-.2.1-.1.2-.2.2-.3v-.4c-.1-.1-.2-.2-.3-.2-.2-.1-.3-.1-.4 0-.1.1-.2.1-.3.2.2.3.3.5.5.8.1-.1.2-.1.3-.2.1-.1.2-.2.2-.3v-.4c-.2-.1-.5-.2-.7-.1M54.7 114c-.2.1-.4.3-.6.4-.2.1-.3.4-.2.7.1.2.4.3.7.2.4-.2.7-.4 1-.6.2-.2.2-.5 0-.6-.2-.2-.4-.2-.6-.1-.1-.1-.2 0-.3 0-.2.1-.3.4-.2.7.1.2.4.3.7.2.1-.1.2-.1.3-.2-.2-.2-.4-.5-.6-.7-.2.2-.5.4-.8.5.2.3.3.5.5.8.2-.1.4-.3.6-.4.2-.2.3-.4.2-.7-.2-.2-.5-.3-.7-.2M55.2 113.7c-.4.4-.9.7-1.5.8l.5.8c.4-.3.8-.5 1.2-.7-.2-.2-.4-.5-.6-.7-.4.3-.7.5-1.1.8.2.2.4.5.6.7.3-.2.6-.5 1-.6.3-.2.6-.3.9-.5.4-.4-.2-1.1-.7-.7-.2.2-.6.3-.9.5-.3.2-.6.4-.9.7-.4.4.1 1 .6.7.5-.3.9-.6 1.3-.9.5-.4-.1-.9-.6-.7-.5.2-1 .5-1.4.9-.4.3 0 .9.5.8.7-.2 1.4-.6 1.9-1.1.3-.6-.4-1.2-.8-.8"/><path class="st23" d="M50 115.7c-.1-.1-.2-.2-.4-.2-.1 0-.3 0-.4-.1-.2-.1-.3-.5-.3-.7l-.5.5-.5-.5c0 .4.2.8.5 1.2.1.2.3.3.5.4.1 0 .3 0 .4.1v-.7c-.2.2-.2.5 0 .7.2.2.5.2.7 0 .2-.2.2-.5 0-.7l-.3-.3c-.1 0-.3 0-.4-.1-.2-.1-.3-.4-.3-.6 0-.3-.2-.5-.5-.5s-.5.2-.5.5c0 .4.2.8.5 1.2.1.1.2.3.4.4.1.1.4.1.5.1.4.4 1-.2.6-.7M48 114.7c0 .4.2.8.5 1.2.1.2.3.3.5.4.1 0 .3 0 .4.1.4.4 1.1-.2.7-.7-.1-.1-.3-.2-.4-.3-.1 0-.2 0-.3-.1-.2-.1-.3-.5-.3-.6-.2-.6-1.1-.6-1.1 0"/><path class="st24" d="M53.3 109.2c.1 0 .1 0 .2.1-.1-.1-.1-.1-.2-.1 0-.1-.1-.2-.2-.3.1.2.1.4.2.7-.2.1-.4.1-.7.2l.1.1s-.1-.1 0 0l.1.1c.2.2.4.2.6.2l-.6-.3c.2-.3.3-.5.5-.7-.1 0 0 0 0 0-.2 0-.5.2-.5.5 0 .2.2.5.5.5h.2c.2-.1.4-.3.3-.6-.1-.3-.3-.5-.5-.4 0-.1.1 0 .2 0-.1 0-.1-.1-.2 0 0-.2-.1-.3-.2-.3-.2-.1-.5-.1-.7.2-.1.2-.1.5.2.7h.1s-.1-.1 0 0l.1.1c.1.2.3.2.5.2s.5-.2.5-.5c-.1-.2-.3-.4-.5-.4M52.6 109.7s.1.1 0 0c.1.1 0 0 0 0 .1.1.2.1.2.2.2.2.4.3.7.2.2-.1.4-.3.3-.6-.1-.3-.3-.4-.6-.3.1 0 .2 0 .3.1l-.1-.1c-.1-.1-.2-.2-.3-.2-.2-.1-.5-.1-.7.2-.1.1 0 .4.2.5M51.2 109.9l-.5.4c.6-.1 1.1-.2 1.7-.5l-.6-.3.3-.6c-.5.2-.9.4-1.4.4-.3 0-.5.2-.5.5 0 .2.2.5.5.5.6-.1 1.1-.2 1.7-.5.2-.1.4-.3.3-.6-.1-.2-.3-.4-.6-.3-.5.2-.9.4-1.4.4-.2 0-.5.2-.5.5.1.7 1.1.7 1 .1M52.2 109c-.5.2-.9.4-1.4.4-.3 0-.5.2-.5.5 0 .2.2.5.5.5.6-.1 1.1-.2 1.7-.5.2-.1.4-.3.3-.6-.1-.2-.4-.4-.6-.3M51.8 108.3l-1.5-.9c-.6-.4-1.3-.6-2-.8-.7-.2-1.4-.6-2.1-.7l.5.5-.5.5c.7.1 1.3.5 2 .7.7.2 1.2.4 1.8.7.4.3.9.6 1.3.8-.1-.2-.1-.4-.2-.7-.3.5.5 1 .8.5.3-.2.2-.5-.1-.6-.5-.3-1-.7-1.5-1-.6-.4-1.3-.6-2-.8-.7-.2-1.4-.6-2.1-.7-.3 0-.5.2-.5.5s.2.4.5.5c.7.1 1.3.5 2 .7.6.2 1.2.4 1.8.7.4.3.9.6 1.3.8.6.4 1.1-.4.5-.7M51.8 108.3c-.9-.5-1.7-1.2-2.7-1.5-.5-.1-1-.3-1.4-.4-.5-.2-.9-.4-1.4-.4-.6-.1-.6.9 0 1 .5.1.9.3 1.3.5s.9.3 1.3.4c.9.3 1.7.9 2.5 1.4.5.1 1-.7.4-1M47 106.3c-.3-.1-.6-.3-.9-.4-.7-.3-1.4-.4-2.1-.6l.3.6-.6.3c.7.2 1.3.3 2 .6.3.1.5.2.8.3-.1-.2-.1-.4-.2-.7-.2.6.6 1 .8.5.2-.2.2-.5-.1-.6-.3-.2-.6-.3-.9-.4-.7-.3-1.4-.4-2.1-.6-.3-.1-.5.1-.6.3-.1.2.1.5.3.6.7.2 1.3.3 2 .6.3.1.5.2.8.3.6.3 1.1-.5.5-.8M47 106.3c-.5-.2-.9-.4-1.4-.6-.5-.2-1.1-.3-1.6-.4-.6-.2-.8.7-.3.9.5.1 1 .2 1.5.4.4.1.9.4 1.3.5.6.3 1.1-.5.5-.8M49.2 110.8c0-.1 0-.1 0 0-.1.2-.2.3-.3.5.2-.1.5-.2.7-.3l.6-.3c.3-.4 0-.9-.5-.8-.5.1-1.1.3-1.6.6.2.1.4.1.7.2-.1.2-.1.4-.2.7.5-.2.9-.4 1.4-.5-.2-.2-.4-.3-.6-.5 0-.1.1-.1.1-.2-.2.2-.6.3-.8.4-.6.2-.3 1.1.3.9.5-.2 1.4-.4 1.4-1 0-.3-.3-.5-.6-.5-.6.1-1.1.3-1.6.6-.2.1-.3.4-.2.7.1.2.4.3.7.2.4-.2.9-.4 1.4-.5-.2-.3-.3-.5-.5-.8-.1.1-.3.1-.4.2-.2.1-.3.1-.5.2s-.4.3-.3.6c.1.4 1 .1.8-.4M48.9 111.3c.5-.2 1.2-.3 1.4-.9.1-.4-.2-.7-.6-.6-.6.1-1.1.3-1.6.6-.6.3-.1 1.1.5.8.4-.2.9-.4 1.4-.5l-.6-.6v.1c0-.1.1-.1.1-.2-.1.1-.3.1-.4.2-.2.1-.3.1-.5.2-.5.2-.3 1.1.3.9"/><path class="st25" d="M49.6 111.6c-.1.1-.2.3-.3.4.2 0 .3-.1.5-.2s.5-.1.7-.1c.5 0 1.1 0 1.6-.1l-.5-.5.5-.5c-.6 0-1.2.1-1.8.1-.2 0-.5 0-.7.1l-.6.3c-.6.1-.3 1 .3.9.2 0 .3-.2.5-.2.2-.1.5-.1.7-.1.5 0 1.1 0 1.6-.1.2 0 .5-.2.5-.5 0-.2-.2-.5-.5-.5-.6 0-1.2.1-1.8.1-.2 0-.5 0-.7.1l-.6.3c-.2 0-.3.3-.3.5-.1.6.9.6.9 0M52.1 110.7c-.6 0-1.2.1-1.8.1-.2 0-.5 0-.7.1l-.6.3c-.6.1-.3 1 .3.9.2 0 .3-.2.5-.2.2-.1.5-.1.7-.1.5 0 1.1 0 1.6-.1.6 0 .6-1 0-1"/><path class="st26" d="M49.2 110.7c-.1.2-.1.4-.2.6 0 0 .1 0 .1-.1H49c.1 0 .2-.1.3-.1l-.6-.3.3-.6c-.2 0-.3.1-.5.2s-.3.4-.2.7c.1.2.4.3.7.2 0 0 .1 0 .1-.1H49c.1 0 .2-.1.2-.1.1 0 .2-.1.3-.2.1-.1.1-.2 0-.4 0-.1-.1-.2-.2-.3-.1-.1-.2-.1-.4 0-.2 0-.3.1-.5.2s-.3.4-.2.7c.1.2.4.3.7.2.3-.1.4-.3.3-.6M49 111.4s.1 0 .1-.1l-.1.1c.1 0 .2-.1.3-.1.2 0 .4-.4.3-.6-.1-.3-.3-.4-.6-.3-.2 0-.3.1-.5.2s-.3.4-.2.7c.2.1.5.2.7.1M49.1 110.7c-.1.2-.1.4-.2.6.5-.3.9-.6 1.3-.9h-.7v-.7c-.4.3-.7.5-1.2.8-.5.3-.1 1.1.5.8.5-.3.9-.6 1.3-.9.2-.2.1-.5 0-.7-.2-.2-.5-.1-.7 0-.4.3-.7.5-1.1.7-.2.1-.3.4-.2.7.5.7 1.3.2 1-.4M48.9 111.4c.5-.3.9-.6 1.3-.9.2-.2.2-.5 0-.7-.2-.2-.5-.2-.7 0-.4.3-.7.5-1.2.8-.4.2.1 1.1.6.8"/><path class="st25" d="M49.2 111.9c.6 0 .6-1 0-1-.6.1-.6 1 0 1M49.2 111.9c.6 0 .6-1 0-1-.6.1-.6 1 0 1M48.9 111.9c.6 0 .6-1 0-1s-.6 1 0 1M48.9 111.9c.6 0 .6-1 0-1s-.6 1 0 1M48.6 112.2c.6 0 .6-1 0-1-.6.1-.6 1 0 1M48.6 112.2c.6 0 .6-1 0-1-.6.1-.6 1 0 1M48.7 112.1c.6 0 .6-1 0-1-.6.1-.7 1 0 1M48.7 112.1c.6 0 .6-1 0-1-.6.1-.7 1 0 1"/><path class="st26" d="M46.5 112.5v.6c.1-.1.2-.3.3-.4v-.1c0 .1 0 0 0 0 .1-.1.1-.1.2-.1-.2-.1-.4-.1-.7-.2.1-.2.1-.4.2-.7-.2.1-.4.3-.5.4l-.1.1-.1.1c0 .1 0 0-.1.1-.2.2-.2.5 0 .7.2.2.5.2.7 0 .1-.1.2-.3.3-.4v-.1c0 .1 0 0 0 0l.1-.1h.1c.2-.1.3-.4.2-.7-.1-.2-.4-.3-.7-.2-.2.1-.4.3-.5.5l-.1.1-.1.1v.1c-.1.2-.2.5 0 .7.2.2.5.2.7 0 .3 0 .3-.3.1-.5M46.5 113.2c.1-.1.2-.3.3-.4 0 0 0-.1 0 0l.1-.1c.2-.1.3-.4.2-.7-.1-.2-.4-.3-.7-.2-.2.1-.3.2-.5.4 0 .1-.1.1-.1.2 0 0 0 .1-.1.1v.1c-.2.2-.2.5 0 .7.3.1.6.1.8-.1M47 112.4c.6 0 .6-1 0-1-.6.1-.6 1 0 1M47 112.4c.6 0 .6-1 0-1-.6.1-.6 1 0 1"/><path class="st22" d="M53.4 115.8c.6 0 .6-1 0-1-.6.1-.6 1 0 1M53.4 115.8c.6 0 .6-1 0-1-.6.1-.6 1 0 1M53.3 116c.6 0 .6-1 0-1-.6.1-.6 1 0 1M53.3 116c.6 0 .6-1 0-1-.6.1-.6 1 0 1"/><path class="st27" d="M51.8 116.6c.6 0 .6-1 0-1-.6.1-.6 1 0 1M51.8 116.6c.6 0 .6-1 0-1-.6.1-.6 1 0 1M51.5 116c-.1.2-.1.4-.2.6-.2-.1-.4-.1-.7-.2.1-.2.1-.4.2-.7-.1 0-.1.1-.1.1s-.1.1-.1.2v.4c.1.1.2.2.3.2h.4c.1 0 .1-.1.1-.1s.1-.1.1-.2v-.1c.1 0 0-.1 0-.2s-.1-.1-.1-.2c0 0-.1-.1-.2-.1h-.1c-.1 0-.2 0-.2.1-.1 0-.1.1-.1.1s-.1.1-.1.2v.4c0 .1.1.1.1.1s.1.1.2.1h.4c.1-.1.2-.2.2-.3 0-.1 0-.3-.1-.4M50.8 115.8c-.1 0-.1.1-.1.1s-.1.1-.1.2v.4c.1.1.2.2.3.2h.4c.1 0 .1-.1.1-.1s.1-.1.1-.2v-.4c-.1-.1-.2-.2-.3-.2h-.4M51 116.8c.6 0 .6-1 0-1-.7 0-.7 1 0 1M51 116.8c.6 0 .6-1 0-1-.7 0-.7 1 0 1M51.9 115.8c-.1.2-.1.5-.1.7-.2-.1-.4-.1-.7-.2.1-.2.1-.4.2-.7-.1.1-.2.2-.2.3v.4c.1.1.2.2.3.2h.4c.1-.1.2-.2.2-.3 0 0 0-.2-.1-.4.1.1 0 .1 0 0l-.2-.2h-.4c-.1 0-.1.1-.2.2 0 .1-.1.1-.1.2v.2c0 .1.1.2.1.2s.1.1.2.1h.2c.1 0 .3-.1.3-.1.1-.1.1-.2.1-.3v-.1c.1 0 0-.1 0-.2M51.8 116.6c.1-.1.2-.2.2-.3v-.4c-.1-.1-.2-.2-.3-.2h-.4c-.1.1-.2.2-.2.3v.4c.1.1.2.2.3.2h.4M52.5 115.7c-.3.2-.5.3-.8.5 0 0 0-.1-.1-.1.4-.1.6-.3.9-.4l-.1-.1s-.1 0-.1-.1c-.1 0-.1-.1-.2-.1H52c-.1 0-.1 0-.2.1-.1 0-.1.1-.2.2 0 .1-.1.1-.1.2v.2c0 .1 0 .1.1.2 0 .1.1.1.1.1.1.1.3.1.4 0 .1 0 .2-.1.3-.2.1-.1.1-.2 0-.4.2 0 .2 0 .1-.1-.2.2-.5.4-.8.6 0 0 .1.1.2.1H52.2c.1 0 .1 0 .2-.1l.2-.2v-.1c0-.2 0-.2-.1-.3 0-.1-.1-.1-.1-.1s-.1-.1-.2-.1H51.9c-.1 0-.1 0-.2.1l-.2.2v.1c0 .1 0 .2.1.2 0 .1.1.1.1.1s.1.1.2.1h.4c.1-.1.2-.2.2-.3v-.1c.1-.1.1-.1 0-.2M52.4 116.3c.1-.1.2-.2.2-.3v-.4c-.1-.1-.2-.2-.3-.2h-.1c-.1 0-.2 0-.2.1-.1.1-.2.2-.2.3v.4c.1.1.2.2.3.2h.1s.1 0 .2-.1M52.3 116.3c.6 0 .6-1 0-1-.6.1-.6 1 0 1M52.3 116.3c.6 0 .6-1 0-1-.6.1-.6 1 0 1M52.4 116.3c.6 0 .6-1 0-1s-.6 1 0 1M52.4 116.3c.6 0 .6-1 0-1s-.6 1 0 1"/><path class="st28" d="M47 115.3c.6 0 .6-1 0-1-.6.1-.6 1 0 1M47 115.3c.6 0 .6-1 0-1-.6.1-.6 1 0 1M46.8 115.3c.6 0 .6-1 0-1-.6.1-.6 1 0 1M46.8 115.3c.6 0 .6-1 0-1-.6.1-.6 1 0 1M47.2 116.1c.6 0 .6-1 0-1s-.6 1 0 1M47.2 116.1c.6 0 .6-1 0-1s-.6 1 0 1M47.6 115.4v.7H47v-.7c-.1.1-.1.2-.1.3 0 .1.1.3.1.3.1.1.2.1.3.1.1 0 .2 0 .3-.1.2-.1.2-.4 0-.6.1 0 .1 0 0 0-.2-.2-.5-.2-.6 0-.2.2-.2.5 0 .7.1.1.2.1.3.1.1 0 .3-.1.3-.1.1-.1.1-.2.1-.3.1-.2 0-.3-.1-.4M47 116.1c.1.1.2.1.3.1.1 0 .3-.1.3-.1.1-.1.1-.2.1-.3 0-.1 0-.2-.1-.3-.1-.1-.2-.1-.3-.1-.1 0-.3.1-.3.1-.1.1-.1.2-.1.3-.1 0 0 .2.1.3M47.5 116.5c.6 0 .6-1 0-1s-.6 1 0 1M47.5 116.5c.6 0 .6-1 0-1s-.6 1 0 1M47.7 116.9c.6 0 .6-1 0-1-.6.1-.6 1 0 1M47.7 116.9c.6 0 .6-1 0-1-.6.1-.6 1 0 1M47 114.9c.6 0 .6-1 0-1-.7.1-.7 1 0 1M47 114.9c.6 0 .6-1 0-1-.7.1-.7 1 0 1M46.9 114.8c.6 0 .6-1 0-1-.6.1-.6 1 0 1M46.9 114.8c.6 0 .6-1 0-1-.6.1-.6 1 0 1M47 114.6c.6 0 .6-1 0-1-.6.1-.6 1 0 1M47 114.6c.6 0 .6-1 0-1-.6.1-.6 1 0 1M46.9 114.7c.6 0 .6-1 0-1-.7 0-.7 1 0 1M46.9 114.7c.6 0 .6-1 0-1-.7 0-.7 1 0 1"/><path class="st26" d="M45.9 113.3c.6 0 .6-1 0-1-.6.1-.6 1 0 1M45.9 113.3c.6 0 .6-1 0-1-.6.1-.6 1 0 1M45.8 113.3c.6 0 .6-1 0-1-.6.1-.6 1 0 1M45.8 113.3c.6 0 .6-1 0-1-.6.1-.6 1 0 1M45.7 113.4c.6 0 .6-1 0-1-.6.1-.6 1 0 1M45.7 113.4c.6 0 .6-1 0-1-.6.1-.6 1 0 1"/><path class="st29" d="M104.5 108.1c.9.1 1.5 4.4 1.8 12.9.2 6.3.2 12.7.2 12.8l-21.7 9.5 19.7-35.2zM104.6 108.1L85 143.3l21.6-9.5s.1-25.6-2-25.7zM79.7 116.3c4.2 0 7.6-3.1 7.6-3.1l17.3-5.1-19.7 35.3-5.2-27.1zM79.7 116.3l5.2 27 19.6-35.2-17.2 5.1s-3.3 3.1-7.6 3.1z"/><path class="st30" d="M59.1 109.3h4.7l7.4 3.7-2.4 9.9zM59.2 109.3l9.6 13.5 2.4-9.8-7.4-3.7z"/><path class="st31" d="M74.5 136.3l-2.5-9.4h.1L85 143.3l-2.7 3.1zM72 126.9l2.5 9.4 7.8 10.1 2.7-3.1z"/><path class="st32" d="M65.9 134.3l2.9-5.6v-5.9l3.3 4.1 2.4 9.4zM65.9 134.2l2.9-5.5v-5.9l3.2 4.1 2.5 9.4z"/><path class="st33" d="M95.8 91.7l9 16.4-17.5 5.2zM95.8 91.7l-8.5 21.5 17.5-5.2z"/><path class="st34" d="M95.7 91.7l.8-12.6 4.6 6.1 3.7 23zM96.5 79.1l-.7 12.6 9 16.5-3.7-23z"/><path class="st9" d="M73 76.9c.1 0 4.2-1.3 10.6-1.7h.9c6.1 0 12 4 12 4l-.8 12.6-5.6 14.2L73 76.9zM73 76.9L90.1 106l5.7-14.2.8-12.6s-6.4-4.4-12.9-4c-6.6.4-10.7 1.7-10.7 1.7"/><path class="st13" d="M77.6 100l-4.7-23h.1l17.2 29zM77.6 100l12.6 5.9L72.9 77z"/><path class="st35" d="M88.6 110c-.2-.1-1.1-1-2.7-2.7-2.1-2.4-4.8-5.5-4.9-5.6l9.1 4.3-1.5 4zM88.6 110c-.2-.1-1.3-1.3-2.6-2.7-2.2-2.4-4.9-5.6-4.9-5.6l9.1 4.3-1.6 4z"/><path class="st36" d="M75.9 104.4l1.7-4.4 3.5 1.7 4.9 5.6zM75.9 104.4l10.1 2.8-4.9-5.5-3.5-1.7z"/><path class="st37" d="M68.8 104.2l8.8-4.2-1.7 4.4zM68.8 104.2l8.8-4.2-1.7 4.4z"/><path class="st38" d="M68.8 104.2l7.1.2-8 2.2zM68 106.6l.8-2.4 7.1.2z"/><path class="st39" d="M59.7 77.7c3.5-1 6.5-1.4 9-1.4 3 0 4.2.7 4.2.7l4.6 23.1-8.8 4.2-9-26.6zM59.8 77.7l9 26.5 8.8-4.2-4.7-23s-3.2-2-13.1.7"/><path class="st40" d="M43.3 93.6c.1-.6 2.9-14.2 5.5-15.1l11-.8-.6 31.7-15.9-15.8zM48.8 78.5l10.9-.8-.6 31.6-15.7-15.7s2.8-14.1 5.4-15.1"/><path class="st41" d="M59.1 109.3l.6-31.6h.1l9 26.5-.8 2.4-4.2 2.7zM68 106.6l-4.2 2.7h-4.6l.6-31.6 9 26.5z"/><path class="st24" d="M53.6 110c-.4-.7-2.4-1.7-5.9-2.9-2.6-.9-5.2-1.7-5.2-1.7l1-11.8 15.9 15.7-3 1.9-2.8-1.2zM43.4 93.6l-1 11.8s10.2 2.9 11.2 4.6l2.6 1.2 3-1.9-15.8-15.7z"/><path class="st19" d="M62.7 130.2c-1.1 0-3.8-.5-4.9-.9-.4-.1-.6-.3-.6-.4 0-.4 1.5-.8 2.7-1 .4-.1.8-.1 1.2-.1 1.5 0 2.7.5 2.9.8.2.3-.9 1.6-.9 1.6h-.4zM63.2 130.1c.1-.1 1.1-1.2.9-1.6-.2-.3-2-1.1-4.1-.7s-3.6.9-2.2 1.4c1.4.6 5.1 1.3 5.4.9"/><path class="st42" d="M64.6 130.9c-.5 0-1-.1-1.6-.2l.1-.6s1-.9.9-1.5c-.1-.4-1.4-.8-2.9-.8-.5 0-.9 0-1.1.1 0 0-2.4.4-2.7.9v.2l-1.3.8.5-1.7 10.3-8 1.9 2.7v5.8c.1.1-1.2 2.3-4.1 2.3"/><path class="st42" d="M68.8 128.7s-1.8 3.1-5.7 2l.1-.6s1-1 .9-1.6c-.1-.6-2.9-1.1-4.1-.7 0 0-3 .5-2.7 1.1l-1.2.7.5-1.6 10.3-8 1.9 2.7v6z"/><path class="st20" d="M63 130.7c.1 0 .7.2 1.6.2 1.2 0 2.9-.4 4.1-2.2l-2.9 5.6-2.8-3.6zM65.9 134.2l-2.9-3.5s3.7 1.2 5.7-2l-2.8 5.5z"/><path class="st43" d="M79.9 150c-.1-.1-4.3-3.7-6.5-5.6l-.6-2.8 1.7-5.4 4 5.2 1.4 8.6zM79.9 149.9c0-.1-6.5-5.6-6.5-5.6l-.6-2.8 1.7-5.3 4 5.2 1.4 8.5z"/><path class="st44" d="M68.2 141.7l-2.3-7.5 8.6 2-1.7 5.4.2.8zM65.9 134.2l2.3 7.5 4.8.6-.2-.7 1.7-5.3z"/><path class="st18" d="M58.6 140l4.5-9.3 2.9 3.5 2.2 7.5zM63.1 130.7l-4.5 9.3 9.6 1.7-2.3-7.5z"/><path class="st45" d="M56 129.7l1.2-.8c.2.3 2 .7 2 .7 2 .4 3 .5 3.4.5h.4v.1l-.1.6-2.4 5-4.5-6.1zM56.1 129.7l4.6 5.9 2.4-5 .1-.6s-.3.3-3.9-.4c0 0-1.8-.4-2-.7l-1.2.8z"/><path class="st46" d="M53.1 130.5l3-.8 4.6 5.9-2.1 4.3h-.1c-.5 0-2.9 0-5.7.7l.3-10.1zM58.6 140s-2.7-.1-5.8.7l.3-10.2 3-.8 4.6 5.9-2.1 4.4z"/><path class="st47" d="M47.5 139.5l5.6-9.1-.3 10.3-1.6 1.8zM51.2 142.5l1.6-1.8.3-10.2-5.6 9z"/><path class="st48" d="M47.2 151.1c-.3-.4-1.9-7.7-2-8l2.3-3.6 3.7 3 1.6.4-5.6 8.2zM52.8 142.9l-1.6-.4-3.7-3-2.3 3.6s1.7 7.6 2 8l5.6-8.2z"/><path class="st49" d="M106.6 133.8l-.1-10c-.3-12.8-1.3-15.1-1.6-15.5l-.1-.1.1.1 7.2 7-5.5 18.5zM112.1 115.3l-7.3-7.1s1.3.6 1.7 15.5l.1 10 5.5-18.4z"/><path class="st50" d="M106.5 133.8l5.6-18.5 3.6 25.5zM115.7 140.8l-3.6-25.5-5.5 18.5z"/><path class="st51" d="M100.2 164.9l6.4-31.2 9.1 7.1-15.5 24.1zM106.8 134l-.2-.2-6.4 31.1 15.5-24.1z"/><path class="st52" d="M84.9 143.3l21.7-9.6-6.4 31.2zM85 143.3l15.2 21.6 6.4-31.1z"/><path class="st53" d="M78.5 141.4l3.9 5-2.5 3.6zM79.9 149.9l2.4-3.5-3.8-5z"/><path class="st54" d="M79.9 149.9l2.4-3.5 2.7-3.2 15.2 21.7-12.6 8.2zM85 143.3l-2.7 3.1-2.4 3.5 7.7 23.1 12.6-8.1z"/><path class="st55" d="M61.4 166.8l18.5-16.9 7.7 23.2zM61.4 166.7l18.5-16.8 7.7 23.1z"/><path class="st14" d="M61.4 166.7l12-22.4 6.5 5.6-18.4 16.9zM73.4 144.4l-12 22.3 18.5-16.8z"/><path class="st56" d="M53.4 165.8c-3.9-4.1-6.2-14.6-6.2-14.7l3.8-5.4 10.6 21.1-8.2-1zM47.2 151.1s2.3 10.5 6.2 14.7l8 1-10.5-21.1-3.7 5.4z"/><path class="st57" d="M53.9 151.8h15.6l-8.1 15zM69.5 151.8H54l7.4 14.9z"/><path class="st58" d="M69.5 175.8c-.2 0-2.2-1.5-4.6-3.2-2.6-1.9-5.6-4-6.1-4.2-.9-.4-5.4-2.7-5.4-2.7l8 1 12 2.9 9.6 8.2-13.5-2zM69.5 175.8c-.4-.1-9.7-7-10.6-7.4-.9-.4-5.4-2.7-5.4-2.7l8 1 12 2.9 9.6 8.1-13.6-1.9zM83 177.8l-9.6-8.2h.1l14.1 3.4 5.4 6.3zM93 179.3l-10-1.5-9.5-8.2 14.1 3.4z"/><path class="st59" d="M87.5 173l12.7-8.1 5.5 4.5-12.7 9.9zM105.6 169.4L93 179.3l-5.4-6.3 12.6-8.1z"/><path class="st60" d="M100.2 164.9l15.5-24.2v.1l-10 28.6zM115.7 140.8l-10.1 28.6-5.4-4.5z"/><path class="st8" d="M112.1 115.3s.2 0 .5-.1c1.2-.1 4.3-.5 4.7-1.5l-2.3 22.5-2.9-20.9zM117.3 113.7l-2.3 22.5-3-21c.3 0 4.8-.2 5.3-1.5"/><path class="st3" d="M117.1 136.8c-.7 0-1.4-.2-2.1-.5l1-9.5 12.7.3c0 .1-1.9 3.2-4.6 5.9-2.6 2.5-4.9 3.8-7 3.8"/><path class="st3" d="M128.6 127.1c0 .1-7.4 12.2-13.6 9.2l1-9.5 12.6.3z"/><path class="st6" d="M116 126.8c0-.1 2.1-4.4 2.1-4.8 0-.4-.1-3.7-.1-3.7l1.3-.7s2.3 2.4 2.9 2.4h.1c.5-.2.8-2 .8-2s.9.7 1.8 1.5c1.1 1.1 1.4 2.1 1 2.8 0 0-.5 2.6-4 2.6h-.7l-2.9 2.1-2.3-.2zM121.2 124.8l-2.9 2.1-2.3-.1s2.1-4.4 2.1-4.8c0-.4-.1-3.7-.1-3.7l1.3-.7s2.5 2.6 3 2.4c.5-.2.8-2.1.8-2.1s3.7 2.6 2.7 4.3c.1 0-.5 2.9-4.6 2.6"/><path class="st5" d="M122.2 120.1c-.6 0-2.8-2.3-2.9-2.4-.9-2.4.3-3.9.3-3.9 2.3 1.3 3.5 4.2 3.5 4.2 0 .1-.5 1.7-.8 2.1h-.1zM119.6 113.7s-1.2 1.5-.3 3.9c0 0 2.7 2.8 3 2.4.3-.4.8-2.1.8-2.1s-1.2-2.9-3.5-4.2"/><path class="st4" d="M128.2 124.1s0-.1.1-.6c.3-1.6 1.3-6.6-.6-9.8 0 0-1.9-3.4-2.9-3.4-.6.1-1 .9-1.4 1.6-.3.5-.5 1-.7 1-.2 0-.5.1-1 .1-.6 0-1.9-.1-2.1-.9 0-.1.1-2.4 1.5-4.3 1-1.4 2.5-2.1 4.2-2.1.4 0 .8 0 1.2.1 1.1.2 2.1.8 2.7 1.8 2.5 3.8.5 12.3.4 12.4 0 .2-1 3.7-1.4 4.1.1 0 .1 0 0 0zM119.6 112.2c-.1-.2.6-7.3 6.9-6.2 6.3 1 3.1 14.1 3.1 14.1s-1.1 3.7-1.4 4c-.3.4 1.9-6.3-.5-10.3 0 0-1.9-3.5-3-3.4-1.1.1-1.5 2.5-2.1 2.6-.5.1-2.6.2-3-.8"/><path class="st61" d="M116 126.8l1.3-13.1 3.7-9.9 3.3 2.1h-.1c-2.1.3-3.2 1.9-3.8 3.3-.6 1.5-.8 2.9-.8 2.9l-.1 1.5c-.6.8-.7 1.8-.6 2.5.1.8.3 1.3.3 1.4l-1.3.7c0 .2 0 3.1.1 3.7.1.7-1.9 4.7-2 4.9zM121 103.9l-3.7 9.8-1.3 13.1s2.1-4.2 2.1-4.8c0-.6-.1-3.7-.1-3.7l1.3-.7s-1-2.3.3-3.9l.1-1.5s.6-5.7 4.6-6.2l-3.3-2.1z"/><path class="st7" d="M128.3 124.1c2.2-4 2.2-10.8 2.2-10.8.1-2.8-.5-4.9-1.7-6.1-1-1.1-2.4-1.3-3.3-1.3-.7 0-1.2.1-1.3.1l-3.2-2.1c1.4-.6 2.7-.9 3.9-.9 3.1 0 5.1 2.1 6.2 3.9 1.2 1.9 1.7 3.9 1.7 3.9-.1 9-4.1 16.3-4.2 16.4v.1l-.3-3.2zM132.8 110.7s-2.5-10.9-11.7-6.8l3.2 2s6.5-1.8 6.2 7.3c0 0 0 6.8-2.2 10.9l.3 3s4.1-7.3 4.2-16.4"/><path class="st62" d="M118.3 126.9l3-2.1h.7c.8 0 2.3-.1 3.2-1.1.6-.6.9-1.5.9-2.6-.1-.1-1.1-1.9-2.9-3 0 0-1.7-3.3-3.5-4.2l.1-1.5s.4.9 2 .9c.3 0 .7 0 1.1-.1 0 0 .2 0 .9-1.4.4-.8.8-1.2 1.3-1.2s1.1.5 1.6 1.4c.2.2.3.5.5.7 1 1.5 1.9 2.8 1.9 6.5 0 2.2-.2 3.4-.3 4.2-.1.7-.3 1-.3 1l.3 3-10.5-.5zM118.3 126.9l2.9-2.1s4.9.7 4.8-3.8c0 0-1-1.8-2.9-3.1 0 0-1.6-3.3-3.5-4.2l.1-1.5s.5 1.3 3.1.8c0 0 .2.1.9-1.4s1.7-1.7 2.9.2 2.4 3 2.4 7.2-.6 5.2-.6 5.2l.3 3-10.4-.3z"/><path class="st63" d="M53.9 151.8l4.7-6.9 10.9 6.9zM58.6 144.9l-4.6 6.9h15.5z"/><path class="st64" d="M58.6 144.9l14.5-2 .4 1.5-4 7.4zM73.1 142.9l-14.5 2 10.9 6.9 3.9-7.4z"/><path class="st65" d="M50.9 145.7l1.9-2.8 5.9 2-4.7 6.9zM52.8 142.9l5.8 2-4.6 6.9-3.1-6.1z"/><path class="st66" d="M58.6 145c-.6 0-5.6-1.9-5.8-2l15.8.6-10 1.4zM68.6 143.5l-15.8-.6s5.4 2.1 5.8 2c.5 0 10-1.4 10-1.4"/><path class="st67" d="M104.8 108.2l-3.7-23 9.1-10.1 14.1-2.6-12.2 42.8zM110.2 75.2l-9.1 10 3.7 23 7.3 7.1 12.1-42.8z"/><path class="st68" d="M124.2 72.5c.8 2 7.8 19.8 7.8 20L121 104l3.2-31.5zM132 92.5c0-.1-7.7-20-7.7-20l-3.2 31.4L132 92.5z"/><path class="st69" d="M112.1 115.3l12.2-42.8-3.2 31.4-3.7 9.8c-.4 1.1-3.2 1.4-4.5 1.5-.5.1-.8.1-.8.1zM124.2 72.5L112 115.3c.1-.1 4.7-.2 5.2-1.6l3.7-9.8 3.3-31.4z"/><path class="st70" d="M132.4 109.7c-1.1-3.1-3.4-6.7-7.6-6.7-2.1 0-3.8.9-3.8.9l11-11.5s.5 3.7.5 5.2c0 .9-.3 1.6-.6 2.4-.2.5-.4 1.1-.6 1.7-.3 1.5 1.2 7.9 1.1 8zM132.5 109.7s-1.5-6.5-1.2-8c.3-1.5 1.2-2.5 1.2-4s-.5-5.1-.5-5.1l-11 11.3s7.7-4.4 11.5 5.8"/><path class="st71" d="M103.9 56.9c5.1 1.5 10.3 5.7 13.8 8.9 3.8 3.5 6.5 6.7 6.5 6.7l-14.1 2.6-13.8 4 7.6-22.2zM104 56.9l-7.5 22.2 13.7-4 14-2.6S113.7 59.9 104 56.9"/><path class="st72" d="M96.4 79.1l13.9-4-9.2 10.1zM101.1 85.2l-4.6-6.1 13.7-3.9z"/><path class="st73" d="M96.5 79.1s-1.1-1-3.3-1.9c-2-.9-5.3-1.9-9.7-1.9-3.3 0-6.8.6-10.5 1.7 0 0 0-.1 15.5-10.1C96.2 62 104 57 104 56.9h.1l-7.6 22.2zM72.9 77c-.7.2 31-20.1 31-20.1l-7.5 22.2c.1 0-8-7-23.5-2.1"/><path class="st74" d="M63.9 59.5c6.2-2.9 13.9-4.4 22.9-4.4 9.6 0 17.4 1.7 17.5 1.7h.1L72.9 77l-9-17.5zM64 59.5l9 17.4 31.4-20.1c0 .1-23.6-5.2-40.4 2.7"/><path class="st21" d="M64 59.5L73 77h-.1s-1.3-.7-4.4-.7c-2.5 0-5.5.5-8.8 1.4l-11 .8 15.3-19zM48.8 78.5l15.1-19 9 17.4s-3.7-2-13.2.7l-10.9.9z"/><path class="st75" d="M46.2 82.8c-.1 0-.2-.2-.4-.5-.4-.8-.7-2.6-.3-4.7.4-2.6 1.8-5.1 3.8-7.4 7-7.2 14.4-10.5 14.7-10.7l-15.1 19s-.4.3-.9 1c-.5.6-1.1 1.7-1.6 3.1-.1.2-.1.2-.2.2M46.3 82.7c-.3 1-3.1-5.8 3.1-12.4 6.2-6.6 12.9-10 14.6-10.8l-15.1 19c-.1 0-1.6 1.3-2.6 4.2"/><path class="st74" d="M121.8 134.9c2.9-2.2 5.1-4.8 6.8-7.8 2.8-5.1 3.7-10.4 3.9-12.4v-.1l2.2 18.7-12.9 18v-16.4zM121.8 134.9v16.2l12.9-17.9-2.2-18.7c0-.1-.5 6.3-3.9 12.5-1.5 2.9-3.8 5.6-6.8 7.9"/><path class="st76" d="M128.2 165.4c-.2-.5-6.4-14.1-6.4-14.3l12.9-17.9-6.5 32.2zM128.3 165.4c-.2-.6-6.4-14.3-6.4-14.3l12.9-17.9-6.5 32.2z"/><path class="st77" d="M128.2 165.4l6.5-32.2 10.2 37.3zM144.9 170.5l-16.6-5.1 6.4-32.2z"/><path class="st78" d="M115.7 140.8l-.6-4.5c.7.3 1.5.4 2.2.4 2.7 0 4.5-1.8 4.5-1.8v16.4l-6.1-10.5zM115.7 140.8l6.2 10.4V135s-2.9 2.9-6.8 1.4l.6 4.4z"/><path class="st79" d="M128.2 165.4c-.5-.3-18.2-7.9-18.4-8l5.9-16.7 6.2 10.4 6.3 14.3zM128.3 165.4c-.5-.3-18.4-8-18.4-8l5.8-16.6 6.2 10.4 6.4 14.2z"/><path class="st17" d="M51.2 142.5l1.6-1.8c3.1-.7 5.3-.7 5.8-.7h.1l9.6 1.7 4.8.6-2.2.4h-.4c-1.2 0-3.7-.4-5.2-.6-.5-.1-.8-.1-1-.1-.7-.1-1.4-.1-2.1-.1h-.8c-.3 0-1.1.1-2 .1-.5 0-1.4 0-1.7-.1-.1-.1-.5-.1-1.1-.1-.8 0-1.7.1-2.1.1-.7.1-1.5.9-1.6 1l-1.7-.4zM52.8 142.9c.1-.2 1-1 1.6-1 .7-.1 2.8-.2 3.2 0 .4.2 3.1.1 3.6 0 .6-.1 1.8 0 2.9.1 1.1.1 5.5.9 6.6.7l2.2-.4-4.8-.6-9.6-1.7s-2.4 0-5.8.7l-1.6 1.8 1.7.4z"/><path class="st16" d="M68.3 143.5s-4-.9-4.6-.9c-.1 0-.3 0-.5-.1-.7-.1-1.9-.2-2.5-.2h-.3c-.4.1-1.4.2-2.1.2h-.2c-.6 0-2.3-.7-2.4-.7h.6c.4 0 .9 0 1.1.1.2 0 .9.2 2.2.2.8 0 1.6 0 2.5-.1 0 0 3.1.1 5.3.6.8.2 1.7.3 2.5.3 1 0 2-.1 3-.4l.1.6-4.7.4zM73.1 142.9l-4.8.6s-4-.9-4.6-.9c-.6-.1-2.8-.4-3.2-.3-.4.1-1.7.2-2.3.2-.6 0-2.4-.7-2.4-.7h1.7c.3.1 1.9.3 4.7 0 0 0 3.1.1 5.2.6 2.2.5 3.9.3 5.5-.2l.2.7z"/><path class="st15" d="M52.8 142.9l.1-.1c.2-.3.9-1 2.6-1h.4s1.8.7 2.3.7c.3 0 1-.1 1.6-.1.5 0 1-.1 1.2-.1.2 0 5.4.6 7.3 1.2l-15.5-.6zM52.8 142.9c.1 0 .6-1.3 3.2-1.1 0 0 1.7.7 2.3.7.5 0 2.6-.2 2.8-.2.2 0 5.4.6 7.3 1.2l-15.6-.6z"/><path class="st80" d="M45.2 143.1c-.4-1.1-.8-4-.5-12.3.2-5 .5-9.5.5-9.6l5.1 2.1-2.7 16.3-2.4 3.5zM45.2 121.2s-1.3 18.2 0 21.9l2.3-3.6 2.7-16.2-5-2.1z"/><path class="st81" d="M47.5 139.5l2.6-15.2c0-.3.1-.7.2-1l-.2 1c-.2 1.5-.1 3.5 1.3 5 .8.9 1.7 1.2 1.7 1.2l-5.6 9zM53.1 130.5s-4.1-1.2-2.9-7.2l-2.7 16.2 5.6-9z"/><path class="st28" d="M45.2 121.2l.8-5.2.3-1.8.9 1.1c.3.7.9 1.1 1.9 1.1 1.4 0 3.3-.7 4.6-1.4 1.4-.7 2.5-1.3 2.6-1.4l-6.1 9.5-5-1.9zM46 116.1l-.8 5.1 5.1 2.1 6.1-9.4s-7.8 4.8-9.1 1.6l-.8-1.1-.5 1.7z"/><path class="st82" d="M41.4 108.4c0-.7 1-2.9 1-3l2.6.8 1.8 2.9-5.4-.7zM42.4 105.4s-1 2.3-1 3l5.3.7-1.8-2.9-2.5-.8zM46.7 109l-1.8-2.9h.1c.3.1 7.4 2.5 7.9 3.1l-6.2-.2zM52.8 109.3l-6.1-.3-1.8-2.9c.1 0 7.5 2.5 7.9 3.2"/><path class="st26" d="M45.8 113.5s-.8 0-1.7-.7c-.8-.6-2-1.8-2.7-4.5l5.3.7 6.1.3s-6 1.9-7 4.2zM45.8 113.4s-3-.1-4.4-5.1l5.3.7 6.1.3s-6 1.8-7 4.1"/><path class="st25" d="M56.8 112.6c-.2 0-1.9-.5-3.3-.9-.8-.2-1.5-.4-1.6-.4h-.4c-1 0-3.4.1-3.4.1l2.2-1.1c.4-.2 3.1-.2 3.3-.2l2.6 1.2c0-.1.8.2.6 1.3M56.8 112.5c0 .1-4.6-1.3-4.9-1.3-.3 0-3.8.1-3.8.1l2.2-1.1c.4-.2 3.3-.2 3.3-.2l2.6 1.2s.8.3.6 1.3"/><path class="st83" d="M50.3 110.2l2.5-1 .8.8-3.3.2zM52.8 109.3l-2.5.9 3.3-.2z"/><path class="st84" d="M45.8 113.4s1-1.5 2.4-2.2l3.8-.1.6.2.3.1s-2.8.3-3.4.5c-.6.1-1.1.3-1.5.4h-.1c-.3.1-.7.3-.9.6-.3.4-1.2.6-1.2.5zM52.8 111.4s-2.8.3-3.4.5c-.6.1-1.2.3-1.5.4-.3.1-.8.3-1 .6-.2.3-1.1.5-1.1.5s.9-1.4 2.4-2.2l3.8-.1.6.2.2.1z"/><path class="st85" d="M48.1 116.4c-.3-.1-.8-.7-.9-.9-.1-.3-.8-1.1-.8-1.1s0-.7.4-1.2 1.2-.8 1.2-.8c-1.4.7.1 3.9.1 4zM48.1 116.4s-1.6-3.3-.2-4c0 0-.8.3-1.2.8-.4.5-.4 1.2-.4 1.2s.7.8.8 1.1c.2.2.7.8 1 .9"/><path class="st86" d="M63.7 109.3l8-1.1-.5 4.8zM71.2 113l.4-4.8-7.8 1.1z"/><path class="st87" d="M63.8 109.3l4.1-2.8 8.1-2.1-2.1 3.7-2.5.2-7.6 1zM75.9 104.4l-2 3.7-2.5.2-7.6 1 4.2-2.7z"/><path class="st88" d="M75.9 104.4l10.1 2.8 2.6 2.8-.9 2.3zM87.7 112.3l-11.8-7.9 10.1 2.8 2.6 2.8z"/><path class="st11" d="M84 112.2c-.1 0-5.4-2.1-6.2-2.2h-.4c-.8 0-1.8.1-1.8.1-.5.2-.9.3-1.2.4-.5.1-.9.2-1.2.2-.4 0-.5-.1-.5-.1l2.9-1.3c.2-.1.4-.1.7-.1 1.8 0 5.1 1.2 7.5 2.1.1 0 .1.1.2.1.8.3 2 1.2 2 1.2l-.9.2-1.1-.6zM75.6 109.3l-2.9 1.3s.3.3 1.6-.1c.3-.1.8-.2 1.3-.4 0 0 1.4-.2 2.2-.1.8.1 6.2 2.2 6.2 2.2l1.1.7.9-.2s-1.2-.9-2-1.2c-.9-.4-6.5-2.8-8.4-2.2"/><path class="st89" d="M71.1 113l.1-1 1.4-1.4c.1.1.3.1.5.1.5 0 1.1-.2 1.1-.2l-1.6 1.4 1.3 1h-2.8zM72.7 112l1.6-1.5s-1.2.4-1.6.1l-1.4 1.4-.1 1H74l-1.3-1z"/><path class="st90" d="M71.6 108.2l2.2-.1c.1 0 1.6.9 1.7 1.2l-2.9 1.3-1.4 1.4.4-3.8zM75.6 109.3c-.1-.3-1.7-1.2-1.7-1.2l-2.2.1-.4 3.7 1.4-1.4 2.9-1.2z"/><path class="st12" d="M85.9 112.7c-.1 0-.1-.1-.2-.1-.4-.3-1-.8-4.7-2.2-2.5-.9-4-1.1-4.8-1.1-.5 0-.7.1-.7.1-.1-.3-1.7-1.2-1.7-1.2l4.6.1 5.3 1.4 4 2.7-.3.7-1.5-.4zM83.7 109.7l-5.2-1.4-4.6-.1s1.6.8 1.7 1.2c0 0 1.3-.5 5.5 1.1 4.2 1.5 4.4 2 4.9 2.3l1.5.3.3-.7-4.1-2.7z"/><path class="st91" d="M134.7 133.2l7 11.1 1.2 18.8h-.1zM134.7 133.2l7 11.2.4 7.3.7 11.4z"/><path class="st92" d="M142.8 163.1l-.7-12 6.8 17h-.1zM148.8 168.1l-6.7-17 .7 12z"/><path class="st93" d="M104.5 108.1c.1 0 .1 0 0 0 .1 0 .2 0 .3.1.8.8 1.3 5.3 1.6 13.5.2 6.1.2 12 .2 12.1l-21.7 9.5 19.6-35.2zM104.6 108.1L85 143.3l21.6-9.5s.1-25.9-2-25.7"/><path class="st94" d="M76.9 114.4s-1.8-.2-2.9-1.4l-1.3-1 1.7-1.5 1.3-.4c-.1.1-1 3.3 1.2 4.3zM75.6 110.1s-.9 3.2 1.3 4.3c0 0-1.8-.2-2.9-1.4l-1.3-1 1.6-1.5 1.3-.4z"/><path class="st10" d="M78.2 114.6c-.5 0-1-.1-1.3-.2 0 0-2.2-.8-1.3-4.3 0 0 1.4-.1 2-.1h.2c.3.1 3.2 1 3.3 1.1 0 0 .3 2.4-.9 3.2 0 0-.9.3-2 .3M75.6 110.1s1.9-.2 2.2-.1l3.3 1.1s.3 2.4-.9 3.2c0 0-1.9.5-3.3.1 0 0-2.2-.8-1.3-4.3"/><path class="st95" d="M76.1 111.7h1l.5 1.5zM77.6 113.2l-.5-1.5h-.9z"/><path class="st96" d="M76.2 111.8l-.3-.8 1.5-.7-.3 1.5zM77.3 110.3l-1.4.7.3.7h.9z"/><path class="st22" d="M52.8 115.6c.5-.8.7-1.6.5-2.4-.3-1.1-1.2-1.7-1.2-1.7l.5-.2 4.4 1.2-.5 1.3-3.7 1.8zM52 111.5s2.4 1.4.8 4.1l3.5-1.8.5-1.3-4.3-1.2-.5.2z"/><path class="st27" d="M50.5 116.4s-2.2-.5-2.4-2.7c0-.1.1-1.3.2-1.5.1-.2 3.3-.6 3.7-.6 0 0 1.1.7 1.4 1.9.1.7-.1 1.5-.6 2.2l-2.3.7zM50.5 116.4s-2.2-.5-2.4-2.7c0 0 .1-1.3.2-1.5.1-.2 3.7-.6 3.7-.6s2.5 1.6.8 4.1l-2.3.7z"/><path class="st97" d="M49.1 116.6c-.4 0-.7-.1-1-.2 0 0-.4-.8-.6-1.6-.3-1.2-.2-1.9.2-2.3l.7-.3s-.3 1.5-.2 1.8v.1c.2.5.6 1.8 2.3 2.3 0 0-.7.2-1.4.2M48.1 116.4s-1.4-3-.4-3.9l.6-.3s-.3 1.5-.2 1.8c.1.3.5 1.9 2.4 2.4 0 0-1.6.3-2.4 0"/><path class="st98" d="M51.1 114.3c-.2 0-1.1 0-1.1-.9 0-.4.1-.7.3-.9.1-.1.3-.2.5-.2.1 0 .2 0 .3.1.4.1.6.9.5 1.5 0 .2-.2.4-.5.4.1 0 0 0 0 0M51.2 114.3s-1.1.1-1.1-.9.6-1.3 1.1-1.1.7 2 0 2"/><path class="st23" d="M50.3 116.3c-1.9-.6-2.2-2.4-2.2-2.4l1.9-.5.5.7c0 .1.1 2-.2 2.2.1 0 0 0 0 0zM50.3 116.3c.3.1.2-2.2.2-2.2l-.4-.7-1.9.5s.2 1.9 2.1 2.4"/><path class="st99" d="M79.7 116.3c2.8-.2 4.7-1.1 5.9-1.8 1.2-.8 1.8-1.5 1.8-1.5l17.2-4.9-19.7 35.3-5.2-27.1zM104.6 108.1L87.4 113s-2.4 3-7.7 3.3l5.2 27 19.7-35.2z"/><path class="st100" d="M68.8 122.8l2.4-9.9c3.2 2.7 8.5 3.3 8.5 3.3l5.2 27-16.1-20.4zM79.7 116.3s-5.3-.6-8.6-3.3l-2.4 9.9L85 143.3l-5.3-27z"/><path class="st101" d="M78.5 108.3l-4.7-.2 2.1-3.7 7.9 5.2-.1.1zM73.9 108.1l2-3.7 7.8 5.3-5.2-1.5z"/><path class="st102" d="M80.2 114.3c1.2-.9.9-3.2.9-3.2l2.9 1.1 1.1.7-4.9 1.4zM81.1 111.1s.4 2.3-.9 3.2l4.9-1.4-1.1-.7-2.9-1.1z"/><path class="st103" d="M79.9 116.3h-.2c-.1 0-.5-.1-2.1-.3-.8-.1-3.5-1.1-4.9-1.9-.1 0-1.3-.7-1.5-1.1H74s1.4 1.5 4.4 1.5c.5 0 1 0 1.5-.1l3.7-1.2 2.4-.6 1.5.3-.1.3c-.1.1-3.5 3.1-7.5 3.1"/><path class="st103" d="M74 113s1.9 2 5.9 1.4l3.7-1.2 2.4-.6 1.5.3-.1.2s-3.6 3.2-7.6 3.1c-.2 0-.7-.1-2.1-.3-.8-.1-3.5-1.1-4.9-1.9 0 0-1.3-.7-1.5-1.1H74z"/><path class="st104" d="M60.9 111.7l6 8.5-10.4 8zM66.9 120.1l-10.3 8 4.3-16.4z"/><path class="st105" d="M53.1 130.5s-2.2-.5-2.8-3l2.8-2 3 4.3-3 .7zM56.1 129.7l-3 .8s-2.2-.5-2.8-3l2.8-2 3 4.2z"/><path class="st106" d="M53.1 125.5l3.7-13s.3-.9-.6-1.3l3-1.9 1.8 2.5-4.4 16.4-.5 1.7-3-4.4zM56.2 111.2l3-1.9 1.7 2.5-4.4 16.4-.5 1.6-3-4.2 3.7-13c.1-.1.4-1-.5-1.4"/><path class="st107" d="M50.3 127.5c-.7-1.4-.1-4.2-.1-4.2l6.2-9.7-3.4 11.9-2.7 2zM50.3 123.3s-.6 2.8.1 4.2l2.8-2 3.4-11.9-6.3 9.7z"/></g></svg>