<svg xmlns="http://www.w3.org/2000/svg" xmlns:xlink="http://www.w3.org/1999/xlink" width="192" height="234" viewBox="0 0 192 234"><style type="text/css">.st0{fill:#F2F2F2;} .st1{fill:#23A684;} .st2{clip-path:url(#SVGID_2_);} .st3{clip-path:url(#SVGID_4_);} .st4{clip-path:url(#SVGID_6_);fill:#552C14;} .st5{clip-path:url(#SVGID_6_);fill:#FBC1A0;} .st6{clip-path:url(#SVGID_6_);fill:#744229;} .st7{clip-path:url(#SVGID_6_);fill:#BA9281;} .st8{clip-path:url(#SVGID_6_);fill:#FAB394;} .st9{clip-path:url(#SVGID_6_);fill:#633520;} .st10{clip-path:url(#SVGID_6_);fill:#7C472B;} .st11{clip-path:url(#SVGID_6_);fill:#4E2D1F;} .st12{clip-path:url(#SVGID_6_);fill:#FAB89C;} .st13{clip-path:url(#SVGID_6_);fill:#795341;} .st14{clip-path:url(#SVGID_6_);fill:#EFB096;} .st15{clip-path:url(#SVGID_6_);fill:#5E2915;} .st16{clip-path:url(#SVGID_6_);fill:#FABA9D;} .st17{clip-path:url(#SVGID_6_);fill:#E69C80;} .st18{clip-path:url(#SVGID_6_);fill:#F49388;} .st19{clip-path:url(#SVGID_6_);fill:#C55C57;} .st20{clip-path:url(#SVGID_6_);fill:#E69E7F;} .st21{clip-path:url(#SVGID_6_);fill:#FAB599;} .st22{clip-path:url(#SVGID_6_);fill:#FBBD9F;} .st23{clip-path:url(#SVGID_6_);fill:#FBBC9C;} .st24{clip-path:url(#SVGID_6_);fill:#FBBC9A;} .st25{clip-path:url(#SVGID_6_);fill:#FAB69A;} .st26{clip-path:url(#SVGID_6_);fill:#E9A68B;} .st27{clip-path:url(#SVGID_6_);fill:#F9AB8D;} .st28{clip-path:url(#SVGID_6_);fill:#E59177;} .st29{clip-path:url(#SVGID_6_);fill:#E9987C;} .st30{clip-path:url(#SVGID_6_);fill:#DF9175;} .st31{clip-path:url(#SVGID_6_);fill:#DD977C;} .st32{clip-path:url(#SVGID_6_);fill:#DF9779;} .st33{clip-path:url(#SVGID_6_);fill:#EA9C7F;} .st34{clip-path:url(#SVGID_6_);fill:#E59276;} .st35{clip-path:url(#SVGID_6_);fill:#D78E72;} .st36{clip-path:url(#SVGID_6_);fill:#F19C82;} .st37{clip-path:url(#SVGID_6_);fill:#DD8C71;} .st38{clip-path:url(#SVGID_6_);fill:#753A24;} .st39{clip-path:url(#SVGID_6_);fill:#E18073;} .st40{clip-path:url(#SVGID_6_);fill:#C96D63;} .st41{clip-path:url(#SVGID_6_);fill:#CF8267;} .st42{clip-path:url(#SVGID_6_);fill:#ECA287;} .st43{clip-path:url(#SVGID_6_);fill:#F9AA8F;} .st44{clip-path:url(#SVGID_6_);fill:#FAB595;} .st45{clip-path:url(#SVGID_6_);fill:#A5654C;} .st46{clip-path:url(#SVGID_6_);fill:#B16C55;} .st47{clip-path:url(#SVGID_6_);fill:#F1A488;} .st48{clip-path:url(#SVGID_6_);fill:#F4A78C;} .st49{clip-path:url(#SVGID_6_);fill:#F0A284;} .st50{clip-path:url(#SVGID_6_);fill:#FBBB9B;} .st51{clip-path:url(#SVGID_6_);fill:#FAB899;} .st52{clip-path:url(#SVGID_6_);fill:#F3AA8A;} .st53{clip-path:url(#SVGID_6_);fill:#D28F78;} .st54{clip-path:url(#SVGID_6_);fill:#A56D57;} .st55{clip-path:url(#SVGID_6_);fill:#7F4F3B;} .st56{clip-path:url(#SVGID_6_);fill:#7D533C;} .st57{clip-path:url(#SVGID_6_);fill:#916048;} .st58{clip-path:url(#SVGID_6_);fill:#B88169;} .st59{clip-path:url(#SVGID_6_);fill:#9B674F;} .st60{clip-path:url(#SVGID_6_);fill:#A66B54;} .st61{clip-path:url(#SVGID_6_);fill:#FBC5AC;} .st62{clip-path:url(#SVGID_6_);fill:#EDA78A;} .st63{clip-path:url(#SVGID_6_);fill:#FAB59B;} .st64{clip-path:url(#SVGID_6_);fill:#FBBEA2;} .st65{clip-path:url(#SVGID_6_);fill:#956148;} .st66{clip-path:url(#SVGID_6_);fill:#BC7F68;} .st67{clip-path:url(#SVGID_6_);fill:#6B3D30;} .st68{clip-path:url(#SVGID_6_);fill:#6B3C2B;} .st69{clip-path:url(#SVGID_6_);fill:#643725;} .st70{clip-path:url(#SVGID_6_);fill:#6D3F2C;} .st71{clip-path:url(#SVGID_6_);fill:#F4A98B;} .st72{clip-path:url(#SVGID_6_);fill:#E29478;} .st73{clip-path:url(#SVGID_6_);fill:#D78F71;} .st74{clip-path:url(#SVGID_6_);fill:#A97055;} .st75{clip-path:url(#SVGID_6_);fill:#8F624B;} .st76{clip-path:url(#SVGID_6_);fill:#C48872;} .st77{clip-path:url(#SVGID_6_);fill:#5A3B2A;} .st78{clip-path:url(#SVGID_6_);fill:#FDD5C4;} .st79{clip-path:url(#SVGID_6_);fill:#764D41;} .st80{clip-path:url(#SVGID_6_);fill:#8D6656;} .st81{clip-path:url(#SVGID_6_);fill:#DC9986;} .st82{clip-path:url(#SVGID_6_);fill:#E7A58F;} .st83{clip-path:url(#SVGID_6_);fill:#DB9881;} .st84{clip-path:url(#SVGID_6_);fill:#C68773;} .st85{clip-path:url(#SVGID_6_);fill:#CC927F;} .st86{clip-path:url(#SVGID_6_);fill:#DCAD9A;} .st87{clip-path:url(#SVGID_6_);fill:#E1AA99;} .st88{clip-path:url(#SVGID_6_);fill:#D19887;} .st89{clip-path:url(#SVGID_6_);fill:#B67E6E;} .st90{clip-path:url(#SVGID_6_);fill:#50291A;} .st91{clip-path:url(#SVGID_6_);fill:#794F40;} .st92{clip-path:url(#SVGID_6_);fill:#DBB3A0;} .st93{clip-path:url(#SVGID_6_);fill:#FBC4B2;} .st94{clip-path:url(#SVGID_6_);fill:#BE7C6C;} .st95{clip-path:url(#SVGID_6_);fill:#C08A74;} .st96{clip-path:url(#SVGID_6_);fill:#9D6E5E;} .st97{clip-path:url(#SVGID_6_);fill:#815543;} .st98{clip-path:url(#SVGID_6_);fill:#946856;} .st99{clip-path:url(#SVGID_6_);fill:#FCC9B1;} .st100{clip-path:url(#SVGID_6_);fill:#FCC6AD;} .st101{clip-path:url(#SVGID_6_);fill:#F3C5B0;} .st102{clip-path:url(#SVGID_6_);fill:#E4AC9B;} .st103{clip-path:url(#SVGID_6_);fill:#CE917E;} .st104{clip-path:url(#SVGID_6_);fill:#FAB397;} .st105{clip-path:url(#SVGID_6_);fill:#8C5239;} .st106{clip-path:url(#SVGID_6_);fill:#542D19;} .st107{clip-path:url(#SVGID_6_);fill:#512F1C;} .st108{clip-path:url(#SVGID_6_);fill:#381910;} .st109{clip-path:url(#SVGID_6_);fill:#4D2719;} .st110{clip-path:url(#SVGID_6_);fill:#482617;} .st111{clip-path:url(#SVGID_6_);fill:#603017;} .st112{clip-path:url(#SVGID_6_);fill:#59311C;} .st113{clip-path:url(#SVGID_6_);fill:#5E2F17;} .st114{clip-path:url(#SVGID_6_);fill:#5F2911;} .st115{clip-path:url(#SVGID_6_);fill:#733B1B;} .st116{clip-path:url(#SVGID_6_);fill:#56270F;} .st117{clip-path:url(#SVGID_6_);fill:#7E421D;} .st118{clip-path:url(#SVGID_6_);fill:#6D3B1B;} .st119{clip-path:url(#SVGID_6_);fill:#7F411C;} .st120{clip-path:url(#SVGID_6_);fill:#572712;} .st121{clip-path:url(#SVGID_6_);fill:#5D311A;} .st122{clip-path:url(#SVGID_6_);fill:#713D1E;} .st123{clip-path:url(#SVGID_6_);fill:#612F17;} .st124{clip-path:url(#SVGID_6_);fill:#5B2713;} .st125{clip-path:url(#SVGID_6_);fill:#38180E;} .st126{clip-path:url(#SVGID_6_);fill:#592513;} .st127{clip-path:url(#SVGID_6_);fill:#64361A;} .st128{clip-path:url(#SVGID_6_);fill:#592D18;} .st129{clip-path:url(#SVGID_6_);fill:#FEDBB7;} .st130{clip-path:url(#SVGID_6_);fill:#36231D;} .st131{opacity:0.8;clip-path:url(#SVGID_6_);} .st132{clip-path:url(#SVGID_8_);fill:#F5D2C2;} .st133{clip-path:url(#SVGID_10_);fill:#F5D2C2;} .st134{clip-path:url(#SVGID_6_);fill:#6B3D2C;} .st135{clip-path:url(#SVGID_12_);fill:#F5D2C2;} .st136{clip-path:url(#SVGID_14_);fill:#F5D2C2;}</style><path class="st0" d="M0 0h192v234H0z"/><path class="st1" d="M192 215.5L172.5 234H192z"/><defs><path id="SVGID_1_" d="M-6.5 19.3H192v198.5H-6.5z"/></defs><clipPath id="SVGID_2_"><use xlink:href="#SVGID_1_" overflow="visible"/></clipPath><g class="st2"><defs><path id="SVGID_3_" d="M-6.5 19.3H192v198.5H-6.5z"/></defs><clipPath id="SVGID_4_"><use xlink:href="#SVGID_3_" overflow="visible"/></clipPath><g class="st3"><defs><path id="SVGID_5_" d="M-6.5 19.3H192v198.5H-6.5z"/></defs><clipPath id="SVGID_6_"><use xlink:href="#SVGID_5_" overflow="visible"/></clipPath><path class="st4" d="M44.6 140.4c1.6-1.1 3.1-2.3 4.3-3.9 1.2-1.7 2.2-3.5 3.6-5 2.7-3 5-6.1 6.8-9.6.7-1.4-1.4-2.7-2.1-1.3-1.7 3.4-3.9 6.3-6.4 9.1-1 1.1-1.8 2.2-2.6 3.4-1.3 2.1-2.6 3.6-4.7 5.1-1.5 1-.2 3.2 1.1 2.2M65.4 105.5c-1.6 4.4-2.5 9.1-2.5 13.8 0 5.1 1.2 10.1.6 15.2-.2 1.3 1.7 1.5 2.3.6 3.6-5.1 1.5-11.3 1.1-17-.1-1.6-2.4-1.6-2.5 0-.5 7.5-.6 14.9-.3 22.4.1 1.6 2.5 1.6 2.5 0-.3-7.5-.2-14.9.3-22.4h-2.5c.4 5.2 2.6 11.1-.7 15.7.8.2 1.5.4 2.3.6.6-4.8-.5-9.5-.6-14.3-.1-4.8.8-9.6 2.4-14.1.5-1.4-1.9-2-2.4-.5M83.2 69c.1-.8.2-1.7.5-2.4.3-.6.9-1.1 1.3-1.6.9-1.2 2-1.8 3-2.8 1.1-1.2-.7-2.9-1.8-1.8-.6.7-1.5 1.1-2.2 1.8-.6.6-1 1.3-1.6 2-1.2 1.4-1.5 3.1-1.7 4.9-.1 1.5 2.3 1.5 2.5-.1M110.4 78c5 1.7 10 3.6 14.8 5.8 1.4.7 2.7-1.5 1.3-2.1-5-2.3-10.2-4.3-15.4-6-1.6-.6-2.3 1.8-.7 2.3M121.5 82.4c.1 2 2.2 3.5 3.8 4.5 1.4.9 2.6-1.3 1.3-2.1-.6-.3-1.1-.7-1.5-1.2-.3-.2-1-.8-1-1.2-.2-1.6-2.6-1.6-2.6 0M128.7 87.9c.1 5.7.2 11.4.3 17.2.1 4.4-.7 9.9 1.5 14 .8 1.4 2.9.1 2.1-1.3-1.2-2.2-1.1-4.8-1.1-7.3s-.1-4.9-.1-7.4l-.3-15.2c.1-1.6-2.4-1.6-2.4 0M130.7 117.7c-.9 4.4-.4 9-1.4 13.4-1 4.5-2.5 8.8-4 13.1-.5 1.5 1.9 2.2 2.4.7 1.5-4.3 3-8.7 4-13.1s.5-9 1.4-13.4c.3-1.6-2.1-2.2-2.4-.7M130.6 139.8c-.1 8.5 0 17 0 25.5 0 1.6 2.5 1.6 2.5 0-.1-8.5-.1-17 0-25.5 0-1.6-2.5-1.6-2.5 0M130.9 153.3c-.2 6.3-.2 12.6 0 18.9 0 1.6 2.5 1.6 2.5 0-.1-6.3-.1-12.6 0-18.9.1-1.6-2.4-1.6-2.5 0"/><path class="st5" d="M104.1 154.8c2.5-1.8 4.6-4 6.2-6.6.8-1.4-1.3-2.6-2.1-1.3-1.4 2.2-3.2 4.2-5.3 5.7-1.4 1-.1 3.1 1.2 2.2"/><path class="st6" d="M85.2 150.4l1.9-4.3c.5-1.1-.3-2-1.4-1.8-1.4.2-2.6 1.7-2.5 3.1.1 1.6 2.1 2.8 3.3 3.5.7.4 1.6.1 1.8-.7.1-.5.1-.9-.2-1.3-.8-1.4-2.9-.1-2.1 1.3 0 .1.1.1.1.2 0-.3-.1-.6-.1-1v.2c.6-.2 1.2-.5 1.8-.7-.3-.2-.7-.4-1-.6-.3-.2-.5-.6-.9-.8-.1-.3-.2-.3-.2-.1 0-.1.1-.2.2-.3.2-.2.3-.2.5-.2-.5-.6-.9-1.2-1.4-1.8-.6 1.4-1.3 2.8-1.9 4.3-.3.6-.2 1.3.4 1.7.5 0 1.4-.1 1.7-.7M81.4 147c1.5 0 3 .2 4.5.4 1.6.3 2.2-2.1.7-2.4-1.7-.3-3.4-.5-5.2-.5-1.6-.1-1.6 2.4 0 2.5"/><path class="st7" d="M76.1 115.4c-.1 1.1.1 2.3.4 3.4.3 1.1 1 1.8 2.1 1.9.7.1 1.2-.6 1.2-1.2 0-.7-.6-1.2-1.2-1.2h-.2c.2.1.4.1.6.2-.3-.1-.3-.9-.4-1.3-.1-.6-.1-1.1-.1-1.7.2-1.6-2.3-1.6-2.4-.1"/><path class="st8" d="M93.8 78.6c3-.7 5.9-1.2 9-1.3 1.6-.1 1.6-2.6 0-2.5-3.3.2-6.5.6-9.6 1.4-1.6.4-.9 2.8.6 2.4"/><path class="st9" d="M71.6 89.7c1.6-3.5 4.1-7.9 8.4-7.8 1.6 0 1.6-2.5 0-2.5-5.3-.1-8.6 4.6-10.6 9-.6 1.5 1.6 2.8 2.2 1.3"/><path class="st10" d="M66 102.1c-1.7 4-2 8.3-2.2 12.5-.1 4-1 9.2.6 12.9.6 1.5 2.8.2 2.1-1.3-.8-1.8-.4-4.2-.4-6.1 0-1.8.1-3.7.1-5.5.1-3.8.3-7.8 1.8-11.3.7-1.4-1.4-2.6-2-1.2M64.3 127.5c-.1 3-.1 5.9-.2 8.9 0 1.6 2.4 1.6 2.5 0 .1-3 .1-5.9.2-8.9 0-1.6-2.5-1.6-2.5 0"/><path class="st11" d="M74.7 118c1.2-1.8 2.7-3.2 4.5-4.3 1.4-.8.1-3-1.3-2.1-2.2 1.3-4 3.1-5.4 5.2-.8 1.3 1.3 2.5 2.2 1.2M73.2 111.6c1.6-.6 3.2-.9 4.9-1 1.6-.1 1.6-2.6 0-2.5-1.9.1-3.8.5-5.6 1.1-1.4.5-.8 2.9.7 2.4M77.1 119.1c2.4.5 4.9.7 7.3.8 1.6 0 1.6-2.5 0-2.5-2.2 0-4.5-.3-6.7-.7-1.5-.3-2.2 2.1-.6 2.4"/><path class="st12" d="M100.8 121.2c1.4-.6 2.7-1.3 3.9-2.1 1.3-.9.1-3-1.3-2.1-1.3.8-2.6 1.5-3.9 2.1-.6.3-.8 1.2-.4 1.7.4.6 1.1.6 1.7.4"/><path class="st13" d="M110.9 114.5c2.2.6 4.5 1.2 6.2 2.9 1.1 1.1 2.9-.6 1.8-1.8-2-2-4.7-2.8-7.3-3.5-1.6-.4-2.3 2-.7 2.4M116.2 118c.6.9 1.3 1.7 1.9 2.5.4.5 1.3.4 1.8 0 .5-.5.4-1.2 0-1.8-.5-.7-1.1-1.3-1.6-2-.4-.5-1.1-.8-1.7-.4-.5.3-.8 1.2-.4 1.7"/><path class="st14" d="M109.8 119.5c2.1.2 4.2.4 6.4.4 1.6 0 1.6-2.4 0-2.5-2.1 0-4.2-.2-6.4-.4-1.6-.1-1.6 2.4 0 2.5"/><path class="st15" d="M130.3 128c.6 7.1.3 14.2 0 21.3-.1 1.6 2.4 1.6 2.5 0 .3-7.1.6-14.2 0-21.3-.2-1.6-2.7-1.6-2.5 0"/><path class="st16" d="M102.9 146.2c2.2.8 4.3 1.6 6.6 2.3 1.5.5 2.2-1.9.7-2.4-2.2-.7-4.4-1.4-6.6-2.3-1.5-.5-2.2 1.9-.7 2.4"/><path class="st17" d="M100.7 138.9c.4-.7.9-1.4 1.5-2.1.2-.2.4-.5.5-.5.4-.1.9.1 1.2.2 1.6.1 1.6-2.3 0-2.5-1.2-.1-2.1-.3-3.1.6-.9.9-1.6 1.9-2.2 3-.9 1.4 1.3 2.7 2.1 1.3M95.3 154.2c4.5-.3 8.6-1.6 12.6-3.8 1.4-.8.1-2.9-1.3-2.1-3.5 2-7.3 3.1-11.3 3.4-1.5.1-1.6 2.6 0 2.5M93 148c3.4-.3 6.7-.3 10.1-.1 1.6.1 1.6-2.4 0-2.5-3.4-.2-6.7-.2-10.1.1-1.6.2-1.6 2.6 0 2.5"/><path class="st6" d="M86 145.7c-.3 2.2-.1 4.4.3 6.6.3 1.6 2.7.9 2.4-.7-.4-2-.4-3.9-.2-5.9.1-1.6-2.3-1.6-2.5 0"/><path class="st18" d="M91.4 157c1.7.3 3.3.7 4.9 1.2 1.5.5 2.2-1.9.7-2.4-1.6-.5-3.3-.9-4.9-1.2-1.6-.3-2.2 2.1-.7 2.4"/><path class="st19" d="M87.2 146.5c2.7-.8 5.4-1.2 8.2-1 1.3.1 2.5 0 3.8 0 1.7.1 2.9 1 4.4 1.7 1.4.7 2.7-1.4 1.3-2.1-1.2-.6-2.3-1.4-3.5-1.7-1.6-.5-3.3-.2-4.9-.3-3.4-.1-6.4.1-9.8 1-1.7.5-1.1 2.9.5 2.4"/><path class="st20" d="M82.6 149.4c1.6 0 1.6-2.5 0-2.5s-1.6 2.5 0 2.5M82.3 149.1c1.6 0 1.6-2.5 0-2.5s-1.6 2.5 0 2.5M82 148.7c1.6 0 1.6-2.5 0-2.5s-1.6 2.5 0 2.5M82 148.4c1.6 0 1.6-2.5 0-2.5s-1.6 2.5 0 2.5"/><path class="st6" d="M86.7 148.6c1.6 0 1.6-2.5 0-2.5-1.5 0-1.6 2.5 0 2.5M86.2 148.1c1.6 0 1.6-2.5 0-2.5s-1.6 2.5 0 2.5"/><path class="st21" d="M96.7 173.5c-5.3 0-9.9-1.9-9.9-1.9l8.5-14.7 12 13.1c-2.8 2.3-6.4 3.5-10.6 3.5zM95.3 156.9l-8.5 14.7s12.3 5.2 20.5-1.6l-12-13.1z"/><path class="st22" d="M95.3 156.9c5-.6 9.6-4 9.6-4.1l2.4 17.3-12-13.2zM104.9 152.8s-4.5 3.4-9.6 4l12 13.1-2.4-17.1z"/><path class="st23" d="M104.9 152.8l13.5 7.4c-.1.1-8.3 8-11.2 9.8l-2.3-17.2zM118.4 160.2s-8.2 7.9-11.2 9.8l-2.3-17.2 13.5 7.4z"/><path class="st5" d="M104.9 152.8c1.4-1.3 3.8-5.2 3.8-5.3l16.1 2.8c-1.2 2.3-6.4 9.7-6.4 9.8l-13.5-7.3zM108.8 147.6s-2.4 4-3.8 5.3l13.5 7.4s5.3-7.5 6.5-9.8l-16.2-2.9z"/><path class="st24" d="M112.2 148.2l16.9-12.5c-.9 4.3-4.1 14.6-4.1 14.7l-12.8-2.2zM129 135.7l-16.9 12.5 12.7 2.2c.1 0 3.3-10.3 4.2-14.7"/><path class="st25" d="M118.4 118.9l10.7 16.8-10 7.4zM118.4 118.9l.7 24.2 9.9-7.4z"/><path class="st26" d="M118.4 118.9l13.3 1.2c0 .1-1.5 11.6-2.7 15.6l-10.6-16.8zM131.7 120.1s-1.5 11.5-2.7 15.6l-10.6-16.8 13.3 1.2z"/><path class="st16" d="M108.8 133.4l9.6-14.5.7 24.2zM108.8 133.4l10.3 9.7-.7-24.2z"/><path class="st27" d="M108.8 133.4l10.3 9.7-6.9 5.1zM112.2 148.2l-3.4-14.8 10.3 9.7z"/><path class="st28" d="M104.7 135.7l4.1-2.3 2.1 8.9zM104.7 135.7l6.1 6.5-2-8.8z"/><path class="st29" d="M103.9 130.3l4.9 3.1-4.1 2.4zM103.9 130.3l.8 5.4 4.1-2.3z"/><path class="st30" d="M86.8 171.6c-2-.7-7.6-5.7-7.7-5.8l16.2-9-8.5 14.8zM79.1 165.8s5.7 5.1 7.7 5.8l8.5-14.7-16.2 8.9z"/><path class="st31" d="M84.1 150.4c.1.1 3 5.5 11.2 6.4l-16.2 9 5-15.4zM84.1 150.4s2.9 5.5 11.2 6.5l-16.2 8.9 5-15.4z"/><path class="st32" d="M79.1 165.8c-5.8-5.3-9.8-14.8-9.8-14.9l14.8-.5-5 15.4zM69.3 150.9s3.9 9.6 9.8 14.9l5-15.4-14.8.5z"/><path class="st20" d="M69.3 150.9l13.4-4.7c.3 2 1.4 4.2 1.4 4.2l-14.8.5zM82.7 146.2l-13.4 4.7 14.8-.5s-1.1-2.1-1.4-4.2"/><path class="st33" d="M66 138.8l16.7 7.4-13.4 4.7zM66 138.8l3.3 12.1 13.4-4.7z"/><path class="st34" d="M66 138.8c-.5-1.7 0-10.5 0-10.6l7.8 14-7.8-3.4zM66 128.3s-.5 8.9 0 10.5l7.7 3.4-7.7-13.9z"/><path class="st35" d="M82.7 146.2c-.3-.1-9-4-9-4l12.7-6.2c-.1.5-3.3 10.2-3.7 10.2zM86.4 136.1s-3.4 10.3-3.7 10.1c-.3-.1-9-4-9-4l12.7-6.1z"/><path class="st36" d="M80.4 121.8l6.1 14.3-12.8 6.2zM80.4 121.8l6 14.3-12.7 6.1z"/><path class="st37" d="M80.4 121.8l11.2-1.7-5.2 16zM91.6 120.1l-5.2 16-6-14.3z"/><path class="st19" d="M108.8 147.6c-.1 0-5.4-1.8-8.3-1.8h-1c-1.8.3-3.5.5-4.6.5-.5 0-.9-.1-1.2-.2-.5-.2-2-.7-4.7-.7-1.9 0-4 .2-6.2.7.1 0 8.8-2.1 10.5-2.1h.1c.4 0 .7.1 1 .2.4.1.8.2 1.4.2.7 0 1.6-.1 2.7-.4h.2c.8.1 4 .3 10.1 3.6zM82.7 146.2s9.3-2.2 10.7-2.1c1.4.1 1.6.9 5 0 0 0 3.1-.4 10.4 3.5 0 0-6.4-2.1-9.1-1.7-2.7.4-5.1.8-6.1.4-.9-.5-4.2-1.4-10.9-.1"/><path class="st38" d="M106 146.8l2.8.8-1.5 2.3zM107.3 149.9l-1.3-3.1 2.8.8z"/><path class="st19" d="M92.2 156.3c-6.2-1.9-8.1-5.8-8.2-5.8-.8-1.5-1.4-4.2-1.4-4.2 5.1 4.2 7.8 5.6 7.9 5.6l1.7 4.4zM92.2 156.3l-1.7-4.5s-2.7-1.3-7.9-5.6c0 0 .6 2.7 1.4 4.2.1 0 2 3.9 8.2 5.9"/><path class="st18" d="M95.3 156.9c-1.8-.3-3.1-.6-3.1-.6l-1.7-4.5c1.3.6 4 1 4.1 1l.7 4.1zm-4.8-5.1c-.1 0-.2-.1-.3-.1l-.5-.3c.1 0 .2 0 .8.4zM94.6 152.8s-3.2-.5-4.4-1.2c-1.2-.7.3.2.3.2l1.7 4.5s1.3.3 3.1.6l-.7-4.1z"/><path class="st39" d="M94.6 152.8h.2c2 0 5.4-.8 5.4-.9l-4.9 4.9-.7-4zM100.2 152s-3.5.9-5.6.8l.7 4 4.9-4.8z"/><path class="st40" d="M100.2 152c3.8-.7 6.5-3.4 6.5-3.4l.6 1.3-2.3 3c-4.6 3.5-9.6 4-9.6 4.1l4.8-5zM106.7 148.6s-2.7 2.7-6.5 3.4l-4.9 4.9s5-.5 9.6-4l2.3-2.9-.5-1.4z"/><path class="st41" d="M82.7 146.2c.7-.7 3.7-10 3.7-10.1l6.4 8c-3.1.4-10 2.1-10.1 2.1zM92.8 144.1l-6.4-8s-3 9.4-3.7 10.1c0 0 7-1.7 10.1-2.1"/><path class="st42" d="M86.4 136.1l10.2 2.7-3.8 5.3zM96.6 138.8l-3.8 5.3-6.4-8z"/><path class="st43" d="M102.3 144.8c-1.6-.6-3.9-.7-3.9-.7-.7.3-1.5.5-2.3.5-1.5 0-2.7-.5-2.7-.5h-.6l3.8-5.3 5.7 6zM102.4 144.8l-5.7-6-3.8 5.3h.6s2.7 1 5 0c-.1 0 2.2.1 3.9.7"/><path class="st16" d="M108.8 147.6c-2.3-1.5-6.4-2.8-6.4-2.8l2.3-9.1 6.2 6.5 1.4 6-3.5-.6zM104.7 135.7l-2.3 9.1s4.1 1.3 6.4 2.8l3.4.6-1.4-5.9-6.1-6.6z"/><path class="st44" d="M96.6 138.8l8.1-3.1-2.3 9.1zM96.6 138.8l8.1-3.1-2.3 9.1z"/><path class="st45" d="M89.1 136.8s.7-.5 1.7-.5c1.1 0 2.1.6 3 1.7l-4.7-1.2zM89.1 136.8s2.5-1.6 4.7 1.3l-4.7-1.3zM100.2 137.4s.2-1.3 1.7-1.3c.4 0 .8.1 1.2.2l-2.9 1.1zM100.2 137.4s.2-2 2.8-1.1l-2.8 1.1z"/><path class="st46" d="M86.4 136.1l5.1-16 1.8-5 .7 5.9-3.7 15.4s-.9.2-1.3.5l-2.6-.8zM94 121l-3.7 15.4s-.9.2-1.3.5l-2.6-.7 5.1-16 1.8-5 .7 5.8z"/><path class="st17" d="M93.7 138.1c-1.2-1.5-2.4-1.7-3-1.7h-.4l.7-2.9 11.3 1.4.7 1.5c-.5-.2-.9-.2-1.3-.2-1.4 0-1.6 1.3-1.6 1.3l-3.6 1.4-2.8-.8zM102.4 134.8L91 133.4l-.7 2.9s1.8-.4 3.4 1.7l2.9.8 3.6-1.4s.2-2.1 2.8-1.1l-.6-1.5z"/><path class="st47" d="M102.3 134.8l-3.2-.4 1.1-14.3 3.7 10.2.8 5.4-1.7.7zM100.2 120.1l-1.1 14.3 3.3.4.7 1.6 1.6-.7-.8-5.4z"/><path class="st48" d="M91 133.4l9.2-13.3-1.1 14.3zM91 133.4l9.2-13.3-1.1 14.3z"/><path class="st49" d="M91 133.4l3-12.4-.7-5.9 6.9 5-9.1 13.3zM93.3 115.1l6.9 5-9.2 13.3 3-12.4z"/><path class="st50" d="M93.3 115.1l4.6-7.4 2.3 12.4zM97.9 107.7l-4.6 7.4 6.9 5z"/><path class="st51" d="M97.9 107.7h8.1l-5.8 12.4zM106 107.7l-5.8 12.4-2.3-12.4z"/><path class="st52" d="M88 108.4l9.9-.7-4.6 7.5zM88 108.4l5.3 6.7 4.6-7.4z"/><path class="st53" d="M125.8 119.6l2.2-17.8 3.7 18.3zM128.1 101.8l-2.3 17.8 5.9.5z"/><path class="st54" d="M105.9 107.7l3.5 2.8-5.2 1zM109.4 110.5l-3.4-2.8-1.8 3.7z"/><path class="st55" d="M105.9 107.7s3.1-.2 5.5-.2c1.4 0 2.2 0 2.6.1l-4.6 2.8-3.5-2.7zM114 107.7l-4.6 2.8-3.4-2.8s6.9-.3 8 0"/><path class="st56" d="M109.4 110.5l4.6-2.8 5.1 2.8c-.3-.1-1.2-.2-2.8-.2-2.9 0-6.9.3-6.9.2zM119.1 110.5l-5.1-2.8-4.6 2.8s8.9-.4 9.7 0"/><path class="st57" d="M114 107.7h.1c.8 0 5.2.1 6.3.9l-1.3 1.9-5.1-2.8zM120.4 108.7l-1.3 1.9-5.1-2.8c0-.1 5.2 0 6.4.9"/><path class="st58" d="M122.8 112.3c-.7-1-3.7-1.8-3.7-1.8l1.3-1.9 2.4 3.7s0 .1 0 0zM122.8 112.4l-2.4-3.7-1.3 1.9c0-.1 3.1.8 3.7 1.8"/><path class="st59" d="M120.4 108.7c.1 0 3.4 2 3.9 2.7l-1.8.7-2.1-3.4zM124.3 111.4l-1.7.7-2.2-3.4s3.4 2 3.9 2.7"/><path class="st60" d="M122.6 112.1l1.7-.7.8 3.1zM125.1 114.5l-2.5-2.4 1.7-.7z"/><path class="st61" d="M118.4 118.9l6.7-4.5 1.1 1.8-.4 3.4zM118.4 118.9l6.7-4.4 1.1 1.8-.4 3.3z"/><path class="st62" d="M125.1 114.5l-.8-3.1-1-.8 1-13.3 3.8 4.5-1.9 14.5zM128.1 101.8l-3.8-4.5-1 13.2 1 .9.8 3.1 1.1 1.8z"/><path class="st25" d="M120.4 108.7s-1.6-.9-6.5-.9l4.6-27.5 5.8 17-1.1 13.3-2.8-1.9zM118.5 80.2l5.8 17-1.1 13.3-2.8-1.9s-1.5-.9-6.5-1l4.6-27.4z"/><path class="st63" d="M102.3 76.2h.6c9.5 0 15.6 4 15.6 4.1l-4.6 27.6-11.6-31.7zM102.3 76.2l11.6 31.5 4.6-27.5s-6.3-4.2-16.2-4"/><path class="st64" d="M103.7 107.8h-5.8l4.4-31.6 11.7 31.5c-.2-.1-.9-.1-2.3-.1-2.2 0-5.4.1-5.7.1-.2.1-.9.1-2.3.1"/><path class="st64" d="M102.3 76.2l-4.4 31.5h8c.4 0 7.6-.2 8 0l-11.6-31.5z"/><path class="st8" d="M89.5 78.3c2.6-1.1 12.7-2.1 12.9-2.1L98 107.8l-8.5-29.5zM89.5 78.3l8.5 29.4 4.4-31.5c-.1 0-10.3 1-12.9 2.1"/><path class="st65" d="M83.9 107.1l4.1 1.3-1.1 3.1zM88 108.4l-4-1.3 2.9 4.3z"/><path class="st66" d="M86.9 111.4l1.1-3 5.4 6.7h-.1zM93.3 115.1l-6.4-3.7 1.1-3z"/><path class="st67" d="M77.9 107.8c1.7-.5 6-.6 6.1-.6l-3.2 2.5-2.9-1.9zM77.9 107.7l2.9 1.8L84 107c0 .1-4.4.3-6.1.7"/><path class="st68" d="M74.3 109.9l3.6-2.2 2.9 1.8c-.2 0-1-.1-2.1-.1-1.6.1-3.1.2-4.4.5zM74.3 109.9l3.6-2.2 2.9 1.8c-.1.1-3.2-.3-6.5.4"/><path class="st69" d="M70.9 109.6c2.3-1.2 7-1.9 7-1.9l-3.6 2.2-3.4-.3zM70.9 109.6l3.4.3 3.6-2.2s-4.7.7-7 1.9"/><path class="st70" d="M68.1 112.9s1.8-3 2.8-3.4l3.4.3c-.1.2-4.7 1.2-6.2 3.1zM68.1 112.9s1.8-2.9 2.8-3.4l3.4.3c0 .1-4.7 1.2-6.2 3.1"/><path class="st71" d="M88 108.4s-2.3-.7-4.1-1.3l5.5-28.9 8.5 29.4-9.9.8zM84 107.1l5.5-28.8 8.5 29.4-9.9.7c-.1 0-2.4-.7-4.1-1.3"/><path class="st72" d="M75.5 82.3c5.7-3.1 13.9-4 14-4L84 107.1c-4.1.1-6.1.6-6.1.6l-2.4-25.4zM75.5 82.3l2.4 25.4s1.9-.5 6.1-.6l5.5-28.8s-8.2.9-14 4"/><path class="st73" d="M70.9 109.6c-.4-.4 4.4-26.2 4.7-27.3l2.4 25.4c-.2.1-4.9.8-7.1 1.9zM70.9 109.6c-.5.2 4.7-27.3 4.7-27.3l2.4 25.4c-.1 0-4.8.8-7.1 1.9"/><path class="st74" d="M67.1 101.8c0-.2 2.7-16.2 8.4-19.5 0 .2-4.4 23.5-4.6 27.3l-3.8-7.8zM67.1 101.8s2.6-16.2 8.4-19.5c0 0-4.5 23.4-4.7 27.3l-3.7-7.8z"/><path class="st75" d="M67.1 101.8l3.8 7.8s-.8.1-2.8 3.4l-2.3 1 1.3-12.2zM65.8 113.9l1.3-12.1 3.8 7.8s-.7.1-2.8 3.4l-2.3.9z"/><path class="st76" d="M65.8 113.9l2.3-1 5.6 4.5-7.7 10.9zM66 128.3l-.2-14.4 2.3-1 5.6 4.5z"/><path class="st11" d="M73.7 117.4c1.6-3.1 3.8-4.6 6.4-4.6 4.2 0 8.1 4 8.1 4-.1.1-.2.1-.3.1-.3 0-.6-.3-.6-.3-2.6-2-4.8-3-6.8-3-2.5 0-3.8 1.8-4.3 2.4-.1.1-.2.2-.2.3-.3.4-2.3 1.1-2.3 1.1zM88.3 116.9s-9.2-9.4-14.6.6c0 0 1.9-.8 2.3-1.1.4-.3 3-6.1 11.3.3 0 0 .5.5 1 .2"/><path class="st77" d="M81.7 118.2c-.6 0-3.5-.2-3.6-4 0 0 .9-.6 2.4-.6 1.1 0 2.3.3 3.5.9.1.1.5 3-2.3 3.7zM81.8 118.2s-3.6.2-3.6-3.9c0 0 2.1-1.6 5.9.3 0 0 .4 2.9-2.3 3.6"/><path class="st7" d="M81 118.2c-4.1 0-5-1.9-5-1.9.9-1.4 2.1-2.1 2.1-2.1.1 3.8 2.9 3.9 3.5 3.9h.1c-.2.1-.4.1-.7.1zM76 116.3s1 2.1 5.7 1.9c0 0-3.6.3-3.6-3.9 0 0-1.1.7-2.1 2"/><path class="st78" d="M81.8 118.2s2.7-.7 2.3-3.6c0 0 2.7 1.5 3.3 2.1-.1 0-3.5 1.4-5.6 1.5zM87.3 116.7s-3.4 1.5-5.5 1.6c0 0 2.8-.7 2.3-3.6 0-.1 2.6 1.3 3.2 2"/><path class="st79" d="M78.9 119.1c-3.8-.4-5.2-1.7-5.2-1.7l2.4-1.1c.8 1.1 1.5 1.2 1.5 1.2l1.3 1.6zM73.7 117.4s1.4 1.3 5.2 1.7l-1.4-1.5s-.6-.1-1.5-1.2l-2.3 1z"/><path class="st80" d="M77.6 117.7c.1 0 1.4.5 3.3.5h1l-3.1.9-1.2-1.4zM82 118.2l-3.1.9-1.3-1.4c.1 0 1.8.8 4.4.5"/><path class="st81" d="M87.3 116.7l3.1 3.6-5 .7zM87.3 116.7l-1.9 4.3 4.9-.7z"/><path class="st82" d="M82 118.2c2.5-.3 5.3-1.6 5.3-1.6l-1.9 4.4-1.6.2-1.8-3zM82 118.2l1.8 3 1.6-.2 1.9-4.4c0 .1-2.8 1.3-5.3 1.6"/><path class="st82" d="M80.4 121.8c.2-.3 1.6-3.5 1.6-3.5l1.9 3-3.5.5zM80.4 121.8c.2-.3 1.6-3.5 1.6-3.5l1.8 3-3.4.5z"/><path class="st14" d="M78.9 119.1l3.1-.9-1.6 3.6zM78.9 119.1l1.5 2.7 1.6-3.6z"/><path class="st83" d="M87.3 116.7c.3.2.6.3.7.3.2 0 .2-.1.2-.1l4.1 1.2-.7 2-1.3.2-3-3.6zM88.3 116.9s-.1.4-1-.2l3 3.6 1.2-.2.7-2-3.9-1.2z"/><path class="st84" d="M90.3 117.5l-2.1-5.3 5.2 2.9-1.1 3zM88.3 112.2l2 5.3 2 .6 1-3z"/><path class="st85" d="M88.3 116.9s-2.2-2.3-4.9-3.3l4.9-1.3 2.1 5.3-2.1-.7zM83.3 113.5l4.9-1.3 2.1 5.3-2.1-.6c.1 0-2.2-2.3-4.9-3.4"/><path class="st86" d="M83.3 113.5c-1-.5-2.7-.7-2.7-.7l-1.8-3.4 2 .1h.1c2.3 0 6.1 1.8 6.2 1.9l1.3.8-5.1 1.3zM78.8 109.5l1.8 3.3s1.7.2 2.7.7l4.9-1.3-1.3-.8s-3.9-1.9-6.2-1.9h-1.9z"/><path class="st87" d="M76.4 109.6s1.2-.1 2-.1h.3l1.8 3.4h-.4c-.7 0-2.3.2-4.1 1.5l.4-4.8zM76 114.3l.4-4.7s1.5-.2 2.4-.1l1.8 3.3s-2-.3-4.6 1.5"/><path class="st88" d="M68.1 113c2.1-2.7 8.3-3.4 8.4-3.4l-.4 4.7-.9.9-7.1-2.2zM68.1 112.9l7.1 2.2.9-.9.4-4.7c-.1.1-6.3.8-8.4 3.4"/><path class="st89" d="M68.1 113l7.1 2.2c-.9 1.2-1.4 2.3-1.4 2.3l-5.7-4.5zM73.7 117.4s.5-1.1 1.4-2.3l-7.1-2.2 5.7 4.5z"/><path class="st90" d="M118.7 118.5c-.2 0-.4-.1-.7-.2 0 0-2.8-4-6.5-4-1.8 0-3.6.9-5.2 2.8 0 0-.7.8-1 .8h-.1c0-.1 0-.2.1-.4 0 0 2.3-3.8 6.1-3.8 2.3 0 4.8 1.4 7.3 4 0 0 .2.5.1.8.1-.1 0 0-.1 0M105.4 117.3s5.1-8.7 13.4.3c0 0 .6 1.4-.8.6 0 0-5.5-8.2-11.7-1.2 0 0-1.4 1.5-.9.3"/><path class="st77" d="M111.9 118.6c-.1 0-1.3 0-2.1-.9-.6-.7-.9-1.6-.8-2.9 0 0 1.1-.7 2.6-.7 1.3 0 2.5.4 3.7 1.3 0 0 .1 1.3-.7 2.2-.6.7-1.5 1-2.7 1zM111.9 118.6s-3.2.1-2.9-3.8c0 0 2.9-1.8 6.3.6 0 .1.3 3.2-3.4 3.2"/><path class="st91" d="M116.9 116.9l1.1 1.3-1.5.4zM116.9 116.9l-.4 1.7 1.5-.4z"/><path class="st92" d="M112.4 118.6h.2c2.9-.4 2.6-3.1 2.6-3.1.4 0 1.6 1.4 1.7 1.4l-.2.9c-.5.4-3.3.7-4.1.8h-.2zM112.4 118.6s3.7-.4 4.3-.9l.2-.9s-1.3-1.4-1.7-1.4c.1.1.4 2.9-2.8 3.2"/><path class="st93" d="M110.4 118.2c-1.5-.4-3.6-1.7-3.6-1.7.2-.4 2.1-1.6 2.2-1.7-.2 2.8 1.4 3.4 1.4 3.4zM106.8 116.5s2.1 1.3 3.6 1.7c0 0-1.6-.5-1.4-3.4 0 0-2 1.3-2.2 1.7"/><path class="st94" d="M105.4 117.8c.4-.3 1.3-1.3 1.4-1.3 1.5 1 3.5 1.7 3.5 1.7l-4.9-.4zM105.4 117.8l4.8.5s-2-.7-3.5-1.7c.1-.1-.8.9-1.3 1.2"/><path class="st95" d="M117.8 120l-1.3-1.4 1.6-.4s.6.3.8.1c.1-.1.1-.4-.1-.7l.7.6-1.1.7-.6 1.1zm-1.3-1.4l1.2 1.3.7-1 1-.7-.6-.5c.2.4.2.6 0 .7-.2.2-.8-.1-.9-.1l-1.4.3zM118 118.2s1.4.7.8-.6l.7.6-1.1.7-.7 1-1.3-1.3 1.6-.4"/><path class="st96" d="M113 118.6c2-.3 3.7-.9 3.7-.9l-.2.9.5.5-4-.5zM113 118.6l3.9.5-.4-.5.2-.9c0 .1-1.7.6-3.7.9"/><path class="st97" d="M118.8 117.6l-1.1-1.1 2.9.8h.2l-1.3.9zM120.8 117.3h-.2l-2.9-.8 1.1 1.1.7.6z"/><path class="st98" d="M117.7 116.5l-.3-2.3 3.4 3.1v.1zM117.4 114.2l.3 2.3 3.1.8z"/><path class="st13" d="M117.7 116.5s-2-2-4-2.6l3.7.2.3 2.4zM113.7 113.9l3.7.3.3 2.3s-1.9-2-4-2.6"/><path class="st99" d="M117.4 114.2l1.7-3.6c2.6.7 3.5 1.5 3.5 1.6l2.5 2.3-4.3 2.9-3.4-3.2zM119.1 110.5l-1.7 3.6 3.4 3.2 4.3-2.9-2.5-2.3s-.9-.9-3.5-1.6"/><path class="st100" d="M113.7 110.4c.9-.1 1.8-.1 2.5-.1 2.2 0 2.9.2 2.9.2l-1.7 3.7-3.7-3.8zM113.7 110.4l3.7 3.8 1.7-3.6c0-.1-1-.4-5.4-.2"/><path class="st101" d="M113.7 113.9s-1.1-.4-2.4-.4c-.8 0-1.4.1-1.9.4l4.2-3.6 3.7 3.8-3.6-.2zM109.5 114l4.3-3.6 3.7 3.8-3.7-.3c-.1 0-2.7-.8-4.3.1"/><path class="st102" d="M104.2 111.4l5.2-.9 4.3-.2-4.3 3.6c-.6.1-.8.4-.8.4l-4.4-2.9zM104.2 111.4l4.4 2.9s.2-.2.8-.4l4.3-3.6-4.3.2-5.2.9z"/><path class="st103" d="M104.2 111.4l4.4 2.9s-2.3 1.1-3.3 3.4l-1.1-6.3zM105.3 117.8v-.1l-1.1-6.2 4.4 2.9c0-.1-2.3 1-3.3 3.4"/><path class="st12" d="M104.2 111.4l1.1 6.4-5.1 2.3zM100.2 120.1l5.1-2.3-1.1-6.4z"/><path class="st14" d="M110.3 118.2c.1 0 .8.4 2.2.4h.5l3.9.5.8.9-3.5 5.4-3.9-7.2zM114.2 125.3l-4-7.1s.9.5 2.7.4l3.9.5.8.9-3.4 5.3z"/><path class="st82" d="M105.4 117.8l4.9.4-2.8 4.6zM105.4 117.8l2.1 5 2.8-4.6zM107.5 122.8l2.8-4.6 4 7.1zM114.2 125.3l-6.7-2.5 2.8-4.6z"/><path class="st104" d="M107.5 122.8l6.7 2.5-5.4 8.2zM107.5 122.8l1.3 10.6 5.4-8.1z"/><path class="st12" d="M100.2 120.1l5.2-2.4 2.1 5.1zM100.2 120.1l7.3 2.7-2.1-5zM103.9 130.3l-3.7-10.2 7.3 2.7 1.3 10.7zM103.9 130.3l-3.7-10.2 7.3 2.7 1.3 10.6z"/><path class="st105" d="M124.3 97.3l-5.8-17 5.3 2.9 4.3 18.6h-.1zM123.7 83.3l-5.2-3.1 5.8 17.1 3.8 4.5z"/><path class="st106" d="M102.7 59.9l-.4 16.3h-.1c-2.6 0-9.8 1.4-9.9 1.4l10.4-17.7zM102.8 59.9L92.3 77.6s7.5-1.4 10-1.4l.5-16.3z"/><path class="st107" d="M113 77.8c-1.5-1.2-10.6-1.6-10.7-1.6l.4-16.3L113 77.8zM113 77.7l-10.2-17.8-.4 16.2c-.1.1 9.1.5 10.6 1.6"/><path class="st108" d="M86.4 59.9c1.1-.3 3.1-.5 5.9-.5 4.8 0 10.4.5 10.4.5L92.3 77.6l-5.9-17.7zM86.4 59.9l5.9 17.6 10.5-17.6s-12.6-1.1-16.4 0"/><path class="st109" d="M75.5 82.4c-.3-.5 10.5-21.6 10.9-22.5l5.9 17.6-2.8.7c-.1.1-11 2-14 4.2zM75.5 82.3c-.9.7 10.9-22.4 10.9-22.4l5.9 17.6-2.8.7c0 .1-11 2-14 4.1"/><path class="st110" d="M72.2 68.5c2.4-3.8 14.1-8.5 14.2-8.6-3.5 6.4-10.8 22.2-10.9 22.4l-3.3-13.8zM72.3 68.5l3.3 13.8s7.3-15.9 10.9-22.4c-.1 0-11.8 4.8-14.2 8.6"/><path class="st9" d="M67.1 101.8l5.2-33.3 3.3 13.8c-.1.1-4.9 1.4-8.5 19.5zM67.1 101.8l5.2-33.3 3.3 13.8c-.1 0-4.9 1.2-8.5 19.5"/><path class="st111" d="M59.5 87.6c0-.1 4.2-11 12.7-19.1l-5.1 34.3-7.6-15.2zM59.5 87.6s4.1-10.9 12.7-19.1L67 102.7l-7.5-15.1z"/><path class="st10" d="M59.5 87.6l7.6 15.1c0 .1-1.4 9-1.3 11.2v1.2-.5 18.9l-6.3-45.9zM65.8 133.4l-6.2-45.8 7.6 15.1s-1.4 9-1.3 11.2v19.5z"/><path class="st4" d="M51.8 105.8c0-3.4 7.6-18.1 7.7-18.2l6.4 46.8-14.1-28.6zM51.8 105.8l14.1 28.6-6.4-46.8s-7.7 14.8-7.7 18.2"/><path class="st112" d="M123.7 83.3c-4.1-3.2-10.7-5.5-10.8-5.5L102.7 60c3.6.2 8.2 2.2 8.2 2.2l12.8 21.1zM123.7 83.3L111 62.2s-4.6-2-8.2-2.2L113 77.7s6.6 2.3 10.7 5.6"/><path class="st113" d="M111 62.2c.1 0 7.9 1.6 12.9 4.8l-.1 16.3L111 62.2zM123.8 67l-.1 16.2-12.7-21s7.8 1.6 12.8 4.8"/><path class="st114" d="M123.7 83.3l6.5 2.3c0 .3 1.3 33.4 1.5 34.5l-8-36.8zM131.7 120.1c-.2-1.1-1.5-34.5-1.5-34.5l-6.5-2.4 8 36.9z"/><path class="st115" d="M130.2 85.6l-6.5-2.4.1-16.3c.2.1 13.3 13.7 17.1 26.3l-10.7-7.6zM140.9 93.3l-10.7-7.7-6.5-2.4.1-16.2s13.2 13.6 17.1 26.3"/><path class="st116" d="M130.2 85.6l10.7 7.7c.1.3 8.4 32 8.1 34.8l-18.8-42.5zM149 128.1l-18.7-42.5 10.7 7.7c-.1 0 8.3 32 8 34.8"/><path class="st117" d="M131.7 120.1l-1.5-34.5 18.8 42.5zM131.7 120.1l17.3 8-18.8-42.5z"/><path class="st15" d="M120.6 157.1s.6-1 4.3-6.7c.1-.2 6-18.6 6.8-30.3l.6 54.5-11.7-17.5zM120.6 157.1s.6-.9 4.3-6.7c0 0 6-18.4 6.8-30.3l.6 54.5-11.7-17.5z"/><path class="st118" d="M131.7 120.1l17.3 8c0 .3.9 31.7 5.2 43.5l-22.5-51.5zM149 128.1s.9 31.6 5.2 43.5l-22.5-51.5 17.3 8z"/><path class="st119" d="M132.1 154.1l-.4-34 22.5 51.5zM154.2 171.6l-22.1-17.5-.4-34z"/><path class="st120" d="M132.1 154.1l22.1 17.5-21.9 3zM132.3 174.6l21.9-3-22.1-17.5z"/><path class="st121" d="M32.2 153.9l.3-.3c4.3-5.8 19.2-47.3 19.3-47.7l7.3 14.8-26.6 33c-.1 0-.2.1-.3.2zM51.8 105.8s-15.6 43.7-19.6 48.1l26.9-33.3-7.3-14.8z"/><path class="st122" d="M50.9 131l8.2-10.4 6.8 13.8s-.5 2.4.1 4.4l3.3 12.1c0 .1 3.5 7.4 5.7 10.3l.1.1L50.9 131zM75.1 161.3L50.9 131l8.2-10.4 6.8 13.8s-.5 2.4.1 4.4c.6 2 3.3 12.1 3.3 12.1s3.5 7.5 5.8 10.4"/><path class="st123" d="M56.9 169.5l-6-38.5 18.4 46.9zM69.3 177.9l-12.4-8.4-6-38.5z"/><path class="st124" d="M50.9 131l24.3 30.3c1.7 2.5 3.9 4.5 4 4.5l-9.8 12.1L50.9 131zM79.1 165.8s-2.3-2-4-4.5L50.9 131l18.4 46.9 9.8-12.1z"/><path class="st125" d="M44.5 162.2l8.4-18.1 4 25.5zM44.5 162.2l8.4-18.1 4 25.4z"/><path class="st126" d="M42.8 140.8l8.1-9.8 2 13.1-8.4 18.1zM42.8 140.8l1.7 21.4 8.4-18.1-2-13.1z"/><path class="st127" d="M32.2 153.9l10.6-13.1 1.7 21.4zM32.2 153.9l12.3 8.3-1.7-21.4z"/><path class="st128" d="M115.7 162.8l2.7-2.6 2.2-3.1 11.7 17.4v.1zM115.7 162.8l16.6 11.8-11.7-17.5-2.2 3.1z"/><path class="st129" d="M94.6 152.8c-2.1-.3-4-1-4.1-1-.9-.3-3.3-2.1-3.4-2.1-.3-1.1 0-4.1 0-4.1.6-.1 1.2-.1 1.7-.1 3.1 0 4.7.7 4.7.7.2.1.6.2 1.2.2 1.1 0 2.7-.2 4-.4.7-.1 1.3-.2 1.7-.2h.3c1.8 0 5.2 1 5.2 1l.6 1.8c-3.6 3.1-6.5 3.4-6.5 3.4-2 .7-5.3.8-5.4.8zM87.2 145.6s-.3 2.9 0 4.1c0 0 2.4 1.8 3.4 2.1 0 0 1.9.8 4.1 1 0 0 3.4-.2 5.6-.8 0 0 2.8-.3 6.5-3.4l-.6-1.8s-3.8-1.2-5.5-1c-1.7.2-6.1 1-7 .4-.1 0-2.2-.9-6.5-.6"/><path class="st34" d="M66 128.3l7.7-10.9c3.7 1.6 5.2 1.7 5.2 1.7l1.5 2.7-6.7 20.5-7.7-14zM66 128.3l7.7 14 6.7-20.5-1.5-2.7s-1.5 0-5.2-1.7L66 128.3z"/><path class="st130" d="M112.5 117.5l-1-1 .5-1 1.4.3.5.6-1.4 1.1zm-1-1l1 .9 1.5-1-.5-.6-1.4-.3-.6 1zM112.6 117.3l1.4-.9-.6-.6-1.4-.3-.5 1 1 .9z"/><g class="st131"><defs><path id="SVGID_7_" d="M111 114.7h2.1v1.9H111z"/></defs><clipPath id="SVGID_8_"><use xlink:href="#SVGID_7_" overflow="visible"/></clipPath><path class="st132" d="M112 116.7s-.5-.1-.8-.4c-.2-.2-.2-.5-.2-.8.1-.6.5-.7.9-.7s1 .3 1.1.7c.1.4.1.7-.1.9-.2.2-.6.3-.9.3z"/></g><g class="st131"><defs><path id="SVGID_9_" d="M111 114.7h2v1.9h-2z"/></defs><clipPath id="SVGID_10_"><use xlink:href="#SVGID_9_" overflow="visible"/></clipPath><path class="st133" d="M112 116.7s-1.1-.1-1-1.2c.2-1.1 1.8-.9 2 0 .2.9-.4 1.2-1 1.2"/></g><path class="st134" d="M86.9 111.4s-3.6-1.8-6.2-1.8l3.2-2.5 3 4.3zM86.9 111.4s-3.6-1.8-6.2-1.9l3.2-2.5 3 4.4z"/><path class="st130" d="M80.7 116.7l-.6-1.5.3-.6 2.3 1.2-.9.9zM80.1 115.2l.6 1.5h1.1l.9-.9-2.3-1.2z"/><g class="st131"><defs><path id="SVGID_11_" d="M80.5 114.1h2.2v2.2h-2.2z"/></defs><clipPath id="SVGID_12_"><use xlink:href="#SVGID_11_" overflow="visible"/></clipPath><path class="st135" d="M81.8 116.3c-.1 0-.8 0-1.1-.4-.2-.2-.2-.6-.1-1 .1-.5.4-.7.9-.7.3 0 .8.2 1 .5.2.2.2.4.2.6-.2.7-.2.7-.9 1z"/></g><g class="st131"><defs><path id="SVGID_13_" d="M80.5 114.1h2.1v2.1h-2.1z"/></defs><clipPath id="SVGID_14_"><use xlink:href="#SVGID_13_" overflow="visible"/></clipPath><path class="st136" d="M81.8 116.2s-1.6 0-1.2-1.4 2.2-.4 2 .3c-.1.8-.1.9-.8 1.1"/></g><path class="st6" d="M82.7 146.2s2.4-.3 4.5-.6c0 0-.4 3.2 0 4.1l-4.5-3.5zM87.2 145.6s-.4 3.2 0 4.1l-4.5-3.5s2.4-.3 4.5-.6"/></g></g></svg>