<svg xmlns="http://www.w3.org/2000/svg" width="192" height="234" viewBox="0 0 192 234"><style type="text/css">.st0{fill:#F2F2F2;} .st1{fill:#D54339;} .st2{fill:#431412;} .st3{fill:#2C1311;} .st4{fill:#6C1111;} .st5{fill:#551112;} .st6{fill:#250E11;} .st7{fill:#0E0A0C;} .st8{fill:#AF625A;} .st9{fill:#701211;} .st10{fill:#C05B4B;} .st11{fill:#7D1719;} .st12{fill:#9E3C3C;} .st13{fill:#D76C71;} .st14{fill:#D47780;} .st15{fill:#E89184;} .st16{fill:#D5A9A6;} .st17{fill:#FBE9E4;} .st18{fill:#F5BDB0;} .st19{fill:#F498A1;} .st20{fill:#F7A9AA;} .st21{fill:#F69C8F;} .st22{fill:#F8B1A4;} .st23{fill:#F7AEA8;} .st24{fill:#F8C5C5;} .st25{fill:#F9CACF;} .st26{fill:#EFB1C0;} .st27{fill:#EDAEB4;} .st28{fill:#EAA2AA;} .st29{fill:#F5A2B1;} .st30{fill:#E3808D;} .st31{fill:#E67067;} .st32{fill:#991E22;} .st33{fill:#F495A1;} .st34{fill:#A94034;} .st35{fill:#EE8992;} .st36{fill:#C5736E;} .st37{fill:#B66877;} .st38{fill:#6D1210;} .st39{fill:#8F3220;} .st40{fill:#BA6A5C;} .st41{fill:#8E4736;} .st42{fill:#C7746F;} .st43{fill:#F1A794;} .st44{fill:#E49996;} .st45{fill:#88484F;} .st46{fill:#F3A2A2;} .st47{fill:#C7344C;} .st48{fill:#B42E46;} .st49{fill:#AD4755;} .st50{fill:#D44B65;} .st51{fill:#2A1110;} .st52{fill:#401212;} .st53{fill:#351414;} .st54{fill:#DB7377;} .st55{fill:#781216;} .st56{fill:#070707;} .st57{fill:#281010;} .st58{fill:#160D10;} .st59{fill:#D2898C;} .st60{fill:#D37E80;} .st61{fill:#9B6060;} .st62{fill:#F6ACB7;} .st63{fill:#F7C5CB;} .st64{fill:#F6A4A6;} .st65{fill:#DE948D;} .st66{fill:#AF6F6C;} .st67{fill:#531516;} .st68{fill:#C26D73;} .st69{fill:#B05B62;} .st70{fill:#EA9FA3;} .st71{fill:#C63D48;} .st72{fill:#F27C80;} .st73{fill:#99414F;}</style><path class="st0" d="M0 0h192v234H0z"/><path class="st1" d="M192 215.5L172.5 234H192z"/><path class="st2" d="M96 94.3l6.6-5 3.4.8 1.8 4.2z"/><path class="st3" d="M90.6 96.6l5.4-2.3 6.6-5s-4.7-1-5.4-1.3c-.8-.3-6.6 8.6-6.6 8.6"/><path class="st4" d="M111.3 96.6l-3.5-2.3-1.8-4.2 3.5-2.7z"/><path class="st5" d="M97.1 89.3l12.4-1.9-3.5 2.7-3.4-.8z"/><path class="st6" d="M115.9 82.1l-3.4 3.6-10.6-1.8 2.1-3.5z"/><path class="st7" d="M89.1 87.4l5.6-6.2 9.3-.8-2.1 3.5h-7.5z"/><path class="st8" d="M90.6 96.6l-1.5-9.2 5.3-3.5 2.7 5.4z"/><path class="st9" d="M109.5 87.4l3-1.7-10.6-1.8-4.8 5.4z"/><path class="st10" d="M94.4 83.9h7.5l-4.8 5.4z"/><path class="st11" d="M112.5 85.7l-1.2 10.9-1.8-9.2zM90.6 96.6l11.3 5.4v-7.7H96z"/><path class="st12" d="M111.3 96.6l-9.4 5.4v-7.7h5.9z"/><path class="st13" d="M111.3 96.6l4.6 9.9-14-4.5z"/><path class="st14" d="M106 123.2l9.9-16.7-14-4.5z"/><path class="st15" d="M90.6 96.6l-17.5 4.9V88.1z"/><path class="st16" d="M89.1 87.4L77.4 68.3l-7.8 8.9z"/><path class="st17" d="M73.1 88.1l16-.7-19.5-10.2z"/><path class="st18" d="M90.6 96.6l-17.5-8.5 16-.7zM73.1 114.3v-12.8l17.5-4.9z"/><path class="st19" d="M101.9 102l-28.8 12.3 17.5-17.7z"/><path class="st20" d="M106 123.2l-32.9-8.9 28.8-12.3z"/><path class="st21" d="M70.8 130.7l2.3-16.4 32.9 8.9z"/><path class="st22" d="M96.2 150.8l9.8-27.6-35.2 7.5z"/><path class="st23" d="M76.6 146.7l19.6 4.1-25.4-20.1z"/><path class="st24" d="M94.7 81.2L77.4 68.3l11.7 19.1z"/><path class="st25" d="M104 80.4l-9.3-20.8-17.3 8.7 17.3 12.9z"/><path class="st26" d="M115.9 82.1L104 80.4l-9.3-20.8 21.2 1.3z"/><path class="st27" d="M131.1 83c-.6.4-15.2-.9-15.2-.9V60.9l13.9 8.2 1.3 13.9z"/><path class="st28" d="M125.8 92.9l5.3-9.9-15.2-.9z"/><path class="st29" d="M133.9 106.5l-8.1-13.6 4.3 12.6z"/><path class="st30" d="M115.9 106.5l14.2-1-4.1 4.4h-7.8z"/><path class="st31" d="M133.9 106.5l-3.8-1-4.1 4.4 6.7 1.3zM119.2 113.3s-4.7 0-4.7-.7 1.4-6.2 1.4-6.2l2.3 3.4 1 3.5z"/><path class="st32" d="M124.9 113.3l1.1-3.4 6.7 1.3-4.9 3.1z"/><path class="st33" d="M115.9 106.5l9.9-13.6s5.4 12.5 4.3 12.5c-1.1.1-14.2 1.1-14.2 1.1"/><path class="st34" d="M115.9 82.1l-4.6 14.5 1.2-10.9z"/><path class="st35" d="M115.9 106.5l3.3-20.8 6.6 7.2z"/><path class="st36" d="M115.9 82.1l3.3 3.6-3.3 20.8-4.6-9.9z"/><path class="st37" d="M114.5 112.6l-8 9.9 9.4-16z"/><path class="st2" d="M129.8 97.3c-.1-.4 6.5-4.4 6.5-4.4l4.4 3.2v5.4s-5.2.1-5.6-.3c-.4-.4-5.6-2.1-5.6-2.1l-.7-1.2 1-.6z"/><path class="st6" d="M131.1 83v6.3l6.8-.5 4.6 3.2-1.2-5.4-4.5-1.9z"/><path class="st38" d="M125.8 92.9l5.3-3.6V83z"/><path class="st39" d="M128.8 97.9l7.5-5-5.2-3.6-5.3 3.6z"/><path class="st40" d="M140.7 96.1l-9.6-6.8 6.8-.5z"/><path class="st41" d="M142.5 92v5.9l-1.8 3.6v-5.4l-2.8-7.3z"/><path class="st42" d="M133.9 106.5l6.8-5-5.8-1.8-5.4-.6z"/><path class="st43" d="M70.8 130.7l-5.2 2.1 5.2 48.4 5.8-34.5z"/><path class="st44" d="M96.2 150.8l-25.4 30.4 5.8-34.4z"/><path class="st45" d="M136.3 149.6l-7.8 5.5-32.3-4.3z"/><path class="st46" d="M109.5 127.3l-3.5-4.1-9.8 27.6z"/><path class="st47" d="M123 120.7l-13.5 6.6 15.4-2.1z"/><path class="st48" d="M129.9 120.2c-.9.3-6.9.4-6.9.4l1.9 4.6 3.9.6 1.1-5.6z"/><path class="st49" d="M134.8 130.7l-6-4.9 1-5.1 5 5.1z"/><path class="st50" d="M109.5 127.3l14.6 2.5 10.7.9-6-4.9-3.9-.6z"/><path class="st51" d="M106.5 122.5l12.7-9.2h5.7v4.6l-17.1 7.3-1.8-2z"/><path class="st52" d="M128.5 119.3l-3.6-1.4v-4.6l2.9 1z"/><path class="st53" d="M137.9 128l-3.1-8.1-7-5.6.7 5z"/><path class="st54" d="M119.2 113.3l-12.7 9.2 8-9.9z"/><path class="st55" d="M118.2 109.9h7.8l-1.1 3.4h-5.7z"/><path class="st56" d="M73.1 114.3L49.5 95.1l23.6-7z"/><path class="st57" d="M69.6 77.2l-10.9-1.9-9.2 19.8 23.6-7z"/><path class="st58" d="M77.4 68.3l.8-7.4-19.5 14.4 10.9 1.9z"/><path class="st57" d="M94.7 59.6l-4-3.7-12.5 5-.8 7.4z"/><path class="st58" d="M115.9 60.9v-5L104 52.8l-13.3 3.1 4 3.7z"/><path class="st57" d="M129.8 69l2-3.1-15.9-10.1v5.1z"/><path class="st7" d="M141.3 86.6l-9.5-20.7-2 3.1z"/><path class="st26" d="M131.1 83l10.2 3.6L129.8 69z"/><path class="st59" d="M109.5 127.3L123 150l-26.8.8z"/><path class="st60" d="M123 150l11.8-19.3-25.3-3.4z"/><path class="st53" d="M131.8 134s-5.5-2-5.8-2c-.3 0-4.6 1-4.6 1l4.4 4.9 6-3.9z"/><path class="st61" d="M136.3 149.6l-1.5-18.9L123 150z"/><path class="st62" d="M133.9 106.5l7.4 1.2-.6-6.2z"/><path class="st63" d="M134.8 119.9l6.5-12.2-7.4-1.2-1.2 4.7z"/><path class="st64" d="M127.8 114.3l4.9-3.1 2.1 8.7z"/><path class="st65" d="M137.9 128l4.6-2.2v-11.5l-1.2-6.6-6.5 12.2z"/><path class="st43" d="M136.3 149.6l5-12.6 1.2-11.2-4.6 2.2-3.1 2.7z"/><path class="st33" d="M107.8 125.2l17.1-7.3-1.9 2.8-13.5 6.6z"/><path class="st66" d="M128.5 119.3l-3.6-1.4-1.9 2.8h6.8z"/><path class="st33" d="M134.8 130.7l3.1-2.7-8.1-7.3 5 6z"/><path class="st67" d="M136.3 149.6l-8.5 10.8-14.2 10.3-17.4-19.9 32.3 4.3z"/><path class="st68" d="M70.8 181.2l42.8-10.5-17.4-19.9z"/><path class="st69" d="M126.6 176.3l2.2-14.5-.3-2.2-14.9 11.1z"/><path class="st57" d="M49.5 95.1l1.9 24.8 12-13.4z"/><path class="st56" d="M65.6 132.8l-7.6-5.5-1.5-13.1-5.1 5.7 3.2 15z"/><path class="st57" d="M68.3 157.6l-13.7-22.7 11-2.1z"/><path class="st70" d="M73.1 114.3l-9.7-7.8 1.3 8 .9 4.1 5.2 12.1z"/><path class="st71" d="M56.5 114.2l6.9-7.7 1.6 9.1-7 11.7z"/><path class="st72" d="M65.6 132.8l-7.6-5.5 7-11.7z"/><path class="st73" d="M70.8 130.7l-5.2-12.1-.6-3 .6 17.2z"/></svg>