<svg xmlns="http://www.w3.org/2000/svg" xmlns:xlink="http://www.w3.org/1999/xlink" width="192" height="234" viewBox="0 0 192 234"><style type="text/css">.st0{fill:#F2F2F2;} .st1{fill:#D54339;} .st2{clip-path:url(#SVGID_2_);} .st3{clip-path:url(#SVGID_4_);} .st4{clip-path:url(#SVGID_6_);fill:#C79270;} .st5{clip-path:url(#SVGID_6_);fill:#AE605C;} .st6{clip-path:url(#SVGID_6_);fill:#4F3127;} .st7{clip-path:url(#SVGID_6_);fill:#AC7C65;} .st8{clip-path:url(#SVGID_6_);fill:#D9A995;} .st9{clip-path:url(#SVGID_6_);fill:#C29075;} .st10{clip-path:url(#SVGID_6_);fill:#403024;} .st11{clip-path:url(#SVGID_6_);fill:#F0BDA8;} .st12{clip-path:url(#SVGID_8_);fill:#DCAD9B;} .st13{clip-path:url(#SVGID_8_);fill:#A3705D;} .st14{clip-path:url(#SVGID_8_);fill:#976252;} .st15{clip-path:url(#SVGID_8_);fill:#A36E5E;} .st16{clip-path:url(#SVGID_8_);fill:#DBA992;} .st17{clip-path:url(#SVGID_8_);fill:#CB9980;} .st18{clip-path:url(#SVGID_8_);fill:#D6A084;} .st19{clip-path:url(#SVGID_8_);fill:#B48164;} .st20{clip-path:url(#SVGID_8_);fill:#EBB9A2;} .st21{clip-path:url(#SVGID_8_);fill:#F4C7B0;} .st22{clip-path:url(#SVGID_8_);fill:#DDAA8F;} .st23{clip-path:url(#SVGID_8_);fill:#E1AF98;} .st24{clip-path:url(#SVGID_8_);fill:#EAB49A;} .st25{clip-path:url(#SVGID_8_);fill:#D49E82;} .st26{clip-path:url(#SVGID_8_);fill:#E9BA9E;} .st27{clip-path:url(#SVGID_8_);fill:#CA9881;} .st28{clip-path:url(#SVGID_8_);fill:#EFBFA8;} .st29{clip-path:url(#SVGID_8_);fill:#E9B59F;} .st30{clip-path:url(#SVGID_8_);fill:#D7A88C;} .st31{clip-path:url(#SVGID_8_);fill:#AA7C65;} .st32{clip-path:url(#SVGID_8_);fill:#997865;} .st33{clip-path:url(#SVGID_8_);fill:#C29075;} .st34{clip-path:url(#SVGID_8_);fill:#AF7F68;} .st35{clip-path:url(#SVGID_8_);fill:#C79270;} .st36{clip-path:url(#SVGID_8_);fill:#F2C2AB;} .st37{clip-path:url(#SVGID_8_);fill:#EAB198;} .st38{clip-path:url(#SVGID_8_);fill:#D29B7F;} .st39{clip-path:url(#SVGID_8_);fill:#B68E75;} .st40{clip-path:url(#SVGID_8_);fill:#E19894;} .st41{clip-path:url(#SVGID_8_);fill:#B53A42;} .st42{clip-path:url(#SVGID_8_);fill:#B26E65;} .st43{clip-path:url(#SVGID_8_);fill:#AE605C;} .st44{clip-path:url(#SVGID_8_);fill:#9F544E;} .st45{clip-path:url(#SVGID_8_);fill:#C5957F;} .st46{clip-path:url(#SVGID_8_);fill:#DBA599;} .st47{clip-path:url(#SVGID_8_);fill:#EDB1A6;} .st48{clip-path:url(#SVGID_8_);fill:#E0AB9B;} .st49{clip-path:url(#SVGID_8_);fill:#663123;} .st50{clip-path:url(#SVGID_8_);fill:#6E3325;} .st51{clip-path:url(#SVGID_8_);fill:#C68C76;} .st52{clip-path:url(#SVGID_8_);fill:#ECC0A5;} .st53{clip-path:url(#SVGID_8_);fill:#955C49;} .st54{clip-path:url(#SVGID_8_);fill:#B17C6A;} .st55{clip-path:url(#SVGID_8_);fill:#E2AA95;} .st56{clip-path:url(#SVGID_8_);fill:#D1A18B;} .st57{clip-path:url(#SVGID_8_);fill:#B88572;} .st58{clip-path:url(#SVGID_8_);fill:#CE9D8C;} .st59{clip-path:url(#SVGID_8_);fill:#BF8F7B;} .st60{clip-path:url(#SVGID_8_);fill:#D79889;} .st61{clip-path:url(#SVGID_8_);fill:#CF9F8B;} .st62{clip-path:url(#SVGID_8_);fill:#BAA99F;} .st63{clip-path:url(#SVGID_8_);fill:#D4B8AA;} .st64{clip-path:url(#SVGID_8_);fill:#3E3E3E;} .st65{clip-path:url(#SVGID_8_);fill:#432116;} .st66{clip-path:url(#SVGID_8_);fill:#583122;} .st67{clip-path:url(#SVGID_8_);fill:#533628;} .st68{clip-path:url(#SVGID_8_);fill:#4F3127;} .st69{clip-path:url(#SVGID_8_);fill:#624236;} .st70{clip-path:url(#SVGID_8_);fill:#744938;} .st71{clip-path:url(#SVGID_8_);fill:#B27F6E;} .st72{clip-path:url(#SVGID_8_);fill:#AF8471;} .st73{clip-path:url(#SVGID_8_);fill:#9A7668;} .st74{clip-path:url(#SVGID_8_);fill:#996955;} .st75{clip-path:url(#SVGID_8_);fill:#B5856F;} .st76{clip-path:url(#SVGID_8_);fill:#BD8C7B;} .st77{clip-path:url(#SVGID_8_);fill:#D39F92;} .st78{clip-path:url(#SVGID_8_);fill:#DCC1B6;} .st79{clip-path:url(#SVGID_8_);fill:#B4A19A;} .st80{clip-path:url(#SVGID_8_);fill:#BC8A73;} .st81{clip-path:url(#SVGID_8_);fill:#CC9B8A;} .st82{clip-path:url(#SVGID_8_);fill:#97654E;} .st83{clip-path:url(#SVGID_8_);fill:#7A4C3F;} .st84{clip-path:url(#SVGID_8_);fill:#4A2D1F;} .st85{clip-path:url(#SVGID_8_);fill:#4F3429;} .st86{clip-path:url(#SVGID_8_);fill:#4B2E28;} .st87{clip-path:url(#SVGID_8_);fill:#4D2F23;} .st88{clip-path:url(#SVGID_8_);fill:#61402F;} .st89{clip-path:url(#SVGID_8_);fill:#A68272;} .st90{clip-path:url(#SVGID_8_);fill:#AF7F69;} .st91{clip-path:url(#SVGID_8_);fill:#AC7C65;} .st92{clip-path:url(#SVGID_8_);fill:#9F7964;} .st93{clip-path:url(#SVGID_8_);fill:#D4A088;} .st94{clip-path:url(#SVGID_8_);fill:#F1C5B8;} .st95{clip-path:url(#SVGID_8_);fill:#F0BDA8;} .st96{clip-path:url(#SVGID_8_);fill:#CF987C;} .st97{clip-path:url(#SVGID_8_);fill:#E1A58D;} .st98{clip-path:url(#SVGID_8_);fill:#ECB49B;} .st99{clip-path:url(#SVGID_8_);fill:#F0BCA4;} .st100{clip-path:url(#SVGID_8_);fill:#DBA384;} .st101{clip-path:url(#SVGID_8_);fill:#C89276;} .st102{clip-path:url(#SVGID_8_);fill:#D39B7C;} .st103{clip-path:url(#SVGID_8_);fill:#D49176;} .st104{clip-path:url(#SVGID_8_);fill:#CB9688;} .st105{clip-path:url(#SVGID_8_);fill:#E4967F;} .st106{clip-path:url(#SVGID_8_);fill:#D8AA92;} .st107{clip-path:url(#SVGID_8_);fill:#D78770;} .st108{clip-path:url(#SVGID_8_);fill:#CD8A6D;} .st109{clip-path:url(#SVGID_8_);fill:#544138;} .st110{clip-path:url(#SVGID_8_);fill:#2F1E15;} .st111{clip-path:url(#SVGID_8_);fill:#331912;} .st112{clip-path:url(#SVGID_8_);fill:#1C130F;} .st113{clip-path:url(#SVGID_8_);fill:#30241B;} .st114{clip-path:url(#SVGID_8_);fill:#16120F;} .st115{clip-path:url(#SVGID_8_);fill:#2B201D;} .st116{clip-path:url(#SVGID_8_);fill:#36251A;} .st117{clip-path:url(#SVGID_8_);fill:#28150F;} .st118{clip-path:url(#SVGID_8_);fill:#201812;} .st119{clip-path:url(#SVGID_8_);fill:#403024;} .st120{clip-path:url(#SVGID_8_);fill:#69514A;} .st121{clip-path:url(#SVGID_8_);fill:#AA857B;} .st122{clip-path:url(#SVGID_8_);fill:#B87C74;} .st123{clip-path:url(#SVGID_8_);fill:#9E6A54;} .st124{clip-path:url(#SVGID_8_);fill:#8F5C4B;} .st125{clip-path:url(#SVGID_8_);fill:#A8715C;} .st126{clip-path:url(#SVGID_8_);fill:#D88784;} .st127{clip-path:url(#SVGID_8_);fill:#CB827E;} .st128{clip-path:url(#SVGID_8_);fill:#E4B29B;} .st129{clip-path:url(#SVGID_8_);fill:#513329;} .st130{clip-path:url(#SVGID_8_);fill:#A77761;} .st131{clip-path:url(#SVGID_8_);fill:#D9A995;} .st132{clip-path:url(#SVGID_8_);fill:#1E1A19;} .st133{clip-path:url(#SVGID_8_);fill:#D39681;} .st134{clip-path:url(#SVGID_8_);fill:#DBA083;} .st135{opacity:0.7;clip-path:url(#SVGID_8_);} .st136{clip-path:url(#SVGID_10_);fill:none;stroke:#432116;stroke-linecap:round;stroke-linejoin:round;stroke-miterlimit:10;} .st137{opacity:0.3;clip-path:url(#SVGID_8_);} .st138{clip-path:url(#SVGID_12_);fill:none;stroke:#432116;stroke-linecap:round;stroke-linejoin:round;stroke-miterlimit:10;} .st139{clip-path:url(#SVGID_14_);fill:none;stroke:#432116;stroke-linecap:round;stroke-linejoin:round;stroke-miterlimit:10;} .st140{clip-path:url(#SVGID_16_);fill:none;stroke:#432116;stroke-linecap:round;stroke-linejoin:round;stroke-miterlimit:10;} .st141{clip-path:url(#SVGID_8_);fill:#313634;}</style><path class="st0" d="M0 0h192v234H0z"/><path class="st1" d="M192 215.5L172.5 234H192z"/><defs><path id="SVGID_1_" d="M20.6 52.7H167v146.4H20.6z"/></defs><clipPath id="SVGID_2_"><use xlink:href="#SVGID_1_" overflow="visible"/></clipPath><g class="st2"><defs><path id="SVGID_3_" d="M20.6 52.7H167v146.4H20.6z"/></defs><clipPath id="SVGID_4_"><use xlink:href="#SVGID_3_" overflow="visible"/></clipPath><g class="st3"><defs><path id="SVGID_5_" d="M20.6 52.7H167v146.4H20.6z"/></defs><clipPath id="SVGID_6_"><use xlink:href="#SVGID_5_" overflow="visible"/></clipPath><path class="st4" d="M64.8 143.7c-.2 2.8 0 5.6.8 8.4.4 1.2 2.3.7 1.9-.5-.7-2.6-.9-5.2-.8-7.8.1-1.4-1.8-1.4-1.9-.1M69.1 160.3c4.6.6 9.2.9 13.7 1.9 1.2.3 1.8-1.6.5-1.9-4.7-1.1-9.5-1.4-14.3-2-1.1-.1-1.1 1.8.1 2M76.9 153.2c.8 2.1 2.4 3.9 3.8 5.6.8 1 2.2-.4 1.4-1.4-1.2-1.4-2.6-2.9-3.3-4.7-.5-1.1-2.4-.6-1.9.5M79.3 155.3c1.1 1.1 2.3 2.1 3.4 3.2.9.9 2.3-.5 1.4-1.4-1.1-1.1-2.3-2.1-3.4-3.2-.9-.9-2.3.5-1.4 1.4M66.3 159.9c2.2.6 4.5 1 6.8 1 1.3 0 1.3-2 0-2-2.1 0-4.2-.4-6.2-1-1.3-.3-1.8 1.6-.6 2M108.1 154.3c4.1.9 8.2 1.6 12.2 2.8 1.2.4 1.7-1.5.5-1.9-4-1.2-8.2-1.8-12.2-2.8-1.2-.3-1.7 1.6-.5 1.9"/><path class="st5" d="M81.6 154.3c7.2-1 14.4-1 21.6-.8 1.3 0 1.3-1.9 0-2-7.4-.2-14.8-.2-22.2.8-1.2.3-.6 2.2.6 2M78.8 154.8c1.6 0 3.2-.2 4.8-.6 1.2-.3.7-2.2-.5-1.9-1.4.4-2.8.5-4.3.6-1.3-.1-1.3 1.9 0 1.9"/><path class="st6" d="M96.6 110.4h3.9c1.3 0 1.3-2 0-2h-3.9c-1.3 0-1.3 2 0 2M98.1 111.3h3.4c1.3 0 1.3-2 0-2h-3.4c-1.2.1-1.2 2 0 2M102.1 110c2 .2 4.1.2 6.1.2 1.3 0 1.3-2 0-2-2 0-4.1 0-6.1-.2-1.3-.1-1.3 1.8 0 2M104.5 108.9c.4.3.8.5 1.3.5s1-.4 1-1c0-.5-.4-1-1-1-.1 0-.3 0 0 0h.1c-.1-.1-.1 0 0 0-.4-.4-1-.4-1.4 0-.3.5-.4 1.1 0 1.5M104.5 108.3c.1.1.3.3.5.3.1.1.2.1.4.2h.1c-.3-.1 0 0 0 0 .5.2 1.1.1 1.3-.4.3-.4.1-1.1-.4-1.3l-.6-.3c-.2-.1.2.1 0 0s.1.1 0 0c-.4-.4-1-.4-1.4 0-.2.5-.3 1.1.1 1.5M104.8 110.3c.7.2 1.5.2 2.2.2 1.3 0 1.3-2 0-2-.6 0-1.2 0-1.7-.2-1.2-.3-1.7 1.6-.5 2M112.1 109.8c1.4.2 2.9.4 4.3.8 1.2.3 1.8-1.6.5-1.9-1.6-.4-3.2-.6-4.8-.8-1.2-.3-1.2 1.7 0 1.9M70.5 114.1c1.8-.2 3.6-.1 5.4-.4 1.2-.3.7-2.2-.5-1.9-1.6.3-3.2.2-4.9.4-1.3.1-1.3 2 0 1.9M67.8 113.5l3.6-.6c1.3-.2.7-2.1-.5-1.9l-3.6.6c-1.3.2-.7 2.1.5 1.9M65.7 114.7c1.2.2 2.4.2 3.6.2-.1-.6-.2-1.3-.3-1.9-.9.2-1.8.3-2.7.4v2h.1c.4 0 .9-.3 1-.7 0-.2.1-.4.1-.6 0-.4-.3-.9-.7-1-.4 0-.7-.2-1-.5l-.6 1.4c3.9-1.6 8.4-1.6 12.1.5 1.1.6 2.1-1.1 1-1.7-4.1-2.3-9.3-2.5-13.6-.7-.5.2-1 .9-.6 1.4.6.8 1.2 1.2 2.2 1.4-.2-.3-.5-.6-.7-1v.1l1-.7h-.1c-1.2.1-1.3 2 0 2 1.1-.1 2.1-.2 3.2-.4s.8-1.9-.3-1.9c-1 0-2.1 0-3.1-.2-1.3-.2-1.9 1.7-.6 1.9"/><path class="st7" d="M58.3 108.5c-.3 2-2.3 3-2.8 4.9-.1.6.3 1.3 1 1.2 2.9-.3 5.5-1.7 8-3.3.8-.5.5-1.9-.5-1.8-1.9.2-3.9.2-5.6 1.1-.5.2-.6.9-.4 1.3 1.3 2 3.6 2.9 5.7 1.7 1.1-.6.1-2.3-1-1.7-1.2.6-2.3 0-3-1-.1.4-.2.9-.4 1.3 1.4-.7 3.1-.7 4.6-.9-.2-.6-.3-1.2-.5-1.8-2.1 1.3-4.4 2.7-7 3 .3.4.6.8 1 1.2.5-1.9 2.5-2.9 2.8-4.9.2-1-1.7-1.5-1.9-.3M59.8 119.8c.1.6.4 2.3-.4 2.6-.9.3-1.9.3-2.9.4-1.1.2-.8 1.6 0 1.9 3.8 1.5 8 2.3 12.1 2.6 1 .1 1.4-1.4.5-1.8-1.7-.8-3.6-1.3-4.8-2.8-1.5-2-1.6-5.1-1.6-7.6 0-1.3-2-1.3-2 0 0 2.8.3 5.6 1.6 8.1 1.2 2.3 3.6 2.9 5.8 4 .2-.6.3-1.2.5-1.8-3.9-.2-7.9-1.1-11.6-2.5v1.9c1.2-.2 2.9-.1 3.9-1 1.1-1 .9-2.6.8-3.9 0-1.3-2-1.3-1.9-.1M63.2 120.7c.4-1.6.6-3.3.6-5 0-1.3-2-1.3-2 0 0 1.5-.2 3-.6 4.5-.2 1.2 1.7 1.7 2 .5"/><path class="st8" d="M75.8 125.8c1-.2 2-.5 3-.8.9-.3 1.7-.7 2.6-.9 1.2-.3.7-2.2-.5-1.9-.9.2-1.7.6-2.6.9-1 .3-2 .6-3 .8-1.3.3-.7 2.2.5 1.9M72.1 123.1c2.3.2 4.7-.2 7-.2 1.3 0 1.3-2 0-2-2.3 0-4.7.3-7 .2-1.3-.1-1.3 1.9 0 2M126.5 125c.4.9.5 1.8.7 2.7.2 1.1 1.9.8 1.9-.3.1-1.4-.2-2.8-.3-4.1-.1-1.3-2-1.3-2 0 0 .7 0 1.4.2 2 .4 1.2 2.3.7 1.9-.5-.2-.5-.2-1-.2-1.5h-2c.1 1.4.4 2.8.3 4.1.6-.1 1.3-.2 1.9-.3-.2-1.1-.4-2.2-.9-3.2-.3-1.1-2-.1-1.5 1.1M77.5 154.5c.3.3.5.4.9.4.5 0 1-.5 1-1s-.4-1-1-1c-.3 0 .8.4.5.2-.4-.4-1-.4-1.4 0-.4.3-.4 1 0 1.4M78.4 154.8c.2.1.4.3.5.5.1-.4.2-.9.4-1.3-.7.4-1.6.3-2.3.5-1.2.3-.7 2.2.5 1.9 1-.2 1.9-.2 2.8-.7.4-.3.7-.9.4-1.3-.3-.5-.7-.9-1.2-1.2-1.2-.7-2.2 1-1.1 1.6"/><path class="st9" d="M76.6 153.1c.8.5 3 1.5 2.8 2.7-.2 1.2 1.7 1.8 1.9.5.5-2.5-1.9-3.8-3.7-5-1.1-.5-2.1 1.2-1 1.8M108.8 117.2c1.6.3 3.2.6 4.8 1.1 1.2.4 1.7-1.5.5-1.9-1.6-.5-3.2-.8-4.8-1.1-1.2-.2-1.7 1.7-.5 1.9M102.9 115.5c1.1 0 2.1 0 3.2.1-.1-.6-.2-1.3-.3-1.9-.6.2-1.2.2-1.9.3-1.1.2-.8 1.9.3 1.9h3.7c1.3 0 1.3-2 0-2h-3.7c.1.6.2 1.3.3 1.9.6-.1 1.3-.1 1.9-.3 1.1-.3.8-1.8-.3-1.9-1.1-.1-2.1-.1-3.2-.1-1.3 0-1.3 2 0 2M97.1 114.1c2.3.1 4.4.9 6.5 1.5 1.2.4 1.7-1.5.5-1.9-2.3-.7-4.6-1.5-7.1-1.6-1.1-.1-1.1 1.9.1 2"/><path class="st10" d="M52.9 96.8h.7c.5 0 1-.4 1-1 0-.5-.4-1-1-1h-.7c-.5 0-1 .4-1 1 .1.6.5 1 1 1M53.4 96.8c1.4.1 2.8.6 4.2.9 1.2.3 1.8-1.6.5-1.9-1.6-.3-3.1-.8-4.7-.9-1.2-.1-1.2 1.8 0 1.9M52.5 100.2c.7 1.3 1.4 2.6 2.1 4 .2.5 2.3 4.6 1.5 5.1l1.2.2c-.7-.9-.8-2.5-1.1-3.5-.4-1.3-.2-2.5-.7-3.7-.5-1.2-2.2-.2-1.7 1 .3.7 0 1.3.2 2s.4 1.4.6 2.2c.4 1.2.5 2.4 1.3 3.4.3.3.8.4 1.2.2 1.8-1.1.9-3.6.3-5.2-.8-2.3-2-4.4-3.2-6.5-.6-1.3-2.3-.3-1.7.8M119.8 73.3c5.5 5.9-14 14.7-31.2 14.7s-28.9-6.6-28.9-14.7c0-2 2.7-2.4 4.3-4.2 4.7-5.3 11.7-10.5 24.7-10.5 11.8 0 15.8 3.1 21.1 7.6 2.4 2.2 7.4 4.3 10 7.1M56.4 82.2c1.9.1 3.5-1.1 5.3-1.2l-1-1c.1 1.2 0 2.4 0 3.6 0 1.2.3 2.4.3 3.6l1-1c-.6 0-1-.6-1.4-1v1.5c.6-.1.9-.9.6-1.4-1.1-2.1-3.1-1.9-4.8-3.1-1-.8-2 .9-1 1.6 1.3.9 3.3.8 4.1 2.3l.6-1.4c-.4.1-.6.2-.8.5-.4.4-.4 1 0 1.4.8.9 1.5 1.5 2.8 1.6.5 0 1-.5 1-1 0-1-.3-2-.3-3.1-.1-1.3.2-2.7 0-4-.1-.5-.4-1-1-1-1.8.1-3.5 1.3-5.3 1.2-1.4-.1-1.4 1.9-.1 1.9M122.3 79.2c-.6.6-.8 1.1-.9 1.9l1-1c-.8 0-1.8.3-2.1 1.2-.2.9.2 1.7.8 2.3.2.3.6.3 1 .3.5-.1.9-.5 1-1 .3-1.2-1.6-1.8-1.9-.5v.1c.1-.1.2-.3.3-.4.1 0 .1-.1.2-.1.3.1.6.2 1 .3-.1-.2-.2-.3-.3-.5 0 .1 0 .2-.1.3-.2.1-.2.1 0 0h.3c.6 0 1-.4 1-1 0-.2.1-.3.3-.5.7-.9-.7-2.3-1.6-1.4M122 81.6c3.4 6.2 1.5 13.5 2.5 20.2.2 1.3 2.1.7 1.9-.5-.5-3.6.2-7.3-.3-11-.5-3.4-.7-6.7-2.4-9.7-.6-1.1-2.3-.1-1.7 1M125.9 103.7c.6.7 1.6.9 2.5.6.5-.2.8-.7.7-1.2-.1-.5-.7-.8-1.2-.7-.1 0-.2.1-.3.1.3 0-.3 0 0 0h-.2c.1 0 .1 0 0 0-.1-.1-.1-.1 0 0l-.1-.1c-.4-.4-1-.4-1.4 0-.4.3-.3.8 0 1.3M128.3 104.6c1.3 0 1.3-2 0-2-1.2.1-1.2 2 0 2M124.6 106.3c0 1.8.2 3.7.5 5.5.2 1.3 2.1.7 1.9-.5-.3-1.6-.4-3.3-.5-5 0-1.3-1.9-1.3-1.9 0"/><path class="st4" d="M67.1 153.5c3.1-.5 6.3-.8 9.3-.1 1.2.3 1.8-1.6.5-1.9-3.4-.8-7-.5-10.4.1-1.1.3-.6 2.2.6 1.9"/><path class="st11" d="M99.9 80c.5 2.6-2.7 2.3-4.4 2.3-2.1 0-4.5-.2-6.3.9-1.9 1.1-1.9 3.7-.6 5.3 1.7 2.1 5.8 1.6 8.1 1.3 1.3-.2.7-2.1-.5-1.9-1.7.3-7.1.8-6.4-2.2.4-1.7 3.6-1.4 4.8-1.4 3.4 0 8.3 0 7.3-4.8-.4-1.3-2.3-.8-2 .5M101.4 90c1.8-.2 5.8-.5 5.9-3 0-.6-.5-.9-1-1-1-.1-2 .2-3 .2-.6 0-1.2-.8-1.7-1.2-.6-.5-1.5-1.2-1-2.1-.6-.1-1.2-.2-1.8-.2.4 1.2.9 2.3 1.1 3.6.2-.4.3-.7.5-1.1-1.2.6-1.6 1.7-1.5 3 .1 1.3 2.1 1.3 2 0 0-.6 0-1 .6-1.3.4-.2.5-.7.5-1.1-.2-1.2-.6-2.4-1.1-3.6-.3-.8-1.4-1-1.8-.2-1.2 2.3.6 3.9 2.2 5.3 1.7 1.4 3.3.6 5.2.8l-1-1c0-.1-.3.2-.5.3-.3.2-.7.2-1.1.3-.7.2-1.5.3-2.3.4-1.5.1-1.5 2.1-.2 1.9M82.5 88.5c.1-1 0-2-.1-2.9 0-.8.4-3.3 1.3-1.6.1-.4.2-.9.4-1.4-1 .6-1.5 1.5-.9 2.7.6 1.2 2.2 1.5 2.9 2.5.6.8 1.7.5 1.8-.5.2-2-1-3.2-2.8-3.7-.7-.2-1.5.5-1.2 1.2.7 2 2.2 3.5 2.9 5.4.2-.4.5-.8.7-1.2-1.7.3-3.1 1.5-4.7 1.7-.7-.2-.8-.1-.2.4.1-.3.3-.5.4-.8.3-.5.4-1.1.4-1.7 0-.8-.8-1.2-1.5-.9-1.2.6-1.8 1.9-2.2 3.1-.4 1.2 1.5 1.7 1.9.5.2-.8.5-1.6 1.3-1.9l-1.5-.9c.1 1.3-2 3.1 0 3.9 2.3.9 4.4-1.2 6.6-1.5.5-.1.9-.8.7-1.2-.7-1.9-2.2-3.4-2.9-5.4l-1.2 1.2c1 .3 1.5.7 1.4 1.8.6-.2 1.2-.3 1.8-.5-.3-.5-.8-.8-1.2-1.1-.4-.3-.7-.5-1.1-.8-.2-.1-.3-.3-.4-.4-.2-.2-.2-.3 0-.2.5-.3.6-.9.4-1.4-.8-1.7-2.3-2.3-3.8-1-1.9 1.6-.8 4.5-1 6.5-.3 1.4 1.6 1.4 1.8.1M83.2 82.8c1-.3 1.9-.4 2.9-.8s.4-1.8-.5-1.8c-1 0-2.2.3-2.7 1.2-.7 1.1-.1 2 .9 2.7v-1.7c-1.5.8-2 2.3-2.4 3.9-.4 1.2 1.5 1.7 1.9.5.3-1 .5-2.1 1.5-2.7.7-.4.6-1.3 0-1.7-.3.1-.3.1 0 0 .2-.1.5-.1.8-.1-.2-.6-.3-1.2-.5-1.8-.7.3-1.6.3-2.4.6-1.2.1-.7 2 .5 1.7M112.2 107.3c1.1-2.6.6-5.5 1.9-8.2.4-.9 1.4-1.5 1.8-2.5.4-.9.4-2.7 1.3-3.3 1.2-.9 3.7-.3 5.1-.4 1.3-.1 2.4-.7 2.8-2 .2-.8-.5-1.3-1.2-1.2-.6.1-1.2.2-1.8.4-1.2.4-.7 2.3.5 1.9.6-.2 1.2-.3 1.8-.4l-1.2-1.2c-.3 1.1-3.5.6-4.4.6-1.5 0-2.7.4-3.6 1.7-.5.8-.6 1.8-.9 2.7-.4 1.3-1.6 2.1-2.2 3.3-1.2 2.6-.7 5.5-1.8 8.1-.5 1.2 1.4 1.7 1.9.5M116.7 86.3c-.3 2.4 0 4.9-.5 7.3-.4 2.1-2.7 3.3-3.7 5.1-.6 1.1 1.1 2.1 1.7 1 1-1.9 2.9-2.9 3.7-5 1-2.6.5-5.7.8-8.4.1-1.3-1.9-1.3-2 0M112.5 108.5c1.1-1.5 2.9-2.3 3.9-3.9.7-1.1-1-2.1-1.7-1-1 1.6-2.9 2.4-3.9 3.9-.8 1 .9 2 1.7 1M68.7 85.8c2.5 2.8 3.3 6.2 3.7 9.8.1.7.2 1.4.2 2.2 0 .6-.5 1.1 0 .9-1 .4-2.1.5-3.2.7-2.1.4-3.5 1.8-3 4 .5 2.1 3.2 3.6 5 4.4.5.2 1.3.1 1.4-.6.3-1.8.4-3 2-4.2.9-.6 1.5-1.3 1.8-2.4.2-.6-.3-1.2-1-1.2-2.4 0-5 1.5-6.2 3.6-1.3 2.2.8 5.6 3.4 4.1l-1.4-.6c.7 3.2 2.6 5.5 6.1 5.3 3.4-.2 6.4-2.2 9.7-2.8-.3-.5-.6-1.1-1-1.6-.7.8-1.3 1.5-2.1 2.2-1.3 1.1-2.1.9-2.8-.7-.1.4-.2.9-.4 1.4 1.4-1 3.3-1.2 4.5-2.5.7-.8 0-1.8-1-1.6-1.6.2-2.3 1.5-3 2.8.4-.2.7-.3 1.1-.5-2.7-.9-4.1-3.8-6.7-4.9-.4-.2-.9.1-1.1.5-1.2 2.3.9 3.8.8 6 .6-.2 1.2-.3 1.8-.5-1.6-2.8-2.4-5.8-3.2-9-.3-1.2-2.2-.7-1.9.5.8 3.3 1.8 6.5 3.4 9.4.5.9 1.8.5 1.8-.5 0-1.5-1.7-3.7-1.1-5-.4.2-.7.3-1.1.5 2.6 1.1 3.9 3.9 6.7 4.9.4.1.9-.1 1.1-.5.4-.8.7-1.8 1.8-1.9-.3-.5-.6-1.1-1-1.6-1.1 1.1-2.9 1.3-4.1 2.2-.5.3-.6.8-.4 1.4 1.9 4.5 5.8 1.4 8-1.1.7-.8 0-1.8-1-1.6-2.5.5-4.7 1.6-7.1 2.3-1.2.4-2.5.6-3.8.3-1.6-.4-2.1-2.3-2.5-3.7-.1-.6-.9-.9-1.4-.6-.8.5-.8-.8-.7-1.2.2-.6.9-1.2 1.4-1.6.9-.6 2-1.2 3.1-1.2-.3-.4-.6-.8-1-1.2-.4 1.3-1.9 1.6-2.7 2.7-.9 1.3-.9 2.4-1.2 3.9l1.4-.6c-1.7-.7-6.7-3.9-2.5-4.8 1.4-.3 3.7-.2 4.3-1.8.8-2.2 0-5-.3-7.2-.5-3-1.8-5.6-3.8-7.9-.3-1.3-1.6.1-.8 1.1M69.8 84.3v-.4c0-.5-.4-1-1-1-.5 0-1 .4-1 1v.4c0 .5.4 1 1 1s1-.5 1-1"/></g><g class="st3"><defs><path id="SVGID_7_" d="M20.6 52.7H167v146.4H20.6z"/></defs><clipPath id="SVGID_8_"><use xlink:href="#SVGID_7_" overflow="visible"/></clipPath><path class="st12" d="M93.4 177.9c-4.3 0-7.1-.9-7.1-.9l5-16.5 10.8 16.2c-2.8.8-5.8 1.2-8.7 1.2zM91.3 160.5l-5 16.5s6.9 2.3 15.8-.3l-10.8-16.2z"/><path class="st13" d="M81.7 156c2.9 1.8 8.6 2.3 8.6 2.3l-3.6 2.4-5-4.7zM81.7 156l5.1 4.7 3.6-2.4c-.1.1-5.8-.5-8.7-2.3"/><path class="st14" d="M90.3 158.4l1 2.1-4.6.3zM91.3 160.5l-4.5.2 3.5-2.3z"/><path class="st15" d="M91.3 160.5l-1-2.1c1.7-.1 2.6-.3 2.6-.3l3.1 2.5h-4.7zM96 160.5l-3-2.4s-.9.3-2.6.3l1 2.1H96z"/><path class="st16" d="M91.3 160.5H96l18.3 8.4c-.1.1-8.1 6.9-12.2 7.8l-10.8-16.2zM114.3 168.8s-8.1 6.9-12.2 7.8l-10.8-16.2H96l18.3 8.4z"/><path class="st17" d="M106 152.7l18.2 3.3c-2.5 6.1-9.9 12.8-10 12.9l-8.2-16.2zM106 152.7l8.2 16.1s7.5-6.7 10-12.8l-18.2-3.3z"/><path class="st18" d="M96 160.5l2-3.9s3.8-1.2 8.1-3.9l8.3 16.2-18.4-8.4zM97.9 156.6s3.7-1.1 8.1-3.9l8.2 16.1-18.2-8.3 1.9-3.9z"/><path class="st19" d="M112.7 153.9l14.9-15.7c0 .1-.6 12.9-3.4 17.8l-11.5-2.1zM112.7 153.9l14.9-15.7s-.6 12.8-3.4 17.8l-11.5-2.1z"/><path class="st20" d="M109.4 122.6l18.3 15.6-9.2 9.7zM109.4 122.6l9.1 25.3 9.2-9.7z"/><path class="st21" d="M99.5 135.9l9.9-13.3 9.1 25.3zM99.5 135.9l9.9-13.3 9.1 25.3z"/><path class="st22" d="M115.6 117.9l10.3-1.3c0 .1 1.7 5.8 1.7 8.8l-12-7.5zM126 116.6s1.6 5.8 1.7 8.8l-12-7.6 10.3-1.2z"/><path class="st23" d="M109.4 122.6s1.5-.5 6.2-4.8l12.1 7.6-18.3-2.8zM109.4 122.6s1.4-.5 6.2-4.7l12 7.6-18.2-2.9z"/><path class="st24" d="M109.4 122.6l18.2 2.8c.6 6.7 0 12.8 0 12.8l-18.2-15.6zM127.7 138.2s.6-6.1 0-12.8l-18.2-2.8 18.2 15.6z"/><path class="st25" d="M106 152.7l5.3-9.4 7.2 4.6-5.8 6zM106 152.7l5.3-9.4 7.2 4.6-5.8 6z"/><path class="st26" d="M99.5 135.9l11.8 7.4-5.3 9.4zM99.5 135.9l6.5 16.8 5.3-9.4z"/><path class="st27" d="M125.9 103.3c0 .1-.3 8.1-.2 9.3.1 1.2.3 4 .3 4l-10.4 1.3 10.3-14.6zM125.9 103.3s-.3 8.1-.2 9.3c.1 1.2.3 4 .3 4l-10.3 1.2 10.2-14.5z"/><path class="st28" d="M97.1 119.5c2.4 2.7 7.6 3.1 10.5 3.1 1.1 0 1.9-.1 1.9-.1l-9.9 13.3-2.5-16.3zM97.1 119.5l2.4 16.4 9.9-13.3s-8.9.8-12.3-3.1"/><path class="st29" d="M94.9 141.3s2.9-.3 4.2-2.1c.6-.9.7-2 .4-3.3l4.7 12-9.3-6.6zM94.9 141.3s5.9-.5 4.6-5.4l4.6 12-9.2-6.6z"/><path class="st30" d="M86.3 177c-2.9-.6-11.7-6.1-11.8-6.1l12.2-10.1 4.5-.3-4.9 16.5zM74.5 170.9s8.8 5.5 11.8 6.1l5-16.5-4.5.3-12.3 10.1z"/><path class="st31" d="M74.5 170.9c-4-2.4-10.7-12.2-10.7-12.3l23 2.2-12.3 10.1zM63.8 158.5s6.6 9.9 10.7 12.3l12.2-10.1-22.9-2.2z"/><path class="st32" d="M63.8 158.5c-2.1-3-3.6-12.2-3.6-12.3L75 159.5l-11.2-1zM60.2 146.3s1.5 9.3 3.6 12.3l11.1 1-14.7-13.3z"/><path class="st33" d="M74.9 159.6l-8-7.2h10.7c1.5 2.4 4 3.6 4 3.6l5.1 4.8-11.8-1.2zM77.7 152.4H67l8 7.2 11.8 1.2-5.1-4.7c0-.1-2.5-1.3-4-3.7"/><path class="st34" d="M60.2 146.3l-2.3-11.7 8.4 6.4.7 11.4zM57.9 134.6l2.3 11.7 6.8 6.1-.7-11.4z"/><path class="st35" d="M67 152.4l-.7-11.4 11.4 11.4zM77.7 152.4L66.3 141l.7 11.4z"/><path class="st36" d="M70.6 125.5L81 137.2l-6.1 12.5zM81 137.2l-6.1 12.4-4.3-24.1z"/><path class="st37" d="M66.3 141l4.3-15.5 4.3 24.2zM66.3 141l4.3-15.5 4.3 24.1z"/><path class="st38" d="M57.9 134.6l12.7-9.1-4.3 15.5zM57.9 134.6l12.7-9.1-4.3 15.5z"/><path class="st39" d="M55.8 123.5l14.8 2-12.7 9.1zM55.8 123.5l2.1 11.1 12.7-9.1z"/><path class="st40" d="M85.2 153.2l10.2-.5-5.1 5.7zM95.4 152.7l-10.2.5 5.1 5.2z"/><path class="st41" d="M78.4 153.4c.1 0 7.9-.9 9.4-1 1.4-.1 6.9-.5 7.3-.5h3.4c.3 0 6.8.1 7.5.8-.4 0-4.2-.2-7.2-.2-1.8 0-3 .1-3.4.2l-10.3.5-6.7.2zM78.4 153.4s7.9-.9 9.4-1c1.4-.1 6.9-.5 7.3-.5h3.4s6.8.1 7.5.8c0 0-9.1-.5-10.6 0l-10.3.5-6.7.2z"/><path class="st42" d="M105 152.4c-.1 0-6-.5-7.9-.5l-5.8-1.8s2.2-.9 4.8-.9c.9 0 1.8.1 2.6.3l6.3 2.9zM91.3 150.2s3.9-1.5 7.4-.5l6.3 2.8s-5.9-.5-7.9-.5l-5.8-1.8z"/><path class="st43" d="M86 152.5l5.3-2.4 5.8 1.8c-.1 0-9.6.4-11.1.6zM86 152.5l5.3-2.4 5.8 1.8s-9.6.4-11.1.6"/><path class="st44" d="M78.4 153.4c.1 0 6.2-4.1 8.6-4.1h.3c2.1.5 3.9.9 3.9.9l-5.3 2.4-7.5.8zM78.4 153.4s6.8-4.6 8.9-4.1c2.1.5 3.9.9 3.9.9l-5.3 2.4-7.5.8z"/><path class="st45" d="M77.7 152.4l-2.8-2.8 5-10.2 6.7 9.9c-2.9.5-8.1 4.1-8.2 4.1l-.7-1zM86.6 149.3l-6.7-9.9-5 10.2 2.8 2.8.8 1c-.1 0 5.2-3.6 8.1-4.1"/><path class="st46" d="M79.9 139.4l3.6.9 4.6 1.3 2.2.3-3.7 7.4zM90.3 141.9l-3.7 7.4-6.7-9.9 3.6 1 4.6 1.2z"/><path class="st47" d="M87.3 149.3h-.7l3.7-7.4 6.5 7.4H96c-1.9 0-4.8.9-4.8.9l-3.9-.9zM96.8 149.3l-6.5-7.4-3.7 7.4h.7l3.9.9c.1 0 3.7-1.2 5.6-.9"/><path class="st48" d="M98.7 149.6s-.7-.3-1.9-.3l-6.5-7.4 4.6-.6 9.3 6.6 1.9 4.9-7.4-3.2zM90.3 141.9l4.6-.6 9.2 6.6 1.9 4.8-7.3-3.1s-.7-.3-1.9-.3l-6.5-7.4z"/><path class="st49" d="M96.6 140.1c-1.5 0-3.9-.2-3.9-.2.8-1 1.7-1.5 2.6-1.5 1.5 0 2.5 1.3 2.6 1.5 0 .1-.5.2-1.3.2zM92.7 139.9s5.3.4 5.2 0c-.1-.4-2.6-3.2-5.2 0"/><path class="st50" d="M82.8 140.2l.1-.2c.6-.6 1.3-.9 2-.9 1.6 0 2.8 1.5 2.8 1.5l-.5.7-4.4-1.1zM87.7 140.7s-2.3-3-4.8-.6l-.1.1 4.4 1.2.5-.7z"/><path class="st51" d="M81 137.2l1-14.6 2.8-5.6c0 .1 1.1 9.7.8 10.7-.2 1-4.5 9.4-4.6 9.5zM84.9 117l-2.8 5.6-1 14.6s4.3-8.5 4.6-9.5c.2-1-.8-10.7-.8-10.7"/><path class="st52" d="M92.2 141.6c-1-1.1-4.7-1.9-4.7-1.9l-.2-1.5 2.6-8.4 2.8 10-.5 1.8zM89.9 129.9l-2.6 8.4.2 1.5s3.7.8 4.7 1.9l.5-1.7-2.8-10.1z"/><path class="st53" d="M88.1 141.6l-.9-.2.4-.7-.2-1c.1 0 3.7.7 4.7 1.9l-1.9.3-2.1-.3zM87.2 141.4l.5-.7-.2-1s3.7.7 4.7 1.9l-1.9.3-2.2-.3-.9-.2z"/><path class="st54" d="M92.7 139.9c1.6.1 2.8.2 3.7.2 1.2 0 1.4-.1 1.5-.1l.3.1c-1.4 1-3.3 1.2-3.3 1.2l-2.7.4.5-1.8zM92.7 139.9l-.5 1.7 2.7-.4s2-.2 3.3-1.2l-.3-.2c0 .1.2.5-5.2.1"/><path class="st55" d="M87.3 138.2l-1.7-10.6c.2-1.5-.8-10.6-.8-10.7l1.4-5.5 4.1 3.9-.4 14.4-2.6 8.5zM86.2 111.5l-1.4 5.5s1 9.2.8 10.7l1.7 10.6 2.6-8.4.4-14.4-4.1-4z"/><path class="st56" d="M90.3 115.5l6.8 4 2.4 16.4zM97.1 119.5l-6.8-4 9.2 20.4z"/><path class="st57" d="M108.5 119.2c1.1-.3 2.7-1.9 2.8-1.9l4.3.5c-3 2.9-6.1 4.7-6.2 4.8l-.9-3.4zM115.6 117.9l-4.3-.5s-1.7 1.7-2.8 1.9l.9 3.4c0-.1 3.2-1.9 6.2-4.8"/><path class="st58" d="M108 122.6c-1.7 0-4.3-.1-6.9-.8l3.7-1.6 4.7 2.4H108M101.1 121.8l3.7-1.6 4.7 2.4c-.1 0-4.3.3-8.4-.8"/><path class="st59" d="M104.7 120.2s2.8-.5 3.8-1l.9 3.4-4.7-2.4zM104.7 120.2s2.8-.5 3.8-1l.9 3.4-4.7-2.4z"/><path class="st60" d="M99.7 118.3s1.2 1.7 5 2l-3.7 1.6-1.3-3.6zM99.7 118.2s1.2 1.7 5 2l-3.7 1.6-1.3-3.6z"/><path class="st61" d="M101.1 121.8s-2.4-.6-4-2.3l2.6-1.3 1.4 3.6zM97.1 119.5l2.6-1.2 1.4 3.6c0-.1-2.4-.6-4-2.4"/><path class="st62" d="M106.6 119.8c.9-.5 1.4-1.1 1.6-1.9.3-1.3-.5-2.4-.5-2.4l3.6 1.8c-1.3 1.4-2.7 1.9-2.8 1.9l-1.9.6zM107.7 115.5s1.9 2.7-1.1 4.3l1.9-.6s1.4-.5 2.8-1.9l-3.6-1.8z"/><path class="st63" d="M104.6 120.2c-.5 0-3-.1-4.9-2 0 0 .9-1.7 2.8-2.4 0 0-.6 3.3 2.3 4.4h-.2M102.5 115.8s-.7 3.3 2.3 4.4c0 0-2.8.1-5-2-.1 0 .8-1.6 2.7-2.4"/><path class="st64" d="M104.7 120.2c-3-1.3-2.3-4.4-2.3-4.4 1-.4 2.1-.6 3.2-.6 1.2 0 2 .3 2 .3.6.9.8 1.8.6 2.5-.4 1.2-1.7 1.8-1.7 1.8l-1.8.4zM107.7 115.5s-2.3-.8-5.2.3c0 0-.8 3.1 2.3 4.4l1.9-.4c-.1 0 3-1.4 1-4.3"/><path class="st65" d="M99.1 118.6s-.3-.3-.3-.7c0-.2.1-.4.3-.5 0 0 .1-.1.2-.1.7-.6 2.7-2.6 6.2-2.6 2 0 4.2.7 6.4 2l1.9 1.1-2.5-.3-3.6-1.8s-.8-.2-2-.2c-1.1 0-2.2.2-3.3.6 0 0-2 .9-2.7 2.4l-.6.1zM99.1 118.6s-.6-.7 0-1.2 4.9-5.4 12.8-.7l1.9 1.1-2.5-.3-3.6-1.8s-2.3-.7-5.2.3c0 0-2 .8-2.8 2.4l-.6.2z"/><path class="st66" d="M95.9 107.9l5.7 3.4-6 1.1zM95.9 107.9l-.3 4.5 6-1.1z"/><path class="st67" d="M95.9 107.9l3.8-.5 1.9 3.9zM99.7 107.4l1.9 3.9-5.7-3.4z"/><path class="st68" d="M99.7 107.4l6.4-.5v3.1l-4.5 1.3zM106.1 110l-4.5 1.3-1.9-3.9 6.4-.5z"/><path class="st69" d="M106.1 106.9l5.5.5-5.5 2.6zM111.6 107.4l-5.5 2.6v-3.1z"/><path class="st70" d="M114.8 109.4l-3.2-1.9c.3 0 5.6.4 6.6 2.5l-3.4-.6zM118.2 110l-3.4-.6-3.2-1.9c0-.1 5.6.3 6.6 2.5"/><path class="st71" d="M113.8 117.7l-1.7-8.1 2.7-.2 3.4.5 1.6 2-4.2 6zM112.1 109.6l1.7 8.1 1.8.2 4.2-6-1.6-1.9-3.4-.6z"/><path class="st72" d="M113.8 117.7c-4.3-2.8-7.3-3.1-8.4-3.1h-.6l1.3-4.6 6-.4 1.7 8.1zM106.1 110l-1.3 4.6s3.4-.6 9 3.1l-1.7-8.1-6 .4z"/><path class="st73" d="M95.6 112.4l6-1.1 4.5-1.3-1.4 4.6zM95.6 112.4l9.1 2.2 1.4-4.6-4.5 1.3z"/><path class="st74" d="M95.6 112.4l9.1 2.2s-3.4.1-6 3.3l-3.1-5.5zM98.7 117.9l-3.1-5.4 9.1 2.2c0-.1-3.4-.1-6 3.2"/><path class="st75" d="M90.3 115.5l5.3-3.1 3.2 5.4.3.7-2 1zM90.3 115.5l5.3-3.1 3.1 5.5.4.7-2 .9z"/><path class="st76" d="M72.1 121.8l6.3 2.1c-3.7 1.4-7.7 1.6-7.7 1.6l1.4-3.7zM72.1 121.8l-1.5 3.7s4-.2 7.7-1.6l-6.2-2.1z"/><path class="st77" d="M72.1 121.8c.4 0 .8.1 1.2.1 2.8 0 6.6-1 6.6-1l-1.6 3.1-6.2-2.2zM79.9 120.9s-5.1 1.3-7.8.9l6.2 2.1 1.6-3z"/><path class="st78" d="M76 121.7h-.2c.6-.4 1.1-.8 1.2-1.4.4-1.2-.4-2.5-.4-2.6 2.3.2 3.8 1.6 3.8 1.6.2.6.2 1.1 0 1.4-.2.3-.5.3-.5.3-2.4.6-3.5.7-3.9.7zM76.7 117.7s1.5 2.7-.9 4c0 0 .7.1 4.1-.7 0 0 1-.1.5-1.7 0-.1-1.5-1.4-3.7-1.6"/><path class="st79" d="M72.1 121.8s-1.9-.2-2.8-1.8c-.2-.3.8-.9.9-.9 0 0 1 2.3 3.5 2.8l-1.6-.1zM69.3 120c-.2-.3.8-.9.8-.9s1 2.3 3.4 2.8l-1.5-.1c.1 0-1.8-.1-2.7-1.8"/><path class="st80" d="M79.9 120.9c.3-.1.4-.2.5-.4.3-.5-.1-1.3-.1-1.3l4.4-2.3-2.8 5.6-2-1.6zM84.9 117l-4.4 2.2s.6 1.4-.5 1.7l2.1 1.7 2.8-5.6z"/><path class="st81" d="M79.9 120.9l2.1 1.7-3.7 1.4zM78.3 123.9l1.6-3 2.1 1.7z"/><path class="st82" d="M80.4 119.2c-.6-.7-2.1-1.2-2.1-1.2l-1.2-3.9c.8-.2 1.6-.3 2.3-.3 4.3 0 5.4 3.1 5.4 3.1l-4.4 2.3zM77.2 114.2l1.2 3.9s1.5.5 2.1 1.2l4.4-2.2c0-.1-1.4-4.3-7.7-2.9"/><path class="st83" d="M76.6 110.2L81 114c-.1 0-.7-.1-1.6-.1-.8 0-1.5.1-2.3.3l-.5-4zM76.6 110.2L81 114s-1.6-.4-3.8.1l-.6-3.9z"/><path class="st84" d="M72.4 114.2l4.2-4 .6 4zM72.4 114.2l4.2-4 .6 4z"/><path class="st85" d="M68.8 110.6c.8-.4 5.3-.4 7.2-.4h.6l-4.1 4-3.7-3.6zM68.8 110.6l3.6 3.6 4.1-4c.1 0-6.7-.1-7.7.4"/><path class="st86" d="M68.8 110.5l3.6 3.6-5.5.5zM67 114.6l5.4-.4-3.6-3.6z"/><path class="st87" d="M64.2 112.2c.9-.5 4.6-1.6 4.6-1.6l-1.9 4.1-2.7-2.5zM64.2 112.2l2.7 2.4 1.9-4s-3.6 1.1-4.6 1.6"/><path class="st88" d="M62.8 114.8c.3-.2 1.5-2.6 1.5-2.6l2.7 2.4-4.2.2zM62.8 114.8c.3-.2 1.5-2.6 1.5-2.6l2.7 2.4-4.2.2z"/><path class="st89" d="M69.3 120s0-.1.1-.2l3-5.7h4.7l1.2 3.9-1.7-.4c-.7-.1-1.4-.1-2-.1-2.4 0-3.3.7-3.3.7-1.2.8-1.7 1.3-1.9 1.6l-.1.2zM72.4 114.2l-3.2 5.9s0-.5 2.1-1.8c0 0 1.4-1.1 5.3-.6l1.7.4-1.2-3.9h-4.7z"/><path class="st90" d="M67 114.6l5.4-.5-3.1 6zM67 114.6l2.3 5.4 3.1-5.8z"/><path class="st75" d="M63.7 124.6l5.6-4.6s.7 1.6 2.8 1.8l-1.5 3.7-6.9-.9zM63.7 124.6l5.6-4.5s.7 1.6 2.8 1.8l-1.5 3.7-6.9-1z"/><path class="st91" d="M55.8 123.5l7-8.7.9 9.8zM55.8 123.5l7-8.7.9 9.8z"/><path class="st92" d="M56.5 111.5l7.7.6-1.4 2.7-7 8.7zM56.5 111.5l-.7 12 7-8.7 1.4-2.6z"/><path class="st93" d="M84.8 117c-.8-2.3-3.8-3-3.8-3l-4.4-3.9 9.7 1.4-1.5 5.5zM86.2 111.5l-9.7-1.4L81 114s3 .7 3.8 3l1.4-5.5z"/><path class="st94" d="M76.6 110.2l7.2-30.1 12.1 27.8-9.7 3.7zM83.8 80.1l-7.2 30.1 9.6 1.3 9.7-3.6z"/><path class="st95" d="M83.8 80.1c3.1-1 8.3-1.2 12.1-1.2 2.9 0 5.2.1 5.2.1l-1.4 28.4-3.8.5-12.1-27.8zM101.1 79s-11.8-.7-17.3 1.1l12.1 27.8 3.8-.4 1.4-28.5z"/><path class="st96" d="M118.2 110c-1.4-2.2-6.6-2.5-6.6-2.5l6.9-22c2.9 2.8 7.4 17.7 7.4 17.8l-6.1 8.6-1.6-1.9zM118.5 85.5l-6.9 22s5.2.3 6.6 2.5l1.6 1.9 6.1-8.6s-4.5-14.9-7.4-17.8"/><path class="st97" d="M101.1 79c.1 0 9.5 2 17.4 6.4l-6.9 22L101.1 79zM101.1 79s9.4 2 17.4 6.4l-6.9 22L101.1 79z"/><path class="st98" d="M106.1 106.9l-6.4.6 1.4-28.5 10.5 28.5zM99.7 107.4l6.4-.5 5.5.5L101.1 79z"/><path class="st99" d="M69.7 83.5c4.8-2 14-3.4 14.1-3.4l-7.2 30.1-6.9-26.7zM69.7 83.5l6.9 26.6L83.8 80c0 .1-9.3 1.5-14.1 3.5"/><path class="st100" d="M61.8 87.3l7.9-3.8 6.9 26.7zM61.8 87.3l14.8 22.9-6.9-26.7z"/><path class="st101" d="M56.5 111.6l1-15.2 19.1 13.8h-.1c-.7 0-6.5 0-7.7.4l-4.6 1.6-7.7-.6zM56.5 111.5l1-15.2 19.1 13.8s-6.5 0-7.7.4l-4.6 1.6-7.8-.6z"/><path class="st102" d="M57.5 96.4l4.3-9.1 14.8 22.9zM61.8 87.3l-4.3 9 19.1 13.9z"/><path class="st103" d="M129.1 139.9c-.9 0-1.5-.2-1.5-.2l.1-1.5.2-5 6.8-4.2v3c0 .4-.2.6-.4 1s-.5.9-.6 1.6c-.1 1.4-.8 3.6-.8 3.6-1.1 1.4-2.7 1.7-3.8 1.7"/><path class="st103" d="M127.6 139.7s3.2.9 5.4-1.5c0 0 .7-2.2.8-3.6.1-1.4.9-1.8.9-2.6v-3l-6.8 4.2-.2 5-.1 1.5z"/><path class="st104" d="M129.7 132.1c-.3-.4 3-9.3 3.2-9.7l1.1 3.5.7 3.1-5 3.1zM132.9 122.4s-3.8 10.1-3.2 9.7c.6-.4 4.9-3 4.9-3l-.7-3.1-1-3.6z"/><path class="st105" d="M130.3 129.9c-.2 0-.9-4.7-1-5.6l2.4 1.6c-.1.1-1.3 3.6-1.4 4zM129.2 124.3s.9 6 1 5.6 1.4-3.9 1.4-3.9l-2.4-1.7z"/><path class="st106" d="M127.9 133.3c0-.1.1-9.3-.5-10.1l1.8 1.2 1 5.6s-.4 1.4-.5 2.2l-1.8 1.1zM127.4 123.1l1.8 1.2 1 5.6s-.4 1.3-.5 2.2l-1.9 1.1c.1.1.2-9.2-.4-10.1"/><path class="st107" d="M127.4 123.1l5.8-6-.3 5.3-1.3 3.6zM133.3 117.1l-5.9 6 4.2 2.8 1.3-3.5z"/><path class="st108" d="M128.8 115.5c1.1-1 1.9-1.5 2.6-1.5 1.7 0 1.8 3.1 1.8 3.1l-5.9 6.1 1.5-7.7zM128.8 115.5l-1.4 7.6 5.8-6c.1 0 0-5.8-4.4-1.6"/><path class="st109" d="M125.9 103.3L123 77.5c5 2.5 5.8 8.6 5.8 8.7 2.2 5.3.9 17.1.9 17.2h-3.8zM123.1 77.5l2.8 25.9h3.8s1.4-11.8-.9-17.2c0-.1-.7-6.2-5.7-8.7"/><path class="st110" d="M125.9 103.3c0-.1-4.4-14.8-7.4-17.8l-3.6-1.8 8.2-6.2 2.8 25.8zM114.9 83.7l8.2-6.2 2.8 25.9s-4.3-14.8-7.4-17.8l-3.6-1.9z"/><path class="st111" d="M114.9 83.7c-4.4-2.3-13.7-4.6-13.8-4.6l4.2-9.4 9.6 14zM105.3 69.7l-4.2 9.3s9.4 2.3 13.8 4.6l-9.6-13.9z"/><path class="st112" d="M89.6 57l4.8 21.9c-.1 0-8.6.1-10.7 1.2L89.6 57zM83.8 80.1L89.6 57l4.8 21.9s-8.6.1-10.6 1.2"/><path class="st113" d="M94.4 78.9l-2-9.1 6.2-7.9 2.5 17.2zM98.6 61.9l-6.2 7.9 2 9.1 6.7.1z"/><path class="st114" d="M89.6 57c.1 0 5.3 1.8 7.1 2.1 1 .1 2.1.2 2.9.2h1.4L98.5 62l-6.2 7.9L89.6 57zM101.1 59.2l-2.5 2.6-6.2 7.9L89.6 57s5.2 1.8 7.1 2.1c2 .3 4.4.1 4.4.1"/><path class="st115" d="M98.6 61.9l2.5-2.6c.1 0 4.7.4 9.1 3.7l-4.9 6.8-4.2 9.4-2.5-17.3zM110.2 62.9l-4.9 6.8-4.2 9.3-2.5-17.2 2.5-2.6s4.7.4 9.1 3.7"/><path class="st116" d="M115.9 68.6c.3.3 7.1 8.1 7.1 8.9 0 .9-7.8 6-8.2 6.2l1.1-15.1zM116 68.6l-1 15.1s8.2-5.4 8.2-6.2c-.1-.9-7.2-8.9-7.2-8.9"/><path class="st117" d="M105.3 69.7l4.9-6.8 5.8 5.6-1.1 15.2zM110.2 62.9l5.8 5.7-1.1 15.1-9.6-14z"/><path class="st118" d="M77.2 58.1c1.5-.6 12.4-1.1 12.5-1.1l-5.8 23.1-6.7-22zM77.2 58.1l6.6 22L89.6 57s-10.9.5-12.4 1.1"/><path class="st113" d="M67.4 61.9c.5-.5 6-3.8 9.5-3.8h.3l6.6 22-16.4-18.2zM67.4 61.9c.6-.5 6.3-4 9.7-3.8l6.6 22-16.3-18.2z"/><path class="st119" d="M67.4 61.9l16.4 18.2c-.1 0-11.6 1.9-14.1 3.4l-2.3-21.6zM69.7 83.5l-2.3-21.6 16.4 18.2S72.2 82 69.7 83.5"/><path class="st113" d="M61.4 66.3s4.1-4.1 6.1-4.4l2.3 21.7-7.9 3.8-.5-21.1zM61.8 87.3l-.4-21s4.1-4.1 6.1-4.4l2.3 21.6-8 3.8z"/><path class="st112" d="M54.4 81.8l7.2-2.3.2 7.8zM54.5 81.7l7.3 5.6-.2-7.8zM54.4 81.7c.4-2.7 6.8-15.3 6.9-15.5l.3 13.2-7.2 2.3zM61.4 66.3s-6.5 12.8-6.9 15.5l7.2-2.2-.3-13.3z"/><path class="st110" d="M52.1 95.6c0-.1.1-4.2.4-6.4.3-2.1 2-7.4 2-7.4l7.3 5.6-4.3 9.1-5.4-.9zM52.1 95.6s.1-4.2.4-6.4c.3-2.2 2-7.4 2-7.4l7.3 5.6-4.3 9-5.4-.8z"/><path class="st109" d="M52.1 95.6l5.4.7-1 15.2zM56.5 111.5l-4.4-15.9 5.4.7z"/><path class="st120" d="M55.8 123.5c0-.2-4.7-23-3.7-28l4.4 16-.7 12zM55.8 123.5s-4.7-22.9-3.7-28l4.4 16-.7 12z"/><path class="st121" d="M60.2 146.3s-3.1-.3-4.4-4.9c0 0-1-2.1-1-3.1l4.5 3.4.9 4.6zM60.2 146.3s-3.1-.2-4.4-4.9c0 0-1-2.1-1-3.1l4.5 3.4.9 4.6z"/><path class="st122" d="M54.8 138.3l2.2-8.4 2.3 11.8zM57 129.9l-2.2 8.3 4.5 3.4z"/><path class="st123" d="M54.8 138.2c0-.1.1-6 0-7.3-.1-1.3-1.2-6-1.2-6l3.5 5-2.3 8.3zM53.5 124.9s1.2 4.7 1.2 6.1c.1 1.3 0 7.3 0 7.3l2.2-8.3-3.4-5.1z"/><path class="st124" d="M53.5 124.9c-.9-.8-1.3-1.6-1.2-2.4.1-.8.7-1.3 1.2-1.6.1-.1.3-.1.4-.1.8 0 1.5 1 1.5 1l.3 1.7 1.2 6.4-3.4-5zM55.4 121.8s-.9-1.4-1.9-.9-2.1 2.1 0 4l3.4 5-1.2-6.4-.3-1.7z"/><path class="st120" d="M125.9 116.6l-.2-4 .2-9.3h3.8l-.8 12.2-1.5 7.6zM129.7 103.3l-.9 12.2-1.4 7.6-1.4-6.5-.3-4 .2-9.3z"/><path class="st125" d="M92.9 158.1s3.9-.8 5-1.5l-2 3.9-3-2.4zM97.9 156.6l-2 3.9-3-2.4c0-.1 3.9-.8 5-1.5"/><path class="st126" d="M90.3 158.4c-.1 0-5.6-.5-8.6-2.4 0 0-2.6-2-3.3-2.6.1 0 5.6-.2 6.8-.2l5.1 5.2zM78.4 153.4s5.6-.2 6.7-.2l5.1 5.2s-5.5-.5-8.6-2.4c.1 0-2.5-2-3.2-2.6"/><path class="st127" d="M95.4 152.7c.4-.1 1.5-.2 3.3-.2 3.1 0 7.2.2 7.3.2-8.8 5.5-15.7 5.7-15.7 5.7l5.1-5.7zM106 152.7s-9.3-.5-10.6 0l-5.1 5.7s6.8-.2 15.7-5.7"/><path class="st127" d="M95.4 152.7c.4-.1 1.5-.2 3.3-.2 3.1 0 7.2.2 7.3.2-8.8 5.5-15.7 5.7-15.7 5.7l5.1-5.7zM106 152.7s-9.3-.5-10.6 0l-5.1 5.7s6.8-.2 15.7-5.7"/><path class="st128" d="M86.2 111.5l9.7-3.6-.3 4.5-5.3 3.1zM86.2 111.5l9.7-3.6-.3 4.5-5.3 3.1z"/><path class="st129" d="M106.1 110l5.5-2.6 3.2 2-8.7.6zM114.8 109.4l-3.2-2-5.5 2.6z"/><path class="st130" d="M62.7 114.8l4.3-.2 2.3 5.4-5.6 4.6zM62.8 114.8l.9 9.8 5.6-4.6-2.3-5.4z"/><path class="st131" d="M70.6 125.5c5.4-.3 11.4-2.9 11.4-2.9l-1 14.6-10.4-11.7zM82 122.6s-6 2.6-11.4 2.9L81 137.2l1-14.6z"/><path class="st132" d="M103.8 117.5l.3-1.7 1.6-.3.9 1.1-.6 1.7zM106 118.2l-2.2-.7.4-1.7 1.5-.3.9 1.1z"/><path class="st63" d="M105.4 116.6l1.2-1.1.8 1.1-.3.7zM105.4 116.6l1.2-1.1.8 1.1-.3.7z"/><path class="st65" d="M66.1 120.7l1.8-1.2c2.4-1.8 4.8-2.7 7.1-2.7 2.9 0 4.9 1.5 5.5 2 .1.1.1.1.2.1.2.1.3.3.3.5.1.4-.2.7-.2.8l-.7-.2c-.9-1.5-3-2.1-3-2.1-.8-.1-1.7-.2-2.4-.2-1.8 0-2.8.4-2.8.4l-3.4 2.2-2.4.4zM80.8 120s.6-.8-.1-1.2c-.7-.5-5.4-4.8-12.8.6l-1.8 1.2 2.4-.6 3.4-2.2s1.9-.8 5.2-.2c0 0 2.1.6 3 2.1l.7.3z"/><path class="st133" d="M87.7 140.7c-.8-1-1.7-1.5-2.6-1.5-1.3 0-2.2 1-2.2 1l-2.9-.8 5.7-11.8 2 13.1zM87.7 140.7l-2-13-5.7 11.7 2.9.8c-.1 0 2.2-2.5 4.8.5"/><path class="st134" d="M97.9 139.9c-.9-1-1.7-1.5-2.6-1.5-1.5 0-2.5 1.5-2.6 1.5l-2.8-10 .4-14.4 9.2 20.4c.9 2.8-1.2 4.2-1.3 4.2l-.3-.2zM99.5 135.9l-9.2-20.4-.4 14.4 2.8 10s2.3-3.4 5.2 0l.3.2c0-.1 2.2-1.4 1.3-4.2"/><g class="st135"><defs><path id="SVGID_9_" d="M97 113.1h16.3v3.9H97z"/></defs><clipPath id="SVGID_10_"><use xlink:href="#SVGID_9_" overflow="visible"/></clipPath><path class="st136" d="M97.2 116.8s2-1.8 5-2.8c1.7-.6 3.4-.8 5.1-.7 2.1.2 4 .9 5.8 2.3-1.8-1.3-3.7-2.1-5.8-2.3-1.6-.1-3.3.1-5.1.7-3 1.1-5 2.8-5 2.8z"/></g><g class="st137"><defs><path id="SVGID_11_" d="M97 113.1h16.2v3.9H97z"/></defs><clipPath id="SVGID_12_"><use xlink:href="#SVGID_11_" overflow="visible"/></clipPath><path class="st138" d="M97.2 116.8s8-7 15.9-1.2"/></g><g class="st135"><defs><path id="SVGID_13_" d="M64.8 115.6h16.8v4.2H64.8z"/></defs><clipPath id="SVGID_14_"><use xlink:href="#SVGID_13_" overflow="visible"/></clipPath><path class="st139" d="M65 119.6s2-1.8 5.1-2.9c1.8-.7 3.5-1 5.2-.9 2.1.1 4.2.7 6.1 1.8-1.9-1.2-3.9-1.8-6-1.8h-.3c-1.6 0-3.2.3-4.9.9-3.2 1.1-5.2 2.9-5.2 2.9z"/></g><g class="st137"><defs><path id="SVGID_15_" d="M64.8 115.6h16.8v4.2H64.8z"/></defs><clipPath id="SVGID_16_"><use xlink:href="#SVGID_15_" overflow="visible"/></clipPath><path class="st140" d="M65 119.6s8.1-7.1 16.4-2"/></g><path class="st141" d="M73.6 121.9c-2.4-.5-3.4-2.8-3.5-2.8 1.5-1.4 3.4-1.6 4.7-1.6 1.1 0 1.8.2 1.8.2.5 1 .6 1.9.4 2.6-.3 1-1.2 1.4-1.2 1.4l-2.2.2zM70.1 119.1s1 2.3 3.4 2.8l2.3-.3s2.3-1.1.9-4c0 .1-4-.9-6.6 1.5"/><path class="st132" d="M73.6 120.2l-.9-1.9 1.5-.7 1.6 1.3-.9 1.3zM74.9 120.2h-1.3l-.9-2 1.5-.5 1.6 1.2z"/><path class="st63" d="M75.1 119l-.6-.7 1.3-.5.5 1.8zM75.8 117.9l-1.3.3.6.7 1.2.7z"/></g></g></svg>