<svg xmlns="http://www.w3.org/2000/svg" width="192" height="234" viewBox="0 0 192 234"><style type="text/css">.st0{fill:#F2F2F2;} .st1{fill:#D54339;} .st2{fill:#C68F75;} .st3{fill:#BA5B4D;} .st4{fill:#B88069;} .st5{fill:#A7775F;} .st6{fill:#705345;} .st7{fill:#A96D59;} .st8{fill:#906247;} .st9{fill:#322813;} .st10{fill:#906145;} .st11{fill:#935F2F;} .st12{fill:#794A2D;} .st13{fill:#7A4B2E;} .st14{fill:#88522F;} .st15{fill:#8D5735;} .st16{fill:#956032;} .st17{fill:#8D5535;} .st18{fill:#905737;} .st19{fill:#8F5839;} .st20{fill:#875332;} .st21{fill:#88502D;} .st22{fill:#895532;} .st23{fill:#8A5534;} .st24{fill:#8B5534;} .st25{fill:#744B2A;} .st26{fill:#8D5636;} .st27{fill:#8B5231;} .st28{fill:#8A5131;} .st29{fill:#754A2F;} .st30{fill:#8B5434;} .st31{fill:#925D2F;} .st32{fill:#AA674B;} .st33{fill:#774B2D;} .st34{fill:#7A492C;} .st35{fill:#7A4A30;} .st36{fill:#A46445;} .st37{fill:#946236;} .st38{fill:#B87257;} .st39{fill:#B87056;} .st40{fill:#B97258;} .st41{fill:#C58F72;} .st42{fill:#C69074;} .st43{fill:#C68F72;} .st44{fill:#B8826C;} .st45{fill:#C59485;} .st46{fill:#C89477;} .st47{fill:#C79077;} .st48{fill:#C99C7C;} .st49{fill:#C49484;} .st50{fill:#C38A67;} .st51{fill:#A9664A;} .st52{fill:#443B2A;} .st53{fill:none;stroke:#000000;stroke-width:0.1;stroke-miterlimit:10;} .st54{fill:#BC755E;} .st55{fill:#C18763;} .st56{fill:#BF865D;} .st57{fill:#CD9E8E;} .st58{fill:#C68E73;} .st59{fill:#BA816B;} .st60{fill:#C28663;} .st61{fill:#574835;} .st62{fill:#BC8B71;} .st63{fill:#3D3521;} .st64{fill:#997467;} .st65{fill:#C49685;} .st66{fill:#C49283;} .st67{fill:#916343;} .st68{fill:#77492C;} .st69{fill:#764B2E;} .st70{fill:#6B4F42;} .st71{fill:#966E57;} .st72{fill:#8C735F;} .st73{fill:#6E5547;} .st74{fill:#6F5343;} .st75{fill:#72564A;} .st76{fill:#C3A28E;} .st77{fill:#B5947E;} .st78{fill:#C1855C;} .st79{fill:#B18368;} .st80{fill:#C38664;} .st81{fill:#B7826B;} .st82{fill:#8E6750;} .st83{fill:#C69172;} .st84{fill:#B88A71;} .st85{fill:#B79482;} .st86{fill:#B79284;} .st87{fill:#6E5446;} .st88{fill:#6E4F41;} .st89{fill:#4F3E2A;} .st90{fill:#4E3D2C;} .st91{fill:#6A5040;} .st92{fill:#513620;} .st93{fill:#6F5141;} .st94{fill:#544133;} .st95{fill:#513F30;} .st96{fill:#533F2F;} .st97{fill:#524031;} .st98{fill:#503E2F;} .st99{fill:#403323;} .st100{fill:#4D331E;} .st101{fill:#523E2F;} .st102{fill:#4C423A;} .st103{fill:#4D3D2B;} .st104{fill:#4B3827;} .st105{fill:#413525;} .st106{fill:#3F2B1D;} .st107{fill:#423928;} .st108{fill:#A56449;} .st109{fill:#BC745D;} .st110{fill:#C86C44;} .st111{fill:#C18562;} .st112{fill:#B7886C;} .st113{fill:#C79073;} .st114{fill:#B78972;} .st115{fill:#BB5B4A;} .st116{fill:#B45946;} .st117{fill:#91362B;} .st118{fill:#985441;} .st119{fill:#97523E;} .st120{fill:#A46244;} .st121{fill:#312815;} .st122{fill:#9A8B7C;} .st123{fill:#885431;} .st124{fill:#2D2513;} .st125{fill:#574936;} .st126{fill:#705647;} .st127{fill:#B6886E;} .st128{fill:#9D7B6C;} .st129{fill:#AA7964;} .st130{fill:#A5745F;} .st131{fill:#966B56;} .st132{fill:#A07C6E;} .st133{fill:#7C4B2F;} .st134{fill:#A9765E;} .st135{fill:#A46B55;} .st136{fill:#916954;} .st137{fill:#8E634E;} .st138{fill:#CD9E92;} .st139{fill:#7A4C30;} .st140{fill:#B8826E;} .st141{fill:#B67F67;} .st142{fill:#B57964;} .st143{fill:#624637;} .st144{fill:#D38D77;} .st145{fill:#8E7861;}</style><path class="st0" d="M0 0h192v234H0z"/><path class="st1" d="M192 215.5L172.5 234H192z"/><path class="st2" d="M93.8 119.7c1.3 2.4 2.7 4.9 4.1 7.4.3-2 .3-3.9-.8-5.6-.7-1.2-1.8-2.2-3-2.9-.9-.5-2.1-.9-3.1-1.3-1.4-.6-2.9-1.1-4.3-1.7 1.4 2.5 2.8 4.9 4.2 7.4v-.1c-2.5 1.4-4.9 2.8-7.4 4.2l3 1.2c.6.2 1.2.5 1.8.7.2.1.3.1.5.2-.9-.3-2.2-1.3-2.4-2.4v-3.2.3c-.2 1.7-.3 3.1.6 4.6.7 1.2 2.2 2.4 3.6 2.8 2.8.6 6.9-.9 7.4-4.2.3-2 .3-3.9-.8-5.7-.7-1.2-1.8-2.2-3-2.9-.9-.5-2.1-.9-3.1-1.3-1.4-.6-2.9-1.1-4.3-1.7-1.3-.5-3.5-.1-4.6.6-1.4.9-2.2 2.1-2.8 3.6v.1c-.5 1.3-.1 3.5.6 4.6.9 1.4 2.1 2.1 3.6 2.8l3 1.2c.6.2 1.2.5 1.8.7.2.1.3.1.5.2-.9-.3-2.2-1.3-2.4-2.5v-3.2.3c-.2 1.6-.3 3.2.6 4.6.9 1.4 2 2.3 3.6 2.8h.1c3 1 6.7-1.1 7.4-4.2.6-3.3-1.2-6.4-4.4-7.4zM83.6 127.1c1.1.4 2.3.9 3.4 1.3l1.5.6c.7.3.6.3-.3-.1-1.1-.8-1.7-2-1.9-3.4-.4 3.1 3 6.1 6 6 3.6-.2 5.6-2.7 6-6 .5-3.8-2.7-6.4-5.8-7.7-1.9-.8-3.8-1.5-5.7-2.3-2.9-1.2-6.7 1.3-7.4 4.2-.8 3.5 1 6.2 4.2 7.4zM84.6 129.1c7.7 0 7.7-12 0-12-7.8 0-7.8 12 0 12zM84.6 129.1c7.7 0 7.7-12 0-12-7.8 0-7.8 12 0 12zM99.6 142.2c-1.5-3.4-4.4-6.1-6.4-9.2-2.4-3.6-4.5-7.5-6.1-11.5-1.4 2.5-2.8 4.9-4.2 7.4h.1c-2.5-1.4-4.9-2.8-7.4-4.2 1.8 4.5 3.8 8.9 6.5 13.1 2.2 3.5 5.6 6.7 7.3 10.5 1.2-2.9 2.4-5.9 3.6-8.8h-.1c-7.3 2.4-4.2 14 3.2 11.6h.1c3.9-1.4 5.1-5.3 3.4-8.9-1.4-3.4-4.3-6.2-6.4-9.2-2.4-3.6-4.5-7.4-6.1-11.5-1.1-2.8-4.1-5.4-7.4-4.2h-.1c-2.8 1-5.5 4.2-4.2 7.4 1.8 4.5 3.8 8.9 6.5 13.1 2.2 3.5 5.6 6.7 7.3 10.5 3.2 7 13.5.9 10.4-6.1zM75.5 124.7c1.7 4.3 3.6 8.5 6.1 12.4 2.3 3.8 5.9 7.1 7.7 11.1 3.2 7 13.5.9 10.4-6.1-1.6-3.6-4.7-6.5-6.9-9.8-2.2-3.4-4.1-7.1-5.7-10.8-1.2-3-4-5.1-7.4-4.2-2.8.8-5.4 4.4-4.2 7.4z"/><path class="st3" d="M113.4 152s0-.1 0 0c-2 1.9-4 3.9-6 5.9 5.6-.3 11.2-.4 16.7-.3l-6-6v.1l6-6c-5.6-.1-11.2 0-16.7.3-7.7.4-7.7 12.4 0 12 5.6-.3 11.1-.4 16.7-.3 3.3.1 5.9-2.8 6-6v-.1c.1-3.3-2.8-5.9-6-6-5.6-.1-11.2 0-16.7.3-3.1.2-6.2 2.6-6 6v.1c.5 7.7 12.5 7.7 12 0zM107.4 158c5.6-.3 11.2-.4 16.7-.3 7.7.1 7.7-11.9 0-12-5.6-.1-11.2 0-16.7.3-7.7.4-7.8 12.4 0 12z"/><path class="st4" d="M106.9 118.6l-10.7-.3 6 6v-.1l-6 6 10.7.3-6-6v.1c-.1 3.2 2.8 6 6 6 3.3 0 5.9-2.7 6-6v-.1c.1-3.3-2.9-5.9-6-5.9-3.6-.2-7.1-.3-10.7-.4-3.3-.1-5.9 2.8-6 6v.1c-.1 3.3 2.8 5.9 6 6l10.7.3c3.2.1 6-2.8 6-6 0-3.3-2.8-5.9-6-6zM96.2 130.3l10.7.3c3.2.1 6-2.8 6-6 0-3.3-2.7-5.9-6-6l-10.7-.3c-3.2-.1-6 2.8-6 6 0 3.3 2.8 5.9 6 6z"/><path class="st5" d="M113.6 110.4c-5.5-.5-11.1-1-16.6-1.5l6 6v-.1l-6 6c5.5.5 11.1 1 16.6 1.5l-6-6v.1c-.5 7.7 11.5 7.7 12 0v-.1c.2-3.4-3-5.7-6-5.9-5.5-.5-11.1-1-16.6-1.6-3.5-.3-5.7 3-6 6v.1c-.4 3.4 3.1 5.7 6 6 5.5.5 11.1 1 16.6 1.5 3.2.3 6-3 6-6 0-3.5-2.8-5.7-6-6zM97 120.9c5.5.5 11.1 1 16.6 1.5 3.2.3 6-3 6-6 0-3.5-2.8-5.7-6-6-5.5-.5-11.1-1-16.6-1.5-3.2-.3-6 3-6 6 0 3.5 2.8 5.6 6 6z"/><path class="st6" d="M127 118.1c7.7 0 7.7-12 0-12-7.8 0-7.8 12 0 12zM127 118.1c7.7 0 7.7-12 0-12-7.8 0-7.8 12 0 12zM128.7 115.2c7.7 0 7.7-12 0-12s-7.7 12 0 12zM128.7 115.2c7.7 0 7.7-12 0-12s-7.7 12 0 12zM126.8 115.2c7.7 0 7.7-12 0-12s-7.7 12 0 12zM126.8 115.2c7.7 0 7.7-12 0-12s-7.7 12 0 12zM127.9 114.1c7.7 0 7.7-12 0-12s-7.7 12 0 12zM127.9 114.1c7.7 0 7.7-12 0-12s-7.7 12 0 12zM129.2 114.1c7.7 0 7.7-12 0-12s-7.7 12 0 12zM129.2 114.1c7.7 0 7.7-12 0-12s-7.7 12 0 12zM126.8 115.2c7.7 0 7.7-12 0-12s-7.7 12 0 12zM126.8 115.2c7.7 0 7.7-12 0-12s-7.7 12 0 12z"/><path class="st7" d="M68.5 139.8c7.7 0 7.7-12 0-12-7.8 0-7.8 12 0 12zM68.5 139.8c7.7 0 7.7-12 0-12-7.8 0-7.8 12 0 12z"/><path class="st8" d="M75.5 161.8c7.7 0 7.7-12 0-12s-7.8 12 0 12zM75.5 161.8c7.7 0 7.7-12 0-12s-7.8 12 0 12z"/><path class="st9" d="M115.8 140.9c7.7 0 7.7-12 0-12s-7.7 12 0 12zM115.8 140.9c7.7 0 7.7-12 0-12s-7.7 12 0 12z"/><path class="st10" d="M128.3 151.9l7.4-4.2-2.3 10.6zM128.3 151.9l5.1 6.3 2.3-10.4z"/><path class="st11" d="M129.8 140.7l6 7-7.6 4.3zM129.8 140.7l-1.5 11.2 7.4-4.1z"/><path class="st12" d="M122.1 145.5l3.6-8.6 4.2 3.8-.8 5.6zM125.7 136.9l-3.6 8.6 7 .8.7-5.6z"/><path class="st13" d="M117.5 137.7l4.1-1.5 4.1.6-3.5 8.8zM117.5 137.6l4.6 7.9 3.6-8.6-4.1-.7zM113.8 145.5l3.7-7.9 4.7 7.9zM113.8 145.5h8.3l-4.6-7.9zM109.9 140l7.6-2.4-3.7 8zM110 140l3.8 5.5 3.7-7.9z"/><path class="st14" d="M109.9 139.9l3.9 5.5-8.2 3.2zM105.7 148.5l4.3-8.5 3.8 5.5z"/><path class="st15" d="M101.7 145.5l8.2-5.6-4.1 8.7zM101.8 145.5l3.9 3 4.3-8.5z"/><path class="st16" d="M101.7 145.5l4.1 3-5 2.2zM100.9 150.6l.9-5.1 3.9 3z"/><path class="st17" d="M100.8 150.6l4.9-2.1.1 4.5zM105.7 153v-4.5l-4.8 2.1z"/><path class="st18" d="M131.2 166.5l-2.9-14.6 5.2 6.2-2.2 8.4zM133.4 158.2l-2.2 8.3-2.9-14.6z"/><path class="st19" d="M129.5 158.1l1.8 8.4-5.6 2.2zM125.7 168.7l3.9-10.5 1.6 8.3z"/><path class="st20" d="M125.7 168.7l5.5-2.2c0 .1-2.5 7.1-5.5 9.3l-.1.1v-7.2zM125.7 175.7v-7.1l5.5-2.2c0 .1-2.5 7.1-5.5 9.3z"/><path class="st21" d="M119.7 169.3l6.1 6.4c-.1.1-4.7 2.4-8.2 2.8h-.1l2.2-9.2zM117.5 178.4l2.2-9.1 6 6.4s-4.6 2.3-8.2 2.7z"/><path class="st22" d="M119.7 169.3l.4-4.9 5.7 4.2v7.2zM120.1 164.4l-.4 4.9 6 6.4v-7z"/><path class="st23" d="M120.1 164.5l9.4-6.4-3.7 10.6zM129.6 158.2l-9.5 6.2 5.6 4.3z"/><path class="st24" d="M119 155.2l10.6 2.9-6.9 4.7zM119.1 155.2l3.6 7.5 6.9-4.5z"/><path class="st25" d="M116.5 162.7l2.5-7.5 3.8 7.5-2.7 1.8zM116.5 162.7l2.6-7.5 3.6 7.5-2.6 1.7z"/><path class="st26" d="M109.7 157.4l9.4-2.2-2.6 7.6zM109.8 157.4l6.7 5.3 2.6-7.5z"/><path class="st27" d="M109.8 169.4l6.7-6.7 3.6 1.7-.3 5zM109.8 169.3l6.7-6.6 3.6 1.7-.4 4.9z"/><path class="st28" d="M109.7 169.3h10l-2.1 9.2zM117.5 178.4l-7.7-9.1h9.9z"/><path class="st29" d="M112.5 178.8c-3.3 0-6.9-.3-10.7-1l8-8.5 7.8 9.1c-.1.1-1.8.4-5.1.4zM101.8 177.8l8-8.5 7.8 9.1c-.1 0-5.5 1.2-15.8-.6zM96.7 170.1l13.1-.8-8 8.5zM96.8 170.1l5 7.7 8-8.5z"/><path class="st30" d="M101.7 157.6l8.1 11.7-13.1.8zM101.8 157.6l-5 12.5 13-.8z"/><path class="st31" d="M105.2 162.7l8.6 2.6-4 4.1zM113.8 165.3l-8.6-2.6 4.6 6.6z"/><path class="st32" d="M110 164.2l-.3-6.8 6.8 5.3-2.7 2.7zM109.8 157.4l.2 6.8 3.8 1.1 2.7-2.6z"/><path class="st33" d="M101.8 177.8c-.1 0-9.4-3.2-11.8-4.9l6.8-2.9 5.1 7.8h-.1zM90 172.9l6.8-2.8 5 7.7s-9.4-3.2-11.8-4.9z"/><path class="st34" d="M85.4 167.4c3.5 2.5 9.9 2.6 11.2 2.6l.2.1L90 173l-4.6-5.6zM85.5 167.4l4.5 5.5 6.8-2.8s-7.5.1-11.3-2.7z"/><path class="st35" d="M90 172.9c-.1 0-9.5-4.6-12.6-7.6l8.1 2 4.5 5.6zM77.4 165.3l8.1 2 4.5 5.5c0 .1-9.5-4.5-12.6-7.5z"/><path class="st8" d="M77.4 165.4c-2.7-3.2-4.1-7.7-4.1-7.7l12.2 9.7v.1l-8.1-2.1zM73.3 157.6s1.4 4.5 4.1 7.7l8.1 2-12.2-9.7z"/><path class="st36" d="M100.8 150.6l5 2.3-4.1 4.8zM100.9 150.6l.9 7 3.9-4.6z"/><path class="st37" d="M99 164.4l1.8-13.8 1 7-2.7 6.9zM99 164.4l1.9-13.8.9 7z"/><path class="st38" d="M105.2 162.7l-3.5-5 4-4.8 4.1 4.5.2 6.8zM109.8 157.4l-4.1-4.4-3.9 4.6 3.4 5.1 4.8 1.5z"/><path class="st39" d="M119.1 155.3c5.6-.5 9.2-3.4 9.2-3.4l1.4 6.4-10.6-3zM128.3 151.9s-3.6 2.9-9.2 3.3l10.5 2.9-1.3-6.2z"/><path class="st40" d="M105.7 153v-2.2c.1 0 6.3 4.3 13.4 4.4l-9.3 2.3-4.1-4.5zM105.7 150.8s6.2 4.3 13.3 4.5l-9.3 2.2-4-4.4v-2.3z"/><path class="st41" d="M96.8 170.1c-8.4-.1-11.3-2.7-11.3-2.7l1-21.1 12.7 18.1-2.4 5.7zM86.5 146.3l-1 21.1s2.8 2.6 11.3 2.7l2.3-5.6-12.6-18.2z"/><path class="st42" d="M86.4 146.3l7-8.2 8.4 7.3-2.7 19.2zM93.4 138.2l-6.9 8.1L99 164.4l2.8-18.9z"/><path class="st43" d="M73.3 135.5l13.2 10.8-1 21.1h-.1zM73.3 135.5l13.2 10.8-1 21.1z"/><path class="st44" d="M73.3 157.7l-2.5-13.4 2.5-8.8 12.3 32zM73.3 157.6l-2.4-13.3 2.4-8.8 12.2 31.9z"/><path class="st45" d="M73.3 135.5L72 118.1l14.5 28.2h-.1zM72.1 118.1l1.2 17.4 13.2 10.8z"/><path class="st46" d="M72 118.1l21.5 20-7.1 8.3zM93.4 138.2l-21.3-20.1 14.4 28.2z"/><path class="st47" d="M129.8 140.8l8.5-11.6c.1.1 1.4 10.4-2.5 18.6v.1l-6-7.1zM138.3 129.2s1.4 10.3-2.6 18.6l-5.9-7.1 8.5-11.5z"/><path class="st48" d="M125.7 136.9c1.9-.2 3.3-.8 4-1.9 1.2-1.8.4-4.2.4-4.2l8.1-1.7-8.4 11.6-4.1-3.8zM130.2 130.8s1.8 5.7-4.4 6.1l4.1 3.8 8.5-11.5-8.2 1.6z"/><path class="st49" d="M127.6 124.1c1.1.6 2.9.9 5.4.9 2.4 0 4.7-.3 4.7-.3l.6 4.5-8.2 1.7-2.5-6.8zM137.8 124.7s-7.4 1-10.1-.6l2.5 6.7 8.1-1.6-.5-4.5z"/><path class="st9" d="M121.6 136.3c-5.6-.4-5.7-1.5-5.7-1.5-.2-.3-.2-.6 0-.9.4-.6 1.7-.7 2-.7 1.5 0 3.7 2.9 3.7 3.1zM121.6 136.2s-2.4-3.1-3.7-2.9c0 0-2.8-.1-2 1.5.1 0 .1 1 5.7 1.4z"/><path class="st50" d="M93.4 138.2l5.6-13 11 14.7-8.2 5.6zM99.1 125.2l-5.7 13 8.4 7.3 8.2-5.5z"/><path class="st51" d="M111.1 135.9l6.4 1.7-7.6 2.4zM111.2 135.9L110 140l7.5-2.4z"/><path class="st2" d="M72.1 118.1l27 7.1-5.7 13zM72.1 118.1l27 7.1-5.7 13z"/><path class="st52" d="M107.6 124.8c-4.2 0-10.2-.2-10.3-.2-6.3-.5-7.5-8.1-7.6-8.2-.5-5.6 2.9-6.7 2.9-6.7 1.7-.5 3.9-.8 6.6-.8 6.3 0 13.6 1.4 15.9 2 2.5.6 2.3 3.7 2.3 3.7-1.5 6.6-4.2 9.4-5.6 9.9-.3.2-1.7.3-4.2.3zm-8-15.3c-2.5 0-4.5.2-6.1.7 0 0-3.2 1-2.7 6.2 0 .1 1.1 7.1 7 7.6.1 0 5.6.2 9.6.2 2.3 0 3.6-.1 3.9-.2 1.3-.5 3.8-3 5.2-9.2 0 0 .3-2.8-2.1-3.4-2.1-.5-9-1.9-14.8-1.9zM93.4 110.2c6.4-1.9 18.6.6 21 1.2 2.4.6 2.1 3.5 2.1 3.5-1.5 6.7-4.3 8.8-5.2 9.2s-13.6 0-13.6 0c-6-.5-7-7.6-7-7.6-.5-5.3 2.7-6.3 2.7-6.3zm-3.6 6.2s1.1 7.6 7.5 8.1c0 0 13.5.4 14.5 0s4-2.7 5.6-9.9c0 0 .3-3.1-2.2-3.7-2.5-.6-15.6-3.3-22.5-1.2 0 .1-3.4 1.1-2.9 6.7z"/><path class="st53" d="M99.4 125.8M99.4 125.8"/><path class="st54" d="M105.4 133.8l5.3-3.4.5 5.5-1.2 4.2zM110.7 130.5l-5.3 3.3 4.6 6.2 1.2-4.1z"/><path class="st55" d="M99 125.3l-1.7-.7h.4c1.4 0 5.9.2 9.5.2 2.5 0 4-.1 4.6-.2l-1 6-5.4 3.4-6.4-8.7zM111.8 124.6l-1.1 5.9-5.3 3.3-6.3-8.6-1.8-.7c0 .1 12.6.6 14.5.1z"/><path class="st56" d="M110.7 130.5l1.1-5.9 3.6 3.5-1.7 6.7-2.6 1.2zM115.4 128.1l-3.6-3.5-1.1 5.9.5 5.4 2.5-1.1z"/><path class="st57" d="M119.8 114.4l2.9-.1 5 9.7-2.9 4.5zM119.9 114.4l4.9 14 2.9-4.3-5-9.7z"/><path class="st58" d="M124.8 128.4l5.4 2.3c0 .1.7 2.6-.4 4.4-.6.9-1.7 1.5-3.1 1.7l-1.9-8.4zM126.7 136.8l-1.9-8.4 5.4 2.4s1.5 5.3-3.5 6z"/><path class="st59" d="M121.6 136.3c-2.4-2.9-3.6-2.9-3.6-2.9l1.8-9.5 1.2-6.1 3.9 10.6 1.9 8.4-1 .2-4.2-.7zM121.1 117.8l-1.2 6.1-1.9 9.5s1.2-.1 3.7 2.9l4.1.6 1-.1-1.9-8.4-3.8-10.6z"/><path class="st60" d="M113.6 134.8l1.7-6.8 4.8-5.1-2.1 10.4s-1 0-1.6.3c-.1 0-.3.1-.5.2-.9.4-2.2 1-2.3 1zm1.8-6.7l-1.6 6.6c.3-.1 1.4-.6 2.1-.9.3-.1.4-.2.5-.2.5-.2 1.4-.3 1.6-.3l2-10-4.6 4.8zM115.9 133.8c-.8.4-2.2 1-2.2 1l1.7-6.7 4.7-5-2 10.2s-1 0-1.6.3c-.2 0-.4.1-.6.2"/><path class="st52" d="M117.4 114.4v-1.2l7-.1-.2 1.3zM117.4 113.2h7l-.3 1.2H117.4z"/><path class="st61" d="M122.7 114.4l1.4-.1-.1 2.7zM124 116.9l.1-2.5h-1.4z"/><path class="st62" d="M72.1 118.1c.9-.1 17.5-2.6 17.7-2.6.1.1.9 7 5.9 8.6v.1l-23.6-6.1zM72.1 118.1c.4.1 17.7-2.5 17.7-2.5s.7 7 5.9 8.6l-23.6-6.1z"/><path class="st52" d="M73.9 116.1l15.8-1.8.1 1.3-13.4 2zM89.8 114.4L73.9 116l2.5 1.6 13.4-2z"/><path class="st63" d="M64.5 117.6l9.4-1.6 2.5 1.5-4.3.6-5.3 1.1zM66.8 119.1l5.3-1 4.3-.5-2.5-1.6-9.4 1.6z"/><path class="st64" d="M57.8 118.7l6.7-1.2 2.3 1.6-5.1 1.2zM61.7 120.3l5.1-1.2-2.3-1.5-6.6 1.1z"/><path class="st65" d="M71.3 107.5l18.5 6.8-15.8 1.8-2 .3zM72.1 116.3l-.8-8.8 18.5 6.9-15.9 1.6z"/><path class="st66" d="M71.3 107.5l12.9-7.3 5.6 14.2zM84.2 100.2l-12.9 7.3 18.5 6.9z"/><path class="st67" d="M111.1 105l5.3 4.5-6 .6zM116.4 109.5l-5.2-4.5-.7 5z"/><path class="st68" d="M101 103.4l10.2 1.6-6.6 3.1zM101 103.4l3.6 4.6 6.6-3z"/><path class="st69" d="M94.4 106.6l6.6-3.3 3.7 4.8zM94.4 106.6l6.6-3.2 3.6 4.6z"/><path class="st70" d="M92.1 103.1l8.9.2-6.6 3.3zM92.1 103l2.3 3.6 6.6-3.2z"/><path class="st71" d="M85.3 103.1l6.9-.1 2.3 3.5-1.7 3.2c-2.3.5-3 4.5-3 4.6v.2l-4.5-11.4zM92.1 103h-6.8l4.4 11.3s.7-4.1 3-4.6l1.7-3.2-2.3-3.5z"/><path class="st53" d="M92.7 109.8M92.7 109.8"/><path class="st72" d="M110.4 110.1c-.1 0-6.4-1-11.8-1-2.6 0-4.6.2-5.9.7l1.6-3.2 10.2 1.5 5.9 2zM92.7 109.8l1.7-3.2 10.2 1.5 5.9 2c0-.1-13-2.1-17.8-.3z"/><path class="st52" d="M133.3 124.9c-3 0-4.9-.3-5.6-.8l-3.7-7.2.1-2.5.3-1.2c0-.1.8-2.9 2.3-3.4.8-.3 4-1 7.6-1 3.2 0 5.9.5 8 1.4 1.2.5 2 1.5 2.2 2.7.1.3.1.6 0 .9v.2c-1 8.2-4.2 10.4-6.7 10.7 0 0-2.2.2-4.5.2zm-5.9-1.4c.2 0 4 .3 7.3.3 2 0 3.5-.1 4.3-.3 3-.8 4.2-7.9 4.4-9.6.2-2.1-1.4-2.6-1.5-2.6-2.6-1.1-5.3-1.6-8-1.6-3.1 0-5.6.7-6.9 1.1l-.3.1c-2 .6-2 7.3-2 7.4l2.7 5.2zM124.4 113.2s.8-2.8 2.3-3.4c1.4-.5 9.8-2.1 15.5.5 1.1.5 2 1.5 2.2 2.6 0 .3.1.6 0 .9-.2 1.6-.9 10.1-6.7 10.9 0 0-8.3.7-10.1-.6l-3.7-7.2.1-2.5.4-1.2zm3 10.3s8.8.8 11.7 0c2.9-.8 4.2-7.5 4.4-9.7.2-2.2-1.5-2.6-1.5-2.6-7.1-3-13.2-1.1-15.3-.5s-2.1 7.4-2.1 7.4l2.8 5.4z"/><path class="st73" d="M138.5 109s-1.2-.3-5.1-.3l3.9-3.7c.1 0 1.3 1.6 1.2 4zM137.3 105s1.3 1.6 1.2 4c0 0-1.2-.3-5.1-.3l3.9-3.7z"/><path class="st6" d="M131.3 105.7l6-.7-3.9 3.8zM131.4 105.7l2 3 3.9-3.7z"/><path class="st74" d="M126.7 109.7l4.7-4.1 2.1 3c-.1.1-2.9.1-6.8 1.1zM126.7 109.8l4.7-4.1 2.1 3c-.1 0-2.9 0-6.8 1.1z"/><path class="st75" d="M125.7 106.6l5.7-.9-4.7 4.1zM125.7 106.6l1 3.2 4.7-4.1z"/><path class="st76" d="M127.6 96.6l3.2-7.3c.1 0 5 5.3 6.6 15.8l-6 .7-3.8-9.2zM130.9 89.3s4.9 5.2 6.5 15.8l-6 .7-3.7-9.1 3.2-7.4z"/><path class="st77" d="M125.7 102l1.9-5.5 3.8 9.2-5.7.9zM125.7 102l2-5.4 3.7 9.1-5.7.9z"/><path class="st78" d="M116.4 109.5l8.2-11.7 1.2 4.1v4.5l1 3.2c-1.3.4-2.3 3.4-2.3 3.4l-8.1-3.5zM124.6 97.9l-8.2 11.6 8 3.7s1-3.1 2.3-3.4l-1-3.2V102l-1.1-4.1z"/><path class="st79" d="M117.4 113.2c0-.1-.3-1.8-2.5-2.2l-4.5-.9 6-.6 8 3.7v.1h-7zM117.4 113.2s-.3-1.8-2.5-2.2l-4.5-.9 6-.5 8 3.7h-7z"/><path class="st80" d="M111.2 105.1l-1.7-9.9 12 7.1-5.1 7.3zM109.5 95.2l1.7 9.8 5.2 4.5 5.1-7.1z"/><path class="st81" d="M109.5 95.3l6.3-14.3 5.7 21.5zM115.9 81l-6.4 14.2 12 7.2z"/><path class="st82" d="M115.8 81l6.5 1.6 1.2 17-2 2.9zM122.3 82.7l1.1 16.9-1.9 2.8-5.6-21.4z"/><path class="st83" d="M101 103.4l-3.7-.1 12.2-8.1 1.7 9.9zM97.3 103.2l12.2-8 1.7 9.8-10.2-1.6z"/><path class="st84" d="M69.3 168.2c0-.1-.5-7.9-2-13.1l6.1 2.6c0 .1 1.5 5.1 4.1 7.7l-8.2 2.8zM69.3 168.2s-.5-7.8-2.1-13.1l6 2.6s1.5 5.1 4.1 7.7l-8 2.8z"/><path class="st85" d="M67.3 155.1l3.5-10.9 2.6 13.5zM70.9 144.3L67.3 155l6 2.6z"/><path class="st86" d="M64.5 146.3h.7c2.3 0 5.6-2.1 5.7-2.1l-3.6 10.9-2.8-8.8zM64.5 146.3l2.8 8.7 3.6-10.8c0 .1-4 2.6-6.4 2.1z"/><path class="st87" d="M70.8 144.3l-2.4-11 4.9 2.2-2.4 8.8zM68.4 133.3l2.5 11 2.4-8.8z"/><path class="st88" d="M68.4 133.3l3.6-15.2 1.4 17.5zM72.1 118.1l-3.7 15.2 4.9 2.2z"/><path class="st89" d="M68.4 133.4c-.3 0-3.1-10.5-4-13.7l2.3-.6 5.3-1-3.6 15.3zM64.5 119.7s3.8 14.3 4 13.6c.2-.7 3.6-15.2 3.6-15.2l-5.3 1-2.3.6z"/><path class="st90" d="M137.3 105c0-.1-.5-8.5-6.5-15.7l3.2-10.4 4.5 2c.1.2 4.3 14.3-1.2 24.1v.2-.2zM138.5 81s4.2 14.1-1.2 24c0 0-.4-8.4-6.5-15.8l3.2-10.3 4.5 2.1z"/><path class="st91" d="M130.8 89.3V68.8l3.3 10.1-3.2 10.4zM130.9 68.8v20.5l3.2-10.4zM134 79l-3.2-10.2 7.9 12.3zM138.5 81l-7.6-12.2 3.2 10.1z"/><path class="st92" d="M124.6 97.9l-1.1 1.7-1.2-16.9 8.5-7.3.1 13.9-3.2 7.3-2 5.6zM130.9 75.5l-8.6 7.2 1.1 16.9 1.2-1.7 1.1 4.1 2-5.4 3.2-7.3z"/><path class="st93" d="M119.6 61.1c6.3 3.4 11.2 7.6 11.3 7.7v6.7l-8.6 7.3-2.7-21.7zM119.6 61.1l2.7 21.5 8.5-7.2v-6.7c.1.1-4.8-4.1-11.2-7.6z"/><path class="st94" d="M115.8 81l3.8-19.9 2.8 21.6zM115.9 81l3.7-19.9 2.7 21.6z"/><path class="st95" d="M85.3 74.9l23-16.6-3 17.2zM85.3 74.9l23-16.6-3.1 17.2zM91.1 55.2l17.2 3.1L85.2 75zM91.1 55.2l-5.8 19.7 23-16.6z"/><path class="st96" d="M63 71.7c.1-.2 13.8-15.7 28.1-16.5l-2.9 9.9-25.3 6.7.1-.1zM63 71.7S76.6 56 91.1 55.2L88.2 65 63 71.7z"/><path class="st97" d="M105.2 75.5l12.8-5.7-2.1 11.2-6.3 14.2-12.4 7.9zM105.2 75.5L97.3 103l12.2-7.8 6.4-14.2 2.1-11.2z"/><path class="st98" d="M85.3 103.1l-1.1-2.9 21-24.8-7.9 27.9zM84.2 100.2l21-24.7-7.9 27.7-12-.2z"/><path class="st99" d="M85.3 74.9l19.9.5-21 24.9zM85.3 74.9l-1.1 25.3 21-24.7z"/><path class="st100" d="M85.3 74.9l-1.1 25.3-13 7.4zM71.3 107.5l14-32.6-1.1 25.3z"/><path class="st101" d="M77.4 93.3l-1.9-24.9L88.2 65l-2.8 9.9-8 18.4zM75.5 68.4l1.9 24.9 7.9-18.4 2.9-9.8z"/><path class="st102" d="M63 71.7l12.5-3.3 2 25.1zM63 71.7l14.4 21.6-1.9-24.9z"/><path class="st103" d="M48.9 91.7c0-.2 6.1-14.2 14.1-20.1l14.5 21.7-28.6-1.6zM48.9 91.7s6-14.1 14.2-20l14.4 21.6-28.6-1.6z"/><path class="st104" d="M56 92.1l21.4 1.1-6.1 14.3zM71.3 107.5L56 92.1l21.4 1.2z"/><path class="st105" d="M62.3 98.4l9 9 .8 8.9-7.6 1.3-6.7 1.1zM57.9 118.7l4.4-20.3 9 9.1.8 8.8-7.6 1.3z"/><path class="st106" d="M48.8 91.7l7.2.3 6.3 6.4-4.4 20.4zM48.9 91.7l9 27 4.4-20.3-6.3-6.3z"/><path class="st107" d="M51.5 123.1c-.1-.1-6.9-10.8-2.7-31.4l9.1 27c-.1 0-1.1-.5-2.3-.5-1.5-.1-3.3.8-4.1 4.9zM51.6 123.1s-6.9-10.5-2.7-31.4l9 27s-5.2-3-6.3 4.4zM64.5 151.9l-3.9-7.6 4 2c.1.1 4.5 12.5 4.3 17.9h-.1l-4.3-12.3zM60.6 144.3l3.9 2.1s4.4 12.4 4.3 17.9L64.5 152l-3.9-7.7z"/><path class="st108" d="M57.8 132.2l2.8-4.1 2.6 2.1-5.4 5.4zM63.1 130.2l-2.5-2.1-2.7 4.1v3.3z"/><path class="st7" d="M57.9 135.6l5.3-5.4c.1.1-.3 2.7-.1 3.6.1.9 1.8 2.9 1.8 3l.1.1-7.1-1.3zM64.7 136.8s-1.7-2.1-1.8-3c-.1-.9.2-3.6.2-3.6l-5.3 5.3 6.9 1.3z"/><path class="st109" d="M54.4 121.2l6.1 4.5-6.1 1.7zM60.5 125.7l-6-4.5v6.1z"/><path class="st110" d="M53.6 131.8l-1-6 1.8-4.6.1 6.1-.8 4.5zM53.7 131.8l.8-4.5v-6.1l-1.8 4.6z"/><path class="st111" d="M65.1 146.4c-.4 0-.6-.1-.6-.1l-3.9-2.1 4.1-7.5 6.2 7.5c-3.2 1.9-5 2.2-5.8 2.2zM64.7 136.8l-4.1 7.5 3.9 2.1s1.6.7 6.3-2.1l-6.1-7.5z"/><path class="st112" d="M64.7 136.8c-2.6-2.5-1.6-6.5-1.6-6.6l2.7-5.3 2.6 8.4 2.4 11h-.1l-6-7.5zM65.9 124.9l-2.7 5.3s-1.1 4.1 1.6 6.5l6.1 7.5-2.4-11-2.6-8.3z"/><path class="st113" d="M60.6 144.3c-6.5-3.2-7.9-8.9-7.9-8.9l5.2.1 6.9 1.3-4.2 7.5zM52.7 135.3s1.4 5.6 7.9 8.9l4.1-7.5-6.9-1.3-5.1-.1z"/><path class="st114" d="M60.6 128.1l-.1-2.4 1.2-5.4 2.7-.7 1.5 5.3-2.7 5.4zM61.7 120.3l-1.2 5.4.1 2.4 2.5 2.1 2.8-5.3-1.4-5.2z"/><path class="st115" d="M118.8 155.3c-1.4 0-5.1-.8-5.1-.8l3.8-3 5.9 2.9c0 .1-3.2.8-4.4.9h-.2zM117.5 151.5l-3.8 3s4.2.9 5.3.8c1.2-.1 4.4-.9 4.4-.9l-5.9-2.9z"/><path class="st3" d="M123.3 154.3h-.3l-5.6-2.8 10.8.3c-3 2.2-4.3 2.5-4.9 2.5zM128.3 151.9l-10.8-.4 5.6 2.8c0-.1 1 .4 5.2-2.4z"/><path class="st116" d="M113.7 154.4s-4.6-1.1-8-3.7l11.8.6-3.8 3.1zM105.7 150.8l11.8.7-3.8 3c0-.1-4.5-1.2-8-3.7z"/><path class="st117" d="M105.7 150.8c1.8-.4 4.4-.6 7.9-.6 6.9 0 14.6.7 14.7.7v1l-22.6-1.1zM128.3 150.9s-16-1.4-22.6-.2l22.6 1.1v-.9z"/><path class="st118" d="M116.4 150.3l4.1-1.9 8.1 1.2-.3 1.4zM120.5 148.4l-4.1 1.8 11.9.7.3-1.3z"/><path class="st119" d="M105.7 148.5l14.8-.1-4.1 1.9h-1.5c-2.5 0-8.3 0-9.2.5h-.1v-2.3zM105.7 148.5l14.8-.1-4.1 1.8s-9.5-.1-10.7.5v-2.2z"/><path class="st120" d="M120.9 148.5l-15.2.1 8.1-3.2h8.3l7 .9-.5 3.4zM113.8 145.5l-8.1 3 15.2-.1 7.7 1.2.5-3.3-7-.8z"/><path class="st121" d="M98.2 118.6c-1.7 0-3-.5-3-.5-1-.8-.6-2.9-.5-3 2.1-1.8 3.9-2.2 5.1-2.2.8 0 1.2.2 1.2.2 1.8 3.7 0 5 0 5-.8.4-1.8.5-2.8.5zM94.7 115.1s-.5 2.2.5 3c0 0 2.9 1.1 5.8 0 0 0 1.7-1.3 0-4.9 0 0-2.7-1.1-6.3 1.9z"/><path class="st122" d="M92.7 116.9l2-1.8c.1.1-.4 1.8.6 3l-.1.1-2.5-1.3zM92.7 116.8l2-1.7s-.5 1.7.5 3l-2.5-1.3z"/><path class="st123" d="M103.3 117.6c.8-.6 1.2-1.3 1.2-2 0-1-.9-1.7-.9-1.7 1.3 0 3.6 1.7 3.7 1.8.1.2.1.4 0 .6-.5.9-3.9 1.3-4 1.3l-.1.1.1-.1zM107.2 115.6s-2.4-1.8-3.7-1.9c0 0 2.2 1.8-.3 3.8.1.1 4.8-.5 4-1.9z"/><path class="st124" d="M92.1 117.1l-.1-.1c-.1-.1 0-.2.1-.5 0 0 2.8-4.1 8.1-4.1 2.2 0 4.6.7 7.1 2.1.1.1.7.7.5 1 0 .1-.2.1-.3.1h-.3s-1.8-1.4-3.5-1.8c0 0-1.8-.6-2.7-.6-.1 0-.5-.2-1.2-.2-1 0-2.8.4-5.1 2.1l-2 1.7c0 .1-.3.3-.6.3zM92.1 116.6s5.1-7.7 15.2-2c0 0 1.3 1.3-.1 1 0 0-1.7-1.4-3.5-1.8 0 0-1.9-.7-2.8-.6 0 0-2.3-1.1-6.3 2l-2 1.7c.1-.1-.9.6-.5-.3z"/><path class="st125" d="M113.4 116.6l2.5.6-1.2 3zM114.7 120.1l-1.3-3.5 2.5.6z"/><path class="st126" d="M113.4 116.7l3-1.5-.5 2.1zM116.4 115.2l-3 1.4 2.5.6z"/><path class="st127" d="M98.2 124.1c-5.5 0-7.1-5.9-7.1-6l.9-1.1.7-.3 2.5 1.3c.9.3 1.9.4 2.9.4 1.7 0 2.8-.4 2.8-.4l-2.7 6.1zM92 117.1l-.9 1s1.5 5.9 7.1 6l2.8-6s-2.6 1-5.8 0l-2.5-1.3-.7.3z"/><path class="st128" d="M91.1 118.1c0-.1-1.8-5.7 2-7.8l1.7 3.8c0 .1-2.5 1.7-2.7 2.9l-1 1.1zM93.1 110.4l1.6 3.8s-2.4 1.6-2.7 2.9l-.9 1s-1.8-5.7 2-7.7z"/><path class="st129" d="M101 118.1c0-.1 1.9-.3 2.3-.6.2-.1.2-.2.3-.2v.2c0-.1 3.1-.5 3.6-1.4.1-.2.1-.3 0-.5l4.2 8.5-10.4-6zM107.2 115.6l4 8.4-10.3-6s1.9-.2 2.3-.5c.4-.3.2 0 .2 0s4.5-.5 3.8-1.9z"/><path class="st5" d="M107.2 115.7l.7-.1 5.6 1 1.3 3.5c-1.8 3.5-3.4 4-3.4 4l-4.2-8.4zM113.4 116.6l-5.6-1h-.6l4 8.4s1.6-.4 3.4-3.9l-1.2-3.5z"/><path class="st130" d="M107.9 115.7c0-.7-.5-1-.5-1l3.1-4.1c4.7.7 5 1.2 5 1.2 1.6 1.1 1.1 3.4 1.1 3.5l-3 1.4-5.7-1zM110.5 110.6l-3.1 4.1s.5.3.5 1l5.6 1 3-1.4s.5-2.3-1.1-3.4c0-.1-.2-.6-4.9-1.3z"/><path class="st131" d="M107.3 114.7c-2-1.5-5.6-2.1-5.6-2.1v-3c3.1 0 8.7 1 8.7 1l-3.1 4.1zM101.8 109.6l-.1 2.9s3.6.6 5.6 2.1l3.1-4.1c.1.1-5.5-.9-8.6-.9z"/><path class="st132" d="M93 110.4c1.9-.8 4.7-.9 6.7-.9 1.2 0 2.1.1 2.1.1v3h-1.4c-3.7 0-5.6 1.7-5.6 1.7l-1.8-3.9zM93.1 110.4l1.6 3.8s2.4-2.2 7-1.7l.1-2.9s-5.6-.4-8.7.8z"/><path class="st124" d="M135.5 116.1s-2.8-2.3-6-2.3c-1.7 0-3.2.6-4.6 1.8-.1-.1 1.5-2.6 4.5-2.6 1.9 0 4 1 6.1 3.1zM124.8 115.6s3.7-6 10.7.4c0 0-5.9-4.8-10.7-.4z"/><path class="st133" d="M134.3 118.4c.1-.4-1.6-3.1-2.3-4.1.2 0 2.9 1.1 3.5 1.8.6.7 1 1.2 1 1.2l-2.2 1.1zM134.4 118.4c.1-.6-2.3-4.2-2.3-4.2s2.8 1.1 3.5 1.8c.6.7 1 1.2 1 1.2l-2.2 1.2z"/><path class="st122" d="M130 119.1h-.9c0-.1 1.4-.1 2.2-1.2.6-.9.7-2.2.1-3.8l.7.1c.1.1 2.4 3.2 2.4 4.2-.2 0-2.2.7-4.5.7zM134.4 118.4s-2.7.9-5.3.6c0 0 3.9-.1 2.3-5l.6.2s2.4 3.2 2.4 4.2z"/><path class="st128" d="M127.4 123.5l-2.8-5.4.2-2.5c.3 2.9 1.9 3.5 3.2 3.5.6 0 1-.1 1-.1l2.4 4.8-4-.3zM124.8 115.6l-.2 2.5 2.7 5.4 4 .3-2.3-4.7c.1-.1-3.8 1.1-4.2-3.5z"/><path class="st134" d="M129 119h1.2c1.1 0 2.6-.1 4.1-.7l-3 5.5-2.3-4.8zM134.4 118.4l-3 5.4-2.3-4.7c0-.1 2.8.3 5.3-.7z"/><path class="st135" d="M136.4 117.3s-2.5-3.4-6-4.1l3.4-3.7c.3 0 3.4.2 4.7.5l-2.1 7.3zM138.5 110.1l-2.1 7.2s-2.4-3.4-6-4.1l3.4-3.6c.1 0 3.4.1 4.7.5z"/><path class="st136" d="M126.7 110.7c4.1-1.2 6.7-1.2 7.1-1.2l-3.3 3.7-3.8-2.5zM126.7 110.7l3.8 2.5 3.4-3.6s-2.7-.1-7.2 1.1z"/><path class="st137" d="M124.8 115.6c0-.2.2-4.2 1.9-4.9l3.8 2.5h-1c-1.1-.1-3.2.2-4.7 2.4v.2-.2zM124.8 115.6s.2-4.2 1.9-4.9l3.8 2.5s-3.5-.9-5.7 2.4z"/><path class="st138" d="M124.8 128.4l2.8-4.4 2.7 6.9zM130.2 130.8l-5.4-2.4 2.9-4.3z"/><path class="st139" d="M104.6 108.1l6.6-3.1-.7 5.1zM104.6 108l6.6-3-.7 5z"/><path class="st4" d="M98.2 124.1l2.8-6 10.4 6zM98.2 124.1l2.8-6 10.3 6z"/><path class="st140" d="M111.8 124.6c4.3-2.1 5.6-10.2 5.6-10.3h2.5l1.2 3.4-1.1 5.3-4.7 5.1-3.5-3.5zM119.9 114.4h-2.4s-1.2 8.2-5.6 10.2l3.5 3.5 4.7-5 1.1-5.3-1.3-3.4z"/><path class="st121" d="M128 119.2c-.9 0-1.6-.3-2.1-.8-1-1-1-2.7-1-2.8 1.7-1.6 3.5-1.9 4.7-1.9 1.1 0 1.9.3 1.9.3.6 1.7.5 3.1-.1 4-.8 1.1-2.2 1.1-2.2 1.1-.5 0-.9.1-1.2.1zM124.8 115.6s0 4.3 4.2 3.4c0 0 3.8-.1 2.3-5 .1 0-3.4-1.2-6.5 1.6z"/><path class="st141" d="M135.4 123.9c-1.8 0-4-.2-4-.2l2.9-5.4 2.1-1.1 1.3 6.5c-.3.2-1.1.2-2.3.2zM137.7 123.7l-1.2-6.5-2.1 1.1-3 5.4s5.2.4 6.3 0z"/><path class="st142" d="M111.2 135.9l4.7-2.2c0 .4 0 .7.2 1 1 1.4 5.5 1.5 5.6 1.5l-4.1 1.5-6.4-1.8zM115.9 133.8l-4.7 2.1 6.3 1.8 4.1-1.4c0-.1-6.5-.2-5.7-2.5z"/><path class="st143" d="M108.2 58.3l11.5 2.8-1.7 8.8-12.8 5.6zM108.3 58.3l-3.1 17.2 12.8-5.7 1.6-8.7z"/><path class="st144" d="M52.7 135.4c-.1-.1-2.1-5.1-1.2-12.3l1.2 2.7 1 6 .7-4.5 6.1-1.6.2 2.4-2.8 4.1v3.3l-5.2-.1zM52.7 135.3s-2.1-5-1.1-12.3l1.1 2.7 1 6 .8-4.5 6-1.6.1 2.4-2.8 4.1v3.3l-5.1-.1z"/><path class="st142" d="M51.5 123.1c0-.1.4-5 4-5 .7 0 1.5.2 2.3.5l3.8 1.6-1.2 5.5-6.1-4.5-1.7 4.6-1.1-2.7zM52.7 125.8l-1.1-2.7s.4-6.9 6.3-4.4l3.8 1.6-1.2 5.4-6-4.5-1.8 4.6z"/><path class="st122" d="M101 118.1c1.8-2 0-4.9 0-4.9 1.5.1 2.6.5 2.6.5.7.6.9 1.3.9 2-.1 1-.9 1.8-1.2 1.9-.3.2-2.2.5-2.3.5zM103.6 113.8s-1.1-.4-2.6-.6c0 0 1.9 2.9 0 4.9 0 0 2-.3 2.3-.5.3-.2 2.2-2 .3-3.8z"/><path class="st145" d="M97 115.3l1.4-1.3 1.1 1.2-1.1 1.2zM98.4 114l-1.3 1.2 1.3 1.1 1.1-1.1zM127.6 114.6l1.9.1-1.2 1.6zM129.5 114.8l-1.2 1.4-.6-1.7z"/></svg>