<svg xmlns="http://www.w3.org/2000/svg" xmlns:xlink="http://www.w3.org/1999/xlink" width="192" height="234" viewBox="0 0 192 234"><style type="text/css">.st0{fill:#F2F2F2;} .st1{fill:#F69133;} .st2{clip-path:url(#SVGID_2_);} .st3{clip-path:url(#SVGID_4_);fill:#F0C0B3;} .st4{clip-path:url(#SVGID_4_);fill:#E3BAAF;} .st5{clip-path:url(#SVGID_4_);fill:#DEB39C;} .st6{clip-path:url(#SVGID_4_);fill:#EEB69A;} .st7{clip-path:url(#SVGID_4_);fill:#CD9A84;} .st8{clip-path:url(#SVGID_4_);fill:#CC9286;} .st9{clip-path:url(#SVGID_4_);fill:#C18B7D;} .st10{clip-path:url(#SVGID_4_);fill:#BE8072;} .st11{clip-path:url(#SVGID_4_);fill:#C18471;} .st12{clip-path:url(#SVGID_4_);fill:#C6896F;} .st13{clip-path:url(#SVGID_4_);fill:#CC8976;} .st14{clip-path:url(#SVGID_4_);fill:#D59078;} .st15{clip-path:url(#SVGID_4_);fill:#F3CAB5;} .st16{clip-path:url(#SVGID_4_);fill:#E4B3A7;} .st17{clip-path:url(#SVGID_4_);fill:#D39893;} .st18{clip-path:url(#SVGID_4_);fill:#EAB1A2;} .st19{clip-path:url(#SVGID_4_);fill:#E9BEAC;} .st20{clip-path:url(#SVGID_4_);fill:#F6CFBE;} .st21{clip-path:url(#SVGID_4_);fill:#F2CEC0;} .st22{clip-path:url(#SVGID_4_);fill:#F9D4CE;} .st23{clip-path:url(#SVGID_4_);fill:#F5CEC6;} .st24{clip-path:url(#SVGID_4_);fill:#F8DAD3;} .st25{clip-path:url(#SVGID_4_);fill:#EC9C8B;} .st26{clip-path:url(#SVGID_4_);fill:#FFD4CD;} .st27{clip-path:url(#SVGID_4_);fill:#5E2316;} .st28{clip-path:url(#SVGID_4_);fill:#4F2118;} .st29{clip-path:url(#SVGID_4_);fill:#E1C9B9;} .st30{clip-path:url(#SVGID_4_);fill:#B76B67;} .st31{clip-path:url(#SVGID_4_);fill:#C26974;} .st32{clip-path:url(#SVGID_4_);fill:#D96775;} .st33{clip-path:url(#SVGID_4_);fill:#F09191;} .st34{clip-path:url(#SVGID_4_);fill:#F4CCC6;} .st35{clip-path:url(#SVGID_4_);fill:#060500;} .st36{clip-path:url(#SVGID_4_);fill:#954D41;} .st37{clip-path:url(#SVGID_4_);fill:#4C1409;} .st38{clip-path:url(#SVGID_4_);fill:#78241F;} .st39{clip-path:url(#SVGID_4_);fill:#D28977;} .st40{clip-path:url(#SVGID_4_);fill:#ECAA9E;} .st41{clip-path:url(#SVGID_4_);fill:#2B0D02;} .st42{clip-path:url(#SVGID_4_);fill:#FFE7DD;} .st43{clip-path:url(#SVGID_4_);fill:#FFDFD4;} .st44{clip-path:url(#SVGID_4_);fill:#F9D8CE;} .st45{clip-path:url(#SVGID_4_);fill:#FFE0D6;} .st46{clip-path:url(#SVGID_4_);fill:#2B0000;} .st47{clip-path:url(#SVGID_4_);fill:#FFF9EF;} .st48{clip-path:url(#SVGID_4_);fill:#120000;} .st49{clip-path:url(#SVGID_4_);fill:#EFB89E;} .st50{clip-path:url(#SVGID_4_);fill:#E8B9A5;} .st51{clip-path:url(#SVGID_4_);fill:#FFC8B4;} .st52{clip-path:url(#SVGID_4_);fill:#90482F;} .st53{clip-path:url(#SVGID_4_);fill:#7A3622;} .st54{clip-path:url(#SVGID_4_);fill:#6E2316;} .st55{clip-path:url(#SVGID_4_);fill:#82392E;} .st56{clip-path:url(#SVGID_4_);fill:#8F4F3E;} .st57{clip-path:url(#SVGID_4_);fill:#FFC6BC;} .st58{clip-path:url(#SVGID_4_);fill:#CC796B;} .st59{clip-path:url(#SVGID_4_);fill:#905645;} .st60{clip-path:url(#SVGID_4_);fill:#D88271;} .st61{clip-path:url(#SVGID_4_);fill:#8B351D;} .st62{clip-path:url(#SVGID_4_);fill:#3C1006;} .st63{clip-path:url(#SVGID_4_);fill:#060000;} .st64{clip-path:url(#SVGID_4_);fill:#190A0E;} .st65{clip-path:url(#SVGID_4_);fill:#A25D49;} .st66{clip-path:url(#SVGID_4_);fill:#C0755D;} .st67{clip-path:url(#SVGID_4_);fill:#D88A7E;} .st68{clip-path:url(#SVGID_4_);fill:#361511;} .st69{clip-path:url(#SVGID_4_);fill:#542314;} .st70{clip-path:url(#SVGID_4_);fill:#72322B;} .st71{clip-path:url(#SVGID_4_);fill:#472013;} .st72{clip-path:url(#SVGID_4_);fill:#4F2012;} .st73{clip-path:url(#SVGID_4_);fill:#6E2618;} .st74{clip-path:url(#SVGID_4_);fill:#622B1F;} .st75{clip-path:url(#SVGID_4_);fill:#65220F;} .st76{clip-path:url(#SVGID_4_);fill:#7E4638;} .st77{clip-path:url(#SVGID_4_);fill:#DCA599;} .st78{clip-path:url(#SVGID_4_);fill:#6C3122;} .st79{clip-path:url(#SVGID_4_);fill:#AB8071;} .st80{clip-path:url(#SVGID_4_);fill:#E5B29D;} .st81{clip-path:url(#SVGID_4_);fill:#E6B7A7;} .st82{clip-path:url(#SVGID_4_);fill:#D6A992;} .st83{clip-path:url(#SVGID_4_);fill:#EABFAE;} .st84{clip-path:url(#SVGID_4_);fill:#553D31;} .st85{clip-path:url(#SVGID_4_);fill:#854E40;} .st86{clip-path:url(#SVGID_4_);fill:#834534;} .st87{clip-path:url(#SVGID_4_);fill:#593227;} .st88{clip-path:url(#SVGID_4_);fill:#6F4D47;} .st89{clip-path:url(#SVGID_4_);fill:#3F2B20;} .st90{clip-path:url(#SVGID_4_);fill:#684329;} .st91{clip-path:url(#SVGID_4_);fill:#5E3D3C;} .st92{clip-path:url(#SVGID_4_);fill:#592512;} .st93{clip-path:url(#SVGID_4_);fill:#FDE1D3;} .st94{clip-path:url(#SVGID_4_);fill:#6D4A3E;} .st95{clip-path:url(#SVGID_4_);fill:#F5D9CC;} .st96{clip-path:url(#SVGID_4_);fill:#FAE3D9;} .st97{clip-path:url(#SVGID_4_);fill:#F8DDD3;} .st98{clip-path:url(#SVGID_4_);fill:#C98B78;} .st99{clip-path:url(#SVGID_4_);fill:#EFCCC1;} .st100{clip-path:url(#SVGID_4_);fill:#FFE4DD;} .st101{clip-path:url(#SVGID_4_);fill:#FFE9DD;} .st102{clip-path:url(#SVGID_4_);fill:#CA9E94;} .st103{clip-path:url(#SVGID_4_);fill:#FFDDC9;} .st104{clip-path:url(#SVGID_4_);fill:#EFD6CA;} .st105{clip-path:url(#SVGID_4_);fill:#F0CFCA;} .st106{clip-path:url(#SVGID_4_);fill:#F9C7BD;} .st107{clip-path:url(#SVGID_4_);fill:#120600;} .st108{clip-path:url(#SVGID_4_);fill:#FFF4F8;} .st109{clip-path:url(#SVGID_4_);fill:#EFC9BF;} .st110{clip-path:url(#SVGID_4_);fill:#FFC7B9;} .st111{clip-path:url(#SVGID_4_);fill:#6F4944;} .st112{clip-path:url(#SVGID_4_);fill:#D37E65;}</style><path class="st0" d="M0 0h192v234H0z"/><path class="st1" d="M192 215.5L172.5 234H192z"/><defs><path id="SVGID_1_" d="M20.9 50.2h151.2v151.2H20.9z"/></defs><clipPath id="SVGID_2_"><use xlink:href="#SVGID_1_" overflow="visible"/></clipPath><g class="st2"><defs><path id="SVGID_3_" d="M20.9 50.2h151.2v151.2H20.9z"/></defs><clipPath id="SVGID_4_"><use xlink:href="#SVGID_3_" overflow="visible"/></clipPath><path class="st3" d="M97.5 177.9c-5.8 0-10.8-2.8-10.9-2.9l7.9-14.5 11.9 14.5c-2.5 1.9-5.5 2.9-8.9 2.9zM94.6 160.5l-8 14.5s11.2 6.4 19.8 0l-11.8-14.5z"/><path class="st4" d="M94.6 160.5c.1 0 5.9-.6 8.6-2.9l11.2 10.5-8 6.9-11.8-14.5zM114.4 168.1l-7.9 6.9-11.9-14.5s5.8-.6 8.6-2.9l11.2 10.5z"/><path class="st5" d="M103.2 157.6c.9-.6 5.6-6.3 5.6-6.3l14.6 5c-1.7 3.3-8.9 11.7-9 11.8l-11.2-10.5zM108.8 151.3s-4.7 5.7-5.6 6.3l11.2 10.5s7.2-8.5 9-11.8l-14.6-5z"/><path class="st6" d="M108.8 151.3l4.5-6.4 10.2 11.5zM113.3 144.9l-4.5 6.4 14.6 5z"/><path class="st7" d="M113.3 144.9l15.5 1.3-5.4 10.2zM128.8 146.2l-5.4 10.1-10.1-11.4z"/><path class="st8" d="M80.9 156.9c3.6 3.2 13.6 3.6 13.7 3.6l-8 14.5-5.7-18.1zM80.9 156.9l5.7 18.1 7.9-14.5c.1 0-10-.3-13.6-3.6"/><path class="st9" d="M86.6 175c-1.4-.7-14.6-12.5-14.7-12.6l9-5.5 5.7 18.1zM71.9 162.4s13.3 11.9 14.7 12.6l-5.7-18.1-9 5.5z"/><path class="st10" d="M74.7 149.3c.1.1 4.9 6.7 6.2 7.6l-9 5.5 2.8-13.1zM74.7 149.3s4.9 6.7 6.2 7.6l-9 5.5 2.8-13.1z"/><path class="st11" d="M71.9 162.4c-6.7-5.9-8.9-14.1-8.9-14.1l11.7 1-2.8 13.1zM63.1 148.3s2.1 8.1 8.9 14.1l2.8-13.1-11.7-1z"/><path class="st12" d="M63.1 148.3l9.6-3 2.1 4zM72.8 145.4l-9.7 2.9 11.6 1z"/><path class="st13" d="M63 148.3c-.2-.7-.6-10.4-.6-10.9l10.3 7.9-9.7 3zM62.5 137.4s.4 10.2.6 10.9l9.7-2.9-10.3-8z"/><path class="st14" d="M62.5 137.4h17.3l-7 8zM79.8 137.4l-7 8-10.3-8z"/><path class="st15" d="M113.3 144.9c3.9-2.4 17.9-17.5 18-17.7-.3 6.7-2.5 18.8-2.5 18.9l-15.5-1.2zM131.3 127.3s-14 15.2-18 17.6l15.5 1.3s2.2-12.2 2.5-18.9"/><path class="st16" d="M62.5 137.4l9.4-12 7.9 12zM71.9 125.4l-9.4 12h17.3z"/><path class="st17" d="M62.5 137.4c0-1-1.8-16.4-1.9-16.6l11.3 4.5-9.4 12.1zM60.6 120.8s1.8 15.5 1.9 16.6l9.5-12-11.4-4.6z"/><path class="st18" d="M71.9 125.4l10.9-1.3-3 13.4zM82.8 124.1l-10.9 1.3 7.9 12z"/><path class="st19" d="M107.5 123.1l23.8 4.2c-3.8 4.3-15.1 15.4-15.2 15.5l-8.6-19.7zM107.5 123.1l8.6 19.7s11.4-11.2 15.2-15.5l-23.8-4.2z"/><path class="st20" d="M107.5 123.1l9.4-7.4 14.5 11.6h-.1zM116.9 115.7s-8.2 6.5-9.3 7.4l23.8 4.2-14.5-11.6z"/><path class="st21" d="M116.9 115.7l10.6-5.7 3.9 17.3zM127.5 110l-10.6 5.7 14.4 11.6z"/><path class="st22" d="M97.7 130.2l9.8-7.2 8.7 19.8zM97.7 130.2l18.4 12.6-8.6-19.7z"/><path class="st23" d="M95.6 121.5l2.1-1 9.8 2.5-9.8 7.2zM95.6 121.5l2.1 8.7 9.8-7.1-9.8-2.6z"/><path class="st24" d="M102.5 133.4l10.1 6.9-13.3 5.9zM102.5 133.4l-3.1 12.8 13.2-5.8z"/><path class="st25" d="M107.8 142.5l4.8-2.2 3.5 2.5-2.8 2.1zM113.3 144.9l-5.5-2.4 4.8-2.1 3.5 2.4z"/><path class="st26" d="M99.4 146.2l8.4-3.7 5.5 2.4-13.9 1.3zM99.4 146.2l13.9-1.3-5.5-2.4z"/><path class="st27" d="M72.7 145.4l7-8 3.1 9.9-8.1 2zM79.8 137.4l3 9.9-8.1 2-1.9-3.9z"/><path class="st28" d="M82.8 147.4l-2.2-7 10.4 5.8-1.7 1.2zM89.3 147.3h-6.5l-2.1-6.9 10.3 5.8z"/><path class="st29" d="M126.2 94.6l1.3 15.4-10.7 5.8zM126.2 94.6l-9.3 21.1 10.6-5.7z"/><path class="st30" d="M94.5 160.6c-.8 0-4.1-.4-4.1-.4l4.2-3.8 4.8 3.2c-.7.3-4.3 1-4.8 1 0-.1-.1 0-.1 0"/><path class="st30" d="M94.6 156.3l-4.2 3.8s3.8.5 4.2.4c.5-.1 4.1-.8 4.8-1l-4.8-3.2zM94.6 156.3c1.8 0 8.6-2.8 8.6-2.8l-3.8 6-4.8-3.2zM103.2 153.5s-6.9 2.8-8.6 2.8l4.8 3.2 3.8-6z"/><path class="st31" d="M103.2 153.5c2.8-1.1 10-8.6 10.1-8.6l-4.5 6.4c-.5.7-5.6 6.2-5.6 6.3-.8.8-3.8 1.9-3.9 1.9h-.1l4-6zM113.3 144.9s-7.3 7.6-10.1 8.6l-3.9 6s3.1-1.2 3.9-1.9c0 0 5.1-5.5 5.6-6.3l4.5-6.4z"/><path class="st32" d="M84.5 155.9c2.1.5 4.3.8 6.4.8 2.3 0 3.7-.3 3.7-.3l-4.2 3.8-5.9-4.3zM84.5 155.9l5.8 4.3 4.2-3.8c.1-.1-4.2.9-10-.5"/><path class="st31" d="M90.3 160.1c-.1 0-7.1-.7-9.4-3.2-.1-.1-5.2-5.6-6.2-7.6.1 0 7.8 6.1 9.8 6.5l5.8 4.3zM74.7 149.3s7.8 6.1 9.7 6.5l5.8 4.3s-7.1-.6-9.4-3.2c.1 0-5-5.5-6.1-7.6"/><path class="st33" d="M87.9 150.2c-2.9 0-11.1-1.4-11.2-1.4l6-1.5h6.7l6.1 2c-.4.1-.9.2-1.5.3-1.7.2-4 .6-5.9.7 0-.1-.1-.1-.2-.1"/><path class="st33" d="M76.7 148.8s8.7 1.5 11.4 1.4c2.7-.1 6-.7 7.5-.9l-6.1-2h-6.7l-6.1 1.5z"/><path class="st34" d="M91 146.2l10.2-7.7-1.8 7.7-9.9 1.1zM91 146.2l10.2-7.6-1.8 7.6-9.9 1.1z"/><path class="st33" d="M89.5 147.3l9.8-1.2 13.9-1.3c-.2.1-16.4 4.3-17.7 4.5l-6-2zM113.3 144.9s-16.4 4.3-17.7 4.4l-6.1-2 9.8-1.1 14-1.3z"/><path class="st35" d="M74.7 149.3l2-.5 7 1-6.4 1.5zM77.3 151.3l6.4-1.5-7-1-2 .5z"/><path class="st36" d="M80.6 140.4l-.9-3 4-4 2.1 9.9zM83.7 133.4l-3.9 4 .9 3 5.1 2.9z"/><path class="st37" d="M82.8 124.1l3-4.9v7.2zM85.8 119.2l-3 4.9 3 2.3z"/><path class="st38" d="M82.8 124.1l3 2.3-2.1 7-4 4.1zM83.7 133.4l2.1-7-3-2.3-3 13.3z"/><path class="st39" d="M85.8 143.3l-.9-4.4 9.9 4.5-3.8 2.8zM94.8 143.4l-9.9-4.5.9 4.4 5.2 2.9z"/><path class="st40" d="M84.9 138.9l-1.2-5.5 2.1-7 2.5-2.3.1 16.3zM85.8 126.4l2.5-2.3v16.3l-3.4-1.5-1.2-5.5z"/><path class="st41" d="M93.8 143c0-.3 2.9-2.9 5.7-3.2l-4.8 3.6-.9-.4zM93.8 142.9c-.2-.1 2.9-2.8 5.7-3.1l-4.8 3.6-.9-.5z"/><path class="st42" d="M88.3 140.4v-16.3l1.2-7.9 4.3 26.8zM89.5 116.2l-1.2 7.9v16.3l5.5 2.5z"/><path class="st43" d="M93.8 142.9l-4.3-26.7 6.1 5.3 2.1 8.7-3.9 12.7zM95.6 121.5l-6.1-5.3 4.3 26.7 3.9-12.7z"/><path class="st44" d="M93.8 142.9l3.9-12.8 4.8 3.2-1.2 5.1-1.7 1.3c-3.1.5-5.7 3.2-5.8 3.2zM102.5 133.4l-4.8-3.3-3.9 12.8s2.7-2.7 5.7-3.1l1.7-1.3 1.3-5.1z"/><path class="st45" d="M103.2 118.6h-4.3c.4-1.1 3.4-2.9 3.6-3-.2 1.8.7 3 .7 3zM102.5 115.7s-3.2 1.8-3.6 2.9c0 0 3.6-.1 4.3 0 0 0-.9-1.1-.7-2.9"/><path class="st46" d="M103.2 118.6c-.9-.9-.7-2.9-.7-2.9 1-1 2.6-1.2 3.8-1.2.9 0 1.5.1 1.6.1 1.1 1.9 0 3.3 0 3.3-1.5.5-4.7.7-4.7.7zM107.8 114.7s-3.7-.6-5.3 1.1c0 0-.1 2 .7 2.9 0 0 3.2-.2 4.6-.7 0-.1 1.1-1.4 0-3.3"/><path class="st47" d="M107.8 117.9c1.2-1.3 0-3.2 0-3.2.6 0 2.9.8 3.2 1.4v.2c-.8 1-3.2 1.6-3.2 1.6zM110.9 116.2c.4-.5-2.5-1.5-3.1-1.6 0 0 1.3 1.9 0 3.2 0 .1 2.3-.5 3.1-1.6"/><path class="st48" d="M98.9 118.6s2.2-4.6 7.7-4.6c1.7 0 3.5.4 5.4 1.2l.6 1.1-2 .3.3-.6s-1.9-1.4-4.5-1.4c-2.7-.1-5.2 1.3-7.5 4zM98.9 118.6s3.5-7.5 13.1-3.4l.6 1.1-2 .3.3-.6s-5.8-4.7-12 2.6"/><path class="st49" d="M103.9 118.6c.1 0 4.3-.1 6.7-2l-3 6.5-3.7-4.5zM110.6 116.6l-3 6.5-3.6-4.5c-.1 0 4.2-.1 6.6-2"/><path class="st50" d="M107.5 123.1l3.1-6.5 2-.3 4.3-.6-9.4 7.4zM116.9 115.7l-4.3.6-2 .3-3.1 6.5z"/><path class="st51" d="M111.9 115.3l-3.1-1 10.6-4.4-2.5 5.8-4.3.7zM119.4 109.9l-10.6 4.4 3.2 1 .6 1 4.3-.6z"/><path class="st52" d="M113.3 106.6l6.1 3.3-6.1 2.5zM119.4 109.9l-6.1-3.3v5.8z"/><path class="st53" d="M113.3 112.4s-4.2-2-5.8-2h-.2l6.1-3.9-.1 5.9zM107.2 110.5l6.1-3.9v5.8s-4.6-2.1-6.1-1.9"/><path class="st54" d="M105 107.4c.1 0 5.5-.9 7.6-.9.4 0 .6 0 .7.1l-6.1 3.9h-.6c-.6 0-1.6.1-2.1.5l.5-3.6zM104.5 111l.6-3.5s7.5-1.2 8.3-.8l-6.1 3.9c-.1-.1-2-.3-2.8.4"/><path class="st55" d="M101 109.5l4-2.1-.5 3.6zM101.1 109.5l3.4 1.5.6-3.6z"/><path class="st56" d="M98.9 113.1l2.2-3.6 3.5 1.4c-.1.1-5.1 1.5-5.7 2.2zM98.9 113.1l2.2-3.6 3.4 1.5s-5 1.4-5.6 2.1"/><path class="st57" d="M108.8 114.3s-1.9-.2-2.4-.2h-.1l-1.8-3.1s1.1-.6 2.3-.6h.5c1.4.2 4.3 1.1 6.1 2l-4.6 1.9zM106.3 114l-1.8-3.1s1.4-.7 2.7-.5c1.4.2 4.3 1.1 6.1 2l-4.5 1.8c0 .1-2.1-.2-2.5-.2"/><path class="st58" d="M98.9 113.1c.3-.5 5.4-2.1 5.6-2.2l1.9 3.1c-2.5.2-4.1 1.2-4.1 1.2l-3.4-2.1zM98.9 113.1l3.3 2.1s1.6-1 4.1-1.1l-1.8-3.1s-5.3 1.6-5.6 2.1"/><path class="st59" d="M97.7 120.5c-.1-.1.9-5.7 1.2-7.4l3.3 2c0 .1-3.2 2.2-4.5 5.4zM97.7 120.5c-.1.4 1.2-7.4 1.2-7.4l3.3 2.1s-3.2 2.1-4.5 5.3"/><path class="st60" d="M95.6 116.6l3.3-3.5-1.2 7.5zM95.6 116.6l2.1 3.9 1.2-7.4z"/><path class="st61" d="M95.4 111.3l5.6-1.8-2.1 3.6-3.3 3.5zM95.4 111.3l.2 5.3 3.3-3.5 2.2-3.6z"/><path class="st62" d="M60.6 120.9l6.7-1.5L69 121l-3.5 1.8zM60.6 120.8l6.7-1.4 1.7 1.7-3.5 1.7z"/><path class="st46" d="M74.7 121.5c-.4-.1-.8-.3-1-.6-.7-1-.3-3-.3-3 .8-.2 1.6-.3 2.2-.3 2.6 0 3.2 1.6 3.2 1.7-.4 2.2-2 2.3-2.1 2.3h-2zM73.5 117.9s-.8 3.3 1.3 3.6h2.1s1.6-.1 2-2.3c0 0-1-2.5-5.4-1.3"/><path class="st45" d="M70 120.6c.1-.1 2.9-2.5 3.4-2.6 0 0-.4 1.8.3 2.9.2.4.6.6 1 .7l-4.7-1zM70 120.6s2.9-2.5 3.4-2.6c0 0-.8 3.2 1.3 3.6l-4.7-1z"/><path class="st47" d="M76.8 121.5c1.9-.5 2-2.2 2-2.3l2.1 1.8c-.8.2-4 .5-4.1.5zM78.9 119.2s-.2 1.8-2 2.3c0 0 3.2-.3 4.1-.4l-2.1-1.9z"/><path class="st48" d="M67.3 119.4l6.2-1.5-3.4 2.6-1.1.6zM69 121.1l1-.6 3.5-2.6-6.2 1.5z"/><path class="st63" d="M79.1 119.5c.2.4.3.6.3.7 0 0-.1-.1-.5-1-.4-.8-.9-1.3-1.6-1.5-.4-.1-.8-.1-1.1-.1 0 0 .1-.1.3-.1.2 0 .5 0 .8.1 2.7.5 4.7 2.8 4.7 2.8l-1 .6-1.9-1.5zM81.9 120.5s-2.5-2.9-5.8-2.9c0 0 1.8-.3 2.8 1.6 1 2 .3.3.3.3l1.8 1.6.9-.6z"/><path class="st64" d="M67.3 119.4s4.3-2 7.5-2c.5 0 1 .1 1.4.2h-.5c-.6 0-1.7 0-2.1.3-.2 0-5.9 1.4-6.3 1.5zM67.3 119.4s5.7-2.7 8.8-1.8c0 0-2.1-.1-2.6.3 0 0-5.8 1.4-6.2 1.5"/><path class="st65" d="M78.9 121.3l2-.3 1-.5.9 3.6-6.1.8zM81.9 120.5l.9 3.6-6.1.7 2.2-3.5 2-.2z"/><path class="st66" d="M72.9 121.1l1.8.4h2.1l2.1-.2-2.1 3.5-3.4.4zM72.9 121.1l.6 4.1 3.2-.4 2.2-3.5-2.1.2h-2.1z"/><path class="st67" d="M65.5 122.8l4.5-2.3 2.9.6.6 4.1-1.6.2zM70 120.5l-1 .6-3.5 1.7 6.4 2.6 1.6-.2-.6-4.1z"/><path class="st68" d="M81.9 120.5l3.9-1.3-3 5zM85.8 119.2l-3.9 1.3.9 3.6z"/><path class="st69" d="M63 113.1l4.6 2.1-4.6 3.2zM63.1 113.1v5.3l4.5-3.2z"/><path class="st70" d="M63.1 113.1c0-.1 4.8-2.1 7.1-2.1.4 0 .8.1 1 .2l-3.5 3.9-4.6-2zM71.1 111.3l-3.5 3.9-4.6-2.1c.1 0 6.7-2.8 8.1-1.8"/><path class="st71" d="M71.1 111.3l3.7 3.3-7.2.6zM74.7 114.7l-3.6-3.4-3.5 3.9z"/><path class="st72" d="M71.1 111.3l7.8 1-4.2 2.4zM78.9 112.3l-4.2 2.4-3.6-3.4z"/><path class="st73" d="M74.7 114.6l4.2-2.3 1.8 2.2-6 .2zM80.7 114.6l-6 .1 4.2-2.4z"/><path class="st74" d="M80.6 114.6l5.2 4.6-3.9 1.3zM85.8 119.2l-5.1-4.6 1.2 5.9z"/><path class="st75" d="M81.9 120.5s-2.5-3-5.5-3H76l4.5-3.1 1.4 6.1zM76.1 117.6l4.6-3 1.3 6c-.1-.1-2.7-3.3-5.9-3"/><path class="st76" d="M76.1 117.6c-.3-.1-.8-.2-1.4-.2h-.9l-1.9-2.5 2.8-.2 5.9-.1-4.5 3zM71.9 114.9l1.9 2.5s1.4-.2 2.3.2l4.6-3-5.9.1-2.9.2z"/><path class="st77" d="M67.6 115.2l4.3-.3 1.9 2.5h-.2c-2.3 0-5.9 2-5.9 2v-4.2zM67.6 115.2v4.2s3.9-2.1 6.2-2l-1.9-2.5-4.3.3z"/><path class="st78" d="M63.1 118.4l4.5-3.2v4.2l-7 1.5zM63.1 118.4l-2.5 2.4 7-1.4v-4.2z"/><path class="st79" d="M58.3 107.4c-3.9-7.7-.8-24.1-.8-24.3l5.6 6.8v23.2l-4.8-5.7zM57.5 83.2s-3.2 16.5.8 24.3l4.8 5.7V90l-5.6-6.8z"/><path class="st80" d="M63 90l8.6-12.4-.5 33.8c-.3-.2-.7-.4-1.3-.4-2.4 0-6.7 2.2-6.7 2.2V90zM71.7 77.5L63.1 90v23.1s6.4-3.3 8.1-1.8l.5-33.8z"/><path class="st81" d="M80.6 114.6l-1.7-2.2-7.8-1.1.4-22.7 14.3 30.6zM85.8 119.2L71.5 88.6l-.4 22.7 7.8 1 1.8 2.3z"/><path class="st82" d="M57.5 83.2c4.8-8.9 14.8-14.5 14.9-14.6l-.7 8.9L63.1 90l-5.6-6.8zM72.4 68.6s-10 5.6-14.9 14.5l5.5 6.8 8.6-12.4.8-8.9z"/><path class="st83" d="M71.7 77.5L82 84.2l-10.5 4.4zM81.9 84.2l-10.2-6.7-.2 11.1z"/><path class="st84" d="M57.5 83.1c.1-.1 5.2-10.4 10.1-14.5h4.8c-.1.1-10.7 7-14.9 14.5zM57.5 83.2s5.1-10.3 10.1-14.5h4.8c0-.1-10.7 6.7-14.9 14.5"/><path class="st85" d="M72.4 68.6l12.5 2.6-13.2 6.4zM84.9 71.2l-13.2 6.3.7-8.9z"/><path class="st86" d="M71.7 77.6l13.2-6.4-2.9 13zM81.9 84.2l3-13-13.2 6.3z"/><path class="st85" d="M84.9 71.2l8.9 6.3-11.9 6.7zM93.8 77.5l-11.9 6.7 3-13z"/><path class="st87" d="M84.9 71.3l3.4-13.2 5.5 19.5zM88.3 58.1l-3.4 13.1 8.9 6.3z"/><path class="st88" d="M72.4 68.6h-4.8c2.4-2.5 13.3-8.3 14.3-8.4l-5.8 9.2-3.7-.8zM81.9 60.2c-1 .2-11.9 5.9-14.3 8.4h4.8l3.7.8 5.8-9.2z"/><path class="st87" d="M76.1 69.4l5.8-9.2 3 11.1zM84.9 71.2l-3-11-5.8 9.2z"/><path class="st89" d="M81.9 60.2c.1 0 4.7-2 6.4-2.1l-3.5 13.2-2.9-11.1zM81.9 60.2s4.6-1.9 6.4-2.1l-3.5 13.1-2.9-11z"/><path class="st88" d="M91.1 67.8l11.1 8.1-8.4 1.7zM102.2 75.9l-11.1-8.1 2.7 9.7z"/><path class="st90" d="M91.1 67.8l7.1-5.5 4 13.6zM102.2 75.9l-4-13.6-7.1 5.5z"/><path class="st91" d="M98.2 62.3l4.3-3.3 5.4 6.8zM107.8 65.7l-5.3-6.7-4.3 3.3zM107.8 65.7l-5.3-6.7c.2 0 13.2 5.1 14.4 6.7l-2.5 5.6-6.6-5.6zM116.9 65.7l-2.5 5.5-6.6-5.5-5.3-6.7s13.1 5.1 14.4 6.7"/><path class="st92" d="M114.4 71.3l2.4-5.5c.3.2 7.4 4.6 7.9 5.5h-10.3zM124.7 71.2h-10.3l2.5-5.5s7.3 4.7 7.8 5.5"/><path class="st93" d="M98.2 62.3l9.6 3.4 6.6 5.5-12.2 4.7zM102.2 75.9l12.2-4.7-6.6-5.5-9.6-3.4z"/><path class="st94" d="M128.9 116.6l-1.5-6.6-.3-3.5 6.8-9.4-.8 8c-1.8 1.9-4.1 11.4-4.2 11.5zM129 116.6s2.3-9.6 4.2-11.4l.9-8-6.8 9.4.3 3.5 1.4 6.5z"/><path class="st84" d="M126.2 94.6l5.9-10.4c.2 1.7 1.9 12.8 2 13l-6.9 9.4-1-12zM132.1 84.2l-5.9 10.4 1 11.9 6.8-9.4c0 .1-1.7-11.1-1.9-12.9"/><path class="st89" d="M124.1 70.6c2.1 1.5 8 13.4 8 13.6l-5.9 10.5-2.1-24.1zM124.1 70.6l2.1 24 5.9-10.4s-6-12.1-8-13.6"/><path class="st87" d="M114.4 71.3l9.8-.1.6 8.1zM114.4 71.2l10.3 8.1-.5-8.1z"/><path class="st95" d="M113.3 106.6l-8.2.8 9.3-36.2 10.4 8.1 1.4 15.3-6.8 15.3zM105.1 107.4l9.3-36.2 10.3 8.1 1.5 15.3-6.8 15.3-6.1-3.3z"/><path class="st96" d="M93.8 77.6l8.4-1.7 12.2-4.7-9.3 36.3zM93.8 77.5l11.3 29.9 9.3-36.2-12.2 4.7z"/><path class="st97" d="M93.8 77.6l11.3 29.8-4 2.1-5.7 1.8zM95.4 111.3l-1.6-33.8 11.3 29.9-4 2.1z"/><path class="st98" d="M89.5 116.4v-.7l5.9-4.4.2 5.3 2.1 3.9-2.1 1zM89.5 115.7l5.9-4.4.2 5.3 2.1 3.9-2.1 1-6.1-5.1z"/><path class="st99" d="M71.5 88.6l10.4-4.4 7.7 31.5-3.8 3.5zM71.5 88.6l14.3 30.6 3.7-3.5-7.6-31.5z"/><path class="st100" d="M130.7 133.4c0-.4.6-6.1.6-6.2l7.8-6.2c0 .1-.9 4.3-1.5 6.2-.7 2-6.8 6.2-6.9 6.2zM130.7 133.4s6.2-4.2 6.8-6.2c.6-1.9 1.6-6.2 1.6-6.2l-7.8 6.2c0 .1-.5 5.8-.6 6.2"/><path class="st101" d="M131.3 127.3l7.8-14.9v8.7l-7.7 6.2zM139.1 112.4l-7.8 14.9 7.8-6.2z"/><path class="st102" d="M130.7 114.7l2.8-2.4.5 5.3zM133.5 112.3l-2.8 2.4 3.3 2.9z"/><path class="st103" d="M128.9 116.6c0-.1 2.5-9.5 4.2-11.4.2-.2 3.8-4.6 5.2-4.6.1 0 .2 0 .3.1.8.6 1.1 1.4 1.1 2.2v.4l-6.3 9.1-2.8 2.3-1.7 1.9zM133.2 105.2s4.5-5.4 5.5-4.5c1.1.9 1.1 1.8 1.1 2.2v.4l-6.3 9.1-2.8 2.3-1.8 1.9c.1 0 2.5-9.5 4.3-11.4"/><path class="st104" d="M131.3 127.3l-2.4-10.7 1.8-2 3.3 3-2.6 9.7zM131.3 127.3l-2.3-10.7 1.7-1.9 3.3 2.9z"/><path class="st105" d="M133.5 112.4l6.3-9.1-.7 9.1zM139.8 103.3l-.7 9.1-5.6-.1z"/><path class="st103" d="M57.9 120.8s-.5-3.1-.9-4.6c-.1-.5-.3-1.1-.6-1.9-.5-1.7-1.2-3.7-1.1-4.9 0-.5.3-.8.9-.8 1 0 2.4.7 2.4.7l.9 5.5-1.6 6zM58.7 109.5s-3.2-1.6-3.3 0c-.1 1.6 1.3 5.2 1.7 6.7.3 1.5.9 4.6.9 4.6l1.7-5.9-1-5.4z"/><path class="st106" d="M57.9 120.8l1.7-5.8 1 5.8 1.3 10.6h-.1zM61.8 131.4l-3.9-10.6 1.7-5.8 1 5.8z"/><path class="st101" d="M62.5 138.4c0-.1-3-5.3-3.6-8.8-.6-3.5-1-8.7-1-8.8l4 10.6.6 7zM62.5 138.4s-3-5.2-3.6-8.8c-.6-3.5-1-8.8-1-8.8l4 10.6.6 7z"/><path class="st107" d="M84.9 155.9s-2.9-.6-7.6-4.6l3.3-.7c.1 0 2.8 4.9 4.3 5.3zM80.7 150.6s2.7 4.9 4.2 5.3c0 0-2.8-.6-7.5-4.6l3.3-.7z"/><path class="st108" d="M94.6 156.3c-3.9 0-9.6-.5-9.7-.5-2-1.1-4.2-5.2-4.2-5.3l3.1-.8c1.3.3 2.7.4 4.2.4 4 0 7.6-.9 7.7-.9l17.7-4.4c-4.3 4.9-10 8.6-10.1 8.7-1.3.7-7.8 2.8-8.7 2.8M83.7 149.8l-3.1.8s2.3 4.2 4.2 5.3c0 0 5.8.5 9.7.5.9 0 7.4-2.1 8.6-2.8 0 0 5.7-3.7 10.1-8.6l-17.7 4.4c.1-.1-6.4 1.6-11.8.4"/><path class="st109" d="M81.9 84.2l11.9-6.7 1.6 33.8-5.9 4.4zM81.9 84.2l7.6 31.5 5.9-4.4-1.6-33.8z"/><path class="st87" d="M88.3 58.1s2.3-.2 5.1-.2c3 0 7 .2 9.1 1l-11.4 8.9-2.8-9.7zM102.5 59l-11.4 8.8-2.7-9.7c-.1 0 10.2-.7 14.1.9"/><path class="st106" d="M131.3 127.3l2.7-9.7-.5-5.3 5.6.1-7.7 14.9zM139.1 112.4l-5.6-.1.5 5.3-2.7 9.7z"/><path class="st110" d="M85.8 119.2l3.7-3.5-1.1 8.4-2.6 2.3zM89.5 115.7l-3.7 3.5v7.2l2.5-2.3z"/><path class="st111" d="M58.3 107.4l4.8 5.7v5.3l-2.5 2.5zM58.3 107.4l4.8 5.7v5.3l-2.5 2.4z"/><path class="st112" d="M97.7 120.5l1.2-1.9h5l3.7 4.5zM98.9 118.6l-1.2 1.9 9.8 2.6-3.6-4.5z"/><path class="st47" d="M105.1 116.3l-.1-1.6 2-.1v1.7zM106.3 116.2h-1.2v-1.5h1.9v1.5zM76.4 119.5l-.5-.9 1-.7.9 1.6zM77 117.9l-1.1.7.5.9h1.4z"/></g></svg>