<svg xmlns="http://www.w3.org/2000/svg" xmlns:xlink="http://www.w3.org/1999/xlink" width="192" height="234" viewBox="0 0 192 234"><style type="text/css">.st0{fill:#F2F2F2;} .st1{fill:#23A684;} .st2{clip-path:url(#SVGID_2_);} .st3{clip-path:url(#SVGID_4_);fill:#050507;} .st4{clip-path:url(#SVGID_4_);fill:#0C0B03;} .st5{clip-path:url(#SVGID_4_);fill:#22140D;} .st6{clip-path:url(#SVGID_4_);fill:#17140E;} .st7{clip-path:url(#SVGID_4_);fill:#100908;} .st8{clip-path:url(#SVGID_4_);fill:#5A3D2E;} .st9{clip-path:url(#SVGID_4_);fill:#A06B4F;} .st10{clip-path:url(#SVGID_4_);fill:#1B080F;} .st11{clip-path:url(#SVGID_4_);fill:#341D25;} .st12{clip-path:url(#SVGID_4_);fill:#2A0D17;} .st13{clip-path:url(#SVGID_4_);fill:#8A6251;} .st14{clip-path:url(#SVGID_4_);fill:#62413E;} .st15{clip-path:url(#SVGID_4_);fill:#482520;} .st16{clip-path:url(#SVGID_4_);fill:#7C4C3E;} .st17{clip-path:url(#SVGID_4_);fill:#492024;} .st18{clip-path:url(#SVGID_4_);fill:#985F4A;} .st19{clip-path:url(#SVGID_4_);fill:#82583E;} .st20{clip-path:url(#SVGID_4_);fill:#70443A;} .st21{clip-path:url(#SVGID_4_);fill:#604132;} .st22{clip-path:url(#SVGID_4_);fill:#654332;} .st23{clip-path:url(#SVGID_4_);fill:#763C37;} .st24{clip-path:url(#SVGID_4_);fill:#7F423B;} .st25{clip-path:url(#SVGID_4_);fill:#AF544F;} .st26{clip-path:url(#SVGID_4_);fill:#A04B44;} .st27{clip-path:url(#SVGID_4_);fill:#955458;} .st28{clip-path:url(#SVGID_4_);fill:#86484A;} .st29{clip-path:url(#SVGID_4_);fill:#A77F73;} .st30{clip-path:url(#SVGID_4_);fill:#361B18;} .st31{clip-path:url(#SVGID_4_);fill:#623F27;} .st32{clip-path:url(#SVGID_4_);fill:#AF6A42;} .st33{clip-path:url(#SVGID_4_);fill:#754A2E;} .st34{clip-path:url(#SVGID_4_);fill:#29190F;} .st35{clip-path:url(#SVGID_4_);fill:#341610;} .st36{clip-path:url(#SVGID_4_);fill:#301314;} .st37{clip-path:url(#SVGID_4_);fill:#54241D;} .st38{clip-path:url(#SVGID_4_);fill:#D77C57;} .st39{clip-path:url(#SVGID_4_);fill:#65412E;} .st40{clip-path:url(#SVGID_4_);fill:#876447;} .st41{clip-path:url(#SVGID_4_);fill:#5B4641;} .st42{clip-path:url(#SVGID_4_);fill:#AE755F;} .st43{clip-path:url(#SVGID_4_);fill:#C77251;} .st44{clip-path:url(#SVGID_4_);fill:#C36048;} .st45{clip-path:url(#SVGID_4_);fill:#D67F5F;} .st46{clip-path:url(#SVGID_4_);fill:#4A2B1F;} .st47{clip-path:url(#SVGID_4_);fill:#D37562;} .st48{clip-path:url(#SVGID_4_);fill:#C8714A;} .st49{clip-path:url(#SVGID_4_);fill:#D0784F;} .st50{clip-path:url(#SVGID_4_);fill:#D87E5C;} .st51{clip-path:url(#SVGID_4_);fill:#D27350;} .st52{clip-path:url(#SVGID_4_);fill:#C86733;} .st53{clip-path:url(#SVGID_4_);fill:#8E502B;} .st54{clip-path:url(#SVGID_4_);fill:#C57244;} .st55{clip-path:url(#SVGID_4_);fill:#6A4B3A;} .st56{clip-path:url(#SVGID_4_);fill:#602F12;} .st57{clip-path:url(#SVGID_4_);fill:#43210B;} .st58{clip-path:url(#SVGID_4_);fill:#582913;} .st59{clip-path:url(#SVGID_4_);fill:#91573A;} .st60{clip-path:url(#SVGID_4_);fill:#693C29;} .st61{clip-path:url(#SVGID_4_);fill:#885639;} .st62{clip-path:url(#SVGID_4_);fill:#945B3D;} .st63{clip-path:url(#SVGID_4_);fill:#7C462E;} .st64{clip-path:url(#SVGID_4_);fill:#372513;} .st65{clip-path:url(#SVGID_4_);fill:#67442F;} .st66{clip-path:url(#SVGID_4_);fill:#52402E;} .st67{clip-path:url(#SVGID_4_);fill:#5E4539;} .st68{clip-path:url(#SVGID_4_);fill:#4F362A;} .st69{clip-path:url(#SVGID_4_);fill:#563820;} .st70{clip-path:url(#SVGID_4_);fill:#5D3726;} .st71{clip-path:url(#SVGID_4_);fill:#73492C;} .st72{clip-path:url(#SVGID_4_);fill:#623931;} .st73{clip-path:url(#SVGID_4_);fill:#7A5347;} .st74{clip-path:url(#SVGID_4_);fill:#975A3B;} .st75{clip-path:url(#SVGID_4_);fill:#BD7155;} .st76{clip-path:url(#SVGID_4_);fill:#B76F48;} .st77{clip-path:url(#SVGID_4_);fill:#C6744E;} .st78{clip-path:url(#SVGID_4_);fill:#B76642;} .st79{clip-path:url(#SVGID_4_);fill:#AD6042;} .st80{clip-path:url(#SVGID_4_);fill:#905B48;} .st81{clip-path:url(#SVGID_4_);fill:#250B04;} .st82{clip-path:url(#SVGID_4_);fill:#1B0B08;} .st83{clip-path:url(#SVGID_4_);fill:#1A0E0D;} .st84{clip-path:url(#SVGID_4_);fill:#2B1108;} .st85{clip-path:url(#SVGID_4_);fill:#2F140C;} .st86{clip-path:url(#SVGID_4_);fill:#38160E;} .st87{clip-path:url(#SVGID_4_);fill:#160907;} .st88{clip-path:url(#SVGID_4_);fill:#B2A8AA;} .st89{clip-path:url(#SVGID_4_);fill:#170A11;} .st90{clip-path:url(#SVGID_4_);fill:#D3C0BC;} .st91{clip-path:url(#SVGID_4_);fill:#BF6F44;} .st92{clip-path:url(#SVGID_4_);fill:#271E0C;} .st93{clip-path:url(#SVGID_4_);fill:#250A0B;} .st94{clip-path:url(#SVGID_4_);fill:#6A3B26;} .st95{clip-path:url(#SVGID_4_);fill:#461F14;} .st96{clip-path:url(#SVGID_4_);fill:#2E2121;} .st97{clip-path:url(#SVGID_4_);fill:#4C3834;} .st98{clip-path:url(#SVGID_4_);fill:#43301D;} .st99{clip-path:url(#SVGID_4_);fill:#48342C;} .st100{clip-path:url(#SVGID_4_);fill:#4B2110;} .st101{clip-path:url(#SVGID_4_);fill:#362A21;} .st102{clip-path:url(#SVGID_4_);fill:#25150A;} .st103{clip-path:url(#SVGID_4_);fill:#2B1A15;} .st104{clip-path:url(#SVGID_4_);fill:#311B23;} .st105{clip-path:url(#SVGID_4_);fill:#3A1A1F;} .st106{clip-path:url(#SVGID_4_);fill:#39281F;} .st107{clip-path:url(#SVGID_4_);fill:#999999;} .st108{clip-path:url(#SVGID_4_);fill:#352B2B;} .st109{clip-path:url(#SVGID_4_);fill:#403032;} .st110{clip-path:url(#SVGID_4_);fill:#392420;} .st111{clip-path:url(#SVGID_4_);fill:#2F171F;} .st112{clip-path:url(#SVGID_4_);fill:#2E171B;} .st113{clip-path:url(#SVGID_4_);fill:#211513;} .st114{clip-path:url(#SVGID_4_);fill:#2E181A;} .st115{clip-path:url(#SVGID_4_);fill:#3D2428;} .st116{clip-path:url(#SVGID_4_);fill:#5F3D4F;} .st117{clip-path:url(#SVGID_4_);fill:#CE7859;} .st118{clip-path:url(#SVGID_4_);fill:#6C432C;}</style><path class="st0" d="M0 0h192v234H0z"/><path class="st1" d="M192 215.5L172.5 234H192z"/><defs><path id="SVGID_1_" d="M-24 21.1h239v259.5H-24z"/></defs><clipPath id="SVGID_2_"><use xlink:href="#SVGID_1_" overflow="visible"/></clipPath><g class="st2"><defs><path id="SVGID_3_" d="M-24 21.1h239v259.5H-24z"/></defs><clipPath id="SVGID_4_"><use xlink:href="#SVGID_3_" overflow="visible"/></clipPath><path class="st3" d="M104.7 179.1c-4.7 0-8-2.2-8-2.3l7.4-7.7 9.3 7.1c-2.8 1.9-5.7 2.9-8.7 2.9zM104.1 169.1l-7.4 7.7s8 5.4 16.7-.6l-9.3-7.1z"/><path class="st4" d="M96.6 176.8c-.1 0-5.2-3.6-7-7.7l5.9-.6 1.1 8.3zM95.5 168.6l1.1 8.2s-5.2-3.5-7-7.7l5.9-.5z"/><path class="st5" d="M95.5 168.6l8.6.5-7.5 7.7zM104.1 169.1l-8.6-.5 1.1 8.2z"/><path class="st6" d="M104.1 169.1l7-.9 2.3 8.1zM111.1 168.2l-7 .9 9.2 7.1z"/><path class="st7" d="M111.1 168.3l9.5.3c-2.3 4-7.1 7.7-7.2 7.7l-2.3-8zM120.5 168.6l-9.5-.3 2.3 8c0-.1 4.9-3.7 7.2-7.7"/><path class="st8" d="M96.6 176.8c-4-.4-15.6-7.6-15.7-7.7l-5.5-6.6h11.2l3.2 6.6c2 4.4 6.8 7.6 6.8 7.7zM89.7 169.1l-3.2-6.6H75.4l5.5 6.6s11.7 7.3 15.7 7.7c0 0-4.8-3.3-6.9-7.7"/><path class="st9" d="M95.5 168.6l-9-6.1 16-.8 8.6 6.5-7 .9zM102.5 161.7l-16 .8 9 6.1 8.6.5 7-.9z"/><path class="st10" d="M102.5 161.7l1.6-3.7 4.7 3.7zM104.1 158l-1.6 3.7h6.2z"/><path class="st11" d="M108.7 161.6l3.2-4.8 2.2 1.8c0 .1-4.8 2.8-5.4 3zM114.2 158.6l-2.2-1.8-3.3 4.8c-.5.3 5.5-3 5.5-3"/><path class="st12" d="M99.8 157.4l4.3.6-1.6 3.7zM99.8 157.4l2.7 4.3 1.6-3.7z"/><path class="st13" d="M102.5 161.7h6.2l5.4-3.1-3 9.7zM114.2 158.6l-3.1 9.6-8.6-6.5h6.2z"/><path class="st14" d="M111.1 168.3l11.3-11.4-1.8 11.7zM111.1 168.2l11.3-11.3-1.9 11.7z"/><path class="st15" d="M111.9 156.9l3.9-1.2-1.6 3zM115.8 155.7l-3.8 1.2 2.2 1.7z"/><path class="st16" d="M111.1 168.2l3-9.6 1.7-2.9 6.7 1.2-11.4 11.4zM122.4 156.9l-6.6-1.2-1.6 2.9-3.1 9.6z"/><path class="st17" d="M94.5 156.2l5.3 1.1 2.8 4.4h-.1zM94.5 156.2l5.3 1.2 2.7 4.3z"/><path class="st18" d="M86.5 162.5c.2-.2 7.7-6.1 8-6.4l8 5.5-16 .9zM94.5 156.2s-7.8 6.1-8 6.4l16-.8-8-5.6z"/><path class="st19" d="M80.1 154.8l8.1-3.9s1.6 1.7 6.3 5.3l-8 6.4-6.4-7.8zM88.2 150.9l-8.1 3.9 6.4 7.7 8-6.4c-4.8-3.6-6.3-5.2-6.3-5.2"/><path class="st16" d="M115.8 155.8l8.3-10-1.6 11.1zM124.2 145.8l-8.4 9.9 6.6 1.2z"/><path class="st20" d="M120.5 168.5l1.9-11.7 1.7-11.1 7.8-4.4c-.7 5.3-5.7 15.9-5.7 16l-5.7 11.2zM124.2 145.8l-1.7 11.1-1.9 11.7 5.6-11.2s5-10.6 5.8-15.9l-7.8 4.3z"/><path class="st21" d="M75.4 162.5c-4.3-5.2-10.9-20.9-11-21.1l15.7 13.3 6.5 7.8H75.4zM80.1 154.8l-15.7-13.3s6.6 15.9 11 21.1h11.1l-6.4-7.8z"/><path class="st22" d="M64.4 141.5l23.8 9.3-8.1 4zM88.2 150.9l-23.8-9.5 15.7 13.4z"/><path class="st23" d="M99.8 157.4l4.7-5.2 7.5 4.7-7.9 1.2zM104.5 152.2l-4.7 5.2 4.3.6 7.9-1.1z"/><path class="st24" d="M104.5 152.2c4.9-.1 7.4-1.8 7.5-1.8l7 1.5-3.2 3.8-3.9 1.2-7.4-4.7zM119 152l-7-1.5s-2.5 1.6-7.5 1.7l7.5 4.7 3.9-1.1 3.1-3.8z"/><path class="st25" d="M94.5 156.2l3.2-4h6.8l-4.7 5.2zM94.5 156.2l3.2-4h6.8l-4.7 5.2z"/><path class="st26" d="M94.5 156.2s-5-3.7-6.3-5.3l9.5 1.3-3.2 4zM88.2 150.9l9.5 1.3-3.2 4s-4.9-3.7-6.3-5.3"/><path class="st27" d="M112 150.5c5.2-3 9.3-7.1 9.4-7.2L119 152l-7-1.5zM121.3 143.3s-4.1 4.1-9.4 7.1l7 1.5 2.4-8.6z"/><path class="st28" d="M119 152l2.3-8.7 2.9 2.5-5.2 6.2zM124.2 145.8l-2.9-2.5-2.3 8.7z"/><path class="st29" d="M88.2 150.9l-10.4-4.1 6.6-2 5.4 6.3zM84.4 144.8l5.3 6.3-1.5-.2-10.4-4.1z"/><path class="st30" d="M121.3 143.3l2.8-6.2.1 8.8zM124.2 137.1l-2.9 6.2 2.9 2.5z"/><path class="st31" d="M124.1 137.1l8.5-13.2c1 .5-.6 16.8-.7 17.5l-7.9 4.4v-8.7zM132.7 123.9l-8.5 13.2v8.7l7.8-4.4s1.6-16.9.7-17.5"/><path class="st32" d="M59.9 126.7l16.4-4.6-9 8.9zM59.9 126.6l16.4-4.5-9 8.8z"/><path class="st33" d="M64.4 141.5l-4.5-14.8 19.2 11.1-1.2 9zM59.9 126.6l4.5 14.8 13.4 5.4 1.3-9z"/><path class="st34" d="M79.1 137.8l5.4 7-6.7 2zM84.4 144.8l-5.3-7-1.3 9z"/><path class="st35" d="M89.7 151.1l-5.3-6.2 3.5-.1 3.3 6.5zM87.9 144.8l3.3 6.5-1.5-.2-5.3-6.3z"/><path class="st36" d="M117.3 140.2l4.7 1.5-.6 1.6-4.5 4.4zM117.3 140.2l-.3 7.4 4.3-4.3.7-1.5z"/><path class="st37" d="M84.4 144.9c-.1-.2 1.6-1.2 2.4-1.6.2-.1 4.9-1.8 5.6-1.9.8-.1 6-.4 7.4-.4.7 0 7.9-1.2 12.2-1.9 1.5-.2 2.6-.4 3.1-.5h.6c2.4 0 7 1.6 7 1.6l-.7 1.6-4.7-1.5c-15.4 1.5-29.3 4.6-29.4 4.6h-3.5zM87.9 144.8s13.8-3.1 29.4-4.6l4.7 1.5.7-1.5s-5.5-1.9-7.6-1.5c-2.1.3-14.4 2.4-15.3 2.4-1.4 0-6.6.3-7.4.4-.7.1-5.6 1.9-5.6 1.9s-2.7 1.5-2.4 1.5l3.5-.1z"/><path class="st32" d="M121.3 139.8L121 128l6.6 3.7-3.4 5.4-1.5 3.2zM127.6 131.8L121 128l.3 11.8 1.4.4 1.5-3.1z"/><path class="st38" d="M121.3 139.8s-3.8-1.1-5.3-1.1h-.2c-1.3.1-3 .4-3 .4l2.5-13.8 5.7 2.7.3 11.8zM112.8 139.1l2.5-13.8 5.7 2.8.3 11.8s-4.2-1.3-5.5-1.1c-1.3 0-3 .3-3 .3"/><path class="st16" d="M105.9 134.1c.5 0 8.4-3.8 8.5-3.8l-1.5 8.8-7-5zM105.9 134.1l6.9 4.9 1.6-8.7c0 .1-8 3.8-8.5 3.8"/><path class="st16" d="M99.8 141.1l6.1-7 6.9 4.9c-.1.1-12 2.1-13 2.1zM99.8 141l6.1-6.9 6.9 4.9c0 .1-12 2-13 2"/><path class="st39" d="M94.1 132.1l11.8 2-6.1 7zM94.2 132.1l5.6 8.9 6.1-6.9z"/><path class="st40" d="M89.8 129l4.4 3.1 5.6 8.9-7.3.5-4.3 1.4zM89.9 129l-1.7 13.8 4.3-1.4 7.3-.4-5.6-8.9z"/><path class="st41" d="M79.1 137.8l9.2 4.9c0 .1-2.9 1.2-3.8 2.1l-5.4-7zM88.2 142.8l-9.2-5 5.4 7c1-.8 3.8-2 3.8-2"/><path class="st42" d="M79.1 137.8l10.7-8.8-1.5 13.9zM89.9 129l-10.8 8.8 9.1 5z"/><path class="st43" d="M121 128.1l-5.7-2.8 4.2-8.7 12.1-4.9 1.1 12.2-5.1 7.9zM131.6 111.8l-12.1 4.8-4.2 8.7 5.7 2.7 6.6 3.8 5.1-7.9z"/><path class="st44" d="M109.2 122.3l-.4-6.7 10.7.9-4.2 8.8zM108.8 115.6l.4 6.7 6.1 3 4.2-8.7z"/><path class="st45" d="M76.3 122.1c.1-.1 12.8-1.1 17.8-6.5l3 3.2-7.2 10.2-13.6-6.9zM94.2 115.6c-5.1 5.5-17.8 6.5-17.8 6.5l13.5 6.9 7.3-10.2-3-3.2z"/><path class="st46" d="M94.2 132.1l4.8-2.2 1.5 3.3zM94.2 132.1L99 130l1.4 3.2z"/><path class="st38" d="M100.4 133.2L99 130v-.1c.2-.3 1.7-.5 1.8-.5l2.6 4.4-3-.6zM103.4 133.7l-2.6-4.3s-1.9.2-1.8.5c.1.3 1.4 3.2 1.4 3.2l3 .6z"/><path class="st46" d="M108.8 130.4l4.4.5-5 2.3zM108.2 133.2l.6-2.8 4.4.5z"/><path class="st47" d="M108.8 130.4l.4-8.1 6.1 2.9-.9 5.2-1.6.5zM109.2 122.3l-.4 8.1 4 .5 1.6-.5.9-5.1z"/><path class="st48" d="M89.8 129l7.3-10.3 3.8 10.7-1.9.6-4.8 2.1zM97.2 118.8l3.6 10.6-1.8.6-4.8 2.1-4.3-3.1z"/><path class="st49" d="M103.4 133.7l-.7-1.2 6.1-3.5v1.4l-.5 2.8-2.4 1zM108.8 129l-6.1 3.5.7 1.2 2.5.4 2.3-.9.6-2.8z"/><path class="st50" d="M100.8 129.4L99 104.3l9.8 24.7-6.1 3.6zM99 104.3l1.8 25.1 1.9 3.1 6.1-3.5z"/><path class="st51" d="M99 104.3l9.8 11.3.4 6.7-.4 6.7zM108.8 115.6L99 104.3l9.8 24.7.4-6.7z"/><path class="st52" d="M97.1 118.8l1.9-15.2 1.9 25.8h-.1zM99 103.6l-1.8 15.2 3.6 10.6z"/><path class="st53" d="M94.1 115.6l4.9-11.3-1.8 14.5zM94.2 115.6l4.8-11.3-1.8 14.5z"/><path class="st54" d="M99 104.3l4.4-1.2 1.9 8.4zM103.4 103.2l1.9 8.3-6.3-7.2z"/><path class="st55" d="M61.2 145.3c-1.9 0-3.9-1.9-6.1-5.8l-2.4-4.7 3.2 1.9 8.9 5.6s-1.3 3-3.6 3"/><path class="st55" d="M64.8 142.3s-3.4 8.2-9.6-2.8l-2.4-4.7 3.1 2 8.9 5.5z"/><path class="st56" d="M56.8 137.3l3.8-1.4c1.3 3.2 1.9 4.9 1.9 4.9l-5.7-3.5zM60.5 135.9l1.9 4.9c-.1-.1-5.6-3.5-5.6-3.5l3.7-1.4z"/><path class="st57" d="M62.4 140.8l-1.9-4.9-3.7 1.4 3.1-10.7 4.9 15.8zM59.9 126.6l-3.1 10.7 3.7-1.4 1.9 4.9 2.4 1.5z"/><path class="st58" d="M54.5 130.6l.3-7.4 3 1.3-3.2 6.1zM54.9 123.2l-.3 7.4 3.1-6.1z"/><path class="st59" d="M52.7 134.8c-.1-.3-2.3-7.3-2.3-7.8l4.2 3.7 5.3-4-3.1 10.7-4.1-2.6zM50.4 126.9c0 .5 2.3 7.8 2.3 7.8l4 2.5 3.1-10.6-5.4 4-4-3.7z"/><path class="st60" d="M50.4 126.9l-.6-10.9 3.3 3.3-2.6 7.6zM53.1 119.3l-2.7 7.6-.5-10.9z"/><path class="st61" d="M50.4 126.9l2.7-7.6-3.2-3.3c.3-1 .9-1.5 1.9-1.5 1.3 0 2.8 1 2.8 1l.3 7.6-.3 7.5-4.2-3.7zM54.6 115.6s-3.7-2.6-4.7.4l3.2 3.4-2.7 7.6 4.1 3.7.3-7.4-.2-7.7z"/><path class="st62" d="M70.3 115l6 7.1-16.4 4.6zM70.3 115l-10.4 11.6 16.4-4.5z"/><path class="st63" d="M59.9 126.6c-1.4-9.4-5.3-11-5.3-11l-.8-4.6 16.6 4-10.5 11.6zM53.8 111l.8 4.6s4 1.5 5.4 11.1L70.3 115l-16.5-4z"/><path class="st64" d="M54.6 115.6s-1.8-.9-2.2-1l-.9-9.2 2.3-2.9v8.4l.8 4.7zM52.4 114.6l-.9-9.2 2.3-2.8v8.4l.8 4.6s-1.8-.9-2.2-1"/><path class="st65" d="M53.8 111v-8.4l8.2-5.1 8.4 17.6zM62 97.5l-8.2 5.1v8.4l16.5 4z"/><path class="st66" d="M51.5 95l2.3 7.6-2.3 2.9zM51.5 95v10.4l2.3-2.8z"/><path class="st67" d="M51.5 95.2l3.1-9.4c0 .1-1.5 10-.7 16.8h-.1l-2.3-7.4zM54.6 85.8s-1.5 9.9-.8 16.8l-2.3-7.4 3.1-9.4z"/><path class="st68" d="M51.5 95.2c0-10.3 3.1-16.9 3.1-17l.1 7.6-3.2 9.4zM54.6 78.2s-3.1 6.6-3.1 17l3.1-9.4v-7.6z"/><path class="st69" d="M54.5 78.2l3.9 2.1-3.9 5.5zM58.4 80.3l-3.8 5.5v-7.6z"/><path class="st70" d="M54.6 78.2c1.3-3.8 8.8-10.1 8.9-10.1l-5 12.3-3.9-2.2zM63.4 68.1s-7.5 6.3-8.9 10.1l3.8 2.1 5.1-12.2z"/><path class="st71" d="M53.8 102.6c0-.1-1-8.6.8-16.8l7.5 11.8-8.3 5zM54.6 85.8L62 97.5l-8.3 5c.1.1-.9-8.4.9-16.7"/><path class="st72" d="M63.4 68.1l7.3-2.2-9.1 6.7zM63.4 68.1l-1.8 4.4"/><path class="st73" d="M63.4 68.1c2.9-3.5 12.8-7.8 12.9-7.8l-5.6 5.2-7.3 2.6zM76.3 60.3s-10 4.2-12.9 7.8l7.2-2.3 5.7-5.5zM71 65.1l5.3-4.9 7.5-1.1c0 .2-5.7 1.1-12.8 6zM83.9 59.5s-6.6 2.4-13.3 6.3l5.7-5.6 7.6-.7z"/><path class="st74" d="M62 97.6l-3.6-17.3 18.9 21.2zM77.3 101.4L62 97.5l-3.6-17.2z"/><path class="st75" d="M61.6 72.5l6.5-5 19.5 31.4c0-.1-26-26.3-26-26.4"/><path class="st76" d="M61.6 72.5c-.5.4-3.2 7.8-3.2 7.8l18.9 21.1 10.3-2.6"/><path class="st77" d="M87.6 98.9L68.1 67.5c7.9-5.3 15.8-8 15.8-8L99 104.3l-11.4-5.4z"/><path class="st54" d="M83.8 59.3s2.9-.8 7.2-.8c2.9 0 5.8.4 8.7 1l4.9 39-5.6 5.9-15.2-45.1z"/><path class="st78" d="M124.3 96.5c-1.4-1-10.1-1-10.2-1l3-26.5 7.2 27.5zM124.3 96.5L117.2 69l-3 26.5c-.1 0 8.7 0 10.1 1"/><path class="st79" d="M117.1 69c.1.1 8.5 9.6 11.1 24.5l-3.9 3.1-7.2-27.6zM128.2 93.5l-3.9 3-7.1-27.5s8.3 9.4 11 24.5"/><path class="st72" d="M76.3 60.3c3.6-2.9 15-3.4 15.1-3.4l8.3 2.6c-3-.6-5.9-1-8.8-1-4.3 0-7 .8-7 .8l-7.6 1zM91.4 56.9s-11.5.5-15.1 3.4l7.6-.8s5.7-1 15.8 0l-8.3-2.6z"/><path class="st68" d="M99.7 59.5l-8.3-2.6c0-.1.4-.1 1.1-.1 1.9 0 7.2.3 14 2.6v.1h-6.8zM106.5 59.5h-6.8l-8.3-2.6s6.2-.5 15.1 2.6"/><path class="st68" d="M117.1 69c-6.4-6.7-17.3-9.5-17.4-9.5l6.8-.1c2.8.4 9.1 5.6 9.1 5.6l1.5 4zM117.2 69l-1.5-3.9s-6.3-5.2-9.1-5.6h-6.8c-.1 0 8.2 2.4 17.4 9.5"/><path class="st64" d="M122.9 78c-.9-1.8-5.7-8.9-5.8-8.9l-1.5-3.9c1.9 1.4 7.1 7.6 7.1 7.6l.2 5.2zM123 77.9l-.3-5.2s-5.2-6.2-7.1-7.6l1.5 3.9c.1 0 5 7.1 5.9 8.9"/><path class="st68" d="M126.9 88.1c-.9-3.7-4-10-4-10.1l-.3-5.2 3.1 6.2 1.2 9.1zM127 88l-1.2-9.1-3.1-6.2.3 5.2s3 6.4 4 10.1"/><path class="st72" d="M128.2 93.5l-1.3-5.4-1.2-9.1c.1.1 3.8 7.4 4.9 18.2l-1.3 1.3-1.1-5zM129.4 98.5l-1.1-5L127 88l-1.2-9.1s3.7 7.3 4.9 18.2l-1.3 1.4zM131.3 111.5l-2-13 1.3-1.3c.1.1 1.8 10.2.7 14.3zM131.3 111.5l-2-13 1.3-1.3c.1 0 1.8 10.2.7 14.3"/><path class="st79" d="M131.6 111.8c-1.4-3-7.3-15.2-7.3-15.3l3.9-3 1.2 5 2.2 13.3zM131.6 111.8l-2.3-13.3-1.1-5-3.9 3s5.9 12.3 7.3 15.3"/><path class="st80" d="M62 97.6l15.2 3.9c-7.2 3.4-9.1 9-9.1 9v.1l-6.1-13zM68.1 110.4s1.8-5.6 9.1-9L62 97.5l6.1 12.9z"/><path class="st81" d="M68.1 110.4c0-.1 2-5.8 9.1-9l-2.4 5.9-6.7 3.1zM74.8 107.3l-6.7 3.1s1.9-5.7 9.1-9l-2.4 5.9z"/><path class="st82" d="M77.2 101.4l4 2.9-6.4 3.1zM81.1 104.4l-6.3 2.9 2.5-5.9z"/><path class="st83" d="M77.2 101.5l10.4-2.7-6.5 5.6zM87.6 98.8l-6.5 5.6-3.8-3z"/><path class="st84" d="M87.6 98.8l2.8 4.3-9.3 1.3zM90.4 103.2l-9.3 1.2 6.5-5.6z"/><path class="st85" d="M90.4 103.2l-2.8-4.3 9.1 4.2-.1.1zM96.6 103.2h-6.2l-2.8-4.4z"/><path class="st86" d="M121.6 101l2.7-4.5 3.4 5.7zM121.6 101l2.7-4.5 3.3 5.6z"/><path class="st82" d="M114.1 95.5c.5-.1.9-.1 1.3-.1 7.2 0 8.9 1 8.9 1l-2.8 4.6-7.4-5.5zM114.1 95.5l7.4 5.5 2.7-4.5c.1 0-1.7-1.1-10.1-1"/><path class="st87" d="M112.8 100.3l1.3-4.8 7.6 5.5zM112.8 100.2l1.3-4.7 7.5 5.5z"/><path class="st84" d="M104.6 98.5c3.8-2.9 9.5-3 9.5-3l-1.3 4.8-8.2-1.8zM104.6 98.5l8.2 1.7 1.4-4.7c-.1 0-5.8.1-9.6 3"/><path class="st88" d="M80.2 116.4c-2.8 0-4.8-.4-4.8-.4l.9-1c2.6-3.2 5.4-4.9 8.5-4.9 4.1 0 7.3 3 7.3 3-3.7 2.7-8.5 3.3-11.9 3.3M92.1 113.2s-8.1-7.9-15.8 1.8l-.9 1s10 1.9 16.7-2.8"/><path class="st43" d="M84.4 116l.9 4.4c-2.7.9-5.7 1.4-9 1.7h-.1l8.2-6.1zM85.3 120.4l-.9-4.4-8.1 6.1c3.6-.3 6.6-1 9-1.7"/><path class="st88" d="M118.3 112.1c-2.6 0-5.3-.7-8.2-2 0-.1 3.9-4.2 8.6-4.2 2 0 3.8.7 5.5 2.2 0 0 .9.8.9 1.5 0 .2-.1.4-.2.5-1.2 1-3.4 2-6.6 2M110.1 110.2s7.3-7.9 14-2c0 0 1.4 1.3.7 2-1.6 1.3-6.6 3.6-14.7 0"/><path class="st53" d="M105.3 111.5l-1.9-8.3 6.7 6.9-1.3 5.5zM108.8 115.6l1.3-5.4-6.7-7 1.9 8.3z"/><path class="st38" d="M108.8 115.6l1.3-5.5 9.5 6.5zM119.5 116.6s-7.4-5-9.4-6.4l-1.3 5.4 10.7 1z"/><path class="st62" d="M124.8 110.2l2.8-8.1c.8 1.3 4.1 9.6 4.1 9.6l-6.9-1.5zM127.6 102.1l-2.8 8 6.8 1.6c0 .1-3.2-8.3-4-9.6"/><path class="st89" d="M118.3 112c-1 0-1.8-.1-1.8-.1-2.1-.3-1.7-4.8-1.7-5 1.3-.7 2.6-1 3.8-1 2.1 0 3.4.9 3.4 1 .2 1.5 0 4.4-.9 4.7-.7.2-1.7.4-2.8.4zM114.9 106.9s-.4 4.7 1.7 5c0 0 2.6.4 4.6-.3.8-.3 1-3 .9-4.7 0 0-2.8-2.2-7.2 0"/><path class="st89" d="M83.9 116.1h-.8c-.9-.1-1.6-.5-2-1.1-.9-1.5-.2-3.8-.2-3.8 1-.7 2.3-1 3.7-1 2 0 3.7.7 3.7.7.4 1.6.2 2.9-.5 3.8-1 1.2-2.9 1.4-3.9 1.4zM80.9 111.1s-1.4 4.4 2.2 4.9c0 0 6.6.9 5.2-5.2 0 0-4.2-1.7-7.4.3"/><path class="st90" d="M97.7 152.2l-6.6-.9-3.3-6.5c.2-.1 20.6-4.7 28.3-4.7h1.1l-.3 7.5s-2.4 1.9-5 2.8c0 0-2.8 1.7-7.5 1.7h-6.7zM87.9 144.8s22.6-5.1 29.4-4.6l-.4 7.4s-2.3 1.9-5 2.8c0 0-2.8 1.7-7.5 1.7h-6.8l-6.6-.9-3.1-6.4z"/><path class="st91" d="M99.7 59.5c.2 0 10.4 3.5 17.5 9.5l-3 26.5c-.1 0-6.7.6-9.5 3l-5-39zM99.7 59.5l4.9 39c2.9-2.5 9.5-3 9.5-3l3-26.5c-8.7-6.8-17.4-9.5-17.4-9.5"/><path class="st38" d="M67.3 131l9-8.9 13.6 6.9-10.8 8.9zM76.3 122.1l-9 8.8 11.8 6.9 10.8-8.8z"/><path class="st92" d="M86.5 162.5l9.1 6-5.9.6zM86.5 162.5l3.2 6.6 5.8-.5z"/><path class="st93" d="M104.1 158l7.9-1.1-3.3 4.8zM112 156.9l-7.9 1.1 4.6 3.7z"/><path class="st94" d="M54.5 130.6l3.2-6.1-2.9-1.3-.3-7.6c.1 0 4 1.5 5.4 11.1l-5.4 3.9zM59.9 126.6l-5.4 4 3.2-6.1-2.9-1.3-.3-7.6c.1 0 4 1.3 5.4 11"/><path class="st95" d="M104.6 98.5l8.2 1.7-9.4 3-4.5 1.1zM103.4 103.2l9.4-3-8.2-1.7-5.6 5.8z"/><path class="st96" d="M70.3 115l4.5-3.5.6 4.5zM70.3 115l4.5-3.5.6 4.5z"/><path class="st97" d="M74.8 111.5h5.3c-.7.3-4.7 4.5-4.7 4.5l-.6-4.5zM80.1 111.5h-5.3l.6 4.5s4-4.3 4.7-4.5"/><path class="st98" d="M68.1 110.4l6.7-3.1v4.2l-4.5 3.6zM74.8 107.3v4.2l-4.5 3.5-2.2-4.6z"/><path class="st99" d="M74.8 111.6c0-.1 4.5-3.8 8.8-4.6l-3.4 4.6h-5.4zM83.6 106.9l-3.4 4.6h-5.3c-.1 0 4.4-3.7 8.7-4.6"/><path class="st100" d="M92.1 113.2l-1.8-1.3 7.7-5.3-3.8 9zM98 106.6l-7.6 5.3 1.7 1.3 2.1 2.4z"/><path class="st101" d="M90.3 111.9s-2.5-1.7-5.7-1.7c-1.6 0-3.2.5-4.5 1.4l3.4-4.6 6.8 4.9zM83.6 106.9l6.8 4.9s-5.3-3.6-10.2-.3l3.4-4.6z"/><path class="st102" d="M83.5 107c.4-.2.9-.2 1.5-.2 3.5 0 10.2 1.8 10.2 1.8l-4.9 3.4-6.8-5zM95.3 108.6s-9.1-2.4-11.7-1.6l6.8 4.9 4.9-3.3z"/><path class="st103" d="M74.8 107.3l6.3-3 2.5 2.6c-3.5.7-8.7 4.6-8.8 4.6v-4.2zM81.1 104.4l-6.3 3v4.2s5.3-3.9 8.8-4.6l-2.5-2.6z"/><path class="st104" d="M81.1 104.4c.1-.1 6.9-1.3 9.2-1.3l-6.8 3.9-2.4-2.6zM90.4 103.2l-6.8 3.8-2.4-2.6c-.1 0 6.8-1.2 9.2-1.2"/><path class="st105" d="M95.2 108.6c-5.6-1.4-9-1.7-10.5-1.7-.8 0-1.1.1-1.1.1l6.8-3.8 4.8 5.4zM95.2 108.6l-4.9-5.4-6.8 3.8c.1-.1 3.6-.6 11.7 1.6"/><path class="st106" d="M95.2 108.6l-4.9-5.5h6.4l2.3 1.2-2.4-1.1h-6.2l4.8 5.3 2.8-1.9 1-2.1-.9 2.1zM99 104.3l-2.4-1.1h-6.2l4.8 5.4 2.8-2 1-2.1"/><path class="st107" d="M84.3 112.6l-.1-1.1h2.4l-.8 1.9zM84.3 111.5v1.1l1.5.8.8-1.9z"/><path class="st108" d="M111.1 105l3.8 1.8c-1.3.3-4.7 3.3-4.7 3.3l-.1.1 1-5.2zM111.1 105l-1 5.1s3.4-3.1 4.7-3.3l-3.7-1.8z"/><path class="st109" d="M111.1 105.1c0-.1 3.5-2.6 7.1-2.6h.8l-4.1 4.3-3.8-1.7zM119 102.6l-4.1 4.3-3.8-1.8c0-.1 4-3 7.9-2.5"/><path class="st110" d="M114.8 106.8l4.1-4.3 2.6 4c-1.1-.3-2.1-.5-3.2-.5-2.1.1-3.4.9-3.5.8zM121.6 106.6l-2.6-4-4.1 4.3s2.6-1.6 6.7-.3"/><path class="st111" d="M119 102.6c.2 0 4 1 5.6 2.1l-3 1.9-2.6-4zM124.6 104.7l-3 1.8-2.6-4c0 .1 3.9 1.1 5.6 2.2"/><path class="st112" d="M125 109.4c-.9-1.3-3.4-2.8-3.5-2.8l3-1.9.5 4.7zM125.1 109.4l-.5-4.7-3 1.8c0 .1 2.5 1.6 3.5 2.9"/><path class="st113" d="M103.4 103.2l7.7 1.8-1 5.2zM111.1 105l-7.7-1.8 6.7 7z"/><path class="st114" d="M103.4 103.2l9.4-3 6.2 2.4H118.4c-3.4 0-7.2 2.5-7.3 2.5l-7.7-1.9zM119 102.6l-6.2-2.4-9.4 2.9 7.7 1.9s4.3-2.7 7.9-2.4"/><path class="st115" d="M112.8 100.3c0-.1 0-.1 0 0 .7 0 7.9.5 8.8.7l6.2 1.1-.2.1-8.6.5-6.2-2.4zM127.6 102.1l-8.6.5-6.2-2.4s7.8.6 8.8.8l6.2 1.1h-.2z"/><path class="st116" d="M125 109.4l-.5-4.7c-1.1-.8-5.5-2.1-5.6-2.1l8.6-.5-2.5 7.3z"/><path class="st99" d="M125.1 109.4l2.5-7.2-8.6.5s4.5 1.3 5.6 2.1l.5 4.6z"/><path class="st32" d="M119.5 116.5l5.3-6.4 6.8 1.6-12.1 4.9zM131.6 111.8l-6.8-1.6-5.3 6.4z"/><path class="st107" d="M118.5 108.9l1-1.6 1.5 2.1zM119.5 107.3l-1 1.6 2.5.5z"/><path class="st32" d="M70.3 115l5.1.9c1.4.2 2.9.3 4.5.3 2.7 0 4.6-.3 4.6-.3l-8.1 6.2-6.1-7.1zM70.3 115l6 7.1 8.1-6.1s-4.3.7-9.1 0l-5-1z"/><path class="st117" d="M110.1 110.2c3 1.2 5.8 1.9 8.4 1.9 4.3 0 6.3-1.9 6.3-1.9l-5.3 6.5-9.4-6.5zM124.8 110.2s-4.5 4.3-14.7 0l9.4 6.4 5.3-6.4zM84.4 116c3.8-.4 7.6-2.8 7.7-2.8l-6.8 7.3-.9-4.5zM92.1 113.2s-3.8 2.4-7.7 2.8l.9 4.4 6.8-7.2z"/><path class="st38" d="M85.3 120.4l6.8-7.3 2.1 2.4s-.7 1.4-3.3 2.4c-1.5 1.1-3.1 1.7-5.6 2.5m6.8-7.2l-6.7 7.1c2.5-.8 4.1-1.4 5.5-2.4 2.4-1 3.1-2.2 3.2-2.4l-2-2.3zM90.9 118c-1.5 1-3.2 1.6-5.6 2.4l6.8-7.2 2.1 2.4s-.8 1.4-3.3 2.4"/><path class="st118" d="M58.4 80.3l-3.8 5.5L62 97.5z"/></g></svg>