<svg xmlns="http://www.w3.org/2000/svg" width="192" height="234" viewBox="0 0 192 234"><style type="text/css">.st0{fill:#F2F2F2;} .st1{fill:#D54339;} .st2{fill:#BB7831;} .st3{fill:#824B1F;} .st4{fill:#AE6F2F;} .st5{fill:#BF7C3B;} .st6{fill:#C6833C;} .st7{fill:#814D1F;} .st8{fill:#593011;} .st9{fill:#874D22;} .st10{fill:#673514;} .st11{fill:#D4A067;} .st12{fill:#DA9C64;} .st13{fill:#CC9459;} .st14{fill:#C48849;} .st15{fill:#B37735;} .st16{fill:#BE8031;} .st17{fill:#AB712A;} .st18{fill:#CB8B43;} .st19{fill:#D19140;} .st20{fill:#CD8A40;} .st21{fill:#C38B46;} .st22{fill:#DD9F54;} .st23{fill:#F4AE7A;} .st24{fill:#F1A763;} .st25{fill:#DE9C67;} .st26{fill:#DBAC79;} .st27{fill:#E0AC76;} .st28{fill:#DFAE79;} .st29{fill:#D29E69;} .st30{fill:#C48B4E;} .st31{fill:#D99950;} .st32{fill:#B17636;} .st33{fill:#C8812E;} .st34{fill:#D99152;} .st35{fill:#F6AD71;} .st36{fill:#C6803A;} .st37{fill:#CC8942;} .st38{fill:#D78D43;} .st39{fill:#DC8D46;} .st40{fill:#CE8842;} .st41{fill:#E19A4B;} .st42{fill:#E79A4F;} .st43{fill:#F0A85F;} .st44{fill:#DF974F;} .st45{fill:#C17330;} .st46{fill:#AC6C2C;} .st47{fill:#A95F27;} .st48{fill:#C57735;} .st49{fill:#DB9141;} .st50{fill:#D58537;} .st51{fill:#C27835;} .st52{fill:#D8935D;} .st53{fill:#B2723B;} .st54{fill:#31120D;} .st55{fill:#AB673E;} .st56{fill:#D7874D;} .st57{fill:#EDA470;} .st58{fill:#D9873C;} .st59{fill:#F6AE7B;} .st60{fill:#F3AA79;} .st61{fill:#F7B382;} .st62{fill:#EDAC6D;} .st63{fill:#E6A06A;} .st64{fill:#A45826;} .st65{fill:#AC6A34;} .st66{fill:#A96328;} .st67{fill:#7A5033;} .st68{fill:#934F22;} .st69{fill:#805228;} .st70{fill:#583A20;} .st71{fill:#D3C281;} .st72{fill:#79401B;} .st73{fill:#29170F;} .st74{fill:#E1C596;} .st75{fill:#723416;} .st76{fill:#70461C;} .st77{fill:#B3682D;} .st78{fill:#B57B44;} .st79{fill:#362411;} .st80{fill:#382A15;} .st81{fill:#443622;} .st82{fill:#4E3A22;} .st83{fill:#694C2E;} .st84{fill:#CC8743;} .st85{fill:#703917;} .st86{fill:#5D2E15;} .st87{fill:#6C4019;} .st88{fill:#703817;} .st89{fill:#5B2C10;} .st90{fill:#412513;} .st91{fill:#EDE995;} .st92{fill:#A55B26;} .st93{fill:#C57349;} .st94{fill:#935225;} .st95{fill:#9F5E29;} .st96{fill:#342113;} .st97{fill:#352716;} .st98{fill:none;stroke:#000000;stroke-width:0.25;stroke-miterlimit:10;} .st99{fill:#302415;} .st100{fill:#2A1F10;} .st101{fill:#3C2914;} .st102{fill:#4E3115;} .st103{fill:#855E33;} .st104{fill:#FBC390;} .st105{fill:#312018;} .st106{fill:#D89359;} .st107{fill:#D89455;} .st108{fill:#8D4221;} .st109{fill:#B25C27;} .st110{fill:#E7A269;} .st111{fill:#D2884D;} .st112{fill:#E39B60;} .st113{fill:#ECA97D;} .st114{fill:#E49762;} .st115{fill:#D29054;} .st116{fill:#D07C41;} .st117{fill:#D18846;} .st118{fill:#D78850;} .st119{fill:#D79458;} .st120{fill:#B9692F;} .st121{fill:#89421F;} .st122{fill:#683C1A;} .st123{fill:#CF905A;} .st124{fill:#E7A571;} .st125{fill:#C97B3D;} .st126{fill:#4E381E;} .st127{fill:#E6A15B;} .st128{fill:#F7B77A;} .st129{fill:#FABB8D;} .st130{fill:#F8BB83;} .st131{fill:#DF9548;} .st132{fill:#22150C;} .st133{fill:#D5893E;} .st134{fill:#4E2711;} .st135{fill:#3A2514;} .st136{fill:#35291B;} .st137{fill:#CC7A32;} .st138{fill:#29160D;} .st139{fill:#1E160B;} .st140{fill:#13100B;} .st141{fill:#28150D;} .st142{fill:#070707;} .st143{fill:#090606;} .st144{fill:#0C0D0A;} .st145{fill:#11120C;} .st146{fill:#1E201B;} .st147{fill:#15130D;} .st148{fill:#121211;} .st149{fill:#161916;} .st150{fill:#111213;} .st151{fill:#19140C;} .st152{fill:#161917;} .st153{fill:#070B09;} .st154{fill:#171713;} .st155{fill:#222620;} .st156{fill:#191A16;} .st157{fill:#1B1914;} .st158{fill:#0E1010;} .st159{fill:#1B1D19;} .st160{fill:#141411;} .st161{fill:#21221B;} .st162{fill:#0F0D09;} .st163{fill:#723F1B;} .st164{fill:#9A5728;} .st165{fill:#9D562C;} .st166{fill:#DC6B3A;} .st167{fill:#D57E4C;} .st168{fill:#F58958;} .st169{fill:#F37D54;} .st170{fill:#BE723E;} .st171{fill:#DA8150;} .st172{fill:#F59163;} .st173{fill:#F27E4E;} .st174{fill:#E08458;} .st175{fill:#CF805C;} .st176{fill:#BB795C;} .st177{fill:#904824;} .st178{fill:#854528;} .st179{fill:#92512C;} .st180{fill:#B46428;} .st181{fill:#B5653B;} .st182{fill:#AE5D31;} .st183{fill:#A25628;} .st184{fill:#AE6538;} .st185{fill:#9B552F;} .st186{fill:#9A5231;} .st187{fill:#FAF6C0;} .st188{fill:#AF6836;} .st189{fill:#C9824A;} .st190{fill:#C28E55;} .st191{fill:#AE6837;} .st192{fill:#B47139;} .st193{fill:#DE9245;} .st194{fill:#763F1A;} .st195{fill:#6E4622;} .st196{fill:#7F5C35;} .st197{fill:#845F40;} .st198{fill:#795633;} .st199{fill:#947052;} .st200{fill:#896131;} .st201{fill:#815D31;} .st202{fill:#935D34;} .st203{fill:#A36928;} .st204{fill:#14090A;} .st205{fill:#1D130A;} .st206{fill:#FCC591;} .st207{fill:#F5B37B;} .st208{fill:#E7A874;} .st209{fill:#D28E42;} .st210{fill:#E4A05D;} .st211{fill:#CB975D;} .st212{fill:#F2A474;} .st213{fill:#64250E;} .st214{fill:#70431E;} .st215{fill:#693C1A;} .st216{fill:#D18347;} .st217{fill:#E59B52;} .st218{fill:#DA863D;} .st219{fill:#F5B480;}</style><path class="st0" d="M0 0h192v234H0z"/><path class="st1" d="M192 215.5L172.5 234H192z"/><path class="st2" d="M65.6 163.7c-2.4-3.3-6.8-13.3-6.9-13.4L82 154l-16.4 9.7zM58.7 150.3s4.5 10.1 6.9 13.4l16.5-9.7-23.4-3.7z"/><path class="st3" d="M89.6 177.9c-.1 0-12.2-4.1-13-4.8l3.8-4 9.2 8.8zM89.6 177.9s-12.2-4.1-13-4.8l3.8-4 9.2 8.8z"/><path class="st4" d="M72.3 159.7l8.1 9.5-3.8 3.9zM72.3 159.7l8.1 9.5-3.8 3.9z"/><path class="st5" d="M72.3 159.7l9.8-5.7-1.7 15.2zM82.1 154l-1.7 15.2-8.1-9.5z"/><path class="st6" d="M82.1 154c.1.1 5.1 6.3 7.9 7l-9.6 8.2 1.7-15.2zM89.9 160.9l-9.6 8.2 1.7-15.2c.1.1 5.1 6.3 7.9 7z"/><path class="st7" d="M80.4 169.2l14.2 5.6-5 3.1zM89.6 177.9l-9.2-8.7 14.2 5.6z"/><path class="st8" d="M95.4 178.5c-3.5 0-5.7-.6-5.7-.6l5-3.1 9.3 2.6c-3 .8-5.8 1.1-8.6 1.1zM103.9 177.5l-9.3-2.6-5 3.1c0-.1 5.9 1.5 14.3-.5z"/><path class="st9" d="M94.6 174.8l15.7-3.1-6.4 5.8zM110.3 171.7l-15.7 3.1 9.3 2.7z"/><path class="st10" d="M103.9 177.5l6.4-5.7 9.9-.7c-10.8 6.3-16.3 6.4-16.3 6.4zM120.1 171.1l-9.9.7-6.4 5.7c.1 0 5.5 0 16.3-6.4z"/><path class="st11" d="M80.4 169.2l9.5-8.3 4.7 13.9zM89.9 160.9l4.7 13.9-14.2-5.6z"/><path class="st12" d="M89.9 160.9l10.3.7-5.6 13.2zM100.2 161.6l-10.3-.7 4.7 13.9z"/><path class="st13" d="M100.1 161.6l10.2 10.1-15.7 3.1zM110.3 171.7l-10.1-10.1-5.6 13.2z"/><path class="st14" d="M100.1 161.6c5.2-.8 10.1-5.9 10.1-6v16.2l-10.1-10.2zM110.3 155.6s-4.8 5.2-10.1 6l10.1 10.2v-16.2z"/><path class="st15" d="M110.3 155.6l9.8 15.4-9.8.7zM120.1 171.1l-9.9-15.5v16.1c.1 0 7.9-.5 9.9-.6z"/><path class="st16" d="M110.3 155.6l20.3-.8c-4.6 9.6-10.4 16.2-10.4 16.2l-9.9-15.4zM130.6 154.8l-20.3.8 9.9 15.5c-.1 0 5.7-6.6 10.4-16.3z"/><path class="st17" d="M134 137.6c0 .2-2.3 16.2-3.4 17.2l-7.2.3 10.6-17.5zM134 137.6s-2.3 16.2-3.4 17.2l-7.2.3 10.6-17.5z"/><path class="st18" d="M112.2 147.2l21.8-9.6-10.7 17.5zM112.2 147.2l4.3 3.1 6.8 4.8 10.7-17.5z"/><path class="st19" d="M116.5 150.3l6.8 4.8-8.1.3zM115.2 155.4l1.3-5.1 6.8 4.8z"/><path class="st20" d="M112.2 147.2l4.3 3-1.3 5.2-4.9.2zM110.3 155.6l1.9-8.4 4.3 3.1-1.3 5.1z"/><path class="st21" d="M105.2 150.3l7-3.1-1.9 8.4zM105.2 150.3l5.1 5.3 1.9-8.4z"/><path class="st22" d="M120.4 133.8l12.2-9.7 1.4 13.5zM132.6 124.1l1.4 13.5-13.6-3.8z"/><path class="st23" d="M107.8 134.7l12.6-.9-8.2 13.4zM107.8 134.7l4.4 12.5 8.2-13.4z"/><path class="st24" d="M105.9 124.1l14.5 9.7-12.6.9zM105.9 124.1l1.9 10.6 12.6-.9z"/><path class="st25" d="M103 141.7c2.2-.3 3.8-1 4.6-2.2 1-1.4.7-3.2.4-4.1l-.2-.7s.1.3.2.7l4.1 11.8-9.1-5.5zM103 141.7l9.1 5.5-4.3-12.5s2.8 6.1-4.8 7z"/><path class="st26" d="M105.2 150.3c-1.4-1.5-3-2.2-4.7-2.2-2 0-3.5 1.1-3.5 1.1l6-7.4 2.2 8.5zM97 149.1s4.2-3 8.2 1.1l-2.2-8.5-6 7.4z"/><path class="st27" d="M93 141.7h10l-6 7.4zM93 141.7l4 7.4 6-7.4z"/><path class="st28" d="M87.2 149.3l5.8-7.6 4 7.4s-2-1.6-4.8-1.6c-1.8 0-3.4.6-5 1.8zM87.2 149.3l5.8-7.6 4 7.4s-4.6-3.7-9.8.2z"/><path class="st29" d="M83.7 140.5l2.9-4.5s-.3 2 1 3.6c1.1 1.3 2.9 2 5.4 2.1l-5.8 7.6-3.5-8.8zM86.6 136s-.9 5.4 6.4 5.7l-5.8 7.6-3.5-8.8 2.9-4.5z"/><path class="st30" d="M83.7 140.5l3.5 8.8-5.1 4.7zM82.1 154l5.1-4.7-3.5-8.8z"/><path class="st31" d="M75.8 153l7.3-8-1 9zM75.8 153l7.3-8-1 9z"/><path class="st32" d="M58.7 150.3c-.9-3.3-1.4-13.6-1.4-13.7L70 152.1l-11.3-1.8zM57.4 136.6s.5 10.4 1.4 13.7l11.3 1.8-12.7-15.5z"/><path class="st33" d="M70.1 152.1l-5-6.1 18-1-7.3 8zM83.1 145l-18 1 5 6.1 5.7.9z"/><path class="st34" d="M74.1 132.3l9 12.7-18 1zM74.1 132.3l-9 13.7 18-1z"/><path class="st35" d="M74.1 132.3l11-5-1.4 13.2-.6 4.5zM85.1 127.3l-11 5 9 12.7.6-4.5z"/><path class="st36" d="M57.4 136.6h13.9l-6.2 9.4zM71.3 136.6H57.4l7.7 9.4z"/><path class="st37" d="M58.4 136.6l1.2-11.7 11.7 11.7zM59.6 124.9l-1.2 11.7h12.9z"/><path class="st38" d="M83.7 140.5l1.4-13.2 5.4 1.6-3.9 7.1-2.9 4.5zM90.5 128.9l-3.9 7.1-2.9 4.5 1.4-13.2z"/><path class="st39" d="M63.5 128.8l10.6 3.5-2.8 4.3zM74.1 132.3l-10.6-3.5 7.8 7.8z"/><path class="st40" d="M59.6 124.9L61 116l8.4 4-5.9 8.8zM61 116l-1.4 8.9 3.9 3.9 5.9-8.8z"/><path class="st41" d="M63.5 128.8l5.9-8.8 4.7 12.4zM74.1 132.3L69.4 120l-5.9 8.8z"/><path class="st42" d="M69.4 120s2.1 2.1 7.4 2.1c.7 0 1.4 0 2.1-.1l-4.8 10.4-4.7-12.4zM78.9 122l-4.8 10.3-4.7-12.3s2.6 2.7 9.5 2z"/><path class="st43" d="M78.9 122l6.2 5.3-11 5.1zM85.1 127.3l-6.2-5.3-4.8 10.3z"/><path class="st44" d="M78.9 122l9.4-1.7-3.2 7zM88.3 120.3l-3.2 7-6.2-5.3z"/><path class="st45" d="M85.1 127.3l3.2-7 5.3.8-3.1 7.8zM90.5 128.9l3.1-7.8-5.3-.8-3.2 7z"/><path class="st46" d="M61 116l4.4-4.7 4 8.7zM65.4 111.3l4 8.7-8.4-4z"/><path class="st47" d="M88.3 120.3l1.6-9.8 3.7 10.6zM89.9 110.5l-1.6 9.8 5.3.8z"/><path class="st48" d="M89.9 110.5l5.6 5.8-1.9 4.8zM95.5 116.3l-1.9 4.8-3.7-10.6z"/><path class="st49" d="M119.9 123.8l6.7 5.1-6.2 4.9zM119.9 123.8l.5 10 6.2-4.9z"/><path class="st50" d="M112.2 128.3l7.7-4.5.5 10zM112.2 128.3l7.7-4.5.5 10z"/><path class="st51" d="M105.9 124.1l14-.3-7.7 4.5zM105.9 124.1l14-.3-7.7 4.5z"/><path class="st52" d="M106.6 120.8l13.3 3-14 .3zM106.6 120.8l-.7 3.3 14-.3z"/><path class="st53" d="M124.7 123.9l6.2-9.2 1.7 9.4zM130.9 114.7l-6.2 9.2 7.9.2z"/><path class="st54" d="M94.6 139.2s-4.2-.4-4.7-1c0 0 .5-1.6 1.7-1.6h.2c2.5.3 2.8 2 2.8 2.6zM94.6 139.2s-4.1-.4-4.7-1c0 0 .6-1.8 1.9-1.6 1.3.1 2.8.9 2.8 2.6zM99.9 139.2s.6-2.2 2.3-2.3h.1c1.1 0 1.9.6 2.4 1.1.4.4.6.9.5 1.2h-5.3zM105.2 139.2h-5.3s.6-2.2 2.3-2.3c1.7-.1 3.1 1.3 3 2.3z"/><path class="st55" d="M94.6 139.2l2.4-2.7 2.9 2.7-2.2 2.5zM97 136.5l-2.4 2.7 3.1 2.5 2.2-2.5z"/><path class="st56" d="M88.6 132.3l1.9-3.4 5 .9-2.8 7zM95.5 129.8l-2.8 7-4.1-4.5 1.9-3.4z"/><path class="st57" d="M90.5 128.9l3.1-7.8 1.9 8.7zM93.6 121.1l1.9 8.7-5-.9z"/><path class="st58" d="M103.4 129.4l-2.3-8.3 4.8 3 1.9 10.6zM101.1 121.1l2.3 8.3 4.4 5.3-1.9-10.6z"/><path class="st59" d="M95.5 129.8l-1.9-8.7 9.8 8.3-1.9 5.3zM93.6 121.1l9.8 8.3-1.9 5.3-6-4.9z"/><path class="st60" d="M93.6 121.1h7.5l2.3 8.3zM101.1 121.1h-7.5l9.8 8.3z"/><path class="st61" d="M93.6 121.1l1.9-4.8 5.6 4.8zM95.5 116.3l5.6 4.8h-7.5z"/><path class="st62" d="M95.5 116.3l8.2-4.8-2.6 9.6zM103.7 111.5l-8.2 4.8 5.6 4.8z"/><path class="st63" d="M89.9 110.5c.6.2 13.6 1 13.8 1l-8.2 4.8-5.6-5.8zM89.9 110.5c.6.2 13.8 1 13.8 1l-8.2 4.8-5.6-5.8z"/><path class="st64" d="M101.1 121.1l2.6-9.6 2.9 9.3-.7 3.3zM106.6 120.8l-2.9-9.3-2.6 9.6 4.8 3z"/><path class="st65" d="M61 116c.4-5.2 5.2-12.5 5.3-12.6l-.9 7.9L61 116zM66.3 103.4s-4.8 7.3-5.3 12.6l4.4-4.7.9-7.9z"/><path class="st66" d="M66.3 103.4l5.4 2.3-6.3 5.6zM71.7 105.7l-5.4-2.3-.9 7.9z"/><path class="st67" d="M119.9 123.8l5.8-1.4-1 1.5zM119.9 123.8l5.8-1.4-1 1.5z"/><path class="st68" d="M106.6 120.8l1.7-.5 5.1 1.2.7 1zM106.6 120.8l1.7-.5 5.1 1.2.7 1z"/><path class="st69" d="M114.1 122.5l-.7-1 5.1 1.4 1.4.9zM119.9 123.8l-1.4-.9-5.1-1.4.7 1z"/><path class="st70" d="M118.5 122.9c.5.1.9.2 1.3.2.8 0 1.4-.2 1.8-.7.8-.8.8-2.1.8-2.1l2.3 2.4-4.8 1.1-1.4-.9zM122.4 120.3s0 3.6-3.9 2.6l1.4.9 4.8-1.1-2.3-2.4z"/><path class="st71" d="M110.3 120.8v-2.3l2.8-1.3s-1.1 1.6.2 4.3l-3-.7zM113.2 117.2s-1.1 1.6.2 4.3l-3.1-.8v-2.3l2.9-1.2z"/><path class="st72" d="M108.3 120.3l-1.7.5-.3-.8 4-1.5v2.3zM106.3 120l4-1.5v2.3l-2-.5-1.7.5z"/><path class="st73" d="M113.4 121.5s-1.4-2.5-.2-4.3c0 0 1-.5 2.5-.5 1.3 0 2.7.3 3.9 1 0 0 .2 3.2-2.6 4.7l-3.6-.9zM119.6 117.8s.2 3.2-2.6 4.7l-3.6-.9s-1.4-2.5-.2-4.3c0-.1 2.9-1.4 6.4.5z"/><path class="st74" d="M119.8 123.1c-.7 0-1.3-.2-1.3-.2l-1.5-.4c2.9-1.7 2.6-4.7 2.6-4.7 1.8 1.1 2.8 2.5 2.8 2.5-.2 2.3-1.5 2.8-2.6 2.8zM122.4 120.3s-1-1.4-2.8-2.5c0 0 .4 3-2.6 4.7l1.5.4s3.6 1.2 3.9-2.6z"/><path class="st75" d="M103.7 111.5l10.4.4-7.8 8.1zM114.1 111.9l-7.8 8.1-2.6-8.5z"/><path class="st76" d="M114.1 111.9h1c2.9 0 9.8.1 10.5 1.1l-6.1 3.8-5.4-4.9zM125.7 113l-6.1 3.8-5.4-4.8c-.1-.1 10.6-.2 11.5 1z"/><path class="st77" d="M125.7 113l5.2 1.7-5.2 7.7zM130.9 114.7l-5.2-1.7v9.4z"/><path class="st78" d="M103.7 111.5l.8-5.9c.1.1 7.2 6 7.4 6.2l-8.2-.3zM104.5 105.6l-.8 5.9 8.2.3c-.3-.2-7.4-6.2-7.4-6.2z"/><path class="st79" d="M104.5 105.6l8.7.6-1.3 5.6zM113.2 106.2l-1.3 5.6-7.4-6.2z"/><path class="st80" d="M111.9 111.8l1.3-5.6 6.8 5.8zM120 112l-6.8-5.8-1.3 5.6z"/><path class="st81" d="M113.2 106.2l9.6 1.2-2.8 4.6zM122.8 107.4L120 112l-6.8-5.8z"/><path class="st82" d="M125.6 113c-.4-.7-5.6-.9-5.7-.9l2.8-4.6 2.9 5.5s.1 0 0 0zM125.7 113l-2.9-5.6-2.8 4.6s5.4.3 5.7 1z"/><path class="st83" d="M125.7 113l-2.9-5.6 5.9 6.6zM128.6 114l-5.8-6.6 2.9 5.6z"/><path class="st84" d="M128.6 114l-5.8-6.6 6.6-.4 1.5 7.7zM129.4 107l-6.6.4 5.8 6.6 2.3.7z"/><path class="st85" d="M83.7 119.8c.6-.2.9-.5 1.1-1 .2-.8-.3-1.6-.3-1.6l4.1 1.4-.3 1.6-4.6-.4zM84.5 117.3s1.2 1.8-.8 2.5l4.6.5.3-1.6-4.1-1.4z"/><path class="st86" d="M84.5 117.3l-2.1-1.9c1.9.4 4.9 2.8 4.9 2.9l-2.8-1zM82.4 115.3l2.1 1.9 2.8.9c0 .1-2.9-2.3-4.9-2.8z"/><path class="st87" d="M75.5 120.8s.1 0 0 0h.2c1 0 4.5-.3 4.6-.3L79 122l-3.5-1.2zM75.5 120.8l3.4 1.2 1.4-1.5s-4.2.4-4.8.3z"/><path class="st88" d="M76.8 122.1c-1.2 0-2.3-.1-3.3-.3 0-.1 1.9-.9 2.1-1L79 122c-.1 0-1 .1-2.2.1zM73.4 121.8c-.1 0 2.1-1 2.1-1l3.4 1.2s-2.7.4-5.5-.2z"/><path class="st89" d="M71.9 119.3l3.6 1.5-2.1 1zM71.9 119.3l3.6 1.5-2.1 1z"/><path class="st90" d="M73.4 121.8s-2.6-.3-4.1-1.8l2.5-.7 1.6 2.5zM69.4 120l2.5-.7 1.5 2.5s-2.5-.3-4-1.8z"/><path class="st91" d="M78.8 120.7s2-.4 2.9-1.8c.5-.7.6-1.6.4-2.5l2.4.9s.5.8.3 1.6c-.1.4-.5.8-1.1 1l-3.4.7-1.5.1zM78.8 120.7s4.1-.7 3.3-4.3l2.4.9s1.2 1.8-.8 2.5l-3.4.7-1.5.2z"/><path class="st71" d="M71.9 119.3s.7-1.4 3.2-2.7c0 0-.2 3.2 2.8 4.1l-2.4.1-3.6-1.5zM75.1 116.6s-.3 3.2 2.8 4.1l-2.4.1-3.6-1.5s.7-1.4 3.2-2.7z"/><path class="st73" d="M77.9 120.7s-2.8-.7-2.8-4.1c0 0 1.4-.8 3.7-.8 1.1 0 2.2.2 3.3.5 0 0 .4 1.3-.3 2.5-.5.9-1.6 1.5-3 1.8l-.9.1zM82.1 116.4s1 3.4-3.3 4.3l-.9.1s-2.8-.7-2.8-4.1c0-.1 2.8-1.6 7-.3z"/><path class="st91" d="M79.9 118.5h-.6l.5-.9.3.1v.8h-.2zM79.8 117.6l-.5.9h.9v-.8l-.4-.1zM79.3 116.6l1 .3-.7.9zM79.3 116.6l.3 1.2.7-.9zM78.2 117.6c-.1 0-.2-.8-.2-.9l.9.2-.7.7zM78 116.7s.1.9.2.8l.7-.7-.9-.1z"/><path class="st92" d="M84.9 116.5s-1.4-.9-2.5-1.1c0 0-1.5-.5-3.4-.5-.5 0-1 0-1.5.1 0-.1 6.1-4.7 6.7-5.2l.7 6.7zM77.5 114.9c-.1 0 6.7-5.2 6.7-5.2l.6 6.7s-1.4-.9-2.5-1.1c.1 0-2.2-.7-4.8-.4z"/><path class="st93" d="M71.9 109.9c.4.1 1.3.2 2.9.2 3.7 0 9.4-.4 9.4-.4l-6.7 5.2-5.6-5zM71.9 109.9l5.6 5 6.7-5.2c.1 0-10.8.8-12.3.2z"/><path class="st94" d="M69.4 120c-.1-.1 2.4-9.7 2.5-10.1l5.6 5c0 .1-4.6.4-8.1 5.1zM69.4 120c-.2.2 2.5-10.1 2.5-10.1l5.6 5s-4.6.3-8.1 5.1z"/><path class="st95" d="M65.4 111.3l3.5-3.1 3 1.8c0 .1-2.5 9.5-2.5 10.1l-4-8.8zM68.9 108.2l3 1.8s-2.5 9.5-2.5 10.1l-4-8.7 3.5-3.2z"/><path class="st96" d="M68.9 108.2l2.8-2.5 2.9-.6-2.7 4.8zM74.6 105.1l-2.9.6-2.8 2.5 3 1.7z"/><path class="st97" d="M75.3 110.1c-2.6 0-3.4-.2-3.4-.2l2.7-4.8c.2.2 5.1 4.8 5 4.9-1.6.1-3.1.1-4.3.1zM79.6 110c.2 0-5-4.9-5-4.9l-2.7 4.8s1.5.5 7.7.1z"/><path class="st98" d="M82 105.7M82 105.7"/><path class="st99" d="M79.6 110c-.1-.3-5-4.9-5-4.9l7.3-.4-2.3 5.3zM79.6 110l2.3-5.3-7.3.4s4.9 4.6 5 4.9z"/><path class="st100" d="M81.9 104.7l2.4 5-4.7.3zM84.3 109.7l-2.4-5-2.3 5.3z"/><path class="st101" d="M81.9 104.7h3.8l-1.4 5zM85.7 104.7h-3.8l2.4 5z"/><path class="st102" d="M84.3 109.7l1.4-5 4.2 5.8zM89.9 110.5l-4.2-5.8-1.4 5z"/><path class="st103" d="M85.7 104.7l4.8.6-.6 5.2zM90.5 105.3l-.6 5.2-4.2-5.8z"/><path class="st104" d="M103.7 111.5c-5.7-.2-13.7-1-13.8-1l.6-5.2 13.2 6.2zM103.7 111.5l-13.2-6.2-.6 5.2s8 .8 13.8 1z"/><path class="st105" d="M133.6 133.9l-1-9.8-1.7-9.4 5.1 8.5-2.4 10.7zM136 123.2l-2.4 10.7-1-9.8-1.7-9.4z"/><path class="st106" d="M133.9 155.4c-1.4 0-3-1.4-3-1.4l4.4-5 .6 3.4c.1.4 0 .8-.1 1.1-.2 1.2-.9 1.9-1.9 1.9zM131 154s3.9 3.5 4.9-.5c.1-.4.1-.7.1-1.1l-.5-3.4-4.5 5z"/><path class="st107" d="M131 154s.8-2.5 1.6-7.6l2.8 2.6-4.4 5zM132.6 146.4l2.8 2.6-4.4 5s.7-2.5 1.6-7.6z"/><path class="st108" d="M135.2 126.7l.8-3.5c.8.3 1.3 1.8 1.6 3 .3 1.3.4 2.6.4 2.6l-2.8-2.1zM135.2 126.7l2.9 2.1s-.5-5-2.1-5.6l-.8 3.5z"/><path class="st109" d="M136 131.5l-.8-4.8 1.7 1.2.3 6.6zM137.2 134.5l-1.2-3-.8-4.8 1.7 1.2z"/><path class="st110" d="M136 138.8v-7.3l1.2 3-1.2 4.3zM136 138.8l1.2-4.3-1.2-3z"/><path class="st111" d="M133.6 133.9l1.6-7.2.8 4.8v7.3zM133.6 133.9l2.4 4.9v-7.3l-.8-4.8z"/><path class="st112" d="M137.2 134.5l-.4-6.6 1.2.9c.7 2 .3 9.9.3 10l-1.1-4.3zM137.2 134.5l1.1 4.3s.5-8-.3-10l-1.2-.9.4 6.6z"/><path class="st113" d="M136 138.8l1.2-4.3-.3 6.4-.9 1.1zM136 142v-3.2l1.2-4.3-.3 6.4z"/><path class="st114" d="M137.2 143.5l-.3-2.6.3-6.4 1.2 4.3-1.2 4.7zM137.2 143.5l-.3-2.6.3-6.4 1.2 4.3z"/><path class="st115" d="M132.6 146.4l4.6-2.9-1.8 5.5zM132.6 146.4l4.6-2.9-1.8 5.5z"/><path class="st116" d="M132.6 146.4l3.4-4.4.9-1.1.3 2.6-4.6 2.9zM136 142l-3.4 4.4 4.6-2.9-.3-2.6zM132.6 146.4l1-6.2 2.4-1.4v3.2l-3.4 4.4zM136 138.8l-2.4 1.4-1 6.2 3.4-4.4z"/><path class="st117" d="M134 137.6l-.4-3.7 2.4 4.9-2.4 1.4zM133.6 133.9l.4 3.8-.4 2.6c.5-.3 2.5-1.4 2.5-1.4l-2.5-5z"/><path class="st118" d="M56.1 151c-.7 0-1.2-.2-1.5-.6-.6-.8-.6-2.3.1-4.4l4.1 4.3c-.1 0-1.5.7-2.7.7zM58.7 150.3s-6.3 3.4-4.1-4.3l4.1 4.3z"/><path class="st119" d="M54.7 146l2.9-6.4c.2 5.6 1.2 10.7 1.2 10.7l-4.1-4.3zM57.5 139.5l-2.9 6.4 4.1 4.3c0 .1-.9-5-1.2-10.7z"/><path class="st120" d="M54.9 145.4c-.8-1.6-1.4-11.5-1.4-11.6l4 5.7-2.6 5.9zM53.5 133.8s.6 10 1.4 11.6l2.6-5.9-4-5.7z"/><path class="st121" d="M55.8 121.8l1.3 1.4-1.7 9.5-.2.2zM57 123.2l-1.6 9.5-.2.1.7-11z"/><path class="st122" d="M57.4 136.6l.6-12.8 1.6 1.1-1.2 11.7zM57.4 136.6l.6-12.8 1.6 1.1-1.2 11.7z"/><path class="st123" d="M53.5 133.8l4.1-2.3-.2 5.1.1 3zM53.5 133.8l4.1-2.3-.2 5.1.1 2.9z"/><path class="st124" d="M53.5 133.8c0-1.3 1.3-8.8 1.3-8.9l.8 1.7-.5 6.2-1.6 1zM54.9 124.9s-1.4 7.6-1.3 8.9l1.7-.9.5-6.2-.9-1.8z"/><path class="st125" d="M123.3 87.2l-.6-7.2c.1.1 5.9 7.5 5.9 11.4l-5.3-4.2zM122.8 80s5.8 7.4 5.9 11.4l-5.3-4.3-.6-7.1z"/><path class="st126" d="M125.7 92.1l3.7 8.1v6.8zM129.4 107v-6.8l-3.7-8.1z"/><path class="st127" d="M113.2 106.2l12.5-14.1 3.7 14.9-6.6.4zM113.2 106.2l12.5-14.1 3.7 14.9-6.6.4z"/><path class="st128" d="M104.5 105.6l7.6-29.5 7.2 23.2-6.1 6.9zM104.5 105.6l7.6-29.5 7.2 23.2-6.1 6.9z"/><path class="st104" d="M90.5 105.3l4.2-5.1 9.8 5.4-9 2.1zM90.5 105.3l4.2-5.1 9.8 5.4-9 2.1z"/><path class="st129" d="M96.1 74.7c1.1-.2 2.2-.2 3.5-.2 5.9 0 12.4 1.6 12.5 1.6l-7.7 29.6-8.3-31zM96.1 74.7l8.3 31 7.7-29.6s-9.3-2.3-16-1.4z"/><path class="st130" d="M80.1 77.7c3.5-2.6 15.9-3 16-3l-1.4 25.6-14.6-22.6zM80.1 77.7l14.6 22.5 1.4-25.6c0 .1-12.4.5-16 3.1z"/><path class="st131" d="M73.4 83.9c2.2-4.3 6.7-6.1 6.7-6.2l1.5 22.5-8.2-16.3zM73.4 83.9l8.2 16.4-1.5-22.5c0-.1-4.4 1.7-6.7 6.1z"/><path class="st132" d="M79.3 99.1s-.1 0 0 0c-5-2.3-6.9-6-7.6-8.7-.7-3-.3-5.4-.3-5.4l2-1.1c-2.4 10.9 4.9 14.7 5.9 15.2zM79.3 99.1s-8.4-3.5-5.9-15.2l-2 1.1s-1.8 9.7 7.9 14.1z"/><path class="st133" d="M72.7 93.1s1.6 3.9 6.6 6l-7.6 6.6 1-12.6zM71.7 105.7l1-12.6s1.6 3.8 6.6 6l-7.6 6.6z"/><path class="st134" d="M68.9 104.5l3-1.3-.2 2.5zM68.9 104.5l3-1.3-.2 2.5z"/><path class="st135" d="M65.4 98l6.5 5.2-3 1.3zM65.4 98l3.5 6.5 3-1.3z"/><path class="st136" d="M65.4 98l2.2-9.4c0 .1.3 10.9 1.3 12.1L65.4 98zM67.6 88.6s.3 10.9 1.2 12.1L65.4 98l2.2-9.4z"/><path class="st137" d="M68.8 100.7c-1-1.6-1.3-12-1.3-12.1l5.2 4.5-.8 10.1-3.1-2.5zM72.7 93.1l-5.1-4.5s.2 10.5 1.3 12.1l3.1 2.5.7-10.1z"/><path class="st138" d="M66.3 103.4l-.9-5.4 3.5 6.5zM66.3 103.4l-.9-5.4 3.5 6.5z"/><path class="st139" d="M67.6 88.6l3.8-3.6c-.7 4.6 1.3 8 1.3 8.1l-5.1-4.5zM71.4 85l-3.8 3.6 5.1 4.5s-2-3.5-1.3-8.1z"/><path class="st140" d="M58 123.8l-.9-.6-1.2-1.3-.4-.5c0-.1-2.3-7.5-1.9-11.3 0-.4 12.2-6.3 12.8-6.6 0 .1-4.5 6.5-5.3 12.6l-1.4 8.9-1.7-1.2zM53.5 110c0-.4 12.8-6.6 12.8-6.6s-4.5 6.4-5.3 12.6l-1.4 8.9-1.6-1.2-.9-.6-1.2-1.3-.4-.5c-.1 0-2.4-7.5-2-11.3z"/><path class="st141" d="M65.4 98l.9 5.4-2 1zM65.4 98l-1.1 6.4 2-1z"/><path d="M53.5 110c-.3-7.6.7-13.6 1.6-17.3 1-4 2-6.2 2-6.2l7.1 18c-3.2 1.4-10.6 5.5-10.7 5.5zM57.2 86.4S53 95.2 53.6 110c0 0 7.4-4.1 10.7-5.6l-7.1-18z"/><path class="st142" d="M57.2 86.4c0-.6 4.1-8.6 4.1-8.7l3 26.7-7.1-18zM61.3 77.7s-4.2 8.1-4.1 8.7l7.1 18-3-26.7z"/><path class="st143" d="M64.3 104.4l-3-26.7 6.3 10.9-2.2 9.4-1.1 6.4zM67.6 88.6l-6.3-10.9 3 26.7 1.1-6.4z"/><path class="st144" d="M61.3 77.7c.1-1.5 7.9-9.6 8-9.7l-1.8 20.6-6.2-10.9zM69.3 68s-7.9 8.2-8 9.7l6.2 10.9L69.3 68z"/><path class="st145" d="M69.3 68l4.1 15.9-2 1.1-3.8 3.6zM73.4 83.9L69.3 68l-1.7 20.6 3.8-3.6z"/><path class="st146" d="M130.9 114.7l7.2-17.2.1.1c.3.5.3 3.7.2 6.5-.1 2.8-.3 6.3-.7 7.5-.8 2.3-1.7 11.5-1.7 11.6l-5.1-8.5zM138.1 97.5l-7.2 17.2 5.2 8.5s.9-9.3 1.7-11.6c.7-2.4.9-14 .3-14.1z"/><path class="st147" d="M129.4 107l2-17-.5 24.7zM131.4 90l-2 17 1.5 7.7z"/><path class="st148" d="M130.9 114.7l.6-24.7c.1.1 5.1 5.7 6.7 7.5l-7.3 17.2zM138.1 97.5c-1.6-1.8-6.7-7.5-6.7-7.5l-.6 24.7 7.3-17.2z"/><path class="st149" d="M131.4 90l-3.2-11.2c6.2 2.2 9.8 18.5 9.8 18.7l-6.6-7.5zM128.3 78.8l3.2 11.2 6.7 7.5c-.1 0-3.6-16.4-9.9-18.7z"/><path d="M129.4 107v-6.8l-.8-8.8s0-1.1-.6-2.6l.2-10 3.2 11.2-2 17zM128.1 88.8l.2-10 3.2 11.2-2 17v-6.8l-.8-8.8c-.1 0-.1-1-.6-2.6z"/><path class="st150" d="M128.1 88.8s-1.6-4.2-5.3-8.8c0 0-2.2-1.6-3.9-2.3l9.4 1.1-.2 10zM118.9 77.7l9.4 1.1-.2 10s-1.6-4.1-5.3-8.8c0 0-2.2-1.6-3.9-2.3z"/><path class="st151" d="M112.1 76.1c-.1 0-6.3-1.6-12.5-1.6-1.3 0-2.5.1-3.5.2l3.7-4.1 12.3 5.5zM96.1 74.7l3.7-4.1 12.3 5.5s-8.8-2.3-16-1.4z"/><path class="st152" d="M118.9 77.7c-2.9-1.5-6.7-1.6-6.8-1.6l8.3-11.4c7.2 5.4 7.8 14.1 7.8 14.2l-9.3-1.2zM120.5 64.7l-8.3 11.4s3.8.1 6.8 1.6l9.4 1.1c-.1 0-.6-8.7-7.9-14.1z"/><path class="st153" d="M111.9 58.9c1.6.1 8.5 5.7 8.6 5.8l-8.3 11.4-.3-17.2zM111.9 58.9l.3 17.2 8.3-11.4s-7-5.7-8.6-5.8z"/><path class="st148" d="M99.8 70.6L112 65l.1 11.1zM99.8 70.6L112 65l.1 11.1z"/><path class="st154" d="M101.7 56.1L112 65l-12.2 5.6zM101.7 56.1l-1.9 14.5L112 65z"/><path class="st155" d="M101.7 56.1c4.2.1 10.1 2.7 10.2 2.8l.1 6.2-10.3-9zM111.9 58.9s-5.9-2.7-10.2-2.8L112 65l-.1-6.1z"/><path class="st156" d="M91.7 55.5h1.2c3.3 0 8.7.6 8.8.6l-1.9 14.5-8.1-15.1zM91.7 55.5l8.1 15 1.9-14.5c0 .1-7-.7-10-.5z"/><path d="M69.3 68l10.8 9.7c-4.7 2.1-6.7 6.1-6.7 6.2L69.3 68zM80.1 77.7L69.3 68l4.1 15.9s2-4.1 6.7-6.2z"/><path class="st157" d="M81.3 71.2l7.3-.7 7.6 4.1c-13.3.5-16 3-16 3l1.1-6.4zM81.3 71.2l-1.1 6.4s2.5-2.5 16-3l-7.6-4.1-7.3.7z"/><path class="st158" d="M69.3 68c.1-.1 7.1-7.6 9.1-7.6l2.8 10.9-1.1 6.5L69.3 68zM78.5 60.4l2.8 10.8-1.1 6.4L69.3 68s7.1-7.6 9.2-7.6z"/><path class="st159" d="M78.4 60.4c.1 0 7.9-3.8 10.1-3.9l-7.2 14.8-2.9-10.9zM88.5 56.5l-7.2 14.7-2.8-10.8s7.8-3.8 10-3.9z"/><path class="st160" d="M88.5 56.5l.1 14.1-7.3.7zM88.5 70.6V56.5l-7.2 14.7z"/><path d="M88.5 56.5l3.2-1 4.9 9.2-8.1 5.9zM91.7 55.5l-3.2 1v14.1l8.1-5.9z"/><path class="st161" d="M88.5 70.6l8.1-5.9-.5 10zM96.1 74.7l-7.6-4.1 8.1-5.9z"/><path class="st162" d="M96.6 64.7l3.2 5.9-3.7 4.1zM99.8 70.6l-3.7 4.1.5-10z"/><path class="st163" d="M86.1 158.4c-1.3-1.1-4.1-4.4-4.1-4.4l4.1-.2v4.6zM86.1 153.8l-4.1.2s2.8 3.3 4.1 4.4v-4.6z"/><path class="st164" d="M89.9 160.9c-1.5-.3-3.7-2.5-3.8-2.6l3.5-.9 2.8 3.6-2.5-.1zM92.4 161.1l-2.8-3.6-3.5.9s2.3 2.2 3.8 2.6l2.5.1z"/><path class="st165" d="M86.1 153.8l3.5 3.7s-3 .8-3.5.9v-4.6zM86.1 153.8l3.5 3.7s-3 .8-3.5.9v-4.6z"/><path class="st166" d="M86.1 153.8s1.4-.2 2.8-.2c1.2 0 2.1.1 2.6.3l-2 3.5-3.4-3.6zM91.6 154l-2 3.5-3.5-3.7s3.9-.4 5.5.2z"/><path class="st167" d="M90.7 158.9l4.8.1-3.1 2.1zM95.5 159l-3.1 2.1-1.7-2.2z"/><path class="st168" d="M90.7 158.9l-1.1-1.4 2-3.5 3.9 5zM91.6 154l3.9 5-4.8-.1-1.1-1.4z"/><path class="st169" d="M91.6 154c.1 0 3.1.4 4.3.7l-.4 4.3-3.9-5zM95.9 154.7l-.4 4.3-3.9-5s3.1.3 4.3.7z"/><path class="st170" d="M92.4 161.1l3.1-2.1 4.7 2.6zM100.2 161.6l-4.7-2.6-3.1 2.1z"/><path class="st171" d="M100.2 161.6c-.3-.2-4.7-2.6-4.7-2.6l5.1-.1c0 .1-.2 2.7-.4 2.7zM100.6 158.9s-.2 2.8-.5 2.7c-.3-.2-4.6-2.6-4.6-2.6l5.1-.1z"/><path class="st172" d="M95.9 154.7l4.7 4.2-5.1.1zM95.9 154.7l4.7 4.2-5.1.1z"/><path class="st173" d="M95.9 154.7l6.3-.2-1.6 4.4zM102.2 154.5l-1.6 4.4-4.7-4.2z"/><path class="st174" d="M102.2 154.5l2.5-.6 3.4 1.4c-4.5 2.4-7.4 3.5-7.4 3.5l1.5-4.3zM104.7 154l-2.5.6-1.5 4.4s2.8-1.1 7.4-3.5l-3.4-1.5z"/><path class="st175" d="M100.1 161.6c.3-.3.5-2.7.5-2.7l2.8-1.2 3 1.2c-4 2.6-6.2 2.7-6.3 2.7zM106.5 158.8l-3-1.2-2.8 1.2s-.1 2.4-.5 2.7c0 .1 2.2 0 6.3-2.7z"/><path class="st176" d="M103.5 157.6l4.6-2.3 2.2.2c-1.1 1.3-3.8 3.2-3.8 3.2l-3-1.1zM110.3 155.6l-2.2-.2-4.6 2.3 3 1.2c0-.1 2.6-2 3.8-3.3z"/><path class="st177" d="M108.1 155.4l-3.4-1.4 1.8-2.4 3.8 4zM106.5 151.6l-1.8 2.4 3.4 1.4 2.2.2z"/><path class="st178" d="M82.1 154l6-1.6.8 1.2-2.8.2-4 .2zM88.1 152.4l-6 1.6 4-.2 2.8-.2zM82.1 154c.4-.3 5.1-4.6 5.1-4.6l.9 3.1-6 1.5zM87.2 149.3l.9 3.1-6 1.5c.3-.3 5.1-4.6 5.1-4.6z"/><path class="st179" d="M87.2 149.3l3.5 1.3c-.5 0-2.6 1.7-2.6 1.8l-.9-3.1zM90.7 150.7l-3.5-1.4.9 3.1s2.2-1.8 2.6-1.7z"/><path class="st180" d="M87.2 149.3s2.1-1.8 4.9-1.8c.3 0 .7 0 1 .1l-2.4 3.1-3.5-1.4zM93.1 147.6l-2.4 3.1-3.5-1.4s2.5-2.2 5.9-1.7z"/><path class="st181" d="M93.6 151.6c-.6 0-2.9-.9-2.9-.9l2.4-3.1 2.6 3.8c-.1 0-1.6.1-2.1.2zM95.7 151.4l-2.6-3.8-2.4 3.1s2.4 1 2.9.9c.6-.1 2.1-.2 2.1-.2z"/><path class="st182" d="M93.1 147.6c.1 0 2.3.2 3.9 1.5l-1.4 2.3-2.5-3.8zM97 149.1l-1.4 2.3-2.6-3.8c.1 0 2.4.2 4 1.5z"/><path class="st183" d="M95.7 151.4l1.3-2.3 3.2 2.7zM100.2 151.8l-3.2-2.7-1.3 2.3z"/><path class="st184" d="M97 149.1s1.4-1.1 3.4-1.1c.7 0 1.4.1 2.1.4l-2.4 3.4-3.1-2.7zM102.6 148.4l-2.4 3.4-3.1-2.7c-.1 0 2.3-1.9 5.5-.7z"/><path class="st185" d="M103.9 152.7s-2.4-.8-3.7-.9l2.4-3.4 1.3 4.3zM103.9 152.7s-2.4-.8-3.7-.9l2.4-3.4 1.3 4.3z"/><path class="st186" d="M103.9 152.7l-1.3-4.3s1.4.5 2.7 1.8l1.3 1.3-1.8 2.4-.9-1.2zM104.7 154l-.8-1.3-1.3-4.3s1.4.5 2.7 1.8l1.3 1.3-1.9 2.5z"/><path class="st187" d="M95.9 154.7s-2.7-.6-4.3-.7c0 0-.9-.3-2.2-.3h-.5l-.8-1.2s1.9-1.6 2.6-1.8c0 0 2 .9 2.8.9h.1c.8-.1 2-.2 2-.2l4.5.4s2.1.3 3.7.9l.8 1.3-2.5.6-6.2.1zM91.6 154s-1.1-.4-2.7-.3l-.8-1.2s1.9-1.6 2.6-1.8c0 0 2.2 1 2.9.9.8-.1 2-.2 2-.2l4.5.4s2.1.3 3.7.9l.8 1.3-2.5.6-6.3.2c.1-.1-2.6-.7-4.2-.8z"/><path class="st74" d="M115.2 119v-.3l2-.2-.2 1.8zM117.2 118.5l-2 .2v.3l1.8 1.3z"/><path class="st188" d="M106.3 120l7.8-8.1 5.4 4.8c-.6-.4-2-.7-2.1-.7h-.7c-4.1 0-10.3 4-10.4 4zM114.1 111.9l-7.8 8.1s7-4.5 11.2-4c0 0 1.5.3 2.1.7l-5.5-4.8z"/><path class="st189" d="M97.7 141.7l2.2-2.6h5.3l2.4.4c-1.2 1.9-4.5 2.2-4.6 2.2h-5.3zM99.9 139.2l-2.2 2.5h5.3s3.3-.3 4.6-2.2l-2.4-.4h-5.3z"/><path class="st190" d="M93 141.7c-4.7 0-5.9-2.9-5.9-2.9l2.8-.7c.7.7 4.7 1 4.7 1l3.1 2.6H93zM97.7 141.7l-3.1-2.5s-4-.3-4.7-1l-2.8.7s1.2 2.9 5.9 2.9h4.7z"/><path class="st191" d="M80.3 120.5l3.4-.7 4.6.5-9.4 1.7zM78.9 122l1.4-1.5 3.4-.7 4.6.5z"/><path class="st192" d="M57 123.2l1 .6-.4 7.7-2.2 1.2zM58 123.8l-1-.6-1.6 9.5 2.2-1.2z"/><path class="st193" d="M79.6 99.1s-2.2-.8-4-3.1c-1.7-2.1-3.5-5.8-2.4-11.9l8.9 16.1-2.5-1.1zM82 100.1L79.6 99s-8.5-3.2-6.4-15l8.8 16.1z"/><path class="st125" d="M123.3 87.2l5.4 4.2.7 8.8zM129.4 100.2l-.8-8.8-5.3-4.2z"/><path class="st194" d="M108.5 116.2l4.5.6-5.2 2.4zM108.5 116.2l-.7 3 5.2-2.4z"/><path class="st195" d="M113 116.8l1.8-2.3 3 2c-.1 0-.9-.1-1.9-.1-1.5 0-2.4.1-2.9.4zM117.7 116.5s-3.4-.4-4.7.4l1.8-2.3 2.9 1.9z"/><path class="st196" d="M114.7 114.5c.1 0 5.3.4 6 1.1l-3.1.8-2.9-1.9zM120.8 115.6l-3.1.8-2.9-2c-.1.1 5.2.5 6 1.2z"/><path class="st197" d="M123.8 120.1s-3.7-3.5-6.1-3.6l3.1-.8 3 4.4zM123.8 120.1s-3.7-3.5-6.1-3.6l3.1-.8 3 4.4z"/><path class="st198" d="M120.8 115.6s3.3 1.4 4.5 3.3l-1.5 1.2-3-4.5zM125.3 118.9l-1.5 1.2-3-4.4c0-.1 3.2 1.3 4.5 3.2z"/><path class="st199" d="M123.8 120.1l1.5-1.2.4 3.8zM125.7 122.7l-1.9-2.6 1.5-1.2z"/><path class="st198" d="M70.4 115.9h3.7l-4 3.3zM70.4 115.9l-.3 3.3 4-3.3z"/><path class="st197" d="M70.4 115.9s2.2-2.3 4.4-2.4l-.7 2.4h-3.7zM74.9 113.6l-.7 2.3h-3.7c-.1 0 2.1-2.2 4.4-2.3z"/><path class="st196" d="M74.8 113.6l3.4 1.3c-.8 0-4 1.1-4.1 1.1l.7-2.4zM78.3 114.9l-3.4-1.3-.7 2.3c-.1 0 3.3-1.1 4.1-1z"/><path class="st200" d="M74.8 113.6s1.8-.6 3.6-.6c.7 0 1.4.1 2 .3l-2.2 1.6-3.4-1.3zM80.5 113.3l-2.2 1.6-3.4-1.3s3.1-1.1 5.6-.3z"/><path class="st201" d="M82.9 115.7s-2.3-.8-4.2-.8h-.5l2.2-1.6s2.3.3 3.7 1l-1.2 1.4zM82.9 115.7s-2.7-.9-4.7-.8l2.2-1.6s2.3.3 3.7 1l-1.2 1.4z"/><path class="st202" d="M82.9 115.7l1.3-1.4s3 1.7 3 3.9l-4.3-2.5zM87.2 118.1l-4.3-2.4 1.3-1.4c0-.1 3 1.6 3 3.8z"/><path class="st203" d="M76.6 173.1c-.1-.1-8.1-6-11-9.5l6.7-3.9 4.3 13.4zM65.6 163.7l6.7-3.9 4.3 13.4c0-.1-8-6.1-11-9.5z"/><path class="st204" d="M69.4 120c3.2-4.3 7-5.2 9.7-5.2 2 0 3.4.5 3.4.5l2.1 1.9c-2-.9-3.9-1.4-5.7-1.4-4.7 0-6.9 3.5-6.9 3.5l-2.6.7zM82.4 115.3s-7.5-2.8-13 4.7l2.5-.7s3.8-6.2 12.6-2.1l-2.1-1.9z"/><path class="st205" d="M122.4 120.3c-2.3-2.9-4.9-3.5-6.6-3.5-1.5 0-2.6.4-2.6.4l-2.8 1.3-4 1.6c2-1.2 7-4.1 10.5-4.1h.6c4.5.8 8.1 6.3 8.2 6.4l-1 .2-2.3-2.3zM125.7 122.4s-3.7-5.6-8.2-6.4c0 0-3.4-.8-11.2 4l4-1.6 2.8-1.3s5.2-2.1 9.2 3.1l2.3 2.4 1.1-.2z"/><path class="st206" d="M94.7 100.2c0-.4 1.4-25.3 1.4-25.6l8.3 31-9.7-5.4zM94.7 100.2c0-.4 1.4-25.6 1.4-25.6l8.3 31-9.7-5.4z"/><path class="st207" d="M85.7 104.7h-3.8l-1.8-27 14.7 22.5-4.3 5.2zM81.9 104.7l-1.8-27 14.6 22.5-4.2 5.1-4.8-.6z"/><path class="st208" d="M79.3 99.1l2.3 1.1.3 4.5-7.3.4-2.9.6zM81.9 104.7l-7.3.4-2.9.6 7.6-6.6 2.3 1.1z"/><path class="st209" d="M119.9 123.8l12.7.3-6 4.8zM132.6 124.1l-12.7-.3 6.7 5.1z"/><path class="st210" d="M120.4 133.8l13.6 3.8-21.9 9.6zM112.2 147.2l8.2-13.4 13.6 3.8z"/><path class="st211" d="M103 141.7l9.2 5.5-7 3.1zM105.2 150.3l-2.2-8.6 9.2 5.5z"/><path class="st212" d="M97 136.5l-2.4 2.6s0-.4-.2-.9-.7-1.1-1.7-1.5l2.8-7 6 4.8-1.6 4.5-2.9-2.5zM95.5 129.8l6 4.8-1.6 4.5-2.9-2.6-2.4 2.6s.2-1.6-1.9-2.4l2.8-6.9z"/><path class="st213" d="M87.3 118.2c-.3-.3-2.4-1.7-2.5-1.7l-.6-6.7 5.7.8-1.3 8.2-1.3-.6zM84.3 109.7l.6 6.7s2.2 1.4 2.5 1.7l1.3.4 1.3-8.1-5.7-.7z"/><path class="st214" d="M108.5 116.2c.1-.2 3.3-1.7 5.7-1.7h.6l-1.8 2.4-4.5-.7zM108.5 116.2c.2-.2 4-2 6.3-1.7l-1.8 2.3-4.5-.6z"/><path class="st215" d="M125.7 122.4c-3.2-4.6-6.1-5.7-6.1-5.7l6.1-3.8v9.5zM125.7 122.4V113l-6.1 3.8c-.1-.1 2.8 1 6.1 5.6z"/><path class="st216" d="M54.8 125.2c-.1-.6.6-3.8.6-3.9l.4.5-.3 4.8-.7-1.4zM55.4 121.3s-.7 3.2-.6 3.9l.8 1.4.3-4.8-.5-.5z"/><path class="st217" d="M112.1 76.1c5.9.1 10.6 3.9 10.6 3.9l.6 7.2 2.3 5-6.4 7.2-7.1-23.3zM112.1 76.1l7.1 23.3 6.4-7.2-2.3-5-.6-7.2c.1 0-4.6-3.8-10.6-3.9z"/><path class="st218" d="M105.2 139.2c0-1.4-1.5-2-1.5-2-.5-.2-.9-.4-1.3-.4-1.3 0-2 1.1-2.3 1.8l3.3-9.3 4.5 5.3c1.1 3.7-.2 4.9-.2 4.9l-2.5-.3zm-5.3 0s.1-.2.2-.5l-.2.5zM103.4 129.4l-3.5 9.8s.9-3.4 3.8-2c0 0 1.5.5 1.5 2l2.4.4s1.4-1.1.2-4.9l-4.4-5.3z"/><path class="st56" d="M87.1 138.8s-.7-1.2-.5-2.8l2-3.7 4.1 4.4s-.5-.3-1-.3-1.3.3-1.8 1.7l-2.8.7zM88.6 132.3l4.1 4.4s-1.9-1.3-2.8 1.3l-2.8.7s-.7-1.2-.5-2.8l2-3.6z"/><path class="st219" d="M95.5 107.7l9-2.1-.8 6zM104.5 105.6l-9 2.1 8.2 3.8z"/></svg>