<svg xmlns="http://www.w3.org/2000/svg" xmlns:xlink="http://www.w3.org/1999/xlink" width="192" height="234" viewBox="0 0 192 234"><style type="text/css">.st0{fill:#F2F2F2;} .st1{fill:#D54339;} .st2{clip-path:url(#SVGID_2_);} .st3{clip-path:url(#SVGID_4_);} .st4{clip-path:url(#SVGID_6_);fill:#051717;} .st5{clip-path:url(#SVGID_6_);fill:#CD927A;} .st6{clip-path:url(#SVGID_6_);fill:#452218;} .st7{clip-path:url(#SVGID_6_);fill:#6A4034;} .st8{clip-path:url(#SVGID_6_);fill:#B47F5E;} .st9{clip-path:url(#SVGID_6_);fill:#6D5145;} .st10{clip-path:url(#SVGID_6_);fill:#D7B8B0;} .st11{clip-path:url(#SVGID_6_);fill:#CF8486;} .st12{clip-path:url(#SVGID_6_);fill:#BE7A5F;} .st13{clip-path:url(#SVGID_8_);fill:#D28575;} .st14{clip-path:url(#SVGID_8_);fill:#D79081;} .st15{clip-path:url(#SVGID_8_);fill:#CD947C;} .st16{clip-path:url(#SVGID_8_);fill:#D99478;} .st17{clip-path:url(#SVGID_8_);fill:#DE9680;} .st18{clip-path:url(#SVGID_8_);fill:#D19379;} .st19{clip-path:url(#SVGID_8_);fill:#DA9480;} .st20{clip-path:url(#SVGID_8_);fill:#452218;} .st21{clip-path:url(#SVGID_8_);fill:#734439;} .st22{clip-path:url(#SVGID_8_);fill:#D09177;} .st23{clip-path:url(#SVGID_8_);fill:#CC8E71;} .st24{clip-path:url(#SVGID_8_);fill:#DE9279;} .st25{clip-path:url(#SVGID_8_);fill:#A87861;} .st26{clip-path:url(#SVGID_8_);fill:#E7A18D;} .st27{clip-path:url(#SVGID_8_);fill:#D79895;} .st28{clip-path:url(#SVGID_8_);fill:#C57F66;} .st29{clip-path:url(#SVGID_8_);fill:#C88266;} .st30{clip-path:url(#SVGID_8_);fill:#BD7C5A;} .st31{clip-path:url(#SVGID_8_);fill:#C07963;} .st32{clip-path:url(#SVGID_8_);fill:#BE7A5F;} .st33{clip-path:url(#SVGID_8_);fill:#7F563E;} .st34{clip-path:url(#SVGID_8_);fill:#BB8977;} .st35{clip-path:url(#SVGID_8_);fill:#CF8486;} .st36{clip-path:url(#SVGID_8_);fill:#794A39;} .st37{clip-path:url(#SVGID_8_);fill:#896354;} .st38{clip-path:url(#SVGID_8_);fill:#C47E7D;} .st39{clip-path:url(#SVGID_8_);fill:#9F5857;} .st40{clip-path:url(#SVGID_8_);fill:#935352;} .st41{clip-path:url(#SVGID_8_);fill:#A2705F;} .st42{clip-path:url(#SVGID_8_);fill:#CD8B80;} .st43{clip-path:url(#SVGID_8_);fill:#DF9B86;} .st44{clip-path:url(#SVGID_8_);fill:#36130E;} .st45{clip-path:url(#SVGID_8_);fill:#BC7362;} .st46{clip-path:url(#SVGID_8_);fill:#B4775B;} .st47{clip-path:url(#SVGID_8_);fill:#8C5E54;} .st48{clip-path:url(#SVGID_8_);fill:#C98B7D;} .st49{clip-path:url(#SVGID_8_);fill:#A37863;} .st50{clip-path:url(#SVGID_8_);fill:#B2785B;} .st51{clip-path:url(#SVGID_8_);fill:#CB8D6E;} .st52{clip-path:url(#SVGID_8_);fill:#BC816C;} .st53{clip-path:url(#SVGID_8_);fill:#CD927A;} .st54{clip-path:url(#SVGID_8_);fill:#CD8E73;} .st55{clip-path:url(#SVGID_8_);fill:#1D1B0F;} .st56{clip-path:url(#SVGID_8_);fill:#B0764D;} .st57{clip-path:url(#SVGID_8_);fill:#B47F5E;} .st58{clip-path:url(#SVGID_8_);fill:#1B190E;} .st59{clip-path:url(#SVGID_8_);fill:#0D170F;} .st60{clip-path:url(#SVGID_8_);fill:#191612;} .st61{clip-path:url(#SVGID_8_);fill:#2B221D;} .st62{clip-path:url(#SVGID_8_);fill:#A46459;} .st63{clip-path:url(#SVGID_8_);fill:#A46450;} .st64{clip-path:url(#SVGID_8_);fill:#794F43;} .st65{clip-path:url(#SVGID_8_);fill:#6A4034;} .st66{clip-path:url(#SVGID_8_);fill:#88674E;} .st67{clip-path:url(#SVGID_8_);fill:#785C4C;} .st68{clip-path:url(#SVGID_8_);fill:#484235;} .st69{clip-path:url(#SVGID_8_);fill:#3C3C2B;} .st70{clip-path:url(#SVGID_8_);fill:#2D3129;} .st71{clip-path:url(#SVGID_8_);fill:#2D2D22;} .st72{clip-path:url(#SVGID_8_);fill:#23221C;} .st73{clip-path:url(#SVGID_8_);fill:#BB897A;} .st74{clip-path:url(#SVGID_8_);fill:#C48A72;} .st75{clip-path:url(#SVGID_8_);fill:#DE9780;} .st76{clip-path:url(#SVGID_8_);fill:#B0816F;} .st77{clip-path:url(#SVGID_8_);fill:#8F654F;} .st78{clip-path:url(#SVGID_8_);fill:#E39980;} .st79{clip-path:url(#SVGID_8_);fill:#CA886D;} .st80{clip-path:url(#SVGID_8_);fill:#985643;} .st81{clip-path:url(#SVGID_8_);fill:#D98C70;} .st82{clip-path:url(#SVGID_8_);fill:#DF967C;} .st83{clip-path:url(#SVGID_8_);fill:#C28669;} .st84{clip-path:url(#SVGID_8_);fill:#2E100E;} .st85{clip-path:url(#SVGID_8_);fill:#081516;} .st86{clip-path:url(#SVGID_8_);fill:#051717;} .st87{clip-path:url(#SVGID_8_);fill:#121819;} .st88{clip-path:url(#SVGID_8_);fill:#060908;} .st89{clip-path:url(#SVGID_8_);fill:#060B0C;} .st90{clip-path:url(#SVGID_8_);fill:#05181B;} .st91{clip-path:url(#SVGID_8_);fill:#081515;} .st92{clip-path:url(#SVGID_8_);fill:#1A1A1D;} .st93{clip-path:url(#SVGID_8_);fill:#060B0D;} .st94{clip-path:url(#SVGID_8_);fill:#06090A;} .st95{clip-path:url(#SVGID_8_);fill:#040506;} .st96{clip-path:url(#SVGID_8_);fill:#D1B4AA;} .st97{clip-path:url(#SVGID_8_);fill:#242016;} .st98{clip-path:url(#SVGID_8_);fill:#C7BFBB;} .st99{clip-path:url(#SVGID_8_);fill:#6D5145;} .st100{clip-path:url(#SVGID_8_);fill:#291A0D;} .st101{clip-path:url(#SVGID_8_);fill:#906B50;} .st102{clip-path:url(#SVGID_8_);fill:#282714;} .st103{clip-path:url(#SVGID_8_);fill:#D9A29E;} .st104{clip-path:url(#SVGID_8_);fill:#241B12;} .st105{opacity:0.8;clip-path:url(#SVGID_8_);} .st106{clip-path:url(#SVGID_10_);} .st107{clip-path:url(#SVGID_12_);fill:#EDD6E1;} .st108{clip-path:url(#SVGID_8_);fill:#D7B8B0;} .st109{clip-path:url(#SVGID_8_);fill:#785546;} .st110{clip-path:url(#SVGID_8_);fill:#9D6F4E;} .st111{clip-path:url(#SVGID_8_);fill:#F1A29F;} .st112{clip-path:url(#SVGID_8_);fill:#EF9D88;} .st113{clip-path:url(#SVGID_8_);fill:#F19983;} .st114{clip-path:url(#SVGID_8_);fill:#F09E8A;} .st115{clip-path:url(#SVGID_8_);fill:#D99588;} .st116{clip-path:url(#SVGID_8_);fill:#E1948E;}</style><path class="st0" d="M0 0h192v234H0z"/><path class="st1" d="M192 215.5L172.5 234H192z"/><defs><path id="SVGID_1_" d="M-42.6-66.2h284v367.5h-284z"/></defs><clipPath id="SVGID_2_"><use xlink:href="#SVGID_1_" overflow="visible"/></clipPath><g class="st2"><defs><path id="SVGID_3_" d="M-42.6-66.2h284v367.5h-284z"/></defs><clipPath id="SVGID_4_"><use xlink:href="#SVGID_3_" overflow="visible"/></clipPath><g class="st3"><defs><path id="SVGID_5_" d="M-42.6-66.2h284v367.5h-284z"/></defs><clipPath id="SVGID_6_"><use xlink:href="#SVGID_5_" overflow="visible"/></clipPath><path class="st4" d="M125.3 73.5c-1.1 2.5-1.2 5.1-1.2 7.8.1 3.5.3 6.9 0 10.3-.5 7.8-1.3 15.3-.1 23 .2 1.5 2.5.8 2.2-.6-1.1-6.9-.5-13.7 0-20.7.2-3.1.4-6.2.2-9.3-.2-3.1-.6-6.5.7-9.3.8-1.3-1.2-2.5-1.8-1.2M112 63.9c.1 3.7 1 7.3 1.3 11.1.3 3.5-.8 6.8-1 10.3-.2 3.1-.4 6.2 0 9.3.4 2.9 2.5 5.3 2.6 8.1 0 .9.9 1.4 1.7 1 .6-.3 1-.8 1.3-1.3.8-1.2-1.2-2.4-2-1.2l-.5.5c.6.3 1.2.7 1.7 1-.2-2.9-1.9-5-2.5-7.8-.7-3.1-.2-6.6-.1-9.7.2-3.5 1.2-6.8 1-10.3-.2-3.7-1.3-7.3-1.3-11.1.1-1.4-2.2-1.4-2.2.1M117.7 81.7c.2 5 4.3 8.1 5.1 12.8.7-.2 1.5-.4 2.2-.6-1.6-4-2.8-8.2-4.2-12.3-1-2.9-1.7-5.5-4.5-7-.8-.5-1.6.1-1.7 1-.3 2.5 1.6 4.5 2.6 6.6.6 1.2 2.3.3 2.1-.9-.4-2.2-1.9-3.9-3.4-5.5-1-1.1-2.7.6-1.6 1.6 1.2 1.3 2.5 2.6 2.8 4.4l2.1-.9c-.8-1.7-2.6-3.5-2.3-5.4-.6.3-1.2.7-1.7 1 2.8 1.5 3.3 5.2 4.3 8 1.1 3.3 2.1 6.6 3.4 9.8.6 1.4 2.5.9 2.2-.6-.8-4.5-4.9-7.6-5.1-12.2 0-1.3-2.4-1.3-2.3.2M95.1 80.1c1.3-2.4 1.9-5 2.6-7.6.7-2.7 2.1-5.1 2.6-7.9.3-1.5-2-2.1-2.2-.6-.5 2.5-1.6 4.7-2.4 7.1-.9 2.6-1.2 5.3-2.6 7.8-.7 1.4 1.3 2.5 2 1.2M98.7 60.1c-.2 1.1-.5 2-1.1 3-.8 1.2.9 2.2 1.8 1.4 1.7-1.3 2.9-3.4 2.5-5.6-.3-1.5-2.6-.8-2.2.6.3 1.3-.9 2.6-1.9 3.4.6.5 1.2.9 1.8 1.4.7-1.1 1.2-2.3 1.4-3.5.1-.6-.1-1.2-.8-1.4-.6-.3-1.4 0-1.5.7M75.7 62.1c1.2 4 3.8 7.3 5.4 11.2 1.4 3.4 1.1 6.7 4 9.4.6.6 1.8.4 1.9-.5.6-3.1-1.2-5.3-2.6-7.9-1.5-2.8-1.4-6-3.6-8.4-1-1.1-2.6.5-1.6 1.6 1.7 1.9 2 4.8 2.9 7.1.8 2.3 3.3 4.3 2.7 6.9.6-.2 1.3-.3 1.9-.5-2.6-2.4-2.4-5.9-3.7-9.1-1.5-3.6-4-6.7-5.1-10.5-.4-1.4-2.7-.8-2.2.7M61.2 70.5c1.6 3.3 3.7 6.5 5 9.9 1.2 3.2 1.4 6.5 3.5 9.4.9 1.2 2.9 0 2-1.2-2.1-2.9-2.4-6.3-3.6-9.6-1.3-3.4-3.4-6.5-4.9-9.7-.6-1.3-2.6-.1-2 1.2M69 82.5c-.3 2.3-.1 4.5.9 6.6.6 1.4 2.6.2 2-1.2-.7-1.5-.9-3.2-.7-4.8.3-1.5-2-2.1-2.2-.6M57.7 99.1c2.6-2.9 2.9-7.3 3.3-10.9.2-2 .6-4.1.7-6.1.1-2.8-.7-5.9.5-8.6.6-1.4-1.4-2.5-2-1.2-.9 2-1 4-.9 6.1.1 2.4 0 4.6-.2 6.9-.4 3.7-.3 9.2-3 12.1-1.1 1.1.6 2.8 1.6 1.7M50.5 94.9c.8 2.2 2.4 4 4.7 4.7 1.4.4 2.1-1.8.6-2.2-1.5-.4-2.5-1.7-3.1-3.1-.5-1.4-2.8-.8-2.2.6M123.7 97.2c4.2 2.8 5.8 7.9 9.2 11.4 1 1.1 2.7-.6 1.6-1.6-3.6-3.7-5.2-8.8-9.7-11.8-1.2-.8-2.3 1.2-1.1 2M126.5 123.2v1.1c0 .6.5 1.2 1.2 1.2.6 0 1.2-.5 1.2-1.2v-1.1c0-.6-.5-1.2-1.2-1.2-.6 0-1.2.5-1.2 1.2M127 122.9c.1.2.1.4.2.6 0 .1.1.2.1.3 0 .1 0 .1 0 0v.2c0 .6.5 1.2 1.2 1.2.6 0 1.2-.5 1.2-1.2 0-.6-.2-1.1-.4-1.7-.2-.6-.8-1-1.4-.8-.6.1-1.1.8-.9 1.4M127.9 123.3c.2.3.3.6.5.9.3.6 1.1.7 1.6.4.6-.3.7-1 .4-1.6-.2-.3-.3-.6-.5-.9-.3-.6-1.1-.7-1.6-.4-.5.3-.7 1-.4 1.6"/><path class="st5" d="M85.7 84.6c.4 3.9-.1 7.6-.4 11.5-.3 4 0 8-.8 11.9-.3 1.5 1.9 2.1 2.2.6.8-3.9.7-7.8.9-11.7.2-4.1.9-8.1.4-12.3-.2-1.4-2.5-1.4-2.3 0M70.7 92.1c-2.6 6.5-1.2 13.7-1.9 20.6-.1 1.5 2.2 1.5 2.3 0 .7-6.6-.7-13.6 1.8-20 .6-1.4-1.6-2-2.2-.6M72.3 92.9c2.2 2.7 4.7 5 6.7 7.8 1.9 2.7 1.8 6.1 3.9 8.6 1 1.1 2.6-.5 1.6-1.6-1.1-1.3-1.2-3.2-1.7-4.7-.5-1.4-1.4-2.7-2.3-3.9-2-2.8-4.5-5.1-6.7-7.7-.8-1.3-2.5.3-1.5 1.5M68.6 156.9c3.2.6 5.9 1.9 8.5 3.8 1.2.9 2.4-1.1 1.2-2-2.8-2-5.7-3.3-9.1-4-1.5-.3-2.1 1.9-.6 2.2M66.4 131.4c0 3.4.3 6.8.6 10.2.1 1.5 2.5 1.5 2.3 0-.3-3.4-.6-6.8-.6-10.2 0-1.5-2.4-1.5-2.3 0M62.9 143c4.4.6 10.1 1.5 14.2-.6 1.1-.5.5-2.1-.6-2.2-1.5 0-3-.3-4.5-.3v2.3c.5 0 1-.1 1.5-.2 1.5-.1 1.5-2.4 0-2.3-.5 0-1 .1-1.5.2-1.5.1-1.5 2.3 0 2.3s3 .3 4.5.3c-.2-.7-.4-1.4-.6-2.2-3.5 1.7-8.7.9-12.4.3-1.5-.1-2.1 2.2-.6 2.4M110 121.8c.1 2.9 1.3 5.4 2.3 8 1.2 3.2.9 6.6 1.4 9.9.6 3.5 1.7 6.9 2.1 10.4.4 3 .2 6 1.2 8.9.4 1.1 1.8 1.1 2.2 0 .8-2.2.9-4.8.3-7.1-.3-1.1-2-1.1-2.2 0-.8 3 0 5.9.1 9 0 1.5 2.4 1.5 2.3 0-.1-2.8-.9-5.6-.2-8.4h-2.2c.5 1.9.4 4-.3 5.9h2.2c-1-3-.9-6.1-1.2-9.1-.4-3.2-1.3-6.2-2-9.3-.6-3.1-.4-6.3-1.1-9.4-.7-3-2.5-5.6-2.6-8.8-.1-1.5-2.4-1.5-2.3 0"/><path class="st6" d="M128.1 124.1c.1 3.8-.1 7.5-.2 11.3 0 1.5 2.3 1.5 2.3 0 0-3.8.3-7.5.2-11.3-.1-1.5-2.4-1.5-2.3 0"/><path class="st7" d="M73.2 118.8c-.2 1.3.1 2.5.6 3.7.3.6 1.1.7 1.6.4.6-.3.7-1 .4-1.6-.4-.8-.4-1.6-.3-2.5.1-.6-.6-1.2-1.2-1.2-.7.1-1.1.6-1.1 1.2M75.8 121.5c0 1.8-.1 3.5.2 5.3.1.7 1.1 1 1.7.7 1.2-.7 1.9-1.8 2.1-3.2l-2.1.3c.1.3.2.5.3.8.6 1.4 2.6.2 2-1.2-.1-.3-.2-.5-.3-.8-.4-.9-2-.7-2.1.3-.1.8-.3 1.4-1 1.8l1.7.7c-.3-1.5-.1-3.1-.1-4.6-.1-1.6-2.4-1.6-2.4-.1"/><path class="st8" d="M102 114.2c2.6.4 5.3.5 7.9 0 1.9-.3 2-2.2 1.9-3.8-.1-1.5-2.3-1.5-2.3 0v7.6c0 1.5 2.3 1.5 2.3 0v-7.6h-2.3c.1 1.3.3 1.5-.9 1.6-2 .2-4 .2-6-.1-1.4-.1-2.1 2.1-.6 2.3M110.2 110.9c1.5 0 1.5-2.3 0-2.3-1.5-.1-1.5 2.3 0 2.3M109.8 108.9c-.1 1-.2 2-.2 2.9 0 1.5 2.3 1.5 2.3 0 0-1 0-2 .2-2.9.1-.6-.6-1.2-1.2-1.2-.6.1-1 .6-1.1 1.2"/><path class="st9" d="M59.6 122.6c6.3 0 12-2.7 17.9-4.2 1.4-.4.8-2.6-.6-2.2-5.7 1.5-11.3 4.2-17.3 4.1-1.5 0-1.5 2.3 0 2.3"/><path class="st10" d="M99.5 122.9c2.6.2 6.1 1 8.1-1.1 1-1.1-.6-2.7-1.6-1.6-1.4 1.5-4.7.6-6.4.4-1.6-.1-1.5 2.2-.1 2.3"/><path class="st11" d="M99.5 152.4c-1.9 2-2.7 4.6-4.3 6.7-.9 1.2.7 2.8 1.6 1.6 1.7-2.1 2.5-4.7 4.3-6.7 1.1-1.1-.6-2.7-1.6-1.6M79 157.7c7.7.2 15.1-1.9 22.6-3.3 1.5-.3.8-2.5-.6-2.2-7.3 1.4-14.5 3.4-22 3.2-1.5 0-1.5 2.3 0 2.3"/><path class="st12" d="M79.2 160.4c1.7-2.3 1-5.4.7-8-.4-3.2-1-7.6.3-10.6.6-1.4-1.4-2.5-2-1.2-1.2 2.8-.9 5.9-.7 8.8.1 1.6.2 3.1.4 4.6.2 1.7.5 3.7-.6 5.1-1 1.3 1 2.5 1.9 1.3M77.8 142c1.2 1.8 3.2 2.3 4.9 3.5 1.2.8 2.4-1.2 1.2-2-1.3-.9-3.1-1.3-4.1-2.7-.8-1.2-2.8 0-2 1.2M84.5 146.4c4.8-.4 11.3-1.2 12.9-6.6.4-1.4-1.8-2.1-2.2-.6-1.2 4.2-7 4.6-10.6 4.9-1.6.1-1.6 2.5-.1 2.3M80.8 124.9c4.7-.1 9.2 1.3 13.9 1.2 1.5 0 1.5-2.3 0-2.3-4.7.1-9.2-1.3-13.9-1.2-1.5 0-1.5 2.4 0 2.3M93.5 122.9c1.3.1 2.7.2 4 .3.6.1 1.2-.6 1.2-1.2 0-.7-.5-1.1-1.2-1.2-1.3-.2-2.7-.2-4-.3-.6-.1-1.2.6-1.2 1.2 0 .8.6 1.2 1.2 1.2M92 122.4v2.9c0 1.5 2.3 1.5 2.3 0v-2.9c0-1.5-2.3-1.5-2.3 0M90.8 113.4c0 2.9-.1 5.8.7 8.7.4 1.4 2.6.8 2.2-.6-.7-2.6-.6-5.4-.6-8 0-1.6-2.3-1.6-2.3-.1M92.6 114.6c1.5 0 1.5-2.3 0-2.3s-1.5 2.3 0 2.3M93.8 115.3c2.3-.3 4.5-1.1 6.8-1 1.5 0 1.5-2.3 0-2.3-2.5-.1-4.9.7-7.4 1.1-1.5.2-.9 2.4.6 2.2"/></g><g class="st3"><defs><path id="SVGID_7_" d="M-42.6-66.2h284v367.5h-284z"/></defs><clipPath id="SVGID_8_"><use xlink:href="#SVGID_7_" overflow="visible"/></clipPath><path class="st13" d="M89.1 177s-10.8-5.7-16.4-13.2l11.8-1.9 4.6 15.1z"/><path class="st14" d="M96.9 160.4l-12.4 1.5 4.6 15.1z"/><path class="st15" d="M110.5 172L97 160.4 89.1 177s13.3 2.9 21.4-5"/><path class="st15" d="M120 164.2l-9.5 7.8-13.6-11.6z"/><path class="st16" d="M132.7 153.4L120 164.2l-2.9-18.6z"/><path class="st17" d="M96.9 160.4l20.2-14.8 2.9 18.6z"/><path class="st18" d="M132.7 133.5s3.6 14.3 0 19.8l-15.6-7.8 15.6-12z"/><path class="st19" d="M102 130.1l2.7 24.6 12.4-9.1z"/><path class="st20" d="M128.5 136.7l-1.7-13.3h3.3z"/><path class="st21" d="M132.7 133.5l-2.6-10.1-1.6 13.3z"/><path class="st22" d="M124.9 115.7l1.9 7.7 1.7 13.3-11.4 8.9z"/><path class="st23" d="M110.9 118.9l14-3.2-7.8 29.9z"/><path class="st24" d="M102 130.1l8.9-11.2 6.2 26.7z"/><path class="st25" d="M115.8 105.8l9.1 9.9-14 3.2z"/><path class="st26" d="M95.8 136l8.9 18.7-2.7-24.6z"/><path class="st27" d="M94.1 125l1.7 11 6.2-5.9z"/><path class="st28" d="M66.3 154.4l6.4 9.4 11.8-1.9z"/><path class="st29" d="M79.4 140.4l-13.1 14s-4.2-11.8-4.5-12.7l17.6-1.3z"/><path class="st30" d="M79.9 129l-11.7 12.3 11.2-.9s.3-7.6.5-11.4"/><path class="st31" d="M60 131s1.2 9 1.8 10.7l6.4-.5L60 131z"/><path class="st32" d="M79.4 140.4l-.9 19-12.2-5z"/><path class="st33" d="M84.5 161.9l-5.9-5.5-.1 3z"/><path class="st34" d="M101 152.9l3.7 1.8-7.8 5.7z"/><path class="st35" d="M91.3 161.1l8.5-6.2-2.9 5.5z"/><path class="st36" d="M80.4 158l2.2-1.9-3.9.3z"/><path class="st37" d="M101 152.9l2-1.7 1.7 3.5z"/><path class="st38" d="M91.3 161.1l-6.4-5.3-2.3.3-2.2 1.9 4.1 3.9z"/><path class="st35" d="M94.1 154l-2.8 7.1-6.3-5.3c-.1 0 8.5-1.8 9.1-1.8"/><path class="st35" d="M98.1 152.9l-4 1.1-2.8 7.1 8.5-6.2 1.2-2z"/><path class="st39" d="M78.7 156.4s5.1-4.9 5.9-5c0 0 1.3-.5 3 .6 0 0 1.5.6 2-.2s1.5-2.1 3.5-1.5l-2.7 4.3-5.4 1.1-6.3.7z"/><path class="st40" d="M101.8 152.2l-8.8-1.8-2.7 4.3 3.8-.7 4-1.1h2.9z"/><path class="st41" d="M84 144.6v7.1l-5.4 4.7.7-16c.1 0 1.5 4.2 4.7 4.2"/><path class="st42" d="M90.1 143.5l-6.1 1.1v7.1s1.1-1 4 .5c0 0 1.4.4 1.9-1 0 0 1-1.6 3-.8l-2.8-6.9z"/><path class="st43" d="M96.9 138.5s.1 4.6-6.8 5l2.9 6.9 8.8 1.8 1.2-1-6.1-12.7z"/><path class="st44" d="M86.6 142s2.2-3.1 6-1.6c0 0 1.9.7.9.9-.9.2-4.1-.6-5.7 1.1 0 0-1.8 1-1.2-.4"/><path class="st45" d="M60 131l7.8-1.2.4 11.4z"/><path class="st46" d="M79.9 129l-12.1.8.4 11.4z"/><path class="st47" d="M80.6 123.8s-6.2 5-12.8 6l12.1-.8.7-5.2z"/><path class="st48" d="M93.7 121.7l.4 3.3 7.9 5 8.8-11.2s-6 4.9-13.1 2.4l-4 .5z"/><path class="st49" d="M57.2 99.9l1.1 19 11.3-4.1z"/><path class="st50" d="M72.6 90.6l-3 24.1-12.4-14.8s8.1-6.7 15.4-9.3"/><path class="st51" d="M87.6 83.3s-12.6-.1-15 7.4l13.2 19.4 1.8-26.8z"/><path class="st52" d="M69.6 114.8l16.3-4.7-13.3-19.5z"/><path class="st53" d="M106.5 80.5s-3.4 1.4-5.4 1.1-3.4-.8-5.3-1.1-7.3 1.2-8.2 2.8l-1.7 26.8 20.6-29.6z"/><path class="st54" d="M110.9 108.7l-25 1.4 20.6-29.6z"/><path class="st55" d="M115.8 105.8c-.1-.6-2.6-17.3-2.6-17.3l-6.8-8 9.4 25.3z"/><path class="st56" d="M110.9 108.7l4.9-2.9-9.3-25.3z"/><path class="st57" d="M110.9 118.9v-10.2l4.9-2.9z"/><path class="st58" d="M58.9 121.6l-.6-2.7 3.5-1.3 4.2 2.7z"/><path class="st59" d="M69.6 114.8l-3.6 5.5-4.2-2.7z"/><path class="st60" d="M74.6 118.1l-5-3.3-3.6 5.5z"/><path class="st61" d="M78.7 116.3l-3.6-3.1-5.5 1.6 5 3.3z"/><path class="st62" d="M60 131l-1.1-9.4 5.2 4.7z"/><path class="st63" d="M67.8 129.8l-3.7-3.5L60 131z"/><path class="st64" d="M80.6 123.8l-1.9-7.5-4.1 1.8.5 3.5z"/><path class="st65" d="M76 126.8c.5-.3 1.3-3-.9-5.2l5.5 2.2-4.6 3z"/><path class="st66" d="M110.9 112.8l-7.3-3.7 7.3-.4z"/><path class="st67" d="M102 112.8l1.6-3.7 7.3 3.7z"/><path class="st68" d="M95.1 109.6l6.9 3.2 1.6-3.7z"/><path class="st69" d="M93 113.9l2.1-4.3 6.9 3.2z"/><path class="st70" d="M89.1 109.9l3.9 4 2.1-4.3z"/><path class="st71" d="M85.9 114.2l3.2-4.3 3.9 4z"/><path class="st72" d="M83 110.9l2.9 3.3 3.2-4.3-3.2.2z"/><path class="st73" d="M80.6 123.8l5.3-9.6-2.9-3.3-7.9 2.3 3.6 3.1z"/><path class="st74" d="M93.7 121.7l-7.8-7.5-5.3 9.6 13.5 1.2z"/><path class="st75" d="M95.8 136l-15.2-12.2 13.5 1.2z"/><path class="st76" d="M93.7 121.7l-.7-7.8-7.1.3z"/><path class="st77" d="M110.9 118.9s-2.3-4.1-8.8-6h8.8v6z"/><path class="st78" d="M133.7 139.2s2.6 3.1 5.4 2.6l-.9-13.3s-1.7 4.4-5.6 5l1.1 5.7z"/><path class="st79" d="M142.4 135.2s1.2 6.4-3.3 6.6l-.9-13.3 4.2 6.7z"/><path class="st80" d="M132.7 133.5l1-3s3.1.1 3.9-3.5c.2-.8.1-1.6-.3-2.4-.5-1-1.7-2.2-4.2-2.1l-.1-2.9s7.6 1.1 5.2 8.9c0 0-1.7 4.5-5.5 5"/><path class="st81" d="M130.1 123.4l-.3-6.3 5.2-8.4s5.8-1.2 8.2 8.8l-10.2 2.1.1 2.9-3 .9z"/><path class="st82" d="M142.4 135.2s3.8-6.5.8-17.7l-10.2 2.1s7.7 1.3 5.2 8.9l4.2 6.7z"/><path class="st83" d="M132.7 133.5l1-3-.6-8-3 .9z"/><path class="st84" d="M139.1 141.8l3 3.8s6.3-10.2 1.7-14.4l-1.4 3.9c0 .1.9 6.9-3.3 6.7"/><path class="st85" d="M124 94.6l.9 21.1 1.9 7.7h3.3l-.3-6.3 5.2-8.4z"/><path class="st86" d="M127.3 72.9L124 94.6l11 14.1s2-.6 5 2.1c0 0-2.3-34-12.7-37.9"/><path class="st87" d="M113.3 88.5l2.1-11.9 8.6 18 .9 21.1-9.1-9.9z"/><path class="st88" d="M112.9 61.2l2.5 15.4 8.6 18 3.3-21.7s-7.4-10.5-14.4-11.7"/><path class="st89" d="M100.7 57.6l12.2 3.5 2.5 15.4-2.1 11.9-6.8-8s-3.5 1.5-5.4 1.1c-1.9-.4-5.6-1.4-7-1.1l6.6-22.8z"/><path class="st90" d="M87.6 83.3l-10.9-23s13.5-5 24-2.7l-6.6 22.9s-5.7 1.2-6.5 2.8"/><path class="st91" d="M72.6 90.6L62.2 68.8s11.5-7.8 14.5-8.4l10.9 22.9s-12.5-.1-15 7.3"/><path class="st92" d="M57.2 99.9l5-31.1 10.4 21.9c0-.1-9.2 3.6-15.4 9.2"/><path class="st93" d="M50 92.6l7.2 7.3 5-31.1S53.6 75.7 50 92.6"/><path class="st94" d="M60 131s-7.3-15.7-8.1-21.4l5.3-9.7 1.1 19 .6 2.7L60 131z"/><path class="st95" d="M50 92.6s.8 11.8 1.9 16.9l5.3-9.7-7.2-7.2z"/><path class="st96" d="M67.8 129.8l-2.9-2.7s.8-2.3 3-3.6c0 0-.3 4 3 3.9 0 0 4.3-.2 3.1-4.4l2.4.7s.6 1.9-.4 3c0 .1-4.9 2.8-8.2 3.1"/><path class="st97" d="M67.9 123.5s-.3 4.1 3 3.9c0 0 4.5-.2 3.1-4.4 0 .1-3.9-1.1-6.1.5"/><path class="st98" d="M73 123.8s.2 1-1 1.4c-1.2.4-2.9.4-2.6-1.2 0 0 1.1-1.3 3.6-.2"/><path class="st99" d="M58.9 121.6l7.1-1.3 8.6-2.2.5 3.5 1.1 1.6s-8.4-3.7-12.2 3.1l-5.1-4.7z"/><path class="st100" d="M64.9 127.1s1.8-6.9 11.5-3.3l-.2-.6s-8.3-4.7-12.2 3.1l.9.8z"/><path class="st101" d="M98.7 113.2l-2.7 4.6s5.3-5.2 13.9-.2c0 0-2.9-3.4-7.9-4.8l-3.3.4z"/><path class="st102" d="M109.9 117.6c-.2-.2-7.9-5.7-13.9.2l.8.8s4.4-5.5 12-.4l1.1-.6z"/><path class="st103" d="M96.8 118.6l2.6 3.1-1.6-.5-4.1.5 2.3-3.9z"/><path class="st104" d="M100.1 116.4s-1.1 4.1 3.1 4.2c0 0 3.5-1.1 2.7-3.8 0 0-2.3-1.5-5.8-.4"/><g class="st105"><defs><path id="SVGID_9_" d="M102 116h2.3v2.2H102z"/></defs><clipPath id="SVGID_10_"><use xlink:href="#SVGID_9_" overflow="visible"/></clipPath><g class="st106"><defs><path id="SVGID_11_" d="M102 116h2.3v2.2H102z"/></defs><clipPath id="SVGID_12_"><use xlink:href="#SVGID_11_" overflow="visible"/></clipPath><path class="st107" d="M104.1 117.8s-1.2.9-1.8 0c0 0-.6-.9-.1-1.8l1.9.1s.5 1.3 0 1.7"/></g></g><path class="st108" d="M96.8 118.6l2.6 3.1s8.7 1.4 9.5-3.5l-3-1.4s1.1 2.1-2.7 3.8c0 0-3.9.2-3.1-4.2 0 0-1.7.5-3.3 2.2"/><path class="st109" d="M110.9 118.9l-.9-1.2-1.1.6s-.1 1.9-2.4 2.9c0-.1 1.7-.4 4.4-2.3"/><path class="st110" d="M98.7 113.2l-5.7.7.7 7.8z"/><path class="st111" d="M133.1 122.5l.6 8s3.7.1 4-4.2c0 0 .1-3.9-4.6-3.8"/><path class="st112" d="M80.6 123.8l-.7 5.2-.5 11.4s.9 3.8 4.6 4.2l2.6-2.6-6-18.2z"/><path class="st113" d="M90.6 131.8l-4 10.2-6-18.2z"/><path class="st114" d="M86.6 142s2.4-3.7 7-1.2l2.2-4.8-5.2-4.2-4 10.2z"/><path class="st115" d="M84 144.6l2.6-2.6s-.5 1.4 1.2.4c0 0 .8-1.4 4.4-1.1 0 0 2.3.1 1.3-.4l1.5 1s-1.6 1.5-5 1.6l-6 1.1z"/><path class="st116" d="M93.5 140.9l1.5 1s2-1.6 1.9-3.4l-1.2-2.4-2.2 4.8z"/></g></g></svg>