<svg xmlns="http://www.w3.org/2000/svg" width="192" height="234" viewBox="0 0 192 234"><style type="text/css">.st0{fill:#F2F2F2;} .st1{fill:#23A684;} .st2{fill:#CF9084;} .st3{fill:#B47A69;} .st4{fill:#B0806B;} .st5{fill:#B5836B;} .st6{fill:#E49D8A;} .st7{fill:#C69485;} .st8{fill:#AF7C68;} .st9{fill:#AF836B;} .st10{fill:#C18674;} .st11{fill:#BF7E79;} .st12{fill:#B6856D;} .st13{fill:#C98B7C;} .st14{fill:#AE746D;} .st15{fill:#B47C6B;} .st16{fill:#B77F6E;} .st17{fill:#BE877C;} .st18{fill:#C78C84;} .st19{fill:#D99A88;} .st20{fill:#E89C87;} .st21{fill:#CA9174;} .st22{fill:#D0957A;} .st23{fill:#D59C7F;} .st24{fill:#DD927F;} .st25{fill:#E2A180;} .st26{fill:#D8A19E;} .st27{fill:#D5988C;} .st28{fill:#B27769;} .st29{fill:#B37868;} .st30{fill:#ECA188;} .st31{fill:#FBAC90;} .st32{fill:#FCAC8A;} .st33{fill:#C88A72;} .st34{fill:#E8A68A;} .st35{fill:#260F0F;} .st36{fill:#CA8370;} .st37{fill:#B07C6A;} .st38{fill:#A25E4D;} .st39{fill:#9A5D4D;} .st40{fill:#885144;} .st41{fill:#6B2D23;} .st42{fill:#834237;} .st43{fill:#774E4A;} .st44{fill:#643D35;} .st45{fill:#623F39;} .st46{fill:#673F3B;} .st47{fill:#7C5044;} .st48{fill:#8D5850;} .st49{fill:#6E3E36;} .st50{fill:#764842;} .st51{fill:#9A6051;} .st52{fill:#B57A5E;} .st53{fill:#966B5C;} .st54{fill:#91614F;} .st55{fill:#987464;} .st56{fill:#E7AC9A;} .st57{fill:#F1B4A1;} .st58{fill:#FBB9A1;} .st59{fill:#FDB691;} .st60{fill:#F9B083;} .st61{fill:#EFAB7B;} .st62{fill:#FAB287;} .st63{fill:#E0A37A;} .st64{fill:#C78764;} .st65{fill:#DB9E84;} .st66{fill:#D19F83;} .st67{fill:#C29274;} .st68{fill:#B78C6D;} .st69{fill:#A67958;} .st70{fill:#C59C81;} .st71{fill:#AC9079;} .st72{fill:#43241A;} .st73{fill:#7A5340;} .st74{fill:#886248;} .st75{fill:#624633;} .st76{fill:#BD8A62;} .st77{fill:#E4B794;} .st78{fill:#855E46;} .st79{fill:#503725;} .st80{fill:#6D4B3C;} .st81{fill:#B28464;} .st82{fill:#D8AC8D;} .st83{fill:#C6A58A;} .st84{fill:#D3B398;} .st85{fill:#DBB49C;} .st86{fill:#311810;} .st87{fill:#422A21;} .st88{fill:#230E08;} .st89{fill:#725D4E;} .st90{fill:#AD9989;} .st91{fill:#5D443B;} .st92{fill:#BB9A84;} .st93{fill:#BB9980;} .st94{fill:#997A62;} .st95{fill:#B29883;} .st96{fill:#3B2823;} .st97{fill:#553B2D;} .st98{fill:#886D5F;} .st99{fill:#534644;} .st100{fill:#66615C;} .st101{fill:#938070;} .st102{fill:#7B7168;} .st103{fill:#78726A;} .st104{fill:#7E685C;} .st105{fill:#A49A89;} .st106{fill:#6E584A;} .st107{fill:#2C1915;} .st108{fill:#554B45;} .st109{fill:#92513E;} .st110{fill:#BF7960;} .st111{fill:#C57F62;} .st112{fill:#392226;} .st113{fill:#E8C3C1;} .st114{fill:#DFA17E;} .st115{fill:#DA9983;} .st116{fill:#BF856B;} .st117{fill:#DFA295;} .st118{fill:#EBAE95;} .st119{fill:#F1AB94;} .st120{fill:#C1918E;} .st121{fill:#B7827F;} .st122{fill:#34252F;} .st123{fill:#855D58;} .st124{fill:#8E6A6A;} .st125{fill:#DBAE9B;} .st126{fill:#B7938D;} .st127{fill:#96645C;} .st128{fill:#BE968B;} .st129{fill:#A57268;} .st130{fill:#4B3D43;} .st131{fill:#5F4A4F;} .st132{fill:#6A545C;} .st133{fill:#7C6869;} .st134{fill:#4A3121;} .st135{fill:#432923;} .st136{fill:#593524;} .st137{fill:#562E1F;} .st138{fill:#6B4F3A;} .st139{fill:#463429;} .st140{fill:#4A3322;} .st141{fill:#4B3223;} .st142{fill:#6F5642;} .st143{fill:#CA767C;} .st144{fill:#D67B80;} .st145{fill:#DD7F7E;} .st146{fill:#E18C7E;} .st147{fill:#BD6D73;} .st148{fill:#AD6665;} .st149{fill:#945754;} .st150{fill:#4D1815;} .st151{fill:#8C4644;} .st152{fill:#9D4E50;} .st153{fill:#9F4C50;} .st154{fill:#A2504E;} .st155{fill:#6D202A;} .st156{fill:#A44C48;} .st157{fill:#9E4C4C;} .st158{fill:#833D3C;} .st159{fill:#853C3A;} .st160{fill:#C0B0A6;} .st161{fill:#B3806D;} .st162{fill:#E1A48B;} .st163{fill:#E19C84;} .st164{fill:#C0886B;} .st165{fill:#46484F;} .st166{fill:#C8C7C7;}</style><path class="st0" d="M0 0h192v234H0z"/><path class="st1" d="M192 215.5L172.5 234H192z"/><path class="st2" d="M96.5 163.4l-7.7 12.7s9.1 4.8 17.5-.9l-9.8-11.8z"/><path class="st3" d="M80.5 169.2s6.7 6.2 8.4 6.9l7.7-12.7-16.1 5.8z"/><path class="st4" d="M71.1 158.6s8.2 9.4 9.4 10.6l4.1-13.5-13.5 2.9z"/><path class="st5" d="M96.5 163.4s-6-.2-11.9-7.7l-4.1 13.5 16-5.8z"/><path class="st6" d="M115.2 167.2l-8.9 8-9.8-11.8z"/><path class="st7" d="M111 152.3l4.2 15s9.8-12.3 10-12.9l-14.2-2.1z"/><path class="st8" d="M74.4 138.4l-9.3 11.7 17.2 1.9z"/><path class="st9" d="M61.8 139.7s.9 5.4 3.2 10.4l9.3-11.7-12.5 1.3z"/><path class="st10" d="M80.5 149l5.7-9.5-11.8-1.1z"/><path class="st11" d="M80.5 132.5l-6.1 5.9 11.8 1.1z"/><path class="st12" d="M60.1 127.5l1.7 12.2 12.6-1.3z"/><path class="st13" d="M80.5 132.5s-8.7 1.7-16.5-2l10.4 7.9 6.1-5.9z"/><path class="st14" d="M86.2 139.5l3-10.2s-3.3 2.8-8.7 3.2l5.7 7z"/><path class="st15" d="M86.2 139.5l3.6 13s-5.3.2-7.9-1l-1.4-2.5 5.7-9.5z"/><path class="st16" d="M96.5 145.2l-6.7 7.3-3.6-13s3 5.4 10.3 5.7z"/><path class="st17" d="M96.5 153.2v-8l-6.7 7.3s3.8.1 6.7.7z"/><path class="st18" d="M103.1 152.7l-6.6-7.5v8s3-.6 6.6-.5z"/><path class="st19" d="M104.4 142.4s-5.4 2.5-7.9 2.8l6.6 7.5 1.3-10.3z"/><path class="st20" d="M111 152.3l-3.8-11.7-3.1 2 .2-.1-1.3 10.3c.1-.1 3.8.1 8-.5z"/><path class="st21" d="M125.3 154.4s3.2-6.3 3.3-6.8l-17.5 4.7 14.2 2.1z"/><path class="st22" d="M107.3 140.5l14.7 4.9 6.6 2.1-17.6 4.8z"/><path class="st23" d="M131.2 136.4s-10.6 8.6-10.4 8.6c.2.1 7.8 2.5 7.8 2.5l2.6-11.1z"/><path class="st24" d="M107.3 140.5l12.6-9.1.9 13.6z"/><path class="st25" d="M132.5 126.2s-2.8 4.4-12.6 5.2l11.3 5 1.3-10.2z"/><path class="st26" d="M110.6 131l-3.3 9.5 12.6-9.1s-5.7.5-9.3-.4z"/><path class="st27" d="M103.2 129.1l7.4 1.9-3.3 9.5s-1.1-7.6-4.1-11.4z"/><path class="st28" d="M92.5 138.9l4 6.3s-6.8 0-10.3-5.7l6.3-.6z"/><path class="st29" d="M89.2 129.3l3.3 9.6-6.3.6z"/><path class="st30" d="M96.5 145.2l3-6.8 4.9 4s-5 2.3-7.9 2.8z"/><path class="st31" d="M107.3 140.5l-2.8 1.9-1.2-13.3c-.1 0 2.6 3.2 4 11.4z"/><path class="st30" d="M95.1 119.6l-2.6 19.3 4 6.3 3.1-6.8-3.3-18.8z"/><path class="st32" d="M103.2 129.1l-6.9-9.5 3.3 18.8 4.8 4z"/><path class="st33" d="M89.2 129.3s3.5-4.4 3.4-9.4l2.6-.3-2.6 19.3-3.4-9.6z"/><path class="st34" d="M100.9 119.8s1.3 6.6 2.3 9.3l-6.9-9.5s2.4-.2 4.6.2z"/><path class="st35" d="M101.8 118.4s1.1-3.4 14-5c0 0 9.4-1.1 15.1 1.1 0 0 2.2 1.1 2 4.6 0 0-.4 6.3-1.5 7.4-1 1.1-3.7 3.5-11.5 4.5 0 0-8.8 1.2-14.2-2.3-.6-.4-1.1-.9-1.5-1.4-1.1-1.7-3.5-5.5-2.4-8.9zm-.3 4.5c1.2 7.1 9 8.1 9 8.1 3.3.9 9.3.4 9.3.4 8.8-.3 12.6-5.2 12.6-5.2.1-.5.5-5 .9-5.6.2-.3.5-.1.9-.1.5 0 .5-.5.5-.5s-.3-4.8-.5-5.6-.6-.7-.6-.7l-3.1-.2c-5-1.7-14.1-.9-14.1-.9-13.4 1.1-15.3 5.8-15.3 5.8-.3.9.4 4.5.4 4.5z"/><path class="st36" d="M101.9 124.3l1.3 4.8 5.2 1.3s-4.9-1.2-6.5-6.1z"/><path class="st35" d="M92.2 118.9l9.2-.4v1.3l-.5-.1s-4.1-.5-8.3.1h-.4v-.9zM62.5 117.3s5.5-2.5 11.6-2.4c6.1.1 13.8.7 17 3.3 0 0 2.1 1.2.1 6.3 0 .1-.1.2-.1.4-.3.8-1.8 4.9-5.6 5.8h-.1c-.5.2-5.7 2.3-14.6 1.3 0 0-6.6-.4-8.1-4.1.1 0-3.2-7.8-.2-10.6zm-2.4-.8c-.6 0-.7.7-.7.7-.2 3 .7 10.2.7 10.2l3.9 3c7.3 3.8 16.5 2 16.5 2 5.7-.4 8.7-3.2 8.7-3.2 4.3-5.5 3.3-10.3 3.3-10.3-.5-1.2-1.7-1.9-1.7-1.9-15.1-5.9-27.6-.9-27.7-.8-.1 0-2.5.3-3 .3z"/><path class="st37" d="M61.5 137.3s-3.4-1.2-3.4-7.3l2.1-1.7 1.3 9z"/><path class="st38" d="M57.9 123.5s.6 6.2.7 6.1c.1 0 1.6-1.3 1.6-1.3l-.2-1.4-2.1-3.4z"/><path class="st39" d="M56.6 119.5l1.5 10.5.5-.4-.7-6.1z"/><path class="st40" d="M59.4 117.2l-2.7 2.3 1.4 4.1 2 3.3c-.1 0-1.1-8.4-.7-9.7z"/><path class="st41" d="M56.6 112.8v6.7l2.7-2.2z"/><path class="st42" d="M57.6 110s-4-.8-1 9.5c0 0-.1-6.5 0-6.7.1-.2 1-2.8 1-2.8zM59.3 117.3L59 110h-1.4l-1 2.8 2.7 4.5z"/><path class="st43" d="M88.7 116.2l-3.4-4.6s-2.1 3.2-1.9 3.2 3.7.8 5.3 1.4z"/><path class="st44" d="M81.4 111.4l1.9 3.5s.8-1.8 1.9-3.2c.1-.1-3.1-.5-3.8-.3z"/><path class="st45" d="M78.4 114.2l3.1-2.8 1.9 3.5s-2-.5-5-.7z"/><path class="st46" d="M76 111.5l2.4 2.7 3.1-2.8c-.1 0-5.2.1-5.5.1z"/><path class="st47" d="M71.7 114.3l4.2-2.8 2.4 2.7c.1 0-4.7-.1-6.6.1z"/><path class="st48" d="M103.3 116.2l1.1-4.2 5.2 1.7c0-.1-4.6 1-6.3 2.5z"/><path class="st49" d="M111.3 110.2l-1.7 3.5-5.2-1.7s5.8-1.8 6.9-1.8z"/><path class="st50" d="M119.8 112.4l-8.5-2.3-1.7 3.5s2.7-.8 10.2-1.2z"/><path class="st51" d="M122.3 108.8l-2.5 3.6-8.5-2.3c0 .1 4.6-1.6 11-1.3z"/><path class="st52" d="M128.2 110.2l-5.9-1.4-2.5 3.6s4.3 0 5.9.2l2.5-2.4z"/><path class="st53" d="M81.4 111.4l-5.4-1v1.1z"/><path class="st54" d="M71.7 114.3c.2-.6 1.6-4.5 1.6-4.5l2.6.6v1.1l-4.2 2.8z"/><path class="st55" d="M68.2 110.2l3.5 4.2 1.6-4.5c.1-.1-3.4-.2-5.1.3zM64.8 115.6l3.4-5.4 3.5 4.2c0-.1-5.4.4-6.9 1.2z"/><path class="st56" d="M95.1 86.1l-6.4 30.1s3.4 1.1 3.8 2.7l8.6-.3s.3-1.3 2.2-2.4l-8.2-30.1z"/><path class="st57" d="M104.4 112l1.7-31.8s-3.8-.2-11 5.9l8.2 30.1 1.1-4.2z"/><path class="st58" d="M116.2 109.1l-10-28.9-1.7 31.8s4.7-1.6 6.9-1.8c-.1 0 3.7-1.2 4.8-1.1z"/><path class="st59" d="M117.9 84.9l-1.7 24.1-10-28.9c-.1.1 3.8-1.1 11.7 4.8z"/><path class="st60" d="M126.4 95.3s-3.9-7.4-8.5-10.4l-.9 13.3 9.4-2.9z"/><path class="st61" d="M128 105.7l-1.6-10.4-9.4 2.9z"/><path class="st62" d="M122.3 108.8l5.7-3.1-11-7.5-.8 10.9s3.5-.5 6.1-.3z"/><path class="st63" d="M128.2 110.2l.9.2-1.1-4.7-5.7 3.1z"/><path class="st64" d="M125.7 112.6l2.5-2.5.9.2.6 2.9c0 .1-2.6-.5-4-.6z"/><path class="st65" d="M82.3 81.1l2.9 30.5 3.4 4.6L95 86.1c.1 0-5.2-4.8-12.7-5z"/><path class="st66" d="M76 110.4l6.4-29.3 2.9 30.5s-3.1-.4-3.8-.2l-5.5-1z"/><path class="st67" d="M70.6 86.1l5.4 24.3 6.4-29.3c-.1 0-8.2.9-11.8 5z"/><path class="st68" d="M66.2 93.8l7.1 16 2.6.6-5.4-24.3c.1 0-3.1 2.9-4.3 7.7z"/><path class="st69" d="M65.1 102.2l1.1-8.4 4.9 10.9z"/><path class="st70" d="M68.2 110.2l-3.6-5 .5-2.9 6 2.5 2.3 5.1c0-.1-3.6-.2-5.2.3z"/><path class="st71" d="M63 116.2c0-.3.7-9.8 1.6-11l3.6 5-3.4 5.4-1.8.6z"/><path class="st72" d="M129.5 112.1l4.9-20.5-.3 22.3s-.1-.2-.4-.2c-.3 0-3.1-.2-3.1-.2l-.8-.2-.3-1.2z"/><path class="st73" d="M126.4 95.3l5.3 7.2-2.2 9.6-.4-1.7-1.1-4.7z"/><path class="st74" d="M133.5 95.3h-7.1l5.3 7.2z"/><path class="st75" d="M127.7 92.5l1.8 2.8h4l.9-3.7z"/><path class="st76" d="M126.4 95.3h3.1l-1.7-2.9-6-4.1c-.1.1 2.8 3.7 4.6 7z"/><path class="st77" d="M117.9 84.9l8.5-7 1.3 14.6-6-4.1s-2.9-2.9-3.8-3.5z"/><path class="st78" d="M134.4 91.6l-8-13.7 1.3 14.6z"/><path class="st79" d="M126.4 67.4v10.5l8 13.7s.8-12.5-8-24.2z"/><path class="st80" d="M121.4 82l5-14.6v10.5z"/><path class="st81" d="M118.5 77.4l5.8-3.9-2.9 8.5z"/><path class="st82" d="M108.2 80.2l10.3-2.8 2.9 4.7-3.5 2.9c0-.1-5.5-4.3-9.7-4.8z"/><path class="st83" d="M113.8 74.2l10.1-4.6-1.4 5.1-4 2.7-10.3 2.8z"/><path class="st84" d="M116.2 66.7l-2.4 7.5-5.6 6 2.1-8.1z"/><path class="st85" d="M117 59l-6.6 13.2-2.1 8.1s-1.4-.1-2.1 0-4.5.4-11 5.9l8.2-12.6L117 59z"/><path class="st86" d="M122.5 62.8s3.9 4.1 3.9 4.6l-2.1 6.1-1.8 1.2 1.4-5.1-1.4-6.8z"/><path class="st87" d="M116.2 66.7l6.3-3.9 1.4 6.8-10.1 4.6z"/><path class="st88" d="M122.5 62.8s-4.3-3.8-5.5-3.9l-6.6 13.2 5.9-5.4 6.2-3.9z"/><path class="st89" d="M104.4 56.3l1.7 14.2L117 59s-7.6-2.8-12.6-2.7z"/><path class="st90" d="M96.5 71.4l7.9-15.1s-10.9-.6-13.3 0l5.4 15.1z"/><path class="st91" d="M106.1 70.4l-6-5.7 4.3-8.4z"/><path class="st92" d="M96.5 71.4l3.1 7.8 3.7-5.8 2.8-3-6-5.7z"/><path class="st93" d="M87.8 82l3.3-4.1 5.4-6.6 3 7.9-4.4 6.8c0 .1-3.8-3-7.3-4z"/><path class="st94" d="M93.8 63.7l-4.4 16.4 7.1-8.7z"/><path class="st95" d="M82.3 81.1l4-10.3 4.9 2.3-1.8 7-1.6 2c0-.1-3.2-1-5.5-1z"/><path class="st96" d="M79.1 59l7.3 11.8 4.9 2.3 2.5-9.4-2.7-7.4s-8.4.1-12 2.7z"/><path class="st97" d="M75.6 69.1l6.7 12 4.1-10.3z"/><path class="st98" d="M73 84.1l4.5-11.6 4.9 8.6c-.1 0-6.7 1.3-9.4 3z"/><path class="st99" d="M79.1 59l-3.5 10.1 10.8 1.7z"/><path class="st100" d="M68.2 65.5l7.3 3.6L79.1 59s-9.6 5.1-10.9 6.5z"/><path class="st101" d="M67.4 78.7l5.6 5.4 4.5-11.6z"/><path class="st102" d="M64.6 70.8c.3-.2 3.6-5.2 3.6-5.2l7.3 3.6 1.9 3.4-12.8-1.8z"/><path class="st103" d="M60.8 79.2s2.6-7.4 3.8-8.5l12.9 1.7-10.1 6.2-6.6.6z"/><path class="st104" d="M66.2 94.1l-5.3-14.9 6.6-.5 5.6 5.4s-1.7 1.2-2.4 2c-.1 0-3.5 3.1-4.5 8z"/><path class="st105" d="M59 94.1l1.8-14.9 5.4 14.9z"/><path class="st106" d="M64.6 105.2L59 94.1h7.2l-1.1 8.1z"/><path class="st107" d="M59 110l5.5-4.8s-.8 2.2-1.1 5.6l-.5 5.4-3 .3s-.4-.1-.8.8L59 110z"/><path class="st108" d="M59 94.1L57.6 110H59l5.6-4.8z"/><path class="st109" d="M134.1 109.5s3.2-3.2 1.7 5.9l-.5 5.2-.6-.6s-.3-5.5-.7-6.1l.1-4.4z"/><path class="st110" d="M134.2 125.1c.1.2.5 1.5.5 1.5s.1-1.4.2-1.6l.4-4.5-.6-.6s0 .6-.6.4c-.3-.1-.6-.2-.8.2-.1.3-.2.8-.3 1.1v.2l1.2 3.3z"/><path class="st111" d="M134.7 126.6l-1.7-4.9-1.9 14.6-.4 1.6 1.5-.6c.9-1.2 2.4-.1 2.5-10.7z"/><path class="st112" d="M101.6 120.5l2.9 2.3-1.7 1.8c-.1.1-1.2-1.9-1.2-4.1z"/><path class="st113" d="M106.1 119.9l5.2-2.1s0 2.5 1.4 3.1l-6.1-.5c.1-.1-1.2-.2-.5-.5zM117.9 117.7s.1 2.6-1.5 3.1c0 0 2.4-.4 4-1.4 0 0 1.3-1.2-2.5-1.7z"/><path class="st114" d="M132.4 116.2l-5.8 13.3s3.5-1.4 4.8-3c0 0 .9-1.2 1.2-4.5 0 0 .8-4.5-.2-5.8z"/><path class="st115" d="M118.5 131.1l6-11.2 4.9 3.2-2.8 6.4s-2.3 1.1-8.1 1.6z"/><path class="st116" d="M120.8 113.1l3.7 6.8 5.5-5.7s-3-1.1-9.2-1.1z"/><path class="st117" d="M104.4 122.9l4.5 3.3 2.3 4.6s-4.4-1.1-5.5-2.1c-1.1-1-.2-.2-.2-.2s-1.1-.4-2.8-3.8l1.7-1.8z"/><path class="st118" d="M118.5 131.1l-.9-8.7s3.8-.1 6.9-2.5l-6 11.2z"/><path class="st119" d="M117.6 122.4l-8.7 3.8 2.3 4.6s2.9.7 7.3.4l-.9-8.8z"/><path class="st120" d="M109.2 120.5l-.3 5.7 8.7-3.8-4.9-1.5z"/><path class="st121" d="M104.4 122.9l1.7-2.7 3.1.3-.3 5.7z"/><path class="st122" d="M109.4 118.6l-.1-1.6h3.9l1.2.4s-2.2 0-3.1.4l-1.9.8zM120.4 117.5l-1.9-.2-2.2-.2-3-.1 1.1.4h.2c.4 0 2.2.1 3.4.4 0 0 2.2.2 2.7 1 0 .1 0 .1.1.2l.1.1 2.3 1.5c.1.1.2.2.3.2 0 0 .4-.2.5-.3l.7-.5-.4-.7-2.4-1.2c-.2-.1-.9-.6-1.5-.6z"/><path class="st123" d="M120.6 121.8l-.7-2.1s.7-.2.7-.8l2.7 1.8s-1.9 1.1-2.7 1.1z"/><path class="st124" d="M117.6 122.4s2.3-.2 3-.6l-.7-2.1s-1.9.9-3.4 1.1c0 0-2.5.5-3.7 0l4.8 1.6z"/><path class="st125" d="M113.3 116.9l2.9-3.6s3.4-.3 4.6-.2l3.3 6.1-2.4-1.2s-.3-.3-.7-.4c-1.5-.5-7.9-.7-7.7-.7z"/><path class="st126" d="M109.3 116.9l-2.1-1.8s4.1-1.3 8.9-1.8l-2.9 3.6h-3.9z"/><path class="st127" d="M107.1 119.5l-5.1-1.4s.9-1.6 5.3-3l2.1 1.8.1 1.6-2.4 1z"/><path class="st128" d="M104.4 122.9l-2.9-2.3 4.4-1.4 1.2.3s-1.9.6-.9.7l-1.8 2.7z"/><path class="st129" d="M102 118.1s-.6 1.1-.5 2.4l4.1-1.4-3.6-1z"/><path class="st112" d="M92.1 120.5l-3.4 2.8 2.1 2.3s1.6-3.7 1.3-5.1z"/><path class="st113" d="M71.1 120.4s1.2-1.9 4-2.3c0 0 .2 3.7 2.8 3.7 0 0 4.1.6 4.4-3.5 0 0 2.2.3 2.1.9-.1.5-1.7 2.6-2.8 3.1-.6.3-4 1.6-9.3-.8-.1.1-1.9-.5-1.2-1.1z"/><path class="st122" d="M69.7 120.5c0-.2-.5-2.2 5.2-3 0 0 2.6-1 8.1.3l1.2 1.1s-.9-.5-1.9-.5c0 0-2.3-1.6-7.2-.2 0 0-2.8.5-4 2.3h-1.4z"/><path class="st130" d="M72 123.5s-2.3-2-2.3-3l1.4-.1s-.6.4.6.9l.3 2.2z"/><path class="st131" d="M74.5 122.4l-2.5 1.1-.3-2.2z"/><path class="st132" d="M77.1 123.9l-5.1-.4 2.5-1.1z"/><path class="st133" d="M80.8 122.4l-3.7 1.5-2.6-1.5s2.7 1 6.3 0z"/><path class="st114" d="M61.4 119.6l12 12.6s-7 0-9.8-3.2c-.1.1-2.5-3.1-2.2-9.4z"/><path class="st115" d="M72 123.5l1.4 8.8-7.4-7.8 3.7-4s-.2.8 2.3 3z"/><path class="st118" d="M77.1 123.9l-3.7 8.4-1.4-8.8z"/><path class="st119" d="M86 130.6c.2-.1-8.9-6.7-8.9-6.7l-3.7 8.4s7.5.5 12.6-1.7z"/><path class="st125" d="M76.2 117.2l-1.1-2.3s-3.5-.1-6.5.6l1.1 5s-.7-2.2 5.2-3c-.1 0 .9-.2 1.3-.3z"/><path class="st126" d="M83.2 115.6l-.2 2.1s-4.2-1-6.8-.5l-1.1-2.3s6.8.3 8.1.7z"/><path class="st129" d="M88.7 116.9v6.5l3.4-2.8c0-.1.4-2.7-3.4-3.7z"/><path class="st127" d="M84.4 119.2l4.4 4.2v-6.5s-3.2-1.2-5.5-1.3l-.2 2.1 1.2 1.1.1.4z"/><path class="st117" d="M86 130.6l-1.8-7.7 4.6.5 2.1 2.3c-.1-.1-1.2 3.7-4.9 4.9zM80.6 122.5l-3.5 1.4 8.9 6.7-1.8-7.7z"/><path class="st134" d="M136.5 108l-2.1-16.5-.2 18s2.6-2.6 1.9 3.6l.4-5.1z"/><path class="st135" d="M125.3 154.4l.1 7.4 11.1 4.4-7.9-18.7z"/><path class="st136" d="M128.6 147.5l7.4-7 .5 25.7z"/><path class="st137" d="M130.8 137.9l-2.3 9.6 7.5-7-1.7-8.1c.1.1.1 4.4-3.5 5.5z"/><path class="st138" d="M58.3 132.5l-.7 18.5 5-7.8s-.9-3.7-1.1-5.8c0-.1-2.3-1-3.2-4.9z"/><path class="st139" d="M67.4 156.2c-.8-.6-9.8-5.3-9.8-5.3l5-7.8s2.2 6.6 2.5 7c.4.5 2.2 3.1 2.2 3.1l.1 3z"/><path class="st140" d="M59.3 166.2c0-.4-1.7-15.2-1.7-15.2l6.4 3.2-4.7 12z"/><path class="st141" d="M68.2 162.4l-3.4 1-2.3-5.4 1.5-3.8 3.4 2z"/><path class="st142" d="M59.3 166.2l5.5-2.8-2.3-5.4z"/><path class="st143" d="M96.3 158.2l-3.6 4.4s2.4.9 3.8.8c1.4-.1 3.6-.4 4.3-.7l-4.5-4.5z"/><path class="st144" d="M103.8 156.3s-2.2 1.9-7.5 1.9l4.6 4.5 2.9-6.4z"/><path class="st145" d="M107.1 153.7l-3.2 2.6-3 6.4s3.3-1.3 4.7-2.6l1.5-6.4z"/><path class="st146" d="M111 152.3l-4 1.4-1.5 6.4c.1 0 4.1-3.3 5.5-7.8z"/><path class="st147" d="M88.5 155.7l4.3 6.8 3.6-4.4c-.1.1-5 0-7.9-2.4z"/><path class="st148" d="M85.8 153.4l.3 4.3s3.1 3.6 6.7 4.9l-4.3-6.8c0-.1-2.4-2-2.7-2.4z"/><path class="st149" d="M83.7 152l2.1 1.4.3 4.3-1.5-2-2.3-3.7-.4-.6z"/><path class="st150" d="M86.3 153.2l.9 1.4-1.4-1.2-.5-.4z"/><path class="st151" d="M92.2 153.7l-2.3-1.2s-4.3 0-6.1-.5l1.6 1 1.1.2 5.7.5z"/><path class="st152" d="M96.5 153.2l-4.4.4-2.3-1.2c0 .1 5.3.3 6.7.8z"/><path class="st153" d="M101.3 153.8l-4.7-.6-4.4.4c0 .1 2.7.7 9.1.2z"/><path class="st154" d="M103.1 152.7l-1.8 1.1-4.7-.6c-.1 0 4.1-.7 6.5-.5z"/><path class="st155" d="M107.2 153.6l-.7-.2v.8z"/><path class="st156" d="M105.6 152.7l.8.6.8.2 3.8-1.3c0 .1-2.9.5-5.4.5z"/><path class="st157" d="M101.3 153.8l5.2-.4-.9-.7h-2.5z"/><path class="st158" d="M92.4 157.6s-.7-1-.7-1.1v.2s-1.7.1-3.2-1.5l-1.4-.5 1.3 1.1c.1-.1 1.8 1.3 4 1.8z"/><path class="st159" d="M105 155.4l-.5-.3s-1.1 2-2.9 1.6c0 0-1 1-1.2 1.1-.1 0 2.8-.5 4.6-2.4z"/><path class="st160" d="M86.3 153.2l.8 1.4 1.4.5s1.3 1.5 3.2 1.5c0 0 .6.8.7 1 0 0 3.5 1.2 7.9.2.2-.1 1.2-1.1 1.2-1.1s1.6.6 2.9-1.6l.5.3 1.5-1.2v-.8l-5.2.5s-6.7.4-9.1-.2l-5.8-.5z"/><path class="st161" d="M65.1 150.1s5.3 7.7 6 8.5l13.5-2.9-2.4-3.7-17.1-1.9z"/><path class="st162" d="M96.5 163.4s9.8.3 14.5-11.1l4.2 15-18.7-3.9z"/><path class="st163" d="M131.2 136.4s-10.1 8.1-10.4 8.6l-.9-13.6 11.3 5z"/><path class="st164" d="M68.6 115.5l1.1 5-3.7 4-4.6-4.8s.4-1.9 1.2-2.3c.7-.4 4-1.6 6-1.9zM124.5 119.9l5.5-5.7s1.8.4 2.4 2l-3 6.9-4.9-3.2z"/><path class="st165" d="M82.3 118.3s-2.3-1.6-7.2-.2c0 0 0 3.5 2.8 3.7 0 0 4 .7 4.4-3.5z"/><path class="st166" d="M78.7 119.3s-2-.4-.6-1.5c0 0 1.1-.1 1.2.6.1.8-.4 1-.6.9z"/><path class="st165" d="M112.7 120.9s1.6.6 3.7 0c0 0 1.5-.3 1.5-3.1 0 0-3.6-1-6.6 0 0-.1.1 2.6 1.4 3.1z"/><path class="st166" d="M113.8 118.8s-1.1.2-1.2-.5c0 0-.2-.9 1.2-.8 0 0 .7.2.7.6 0 .1.1.8-.7.7z"/><path class="st135" d="M125.3 154.4l.1 7.4s-4.8-1.4-4.7-1.5c.1-.1 4.6-5.9 4.6-5.9zM67.2 153.2l.2 3 .8 6.2 5-1.3z"/><path class="st128" d="M80.6 122.5l8.1.9-4.6-4.5c0-.1-1.2 3-3.5 3.6z"/></svg>