<svg xmlns="http://www.w3.org/2000/svg" xmlns:xlink="http://www.w3.org/1999/xlink" width="192" height="234" viewBox="0 0 192 234"><style type="text/css">.st0{fill:#F2F2F2;} .st1{fill:#23A684;} .st2{clip-path:url(#SVGID_2_);} .st3{clip-path:url(#SVGID_4_);} .st4{clip-path:url(#SVGID_6_);fill:#473338;} .st5{clip-path:url(#SVGID_6_);fill:#422C38;} .st6{clip-path:url(#SVGID_6_);fill:#4F3736;} .st7{clip-path:url(#SVGID_6_);fill:#5F4142;} .st8{clip-path:url(#SVGID_6_);fill:#3E2837;} .st9{clip-path:url(#SVGID_6_);fill:#543430;} .st10{clip-path:url(#SVGID_6_);fill:#55382F;} .st11{clip-path:url(#SVGID_6_);fill:#372321;} .st12{clip-path:url(#SVGID_6_);fill:#432E28;} .st13{clip-path:url(#SVGID_6_);fill:#694A40;} .st14{clip-path:url(#SVGID_6_);fill:#644340;} .st15{clip-path:url(#SVGID_6_);fill:#936E59;} .st16{clip-path:url(#SVGID_6_);fill:#613C48;} .st17{clip-path:url(#SVGID_6_);fill:#643D4D;} .st18{clip-path:url(#SVGID_6_);fill:#63303C;} .st19{clip-path:url(#SVGID_6_);fill:#A16051;} .st20{clip-path:url(#SVGID_6_);fill:#886052;} .st21{clip-path:url(#SVGID_6_);fill:#976751;} .st22{clip-path:url(#SVGID_6_);fill:#C58C68;} .st23{clip-path:url(#SVGID_6_);fill:#DFA982;} .st24{clip-path:url(#SVGID_6_);fill:#AE7357;} .st25{clip-path:url(#SVGID_6_);fill:#7F4D42;} .st26{clip-path:url(#SVGID_6_);fill:#9C6B54;} .st27{clip-path:url(#SVGID_6_);fill:#DFB18F;} .st28{clip-path:url(#SVGID_6_);fill:#DBA480;} .st29{clip-path:url(#SVGID_6_);fill:#9A6353;} .st30{clip-path:url(#SVGID_6_);fill:#F0CDAA;} .st31{clip-path:url(#SVGID_6_);fill:#F0C5A3;} .st32{clip-path:url(#SVGID_6_);fill:#DBA384;} .st33{clip-path:url(#SVGID_6_);fill:#E3A27C;} .st34{clip-path:url(#SVGID_6_);fill:#FEC9B2;} .st35{clip-path:url(#SVGID_6_);fill:#E6AF95;} .st36{clip-path:url(#SVGID_6_);fill:#F9C4AC;} .st37{clip-path:url(#SVGID_6_);fill:#DA9B8E;} .st38{clip-path:url(#SVGID_6_);fill:#DEA97D;} .st39{clip-path:url(#SVGID_6_);fill:#EAB794;} .st40{clip-path:url(#SVGID_6_);fill:#E1A884;} .st41{clip-path:url(#SVGID_6_);fill:#B6765E;} .st42{clip-path:url(#SVGID_6_);fill:#E1A17E;} .st43{clip-path:url(#SVGID_6_);fill:#E29C9C;} .st44{clip-path:url(#SVGID_6_);fill:#EDA2A5;} .st45{clip-path:url(#SVGID_6_);fill:#EA9B9F;} .st46{clip-path:url(#SVGID_6_);fill:#6C4042;} .st47{clip-path:url(#SVGID_6_);fill:#521C25;} .st48{clip-path:url(#SVGID_6_);fill:#D86D6E;} .st49{clip-path:url(#SVGID_6_);fill:#CB6B6C;} .st50{clip-path:url(#SVGID_6_);fill:#C06060;} .st51{clip-path:url(#SVGID_6_);fill:#883E4A;} .st52{clip-path:url(#SVGID_6_);fill:#8E5B5A;} .st53{clip-path:url(#SVGID_6_);fill:#DF9B7E;} .st54{clip-path:url(#SVGID_6_);fill:#FFD2B3;} .st55{clip-path:url(#SVGID_6_);fill:#F8C8AB;} .st56{clip-path:url(#SVGID_6_);fill:#F4C3A6;} .st57{clip-path:url(#SVGID_6_);fill:#E8B79B;} .st58{clip-path:url(#SVGID_6_);fill:#E0A590;} .st59{clip-path:url(#SVGID_6_);fill:#B87771;} .st60{clip-path:url(#SVGID_6_);fill:#AE6B5A;} .st61{clip-path:url(#SVGID_6_);fill:#B17862;} .st62{clip-path:url(#SVGID_6_);fill:#9B6957;} .st63{clip-path:url(#SVGID_6_);fill:#A7755F;} .st64{clip-path:url(#SVGID_6_);fill:#AD7B61;} .st65{clip-path:url(#SVGID_6_);fill:#BB7A63;} .st66{clip-path:url(#SVGID_6_);fill:#B48A6B;} .st67{clip-path:url(#SVGID_6_);fill:#E7B591;} .st68{clip-path:url(#SVGID_6_);fill:#EDB88F;} .st69{clip-path:url(#SVGID_6_);fill:#BA806E;} .st70{clip-path:url(#SVGID_6_);fill:#EEC8AB;} .st71{clip-path:url(#SVGID_6_);fill:#FBDCBD;} .st72{clip-path:url(#SVGID_6_);fill:#E5A785;} .st73{clip-path:url(#SVGID_6_);fill:#F9D2B2;} .st74{clip-path:url(#SVGID_6_);fill:#EEC096;} .st75{clip-path:url(#SVGID_6_);fill:#F9DCB5;} .st76{clip-path:url(#SVGID_6_);fill:#F6D1B5;} .st77{clip-path:url(#SVGID_6_);fill:#FEE1C8;} .st78{clip-path:url(#SVGID_6_);fill:#F2C3A1;} .st79{clip-path:url(#SVGID_6_);fill:#F8DDC0;} .st80{clip-path:url(#SVGID_6_);fill:#F9D9BD;} .st81{clip-path:url(#SVGID_6_);fill:#ECBE9B;} .st82{clip-path:url(#SVGID_6_);fill:#F6CEAB;} .st83{clip-path:url(#SVGID_6_);fill:#FBE5C8;} .st84{clip-path:url(#SVGID_6_);fill:#EFBEA0;} .st85{clip-path:url(#SVGID_6_);fill:#EDCCAB;} .st86{clip-path:url(#SVGID_6_);fill:#FDE7CC;} .st87{clip-path:url(#SVGID_6_);fill:#E0B082;} .st88{clip-path:url(#SVGID_6_);fill:#C08167;} .st89{clip-path:url(#SVGID_6_);fill:#380D24;} .st90{clip-path:url(#SVGID_6_);fill:#3A1025;} .st91{clip-path:url(#SVGID_6_);fill:#3C1828;} .st92{clip-path:url(#SVGID_6_);fill:#4F1C2F;} .st93{clip-path:url(#SVGID_6_);fill:#EDC49D;} .st94{clip-path:url(#SVGID_6_);fill:#CC8A70;} .st95{clip-path:url(#SVGID_6_);fill:#DB9D85;} .st96{clip-path:url(#SVGID_6_);fill:#E8CEB3;} .st97{clip-path:url(#SVGID_6_);fill:#F0C4A3;} .st98{clip-path:url(#SVGID_6_);fill:#F4D8B7;} .st99{clip-path:url(#SVGID_6_);fill:#FDDDC1;} .st100{clip-path:url(#SVGID_6_);fill:#FCE8D0;} .st101{clip-path:url(#SVGID_6_);fill:#EFC6A3;} .st102{clip-path:url(#SVGID_6_);fill:#F1CBA6;} .st103{clip-path:url(#SVGID_6_);fill:#FCE0BE;} .st104{clip-path:url(#SVGID_6_);fill:#F4CBA7;} .st105{clip-path:url(#SVGID_6_);fill:#B48D8E;} .st106{clip-path:url(#SVGID_6_);fill:#351622;} .st107{clip-path:url(#SVGID_6_);fill:#90524E;} .st108{clip-path:url(#SVGID_6_);fill:#E3AD93;} .st109{clip-path:url(#SVGID_6_);fill:#593539;} .st110{clip-path:url(#SVGID_6_);fill:#E5A28C;} .st111{clip-path:url(#SVGID_6_);fill:#AA6D60;} .st112{clip-path:url(#SVGID_6_);fill:#AA6856;} .st113{clip-path:url(#SVGID_6_);fill:#905459;} .st114{clip-path:url(#SVGID_6_);fill:#633B42;} .st115{clip-path:url(#SVGID_6_);fill:#774C48;} .st116{clip-path:url(#SVGID_6_);fill:#925049;} .st117{clip-path:url(#SVGID_6_);fill:#3E1E35;} .st118{clip-path:url(#SVGID_6_);fill:#402231;} .st119{clip-path:url(#SVGID_6_);fill:#4B2D3E;} .st120{clip-path:url(#SVGID_6_);fill:#4E2B2E;} .st121{clip-path:url(#SVGID_6_);fill:#5A2A29;} .st122{clip-path:url(#SVGID_6_);fill:#7A4444;} .st123{clip-path:url(#SVGID_6_);fill:#F0BFA1;} .st124{clip-path:url(#SVGID_6_);fill:#B37665;} .st125{clip-path:url(#SVGID_6_);fill:#EAB395;} .st126{clip-path:url(#SVGID_6_);fill:#C78973;} .st127{clip-path:url(#SVGID_6_);fill:#EEBD9D;} .st128{clip-path:url(#SVGID_6_);fill:#DFB086;} .st129{opacity:0.5;clip-path:url(#SVGID_6_);} .st130{clip-path:url(#SVGID_8_);fill:#CCCCCC;} .st131{clip-path:url(#SVGID_10_);fill:#CCCCCC;} .st132{clip-path:url(#SVGID_6_);fill:#301631;} .st133{clip-path:url(#SVGID_6_);fill:#B99085;} .st134{clip-path:url(#SVGID_6_);fill:#592D2E;} .st135{clip-path:url(#SVGID_6_);fill:#DB9980;} .st136{clip-path:url(#SVGID_6_);fill:#E9B089;} .st137{clip-path:url(#SVGID_6_);fill:#E5AC8B;} .st138{clip-path:url(#SVGID_6_);fill:#46273E;} .st139{clip-path:url(#SVGID_6_);fill:#3A1C36;} .st140{clip-path:url(#SVGID_6_);fill:#361F3D;} .st141{clip-path:url(#SVGID_6_);fill:#352034;} .st142{clip-path:url(#SVGID_6_);fill:#492A2E;} .st143{clip-path:url(#SVGID_6_);fill:#734F4D;} .st144{clip-path:url(#SVGID_6_);fill:#593337;} .st145{clip-path:url(#SVGID_6_);fill:#CE9273;} .st146{clip-path:url(#SVGID_6_);fill:#A66652;} .st147{clip-path:url(#SVGID_6_);fill:#A06352;} .st148{clip-path:url(#SVGID_6_);fill:#AE766C;} .st149{clip-path:url(#SVGID_6_);fill:#B88B78;} .st150{clip-path:url(#SVGID_6_);fill:#88646D;} .st151{clip-path:url(#SVGID_6_);fill:#E6B48C;} .st152{clip-path:url(#SVGID_6_);fill:#E7AF85;} .st153{clip-path:url(#SVGID_6_);fill:#DEB999;} .st154{clip-path:url(#SVGID_6_);fill:#F3D7B3;} .st155{clip-path:url(#SVGID_6_);fill:#F3C79D;} .st156{clip-path:url(#SVGID_6_);fill:#D5907C;} .st157{clip-path:url(#SVGID_6_);fill:#442431;} .st158{clip-path:url(#SVGID_6_);fill:#381D3A;} .st159{clip-path:url(#SVGID_6_);fill:#FADFC2;} .st160{clip-path:url(#SVGID_6_);fill:#F7DFBD;} .st161{clip-path:url(#SVGID_6_);fill:#F1CEAA;} .st162{clip-path:url(#SVGID_6_);fill:#F8DFC4;} .st163{clip-path:url(#SVGID_6_);fill:#FCE9CE;} .st164{clip-path:url(#SVGID_6_);fill:#FDE4C6;} .st165{clip-path:url(#SVGID_6_);fill:#FDE6C9;} .st166{clip-path:url(#SVGID_6_);fill:#FBE5CB;} .st167{clip-path:url(#SVGID_6_);fill:#751F34;} .st168{clip-path:url(#SVGID_6_);fill:#75172F;} .st169{clip-path:url(#SVGID_6_);fill:#E7C5B2;} .st170{clip-path:url(#SVGID_6_);fill:#FAC0A5;} .st171{clip-path:url(#SVGID_6_);fill:#EFA490;} .st172{clip-path:url(#SVGID_6_);fill:#CF8C78;} .st173{clip-path:url(#SVGID_6_);fill:#EBCFBD;} .st174{clip-path:url(#SVGID_6_);fill:#4F3C3F;} .st175{clip-path:url(#SVGID_6_);fill:#917765;} .st176{clip-path:url(#SVGID_6_);fill:#605A58;} .st177{clip-path:url(#SVGID_6_);fill:#494945;} .st178{clip-path:url(#SVGID_6_);fill:#111328;} .st179{clip-path:url(#SVGID_6_);fill:#201E35;} .st180{clip-path:url(#SVGID_6_);fill:#2A2239;} .st181{clip-path:url(#SVGID_6_);fill:#191A30;} .st182{clip-path:url(#SVGID_6_);fill:#322334;} .st183{clip-path:url(#SVGID_6_);fill:#26273C;} .st184{clip-path:url(#SVGID_6_);fill:#4E3844;} .st185{clip-path:url(#SVGID_6_);fill:#504556;} .st186{clip-path:url(#SVGID_6_);fill:#3F3E3F;} .st187{clip-path:url(#SVGID_6_);fill:#433A3C;} .st188{clip-path:url(#SVGID_6_);fill:#4A4440;} .st189{clip-path:url(#SVGID_6_);fill:#332537;} .st190{clip-path:url(#SVGID_6_);fill:#41372C;} .st191{clip-path:url(#SVGID_6_);fill:#372D2F;} .st192{clip-path:url(#SVGID_6_);fill:#393333;} .st193{clip-path:url(#SVGID_6_);fill:#533D48;} .st194{clip-path:url(#SVGID_6_);fill:#3C2939;} .st195{clip-path:url(#SVGID_6_);fill:#6E6560;} .st196{clip-path:url(#SVGID_6_);fill:#3E2C3E;} .st197{clip-path:url(#SVGID_6_);fill:#372941;} .st198{clip-path:url(#SVGID_6_);fill:#544952;} .st199{clip-path:url(#SVGID_6_);fill:#80786F;} .st200{clip-path:url(#SVGID_6_);fill:#746F71;} .st201{clip-path:url(#SVGID_6_);fill:#494148;} .st202{clip-path:url(#SVGID_6_);fill:#36323C;} .st203{clip-path:url(#SVGID_6_);fill:#635F56;} .st204{clip-path:url(#SVGID_6_);fill:#493843;} .st205{clip-path:url(#SVGID_6_);fill:#927058;} .st206{clip-path:url(#SVGID_6_);fill:#3E333F;} .st207{clip-path:url(#SVGID_6_);fill:#402F3A;} .st208{clip-path:url(#SVGID_6_);fill:#44393A;} .st209{clip-path:url(#SVGID_6_);fill:#473E3B;} .st210{clip-path:url(#SVGID_6_);fill:#462D30;} .st211{clip-path:url(#SVGID_6_);fill:#64263D;} .st212{clip-path:url(#SVGID_6_);fill:#883F40;} .st213{clip-path:url(#SVGID_6_);fill:#CB8D74;} .st214{clip-path:url(#SVGID_6_);fill:#783F56;} .st215{clip-path:url(#SVGID_6_);fill:#BD9589;} .st216{clip-path:url(#SVGID_6_);fill:#C08B86;} .st217{clip-path:url(#SVGID_12_);fill:#CCCCCC;} .st218{clip-path:url(#SVGID_14_);fill:#CCCCCC;} .st219{clip-path:url(#SVGID_6_);fill:#835448;} .st220{clip-path:url(#SVGID_6_);fill:#E4B185;} .st221{clip-path:url(#SVGID_6_);fill:#543849;} .st222{clip-path:url(#SVGID_6_);fill:#EDC19B;} .st223{clip-path:url(#SVGID_6_);fill:#8F5C5E;} .st224{clip-path:url(#SVGID_6_);fill:#B17469;} .st225{clip-path:url(#SVGID_6_);fill:#F3BDA4;} .st226{clip-path:url(#SVGID_6_);fill:#D7A087;} .st227{clip-path:url(#SVGID_6_);fill:#E17778;} .st228{clip-path:url(#SVGID_6_);fill:#BD816B;}</style><path class="st0" d="M0 0h192v234H0z"/><path class="st1" d="M192 215.5L172.5 234H192z"/><defs><path id="SVGID_1_" d="M3.4 48.7h188.9v188.9H3.4z"/></defs><clipPath id="SVGID_2_"><use xlink:href="#SVGID_1_" overflow="visible"/></clipPath><g class="st2"><defs><path id="SVGID_3_" d="M3.4 48.7h188.9v188.9H3.4z"/></defs><clipPath id="SVGID_4_"><use xlink:href="#SVGID_3_" overflow="visible"/></clipPath><g class="st3"><defs><path id="SVGID_5_" d="M3.4 48.7h188.9v188.9H3.4z"/></defs><clipPath id="SVGID_6_"><use xlink:href="#SVGID_5_" overflow="visible"/></clipPath><path class="st4" d="M93 181c-3.7-.4-7.9-1.9-8-2l9.1-9-1.1 11zM94.2 170.1l-9.1 9s4.2 1.5 8 2l1.1-11z"/><path class="st5" d="M93.4 181h-.3l1.1-10.9 7.2 9.2c-5.5 1.5-7.4 1.7-8 1.7M101.3 179.3l-7.1-9.2L93 181s.7.4 8.3-1.7"/><path class="st6" d="M104.8 170.1l5.1 6.4c-.1 0-6.7 2.3-8.6 2.8l3.5-9.2zM109.9 176.5s-6.7 2.3-8.5 2.8l3.5-9.2 5 6.4z"/><path class="st7" d="M104.8 170.1l9-.1-3.9 6.5zM113.8 170.1l-3.9 6.4-5.1-6.4z"/><path class="st8" d="M113.8 170h7.2c-4.8 4.2-11 6.5-11.1 6.5l3.9-6.5zM120.9 170.1h-7.1l-3.9 6.4s6.1-2.2 11-6.4"/><path class="st9" d="M109.9 170.1l16.8-8.9c-2.1 5-5.7 8.8-5.7 8.9h-11.1zM126.7 161.2l-16.8 8.8H121c-.1.1 3.6-3.7 5.7-8.8"/><path class="st10" d="M94.2 170.1l10.6-.1-3.5 9.3zM104.8 170.1H94.2l7.1 9.2z"/><path class="st11" d="M86 168.4l8.2 1.6-9.2 9.1zM86 168.4l-.9 10.6 9.1-8.9z"/><path class="st12" d="M85.1 179c-1.5-.5-10.6-6.4-10.7-6.4l11.6-4.2-.9 10.6zM74.4 172.6s9.1 5.9 10.6 6.4l1-10.6-11.6 4.2z"/><path class="st13" d="M78.2 162.3c4.6 5.7 7.3 6 7.8 6h.1l-11.7 4.2 3.8-10.2zM78.2 162.4l-3.8 10.2 11.6-4.2s-2.6.4-7.8-6"/><path class="st14" d="M74.4 172.6c-3.5-2.2-7.5-10.2-7.6-10.2h11.4l-3.8 10.2zM66.8 162.4s4.1 8 7.6 10.2l3.8-10.2H66.8z"/><path class="st15" d="M122.1 163.6l9.3-13.9c-.2 2.1-4.7 11.4-4.7 11.5l-4.6 2.4zM131.4 149.7l-9.3 13.9 4.5-2.4c.1 0 4.6-9.4 4.8-11.5"/><path class="st16" d="M86 159.8l5.5-2.1v5.4zM91.5 157.7l-5.5 2.1 5.5 3.3z"/><path class="st17" d="M91.5 163.1l4.6-5.4 1.1 5.4zM96.1 157.7l-4.6 5.4h5.7z"/><path class="st18" d="M96.1 157.7l6.6.9-5.5 4.5zM102.7 158.6l-5.5 4.5-1.1-5.4z"/><path class="st19" d="M85 157.7h6.5l-5.5 2.1zM85.1 157.7l.9 2.1 5.5-2.1z"/><path class="st20" d="M66.8 162.4c-.4-.7-4.5-15.3-4.5-15.4l11 15.4h-6.5zM62.4 146.9s4.1 14.7 4.5 15.4h6.4l-10.9-15.4z"/><path class="st21" d="M113.8 161.2l7.1 3-11.1 5.9zM113.8 161.2l-3.9 8.9 11-5.9z"/><path class="st22" d="M112.6 155.3h3.6l-2.4 6zM112.7 155.3l1.1 5.9 2.4-5.9z"/><path class="st23" d="M113.8 161.2l2.4-5.9 1.9 7.8zM118.1 163.1l-1.9-7.8-2.4 5.9z"/><path class="st24" d="M112.7 155.4l1.1-3.3 2.4 3.3zM113.8 152.1l-1.1 3.2h3.5z"/><path class="st25" d="M78.2 153l-1 5.8-5.7 1.1zM78.2 153l-6.7 6.8 5.7-1z"/><path class="st26" d="M62.4 146.9l-1.9-15.1 6.4 21.5h-.1zM60.5 131.8l1.9 15.1 4.4 6.4z"/><path class="st27" d="M130.2 140.5l2.6-1.4-1.3 10.6-1.3 2zM130.2 140.5v11.1l1.2-1.9 1.4-10.6z"/><path class="st28" d="M132.8 130.5l.1 8.6-2.7 1.4zM132.8 130.5l-2.6 10 2.6-1.4z"/><path class="st29" d="M102.7 158.6l-1.4 3.8-4.2.7zM101.3 162.4l-4.1.7 5.5-4.5z"/><path class="st30" d="M104.8 170.1l-3.5-7.7 12.5-1.2-3.9 8.9zM104.8 170.1l-3.5-7.7 12.5-1.2-3.9 8.9z"/><path class="st31" d="M94.2 170.1l-2.7-7 5.7-.1 4.1-.7 3.5 7.8zM94.2 170.1l-2.7-7h5.7l4.1-.7 3.5 7.7z"/><path class="st32" d="M86 168.4l5.5-5.4 2.7 7.1zM86 168.4l5.5-5.3 2.7 7z"/><path class="st33" d="M77.2 158.8l1-5.8 6.9 4.7-6.9 4.7zM78.2 153l6.9 4.7-6.9 4.7-1-3.6z"/><path class="st34" d="M96.1 157.7h-4.6l6.6-4c.1 0 6.4-.5 8.6-.5l-4.1 5.3-6.5-.8zM91.5 157.7l6.7-4s6.4-.5 8.6-.5l-4.1 5.3-6.6-.8h-4.6z"/><path class="st35" d="M78.2 153c1.3.4 11.8.7 11.9.7l-5 4-6.9-4.7zM85.1 157.7l5-4s-10.6-.4-11.9-.8l6.9 4.8z"/><path class="st36" d="M90.1 153.7h8.1l-6.7 4.1zM98.2 153.7h-8.1l1.4 4z"/><path class="st37" d="M85.1 157.7l5-4 1.4 4zM85.1 157.7l5-4 1.4 4z"/><path class="st38" d="M118.1 163.1l-1.9-7.8 14-3.7-8.1 12-1.2.7zM130.2 151.6l-14 3.7 1.9 7.8 2.8 1.1 1.2-.6z"/><path class="st39" d="M130.2 140.5v11.1l-14.1 3.8zM130.2 140.5l-14 14.8 14-3.7z"/><path class="st40" d="M66.8 153.3l4.7-10.8 4.4 12.8-4.4 4.6zM71.5 142.5l-4.7 10.8 4.7 6.5 4.4-4.5z"/><path class="st41" d="M75.1 153.3l2.1-6.4 1 6.1-2.3 2.4zM77.2 146.9l-2 6.4.7 2 2.3-2.3z"/><path class="st42" d="M60.5 131.8l11 10.7-4.7 10.8zM71.5 142.5l-11-10.7 6.3 21.5z"/><path class="st43" d="M90.1 153.8c-.1 0-10.5-.2-11.9-.8.1 0 8.7-1.3 10.6-1.4l1.3 2.2zM78.2 153s8.7-1.3 10.6-1.3l1.3 2.1c0-.1-10.5-.3-11.9-.8"/><path class="st44" d="M90.1 153.7l7.1-2.1 13.9 1.6c-1.4.1-20.8.5-21 .5zM97.2 151.6l-7.1 2.1s19.6-.5 21-.5l-13.9-1.6z"/><path class="st45" d="M88.8 151.6h8.4l-7.1 2.2zM88.8 151.6h8.4l-7.1 2.1z"/><path class="st46" d="M111.1 153.3l-13.3-1.7 16 .5-1.1 3.3zM113.8 152.1l-16-.5 13.3 1.7 1.6 2z"/><path class="st47" d="M77.9 151.2l19.3.4h-8.4L78.2 153zM77.9 151.2l19.3.4h-8.4L78.2 153z"/><path class="st48" d="M102.7 151.8l-4.9-3.9s.2-.1.6-.1c1.7 0 6.2.4 11.4 4.1l-7.1-.1zM97.8 147.9s5.4-.6 12 4.1l-7.1-.2-4.9-3.9zM92.1 151.5l3.1-3.2 2 3.3zM92.1 151.5l3.1-3.2 2 3.3z"/><path class="st49" d="M90.8 147.5h.2c.8 0 3.3.1 4.2.8l-3.1 3.3-1.3-4.1zM90.8 147.5s3.3-.1 4.4.8l-3.1 3.2-1.3-4z"/><path class="st50" d="M88.3 151.4l-2.7-3.1s2.9-.9 4.6-.9c.3 0 .5 0 .7.1l1.3 4.1-3.9-.2zM85.6 148.3s3.8-1.2 5.2-.8l1.3 4.1-3.8-.1-2.7-3.2z"/><path class="st51" d="M77.9 151.2c.1-.1 7-2.7 7.7-2.9l2.7 3.2-10.4-.3zM77.9 151.2s7-2.7 7.7-2.9l2.7 3.1-10.4-.2z"/><path class="st52" d="M109.9 152l1.2-5.1 5.1 3-2.4 2.2zM109.9 152l1.2-5.1 5.1 3.1-2.4 2.1z"/><path class="st53" d="M84.3 148.8l2.7-3.4 3.8 2.1s-4.6 0-6.5 1.3zM84.3 148.8l2.7-3.4 3.8 2.1s-4.6 0-6.5 1.3"/><path class="st54" d="M95.2 148.3c-.5-.8-3.9-.8-4.3-.8h-.1l5.3-2.6 1.7 3-2.6.4zM96.1 144.9l-5.3 2.6s3.9 0 4.4.8l2.6-.4-1.7-3z"/><path class="st55" d="M87 145.4s3.8-.7 6.8-.7c1 0 1.8.1 2.4.2l-5.3 2.6-3.9-2.1zM87 145.4s6.4-1.2 9.1-.5l-5.3 2.6-3.8-2.1z"/><path class="st56" d="M96.1 144.9s.1-.2 1-.2 2.4.2 4.2.6l-3.5 2.6-1.7-3zM101.3 145.4l-3.5 2.6-1.7-3c0-.1.5-.7 5.2.4"/><path class="st57" d="M103.8 148.9c-1.9-.9-6-1-6-1l3.5-2.6 2.5 3.6zM103.8 148.9l-2.5-3.5-3.5 2.6c0-.1 4.1 0 6 .9"/><path class="st58" d="M101.3 145.4c.1 0 4.2 1.8 5.5 2.9l-3 .6-2.5-3.5zM106.8 148.3l-2.9.6-2.5-3.5c-.1 0 4.1 1.7 5.4 2.9"/><path class="st59" d="M109.9 152c-1.2-1.2-6-3.1-6-3.1l2.9-.6 3.1 3.7zM109.9 152l-3.1-3.7-2.9.6c-.1 0 4.7 1.8 6 3.1"/><path class="st60" d="M77.2 146.9l7.1-4.4 2.7 2.8-2.7 3.5-6.4 2.4zM84.3 142.5l-7.1 4.4.7 4.3 6.4-2.4 2.7-3.4z"/><path class="st61" d="M84.3 142.5l7.2-4.1-4.5 7zM91.5 138.4l-7.2 4.1 2.7 2.9z"/><path class="st62" d="M91.5 138.4l2.3-.7 2.3 7.2c-.6-.2-1.4-.2-2.4-.2-2.9 0-6.7.7-6.7.7l4.5-7zM93.8 137.7l-2.3.7-4.5 7s6.4-1.3 9.1-.5l-2.3-7.2z"/><path class="st63" d="M93.8 137.7h.2c.9 0 4.2.1 5.4.7l-3.3 6.5-2.3-7.2zM99.4 138.4l-3.3 6.5-2.3-7.2s4.3 0 5.6.7"/><path class="st64" d="M106.8 148.3c-.5-.6-5.4-2.9-5.5-2.9-2.1-.4-3.5-.5-4.3-.5h-.8l3.3-6.5h4.4l2.9 9.9zM103.8 138.4h-4.4l-3.3 6.5s1.5-.3 5.2.5c0 0 5 2.4 5.5 2.9l-3-9.9z"/><path class="st65" d="M106.8 148.3l4.3-1.4-1.2 5.1zM111.1 146.9l-4.3 1.4 3.1 3.7z"/><path class="st66" d="M103.8 138.4c.1.1 4.5 6.9 7.3 8.5l-4.4 1.4-2.9-9.9zM103.8 138.4s4.5 6.9 7.3 8.5l-4.3 1.4-3-9.9z"/><path class="st67" d="M113.8 152.1l2.4-2.2 3.1 2.1-3.1 3.4zM119.3 152l-3.1-2-2.4 2.1 2.4 3.2z"/><path class="st68" d="M71.5 142.5l5.7 4.4-2 6.4zM77.2 146.9l-5.7-4.4 3.7 10.8z"/><path class="st69" d="M87 137.7l4.5.7-7.3 4.2zM91.5 138.4l-4.5-.7-2.7 4.8z"/><path class="st70" d="M71.5 142.5l12.8-9.9c0 .1 1 4.8 2.8 5l-2.7 4.9-7.1 4.4-5.8-4.4zM84.3 132.6s1 4.8 2.7 5l-2.7 4.8-7.1 4.4-5.7-4.4 12.8-9.8z"/><path class="st71" d="M75.1 120.7l9.2 11.9-12.8 10zM75.2 120.7l-3.7 21.8 12.8-9.9z"/><path class="st72" d="M60.5 131.8l7.3-5.5 3.7 16.3zM67.8 126.3l-7.3 5.5 11 10.7z"/><path class="st73" d="M67.8 126.3l7.4-5.6-3.7 21.8zM75.2 120.7l-7.4 5.6 3.7 16.2z"/><path class="st74" d="M60.5 118.9l7.3 7.4-7.3 5.5zM60.5 118.9v12.9l7.3-5.5z"/><path class="st75" d="M60.5 118.9l7.3-2 7.4 3.8-7.4 5.7zM75.2 120.7l-7.4-3.7-7.3 1.9 7.3 7.4z"/><path class="st76" d="M75.2 120.7l14-3.8c0 .2-4.6 14.2-4.9 15.7l-9.1-11.9zM89.2 117s-4.6 14.2-4.9 15.7l-9.1-11.9 14-3.8z"/><path class="st77" d="M111.1 147c-2.3-1.4-7.2-8.5-7.3-8.6 1.5 0 5.1-3.9 5.1-4l2.2 12.6zM109 134.4s-3.6 4-5.1 4c0 0 5 7.2 7.3 8.5l-2.2-12.5z"/><path class="st78" d="M116.2 150l-5.1-3 19.1-6.5-10.9 11.5zM130.2 140.5l-19.1 6.4 5.1 3.1 3.1 2z"/><path class="st79" d="M108.9 134.4l4.9-13.7 6.9 23-9.6 3.3zM113.8 120.7l-4.8 13.7 2.1 12.5 9.6-3.2z"/><path class="st80" d="M113.8 120.7l15.5 7.4-8.7 15.7zM129.3 128.2l-8.6 15.5-6.9-23z"/><path class="st81" d="M130.2 140.5l-.9-12.3 3.6 2.3-2.7 10zM132.8 130.5l-3.5-2.3.9 12.3z"/><path class="st82" d="M129.3 128.2l.9 12.3-9.6 3.2zM120.7 143.7l8.6-15.5.9 12.3z"/><path class="st83" d="M113.8 120.8l8.3-4.6 10.7 4.5-3.5 7.5zM122.1 116.3l-8.3 4.4 15.5 7.5 3.5-7.5z"/><path class="st84" d="M129.3 128.2l3.5-7.5.1 9.9zM132.8 130.5v-9.8l-3.5 7.5z"/><path class="st85" d="M122.1 116.3l10.7-6.1.1 10.6zM132.8 110.2l-10.7 6.1 10.7 4.4z"/><path class="st86" d="M102.7 117.8l11.1 2.9-4.5 12.8zM102.7 117.8l6.6 15.6 4.5-12.7z"/><path class="st87" d="M60.5 107.6l7.3 9.3-7.3 2zM60.5 107.6v11.3l7.3-1.9z"/><path class="st88" d="M60.5 107.6H66l1.8 9.4zM66 107.6l1.8 9.4-7.3-9.4z"/><path class="st89" d="M90.1 135l.7-2.4 3 1.2-1.7 1.2zM90.8 132.6l-.7 2.3h2l1.7-1.1z"/><path class="st90" d="M88.8 135l-.5-.7.5-.9 2-.8-.7 2.4zM88.3 134.3l.5-.9 2-.8-.7 2.3h-1.3z"/><path class="st91" d="M100.6 135.5l-1.2-1.7 1.9-.7 1.9.3-1 2.1zM99.4 133.8l1.2 1.7h1.6l1-2.1-1.9-.3z"/><path class="st92" d="M103.2 133.4l.9.4.9.7.4.4-3.2.6zM105.4 134.9l-3.2.6 1-2.1.8.4 1 .7z"/><path class="st69" d="M87 137.7l1.3-3.4.6.6h1.2l3.7 2.8-2.3.7zM87 137.7l1.3-3.4.5.6h1.3l3.7 2.8-2.3.7z"/><path class="st40" d="M100.6 135.5h1.6l3.2-.6.4 2.5c-.4.4-2 1-2 1l-3.2-2.9zM100.6 135.5l3.2 2.9s1.5-.6 2-1l-.4-2.5-3.2.6h-1.6z"/><path class="st21" d="M99.4 138.4l1.2-2.9 3.3 2.9zM99.4 138.4l1.2-2.9 3.2 2.9z"/><path class="st77" d="M105.4 134.9l3.5-.5-3.1 3zM109 134.4l-3.6.5.4 2.5z"/><path class="st63" d="M99.4 138.4c-.9-.7-4.7-.7-5.4-.7h-.2l5.6-3.9 1.2 1.7-1.2 2.9zM99.4 133.8l-5.6 3.9s4.6 0 5.6.7l1.2-2.9-1.2-1.7z"/><path class="st68" d="M96.1 131.6l3.3 2.2-5.6.1zM96.1 131.6l-2.3 2.2h5.6z"/><path class="st93" d="M90.8 132.7l1.8-3.2 3.5 2.1-2.3 2.3zM92.6 129.5l-1.8 3.1 3 1.2 2.3-2.2z"/><path class="st94" d="M87 137.7c-.1 0-1.5-.1-2.8-5.1h6.5l-2 .8-.5.9-1.2 3.4zM84.3 132.6h6.5l-2 .8-.5.9-1.3 3.4s-1.4-.1-2.7-5.1"/><path class="st95" d="M84.3 132.7l8.3-3.2-1.8 3.2zM92.6 129.5l-8.3 3.1h6.5z"/><path class="st93" d="M92.6 129.5l10.1.6-6.6 1.6zM102.7 130.1l-10.1-.6 3.5 2.1z"/><path class="st96" d="M105.4 134.9c-.1-.6-2.1-1.5-2.1-1.5l-.5-3.4 6.3 4.3-3.7.6zM109 134.4l-6.2-4.4.5 3.4s2 .9 2.1 1.5l3.6-.5z"/><path class="st97" d="M85.6 128.3l3.6-11.4 2.9 3.8-6.5 7.6zM92.1 120.7l-6.5 7.6 3.6-11.3z"/><path class="st98" d="M102.7 130.1l-5.5-.3 5.5-12 6.6 15.6-.3 1.1zM102.7 117.8l-5.5 12 5.5.3 6.3 4.3.3-1z"/><path class="st99" d="M85.6 128.3l6.5-7.6 5.1 9.1-4.6-.3-8.3 3.2zM92.1 120.7l5.1 9.1-4.6-.3-8.3 3.1 1.3-4.3z"/><path class="st100" d="M92.1 120.7l4-16.8 6.6 13.9-5.5 12zM96.1 103.9l-4 16.8 5.1 9.1 5.5-12z"/><path class="st101" d="M89.2 117l1.6-8 2.4 7.2-1.1 4.6zM90.8 109l-1.6 8 2.9 3.7 1.1-4.4z"/><path class="st102" d="M96.1 103.9l4.5-1.2-.2 10.1h-.1zM100.6 102.7l-.2 10.1-4.3-8.9z"/><path class="st103" d="M90.8 109l-.1-5.1h5.4l-2.9 12.4zM90.7 103.9l.1 5.1 2.4 7.3 2.9-12.4z"/><path class="st104" d="M102.7 117.8l1.6-2.3 9.5 5.2v.1zM104.3 115.5l-1.6 2.3 11.1 2.9z"/><path class="st105" d="M111 117c-1.7-.1-6.6-1.5-6.7-1.5.9-1.3 4.6-3.2 4.6-3.3-.8 3 2.1 4.7 2.1 4.8zM109 112.3s-3.7 1.9-4.6 3.2c0 0 4.9 1.4 6.7 1.5-.1 0-3-1.7-2.1-4.7"/><path class="st106" d="M112.7 117H111c-3-1.9-2.1-4.7-2-4.7.6-.4 1.5-.5 2.7-.5 2 0 4 .5 4 .5.3 3.9-2.1 4.7-2.1 4.7h-.9M115.6 112.3s-4.6-1.2-6.7 0c0 0-1 2.7 2 4.7 0 0 2.1.1 2.5 0 .1 0 2.5-.8 2.2-4.7"/><path class="st105" d="M113.5 116.9c2.4-1.2 2.1-4.6 2.1-4.7.4.1 2.2 1 2.3 1.1v2.5c-.8.3-4.4 1.2-4.4 1.1zM117.8 113.4s-1.9-1-2.2-1.1c0 0 .3 3.4-2.1 4.7 0 0 3.6-.8 4.4-1.1v-2.5z"/><path class="st107" d="M117.8 113.4l3.8 2.1-3.8.4zM121.6 115.5l-3.8-2.1v2.4z"/><path class="st108" d="M113.4 117c.5-.1 4.4-1.1 4.4-1.1l3.3-.4 1 .8-8.4 4.5-.3-3.8zM122.1 116.3l-1-.8-3.3.4s-3.9 1.1-4.4 1.1l.3 3.8 8.4-4.5z"/><path class="st109" d="M103.6 115.8s-.1 0 0 0c-.1-.1-.1-.2-.1-.3.1-.6 3-4.2 8.2-4.2 2.8 0 5.7 1 8.7 3.1l1.7 1.1h-.6l-3.7-2.1-2.2-1.1s-2-.5-4-.5c-1.1 0-2 .2-2.6.5 0 0-3.9 2.1-4.8 3.2-.1 0-.4.3-.6.3M104.1 115.5s-.7.7-.6 0c.1-.7 6.3-8.4 16.9-1.1l1.7 1.1h-.6l-3.7-2.1-2.2-1.1s-4.6-1.2-6.7 0c.1 0-3.8 2.1-4.8 3.2"/><path class="st110" d="M100.3 112.8l4.8.7-1.5 1.6c-.2.4-.2.5-.2.6h.1c.2 0 .7-.3.7-.3l-1.6 2.4-2.3-5zM105.2 113.6l-4.8-.8 2.4 5 1.6-2.3s-1.3.9-.6-.3l1.4-1.6z"/><path class="st111" d="M100.4 112.8l3.9-5.9.9 6.7zM104.3 106.9l-3.9 5.9 4.8.8z"/><path class="st112" d="M100.6 102.7s.6 3.2 3.7 4.1l-4 6 .3-10.1zM100.6 102.7s.5 3.2 3.7 4.2l-4 6 .3-10.2z"/><path class="st113" d="M104.3 106.9l5.4 2.1-4.6 4.6zM109.7 109l-4.5 4.6-.9-6.7z"/><path class="st114" d="M104.3 106.9l7.9-.1-2.5 2.2zM112.2 106.9l-2.5 2.1-5.4-2.1z"/><path class="st115" d="M105.1 113.6l4.5-4.6 3.2 2.3H111.9c-4.2-.1-6.7 2.3-6.8 2.3zM112.8 111.3l-3.2-2.3-4.5 4.6c.1 0 2.9-2.7 7.7-2.3"/><path class="st116" d="M104.3 106.9s-3.1-.7-3.7-4.2l5.2-.7-1.5 4.9zM105.8 102.1l-1.5 4.8s-3.1-.7-3.7-4.2l5.2-.6z"/><path class="st117" d="M104.3 106.9l1.5-4.8 6.5 4.8zM112.2 106.9l-6.4-4.8-1.5 4.8z"/><path class="st118" d="M105.8 102.1l6.1-.3.3 5.1zM111.9 101.8l.3 5.1-6.4-4.8z"/><path class="st119" d="M111.9 101.8l6.8.2-6.5 4.9zM118.7 102.1l-6.5 4.8-.3-5.1z"/><path class="st120" d="M118.7 102l1 4.7-7.5.2zM119.7 106.7l-1-4.6-6.5 4.8z"/><path class="st121" d="M118.7 102.1c.1 0 3.8 1.2 4.5 1.9l-3.5 2.8-1-4.7zM123.2 103.9l-3.5 2.8-1-4.6s3.8 1.1 4.5 1.8"/><path class="st122" d="M119.7 106.7l3.5-2.8 2.7 2.8zM125.8 106.7l-2.6-2.8-3.5 2.8z"/><path class="st123" d="M116.5 112.3s-3.1-1-3.7-1l-3.2-2.3 2.6-2.1h4l.3 5.4zM116.2 106.9l.4 5.4s-3.2-1-3.7-1l-3.2-2.3 2.6-2.1h3.9z"/><path class="st124" d="M119 106.7h6.8l-3.2 4.6zM119 106.7l3.6 4.6 3.2-4.6z"/><path class="st125" d="M116.2 106.9l2.8-.2 3.6 4.6-6.1 1zM116.5 112.3l6.1-1-3.6-4.6-2.8.2z"/><path class="st126" d="M121.2 115.5h1c-2.1-1.6-5.6-3.2-5.6-3.2l6.1-1 2.5 3.3-3 1.7-1-.8zM125.1 114.6l-2.5-3.3-6.1 1s3.5 1.6 5.6 3.2h-1l1 .8 3-1.7z"/><path class="st127" d="M122.6 111.3l3.2-4.6 4 5.2-4.7 2.7zM125.8 106.7l4 5.2-4.7 2.7-2.5-3.3z"/><path class="st128" d="M125.8 106.7l5.7-8 1.4 11.5-3.1 1.7zM131.5 98.7l-5.7 8 4 5.2 3-1.7z"/><g class="st129"><defs><path id="SVGID_7_" d="M110.2 112.5h2.2v1.5h-2.2z"/></defs><clipPath id="SVGID_8_"><use xlink:href="#SVGID_7_" overflow="visible"/></clipPath><path class="st130" d="M110.2 113.2l1.3-.7.9.9-1.1.5z"/></g><g class="st129"><defs><path id="SVGID_9_" d="M110.2 112.5h2.2v1.4h-2.2z"/></defs><clipPath id="SVGID_10_"><use xlink:href="#SVGID_9_" overflow="visible"/></clipPath><path class="st131" d="M111.5 112.5l-1.3.7 1.1.7 1.1-.5z"/></g><path class="st105" d="M80.3 115.8c2.7-.6 2.2-3.9 2.2-3.9 2.2.6 3.9 2.6 4 2.7-1.5.7-6.2 1.2-6.2 1.2zM82.5 111.9s.6 3.3-2.2 3.9c0 0 4.7-.5 6.1-1.2 0 0-1.7-2-3.9-2.7"/><path class="st132" d="M79.3 115.9h-1.7c-1.4-.4-1.6-3.6-1.6-3.6.9-.7 2.1-1.1 3.3-1.1 1.8 0 3.2.8 3.2.8.4 3.6-2.2 3.9-2.2 3.9h-1zM76 112.3s.2 3.2 1.6 3.6c0 0 2 .1 2.7 0 0 0 2.6-.3 2.2-3.9 0-.1-3.6-2-6.5.3"/><path class="st133" d="M77.6 115.8c-.1 0-3.1-.1-3.4-.4l-1-1.1c.1-.1.5-.4.9-.7.7-.5 1.5-1.1 1.8-1.4.1.1.3 3.1 1.7 3.6zM73.2 114.4c.1-.1 2.1-1.7 2.8-2.1 0 0 .1 3.1 1.6 3.6 0 0-3.1-.1-3.4-.4l-1-1.1z"/><path class="st134" d="M71.9 115.1l1.3-.7 1.1 1.1zM71.9 115.1l1.3-.7 1 1.1z"/><path class="st109" d="M71.2 115.3c-.1 0-.1 0-.2-.1s0-.3.3-.7c.2-.3 4.7-3.2 5.7-3.5.5-.1 1.5-.2 2.6-.2.8 0 1.8.1 2.6.3.9.3 2.5 1.2 3.7 1.8.6.3 1.2.6 1.5.8 0 0 .1.3.1.4 0 0 0 .1-.1.1-.2.1-1 .2-1 .2s-1.6-2-3.9-2.7c0 0-1.4-.8-3.1-.8-1.2 0-2.4.4-3.4 1.1l-2.8 2.1-1.4.7c.1.3-.4.5-.6.5M71.3 114.6c.2-.3 4.7-3.2 5.7-3.4 1-.2 3.7-.4 5.2.1 1.4.5 4.2 2.2 5.2 2.6 0 0 .2.4 0 .5-.2.1-1 .2-1 .2s-1.5-2-3.9-2.7c0 0-3.4-2-6.5.3l-2.8 2.1-1.4.7c.1.1-1.4.9-.5-.4"/><path class="st135" d="M74.2 115.5c.2.2 2.3.3 3.4.3h2.8l-5.3 5-.9-5.3zM74.2 115.5l.9 5.3 5.3-4.9h-2.8c0-.1-3.1-.2-3.4-.4"/><path class="st136" d="M75.2 120.7l5.1-4.8 5.1 2.1-10.2 2.8zM85.4 118l-5.1-2.1-5.1 4.8z"/><path class="st137" d="M87.4 114.4l3.4-5.4-1.6 8-3.8 1zM90.8 109l-.1.1-3.3 5.3-2 3.6 3.8-1z"/><path class="st138" d="M83.2 101.8l3.2 1.8.3 2.7-4.6.1zM83.2 101.8l-1.1 4.5h4.6l-.3-2.7z"/><path class="st139" d="M78.4 100.8l4.8 1-1.1 4.6zM78.4 100.8l3.7 5.5 1.1-4.5z"/><path class="st140" d="M82.1 106.4zm0-.1c-.4-.2-8.5-1-8.6-1l4.9-4.6c0 .1 3.5 5.3 3.7 5.6M73.5 105.4l4.9-4.6s3.8 5.7 3.7 5.6c-.1-.2-8.6-1-8.6-1"/><path class="st141" d="M70.6 101.1l7.8-.3-4.9 4.6zM70.6 101.1l2.9 4.3 4.9-4.6z"/><path class="st142" d="M67.6 105.4l3-4.3 2.9 4.3zM67.6 105.4l3-4.3 2.9 4.3z"/><path class="st143" d="M66.4 103.3l4.2-2.2-3 4.3zM66.4 103.2l1.2 2.2 3-4.3z"/><path class="st144" d="M66.4 103.2l1.4 2.2-2.3 2.2H64zM64 107.6l2.4-4.4 1.4 2.2-2.3 2.2z"/><path class="st145" d="M67.8 117l3.2-1.7h.1c.1 0 .4 0 .7-.2l2.3.4 1 5.3-7.3-3.8zM67.8 117l3.2-1.6s.2.1.9-.2l2.3.4.9 5.3-7.3-3.9z"/><path class="st146" d="M87.4 113.9l-1-10.3 4.4 5.4-3.3 5.1zM86.4 103.6l1 10.3.1.1 3.3-5z"/><path class="st147" d="M66 107.6l6.8 6c-1.6.9-1.8 1.4-1.9 1.6 0 .1.1.2.1.2l-3.2 1.7-1.8-9.5zM72.8 113.5l-6.8-6 1.8 9.4 3.2-1.6s-.6-.5 1.8-1.8"/><path class="st148" d="M73.6 105.4l3.6 5.8c-.4.1-4.3 2.3-4.3 2.4l.7-8.2zM77.2 111.2l-3.5-5.8-.8 8.1c-.1 0 3.8-2.2 4.3-2.3"/><path class="st149" d="M73.6 105.4l8.5.9-5.1 4.9zM82.1 106.3l-5.1 4.9-3.4-5.8z"/><path class="st150" d="M82.2 111.3s-1.3-.4-2.9-.4c-.8 0-1.6.1-2.3.3l5.1-4.8.1 4.9zM82.2 111.3s-2.6-.8-5.2-.1l5.1-4.8.1 4.9z"/><path class="st151" d="M60.5 107.6c0-.8 1.3-14 1.3-14.1l7.6 3.4-3 6.3-2.4 4.3-3.5.1zM61.9 93.5s-1.3 13.4-1.3 14.1h3.5l2.4-4.3 3-6.3-7.6-3.5z"/><path class="st152" d="M61.8 93.5c2.7-6.1 9.1-13.3 9.2-13.4l-1.6 16.8-7.6-3.4zM71 80.1s-6.5 7.2-9.2 13.4l7.6 3.5L71 80.1z"/><path class="st153" d="M69.4 96.9l9 3.9-7.8.3-4.3 2.2zM78.4 100.8l-9-3.9-3 6.3 4.2-2.1z"/><path class="st154" d="M69.4 96.9l11.9-9-2.9 12.9zM81.3 88l-11.9 8.9 9 3.9z"/><path class="st155" d="M71 80.1l13.3 3-3 4.9-11.9 9zM84.3 83.1l-3 4.9-11.9 8.9L71 80.1z"/><path class="st156" d="M86.4 103.6l4.3.3.1 5.1zM90.7 103.9l-4.3-.3 4.4 5.4z"/><path class="st157" d="M83.2 101.8l3.2-1v2.8zM86.4 100.8l-3.2 1 3.2 1.8z"/><path class="st158" d="M78.4 100.8h8l-3.2 1zM78.4 100.8h8l-3.2 1z"/><path class="st159" d="M78.4 100.8l2.9-12.9 3-4.8 2.1 17.7zM84.3 83.1l2.1 17.7h-8L81.3 88z"/><path class="st160" d="M71 80.1c1.2-1.4 9.7-6.8 9.8-6.8l3.5 9.8-13.3-3zM80.8 73.3s-8.6 5.4-9.8 6.8l13.3 3-3.5-9.8z"/><path class="st161" d="M123.2 103.9s-2.8-1.8-4.4-1.9l8.2-16c.1.1 4.3 11.1 4.5 12.7l-5.7 8-2.6-2.8zM127.1 86s4.3 11.1 4.5 12.7l-5.7 8-2.7-2.8s-2.8-1.8-4.4-1.9l8.3-16z"/><path class="st162" d="M117.8 78.8c1.6 1 9.2 7.1 9.2 7.2l-8.3 16.1-.9-23.3zM117.8 78.8l.9 23.3L127 86c.1 0-7.5-6.2-9.2-7.2"/><path class="st163" d="M105.8 74c1.1 0 6.4 2 6.4 2l-.3 25.7-6.1.2-5.2.7 5.2-28.6zM105.8 74l-5.2 28.7 5.2-.7 6-.2.3-25.7c.1 0-5.2-2.1-6.3-2.1"/><path class="st164" d="M111.9 101.8l.3-25.7 5.7 2.7.9 23.3zM117.8 78.8l-5.6-2.7-.3 25.7 6.8.3z"/><path class="st86" d="M90.1 72.5h.1c1.7 0 15.4 1.6 15.6 1.6l-4.1 22.4-11.6-24zM90.2 72.4l11.6 23.9 4.1-22.3c-.1 0-14.7-1.6-15.7-1.6"/><path class="st165" d="M85.5 93.1l-1.2-10-3.5-9.8c1.9-.6 9.3-.9 9.4-.9l-4.7 20.7zM85.5 93.1l4.7-20.6s-7.4.3-9.4.8l3.5 9.8 1.2 10z"/><path class="st166" d="M90.7 103.9l5-19.9 6.1 12.3-1.2 6.4-4.5 1.2zM90.7 103.9L95.8 84l6 12.3-1.2 6.4-4.5 1.2z"/><path class="st86" d="M86.4 100.8l-.8-8.1 4.5-20.3L95.8 84l-5 20zM85.6 92.7l.8 8.1 4.3 3.1L95.8 84l-5.6-11.6z"/><path class="st167" d="M136.1 123.1l2.6 2.6c-.1.7-2.5 4.3-2.6 4.5v-7.1zM136.1 123.1v7s2.5-3.7 2.6-4.4l-2.6-2.6z"/><path class="st168" d="M136.1 123.1c0-.8 2.5-2.3 2.6-2.4 1.8 1 0 4.9 0 4.9l-2.6-2.5zM138.7 120.7s-2.6 1.6-2.6 2.3l2.6 2.6s1.8-3.8 0-4.9"/><path class="st169" d="M132.4 142.5l.5-3.4v-8.5l3.3 5.2c-.3 1.3-3.8 6.7-3.8 6.7zM132.4 142.5s3.5-5.5 3.7-6.8l-3.3-5.2v8.5l-.4 3.5z"/><path class="st170" d="M132.8 130.6l3.3-.5 2.6-1.8-2.6 7.5zM138.7 128.3l-2.6 7.5-3.3-5.3 3.3-.4z"/><path class="st171" d="M132.8 125.6l3.3-2.5v7l-3.3.5zM136.1 123.1l-3.3 2.5v4.9l3.3-.4z"/><path class="st172" d="M132.8 122.1l2.4-3.2.9 4.2-3.3 2.3zM135.2 118.9l.9 4.2-3.3 2.3v-3.3z"/><path class="st173" d="M135.2 118.9c.8-.4 1.6-.7 2.3-.7 2.1 0 2.8 2 2.8 2l-1.5.5c-1 .1-2.6 2.3-2.6 2.3l-1-4.1zM140.2 120.3s-1.1-3.4-5-1.4l.9 4.2s1.6-2.2 2.6-2.3l1.5-.5z"/><path class="st174" d="M132.8 110.2l3.3-5.8v13.8l-.9.7-2.4 3.3v-12zM136.1 104.5l-3.3 5.8v11.9l2.3-3.2.9-.6c.1-.1.1-13.5.1-13.9"/><path class="st175" d="M131.5 98.7l-.8-2.8.2.4 5.2 8.2-3.3 5.8zM130.7 95.9l.2.4 5.2 8.2-3.3 5.7-1.3-11.5z"/><path class="st176" d="M130.7 95.9l4.5-4 .9 12.6zM135.2 91.9l-4.5 4 5.4 8.6z"/><path class="st177" d="M127 86l8.2 5.9-4.5 4zM127.1 86l8.1 5.9-4.5 4z"/><path class="st178" d="M127 86l2.3-12.7c1.6 2.5 5.8 18.5 5.9 18.7l-8.2-6zM129.3 73.3L127.1 86l8.1 6c0-.1-4.3-16.2-5.9-18.7"/><path class="st179" d="M117.8 78.8l11.5-5.5-2.2 12.7zM117.8 78.8l11.5-5.5-2.2 12.7z"/><path class="st180" d="M112.2 76.1l11.1-8.6-5.4 11.3zM112.2 76.1l11.1-8.6-5.5 11.3z"/><path class="st181" d="M123.3 67.5l6 5.8-11.5 5.5zM129.3 73.3l-6-5.8-5.5 11.3z"/><path class="st182" d="M112.2 76.1c-.1 0-5.4-1.9-6.4-2.1l13.9-6-7.5 8.1zM105.8 74l13.9-6-7.5 8c0 .1-5.4-1.9-6.4-2"/><path class="st183" d="M112.2 76.2l7.5-8.1 1.2-2.9 2.4 2.4c-.1 0-9.5 6.9-11.1 8.6zM121 65.1l-1.2 2.9s-8.3 8.9-7.5 8c1.5-1.6 11.1-8.6 11.1-8.6l-2.4-2.3z"/><path class="st184" d="M99.7 73.2l8.6-5.7-2.5 6.5zM99.7 73.1l8.6-5.6-2.5 6.5z"/><path class="st185" d="M105.8 74l8-6.5-.8 3.4-7.2 3.1zM113.8 67.5l-8 6.5 7.2-3.1z"/><path class="st186" d="M113.8 67.5l7.1-2.4-1.2 3L113 71zM121 65.1l-7.2 2.4-.8 3.4 6.7-2.8z"/><path class="st187" d="M108.3 67.5l11.1-4.5 1.6 2.1c-.1 0-6.9 2.2-7.2 2.4l-8 6.6 2.5-6.6zM119.4 63l-11.1 4.5-2.4 6.5s7.6-6.2 8-6.5c.2-.2 7.2-2.4 7.2-2.4l-1.7-2.1z"/><path class="st188" d="M113.8 58.2l5.6 4.8-11.2 4.5zM113.8 58.2l-5.5 9.3 11.1-4.5z"/><path class="st189" d="M98.4 68l11.8-3.8-1.9 3.3-8.6 5.7zM98.4 68l1.3 5.1 8.6-5.6 1.9-3.3z"/><path class="st190" d="M100.3 60.8l10.7-1.4-7 6.8-5.7 1.8zM111 59.4l-7 6.8-5.6 1.8 2-7.2z"/><path class="st191" d="M104 66.2l7-6.8 2.8-1.2-3.5 6-6.3 2zM113.8 58.2l-2.8 1.2-7 6.8 6.2-2z"/><path class="st192" d="M95.8 61.2l13.3-5.4 4.7 2.4-2.8 1.2-10.6 1.4-4.6.4zM109.1 55.9l-13.3 5.3 4.6-.4 10.6-1.4 2.8-1.2z"/><path class="st193" d="M90.2 72.5l9-7.4-.8 2.9 1.3 5.2zM90.2 72.4l9-7.3-.8 2.9 1.3 5.1z"/><path class="st194" d="M90.1 65.1l2.5 2.4 6.6-2.4-9.1 7.4zM90.1 65.1l.1 7.3 9-7.3-6.6 2.4z"/><path class="st195" d="M90.1 65.1l5.7-3.9 4.6-.4-1.2 4.3-6.6 2.4zM95.8 61.2l-5.7 3.9 2.5 2.4 6.6-2.4 1.2-4.3z"/><path class="st196" d="M80.8 73.3l9.3-8.2.1 7.3c-.1.1-7.8.5-9.4.9zM80.8 73.3l9.3-8.2v7.3c.1 0-7.7.4-9.3.9"/><path class="st197" d="M79.3 66.9l10.8-1.8-8.8 7.8zM79.3 66.9l2 6 8.8-7.8z"/><path class="st198" d="M89.2 58.6l.9 6.5L79.2 67zM89.2 58.6l-9.9 8.3 10.8-1.8z"/><path class="st199" d="M89.5 60.1l19.6-4.3-13.3 5.4-5.7 3.9zM109.1 55.9l-19.6 4.2.6 5 5.7-3.9z"/><path class="st200" d="M89.2 58.6l4.6-3.9c.1-.1.4-.1.9-.1 3.3 0 14.2 1.2 14.3 1.2L89.5 60l-.3-1.4zM93.8 54.7l-4.6 3.9.3 1.5 19.5-4.2c.1 0-14.5-1.6-15.2-1.2"/><path class="st201" d="M81.3 57.4c1-.7 12.1-2.6 12.6-2.6L79.2 67l2.1-9.6zM81.3 57.4l-2 9.6 14.6-12.2c-.1-.1-11.6 1.8-12.6 2.6"/><path class="st202" d="M72.8 66.9c0-.1 6.2-8.9 8.4-9.6l-2 9.6h-6.4zM72.8 66.9s6.2-8.9 8.4-9.6l-2 9.6h-6.4z"/><path class="st203" d="M72.8 66.9h6.5l-3.8 4-6.1 1.6zM69.4 72.4l3.4-5.5h6.5l-3.9 4z"/><path class="st204" d="M75.4 71l3.9-4.1 2 6zM81.3 72.9l-5.9-2 3.9-4z"/><path class="st205" d="M71 80.1l4.4-9.2 5.9 1.9c-.1.1-9.6 6.4-10.3 7.3zM71 80.1l4.4-9.2 5.8 1.9c.1.1-10.2 6.8-10.2 7.3"/><path class="st206" d="M69.4 72.4l6-1.5-4.4 8.8zM69.4 72.4l1.6 7.2 4.4-8.7z"/><path class="st207" d="M61.8 93.5c0-.1 5.3-14.7 7.6-21.1l1.6 7.7c0 .1-7 8.7-9.2 13.4zM61.9 93.5c-.3.7 7.6-21 7.6-21l1.6 7.7c-.1-.1-7.1 8.5-9.2 13.3"/><path class="st208" d="M59.7 91l9.7-18.6-7.5 21.1zM59.7 91l2.1 2.5 7.6-21.1z"/><path class="st209" d="M60.5 107.6L59.7 91l2.2 2.5-1.3 14.1zM60.5 107.6L59.7 91l2.1 2.5z"/><path class="st210" d="M58.9 118.1c0-1.1.2-26 .8-27.2l.2-.4c.1.1-.3 1.2-.4 1.4 0 .1 1.2 13.4 1 15.4v11.6l-1.6-.8zM58.9 118.1s.2-25.9.8-27.2c.6-1.2-.2 1-.2 1s1.2 13.4 1 15.4c-.2 2.1 0 .2 0 .2v11.3l-1.6-.7z"/><path class="st211" d="M57.4 124.8v-3.2c0-.2.1-.2.3-.2.8 0 2.8 2.7 2.8 2.8v4l-3.1-3.4zM60.5 124.2s-2.8-3.7-3.1-2.6v3.2l3.1 3.4v-4z"/><path class="st212" d="M57.4 124.8l3.2 3.4v3.6h-.1zM60.5 131.8s-2.7-6.2-3.1-7l3.1 3.4v3.6z"/><path class="st213" d="M60.5 124.2s-2.3-2.9-2.9-2.9c-.1 0-.2.1-.2.3h-1.7c0-.1 0-.2.1-.4.3-1 .9-3.4 2.3-3.4.2 0 .5.1.7.2l1.7.8v5.4zM55.8 121.6c.2-.5.9-4.6 3.1-3.5 1.2.6 1.7.8 1.7.8v5.3s-3.1-3.9-3.1-2.6h-1.7z"/><path class="st214" d="M57.4 129.2c0-.1-1.9-4.9-1.7-7.5h1.7v3.2l3.1 7-3.1-2.7zM57.5 129.1s-1.9-4.9-1.7-7.5h1.7v3.2l3.1 7-3.1-2.7z"/><path class="st215" d="M62.2 146.1s-2.2-3.7-2.1-6.3c0 0 .3-2.6 0-3.7l-.1-.6s.1 0 .1.3l1.4 4.3.7 6zM62.3 146s-2.2-3.6-2.1-6.3c0 0 .3-2.5 0-3.7-.3-1.2 0-.3 0-.3l1.4 4.3.7 6z"/><path class="st216" d="M60.2 135.4v.4-.1c0-.3-2.7-6.6-2.7-6.6l3.1 2.6.9 8-1.3-4.3zM57.5 129.1s2.7 6.3 2.7 6.6v-.3l1.3 4.4-.9-8-3.1-2.7z"/><g class="st129"><defs><path id="SVGID_11_" d="M78.7 111.7H81v1.6h-2.3z"/></defs><clipPath id="SVGID_12_"><use xlink:href="#SVGID_11_" overflow="visible"/></clipPath><path class="st217" d="M79.9 113.3l-1.1-1.1.5-.4-.3-.1.3.1.1-.1h-.1l1.7.4-1.1 1.2zm-1.1-1.1l1.1 1.1 1.1-1-1.7-.4-.5.3z"/></g><g class="st129"><defs><path id="SVGID_13_" d="M78.8 111.7H81v1.5h-2.2z"/></defs><clipPath id="SVGID_14_"><use xlink:href="#SVGID_13_" overflow="visible"/></clipPath><path class="st218" d="M79.3 111.7l-.5.5 1.1 1.1 1.1-1.1-2.1-.5"/></g><path class="st219" d="M73.3 162.4l-1.8-2.6 5.7-1 1 3.6zM78.2 162.4l-1-3.6-5.7 1 1.8 2.6z"/><path class="st220" d="M86 168.4c-4.1-.8-7.8-6-7.9-6l6.9-4.6 1 2.1 5.5 3.2-5.5 5.3zM85.1 157.7l-6.9 4.6s3.7 5.2 7.8 6l5.5-5.3-5.5-3.2-.9-2.1z"/><path class="st221" d="M91.5 157.7h4.6l-4.6 5.4zM91.5 157.7h4.6l-4.6 5.4z"/><path class="st222" d="M102.7 158.6l4.1-5.3 4.3-.1 1.6 2.1 1.1 5.9-12.5 1.2zM106.8 153.3l-4.1 5.3-1.4 3.8 12.5-1.2-1.1-5.9-1.6-2z"/><path class="st63" d="M90.1 134.9h2l1.7-1.1v3.9zM93.8 133.8v3.9l-3.7-2.8h2z"/><path class="st93" d="M96.1 131.6l6.6-1.5.5 3.3-1.9-.3-1.9.7zM102.7 130.1l-6.6 1.5 3.3 2.2 1.9-.7 1.9.3z"/><path class="st223" d="M136.1 129.8c3.4-4.7 3.7-7 3.3-8.1-.2-.7-.7-.9-.7-.9l1.5-.5c1.3 3.1-1.4 8-1.5 8l-2.6 1.5zM138.7 128.3s2.8-4.9 1.5-8l-1.5.5s3.1 1.1-2.6 9l2.6-1.5z"/><path class="st113" d="M82.2 111.3l-.1-5h4.6l.7 7.6zM86.7 106.3h-4.6l.1 5 5.2 2.6z"/><path class="st224" d="M66 107.6h-.5l2.3-2.2h5.8l-.8 8.2zM67.8 105.4l-2.3 2.2h.5l6.8 5.9.8-8.1z"/><path class="st225" d="M80.3 115.9c.1 0 5.6-.8 6.1-1.3l1-.2-2 3.6-5.1-2.1zM86.4 114.6c-.5.5-6.1 1.3-6.1 1.3l5.1 2.1 2-3.6-1 .2z"/><path class="st226" d="M104.3 115.5c.1 0 4.9 1.4 6.7 1.4h2.5l.3 3.8-9.5-5.2zM113.5 117l.3 3.8-9.5-5.3s4.9 1.4 6.7 1.5h2.5z"/><path class="st227" d="M97.2 151.6l-2-3.3s1.6-.1 2.6-.4l5 3.9-5.6-.2zM95.2 148.3s1.6 0 2.6-.4l4.9 3.9-5.5-.2-2-3.3z"/><path class="st63" d="M93.8 133.8h5.6l-5.6 3.9zM99.4 133.8h-5.6v3.9z"/><path class="st228" d="M86.4 103.6v-2.8l4.4 3.1zM90.7 103.9l-4.3-.3v-2.8z"/></g></g></svg>