<svg xmlns="http://www.w3.org/2000/svg" xmlns:xlink="http://www.w3.org/1999/xlink" width="192" height="234" viewBox="0 0 192 234"><style type="text/css">.st0{fill:#F2F2F2;} .st1{fill:#D54339;} .st2{clip-path:url(#SVGID_2_);} .st3{clip-path:url(#SVGID_4_);fill:#49341E;} .st4{clip-path:url(#SVGID_4_);fill:#D36E76;} .st5{clip-path:url(#SVGID_4_);fill:#CD8B8D;} .st6{clip-path:url(#SVGID_6_);fill:#14140A;} .st7{clip-path:url(#SVGID_6_);fill:#2A2316;} .st8{clip-path:url(#SVGID_6_);fill:#250D13;} .st9{clip-path:url(#SVGID_6_);fill:#432A21;} .st10{clip-path:url(#SVGID_6_);fill:#32221A;} .st11{clip-path:url(#SVGID_6_);fill:#322524;} .st12{clip-path:url(#SVGID_6_);fill:#443830;} .st13{clip-path:url(#SVGID_6_);fill:#63413B;} .st14{clip-path:url(#SVGID_6_);fill:#73504C;} .st15{clip-path:url(#SVGID_6_);fill:#583A30;} .st16{clip-path:url(#SVGID_6_);fill:#2D220B;} .st17{clip-path:url(#SVGID_6_);fill:#49341E;} .st18{clip-path:url(#SVGID_6_);fill:#583F2D;} .st19{clip-path:url(#SVGID_6_);fill:#865B47;} .st20{clip-path:url(#SVGID_6_);fill:#442C19;} .st21{clip-path:url(#SVGID_6_);fill:#4B3822;} .st22{clip-path:url(#SVGID_6_);fill:#342117;} .st23{clip-path:url(#SVGID_6_);fill:#54391F;} .st24{clip-path:url(#SVGID_6_);fill:#4F3E38;} .st25{clip-path:url(#SVGID_6_);fill:#241B12;} .st26{clip-path:url(#SVGID_6_);fill:#241B17;} .st27{clip-path:url(#SVGID_6_);fill:#3E352E;} .st28{clip-path:url(#SVGID_6_);fill:#7A554E;} .st29{clip-path:url(#SVGID_6_);fill:#332D12;} .st30{clip-path:url(#SVGID_6_);fill:#50423A;} .st31{clip-path:url(#SVGID_6_);fill:#80504F;} .st32{clip-path:url(#SVGID_6_);fill:#B07A71;} .st33{clip-path:url(#SVGID_6_);fill:#88584D;} .st34{clip-path:url(#SVGID_6_);fill:#6D4C40;} .st35{clip-path:url(#SVGID_6_);fill:#5A3736;} .st36{clip-path:url(#SVGID_6_);fill:#5C3737;} .st37{clip-path:url(#SVGID_6_);fill:#52292A;} .st38{clip-path:url(#SVGID_6_);fill:#653E3B;} .st39{clip-path:url(#SVGID_6_);fill:#644240;} .st40{clip-path:url(#SVGID_6_);fill:#5D3D3A;} .st41{clip-path:url(#SVGID_6_);fill:#79534E;} .st42{clip-path:url(#SVGID_6_);fill:#714D46;} .st43{clip-path:url(#SVGID_6_);fill:#53322D;} .st44{clip-path:url(#SVGID_6_);fill:#44191A;} .st45{clip-path:url(#SVGID_6_);fill:#89604C;} .st46{clip-path:url(#SVGID_6_);fill:#6D4632;} .st47{clip-path:url(#SVGID_6_);fill:#51312E;} .st48{clip-path:url(#SVGID_6_);fill:#612F32;} .st49{clip-path:url(#SVGID_6_);fill:#A56337;} .st50{clip-path:url(#SVGID_6_);fill:#9F6541;} .st51{clip-path:url(#SVGID_6_);fill:#A06F41;} .st52{clip-path:url(#SVGID_6_);fill:#926748;} .st53{clip-path:url(#SVGID_6_);fill:#724A3E;} .st54{clip-path:url(#SVGID_6_);fill:#674A3E;} .st55{clip-path:url(#SVGID_6_);fill:#BF8B65;} .st56{clip-path:url(#SVGID_6_);fill:#835F42;} .st57{clip-path:url(#SVGID_6_);fill:#B17D5D;} .st58{clip-path:url(#SVGID_6_);fill:#DE9B86;} .st59{clip-path:url(#SVGID_6_);fill:#CE9595;} .st60{clip-path:url(#SVGID_6_);fill:#CF9C9C;} .st61{clip-path:url(#SVGID_6_);fill:#AD6F6F;} .st62{clip-path:url(#SVGID_6_);fill:#26070F;} .st63{clip-path:url(#SVGID_6_);fill:#7F4D53;} .st64{clip-path:url(#SVGID_6_);fill:#B47769;} .st65{clip-path:url(#SVGID_6_);fill:#462C29;} .st66{clip-path:url(#SVGID_6_);fill:#5A3E35;} .st67{clip-path:url(#SVGID_6_);fill:#D59282;} .st68{clip-path:url(#SVGID_6_);fill:#CE9593;} .st69{clip-path:url(#SVGID_6_);fill:#654340;} .st70{clip-path:url(#SVGID_6_);fill:#EB91A3;} .st71{clip-path:url(#SVGID_6_);fill:#D67585;} .st72{clip-path:url(#SVGID_6_);fill:#BE6971;} .st73{clip-path:url(#SVGID_6_);fill:#F0949D;} .st74{clip-path:url(#SVGID_6_);fill:#E3828F;} .st75{clip-path:url(#SVGID_6_);fill:#A53455;} .st76{clip-path:url(#SVGID_6_);fill:#BB456B;} .st77{clip-path:url(#SVGID_6_);fill:#DB9D84;} .st78{clip-path:url(#SVGID_6_);fill:#D36E76;} .st79{clip-path:url(#SVGID_6_);fill:#BE7C7A;} .st80{clip-path:url(#SVGID_6_);fill:#D3A7A1;} .st81{clip-path:url(#SVGID_6_);fill:#A36E3A;} .st82{clip-path:url(#SVGID_6_);fill:#F5C7C1;} .st83{clip-path:url(#SVGID_6_);fill:#F4C7BD;} .st84{clip-path:url(#SVGID_6_);fill:#FBCCC6;} .st85{clip-path:url(#SVGID_6_);fill:#E7BAA8;} .st86{clip-path:url(#SVGID_6_);fill:#F1C5BA;} .st87{clip-path:url(#SVGID_6_);fill:#F4AA8A;} .st88{clip-path:url(#SVGID_6_);fill:#E8AE9E;} .st89{clip-path:url(#SVGID_6_);fill:#F9D9D7;} .st90{clip-path:url(#SVGID_6_);fill:#D39896;} .st91{clip-path:url(#SVGID_6_);fill:#F0C2BF;} .st92{clip-path:url(#SVGID_6_);fill:#E9B5AD;} .st93{clip-path:url(#SVGID_6_);fill:#F8D3CF;} .st94{clip-path:url(#SVGID_6_);fill:#E4BDAB;} .st95{clip-path:url(#SVGID_6_);fill:#DC9F99;} .st96{clip-path:url(#SVGID_6_);fill:#CA8A91;} .st97{clip-path:url(#SVGID_6_);fill:#BB8175;} .st98{clip-path:url(#SVGID_6_);fill:#D08F77;} .st99{clip-path:url(#SVGID_6_);fill:#B6786C;} .st100{clip-path:url(#SVGID_6_);fill:#996153;} .st101{clip-path:url(#SVGID_6_);fill:#804A42;} .st102{clip-path:url(#SVGID_6_);fill:#7C554C;} .st103{clip-path:url(#SVGID_6_);fill:#67473A;} .st104{clip-path:url(#SVGID_6_);fill:#C67E62;} .st105{clip-path:url(#SVGID_6_);fill:#D49D81;} .st106{clip-path:url(#SVGID_6_);fill:#C38F80;} .st107{clip-path:url(#SVGID_6_);fill:#A36E56;} .st108{clip-path:url(#SVGID_6_);fill:#61492E;} .st109{clip-path:url(#SVGID_6_);fill:#573A2E;} .st110{clip-path:url(#SVGID_6_);fill:#51342D;} .st111{clip-path:url(#SVGID_6_);fill:#3A3026;} .st112{clip-path:url(#SVGID_6_);fill:#51312B;} .st113{clip-path:url(#SVGID_6_);fill:#B28276;} .st114{clip-path:url(#SVGID_6_);fill:#D69092;} .st115{clip-path:url(#SVGID_6_);fill:#F7C3BE;} .st116{clip-path:url(#SVGID_6_);fill:#F9CFC6;} .st117{clip-path:url(#SVGID_6_);fill:#D39E8C;} .st118{clip-path:url(#SVGID_6_);fill:#CB9D8A;} .st119{clip-path:url(#SVGID_6_);fill:#F6C3BF;} .st120{clip-path:url(#SVGID_6_);fill:#EAB6AC;} .st121{clip-path:url(#SVGID_6_);fill:#C58E88;} .st122{clip-path:url(#SVGID_6_);fill:#D5A893;} .st123{clip-path:url(#SVGID_6_);fill:#D9A695;} .st124{clip-path:url(#SVGID_6_);fill:#A77266;} .st125{clip-path:url(#SVGID_6_);fill:#C08079;} .st126{clip-path:url(#SVGID_6_);fill:#6E3F40;} .st127{clip-path:url(#SVGID_6_);fill:#674645;} .st128{clip-path:url(#SVGID_6_);fill:#693F2A;} .st129{clip-path:url(#SVGID_6_);fill:#503229;} .st130{clip-path:url(#SVGID_6_);fill:#66463E;} .st131{clip-path:url(#SVGID_6_);fill:#94576C;} .st132{clip-path:url(#SVGID_6_);fill:#C59989;} .st133{clip-path:url(#SVGID_6_);fill:#BF8E83;} .st134{clip-path:url(#SVGID_6_);fill:#4F3634;} .st135{clip-path:url(#SVGID_6_);fill:#312226;} .st136{clip-path:url(#SVGID_6_);fill:#3A2721;} .st137{clip-path:url(#SVGID_6_);fill:#463B37;} .st138{clip-path:url(#SVGID_6_);fill:#644B45;} .st139{clip-path:url(#SVGID_6_);fill:#966E63;} .st140{clip-path:url(#SVGID_6_);fill:#DDA78F;} .st141{clip-path:url(#SVGID_6_);fill:#E3B8A7;} .st142{clip-path:url(#SVGID_6_);fill:#D9A995;} .st143{clip-path:url(#SVGID_6_);fill:#FAD2C8;} .st144{clip-path:url(#SVGID_6_);fill:#F2C7B7;} .st145{clip-path:url(#SVGID_6_);fill:#FBCFC4;} .st146{clip-path:url(#SVGID_6_);fill:#F8CEC2;} .st147{clip-path:url(#SVGID_6_);fill:#FCDBD2;} .st148{clip-path:url(#SVGID_6_);fill:#E4AE94;} .st149{clip-path:url(#SVGID_6_);fill:#9F8E8B;} .st150{clip-path:url(#SVGID_6_);fill:#8B5364;} .st151{clip-path:url(#SVGID_6_);fill:#A5919F;} .st152{clip-path:url(#SVGID_6_);fill:#AF939E;} .st153{clip-path:url(#SVGID_6_);fill:#48453E;} .st154{clip-path:url(#SVGID_6_);fill:#957C84;} .st155{clip-path:url(#SVGID_6_);fill:#5B3914;} .st156{clip-path:url(#SVGID_6_);fill:#0A0602;} .st157{clip-path:url(#SVGID_6_);fill:#FEC59F;} .st158{clip-path:url(#SVGID_6_);fill:#E6765A;} .st159{clip-path:url(#SVGID_6_);fill:#C27B4D;} .st160{clip-path:url(#SVGID_6_);fill:#FFBA9B;} .st161{clip-path:url(#SVGID_6_);fill:#FFB49E;} .st162{clip-path:url(#SVGID_6_);fill:#FDBB9E;} .st163{clip-path:url(#SVGID_6_);fill:#FEB8A9;} .st164{clip-path:url(#SVGID_6_);fill:#050202;} .st165{clip-path:url(#SVGID_6_);fill:#CF9C93;} .st166{clip-path:url(#SVGID_6_);fill:#D98083;} .st167{clip-path:url(#SVGID_6_);fill:#B36C74;} .st168{clip-path:url(#SVGID_6_);fill:#DCA8A4;} .st169{clip-path:url(#SVGID_6_);fill:#2C3829;} .st170{clip-path:url(#SVGID_6_);fill:#141710;} .st171{clip-path:url(#SVGID_6_);fill:#171513;} .st172{clip-path:url(#SVGID_6_);fill:#1B1610;} .st173{clip-path:url(#SVGID_6_);fill:#1E1D17;} .st174{clip-path:url(#SVGID_6_);fill:#201A15;} .st175{clip-path:url(#SVGID_6_);fill:#211F17;} .st176{clip-path:url(#SVGID_6_);fill:#2D2819;} .st177{clip-path:url(#SVGID_6_);fill:#1E2015;} .st178{clip-path:url(#SVGID_6_);fill:#74865B;} .st179{clip-path:url(#SVGID_6_);fill:#ABB185;} .st180{clip-path:url(#SVGID_6_);fill:#9AA36D;} .st181{clip-path:url(#SVGID_6_);fill:#A8AC6E;} .st182{clip-path:url(#SVGID_6_);fill:#A1A66C;} .st183{clip-path:url(#SVGID_6_);fill:#A9B272;} .st184{clip-path:url(#SVGID_6_);fill:#BEC28A;} .st185{clip-path:url(#SVGID_6_);fill:#A19E65;} .st186{clip-path:url(#SVGID_6_);fill:#A3A660;} .st187{clip-path:url(#SVGID_6_);fill:#9E995E;} .st188{clip-path:url(#SVGID_6_);fill:#433927;} .st189{clip-path:url(#SVGID_6_);fill:#D6988D;} .st190{clip-path:url(#SVGID_6_);fill:#C96968;} .st191{clip-path:url(#SVGID_6_);fill:#524749;} .st192{clip-path:url(#SVGID_6_);fill:#9B8A7C;} .st193{clip-path:url(#SVGID_6_);fill:#53484A;} .st194{clip-path:url(#SVGID_6_);fill:#B47170;} .st195{clip-path:url(#SVGID_6_);fill:#5C554F;} .st196{clip-path:url(#SVGID_6_);fill:#4D463F;} .st197{clip-path:url(#SVGID_6_);fill:#3D3937;} .st198{clip-path:url(#SVGID_6_);fill:#CF7280;} .st199{clip-path:url(#SVGID_6_);fill:#773B40;} .st200{clip-path:url(#SVGID_6_);fill:#CD8B8D;} .st201{clip-path:url(#SVGID_6_);fill:#632E26;} .st202{clip-path:url(#SVGID_6_);fill:#AF4451;}</style><path class="st0" d="M0 0h192v234H0z"/><path class="st1" d="M192 215.5L172.5 234H192z"/><defs><path id="SVGID_1_" d="M9.5 40.4h172.1v172.1H9.5z"/></defs><clipPath id="SVGID_2_"><use xlink:href="#SVGID_1_" overflow="visible"/></clipPath><g class="st2"><defs><path id="SVGID_3_" d="M9.5 40.4h172.1v172.1H9.5z"/></defs><clipPath id="SVGID_4_"><use xlink:href="#SVGID_3_" overflow="visible"/></clipPath><path class="st3" d="M116.5 157.5c0 11.3-9.5 20.5-21.3 20.5s-21.3-9.2-21.3-20.5S83.4 137 95.2 137s21.3 9.2 21.3 20.5"/><path class="st4" d="M82.7 150.9h24.2v3.1H82.7z"/><path class="st5" d="M102.4 144.6h6.5v4.8h-6.5z"/><path class="st3" d="M125.3 154.8c0 3-1.7 5.4-3.7 5.4s-3.7-2.4-3.7-5.4 1.7-5.4 3.7-5.4 3.7 2.4 3.7 5.4"/></g><g class="st2"><defs><path id="SVGID_5_" d="M9.5 40.4h172.1v172.1H9.5z"/></defs><clipPath id="SVGID_6_"><use xlink:href="#SVGID_5_" overflow="visible"/></clipPath><path class="st6" d="M88.8 178.6c-5.2-.9-11.4-5.6-11.5-5.6l-.1-.1h8.2l3.4 5.7zM77.3 172.9s6.2 4.7 11.4 5.6l-3.4-5.6h-8z"/><path class="st7" d="M85.4 173c5.6 3.6 10.6 4 10.7 4v.1l-7.3 1.6-3.4-5.7zM96.1 177s-5-.3-10.6-4l3.4 5.6 7.2-1.6z"/><path class="st8" d="M95.7 180c-2.7 0-5.1-.5-7-1.4l-.1-.1 7.4-1.6 8.6 1.6-.2.1s-4.1 1.4-8.7 1.4"/><path class="st8" d="M104.5 178.5s-9.2 3.2-15.7 0l7.3-1.6 8.4 1.6z"/><path class="st9" d="M96 177c.1-.1.1-.1.2-.1 1.8 0 8.1-2.1 8.2-2.1h.1v3.8L96 177zM104.5 174.8s-7 2.3-8.4 2.1l8.4 1.6v-3.7z"/><path class="st10" d="M104.4 174.8l8-1.9v.1c-.3.2-6.3 5.1-8 5.6h-.1v-3.8zM112.4 172.9s-6.3 5.1-8 5.6v-3.7l8-1.9z"/><path class="st11" d="M109.8 163l8.8 3-6.2 7zM118.5 166l-6.1 6.9-2.6-9.8z"/><path class="st12" d="M109.9 162.9l2.6 10.1-8.1 1.9zM104.5 174.8l5.3-11.7 2.6 9.8z"/><path class="st13" d="M96.3 177.1H96l1.1-10.7.1.1 7.3 8.5h-.1c-.2 0-6.5 2.1-8.1 2.1m-.2-.2c.8.2 5.7-1.3 8.3-2.1l-7.2-8.3-1.1 10.4zM96.1 177l1.1-10.5 7.3 8.4c0-.1-7.6 2.5-8.4 2.1"/><path class="st14" d="M97.1 166.4l12.8-3.4-5.4 11.9zM109.8 163.1l-12.6 3.3 7.3 8.4z"/><path class="st15" d="M96.1 177c-.1 0-6.1-.8-10.7-4h-.1.1l11.8-6.5v.1L96.1 177zm-10.6-4.1c4.4 3 9.9 3.9 10.5 4l1.1-10.4-11.6 6.4zM85.4 172.9l11.8-6.5-1.1 10.6s-6-.8-10.7-4.1"/><path class="st16" d="M77.3 173l-.4-3.5 8.5 3.4v.1zM77.3 172.9l-.4-3.3 8.5 3.3z"/><path class="st17" d="M76.9 169.6l1.7-6.2 6.9 9.6zM78.6 163.5l-1.7 6.1 8.5 3.3z"/><path class="st18" d="M78.5 163.4l8.7 1.8-1.8 7.9zM87.1 165.2l-1.7 7.7-6.8-9.4z"/><path class="st19" d="M87.1 165.2l10.1 1.2-11.9 6.6zM97 166.4l-9.9-1.2-1.7 7.7z"/><path class="st20" d="M77.3 173c-.3-.2-6.3-6.2-6.6-6.5l4.7-8.1 1.6 11.2.3 3.4zM70.8 166.4s6.3 6.3 6.6 6.5l-.4-3.4-1.6-11-4.6 7.9z"/><path class="st21" d="M76.9 169.6l-1.6-11.1h.1l3.2 5-1.6 6.1zM78.6 163.5l-3.2-5 1.5 11.1z"/><path class="st22" d="M70.8 166.5c-2-.7-6.3-7.6-6.5-7.9v-.1h11.2l-4.7 8zM64.3 158.5s4.5 7.2 6.4 7.9l4.6-7.9h-11z"/><path class="st23" d="M64.3 158.6c-1-1.5-4.7-14.9-4.8-15.4v-.1l11.1 8.6 4.9 7H64.3zM59.5 143.1s3.9 13.9 4.8 15.4h11l-4.9-6.9-10.9-8.5z"/><path class="st24" d="M109.8 163.1l3.9-4 9.1 1.6-4.3 5.3zM122.7 160.8l-4.2 5.2-8.7-2.9 4-3.9z"/><path class="st25" d="M122.9 154.8h4.5l-4.8 6.1zM127.3 154.9l-4.6 5.9.3-5.9z"/><path class="st26" d="M127.4 154.9h-4.5l6.8-7.1.1.1c-.3.4-2.4 6.9-2.4 7zm-4.3-.1h4.2c.2-.5 1.8-5.5 2.2-6.7l-6.4 6.7zM129.7 147.9l-6.7 7h4.4c-.1 0 2.1-6.6 2.3-7"/><path class="st27" d="M113.6 159.2l9.4-4.4-.3 6zM113.8 159.2l9.2-4.3-.3 5.9z"/><path class="st28" d="M112.8 152l10.3 2.9-9.4 4.3zM112.8 152.1l1 7.1 9.2-4.3z"/><path class="st29" d="M127.1 150.5l2.5-9.2h.1v6.6l-2.5 2.6zM127.2 150.5l2.5-9.2v6.6z"/><path class="st30" d="M118.8 153.8l3-4 5.5.7-4.3 4.4zM118.9 153.8l2.9-3.9 5.4.6-4.2 4.4z"/><path class="st31" d="M112.8 152.1l-2.7-2 6.9-2.7 2 6.4zM112.8 152.1l-2.6-2 6.8-2.6 1.9 6.3z"/><path class="st32" d="M116.9 147.4l5 2.4-3 4.1zM121.8 149.9l-4.8-2.4 1.9 6.3z"/><path class="st33" d="M107.6 147.8l9.4-.3-6.8 2.6zM107.7 147.9l2.5 2.2 6.8-2.6z"/><path class="st34" d="M111.2 144.4l6 3.1-9.6.4zM111.2 144.4l5.8 3.1-9.3.4z"/><path class="st35" d="M104.3 145.9l7-1.6-3.6 3.7zM104.5 145.9l3.2 2 3.5-3.5z"/><path class="st36" d="M106.5 139.1l4.8 5.3-6.9 1.5zM106.5 139.2l-2 6.7 6.7-1.5z"/><path class="st37" d="M101.7 144.4l4.7-5.2h.1l-2 6.8zM101.8 144.4l2.7 1.5 2-6.7z"/><path class="st38" d="M98.6 142.1l7.9-2.9-4.7 5.3zM98.7 142.1l3.1 2.3 4.7-5.2z"/><path class="st39" d="M98.7 142l3.1 2.4-4.5 3.6zM97.4 147.9l4.4-3.5-3.1-2.3z"/><path class="st40" d="M94.4 145.9l4.4-3.9-1.4 6zM94.4 145.9l3 2 1.3-5.8z"/><path class="st41" d="M93.1 143.2l3.5-2.7 2.2 1.6-4.4 3.9zM96.6 140.6l2.1 1.5-4.3 3.8-1.3-2.7z"/><path class="st42" d="M94.1 139.6l2.6 1-3.6 2.8zM94.1 139.7l2.5.9-3.5 2.6z"/><path class="st43" d="M91.1 139.9l2.3-1.5.7 1.2-.9 3.8zM91.2 139.9l2.2-1.4.7 1.2-1 3.5z"/><path class="st44" d="M88.7 140.6l2.5-.8 2.1 3.6zM88.8 140.6l2.4-.7 1.9 3.3z"/><path class="st45" d="M90.9 144.7l2.3-1.5 1.3 2.8zM94.4 145.9l-3.4-1.2 2.1-1.5z"/><path class="st46" d="M88.7 140.5l4.5 2.7-2.2 1.5-2.3 1.3zM88.8 140.6v5.3l2.2-1.2 2.1-1.5z"/><path class="st47" d="M96.5 140.6l2.3-.8 2.4 1.4-2.5 1zM96.6 140.6l2.1-.7 2.4 1.3-2.4.9z"/><path class="st48" d="M98.6 139.9l3.2-1.5 4.9.8-5.6 2.1zM106.5 139.2l-4.7-.7-3.1 1.4 2.4 1.3z"/><path class="st49" d="M84.1 142.5l4.7-2v5.5zM88.8 140.6l-4.6 1.9 4.6 3.4z"/><path class="st50" d="M80.1 144.6l4.1-2.1 4.7 3.4-3.8 1.7zM80.2 144.6l4-2.1 4.6 3.4-3.7 1.6z"/><path class="st51" d="M80.1 144.5l5.1 3-3.1 2.7zM82.2 150.1l2.9-2.6-4.9-2.9z"/><path class="st52" d="M75 148.4l5.2-3.9 2 5.6zM75.1 148.4l5.1-3.8 2 5.5z"/><path class="st53" d="M74.3 150.9l.8-2.6 7.1 1.7-1.6 3.4zM80.6 153.3l1.6-3.2-7.1-1.7-.8 2.4z"/><path class="st54" d="M74.3 150.8l6.4 2.5-5.4 5.2zM75.4 158.4l5.2-5.1-6.3-2.5z"/><path class="st55" d="M70.4 151.6l4-.8 1 7.7-.1.1zM70.5 151.6l3.8-.8 1.1 7.7z"/><path class="st56" d="M75.3 158.6v-.3l5.3-5.1 2.1 7.1-4.1 3.2zM78.6 163.5l4.1-3.2-2.1-7-5.2 5v.2z"/><path class="st57" d="M78.5 163.5l4.1-3.3 3.5-1.7 1.1 6.8zM87.1 165.2l-1-6.7-3.4 1.8-4.1 3.2z"/><path class="st58" d="M80.5 153.3l7.5 2-1.9 3.3-3.5 1.7zM87.9 155.3l-1.8 3.2-3.4 1.8-2.1-7z"/><path class="st59" d="M106.4 155.2l3.8-2.9 3 2.3.6 4.6zM113.8 159.2l-7.3-4 3.7-2.8 2.9 2.2z"/><path class="st60" d="M106.4 155.1l7.4 4-3.9 4-4.2 1.1zM105.7 164.2l.8-9 7.3 4-4 3.9z"/><path class="st61" d="M98 163.4l7.7.7.1.1-8.7 2.3zM97.2 166.4l.9-2.9 7.6.7z"/><path class="st62" d="M92.6 162.6v-.1l4.4-.7 4.3.4-3 1.3zM92.7 162.6l4.3-.7 4.1.3-2.8 1.3z"/><path class="st63" d="M90 165.6l2.6-3.1 5.5 1-.9 3zM90.1 165.6l2.6-3 5.4.9-.9 2.9z"/><path class="st64" d="M87.1 165.2l-1.1-6.8 6.7 4.2-2.6 3zM86.1 158.5l3.6 2.3 3 1.8-2.6 3-3-.4z"/><path class="st65" d="M89.6 160.8l4.8-3 2.7 4.1-4.5.7zM94.4 157.8l-4.7 3 3 1.8 4.3-.7z"/><path class="st66" d="M97 161.9l-2.7-4.1h5.7l-.8 4.3zM100 157.8l-.8 4.3-2.2-.2-2.6-4.1z"/><path class="st67" d="M86 158.6l1.9-3.3c.1 0 5 2.5 6.4 2.5h.2l-4.8 3-3.7-2.2zM87.9 155.3s5 2.6 6.5 2.6l-4.7 2.9-3.7-2.2 1.9-3.3z"/><path class="st68" d="M99.9 157.8c.1 0 5.5-1.9 6.6-2.7l.1-.1-.8 9.2-5.9-6.4zM100 157.8s5.4-1.9 6.5-2.7l-.7 9-5.8-6.3z"/><path class="st69" d="M98.1 163.5l2.8-1.2-1.8-.2.9-4.4 5.9 6.5zM98.3 163.5l2.8-1.3-1.9-.1.8-4.3 5.7 6.4z"/><path class="st70" d="M94.3 157.9l.5-4.6s1.7.1 2.8.1c.9 0 1.1 0 1.1-.1h.1l1.2 4.6h-5.7zM94.4 157.8l.5-4.5s3.7.2 4 0l1.1 4.5h-5.6z"/><path class="st71" d="M99.9 157.9l-1.2-4.6h.1l7.7 1.9c-.1.5-5.8 2.5-6.6 2.7zm-1-4.5l1.1 4.4c2.5-.8 6.1-2.2 6.4-2.6l-7.5-1.8zM106.5 155.2l-7.6-1.8 1.1 4.5c0-.1 6.4-2.2 6.5-2.7"/><path class="st72" d="M98.8 153.4v-.1l6.9-1.3 4.7.3-3.9 2.9zM110.2 152.4l-4.5-.3-6.9 1.2 7.7 1.9z"/><path class="st73" d="M94.2 157.9c-1.1 0-6.1-2.5-6.3-2.6l-.1-.1 7.1-2-.5 4.6c0 .1-.1.1-.2.1"/><path class="st73" d="M94.9 153.3l-6.9 2s5.9 2.9 6.5 2.6l.4-4.6z"/><path class="st74" d="M80.6 153.4c.1-.1 5.3-.8 9.4-.8 2.5 0 4.1.2 4.9.7l.1.1-7.1 2-7.3-2zM80.6 153.3s11.7-1.5 14.3 0l-6.9 2-7.4-2z"/><path class="st75" d="M97.6 153.4h-2.7l-3.6-1.6v-.1l6.5.3 1.1 1.3h-.1c-.1.1-.6.1-1.2.1m-2.7-.1c.2 0 3.2.1 3.9 0l-1-1.1-6.2-.3 3.3 1.4zM98.8 153.3l-1-1.2-6.5-.3 3.6 1.6c0-.1 3.5 0 3.9-.1"/><path class="st76" d="M97.7 152h8l.1.1-7 1.3zM105.7 152.1h-7.9l1 1.2z"/><path class="st77" d="M82.1 150.1l3-2.6 3.7-1.6 2 4.7-2 .2c-1.6.6-4.4.6-5.5.6h-.6l-1.4.5.8-1.8zM90.7 150.5l-2-4.6-3.6 1.6-3 2.6-.8 1.6 1.3-.5s4 .1 6.1-.6l2-.1z"/><path class="st78" d="M91.2 151.8l2.1-1.4s1.3-.2 3-.2c1.4 0 2.7.1 3.9.4l1.2 1.5-10.2-.3zM91.4 151.8l2-1.3s3.3-.5 6.9.2l1.1 1.5-10-.4z"/><path class="st79" d="M100.3 150.7s-1.5-.3-4-.3c-1 0-2 0-3 .1v-.1l4.1-2.6 4.5-3.6-1.6 6.5zM101.8 144.4l-1.5 6.2s-2.8-.5-6.9-.2l4.1-2.6 4.3-3.4z"/><path class="st80" d="M121.8 149.9l-4.8-2.4 4-9.9 6.3 12.9zM117 147.5l4-9.8 6.2 12.8-5.4-.6z"/><path class="st81" d="M59.5 143.2l-2-10.5 4.1 12.1zM57.5 132.7l4 12-2-1.6z"/><path class="st82" d="M61.5 144.7l4.7-28.8s1.5.1 2.4.7c.9.6 3 1.9 3 1.9l3.5 29.8-.8 2.5-3.9.8-8.9-6.9zM75.1 148.4l-3.5-29.8s-2.1-1.3-3-1.9c-.9-.6-2.4-.7-2.4-.7l-4.7 28.7 9 6.9 3.8-.8.8-2.4z"/><path class="st83" d="M75.1 148.4l-3.6-29.9h.1c3.6 1.5 9.1 3.6 9.5 3.4l.1-.1-6.1 26.6zm-3.4-29.7l3.4 29.5 6-26.1c-1.2-.1-8.3-3-9.4-3.4M81.2 121.9l-6.1 26.4-3.5-29.8c0 .1 9 3.8 9.6 3.4"/><path class="st84" d="M81.2 121.8l5.7 19.7-6.7 3.1-5.2 3.9zM86.8 141.5l-5.6-19.6-6.1 26.5 5.1-3.8z"/><path class="st85" d="M57.5 132.7c-2.7-10.4 0-21.4 0-21.5v-.2l6.5 19.1-2.4 14.6h-.1l-4-12zM57.5 111.2s-2.7 11 0 21.5l4 12 2.4-14.6-6.4-18.9z"/><path class="st86" d="M81.1 121.9l8.7-2-4.4 16.9zM89.7 119.9l-8.5 2 4.2 14.7z"/><path class="st43" d="M88.7 138.4h4.9l-2.4 1.5-2.5.8zM88.8 140.6v-2.1h4.6l-2.2 1.4z"/><path class="st87" d="M85.4 136.6l3.4-5.2v9.2l-2 .9zM88.8 131.6l-3.4 5 1.4 4.9 2-.9v-2.1z"/><path class="st88" d="M85.4 136.6l4.3-16.7 1.5-6 2.9 9.4-5.3 8.3-3.4 5.1zM94.1 123.3l-5.3 8.3-3.4 5 4.3-16.7 1.5-5.8z"/><path class="st89" d="M94.1 139.7l-.7-1.2 2.2-5.9 6.3 5.9-3.1 1.4-2.2.8zM93.4 138.5l2.2-5.8 6.2 5.8-3.1 1.4-2.1.7-2.5-.9z"/><path class="st90" d="M101.7 138.5l1.8-10.7 5 6.6-2 4.9zM106.5 139.2l1.9-4.8-4.9-6.5-1.7 10.6z"/><path class="st91" d="M95.6 132.7l4-12 4 7.2-1.8 10.7zM99.6 120.8l-4 11.9 6.2 5.8 1.7-10.6z"/><path class="st92" d="M88.7 138.5v-6.9l5.4-8.4 1.6 9.5-2.2 5.8zM94.1 123.3l1.5 9.4-2.2 5.8h-4.6v-6.9z"/><path class="st93" d="M95.6 132.7l-1.6-9.4-2.8-9.2 2.2-4.1 8.1 2.7-1.9 8.1-3.9 11.9zM99.6 120.8l1.9-8-8.1-2.7-2.2 4 2.9 9.2 1.5 9.4z"/><path class="st94" d="M57.5 111.2l.9-4.4 7-3.5.9 12.7-2.3 14.1h-.1zM58.4 106.8l-.9 4.4 6.4 18.9 2.3-14.1-.9-12.6z"/><path class="st95" d="M81.2 122c-.1 0-4.3-.8-9.6-3.4h-.1l3.9-1.8s4.4.3 5.6 0h.1l.1 5.2zm-9.5-3.4c4.9 2.3 8.9 3.2 9.4 3.3l-.2-5c-1.3.2-5.2 0-5.5 0l-3.7 1.7zM71.6 118.6l3.8-1.7s4.4.3 5.6 0l.2 5.1c0-.1-4.2-.8-9.6-3.4"/><path class="st96" d="M80.9 116.8l9 3.1-8.8 2.1zM89.7 119.9l-8.8-3.1.3 5.1z"/><path class="st97" d="M81.3 117l-.9-.3.5.1c.2 0 .4.1.7.1 1.8 0 5.5-.9 5.5-.9l4.1-1.9-1.5 6-8.4-3.1zM87.1 116s-4.9 1.2-6.2.8c-1.3-.4.4.1.4.1l8.4 2.9 1.5-5.8-4.1 2z"/><path class="st98" d="M71.6 118.6c-2.1-1.5-3.4-2.1-4.2-2.4-.8-.3-1.2-.2-1.2-.2v-.1l4.6-1.9c.6 1.2 4.5 2.7 4.6 2.7h.1l-3.9 1.9zm-5.1-2.7c.6 0 2.1.4 5.1 2.6l3.6-1.7c-.6-.3-3.9-1.6-4.5-2.7l-4.2 1.8zM70.8 114.1l-4.5 1.9s1.3-.3 5.4 2.6l3.8-1.7c-.1-.1-4.1-1.6-4.7-2.8"/><path class="st99" d="M91.2 114.2s-4.2-2.6-4.7-2.9l3.8-6 3.2 4.9-2.3 4zm-4.6-3c.6.4 4.2 2.6 4.6 2.9l2.2-4-3.1-4.7-3.7 5.8zM86.5 111.2l3.7-5.9 3.2 4.8-2.2 4s-4.2-2.6-4.7-2.9"/><path class="st100" d="M86.4 111.1l4.9 3-4.2 2zM87.1 116l-.6-4.8 4.7 2.9z"/><path class="st101" d="M87.1 115.9c-.4-2.1-6.8-4.6-6.9-4.7h-.1l2.6-1.6c.9.4 3.8 1.5 3.8 1.5l.6 4.8c.1 0 .1.1.1.1h-.1v-.1zM80.2 111.2s6.8 2.7 6.9 4.8l-.6-4.8s-2.9-1.1-3.8-1.5l-2.5 1.5z"/><path class="st102" d="M76.4 110c1.2-.3 6.1-.4 6.3-.4h.2l-2.6 1.6c-.4-.2-.9-.3-1.4-.3-1.6 0-3.4.7-3.4.7l.9-1.6zM75.4 111.6s3.1-1.2 4.8-.4l2.5-1.5s-5.1.1-6.3.4l-1 1.5z"/><path class="st103" d="M72.3 111.2c.3-.5 4-1.1 4.1-1.1h.1l-1.1 1.7c-1 .3-4.6 2.5-4.6 2.5l-.1.1 1.6-3.2zM70.8 114.1s3.6-2.1 4.6-2.5l1-1.6s-3.8.7-4.1 1.1l-1.5 3z"/><path class="st104" d="M66.1 114.1c.2-.1 4.6-2.9 6.1-2.9H72.5l-1.5 3-4.6 2-.3-2.1zM66.1 114.1s4.8-3.1 6.2-2.9l-1.5 2.9-4.5 1.9-.2-1.9z"/><path class="st105" d="M66.1 114.2l-.5-7.1 4.3-1.9 6.6 4.9h-.1c-2.7.4-4.1 1.1-4.1 1.1-2.3.1-6.1 2.9-6.2 3zm-.4-7l.5 6.8c.5-.4 4-2.8 6.1-2.9.1-.1 1.5-.7 4-1.1l-6.4-4.7-4.2 1.9zM76.4 110.1l-6.5-4.8-4.3 1.9.5 7s3.8-2.8 6.2-2.9c0-.1 1.4-.8 4.1-1.2"/><path class="st106" d="M76.4 110.1l-6.6-4.8v-.1c.9.2 11 2.1 11.1 2.1l1.8 2.4h-.1c-2.2-.1-6.2.4-6.2.4zm-6.3-4.8l6.4 4.7c.3 0 3.9-.5 6.1-.4l-1.6-2.2c-.5-.1-9.3-1.8-10.9-2.1M82.7 109.7l-1.7-2.3s-10.1-2-11.1-2.1l6.5 4.8s4-.6 6.3-.4"/><path class="st107" d="M82.6 109.7l-1.8-2.4 7 1.9-1.3 2zM87.7 109.2l-6.8-1.8 1.8 2.3 3.8 1.5z"/><path class="st108" d="M65.3 103.4l5.8-2.8-1.2 4.7-4.3 1.9zM71 100.7l-5.7 2.7.3 3.8 4.3-2z"/><path class="st109" d="M69.8 105.3l1.2-4.7 6.5 6.2zM77.3 106.7l-6.3-6-1.1 4.5z"/><path class="st110" d="M77.3 106.7l-6.3-6v-.1l11.2 2.9-1.2 3.9zM82.2 103.6l-1.3 3.8-3.6-.7-6.3-6z"/><path class="st111" d="M82.1 103.5l4.5 1.2-5.7 2.8zM86.5 104.7l-5.6 2.7 1.3-3.8z"/><path class="st112" d="M80.8 107.4l5.7-2.8 1.3 4.7zM87.7 109.2l-1.2-4.5-5.6 2.7z"/><path class="st113" d="M86.4 104.6l3.9.6-2.6 4.2zM90.2 105.2l-3.7-.5 1.2 4.5z"/><path class="st114" d="M111.2 144.5l-4.8-5.3 2-4.9 8.7 13.2h-.1zM117 147.5l-8.6-13.1-1.9 4.8 4.7 5.2z"/><path class="st115" d="M108.4 134.4l3.3-17.5 9.3 20.8-4 9.9zM111.7 117l-3.3 17.4 8.6 13.1 4-9.8z"/><path class="st116" d="M111.7 116.9h.1c.5.2 1.1.3 1.9.3 3.1 0 7.3-1.7 7.4-1.7h.1v22.3h-.1l-9.4-20.9zM121 115.6s-6.2 2.6-9.2 1.5l9.2 20.7v-22.2z"/><path class="st117" d="M120.9 137.7l4.1-7.7 4.7 11.3-2.5 9.3zM125 130.1l-4 7.6 6.2 12.8 2.5-9.2z"/><path class="st118" d="M129.7 141.4l-.1-.1-4.7-11.2 8.5-10.3v.1c0 .1-.3 7.3-.4 8.4-.1 1.1-3.1 12.5-3.3 13v.1zm-4.6-11.3l4.6 11c.3-1.3 3.1-11.9 3.2-12.9.1-1 .4-7.2.4-8.2l-8.2 10.1zM133.4 119.9l-8.4 10.2 4.7 11.2s3.1-11.9 3.2-13c.1-1.1.5-8.4.5-8.4"/><path class="st119" d="M120.9 137.7v-22.2l12.6 4.4-8.5 10.2-4 7.7zM121 115.6l12.4 4.3-8.4 10.2-4 7.6z"/><path class="st120" d="M103.5 128l-3.9-7.2 6.2-4.9s3.5 1.1 5.3 1.1c.3 0 .5 0 .7-.1h.1l-3.3 17.6-5.1-6.5zM99.6 120.8l6.2-4.8s4.7 1.5 6 1l-3.3 17.4-4.9-6.4-4-7.2z"/><path class="st121" d="M101.4 112.7l4.4 3.3-6.3 4.9zM101.5 112.8l4.2 3.2-6.1 4.8z"/><path class="st122" d="M120.9 115.6l3.1-2 8.5-4 .9 10.4zM124.1 113.6l-3.1 2 12.4 4.3-.9-10.2z"/><path class="st123" d="M93.4 110.1l-3.2-4.8 1.2-2.7 13.1 1.4-3 8.8zM104.5 104l-.7 2-2.3 6.8-8.1-2.7-3.2-4.9 1.2-2.5z"/><path class="st124" d="M104.5 103.9l2 6.2-5.1 2.8zM106.5 110.1l-5 2.7 3-8.8z"/><path class="st125" d="M101.4 112.8l5.1-2.8v.1l-3 4.2zM103.5 114.3l-2-1.5 5-2.7z"/><path class="st126" d="M106.4 110l7.8 1.6v.1l-5.4 1.2zM114.2 111.6l-5.4 1.2-2.3-2.7z"/><path class="st127" d="M114.2 111.7l-7.7-1.6v-.1s4.1-.5 9.4 0h.1l-1.8 1.7zm-7.4-1.6l7.4 1.5 1.6-1.5c-4.5-.4-8-.1-9 0M115.9 110.1l-1.7 1.6-7.7-1.6s4-.6 9.4 0"/><path class="st128" d="M120.9 115.6s-.2-1.2-.9-1.9v-2.5l4.1 2.5-3.2 1.9zM121 115.6s-.2-1.2-.9-2v-2.4l4 2.4-3.1 2z"/><path class="st129" d="M120 113.6c-1.2-1.3-3-1.5-3-1.5v-.1l3.1-.9-.1 2.5zM117 112.1s1.9.2 3.1 1.5v-2.4l-3.1.9z"/><path class="st130" d="M114.1 111.7l1.8-1.7s2.8.7 4.2 1.1h.1l-3.2 1-2.9-.4zM115.9 110.1s2.8.7 4.2 1.1l-3.1.9-2.8-.4 1.7-1.6z"/><path class="st131" d="M105.6 116l2-2 2.7 3.1zM110.1 117l-2.5-2.9-1.9 1.9z"/><path class="st132" d="M120 111.2l3-3.6 5.4 4-4.3 2zM128.3 111.6l-5.3-3.9-2.9 3.5 4 2.4z"/><path class="st133" d="M120.1 111.2s-3.6-1-4.2-1.1c0 0-3.2-.2-5.9-.2-1.6 0-2.8.1-3.4.2h-.1v-.4c.1 0 10.9-2.2 15.3-2.2.5 0 1 0 1.3.1h.1l-3.1 3.6zM106.5 109.8s13.6-2.7 16.6-2.1l-3 3.5s-3.6-1-4.2-1.1c0 0-7.1-.6-9.4 0v-.3z"/><path class="st134" d="M104.4 103.9l9.5 4.6-7.5 1.3zM104.5 104l9.3 4.5-7.3 1.3z"/><path class="st135" d="M107.7 105.6l9.4-1.7-3.3 4.7zM117 104l-3.2 4.5-6-2.9z"/><path class="st136" d="M113.7 108.6l3.3-4.6 6 3.7v.1c-3.2-.3-9.2.8-9.3.8zm3.3-4.5l-3.2 4.3c.8-.1 6-1 9-.8l-5.8-3.5zM123 107.7l-6-3.7-3.3 4.5c.1 0 6.1-1.1 9.3-.8"/><path class="st137" d="M123 107.8l-6.2-3.8h.1c.1 0 5.7-.4 8.3.7h.1l-2.3 3.1zm-5.8-3.7l5.9 3.6 2.2-2.9c-2.4-1.1-7.2-.8-8.1-.7M125.3 104.7l-2.3 3-6-3.7s5.7-.4 8.3.7"/><path class="st138" d="M125.3 104.6l4 3.1-6.4.1zM129.2 107.6l-3.9-2.9-2.3 3z"/><path class="st139" d="M122.9 107.7l6.3-.1 3.4 2.1-4.3 2zM132.5 109.7l-3.3-2.1-6.2.1 5.3 3.9z"/><path class="st140" d="M129.2 107.7l-3.9-3 7.2-7.9v13zM132.5 96.9l-7.2 7.8 3.9 2.9 3.3 2.1z"/><path class="st141" d="M109.5 80c.2.1 9.1 3.7 11.7 5.5l4.2 19.3h-.1s-2-.8-5.9-.8c-.8 0-1.6 0-2.4.1l-9.2 1.6 1.7-25.7zM107.8 105.6l1.7-25.6s9 3.6 11.6 5.5l4.2 19.2s-2.7-1.1-8.3-.7l-9.2 1.6z"/><path class="st142" d="M121.1 85.4c5.4 2.9 11.4 11.4 11.4 11.5l-7.2 7.9-4.2-19.4zM132.5 96.9s-6-8.6-11.3-11.4l4.2 19.2 7.1-7.8z"/><path class="st143" d="M104.4 104.1L95.5 78h.1c.5 0 13.1.9 14 2l-1.7 25.7-3.5-1.6zM104.5 104l-8.9-26s13 .8 14 2l-1.7 25.6-3.4-1.6z"/><path class="st144" d="M91.3 102.7L95.6 78h.1l8.8 26.1zM91.4 102.7L95.6 78l8.9 26z"/><path class="st145" d="M79.3 81.4c.1-.1 9.5-3.6 14.8-3.6.6 0 1.1 0 1.5.1l-4.2 24.7-1.2 2.7-10.9-23.9zM79.4 81.5s11.5-4.3 16.2-3.4l-4.2 24.7-1.2 2.6-10.8-23.9z"/><path class="st146" d="M86.5 104.7l-10.3-2.6 3.2-20.8 10.9 24zM76.3 102l3.1-20.5 10.8 23.7-3.7-.5z"/><path class="st147" d="M71 100.7l-5.4-12.2c.1-.1 9.9-6 13.8-7.1h.1l-3.1 20.7-5.4-1.4zM71 100.7l-5.4-12.1s9.8-6 13.8-7.1L76.3 102l-5.3-1.3z"/><path class="st148" d="M56.7 98.4l14.5 2.2-12.8 6.3zM58.4 106.8l-1.6-8.4 14.2 2.3z"/><path class="st144" d="M56.7 98.5c-.9-4.8 8.8-10 8.9-10l5.5 12.3-14.4-2.3zM65.6 88.5s-9.8 5.1-8.8 9.9l14.2 2.2-5.4-12.1z"/><path class="st149" d="M77 117l-1.6-.1c-.2-.1-4.3-1.8-4.6-2.8.2-.1 4.3-2.4 4.6-2.5h.1v.1c-.1 0-1.5 3.6 1.5 5.3zm-1.6-.2l1.4.1c-2.6-1.5-1.7-4.5-1.5-5.1-.7.3-4.1 2.2-4.5 2.4.4.9 4.4 2.5 4.6 2.6M75.4 111.6s-1.5 3.7 1.6 5.3l-1.6-.1s-4.3-1.7-4.6-2.7c0 0 4.3-2.4 4.6-2.5"/><path class="st150" d="M82.2 116.9c2.4-.6 1.8-3.9 1.8-3.9v-.1l.1.1c3.1 1.8 3.1 3 3.1 3l-5 .9zm1.9-3.8c.1.5.3 2.8-1.3 3.6l4.3-.8c0-.1-.1-.4-.4-.8-.3-.3-1.1-1.1-2.6-2M84 113s.6 3.3-1.9 3.9l5-.9s0-1.2-3.1-3"/><path class="st151" d="M80.4 117c2-2.4 1.9-3.9 1.9-4.5v-.3h.1c.4.1 1.6.8 1.6.9.5 3-1.6 3.8-1.6 3.9h-2zm2-4.8v.2c0 .6.1 2.1-1.8 4.4l1.9-.1c.1 0 .5-.2 1-.8.4-.5.8-1.4.6-3-.3.1-1.4-.6-1.7-.7M82.4 112.2c-.3-.1.7 1.6-1.9 4.7l2-.1s2.1-.8 1.6-3.8c-.1 0-1.3-.7-1.7-.8"/><path class="st152" d="M115.9 117.1c1-.8 1.5-1.9 1.5-3.2 0-1-.4-1.7-.4-1.8v-.1h.1c3.5.6 4 3.5 4 3.5-1.4 1-5.1 1.5-5.2 1.6m1.2-5c.1.2.3.9.4 1.7 0 .9-.2 2.1-1.4 3.1.8-.1 3.7-.7 4.9-1.4-.1-.3-.7-2.8-3.9-3.4M117 112.1s1.5 3.1-1.1 4.9c0 0 3.8-.6 5.1-1.5 0 .1-.5-2.8-4-3.4"/><path class="st153" d="M113.2 117.3c-.3 0-.5 0-.7-.1 0 0-3.1-2.1-1.8-4.9l3.3-.8 2.9.5s.4.8.4 1.8c0 .9-.2 2.2-1.6 3.2.1.1-1.4.3-2.5.3m-.6-.1c.8.2 3.1-.2 3.2-.2 1-.7 1.5-1.7 1.5-3.1 0-.9-.3-1.6-.4-1.8l-2.8-.4-3.3.7c-.5 1.1-.4 2.3.4 3.4.6.8 1.3 1.3 1.4 1.4M112.6 117.2s-3.1-2-1.7-4.8l3.3-.7 2.8.4s1.4 3.2-1.1 4.9c0 0-2.5.4-3.3.2"/><path class="st154" d="M111.7 117.1h-1.6l-2.6-3 1.3-1.3 2.2-.5v.1c-1.4 2.6 1.7 4.8 1.7 4.8v.1l-1-.2zM108.8 112.8l-1.2 1.3 2.5 2.9h1.6l.8.2s-3.1-2.1-1.7-4.8l-2 .4z"/><path class="st155" d="M54.5 108.5l2.2-10.8h.1l1.6 9.1-1.2 6.2zM57.2 112.8l-2.7-4.3.5-2.2 1.7-8.6 1.7 9.1z"/><path class="st156" d="M54.6 107.7l-1.8-11.3 5.6-2.4.1.1s-1.8 2.2-1.6 4c.1.8.1.8 0 .8 0 0-.1 0-.1-.7l-2.2 9.5zM54.7 107.7l-1.8-11.3 5.6-2.4s-1.8 2.2-1.6 4-.1-.2-.1-.2l-2.1 9.9z"/><path class="st157" d="M50.9 110.1l-2.2 1.6.7-2.5c.6-1.3 1.4-2 2.5-2 1.4 0 2.7 1.2 2.7 1.3l2.7 4.4-.7 5.1-5.7-7.9zM54.5 108.5s-3.3-3.2-5 .7l-.7 2.4 2.1-1.6 1.8 2.4 3.8 5.3.7-4.9-2.7-4.3z"/><path class="st158" d="M49.1 121.4l.9-10.7.9-.7 1.5 2.1-3.2 9.3zM49.1 121.4l3.2-9.3-1.4-2-.9.6z"/><path class="st159" d="M56.9 130.1l-3.3-6.8 2.8-5.5h.1c-.5 7.9.5 12.3.4 12.3zm-3.2-6.8l3.1 6.5c-.1-.5-.2-1.4-.4-2.8-.2-1.9-.3-4.9-.1-9l-2.6 5.3zM56.5 117.8l-2.8 5.5 3.3 6.8c-.1 0-1.1-4.3-.5-12.3"/><path class="st160" d="M59 140.9c-.7 0-4.3-.3-6.7-5.7l1.9-10.9 2.8 5.8 2.1 10.8H59c.1 0 .1 0 0 0"/><path class="st160" d="M59.1 140.9s-4.1.3-6.7-5.7l1.9-10.7 2.7 5.6 2.1 10.8z"/><path class="st161" d="M52.3 135.2c-1.4-.9-4.2-11.5-4.3-11.9v-.1h5.7l.6 1.2-2 10.8zM48 123.3s2.9 11 4.3 11.9l1.9-10.7-.6-1.2H48z"/><path class="st162" d="M48 123.3l1.1-1.9 3.2-9.4 4.2 5.8-2.8 5.5zM49.1 121.4l-1.1 1.9h5.7l2.8-5.5-4.2-5.7z"/><path class="st163" d="M48 123.3c-.9-3.2.7-11.6.8-11.7l1.3-1-.9 10.8-1.2 2v-.1zM48.8 111.6s-1.7 8.4-.8 11.7l1.1-1.9.9-10.7-1.2.9z"/><path class="st164" d="M132.8 113.9l-.4-4.2V96.8l4 2.7-3.5 14.5zM132.9 113.9l3.4-14.4-3.8-2.6v12.8z"/><path class="st165" d="M133.3 119.9l-.5-6 1.3-5.5c.2-.1.5-.2.7-.2.6 0 1.1.3 1.5 1 1.2 1.7 1.7 5.2 1.5 5.7-.1.2-.2.5-.3.9-.5 1.6-.6 2-.7 2-.1 0-.1-.1-.1-.2 0-.9-.8-5.8-1.1-6 0 .1-.3.7-1.6 5.6-.3 1.5-.6 2.7-.7 2.7zM133.4 119.9s.3-1.2.7-2.7c.6-2.4 1.5-5.6 1.6-5.6.3.1 1.1 5.2 1.1 6.1 0 .8.8-2 1-2.7.3-.7-.9-7.8-3.7-6.5l-1.3 5.5.6 5.9z"/><path class="st166" d="M134 117.2l1.7-5.7.1.1s.2.2.4 1.4.7 4.6.7 4.7l-.6 7.5h-.1l-2.2-8zM136.2 125.2l-2.1-8 1.6-5.6s.2.2.4 1.4.7 4.7.7 4.7l-.6 7.5z"/><path class="st167" d="M131.3 135.2c-.1-.1 1.6-6.9 1.6-7.3 0-.3.4-7.9.4-8l.7-2.9v.2l2.1 8-4.8 10zm2.8-17.8l-.6 2.5c0 .1-.4 7.7-.4 8 0 .3-1.2 5.3-1.6 6.8l4.7-9.6-2.1-7.7zM131.3 135.2l4.9-10-2.1-8-.7 2.7s-.4 7.7-.4 8c-.1.4-1.7 7.3-1.7 7.3"/><path class="st168" d="M130.4 138.5l.9-3.3 4.9-10 .6-7.5 1-2.7h.1l-.6 10.4c0 .2-.6 5.3-1 6.2-.5 1-5.6 6.7-5.9 6.9zM130.4 138.5s5.4-5.9 5.8-6.9c.4-1 1-6.2 1-6.2l.6-10.4-1 2.7-.6 7.5-4.9 10-.9 3.3z"/><path class="st169" d="M132.5 97l-2.5-3.1.8-6.3.1.1c0 .1 4.1 6.7 4.6 8.2.5 1.5.9 3.7.9 3.7v.1l-3.9-2.7zM130 93.8l.8-6.2s4.1 6.6 4.6 8.2c.5 1.5.9 3.7.9 3.7l-3.8-2.6-2.5-3.1z"/><path class="st170" d="M130.1 94c-.1-.2-4.9-6.5-8.9-8.4v-.1l9.7 2.2-.8 6.3zm-8.6-8.4c3.7 2 7.9 7.3 8.5 8.1l.8-6-9.3-2.1zM121.2 85.5l9.7 2.2-.8 6.2c-.1-.1-4.9-6.4-8.9-8.4"/><path class="st171" d="M121.1 85.5c-2.7-1.7-11.5-5.4-11.6-5.5l.8-7.3h.2c.2 0 9.6 3.7 10.7 4.1l-.1 8.7zM110.3 72.8l-.8 7.2s8.9 3.8 11.6 5.5v-8.6s-10.5-4.1-10.7-4.1h-.1z"/><path class="st170" d="M121.1 85.5v-8.7h.1c2.9 1.5 10.3 8.1 10.3 8.2l-.7 2.7-9.7-2.2zM130.8 87.7l.7-2.6s-7.4-6.6-10.3-8.2v8.6l9.6 2.2z"/><path class="st172" d="M109.6 80.1c-.8-.5-4.7-1.6-14-2.1v-.1l14.8-5.2v.1l-.8 7.3zM95.9 78c10.5.5 13.2 1.7 13.7 2l.8-7.1L95.9 78zM95.6 78l14.7-5.2-.8 7.2c.1 0-2.1-1.4-13.9-2"/><path class="st173" d="M95.6 78.1l-10.3-4.5h.1c7.4-2.2 13.8-2.3 17.9-2 4.4.3 7.1 1.2 7.1 1.2h.1l-14.9 5.3zm-10.1-4.5L95.6 78l14.6-5.2c-.6-.2-3.1-.9-6.9-1.2-4.1-.3-10.4-.2-17.8 2M85.4 73.6L95.6 78l14.7-5.2s-10.5-3.5-24.9.8"/><path class="st174" d="M79.3 81.6l6.1-8.1L95.6 78v.1s-3.9-1-16.2 3.4l-.1.1zm6.1-8l-5.9 7.7c10.2-3.6 14.5-3.6 15.7-3.5l-9.8-4.2zM79.4 81.5l6-7.9L95.6 78s-3.7-1-16.2 3.5"/><path class="st175" d="M65.6 88.6l5.3-8.9s3.6-1.6 7.2-3.1c7.2-3.1 7.2-3.1 7.3-3-.6.8-6 7.9-6 7.9s-.9.3-3.1 1.2c-1.9 1-5.4 2.7-10.7 5.9m5.4-8.9l-5.3 8.6c5.2-3.1 8.6-4.8 10.5-5.7 2-.9 2.9-1.2 3.1-1.2.2-.3 5-6.6 5.9-7.8-1.1.5-9.6 4.2-14.2 6.1M65.6 88.5l5.4-8.8s14.5-6.3 14.4-6.1c-.6.8-6 7.9-6 7.9s-3.6.9-13.8 7"/><path class="st176" d="M52.8 96.4c.1-.1 8.6-13.2 18.2-16.7h.1l-5.5 8.9c-.1 0-5.3 2.9-7.2 5.5l-5.7 2.5.1-.2zM52.8 96.4S61.3 83.3 71 79.7l-5.4 8.8s-5.3 2.9-7.2 5.5l-5.6 2.4z"/><path class="st169" d="M136.4 99.5c-.1 0-.5-1.6-.8-3.1-.4-1.5-4.7-8.7-4.8-8.7l.7-2.6c1.2-.3 6.1 8.4 6.4 8.8l-1.5 5.6zm-5.5-11.8c.3.5 4.4 7.2 4.8 8.7.3 1.2.6 2.5.7 2.9l1.4-5.5c-.1-.2-1.4-2.4-2.7-4.5-2.3-3.6-3.2-4.2-3.5-4.2l-.7 2.6zM136.3 99.5l1.5-5.7s-5.1-9.1-6.3-8.8l-.7 2.6s4.4 7.2 4.8 8.7c.4 1.7.7 3.2.7 3.2"/><path class="st177" d="M137.8 93.7c1.6 2.1 2.1 4 1.7 5.9-.8 3.3-4.3 5.1-4.3 5.1h-.1l2.7-11zM135.1 104.7s7.8-4 2.7-10.9l-2.7 10.9z"/><path class="st178" d="M139.5 99.4v-.2s.3-3-1.7-5.4c-.1-.1-4.8-8.7-6.2-8.7h-.1l1.4-4.2.1.1 6 11.2s.5 1.4.8 2.9c.4 2.1.4 3.5-.2 4.1l-.1.2zM131.6 85c1.6.2 6.1 8.4 6.3 8.8 1.7 2.1 1.8 4.6 1.7 5.3 1-1.7-.7-6.8-.7-6.8l-6-11.1-1.3 3.8zM131.5 85.1l1.4-4 6 11.2s1.9 5.4.6 7c0 0 .3-3-1.7-5.4 0-.1-4.8-8.9-6.3-8.8"/><path class="st179" d="M131.5 85.2c-4.3-4.2-10.3-8.2-10.4-8.2l.4-12.1c2.4 0 11 15.5 11.3 16.2l-1.3 4.1zm-10.3-8.3c.4.3 6.1 4.1 10.3 8.1l1.3-3.9c-.3-.6-8.8-15.9-11.2-16.1l-.4 11.9zM121.6 64.9l-.4 12s6 4 10.3 8.2l1.4-4c0-.1-8.9-16.2-11.3-16.2"/><path class="st180" d="M121.2 77c-.2-.1-10.4-4-10.9-4.1-.1 0-.1-.1-.2-.1-.6-.2-2-.8-9.1-1.3v-.1l20.7-6.6-.5 12.2zm-20-5.6c6.9.5 8.3 1 8.9 1.3.1 0 .2.1.2.1.5.2 9.8 3.7 10.8 4.1l.4-11.9-20.3 6.4zM101 71.4l20.6-6.5-.4 12s-10.3-4-10.8-4.1c-.6-.2-1.2-.8-9.4-1.4"/><path class="st181" d="M101 71.5l-7.2-16h.1c5.4-.5 12.7 2.1 17.8 4.3 5.6 2.5 9.9 5.1 9.9 5.1l.1.1h-.1L101 71.5zm-7.1-16l7.1 15.8 20.5-6.5c-.7-.4-4.7-2.8-9.8-5-5.2-2.2-12.4-4.8-17.8-4.3M93.8 55.5l7.1 15.9 20.6-6.5c.1 0-17.2-10.4-27.7-9.4"/><path class="st182" d="M85.4 73.6c-.1-.1-.3-.2 4.1-9.2 2.1-4.4 4.3-8.9 4.3-8.9v-.1l7.2 16.1h-.1s-10.3.1-15.5 2.1m0-.1zm8.4-17.9c-3.4 6.9-8.3 17.1-8.4 17.9 4.9-1.9 14.6-2.1 15.5-2.1l-7.1-15.8zM85.4 73.6c-.6.2 8.4-18.1 8.4-18.1l7.1 15.9c.1 0-10.3.1-15.5 2.2"/><path class="st183" d="M71.7 62.7c.2-.1 12-7.6 19.5-7.6 1 0 1.8.1 2.6.4h.1c-.1.2-8.2 16.4-8.4 18.1v.1l-13.8-11zM71.8 62.7s15-9.6 22-7.2c0 0-8.2 16.4-8.4 18.1L71.8 62.7z"/><path class="st184" d="M61.8 72.4c.3-.5 9-9.1 10-9.7l13.7 11-23.7-1.3zM61.9 72.4c.2-.3 8.9-9 9.9-9.7l13.6 10.8-23.5-1.1z"/><path class="st185" d="M62.7 85.1V85l-.8-12.6h.1l23.5 1.2v.1c-.1 0-7.5 3.1-14.4 6.1-2.8 1.1-6.4 3.2-8.4 5.3zM62 72.4l.8 12.4c2-2 5.6-4 8.2-5.2 6.3-2.8 13-5.6 14.2-6.1L62 72.4zM62.7 85l-.8-12.6 23.5 1.2s-7.4 3-14.4 6.1c-3 1.3-6.4 3.4-8.3 5.3"/><path class="st186" d="M52.8 96.4l2.8-12.6c.1-.5 3-10.7 6.3-11.5h.1l.8 12.7c-.1.1-6.5 6-10 11.4zM55.6 83.8c.1-.7 3-10.7 6.3-11.4l.8 12.6s-6.4 5.9-9.9 11.4l2.8-12.6z"/><path class="st187" d="M50 96.4c.1-.4 3.4-11 5.3-11.5h.1l-2.1 9.7-3.3 1.9v-.1zM50 96.4s3.4-11 5.3-11.4l-2.1 9.6-3.2 1.8z"/><path class="st188" d="M54.5 108.5c-.2-.5-4.7-11.4-4.5-12.1l3.3-1.9-.4 1.9 1.8 11.3h-.1l-1.8-11.3.4-1.7-3.1 1.8c-.1.6 2.8 8.1 4.4 12zM54.5 108.5S49.8 97.2 50 96.4l3.2-1.8-.4 1.8 1.8 11.3"/><path class="st189" d="M90.7 150.5l-2-4.6 2.3-1.3 3.4 1.2 3.1 2.1-4.2 2.6zM90.7 150.5h2.6l4.1-2.6-3-2-3.4-1.2-2.2 1.2z"/><path class="st190" d="M91.2 151.8c-.4 0-1.4-.2-1.9-.3h-.1c-.1 0-.3 0-.6.1-.2 0-.5.1-.8.1h-1.4c-1.1 0-3.8-.5-3.8-.5v-.1h.7c4.1 0 5.4-.6 5.4-.6l2-.2h2.8l-2.2 1.4c0 .1-.1.1-.1.1"/><path class="st190" d="M93.3 150.5h-2.6l-2 .2s-1.4.7-6.1.6c0 0 2.8.5 3.8.5 1.1 0 .7 0 1.4-.1.6-.1 1.2-.2 1.4-.2.2 0 1.7.3 2 .3l2.1-1.3z"/><path class="st191" d="M77 117s-3.1-1.5-1.7-5.3c0 0 1.6-.7 3.3-.7.6 0 1.1.1 1.5.2l2.2 1s.1 2.6-1.9 4.8H77zM77 116.9s-3.1-1.4-1.6-5.3c0 0 2.7-1.1 4.8-.4l2.2 1s.1 2.5-1.9 4.7H77z"/><path class="st192" d="M79.3 113.6c-.1 0-.2 0-.3-.1-.1 0-.7-.3-.8-.9 0 0 0-.3.1-.5.1-.1.4-.2.6-.2.5 0 .8.2.9.4.1.2.2.4.2.5 0 .2-.3.5-.6.7.1 0 0 .1-.1.1m-.4-1.5c-.2 0-.4.1-.5.2-.1.2-.1.4-.1.4.1.5.7.8.7.8.1.1.3.1.5 0 .3-.1.5-.4.5-.6 0-.1 0-.3-.2-.4-.1-.1-.4-.3-.8-.4h-.1M79 113.4s-.7-.3-.7-.8c0 0-.1-.7.7-.6.8.1 1.1.6 1 .8 0 .3-.5 1-1 .6M115.2 113.6l-1.4-.2c-.1-.3-.3-.9-.2-1 .1-.1 1.8-.1 2 0 .1 0 .1.1.1.3-.1.2-.2.8-.5.9zm-1.3-.3l1.3.2c.2-.1.3-.6.3-.9v-.2c-.2-.1-1.7-.1-1.9 0 0 .1.1.5.3.9M115.2 113.6l-1.4-.2s-.3-.9-.2-1c.1-.1 1.7-.1 1.9 0 .2.1 0 1.1-.3 1.2"/><path class="st193" d="M111.7 116.5l2.5-1.6 2.9.8c.1.4-1 1.2-1.2 1.3l-3.3.2-.9-.7zM114.2 115l-2.4 1.5.8.7 3.3-.2s1.3-.9 1.1-1.3l-2.8-.7z"/><path class="st194" d="M103.4 114.3l3.1-4.6 2.4 3.1-3.2 3.3zM108.8 112.8l-2.3-3-3 4.5 2.2 1.7z"/><path class="st195" d="M77 117c-.2 0-.9-.7-1-.8l1.2-1.4 2 .7 1.4 1.5H77zM77.2 114.8l-.1.2-1 1.2s.8.7 1 .7h3.5l-1.3-1.4-2.1-.7z"/><path class="st196" d="M76.2 116.4c-.1-.1-1.1-1.4-1.2-2.4v-.1l2.5.2-.2.8-1.1 1.5zm-1.1-2.4c.1.9.9 2 1.1 2.2l1-1.4.1-.6-2.2-.2zM75 113.9l2.3.2-.1.7-1 1.5s-1.1-1.3-1.2-2.4"/><path class="st197" d="M111.7 116.6c-.1-.1-1-1.4-1.2-2.1v-.1c.1-.2 2.6-1 3-1.1h.1v2.1l-1.9 1.2zm-1.1-2.1c.2.6 1 1.8 1.1 2l1.8-1.1v-1.9c-1.3.3-2.8.8-2.9 1m0-.1zM110.6 114.5c-.1-.2 3-1.1 3-1.1v2l-1.8 1.2c-.1-.1-1-1.4-1.2-2.1"/><path class="st198" d="M105.5 152.1h-4.2l-1.1-1.5h.1s1.2-.5 2.8-.5c.8 0 1.6.1 2.3.3l3.9 1.8v.1l-3.8-.2zM100.3 150.6s2.3-1 5.1-.2l1.4.6 2.5 1.2-3.8-.2h-4.2l-1-1.4z"/><path class="st199" d="M110.2 152.4h-.9l-2.1-1 3.9-.7 1.8 1.4.3 2.6zM110.2 152.4l-.9-.1-1.9-.9 3.7-.6 1.7 1.3.3 2.5z"/><path class="st200" d="M107.4 151.5s-3.1-1.9-7.1-.8h-.1l1.5-6.4h.1l5.9 3.5 3.5 2.9-3.8.8zm-4.6-1.3c2.6 0 4.4 1 4.6 1.1l3.6-.6-3.3-2.8-5.9-3.4-1.5 6.1c.9-.3 1.7-.4 2.5-.4M100.3 150.6l1.5-6.2 5.9 3.5 3.4 2.9-3.7.7c0-.1-3.1-2-7.1-.9"/><path class="st201" d="M80.5 153.4l.8-1.7 1.3-.5 3.8 1.5v.1c-.1 0-5.5.4-5.9.6zm.9-1.6l-.7 1.5c.8-.1 4.7-.4 5.6-.5l-3.6-1.4-1.3.4zM80.6 153.3l.8-1.6 1.3-.5 3.8 1.5c0 .1-5.5.5-5.9.6"/><path class="st202" d="M94.1 153c-2.1-.6-7.5-.2-7.6-.2l-3.8-1.5v-.1c3.4 1 6.6.2 6.6.2.4.2 2 .3 2 .3l2.8 1.3zm-4-.4c1.2 0 2.6.1 3.5.2l-2.3-1c-.1 0-1.6-.1-2-.3-.2.1-2.9.7-5.9 0l3.1 1.2c.2 0 1.8-.1 3.6-.1M89.3 151.5s-3.2.8-6.6-.2l3.8 1.5s5.5-.4 7.6.2l-2.8-1.2s-1.6-.1-2-.3"/></g></svg>