<svg xmlns="http://www.w3.org/2000/svg" xmlns:xlink="http://www.w3.org/1999/xlink" width="192" height="234" viewBox="0 0 192 234"><style type="text/css">.st0{fill:#F2F2F2;} .st1{fill:#D54339;} .st2{clip-path:url(#SVGID_2_);} .st3{clip-path:url(#SVGID_4_);fill:#FAC7B1;} .st4{clip-path:url(#SVGID_4_);fill:#E1A282;} .st5{clip-path:url(#SVGID_4_);fill:#543928;} .st6{clip-path:url(#SVGID_4_);fill:#ECB7A7;} .st7{clip-path:url(#SVGID_4_);fill:#EBBAA8;} .st8{clip-path:url(#SVGID_4_);fill:#EAAE90;} .st9{clip-path:url(#SVGID_4_);fill:#EDBA9B;} .st10{clip-path:url(#SVGID_4_);fill:#EFB9A2;} .st11{clip-path:url(#SVGID_4_);fill:#E5978F;} .st12{clip-path:url(#SVGID_4_);fill:#FCD7C1;} .st13{clip-path:url(#SVGID_4_);fill:#EEBEAF;} .st14{clip-path:url(#SVGID_4_);fill:#F7BEA8;} .st15{clip-path:url(#SVGID_4_);fill:#EFB89E;} .st16{clip-path:url(#SVGID_4_);fill:#F2BFB1;} .st17{clip-path:url(#SVGID_4_);fill:#513628;} .st18{clip-path:url(#SVGID_4_);fill:#CF937B;} .st19{clip-path:url(#SVGID_4_);fill:#3B291E;} .st20{clip-path:url(#SVGID_4_);fill:#F3968E;} .st21{clip-path:url(#SVGID_4_);fill:#825A3C;} .st22{clip-path:url(#SVGID_4_);fill:#563A26;} .st23{clip-path:url(#SVGID_4_);fill:#5F412C;} .st24{clip-path:url(#SVGID_4_);fill:#573D28;} .st25{clip-path:url(#SVGID_4_);fill:#4F331F;} .st26{clip-path:url(#SVGID_4_);fill:#69462C;} .st27{clip-path:url(#SVGID_4_);fill:#6C4836;} .st28{clip-path:url(#SVGID_4_);fill:#583A2A;} .st29{clip-path:url(#SVGID_4_);fill:#A16E52;} .st30{clip-path:url(#SVGID_4_);fill:#B38067;} .st31{clip-path:url(#SVGID_4_);fill:#91684A;} .st32{clip-path:url(#SVGID_4_);fill:#A77358;} .st33{clip-path:url(#SVGID_4_);fill:#B4805D;} .st34{clip-path:url(#SVGID_4_);fill:#A17252;} .st35{clip-path:url(#SVGID_4_);fill:#AB7152;} .st36{clip-path:url(#SVGID_4_);fill:#754F39;} .st37{clip-path:url(#SVGID_4_);fill:#563A25;} .st38{clip-path:url(#SVGID_4_);fill:#4E3223;} .st39{clip-path:url(#SVGID_4_);fill:#45362F;} .st40{clip-path:url(#SVGID_4_);fill:#9E6E50;} .st41{clip-path:url(#SVGID_4_);fill:#C79370;} .st42{clip-path:url(#SVGID_4_);fill:#D79075;} .st43{clip-path:url(#SVGID_4_);fill:#FDDAC2;} .st44{clip-path:url(#SVGID_4_);fill:#E8AD98;} .st45{clip-path:url(#SVGID_4_);fill:#F6C5AC;} .st46{clip-path:url(#SVGID_4_);fill:#F0BAA2;} .st47{clip-path:url(#SVGID_4_);fill:#FAC3A9;} .st48{clip-path:url(#SVGID_4_);fill:#EFBFAF;} .st49{clip-path:url(#SVGID_4_);fill:#ECBBA8;} .st50{clip-path:url(#SVGID_4_);fill:#E4B29C;} .st51{clip-path:url(#SVGID_4_);fill:#FACBBD;} .st52{clip-path:url(#SVGID_4_);fill:none;stroke:#FAC6B8;stroke-miterlimit:10;} .st53{clip-path:url(#SVGID_4_);fill:#FBCFBA;} .st54{clip-path:url(#SVGID_4_);fill:#FBCAAC;} .st55{clip-path:url(#SVGID_4_);fill:#FBC9B3;} .st56{clip-path:url(#SVGID_4_);fill:#F4BDA1;} .st57{clip-path:url(#SVGID_4_);fill:#BD7668;} .st58{clip-path:url(#SVGID_4_);fill:#A25E4F;} .st59{clip-path:url(#SVGID_4_);fill:#FBCAB7;} .st60{clip-path:url(#SVGID_4_);fill:#EEB2A0;} .st61{clip-path:url(#SVGID_4_);fill:#FAC8BA;} .st62{clip-path:url(#SVGID_4_);fill:#F8B5A6;} .st63{clip-path:url(#SVGID_4_);fill:#F4B39E;} .st64{clip-path:url(#SVGID_4_);fill:#F7AB9A;} .st65{clip-path:url(#SVGID_4_);fill:#C9806E;} .st66{clip-path:url(#SVGID_4_);fill:#E18E7E;} .st67{clip-path:url(#SVGID_4_);fill:#F3BAA1;} .st68{clip-path:url(#SVGID_4_);fill:#DCA896;} .st69{clip-path:url(#SVGID_4_);fill:#F8BEA8;} .st70{clip-path:url(#SVGID_4_);fill:#ECB09B;} .st71{clip-path:url(#SVGID_4_);fill:#D0947C;} .st72{clip-path:url(#SVGID_4_);fill:#DDA590;} .st73{clip-path:url(#SVGID_4_);fill:#FCD4C2;} .st74{clip-path:url(#SVGID_4_);fill:#FBC8B0;} .st75{clip-path:url(#SVGID_4_);fill:#CB9178;} .st76{clip-path:url(#SVGID_4_);fill:#EDB59A;} .st77{clip-path:url(#SVGID_4_);fill:#694B3E;} .st78{clip-path:url(#SVGID_4_);fill:#8F6356;} .st79{clip-path:url(#SVGID_4_);fill:#CFA69A;} .st80{clip-path:url(#SVGID_4_);fill:#E3D4D6;} .st81{clip-path:url(#SVGID_4_);fill:#D9C3BB;} .st82{clip-path:url(#SVGID_4_);fill:#6E756D;} .st83{clip-path:url(#SVGID_4_);fill:#CD9883;} .st84{clip-path:url(#SVGID_4_);fill:#B1816A;} .st85{clip-path:url(#SVGID_4_);fill:#B4846B;} .st86{clip-path:url(#SVGID_4_);fill:#B78B6F;} .st87{clip-path:url(#SVGID_4_);fill:#8B7C76;} .st88{clip-path:url(#SVGID_4_);fill:#AC7D62;} .st89{clip-path:url(#SVGID_4_);fill:#BC876E;} .st90{clip-path:url(#SVGID_4_);fill:#EBB49C;} .st91{clip-path:url(#SVGID_4_);fill:#E1AC90;} .st92{clip-path:url(#SVGID_4_);fill:#BA8970;} .st93{clip-path:url(#SVGID_4_);fill:#F3C0B1;} .st94{clip-path:url(#SVGID_4_);fill:#FBC9B6;} .st95{clip-path:url(#SVGID_4_);fill:#FBC9B2;} .st96{clip-path:url(#SVGID_4_);fill:#FBC7AB;} .st97{clip-path:url(#SVGID_4_);fill:#FCD0B4;} .st98{clip-path:url(#SVGID_4_);fill:#C28E72;} .st99{clip-path:url(#SVGID_4_);fill:#B48371;} .st100{clip-path:url(#SVGID_4_);fill:#A97B6B;} .st101{clip-path:url(#SVGID_4_);fill:#BC886D;} .st102{clip-path:url(#SVGID_4_);fill:#F6C7AE;} .st103{clip-path:url(#SVGID_4_);fill:#EFAC8C;} .st104{clip-path:url(#SVGID_4_);fill:#A27469;} .st105{clip-path:url(#SVGID_4_);fill:#F9C0A1;} .st106{clip-path:url(#SVGID_4_);fill:#E1B3A5;} .st107{clip-path:url(#SVGID_4_);fill:#EAB8AA;} .st108{clip-path:url(#SVGID_4_);fill:#EFBEA4;} .st109{clip-path:url(#SVGID_4_);fill:#F2D5CB;} .st110{clip-path:url(#SVGID_4_);fill:#E8D9D6;} .st111{clip-path:url(#SVGID_4_);fill:#584034;} .st112{clip-path:url(#SVGID_4_);fill:#261710;} .st113{clip-path:url(#SVGID_4_);fill:#21130D;} .st114{clip-path:url(#SVGID_4_);fill:#FBC8B1;} .st115{clip-path:url(#SVGID_4_);fill:#4B3729;} .st116{clip-path:url(#SVGID_4_);fill:#291B10;} .st117{clip-path:url(#SVGID_4_);fill:#432F20;} .st118{clip-path:url(#SVGID_4_);fill:#362517;} .st119{clip-path:url(#SVGID_4_);fill:#614731;} .st120{clip-path:url(#SVGID_4_);fill:#3F2919;} .st121{clip-path:url(#SVGID_4_);fill:#3D261A;} .st122{clip-path:url(#SVGID_4_);fill:#2F2111;} .st123{clip-path:url(#SVGID_4_);fill:#39291A;} .st124{clip-path:url(#SVGID_4_);fill:#39281E;} .st125{clip-path:url(#SVGID_4_);fill:#21140D;} .st126{clip-path:url(#SVGID_4_);fill:#1F1310;} .st127{clip-path:url(#SVGID_4_);fill:#3D2E27;} .st128{clip-path:url(#SVGID_4_);fill:#908987;} .st129{clip-path:url(#SVGID_4_);fill:#352012;} .st130{clip-path:url(#SVGID_4_);fill:#FABEAB;} .st131{clip-path:url(#SVGID_4_);fill:#F5CABC;} .st132{clip-path:url(#SVGID_4_);fill:#EDB8A7;} .st133{clip-path:url(#SVGID_4_);fill:#FCDAC4;} .st134{clip-path:url(#SVGID_4_);fill:#FBD2C6;} .st135{clip-path:url(#SVGID_4_);fill:#CD7E78;} .st136{clip-path:url(#SVGID_4_);fill:#F0B89E;} .st137{clip-path:url(#SVGID_4_);fill:#BB886F;} .st138{clip-path:url(#SVGID_4_);fill:#FAC3AE;} .st139{clip-path:url(#SVGID_4_);fill:#F2B9A2;} .st140{clip-path:url(#SVGID_4_);fill:#DDDDDC;} .st141{clip-path:url(#SVGID_4_);fill:#E19187;} .st142{clip-path:url(#SVGID_4_);fill:#ECA899;} .st143{clip-path:url(#SVGID_4_);fill:#FAD8CB;} .st144{clip-path:url(#SVGID_4_);fill:#4A423B;} .st145{clip-path:url(#SVGID_4_);fill:#484544;} .st146{clip-path:url(#SVGID_4_);fill:#918580;} .st147{clip-path:url(#SVGID_4_);fill:#8B8578;} .st148{clip-path:url(#SVGID_4_);fill:#AB7A5D;}</style><path class="st0" d="M0 0h192v234H0z"/><path class="st1" d="M192 215.5L172.5 234H192z"/><defs><path id="SVGID_1_" d="M-8.2-20.2h208.5v269.8H-8.2z"/></defs><clipPath id="SVGID_2_"><use xlink:href="#SVGID_1_" overflow="visible"/></clipPath><g class="st2"><defs><path id="SVGID_3_" d="M-8.2-20.2h208.5v269.8H-8.2z"/></defs><clipPath id="SVGID_4_"><use xlink:href="#SVGID_3_" overflow="visible"/></clipPath><path class="st3" d="M108.3 79.9c-1.7-.2-3.2-1.7-4.7-2.4l.3 1.2v-.1l-1.2.3c.3.2.7.3 1.1.5.8.4 1.8-.7 1-1.3-2.7-2.2-5.3-4.5-8-6.7v1.2l.1-.1h-1.2l5.7 4.8c.7.6 1.3 1.1 2 1.7.8.7 1.6 1 2.6 1.3.6.2 1.3.3 2 .4h.7c.3 0 .2-.3-.4-.8-1.1.1-1.1 1.8 0 1.7.7-.1 1.8-.3 1.9-1.2.2-.8-.4-1.3-1.1-1.5-1.4-.4-2.9-.2-4.3-1-.4-.2-.7-.6-1-.9-2.3-2-4.6-3.9-6.9-5.9-.3-.3-.9-.4-1.2 0l-.1.1c-.3.3-.4.9 0 1.2 2.7 2.2 5.3 4.5 8 6.7.3-.4.7-.9 1-1.3-.4-.2-.7-.3-1.1-.5-.4-.2-1-.1-1.2.3v.1c-.2.4-.1 1 .3 1.2 1.9.9 3.4 2.4 5.6 2.6 1.2.3 1.2-1.4.1-1.6M104.3 79.6c.9.7 1.9 1.4 3 1.7.9.2 2.2.3 2.7-.6.5-.9-.3-1.6-1.2-1.7-1.3-.1-2.5-.3-3.7-.8-1-.4-1.5 1.2-.5 1.6.8.3 1.5.6 2.4.7.3.1.7.1 1 .1.2 0 .6-.1.8.1-.1-.2-.3-.3-.4-.5 0 .1 0 .1.1.2 0-.2.1-.4.1-.7-.1.3-1.3-.2-1.5-.3-.6-.3-1.1-.6-1.6-1-.9-.6-2.1.6-1.2 1.2M95.7 72.5c2.4 2 4.8 4 7.1 6 1.5 1.2 3.2 3 5.3 3.1 1 0 2.7-.7 1.9-2-.4-.7-1.2-.5-1.9-.6-1.6-.2-3-.8-4.5-1.5-1-.5-1.9 1-.9 1.5 1.4.6 2.8 1.3 4.3 1.6.3 0 .5.1.8.1.6.1 1 .3.5-.4-.6-.7-1.8-1-2.6-1.6-3.1-2.3-5.9-4.9-8.8-7.4-.8-.7-2 .5-1.2 1.2M96.8 97.1c0 .3.1.7.2 1.1.8-1.6 1.6-3.1 2.7-4.5 1-1.2 2.1-2.4 3.1-3.6.9-1.1 1.7-2.3 2.5-3.6.9-1.5 1.5-3.1 2.9-4.2-.4-.1-.9-.1-1.3-.2 0 0 0 .1.1.1l.1-1c-1.2.9-1.8 2.2-2.5 3.5-.9 1.7-1.9 3.3-3.2 4.8-2.2 2.6-4.2 4.9-5.7 8-.5 1 1 1.8 1.5.9.8-1.6 1.6-3.1 2.7-4.5 1-1.2 2.1-2.4 3.1-3.6.9-1.1 1.7-2.3 2.5-3.6.9-1.5 1.5-3.1 2.8-4.2.3-.2.3-.7.1-1 0 0 0-.1-.1-.1-.3-.5-.9-.5-1.3-.2-1.2.9-1.9 2.2-2.6 3.5-.9 1.7-1.9 3.3-3.2 4.7-2.2 2.6-4.2 4.9-5.7 8-.2.4-.1 1 .3 1.2h.1c1 .5 1.9-1 .9-1.5M97.1 98.3c.8-1.6 1.6-3.1 2.6-4.4 1-1.3 2.2-2.4 3.2-3.7.9-1.1 1.7-2.3 2.5-3.6.9-1.5 1.5-3.1 2.9-4.2.9-.7-.3-1.9-1.2-1.2-1.2.9-1.8 2.2-2.5 3.5-.9 1.7-1.9 3.3-3.2 4.7-2.2 2.6-4.2 4.9-5.7 8-.6 1 .9 1.9 1.4.9M114.5 80.3s0-.1 0 0c-.2.3-.4.6-.6 1 2.1-.6 4-1.6 6-2.5l-1.2-.3v.1l.3-1.2c-1.8.8-3.6 1.8-5.6 2.4-1.1.3-.6 1.9.5 1.6 2.1-.6 4-1.6 6-2.5.4-.2.5-.8.3-1.2v-.1c-.2-.4-.8-.5-1.2-.3-1.8.8-3.6 1.8-5.5 2.4-.4.1-.7.6-.6 1v.1c.3 1 1.9.6 1.6-.5M113.9 81.3c2.1-.6 4-1.6 6-2.5 1-.5.1-1.9-.9-1.5-1.8.8-3.6 1.8-5.6 2.4-1 .3-.5 1.9.5 1.6"/><path class="st4" d="M129.1 83.9c-1.8-2.6-3-5.7-4.4-8.5l-.3 1.2h.1l-1.2-.3c1.4 2.8 2.5 5.9 4.4 8.5l.3-1.2s-.1 0-.1.1c-.9.7 0 2.1.9 1.5 0 0 .1 0 .1-.1.4-.4.6-.8.2-1.2-1.7-2.6-2.9-5.7-4.3-8.6-.2-.4-.8-.5-1.2-.3h-.1c-.4.2-.5.8-.3 1.2 1.4 2.8 2.6 6 4.4 8.5.7.9 2.2.1 1.5-.8M123.3 76.2c1.4 2.8 2.5 5.9 4.4 8.5.6.9 2.1 0 1.5-.9-1.8-2.6-3-5.7-4.4-8.5-.5-.9-1.9-.1-1.5.9M127.4 89.9c1.1 0 1.1-1.7 0-1.7s-1.1 1.7 0 1.7M127.4 89.9c1.1 0 1.1-1.7 0-1.7s-1.1 1.7 0 1.7M131.9 92c-.1-.9-.2-1.8-.2-2.7l-.9.9h.1l-.9-.9c0 1 .1 2 .2 3 .1.7 1 .8 1.4.4h.1l-1 .1s.1 0 .1.1c-.1-.4-.1-.9-.2-1.3.2-.1.3-.1.2-.1-1.1.3-.6 1.9.5 1.6l.6-.3c.4-.4.3-1-.2-1.3 0 0-.1 0-.1-.1-.3-.2-.8-.1-1 .1h-.1c.5.1.9.3 1.4.4-.1-.8-.2-1.7-.2-2.6 0-.5-.4-.8-.9-.9h-.1c-.5 0-.8.4-.9.9 0 1.1.1 2.1.3 3.1.3 1.1 1.9.6 1.8-.4M130 89.3c0 1 .1 2.1.2 3.1.1.5.8.8 1.3.5l.1-.1c.9-.6 0-2.1-.9-1.5l-.1.1c.4.2.8.3 1.3.5-.1-.9-.2-1.7-.2-2.6 0-1.1-1.7-1.1-1.7 0"/><path class="st5" d="M59.3 97.1v1.2l.1-.1h-1.2V97l-.1.1c-.3.3-.3.9 0 1.2.3.3.9.3 1.2 0l.1-.1c.3-.3.3-.9-.1-1.1.1-.1.1-.1 0 0-.3-.4-.8-.4-1.2-.1l-.1.1c-.3.3-.3.9 0 1.2.3.3.9.3 1.2 0 .4-.4.5-.9.1-1.2M58.1 98.2c.3.3.9.4 1.2 0 .3-.3.3-.9 0-1.2-.3-.3-.9-.3-1.2 0-.3.4-.3.9 0 1.2M62.9 105.6c-.6-1.6-.8-3.3-1.3-4.8-.5-1.3-1.4-2.2-2.1-3.3l-.3 1.2h.1l-1.2-.3c.7 1.2 1.6 2.1 2.1 3.4.4 1.4.7 2.9 1.2 4.4.2-.3.4-.7.6-1h-.1c-1 .4-.6 2 .5 1.6h.1c.3-.3.6-.7.4-1.2-.5-1.6-.7-3.3-1.2-4.9-.5-1.3-1.4-2.2-2.1-3.4-.2-.4-.8-.5-1.2-.3h-.1c-.4.2-.5.8-.3 1.2.7 1.2 1.6 2.1 2.1 3.4.4 1.4.7 2.9 1.2 4.4.3 1.1 1.9.7 1.6-.4M58.1 98.3c.7 1.2 1.6 2.1 2.1 3.5s.7 2.9 1.2 4.3c.4 1 2 .6 1.6-.5-.6-1.6-.8-3.3-1.4-4.9-.5-1.3-1.4-2.2-2.1-3.3-.5-.9-2 0-1.4.9M64.2 106.4c.1.3.3.7.5 1 .5-2.6 1.3-5.1 1.7-7.6.4-2.3.4-4.7 1.1-7-.3.2-.7.4-1 .6h.1c-.2-.3-.4-.7-.6-1-.8 2.3-.8 4.6-1.1 7-.4 2.6-1.2 5.1-1.7 7.6-.2 1.1 1.4 1.5 1.6.5.5-2.6 1.3-5.1 1.7-7.6.4-2.3.4-4.7 1.1-7 .2-.5-.2-.9-.6-1h-.1c-.4-.2-.9.2-1 .6-.8 2.3-.8 4.6-1.1 7-.4 2.6-1.2 5.1-1.7 7.6-.1.4.1 1 .6 1h.1c1 .2 1.4-1.5.4-1.7M64.7 107.5c.5-2.5 1.2-4.9 1.6-7.4.4-2.4.4-4.9 1.2-7.2.4-1-1.3-1.5-1.6-.5-.8 2.3-.8 4.8-1.2 7.2-.4 2.5-1.1 4.9-1.6 7.4-.2 1.1 1.4 1.6 1.6.5"/><path class="st6" d="M61.8 107.6c-.1.3-.3.7-.4 1.1l1.2-.6-1.2-.3v.1l.3-1.2-1.2.6c-.4.2-.6.8-.3 1.2.3.4.7.5 1.2.3l1.2-.6c.5-.2.5-.8.3-1.2v-.1c-.2-.5-.8-.5-1.2-.3l-1.2.6c-.4.2-.5.8-.3 1.2v.1c.2.4.8.6 1.2.3.5-.3.7-.8.4-1.2M61.5 108.8l1.2-.6c.4-.2.5-.8.3-1.2-.3-.4-.7-.5-1.2-.3l-1.2.6c-.4.2-.6.8-.3 1.2.3.3.8.5 1.2.3"/><path class="st7" d="M71.7 125.2c-.9-.9-.8-2.7-1.1-3.9-.4-1.3-.8-2.6-1.3-3.9-.9-2.4-2.3-4.6-3-6.9-.2.3-.4.7-.6 1h.1c-.3-.2-.7-.4-1-.6.9 2.8 2.5 5.3 3.4 8.1.5 1.5 1.1 3.1 1.3 4.7.2 1.1.3 1.9 1.1 2.7 0-.3-.1-.7-.1-1 0 0 0 .1-.1.1-.7.9.8 1.7 1.5.9 0 0 0-.1.1-.1.1-.4 0-.9-.3-1.1-.8-.9-.7-2.8-1-3.9-.4-1.3-.8-2.6-1.3-3.9-.8-2.4-2.3-4.6-3-6.9-.1-.4-.6-.7-1-.6h-.1c-.4.1-.7.6-.6 1 .9 2.8 2.5 5.3 3.4 8.1.5 1.5 1.1 3.1 1.3 4.6.2 1.1.3 2 1.1 2.8.8.8 2-.4 1.2-1.2M64.7 111c.9 2.9 2.6 5.4 3.5 8.3.5 1.5 1 2.9 1.2 4.4.2 1.1.3 1.9 1.1 2.7.8.8 2-.4 1.2-1.2-.8-.8-.8-2.7-1.1-3.9l-1.2-3.6c-.9-2.5-2.3-4.7-3.1-7.2-.3-1-2-.6-1.6.5M75.8 134.5c-.6-3-2.5-5.7-3.5-8.6-.2.3-.4.7-.6 1h.1c-.3-.2-.7-.4-1-.6.9 2.9 2.9 5.6 3.5 8.6.2-.3.4-.7.6-1h-.1c-1.1.2-.6 1.8.5 1.6h.1c.4-.1.6-.6.4-1-.5-3-2.5-5.7-3.4-8.6-.1-.4-.6-.7-1-.6h-.1c-.4.1-.7.6-.6 1 .9 2.9 2.9 5.6 3.5 8.6.2 1.1 1.8.6 1.6-.4M70.7 126.3c.9 2.9 2.9 5.6 3.5 8.6.2 1.1 1.9.6 1.6-.5-.6-3-2.5-5.7-3.5-8.6-.2-1-1.9-.5-1.6.5M77.1 137.7c-.9-.9-1.2-2.6-1.5-3.8-.2.3-.4.7-.6 1h.1c-.3-.2-.7-.4-1-.6.3 1.5.8 3.4 1.9 4.5v-1.2l-.1.1c-.7.8.5 2 1.2 1.2l.1-.1c.3-.3.3-.8-.1-1.1-.8-1-1.1-2.7-1.4-3.8-.1-.5-.6-.7-1-.6h-.1c-.5.1-.7.6-.6 1 .3 1.5.8 3.4 1.9 4.6.8.8 2-.4 1.2-1.2M74.1 134.3c.3 1.5.8 3.4 1.9 4.5.8.8 2-.4 1.2-1.2-.9-.9-1.2-2.6-1.5-3.8-.2-1-1.8-.6-1.6.5"/><path class="st8" d="M102.6 141c-.9 0-1.8-.1-2.8-.2.2.3.4.7.6 1v-.1c-.3.2-.7.4-1 .6 2.4.3 4.8.3 7.2-.1l-.9-.9v.1l.9-.9c-1.3.4-2.6.5-4 .5-1.1 0-1.1 1.7 0 1.7 1.4 0 2.7-.1 4.1-.3.4-.1.9-.4.9-.9v-.1c-.1-.4-.3-.9-.9-.9-2.3.3-4.5.4-6.8.1-.4-.1-1 .1-1 .6v.1c-.1.4.1 1 .6 1 1.1.1 2.1.2 3.2.2 1 .2 1-1.5-.1-1.5M99.4 142.4c2.4.3 4.8.3 7.3-.1 1.1-.1 1.1-1.8 0-1.7-2.3.3-4.5.4-6.8.1-1.1-.1-1.6 1.6-.5 1.7M116.8 152.1c-.1-1.8-.1-3.6-.2-5.5 0-1.3-.1-2.5-.4-3.8-.5-1.7-1.7-3-3-4.2v1.2l.1-.1H112c1.7 1.5 2.7 2.9 2.9 5.1.1.8.1 1.6.1 2.4.1 1.6.1 3.2.2 4.8l.9-.9h-.1c-1.1 0-1.1 1.7 0 1.7h.1c.4.1.8-.3.7-.7 0-1.8 0-3.7-.1-5.5 0-1.3-.1-2.6-.4-3.8-.5-1.8-1.7-3-3-4.2-.3-.3-.9-.4-1.2 0l-.1.1c-.3.3-.4.9 0 1.2 1.6 1.4 2.6 2.8 2.8 5.1.1.8.1 1.6.1 2.3.1 1.6.1 3.2.2 4.8 0 1.1 1.7 1.1 1.7 0M112 139.8c1.8 1.6 2.8 3.1 2.9 5.6.1 2.2.2 4.4.3 6.7 0 1.1 1.7 1.1 1.7 0-.1-2.7 0-5.5-.4-8.1-.3-2.3-1.6-3.8-3.3-5.3-.8-.8-2 .4-1.2 1.1"/><path class="st9" d="M101.5 160.5s0-.1 0 0c-.2.3-.4.6-.6 1 2.7-.6 5.4-1.4 7.9-2.7 2.5-1.3 4.8-2.9 7.3-4.2l-1.2-.3v.1l.3-1.2c-2.4 1.2-4.5 2.7-6.8 3.9-2.5 1.3-5.2 2.2-8 2.8-1.1.2-.6 1.9.5 1.6 2.7-.6 5.4-1.4 7.9-2.7 2.5-1.3 4.8-2.9 7.3-4.2.4-.2.5-.8.3-1.2v-.1c-.2-.4-.8-.5-1.2-.3-2.4 1.2-4.5 2.7-6.8 3.9-2.5 1.3-5.2 2.2-7.9 2.8-.5.1-.7.6-.6 1v.1c.2 1.2 1.8.8 1.6-.3M100.9 161.5c2.7-.6 5.4-1.4 7.9-2.7 2.5-1.3 4.8-2.9 7.3-4.2 1-.5.1-1.9-.9-1.5-2.4 1.1-4.5 2.6-6.8 3.9-2.5 1.4-5.2 2.2-8 2.8-1 .3-.6 1.9.5 1.7"/><path class="st10" d="M100.5 159.3c-1.4-.2-2.7-.2-4.1-.3-1.5-.1-2.8-.5-4.2-.8.2.3.4.7.6 1v-.1c-.3.2-.7.4-1 .6 1.2.3 2.4.7 3.6.8 1.6.2 3.1 0 4.7.3-.2-.3-.4-.7-.6-1v.1c-.2 1.1 1.4 1.5 1.6.5v-.1c.1-.5-.1-1.1-.6-1-1.3-.3-2.7-.3-4.1-.4-1.5-.1-2.8-.5-4.2-.8-.4-.1-1 .1-1 .6v.1c-.1.4.1.9.6 1 1.2.3 2.4.7 3.6.8 1.6.2 3.1 0 4.7.3 1 .2 1.5-1.5.4-1.6M91.8 159.8c1.2.3 2.4.7 3.7.8 1.5.2 3.1 0 4.6.3 1.1.2 1.5-1.5.5-1.6-1.3-.2-2.6-.2-3.9-.3-1.5-.1-2.9-.5-4.4-.8-1.2-.3-1.6 1.3-.5 1.6"/><path class="st11" d="M104.4 138c-1.6 0-3.2-.1-4.7-.2l.9.9v-.1l-.9.9c1.6.1 3.1.2 4.7.2l-.9-.9v.1c0 1.1 1.7 1.1 1.7 0v-.1c0-.5-.4-.9-.8-.8-1.6-.1-3.1-.2-4.7-.3-.5 0-.8.4-.9.9v.1c0 .5.4.8.9.9 1.6.1 3.2.2 4.7.2 1.1-.1 1.1-1.8 0-1.8M99.6 139.4c1.6.1 3.1.2 4.7.2 1.1 0 1.1-1.7 0-1.7-1.6 0-3.2-.1-4.7-.2-1.1-.1-1 1.6 0 1.7M112.4 137.8c-1.4-1.6-3.7-1.8-5.7-2l.9.9v-.1l-.9.9c1.6.2 3.5.3 4.6 1.5v-1.2s-.1 0-.1.1c-.9.7.3 1.9 1.2 1.2 0 0 .1 0 .1-.1.4-.3.3-.9-.1-1.2-1.3-1.7-3.7-1.9-5.7-2.1-.5-.1-.8.4-.9.9v.1c0 .5.4.8.9.9 1.5.2 3.5.3 4.5 1.5.7.8 1.9-.4 1.2-1.3M106.7 137.5c1.6.2 3.5.2 4.6 1.5.7.8 1.9-.4 1.2-1.2-1.4-1.6-3.8-1.8-5.8-2-1.1-.1-1.1 1.6 0 1.7M88.1 139.4c1.1 0 1.1-1.7 0-1.7s-1.1 1.7 0 1.7M88.1 139.4c1.1 0 1.1-1.7 0-1.7s-1.1 1.7 0 1.7M102 140.4c-2.4 0-4.8-.2-7.1-.6-1-.2-1.9-.4-2.9-.6-1.2-.3-2.2-1-3.3-1.6l.3 1.2v-.1l-1.2.3c1.5.8 2.8 1.5 4.5 1.9 1.5.4 3.1.6 4.6.8 3.8.4 7.6.3 11.4-.1l-.9-.9v.1l.9-.9c-2.1.4-4.2.5-6.3.5-1.1 0-1.1 1.7 0 1.7 2.1 0 4.2-.1 6.3-.3.4 0 .9-.4.9-.9v-.1c0-.4-.4-.9-.9-.9-3.4.3-6.9.5-10.3.2-1.5-.1-3-.4-4.5-.7-1.8-.4-3.2-1.1-4.8-1.9-.4-.2-1-.1-1.2.3v.1c-.2.4-.1.9.3 1.2 1.1.6 2 1.2 3.2 1.6 1.1.3 2.3.6 3.4.8 2.5.4 5 .6 7.5.6 1.2 0 1.2-1.7.1-1.7M87.8 139.1c1.4.7 2.5 1.4 4 1.8 1.7.4 3.5.7 5.2.9 3.7.4 7.5.3 11.2-.1 1.1-.1 1.1-1.8 0-1.7-3.3.3-6.6.5-9.9.2-1.7-.1-3.4-.4-5.1-.8-1.7-.4-3-1.1-4.6-1.9-.9-.4-1.8 1-.8 1.6"/><path class="st12" d="M79.3 136.4c0-.1 0-.1 0 0-.1.3-.2.7-.3 1.1 5.2-2.3 11-4.5 15.6-8l-1-.1s0 .1.1.1c.1-.4.1-.9.2-1.3-4.6 3.5-10.4 5.7-15.6 8-1 .4-.1 1.9.9 1.5 5.2-2.3 11-4.5 15.6-8 .5-.4.5-.9.2-1.3 0 0 0-.1-.1-.1-.2-.3-.8-.3-1-.1-4.6 3.5-10.4 5.7-15.6 8-.5.2-.5.8-.3 1.2v.1c.3.7 1.8-.1 1.3-1.1M79 137.5c5.2-2.3 11-4.5 15.6-8 .9-.7 0-2.1-.9-1.5-4.6 3.5-10.4 5.7-15.6 8-1 .5-.1 1.9.9 1.5"/><path class="st13" d="M103.9 126.9c-1.9-.1-3.7-.3-5.6-.7.2.3.4.7.6 1v-.1c-.3.2-.7.4-1 .6 2 .4 4 .6 6 .7l-.9-.9v.1c-.1 1.1 1.6 1.1 1.7 0v-.1c0-.3-.4-.6-.8-.6-1.9-.2-3.7-.4-5.6-.8-.4-.1-1 .1-1 .6v.1c-.1.4.1 1 .6 1 2 .4 4 .6 6 .7 1.1.2 1.1-1.5 0-1.6M97.8 127.9c2 .4 4 .6 6 .7 1.1.1 1.1-1.6 0-1.7-1.9-.1-3.7-.3-5.6-.7-1-.2-1.4 1.5-.4 1.7"/><path class="st14" d="M105.9 126.1s-.1-.1 0 0c-.2.3-.4.6-.6 1 1.5-.6 3.1-1 4.7-1.2l-.9-.9v.1l.9-.9c-1.8.2-3.5.6-5.2 1.2-1 .4-.6 2 .5 1.6 1.5-.6 3.1-1 4.7-1.2.4-.1.9-.4.9-.9v-.1c0-.4-.4-.9-.9-.9-1.8.2-3.5.6-5.2 1.2-.4.1-.8.6-.6 1v.1c.4 1.4 2.1.9 1.7-.1M105.3 127.1c1.5-.6 3.1-1 4.7-1.2 1.1-.1 1.1-1.8 0-1.7-1.8.2-3.5.6-5.2 1.2-1 .4-.6 2.1.5 1.7M108.3 124.6c-1.4-.3-2.8-.5-4.2-.7l.9.9v-.1l-.9.9c1.3.2 2.5.4 3.8.6-.2-.3-.4-.7-.6-1v.1c-.2 1.1 1.4 1.5 1.6.5v-.1c.1-.5-.1-1.1-.6-1.1-1.4-.4-2.8-.6-4.2-.8-.5-.1-.8.4-.9.9v.1c-.1.5.4.8.9.9 1.3.2 2.5.4 3.8.6 1 .2 1.5-1.5.4-1.7M104 125.6c1.3.2 2.5.4 3.8.6 1.1.2 1.5-1.4.5-1.6-1.4-.3-2.8-.5-4.3-.7-1-.1-1 1.6 0 1.7"/><path class="st12" d="M81.8 135.2c0-.1-.1-.1 0 0-.2.3-.4.6-.6 1 2.5-.8 5-1.7 7.4-2.8.8-.4 1.6-.8 2.3-1.3.8-.6 1.3-1.5 2.1-2.1.8-.6-.2-1.8-1-1.3-2.6 1.4-5.6 2.4-7.9 4.1l1 .1s0-.1-.1-.1c-.1.4-.1.9-.2 1.3 2.5-1.9 5.6-2.9 8.4-4.4l-1.2-.3s0 .1.1.1l.1-1c-1.6 1.3-2.6 2.6-4.5 3.5-2.3 1-4.6 1.8-7 2.6-1 .3-.6 2 .5 1.6 2.5-.8 5-1.7 7.4-2.8 2.1-.9 3.1-2.4 4.9-3.8.3-.2.3-.7.1-1 0 0 0-.1-.1-.1-.3-.4-.7-.5-1.2-.3-2.8 1.5-5.9 2.5-8.4 4.4-.5.4-.5.9-.2 1.3 0 0 0 .1.1.1.2.3.8.3 1 .1 2.4-1.8 5.3-2.8 7.9-4.1-.3-.4-.7-.9-1-1.3-.6.5-1.1 1.1-1.6 1.7-.7.7-1.6 1.1-2.5 1.5-2.3 1-4.6 1.8-7 2.6-.4.1-.7.6-.6 1v.1c.5 1 2.1.6 1.8-.4M81.2 136.2c2.3-.8 4.6-1.5 6.8-2.5 1-.4 2-.9 2.9-1.5.9-.8 1.6-1.7 2.6-2.5.8-.6-.2-1.8-1-1.3-2.8 1.5-5.9 2.5-8.4 4.4-.9.6 0 2.1.9 1.5 2.5-1.9 5.6-2.9 8.4-4.4-.3-.4-.7-.9-1-1.3-.8.6-1.4 1.4-2.2 2.1-.8.8-1.9 1.2-2.9 1.6-2.1.9-4.3 1.6-6.4 2.3-1.2.3-.8 1.9.3 1.6"/><path class="st13" d="M105.1 135.5c-2-1.2-4.7-1-7-1-2.8 0-5.6.3-8.3.8.3.2.7.4 1 .6v-.1c-.2.3-.4.7-.6 1 2.4-.4 4.8-.7 7.3-.7 2.1 0 5-.3 6.9.8l-.3-1.2s0 .1-.1.1c-.6.9.8 1.8 1.5.9 0 0 0-.1.1-.1.2-.4 0-.9-.5-1.1-2-1.3-4.7-1.1-7-1.1-2.8 0-5.6.3-8.4.8-.5.1-.7.6-.6 1v.1c.1.5.6.7 1 .6 2.4-.4 4.8-.7 7.2-.7 2.1 0 4.9-.3 6.8.8 1.1.6 2-.9 1-1.5M90.2 136.9c2.4-.4 4.8-.7 7.3-.7 2.1 0 4.9-.3 6.8.8.9.6 1.8-.9.9-1.5-2-1.2-4.7-1.1-7-1-2.8 0-5.6.3-8.4.8-1.1.1-.7 1.8.4 1.6"/><path class="st14" d="M117.3 137.7c-1.2-1.4-2.3-3-3.7-4.2-1.2-.9-2.7-1.5-4.1-2.1.2.3.4.7.6 1v-.1c-.3.2-.7.4-1 .6 1.4.6 3 1.2 4.1 2.3 1.1 1.1 2 2.4 3 3.6v-1.2l-.1.1c-.8.7.4 1.9 1.2 1.2l.1-.1c.3-.3.2-.9-.1-1.1-1.1-1.5-2.2-3.1-3.7-4.2-1.2-1-2.7-1.5-4.1-2.1-.5-.2-.9.2-1 .6v.1c-.2.5.2.9.6 1 1.4.6 2.9 1.2 4.1 2.3 1.1 1.1 2 2.4 3 3.6.6.7 1.8-.5 1.1-1.3M109 133c1.4.6 2.9 1.2 4.1 2.3 1.1 1.1 2 2.4 3 3.6.7.8 1.9-.4 1.2-1.2-1.2-1.4-2.3-3-3.7-4.2-1.2-1-2.7-1.5-4.1-2.1-1.1-.5-1.5 1.2-.5 1.6"/><path class="st8" d="M115.3 145.2c1.1 0 1.1-1.7 0-1.7s-1.1 1.7 0 1.7M115.3 145.2c1.1 0 1.1-1.7 0-1.7s-1.1 1.7 0 1.7"/><path class="st15" d="M75.2 98.3c0-.1-.1-.1 0 0-.1.3-.3.7-.4 1.1 1.7-1 3.5-2.2 5.3-2.7-.3-.2-.7-.4-1-.6v.1c.2-.3.4-.7.6-1-2 .6-3.9 1.9-5.7 2.9-1 .5-.1 2 .9 1.5 1.7-.9 3.4-2.2 5.3-2.7.5-.1.7-.6.6-1v-.1c-.1-.4-.6-.7-1-.6-2 .6-3.9 1.9-5.7 2.9-.4.2-.5.8-.3 1.2v.1c.4.7 1.9-.2 1.4-1.1M74.9 99.4c1.7-1 3.4-2.2 5.3-2.7 1.1-.3.6-1.9-.5-1.6-2 .6-3.9 1.9-5.7 2.9-1 .4-.1 1.9.9 1.4M78.8 83.6c-1.8 0-3.5-.1-5.3-.2l.9.9v-.1l-.9.9c2.4.2 4.7.3 7.1.2l-.9-.9v.1l.9-.9c-.6-.1-1.2 0-1.8 0-1.1 0-1.1 1.7 0 1.7h1.8c.4 0 .9-.4.9-.9v-.1c0-.5-.4-.9-.9-.9-2.4.1-4.7 0-7.1-.2-.5 0-.8.4-.9.9v.1c0 .5.4.8.9.9 1.7.2 3.5.2 5.3.2 1.1 0 1.1-1.7 0-1.7M73.5 85c2.4.2 4.7.3 7.1.2 1.1 0 1.1-1.7 0-1.7-2.4.1-4.7 0-7.1-.2-1-.1-1 1.6 0 1.7M90.7 95.1c-2.2-.3-4.5-.5-6.7-.7l.9.9v-.1l-.9.9c2.1.1 4.2.3 6.3.6-.2-.3-.4-.7-.6-1v.1c-.2 1.1 1.5 1.5 1.6.5v-.1c.1-.6-.1-1.1-.6-1.1-2.2-.4-4.4-.6-6.7-.7-.5 0-.8.4-.9.9v.1c0 .5.4.8.9.9 2.1.1 4.2.3 6.2.6 1.1 0 1.6-1.6.5-1.8M84 96.1c2.1.1 4.2.3 6.3.6 1.1.2 1.5-1.5.5-1.6-2.2-.3-4.5-.5-6.7-.7-1.2-.1-1.2 1.7-.1 1.7"/><path class="st16" d="M109.8 97.9c-.2.3-.4.6-.6 1 1.9-.3 3.8-.3 5.7-.6 1.8-.3 3.5-1 5.3-1.4-.3-.2-.7-.4-1-.6v.1c.2-.3.4-.7.6-1-1.8.4-3.6 1.1-5.5 1.4-1.8.3-3.7.3-5.5.6-1.1.2-.6 1.8.5 1.6 1.9-.3 3.8-.3 5.7-.6 1.8-.3 3.5-1 5.3-1.4.5-.1.7-.6.6-1v-.1c-.1-.5-.6-.7-1-.6-1.8.4-3.6 1.1-5.5 1.4-1.8.3-3.7.3-5.5.6-.5.1-.7.6-.6 1v.1c.1 1.1 1.7.6 1.5-.5M109.2 98.9c1.9-.3 3.8-.3 5.7-.6 1.8-.3 3.6-1 5.3-1.4 1.1-.2.6-1.9-.5-1.6-1.9.4-3.6 1.1-5.5 1.4-1.8.3-3.7.3-5.5.6-1 .2-.6 1.8.5 1.6M116.9 99.1c-.2.3-.4.6-.6 1 1.6-.3 3.3-.3 5-.2l-.9-.9v.1l.9-.9c-1.8-.1-3.6 0-5.4.3-1.1.2-.6 1.8.5 1.6 1.6-.3 3.3-.3 4.9-.2.5 0 .8-.4.9-.9v-.1c0-.5-.4-.8-.9-.9-1.8-.1-3.6 0-5.4.3-.5.1-.7.6-.6 1v.1c.2 1.3 1.8.8 1.6-.3M116.3 100.1c1.6-.3 3.3-.3 4.9-.2 1.1 0 1.1-1.7 0-1.7-1.8-.1-3.6 0-5.4.3-1 .1-.5 1.8.5 1.6"/><path class="st4" d="M122.9 96.1l-.9.8c.8-.1 1.6-.1 2.4 0l-.9-.9v.1l.9-.9h-2.3c-.5 0-.9.4-.9.9 0 .4.4.9.9.9.8-.1 1.6-.1 2.3 0 .5 0 .8-.4.9-.9V96c0-.5-.4-.8-.9-.9H122c-.4 0-.9.4-.9.9v.1c0 .5.4.9.9.9s1-.4.9-.9M122.1 96.9c.8-.1 1.6-.1 2.4 0 1.1.1 1.1-1.6 0-1.7h-2.4c-.5 0-.9.4-.9.9 0 .4.4.9.9.8"/><path class="st17" d="M132.7 103.6c-.1 0-.1 0 0 0l-.1 1.1c.9-1 1.8-2 2.9-2.8h-1.2s0 .1.1.1v-1.2c-1 .9-2 1.8-2.9 2.8-.7.8.5 2.1 1.2 1.2.9-1 1.8-2 2.9-2.8.4-.3.3-.9 0-1.2 0 0 0-.1-.1-.1-.3-.4-.9-.3-1.2 0-1.1.9-2 1.8-2.9 2.8-.3.3-.4.9 0 1.2l.1.1c.8.7 2-.5 1.2-1.2M132.6 104.8c.9-1 1.8-2 2.9-2.8.4-.3.3-.9 0-1.2-.3-.4-.8-.3-1.2 0-1 .9-2 1.8-2.9 2.8-.7.8.5 2.1 1.2 1.2"/><path class="st18" d="M133.7 122.4c-1.1-2.7-.6-5.9-.7-8.7-.1-2.9-.3-5.9-.3-8.8l-.9.9h.1l-.9-.9c0 3.2.2 6.3.3 9.5.1 2.8-.3 5.8.8 8.5l.4-1h-.1c-1 .5-.1 1.9.9 1.5h.1c.3-.3.6-.8.3-1-1-2.7-.5-5.9-.6-8.7-.1-2.9-.3-5.9-.3-8.8 0-.5-.4-.8-.9-.9h-.1c-.5 0-.8.4-.9.9 0 3.2.2 6.3.3 9.5.1 2.8-.3 5.9.8 8.5.5.9 2.2.5 1.7-.5M131 104.8c0 3.2.2 6.5.3 9.7.1 2.7-.3 5.6.8 8.3.4 1 2.1.6 1.6-.5-1.1-2.6-.6-5.7-.7-8.5-.1-3-.3-6-.3-9.1 0-1-1.7-1-1.7.1"/><path class="st19" d="M69 72.1s0-.1 0 0v1.1c1.9-2.3 3.6-4.6 5.4-7l-1.2.3s.1 0 .1.1l-.3-1.2c-1.6 2.1-3.1 4.2-4.8 6.2-.7.8.4 1.9 1.2 1.2 1.1-1 2.2-1.9 3.3-2.9h-1.2l.1.1v-1.2c-1.3 1.1-2.5 2.2-3.7 3.2-.9.8.3 2 1.1 1.3 1.3-1.1 2.5-2.2 3.7-3.2.4-.3.3-.9 0-1.2l-.1-.1c-.3-.4-.9-.3-1.2 0-1.1.9-2.2 1.9-3.3 2.9l1.2 1.2c1.7-2.1 3.4-4.4 5-6.5.3-.4 0-.9-.3-1.2 0 0-.1 0-.1-.1-.4-.3-.9 0-1.2.3-1.7 2.2-3.3 4.5-5.1 6.6-.3.4-.4.9 0 1.2l.1.1c.9.8 2.1-.4 1.3-1.2M72.9 65.4c-1.7 2.2-3.3 4.5-5.1 6.6-.7.8.4 1.9 1.2 1.2 1.3-1.1 2.5-2.2 3.7-3.2.8-.7-.4-1.9-1.2-1.2-1.3 1.1-2.5 2.2-3.7 3.2l1.2 1.2c1.9-2.3 3.6-4.6 5.4-7 .7-.8-.8-1.7-1.5-.8M60.5 72.4s-.1 0 0 0c-.1.3-.2.7-.4 1.1 2.2-1.2 4.4-2.5 6.6-3.7-.3 0-.7-.1-1-.1l.1.1c0-.3-.1-.7-.1-1-.7 1-1.4 1.9-2 2.9-.4.8.4 1.5 1.2 1.2 3.1-1.5 5.2-4.4 8.4-5.7-.3-.2-.7-.4-1-.6v.1c.2-.3.4-.7.6-1-3.3 1.4-5.5 4.5-8.8 5.8.3.4.6.8 1 1.3.5-1.1 1.3-2 2-3 .5-.7-.5-1.5-1.2-1.2-2.2 1.2-4.3 2.5-6.5 3.7-1 .5-.1 2 .9 1.5 2.2-1.2 4.3-2.5 6.5-3.7l-1.2-1.2c-.7 1-1.5 1.9-2 3-.2.6.2 1.6 1 1.3 3.3-1.4 5.5-4.5 8.8-5.8.4-.2.8-.6.6-1v-.1c-.1-.4-.6-.8-1-.6-3.3 1.4-5.6 4.3-8.8 5.8l1.2 1.2c.6-1.1 1.3-2 2-2.9.2-.3.1-.8-.1-1l-.1-.1c-.3-.3-.7-.3-1-.1-2.2 1.2-4.4 2.5-6.6 3.7-.4.2-.5.8-.3 1.2v.1c.2.7 1.7-.2 1.2-1.2M72.8 65.5c-3.4 1.4-5.6 4.4-8.9 5.9l1.2 1.2c.5-1.1 1.3-2.1 2-3.1.5-.7-.5-1.5-1.2-1.2-2.2 1.2-4.4 2.5-6.6 3.7-1 .5-.1 2 .9 1.5 2.2-1.2 4.4-2.5 6.6-3.7l-1.2-1.2c-.7 1-1.5 1.9-2 3.1-.4.8.4 1.5 1.2 1.2 3.1-1.4 5.3-4.4 8.5-5.7.9-.4.5-2.1-.5-1.7M75.4 64.3c.2.3.5.6.8.8.2-1.7 1.1-3.3 1.5-5 .2-1-1-1.4-1.6-.7-1 1.4-1.8 2.9-3 4.1h1.2l-.1-.1v1.2c1.3-1.4 2.2-3.1 3.4-4.6l-1.2.3h.1l-.4-1c-.4 1.9-1.3 3.7-1.6 5.7-.1 1.1 1.6 1.1 1.7 0 .2-1.8 1.1-3.4 1.5-5.2.1-.3 0-.8-.4-1h-.1c-.5-.2-.9-.1-1.2.3-1 1.4-1.9 3-3.1 4.3-.3.3-.3.9 0 1.2l.1.1c.3.3.9.3 1.2 0 1.3-1.3 2.2-2.9 3.2-4.4-.5-.2-1-.4-1.6-.7-.4 1.9-1.3 3.6-1.5 5.5-.1.5.4.8.9.9h.1c1.2.1 1.2-1.6.1-1.7M76.2 65.2c.2-1.8 1.1-3.4 1.5-5.2.2-1-1-1.4-1.6-.7-1 1.4-1.9 3-3.1 4.3-.8.8.4 2 1.2 1.2 1.3-1.4 2.2-3.1 3.4-4.6-.5-.2-1-.4-1.6-.7-.4 1.9-1.3 3.7-1.6 5.7 0 1 1.7 1 1.8 0M72.1 70.1s0-.1 0 0l.3.9c1.2-4.7 2.6-9.4 4.1-14-.3.2-.7.4-1 .6h.1c-.2-.3-.4-.7-.6-1-1.5 4.5-2.9 9.1-4 13.8-.3 1 1 1.4 1.6.7 1.8-2.3 3-5 4.5-7.4 1.2-2 2.9-4.8 5.3-5.5-.4-.3-.7-.5-1.1-.8.2 1.9 0 3.9-.3 5.8-.2 1.1 1.3 1.5 1.6.5.5-1.7 1.4-3.2 2.5-4.6h-1.2c1.6 2 2.1 4.6 3.8 6.7.3.4.9.3 1.2 0 .6-.5 1.6-1.2 1.9-2 .3-.8.1-2 .1-2.9.1-2.4.4-4.8 1-7.2-.3.2-.5.4-.8.6h.1l-.9-.9c0 2.4.4 4.8.7 7.3.1.8 1.1 1.2 1.6.4.2-.2.3-.5.5-.7-.5-.1-1-.1-1.6-.2.5 1.6.2 3.2-.1 4.8.3-.2.5-.4.8-.6h-.1l.9.9c0-1.4-.1-2.8-.3-4.2-.1-.8-1.1-1.2-1.6-.4-.7 1-1.7 1.9-1.8 3.2-.1 1.5 0 3 .1 4.5 0 .6.7 1.1 1.3.7.3-.2.6-.4.9-.7l-1.5-.6c0 .3.1.7.2 1 .2-.3.4-.7.6-1h-.1c.3.2.7.4 1 .6-.1-.2-.1-.4-.2-.6-.2-.7-1-.8-1.4-.4 0 .1-.1.1-.1.2l.9.9c-.1-1.6-.1-3.2-.1-4.8 0-.7-1-1.2-1.5-.6s-1.1 1.2-1.8 1.7h1.2c-1.7-1.8-2.1-4.5-3.6-6.5-.4-.5-1.1-.5-1.5 0-1.2 1.5-2.1 3.2-2.7 5-.2.7.6 1.4 1.3 1h-.1c-.3-.4-.5-.7-.8-1.1-.3 1.5-.8 3-1 4.5.3-.2.5-.4.8-.6h-.1l.9.9c.4-3.4 1.3-6.7 1-10.2 0-.5-.5-1-1.1-.8-2.4.8-4 3-5.4 5-1.9 2.8-3.2 6-5.3 8.6-.7.8.5 2.1 1.2 1.2 1.7-2.2 3-4.7 4.4-7 1.3-2.2 3-5.3 5.6-6.2-.4-.3-.7-.5-1.1-.8.3 3.4-.6 6.8-1 10.2-.1.5.4.8.9.9h.1c.3 0 .8-.3.8-.6.2-1.5.7-3 1-4.5.1-.5-.2-1.1-.8-1.1-.3 0-.5.1-.7.3.4.3.8.6 1.3 1 .6-1.7 1.5-3.2 2.5-4.6h-1.5c1.6 2.1 2.1 4.8 3.9 6.8.3.4.9.3 1.2 0 .6-.5 1.2-1.1 1.8-1.7l-1.5-.6c0 1.6 0 3.2.1 4.8 0 .5.4.9.9.9s.9-.4 1.3-.7c-.5-.1-.9-.3-1.4-.4 0 .2.1.4.2.6.1.4.6.7 1 .6h.1c.4-.1.7-.6.6-1 0-.2-.1-.4-.1-.6 0-.7-.9-1.1-1.5-.6-.2.2-.3.3-.5.4.4.2.9.5 1.3.7 0-1.3-.2-2.6-.1-3.9.1-1.1 1-2 1.6-2.9-.5-.1-1.1-.3-1.6-.4.2 1.4.3 2.8.3 4.2 0 .5.4.8.9.9h.1c.3 0 .7-.3.8-.6.4-1.9.7-3.8.1-5.7-.2-.7-1.2-.8-1.6-.2-.2.2-.3.5-.5.7.5.1 1.1.3 1.6.4-.3-2.4-.7-4.8-.7-7.3 0-.5-.4-.8-.9-.9h-.1c-.4 0-.7.3-.8.6-.5 1.9-.8 3.8-.9 5.7-.1 1-.1 1.9-.2 2.9 0 1.4-.4 1.8-1.5 2.7H89c-1.6-2-2.1-4.7-3.8-6.7-.3-.3-.9-.3-1.2 0-1.3 1.6-2.3 3.4-2.9 5.3.5.2 1.1.3 1.6.5.3-2 .6-4.1.4-6.2-.1-.5-.5-1-1.1-.8-2.4.7-4 2.9-5.4 4.8-1.9 2.9-3.4 6.1-5.5 8.9.5.2 1 .4 1.6.7 1.2-4.6 2.5-9.2 4-13.8.2-.5-.2-.9-.6-1H76c-.5-.2-.9.2-1 .6-1.5 4.6-2.9 9.3-4.1 14-.1.3.1.8.4 1h.1c.8-.1 1.7-1.5.7-2M80.8 63.3c-.1.7-.2 1.5-.4 2.2-.1.5.1.9.6 1 .4.1.9-.1 1-.6.2-.9.5-1.7.7-2.6.2-.8-.8-1.4-1.4-.8-.1.1-.2.3-.3.4-.8.8.4 2 1.2 1.2l.2-.2.2-.2-1.4-.8c-.2.9-.5 1.7-.7 2.6.5.2 1.1.3 1.6.5.1-.7.2-1.5.4-2.2.1-.5-.1-.9-.6-1-.4-.2-1 .1-1.1.5M91 60.6c.2 1.3.3 2.6.3 3.9 0 .9 1.5 1.2 1.7.2.3-1.7.5-3.3.1-5-.2-.7-1.2-.8-1.6-.2-.1.2-.3.4-.4.7-.6.9.9 1.8 1.5.9.1-.2.3-.4.4-.7-.5-.1-1-.1-1.6-.2.3 1.4.2 2.7-.1 4.1.6.1 1.1.2 1.7.2 0-1.3-.2-2.6-.3-3.9-.2-1-1.9-1-1.7 0M90.2 53.4c-.7 3.2-1 6.4-1 9.7 0 .7 1 1.2 1.5.6.5-.7 1.1-1.4 1.5-2.1.5-.8.4-1 .3-1.9-.3-2-.5-4-.6-6 0-1.1-1.7-1.1-1.7 0 0 1.5.2 3.1.4 4.6.1.6.3 1.3.2 1.9-.1.9-.9 1.7-1.4 2.3l1.5.6c.1-3.1.3-6.2 1-9.2.2-1.1-1.5-1.6-1.7-.5M74.9 56.6c-1.5 4.6-2.9 9.3-4.1 14-.2.8.9 1.5 1.4.8 1.7-2.1 2.9-4.6 4.3-6.9 1.3-2.3 3-5.5 5.7-6.3-.4-.3-.7-.5-1.1-.8.3 3.4-.6 6.8-1 10.2-.1 1 1.5 1.2 1.7.2.2-1.5.7-3 1-4.4.2-.7-.6-1.4-1.3-1-.3.2-.4.4-.6.6.5.2 1 .4 1.6.7.6-1.8 1.5-3.4 2.6-4.9h-1.5c1.6 2.1 2.2 4.8 3.9 6.8.3.4.9.3 1.2 0 1.8-1.5 3-3.4 4.2-5.3-.5-.1-1-.1-1.6-.2.4 1.6.2 3.1-.2 4.7.6.1 1.1.2 1.7.2-.1-3.9-1-7.8-1-11.8 0-.9-1.4-1.2-1.7-.2-1.1 4.9-1.1 10-.9 15 0 .7.7 1 1.3.7.3-.1.6-.4.9-.6-.5-.1-.9-.3-1.4-.4 0 .2.1.5.2.7.3 1 2 .6 1.6-.5-.1-.2-.1-.4-.2-.7-.1-.7-1-.8-1.4-.4-.1.2-.3.3-.5.4.4.2.9.5 1.3.7-.2-4.9-.2-9.8 1-14.6-.6-.1-1.1-.2-1.7-.2.1 3.9 1 7.8 1 11.8 0 .9 1.5 1.2 1.7.2.4-1.9.6-3.7.2-5.6-.2-.7-1.2-.8-1.6-.2-1.1 1.8-2.3 3.5-4 4.9h1.2c-1.6-1.9-2.1-4.5-3.6-6.5-.4-.5-1.1-.5-1.5 0-1.2 1.6-2.2 3.3-2.8 5.3-.3 1 1 1.4 1.6.7-.4-.3-.8-.6-1.3-1-.4 1.5-.8 2.9-1 4.4.6.1 1.1.2 1.7.2.4-3.4 1.3-6.8 1-10.2 0-.5-.5-1-1.1-.8-2.6.9-4.4 3.4-5.8 5.6-1.7 2.6-3 5.6-5 8.1.5.3.9.6 1.4.8 1.2-4.7 2.6-9.4 4.1-14 .4-.8-1.2-1.3-1.6-.2M80.7 70.3c.2.3.5.6.8.9v-4.4l-.9.9h.1l-.9-.9v4.4c0 1.1 1.7 1.1 1.7 0v-4.4c0-.5-.4-.9-.9-.9h-.1c-.5 0-.9.4-.9.9v4.4c0 .5.4.9.9.9h.1c1.2-.1 1.2-1.8.1-1.8M79.8 66.7v4.4c0 1.1 1.7 1.1 1.7 0v-4.4c0-1.1-1.7-1.1-1.7 0M76.3 63.8s-.1 0 0 0c.2.3.5.6.8.8.2-3.6.5-7.3 1.3-10.9-.3.2-.7.4-1 .6h.1c-.2-.3-.4-.7-.6-1-.9 3.7-1.2 7.5-1.4 11.3-.1 1.1 1.6 1.1 1.7 0 .2-3.6.5-7.3 1.3-10.8.1-.4-.1-.9-.6-1h-.1c-.4-.1-.9.1-1 .6-.9 3.7-1.2 7.5-1.4 11.3 0 .5.4.8.9.9h.1c1-.1 1-1.8-.1-1.8M76.8 53.3c-.9 3.7-1.2 7.5-1.4 11.3-.1 1.1 1.6 1.1 1.7 0 .2-3.6.5-7.3 1.3-10.8.3-1.1-1.4-1.5-1.6-.5M80.1 71.5c0-1-.5-1.8-1.5-1.8-.4 0-.7.2-1.1-.1-.2-.2-.3-.5-.5-.6-.5-.4-1.2-.5-1.7-.7.2.3.4.7.6 1v-.1c-.3.2-.7.4-1 .6.4.2.9.3 1.3.5.6.2 1.3-.5 1-1-.1-.3-.2-.5-.2-.8-.3.4-.5.7-.8 1.1h.1c-.3-.2-.5-.4-.8-.6.2 1.2.7 1.4 1.7 1.8 1 .4 1.5.8 2.4.1-.4-.1-.9-.1-1.3-.2.1.2.1.5.3.6.3.3.8.4 1.1.6-.1-.2-.2-.4-.2-.6.1-.2.2-.4.2-.6.3-.4.4-.1 0-.1-.2 0-.4.1-.6.1-1.1.2-.6 1.8.5 1.6.5-.1 1.3-.1 1.5-.7.4-.9-.8-1.4-1.4-1.7.1.2.3.3.4.5-.1-.2-.2-.5-.3-.7-.3-.5-.9-.5-1.3-.2l-.1.1h.9c-.8-.3-1.6-.6-2.3-.9l.6.6c-.1-.3-.2-.5-.2-.8-.1-.3-.5-.7-.8-.6h-.1c-.6.1-.9.5-.8 1.1 0 .3.1.5.2.8l1-1c-.4-.2-.9-.3-1.3-.5-.5-.2-.9.2-1 .6v.1c-.2.5.2.9.6 1 .5.2.9.4 1.4.5-.2-.1-.3-.3-.5-.4.8 1.3 2 1.8 3.4 1.2h-.9c.1.1.3.1.4.2-.1-.2-.3-.3-.4-.5 0 .2.1.4.1.6-.3 1 1.4 1 1.4-.1M78.4 71c0 .1.1.2.1.3 0 .1.1.4 0 .1 0 .3.1.5.3.7.2.2.5.2.7.2.2 0 .5-.1.7-.1.3-.1.6-.4.6-.7 0-.3-.1-.7-.4-.8-.3-.2-.6-.3-.8-.5-.4-.2-.9-.1-1.2.3-.2.4-.1.9.3 1.2.3.1.6.3.8.5l.2-1.6c-.2 0-.5.1-.7.1.4.3.7.5 1.1.8 0-.3-.1-.6-.2-.8-.1-.4-.6-.7-1-.6-.3 0-.6.5-.5.9M75.9 70.1c.3.5.7.9 1.1 1.1.7.3 1.3.3 2 0 .6-.2.6-1.2 0-1.5-.7-.3-1.4-.6-2.2-.9-.4-.2-.9.2-1 .6-.1.5.2.9.6 1 .6.2 1.2.4 1.8.7v-1.5c-.4.2-.7-.2-.8-.5-.6-.8-2.1.1-1.5 1M78.3 71.2c.1 0 .2.1.3.1.3.2.7.2.9-.1.3-.2.4-.6.3-.9-.1-.2-.1-.3-.2-.5s-.4-.4-.6-.4c-.3 0-.5.1-.7.2.2-.1 0 0 0 0-.3.4-.5.9-.3 1.3s.8.6 1.2.3l.3-.3c-.4-.1-.9-.1-1.3-.2-.1-.2 0 0 0 .1.4-.3.8-.6 1.3-1-.1 0-.2-.1-.3-.1-.2-.1-.4-.2-.7-.1-.2.1-.4.2-.5.4-.2.4-.1 1 .3 1.2M75.4 69c.3 1.9 2.2 3.4 4 2l-1.2-.3c.1.2.2.5.2.8.1.6.5.9 1.1.8.3 0 .6-.1.9-.2.7-.2.8-1.2.2-1.6-1.7-1-3.5-1.6-5.3-2.3-1-.4-1.5 1.2-.5 1.6 1.7.7 3.4 1.2 4.9 2.1.1-.5.1-1 .2-1.6-.3.1-.6.1-.9.2.4.3.7.5 1.1.8-.1-.6-.2-1.1-.5-1.6-.2-.4-.8-.6-1.2-.3-.9.7-1.3-.2-1.5-1 0-1-1.7-.5-1.5.6M109.2 78.1c-.1 0-.1 0 0 0l.8.9c.1-9.7-2.2-19.1-3.6-28.7-.2.3-.4.7-.6 1h.1c-.3-.2-.7-.4-1-.6 1.4 9.4 3.7 18.7 3.5 28.2 0 1.1 1.7 1.1 1.7 0 .1-9.7-2.2-19.1-3.6-28.7-.1-.5-.6-.7-1-.6h-.1c-.5.1-.7.6-.6 1 1.4 9.4 3.7 18.7 3.5 28.2 0 .5.4.8.9.9h.1c1 .1 1-1.6-.1-1.6M104.7 50.7c1.4 9.4 3.7 18.7 3.5 28.2 0 1.1 1.7 1.1 1.7 0 .1-9.7-2.2-19.1-3.6-28.7-.1-1-1.7-.5-1.6.5M108.9 61.5c-.1 0-.1 0 0 0-.2.3-.3.7-.4 1.1 1.2-.8 2.5-1.8 3.9-2.2 1.5-.5 3.1-.3 4.7.1-.2-.3-.4-.5-.6-.8-.1.5.4.8.9.9 2.6 0 5.3.1 7.8 1-.2-.3-.4-.7-.6-1v.1c.3-.2.7-.4 1-.6-3.1-1.1-6.4-1-9.6-1l.9.9v-.1l-.9.9h.9c.9 0 1.2-1.5.2-1.7-1.6-.3-3.3-.5-4.9-.1-1.7.5-3.1 1.5-4.5 2.5-.9.6-.1 2.1.9 1.5 1.2-.8 2.4-1.7 3.8-2.2 1.4-.5 2.9-.3 4.3 0 .1-.6.2-1.1.2-1.7h-.9c-.5 0-.9.4-.9.9v.1c0 .5.4.9.9.9 3.1 0 6.2 0 9.1 1 .5.2.9-.2 1-.6v-.1c.2-.5-.2-.9-.6-1-2.6-.9-5.5-1-8.2-1.1l.9.9c0-.4-.3-.7-.6-.8-1.7-.4-3.5-.7-5.2-.2-1.7.5-3.2 1.5-4.7 2.5-.4.2-.6.8-.3 1.2 0 0 0 .1.1.1.5.4 2-.5 1.4-1.4M108.5 62.6c1.2-.8 2.4-1.7 3.8-2.2 1.5-.6 3.2-.3 4.8.1.1-.6.2-1.1.2-1.7h-1.4c-1.1 0-1.1 1.7 0 1.7 3.1 0 6.2 0 9.1 1 1 .4 1.5-1.3.5-1.6-3.1-1.1-6.4-1.1-9.6-1.1v1.7h1.4c.9 0 1.2-1.5.2-1.7-1.7-.4-3.3-.6-4.9-.3-1.8.4-3.4 1.6-4.9 2.6-.9.7-.1 2.2.8 1.5M136.2 81.6c-3-1.1-6.4-2.8-8.7-5.1v1.2l.1-.1h-1.2c2.4 2.5 6.1 4.3 9.4 5.5-.2-.3-.4-.7-.6-1v.1c-.4 1 1.3 1.5 1.6.5v-.1c.2-.5-.1-1-.6-1-2.9-1.2-6.4-2.8-8.6-5.1-.3-.3-.9-.3-1.2 0l-.1.1c-.3.3-.3.9 0 1.2 2.5 2.6 6.1 4.3 9.4 5.5 1.1.3 1.6-1.3.5-1.7M126.4 77.7c2.5 2.5 6.1 4.3 9.4 5.5 1 .4 1.5-1.3.5-1.6-3-1.1-6.4-2.7-8.7-5.1-.8-.8-2 .4-1.2 1.2M132.5 84.8s0-.1 0 0l-.9.8c2-.2 3.8-.9 5.6-1.8.7-.3.5-1.4-.2-1.6-.3-.1-.6-.1-1-.2l.9.9v-.1l-.9.9c.2 0 .4 0 .5.1v-1.5c-1.6.8-3.2 1.4-5 1.6-1.1.1-1.1 1.8 0 1.7 2.1-.2 4-.9 5.8-1.9.6-.3.6-1.2 0-1.5-.4-.2-.9-.3-1.4-.3-.5 0-.9.4-.9.9v.1c0 .5.4.8.9.9.2 0 .3 0 .5.1l-.2-1.6c-1.5.7-3.1 1.4-4.7 1.5-.4 0-.9.4-.9.9v.1c.3 1.1 2 1.1 1.9 0M131.6 85.6c2-.2 3.9-.9 5.7-1.8.7-.4.4-1.3-.2-1.6-.4-.1-.7-.2-1.1-.2-1.1 0-1.1 1.7 0 1.7.2 0 .4 0 .6.1-.1-.5-.1-1-.2-1.6-1.5.8-3.1 1.4-4.9 1.6-1 .2-1 1.9.1 1.8M58 88.9c0-.1 0-.1 0 0-.3.2-.6.5-.9.8 2.3-.2 4.7-.5 6.8-1.4 1-.4 1.9-.9 2.7-1.6 1.1-.9 2.1-2 3.6-2.3-.4-.3-.7-.5-1.1-.8v.1c.2-.3.4-.5.6-.8-2.2.4-3.5 2.4-5.4 3.4-2.2 1.2-4.8 1.6-7.3 1.8-1.1.1-1.1 1.8 0 1.7 2.4-.2 4.7-.5 6.9-1.4 1-.4 1.9-.9 2.8-1.6 1.1-.9 2.1-2 3.5-2.3.3-.1.7-.5.6-.8v-.1c-.1-.6-.5-.9-1.1-.8-2.2.4-3.5 2.4-5.4 3.5-2.2 1.2-4.8 1.6-7.3 1.8-.4 0-.9.4-.9.9v.1c.3.9 2 .9 1.9-.2M57.2 89.7c2.4-.2 4.8-.5 7-1.5 1.1-.5 2-1 2.9-1.7 1-.8 1.9-1.8 3.2-2.1 1.1-.2.6-1.8-.5-1.6-2.1.4-3.3 2.2-5.1 3.3-2.3 1.4-5 1.8-7.6 2-1-.1-1 1.7.1 1.6M70.3 82.3c-2.4-1.9-4.4-4.2-7.5-5 .2.3.4.7.6 1v-.1c-.3.2-.7.4-1 .6 2.8.7 4.6 2.8 6.8 4.6v-1.2s0 .1-.1.1c-.7.9.5 2.1 1.2 1.2 0 0 0-.1.1-.1.3-.3.4-.9-.1-1.1-2.3-2-4.4-4.3-7.5-5.1-.4-.1-.9.1-1 .6v.1c-.1.4.1.9.6 1 2.8.7 4.6 2.8 6.8 4.5.8.8 2-.4 1.1-1.1M62.4 78.9c2.8.7 4.6 2.8 6.8 4.6.8.7 2.1-.5 1.2-1.2-2.4-1.9-4.4-4.2-7.5-5-1.1-.3-1.6 1.3-.5 1.6"/><path class="st20" d="M108.8 138.5c-2.3-.4-4.6-.7-6.9-.9l.9.9v-.1l-.9.9c2.9.2 5.7.3 8.6-.3 1-.2.7-1.6-.2-1.7-3.5-.2-7-.2-10.5-.2-3.4 0-6.8-.3-10.1-.5l.9.9v-.1l-.9.9h1.7c.5 0 .8-.4.9-.9l-.9.9c4 .3 8.1 0 12.1.2l-.9-.9v.1c.2-.3.4-.5.6-.8-.3.1-.6.1-.8.1-1 .1-.7 1.6.2 1.7 2.7.1 5.3.2 8 .3l-.9-.9v.1c.2-.3.4-.5.6-.8-2.1.5-4.2.5-6.4.4-1.1 0-1.1 1.6 0 1.7 1.4.2 2.9.4 4.3.6-.2-.3-.4-.7-.6-1v.1c-.2 1.1 1.5 1.5 1.6.5v-.1c.3-.6.1-1.1-.4-1.1-1.6-.3-3.2-.6-4.8-.8v1.7c2.3.1 4.6 0 6.8-.5.3-.1.7-.5.6-.8v-.1c0-.5-.4-.8-.9-.9-2.7-.1-5.3-.2-8-.3.1.6.2 1.1.2 1.7.3 0 .6-.1.8-.1.3-.1.6-.5.6-.8v-.1c0-.5-.4-.8-.9-.9-4-.1-8.1.1-12.1-.2-.5 0-.8.4-.9.9l.9-.9h-1.7c-.5 0-.8.4-.9.9v.1c0 .5.4.8.9.9 3.4.2 6.8.5 10.1.5 3.5 0 7 0 10.5.2-.1-.6-.2-1.1-.2-1.7-2.7.5-5.4.4-8.1.2-.5 0-.8.4-.9.9v.1c0 .5.4.8.9.9 2.2.2 4.3.5 6.4.8 1.3.1 1.8-1.6.7-1.7M95.2 138.5c2 .1 3.9.3 5.9.2 1.1-.1 1.1-1.7 0-1.7-2 0-3.9-.1-5.9-.2-1.1 0-1.1 1.7 0 1.7 2 .1 3.9.1 5.9.2V137c-2 .1-3.9 0-5.9-.2-1-.1-1 1.6 0 1.7M96.7 138.4c2.2.1 4.4.3 6.5 0 1-.1.7-1.6-.2-1.7-2.1-.1-4.2 0-6.3 0-1.1 0-1.1 1.7 0 1.7 2.1 0 4.2-.1 6.3 0-.1-.6-.2-1.1-.2-1.7-2 .3-4.1 0-6.1 0-1.1 0-1.1 1.7 0 1.7M91.4 138.2c4 .3 8.1 0 12.1.2-.1-.6-.2-1.1-.2-1.7-4.5.7-9-.2-13.6-.2-1.1 0-1.1 1.7 0 1.7 7 .3 14 .3 21 .7-.1-.6-.2-1.1-.2-1.7-2.8.6-5.6.5-8.5.3-1.1-.1-1.1 1.6 0 1.7 2.2.2 4.3.5 6.4.8 1.1.2 1.5-1.5.5-1.6-2.3-.4-4.6-.7-6.9-.9v1.7c3 .2 6 .3 8.9-.4 1-.2.7-1.6-.2-1.7-7-.3-14-.4-21-.7v1.7c4.7 0 9.3.9 14 .1 1-.2.7-1.6-.2-1.7-4-.1-8.1.1-12.1-.2-1.1.1-1.1 1.8 0 1.9M111.7 138.4h-2.9l.9.9v-.1l-.9.9h2.9l-.9-.9v.1c0 1.1 1.7 1.1 1.7 0v-.1c0-.5-.4-.9-.8-.8l-2.9-.1c-.5 0-.9.4-.9.9v.1c0 .5.4.9.9.9h2.9c1.1-.1 1.1-1.8 0-1.8M111 138.4h-2.2c-1.1 0-1.1 1.7 0 1.7h2.9c1.1 0 1.1-1.7 0-1.7h-2.9c-1.1 0-1.1 1.7 0 1.7h2.2c1.1 0 1.1-1.7 0-1.7M89.2 137.9l-.9.8c1.1 0 2.1 0 3.2-.1s1.1-1.6 0-1.7c-1.3-.1-2.7-.1-4-.1l.9.9v-.1l-.9.9c1.5 0 3 0 4.4.2l-.9-.9v.1l.9-.9c-1.2.2-2.4.2-3.6.2-1.1 0-1.1 1.7 0 1.7 1.2 0 2.4 0 3.6-.2.5-.1.9-.3.9-.9v-.1c0-.5-.4-.8-.9-.9-1.5-.2-3-.2-4.4-.2-.5 0-.9.4-.9.9v.1c0 .5.4.9.9.9 1.3 0 2.7 0 4 .1v-1.7c-1.1.1-2.1.1-3.2.1-.5 0-.9.4-.9.9v.1c.1 1 1.8 1 1.8-.1M87.5 138.4c1.5 0 3 0 4.4.2v-1.7c-1.2.2-2.4.2-3.6.2-1.1 0-1.1 1.7 0 1.7 1.2 0 2.4 0 3.6-.2 1.1-.1 1.1-1.6 0-1.7-1.5-.2-3-.2-4.4-.2-1.1 0-1.1 1.7 0 1.7"/><path class="st21" d="M127.8 145.3c0-.6.2-1.2.3-1.7-.3.2-.5.4-.8.6h.1l-.9-.9c0 .5.1.9.2 1.3.1.6.8.7 1.3.5.6-.3.9-.7 1.2-1.3l-1.2.3h.1l-.3-1.2c-.1.2-.3.5-.5.7-.5.6.3 1.4 1 1.3.5-.1 1-.2 1.4-.4l-1-.4s0 .1.1.1l.1-1-.5.5c-.3.3-.3.9 0 1.2.3.3.8.4 1.1.8.3.3.9.3 1.2 0 .4-.3.8-.1 1.3-.1l-.9-.9v.1l.9-.9c-1-.1-1.7-.2-2.5.6.4.1.9.1 1.3.2-.1-.2-.3-.4-.5-.5-.2-.1-.6-.2-.7-.4l-.1 1 .4-.4c.6-.6 0-1.7-.8-1.4-.5.2-1.1.2-1.5.4-.4.2-.7.7-1.1.9-.9.6-.1 2.1.9 1.5.3-.2.6-.5.9-.7.4-.3.8-.4 1.3-.5l-.8-1.4-.4.4c-.3.3-.3.7-.1 1 .1.2.3.4.5.6.2.1.6.2.7.4.3.5.9.6 1.3.2.4-.4.7-.2 1.3-.1.5 0 .9-.4.9-.9v-.1c0-.5-.4-.8-.9-.9-1.1-.1-1.6-.2-2.5.6h1.2c-.3-.3-.8-.4-1.1-.8v1.2l.5-.5c.2-.2.4-.7.1-1 0 0 0-.1-.1-.1-.2-.3-.6-.5-1-.4-.5.2-.9.3-1.4.4.3.4.6.8 1 1.3.2-.2.3-.4.5-.7.2-.4.1-1-.3-1.2h-.1c-.4-.2-.9-.1-1.2.3-.2.4-.2.5-.6.7.4.2.8.3 1.3.5 0-.3-.1-.6-.1-.9 0-.5-.4-.8-.9-.9h-.1c-.4 0-.7.3-.8.6-.2.7-.4 1.5-.4 2.2 0 1.3 1.7 1.3 1.7.2M126.5 143.4c-.1.6-.3 1.1-.3 1.7 0 .6.8 1.1 1.3.7.3-.2.7-.5.9-.8.3-.3.3-.7.1-1-.2-.3-.6-.5-1-.4l-.6.3c.4.2.9.5 1.3.7 0-.4-.1-.8-.2-1.2-.1-.5-.6-.7-1-.6-.5.1-.7.6-.6 1 0 .2.1.4.1.6v.2c0 .6.7 1.1 1.3.7l.1-.1s.2-.1.1-.1l-.8-1.4-.4.4-.1.1-.1.1c.4.2.9.5 1.3.7 0-.4.1-.8.2-1.2.1-.4-.1-.9-.6-1-.4-.1-.9.2-1 .6M127.8 143.1c-.3.6-.7 1-1.2 1.4.4.2.9.5 1.3.7 0-.6.2-1.1.3-1.6-.6-.1-1.1-.2-1.7-.2 0 .4.1.8.2 1.2.1.6.7 1.1 1.3.7.6-.3 1.4-.4 2-.7-.3-.4-.7-.9-1-1.3l-.5.5c-.3.3-.3.9 0 1.2.3.4.9.5 1.2.9.3.4.9.3 1.2 0 .4-.4.8-.1 1.3-.1 1.1.1 1.1-1.6 0-1.7-.4 0-.8-.2-1.2-.1-.5.1-.9.4-1.3.7h1.2c-.3-.4-.9-.5-1.2-.9v1.2l.5-.5c.7-.7-.2-1.7-1-1.3-.7.3-1.4.3-2 .7.4.2.9.5 1.3.7 0-.4-.1-.8-.2-1.2-.1-.9-1.4-1.2-1.7-.2-.2.7-.3 1.4-.4 2.1 0 .6.8 1.1 1.3.7.8-.5 1.4-1.2 1.8-2 .5-1-1-1.9-1.5-.9M133.3 144.1s-.1 0 0 0c-.1 0 .1 0 0 0h.1l.1.1c-.1-.1.1.2.1.1s.1.2 0 .1c0 0 0-.1 0 0 0 .2 0 0 0 0l-.9.9h.1l-.9-.9c0 .3.1.7.4 1 .3.3.6.4 1 .4l-.9-.9v.1c0 .4.4.9.9.9s.9-.4.9-.9v-.1c0-.5-.4-.9-.9-.8-.1-.1-.1-.1 0 0 .1-.1.1-.1 0 0 .1-.1.1-.1.2 0-.1 0 0 0 .1.1s.1.2.1.1 0 0 .1.1v-.1.1c0-.5-.4-.9-.9-.9h-.1c-.5 0-.9.4-.9.9 0 .4.1.7.4 1 .3.3.6.4 1 .4s.9-.4.9-.9c-.1-.5-.4-.8-.9-.8M131.9 144.4c0 .4.1.7.4 1 .2.3.6.4 1 .4.5 0 .9-.4.9-.9s-.4-.8-.9-.9c-.2 0 .1 0 0 0h.1c-.1 0 0 0 .1.1s.1.2.1.1c.1.2.1.2 0 .1 0-.1 0 .2 0 0 0-.5-.4-.9-.9-.9-.4.1-.8.5-.8 1M125.1 158.6c-1-.3-2.1-.8-2.7-1.7l-.3 1.2s.1 0 .1-.1l-1.2-.3c.8 1.2 2.1 1.9 3.4 2.4.7.2 1.4-.6 1-1.3-.9-1.3-2.2-2.2-3.6-2.9l.3 1.2v-.1l-1.2.3c1.2.6 2.5 1.3 3.2 2.5.5 1 2 .1 1.5-.9-.8-1.5-2.3-2.4-3.8-3.2-.4-.2-.9-.1-1.2.3v.1c-.2.4-.1.9.3 1.2 1.1.6 2.3 1.2 3 2.3.3-.4.6-.8 1-1.3-.9-.3-1.8-.8-2.4-1.6-.3-.4-.8-.6-1.2-.3 0 0-.1 0-.1.1-.4.2-.6.8-.3 1.2.9 1.3 2.2 2.1 3.7 2.5 1.1.3 1.6-1.3.5-1.6M121 157.7c.9 1.2 2.1 2 3.6 2.4.7.2 1.3-.6 1-1.3-.9-1.4-2.3-2.3-3.7-3-1-.5-1.8 1-.9 1.5 1.2.6 2.4 1.3 3.1 2.4.3-.4.6-.8 1-1.3-1-.3-2-.8-2.6-1.7-.7-.7-2.1.1-1.5 1M110.2 178c-1.7-2.2-2.2-5-3.7-7.4-1.5-2.4-4.3-4.5-4.6-7.4l-1.3.7c2.3 1.2 3.3 4.1 5 5.9v-1.2l-.1.1h1.2c-1.8-2-2.9-4.6-5.2-6-.7-.4-1.4.3-1.3 1 .5 3 2.8 5 4.4 7.3 1.7 2.5 2.2 5.5 4 7.9 0-.3.1-.7.1-1l-.1.1c-.8.7.4 1.9 1.2 1.2l.1-.1c.5-.3.5-.9.3-1.1-1.6-2.3-2.1-5.1-3.6-7.5-1.5-2.5-4-4.4-4.6-7.4-.4.3-.8.6-1.3 1 2.1 1.4 3.1 4 4.8 5.8.3.3.9.3 1.2 0l.1-.1c.3-.3.3-.9 0-1.2-1.9-2-2.9-4.8-5.4-6.1-.5-.3-1.4.1-1.3.7.3 2.9 2.3 4.9 4 7.1 2 2.6 2.5 6 4.5 8.6.7.9 2.2 0 1.6-.9M106.8 168.6c-1.9-2-2.9-4.7-5.3-6.1-.7-.4-1.4.3-1.3 1 .4 2.9 2.6 4.9 4.2 7.2 1.9 2.5 2.3 5.7 4.2 8.2.7.9 2.1 0 1.5-.9-1.8-2.3-2.3-5.3-3.9-7.8-1.5-2.3-3.9-4.2-4.3-7.2-.4.3-.8.6-1.3 1 2.2 1.3 3.2 4 4.9 5.8.9.8 2.1-.4 1.3-1.2M90.7 179.3c0-.1-.1-.1 0 0 0 .3.1.7.2 1.1 3.3-5.7 6.2-11.7 8.4-17.9-.3.2-.7.4-1 .6h.1c-.2-.3-.4-.7-.6-1-2.2 6.1-5 11.9-8.3 17.5-.6.9.9 1.8 1.5.9 3.3-5.7 6.2-11.7 8.4-17.9.2-.5-.2-.9-.6-1h-.1c-.5-.2-.9.2-1 .6-2.2 6.1-5 11.9-8.3 17.5-.2.4-.1.9.3 1.2h.1c1 .4 1.8-1.1.9-1.6M90.9 180.4c3.3-5.7 6.2-11.7 8.4-17.9.4-1-1.3-1.5-1.6-.5-2.2 6.1-5 11.9-8.3 17.5-.5 1 1 1.8 1.5.9M111.1 177.3s-.1 0 0 0c.1.3.3.7.5 1 1.1-3.8 1.3-7.7 2.3-11.5 1.1-3.9 3-7.5 4-11.5-.3.2-.7.4-1 .6h.1c-.2-.3-.4-.7-.6-1-.9 4-2.9 7.6-4 11.5-1 3.8-1.3 7.7-2.3 11.5-.3 1.1 1.3 1.5 1.6.5 1.1-3.8 1.3-7.7 2.3-11.5 1.1-3.9 3-7.5 4-11.5.1-.4-.1-.9-.6-1h-.1c-.4-.1-.9.1-1 .6-.9 4-2.9 7.6-4 11.5-1 3.8-1.3 7.7-2.3 11.5-.1.4.2.9.6 1h.1c1 .2 1.4-1.4.4-1.7M111.6 178.3c1.1-3.8 1.4-7.7 2.3-11.5 1-4 3-7.6 4-11.5.3-1.1-1.4-1.5-1.6-.5-.9 4-2.9 7.6-4 11.5-1 3.8-1.2 7.7-2.3 11.5-.3 1.1 1.3 1.6 1.6.5M90.1 158c-2.8-2.1-5.4-4.2-8.7-5.5.2.3.4.7.6 1v-.1c-.3.2-.7.4-1 .6 3.1 1.2 5.7 3.4 8.3 5.4l-.3-1.2s0 .1-.1.1c-.6.9.8 1.7 1.5.9 0 0 0-.1.1-.1.3-.4 0-1-.4-1.1-2.7-2.2-5.4-4.3-8.7-5.6-.5-.2-.9.2-1 .6v.1c-.2.5.2.9.6 1 3.1 1.2 5.7 3.4 8.3 5.4.8.6 1.7-.9.8-1.5M81 154c3.1 1.2 5.7 3.4 8.3 5.4.9.7 1.7-.8.9-1.5-2.8-2.1-5.4-4.3-8.7-5.5-1.1-.4-1.6 1.2-.5 1.6M74.9 149.9c-1.8-1.8-3.6-3.5-5.2-5.4-.7-.8-1.7.2-1.3 1 .6 1.2 1.2 2.2 2.1 3.2v-1.2l-.1.1h1.2c-.9-1-1.4-2.2-2.1-3.3-.8-1.2-1.8-2.2-2.6-3.3-1.5-2.3-2.7-4.8-3.2-7.5-.2.3-.4.7-.6 1h.1c-.3-.2-.7-.4-1-.6.9 4.3 3.2 8 6.1 11.3.5.6 1.7 0 1.4-.8-.3-.8-.5-1.8-.9-2.5-.5-.7-1.4-1.3-2-2-1.2-1.5-1.8-3.2-1.6-5.1l-1.5.6c1.9 2.4 4.6 4 6.4 6.5 1.8 2.5 3.1 5.6 3.5 8.7.1 1.1 1.8 1.1 1.7 0-.4-3.2-1.6-6.4-3.4-9.1-1.9-2.9-4.9-4.6-7-7.3-.5-.6-1.4 0-1.5.6-.1 1.7.3 3.4 1.1 4.8.4.8 1 1.5 1.6 2.1 1 1.1 1.4 1.8 1.9 3.1.5-.3.9-.6 1.4-.8-2.7-3.1-4.8-6.5-5.6-10.5-.1-.5-.6-.7-1-.6h-.1c-.5.1-.7.6-.6 1 .6 2.8 1.8 5.5 3.4 7.9.8 1.1 1.7 2.1 2.5 3.3.9 1.2 1.4 2.6 2.5 3.8.3.3.9.3 1.2 0l.1-.1c.3-.3.3-.9 0-1.2-.8-.8-1.3-1.8-1.8-2.8-.4.3-.9.7-1.3 1 1.7 1.9 3.5 3.6 5.2 5.4.5.6 1.7-.6 1-1.3M68.3 145.4c1.7 1.9 3.5 3.7 5.2 5.4.7.7 1.5 0 1.4-.8-.5-3.2-1.7-6.3-3.6-8.9-1.8-2.6-4.5-4.3-6.6-6.7-.5-.6-1.4-.1-1.5.6-.1 3.3 1.6 5.8 4 7.9.6.6 1.6 0 1.4-.8-.2-.9-.3-1.7-.4-2.6-.2.3-.4.5-.6.8h.1c-.3-.2-.7-.4-1-.6.8 1.9 3.1 3.4 3.4 5.4.4-.3.8-.6 1.3-1-.9-.7-1.9-1.4-2.8-2.2-.6-.5-1.7 0-1.4.8.2.8.5 1.5.8 2.2.4 1 2.1.6 1.6-.5-.3-.7-.6-1.5-.8-2.2-.5.3-.9.6-1.4.8 1 .8 2.1 1.6 3.1 2.4.7.5 1.4-.3 1.3-1-.4-2.2-2.6-3.4-3.4-5.4-.2-.5-.5-.7-1-.6h-.1c-.4.1-.6.5-.6.8 0 1 .2 2 .4 3 .5-.3.9-.6 1.4-.8-2-1.8-3.5-3.9-3.5-6.7l-1.5.6c1.9 2.3 4.6 3.9 6.3 6.4 1.8 2.5 2.9 5.4 3.4 8.5.5-.3.9-.6 1.4-.8-1.8-1.8-3.6-3.5-5.2-5.4-.6-.7-1.8.5-1.1 1.4M67.4 143l3 2.4c.6.5 1.4-.3 1.3-1-.6-2-2.5-3.2-3.4-5.1-.4-.8-1.6-.4-1.6.4.1 1 .2 1.9.5 2.9.3 1.1 1.9.6 1.6-.5-.2-.8-.4-1.6-.4-2.4-.5.1-1.1.3-1.6.4.8 1.7 2.7 2.9 3.2 4.7.4-.3.8-.6 1.3-1l-2.7-2.1c-.8-.7-2 .5-1.2 1.3M62 133.9c1.5 7.1 6.7 12.1 11.6 17.1.7.7 1.5 0 1.4-.8-.4-3.2-1.7-6.2-3.4-8.8-1.8-2.8-4.7-4.5-6.8-7-.5-.6-1.4-.1-1.5.6-.2 4.9 3.6 8 7.2 10.6.6.5 1.4-.3 1.3-1-.6-2.1-2.6-3.3-3.4-5.3-.3-.8-1.7-.8-1.7.2.1 3.3 1.4 6.9 3.7 9.3.8.8 2-.4 1.2-1.2-2-2.1-3.1-5.3-3.2-8.1-.6.1-1.1.2-1.7.2.8 2 2.9 3.3 3.4 5.3.4-.3.8-.6 1.3-1-3.1-2.3-6.6-4.9-6.4-9.1l-1.5.6c2 2.4 4.7 4.1 6.6 6.7 1.7 2.5 2.9 5.4 3.3 8.4.5-.3.9-.6 1.4-.8-4.7-4.7-9.8-9.5-11.2-16.3-.2-1.2-1.9-.7-1.6.4M64.2 144c-1.5-1.3-1.5-3.9-1.5-5.7 0-1.9.2-3.9.7-5.7-.3.2-.7.4-1 .6h.1c-.2-.3-.4-.7-.6-1-.5 2.3-.8 4.6-.7 7 0 2 .2 4.7 1.9 6.1 0-.3-.1-.7-.1-1 0 0 0 .1-.1.1-.7.9.8 1.7 1.5.9 0 0 0-.1.1-.1.1-.6 0-1.1-.3-1.2-1.5-1.3-1.4-4-1.4-5.8 0-1.9.2-3.8.7-5.7.1-.4-.1-.9-.6-1h-.1c-.4-.1-.9.1-1 .6-.5 2.3-.8 4.7-.7 7 0 2.1.3 4.7 2 6.1.7.7 2-.5 1.1-1.2M61.8 132c-.6 2.3-.8 4.7-.7 7.1 0 2 .3 4.6 2 6 .8.7 2.1-.5 1.2-1.2-1.5-1.3-1.5-3.8-1.5-5.6 0-1.9.2-3.9.7-5.8.2-1.1-1.5-1.5-1.7-.5M60.7 87.7s0-.1 0 0c-.3.2-.6.5-.9.8 2.8-.3 4.9-2.1 7.5-2.6-.4-.3-.7-.5-1.1-.8v.1c.2-.3.4-.5.6-.8-2.5.4-4.5 2.3-7.1 2.5-1.1.1-1.1 1.8 0 1.7 2.8-.3 4.9-2.1 7.6-2.6.3-.1.7-.5.6-.8v-.1c-.1-.6-.5-.9-1.1-.8-2.5.4-4.5 2.3-7.1 2.5-.4 0-.9.4-.9.9v.1c.3 1 2 1 1.9-.1M59.9 88.5c2.8-.3 4.9-2.1 7.6-2.6 1.1-.2.6-1.8-.5-1.6-2.5.4-4.5 2.3-7.1 2.5-1.1.1-1.1 1.8 0 1.7"/><path class="st22" d="M99.9 182.3c-5.2 0-9.9-1.1-9.9-1.1h-.1l9.3-20.5 11.8 18.9c-2.5 1.8-6.3 2.7-11.1 2.7zM99.2 160.8L90 181.2s13.9 3.3 21-1.5l-11.8-18.9z"/><path class="st23" d="M99.2 160.8c6.6-.3 17.7-7.1 17.8-7.2l.1-.1-6 26.2-11.9-18.9zM117 153.6s-11.1 6.8-17.7 7.2l11.8 18.8 5.9-26z"/><path class="st24" d="M81.4 153.5l.1.1c.1.1 11.1 6.8 17.7 7.1h.1L90 181.3l-8.6-27.8zM81.5 153.6s11.1 6.8 17.7 7.2L90 181.2l-8.5-27.6z"/><path class="st25" d="M73.1 166.6l8.4-13.1 8.6 27.8zM73.2 166.6L90 181.2l-8.5-27.6z"/><path class="st26" d="M73.2 166.7c-1.5-.5-6.6-12.5-6.8-13l6.3-4.8 9 4.8-8.5 13zM66.4 153.6s5.4 12.5 6.8 13l8.3-13-8.9-4.8-6.2 4.8z"/><path class="st27" d="M62.1 144.6l1.1-11.8 9.4 16.1-6.3 4.8zM63.2 132.9l9.4 16-6.2 4.7-4.3-9.1z"/><path class="st28" d="M62.1 144.5s-.7-3-1.4-6.4c-.9-4.5-1.2-7.3-1-8.6v-.1l3.6 3.4-1.2 11.7zm-2.3-14.8c-.4 2.7 1.9 12.7 2.3 14.5l1.1-11.3-3.4-3.2zM59.7 129.6l3.5 3.3-1.1 11.6s-2.9-12-2.4-14.9"/><path class="st29" d="M63.1 132.9l7-2.3 2.5 18.3h-.1zM70.1 130.6l-6.9 2.3 9.4 16z"/><path class="st30" d="M59.7 129.6l1.3-9.2 9.2 10.3-7 2.3zM61.1 120.5l-1.4 9.1 3.5 3.3 6.9-2.3z"/><path class="st31" d="M91.6 158.8c-2.2-.8-10.1-5.1-10.1-5.1l-9-4.8 8.2-3.6 11.1 13.6-.2-.1zM80.7 145.3l-8.1 3.6 8.9 4.8s7.9 4.3 10.1 5.1l-10.9-13.5z"/><path class="st32" d="M71.4 140.6l9.4 4.7-8.3 3.6zM71.5 140.7l9.2 4.6-8.1 3.6z"/><path class="st33" d="M71.4 140.7l14-7.9-4.7 12.6zM85.3 132.9l-4.6 12.4-9.2-4.6z"/><path class="st34" d="M85.2 132.9l9.1-4.5 1.1 5.7-12.4 4.7zM94.3 128.4l-9 4.5-2.2 5.8 12.2-4.6z"/><path class="st35" d="M94.2 128.4l2.7-.5 2.7 2.7-.3 2.4-4 1.1zM99.6 130.6l-2.7-2.7-2.6.5 1 5.7 3.9-1.2z"/><path class="st36" d="M103.9 136.5c-.6 0-3.2-3.2-3.4-3.5v-2.4l3.5-2.2 5.1 3.4-2.3 4.7h-2.9zM103.9 128.4l-3.4 2.2v2.3s2.8 3.5 3.4 3.5h2.7l2.3-4.6-5-3.4z"/><path class="st37" d="M116.9 153.6l9 7.9c-.5.7-12.3 16.9-14.8 18.2h-.1l5.9-26.1zM125.8 161.5s-12.3 16.8-14.8 18.1l6-26 8.8 7.9z"/><path class="st38" d="M116.9 153.6l7.5-9.4 10.5.5v.1c-.4.7-8.7 16.2-9 16.7l-9-7.9zM134.8 144.8s-8.7 16.2-9 16.7l-8.9-7.8 7.5-9.3 10.4.4z"/><path class="st39" d="M134.9 144.8l-10.5-.5v-.1l9-20.2c1.8.8 2.6 4.5 2.3 11.1-.1 4.9-.8 9.6-.8 9.7zm-10.4-.5l10.3.5c.1-.5.8-4.9.9-9.6.3-6.4-.5-10.1-2.2-10.9l-9 20zM133.5 124.2l-9 20.1 10.4.5c-.1 0 2.9-18.8-1.4-20.6"/><path class="st40" d="M116.9 149.5l4-8.2 3.6 3-7.6 9.5zM117 153.6v-4.1l3.9-8.1 3.5 2.9z"/><path class="st41" d="M80.6 145.3l2.5-6.6 4.1-1.6-6.5 8.2zM87.1 137.2l-6.4 8.1 2.4-6.6z"/><path class="st20" d="M100.1 141.8c-4.1 0-9-1-13-4.5l-.1-.1h.2c.2 0 15.5 2.1 25.4 1.9v.1s-3.9 1.7-8.9 2.4c-1.2.1-2.4.2-3.6.2m-12.9-4.5c5.2 4.5 11.7 4.7 16.3 4.2 4.3-.5 7.7-1.9 8.6-2.3h-1.2c-9.2 0-22.1-1.7-23.7-1.9M112.4 139.1s-15.2 7-25.4-1.9c.1 0 15.5 2.1 25.4 1.9"/><path class="st8" d="M101.9 141.7h.1c.1 0 6.2-.7 10.4-2.6.2 0 2.3.2 4.6 10.4v4.3l-15.1-12.1zM117 153.6l-15-11.9s6.1-.7 10.4-2.6c0 0 2.2 0 4.5 10.3v4.2z"/><path class="st9" d="M99.2 160.8l2.8-19.2.1.1 15 12h-.1c-.1.1-11.9 6.9-17.8 7.1zm2.9-19l-2.8 18.9c5.7-.3 16.7-6.6 17.6-7.1l-14.8-11.8zM99.2 160.8l2.8-19.1 14.9 11.9c.1 0-11.7 6.9-17.7 7.2"/><path class="st42" d="M92.3 147.5l6.3-3.2 3 .4-.7 4.8zM98.6 144.3l-6.2 3.2 8.5 2 .7-4.7z"/><path class="st43" d="M80.6 145.3l6.5-8.2 4.6 21.7h-.1zM87.1 137.2l4.5 21.6-10.9-13.5z"/><path class="st44" d="M98.5 144.3l3.6-2.7-.5 3.2zM98.6 144.3l3.4-2.6-.4 3.1z"/><path class="st45" d="M87 137.2c.1 0 4.3 4.5 13.8 4.5h1.5l-3.5 2.7-6.3 3.2-5.5-10.4zM92.4 147.5l-5.3-10.3s4.5 4.9 15 4.5l-3.4 2.6-6.3 3.2z"/><path class="st46" d="M99 160.9c-1.9 0-7.1-2-7.4-2L87 137.2h.1l5.3 10.3 6.8 13.3h-.1c.1.1 0 .1-.1.1m-7.3-2.2c.4.1 5.5 2 7.3 2h.2l-6.8-13.2-5.2-10 4.5 21.2zM99.2 160.8l-6.8-13.3-5.3-10.3 4.6 21.6c-.1 0 5.9 2.2 7.5 2"/><path class="st47" d="M92.3 147.4l8.7 2-1.7 11.6zM100.9 149.5l-1.7 11.3-6.8-13.3z"/><path class="st48" d="M103.9 136.5c-.1 0-5.8-1.9-14.2-.2v-.1l5.6-2.1 3.9-1.1.3-2.2-2.7-2.7.9-1.1s3.1 1.4 5.7.2l.5 1.4-3.4 2.2v2.3c.2.1 2.6 3 3.4 3.4zm-7.3-1c3.6 0 6.1.6 7 .8-1-.8-3-3.2-3.1-3.3v-2.3l3.4-2.2-.4-1.2c-2.5 1.1-5.4-.1-5.7-.2l-.8 1 2.7 2.7-.3 2.3-3.9 1.1-5.1 2c2.2-.6 4.3-.7 6.2-.7M89.7 136.2l5.6-2.1 3.9-1.1.3-2.3-2.7-2.7.8-1s3 1.4 5.8.2l.5 1.3-3.4 2.2v2.3s2.6 3.2 3.4 3.5c0-.1-5.7-1.9-14.2-.3"/><path class="st49" d="M61 120.5l3.1-13.6 12.4 30.9h-.1zM64.1 107l-3 13.5 15.4 17.3z"/><path class="st50" d="M70 130.5l6.6 7.4-5.2 2.9zM70.1 130.6l1.4 10.1 5-2.8z"/><path class="st51" d="M70.4 122.6h20.1l-14 15.3zM90.4 122.7l-13.9 15.2-6.1-15.2z"/><path class="st52" d="M70.3 122.7l8.1-9.6 12.1 9.6zM78.4 113.1l-8 9.6h20z"/><path class="st53" d="M78.3 113.1l17.1-2.6-5 12.2zM95.3 110.5l-4.9 12.2-12-9.6z"/><path class="st54" d="M64 107l9.2-4.6 5.2 10.7-8 9.7zM73.2 102.5l5.2 10.6-8 9.6-6.3-15.7z"/><path class="st12" d="M76.5 137.9l13.8-15.3 4 5.9h-.1c-4.7 2-17.5 9.3-17.7 9.4m13.9-15.2l-13.6 14.9c1.9-1.1 13-7.4 17.5-9.3l-3.9-5.6zM94.3 128.4l-3.9-5.8-13.9 15.2c0 .1 12.9-7.4 17.8-9.4"/><path class="st55" d="M95.3 110.5h.1v8.3l-5.1 4zM95.3 118.8l-4.9 3.9 4.9-12.2z"/><path class="st56" d="M64 107c.8-14.2 7.3-23.9 7.4-24l.1-.1 1.7 19.6L64 107zM71.5 83s-6.6 9.7-7.4 24l9.1-4.6L71.5 83z"/><path class="st57" d="M94.5 125.7c.1-.1 1-1.4 2-1.4h.1c.5 0 1 .4 1.4 1.2v.1l-3.5.1zm2-1.3c-.8 0-1.6.9-1.8 1.2l3.1-.1c-.4-.7-.8-1-1.3-1.1M97.9 125.5l-3.3.1c0 .1 1.9-2.7 3.3-.1"/><path class="st58" d="M104.2 126.4c.1-.1.6-1.4 1.4-1.5.4 0 .7.2 1.1.7v.1l-2.5.7zm1.5-1.4s-.1 0 0 0c-.7.1-1.1 1-1.3 1.3l2.2-.6c-.3-.5-.6-.7-.9-.7M106.6 125.7l-2.3.7c0-.1 1.1-2.7 2.3-.7"/><path class="st59" d="M94.6 125.7l-4.3-3.1 5-3.9 2.6 2.8-1.5 2.8c0 .1-1.1.3-1.8 1.4zm-4.1-3l4.1 2.9c.6-1 1.6-1.2 1.8-1.3l1.5-2.7-2.5-2.8-4.9 3.9zM94.6 125.7l-4.2-3 4.9-3.9 2.6 2.8-1.5 2.8s-1.1.2-1.8 1.3"/><path class="st60" d="M90.3 122.7l.1-.1 4.2 3 3.3-.1-.2 1.4-.8 1.1-2.6.5zM97.7 126.9l.2-1.4-3.3.2-4.2-3 3.9 5.7 2.6-.5z"/><path class="st61" d="M101.3 127.6c-1.8 0-3.6-.7-3.6-.7l.2-1.4 6.9-4 1.3 3.5-.1.1c-.1-.1-.2-.1-.3-.1-.6.1-1.2 1.4-1.2 1.4l-.9.8c-.8.3-1.6.4-2.3.4m-3.6-.8c.4.1 3.6 1.3 5.7.2l.8-.8c.1-.1.7-1.4 1.3-1.5h.3l-1.2-3.3-6.8 4-.1 1.4zM106 125l-1.2-3.5-6.9 4-.2 1.3s3.5 1.4 5.8.2l.9-.8c-.1.1.9-1.8 1.6-1.2"/><path class="st62" d="M95.2 118.8l4.4-2.8 5.2 5.6-6.9.1zM99.6 116l-4.3 2.8 2.6 2.8 6.8-.1z"/><path class="st63" d="M95.3 110.5h7.1l-2.8 5.6-4.3 2.8zM102.3 110.5l-2.7 5.5-4.3 2.8v-8.3z"/><path class="st64" d="M99.5 116l2.9-5.6 2.4 11.3zM104.7 121.5l-2.4-11-2.7 5.5z"/><path class="st65" d="M103.9 117.9l.8-9.1.1-.1 4.7 16.2-.1.1zM104.7 108.8l-.8 9.1 5.5 7.1z"/><path class="st66" d="M102.3 110.5l1.4-3.8 1.1 1.9-.8 9.3h-.1zM103.7 106.8l-1.4 3.7 1.6 7.4.8-9.3z"/><path class="st67" d="M120.9 141.4l-4-2.3.8-14.6 12.5 7.1-5.7 12.8zM117 139.1l.7-14.5 12.4 7-5.7 12.7-3.5-2.9z"/><path class="st68" d="M117.6 124.6l15-11.6.9 11.2-3.3 7.5zM132.5 113.1l-14.8 11.5 12.4 7 3.4-7.4z"/><path class="st69" d="M116.9 139.1c0-.1-3.2-5.5-8-7.3l-5-3.4-.5-1.4.9-.8 5.1-1.4 8.4-.4-.8 14.8-.1-.1zM109.4 125l8.3-.4-.8 14.6s-3.2-5.5-8-7.3l-5-3.4-.5-1.3.9-.8 5.1-1.4z"/><path class="st70" d="M109.4 125l-2.8-9.6 5.2-6.7c2.7 1.3 5.9.9 5.9.8l8.7 8.3-8.6 6.7-8.4.5zm-2.7-9.6l2.8 9.5 8.3-.4 8.6-6.6-8.6-8.2c-.3 0-3.3.4-5.9-.8l-5.2 6.5zM111.8 108.8l-5.2 6.6 2.8 9.6 8.3-.4 8.6-6.7-8.6-8.3s-3.1.5-5.9-.8"/><path class="st71" d="M117.6 109.6h.1s4.2-.1 6.7-1.2l7.6-4 .6 8.7-6.2 4.8-8.8-8.3zM131.9 104.5l.6 8.6-6.2 4.8-8.6-8.3s4.2-.1 6.7-1.2l7.5-3.9z"/><path class="st72" d="M104.7 108.6l-1.1-1.9 8.3 2-5.3 6.8zM103.7 106.8l8.1 2-5.2 6.6-1.9-6.8z"/><path class="st73" d="M95.3 110.6l.9-12.5 7.6 8.7-1.4 3.8zM95.3 110.5l.9-12.3 7.5 8.6-1.4 3.7z"/><path class="st74" d="M96.2 98.2l3-4.2 9 4.2-4.5 8.7zM108.1 98.2l-4.4 8.6-7.5-8.6 3-4.1z"/><path class="st75" d="M103.6 106.8l4.5-3.1.2 4.3zM108.3 107.9l-.2-4.1-4.4 3z"/><path class="st76" d="M103.7 106.8l4.4-8.7 3.1 2.3-3.1 3.4-4.4 3zM111.2 100.5l-3.1 3.3-4.4 3 4.4-8.6z"/><path class="st77" d="M108.2 107.9v-.5c2.3-2.2 4.7-3.3 7.3-3.3 3.8 0 6.5 2.6 6.6 2.6l-.9.5c-1.7-1.4-3.5-2.1-5.3-2.1-3.8 0-6.8 2.9-6.8 2.9l-.9-.1zM109 108.1s6.1-6 12.3-.9l.8-.4s-6.5-6.4-13.8.7v.4l.7.2z"/><path class="st78" d="M117.9 109.7c1.1-.7 3.2-2 3.3-2.4l.9-.4 2.9 1.4h-.1c-.1 0-1.5 1-7 1.4m3.4-2.4c-.2.5-2.5 1.9-3.2 2.3 2.8-.2 4.4-.5 5.4-.8.8-.2 1.2-.4 1.3-.5l-2.7-1.4-.8.4zM117.9 109.6s3.1-1.8 3.4-2.4l.8-.4 2.8 1.4s-1.4 1.1-7 1.4"/><path class="st79" d="M116.4 109.7c-1.2 0-2.9-.2-4.6-.9l-2.9-.7 1-.8s5 1.7 8 1.7c.5 0 .9 0 1.2-.1v.1l-1.2.7h-1.5"/><path class="st79" d="M109 108.1l.9-.7s6.6 2.2 9.2 1.5l-1.2.7s-3.1.5-6.1-.8l-2.8-.7z"/><path class="st80" d="M114 108.5c-.1 0-3.4-.7-4.2-1.1h-.1.1c.1-.1 1.9-1.5 3.1-1.7.2.7.6 2.6 1.1 2.8zm-4-1.2c.7.4 3 .9 3.8 1-.5-.5-.8-2.3-.8-2.7-1.1.3-2.7 1.5-3 1.7M113 105.7s.3 2.7 1.1 2.8c0 0-3.4-.7-4.2-1.1 0-.1 1.9-1.6 3.1-1.7"/><path class="st81" d="M118.1 109c-.7 0-1.4-.1-1.5-.1v-.1c1.9-.6 1.8-3.3 1.8-3.3v-.1h.1s3 1.4 2.9 1.7c-.1.3-2 1.6-2.1 1.7-.3.2-.7.2-1.2.2m-1.3-.1c.7 0 2 .1 2.3-.1.4-.3 2-1.4 2.1-1.6 0-.2-2.3-1.4-2.7-1.6 0 .2 0 .8-.2 1.4-.3.9-.8 1.6-1.5 1.9M118.4 105.6s.2 2.7-1.8 3.3c0 0 2.2.2 2.5 0 .3-.2 2-1.4 2.1-1.6.1-.3-2.6-1.7-2.8-1.7"/><path class="st82" d="M116.6 109c-.2 0-2.4-.4-2.7-.5-.4-.1-.9-2.5-.9-2.8 3.1-1 5.4-.1 5.5-.1.1 1.5-.5 2.4-1 2.8-.4.4-.8.6-.9.6m-3.6-3.3c.2 1 .6 2.6.9 2.7.4.1 2.6.5 2.7.5.1 0 .5-.2.9-.6.4-.5.9-1.3.9-2.7-.8-.3-3-.7-5.4.1M113 105.7s.5 2.6.9 2.7c.4.1 2.6.5 2.7.5.1 0 1.9-.8 1.8-3.3 0 0-2.3-1-5.4.1"/><path class="st83" d="M108.1 98.2l6 1.6v.1l-3 .6zM114 99.8l-2.8.7-3.1-2.3z"/><path class="st84" d="M108.1 98.2v-.1l7.7-1.4-1.7 3.2zM115.7 96.8l-1.7 3-5.9-1.6z"/><path class="st85" d="M115.7 96.7l5.6 2.6v.1s-1.4-.1-2.9-.1c-2.1 0-3.6.2-4.2.6l-.2.1 1.7-3.3zM121.2 99.3s-5.5-.5-7.2.5l1.7-3.1 5.5 2.6z"/><path class="st86" d="M121.2 99.4l-5.7-2.6h.2c.3-.1 8.2-1.5 8.8 0l-3.3 2.6zm-5.3-2.6l5.4 2.5 3.2-2.5c-.3-.6-1.9-.7-4.5-.5-1.9.1-3.6.4-4.1.5M124.4 96.8l-3.2 2.5-5.5-2.5s8.1-1.5 8.7 0"/><path class="st87" d="M84.9 108.1c-1.4-1.3-1-3.7-1-3.8h1.8l1.2 1.2-2 2.6zM84 104.4s-.5 2.4.9 3.7l2-2.6-1.2-1.2-1.7.1z"/><path class="st88" d="M121.1 99.4l3.3-2.7 3.4 3.2zM127.7 99.8l-6.5-.5 3.2-2.5z"/><path class="st89" d="M122 106.8l5.7-7 4.3 4.7-7.1 3.8zM131.9 104.5l-4.2-4.7-5.6 7 2.8 1.4z"/><path class="st90" d="M122.1 106.9c-2-1.6-3.9-2.3-5-2.5-1.3-.3-2.1-.1-2.1-.1l-.9-4.4c1-.9 7-.5 7.2-.5l6.5.5-.1.1-5.6 6.9zm-6.6-2.8c.4 0 .9 0 1.5.2 1.2.2 3 .9 5 2.5l5.5-6.8-6.4-.5c-.1 0-6.1-.4-7.1.5l.9 4.3c.2-.2.4-.2.6-.2M114 99.8l.9 4.3s3.2-.5 7.1 2.6l5.6-7-6.4-.5c0 .1-6.1-.3-7.2.6"/><path class="st91" d="M108 103.7l3.1-3.3 3-.6.9 4.4h-.1c-3.7.2-6.6 3.2-6.6 3.3l-.1.1-.2-3.9zM111.2 100.5l-3.1 3.3.2 3.7s2.9-3.1 6.7-3.3l-.9-4.3-2.9.6z"/><path class="st92" d="M127.6 99.9l-3.2-3.1 6.8-6.7.8 14.5zM131.1 90.2l-6.7 6.6 3.3 3 4.2 4.7z"/><path class="st4" d="M124.4 96.8c-.3-.6-1.3-.7-2.1-.7h-.9l-1.9-17.8 4.7-2.9c.1.1 1.8 2.5 1.9 3.8.1 1.3 3.1 4.9 4.3 6.2 1 1.1.9 4.6.9 4.7l-6.9 6.7zM119.5 78.4l1.9 17.7s2.6-.3 3.1.7l6.7-6.6s.1-3.6-.9-4.7-4.2-4.9-4.3-6.2c-.1-1.3-1.9-3.7-1.9-3.7l-4.6 2.8z"/><path class="st93" d="M108 98.3l1.3-18.6h.1c.1 0 5.7 2.5 10-1.2l.1-.1v.1l1.9 17.7h-.1s-4 .1-13.3 2.1zm1.5-18.5l-1.3 18.4c8.6-1.8 12.7-2 13.2-2.1l-1.9-17.5c-4.2 3.4-9.4 1.4-10 1.2M108.1 98.2l1.3-18.5s5.7 2.6 10-1.2l1.9 17.7c.1-.1-3.9 0-13.2 2"/><path class="st3" d="M99.2 94.1l10.3-14.6-1.4 18.8zM99.2 94.1l10.2-14.4-1.3 18.5z"/><path class="st94" d="M96.2 98.3L95.9 71l.1.1c2.6 2.8 6.5 6.5 10.2 7.9 2.2.9 3.2.6 3.2.6h.1L96.2 98.3zm-.2-27l.3 26.7 13-18.3c-.3.1-1.4.1-3.2-.6-3.6-1.4-7.5-5-10.1-7.8M95.9 71.2l.3 27 13.2-18.5s-4.2 1.3-13.5-8.5"/><path class="st95" d="M96.3 98.3c-.1 0-2.4-.9-5.2-1.6-2.6-.7-6.3-1.5-8.9-1.2h-.1v-.1L96 71l.3 27.3zm-13-3c2.5 0 5.5.7 7.8 1.3 2.6.7 4.7 1.4 5.1 1.6l-.3-26.8-13.7 24c.4-.1.7-.1 1.1-.1M82.1 95.4l13.8-24.2.3 27s-9.1-3.4-14.1-2.8"/><path class="st96" d="M71.4 83.1c1.9 1.1 4 1.7 6.2 1.7 2.1 0 3.5-.5 3.5-.5h.1l.9 11.3-10.7-12.5zM81.2 84.3s-5.1 1.8-9.8-1.2l10.7 12.3-.9-11.1z"/><path class="st97" d="M81.2 84.3c2.7-1.5 0-12.4-.1-12.5h.1l8.5 10.4L82 95.6l-.8-11.3zM81.2 71.7s2.8 11 .1 12.5l.9 11.1L89.8 82l-8.6-10.3z"/><path class="st98" d="M72.8 99.9l.1-.1c1.2-1.2 4.9-3.3 5-3.4l2 2.3h-.1c-.8 0-6.8 1.1-6.9 1.1l-.1.1zm5.1-3.4c-.4.2-3.6 2.1-4.8 3.2.9-.2 5.6-1 6.6-1.1l-1.8-2.1zM72.9 99.8s6.1-1.1 6.9-1.1l-1.9-2.2s-3.8 2.1-5 3.3"/><path class="st99" d="M79.6 98.8l4.6-3.5 2.9 3-.1.1c-.5-.2-4.9.2-7.3.4h-.1zm4.6-3.4L80 98.6c1-.1 5.9-.6 7-.4l-2.8-2.8zM87.1 98.3l-2.9-3-4.4 3.4s6.7-.7 7.3-.4"/><path class="st100" d="M87.1 98.4l-3-3.1h.1c.2 0 5.6.7 6.2 1.1h.1l-3.4 2zm-2.7-3l2.7 2.8 3.2-1.8c-.8-.3-5.1-.9-5.9-1M90.4 96.4l-3.3 1.9-2.9-3c0 .1 5.6.7 6.2 1.1"/><path class="st101" d="M93.9 99.9c-.2-.1-4-1.5-6.8-1.5h-.2l3.5-2c.6.2 5.7 1.6 5.9 1.8-.7.6-2.1 1.7-2.4 1.7m-6.6-1.6c2.7.1 6.4 1.4 6.6 1.5.1.1 1.2-.8 2.2-1.6-.4-.2-3.6-1.1-5.8-1.7l-3 1.8zM96.2 98.2s-2.1 1.8-2.3 1.6c-.2-.2-4-1.5-6.8-1.5l3.3-1.9s5.6 1.6 5.8 1.8"/><path class="st102" d="M73.1 102.5l-.2-2.7c.5-.2 6.6-1.1 6.9-1.1 0 0 2 5 2.2 5.7v.1l-8.9-2zM82 104.4c-.2-.7-2.2-5.6-2.2-5.6s-6.3.9-6.9 1.1l.2 2.6 8.9 1.9z"/><path class="st103" d="M73.1 102.4l9 1.9-6.5 3.2zM75.6 107.5l6.4-3.1-8.8-1.9z"/><path class="st77" d="M78.9 106.5c-.4 0-.6-.1-.6-.1h-.4v-.1l4.7-2.6c1.1-.4 2.2-.6 3.2-.6 3.7 0 5.9 2.7 5.9 2.7l-.4.6c-2-1.3-3.9-2-5.8-2-2.5 0-4.3 1.1-5.2 1.7-.3.2-.5.3-.6.3-.4 0-.6.1-.8.1"/><path class="st77" d="M78.4 106.3s.4.2 1.2 0c.8-.2 5.2-4.4 11.8 0l.3-.5s-3.3-4.2-9-2.1l-4.7 2.6h.4z"/><path class="st104" d="M84.7 108.1h-.9c-3.5-.1-4.3-1.7-4.3-1.7l1.6-.9c1.1 2.5 3.7 2.5 3.8 2.5v.1h-.2m-5.1-1.7c.2.2 1.2 1.5 4.2 1.6-.9-.3-2.1-.9-2.8-2.4l-1.4.8zM84.9 108.1c-.5 0-.6-.1-1-.1-3.4-.1-4.3-1.6-4.3-1.6l1.5-.8c1.1 2.4 3.8 2.5 3.8 2.5"/><path class="st105" d="M75.6 107.5l2.4-1.2h.4c.1.1.3.1.5.1.3 0 .7-.1.7-.1l4.3 6-5.6.9-2.7-5.7zM83.8 112.3l-4.3-5.9s-.7.2-1.2 0h-.4l-2.3 1.1 2.7 5.6 5.5-.8z"/><path class="st106" d="M83.8 112.2l7-5.2.5-.7.3-.5 2.9 1.9-2.8 3.4-7.9 1.2zM91.3 106.3l-.5.8-7 5.2 7.9-1.2 2.7-3.4-2.7-1.9z"/><path class="st107" d="M94.4 107.6l1.3-1.7-.3 4.7-3.9.5zM95.6 106.1l-1.2 1.6-2.7 3.4 3.6-.6z"/><path class="st53" d="M91.6 105.9s-4.5-4.3-9.7-1.7l-2.1-5.5h.1c.1 0 7.1-.9 9.3-.2l2.4 7.4zm-6.2-2.7c3.1 0 5.5 1.9 6.1 2.4L89 98.5c-2.2-.6-8.5.1-9.2.2l2 5.3c1.4-.5 2.5-.8 3.6-.8M89.1 98.5l2.5 7.3s-4.4-4.4-9.8-1.7l-2.1-5.4c.1 0 7.1-.9 9.4-.2"/><path class="st108" d="M91.6 105.9L89 98.5h.1c1.3.1 4.5 1.3 4.7 1.3.2 0 1.5-1 2.3-1.6l.1-.1-.6 8-1.2 1.7-2.8-1.9zM96.2 98.2s-2.1 1.8-2.3 1.6c-.2-.1-3.4-1.2-4.7-1.3l2.5 7.3 2.8 1.8 1.2-1.6.5-7.8z"/><path class="st109" d="M85.1 108.1H85s-2.9-.1-3.9-2.6c0 0 1.6-.9 2.9-1h.1v.1c-.1-.1-.5 2.2 1 3.5zm-4-2.6c.9 2.1 3.1 2.4 3.7 2.5-1.2-1.2-.9-3.1-.9-3.5-1.2.2-2.5.9-2.8 1M84 104.5s-.4 2.3 1 3.6c0 0-2.8-.1-3.9-2.6 0 0 1.5-.9 2.9-1"/><path class="st110" d="M87.6 108.1v-.1c.8-.3 1.5-2.9 1.5-2.9v-.1h.1c.6.3 2.1 1.2 2.2 1.2l-.5.8-3.3 1.1m1.6-2.9c-.1.3-.6 2.1-1.2 2.7l2.8-.9.5-.7c-.3-.1-1.5-.9-2.1-1.1M89.1 105.1s-.7 2.8-1.6 3l3.2-1 .5-.7c.1-.1-1.4-1-2.1-1.3"/><path class="st5" d="M62.9 112.3c0-.1-1.4-10.4-1.8-11.8 0 0-1.4-2.7-3.1-3.1l-1.5-8.2L71.7 83l-.1.1c-.1.1-7.1 11.9-7.4 24l-1.3 5.2zM62.9 112.3s-1.4-10.4-1.8-11.8c0 0-1.4-2.8-3.1-3.1l-1.5-8.1 15-6.2s-7.2 11.8-7.4 24l-1.2 5.2z"/><path class="st111" d="M56.4 89.2c-1.7-4.9-1.6-8.9-1.3-11.4.4-2.7 1.3-4.2 1.3-4.3L71.6 83l-15.2 6.2zM56.5 73.6s-3.4 6.1 0 15.6l15-6.2-15-9.4z"/><path class="st112" d="M130.2 85.5c-2.8-2.8-4.3-6.2-4.3-6.2-.7-2.8-1.8-3.7-1.9-3.7l.1-.1 14.4 6.7h-.1l-8.2 3.3zm-5.9-9.8c.4.4 1.1 1.4 1.7 3.6 0 0 1.6 3.4 4.3 6.1l8-3.2-14-6.5zM130.2 85.5l8.1-3.2-14.3-6.7s1.1.9 1.9 3.7c0 0 1.6 3.4 4.3 6.2"/><path class="st113" d="M131.9 104.6v-.1c0-.1-.6-8.7-.7-14.3-.1-2.4-.5-4.2-1-4.6l-.1-.1h.1l8.2-3.3v.1c0 .1-.5 8.1-1.7 11.9-.5 2.3-1.3 6.8-.8 7.4v.1h-.1s-2.6 1.1-3.9 2.9zm-1.6-19.1c.4.5.9 2.2.9 4.7.1 5.2.7 13.1.7 14.2 1.2-1.7 3.4-2.7 3.8-2.9-.5-.9.8-7.1.8-7.4 1.2-3.6 1.6-11 1.7-11.8l-7.9 3.2zM135.8 101.5s-2.6 1.1-3.9 3c0 0-.6-8.7-.7-14.3-.1-2.6-.6-4.3-1-4.7l8.1-3.2s-.5 8.1-1.7 11.9c.1-.1-1.4 6.6-.8 7.3"/><path class="st114" d="M81.1 71.7c3-2.2 5.8-3.4 8.5-3.4 4.1 0 6.3 2.7 6.4 2.8l-6.3 11-8.6-10.4zM95.9 71.2s-5.2-6.6-14.8.6l8.5 10.4 6.3-11z"/><path class="st115" d="M108.9 79.8c-3.1 0-7.4-2.9-13-8.6-2.2-2.2-4.6-2.6-4.6-2.6h-.1l14.3-19.5 4 30.7h-.6"/><path class="st115" d="M105.5 49.2L91.3 68.6s2.4.4 4.6 2.6c2.2 2.2 9 9 13.5 8.5l-3.9-30.5z"/><path class="st116" d="M56.4 73.6c.3-5.2 9-13.9 9-13.9l7.7 9.3-16.7 4.6zM65.5 59.7s-8.7 8.7-9 13.9l16.7-4.7-7.7-9.2z"/><path class="st117" d="M56.4 73.6l16.9-4.8-9.1 9.7zM64.2 78.4l9-9.5-16.7 4.7z"/><path class="st118" d="M73.2 69l-7.7-9.3s2.3-2.6 5.1-4.8c3.7-3 6.3-3.9 7.9-2.8L73.2 69zm-7.6-9.3l7.6 9.1 5.2-16.7c-3.6-2.3-12.3 7-12.8 7.6M78.4 52.1l-5.2 16.8-7.7-9.2s9.2-10.1 12.9-7.6"/><path class="st119" d="M77.7 84.8c-2.4 0-4.5-.6-6.3-1.7L64 78.5l9.1-9.6 8.1 15.5h-.1c.1-.1-1.3.4-3.4.4"/><path class="st119" d="M64.2 78.4l9-9.5 8.1 15.3S76 85.8 71.5 83l-7.3-4.6z"/><path class="st120" d="M81.2 84.3l-8.1-15.5 8.1 2.8c1.9 8.6 1.2 11.4.5 12.2-.2.5-.4.5-.5.5zM73.3 69l8 15.2c.1 0 .2-.1.4-.4.6-.8 1.3-3.5-.6-12.1L73.3 69zM81.2 71.7l-8-2.8 8.1 15.3c-.1.1 2.6-.2-.1-12.5"/><path class="st121" d="M73.1 69l2.9-9.3 6.5-1.9-1.3 14zM82.4 57.9l-1.2 13.8-8-2.8 2.8-9.2z"/><path class="st122" d="M81.1 71.8l1.2-14.1 9.1 10.9h-.1c-4.4-1.1-10 3.1-10.2 3.2zM82.4 58l-1.2 13.6c.7-.5 5.9-4.1 9.9-3.1L82.4 58zM91.3 68.6l-8.9-10.7-1.2 13.8s5.7-4.3 10.1-3.1"/><path class="st19" d="M91.3 68.7v-.1l-.5-21.2c7.3-2.6 14.6 1.7 14.7 1.8L91.3 68.7zm-.4-21.2l.5 21 14-19.2c-.6-.5-7.6-4.3-14.5-1.8M90.8 47.4l.5 21.1 14.2-19.4c0 .1-7.3-4.3-14.7-1.7"/><path class="st123" d="M82.4 58L76 59.8l2.4-7.7h.1s.3.2 1.1.2c1.5 0 4.9-.6 11.3-4.8h.1l.5 21.4L82.4 58zM78.4 52.1s3.1 1.5 12.4-4.7l.5 21.1-8.9-10.7-6.4 1.9 2.4-7.6z"/><path class="st124" d="M105.4 49.2h.3c2.8 0 15.4 5.7 15.6 5.8h.1l-14.2 7.3-1.8-13.1zM121.2 54.9s-13.4-6.1-15.8-5.7l1.7 13 14.1-7.3z"/><path class="st125" d="M111.8 59.7l9.4-4.9c.6 0 6.7 5.2 7 5.4l.1.1-16.5-.6zM128.2 60.3s-6.6-5.6-7-5.4l-9.3 4.8 16.3.6z"/><path class="st126" d="M116.6 59.9v-.1l11.6.5 6.1 7.6v.1zM134.3 68l-6.1-7.7-11.6-.4z"/><path class="st127" d="M113.4 80.6c-2.3 0-4-.8-4-.9l-2.3-17.6 4.9-2.5 4.7.2 7.5 15.7-4.6 2.9c-1.9 1.5-4 2.2-6.2 2.2zM124.1 75.5l-7.4-15.7-4.6-.2-4.8 2.5 2.3 17.5s5 2.6 10-1.2l4.5-2.9z"/><path class="st128" d="M86.9 105.4l.9 2.7-1.5.1-1.6.1zM87.7 108.1l-.8-2.6-2.1 2.7 1.5-.1z"/><path class="st129" d="M124 75.6l-7.5-15.8 17.8 8.1c.1.1 4.7 7.7 4.1 14.3v.1L124 75.6zM134.3 68s4.7 7.6 4.1 14.3l-14.3-6.7-7.4-15.7 17.6 8.1z"/><path class="st130" d="M61.2 119.7s-3.1-4.7-2.2-8.6c.4-1.6 1.5-2.9 3.1-3.8h.1l.7 5-1.7 7.4zM61.3 119.7s-5.8-8.6.9-12.3l.7 5-1.6 7.3z"/><path class="st131" d="M59.5 129.7c-.7 0-2.3-.7-3.1-7.3 0-.1-1.3-7.2-1.5-7.7-.2-.5-1.6-5.4-1.7-5.6h.1l8 10.6-1.6 10h-.2"/><path class="st131" d="M59.7 129.6s-2.2.8-3.2-7.3c0 0-1.3-7.2-1.5-7.7-.2-.5-1.7-5.6-1.7-5.6l7.9 10.6-1.5 10z"/><path class="st132" d="M59.9 109.4l-6-8.5c.8-3 4-3.6 4.1-3.6 1.9.8 3.1 3.1 3.1 3.1l1.1 6.9h-.1c-.3.1-1.6 1.4-2.2 2.1zm-5.9-8.5l5.9 8.3c.3-.3 1.6-1.8 2.2-1.9l-1.1-6.8c-.1-.1-1.3-2.3-3.1-3.1-.2 0-3.2.7-3.9 3.5M58 97.3s-3.3.6-4 3.6l6 8.4s1.7-2 2.3-2l-1.1-6.9c-.1.1-1.3-2.2-3.2-3.1"/><path class="st133" d="M53.2 109l6.8.3-.1.1s-2.7 3.5 1.4 10.3l-.1.1-8-10.8zM53.3 109.1l6.6.3s-2.8 3.5 1.3 10.4l-7.9-10.7z"/><path class="st134" d="M53.3 109.1c-.8-2.9.6-8.1.6-8.2v-.1l6.1 8.6-6.7-.3zM53.9 100.9s-1.4 5.3-.6 8.1l6.6.3-6-8.4z"/><path class="st17" d="M131.9 104.5l1.6-1.7v21.4h-.1zM133.5 102.9v21.3l-1.6-19.7z"/><path class="st135" d="M133.5 124.2l-.1-21.3s1.6-1 2.4-1.4h.1v.1c0 .1.7 15.7-2.4 22.6m0-21.2v21c2.9-6.7 2.3-21.2 2.3-22.3-.8.3-2.1 1.1-2.3 1.3M135.8 101.5s.7 15.7-2.4 22.6v-21.2c.1 0 1.6-1 2.4-1.4"/><path class="st136" d="M71.4 82.9l10.8 12.5h-.1c-4.2.1-9.1 4.4-9.2 4.5l-.1.1-1.4-17.1zM71.5 83L73 99.8s4.9-4.4 9.2-4.5L71.5 83z"/><path class="st21" d="M117 139.2h-4.6s-2.6-2.3-5.8-2.7h-.1l2.4-4.7c.1 0 5.2 2 8.1 7.4zm-4.5-.1h4.4c-2.7-4.9-7.4-7-7.9-7.2l-2.2 4.5c3 .3 5.4 2.5 5.7 2.7M117 139.1h-4.5s-2.5-2.4-5.8-2.7l2.3-4.6c-.1 0 5.1 2 8 7.3"/><path class="st137" d="M79.8 98.8l-2-2.3h.1s2.9-1.6 6.4-1.1h.1l-4.6 3.4zM78 96.5l1.8 2.1 4.3-3.3c-3.1-.3-5.7 1-6.1 1.2M84.2 95.4l-4.4 3.4-1.9-2.2c0-.1 2.9-1.7 6.3-1.2"/><path class="st138" d="M70.3 122.7l8.1-9.6 12.1 9.6zM78.4 113.1l-8 9.6h20z"/><path class="st139" d="M79.5 106.4h.1c1.2 1.6 5.4 1.7 5.4 1.7.2.1.5.1.7.1 1.9 0 4.9-1.1 5-1.1v.1l-7 5.3-4.2-6.1zM90.8 107.1s-4.1 1.5-5.7 1c0 0-4.4-.1-5.5-1.7l4.3 5.9 6.9-5.2z"/><path class="st140" d="M115.7 106.3c-.2 0-.4 0-.6-.2-.2-.2-.2-.5-.2-.9h1.3s.2.6 0 .9c-.1.1-.1.2-.2.2h-.3"/><path class="st140" d="M116.2 105.2s.3.9-.2 1c0 0-1.1.3-1-1h1.2z"/><path class="st141" d="M112.6 139.2h-.2c-.1 0-14.7-1.6-25.4-1.9v-.1l2.6-1c.1 0 7.8-1.6 14.1.2h2.9s3.1.3 5.8 2.7l.2.1zm-25.3-2c10.1.3 23.4 1.7 25 1.9-2.7-2.3-5.6-2.6-5.6-2.6h-2.9c-6.2-1.8-13.9-.2-14-.2l-2.5.9zM87.1 137.2l2.6-1s7.7-1.6 14 .2h2.9s3.1.3 5.8 2.7c0 0-14.5-1.5-25.3-1.9"/><path class="st11" d="M111.9 139.2c-.9 0-3 0-6.1-.2-4-.2-10.4-.7-18.7-1.7v-.1c1 .1 24.2 1.3 25.4 1.9v.1h-.6m-23.4-1.9c13.1 1.6 21.5 1.7 23.5 1.7h.1c-2.7-.4-18.8-1.4-23.6-1.7M87.1 137.2s24.2 1.3 25.4 1.9c-.1 0-9.3.2-25.4-1.9"/><path class="st142" d="M106.6 125.7c-.1-.4-.7-.6-.7-.6l-1.2-3.5-.8-3.6h.1l5.5 7.1-2.9.6zM109.4 125l-5.5-7.1.8 3.6 1.2 3.5s.6.3.7.6l2.8-.6z"/><path class="st143" d="M97.8 125.6c-.5-1.1-1.4-1.1-1.4-1.1h-.1l1.5-2.8 7.1-.1-7.1 4zM104.7 121.5l-6.9.1-1.5 2.8s1 .1 1.5 1.2l6.9-4.1z"/><path class="st140" d="M114.7 105.1h1.6v1l-1.6.6zM116.2 105.2v.9l-1.5.5v-1.4z"/><path class="st144" d="M114.7 106.7v-.1l1.5-.6.3.5-.6.3zM116.4 106.4l-.5.3-1.2-.1 1.5-.5z"/><path class="st145" d="M116.2 106.1v-1h.5l-.3 1.5zM116.6 105.2l-.2 1.2-.2-.3v-.9z"/><path class="st146" d="M113.8 108.4l-.1-.1 1.4-1.6h-1.9v-.1h2.1zM113.2 106.7h2l-1.5 1.7"/><path class="st147" d="M86.8 105.4l.3-1 2.1.7c0 .1-.3 2.8-1.5 2.9l-.9-2.6zM89.1 105.1s-.2 2.8-1.5 2.8l-.8-2.6.3-.9 2 .7z"/><path class="st144" d="M86.6 106.2s-.7-.1-1-.7c-.2-.3-.2-.7 0-1.2l1.5.1.4.1s.2.6 0 1c-.1.4-.4.6-.9.7zM87.5 104.5s.5 1.3-.9 1.6c0 0-1.5-.3-.9-1.8l1.5.1.3.1z"/><path class="st140" d="M86.5 105.7s-.5-.1-.8-.5c-.1-.3-.1-.6 0-.9l1.5.1s.2.5 0 .9c-.2.2-.4.4-.7.4zM87.1 104.4s.4 1.1-.7 1.3c0 0-1.2-.2-.7-1.4l1.4.1z"/><path class="st148" d="M116.9 149.5c0-.1-2.1-9.9-4.5-10.3v-.1h4.5l4 2.3-4 8.2v-.1zM117 149.5s-2-10-4.5-10.3h4.5l3.9 2.3-3.9 8z"/></g></svg>