<svg xmlns="http://www.w3.org/2000/svg" xmlns:xlink="http://www.w3.org/1999/xlink" width="192" height="234" viewBox="0 0 192 234"><style type="text/css">.st0{fill:#F2F2F2;} .st1{fill:#F69133;} .st2{clip-path:url(#SVGID_2_);} .st3{clip-path:url(#SVGID_4_);fill:#1A1919;} .st4{clip-path:url(#SVGID_4_);fill:#C9C9CA;} .st5{clip-path:url(#SVGID_4_);fill:#5C5C5C;} .st6{clip-path:url(#SVGID_4_);fill:#929191;} .st7{clip-path:url(#SVGID_4_);fill:#989897;} .st8{clip-path:url(#SVGID_4_);fill:#272626;} .st9{clip-path:url(#SVGID_4_);fill:#AFB0B0;} .st10{clip-path:url(#SVGID_4_);fill:#8C8C8C;} .st11{clip-path:url(#SVGID_4_);fill:#787878;} .st12{clip-path:url(#SVGID_4_);fill:#7E7E7E;} .st13{clip-path:url(#SVGID_4_);fill:#464646;} .st14{clip-path:url(#SVGID_4_);fill:#696A6A;} .st15{clip-path:url(#SVGID_4_);fill:#969595;} .st16{clip-path:url(#SVGID_4_);fill:#2F2F2F;} .st17{clip-path:url(#SVGID_4_);fill:#B4B4B5;} .st18{clip-path:url(#SVGID_4_);fill:#A4A5A4;} .st19{clip-path:url(#SVGID_2_);fill:#494849;} .st20{clip-path:url(#SVGID_2_);fill:#4D4D4D;} .st21{clip-path:url(#SVGID_6_);fill:#555554;} .st22{clip-path:url(#SVGID_6_);fill:#929191;} .st23{clip-path:url(#SVGID_6_);fill:#989897;} .st24{clip-path:url(#SVGID_6_);fill:#C3C3C3;} .st25{clip-path:url(#SVGID_6_);fill:#CDCDCE;} .st26{clip-path:url(#SVGID_6_);fill:#D7D7D7;} .st27{clip-path:url(#SVGID_6_);fill:#D5D6D5;} .st28{clip-path:url(#SVGID_6_);fill:#C2C2C2;} .st29{clip-path:url(#SVGID_6_);fill:#AEADAD;} .st30{clip-path:url(#SVGID_6_);fill:#8D8D8D;} .st31{clip-path:url(#SVGID_6_);fill:#858485;} .st32{clip-path:url(#SVGID_6_);fill:#8C8C8C;} .st33{clip-path:url(#SVGID_6_);fill:#B2B2B2;} .st34{clip-path:url(#SVGID_6_);fill:#202020;} .st35{clip-path:url(#SVGID_6_);fill:#272727;} .st36{clip-path:url(#SVGID_6_);fill:#464646;} .st37{clip-path:url(#SVGID_6_);fill:#696A6A;} .st38{clip-path:url(#SVGID_6_);fill:#B8B8B9;} .st39{clip-path:url(#SVGID_6_);fill:#2B2B2B;} .st40{clip-path:url(#SVGID_6_);fill:#272626;} .st41{clip-path:url(#SVGID_6_);fill:#636463;} .st42{clip-path:url(#SVGID_6_);fill:#A8A7A7;} .st43{clip-path:url(#SVGID_6_);fill:#808181;} .st44{clip-path:url(#SVGID_6_);fill:#A6A5A5;} .st45{clip-path:url(#SVGID_6_);fill:#B3B2B3;} .st46{clip-path:url(#SVGID_6_);fill:#A4A3A3;} .st47{clip-path:url(#SVGID_6_);fill:#959595;} .st48{clip-path:url(#SVGID_6_);fill:#AEAEAF;} .st49{clip-path:url(#SVGID_6_);fill:#ACACAC;} .st50{clip-path:url(#SVGID_6_);fill:#828282;} .st51{clip-path:url(#SVGID_6_);fill:#3A3A3A;} .st52{clip-path:url(#SVGID_6_);fill:#242424;} .st53{clip-path:url(#SVGID_6_);fill:#1A1A1A;} .st54{clip-path:url(#SVGID_6_);fill:#A8A8A8;} .st55{clip-path:url(#SVGID_6_);fill:#969595;} .st56{clip-path:url(#SVGID_6_);fill:#B1B1B1;} .st57{clip-path:url(#SVGID_6_);fill:#B4B4B5;} .st58{clip-path:url(#SVGID_6_);fill:#999999;} .st59{clip-path:url(#SVGID_6_);fill:#7C7D7D;} .st60{clip-path:url(#SVGID_6_);fill:#90908F;} .st61{clip-path:url(#SVGID_6_);fill:#252525;} .st62{clip-path:url(#SVGID_6_);fill:#868787;} .st63{clip-path:url(#SVGID_6_);fill:#BBBBBA;} .st64{clip-path:url(#SVGID_6_);fill:#B9B9BA;} .st65{clip-path:url(#SVGID_6_);fill:#C6C5C4;} .st66{clip-path:url(#SVGID_6_);fill:#8E8F8E;} .st67{clip-path:url(#SVGID_6_);fill:#C2C1C1;} .st68{clip-path:url(#SVGID_6_);fill:#B4B4B4;} .st69{clip-path:url(#SVGID_6_);fill:#B8B8B8;} .st70{clip-path:url(#SVGID_6_);fill:#BFBEBE;} .st71{clip-path:url(#SVGID_6_);fill:#AEAEAE;} .st72{clip-path:url(#SVGID_6_);fill:#2D2D2D;} .st73{clip-path:url(#SVGID_6_);fill:#616161;} .st74{clip-path:url(#SVGID_6_);fill:#2F2F2F;} .st75{clip-path:url(#SVGID_6_);fill:#D4D3D3;} .st76{clip-path:url(#SVGID_6_);fill:#A9A9A8;} .st77{clip-path:url(#SVGID_6_);fill:#AAAAAA;} .st78{clip-path:url(#SVGID_6_);fill:#888888;} .st79{clip-path:url(#SVGID_6_);fill:#747474;} .st80{clip-path:url(#SVGID_6_);fill:#3D3D3D;} .st81{clip-path:url(#SVGID_6_);fill:#686969;} .st82{clip-path:url(#SVGID_6_);fill:#787878;} .st83{clip-path:url(#SVGID_6_);fill:#6F6F6F;} .st84{clip-path:url(#SVGID_6_);fill:#797979;} .st85{clip-path:url(#SVGID_6_);fill:#6B6A6A;} .st86{clip-path:url(#SVGID_6_);fill:#A4A5A4;} .st87{clip-path:url(#SVGID_6_);fill:#B6B6B7;} .st88{clip-path:url(#SVGID_6_);fill:#575757;} .st89{clip-path:url(#SVGID_6_);fill:#6C6C6D;} .st90{clip-path:url(#SVGID_6_);fill:none;stroke:#000000;stroke-width:0.25;stroke-miterlimit:10;} .st91{clip-path:url(#SVGID_6_);fill:#767676;} .st92{clip-path:url(#SVGID_6_);fill:#AFB0B0;} .st93{clip-path:url(#SVGID_6_);fill:#9C9C9C;} .st94{clip-path:url(#SVGID_6_);fill:#ABABAB;} .st95{clip-path:url(#SVGID_6_);fill:#1C1C1C;} .st96{clip-path:url(#SVGID_6_);fill:#C0C0C0;} .st97{clip-path:url(#SVGID_6_);fill:#C9C9C8;} .st98{clip-path:url(#SVGID_6_);fill:#C7C7C7;} .st99{clip-path:url(#SVGID_6_);fill:#B5B5B6;} .st100{clip-path:url(#SVGID_6_);fill:#444545;} .st101{clip-path:url(#SVGID_6_);fill:#BFBDBD;} .st102{clip-path:url(#SVGID_6_);fill:#949494;} .st103{clip-path:url(#SVGID_6_);fill:#121212;} .st104{clip-path:url(#SVGID_6_);fill:#1D1D1D;} .st105{clip-path:url(#SVGID_6_);fill:#181818;} .st106{clip-path:url(#SVGID_6_);fill:#171717;} .st107{clip-path:url(#SVGID_6_);fill:#1A1919;} .st108{clip-path:url(#SVGID_6_);fill:#161616;} .st109{clip-path:url(#SVGID_6_);fill:#1E1E1E;} .st110{clip-path:url(#SVGID_6_);fill:#232323;} .st111{clip-path:url(#SVGID_6_);fill:#575858;} .st112{clip-path:url(#SVGID_6_);fill:#5C5C5C;} .st113{clip-path:url(#SVGID_6_);fill:#222222;} .st114{clip-path:url(#SVGID_6_);fill:#535353;} .st115{clip-path:url(#SVGID_6_);fill:#4E4E4E;} .st116{clip-path:url(#SVGID_6_);fill:#4E4E4F;} .st117{clip-path:url(#SVGID_6_);fill:#494849;} .st118{clip-path:url(#SVGID_6_);fill:#616262;} .st119{clip-path:url(#SVGID_6_);fill:#676767;} .st120{clip-path:url(#SVGID_6_);fill:#C9C9CA;} .st121{clip-path:url(#SVGID_6_);fill:#808080;} .st122{clip-path:url(#SVGID_6_);fill:#A1A1A0;} .st123{clip-path:url(#SVGID_6_);fill:#7E7E7E;}</style><path class="st0" d="M0 0h192v234H0z"/><path class="st1" d="M192 215.5L172.5 234H192z"/><defs><path id="SVGID_1_" d="M-66.8-91.7h325.7v421.5H-66.8z"/></defs><clipPath id="SVGID_2_"><use xlink:href="#SVGID_1_" overflow="visible"/></clipPath><g class="st2"><defs><path id="SVGID_3_" d="M-66.8-91.7h325.7v421.5H-66.8z"/></defs><clipPath id="SVGID_4_"><use xlink:href="#SVGID_3_" overflow="visible"/></clipPath><path class="st3" d="M69.4 70.8c-1 5.8-.4 11.8-2.7 17.3-.7 1.6 1.9 2.3 2.6.7 2.3-5.5 1.7-11.5 2.7-17.3.3-1.7-2.3-2.4-2.6-.7M60.9 76.2c.5 4.6 1.2 9 2.7 13.4.6 1.6 3.1.9 2.6-.7-1.4-4.1-2.1-8.3-2.6-12.7-.3-1.7-2.9-1.7-2.7 0M57.7 92.1c2.3.3 4.6.5 6.9.8 1.7.2 1.7-2.5 0-2.7-2.3-.3-4.6-.5-6.9-.8-1.7-.1-1.7 2.5 0 2.7M56.8 107.1c1-4.8.9-9.6.8-14.5 0-1.7-2.7-1.7-2.7 0 0 4.6.2 9.2-.8 13.7-.2 1.8 2.4 2.5 2.7.8M72.1 85.1c-.5 1.7-1.2 3.1-2.3 4.5-.9 1.2 1.2 2.8 2.1 1.6 2-2.6 5-4.7 6.3-7.8 1.6-4.1.2-8.5-.6-12.6-.2-1.2-1.9-1.2-2.4-.3-2.3 3.8-1.5 8.9-.9 13 .2 1.3 2.4 1.3 2.6 0 .4-3.1.5-6.2.3-9.2-.2-2.9-.5-6.3-2.5-8.6-.5-.6-1.4-.5-1.9 0-4.6 4.1-8.6 9.5-11 15.2-.7 1.6 1.9 2.3 2.6.7 2.2-5.3 6-10.2 10.3-14h-1.9c1.6 1.8 1.6 5.1 1.8 7.3.2 2.6.1 5.3-.2 7.9H77c-.5-3.4-1.2-7.9.7-10.9l-2.4-.3c.7 3.4 1.9 7.1.9 10.6-.8 2.8-4.1 5-5.8 7.3.7.5 1.4 1.1 2.1 1.6 1.2-1.6 1.9-3.3 2.5-5.1.2-1.8-2.4-2.5-2.9-.9M75.4 66.5c4.7 1.9 9.1 4.9 14.1 6 1.8.4 3.7.7 5.5 1.3 3.7 1.1.5 4.4-.4 6.4.8.3 1.6.7 2.4 1 .4-2.9-.7-7.5 3.3-7.9 2.9-.3 5.9.3 8.8.3v-2.7c-2.7.2-5.3.3-8 .5-1.7.2-1.7 2.8 0 2.7 7.3-.6 12.8 3.6 19.3 6.1.8.3 1.7-.5 1.7-1.3 0-.9-.1-1.6-.3-2.5-.4-1.7-3-1-2.6.7.2.6.3 1.2.2 1.8.6-.4 1.1-.9 1.7-1.3-6.8-2.6-12.4-6.7-20-6.2v2.7c2.7-.2 5.3-.3 8-.5 1.7-.1 1.7-2.6 0-2.7-3.6-.1-7.2-.9-10.7 0-4.3 1.1-3.4 6.3-3.9 9.5-.2 1.4 1.7 2.5 2.4 1 .9-1.9 3.1-4.2 2.6-6.5-.4-2.3-2.3-3.4-4.4-4.1-2.9-.9-5.9-1.2-8.8-2.4-3.4-1.5-6.7-3.3-10.2-4.7-1.6-.4-2.2 2.2-.7 2.8M112.5 71.1H111.7s-.4-.1-.1 0c-.7-.3-1.4-.2-1.8.5-.3.6-.2 1.5.5 1.8.7.3 1.5.4 2.3.4.7 0 1.3-.6 1.3-1.3-.1-.8-.7-1.4-1.4-1.4M105.8 61c.4 4.2 1.6 8.1 3 12.1.6 1.6 3.1.9 2.6-.7-1.3-3.7-2.5-7.4-2.9-11.4-.1-1.7-2.8-1.7-2.7 0M88.1 57.6c2.3 5.8 6.6 10.7 8.2 16.8.4 1.7 3 1 2.6-.7-1.6-6.1-5.9-11-8.2-16.8-.7-1.6-3.3-.9-2.6.7M98.7 78.5c-.2.9-.4 1.6-.9 2.3-.4.6-.1 1.5.5 1.8.6.4 1.4.1 1.8-.5.6-.9.9-1.9 1.2-3 .4-1.6-2.2-2.3-2.6-.6M99.6 82.9c4-2.7 7.4-6.2 10.9-9.5 1.3-1.2-.6-3-1.9-1.9-3.4 3.1-6.5 6.5-10.4 9.1-1.4.9 0 3.2 1.4 2.3M113.1 70.9c.2 1.6.2 3.3.8 4.8.4 1 1.4 1.3 2.2.6 1.4-1.2 2.3-2.6 3-4.3-.9-.1-1.7-.2-2.6-.4v1.9c0 1.3 1.9 1.9 2.5.7.6-1.2.9-2.5 1.2-3.8.3-1.7-2.2-2.4-2.6-.7-.2 1.1-.5 2.1-.9 3.1.8.2 1.7.4 2.5.7v-1.9c0-1.6-2.1-1.7-2.6-.4-.5 1.2-1.3 2.3-2.3 3.1.7.2 1.5.4 2.2.6-.6-1.5-.6-3.2-.8-4.8-.1-.7-1-1.1-1.6-.9-.9.3-1.1 1-1 1.7M121.7 78.5c1.6.3 3.1 0 4.5-.7.7-.3.8-1.2.5-1.8-.4-.7-1.2-.8-1.8-.5-.7.4-1.6.6-2.4.4-1.7-.3-2.5 2.2-.8 2.6M126.9 77.8c1.7 0 1.7-2.7 0-2.7-1.8 0-1.8 2.7 0 2.7M127.3 97.1c1.7.5 3.4 1 5 1.7 1.5.7 2.9-1.6 1.3-2.3-1.8-.9-3.7-1.4-5.6-2-1.6-.4-2.3 2.2-.7 2.6M133.5 112.4c1.1-3 1.6-6.2 1.6-9.4 0-1.7-2.6-1.7-2.7 0 0 3-.6 5.9-1.5 8.7-.6 1.7 2 2.3 2.6.7M134.3 110v-9.8c0-1.7-2.7-1.7-2.7 0v9.8c.1 1.7 2.7 1.7 2.7 0M134.3 116.4c.5-1.2.6-2.5.8-3.7.1-.7-.2-1.4-.9-1.6-.7-.2-1.5.2-1.6.9-.2 1.3-.3 2.5-.8 3.7-.3.7.3 1.5.9 1.6.7.3 1.3-.2 1.6-.9M72.9 67.3c1-.4 1.9-.9 2.7-1.7.5-.5.5-1.4 0-1.9s-1.4-.5-1.9 0c-.4.4-1 .8-1.5 1-.7.2-1.1.9-.9 1.6.2.8 1 1.3 1.6 1M86.8 81.7c6.8-2 12.4-8.8 16.2-14.4 1-1.4-1.3-2.8-2.3-1.3-3.4 5-8.5 11.5-14.6 13.2-1.7.4-1 3 .7 2.5M85.5 80.9c-2.1-1.2-5.2 3.2-6.7 4.3-1.4 1-.2 3.2 1.3 2.3 4.5-2.6 9-5 13.6-7.5 1.5-.8.2-3.1-1.3-2.3-4.6 2.4-9.1 4.8-13.6 7.5.4.8.9 1.5 1.3 2.3.8-.6 1.6-1.2 2.3-1.9.5-.4.9-.8 1.3-1.2.3-.2.5-.5.8-.7.6-.3.5-.5-.5-.4 1.7.7 3-1.6 1.5-2.4M127.4 92.2c.6 2.2 2 3.9 4.1 4.7 1.6.6 2.3-2 .7-2.6-1.2-.4-1.9-1.6-2.3-2.8-.4-1.6-3-.9-2.5.7"/><path class="st4" d="M109.6 158.1c.3-2.6-.7-5-1.7-7.4-.9-2.3-2.4-5.6.2-7.4 3.8-2.6 9.5-1.8 13.8-2.6 1.3-.2 1.3-2.3 0-2.6-2.8-.5-5.7-.6-8.6-.8v2.7c2.7 0 5.4-.4 8-.4 1.3 0 3-.2 3.4 1.2.5 1.6 0 3.6 0 5.3-.1 1.7 2.6 1.7 2.7 0 .1-3.2 1.1-8.1-3.1-8.9-3.6-.8-7.4.1-11 .2-1.7 0-1.7 2.5 0 2.7 2.6.2 5.3.3 7.9.8v-2.6c-4.8.9-11.1 0-15.1 3.4-5.5 4.6 1.5 11.2.8 16.6-.2 1.5 2.5 1.5 2.7-.2M109.3 141.4c2 0 3.9-.2 5.9-.3 1.7 0 1.7-2.7 0-2.7-3.2 0-6.4.2-9.6 0 .1.9.2 1.7.4 2.6 2.3-.5 4.7-.5 7.1-.5 1.7 0 1.7-2.6 0-2.7-.9 0-1.7-.3-2.6-.5-1.7-.4-2.4 2.1-.7 2.6 1.1.3 2.2.5 3.3.6v-2.7c-2.6 0-5.2.1-7.8.6-1.6.3-1.1 2.5.4 2.6 3.2.2 6.4 0 9.6 0v-2.7c-2 0-3.9.2-5.9.3-1.8.1-1.8 2.8-.1 2.8M109.3 141.1c4.3-.3 8.5-.8 12.8-.8 1.7 0 1.7-2.6 0-2.7-.4-.1-.8-.1-1.2-.2-1.7-.5-2.4 2.1-.7 2.6.8.2 1.1.3 2 .3v-2.7c-4.3 0-8.5.5-12.8.8-1.8.1-1.8 2.8-.1 2.7M86.6 139.3c-2.3 3.8-6.7 5.8-10.6 7.3-4 1.5-8.3 2.6-12.5 3.2.3.8.7 1.6 1 2.4 2.5-1.8 5.4-2.8 8.2-4 1.3-.6.6-2.5-.7-2.5-1.7 0-3.5-.1-5.1.4.3.8.7 1.6 1 2.4.1-.1.3-.1.5-.2 1.6-.6.9-3.2-.7-2.6-.4.1-.8.3-1.1.5-1.3.7-.4 2.9 1 2.4 1.4-.4 3-.3 4.4-.3-.2-.8-.4-1.7-.7-2.5-2.8 1.2-5.7 2.2-8.2 4-1.3.9-.5 2.7 1 2.4 8.3-1.3 20-4 24.7-11.8 1-1.2-1.3-2.5-2.2-1.1M82.4 125.1c1.7 0 1.7-2.7 0-2.7-1.7.1-1.7 2.7 0 2.7M92.8 123.8c0 2.2-.5 4.4-1 6.6-.3 1.1.6 1.8 1.6 1.6 2.6-.4 4.7-2.1 7-3.3-.7-.5-1.3-1-2-1.5-.6 1.6-1.5 3.1-2.3 4.7-.6 1.3 1 2.7 2.1 1.6l1.9-1.9c1.2-1.2-.7-3.1-1.9-1.9l-1.9 1.9c.7.5 1.4 1.1 2.1 1.6.8-1.8 1.8-3.5 2.5-5.4.4-1.2-1-2-2-1.5-2.1 1.1-4 2.7-6.3 3.1l1.6 1.6c.6-2.4 1.1-4.8 1.1-7.3.2-1.6-2.5-1.6-2.5.1M114.1 129.2c.5 2.9.4 5.9 2 8.6.4.7 1.5.9 2.1.3 2.7-2.8 4.4-6.2 6.3-9.6l-2.4-.3c.5 1.5.5 3.1.5 4.7 0 1.7 2.7 1.7 2.7 0 0-1.8 0-3.7-.6-5.4-.4-1.1-1.8-1.4-2.4-.3-1.8 3.1-3.4 6.4-5.9 9l2.1.3c-1.4-2.4-1.3-5.3-1.7-7.9-.4-1.8-3-1.1-2.7.6M72.2 90.2c-.7.4-1.3.7-2.1.9-.7.2-1.1.9-.9 1.6.2.7.9 1.2 1.6.9.9-.3 1.9-.7 2.7-1.2.6-.4.9-1.2.5-1.8-.4-.5-1.2-.8-1.8-.4M65.6 93.1c.3.7.9 1.2 1.5 1.5.6.3 1.4.2 1.8-.5.4-.6.2-1.5-.5-1.8-.1-.1-.2-.1-.3-.2-.1-.1-.1 0 .1.1-.1 0-.1-.1-.1-.1L68 92c-.2-.2.2.3 0 .1-.1-.1-.1-.2-.2-.3-.3-.6-1.2-.8-1.8-.5-.6.3-.7 1.1-.4 1.8M68.3 91.9c-.2 5 .4 9.9 3.4 14 .4.6 1.2.9 1.8.5 3.8-2.6 5.3-6.8 7.1-10.9-.8-.2-1.7-.4-2.5-.7.5 10.3-4.2 21.4.4 31.3.7 1.6 3 .2 2.3-1.3-4.3-9.2.3-20.3-.1-29.9-.1-1.2-1.9-2-2.5-.7-1.6 3.5-2.9 7.7-6.2 9.9.6.2 1.2.3 1.8.5-2.8-3.8-3.2-8.1-3-12.6.3-1.9-2.4-1.8-2.5-.1M84.2 128.2c4.6 7.7 2.2 17.3 4.1 25.8.2.9 1.2 1.1 2 .8.4-.2 1.1-.2 1.5-.4l-1.5-.6c1.8 2.9 2.2 7.2 5.1 9.3 1.5 1.1 2.9.4 4.5 0 3-.9 5.6-1.9 8.3-3.5 1.5-.9.1-3.2-1.3-2.3-2.2 1.3-4.4 2.4-6.8 3.1-.5.1-1.5.6-2 .6-1.2.1-1.3-.2-1.9-1.2-1.4-2.3-2-5.1-3.5-7.4-.3-.5-.9-.8-1.5-.6-.7.2-1.5.3-2.2.7.7.3 1.3.5 2 .8-2-8.7.5-18.4-4.4-26.4-1-1.5-3.3-.2-2.4 1.3M125.2 139.4c-2.7-9.2-5.6-18.8-10-27.4-4-7.8-10.5-15-11-24.1-.6.4-1.1.9-1.7 1.3 1 .4 2.2.5 3.1.9 1.5.7 2.9-1.6 1.3-2.3-1.2-.6-2.5-.7-3.8-1.2-.8-.3-1.7.5-1.7 1.3.4 8.5 5.6 15.5 9.7 22.6 5.3 9 8.4 19.6 11.3 29.6.7 1.7 3.3 1 2.8-.7M122.9 95.8c-.8 5.2-1.1 10.5-1.1 15.8 0 1.5 2.4 1.9 2.6.4.8-5.1 1.1-10.1 1.1-15.3 0-1.7-2.7-1.7-2.7 0 0 4.9-.3 9.7-1 14.5.9.1 1.7.2 2.6.4 0-5 .3-10.1 1-15.1.3-1.7-2.2-2.4-2.5-.7"/><path class="st5" d="M70.4 93.5c.9-.8 1.5-1.7 2.2-2.7.3-.5.7-.9 1-1.4.1-.2.3-.6.6-.7.2-.1.6-.1.9-.2 1.6-.5.9-3.1-.7-2.6-.7.2-1.3.2-1.9.7-.5.4-.9 1.1-1.3 1.6-.9 1.1-1.6 2.5-2.6 3.4-1.4 1.1.5 3 1.8 1.9M75.7 87.7c.8-.6 1.5-1.2 2.2-1.9.5-.5.5-1.4 0-1.9s-1.4-.5-1.9 0c-.7.7-1.4 1.3-2.2 1.9-.6.5-.5 1.4 0 1.9.6.6 1.4.5 1.9 0"/><path class="st6" d="M55.8 108.5c.1 1.7.3 3.3.6 4.9.3 1.7 2.9 1 2.6-.7-.3-1.4-.5-2.8-.5-4.2-.2-1.7-2.8-1.7-2.7 0M58.9 106.4c1.6-2.6 3.4-4.7 3.9-7.8.3-1.7-2.3-2.4-2.6-.7-.5 2.8-2.2 4.8-3.7 7.2-.8 1.4 1.5 2.8 2.4 1.3M61.6 112.1c1.5-.9 2.8-2.1 4-3.4.5-.5.5-1.3 0-1.9-.5-.5-1.4-.6-1.9 0-1 1.2-2.1 2.2-3.4 3-1.5.9-.1 3.2 1.3 2.3M68.7 105.5l2.9-.1c1.7-.1 1.7-2.7 0-2.7l-2.9.1c-1.7.1-1.7 2.7 0 2.7M64.6 109c2.3 1.3 4.9 1.6 7.3 2.8 1.5.8 2.9-1.5 1.3-2.3-2.3-1.2-5-1.5-7.3-2.8-1.4-.8-2.8 1.5-1.3 2.3"/><path class="st7" d="M62.5 113.2c3 0 5.9-.9 9-.8 1.7 0 1.7-2.6 0-2.7-3.1-.1-6 .8-9 .8-1.8 0-1.8 2.7 0 2.7"/><path class="st8" d="M60 119c.8-.9 1.5-1.9 2-3 .1-.2.2-.5.2-.8v-.4.2c.3-.5.7-.8.9-1.3.6-1.6-2-2.3-2.6-.7 0 .1-.5.5-.6.7-.2.4-.2.8-.3 1.2-.3.8-1 1.7-1.6 2.3-1 1.2.9 3.1 2 1.8M64.5 116.3c.1-.5.2-1 .4-1.4.1-.1.1-.2.2-.3.1-.1.2-.1.2-.1.7-.1 1.3-.6 1.3-1.3 0-.7-.6-1.4-1.3-1.3-2.1.2-3 1.9-3.4 3.8-.1.7.2 1.4.9 1.6.7.1 1.5-.2 1.7-1M69.7 114c1.6 0 3.2 0 4.8-.1 1.7-.1 1.7-2.8 0-2.7-1.6.1-3.2.1-4.8.1-1.7 0-1.7 2.7 0 2.7"/><path class="st4" d="M130.2 128.3c0 27.1-15.8 49.1-35.3 49.1s-35.3-22-35.3-49.1 15.8-49.1 35.3-49.1 35.3 22 35.3 49.1"/><path class="st9" d="M133.1 134.1c1.4-1.3 1.8-3.1 2.1-5 .3-1.7-2.3-2.4-2.6-.7-.2 1.3-.5 2.8-1.5 3.8-1.1 1.3.8 3.2 2 1.9"/><path class="st10" d="M129.6 126.8c.6-1.4.6-2.9.9-4.4.3-1.9 1.1-3.1 2.3-4.5 1.1-1.3-.7-3.2-1.9-1.9-1.2 1.3-2.3 2.6-2.7 4.3-.5 1.9-.4 3.9-1.1 5.7-.7 1.7 1.9 2.4 2.5.8"/><path class="st11" d="M123.4 112.9c2 .9 4.1 1.5 6.3 1.9 1.4.2 2.4-1.6 1-2.4-.1-.1-.3-.2-.4-.2-1.5-.8-2.8 1.5-1.3 2.3.1.1.3.2.4.2.3-.8.7-1.6 1-2.4-2.2-.4-4.3-1-6.3-1.9-1.6-.7-2.3 1.8-.7 2.5M119 110.5c2 1.3 4.2 2.3 6.4 3.2 1.6.6 2.3-2 .7-2.6-2-.8-4-1.7-5.8-2.9-1.4-.9-2.7 1.4-1.3 2.3"/><path class="st12" d="M122.4 114c.8.2 1.6.6 2.2 1.1.5.3 1.4 1 1.3 1.7-.3 1.7 2.2 2.4 2.6.7.6-3.1-2.8-5.2-5.4-6-1.6-.5-2.3 2-.7 2.5"/><path class="st13" d="M129.8 112.6c.1 2.4.9 4.6 1 7 .1 1.7 2.8 1.7 2.7 0-.1-2.4-.9-4.6-1-7-.1-1.7-2.8-1.7-2.7 0"/><path class="st14" d="M123.8 127.3c1.5-.3 2.9-.7 4.4-1.1 1.6-.5.9-3-.7-2.6-1.5.4-2.9.8-4.4 1.1-1.7.4-1 3 .7 2.6"/><path class="st15" d="M124 118c.3 2.6.4 5.1.2 7.7-.1 1.7 2.5 1.7 2.7 0 .2-2.6.1-5.1-.2-7.7-.2-1.7-2.9-1.7-2.7 0"/><path class="st16" d="M88.4 140.9c.6-.1 1.3.2 1.8.6.5.3.7.9 1.4 1 .7.1 1.4-.2 1.6-.9.2-.6-.2-1.5-.9-1.6h-.1l.6.3c-.2-.1-.4-.5-.6-.7-.3-.3-.7-.5-1.1-.7-.8-.4-1.7-.7-2.6-.6-.7.1-1.3.6-1.3 1.3-.1.7.5 1.4 1.2 1.3"/><path class="st17" d="M98.6 138.9c1.8 1.5 3.2 3.5 5.6 4.1 1.7.4 2.4-2.2.7-2.6-1.9-.4-3-2.2-4.4-3.4-1.3-1-3.2.8-1.9 1.9"/><path class="st18" d="M103.5 162c1.6-1.1 3.2-2.1 4.9-3 1.5-.8.2-3.1-1.3-2.3-1.7.9-3.3 1.9-4.9 3-1.4.9-.1 3.2 1.3 2.3M107.5 155.4c-1.9 1.5-3.5 3.3-5.4 4.8-2 1.7-4 1.9-6.5 2.4.5.7 1 1.3 1.5 2 .7-1.1 1.4-2.2 2.3-3.1 1.2-1.2-.7-3.1-1.9-1.9-1.1 1.1-1.9 2.3-2.7 3.7-.6 1.1.4 2.2 1.5 2 2.5-.5 4.7-.7 6.7-2.3 2.3-1.7 4.2-3.8 6.4-5.7 1.3-1.1-.6-3-1.9-1.9"/></g><path class="st19" d="M68.8 104.1l2.8 3.3-7.2.3zM64.6 107.6l4.2-3.4 2.6 3.1z"/><path class="st20" d="M76.1 103.6l3.5 3-8.4.8zM79.4 106.6l-3.3-2.9-4.7 3.6z"/><g class="st2"><defs><path id="SVGID_5_" d="M-66.8-91.7h325.7v421.5H-66.8z"/></defs><clipPath id="SVGID_6_"><use xlink:href="#SVGID_5_" overflow="visible"/></clipPath><path class="st21" d="M75.9 103.6h.2c.3 0 7.2.4 8.4 2.7l.1.1-5.2.3-3.5-3.1zM84.5 106.3l-5.1.3-3.3-2.9s7.2.3 8.4 2.6"/><path class="st22" d="M57.2 108.5l3.5-10.6 8.2 6.3-4.2 3.5-6.8 6.6zM57.9 114.1l6.7-6.5 4.2-3.4-8-6.2-3.6 10.4z"/><path class="st23" d="M60.6 98l6.7-6.2 2.2.8-.7 11.7zM69.4 92.7l-.6 11.5-8-6.2 6.5-6.1z"/><path class="st24" d="M84.4 106.4s-1.7-2.5-8.3-2.6c-1.9 0-6.9.2-7.3.5l-.1.1.6-11.8 10.5-3.1 4.8 16.8-.2.1zM79.7 89.6l4.7 16.7s-1.6-2.5-8.3-2.7c0 0-6.8.1-7.4.5l.6-11.5 10.4-3z"/><path class="st25" d="M79.6 89.6l17.3-5-12.5 21.9zM96.7 84.7l-12.2 21.6-4.8-16.7z"/><path class="st26" d="M84.4 106.3l12.2-21.7.2.1-2.6 26.5zM94.1 111.1l-9.6-4.8 12.2-21.6z"/><path class="st27" d="M96.6 84.7l.2-.1 8.6 20.2-2.3 1.5-9.1 4.9zM103.1 106.2l-9 4.9 2.6-26.4 8.6 20.1z"/><path class="st28" d="M96.6 84.6l13.6-4.6-4.9 25zM110.1 80.1l-4.8 24.7-8.6-20.1z"/><path class="st29" d="M105.2 104.8l4.8-24.7h.2l6.5 24.1-7.9.6zM116.6 104.2l-6.5-24.1-4.8 24.7h3.5z"/><path class="st30" d="M110 80l14.1 6.9-7.5 17.5zM124 86.9l-7.4 17.3-6.5-24.1z"/><path class="st31" d="M123 107.4l-6.5-3.2 7.5-17.5 1.5 7.9-1.2 13.3zM124.2 107.8l-1.2-.5-6.4-3.1 7.4-17.3 1.4 7.8z"/><path class="st32" d="M128.8 128.7c-1-10 2.7-11.5 2.8-11.6h.1l1 10.7-3.9.9zM131.6 117.1s-3.8 1.5-2.8 11.5l3.7-1-.9-10.5z"/><path class="st33" d="M121 125.9l7.8-.5.1 3.3-9.4 2.5zM121.1 126l-1.5 5.1 9.3-2.5-.2-3.1z"/><path class="st28" d="M103.5 131.6l8.6-4 7.5 3.5v.1l-16.1.5zM112.1 127.7l-8.6 3.9 16.1-.5z"/><path class="st34" d="M104.4 126.9c-3.9 0-5-4.4-5.6-7.1-.1-.2-.1-.4-.2-.6-.6-2.4-1.6-3.3-1.6-3.3h-3v-2.1h.1s2 0 3-.2 1.9-.9 1.9-.9c1.3-1 5-1.4 5.1-1.4.1 0 11.9-.3 17-.3h1.6c3.4.1 3.4 1.2 3.4 1.2l.4 6.9s.3 3 0 5c-.2 1.8-4.4 1.9-5.7 1.9h-.4c0 .1-14.4.9-16 .9m7.5-14.6c-2.8 0-4.7 0-5.6.1-3 .3-5.5 1.1-5.5 1.1-.7.2-1.1.6-1.4 1.2-.7 1.4.1 3.4.1 3.4s.4 1.8.9 4 2.9 3.6 3.6 3.7h.4c2.7 0 18.1-.7 19.5-1 1.4-.3 1.6-1.4 1.6-1.5l-.3-8.8c-.4-2-2.6-2.3-2.6-2.3.1.2-5.9.1-10.7.1"/><path class="st34" d="M99.5 118.2s-1.5-3.8 1.3-4.7c0 0 2.5-.9 5.5-1.1 3-.3 16.4 0 16.4 0s2.2.3 2.7 2.4l.3 8.8s-.3 1.2-1.7 1.5c-1.4.3-19.2 1.1-19.9 1s-3.2-1.5-3.7-3.8c-.5-2.4-.9-4.1-.9-4.1m-2.3-2.4s1 .8 1.6 3.3c.6 2.5 1.5 7.7 5.7 7.7 1.6 0 16.1-.8 16.1-.8s5.7.2 5.9-1.9c.3-2 0-5 0-5l-.4-6.9s0-1-3.4-1.1c-3.4-.1-18.6.2-18.6.2s-3.8.4-5.1 1.4c0 0-.9.8-1.9 1-1.1.2-3 .2-3 .2v2h3.1zM83.5 127c-2.6 0-14-.3-14.1-.3h-1c-2.3 0-6.1-.2-6.3-1.8-.3-2 0-5.5 0-5.6v-6.9s0-1.1 3.4-1.2h2.6c5.4 0 15.9.2 16 .2.2 0 3.8.4 5.1 1.4 0 0 .9.8 1.9.9.6.1 1.4.1 2 .1h1.1v2.2h-3c-.1.5-.4 3.5-.5 4.6 0 .3-.9 6.3-6.7 6.4h-.5m-6.3-14.7c-4.8 0-10.8.1-10.8.1s-2.2.3-2.6 2.3l-.3 8.8s.3 1.2 1.6 1.4c1.3.3 16.8 1 19.5 1h.4c.7-.1 3.1-1.5 3.6-3.7s.9-4 .9-4 .8-2 .1-3.4c-.3-.6-.7-1-1.4-1.2 0 0-2.6-.9-5.5-1.1-.8-.2-2.7-.2-5.5-.2M91.1 115.9s-.4 3.5-.5 4.7c-.2 1.6-1.6 6.3-6.7 6.4-1.6 0-14.5-.3-14.5-.3s-7 .3-7.3-1.7c-.3-2 0-5.6 0-5.6v-6.9s0-1 3.4-1.1c3.4-.1 18.6.2 18.6.2s3.8.4 5.1 1.3c0 0 .9.8 1.9 1 1.1.2 3 .1 3 .1v2l-3-.1zm-1.5 2.3s1.5-3.8-1.3-4.7c0 0-2.5-.9-5.5-1.1-3-.3-16.4 0-16.4 0s-2.2.3-2.7 2.4l-.3 8.8s.3 1.2 1.7 1.5c1.4.3 19.2 1.1 19.9 1 .7-.1 3.2-1.5 3.7-3.8.5-2.4.9-4.1.9-4.1"/><path class="st35" d="M125.8 111.7l3.8 1.3-3.1 6.4zM126.5 119.1l3-6.1-3.6-1.2z"/><path class="st36" d="M129.5 112.9c.1 0 .2.1.3.1.3 0 .7-.1 1.2-.9l.1-.2.5 5.2s-1.2.8-1.7 1.8l-3.6.2 3.2-6.2zM129.9 119l-3.4.2 3-6.1s.8.4 1.6-.8l.5 4.9c0-.1-1.2.7-1.7 1.8"/><path class="st37" d="M124.2 125.7s2.2-.4 2.3-2.2c0-1.9-.1-4.3-.1-4.4v-.1l3.6-.2v.2s-1.5 2.8-1.3 6.5v.1l-4.5.3v-.2zM124.2 125.8s2.3-.4 2.3-2.3c0-2-.1-4.4-.1-4.4l3.4-.2s-1.5 2.8-1.3 6.5l-4.3.4z"/><path class="st38" d="M112.1 127.8l-2-1.3 11.1-.6-1.5 5.3zM110.4 126.6l1.7 1.1 7.5 3.4 1.5-5.1z"/><path class="st39" d="M59.1 118.1l3-5.9h.2l-.2 7.9zM62.2 112.2l-3 5.9 2.9 1.9z"/><path class="st40" d="M58 115.2l-.2-1.1 2.7-2.6 1.8.4-3.1 6.4zM57.9 114.1l.2 1.1 1.1 2.9 3-6.1-1.7-.4z"/><path class="st41" d="M59.1 117.9l3.1 2-.2 4.9-.1.1zM62 124.8l.1-4.8-2.9-1.9z"/><path class="st23" d="M60.4 111.7l4.3-4.1 7.6 3.7v.1s-1.5-.1-3.4-.1c-2.5 0-5.7.1-6.7.8l-1.8-.4zM64.7 107.6l7.6 3.6s-8.3-.4-10.1.7l-1.7-.4 4.2-3.9z"/><path class="st29" d="M64.6 107.6l6.8-.4 8-.7.1.1-7.2 4.8zM79.4 106.6l-7.1 4.7-7.4-3.7 6.5-.3z"/><path class="st42" d="M72 111.4l7.4-4.9 4.9 5zM84.1 111.5l-4.7-4.9-7.1 4.7z"/><path class="st43" d="M91.3 113.9c-1.1-.1-2.1-1-2.2-1-1.3-1-5-1.3-5.1-1.3l-4.8-5 5.2-.3 3.7 1.8 3.3 5.8h-.1zM91.3 113.8l-3.2-5.7-3.6-1.8-5.1.3 4.7 4.9s3.7.4 5.1 1.3c0 0 1 .9 2.1 1"/><path class="st44" d="M87.9 107.9l6.4 3.2-3 2.8zM94.1 111.1l-2.8 2.7-3.2-5.7z"/><path class="st45" d="M94 113.9H91.1l3-2.9 3.3 2.7h-.1c-.4.1-1.5.2-3.3.2M97.3 113.6l-3.2-2.5-2.8 2.7s4.9.2 6-.2"/><path class="st46" d="M94 111.1l9.1-5-.9 5.6s-2.5.6-3.1 1c0 0-1.2.9-1.8.9l-3.3-2.5zM103.1 106.2l-.8 5.4s-2.5.6-3.1 1.1c0 0-1.2.9-1.8.9l-3.2-2.5 8.9-4.9z"/><path class="st47" d="M103 106.1l3.6 2.6 2.3 2.6s-4.5.1-4.7.1c-.2 0-1.3.2-2 .3h-.1l.9-5.6zM108.7 111.3l-2.2-2.5-3.5-2.5-.8 5.4s1.8-.3 2-.3c.2-.1 4.5-.1 4.5-.1"/><path class="st48" d="M106.4 108.7l6-1.1 2 .4-5.7 3.4zM114.2 108l-5.5 3.3-2.2-2.5 5.9-1.2z"/><path class="st49" d="M114.2 107.9l4.9 3.3-10.7.1zM118.8 111.1l-4.6-3.1-5.5 3.3z"/><path class="st50" d="M118.8 111.2l-4.7-3.1.1-.1 4.9 1c.2.1 4.3 1.8 4.7 2l.2.1h-5.2zM123.8 111.1h-4.9l-4.6-3.1 4.9 1c-.1.1 4.2 1.9 4.6 2.1"/><path class="st51" d="M99.3 117.7h.1c.1 0 1.8.5 2.1 1.2l-1.4 1.9-.8-3.1zM99.4 117.8s1.8.5 2 1.2l-1.3 1.8-.7-3z"/><path class="st34" d="M100 120.7l1.4-1.9.1.1c.8 1.8-1 3.2-1 3.2l-.1.1-.4-1.5zM100.4 122.1s1.8-1.3 1-3.1l-1.3 1.8.3 1.3z"/><path class="st52" d="M103.8 118.9s2.5-4.6 7.5-4.6c2.3 0 4.7.9 7.2 2.8l1.2 1.4H117s-2.5-3.3-5.9-3.3c-2.1 0-4.2 1.2-6.1 3.7l-1.3.2.1-.2zM103.9 118.9s4.7-9 14.6-1.8l1.1 1.2h-2.4s-5.8-7.7-12.1.4l-1.2.2z"/><path class="st53" d="M111.1 119.8c-.6 0-1.5-.1-2.1-.8-.6-.7-.9-1.7-.9-3.1.1 0 1.3-.9 3.1-.9 1.2 0 2.4.4 3.5 1.1 0 0 0 3.2-3 3.7.1-.1-.2 0-.6 0M111.7 119.7s-3.8.8-3.6-3.8c0 0 2.9-2 6.5.2 0 0 0 3.1-2.9 3.6"/><path class="st54" d="M111.5 120.1c-3.4 0-6.5-1.3-6.5-1.3h-.1v-.1c.7-1.2 3-2.8 3.1-2.9l.1-.1v.2c0 1.3.3 2.3.9 3 .7.7 1.7.8 1.9.8h.1c1.1 0 1.9-.3 2.5-1 1-1 1-2.6 1-2.6v-.2l2.7 2.4-.1.1c-1.4 1.1-3.3 1.7-5.6 1.7zM105 118.7s7.5 3.1 12.1-.4l-2.5-2.2s.1 3.6-3.5 3.6c0 0-3.1.2-3-3.8 0 0-2.3 1.7-3.1 2.8"/><path class="st55" d="M119.5 118.3l6.1-1 .2 6.2s-.5 1.4-1.8 1.6l-4.5-6.8zM124 125l-4.4-6.7 5.9-1 .2 6.1c0 .1-.5 1.5-1.7 1.6"/><path class="st56" d="M111.8 119.8h.4c2.3 0 4.9-1.6 5-1.6h2.6l-3.1 7.4-4.9-5.8zM112 119.9l4.7 5.6 3-7.2h-2.4c-.1 0-3 1.7-5.3 1.6"/><path class="st56" d="M111.9 119.8l4.9 5.8-6.8.3zM110.1 125.8l1.9-5.9 4.6 5.6z"/><path class="st57" d="M103.7 118.9l1.3-.2c1.5.9 6.8 1.2 6.9 1.2h.1l-1.9 6.1-6.4-7.1zM103.9 118.9l6.2 6.8 1.9-5.9s-5.4-.2-6.9-1.2l-1.2.3zM104 126.1s-3.1-1.2-3.7-4l3.6-3.2 6.4 7-6.3.2zM100.4 122.1l3.5-3.1 6.2 6.8-6.1.2s-3-1.2-3.6-3.9"/><path class="st49" d="M100.3 122s1.5-1.4 1.2-2.6c-.2-.7-.9-1.2-2.1-1.6 0-.1-.7-1.9.3-3.4.6-1 1.8-1.5 3.5-1.6l2.7 3.9h-.1s-1.6 1.3-1.8 2.3l-3.6 3.2-.1-.2zM103.1 112.9l2.7 3.8s-1.6 1.3-1.8 2.3l-3.5 3.1s3.3-3.1-1-4.3c-.1 0-1.8-4.6 3.6-4.9"/><path class="st58" d="M102.9 112.8h.1s2.8-.7 6.1-.7h1.3l-.8 2.4s-2.7.8-3.8 2.1l-.1.1-2.8-3.9zM110.4 112.2l-.8 2.3s-2.7.8-3.9 2.1l-2.7-3.8c.1.1 3.5-.8 7.4-.6"/><path class="st59" d="M118.4 117.2l-3.2-5 7.3.1-2.9 6.2zM115.4 112.2l3.1 4.9 1.1 1.2 2.7-6z"/><path class="st60" d="M118.4 117.2s-3.3-2.7-7.2-2.7c-.6 0-1.1.1-1.7.2h-.1l.9-2.5h5.1l3.1 4.9-.1.1zM110.4 112.2h5l3.1 4.9s-4.3-3.6-8.9-2.6l.8-2.3z"/><path class="st52" d="M83.8 118.2c-2-1.9-4-2.9-6.1-2.9-3.3 0-5.6 2.5-5.6 2.6l-.5.4-.8-.8.5-.5c2.2-1.8 4.4-2.6 6.6-2.6 4.8 0 8 4.2 8 4.2l.1.1-1.6.2-.6-.7zM72.1 117.8s5.3-6 11.8.3l.6.6 1.4-.2s-6.2-8.2-14.5-1.5l-.5.4.7.7.5-.3z"/><path class="st61" d="M78.2 119.8c-.2 0-1.6 0-2.6-1.1-.6-.7-.9-1.6-.9-2.8 0 0 1.4-.7 3.2-.7 1.3 0 2.4.3 3.5 1 0 .1 0 1.7-1 2.8-.5.5-1.3.8-2.2.8zM78.2 119.7s-3.6.1-3.4-3.8c0 0 3.3-1.7 6.6.3-.1 0 0 3.5-3.2 3.5"/><path class="st54" d="M78.1 120.3c-2.5 0-4.6-.8-6.1-2.4l-.1-.1.1-.1c.1-.1 1.9-1.6 2.6-1.9h.1v.1s-.2 1.5.7 2.6c.6.7 1.5 1.1 2.7 1.2h.1c.6 0 2.6-.3 2.9-3.5v-.1l.1.1c.1.1 2.3 1.5 3.1 2.6l.1.1h-.1c.2-.1-2.8 1.4-6.2 1.4M84.5 118.7s-7.9 3.8-12.3-1c0 0 1.9-1.6 2.6-1.9 0 0-.5 3.6 3.4 3.8 0 0 2.8.3 3.2-3.6-.1.2 2.2 1.6 3.1 2.7"/><path class="st34" d="M87.7 119.7l1.9-1.1-.6 2.4zM89.5 118.7l-1.7 1 1.2 1.2z"/><path class="st62" d="M63.6 115.9c-.1-2.9 2.2-3.5 2.3-3.5l5.2 5-7.6 1 .1-2.5zM70.9 117.4l-5.1-4.9s-2.3.6-2.2 3.4l-.1 2.4 7.4-.9z"/><path class="st63" d="M72.9 125.6c-9-.4-9.1-.8-9.1-1 0-.1.2-.2.2-.2l7.7-6.5 1.2 7.7zM72.9 125.5l-1.2-7.4-7.6 6.4c-.1 0-2.1.6 8.8 1"/><path class="st64" d="M71.6 118.1l.6-.4v.1s1.6 2.4 6.4 2.4h.6l-6.3 5.6-1.3-7.7zM78.9 120.2l-6 5.3-1.2-7.4.5-.3c-.1 0 1.6 2.5 6.7 2.4"/><path class="st65" d="M84.9 126.1c-1.5 0-11.9-.5-12-.5h-.2l6.2-5.5 6.3 5.9h-.1c0 .1-.1.1-.2.1M85.1 126l-6.1-5.8-6 5.3c-.1 0 11.8.6 12.1.5"/><path class="st49" d="M78.8 120.1h.2s3.9-.5 5.5-1.4l3.4 1 1.2 1.2s-.3 3.9-4 5.2l-6.3-6zM84.5 118.7l3.4 1 1.2 1.2s-.3 3.8-3.9 5.1l-6.1-5.8c-.2 0 3.7-.5 5.4-1.5"/><path class="st66" d="M84.4 118.8v-.1l1.3-.2c-.3-.4-1.7-2.1-3.4-2.8h-.1l3.1-2.9c.2 0 4.3.5 4.5 2.2 0 0 .5 1.4-.3 3.9l-1.7 1-3.4-1.1zM89.5 118.7l-1.6 1-3.4-1 1.4-.2s-1.6-2.1-3.5-3l3-2.8s4.3.5 4.5 2.1c-.1.1.5 1.5-.4 3.9"/><path class="st30" d="M78.7 112.1h.4c2.9 0 6.2.5 6.2.5h.2l-3.2 3-3.6-3.5zM78.9 112.2l3.4 3.3 3-2.8c.1 0-3.4-.5-6.4-.5"/><path class="st50" d="M65.7 112.4l.6-.2 12.6-.1-4.2 2.8c-1.9.7-3.8 2.5-3.8 2.5h-.1l-5.1-5zM70.9 117.4s1.9-1.8 3.8-2.5l4-2.6-12.4.1-.5.1 5.1 4.9z"/><path class="st24" d="M63.7 129.5l-1.6-3.9c-.3-.3-.2-.4-.2-.5l.1-.1.2.5c.5.5 2.6 1.2 10.4 1.3h.1l.2 5-9.2-2.3zM72.7 126.8l.2 4.8-9.1-2.2-1.7-4.3s-.9 1.6 10.6 1.7"/><path class="st65" d="M72.6 126.7l10.6.2.1.1-10.5 4.8zM83.2 126.9l-10.3 4.7-.2-4.8z"/><path class="st67" d="M72.8 131.6l10.5-4.8-3 12.3zM80.3 138.9l2.9-12-10.3 4.7z"/><path class="st68" d="M83.2 126.8l5 4.3-8 8.1zM88.1 131.1l-4.9-4.2-2.9 12z"/><path class="st69" d="M101.9 126h.1c.1.3.7.7 3.9.7 2.2 0 4.4-.2 4.4-.2l1.9 1.2-8.8 4-1.5-5.7zM101.9 126l1.6 5.6 8.6-3.9-1.8-1.1c.1 0-7.9.7-8.4-.6"/><path class="st25" d="M91 115.8l6.2-.1-2.8 18.3h-.2zM91.1 115.9l3.2 18.1 2.9-18.2z"/><path class="st69" d="M97.1 115.6l.1.1s1 1 1.6 3.3c.4 1.5 1.6 6.1 3.2 6.8h.1l-7.9 8.3 2.9-18.5zM101.9 126l-7.6 8 2.8-18.2s1 1 1.6 3.3c.6 2.3 1.7 6.2 3.2 6.9"/><path class="st69" d="M87.4 125.8c3.5-1.9 3.6-9.8 3.6-9.9h.2l3.2 18.4-7-8.5zM87.6 125.8l6.8 8.2-3.2-18.1c-.1 0-.1 8-3.6 9.9"/><path class="st70" d="M94.2 134l7.7-8h.1l-7.3 15.2zM94.8 141l-.5-7 7.6-8z"/><path class="st45" d="M103.3 131.1h.2l4 7.7-.7 3.5-2.3 1.3zM104.5 143.5l-1.1-12.4 4 7.7-.7 3.4z"/><path class="st71" d="M94.7 140.9l7.3-15.1 1.5 5.3.3 3.4-9 6.5zM94.8 141l8.9-6.6-.3-3.3-1.5-5.1z"/><path class="st57" d="M104.3 141.4c-.1-.1-3.1-2.3-5.1-3.6l-.1-.1 4.6-3.4.6 7.1zM104.3 141.4c0-.1-5.1-3.7-5.1-3.7l4.4-3.3.7 7z"/><path class="st72" d="M98 141.4v-.1s.9-1.8 2.7-1.8c.7 0 1.4.2 2.2.7l.6 1.2H98zM98.1 141.4s1.4-3.1 4.8-1.1l.5 1.1h-5.3z"/><path class="st37" d="M94.7 140.9l4.6-3.4 3 2.3-.1.1c-.5-.2-.9-.2-1.4-.2-1.9 0-2.6 1.6-2.6 1.6l-.6 2-2.9-2.4zM94.8 141l2.8 2.3.5-1.9s1.1-2.4 4.1-1.4l-3-2.2-4.4 3.2z"/><path class="st73" d="M95.3 143.7c-.3 0-.5 0-.7-.1-.6-.3-2.8-1.2-2.8-1.2l-.2-.1 3.1-1.4 2.9 2.4h-.1c.1 0-1.3.4-2.2.4M91.9 142.3l2.9-1.3 2.8 2.3s-2.3.6-2.9.3c-.7-.5-2.8-1.3-2.8-1.3"/><path class="st74" d="M85.8 141.3c0-.1 1.2-2 3-2 .6 0 1.2.2 1.8.7l.8 1.1-5.7.4.1-.2zM85.9 141.4s1.9-3.4 4.7-1.3l.7.9-5.4.4z"/><path class="st68" d="M88.1 131.2l-5.1-4.3h.3c2.8 0 4.1-1.1 4.2-1.1h.1l6.8 8.3-.1.1-6.2-3zM88.1 131.1l6.2 2.9-6.8-8.2s-1.4 1.2-4.3 1.1l4.9 4.2z"/><path class="st75" d="M87.9 130.9l6.5 3.1.5 7.2zM94.8 141l-6.7-9.9 6.2 2.9z"/><path class="st64" d="M83.6 135.5l4.5-4.5 6.9 10.1zM83.7 135.5l11.1 5.5-6.7-9.9z"/><path class="st49" d="M83.6 135.4l6 2.9-.8 1.1c-1.7 0-2.8 1.9-2.8 2l-1.1 2.3-1.3-8.3zM83.7 135.5l1.2 8 1-2.1s1.1-2 2.9-2l.7-1-5.8-2.9z"/><path class="st76" d="M80.2 138.9l3.6-3.5 1.2 8.3zM80.3 138.9l4.6 4.6-1.2-8z"/><path class="st33" d="M111.2 116.7c-.3 0-.5-.1-.7-.3-.2-.3-.3-.7-.2-1.3 0 0 .3-.1.8-.1.3 0 .6 0 .9.1h.1v.1c0 .1.2 1.4-.3 1.5 0-.1-.3 0-.6 0M111.7 116.5s-1.6.6-1.4-1.5c0 0 .7-.2 1.7 0 0 .1.2 1.5-.3 1.5M78 116.8c-.3 0-.5-.1-.7-.3-.2-.3-.3-.7-.2-1.3v-.1h1.8v.1c0 .1.2 1.4-.3 1.5-.1 0-.3.1-.6.1"/><path class="st33" d="M78.8 115.2s.2 1.4-.3 1.5c0 0-1.6.6-1.4-1.5h1.7z"/><path class="st77" d="M94.1 156l3.6 5.6h-6.4zM91.5 161.5l2.6-5.4 3.5 5.4z"/><path class="st48" d="M85.7 156h8.6l-2.8 5.7zM85.9 156.1l5.6 5.4 2.6-5.4z"/><path class="st58" d="M86.5 161.5l-.7-5.6 5.8 5.7zM86.6 161.5l-.7-5.4 5.6 5.4z"/><path class="st78" d="M86.5 161.5c-.2-.1-4-1.6-5.3-2.6l-.1-.1 4.8-2.8.7 5.6-.1-.1zM81.3 158.8l4.6-2.7.7 5.3c0 .1-4-1.5-5.3-2.6"/><path class="st50" d="M81.3 158.9c-.1-.1-2.3-1.9-2.9-3l-.1-.1 7.9.3-4.9 2.8zM78.4 155.9l7.5.3-4.6 2.7c0-.1-2.3-2-2.9-3"/><path class="st47" d="M102.7 156h3.4l-.2.1c-.3.2-6.9 5.4-8.4 5.4h-.2l5.4-5.5zM105.9 156.1s-6.9 5.4-8.3 5.4l5.1-5.4h3.2z"/><path class="st79" d="M97.9 161.4c1.4-.4 7.9-5.3 7.9-5.3h2.9l-.1.1c-1.5 2.5-7 5.1-7.2 5.3l-3.6.1.1-.2zM108.6 156.2h-2.7s-6.5 4.9-8 5.3l3.5-.1c.1 0 5.7-2.7 7.2-5.2"/><path class="st80" d="M78.3 155.9l1.5-2.8 2.8 1.3 1.3 1.8zM82.5 154.5l1.2 1.6-5.3-.2 1.4-2.7z"/><path class="st81" d="M83.7 156.2l-1.3-1.8h.1s2-.3 3.6-1.4h.1l2.8 3.2h-5.3zM86.1 153.1l2.6 3h-5.1l-1.2-1.6c.1 0 2.1-.3 3.7-1.4"/><path class="st82" d="M86 153.1c.1-.1 2-1.4 4.9-1.4 1.3 0 2.6.3 3.8.8l.1.1-6.1 3.7-2.7-3.2zM94.7 152.5l-5.9 3.6-2.6-3c-.1 0 3.5-2.6 8.5-.6"/><path class="st83" d="M88.5 156.2l6.2-3.8 4.4 3.8zM98.9 156.1l-4.2-3.6-5.9 3.6z"/><path class="st84" d="M94.7 152.6l.1-.2-.1.2.1-.1s.1.1.4.1c.4 0 1.4-.1 3.3-.8 0 0 .3-.1.9-.1 1 0 2.5.2 4.3.9l.1.1-4.8 3.5-4.3-3.6zM103.5 152.7l-4.6 3.4-4.3-3.6s.3.5 3.8-.7c0 .1 2.2-.3 5.1.9"/><path class="st85" d="M98.7 156.2l4.8-3.6s3.5 1.9 5.1 3.5l.1.1h-10zM108.6 156.2h-9.7l4.6-3.4c0-.1 3.5 1.7 5.1 3.4"/><path class="st56" d="M93.8 180.1c-2.7 0-5.3-.5-7.8-1.4h-.1l8.4-15.7 11.4 14.1h-.1c0-.1-5 3-11.8 3M86 178.6l8.3-15.6 11.3 13.9s-9.2 5.6-19.6 1.7"/><path class="st77" d="M108.6 156l8.8 12.8h-.1c-.1.1-8.7 6.8-11.7 8.1l-.1.1 3.1-21zM117.3 168.8s-8.7 6.8-11.7 8.1l3-20.8 8.7 12.7z"/><path class="st86" d="M94.2 162.9h.2c.4 0 8.7-.1 14.3-6.8l.2-.2-3.1 21.2-11.6-14.2zM94.3 163s8.6 0 14.3-6.8l-3 20.8-11.3-14z"/><path class="st29" d="M108.5 156.1l19.5-.6-10.7 13.4zM127.9 155.6l-10.6 13.2-8.7-12.6z"/><path class="st48" d="M78.4 155.7l.1.1c4.3 6.5 15.7 7.1 15.9 7.1v.1l-21.6 6.6 5.6-13.9zM94.3 163s-11.5-.5-15.9-7.1l-5.5 13.7 21.4-6.6z"/><path class="st87" d="M86 178.6c-.1 0-6.5-1.7-13.2-9l-.1-.1 21.7-6.7-8.4 15.8zM94.3 163L86 178.6s-6.4-1.6-13.1-9l21.4-6.6z"/><path class="st68" d="M72.8 169.6c-5.8-5.6-9.1-11.2-9.1-11.3l-.1-.1 14.8-2.5-5.6 13.9zM78.4 155.9l-14.6 2.4s3.2 5.6 9.1 11.3l5.5-13.7z"/><path class="st88" d="M94.3 163.1c-.3 0-3.2 0-7.8-1.5v-.1l3.9.1 3.9 1.5zM86.6 161.5l3.9.1 3.9 1.5c-.1-.1-3.1-.1-7.8-1.6"/><path class="st88" d="M90.3 161.6v-.1h7v.1l-3 1.5-4-1.5zM97.3 161.5l-3 1.5-4-1.5h7"/><path class="st89" d="M94.3 162.9l2.8-1.5 4.7-.2-.2.1c-2.3 1.4-7.1 1.6-7.2 1.6h-.1zM101.5 161.4l-4.3.1-2.8 1.5c-.1 0 4.7-.2 7.1-1.6"/><path class="st90" d="M94.7 161.508l6.796-.216.006.2-6.797.216zM101.5 161.4l-6.8.2"/><path class="st32" d="M131.7 140.4h.2l-4 15.3-9.1.2zM131.8 140.4L119 155.9l8.9-.3z"/><path class="st43" d="M125.3 138.7l6.6 1.7-5.5 6.7zM125.4 138.8l1 8.1 5.4-6.5z"/><path class="st91" d="M125.3 138.9l7.4-11.5-.8 13.1zM132.6 127.6l-7.2 11.2 6.4 1.6z"/><path class="st45" d="M112.7 138.7h12.8l1 8.2-7.5 9.1zM119 155.9l-6.2-17.1h12.6l1 8.1z"/><path class="st69" d="M112.6 138.9l7-7.9 5.9 7.9zM119.6 131.1l-6.8 7.7h12.6z"/><path class="st92" d="M112.7 138.6l6.4 17.3-10.6.3zM108.6 156.2l4.2-17.4 6.2 17.1z"/><path class="st25" d="M107.4 138.7h5.6l-6.4 3.7zM107.4 138.8h5.4l-6.1 3.4z"/><path class="st93" d="M63.7 158.3c-1.2-1.9-4.3-15.5-4.4-16.1v-.2l7.5 6.1-3 10.4-.1-.2zM59.4 142.2s3.2 14.2 4.4 16.1l2.9-10.2-7.3-5.9z"/><path class="st94" d="M66.7 148l11.9 7.9-14.9 2.5zM78.4 155.9l-11.7-7.8-2.9 10.2z"/><path class="st33" d="M66.5 148.1l18.6-4.7-6.7 12.6zM84.9 143.5l-6.5 12.4-11.7-7.8z"/><path class="st28" d="M72.9 131.5l12.2 12-18.5 4.7zM66.7 148.1l6.2-16.5 12 11.9z"/><path class="st69" d="M59.3 142.2l13.8-10.8-6.3 16.9zM59.4 142.2l13.5-10.6-6.2 16.5z"/><path class="st42" d="M56.7 127.7l.1-.1 8.1 10.5-5.5 4.3zM56.8 127.6l2.6 14.6 5.3-4.2z"/><path class="st56" d="M56.6 127.5l16.5 4.1-8.4 6.5zM72.9 131.6l-16.1-4 7.9 10.4z"/><path class="st95" d="M56.7 127.7l-1.1-12.1 2.6-.5-1.4 12.6zM58.1 115.2l-1.3 12.4-1.2-12z"/><path class="st93" d="M56.7 127.7l1.3-12.5h.1l5.8 14.3zM63.8 129.4l-5.7-14.2-1.3 12.4z"/><path class="st96" d="M108.6 156.2c-4-3.9-7.7-4.3-9.1-4.3-.8 0-1.3.1-1.5.2l-.4.1c-.9.3-1.6.5-2.2.5-.3 0-.5 0-.6-.1h-.1l10-9.2 4.2 12.8h-.3zM94.7 152.5c.7.4 1.8-.1 3.2-.5 1.4-.4 5.9-.5 10.7 4.2l-4.1-12.7-9.8 9z"/><path class="st97" d="M94.6 143.3l.1.1c.1.1.2.1.6.1 1.2 0 3.6-.8 3.6-.8.8-.3 1.7-.4 2.4-.4 2.1 0 3.2 1 3.2 1l.1.1-10 9.2v-9.3zM94.7 143.5v9l9.8-9s-1.9-1.8-5.6-.6c0-.1-3.6 1.1-4.2.6"/><path class="st67" d="M84.9 143.3l9.9 9.1-.1.1s-1.9-.8-3.9-.8c-.7 0-1.3.1-1.8.3-1.2.4-2.4.9-3.5 1.4-1.2.6-2.3 1-2.9 1.1h-.1l2.4-11.2zM94.7 152.5s-3.2-1.3-5.8-.5c-2.6.8-5.1 2.4-6.4 2.5l2.4-11 9.8 9z"/><path class="st98" d="M84.8 143.5l2.2-1.2c.7-.3 1.5-.5 2.4-.5 2.7 0 5.3 1.6 5.3 1.6v9.3l-9.9-9.2zM94.7 143.5s-4.2-2.7-7.6-1.1l-2.1 1.1 9.8 9v-9z"/><path class="st99" d="M79.7 153.2l5.1-9.8.2.1-2.4 11.1zM82.5 154.5l-2.7-1.3 5.1-9.7z"/><path class="st71" d="M131.7 140.4l.3-4.2 6.4-4.2v.2c-1.1 4.2-6.9 10.1-6.9 10.1l-.2.2.4-2.1zM131.3 142.2s5.8-5.8 6.9-10.1l-6.2 4.1-.3 4.2-.4 1.8z"/><path class="st100" d="M132.1 134l.4-6.4-1.3-14 5 1.2-2.2 12.9-1.7 6.4zM136.1 114.8l-2.1 12.8-1.8 6.4.4-6.4-1.3-13.9z"/><path class="st92" d="M132.1 134c1.5-3.9 2.3-9.4 2.3-9.4v-.2l3.9 7.8-6.3 4.2.1-2.4zM138.2 132.1l-3.8-7.5s-.8 5.5-2.3 9.4l-.1 2.2 6.2-4.1z"/><path class="st101" d="M134.4 124.6l5.7-5.9v.2c.3 2.3-1.7 12.9-1.8 13.3v.2l-3.9-7.8zM140 118.8l-5.5 5.8 3.8 7.5c-.1 0 2-11 1.7-13.3"/><path class="st102" d="M136 114.8c.1 0 .5-.3 1.1-.3 1.1 0 2.4.7 2.9 4.3l-5.7 6 1.7-10zM136.1 114.8s3.1-1.8 3.9 4l-5.5 5.8 1.6-9.8z"/><path class="st68" d="M51.8 119.6l.1-.1 4.9 8.2-3 3.6zM53.9 131.1l-2.1-11.5 5 8z"/><path class="st45" d="M59.4 142.3c-.2-.2-4.9-4-5.1-6.1-.2-2-.4-5.1-.4-5.1l3-3.6 2.7 14.9-.2-.1zM59.4 142.2s-4.9-4-5.1-6c-.2-2-.4-5.1-.4-5.1l2.9-3.5 2.6 14.6z"/><path class="st103" d="M131.2 113.7l3.9-15.4.1.2c1.1 1.9 1 15.8 1 16.4v.1l-5-1.3zM135.1 98.5l-3.8 15.2 4.8 1.2c0-.1.1-14.5-1-16.4"/><path class="st95" d="M131.2 113.7c-.8-8.6-5.9-18.9-5.9-19l-.1-.2 10 4-3.8 15.2h-.2zM125.4 94.7s5.1 10.3 5.9 19l3.8-15.2-9.7-3.8z"/><path class="st104" d="M125.3 94.7l-1.5-8.1 11.4 11.9-.1.1zM123.9 86.8l1.5 7.9 9.7 3.8zM123.8 86.8l4.7-11.4.1.1c4.4 5.5 6.6 22.8 6.6 23v.2l-11.4-11.9zM128.6 75.6L124 86.8l11.2 11.7c-.1 0-2.3-17.4-6.6-22.9"/><path class="st105" d="M116.2 78l12.5-2.5-4.7 11.4zM116.4 78l7.5 8.8 4.7-11.2z"/><path class="st106" d="M120.7 65.3c2.4 1.9 7.8 10.1 7.9 10.2l.1.1-12.4 2.5 4.4-12.8zM120.7 65.5L116.4 78l12.2-2.4s-5.5-8.3-7.9-10.1"/><path class="st106" d="M110.2 72.2l10.7-6.9-4.5 12.9zM110.3 72.2l10.4-6.7-4.3 12.5zM107.3 58.3h.1c6.9 2.1 13.4 7.1 13.4 7.1l.1.1-10.6 6.8-3-14zM107.4 58.4l3 13.8 10.4-6.7c-.1 0-6.4-5-13.4-7.1"/><path class="st40" d="M96.7 84.6L110.4 72l6.2 6h-.1c-.1.1-14.8 5-19.6 6.7l-.2-.1zM96.7 84.7l13.6-12.5 6 5.9c.1-.1-14.7 4.9-19.6 6.6"/><path class="st107" d="M97.2 73.5l13.1-1.4v.1c-.6.4-13.5 12.4-13.6 12.5l-.1.1.6-11.3zM97.2 73.5l-.5 11.1s13-12.1 13.6-12.5l-13.1 1.4z"/><path class="st106" d="M107.4 58.2l3 14-13.3 1.4zM107.4 58.4L97.2 73.5l13.1-1.3z"/><path class="st108" d="M89.4 55.1h.1c.1 0 13.2 1.7 17.8 3.2h.1L97.2 73.7l-7.8-18.6zM89.5 55.2s13.1 1.7 17.8 3.2L97.2 73.5l-7.7-18.3z"/><path class="st106" d="M72.9 63.5c.1-.2 7.3-7.8 16.7-8.4h.1l7.8 18.6-24.6-10.2zM73 63.4s7.1-7.7 16.5-8.2l7.7 18.4L73 63.4z"/><path class="st109" d="M69.3 92.6l28-19.2-.5 11.3-27.4 8zM97.2 73.5L69.4 92.7l27.3-8z"/><path class="st107" d="M72.8 63.3l24.6 10.2-14.1 9.7zM73 63.4l10.3 19.7 13.9-9.6z"/><path class="st110" d="M72.9 63.4h.2l10.3 19.7-6.2 4.3zM77.2 87.3L73 63.4l10.3 19.7z"/><path class="st111" d="M69.3 92.6c.4-.2 4.9-5.7 7.2-8.6l.1-.1.6 3.4-7.9 5.4v-.1zM69.4 92.7c.5-.3 7.2-8.6 7.2-8.6l.6 3.2-7.8 5.4z"/><path class="st112" d="M67.2 91.9l9.4-7.9.1.1-7.3 8.6zM67.3 91.9l9.3-7.8-7.2 8.6z"/><path class="st113" d="M72.9 63.4h.2l3.6 20.7-9.3 7.8zM73 63.4l-5.5 28.3 9.1-7.6z"/><path class="st53" d="M61.4 73.5c.5-.7 10.6-10 11.6-10.1h.1L67.5 92l-6.1-18.5zM61.5 73.5c.4-.6 10.6-10 11.5-10.1l-5.5 28.3-6-18.2z"/><path class="st108" d="M55.2 90c.2-.7 4.4-15.5 6.2-16.5h.1l6.1 18.4L55.2 90zM55.3 89.9s4.3-15.4 6.2-16.4l6.1 18.2-12.3-1.8z"/><path class="st110" d="M55.1 89.8l12.6 1.8-.1.1c-.3.2-6.5 6-6.8 6.3l-.1.1-5.6-8.3zM60.8 98c.3-.3 6.8-6.3 6.8-6.3l-12.2-1.8 5.4 8.1zM57.1 108.8l-1.9-18.9.1-.1 5.5 8.1c-.3.3-2.3 6.6-3.5 10.8l-.2.1zM57.2 108.8s3-10.4 3.5-10.8l-5.5-8 2 18.8z"/><path class="st107" d="M55.6 115.7c0-.1-2.6-5.1-3-7.6-.3-2.4 2.5-17.5 2.6-18.2h.1l1.9 18.9.9 6.4-2.5.5zM58.1 115.2l-.8-6.4-1.9-18.9s-2.9 15.7-2.6 18.2c.3 2.5 2.9 7.5 2.9 7.5l2.4-.4z"/><path class="st89" d="M109.7 80.2l6.7-2.3 7.8 9.1-.1.1zM109.9 80.2l14.3 6.8-7.8-9z"/><path class="st82" d="M129.9 113.1c-.2 0-.4-.1-.4-.1-.6-.4-5.5-1.7-5.6-1.7h-.1l1.5-17 .1.2c4.8 9.7 5.8 17.5 5.8 17.6-.4.9-.9 1-1.3 1M125.4 94.7l-1.5 16.6s5 1.3 5.6 1.7c0 0 1 .4 1.6-.8 0 0-.8-7.7-5.7-17.5"/><path class="st100" d="M102.9 106.2l2.3-1.5h3.7l-2.3 4.2zM103.1 106.2l3.4 2.6 2.3-4h-3.5z"/><path class="st114" d="M108.7 104.6l3.7 3-6 1.3zM112.2 107.6l-5.7 1.2 2.3-4z"/><path class="st115" d="M108.6 104.7l8.3-.6-4.7 3.6zM116.6 104.2l-4.4 3.4-3.4-2.8z"/><path class="st116" d="M112.1 107.6l4.5-3.5 2.6 5.1zM119.1 109.1l-2.5-4.9-4.4 3.4z"/><path class="st117" d="M116.5 104l.2.1c.1 0 5.3 2.5 6.4 3.1l.1.1-4.1 1.9-2.6-5.2zM123 107.3l-3.9 1.8-2.5-4.9s5.3 2.5 6.4 3.1"/><path class="st118" d="M123.9 111.3c-.1-.2-2.5-1.3-4.8-2.1l-.2-.1 4.1-1.9 1.3.5-.3 3.6h-.1zM123.9 111.3c0-.4-4.9-2.2-4.9-2.2l3.9-1.8 1.2.5-.2 3.5z"/><path class="st119" d="M68.6 104.1h.1s4.6-.6 6.7-.6H76.3l-4.9 3.8-2.8-3.2zM76.1 103.7l-4.7 3.6-2.7-3.1c.1 0 5.8-.7 7.4-.5"/><path class="st120" d="M107.4 138.9l-4-7.3 16.4-.6-7 7.9zM103.5 131.6l16.1-.5-6.8 7.7h-5.4z"/><path class="st33" d="M104.4 143.4l8.5-4.7-4.3 17.7zM104.5 143.5l4.1 12.7 4.2-17.4z"/><path class="st29" d="M94 156h8.9l-5.3 5.6zM102.7 156.1l-5.1 5.4-3.5-5.4z"/><path class="st115" d="M104.5 143.5c-.8-.7-1.8-1-3.1-1-1.9 0-3.7.7-3.7.8l-.1.1.6-2.1h5.2l-.4-1 .1-.1 1.4 1.1.2 2.3-.2-.1zM104.5 143.5l-.2-2.1-1.4-1.1.5 1.1h-5.3l-.5 1.9c0-.1 4.5-1.9 6.9.2"/><path class="st121" d="M85.8 141.3l5.4-.4c-.2-.3-.9-1.5-2.4-1.5h-.1l.8-1.2L95 141l-3.1 1.4s-.9-.4-2.2-.4c-1.6 0-3.2.5-4.7 1.6l-.2.2 1-2.5zM84.9 143.5l1-2.1 5.4-.4s-.7-1.6-2.5-1.6l.7-1 5.3 2.6-2.9 1.3s-3.2-1.5-7 1.2"/><path class="st122" d="M119.5 131.1l13.3-3.6-7.4 11.5zM132.6 127.6l-13 3.5 5.8 7.7z"/><path class="st59" d="M51.8 119.6c-.1-1.4.2-2.5.9-3.2.8-.8 1.9-.9 2.4-.9h.6l1.1 12.1h-.1l-4.9-8zM55.6 115.6s-4-.7-3.8 4l4.9 8.1-1.1-12.1z"/><path class="st123" d="M122.3 112.3c2.6 0 3.2 2.4 3.2 2.5l.1 2.7-6.1 1 2.8-6.2zM122.3 112.3l-2.7 6 5.9-1-.1-2.6s-.5-2.3-3.1-2.4"/><path class="st99" d="M119.6 118.2l4.5 6.9-7.6.5zM116.6 125.5l3-7.2 4.4 6.7z"/><path class="st55" d="M64 124.5c-.3-.3-.6-1.2-.6-1.3l.2-5 7.4-1 .8.8-7.8 6.5zM64 124.5l7.6-6.4-.7-.7-7.3 1-.2 4.9s.3.9.6 1.2"/><path class="st55" d="M82.3 115.6s-1.9-1.2-4.5-1.2c-1 0-2 .2-3 .5l-.1-.1 4.2-2.7 3.5 3.4-.1.1zM74.7 114.9l4.2-2.7 3.4 3.3c.1 0-3.3-2.1-7.6-.6"/></g></svg>