<svg xmlns="http://www.w3.org/2000/svg" xmlns:xlink="http://www.w3.org/1999/xlink" width="192" height="234" viewBox="0 0 192 234"><style type="text/css">.st0{fill:#F2F2F2;} .st1{fill:#F69133;} .st2{clip-path:url(#SVGID_2_);} .st3{clip-path:url(#SVGID_4_);fill:#6A2A1B;} .st4{clip-path:url(#SVGID_4_);fill:#B47A65;} .st5{clip-path:url(#SVGID_4_);fill:#C9917E;} .st6{clip-path:url(#SVGID_4_);fill:#C9917F;} .st7{clip-path:url(#SVGID_4_);fill:#FADCCD;} .st8{clip-path:url(#SVGID_4_);fill:#FFE1CF;} .st9{clip-path:url(#SVGID_4_);fill:#AD7968;} .st10{clip-path:url(#SVGID_4_);fill:#BC7B74;} .st11{clip-path:url(#SVGID_4_);fill:#D8B9AF;} .st12{clip-path:url(#SVGID_4_);fill:#ECC8BB;} .st13{clip-path:url(#SVGID_4_);fill:#E4C4B5;} .st14{clip-path:url(#SVGID_4_);fill:#F8DDD3;} .st15{clip-path:url(#SVGID_4_);fill:#D49E93;} .st16{clip-path:url(#SVGID_4_);fill:#FEECE0;} .st17{clip-path:url(#SVGID_4_);fill:#FCE6DB;} .st18{clip-path:url(#SVGID_4_);fill:#E4C5BB;} .st19{clip-path:url(#SVGID_4_);fill:#FCE0D5;} .st20{clip-path:url(#SVGID_4_);fill:#FFF7E5;} .st21{clip-path:url(#SVGID_4_);fill:#FFEEDD;} .st22{clip-path:url(#SVGID_4_);fill:#FFF0E1;} .st23{clip-path:url(#SVGID_4_);fill:#FFF3E3;} .st24{clip-path:url(#SVGID_4_);fill:#FCEFE0;} .st25{clip-path:url(#SVGID_4_);fill:#FEEEDD;} .st26{clip-path:url(#SVGID_4_);fill:#FCE8DA;} .st27{clip-path:url(#SVGID_4_);fill:#FCE2D1;} .st28{clip-path:url(#SVGID_4_);fill:#9E5F45;} .st29{clip-path:url(#SVGID_4_);fill:#F8DBCF;} .st30{clip-path:url(#SVGID_4_);fill:#FEE2D7;} .st31{clip-path:url(#SVGID_4_);fill:#FBE2D4;} .st32{clip-path:url(#SVGID_4_);fill:#FFF6E5;} .st33{clip-path:url(#SVGID_4_);fill:#FCDCD0;} .st34{clip-path:url(#SVGID_4_);fill:#310803;} .st35{clip-path:url(#SVGID_4_);fill:#CD9C84;} .st36{clip-path:url(#SVGID_4_);fill:#D09482;} .st37{clip-path:url(#SVGID_4_);fill:#CD8E85;} .st38{clip-path:url(#SVGID_4_);fill:#CE9686;} .st39{clip-path:url(#SVGID_4_);fill:#804332;} .st40{clip-path:url(#SVGID_4_);fill:#FFEDD7;} .st41{clip-path:url(#SVGID_4_);fill:#FFEFDF;} .st42{clip-path:url(#SVGID_4_);fill:#FFF1E2;} .st43{clip-path:url(#SVGID_4_);fill:#FCE3D7;} .st44{clip-path:url(#SVGID_4_);fill:#FFE1D5;} .st45{clip-path:url(#SVGID_4_);fill:#CD8D79;} .st46{clip-path:url(#SVGID_4_);fill:#F8ECD7;} .st47{clip-path:url(#SVGID_4_);fill:#FCC9CB;} .st48{clip-path:url(#SVGID_4_);fill:#F2BDBA;} .st49{clip-path:url(#SVGID_4_);fill:#F2C0C5;} .st50{clip-path:url(#SVGID_4_);fill:#FDBABA;} .st51{clip-path:url(#SVGID_4_);fill:#FCC4C7;} .st52{clip-path:url(#SVGID_4_);fill:#8D3020;} .st53{clip-path:url(#SVGID_4_);fill:#912D13;} .st54{clip-path:url(#SVGID_4_);fill:#BF4D2D;} .st55{clip-path:url(#SVGID_4_);fill:#CB655D;} .st56{clip-path:url(#SVGID_4_);fill:#892716;} .st57{clip-path:url(#SVGID_4_);fill:#FEABA6;} .st58{clip-path:url(#SVGID_4_);fill:#EF816F;} .st59{clip-path:url(#SVGID_4_);fill:#F5D8CB;} .st60{clip-path:url(#SVGID_4_);fill:#FFF2E4;} .st61{clip-path:url(#SVGID_4_);fill:#FFF0DF;} .st62{clip-path:url(#SVGID_4_);fill:#E9C0B1;} .st63{clip-path:url(#SVGID_4_);fill:#936D64;} .st64{clip-path:url(#SVGID_4_);fill:#83645F;} .st65{clip-path:url(#SVGID_4_);fill:#A48488;} .st66{clip-path:url(#SVGID_4_);fill:#FDEEDF;} .st67{clip-path:url(#SVGID_4_);fill:#3B2622;} .st68{clip-path:url(#SVGID_4_);fill:#F6EADF;} .st69{clip-path:url(#SVGID_4_);fill:#F3B4AA;} .st70{clip-path:url(#SVGID_4_);fill:#612316;} .st71{clip-path:url(#SVGID_4_);fill:#673B29;} .st72{clip-path:url(#SVGID_4_);fill:#F4D0BD;} .st73{clip-path:url(#SVGID_4_);fill:#F1C49C;} .st74{clip-path:url(#SVGID_4_);fill:#3B322E;} .st75{clip-path:url(#SVGID_4_);fill:#EEE4DF;} .st76{clip-path:url(#SVGID_4_);fill:#252C31;} .st77{clip-path:url(#SVGID_4_);fill:#090B0A;} .st78{clip-path:url(#SVGID_4_);fill:#36393A;} .st79{clip-path:url(#SVGID_4_);fill:#21252E;} .st80{clip-path:url(#SVGID_4_);fill:#2E363A;} .st81{clip-path:url(#SVGID_4_);fill:#20252E;} .st82{clip-path:url(#SVGID_4_);fill:#211F1D;} .st83{clip-path:url(#SVGID_4_);fill:#35160D;} .st84{clip-path:url(#SVGID_4_);fill:#28160D;} .st85{clip-path:url(#SVGID_4_);fill:#281808;} .st86{clip-path:url(#SVGID_4_);fill:#18110D;} .st87{clip-path:url(#SVGID_4_);fill:#D7AE9B;} .st88{clip-path:url(#SVGID_4_);fill:#DFBCA6;} .st89{clip-path:url(#SVGID_4_);fill:#191D1E;} .st90{clip-path:url(#SVGID_4_);fill:#22292B;} .st91{clip-path:url(#SVGID_4_);fill:#1A2025;} .st92{clip-path:url(#SVGID_4_);fill:#1F2628;} .st93{clip-path:url(#SVGID_4_);fill:#0A0E0F;} .st94{clip-path:url(#SVGID_4_);fill:#0F1414;} .st95{clip-path:url(#SVGID_4_);fill:#212325;} .st96{clip-path:url(#SVGID_4_);fill:#111415;} .st97{clip-path:url(#SVGID_4_);fill:#262629;} .st98{clip-path:url(#SVGID_4_);fill:#080C0D;} .st99{clip-path:url(#SVGID_4_);fill:#151715;} .st100{clip-path:url(#SVGID_4_);fill:#C9A18A;} .st101{clip-path:url(#SVGID_4_);fill:#CABBB6;} .st102{clip-path:url(#SVGID_4_);fill:#A89FA7;} .st103{clip-path:url(#SVGID_4_);fill:#FFDFD7;} .st104{clip-path:url(#SVGID_4_);fill:#371A14;} .st105{clip-path:url(#SVGID_4_);fill:#BE7D6A;} .st106{clip-path:url(#SVGID_4_);fill:#9E8F88;} .st107{clip-path:url(#SVGID_4_);fill:#F5D1D4;}</style><path class="st0" d="M0 0h192v234H0z"/><path class="st1" d="M192 215.5L172.5 234H192z"/><defs><path id="SVGID_1_" d="M-25.8-30.2H210v305.1H-25.8z"/></defs><clipPath id="SVGID_2_"><use xlink:href="#SVGID_1_" overflow="visible"/></clipPath><g class="st2"><defs><path id="SVGID_3_" d="M-25.8-30.2H210v305.1H-25.8z"/></defs><clipPath id="SVGID_4_"><use xlink:href="#SVGID_3_" overflow="visible"/></clipPath><path class="st3" d="M127.4 105.2v-1.5c-.4-.3-2.6-.5-3.8-.6v-.1c.7-.3 1.5-.4 2.3-.4 1.1 0 1.9.3 2.3.4.8.3 2.1 2.3 2.1 2.4v.1l-1.5.2-1.4-.5z"/><path class="st4" d="M90.1 149.5c-.2-.3-5.9-6.4-6.3-7-.5-.7-2.2-3.1-3.5-5-.8-1.1-1.5-2.1-1.6-2.3l-.1-.1h2.6l8.9 14.4zM78.6 135.2h2.5l9 14.3s-5.9-6.4-6.3-7c-.8-1.1-4.8-6.7-5.2-7.3"/><path class="st5" d="M90.1 149.5l-5.5-8.6 10.6 5.3 3.3 7zM98.4 153.1l-8.3-3.6-5.3-8.5 10.4 5.3z"/><path class="st6" d="M98.3 153.2l-3.2-6.9.1-.1 12.1 9.8-.1.1zM107.2 156l-8.8-2.9-3.2-6.8z"/><path class="st7" d="M95.1 146.3l8.7-8.3 3.5 18.2zM103.8 138.1l-8.6 8.2 12 9.7z"/><path class="st8" d="M103.7 138.1c2.7 3.3 9.3 5.7 9.4 5.7h.1l-6 12.3-3.5-18zM113.1 143.9s-6.7-2.4-9.3-5.8l3.5 17.9 5.8-12.1z"/><path class="st9" d="M78.6 135.3c-.2-.6-1-6.8-1.1-7.1v-.1l3.7 1.8v5.4h-2.6zM77.6 128.2s.9 6.5 1.1 7h2.5v-5.3l-3.6-1.7z"/><path class="st10" d="M77.5 128.2l.7-8 6.7 8.4-3.8 1.4zM78.2 120.3l-.6 7.9 3.5 1.7 3.7-1.3z"/><path class="st11" d="M84.7 128.6l-6.5-8.2v-.1l17.4 9.6v.1zM95.6 129.9l-17.4-9.6 6.6 8.3z"/><path class="st12" d="M90.9 133.1L81 130l3.8-1.4 11 1.4-4.9 3.1zm-9.6-3.2l9.6 3 4.6-3-10.7-1.3-3.5 1.3zM90.6 129.3l-5.8-.7-3.7 1.3 9.8 3.1 4.7-3.1z"/><path class="st13" d="M84.8 141.1l-3.7-5.9v-5.4l9.8 3.2 4.4 13.4zM81.1 135.2v-5.3l9.8 3.1 4.3 13.3-10.4-5.3z"/><path class="st14" d="M90.8 133l4.8-3.2 3.8 12.6-4.2 4zM99.3 142.3l-3.7-12.4-4.7 3.1 4.3 13.3z"/><path class="st15" d="M78.2 120.4c0-.3.3-7.8 3-9.9l.1-.1-1.9 10.8-1.2-.8zM81.2 110.5L79.4 121l-1.1-.7c-.1 0 .2-7.7 2.9-9.8"/><path class="st16" d="M79.3 121l1.8-10.6 8.1-2 6.5 21.6zM89.1 108.4l-7.9 2.1-1.8 10.5 16.2 8.9z"/><path class="st17" d="M89.1 108.4l.1-.1 15.3 19.9-5.2 14.3zM104.4 128.2l-5.1 14.1-3.7-12.4-6.5-21.5z"/><path class="st18" d="M99.3 142.4v-.1c.4-.9 5-14 5-14.2h.1l-.6 9.9c-1 1.1-4.2 4.4-4.5 4.4zM104.3 128.2l-.6 9.9s-4.7 4.7-4.4 4.2c.4-.9 5.1-14.2 5-14.1"/><path class="st19" d="M98.6 113c-4.6 0-7.9-5-8-5.1l-.1-.1h.1c1.9.4 5 .8 8.2.8 1.6 0 3-.1 4.3-.3.5-.1 1-.1 1.4-.1.7 0 1.1.1 1.1.1h.1v.1c-2.2 3-4.6 4.6-7.1 4.6zM105.7 108.4s-.8-.3-2.5 0c-4.7.7-10.1 0-12.6-.5.1-.1 7.3 11 15.1.5"/><path class="st20" d="M89 108.4l1.6-.6c0 .1 3.4 5 7.9 5 2.5 0 4.9-1.5 7.1-4.4l.1-.1-1.4 20.1-15.3-20zM89.1 108.4l1.5-.6s7.3 10.9 15.1.6l-1.4 19.7-15.2-19.7z"/><path class="st21" d="M104.3 128.2l1.4-19.9 5.9 6.1-7.2 13.8zM104.3 128.2l2.7-5 4.6-8.7-5.9-6.1z"/><path class="st22" d="M104.3 128.2l2.4-4.7 5.9 10.1-8.8 2.5zM112.5 133.5l-5.8-9.9-2.4 4.6-.4 7.9z"/><path class="st23" d="M108.3 126.5l9.4.6-5.3 6.4zM117.6 127.2l-5.2 6.2-4-6.9z"/><path class="st24" d="M117.6 127.1l8 5.3h-.2c-.7 0-13 1.2-13.1 1.2h-.1l5.4-6.5zM125.4 132.3l-7.8-5.2-5.3 6.3c0 .1 12.4-1.1 13.1-1.1"/><path class="st25" d="M117.5 127.2l7.1-4.3.9 9.5zM124.5 123l-6.9 4.2 7.8 5.1z"/><path class="st26" d="M113.5 156.8c-1.9 0-4-.2-6.2-.7h-.1l5.9-12.3 11.5 7.8c0 .1-2.2 5.2-11.1 5.2"/><path class="st26" d="M124.5 151.6s-3 7.4-17.3 4.4l5.9-12.1 11.4 7.7z"/><path class="st27" d="M114.9 145.1l13.7-2.4-.1.1c-.6 1.1-2.3 3.9-2.4 4.3-.1.4-1.5 4.4-1.6 4.5v.1l-9.6-6.6zM128.5 142.8s-2.3 3.9-2.4 4.3c-.1.4-1.6 4.5-1.6 4.5l-9.5-6.4 6.7-1.2 6.8-1.2z"/><path class="st28" d="M115.8 144l5.8-1v1.1l-6.6 1.1zM121.5 143l-5.6 1.1-.8 1.1 6.4-1.2z"/><path class="st29" d="M121.5 143l12.3-14.9h.1c0 .1-1.2 5.8-1.4 6.6-.3.9-3.5 7.7-3.9 8l-7 1.3v-1zM133.8 128.2s-1.2 5.7-1.4 6.6c-.3.9-3.5 7.7-3.9 8l-6.9 1.2v-1l12.2-14.8z"/><path class="st30" d="M124.4 123l11.5-4v.1c0 .2-.4 3.8-.5 4.2-.2.4-1.6 4.9-1.6 4.9l-3.1 3.8-6.3-9zM124.5 123l6.2 8.9 3.1-3.7s1.4-4.5 1.6-4.9c.2-.4.5-4.2.5-4.2l-11.4 3.9z"/><path class="st31" d="M124.4 122.8l6.3 9.1-4.8 5.9zM124.5 123l1.5 14.7 4.7-5.8z"/><path class="st23" d="M132.9 105.4v.1c.1.3 3 6.9 3.1 7.6.3 1.2-.1 5.7-.1 5.9l-11.5 4 8.5-17.6zM132.9 105.6l-8.4 17.5 11.4-4s.5-4.7.1-5.9c-.1-.7-3.1-7.6-3.1-7.6"/><path class="st32" d="M116.9 109h.1c2.7.9 5.2 1.4 7.3 1.4 5 0 7.2-2.4 8.1-3.9l.4-.9h.1s-.1.4-.4.9l-8 16.6-7.6-14.1zM117 109.1l7.5 14 8.4-17.5s-2.5 7.9-15.9 3.5"/><path class="st33" d="M111.5 114.3l5.8 9.3-.1.1s-1.2-.8-2.6-.8c-1.2 0-2.1.6-2.8 1.7l-.1.2-.2-10.5zM111.6 114.5l5.7 9.2s-3.5-2.3-5.4.9l-.3-10.1z"/><path class="st34" d="M111.7 124.6c0-.1.9-1.9 2.9-1.9.8 0 1.7.3 2.7.9 0 0 .9.9.6 1.7-.1.4-.5.7-1.2.9l-5-1.6zM116.7 126.2l-4.8-1.7s1.5-3.3 5.4-.9c0 0 1.7 2-.6 2.6"/><path class="st35" d="M108.4 126.6l-.5-.8-.6-3.5 4.6 2.2-.3 2.3zM111.6 126.8l.2-2.3-4.4-2.1.6 3.4.4.7z"/><path class="st36" d="M106.7 123.6l.7-1.4.6 3.6h-.1zM106.7 123.6l.7-1.2.6 3.4z"/><path class="st37" d="M111.5 126.8l.3-2.4 3.7 1.3.2 1.4zM115.6 127l-.1-1.2-3.7-1.3-.2 2.3z"/><path class="st38" d="M115.6 127.1l-.2-1.4 1.2.4s.9-.2 1.1-.8c.2-.4 0-1-.6-1.7l-1.1-1.8 5.6 2.9-4.1 2.5-1.9-.1zM116.2 122l5.4 2.8-4 2.4-2-.1-.1-1.3 1.2.4s2.3-.4.6-2.6l-1.1-1.6z"/><path class="st39" d="M121.6 124.8c0-1.6 1.9-3.4 2-3.4h.1l.9 1.8-3 1.6zM123.6 121.4s-2.1 1.8-2 3.4l2.9-1.7-.9-1.7z"/><path class="st40" d="M116.2 122l.8-13.2 6.7 12.5c-2 1.7-2 3.3-2 3.4v.1l-5.5-2.8zM117 109.1l-.8 12.9 5.4 2.8s0-1.6 2-3.4l-6.6-12.3z"/><path class="st41" d="M111.5 114.5l-3.1-12.3 8.7 6.8-.8 13.2zM108.5 102.3l3.1 12.2 4.6 7.5.8-12.9z"/><path class="st42" d="M105.7 108.4l2.9-6.2 3.1 12.4zM105.7 108.4l2.8-6.1 3.1 12.2z"/><path class="st43" d="M108.5 102.4l1.4-3.2 9-5.6-1.8 15.6zM110 99.3l-1.5 3 8.5 6.8 1.8-15.4z"/><path class="st44" d="M124.4 110.4c-3.8 0-7.3-1.3-7.3-1.3h-.1l3.2-2.6c1 .1 2 .1 3 .1 5.6 0 7.1-1.6 7.1-1.6l2.7.5v.1c-1.4 3.2-4.3 4.8-8.6 4.8M120.1 106.6l-3.1 2.5s12.4 4.7 15.9-3.5l-2.6-.5s-2.1 2.2-10.2 1.5"/><path class="st45" d="M112.9 143.8l3.1.2-.9 1.2h-.1zM115.9 144.1l-2.8-.2 1.9 1.3h.1z"/><path class="st46" d="M124.2 139.6c.1-.2-.1-2.7-.3-4.3l1.7-.8.3 3.2-1.7 1.9zM125.7 134.6l-1.6.8s.5 4.1.3 4.3l1.7-2-.4-3.1z"/><path class="st47" d="M121.5 143c.6-.7.1-6.1.1-6.2l3.3-1.9-.5 4.8-2.9 3.3zM124.8 135l-3.2 1.8s.5 5.5-.1 6.2l2.8-3.4.5-4.6z"/><path class="st48" d="M113.1 143.9c-.1 0-6.7-2.5-9.4-5.8l-.1-.1h.1c.1 0 6.2.8 7.1.9l5.1 5.2-2.8-.2zM110.9 139l5 5.1-2.8-.2s-6.6-2.4-9.3-5.8c0 0 6.2.8 7.1.9"/><path class="st49" d="M110.8 138.9h.1c1.6-.2 8-.9 8-.9h.1l-3.1 6.1-5.1-5.2zM118.9 138.1s-6.4.7-8 .9l5 5.1 3-6z"/><path class="st50" d="M118.9 138l2.7 5.1-5.8 1zM121.5 143l-2.6-4.9-3 6z"/><path class="st51" d="M118.9 138.1l2.8-1.4v.1c.8 5.1-.1 6.2-.1 6.3l-.1.1-2.6-5.1zM121.6 136.8l-2.7 1.3 2.6 4.9s.9-1.1.1-6.2"/><path class="st52" d="M103.7 138.1l.1-2.1 6.2 1.1-4.1 1.5zM105.9 138.5l3.9-1.4-5.9-1-.1 2z"/><path class="st53" d="M103.9 136.1v-.1l8.6-1.1-2.7 2.3zM112.3 135l-2.5 2.1-5.9-1z"/><path class="st54" d="M112.3 135l2.6-.3 1.2 1.9-6.3.5zM116 136.5l-6 .5 2.3-2 2.5-.2z"/><path class="st55" d="M117.1 136.7c-.4 0-.8 0-1-.1l-1.3-1.9h.1c1.2.2 3.4.7 3.5.7.1 0 .9-.1 1.4-.2h.1l-1.1 1.3c-.1 0-.9.2-1.7.2"/><path class="st55" d="M118.7 136.5s-1.7.3-2.7 0l-1.2-1.7s3.4.7 3.5.7c.1 0 1.4-.2 1.4-.2l-1 1.2z"/><path class="st56" d="M118.7 136.5l1-1.2c2.1-1.5 5.8-1.9 5.9-1.9h.1l.1 1.2-.9.4c-.1-.1-.3-.1-.6-.1-1.8 0-5.5 1.6-5.6 1.6zM125.5 133.4s-3.7.4-5.8 1.8l-1 1.2s4.9-2.2 6.1-1.5l.8-.4-.1-1.1z"/><path class="st57" d="M103.9 136l8.7-2.6 8.7-.9 1.1 1.6h-.1s-1.6.5-2.6 1.2l-1.4.2-3.2-.6-.3-.1-2.5.2-8.4 1.1v-.1zM114.8 134.8l-2.5.2-8.4 1.1 8.7-2.6 8.6-.9 1 1.5s-1.6.5-2.6 1.2l-1.4.2-3.2-.6-.2-.1z"/><path class="st58" d="M121.2 132.5l4.3-.2.1 1.2h-.1c-.7 0-3.2.7-3.2.7l-1.1-1.7zM125.5 133.4l-.1-1.1-4.2.2 1 1.5c.1.1 2.6-.5 3.3-.6"/><path class="st59" d="M118.2 98.4l.1.1c.5.6 3.4.6 3.5.6h.1v.1l.3 4.3c-1.1.6-1.9 3.1-1.9 3.1l-3.2 2.6 1.1-10.8zM121.8 99.2s-3 0-3.5-.7l-1.2 10.6 3.1-2.5s.8-2.5 2-3.1l-.4-4.3z"/><path class="st60" d="M121.7 99.1c.4-.4 9.1-3.5 9.5-3.6l.1.1-9.3 8-.3-4.5zM131.2 95.6s-9.1 3.2-9.5 3.6l.3 4.3 9.2-7.9z"/><path class="st61" d="M132.9 105.6s-1.5-4-6.4-4c-.8 0-1.6.1-2.5.3v-.1l7.4-6.4 1.7 10.1-.2.1zM132.9 105.6s-2-5.3-9-3.7l7.3-6.3 1.7 10z"/><path class="st62" d="M130.2 105.1l.8-2.1.1.1c.1.1 1.7 1.6 1.9 2.5v.1l-2.8-.6zM130.3 105.1l.7-2s1.7 1.6 1.9 2.5l-2.6-.5z"/><path class="st63" d="M120.2 99.1c-.1 0-1.7-.1-2-.6l.1-1.3 4.3-.9-2.4 2.8zM118.4 97.3l4.1-.9-2.2 2.7s-1.7-.1-2-.6l.1-1.2z"/><path class="st64" d="M120.1 99.1l2.2-2.8 1.5-.3c1.9 1.3 1.8 1.4 1.8 1.4-.1 0-3.9 1.6-4 1.6l-1.5.1zM125.7 97.6c.1-.1-1.8-1.4-1.8-1.4l-1.5.3-2.2 2.7 1.5.1c0-.1 3.9-1.7 4-1.7"/><path class="st65" d="M123.8 96.1l3.2-.5 2.2.7-3.5 1.3zM129 96.3l-2-.7-3.1.6 1.8 1.4z"/><path class="st66" d="M118.7 93.6c4.3-1.7 7.9-10.7 8-10.8h.1c1.3 0 4.3 12.2 4.5 12.7l-2.3.8-2-.7-3.1.5-1.5.3-4.2.9.5-3.7zM126.8 82.9s-3.6 9.1-8 10.8l-.4 3.6 4.1-.9 1.5-.3 3.1-.5 2 .7 2.2-.8c-.1.1-3.2-13-4.5-12.6"/><path class="st67" d="M120 106.6c1-2.8 2-3.2 2-3.2.2-.1 1.7-.3 1.9-.3.5.6.7 1.3.6 1.9-.2 1.1-1.2 1.7-1.2 1.7l-3.3-.1zM123.9 103.1s-1.7.2-1.9.3c0 0-1 .4-2 3.1l3.2.1c.2.1 2.5-1.3.7-3.5"/><path class="st68" d="M123.9 106.8h-.7l.1-.1s1-.6 1.1-1.6c.1-.6-.1-1.3-.6-1.9l-.1-.1h.1s1-.1 1.9-.1c.5 0 .9 0 1.2.1.9.2 1 .7 1 .7 0 .1.3 1.9-.2 2.5.1 0-2.1.5-3.8.5M128 103.8s.3 1.9-.2 2.4c0 0-2.7.6-4.4.5 0 0 2.3-1.4.6-3.6 0 0 2.2-.2 3.1 0 .7.2.9.7.9.7"/><path class="st69" d="M127.7 106.2c.4-.8.2-2.4.2-2.4v-.2l1.8 2c-.3.2-1.7.6-2 .6l-.1.1.1-.1zM129.6 105.6l-1.6-1.8s.3 1.6-.2 2.4c0 0 1.6-.4 1.8-.6"/><path class="st70" d="M127.9 103.8l.4-2.1.1.1c1.1 1.2 2.3 2.6 2.3 2.6l-.3.8-.8.5-1.7-1.9zM128.3 101.8l-.3 2 1.6 1.8.7-.5.3-.8s-1.2-1.3-2.3-2.5"/><path class="st71" d="M127.9 103.8s-.1-.7-2.3-.7c-.5 0-1.1 0-1.7.1l-2 .3 2-1.7s1.4-.3 2.7-.3c.7 0 1.2.1 1.7.2l-.3 2.1h-.1zM122.1 103.4l1.8-1.6s2.7-.6 4.4-.1l-.3 2s0-1.1-4-.7l-1.9.4z"/><path class="st72" d="M105.7 108.4c-.6-3-4.3-3.5-6.4-3.5-1.2 0-2.1.1-2.1.1h-.1l.2-2.3 6.1-2.6h1.1c3 0 5.5-1 5.5-1.1l.1-.1-4.4 9.5zM97.3 102.9l-.2 2.2s7.7-1.2 8.7 3.4l4.2-9.2s-3.1 1.3-6.6 1l-6.1 2.6z"/><path class="st73" d="M81.1 110.4l6.4-3.7 9.9-3.9-.2 2.3c-2.5 0-6.4 2.8-6.4 2.8l-1.5.6-8.2 1.9zM90.7 107.8s3.9-2.8 6.4-2.8l.2-2.2-9.8 3.9-6.4 3.7 8-2 1.6-.6z"/><path class="st74" d="M95.1 108.6s-1.4-.6-1.1-2.4c0 0 1.7-.9 3-1.1.1 0 1.7-.3 2.3-.3h.2s1.1 3-.9 4l-3.5-.2zM99.5 104.8s1.1 2.9-.9 3.9l-3.5-.2s-1.4-.5-1-2.4c0 0 1.7-.9 3-1.1 0 0 2.2-.3 2.4-.2"/><path class="st75" d="M95.3 108.6h-.2s-.6-.1-1.4-.2c-1.8-.2-2.8-.4-3.1-.6h-.1.1c.1-.1 2.9-1.9 3.5-2h.1v.1s-.3 1.7.9 2.6l.2.1zm-4.5-.8c.3.1 1.4.3 2.9.5.5.1 1 .1 1.2.1-1-.9-.9-2.2-.9-2.5-.6.3-2.8 1.7-3.2 1.9M93.7 108.4c-1.2-.1-2.8-.4-3-.6 0 0 2.9-1.8 3.5-2 0 0-.3 1.7 1 2.7-.1.1-.7 0-1.5-.1"/><path class="st69" d="M105.7 108.5c-.1-.1-.3-.1-.8-.1-.7 0-1.6.1-1.6.1h-.1l.1-.1c.6-.8-.2-2.9-.3-2.9v-.1h.1c2.4 1 2.7 3 2.6 3.1zM103 105.5s.9 2.1.2 3c0 0 2.1-.3 2.5 0 0-.1-.2-2.1-2.7-3"/><path class="st75" d="M99.4 108.8c-.4 0-.6 0-.8-.1h-.1l.1-.1c.1 0 1.8-.8.9-3.7v-.1h.1c.1 0 2.2 0 3.4.6 0 .1.9 2.2.2 3 0 .1-2.4.4-3.8.4M99.6 104.9s2.2 0 3.4.6c0 0 .9 2.2.2 3 0 0-3.8.5-4.5.2 0 0 1.9-.8.9-3.8"/><path class="st76" d="M104.7 100.4c-.4 0-.8 0-1.2-.1h-.1l19.9-36.1c.1 0 5.9 2.8 9.3 6l-5.9 12.6c0 .1-3.4 9-8 10.8l-8.8 5.6c.1.1-2.4 1.2-5.2 1.2M132.7 70.3l-5.9 12.6s-3.4 8.9-8 10.8l-8.8 5.6s-3.1 1.4-6.4 1l19.8-36s5.8 2.8 9.3 6"/><path class="st77" d="M110.7 176l1.7-19.4h1.3c2.3 0 8-.5 10.8-5l.1.1-13.8 24.3h-.1zM110.8 176l1.7-19.3s8.4.9 12.1-5L110.8 176z"/><path class="st78" d="M124.3 151.9l16.9-.8v.1c-.1.2-8.7 16.9-30.5 24.9l-.1.1 13.7-24.3zM141.2 151.1s-8.5 16.8-30.4 24.9l13.6-24.1 16.8-.8z"/><path class="st79" d="M126 147l2.2-4c0-.1 3.6-6.6 4-8.2l1.5-6.8.1.2c.1.2 7 20.8 7.4 23v.1l-17 .8 1.8-5.1zM141.2 151.1l-16.8.8 1.7-4.9 2.2-4s3.6-6.6 4-8.2l1.4-6.6c.1 0 7 20.8 7.5 22.9"/><path class="st80" d="M133.7 128.2l1.6-5 6.6-8.6 3.3 28.1c-.2 1.1-3.8 8.1-4 8.4l-.1.1-7.4-23zM141.9 114.8l-6.5 8.4-1.6 4.9 7.4 23s3.8-7.3 4-8.4l-3.3-27.9z"/><path class="st81" d="M135.3 123.2c.3-.7.8-6.8.8-9.3 0-.5-.2-1-.4-1.6 0-.1-.1-.2-.1-.3l-2.7-6.5-1.7-10 3.3-5.2h.1c-.3 1.4 7.3 24.2 7.4 24.4l-6.7 8.5zM134.5 90.4l-3.2 5.2 1.7 10 2.7 6.5c.2.6.5 1.2.5 1.9 0 2.4-.4 8.6-.8 9.3l6.5-8.4c0-.1-7.7-23.1-7.4-24.5"/><path class="st82" d="M131.2 95.6c0-.1-2.9-12.2-4.4-12.6h-.1l6-12.8 1.8 20.2-3.3 5.3v-.1zM132.7 70.3l1.8 20-3.2 5.2s-2.9-12.2-4.5-12.7l5.9-12.5z"/><path class="st83" d="M90 149.4l8.4 3.7 9 2.9-14 7.2zM90.1 149.5l3.3 13.6 13.8-7.1-8.8-2.9z"/><path class="st84" d="M102.5 166.4c-3.3 0-6.4-1.1-9.2-3.2l-.1-.1 14-7.2.3 9.5c0 .1-2 1-5 1"/><path class="st84" d="M107.5 165.4s-7.1 3.1-14.1-2.3l13.8-7.1.3 9.4z"/><path class="st85" d="M107.2 155.9c.1 0 2.8.7 5.3.7h.1l-.4 5.1-4.6 3.8-.4-9.6zM112 161.7l-4.5 3.7-.3-9.4s2.7.7 5.2.7l-.4 5z"/><path class="st86" d="M83.7 142.5h.1l6.3 6.9 3.4 13.7h-.1zM83.8 142.5l9.6 20.6-3.3-13.6z"/><path class="st87" d="M107.5 165.4l4.6-3.8-1.3 14.5-10.4 2.5zM100.5 178.5l10.3-2.5 1.2-14.3-4.5 3.7z"/><path class="st88" d="M93.3 162.9l.2.1c2.9 2.1 6 3.2 9.2 3.2 2.9 0 4.8-.9 4.8-.9l.2-.1-7.2 13.3-7.2-15.6zM93.4 163.1l7.1 15.4 7.1-13.1c-.1 0-6.7 3.2-14.2-2.3"/><path class="st89" d="M87.4 56.9c.1 0 3-.5 7.5-.5 7.4 0 18.3 1.4 28.5 7.9l-19.9 36.1-16.1-43.5zM87.5 56.9s19-3.5 35.9 7.4l-19.8 36-16.1-43.4z"/><path class="st90" d="M87.4 56.9h.1l16.1 43.4-6.3 2.6-9.7 3.9-6.5 3.8zM81.2 110.5l6.3-53.6 16 43.4-6.2 2.6-9.8 3.8z"/><path class="st91" d="M64.8 68c5.8-7.4 22.5-11.1 22.7-11.1h.1l-6.3 53.6h-.1L64.8 68zM64.9 68c5.9-7.4 22.6-11.1 22.6-11.1l-6.3 53.5L64.9 68z"/><path class="st92" d="M51.8 86.9c.1-.2 7.6-14.8 13-18.9h.1l16.4 42.6s-2.4 1.5-2.9 9.8v.1L51.8 86.9zM51.9 86.9s7.5-14.7 13-18.9l16.3 42.5s-2.4 1.4-3 9.9L51.9 86.9z"/><path class="st93" d="M47 141.9c-4.6-23 4.7-54.7 4.8-55v-.1l12.9 16.4L47 142v-.1zM51.9 86.9s-9.4 31.8-4.8 55l17.6-38.7-12.8-16.3z"/><path class="st94" d="M64.6 103.1h.1l13.6 17.2-.7 7.9 1.1 7 2.5 18.6h-.1zM78.2 120.3l-13.5-17.2 16.4 50.7-2.5-18.6-1-7z"/><path class="st95" d="M54 126.6l10.6-23.5h.1v68.5h-.1zM54 126.5l10.7 45.1v-68.5z"/><path class="st96" d="M64.6 171.7c-6.9-3.3-15.3-12.6-15.4-12.7L47 141.9l7-15.5 10.7 45.3h-.1zM47 141.9l2.2 17s8.5 9.3 15.4 12.7L54 126.5l-7 15.4z"/><path class="st97" d="M81.1 153.8l-2.5-18.6h.1l5.1 7.3 9.7 20.6h-.1zM93.4 163.1l-12.3-9.3-2.5-18.6 5.2 7.3z"/><path class="st98" d="M93.4 179.1c-17.2 0-28.7-7.4-28.8-7.4v-68.5h.1l16.5 50.7 12.2 25.2zM93.4 179l-12.3-25.2-16.5-50.7v68.5c.1 0 11.4 7.4 28.8 7.4"/><path class="st99" d="M81.1 153.8h.1l12.3 9.3V179l-.1.1zM93.4 163.1V179l-12.3-25.2z"/><path class="st100" d="M93.4 163.1h.1l7.1 15.5h-.1c-.5.1-6.8.5-7.1.5h-.1v-16zM93.4 179s6.5-.4 7.1-.5l-7.1-15.4V179z"/><path class="st101" d="M122.6 104.3h-.3s-.1-.1-.1-.3c0-.2.5-.6.9-.6h.2s.2.2.2.3c-.1.1-.3.6-.9.6M123.4 103.8s-.3.7-1.2.4c0 0-.1 0-.1-.2 0-.1.7-.7 1.1-.5.1.1.3.2.2.3"/><path class="st102" d="M98.4 106.1c-.4 0-.6-.3-.6-.3.2-.2.4-.3.7-.3.4 0 .7.3.7.3-.4.2-.6.3-.8.3M99 105.7s-.6-.6-1.3 0c.1 0 .6.7 1.3 0"/><path class="st103" d="M107.3 122.4l4.3-8.2.3 10.4zM111.6 114.5l-4.2 7.9 4.4 2.1z"/><path class="st104" d="M90.5 107.9c2.8-2.2 5.6-3.2 8.5-3.2 3.2 0 5.3 1.3 5.5 1.6.1.2 1 1.4 1 1.4l-.1.1c-2-1.7-4.1-2.6-6.4-2.6-4.2 0-7.5 3-7.6 3l-.9-.3zM90.7 107.8l.8.2s7.1-6.6 14-.4c0 0-.9-1.3-1-1.4-.2-.3-6.4-4.1-13.8 1.6"/><path class="st69" d="M95.1 108.6l-1.3-.1-2.3-.4v-.1h2.4l2.4.6v.1zM96.3 108.6l-2.4-.6-2.4.1 2.3.3 1.3.2z"/><path class="st105" d="M128.1 101.7h.2c.1 0 1.8.5 2.8 1.3l-.5 1.3-2.5-2.6zM131 103.1l-.5 1.2-2.3-2.6c.1.1 1.9.5 2.8 1.4"/><path class="st106" d="M126.8 95.6l3-.5 1.6.5-2.4.8zM129.9 95.1l-2.9.5 2 .7 2.2-.7z"/><path class="st107" d="M105.9 138.6v-.1l4-1.5c.1 0 4.6-.5 5.9-.5h.2s.7.1 1.4.1c.5 0 .9 0 1.3-.1 0 0 3.5-1.6 5.5-1.6.3 0 .5 0 .7.1h.1l-3.3 1.9-2.7 1.3-8.1.9-5-.5zM105.9 138.5l4-1.5s5.2-.6 6.1-.5c0 0 1.6.2 2.7 0 0 0 4.5-2.1 6.1-1.5l-3.2 1.8-2.7 1.3-8 .9-5-.5z"/></g></svg>