<svg xmlns="http://www.w3.org/2000/svg" xmlns:xlink="http://www.w3.org/1999/xlink" width="192" height="234" viewBox="0 0 192 234"><style type="text/css">.st0{fill:#F2F2F2;} .st1{fill:#23A684;} .st2{clip-path:url(#SVGID_2_);} .st3{clip-path:url(#SVGID_4_);fill:#FEB694;} .st4{clip-path:url(#SVGID_4_);fill:#DBB1A2;} .st5{clip-path:url(#SVGID_4_);fill:#DCA695;} .st6{clip-path:url(#SVGID_4_);fill:#9B6C47;} .st7{clip-path:url(#SVGID_4_);fill:#CD8A67;} .st8{clip-path:url(#SVGID_4_);fill:#EF9D7B;} .st9{clip-path:url(#SVGID_4_);fill:#E4B39A;} .st10{clip-path:url(#SVGID_4_);fill:#EAA674;} .st11{clip-path:url(#SVGID_4_);fill:#F8AE7F;} .st12{clip-path:url(#SVGID_4_);fill:#F2AC7F;} .st13{clip-path:url(#SVGID_4_);fill:#F5A887;} .st14{clip-path:url(#SVGID_4_);fill:#B9815D;} .st15{clip-path:url(#SVGID_4_);fill:#DE9A7B;} .st16{clip-path:url(#SVGID_4_);fill:#DE9A78;} .st17{clip-path:url(#SVGID_4_);fill:#DC9B87;} .st18{clip-path:url(#SVGID_4_);fill:#EEB597;} .st19{clip-path:url(#SVGID_4_);fill:#C29172;} .st20{clip-path:url(#SVGID_4_);fill:#FCAF91;} .st21{clip-path:url(#SVGID_4_);fill:#E7AE88;} .st22{clip-path:url(#SVGID_4_);fill:#FDB493;} .st23{clip-path:url(#SVGID_4_);fill:#FFB38B;} .st24{clip-path:url(#SVGID_4_);fill:#F2B494;} .st25{clip-path:url(#SVGID_4_);fill:#FFB374;} .st26{clip-path:url(#SVGID_4_);fill:#F5B49A;} .st27{clip-path:url(#SVGID_4_);fill:#FFBB8E;} .st28{clip-path:url(#SVGID_4_);fill:#FEBCA4;} .st29{clip-path:url(#SVGID_4_);fill:#FAC0AC;} .st30{clip-path:url(#SVGID_4_);fill:#D79880;} .st31{clip-path:url(#SVGID_4_);fill:#E79373;} .st32{clip-path:url(#SVGID_4_);fill:#F8AA83;} .st33{clip-path:url(#SVGID_4_);fill:#D0885D;} .st34{clip-path:url(#SVGID_4_);fill:#DEAE8A;} .st35{clip-path:url(#SVGID_4_);fill:#D29D84;} .st36{clip-path:url(#SVGID_4_);fill:#F0AE86;} .st37{clip-path:url(#SVGID_4_);fill:#F8B384;} .st38{clip-path:url(#SVGID_4_);fill:#F2A48B;} .st39{clip-path:url(#SVGID_4_);fill:#E4AD87;} .st40{clip-path:url(#SVGID_4_);fill:#D39D81;} .st41{clip-path:url(#SVGID_4_);fill:#D79A7B;} .st42{clip-path:url(#SVGID_4_);fill:#C68D73;} .st43{clip-path:url(#SVGID_4_);fill:#D9A68D;} .st44{clip-path:url(#SVGID_4_);fill:#D99891;} .st45{clip-path:url(#SVGID_4_);fill:#DF9F91;} .st46{clip-path:url(#SVGID_4_);fill:#FFBD9B;} .st47{clip-path:url(#SVGID_4_);fill:#FFC18D;} .st48{clip-path:url(#SVGID_4_);fill:#EA895E;} .st49{clip-path:url(#SVGID_4_);fill:#C77B5E;} .st50{clip-path:url(#SVGID_4_);fill:#E28962;} .st51{clip-path:url(#SVGID_4_);fill:#FFAE7C;} .st52{clip-path:url(#SVGID_4_);fill:#DE8867;} .st53{clip-path:url(#SVGID_4_);fill:#F89F79;} .st54{clip-path:url(#SVGID_4_);fill:#F8A884;} .st55{clip-path:url(#SVGID_4_);fill:#BC603D;} .st56{clip-path:url(#SVGID_4_);fill:#862915;} .st57{clip-path:url(#SVGID_4_);fill:#D08367;} .st58{clip-path:url(#SVGID_4_);fill:#B96F5F;} .st59{clip-path:url(#SVGID_4_);fill:#F9A873;} .st60{clip-path:url(#SVGID_4_);fill:#EC934E;} .st61{clip-path:url(#SVGID_4_);fill:#A65B21;} .st62{clip-path:url(#SVGID_4_);fill:#D8916B;} .st63{clip-path:url(#SVGID_4_);fill:#DE9773;} .st64{clip-path:url(#SVGID_4_);fill:#D49582;} .st65{clip-path:url(#SVGID_4_);fill:#AB6C4B;} .st66{clip-path:url(#SVGID_4_);fill:#AD6F52;} .st67{clip-path:url(#SVGID_4_);fill:#BA8874;} .st68{clip-path:url(#SVGID_4_);fill:#CB987D;} .st69{clip-path:url(#SVGID_4_);fill:#88553A;} .st70{clip-path:url(#SVGID_4_);fill:#8D4F32;} .st71{clip-path:url(#SVGID_4_);fill:#A7725A;} .st72{clip-path:url(#SVGID_4_);fill:#CB785F;} .st73{clip-path:url(#SVGID_4_);fill:#B77B60;} .st74{clip-path:url(#SVGID_4_);fill:#4A1500;} .st75{clip-path:url(#SVGID_4_);fill:#2C130D;} .st76{clip-path:url(#SVGID_4_);fill:#5E321B;} .st77{clip-path:url(#SVGID_4_);fill:#622D13;} .st78{clip-path:url(#SVGID_4_);fill:#E28E73;} .st79{clip-path:url(#SVGID_4_);fill:#E79C7A;} .st80{clip-path:url(#SVGID_4_);fill:#F8A97D;} .st81{clip-path:url(#SVGID_4_);fill:#D48760;} .st82{clip-path:url(#SVGID_4_);fill:#C8886D;} .st83{clip-path:url(#SVGID_4_);fill:#975236;} .st84{clip-path:url(#SVGID_4_);fill:#A85B33;} .st85{clip-path:url(#SVGID_4_);fill:#F2A172;} .st86{clip-path:url(#SVGID_4_);fill:#7C3403;} .st87{clip-path:url(#SVGID_4_);fill:#511B03;} .st88{clip-path:url(#SVGID_4_);fill:#4A1A01;} .st89{clip-path:url(#SVGID_4_);fill:#572618;} .st90{clip-path:url(#SVGID_4_);fill:#FFA265;} .st91{clip-path:url(#SVGID_4_);fill:#FFB480;} .st92{clip-path:url(#SVGID_4_);fill:#FFB979;} .st93{clip-path:url(#SVGID_4_);fill:#FFC6AB;} .st94{clip-path:url(#SVGID_4_);fill:#FFC9A2;} .st95{clip-path:url(#SVGID_4_);fill:#FFC594;} .st96{clip-path:url(#SVGID_4_);fill:#FFC09B;} .st97{clip-path:url(#SVGID_4_);fill:#FDB08B;} .st98{clip-path:url(#SVGID_4_);fill:#EF9D6F;} .st99{clip-path:url(#SVGID_4_);fill:#AB6A42;} .st100{clip-path:url(#SVGID_4_);fill:#D07B45;} .st101{clip-path:url(#SVGID_4_);fill:#CB7A43;} .st102{clip-path:url(#SVGID_4_);fill:#C7784B;} .st103{clip-path:url(#SVGID_4_);fill:#FFAD87;} .st104{clip-path:url(#SVGID_4_);fill:#FDBA87;} .st105{clip-path:url(#SVGID_4_);fill:#F2BCA9;} .st106{clip-path:url(#SVGID_4_);fill:#EAB9A3;} .st107{clip-path:url(#SVGID_4_);fill:#F4BA9C;} .st108{clip-path:url(#SVGID_4_);fill:#DC8A56;} .st109{clip-path:url(#SVGID_4_);fill:#3A0501;} .st110{clip-path:url(#SVGID_4_);fill:#5D1B00;} .st111{clip-path:url(#SVGID_4_);fill:#5D2100;} .st112{clip-path:url(#SVGID_4_);fill:#91481B;} .st113{clip-path:url(#SVGID_4_);fill:#7A3805;} .st114{clip-path:url(#SVGID_4_);fill:#904212;} .st115{clip-path:url(#SVGID_4_);fill:#6F2600;} .st116{clip-path:url(#SVGID_4_);fill:#420809;} .st117{clip-path:url(#SVGID_4_);fill:#521300;} .st118{clip-path:url(#SVGID_4_);fill:#2D0100;} .st119{clip-path:url(#SVGID_4_);fill:#8A4213;} .st120{clip-path:url(#SVGID_4_);fill:#944E1B;} .st121{clip-path:url(#SVGID_4_);fill:#4F1301;} .st122{clip-path:url(#SVGID_4_);fill:#2F0000;} .st123{clip-path:url(#SVGID_4_);fill:#4E130E;} .st124{clip-path:url(#SVGID_4_);fill:#470D04;} .st125{clip-path:url(#SVGID_4_);fill:#320501;} .st126{clip-path:url(#SVGID_4_);fill:#501300;} .st127{clip-path:url(#SVGID_4_);fill:#471E0D;} .st128{clip-path:url(#SVGID_4_);fill:#482915;} .st129{clip-path:url(#SVGID_4_);fill:#341208;} .st130{clip-path:url(#SVGID_4_);fill:#090A0E;} .st131{clip-path:url(#SVGID_4_);fill:#E77F53;} .st132{clip-path:url(#SVGID_4_);fill:#F2A388;} .st133{clip-path:url(#SVGID_4_);fill:#DB9D64;} .st134{clip-path:url(#SVGID_4_);fill:#F8A278;} .st135{clip-path:url(#SVGID_4_);fill:#FFAC71;} .st136{clip-path:url(#SVGID_4_);fill:#FFB994;} .st137{clip-path:url(#SVGID_4_);fill:#C9875E;} .st138{clip-path:url(#SVGID_4_);fill:#CC896E;} .st139{clip-path:url(#SVGID_4_);fill:#B1734B;} .st140{clip-path:url(#SVGID_4_);fill:#B76547;} .st141{clip-path:url(#SVGID_4_);fill:#C17252;} .st142{clip-path:url(#SVGID_4_);fill:#AA6E56;} .st143{clip-path:url(#SVGID_4_);fill:#D5A292;} .st144{clip-path:url(#SVGID_4_);fill:#E3A492;} .st145{clip-path:url(#SVGID_4_);fill:#FFC7A3;} .st146{clip-path:url(#SVGID_4_);fill:#FFC69A;} .st147{clip-path:url(#SVGID_4_);fill:#FFB793;} .st148{clip-path:url(#SVGID_4_);fill:#D9905F;} .st149{clip-path:url(#SVGID_4_);fill:#6D331C;} .st150{clip-path:url(#SVGID_4_);fill:#532F17;} .st151{clip-path:url(#SVGID_4_);fill:#450E00;} .st152{clip-path:url(#SVGID_4_);fill:#4C1301;} .st153{clip-path:url(#SVGID_4_);fill:#714838;} .st154{clip-path:url(#SVGID_4_);fill:#9C4F2C;} .st155{clip-path:url(#SVGID_4_);fill:#C2A492;} .st156{clip-path:url(#SVGID_4_);fill:#E8C3C1;} .st157{clip-path:url(#SVGID_4_);fill:#623A2F;} .st158{clip-path:url(#SVGID_4_);fill:#A66752;} .st159{clip-path:url(#SVGID_4_);fill:#2D0900;} .st160{clip-path:url(#SVGID_4_);fill:#5F1C00;} .st161{clip-path:url(#SVGID_4_);fill:#441302;} .st162{clip-path:url(#SVGID_4_);fill:#44211A;} .st163{clip-path:url(#SVGID_4_);fill:#A1786E;} .st164{clip-path:url(#SVGID_4_);fill:#452420;} .st165{clip-path:url(#SVGID_4_);fill:#D5B7B0;} .st166{clip-path:url(#SVGID_4_);fill:#F5795D;} .st167{clip-path:url(#SVGID_4_);fill:#F78F80;} .st168{clip-path:url(#SVGID_4_);fill:#E7716F;} .st169{clip-path:url(#SVGID_4_);fill:#BA4F2F;} .st170{clip-path:url(#SVGID_4_);fill:#D05A45;} .st171{clip-path:url(#SVGID_4_);fill:#DC7F73;} .st172{clip-path:url(#SVGID_4_);fill:#F9A19D;} .st173{clip-path:url(#SVGID_4_);fill:#E78E89;} .st174{clip-path:url(#SVGID_4_);fill:#EF847F;} .st175{clip-path:url(#SVGID_4_);fill:#EE734E;} .st176{clip-path:url(#SVGID_4_);fill:#97421E;} .st177{clip-path:url(#SVGID_4_);fill:#B55E4B;} .st178{clip-path:url(#SVGID_4_);fill:#CB5657;} .st179{clip-path:url(#SVGID_4_);fill:#A44C43;} .st180{clip-path:url(#SVGID_4_);fill:#B1624A;} .st181{clip-path:url(#SVGID_4_);fill:#5F170E;} .st182{clip-path:url(#SVGID_4_);fill:#9A4B38;} .st183{clip-path:url(#SVGID_4_);fill:#B96A65;} .st184{clip-path:url(#SVGID_4_);fill:#FFE4DC;}</style><path class="st0" d="M0 0h192v234H0z"/><path class="st1" d="M192 215.5L172.5 234H192z"/><defs><path id="SVGID_1_" d="M-27.2 51.8H226V305H-27.2z"/></defs><clipPath id="SVGID_2_"><use xlink:href="#SVGID_1_" overflow="visible"/></clipPath><g class="st2"><defs><path id="SVGID_3_" d="M-27.2 51.8H226V305H-27.2z"/></defs><clipPath id="SVGID_4_"><use xlink:href="#SVGID_3_" overflow="visible"/></clipPath><path class="st3" d="M96.9 178.5c-17.3 0-31.5-21.1-31.5-47s14.1-47 31.5-47c17.3 0 31.5 21.1 31.5 47-.1 25.9-14.2 47-31.5 47M128.2 131.5c0 25.9-14 46.9-31.4 46.9-17.3 0-31.4-21-31.4-46.9s14-46.9 31.4-46.9c17.4-.1 31.4 21 31.4 46.9"/><path class="st4" d="M97.3 179.3c-4 0-7.2-.8-7.2-.8H90l6.5-11.2 7.5 11.2h-.1c-2.1.5-4.3.8-6.6.8zM90.1 178.4s7 1.8 13.7 0l-7.4-10.9-6.3 10.9z"/><path class="st5" d="M96.2 167.3l16.9 6-.2.1c-.3.2-7.4 4.7-9.1 5.1h-.1l-7.5-11.2zM112.9 173.3s-7.3 4.7-9.1 5.1l-7.4-10.9 16.5 5.8z"/><path class="st6" d="M113.5 163.6l9.1 1.3-.1.1c-1 1.4-9.2 8.1-9.6 8.4l-.2.1.8-9.9zM113.6 163.7l-.7 9.6s8.6-6.9 9.6-8.3l-8.9-1.3z"/><path class="st7" d="M96.1 167.4l17.6-3.8-.7 9.8zM96.4 167.5l17.2-3.8-.7 9.6z"/><path class="st8" d="M96.3 159.2l10.9 6-10.9 2.4zM96.4 159.3v8.2l10.6-2.4z"/><path class="st9" d="M90.1 178.5c-1-.2-8.9-5.3-9.2-5.5l-.2-.1 15.9-5.6-6.5 11.2zM80.9 172.9s8.1 5.2 9.2 5.5l6.3-10.9-15.5 5.4z"/><path class="st10" d="M80.9 173c-1.3-.8-7.5-7.3-7.8-7.6l-.1-.1 12.7-4-4.8 11.7zM73.1 165.4s6.5 6.7 7.8 7.6l4.6-11.5-12.4 3.9z"/><path class="st11" d="M85.5 161.3l11.2 6.2-15.9 5.6zM96.4 167.5l-10.9-6.1-4.6 11.5z"/><path class="st12" d="M73.1 165.4c-2.3-2.4-4.8-9.7-4.9-10l-.1-.2 17.7 6.2-12.7 4zM68.2 155.4s2.6 7.6 4.9 10l12.4-3.9-17.3-6.1z"/><path class="st13" d="M85.2 161.4l11.3-2.2v8.4zM96.4 159.3l-10.9 2.1 10.9 6.1z"/><path class="st14" d="M113.5 163.8l3.8-6.7h8.8v.1c-.3 1.2-3.3 7.6-3.5 7.9v.1l-9.1-1.4zM117.3 157.1l-3.7 6.6 8.8 1.3s3.1-6.7 3.5-7.9h-8.6z"/><path class="st15" d="M106.4 153.7l7.4 10-6.9 1.6zM107 165.1l-.5-11.1 7.1 9.7z"/><path class="st16" d="M106.2 153.9l11.3 3.1-3.9 6.8zM117.3 157.1l-10.8-3.1 7.1 9.7z"/><path class="st17" d="M96.2 159.3l.2-.1c.1 0 8.7-3.5 10-5.3l.2-.2.5 11.5-10.9-5.9zM96.4 159.3s8.7-3.5 10-5.3l.5 11.1-10.5-5.8z"/><path class="st18" d="M106.3 154.1l.1-.1c1.9-1.4 5.4-5.2 5.4-5.2v-.1l5.9 2.9-.4 5.6-11-3.1zM111.9 148.8s-3.5 3.8-5.4 5.2l10.8 3.1.4-5.4-5.8-2.9z"/><path class="st19" d="M117.2 157.2l.4-5.5 10.7-7.3v.2c-.2 5.2-2.2 12.5-2.3 12.6v.1h-8.8zM128.2 144.6l-10.5 7.1-.4 5.4h8.6s2-7.3 2.3-12.5"/><path class="st20" d="M84.8 153l.2-.1s2 3 11.5 6.3l.3.1-11.4 2.2-.6-8.5zM84.9 153s1.9 3 11.6 6.4l-10.9 2.1-.7-8.5z"/><path class="st21" d="M68.2 155.4c-.2-.6-2.6-10.4-2.7-10.9v-.1l15.1 2.6-12.3 8.6-.1-.2zM65.5 144.6s2.5 10.3 2.7 10.8l12-8.4-14.7-2.4z"/><path class="st22" d="M68.2 155.3l12.1-8.4.1.1c0 .1 4.2 5.5 4.6 5.9v.1l-16.8 2.5v-.2zM84.9 153l-16.6 2.5 12-8.4s4.2 5.4 4.6 5.9"/><path class="st23" d="M68.2 155.5v-.2l16.7-2.4.7 8.7zM85.5 161.4l-17.3-6 16.7-2.4z"/><path class="st24" d="M65.4 144.6l-1.1-9.1 12.9 11.1zM64.5 135.7l1 8.9 11.4 1.9z"/><path class="st25" d="M64.4 135.7c-.1-.5-1.4-13.5-.7-16v-.1l9.6 3.1-8.9 13.3v-.3zM73.1 122.8l-8.7 12.9s-1.4-13.4-.7-16l9.4 3.1z"/><path class="st26" d="M64.3 135.7l15.1-3.4-2.5 14.4zM76.9 146.5l2.4-14.1-14.8 3.3z"/><path class="st27" d="M73 122.7h.2c1.4.2 3 .3 4.8.3 6 0 12.1-1.3 12.1-1.3l.3-.1-11.1 10.9-6.3-9.8zM90.1 121.8s-9.8 2.1-16.9 1l6.2 9.6 10.7-10.6z"/><path class="st28" d="M79.2 132.5L90 121.8l.2.1-6.7 12.9zM83.5 134.7l-4.2-2.3 10.8-10.6z"/><path class="st29" d="M76.8 146.5l2.5-14.2 4.3 2.3-6.6 11.9zM83.5 134.7l-6.6 11.8 2.4-14.1z"/><path class="st30" d="M118.8 132.2l9.5 12.4-10.7 7.3zM117.7 151.7l1.2-19.3 9.3 12.2z"/><path class="st31" d="M118.8 132.4l12-5.4-2.6 17.8zM130.7 127.1l-11.8 5.3 9.3 12.2z"/><path class="st3" d="M106.3 129.2l12.7-1.6v4.8l-.8 12.4zM106.5 129.3l11.6 15.3.8-12.2v-4.7z"/><path class="st32" d="M101.5 121.7l17.4 5.9v.2l-12.5 1.6zM101.7 121.8l4.8 7.5 12.4-1.6z"/><path class="st33" d="M118.8 127.7l11.3-12.5.7 12-12 5.4zM130 115.4l-11.1 12.3v4.7l11.8-5.3z"/><path class="st34" d="M111.7 148.8l6.5-4.4-.4 7.5zM111.9 148.8l6.2-4.2-.4 7.1z"/><path class="st35" d="M106.4 129.3l.1-.1 11.8 15.4-6.5 4.4zM106.5 129.3l5.4 19.5 6.2-4.2z"/><path class="st36" d="M76.7 146.5l4.5-7.9 6.5 6-7.4 2.5zM87.5 144.6l-7.2 2.5-3.4-.6 4.3-7.7z"/><path class="st37" d="M81 138.7l9.8-1.2-3.3 7.2zM90.6 137.7l-3.1 6.9-6.3-5.8z"/><path class="st38" d="M85 131.5l2 6.7-6 .7zM85 131.8l1.9 6.3-5.7.7z"/><path class="st39" d="M87.4 144.7l3.2-7.2 6.6 7.2zM97 144.6h-9.5l3.1-6.9z"/><path class="st40" d="M107.7 145.9c-.1 0-9.4-1.2-10.8-1.2h-.2l5.6-7.2 5.6 8.4h-.2zM107.8 145.8s-9.4-1.2-10.8-1.2l5.4-6.9 5.4 8.1z"/><path class="st41" d="M107.7 145.8l1-8.2h.2l3.2 11.5zM108.8 137.7l-1 8.1 4.1 3z"/><path class="st42" d="M102.2 137.6l5.8-3.1.9 3.1-1.1 8.4zM108 134.7l-5.6 3 5.4 8.1 1-8.1z"/><path class="st43" d="M90.4 137.5l6.1 1.7 6.1-1.7-5.6 7.2zM90.6 137.7l5.8 1.6 6-1.6-5.4 6.9z"/><path class="st44" d="M96.3 132.3l4.9 3.4-4.9 3.8zM96.4 132.4v6.9l4.6-3.6z"/><path class="st45" d="M92.1 135.3l4.4-3v7.2zM92.2 135.3l4.2-2.9v6.9z"/><path class="st46" d="M96.4 121.2h.2l-.1 11.3-4.4 3zM92.2 135.3l4.3-14.1-.1 11.2z"/><path class="st47" d="M92.1 135.3L90 121.7l6.6-.6-4.3 14.2zM90.1 121.8l6.4-.6-4.3 14.1z"/><path class="st48" d="M96.4 121.1l5.4.7-.7 13.9-.2.1zM101.7 121.8l-.7 13.9-4.5-14.5z"/><path class="st49" d="M100.8 135.8l4.8-3.5 1 3.2-1.6.9zM105.6 132.4l-4.6 3.3 4 .6 1.5-.8z"/><path class="st50" d="M101.6 121.8h.2l3.9 10.7-4.8 3.4zM101.7 121.8l3.9 10.6-4.6 3.3z"/><path class="st51" d="M87.4 134.8l2.6-13h.2l2.1 13.6zM87.5 134.7l4.7.6-2.1-13.5z"/><path class="st52" d="M87.4 134.6l5.1.6-5.7 3.1zM86.9 138.1l.6-3.4 4.7.6z"/><path class="st53" d="M84.9 131.8l5.1-10h.2L87 138.1h-.2zM85 131.8l1.9 6.3 3.2-16.3z"/><path class="st54" d="M101.6 121.9l.2-.1 4.7 7.4 1.6 5.5-1.7.9zM106.5 135.5l-4.8-13.7 4.8 7.5 1.5 5.4z"/><path class="st55" d="M89.8 136.4l2.4-1.2 1.9 1.7zM93.8 136.8l-3.7-.4 2.1-1.1z"/><path class="st56" d="M99.6 136.7l1.4-1.1 2.7.3v.2l-4.1.8zM99.6 136.8l4.1-.8-2.7-.3z"/><path class="st57" d="M90.6 137.7l-3.7.5v-.2l3.1-1.7 3.9.4 2.6 2.5-.1.2zM86.9 138.1l3.2-1.7 3.7.4 2.6 2.5-5.8-1.6z"/><path class="st58" d="M96.4 139.2l3.2-2.5 3.9-.7 1.8.2-2.9 1.5-5.9 1.7zM96.4 139.3l3.2-2.5 3.9-.7 1.5.2-2.6 1.4z"/><path class="st59" d="M63.6 119.8l4.8-6.7 4.9 9.8zM68.4 113.3l-4.7 6.4 9.4 3.1z"/><path class="st60" d="M64.4 98.5h.1l3.9 14.8-4.8 6.7zM64.5 98.5l-.8 21.2 4.7-6.4z"/><path class="st61" d="M129.3 98.5h.2l.6 17-5.9 6.6zM129.4 98.5l-5.1 23.3 5.7-6.4z"/><path class="st62" d="M117.6 120.3l6.9 1.5-5.7 6.1zM117.7 120.4l1.2 7.3 5.4-5.9z"/><path class="st63" d="M109.8 124.7l7.9-4.4 1.3 7.6zM110 124.7l7.7-4.3 1.2 7.3z"/><path class="st64" d="M103.7 119.4l.1-.2c1.2.5 13.8 1.1 13.9 1.1h.3l-8 4.4-6.3-5.3zM103.7 119.4l6.3 5.3 7.6-4.3c.1 0-12.6-.5-13.9-1"/><path class="st65" d="M119.6 120.9l6.6-8.3.2.1-2 9.2zM126.3 112.7l-6.5 8.2 4.5.9z"/><path class="st66" d="M116.3 111.7h.1c5.7.3 7.9 3.4 8 3.5v.1l-4.3 5.4-3.8-9zM116.4 111.8l3.7 8.7 4.2-5.3s-2.2-3.1-7.9-3.4"/><path class="st67" d="M120 120.5c-2.5-3.2-6.4-5-6.5-5h-.1l3-3.9 3.7 8.8-.1.1zM113.6 115.4s4 1.8 6.5 5l-3.7-8.7-2.8 3.7z"/><path class="st68" d="M108.6 112.3h.2c2.6-.5 7.6-.5 7.7-.5h.2l-3 3.9-5.1-3.4zM108.8 112.3l4.8 3.1 2.8-3.6s-5 0-7.6.5"/><path class="st69" d="M105.5 117.2l3.3-5 4.9 3.2-.1.2c-.8-.2-1.5-.3-2.3-.3-3.5 0-5.7 2.1-5.7 2.1l-.1-.2zM105.6 117.3s3.2-3.1 8-1.9l-4.8-3.1-3.2 5z"/><path class="st70" d="M101.6 115.9c1.6-3.5 7.2-3.7 7.2-3.7h.2l-3.4 5.2-4-1.5zM101.7 115.8l3.9 1.4 3.2-5c0 .1-5.5.2-7.1 3.6"/><path class="st71" d="M101.5 115.7l4.2 1.5-2 2.3zM103.7 119.4l1.9-2.1-3.9-1.5z"/><path class="st72" d="M101.5 121.9l2.2-2.7 6.4 5.4-.1.2zM101.7 121.8l2-2.4 6.3 5.3z"/><path class="st73" d="M101.6 115.5l2.3 3.9-2.3 2.7zM101.7 115.8v6l2-2.4z"/><path class="st74" d="M104.8 113.2c-.1-.1-.2-.2 1.6-5.2v-.1l8.4 3.9h-.4s-3.6.2-5.7.5c.1.1-2 .1-3.9.9zM104.8 113.1c-.2.1 1.6-5.1 1.6-5.1l8 3.7s-3.6.2-5.7.5c.1.1-2 .1-3.9.9"/><path class="st75" d="M106.2 108l.2-.1s4.6-1.1 8.5-1.1c1.7 0 3 .2 4 .6l.1.1-4.6 4.4-8.2-3.9zM118.9 107.5l-4.4 4.3-8-3.7c0-.1 8.5-2.2 12.4-.6"/><path class="st76" d="M121.6 113.2c-2.7-1.3-6-1.4-7-1.4h-.4l4.7-4.5 3 6-.3-.1zM121.7 113.1l-2.8-5.6-4.4 4.3s4.1-.1 7.2 1.3"/><path class="st77" d="M121.6 113.2l-2.9-5.8H119c2.3 0 7.1 5 7.3 5.2l.1.1-2.1 2.6-2.7-2.1zM126.3 112.7s-5.3-5.5-7.4-5.2l2.8 5.6 2.6 2 2-2.4z"/><path class="st78" d="M83.5 119.3h6.2l.6 2.6h-.1c-2.4.7-9.7 1.2-9.8 1.2h-.2l3.3-3.8zM90.1 121.8l-.5-2.5h-6.1l-3.2 3.7c0 .1 7.3-.4 9.8-1.2"/><path class="st79" d="M74.5 119.7h.2c.9-.2 8.4-.4 8.7-.4h.2l-3.4 3.9-5.7-3.5zM74.8 119.7l5.5 3.3 3.2-3.7c0 .1-7.9.3-8.7.4"/><path class="st80" d="M78.2 123.2c-1.9 0-4.3-.1-5.1-.3H73l1.7-3.2 5.9 3.5h-2.4M73.1 122.8l1.6-3.1 5.5 3.3c.1.1-5.8.2-7.1-.2"/><path class="st81" d="M68.1 113.3l5.1-2.1 2.9 6.3zM75.9 117.3l-2.8-6-4.7 2z"/><path class="st82" d="M73 111.3h.1c1.5-.4 3.3-.6 5.3-.6 1.6 0 2.8.1 2.9.1h.2l-5.5 6.6-3-6.1zM81.2 110.9s-4.3-.5-8.1.4l2.8 5.9 5.3-6.3z"/><path class="st83" d="M75.9 117.2l5.3-6.4c.2 0 5.3.1 6.4.7l.1.1-2.9 3.4h-.1s-.6-.1-1.5-.1c-1.6 0-4.6.3-7.2 2.6l-.1-.3zM84.7 114.8s-4.9-.9-8.8 2.5l5.3-6.4s5.3.1 6.3.7l-2.8 3.2z"/><path class="st84" d="M89.5 117.7c-1.4-.9-4.2-2.7-4.8-2.8h-.2l3-3.4 2.4.8-.3 5.5-.1-.1zM89.6 117.6s-4.1-2.7-4.9-2.8l2.8-3.2 2.3.7-.2 5.3z"/><path class="st85" d="M71.5 119.7h3.4l-1.8 3.3zM74.8 119.7h-3.2l1.5 3.1z"/><path class="st86" d="M70.2 107.3l3.1 4.1-5.1 2zM70.2 107.5l-1.8 5.8 4.7-2z"/><path class="st87" d="M70.1 107.4h.1s4-1.7 7.8-1.7h.5l-5.4 5.8-3-4.1zM78.4 105.8l-5.2 5.6-2.9-3.8c-.1-.1 4.2-1.9 8.1-1.8"/><path class="st88" d="M78.4 105.6l3 5.4h-.2c-.9-.1-1.7-.1-2.6-.1-3.4 0-5.5.5-5.5.5l-.3.1 5.6-5.9zM81.2 110.9l-2.8-5.1-5.2 5.6c-.1-.1 2.9-.9 8-.5"/><path class="st75" d="M78.2 105.7h.2c.2 0 6.1.3 8.3 2.3l.1.1-5.5 3-3.1-5.4zM86.6 108l-5.3 2.9-2.8-5.1c-.1 0 5.9.2 8.1 2.2"/><path class="st89" d="M87.5 111.6c-1.7-.6-6.3-.7-6.3-.7v-.2l5.4-2.9 3.5 4.6-2.6-.8zM89.8 112.3l-3.3-4.3-5.3 2.9s4.6 0 6.3.7l2.3.7z"/><path class="st90" d="M64.4 98.5l1-10.1 7.3 15.3-2.4 3.8-2 6.1zM65.4 88.7l-.9 9.8 3.9 14.8 1.8-5.8 2.4-3.8z"/><path class="st91" d="M72.5 103.6l5.1-8.5.8 10.8H77.6c-2.9 0-7.3 1.7-7.3 1.7l-.3.1 2.5-4.1zM77.6 95.4l-5 8.3-2.3 3.8s5.2-2.1 8.1-1.7l-.8-10.4z"/><path class="st92" d="M65.3 88.7c0-.1 1.4-3.2 3.5-6.3 2-2.9 5-6.3 8.4-6.3h.1l.4 19.3-5.1 8.5-7.3-15.2zM77.2 76.2l.4 19.2-5 8.3-7.1-14.9c-.1-.1 5.2-12.6 11.7-12.6"/><path class="st93" d="M96.4 78.1h.2L97 107l-10.6 1.1zM96.5 78.1L86.6 108l10.4-1.1z"/><path class="st94" d="M77 76.1h3.4c5 0 13.8.3 16.1 2h.1l-10.1 30.2L77 76.1zM77.2 76.2s16.1-.5 19.3 1.9l-10 29.9-9.3-31.8z"/><path class="st95" d="M86.5 108.1s-1.9-1.9-8.1-2.2h-.1l-.8-10.4-.4-19.2h.2l9.4 31.8h-.2zM78.4 105.8l-.8-10.4-.4-19.2 9.4 31.8s-1.9-2-8.2-2.2"/><path class="st96" d="M96.4 78h.1c.2 0 15.4 2.1 17 2.1H113.8l-7.3 28.2L96.4 78zM113.6 80.2l-7.1 27.8-10-29.9s16.6 2.3 17.1 2.1"/><path class="st97" d="M113.5 80.2h.2l5.3 27.4-.2-.1c-.8-.4-2.1-.6-3.8-.6-3.9 0-8.6 1.1-8.6 1.1h-.1l7.2-27.8zM118.9 107.5l-5.3-27.3-7.1 27.8s8.9-2.2 12.4-.5"/><path class="st98" d="M113.5 80.2l16 18.3-10.7 9.2zM129.4 98.5l-10.5 9-5.2-26.9z"/><path class="st99" d="M126.2 112.8c0-.1-4.8-5.2-7.2-5.2h-.4l10.9-9.3-3.2 14.7-.1-.2zM126.3 112.7s-4.9-5.4-7.4-5.2l10.5-9-3.1 14.2z"/><path class="st100" d="M121.4 89.5l6.7-4v.1c.6 1.2 1.3 12.4 1.3 12.9v.3l-8-9.3zM128.1 85.6l-6.5 3.9 7.9 9c-.1 0-.8-11.7-1.4-12.9"/><path class="st101" d="M120.9 79.5h.2c1.8 0 6.9 5.8 7.1 6.1l.1.1-6.8 4.1-.6-10.3zM121 79.6l.5 9.9 6.5-3.9c.1 0-5.3-6.2-7-6"/><path class="st102" d="M113.4 80.1l7.7-.6.5 10.3zM113.6 80.2l7.4-.6.5 9.9z"/><path class="st103" d="M96.5 121.3l-6.6.6 3.9-7.8 8.2 7.9zM93.8 114.3l-3.7 7.5 6.4-.6 5.2.6z"/><path class="st104" d="M93.7 114.3l7.4-2.1.7 3.6v6.2zM101 112.3l.7 3.5v6l-7.9-7.5z"/><path class="st105" d="M100.9 112.3l-4.2-5.6 9.8 1.2-1.7 5.3c-2.3.7-3.1 2.6-3.1 2.7l-.1.3-.7-3.9zM97 106.9l4.1 5.4.7 3.5s.8-2 3.1-2.7l1.6-5.1-9.5-1.1z"/><path class="st106" d="M86.4 107.9l10.9-1.1-7.5 5.6zM86.6 108l3.2 4.3 7.2-5.4z"/><path class="st107" d="M89.7 112.3l7.3-5.5 4.2 5.6-7.4 2zM93.8 114.3l-4-2 7.2-5.4 4 5.4z"/><path class="st108" d="M89.5 119.4v-1.8l.2-5.4 4.3 2.1-3.9 7.8zM89.6 119.4v-1.8l.2-5.3 4 2-3.7 7.5z"/><path class="st109" d="M63.5 125.6c-1.5-3.7-8-9.6-8.1-9.7 0 0 9.9-27.1 10-27.2l.2.1v.1c-.7 2.2-1.8 36.4-1.8 36.7h-.3zM65.4 88.7l-9.9 27.1s6.5 5.9 8.1 9.7c0 0 1.2-35.3 1.8-36.8"/><path class="st110" d="M55.4 115.8c.6-8 3.6-33.4 3.6-33.6V82l6.5 6.7-10 27.2-.1-.1zM59.1 82.2s-3 25.5-3.6 33.6l9.9-27.1-6.3-6.5z"/><path class="st111" d="M62.3 85.6l5.9-14 8.6 4.5c3 0 3 0 3 .1s0 .1-2.6.1c-5.8 0-11.6 12.4-11.7 12.5l-.1.1-3.1-3.3zM68.2 71.7l-5.8 13.9 3 3.1s5.8-12.5 11.7-12.5h-.5l-8.4-4.5z"/><path class="st112" d="M59 82.2l9.2-10.6.1.1-5.9 14.1zM59.1 82.2l9.1-10.5-5.8 13.9z"/><path class="st113" d="M96.4 78.2c-2.1-1.4-11.2-1.9-11.3-2h-.3l7.4-4.7 4.3 6.5-.1.2zM92.2 71.7l-7 4.5s9.2.5 11.3 2l-4.3-6.5z"/><path class="st114" d="M76.7 76.3v-.2h.5l8.3-4.5 2.2 3.1-2.5 1.6h-8zM77.2 76.2l8.3-4.5 2 3-2.3 1.5h-8.5z"/><path class="st115" d="M85.3 71.6h7.2l-5 3.2zM92.2 71.7h-6.7l2 3 4.2-2.6z"/><path class="st116" d="M68.1 71.7c1.3-1.5 8.9-8.9 9-8.9l.2-.2-.5 13.7-8.7-4.6zM77.2 62.9s-7.7 7.4-8.9 8.8l8.5 4.5.4-13.3z"/><path class="st117" d="M77.1 62.8c.8-.8 11.3-4.7 11.8-4.9l.2-.1-3.4 13.9-9 4.5.4-13.4zM88.9 58.1S78 62.2 77.2 62.9l-.5 13.3 8.8-4.5 3.4-13.6z"/><path class="st118" d="M85.4 71.8L88.8 58c.4-.1 1.5-.2 3.3-.2 3.1 0 7.4.2 7.4.2h.1l-7.5 13.8h-6.7zM99.6 58.1s-9.6-.4-10.7 0l-3.4 13.7h6.7l7.4-13.7z"/><path class="st119" d="M92 71.5l9.9 3.4-5.4 3.4zM101.7 74.9l-9.5-3.2 4.3 6.4z"/><path class="st120" d="M96.2 78.2l5.5-3.4 5 4.8zM106.5 79.4l-4.8-4.5-5.2 3.2z"/><path class="st121" d="M92.1 71.8l7.6-14 2.1 17.3zM99.6 58.1l2.1 16.8-9.5-3.2z"/><path class="st122" d="M106.5 79.5l-4.9-4.5-2.1-16.9.2-.1 14.1 22.3zM113.6 80.2l-14-22.1 2.1 16.8 4.8 4.5z"/><path class="st123" d="M99.4 57.9h.2c.6.1 13.6 2 14.9 3.1L110 74.7 99.4 57.9zM114.5 61.1L110 74.6 99.6 58.1s13.6 1.9 14.9 3"/><path class="st124" d="M109.9 74.6l4.6-13.8 6.6 18.9-7.5.6zM121 79.6l-6.5-18.5-4.5 13.5 3.6 5.6z"/><path class="st125" d="M114.3 60.9l.2.2c.1.1 11.3 7.7 12.6 8.9l.1.1-6.2 9.8-6.7-19zM127.1 70l-6.1 9.6-6.5-18.5s11.2 7.7 12.6 8.9"/><path class="st126" d="M128 85.7c-3.3-4.3-7-6-7-6h-.1l6.2-9.8 5.4 7.8-4.4 8.1-.1-.1zM128.1 85.6l4.3-8-5.3-7.7-6.1 9.6c0 .1 3.7 1.7 7.1 6.1"/><path class="st127" d="M128 85.6l4.4-8.2.1.1c.1.1 6.8 12.4 7.4 21.4v.3L128 85.6zM139.8 99l-11.7-13.4 4.3-8c0 .1 6.7 12.3 7.4 21.4"/><path class="st128" d="M129.5 107.5c-.2-9.6-1.5-21.7-1.5-21.9v-.3L140 99l-10.4 8.6-.1-.1zM129.6 107.5l10.2-8.5-11.7-13.4s1.3 12.2 1.5 21.9"/><path class="st129" d="M129.5 107.5l10.4-8.7v.2c0 .1-.6 12.2-2.7 17.1l-.1.1-7.6-8.7zM137.1 116.1l-7.5-8.6 10.2-8.5s-.6 12.1-2.7 17.1"/><path class="st130" d="M129.5 107.2l7.7 8.9-6.6 11.3zM130.7 127.1l6.4-11-7.5-8.6z"/><path class="st131" d="M54.7 127.1c-.1-.4-1.7-10.6.8-11.4h.1l4.3 4.4-5.1 7.3-.1-.3zM54.7 127.1s-1.7-10.5.7-11.3l4.2 4.3-4.9 7z"/><path class="st132" d="M57.2 123.5l2.5-3.6 3.9 5.6 1.4 13.9-.2.1zM64.9 139.5l-7.6-16 2.4-3.4 3.9 5.4z"/><path class="st133" d="M65.3 143s-3.8-.4-5.7-2.7l-.1-.1 5.5-.8.4 3.7-.1-.1zM65.3 142.9s-3.8-.4-5.6-2.7l5.2-.8.4 3.5z"/><path class="st134" d="M60.9 130.8l4.1 8.7-5.4.8zM60.9 131.1l-1.2 9.1 5.2-.7z"/><path class="st135" d="M59.6 140.3c0-.1-3.5-6.6-4.2-9.1v-.1H61l-1.3 9.5-.1-.3zM55.5 131.1H61l-1.3 9.1s-3.5-6.5-4.2-9.1"/><path class="st136" d="M55.4 131.2l-.8-4.1 2.7-3.8 3.8 7.9zM54.7 127.1l.8 4h5.4l-3.6-7.6z"/><path class="st137" d="M129.3 144.2c-.6 0-1.1-.1-1.1-.1h-.1l.7-4.9 7-.5v.1c-.8 4.8-4.8 5.4-6.5 5.4"/><path class="st137" d="M128.2 144s6.4 1.1 7.5-5.2l-6.8.5-.7 4.7z"/><path class="st138" d="M138.9 131.7l.1.1-3.2 7.1-7.2.5zM138.9 131.8l-10 7.5 6.8-.5z"/><path class="st139" d="M130.6 126.9l2.9 3.8-1 6-3.7 2.8zM130.7 127.1l2.7 3.6-1 5.9-3.5 2.7z"/><path class="st140" d="M137 122.9l3.6 2.6-1.6 6.3-3 2.3zM136.1 133.9l1-10.8 3.4 2.4-1.6 6.3z"/><path class="st141" d="M137 123.1l1.9-6.1h.1c.3 0 .6.1.8.4 1.5 1.6.9 7.9.9 8.2v.2l-3.7-2.7zM138.9 117.1l-1.8 6 3.4 2.5c0-.1.8-8.5-1.6-8.5"/><path class="st142" d="M130.6 127.1l6.5-11.1 1.9 1-1.8 6.1-6.5 4.1zM137.1 116.1l1.8 1-1.8 6-6.4 4z"/><path class="st143" d="M133.3 130.8l-2.8-3.7 6.7-4.2-1 11.2zM136.1 133.9l-2.7-3.2-2.7-3.6 6.4-4z"/><path class="st144" d="M133.3 130.5l2.9 3.4-3.9 2.9zM132.4 136.6l3.7-2.7-2.7-3.2z"/><path class="st145" d="M96.9 107l-.5-28.9h.2l10 30zM106.5 108l-9.5-1.1-.5-28.8z"/><path class="st146" d="M73.1 122.6l6.4 9.9-15.2 3.4zM73.1 122.8l6.2 9.6-14.8 3.3z"/><path class="st147" d="M96.3 132.5l.1-11.3h.2l4.6 14.8zM96.5 121.2l-.1 11.2 4.6 3.3z"/><path class="st148" d="M71.5 119.8l-3.4-6.8 8 4.2-.1.1c-.7.5-2.7 1.8-2.8 2.4v.1h-1.7zM75.9 117.3s-2.7 1.7-2.8 2.5h-1.5l-3.3-6.5 7.6 4z"/><path class="st149" d="M73.1 119.7c.1-.1 1.6-2 2.9-2.5l1.4.8-1.7 1.7-2.7.1.1-.1zM77.2 118l-1.6 1.6-2.4.1s1.5-2 2.8-2.5l1.2.8z"/><path class="st150" d="M75.7 117.2l5.2-1.2v.2l-3.7 1.9zM80.9 116.1l-3.7 1.9-1.3-.7z"/><path class="st151" d="M75.9 117.2s2.4-2.3 5.9-2.5h.2l-1 1.5-5.3 1.3.2-.3zM81.7 114.8l-.9 1.3-4.9 1.2s2.3-2.3 5.8-2.5"/><path class="st152" d="M81.7 114.7h3.1l-.3 1.1-3.8.4zM84.4 115.7l-3.5.4.8-1.3h3z"/><path class="st153" d="M84.3 115.8l.3-1.1.1.1c.2.1 4.5 2.3 4.9 2.8l.2.2-5.5-2zM89.6 117.6l-5.1-1.9.3-.9c-.1 0 4.4 2.2 4.8 2.8"/><path class="st154" d="M88.1 119.5c-.4-1.1-1.2-2.7-1.6-2.9l.1-.2 3.1 1.1v1.9h-1.6zM88.2 119.4s-1.1-2.7-1.6-2.9l3 1.1v1.8h-1.4z"/><path class="st155" d="M77.1 118l1.8-1v.2s0 1.6.9 2.3l.2.2-4.7.2 1.8-1.9zM78.8 117.2s0 1.7.9 2.3l-4.2.2 1.6-1.6 1.7-.9z"/><path class="st156" d="M84 119.5l.2-.2s.8-.6.9-3.3v-.1l1.4.5s.8.5 1.7 2.9v.1H84zM88.2 119.4h-3.9s.8-.6 1-3.3l1.3.5c0-.1.7.4 1.6 2.8"/><path class="st157" d="M79.7 119.6c-.9-.7-.9-2.3-.9-2.4v-.1l2.1-1.1c.7-.2 3.5-.4 3.6-.4l.9.3v.1c-.1 2.6-1 3.4-1 3.4l-4.7.2zM78.8 117.2s0 1.7.9 2.3l4.5-.1s.9-.8 1-3.3l-.8-.3s-2.9.2-3.6.4l-2 1z"/><path class="st156" d="M80.8 116.1l.4-.3 2.1-.1-.2 1.4-1 .8zM80.9 116.1l1.2 1.6.9-.6.2-1.3-2 .1z"/><path class="st158" d="M107.1 119.9c-.1 0-.1 0-.2-.1l-3.3-.4 1.9-2.2 1.1-.8v.2c-.1.8-.2 2.8.4 3.1h.3v.2h-.2"/><path class="st158" d="M106.5 116.6s-.3 3.5.7 3.2l-3.4-.5 1.8-2.1.9-.6z"/><path class="st159" d="M118.1 120.6c-.8-1.4-3.6-3.2-3.6-3.2l-.9-2.1h.1c1.2 0 4.5 2.9 4.6 3l-.1 2.5-.1-.2zM113.6 115.4l.9 1.9s2.8 1.8 3.7 3.2l.1-2.1c-.1 0-3.6-3-4.7-3"/><path class="st160" d="M118 120.6v-2.5l.2.1c.2.2 1.9 1.8 2 2.1l-.4.5-1.8-.2zM119.8 120.9l-1.6-.3v-2.2s1.9 1.7 2 2.1l-.4.4z"/><path class="st161" d="M114.4 117.4c-1.1-.8-4.1-1.1-4.1-1.1v-.2l3.4-.8 1 2.3-.3-.2zM110.3 116.2s3 .3 4.2 1.1l-.9-1.9-3.3.8z"/><path class="st162" d="M106.4 116.5c1.7-1 3.4-1.6 5-1.6 1.4 0 2.2.3 2.2.4l.3.1-3.6.9h-.2c-1.2 0-3.5 1-3.6 1l-.1.1v-.9zM106.5 117.2s2.8-1.1 3.8-1l3.3-.8s-3.2-1.3-7.1 1.2v.6z"/><path class="st163" d="M117.7 120.5l-4-.2v-.2c1.1-.2 1.9-2.1 1.9-2.1v-.1h.1c1 .4 2.5 2.4 2.6 2.5l.1.2-.7-.1zM115.6 118.1s-.8 2-2 2.2l4.1.2.5.1c-.1-.1-1.7-2.1-2.6-2.5"/><path class="st164" d="M109.4 120.1c-.4 0-.5-2.3-.6-3.7v-.1h.1c.5-.1 1.1-.2 1.7-.2 2.9 0 5.1 1.9 5.1 1.9v.1c-.9 2.1-2 2.2-2 2.2l-4.3-.2zM108.9 116.4s.1 3.6.5 3.6l4.2.3s1.1-.1 2-2.2c0 0-2.9-2.7-6.7-1.7"/><path class="st165" d="M106.9 119.9c-.7-.6-.5-2.6-.5-2.7.4-.3 2.4-.8 2.5-.8h.1v.1c0 2.9.5 3.6.5 3.6l.1.2-2.7-.4zM106.5 117.2s-.2 2.1.4 2.6l2.5.2s-.5-.7-.5-3.6c0 0-2.1.4-2.4.8"/><path class="st156" d="M111.5 118.5l-.6-2.6 3.4 1.2-1.6 1.8zM111 116l.5 2.4 1.2.4 1.5-1.6z"/><path class="st166" d="M87.1 152.1h.1c.3.1 1 .1 2 .1 1.8 0 4-.1 4-.1v.2l-6.2 2.9v-3.1zM93.3 152.2s-5.1.3-6.1 0v2.8l6.1-2.8z"/><path class="st167" d="M88.3 154.4l5-2.3h3.9l-2.3 2-6.6.5zM94.8 154l-6.5.5 5-2.3H97z"/><path class="st168" d="M94.6 154.1l2.3-2h2.2l2.1 2zM101 154l-1.9-1.8H97l-2.2 1.8z"/><path class="st169" d="M104 151.9h5l-.2.2c-.1.1-1.6 1.6-2.3 2-.1 0-1.5 1.2-1.8 1.4l-.1.1-.6-3.7zM104.7 155.4l-.6-3.4h4.6s-1.6 1.6-2.3 2c.1 0-1.4 1.2-1.7 1.4"/><path class="st170" d="M101 154.1l-2.1-2h.2c.4 0 5-.2 5-.2h.1l.6 3.6-3.8-1.4zM101 154l3.7 1.4-.6-3.4s-4.6.2-5 .2l1.9 1.8z"/><path class="st171" d="M100.8 153.9l4.1 1.5-.2.1c-.3.1-6.8 3.7-8.3 3.9h-.3l4.7-5.5zM96.4 159.3l4.4-5.3 3.8 1.4c.1 0-6.7 3.7-8.2 3.9"/><path class="st172" d="M94.7 154h6.4l-4.7 5.5zM94.8 154l1.6 5.3 4.5-5.3z"/><path class="st173" d="M96.5 159.4c-.7 0-5.4-2.1-5.6-2.2l-.1-.1 4.1-3.2 1.7 5.4-.1.1zM90.9 157.1s5.1 2.3 5.6 2.2l-1.7-5.2-3.9 3z"/><path class="st174" d="M90.9 157.2c-.5-.2-3.6-2-3.7-2.1l-.2-.1 1.3-.6 6.8-.5-4.2 3.3zM87.2 155s3.2 1.9 3.7 2.1l3.9-3.1-6.5.4-1.1.6z"/><path class="st175" d="M87.1 155.1c-.1-.1-2.2-1.8-2.3-2.1-.2-.2-3.1-4-3.1-4l.1-.1 5.5 3.3v3l-.2-.1zM87.2 152.2l-5.5-3.3s3 3.8 3.1 4c.2.2 2.3 2 2.3 2v-2.7z"/><path class="st176" d="M81.7 149l-1.6-2 1.8-.6 4.2 1.4-2.1 2.6zM85.9 147.9l-1.9 2.4-2.3-1.4-1.4-1.8 1.7-.6z"/><path class="st177" d="M85.9 147.8l-4.1-1.4 5.7-1.9 4.4 3.3zM91.6 147.7h-5.7l-3.8-1.3 5.4-1.8z"/><path class="st178" d="M91.6 147.8l-4.4-3.3H97l2.8 3.3zM99.6 147.7h-8l-4.1-3.1H97z"/><path class="st179" d="M99.6 147.8l-2.9-3.4 10.3 3.3v.1zM107 147.7h-7.4l-2.6-3.1z"/><path class="st180" d="M96.9 144.7v-.2c.4 0 9.6.9 10.8 1.2h.1l-.9 2.2-10-3.2zM107.8 145.8l-.8 2-10-3.2s9.6.8 10.8 1.2"/><path class="st181" d="M106.9 147.8l.8-2.2 4.3 3.2-1.3 1.3zM110.7 150l-3.7-2.3.8-1.9 4.1 3z"/><path class="st182" d="M106.2 152l3.2-2.9 1.5.9-2.1 2.1zM106.5 152l2.9-2.8 1.3.8-2 2z"/><path class="st183" d="M83.8 150.3l1.4-1.6 1.8 3.5zM86.8 152l-1.6-3.2-1.2 1.5z"/><path class="st184" d="M86.7 152l-1.6-3.2.8-1.1H107l2.6 1.5-3.1 2.8-19.3.3zM85.9 147.7l-.7 1.1 1.6 3.2.4.2 19.3-.2 2.9-2.8-2.4-1.5z"/></g></svg>