<svg xmlns="http://www.w3.org/2000/svg" width="192" height="234" viewBox="0 0 192 234"><style type="text/css">.st0{fill:#F2F2F2;} .st1{fill:#D54339;} .st2{fill:#382819;} .st3{fill:#5D3C2A;} .st4{fill:#593922;} .st5{fill:#3F200D;} .st6{fill:#5E3A24;} .st7{fill:#582A14;} .st8{fill:#5D3015;} .st9{fill:#43240F;} .st10{fill:#9F6645;} .st11{fill:#6A3E25;} .st12{fill:#DCB08B;} .st13{fill:#E9BE9D;} .st14{fill:#552313;} .st15{fill:#713820;} .st16{fill:#CF966E;} .st17{fill:#8C5132;} .st18{fill:#C8815C;} .st19{fill:#AC5D36;} .st20{fill:#241506;} .st21{fill:#955731;} .st22{fill:#C67F5D;} .st23{fill:#DDAF8B;} .st24{fill:#582E16;} .st25{fill:#632B11;} .st26{fill:#7B3F25;} .st27{fill:#77412F;} .st28{fill:#4E2512;} .st29{fill:#DDA382;} .st30{fill:#EAB695;} .st31{fill:#E2B996;} .st32{fill:#E8C29F;} .st33{fill:#EAC8A5;} .st34{fill:#E8C6A5;} .st35{fill:#E4C19A;} .st36{fill:#E5BC97;} .st37{fill:#E7BA99;} .st38{fill:#DAAC88;} .st39{fill:#E5C39F;} .st40{fill:#E4B390;} .st41{fill:#E2AD8C;} .st42{fill:#E8B996;} .st43{fill:#E9C8A7;} .st44{fill:#E8C8A4;} .st45{fill:#E6C19B;} .st46{fill:#221A10;} .st47{fill:#E1C5A6;} .st48{fill:#030000;} .st49{fill:#EAC3A2;} .st50{fill:#8F2F14;} .st51{fill:#DEB18D;} .st52{fill:#6F381C;} .st53{fill:#451F0B;} .st54{fill:#4F250F;} .st55{fill:#220A00;} .st56{fill:#301004;} .st57{fill:#562B1B;} .st58{fill:#DEAF89;} .st59{fill:#99421F;} .st60{fill:#CA805A;} .st61{fill:#DDA888;} .st62{fill:#D59774;} .st63{fill:#BF724D;} .st64{fill:#0A0000;} .st65{fill:#B96338;} .st66{fill:#AA542D;} .st67{fill:#B15F30;} .st68{fill:#C27247;} .st69{fill:#BE693D;} .st70{fill:#BF6C40;} .st71{fill:#CB7F53;} .st72{fill:#D59266;} .st73{fill:#D3885B;} .st74{fill:#E1AE8C;} .st75{fill:#E3B995;} .st76{fill:#E2B087;} .st77{fill:#EFC29F;} .st78{fill:#ECC9AB;} .st79{fill:#ECCBAA;} .st80{fill:#48260B;} .st81{fill:#18100B;} .st82{fill:#040000;} .st83{fill:#010200;} .st84{fill:#1E1309;} .st85{fill:#9F592E;} .st86{fill:#873F1D;} .st87{fill:#AC6241;} .st88{fill:#AE6341;} .st89{fill:#B56E43;} .st90{fill:#DEA984;} .st91{fill:none;stroke:#FFFFFF;stroke-width:0.25;stroke-miterlimit:10;} .st92{fill:#E7BC97;} .st93{fill:#E6B894;} .st94{fill:#DCA881;} .st95{fill:#D39365;} .st96{fill:#CE895D;} .st97{fill:#BD6B3B;} .st98{fill:#4B2610;} .st99{fill:#241301;} .st100{fill:#EBCCAB;} .st101{fill:#E4BF9D;} .st102{fill:#E2B38F;} .st103{fill:#ECCEAA;} .st104{fill:#E3B18B;} .st105{fill:#D3855D;} .st106{fill:#EDCCAA;} .st107{fill:#E4B48F;} .st108{fill:#CE7C56;} .st109{fill:#F0CFAE;} .st110{fill:#000101;} .st111{fill:#101407;} .st112{fill:#030B05;} .st113{fill:#794A35;} .st114{fill:#111911;} .st115{fill:#391A05;} .st116{fill:#021107;} .st117{fill:#010202;} .st118{fill:#010102;} .st119{fill:#000702;} .st120{fill:#111811;} .st121{fill:#030803;} .st122{fill:#0E130B;} .st123{fill:#090F06;} .st124{fill:#0B0E05;} .st125{fill:#1F1605;} .st126{fill:#000001;} .st127{fill:#010100;} .st128{fill:#000902;} .st129{fill:#040700;} .st130{fill:#010000;} .st131{fill:#020700;} .st132{fill:#D86548;} .st133{fill:#D86F54;} .st134{fill:#E58469;} .st135{fill:#D7674C;} .st136{fill:#DD725A;} .st137{fill:#CC533A;} .st138{fill:#DAAE83;} .st139{fill:#D99F72;} .st140{fill:#DCB18D;} .st141{fill:#522117;} .st142{fill:#D3996E;} .st143{fill:#DA9D78;} .st144{fill:#824321;} .st145{fill:#E9C6A2;} .st146{fill:#DBA67E;} .st147{fill:#D79770;} .st148{fill:#ECC5A1;}</style><path class="st0" d="M0 0h192v234H0z"/><path class="st1" d="M192 215.5L172.5 234H192z"/><path class="st2" d="M85 179.4c-3.9 0-7.8-1.5-7.9-1.5l3.2-8.5 8.4 9.5c-1.1.3-2.3.5-3.7.5zM80.2 169.4l-3.2 8.5s6.9 2.7 11.5.9l-8.3-9.4z"/><path class="st3" d="M89.4 171.9l6.6 2.5-7.4 4.4zM96 174.4l-7.4 4.4.8-6.9z"/><path class="st4" d="M80.2 169.4l9.2 2.5-.8 6.9zM80.2 169.4l9.2 2.5-.8 6.9z"/><path class="st5" d="M89.4 171.9l8.5-4.6-1.9 7.1zM97.9 167.3l-8.5 4.6 6.6 2.5z"/><path class="st6" d="M97.9 167.3l13.6-1c-2 1.9-15.3 8-15.5 8l1.9-7zM111.5 166.4l-13.6.9-1.9 7.1s13.5-6.1 15.5-8z"/><path class="st7" d="M112.8 159.2h7.6l-8.9 7.2zM120.4 159.2l-8.9 7.2 1.3-7.2z"/><path class="st8" d="M97.9 167.3l14.9-8.1-1.3 7.2-13.6.9zM97.9 167.3l14.9-8.1-1.3 7.2z"/><path class="st9" d="M77.1 177.9c-2.9-.9-6.1-7-6.2-7l9.3-1.5-3.1 8.5zM70.9 170.8s3.2 6.2 6.2 7l3.2-8.5-9.4 1.5z"/><path class="st10" d="M112.8 159.3l6.3-13 6.6-5.1c-.6 5.6-5.3 17.9-5.4 18h-7.5zM125.7 141.2l-6.6 5.1-6.3 12.9h7.6s4.7-12.3 5.3-18z"/><path class="st11" d="M124.5 129.6l1.2 11.6-6.6 5.1zM124.5 129.6l-5.4 16.7 6.6-5.1z"/><path class="st12" d="M96 157.7l16.8 1.5-14.9 8.1zM96 157.7l1.9 9.6 14.9-8.1z"/><path class="st13" d="M91.1 155.5c3.3 0 4.9 2.2 4.9 2.2l1.9 9.6-8.5 4.6 1.7-16.4zM91.1 155.5l-1.7 16.4 8.5-4.6-1.9-9.6s-1.5-2.2-4.9-2.2z"/><path class="st14" d="M77.1 163.3l7.7-.8-3.8 4.8zM77.1 163.3l3.9 4 3.8-4.8z"/><path class="st15" d="M73.4 162.5l3.7.8-2.7 1.6zM73.5 162.5l.9 2.4 2.7-1.6z"/><path class="st16" d="M74.4 164.9l6.6 2.4-.8 2.1-9.3 1.5zM70.9 170.8l3.5-5.9 6.6 2.4-.8 2.1z"/><path class="st17" d="M96 157.7c-1.6-2.2-4.9-2.2-4.9-2.2l2.5-5.2 4.3 2.5-1.9 4.9zM93.7 150.2l-2.5 5.2s3.3 0 4.9 2.2l1.9-4.9-4.3-2.5z"/><path class="st18" d="M67.7 162.5h5.8l.9 2.4-3.5 6zM67.7 162.5l3.2 8.3 3.5-5.9-.9-2.4z"/><path class="st19" d="M67.7 162.5l-.5-7 2.9-.6 3.4 7.6zM67.2 155.5l.5 7h5.8l-3.4-7.6z"/><path class="st20" d="M66 149l4.1 5.9-2.9.6zM66 149l1.2 6.5 2.9-.6zM66 149l3.5-1 .6 7zM69.5 148l-3.5 1 4.1 5.9z"/><path class="st21" d="M67.7 162.5c-1.1-1-5.5-9.8-5.6-9.9L66 149l1.3 6.5.4 7zM62.1 152.6s4.5 8.9 5.6 9.9l-.5-7L66 149l-3.9 3.6z"/><path class="st22" d="M73.5 162.5l-3.4-7.5c0 .1 2.7 5.8 6.8 6l.3 2.4-3.7-.9zM76.8 160.9l.3 2.3-3.6-.8-3.4-7.5s2.6 5.8 6.7 6z"/><path class="st23" d="M76.8 160.9c.7.1 1.4.1 2.1.1 6.1 0 10-3.3 11.4-4.8l.7-.8s-.2.3-.7.8l-5.6 6.2-7.7.8-.2-2.3zM91.1 155.5s-5 6.6-14.3 5.5l.3 2.3 7.7-.8 6.3-7z"/><path class="st24" d="M69.5 148l1.8-2.4s2.5 1.8 4.5 1.8h.2l-6 6.5-.5-5.9zM76 147.5l-6 6.5-.5-5.9 1.8-2.4c0-.1 2.3 1.5 4.7 1.8z"/><path class="st25" d="M76 147.5l3 6-9 .5zM79 153.5l-9 .5 6-6.5z"/><path class="st26" d="M76 147.5l2.5-1.2 5.5.8-5 6.4zM84 147.1l-5 6.4-3-6 2.5-1.2z"/><path class="st27" d="M79 153.5l5-6.4 4.6 6.9zM88.6 154l-4.6-6.9-5 6.4z"/><path class="st28" d="M88.6 154l-4.6-6.9 9.7 3.1-2.6 5.3zM91.1 155.5l-2.5-1.5-4.6-6.9 9.7 3.1z"/><path class="st29" d="M77 155.7c-.8 0-1.3-.3-1.3-.3-2.2-.5-3.6-.6-4.4-.6-.9 0-1.2.1-1.2.1l-.1-1 9-.4-.5 1.9c-.5.2-1 .3-1.5.3zM70.1 154.9s1.3-.5 5.6.5c0 0 1.1.6 2.8 0l.5-1.9-9 .4.1 1z"/><path class="st30" d="M91.1 155.5c-1.6-.2-3.9-.4-6.4-.4-2.8 0-5.5.2-6.2.4l.5-1.9 9.6.4 2.5 1.5zM91.1 155.5c-4.1-.6-11.4-.4-12.7 0l.5-1.9 9.6.4 2.6 1.5z"/><path class="st31" d="M96 157.7l1.9-4.9 21.2-6.5-6.3 13zM119.1 146.3l-21.2 6.5-1.9 4.9 16.8 1.5z"/><path class="st32" d="M99.8 133.7l19.3 12.6-21.2 6.5zM99.8 133.7l-1.9 19.1 21.2-6.5z"/><path class="st11" d="M121.5 138.8l.9-14.8 3.3.2-1.2 5.4-3 9.2zM122.4 124l-.9 14.8 3-9.2 1.2-5.4z"/><path class="st33" d="M109.2 139.9l12.8-9.6-.5 8.5-2.4 7.5zM109.2 139.9l12.8-9.6-.5 8.5-2.4 7.5z"/><path class="st34" d="M121.5 110.6l.9 13.4-.4 6.3-12.8 9.6zM121.5 110.6l.9 13.4-.4 6.3-12.8 9.6z"/><path class="st35" d="M99.8 133.8l16.7-11.4-7.3 17.5zM99.8 133.7l16.7-11.3-7.3 17.5z"/><path class="st36" d="M93.7 150.3l-4.9-9.7 11-6.9-1.9 19.1zM88.8 140.6l4.9 9.6 4.2 2.6 1.9-19.1z"/><path class="st37" d="M99.2 129.6l8.4-1.1-7.8 5.3zM99.3 129.6l.5 4.1 7.8-5.2z"/><path class="st38" d="M104.6 125l3 3.5-8.4 1.1zM104.6 125l-5.3 4.6 8.3-1.1z"/><path class="st39" d="M104.6 125c.1 0 11.1-2.6 11.9-2.6l-9 6.1-2.9-3.5zM116.5 122.4c-.8.1-11.9 2.6-11.9 2.6l2.9 3.5 9-6.1z"/><path class="st40" d="M93.7 137.5l5.5-7.9.6 4.1-6.1 3.9zM93.7 137.5l5.6-7.9.5 4.1z"/><path class="st41" d="M90.4 129.1l8.9.5-5.6 8zM90.4 129.1l3.3 8.4 5.6-7.9z"/><path class="st42" d="M90.4 129.1l3.3 8.4-4.9 3.1zM88.8 140.6l1.6-11.5 3.3 8.4z"/><path class="st43" d="M85 124.4l5.4 4.7-1.6 11.5zM85 124.4l5.4 4.7-1.6 11.5z"/><path class="st44" d="M109.2 114.5l12.3-3.9-5 11.8zM109.2 114.5l7.3 7.9 5-11.8z"/><path class="st45" d="M109.2 114.5l7.3 7.9-11.9 2.6zM104.6 125l4.6-10.5 7.3 7.9z"/><path class="st41" d="M90.4 129.1l3-3.7 5.9 4.2zM93.4 125.4l-3 3.7 8.9.5zM85 124.5l8.4.9-3 3.7zM85 124.4l8.4 1-3 3.7z"/><path class="st46" d="M97.7 125.4h-.4c-1-.1-1.7-.4-2.2-1.1-.8-1.2-.3-2.9-.3-2.9.3-.1.7-.2 1.2-.2 1.8 0 4.5.7 4.6.7 0 0 .1 1.7-.8 2.7-.6.6-1.3.8-2.1.8zM94.8 121.4s-1.1 3.7 2.5 4 3.3-3.5 3.3-3.5-3.9-1.1-5.8-.5z"/><path class="st47" d="M98.9 125.2s1.8-.5 1.7-3.3c.1 0 2.2 1.4 1.8 2 0 .1-2 1.1-3.5 1.3zM102.4 124s-2 1.1-3.5 1.2c0 0 1.8-.5 1.7-3.3 0 .1 2.1 1.4 1.8 2.1z"/><path class="st48" d="M102.7 124h-.3s0-.8-1.8-2c0 0-2-.7-4.2-.7-.6 0-1.1 0-1.5.1h-.1c-.7 0-4.2.1-6.2 1.5 0 0 2-2.3 6.8-2.3h.9c.3 0 3.2 0 6.4 1.7.3.2.6.5.6.8.1.3 0 .5-.1.7-.1.2-.3.2-.5.2zM88.5 123s2.1-2.5 7.7-2.3c0 0 3.1 0 6.4 1.7.3.2.6.4.6.8.1.4 0 1-.8.8 0 0 0-.8-1.8-2 0 0-3.1-1-5.7-.5-.1-.1-4.2-.2-6.4 1.5z"/><path class="st41" d="M93.4 125.4H97.7c.7 0 1.2-.2 1.2-.2 1.3-.2 3.5-1.2 3.5-1.2h.6l1.7 1-5.4 4.6-5.9-4.2zM104.6 125l-1.7-1h-.6s-2.2 1-3.5 1.2c0 0-.7.3-1.6.2 0 0-3.3.1-3.9 0l5.9 4.1 5.4-4.5z"/><path class="st49" d="M84 147.1l-5.5-.8 1.5-1 6.6-1.1 2.2-3.6 4.9 9.7zM78.5 146.3l1.5-1 6.6-1.1 2.2-3.6 4.9 9.6-9.7-3.1z"/><path class="st50" d="M80 145.3s-.2-.1-.2-.2c0-.2.3-.5 1.6-.9 0 0 2.8-.6 4.5-.6.4 0 .8 0 1 .1l-.3.6-6.6 1zM81.4 144.2s4.2-.9 5.5-.5l-.3.6-6.7 1c.1 0-.8-.3 1.5-1.1z"/><path class="st51" d="M103 124c.3-.3.4-.5.3-.8-.2-1-2.7-1.6-2.7-1.6v-4.1l6.2 2.6-2.1 4.9-1.7-1zM100.6 117.4v4.1s3.9 1 2.4 2.4l1.7 1 2.1-4.9-6.2-2.6z"/><path class="st52" d="M81.3 113.8l2.7-2.9 4.1 3.3-4.1 1.6zM84 110.9l-2.7 2.9 2.7 2 4.1-1.6z"/><path class="st53" d="M84 110.9l6.4-.8-2.3 4.2zM90.4 110.1l-6.4.8 4.1 3.3z"/><path class="st54" d="M90.4 110.1l4.8 3.2-7.1 1zM95.2 113.4l-4.8-3.3-2.3 4.1z"/><path class="st55" d="M90.4 110.1s3-.1 5.4-.1c1.1 0 1.9 0 2.4.1l-3 3.4-4.8-3.4zM98.2 110l-3 3.4-4.8-3.3s5.8-.3 7.8-.1z"/><path class="st56" d="M95.2 113.4l3-3.4c.2.1 3.6 3.1 3.6 3.4h-6.6zM101.8 113.4c0-.2-3.6-3.4-3.6-3.4l-3 3.4h6.6z"/><path class="st57" d="M101.8 113.4l-3.6-3.4 5.9.6 5.1 3.9zM109.2 114.5l-7.4-1.1-3.6-3.4 5.9.6z"/><path class="st58" d="M100.6 117.4l1-4 7.6 1.1-2.4 5.6zM101.6 113.4l-1 4 6.2 2.6 2.4-5.5z"/><path class="st59" d="M85 124.5l3.5-1.5s0 1.6 4.9 2.4l-8.4-.9zM85 124.4l3.5-1.5s-.1 1.6 4.9 2.4l-8.4-.9z"/><path class="st60" d="M87.7 116.8l4.6 4.2c-1.9.3-3.8 1.9-3.8 2l-3.5 1.5 2.7-7.7zM87.7 116.8l-2.7 7.6 3.5-1.5s1.9-1.7 3.8-2l-4.6-4.1z"/><path class="st61" d="M87.7 116.9s3.1-1.2 6.7-1.2c.7 0 1.3 0 2 .1l-4.1 5.3-4.6-4.2zM96.4 115.8l-4.1 5.2-4.6-4.2s4.2-1.6 8.7-1zM100.6 121.5c-1.9-.7-3.9-.8-5.3-.8-1.7 0-2.9.2-3 .3l4.1-5.2 4.2 1.6v4.1zM100.6 117.4l-4.2-1.6s-4.2 5.5-4.1 5.2c.2-.2 3.9-.6 8.3.5v-4.1z"/><path class="st62" d="M96.3 115.8l-1.1-2.4 6.4-.1-1 4.1zM95.2 113.4l1.2 2.4 4.2 1.6 1-4z"/><path class="st63" d="M88.1 114.2l7.1-.9 1.2 2.4c-.7-.1-1.3-.1-2-.1-3.9 0-6.7 1.2-6.7 1.2l.4-2.6zM88.1 114.2l-.5 2.6s3.8-1.6 8.7-1.1l-1.1-2.4-7.1.9z"/><path class="st60" d="M85 124.5c-.1 0-.8-7.2-1-8.7l4.1-1.5-.5 2.6-2.6 7.6zM84 115.8s.9 8.9.9 8.7c.1-.2 2.7-7.6 2.7-7.6l.5-2.6-4.1 1.5z"/><path class="st46" d="M67.8 125h-.3s-1.3-.2-2-1.3c-.5-.8-.5-1.8-.1-3 0 0 .6-.2 1.6-.2 1.2 0 2.4.3 3.6.8 0 0 .4 1.7-.5 2.8-.5.6-1.3.9-2.3.9zM70.6 121.3s.8 3.9-3.1 3.7c0 0-3.4-.5-2.1-4.3 0 0 2.3-.7 5.2.6z"/><path class="st47" d="M69.2 124.7c2-1 1.4-3.4 1.4-3.5 1 .2 2.5 1.7 2.5 1.7-.2.8-3.8 1.8-3.9 1.8zM73.1 123s-1.5-1.5-2.5-1.7c0 0 .6 2.5-1.4 3.5 0-.1 3.7-1.1 3.9-1.8z"/><path class="st64" d="M73.1 123c-1.2-1.2-2.5-1.7-2.5-1.7-1.3-.6-2.7-.7-3.6-.7-.9 0-1.6.1-1.6.1-2.4.1-3.5 1.2-3.5 1.2-.9.8-1.8 1-2.4 1-.6 0-1-.2-1-.2 1.5 0 2.2-1.7 2.2-1.7.2-.5 1.3-.7 1.3-.7 1.6-.2 3-.3 4.3-.3 3.8 0 5.5.9 6.2 1.7.6.6.6 1.3.6 1.3zM60.7 121s-.7 1.8-2.3 1.7c0 0 1.9.7 3.4-.9 0 0 1.1-1.1 3.6-1.2 0 0 2.7-.6 5.2.6 0 0 1.3.5 2.5 1.7 0 0-1.3-4.5-11.2-2.6 0 0-1 .3-1.2.7z"/><path class="st65" d="M69.5 124.7c3.6-1 3.6-1.7 3.6-1.7l2.2-.2-1.6 4.3-5.6 1.4 1.4-3.8zM75.3 122.8l-2.2.2s0 .6-3.6 1.7l-1.3 3.8 5.6-1.4 1.5-4.3z"/><path class="st66" d="M63.8 124.9c.5.1 1 .2 1.7.2.9 0 1.7-.1 1.7-.1h.5c.9 0 1.8-.4 1.8-.4l-1.3 3.8-4.4-3.5zM63.8 124.9l4.3 3.6 1.3-3.8s-1.1.5-2.3.3c.1 0-1.9.4-3.3-.1zM62.1 128.3l1.7-3.4 4.3 3.6zM62.1 128.3l1.7-3.4 4.3 3.6z"/><path class="st67" d="M59.6 124.2v-1.3h.3c1 0 1.8-.8 1.8-.8 0 2.5 2.2 2.8 2.2 2.8l-1.7 3.4-2.6-4.1zM59.6 124.2l2.6 4.1 1.7-3.4s-2.2-.2-2.2-2.8c0 0-.9.6-2 .8v1.3zM59.5 124.2l2.6 4.1-3.7 4.5zM58.4 132.8l3.7-4.5-2.5-4.1z"/><path class="st65" d="M68.1 128.5l5.6-1.5-1 6zM72.7 133l1-6-5.6 1.5z"/><path class="st68" d="M70.1 137l-1.9-8.5 4.6 4.5-2.7 4zm-2-8.5l1.9 8.4 2.7-4-4.6-4.4zM71.5 131.7l-3.4-3.2 2 8.4 2.6-3.9-1.2-1.3"/><path class="st69" d="M60.4 130.4l1.7-2.1 6 .2 1.2 5.1zM60.4 130.4l8.9 3.2-1.2-5.1-6-.2z"/><path class="st70" d="M68.3 142.7l3 2.9-1.8 2.4-3.5 1zM68.3 142.7l3 2.9-1.8 2.4-3.5 1z"/><path class="st71" d="M62.1 152.6c-.6-.7-2.8-10.2-2.8-10.3l9 .4L66 149l-3.9 3.6zM59.3 142.4s2.3 9.6 2.8 10.3L66 149l2.3-6.2-9-.4z"/><path class="st72" d="M59.3 142.4l10-8.8.8 3.4s-3.3 4.3-1.7 5.8l-9.1-.4zM70.1 136.9s-3.3 4.2-1.7 5.8l-9-.4 10-8.8.7 3.4z"/><path class="st73" d="M59.3 142.4c-1.4-2.1-.9-9.5-.9-9.6l2-2.4 8.9 3.2-10 8.8zM58.4 132.8s-.5 7.5.9 9.6l10-8.8-8.9-3.2-2 2.4z"/><path class="st74" d="M75.9 147.5c-1.8 0-4.5-1.8-4.6-1.8l-3-2.9 5.3-.8 2.4 5.5h-.1zM76 147.5l-2.4-5.5-5.3.8 3 2.9c0-.1 2.9 1.9 4.7 1.8z"/><path class="st75" d="M73.6 142l7.4 2.3c-1 .4-1.1.6-1.1.8 0 .1.2.2.2.2l-1.4 1-2.6 1.2-2.5-5.5zM80.9 144.3l-7.4-2.3 2.4 5.5 2.5-1.2 1.5-1c.1 0-.7-.2 1-1z"/><path class="st76" d="M68.3 142.8s-.3-.2-.4-.8c-.1-.8.1-2.3 2.1-5l2.7-4 .9 9-5.3.8zM72.7 133l.8 9-5.3.8s-1.7-1.2 1.7-5.8l2.8-4z"/><path class="st77" d="M73.6 142l-.9-9 1-6 1.6-4.2 5.6 21.6zM75.2 123l.1-.2 5.6 21.5-7.3-2.3-.9-9 1-6z"/><path class="st78" d="M75.3 122.8l11.3 8.6-5.7 13zM75.3 122.8l11.3 8.6-5.7 12.9z"/><path class="st79" d="M75.3 122.8l8.7-7 1 8.6 1.6 7zM84 115.8l-8.7 7 11.3 8.6-1.6-7z"/><path class="st80" d="M66.5 113.9l2.6-3.6 1.6 4.2zM70.7 114.5l-1.5-4.2-2.7 3.6z"/><path class="st81" d="M64.2 109.1h.2c1.1 0 4.7 1.2 4.8 1.2l-2.7 3.6-2.3-4.8zM64.2 109.1l2.3 4.8 2.7-3.6s-4.2-1.4-5-1.2z"/><path class="st82" d="M60.7 113.5l3.5-4.4 2.3 4.8zM60.7 113.5l3.5-4.4 2.3 4.8z"/><path class="st83" d="M59.3 110c.7-.7 4.9-.9 4.9-.9l-3.5 4.5-1.4-3.6zM59.3 110l1.4 3.5 3.5-4.5c0 .1-4.2.3-4.9 1z"/><path class="st84" d="M57.9 116.3c-.7-3.4 1.4-6.3 1.4-6.3l1.4 3.5-2.8 2.8zM57.9 116.3l2.8-2.8-1.4-3.5s-2.1 2.9-1.4 6.3z"/><path class="st85" d="M57.9 116.3l2.8-2.8v7.3s-.7 1.4-1.2 1.6l-1.6-6.1zM59.5 122.4l-1.6-6.2 2.8-2.8v7.3c0 .2-.3 1.5-1.2 1.7z"/><path class="st86" d="M73.1 123c0-1.6-2.4-2.3-2.4-2.3L74 118l1.3 4.8-2.2.2zM75.3 122.8L74 118l-3.3 2.6s2 .6 2.5 2.4l2.1-.2z"/><path class="st87" d="M68 120l-.8-3.7L74 118l-3.4 2.6zM67.2 116.3l.8 3.7 2.6.6L74 118z"/><path class="st88" d="M60.7 120.9c.1-.1.2-.2.3-.2l6.2-4.4.8 3.7h-2c-1.7 0-3.9.1-5 .7l-.3.2zM60.7 120.9l6.5-4.6.8 3.7s-6-.4-7.3.9z"/><path class="st89" d="M60.7 113.5l6.5 2.8-6.5 4.6zM60.7 113.5l6.5 2.8-6.5 4.6z"/><path class="st90" d="M74 118h7.3l-6 4.8zM81.3 118H74l1.3 4.8z"/><path class="st79" d="M66.7 121l1.9-.1.9.6-.9.6zM68.6 120.9l-1.9.1 1.9 1.1.9-.6zM97.6 122.4l.6-.4 1.1.3-.8.7zM98.2 122l-.6.4.9.6.8-.6z"/><path class="st43" d="M104.1 110.6l7.9-17.8 5.9 6.8-4.6 6 8.2 5-12.3 3.9zM112 92.8l-7.9 17.8 5.1 3.9 12.3-3.9-8.2-5 4.5-6z"/><path class="st91" d="M90.4 110.1M90.4 110.1"/><path class="st92" d="M98.2 110s-2.1-.1-4.3-.1c-1.6 0-2.7.1-3.5.2l7.2-23.3 6.5 23.9-5.9-.7zM90.4 110.1l7.2-23.3 6.5 23.8-5.9-.6s-5.5-.3-7.8.1z"/><path class="st93" d="M84.7 86.1l12.9.6-7.2 23.4-6.4.8zM84.7 86.1l-.7 24.8 6.4-.8 7.2-23.4z"/><path class="st94" d="M69.2 110.3l15.4-19-.6 19.6-2.7 2.9zM69.2 110.3l15.4-19-.6 19.6-2.7 2.9z"/><path class="st95" d="M65.7 91.1c2.2-2.6 10-3.6 10.1-3.6l.5 14.1-2.9 3.5-7.7-14zM65.8 91l7.6 14 2.9-3.5-.5-14.1c0 .1-7.5.7-10 3.6z"/><path class="st96" d="M69.2 110.3s-3.7-1.2-5-1.2H64l5.5-11.2 3.9 7.2-4.2 5.2zM64 109.1l5.5-11.2 3.9 7.2-4.2 5.2s-4.1-1.4-5.2-1.2z"/><path class="st97" d="M59.3 110c-.1-.3 1.3-5.1 2.8-9.4 1.5-4.3 3.2-9.2 3.7-9.6l3.7 6.8-5.5 11.3c-.1 0-3.4.2-4.7.9zM59.3 110c-.5.3 5.4-18.1 6.5-19l3.7 6.8-5.5 11.3s-3.4.1-4.7.9z"/><path class="st98" d="M113.3 105.6l4.5-6 1.3-.9 5.1 5.4-2.7 6.5zM119.1 98.7l-1.3.9-4.5 6 8.2 5 2.7-6.5z"/><path class="st99" d="M122.4 124c-.3 0-.9-12.8-.9-13.4l7.8 6.8c-1.6.5-3.5 6.8-3.6 6.8l-3.3-.2zM129.3 117.4l-7.8-6.8s.6 13.4.9 13.4 3.3.2 3.3.2 2-6.3 3.6-6.8z"/><path class="st100" d="M128.3 142.8c-.9 0-2.2-.3-2.6-1.6l-.7-6.7 8 2.2c0 .1-1.3 5.5-2.7 5.8 0 0-1 .3-2 .3zM130.3 142.5s-4.3 1.6-4.6-1.3l-.7-6.7 8 2.2s-1.3 5.5-2.7 5.8z"/><path class="st101" d="M128.4 135.5l6-3.8-1.4 5zM134.4 131.7l-6 3.8 4.6 1.2z"/><path class="st102" d="M127.1 135.1l4.3-2.8.7.9-3.7 2.3zM127.1 135.1l4.3-2.8.7.9-3.7 2.3z"/><path class="st103" d="M125 134.5l-.5-4.9 3.3-2.8 3.6 5.5-4.3 2.8zM127.8 126.8l-3.3 2.8.5 4.9 2.1.6 4.3-2.8z"/><path class="st104" d="M131.4 132.3l-1.6-2.5 2.2-2.8 2.4 4.7-2.4 1.5zM132.1 127l-2.3 2.8 1.6 2.5.7.9 2.3-1.5z"/><path class="st105" d="M127.8 126.8l1.5-1.6 2.8 1.8-2.3 2.8zM129.3 125.2l-1.5 1.6 2 3 2.3-2.8z"/><path class="st106" d="M124.5 129.6s1-4.7 1.3-5.4c0 0 0-.1.1-.2 1.6-5 2.8-6.3 3.5-6.6 0 0 1.9-1.2 3.4-1.2.5 0 .8.1 1.2.3l1 .9-.8.9s-2.1.3-3.3 2.4l-1.5 4.5-1.5 1.5-3.4 2.9zM129.3 117.4s3-2 4.6-.9l1 .9-.8.9s-2.1.3-3.3 2.4l-1.5 4.5-1.5 1.5-3.3 2.8s1-4.7 1.3-5.3c.1-.7 1.8-6.2 3.5-6.8z"/><path class="st107" d="M132 127l-2.8-1.8.8-2.4 6.1 1.1c.1 1.8-1.7 7.7-1.7 7.8L132 127zM134.4 131.7s1.8-5.9 1.7-7.8l-6.1-1.1-.8 2.4 2.8 1.8 2.4 4.7z"/><path class="st108" d="M131.9 119.4c.3-.4 2.1-1 2.1-1l.8 5.4-2.9-4.4zM131.9 119.4l2.9 4.4-.8-5.4c.1-.1-1.8.5-2.1 1z"/><path class="st109" d="M130 122.9l.6-1.9c.8-1.4 1.3-1.6 1.3-1.6l2.9 4.4-4.8-.9zM131.9 119.4s-.7-.3-1.3 1.6l-.6 1.9 4.8.9-2.9-4.4z"/><path class="st110" d="M121.5 110.6l2.8-6.5 9 12.1c-.4 0-2.4.1-3.9 1.2l-7.9-6.8zM124.2 104.1l8.9 12.1s-2.3-.1-3.9 1.2l-7.8-6.8 2.8-6.5z"/><path class="st111" d="M124.2 104.1l10.2-15.5c1.1 1.7 1.9 5.6-.3 14.1 0 .1-.1.3-.1.3-.2 1-.9 13-.9 13.1l-8.9-12zM134.4 88.6l-10.2 15.5 8.9 12.1s.7-12.1.9-13.1 3-10.4.4-14.5z"/><path class="st112" d="M119.1 98.7l15.3-10.1-10.2 15.5zM119.1 98.7l15.3-10.1-10.2 15.5z"/><path class="st113" d="M112 92.8l9.5 4.3-2.4 1.6-1.3.9zM112 92.8l9.5 4.3-2.4 1.6-1.3.9z"/><path class="st114" d="M119.1 96l10.8-16.3c1 .7 4.5 8.8 4.6 8.9l-12.9 8.5-2.5-1.1zM129.9 79.7L119.1 96l2.4 1.1 12.9-8.5s-3.6-8.2-4.5-8.9z"/><path class="st115" d="M112 92.8l-14.4-6 13-.7 6 8.8zM110.6 86.1l-13 .6 14.4 6.1 4.5 2z"/><path class="st116" d="M116.5 94.8l-5.9-8.7 19.3-6.4L119.1 96zM129.9 79.7l-.6.2-18.7 6.2 5.9 8.7 2.6 1.2z"/><path class="st117" d="M121.5 70l8.4 9.7-19.3 6.4zM121.5 70l-10.9 16.1 19.3-6.4z"/><path d="M96.7 70l13.9 16.1-13 .7zM96.7 70l.9 16.7 13-.6z"/><path class="st118" d="M100.6 74.6l20.9-4.6-10.9 16.1zM121.5 70l-20.9 4.6 10 11.5z"/><path class="st119" d="M106.8 62.9l6-8.3 8.7 15.4zM112.8 54.6l-6 8.3 14.7 7.1z"/><path class="st120" d="M96.7 70l-1.5-14.4 15.4 16.8-10 2.2zM100.6 74.6L96.7 70l-1.5-14.4 15.4 16.8z"/><path class="st121" d="M95.2 55.6l11.6 7.3 14.7 7.1-10.9 2.4zM106.8 62.9l-11.6-7.3 15.4 16.8 10.9-2.4z"/><path class="st122" d="M95.2 55.6c1-.8 7.6-1 12.9-1h4.6l-6 8.3-11.5-7.3zM112.8 54.6s-16-.4-17.6.9l11.6 7.3 6-8.2z"/><path class="st123" d="M86.6 55.6c.4-.1 1.3-.2 2.8-.2 2.5 0 5.7.2 5.8.2L96.7 70l.4 6.9-10.5-21.3zM86.6 55.6l10.5 21.3-.4-6.9-1.5-14.4s-7.3-.5-8.6 0z"/><path class="st124" d="M84.7 86.1l8.7-16.8 3.7 7.6.5 9.9zM84.7 86.1l8.7-16.8 3.7 7.6.5 9.8z"/><path class="st125" d="M74.6 71.1l10.1 15-8.9 1.4zM74.6 71.1l1.2 16.4 8.9-1.4z"/><path class="st126" d="M66.5 72.4l4.7-12.6 3.4 11.3 1.2 16.4c-3.7.3-6.2 1.2-7.7 2-1.6.8-2.3 1.6-2.3 1.6l.7-18.7zM66.5 72.4L65.8 91s2.9-3 10-3.6L74.6 71l-3.4-11.3-4.7 12.7z"/><path class="st127" d="M79 57.5l7.6-1.9 6.8 13.7-4.5 8.8zM79 57.5L88.9 78l4.5-8.7-6.8-13.7z"/><path class="st128" d="M74.6 71.1l-3.4-11.3s.6.5 1.8.5c1.2 0 3.2-.5 6-2.9l6 29.3-10.4-15.6zM71.1 59.8s2.4 2.3 7.9-2.4l6 29.3-10.4-15.6-3.5-11.3z"/><path class="st129" d="M79 57.5L88.9 78l-4.2 8.1zM88.9 78L79 57.5l5.7 28.6z"/><path class="st130" d="M59.6 64H59.9c3.5 0 11.2-4.1 11.3-4.2l-4.7 12.6-6.9-8.4zM59.6 64l6.9 8.4 4.7-12.6c-.1 0-8.3 4.4-11.6 4.2z"/><path class="st131" d="M59.2 82.1S58 78.8 57.5 75c-.3-2.2-.3-4.3-.1-6 .3-2.2 1-3.9 2.1-5.1l6.9 8.4-7.2 9.8zm.4-18.1c-1.1 1.2-1.8 2.9-2.1 5.1-.2 1.7-.2 3.7.1 6 .5 3.7 1.6 6.8 1.7 7l7.2-9.7-6.9-8.4zM64.9 70.5l1.6 1.9-7.3 9.7s-4.6-12.8.3-18.1l5.4 6.5"/><path class="st126" d="M59.3 110c0-.1-4.3-6.8-3.3-15.2l3.3-12.7 7.3-9.7-.8 18.6c-.1.2-5.8 14.3-6.5 19zM59.3 110S55 103.3 56 94.8l3.2-12.7 7.3-9.7-.7 18.6s-5.8 14.2-6.5 19z"/><path class="st132" d="M76.7 160.9c-.6 0-3.9-.3-6.7-6 .1 0 4.8 2.5 5.9 2.7l.8 3.3c.1 0 .1 0 0 0zM70.1 154.9s4.7 2.5 5.9 2.7l.8 3.3s-3.6.3-6.7-6z"/><path class="st133" d="M76 157.7c.1 0 3.2.4 4.8.4.4 0 .6 0 .8-.1l-4.7 3-.9-3.3zM81.5 158l-4.7 2.9-.8-3.3c0 .1 4.8.7 5.5.4z"/><path class="st134" d="M78.8 161.1c-1.2 0-2-.1-2-.1l4.7-2.9 9.7-2.5c-4.3 4.8-9.6 5.5-12.4 5.5zM91.1 155.5l-9.6 2.5-4.7 2.9s8.2 1.6 14.3-5.4z"/><path class="st135" d="M76 157.7c-1.2-.1-5.9-2.7-5.9-2.7.3-.1.8-.1 1.2-.1 2 0 4.4.6 4.4.6.4.2.8.3 1.3.3.8 0 1.5-.3 1.5-.3l-2.5 2.2zM70.1 154.9s4.7 2.6 5.9 2.7l2.5-2.2s-1.5.6-2.8 0c0 .1-3.5-.8-5.6-.5z"/><path class="st136" d="M78.5 155.5s3.1-.4 6.8-.4c2.2 0 4.1.1 5.8.4l-6.6 1.7-6-1.7zM91.1 155.5l-6.6 1.7-6.1-1.7c.1 0 5.9-1 12.7 0z"/><path class="st137" d="M80.7 158.1c-1.6 0-4.7-.4-4.7-.4l2.5-2.2 6.1 1.7-3 .8c-.2 0-.5.1-.9.1zM78.5 155.5l-2.5 2.2s4.9.6 5.6.3l3-.8-6.1-1.7z"/><path class="st138" d="M120.3 159.2c2.7-5.3 5.3-17.9 5.4-18 .1 1.1.9 1.6 2.4 1.6 1.1 0 2.2-.3 2.2-.3 0 1.4 2.2 7.7 2.2 7.7l-12.2 9zM132.5 150.2s-2.2-6.3-2.2-7.7c0 0-4.3 1.3-4.6-1.3 0 0-3 12.4-5.4 18l12.2-9z"/><path class="st139" d="M120.3 159.2l12.2-9 3.7 6.6-15.8 2.5zM136.2 156.8l-3.7-6.6-12.1 9z"/><path class="st140" d="M80.2 169.4l.8-2.1 3.8-4.8 6.3-7-1.7 16.4zM80.2 169.4l.8-2.1 3.8-4.8 6.3-7-1.7 16.4z"/><path class="st141" d="M74.4 164.9l2.7-1.6 3.9 4zM81 167.3l-6.6-2.4 2.7-1.6z"/><path class="st142" d="M81.3 113.8l2.7 2-2.7 2.2h-7.4zM81.3 113.8L74 118h7.3l2.7-2.2z"/><path class="st143" d="M70.7 114.5l-1.6-4.2 12.2 3.5L74 118zM69.2 110.3l12.1 3.5L74 118l-3.3-3.5z"/><path class="st144" d="M67.2 116.3l-6.5-2.8 5.8.4 4.2.6L74 118zM70.7 114.5L74 118l-6.8-1.7-6.5-2.8 5.8.4z"/><path class="st47" d="M65.6 125.1c-1.5 0-4-.4-4.1-3 0 0 1.3-1.3 3.8-1.4 0 0-.6 1.3-.1 2.5.3.8 1 1.4 2 1.8 0 0-.7.1-1.6.1zM67.2 125s-5.6 1-5.6-2.9c0 0 1.3-1.3 3.8-1.4 0 0-1.5 3 1.8 4.3zM94.8 125.5h-1.4c-1.1-.1-4.8-1-4.9-2.5 0 0 2.5-1.6 6-1.6h.4s-.5 1.7.3 2.9c.4.6 1.2 1 2.2 1.1-.1 0-1.5.1-2.6.1zM88.5 123s2.6-1.6 6.3-1.5c0 0-1.1 3.7 2.5 4 0 0-3 .1-3.9 0s-4.8-1.1-4.9-2.5z"/><path class="st145" d="M97.6 86.7l14.4 6.1-7.9 17.8zM97.6 86.7l6.5 23.9 7.9-17.8z"/><path class="st146" d="M75.8 87.5l8.9-1.4-.1 5.2-8.3 10.3zM75.8 87.5l.5 14.1 8.3-10.3.1-5.2z"/><path class="st147" d="M134.9 123.7l-.8-5.4.8-.9s1.6 4.4 1.3 6.6l-1.3-.3zM134.8 117.4s1.6 4.4 1.3 6.6l-1.3-.2-.8-5.4.8-1z"/><path class="st148" d="M86.6 131.4l2.2 9.2-1.8 3.1c-.2-.1-.5-.1-.9-.1-1.8 0-5.2.8-5.2.8l5.7-13zM86.6 131.4l-5.7 12.9s5-1.2 6-.7l1.8-3.1-2.1-9.1z"/></svg>