<svg xmlns="http://www.w3.org/2000/svg" xmlns:xlink="http://www.w3.org/1999/xlink" width="192" height="234" viewBox="0 0 192 234"><style type="text/css">.st0{fill:#F2F2F2;} .st1{fill:#D54339;} .st2{clip-path:url(#SVGID_2_);} .st3{clip-path:url(#SVGID_4_);} .st4{clip-path:url(#SVGID_6_);fill:#684832;} .st5{clip-path:url(#SVGID_6_);fill:#131512;} .st6{clip-path:url(#SVGID_6_);fill:#6D4738;} .st7{clip-path:url(#SVGID_8_);fill:#131512;} .st8{clip-path:url(#SVGID_8_);fill:#59331C;} .st9{clip-path:url(#SVGID_8_);fill:#58381C;} .st10{clip-path:url(#SVGID_8_);fill:#654B3B;} .st11{clip-path:url(#SVGID_8_);fill:#9D7253;} .st12{clip-path:url(#SVGID_8_);fill:#896748;} .st13{clip-path:url(#SVGID_8_);fill:#2E1810;} .st14{clip-path:url(#SVGID_8_);fill:#CFA992;} .st15{clip-path:url(#SVGID_8_);fill:#5B321F;} .st16{clip-path:url(#SVGID_8_);fill:#5D3C22;} .st17{clip-path:url(#SVGID_8_);fill:#866052;} .st18{clip-path:url(#SVGID_8_);fill:#69422C;} .st19{clip-path:url(#SVGID_8_);fill:#6F4934;} .st20{clip-path:url(#SVGID_8_);fill:#83543D;} .st21{clip-path:url(#SVGID_8_);fill:#79533A;} .st22{clip-path:url(#SVGID_8_);fill:#654E3C;} .st23{clip-path:url(#SVGID_8_);fill:#684632;} .st24{clip-path:url(#SVGID_8_);fill:#604832;} .st25{clip-path:url(#SVGID_8_);fill:#674A35;} .st26{clip-path:url(#SVGID_8_);fill:#6F4629;} .st27{clip-path:url(#SVGID_8_);fill:#61422D;} .st28{clip-path:url(#SVGID_8_);fill:#472716;} .st29{clip-path:url(#SVGID_8_);fill:#5B3E2C;} .st30{clip-path:url(#SVGID_8_);fill:#8F6949;} .st31{clip-path:url(#SVGID_8_);fill:#AE835C;} .st32{clip-path:url(#SVGID_8_);fill:#AC805D;} .st33{clip-path:url(#SVGID_8_);fill:#997047;} .st34{clip-path:url(#SVGID_8_);fill:#A37F67;} .st35{clip-path:url(#SVGID_8_);fill:#573E27;} .st36{clip-path:url(#SVGID_8_);fill:#5E3F29;} .st37{clip-path:url(#SVGID_8_);fill:#684832;} .st38{clip-path:url(#SVGID_8_);fill:#825D3E;} .st39{clip-path:url(#SVGID_8_);fill:#825B40;} .st40{clip-path:url(#SVGID_8_);fill:#8C6C5A;} .st41{clip-path:url(#SVGID_8_);fill:#452616;} .st42{clip-path:url(#SVGID_8_);fill:#906B4F;} .st43{clip-path:url(#SVGID_8_);fill:#836247;} .st44{clip-path:url(#SVGID_8_);fill:#472E20;} .st45{clip-path:url(#SVGID_8_);fill:#AA8168;} .st46{clip-path:url(#SVGID_8_);fill:#916441;} .st47{clip-path:url(#SVGID_8_);fill:#92684B;} .st48{clip-path:url(#SVGID_8_);fill:#89664F;} .st49{clip-path:url(#SVGID_8_);fill:#8F6950;} .st50{clip-path:url(#SVGID_8_);fill:#926D54;} .st51{clip-path:url(#SVGID_8_);fill:#0F0D0C;} .st52{clip-path:url(#SVGID_8_);fill:#131311;} .st53{clip-path:url(#SVGID_8_);fill:#121210;} .st54{clip-path:url(#SVGID_8_);fill:#0F0F10;} .st55{clip-path:url(#SVGID_8_);fill:#171614;} .st56{clip-path:url(#SVGID_8_);fill:#151615;} .st57{clip-path:url(#SVGID_8_);fill:#191B1B;} .st58{clip-path:url(#SVGID_8_);fill:#121010;} .st59{clip-path:url(#SVGID_8_);fill:#161510;} .st60{clip-path:url(#SVGID_8_);fill:#151617;} .st61{clip-path:url(#SVGID_8_);fill:#1B1E1D;} .st62{clip-path:url(#SVGID_8_);fill:#6D4738;} .st63{clip-path:url(#SVGID_8_);fill:#654D40;} .st64{clip-path:url(#SVGID_8_);fill:#784D39;} .st65{clip-path:url(#SVGID_8_);fill:#1F1E1D;} .st66{clip-path:url(#SVGID_8_);fill:#2B1E15;} .st67{clip-path:url(#SVGID_8_);fill:#7E5534;} .st68{clip-path:url(#SVGID_8_);fill:#5C4330;} .st69{clip-path:url(#SVGID_8_);fill:#845D4A;} .st70{opacity:0.6;clip-path:url(#SVGID_8_);} .st71{clip-path:url(#SVGID_10_);} .st72{clip-path:url(#SVGID_12_);fill:#CFA992;} .st73{clip-path:url(#SVGID_14_);} .st74{clip-path:url(#SVGID_16_);fill:#CFA992;}</style><path class="st0" d="M0 0h192v234H0z"/><path class="st1" d="M192 215.5L172.5 234H192z"/><defs><path id="SVGID_1_" d="M-43 2h267v345.5H-43z"/></defs><clipPath id="SVGID_2_"><use xlink:href="#SVGID_1_" overflow="visible"/></clipPath><g class="st2"><defs><path id="SVGID_3_" d="M-43 2h267v345.5H-43z"/></defs><clipPath id="SVGID_4_"><use xlink:href="#SVGID_3_" overflow="visible"/></clipPath><g class="st3"><defs><path id="SVGID_5_" d="M-43 2h267v345.5H-43z"/></defs><clipPath id="SVGID_6_"><use xlink:href="#SVGID_5_" overflow="visible"/></clipPath><path class="st4" d="M76.6 96.7c0 7-.5 13.9-1 20.8h2.2c.2-7.9 5.8-14.8 5-22.8-.1-1-1.1-1.4-1.9-.8-7 5.6-7.7 16.3-7.8 24.6l2.1-.3c-2.4-7.3-2.9-15-6.1-22.1-.4-.9-1.8-.6-2 .3-1.1 4.8-.3 10.1.6 14.8.8 4.1 2.1 9.7 5.8 12.2 1.2.8 2.3-1.1 1.1-1.9-3.3-2.1-4.2-7.9-4.9-11.4-.8-4.1-1.5-9-.5-13.2-.7.1-1.3.2-2 .3 3.1 6.9 3.5 14.4 5.8 21.6.4 1.2 2.1 1 2.1-.3 0-7.7.6-17.8 7.1-23-.6-.3-1.2-.5-1.9-.8.9 7.9-4.8 14.9-5 22.8 0 1.4 2.1 1.4 2.2 0 .5-6.9 1-13.9 1-20.8.3-1.4-1.9-1.4-1.9 0M74.3 123.8c3.4-8.9 4.5-18.5 6.4-27.8.2-1.2-1.4-2-2-.8-3.5 6.9-6.5 14-6.6 21.9l2.1-.3c-.4-1.1-1.2-2.3-1.5-3.5-.2-1.1-1.8-1-2.1 0-.6 1.7-1 3.4-1 5.2 0 1.4 2.1 1.4 2.2 0 .3-8.4-4.3-15.9-4-24.3h-2.2c.1 3.9 1 7.6 2.5 11.2.5 1.3 2.6.7 2.1-.6-1.4-3.4-2.4-6.9-2.4-10.6 0-1.4-2.1-1.4-2.2 0-.3 8.4 4.3 15.9 4 24.3h2.2c.1-1.6.4-3.1 1-4.7h-2.1c.3 1.2 1.1 2.3 1.5 3.5.4 1.1 2.1 1 2.1-.3.1-7.5 3-14.2 6.3-20.8-.7-.3-1.3-.6-2-.8-1.9 9.3-3 18.8-6.4 27.8-.5 1.3 1.6 1.9 2.1.6M70.5 119.7c-.7.8-.7 1.8-1.2 2.7-.3.5-.2 1.2.4 1.5.5.3 1.2.1 1.5-.4.2-.5.4-1 .5-1.5.1-.2.1-.4.2-.6l.1-.2c1-1-.6-2.5-1.5-1.5M69.7 118.8c.4 1.4.5 2.7.5 4.2 0 1.4 2.2 1.4 2.2 0 0-1.6-.1-3.2-.5-4.8-.5-1.3-2.6-.8-2.2.6M65.2 125c0 .3.1.9-.2 1.2-.5.5-.7 1-.8 1.8.7-.2 1.4-.4 2-.6-.4-.8-.3-1.6-.3-2.4 0-1.4-2.2-1.4-2.2 0 0 1.2.1 2.4.6 3.5.2.4.8.6 1.2.5.5-.1.7-.6.8-1.1 0 .1.2-.2.2-.2.2-.3.4-.5.6-.9.2-.6.3-1.3.3-1.9 0-1.4-2.2-1.4-2.2.1M63.7 123c-.5 3.5-.5 6.9-.5 10.4 0 1 1.5 1.5 2 .6l1.5-3c-.7-.3-1.3-.6-2-.8-.5 1.4-.1 2.8 0 4.3.1 1.1 1.4 1.5 2 .6 3.3-5.1 5.3-10.9 7.9-16.4-.7-.2-1.4-.4-2-.6 0 1.6 0 3.1-.5 4.7-.2.8.5 1.6 1.3 1.3.6-.2 1-.4 1.5-.8-.6-.4-1.2-.7-1.8-1.1-.6 3.2-1.6 6.3-2.5 9.4-.4 1.4 1.7 1.9 2.1.6.9-3.1 1.9-6.2 2.5-9.4.2-1.1-1-1.8-1.8-1.1-.2.1-.3.1-.5.2l1.3 1.3c.5-1.7.5-3.5.5-5.2 0-1-1.5-1.6-2-.6-2.7 5.4-4.6 11.3-7.9 16.4.7.2 1.4.4 2 .6-.1-1.2-.4-2.5 0-3.7.4-1.2-1.4-1.9-2-.8l-1.5 3c.7.2 1.4.4 2 .6 0-3.5 0-7 .5-10.4.3-1.5-1.9-1.5-2.1-.1M66.3 150.8h3.5c1.4 0 1.4-2.2 0-2.2h-4.5l.3 2.1c2.5-.5 5.1-.5 7.6-.5 1.4 0 1.4-2.2 0-2.2-2.8 0-5.5 0-8.2.5-1.2.2-.9 2.1.3 2.1h4.5c1.4 0 1.4-2.2 0-2.2h-3.5c-1.4.2-1.4 2.4 0 2.4M69.7 148.3c.5 5.7.7 11.8 4.8 16.1.5.6 1.7.3 1.8-.5.8-4.4-1.8-7.9-1.9-12.2-.1-1.4-2.1-1.4-2.2 0-.4 7.1 1.2 13.5 4.1 19.9.3.6 1.3.7 1.7.2 1.6-1.6 3.1-3.2 3.8-5.4.4-1.3-1.7-1.9-2.1-.6-.6 1.8-1.9 3.1-3.2 4.5.6.1 1.1.1 1.7.2-2.8-6.1-4.2-12.1-3.8-18.8h-2.2c.2 4 2.7 7.6 2 11.6.6-.2 1.2-.3 1.8-.5-3.7-3.9-3.7-9.6-4.1-14.6-.2-1.3-2.4-1.3-2.2.1M79.7 153.6c-1.9 2.9-3.9 5.8-5.5 8.9-.7 1.3 1 2.2 1.9 1.1 1.4-1.9 3-3.6 4.5-5.5-.6-.4-1.3-.7-1.9-1.1-.9 1.3-1.6 2.7-2.5 4 .6.4 1.3.7 1.9 1.1 1-2 2-4 3-5.9.6-1.3-1.3-2.4-1.9-1.1-1 2-2 4-3 5.9-.6 1.3 1.1 2.3 1.9 1.1.9-1.3 1.6-2.7 2.5-4 .8-1.2-1.1-2.2-1.9-1.1-1.4 1.9-3 3.6-4.5 5.5.6.4 1.3.7 1.9 1.1 1.6-3.1 3.5-6 5.5-8.9.8-1.1-1.1-2.2-1.9-1.1M87.6 158c1.2 6.1 7.7 10.7 7.4 17.1.7-.2 1.4-.4 2-.6-1.6-2.4-2.7-5.2-3.8-7.8-1.2-3-2.5-6.2-2.5-9.5 0-1.4-2.2-1.4-2.2 0 .1 3.3 1.3 6.5 2.4 9.5 1.1 3 2.4 6.2 4.2 8.9.6.9 2 .5 2-.6.3-6.8-6.2-11.3-7.5-17.6-.2-1.4-2.3-.8-2 .6M101.1 158.1c-2.9 4-4.5 8.5-5.1 13.4-.2 1.3 1.7 1.3 2.1.3 2-5 4.9-9.6 5-15.2 0-1.4-2.1-1.4-2.2 0-.1 5.3-3 9.8-4.9 14.6l2.1.3c.6-4.5 2.1-8.7 4.8-12.3.9-1.1-1-2.2-1.8-1.1M97.5 155.6h-6.4c-1.2 0-1.5 1.8-.3 2.1 3.4 1 6.9 1.9 10.4 2.5 1.4.2 2-1.9.6-2.1-3.5-.5-7-1.5-10.4-2.5l-.3 2.1h6.4c1.4.1 1.4-2.1 0-2.1M100.5 160.4c-1 4.1-2 8.3-3 12.4-.3 1.4 1.8 1.9 2.1.6 1-4.1 2-8.3 3-12.4.3-1.4-1.8-2-2.1-.6M116.9 153.3h.7c1.4 0 1.4-2.2 0-2.2h-4.2c-1.4 0-1.4 2.2 0 2.2h3c1.4 0 1.4-2.2 0-2.2h-3c-1.4 0-1.4 2.2 0 2.2h4.2c1.4 0 1.4-2.2 0-2.2h-.7c-1.4 0-1.4 2.2 0 2.2M114 149.9c-.6-2.7-1.6-5.1-3.8-6.9-.6-.5-1.5-.3-1.8.5-1.1 3.1-.5 6.4 0 9.5.2 1.2 1.8.9 2.1 0 1.5-3.8 1-7.7 0-11.5l-2.1.6c1.3 3.7 4.4 7.3 7.2 9.9 1.1 1 2.7 2.3 4.3 2.1 2-.2 2.4-2.3 2.5-4 .1-.9-1-1.3-1.6-.9-4.4 2.2-8.8 5-9 10.4 0 1 1.2 1.4 1.9.8 2.1-2.2 4-4.6 5.6-7.2.7-1.2-1.1-2.3-1.9-1.1-1.5 2.4-3.3 4.7-5.3 6.7.6.3 1.2.5 1.9.8.2-4.5 4.3-6.7 7.9-8.5-.5-.3-1.1-.6-1.6-.9-.1 1-.1 2.1-1.3 1.6-1.3-.6-2.4-1.9-3.4-3-1.9-2.1-4.1-4.7-5-7.3-.5-1.3-2.5-.8-2.1.6.9 3.5 1.3 6.9 0 10.3h2.1c-.5-2.8-.9-5.6 0-8.3-.6.2-1.2.3-1.8.5 1.9 1.6 2.7 3.6 3.2 6 .2 1.3 2.3.7 2-.7M122.4 149.7c-.4.8-1.3 1.2-2.1 1.6-.5.3-.7 1-.4 1.5.3.5 1 .7 1.5.4 1.1-.6 2.3-1.2 2.9-2.4.6-1.3-1.3-2.4-1.9-1.1M105.9 143.8c0 2-.5 4-.5 5.9 0 1.4 2.2 1.4 2.2 0 0-2 .5-4 .5-5.9 0-1.4-2.2-1.4-2.2 0M95.6 112.4c1-5.9 2.5-11.7 3-17.6l-2.1.3c1.5 8.7-2.4 17.4-3 26-.1 1.2 1.9 1.5 2.1.3 2.4-9.6 3-19.6 5.5-29.3.4-1.4-1.8-1.9-2.1-.6-2.5 9.6-3.1 19.6-5.5 29.3l2.1.3c.6-8.9 4.4-17.6 2.9-26.6-.2-1.3-2-.8-2.1.3-.5 5.8-2 11.4-2.9 17.1-.2 1.2 1.9 1.8 2.1.5M95.6 120.7c5.8-.6 11.9 1.5 17.5 2.9 1.4.3 1.9-1.8.6-2.1-5.8-1.4-12-3.6-18-2.9-1.5.1-1.5 2.3-.1 2.1M115.8 116.4c1.1-8.1.4-16.3.3-24.4 0-1.4-2.2-1.4-2.2 0 0 7.9.8 15.9-.3 23.9-.1 1.3 2 1.9 2.2.5M112.9 93.6c-5.1 5.1-10.7 9.6-15.4 15.1-.6.7-.1 2.2 1.1 1.8 3.9-1.5 9.3-4.4 10.4-8.9.2-.9-.5-1.5-1.3-1.3-4.4.6-9.1 3.9-12.4 6.7-1.1.9.5 2.4 1.5 1.5 3-2.6 7.5-5.6 11.4-6.1l-1.3-1.3c-.8 3.7-5.6 6.2-8.8 7.4.4.6.7 1.2 1.1 1.8 4.7-5.5 10.3-10.1 15.4-15.1.8-1.1-.7-2.6-1.7-1.6M122.3 104.3c-.8 1.3-2 2.2-3.4 2.8.4.6.7 1.3 1.1 1.9.4-.3.7-.5 1-1 .6-.8-.4-1.9-1.2-1.6-1 .3-1.9.6-2.9.9.3.7.6 1.3.8 2 2.8-1.7 5.4-3.9 8.1-5.8 1.2-.8.1-2.7-1.1-1.9-2.8 1.9-5.3 4.1-8.1 5.8-1 .6-.4 2.4.8 2 1-.3 1.9-.6 2.9-.9-.4-.5-.8-1.1-1.2-1.6l-.2.2c-1.2.8-.2 2.4 1.1 1.9 1.7-.8 3.1-2 4.2-3.6.7-1.2-1.2-2.3-1.9-1.1M124.4 115.5c-3.2 2-6.6 3.5-9.9 5.2.4.6.7 1.3 1.1 1.9 3.5-2 6.9-4.1 10.2-6.4 1.1-.8 0-2.7-1.1-1.9-3.3 2.3-6.7 4.4-10.2 6.4-1.2.7-.1 2.5 1.1 1.9 3.3-1.8 6.7-3.3 9.9-5.2 1.2-.7.1-2.6-1.1-1.9M124.2 118.2c-1 4-3.4 7.4-4.4 11.3-.2 1 1.1 2 1.8 1.1 2.8-3.5 5.1-7.4 6.1-11.8.3-1.4-1.8-1.9-2.1-.6-.9 4-3 7.6-5.5 10.9.6.4 1.2.7 1.8 1.1 1-4 3.4-7.4 4.4-11.3.3-1.5-1.8-2.1-2.1-.7M107.6 140.3c0 3.7.4 7.4.9 11.1.2 1.4 2.3.8 2.1-.6-.5-3.5-.8-7-.8-10.5 0-1.4-2.2-1.4-2.2 0M72.9 123.6c1.4 0 1.4-2.2 0-2.2-1.4.1-1.4 2.2 0 2.2M63.1 119.9c0 1.3 0 2.5.3 3.8.2.9 1.6 1.1 2 .3.5-1.1.7-2.2.7-3.5 0-1.4-2.2-1.4-2.2 0 0 .8-.1 1.6-.4 2.4.7.1 1.3.2 2 .3-.2-1.1-.3-2.1-.3-3.2.1-1.5-2.1-1.5-2.1-.1M71.8 124.3c.2 3.8-1.5 8.2-4.3 10.9.6.4 1.2.7 1.8 1.1.9-4.4 3.2-8.1 5.4-12 .7-1.2-1.2-2.3-1.9-1.1-2.3 4-4.7 7.9-5.6 12.5-.2 1.1 1 1.8 1.8 1.1 3.2-3 5.2-8 5-12.4-.1-1.5-2.3-1.5-2.2-.1M62.4 150.4c1.4 0 1.4-2.2 0-2.2s-1.4 2.2 0 2.2M67.4 152.4c1.4 0 1.4-2.2 0-2.2-1.4.1-1.4 2.2 0 2.2M64.5 151.3c1.4 0 1.4-2.2 0-2.2s-1.4 2.2 0 2.2M64.2 151c1.4 0 1.4-2.2 0-2.2s-1.4 2.2 0 2.2M65.3 150.7h8.1c1.4 0 1.4-2.2 0-2.2h-8.1c-1.4 0-1.4 2.2 0 2.2M62.7 150.4c1.4 0 1.4-2.2 0-2.2s-1.4 2.2 0 2.2"/><path class="st5" d="M66.4 74c2.3 5.3 5.2 11 5.4 16.9 0 1.4 2.2 1.4 2.2 0-.1-6.3-3.2-12.3-5.7-18-.5-1.3-2.4-.2-1.9 1.1M59 81.4c4 3.7 8.3 7 11.9 11.1.9 1.1 2.5-.5 1.5-1.5-3.6-4.1-7.9-7.4-11.9-11.1-.9-.9-2.5.6-1.5 1.5M61.6 93.7c1.9.6 3.8 1.4 5.8 1.7 1.4.2 2-1.9.6-2.1-2-.3-3.9-1.2-5.8-1.7-1.4-.5-2 1.7-.6 2.1M75.7 90.5c2.4-2 4.9-4 6.8-6.6 1.7-2.4 2.6-5.3 3.4-8.2.3-1-.8-1.6-1.6-1.2-5.3 2.5-8.9 8-11.2 13.2-.4.9.5 2.2 1.5 1.5 8.7-6.5 13.2-17.2 19-26 .8-1.2-1.1-2.3-1.9-1.1-5.6 8.5-9.9 19-18.2 25.2l1.5 1.5c2.2-4.8 5.4-10.1 10.4-12.4-.5-.4-1.1-.8-1.6-1.2-.8 2.7-1.6 5.3-3.2 7.6-1.7 2.4-4.2 4.3-6.4 6.1-1.1.9.4 2.4 1.5 1.6M95.4 60.9c-1 8.9-5.1 17.1-6.9 25.9-.3 1.4 1.8 2 2.1.6 1.9-9 6-17.3 7-26.5.1-1.4-2.1-1.4-2.2 0M93.2 78.7c6.8-3.4 10.2-10.4 15.6-15.3 1-.9-.5-2.5-1.5-1.5-5.3 4.8-8.6 11.7-15.2 15-1.2.6-.1 2.4 1.1 1.8M121.9 91.7c1.6-5.5 5.1-10.2 5.6-16 .1-1.4-2.1-1.4-2.2 0-.4 5.6-4 10.1-5.5 15.4-.3 1.4 1.8 2 2.1.6M124.7 96.3c1.6 0 3.2-.1 4.7-.6 1.3-.5.7-2.6-.6-2.1-1.3.5-2.7.5-4.1.5-1.4 0-1.4 2.2 0 2.2M125.4 82.7c.6 3.5-.9 10.4 3.4 12.1 1.3.5 1.9-1.6.6-2.1-1.5-.6-1.4-3.8-1.5-5.1-.1-1.8-.1-3.7-.4-5.5-.2-1.4-2.4-.8-2.1.6M100.8 71.6c7.8.1 15.5 2 23.3 2 1.4 0 1.4-2.2 0-2.2-7.8-.1-15.5-2-23.3-2-1.4 0-1.4 2.2 0 2.2M122.2 79.1c.6-.5 1.2-1 1.6-1.7.6-1-.6-1.9-1.5-1.5-3 1.4-5.3 3.8-7.5 6.3-.9 1.1.5 2.5 1.5 1.5 2.4-2.1 4.7-4.1 6.6-6.6.9-1.1-1-2.2-1.9-1.1-1.8 2.3-4 4.3-6.2 6.2l1.5 1.5c2-2.3 4.2-4.6 7.1-5.9l-1.5-1.5c-.3.5-.9.8-1.3 1.2-.9 1 .6 2.6 1.6 1.6M124.1 75.1c-3.9 1.9-7.5 4.4-11.6 5.8-2.2.8-4.4.9-6.3-.6-1.8-1.4-3.2-3.8-3.7-6.1-.6.4-1.2.7-1.8 1.1 2.6 3 8.2 4.6 8.7 9.1.1 1.4 2.3 1.4 2.2 0-.6-5.6-6.1-7-9.3-10.7-.7-.9-2.1.1-1.8 1.1 1.1 4.5 4.9 9.3 10 8.8 5.4-.6 10.1-4.4 14.9-6.7 1.1-.5 0-2.4-1.3-1.8M101.3 73.7c2 3.1 4.8 5.5 7.4 8.1.7.7 2.2 0 1.8-1.1-1.8-4.7-6.8-7.2-8.4-11.9l-1.3 1.3c3 .9 6.2 1.4 9 2.8 1.3.6 2.4-1.3 1.1-1.9-3.1-1.4-6.3-2.1-9.6-3-.8-.2-1.6.5-1.3 1.3 1.7 4.8 6.7 7.3 8.4 11.9.6-.4 1.2-.7 1.8-1.1-2.5-2.4-5.2-4.7-7.1-7.6-.6-1.1-2.5 0-1.8 1.2"/><path class="st6" d="M59.2 126.3c1.4 0 1.4-2.2 0-2.2s-1.4 2.2 0 2.2M59 125.5c.3 3.6 1 7.2 0 10.8-.3 1.2 1.4 1.9 2 .8 2-3.5 2.2-7.4 2.2-11.3 0-1.4-2.2-1.4-2.2 0 0 3.5 0 7.1-1.9 10.2.7.3 1.3.6 2 .8 1-3.8.4-7.5 0-11.3 0-1.4-2.2-1.4-2.1 0M62.5 115.9c-1.1 2.7-1.2 5.6-1.5 8.4-.1 1.2 1.5 1.4 2 .6 1.6-2.4 3.2-5 3.9-7.9.8-3.4-2.5-5.3-3.9-8.1-.6-1.3-2.5-.2-1.9 1.1.6 1.2 1.5 2.3 2.4 3.3 1.2 1.4 1.5 2.3 1 4-.7 2.3-2.1 4.4-3.4 6.4.7.2 1.4.4 2 .6.3-2.7.4-5.3 1.4-7.9.7-1.3-1.4-1.8-2-.5M58.6 111.8c.9 1.7 2 3.3 2.9 4.9.3.6 1.2.7 1.7.2 2.4-2.4 1.7-5.1-.1-7.7-.7-1-2.4-.4-2 .8 1 3.1 2.7 6.4 1.5 9.6-.5 1.3 1.6 1.9 2.1.6 1.4-3.6-.4-7.3-1.5-10.8-.7.3-1.3.6-2 .8 1.2 1.7 2.2 3.4.5 5.1.6.1 1.1.1 1.7.2-.9-1.7-2-3.3-2.9-4.9-.7-1.2-2.6-.1-1.9 1.2M79.4 115.8c1.8 1.8 3.5 3.8 5.7 5.1 1.2.7 2.3-1.2 1.1-1.9-2.1-1.2-3.6-3.1-5.3-4.8-.9-1-2.5.6-1.5 1.6"/></g><g class="st3"><defs><path id="SVGID_7_" d="M-43 2h267v345.5H-43z"/></defs><clipPath id="SVGID_8_"><use xlink:href="#SVGID_7_" overflow="visible"/></clipPath><path class="st7" d="M127.1 101.1c-.6 0-1.2-.2-1.7-.6-.4-.3-.7-.5-1.1-.8-.8-.6-1.5-1.1-2.2-1.9-1.2-1.4-2.3-2.6-3.7-3.7l-.9-.6c-.9-.6-1.8-1.2-2.5-2.1-.4-.5-.7-1-1-1.6-.1-.1-.1-.3-.2-.6v-.1c-.2.1-.4.3-.5.4-.4.3-.8.6-1.1.8-1.2.7-2.3 1.3-3.3 1.7-2.5 1-4.9 1.3-7.7 1-.6-.1-1.1-.4-1.5-1-.5-.7-.6-1.6-.4-2.3.3-1.1 1.3-2.1 3.3-1.9 3 .4 5.8-1.4 8.3-3 .3-.2.5-.4.8-.5 1.5-.9 2.7-1.3 3.7-1 1 .2 1.8.9 2.5 2.2l.6 1.2c.3.7.6 1.4 1.1 1.9.6.5 1.3 1 1.9 1.4.6.4 1.2.8 1.7 1.2 1.1.9 1.9 1.9 2.8 3l.2.2c.6.7 1.3 1.2 2 1.7.4.2.7.5 1.1.8.8.7 1.4 1.9.4 3.2-.8.5-1.7 1-2.6 1m-13.4-12.2c0 .1 0 .1.1.2.1.3.2.5.2.6.3.7.6 1.1 1 1.6.7.9 1.6 1.5 2.5 2.1l.9.6c1.4 1 2.5 2.3 3.8 3.7.7.8 1.4 1.3 2.2 1.9.3.2.7.5 1.1.8 1.4 1.1 3.1.6 4-.6.6-.8.9-2.1-.4-3.1-.3-.3-.7-.5-1.1-.8-.7-.5-1.4-1-2-1.7l-.2-.2c-.9-1.1-1.8-2-2.8-2.9-.5-.4-1.1-.8-1.7-1.2-.7-.4-1.4-.9-1.9-1.4-.6-.5-.9-1.3-1.2-2-.2-.4-.3-.8-.5-1.1-.7-1.2-1.5-1.9-2.4-2.1-1-.2-2.2.1-3.6 1-.3.2-.5.3-.8.5-2.5 1.6-5.3 3.5-8.4 3-1.2-.2-2.7.2-3.2 1.8-.2.7 0 1.5.4 2.2.4.5.8.9 1.4 1 2.7.4 5.1.1 7.6-1 1.1-.5 2.2-1 3.3-1.7.3-.2.7-.5 1.1-.8.2-.1.4-.3.6-.4-.2-.4-.3-.9-.5-1v-.1l2 .3v.1c-.5.1-1 .4-1.5.7m-.4-1c.1.2.3.5.4.9.4-.3.8-.6 1.2-.7l-1.6-.2zM101 92.8c2.7.4 5.1.1 7.6-1 1.2-.5 2.3-1.1 3.3-1.7.9-.6 2.2-1.7 3.2-2.1-.7-.1-1.3-.2-2-.3.3.2.6 1.6.8 1.9.3.6.6 1.1 1 1.6.9 1.2 2.2 1.9 3.4 2.7 1.4 1 2.6 2.3 3.7 3.7 1 1.1 2.1 1.8 3.3 2.7 2.6 2.1 6.3-1.6 3.7-3.7-1-.8-2.2-1.4-3.1-2.4-1-1.1-1.9-2.2-3-3.2s-2.6-1.7-3.6-2.6c-.9-.8-1.1-2.1-1.7-3.1-1.6-2.8-3.6-2.8-6.1-1.2-2.7 1.7-5.8 4-9.2 3.6-1.4-.2-2.8.3-3.2 1.8-.3 1.3.5 3.1 1.9 3.3M84.7 92.4c-.8 0-1.5-.3-1.9-.9-.5-.8-.6-1.9-.2-2.9.4-.9 1.2-1.5 2.3-1.6 4.9-.4 9.8-.5 14.7-.4 1.7 0 2.6 1.4 2.6 2.8 0 1.2-.8 2.6-2.5 2.6h-.1c-4.9-.1-9.8.1-14.7.4v-.1.1h-.2m12.1-5.7c-3.9 0-7.9.2-11.8.5-1 .1-1.8.6-2.2 1.5-.4.9-.4 2 .1 2.8.4.6 1.2.9 2 .9 4.9-.4 9.8-.5 14.7-.4h.1c1.6 0 2.4-1.3 2.4-2.4 0-1.3-.8-2.6-2.5-2.7-.9-.2-1.9-.2-2.8-.2M85 92.3c4.9-.4 9.8-.5 14.7-.4 3.4.1 3.4-5.2 0-5.2-4.9-.1-9.8 0-14.7.4-3.3.3-3.4 5.5 0 5.2M73.4 96.5c-.3 0-.7-.1-1.1-.3-.7-.4-1.3-1.1-1.5-1.8-.4-1.4.4-2.7 1.9-3.3 1.5-.6 3.1-1.1 4.6-1.6.5-.2 1-.3 1.6-.5h.1c2-.7 3.9-1.3 6-1.3 1.8 0 2.6 1.4 2.6 2.6 0 1.3-.9 2.7-2.6 2.7-1.5 0-2.9.5-4.3 1-.4.1-.8.3-1.2.4l-.7.2c-1.6.5-3.2 1-4.7 1.7-.2.1-.5.2-.7.2m11.5-8.7c-2.1 0-4 .6-6 1.3h-.1c-.5.2-1 .3-1.6.5-1.5.5-3.1 1-4.6 1.6-1.7.7-2.1 2.1-1.8 3.1.2.7.7 1.3 1.5 1.7.6.3 1.2.3 1.7.1 1.5-.6 3.1-1.2 4.7-1.7l.7-.2c.4-.1.8-.3 1.2-.4 1.4-.5 2.8-1 4.3-1 1.2 0 2.5-.8 2.5-2.6 0-1.1-.8-2.4-2.5-2.4M74.1 96.3c1.8-.7 3.6-1.3 5.4-1.9 1.8-.6 3.5-1.4 5.4-1.4 3.4 0 3.4-5.3 0-5.2-2.2 0-4.1.7-6.1 1.3-2.1.7-4.1 1.3-6.1 2.1-1.3.6-2.2 1.7-1.8 3.2.3 1.3 1.9 2.4 3.2 1.9M133.1 96.1c-1.2 0-2.6-.8-2.6-2.7 0-.7.2-1.4.6-1.8.5-.5 1.1-.8 1.9-.8.8 0 1.5.3 1.9.8.4.5.6 1.1.6 1.8.2 1.8-1.2 2.7-2.4 2.7m0-5.3c-1.7 0-2.5 1.3-2.5 2.6 0 .7.2 1.3.6 1.8.4.5 1.1.8 1.8.8 1.7 0 2.5-1.3 2.5-2.6.1-1.3-.7-2.6-2.4-2.6M133.1 96c3.4 0 3.4-5.2 0-5.2s-3.4 5.2 0 5.2"/><path class="st8" d="M63.2 120.7c-.8 0-1.5-.3-1.9-.8-.4-.5-.6-1.1-.6-1.8 0-1.8 1.3-2.7 2.6-2.7.8 0 1.5.3 1.9.8.4.5.6 1.1.6 1.8 0 1.8-1.3 2.7-2.6 2.7m0-5.3c-1.7 0-2.5 1.3-2.5 2.6 0 .7.2 1.3.6 1.8.4.5 1.1.8 1.8.8 1.7 0 2.5-1.3 2.5-2.6.1-1.2-.7-2.6-2.4-2.6M63.2 120.6c3.4 0 3.4-5.2 0-5.2s-3.4 5.2 0 5.2M62.3 119.3c-.8 0-1.5-.3-1.9-.8-.4-.5-.6-1.1-.6-1.8 0-1.8 1.3-2.7 2.6-2.7.8 0 1.5.3 1.9.8.4.5.6 1.1.6 1.8 0 1.9-1.3 2.7-2.6 2.7m0-5.2c-1.7 0-2.5 1.3-2.5 2.6 0 .7.2 1.3.6 1.8.4.5 1.1.8 1.8.8 1.7 0 2.5-1.3 2.5-2.6.1-1.3-.7-2.6-2.4-2.6M62.3 119.2c3.4 0 3.4-5.2 0-5.2s-3.4 5.2 0 5.2M61.5 121.6c-.8 0-1.5-.3-1.9-.8-.4-.5-.6-1.1-.6-1.8 0-1.8 1.3-2.7 2.6-2.7.8 0 1.5.3 1.9.8.4.5.6 1.1.6 1.8 0 1.9-1.3 2.7-2.6 2.7m0-5.2c-1.7 0-2.5 1.3-2.5 2.6 0 .7.2 1.3.6 1.8.4.5 1.1.8 1.8.8 1.7 0 2.5-1.3 2.5-2.6.1-1.3-.7-2.6-2.4-2.6M61.5 121.5c3.4 0 3.4-5.2 0-5.2s-3.4 5.2 0 5.2"/><path class="st9" d="M74.5 147.8c-.5 0-1-.1-1.5-.2-.1 0-.2 0-.4-.1-1.5-.1-2.6-1.2-2.7-2.7 0-.7.3-1.4.8-1.9s1.2-.8 1.9-.8c.5 0 .9.1 1.4.2.1 0 .2 0 .4.1H74.7c1.4 0 2.6 1.2 2.6 2.7 0 .6-.2 1.3-.7 1.8-.5.6-1.3.9-2.1.9.1 0 .1 0 0 0m-1.6-.3h.1c.5.1 1 .2 1.5.2.7 0 1.4-.3 1.9-.9.4-.5.7-1.1.7-1.7-.1-1.3-1.1-2.4-2.3-2.5v.1l-.7-.1H74c-.4-.1-.9-.2-1.4-.2-.6 0-1.3.2-1.8.8-.5.5-.8 1.2-.8 1.8.1 1.3.9 2.3 2.1 2.5h.8zM72.7 147.5h.3c-.2 0-.5-.1-.7-.1.8.1 1.6.4 2.4.3 1.4 0 2.7-1.2 2.6-2.6-.1-1.4-1.2-2.6-2.6-2.6h-.4l.7.1c-.7-.1-1.5-.3-2.2-.3-1.4-.1-2.7 1.2-2.6 2.6-.1 1.4 1 2.5 2.5 2.6"/><path class="st10" d="M98.4 156H98c-1.4-.2-2.9-.4-4.3-.6-1.5-.3-3.1-.5-4.7-.7-.9-.1-1.7-.1-2.5-.2-2-.1-4-.2-6-1.2-.8-.4-1.3-1-1.4-1.9-.1-.9.5-2 1.3-2.6.8-.6 1.8-.7 2.8-.2 1.3.6 3 .7 4.6.7.9 0 1.8 0 2.7.1 1 .1 2.1.3 3.1.5 1.5.2 2.9.5 4.4.7 1.8.2 2.7 1.9 2.5 3.4-.1.9-.7 2-2.1 2M82 148.4c-.5 0-1 .2-1.5.5-.8.6-1.3 1.6-1.3 2.5.1.8.5 1.4 1.3 1.8 2 .9 3.9 1 5.9 1.1.8 0 1.7.1 2.5.2 1.6.2 3.2.5 4.7.7 1.4.2 2.8.5 4.3.6 1.6.2 2.3-.9 2.4-1.9.2-1.4-.7-3-2.4-3.3-1.5-.2-3-.4-4.4-.7-1-.2-2-.3-3.1-.5-.8-.1-1.7-.1-2.6-.1-1.6 0-3.3 0-4.7-.7-.3-.1-.7-.2-1.1-.2M80.6 153.2c2.8 1.3 5.5 1 8.5 1.3 3 .4 6 1 9 1.4 3.3.4 3.3-4.8 0-5.2-2.5-.3-5-.8-7.5-1.2-2.3-.3-5.2.2-7.3-.8-3.1-1.5-5.8 3-2.7 4.5M106.1 159c-1.2 0-2.6-.8-2.6-2.7 0-.7.2-1.4.6-1.8.5-.5 1.1-.8 1.9-.8.8 0 1.5.3 1.9.8.4.5.6 1.1.6 1.8.2 1.9-1.2 2.7-2.4 2.7m0-5.2c-1.7 0-2.5 1.3-2.5 2.6 0 .7.2 1.3.6 1.8.4.5 1.1.8 1.8.8 1.7 0 2.5-1.3 2.5-2.6.1-1.3-.7-2.6-2.4-2.6M106.1 159c3.4 0 3.4-5.2 0-5.2-3.4-.1-3.4 5.2 0 5.2M96.2 159.9c-1.2 0-2.6-.8-2.6-2.7 0-.7.2-1.4.6-1.8.5-.5 1.1-.8 1.9-.8.8 0 1.5.3 1.9.8.4.5.6 1.1.6 1.8.2 1.8-1.2 2.7-2.4 2.7m0-5.3c-1.7 0-2.5 1.3-2.5 2.6 0 .7.2 1.3.6 1.8.4.5 1.1.8 1.8.8 1.7 0 2.5-1.3 2.5-2.6s-.7-2.6-2.4-2.6M96.2 159.8c3.4 0 3.4-5.2 0-5.2s-3.4 5.2 0 5.2"/><path class="st11" d="M115.7 138.1c-1.9 0-3.6-.2-5.1-.5-.9-.2-1.5-.7-1.8-1.4-.3-.9-.1-2 .6-2.8.7-.8 1.6-1.1 2.6-.9 1.6.3 5.7.9 8.6-.5.9-.4 1.9-.4 2.7.2.9.6 1.4 1.6 1.3 2.6-.1.8-.5 1.5-1.4 1.9-2.3 1-5 1.4-7.5 1.4m-5-.6c3.4.6 8.4 1 12.6-1.1.8-.4 1.2-1 1.3-1.8.1-.9-.4-1.9-1.3-2.5-.8-.5-1.7-.6-2.6-.2-3 1.4-7 .9-8.7.6-1-.2-1.9.1-2.5.9-.7.8-.9 1.8-.6 2.7.4.8 1 1.3 1.8 1.4M110.7 137.6c4.2.8 8.8.8 12.7-1.1 3-1.5.4-6-2.6-4.5-2.5 1.2-6 1-8.6.5-3.4-.6-4.8 4.5-1.5 5.1M122.3 134.9c-1.2 0-2.6-.8-2.6-2.7 0-.7.2-1.4.6-1.8.5-.5 1.1-.8 1.9-.8.8 0 1.5.3 1.9.8.4.5.6 1.1.6 1.8.2 1.9-1.2 2.7-2.4 2.7m0-5.2c-1.7 0-2.5 1.3-2.5 2.6 0 .7.2 1.3.6 1.8.4.5 1.1.8 1.8.8 1.7 0 2.5-1.3 2.5-2.6.1-1.3-.7-2.6-2.4-2.6M122.3 134.9c3.4 0 3.4-5.2 0-5.2-3.4-.1-3.4 5.2 0 5.2M121.4 135.5c-1.2 0-2.6-.8-2.6-2.7 0-.7.2-1.4.6-1.8.5-.5 1.1-.8 1.9-.8.8 0 1.5.3 1.9.8.4.5.6 1.1.6 1.8.2 1.9-1.1 2.7-2.4 2.7m0-5.2c-1.7 0-2.5 1.3-2.5 2.6 0 .7.2 1.3.6 1.8.4.5 1.1.8 1.8.8 1.7 0 2.5-1.3 2.5-2.6.1-1.3-.7-2.6-2.4-2.6M121.4 135.5c3.4 0 3.4-5.2 0-5.2-3.3-.1-3.3 5.2 0 5.2"/><path class="st12" d="M123.4 132.8c-1.2 0-2.6-.8-2.6-2.7 0-.7.2-1.4.6-1.8.5-.5 1.1-.8 1.9-.8.8 0 1.5.3 1.9.8.4.5.6 1.1.6 1.8.2 1.9-1.1 2.7-2.4 2.7m0-5.2c-1.7 0-2.5 1.3-2.5 2.6 0 .7.2 1.3.6 1.8.4.5 1.1.8 1.8.8 1.7 0 2.5-1.3 2.5-2.6.1-1.3-.7-2.6-2.4-2.6M123.4 132.8c3.4 0 3.4-5.2 0-5.2-3.4-.1-3.4 5.2 0 5.2M122.6 132.8c-1.2 0-2.6-.8-2.6-2.7 0-1.8 1.3-2.7 2.6-2.7.8 0 1.5.3 1.9.8.4.5.6 1.1.6 1.8.1 1.9-1.2 2.8-2.5 2.8m0-5.3c-1.7 0-2.5 1.3-2.5 2.6 0 .7.2 1.3.6 1.8.4.5 1.1.8 1.8.8 1.7 0 2.5-1.3 2.5-2.6.1-1.2-.7-2.6-2.4-2.6M122.6 132.7c3.4 0 3.4-5.2 0-5.2s-3.4 5.2 0 5.2"/><path class="st11" d="M107.8 137c-1.2 0-2.6-.8-2.6-2.7 0-.7.2-1.4.6-1.8.5-.5 1.1-.8 1.9-.8.8 0 1.5.3 1.9.8.4.5.6 1.1.6 1.8.2 1.8-1.1 2.7-2.4 2.7m0-5.3c-1.7 0-2.5 1.3-2.5 2.6 0 .7.2 1.3.6 1.8.4.5 1.1.8 1.8.8 1.7 0 2.5-1.3 2.5-2.6.1-1.2-.7-2.6-2.4-2.6M107.8 136.9c3.4 0 3.4-5.2 0-5.2-3.3 0-3.3 5.2 0 5.2"/><path class="st13" d="M92.9 132.2c-.8 0-1.5-.3-1.9-.8-.4-.5-.6-1.1-.6-1.8 0-1.8 1.3-2.7 2.6-2.7.8 0 1.5.3 1.9.8.4.5.6 1.1.6 1.8 0 1.9-1.4 2.7-2.6 2.7m0-5.2c-1.7 0-2.5 1.3-2.5 2.6 0 .7.2 1.3.6 1.8.4.5 1.1.8 1.8.8 1.7 0 2.5-1.3 2.5-2.6.1-1.3-.7-2.6-2.4-2.6M92.9 132.1c3.4 0 3.4-5.2 0-5.2s-3.4 5.2 0 5.2M92.4 132.5c-.8 0-1.5-.3-1.9-.8-.4-.5-.6-1.1-.6-1.8 0-1.8 1.3-2.7 2.6-2.7.8 0 1.5.3 1.9.8.4.5.6 1.1.6 1.8 0 1.9-1.4 2.7-2.6 2.7m0-5.2c-.8 0-1.4.3-1.8.8-.4.5-.6 1.1-.6 1.8 0 1.2.8 2.6 2.5 2.6s2.5-1.3 2.5-2.6c-.2-1.3-.9-2.6-2.6-2.6M92.4 132.4c3.4 0 3.4-5.2 0-5.2s-3.4 5.2 0 5.2M92.4 132.6c-1.2 0-2.6-.8-2.6-2.7 0-1.8 1.3-2.7 2.6-2.7.8 0 1.5.3 1.9.8.4.5.6 1.1.6 1.8.1 2-1.2 2.8-2.5 2.8m0-5.2c-1.7 0-2.5 1.3-2.5 2.6 0 .7.2 1.3.6 1.8.4.5 1.1.8 1.8.8 1.7 0 2.5-1.3 2.5-2.6.1-1.3-.7-2.6-2.4-2.6M92.4 132.6c3.4 0 3.4-5.2 0-5.2-3.3-.1-3.3 5.2 0 5.2M92.1 132.5c-.8 0-1.5-.3-1.9-.8-.4-.5-.6-1.1-.6-1.8 0-1.8 1.3-2.7 2.6-2.7.8 0 1.5.3 1.9.8.4.5.6 1.1.6 1.8 0 1.9-1.3 2.7-2.6 2.7m0-5.2c-1.7 0-2.5 1.3-2.5 2.6 0 .7.2 1.3.6 1.8.4.5 1.1.8 1.8.8 1.7 0 2.5-1.3 2.5-2.6.1-1.3-.7-2.6-2.4-2.6M92.1 132.4c3.4 0 3.4-5.2 0-5.2s-3.4 5.2 0 5.2"/><path class="st14" d="M83.1 128.4c-.2 0-.4 0-.6-.1-.9-.2-1.9-.4-2.8-.6-1.4-.4-2.2-1.8-1.9-3.3.1-.6.6-1.2 1.1-1.5.6-.4 1.5-.5 2.1-.3.9.2 1.8.4 2.8.6.6.1 1.1.5 1.5 1 .4.7.6 1.5.4 2.3-.2 1.2-1.4 1.9-2.6 1.9m-2.6-5.8c-.5 0-1 .1-1.4.4-.6.3-1 .9-1.1 1.5-.3 1.4.5 2.8 1.8 3.1.9.2 1.8.4 2.8.6 1.3.2 2.8-.4 3.1-1.8.2-.7 0-1.6-.4-2.2-.3-.5-.8-.8-1.4-.9-.9-.2-1.9-.4-2.8-.6-.2-.1-.4-.1-.6-.1M79.7 127.7c.9.2 1.8.4 2.8.6 1.3.2 2.9-.4 3.2-1.8.3-1.3-.4-3-1.8-3.2-.9-.2-1.9-.4-2.8-.6-1.3-.3-2.9.4-3.2 1.8-.3 1.3.4 2.8 1.8 3.2M88.7 130.6c-.5 0-1-.1-1.4-.3-.8-.4-1.5-.8-2.3-1.3-1.1-.6-1.8-2.2-1-3.7.3-.6.8-1 1.5-1.2.7-.2 1.5-.1 2.2.2l2.3 1.3c1.1.6 1.8 2.2 1 3.7-.3.6-.8 1-1.5 1.2-.2.1-.5.1-.8.1m-2.4-6.4c-.3 0-.5 0-.8.1-.6.2-1.1.6-1.4 1.1-.8 1.4-.1 2.9.9 3.5.8.4 1.5.8 2.3 1.3.6.3 1.4.4 2.1.2.6-.2 1.1-.6 1.4-1.1.8-1.4.1-2.9-.9-3.5l-2.3-1.3c-.3-.2-.8-.3-1.3-.3M85 129c.8.4 1.5.8 2.3 1.3 1.2.7 2.9.3 3.6-.9.6-1.2.3-2.9-.9-3.6-.8-.4-1.5-.8-2.3-1.3-1.2-.7-2.9-.3-3.6.9-.6 1.2-.3 2.9.9 3.6M78.4 128.4c-.2 0-.5 0-.7-.1-1.2-.5-2.5-.8-3.7-1.2-1.4-.3-2.2-1.8-1.9-3.3.1-.6.5-1.2 1.1-1.5.6-.4 1.5-.5 2.2-.3 1.3.3 2.5.7 3.8 1.2 1.5.5 2.2 1.8 1.9 3.3-.2.7-.7 1.3-1.4 1.7-.5 0-.9.2-1.3.2m-3.7-6.5c-.5 0-1 .1-1.5.4-.6.3-.9.9-1.1 1.4-.3 1.2.3 2.8 1.8 3.1 1.3.3 2.5.7 3.8 1.2.6.2 1.2.1 1.8-.2.7-.4 1.2-1 1.3-1.6.3-1.4-.4-2.6-1.8-3.1-1.2-.5-2.5-.8-3.7-1.2-.2.1-.4 0-.6 0M79.1 123.1c-1.2-.5-2.5-.8-3.7-1.2-1.3-.3-2.9.4-3.2 1.8-.3 1.4.4 2.9 1.8 3.2 1.3.3 2.5.7 3.7 1.2 1.3.5 2.9-.5 3.2-1.8.3-1.4-.4-2.7-1.8-3.2"/><path class="st13" d="M96.3 132.4c-1.2 0-2.6-.8-2.6-2.7 0-.7.2-1.4.6-1.8.5-.5 1.1-.8 1.9-.8.8 0 1.5.3 1.9.8.4.5.6 1.1.6 1.8.2 1.9-1.2 2.7-2.4 2.7m0-5.2c-1.7 0-2.5 1.3-2.5 2.6 0 .7.2 1.3.6 1.8.4.5 1.1.8 1.8.8 1.7 0 2.5-1.3 2.5-2.6.1-1.3-.7-2.6-2.4-2.6M96.3 132.4c3.4 0 3.4-5.2 0-5.2-3.4-.1-3.4 5.2 0 5.2M94.2 133c-1.2 0-2.6-.8-2.6-2.7 0-.7.2-1.4.6-1.8.5-.5 1.1-.8 1.9-.8.8 0 1.5.3 1.9.8.4.5.6 1.1.6 1.8.2 1.9-1.1 2.7-2.4 2.7m0-5.2c-1.7 0-2.5 1.3-2.5 2.6 0 .7.2 1.3.6 1.8.4.5 1.1.8 1.8.8 1.7 0 2.5-1.3 2.5-2.6.1-1.3-.7-2.6-2.4-2.6M94.2 133c3.4 0 3.4-5.2 0-5.2-3.4-.1-3.4 5.2 0 5.2M93.2 132.5c-.8 0-1.5-.3-1.9-.8-.4-.5-.6-1.1-.6-1.8 0-1.8 1.3-2.7 2.6-2.7.8 0 1.5.3 1.9.8.4.5.6 1.1.6 1.8-.1 1.9-1.4 2.7-2.6 2.7m0-5.2c-1.7 0-2.5 1.3-2.5 2.6 0 .7.2 1.3.6 1.8.4.5 1.1.8 1.8.8 1.7 0 2.5-1.3 2.5-2.6s-.7-2.6-2.4-2.6M93.2 132.4c3.4 0 3.4-5.2 0-5.2s-3.4 5.2 0 5.2M92.8 132.5c-.8 0-1.5-.3-1.9-.8-.4-.5-.6-1.1-.6-1.8 0-1.8 1.3-2.7 2.6-2.7.8 0 1.5.3 1.9.8.4.5.6 1.1.6 1.8 0 1.9-1.3 2.7-2.6 2.7m0-5.2c-1.7 0-2.5 1.3-2.5 2.6 0 .7.2 1.3.6 1.8.4.5 1.1.8 1.8.8 1.7 0 2.5-1.3 2.5-2.6.1-1.3-.7-2.6-2.4-2.6M92.8 132.4c3.4 0 3.4-5.2 0-5.2s-3.4 5.2 0 5.2M92.5 132.7c-.8 0-1.5-.3-1.9-.8-.4-.5-.6-1.1-.6-1.8 0-1.8 1.3-2.7 2.6-2.7.8 0 1.5.3 1.9.8.4.5.6 1.1.6 1.8 0 1.8-1.4 2.7-2.6 2.7m0-5.3c-1.7 0-2.5 1.3-2.5 2.6 0 .7.2 1.3.6 1.8.4.5 1.1.8 1.8.8 1.7 0 2.5-1.3 2.5-2.6 0-1.2-.7-2.6-2.4-2.6M92.5 132.6c3.4 0 3.4-5.2 0-5.2s-3.4 5.2 0 5.2M92.1 132.8c-.8 0-1.5-.3-1.9-.8-.4-.5-.6-1.1-.6-1.8 0-1.8 1.3-2.7 2.6-2.7.8 0 1.5.3 1.9.8.4.5.6 1.1.6 1.8 0 1.8-1.3 2.7-2.6 2.7m0-5.3c-1.7 0-2.5 1.3-2.5 2.6 0 .7.2 1.3.6 1.8.4.5 1.1.8 1.8.8 1.7 0 2.5-1.3 2.5-2.6.1-1.2-.7-2.6-2.4-2.6M92.1 132.7c3.4 0 3.4-5.2 0-5.2-3.3 0-3.3 5.2 0 5.2M92 133c-.6 0-1.3-.3-1.8-.8s-.8-1.2-.8-1.9.3-1.3.8-1.9c.4-.5 1.1-.8 1.9-.8h.1c.6 0 1.3.3 1.8.8s.8 1.2.8 1.9-.3 1.3-.8 1.9c-.5.5-1.2.8-2 .8m.1-5.2c-.8 0-1.5.3-1.9.7-.5.5-.7 1.2-.7 1.8 0 .7.3 1.3.7 1.8.5.5 1.2.8 1.8.7.8 0 1.4-.3 1.8-.7.5-.5.8-1.2.8-1.8 0-.7-.3-1.4-.7-1.8-.5-.4-1.2-.7-1.8-.7M89.4 130.3c0 .7.3 1.4.8 1.9s1.2.8 1.9.8 1.4-.3 1.9-.8.8-1.1.8-1.9c0-.7-.3-1.4-.8-1.9s-1.2-.8-1.9-.8-1.4.3-1.9.8c-.5.6-.8 1.2-.8 1.9M92.5 132.3c-.8 0-1.5-.3-1.9-.8-.4-.5-.6-1.1-.6-1.8 0-1.8 1.3-2.7 2.6-2.7.8 0 1.5.3 1.9.8.4.5.6 1.1.6 1.8 0 1.9-1.3 2.7-2.6 2.7m0-5.2c-1.7 0-2.5 1.3-2.5 2.6 0 .7.2 1.3.6 1.8.4.5 1.1.8 1.8.8 1.7 0 2.5-1.3 2.5-2.6.1-1.3-.7-2.6-2.4-2.6M92.5 132.3c3.4 0 3.4-5.2 0-5.2-3.3-.1-3.3 5.2 0 5.2M92.4 132.4c-.8 0-1.5-.3-1.9-.8-.4-.5-.6-1.1-.6-1.8 0-1.8 1.3-2.7 2.6-2.7.8 0 1.5.3 1.9.8.4.5.6 1.1.6 1.8 0 1.8-1.4 2.7-2.6 2.7m0-5.3c-1.7 0-2.5 1.3-2.5 2.6 0 .7.2 1.3.6 1.8.4.5 1.1.8 1.8.8 1.7 0 2.5-1.3 2.5-2.6.1-1.2-.7-2.6-2.4-2.6M92.4 132.3c3.4 0 3.4-5.2 0-5.2s-3.4 5.2 0 5.2M92.1 132.5c-.8 0-1.5-.3-1.9-.8-.4-.5-.6-1.1-.6-1.8 0-1.8 1.3-2.7 2.6-2.7.8 0 1.5.3 1.9.8.4.5.6 1.1.6 1.8 0 1.8-1.3 2.7-2.6 2.7m0-5.3c-1.7 0-2.5 1.3-2.5 2.6 0 .7.2 1.3.6 1.8.4.5 1.1.8 1.8.8 1.7 0 2.5-1.3 2.5-2.6.1-1.3-.7-2.6-2.4-2.6M92.1 132.4c3.4 0 3.4-5.2 0-5.2-3.3 0-3.3 5.2 0 5.2"/><path class="st15" d="M103 129.4l6.8-4 9.5-1.5-3 2.8-7 1.4-1.1.6-5.2.8zM119.1 124l-9.3 1.5-3.6 2.1-3.2 1.8 5.2-.8 1-.5 7.1-1.4zM85.1 122.3l-6.1-5.9v-.1l10.7 4.8 6.8 5.4-3.5.8zM96.4 126.5l-6.7-5.3-10.7-4.8 6.1 5.9 7.9 5z"/><path class="st16" d="M77.9 173.8l-.1-.1c-.1-.1-13.6-13.9-16.6-24.5v-.1h.1l12 .7 4.6 24zm-16.5-24.6c2.8 10 14.9 22.7 16.4 24.2l-4.6-23.5-11.8-.7zM61.3 149.1l11.9.7 4.7 23.8c-.1 0-13.6-13.7-16.6-24.5"/><path class="st17" d="M98.4 156.9c-1.9 0-3.3-.2-3.9-.3-5.2-.5-13.1-5.7-13.2-5.7v-.1l1.4.4c2.8 1.5 13.1 3 13.2 3 4.6.4 6.9.6 8.2.6.7 0 1.2 0 1.7-.2 1.2-.3 4.4-1.4 4.4-1.5l.1.1-1 1.1c-3.7 2.1-8 2.6-10.9 2.6"/><path class="st17" d="M81.4 150.8s7.9 5.2 13.1 5.7c.1 0 8.2 1.4 14.9-2.3l1-1.1s-3.2 1.2-4.4 1.5c-1.1.3-2.6.3-10-.4 0 0-10.4-1.5-13.2-3l-1.4-.4z"/><path class="st18" d="M90.1 157.1h-.3c-.2-.1-4-3.5-4.4-3.9l.1-.1c4.4 2.5 10.1 3.5 10.1 3.5v.1c-.9.1-4.5.4-5.5.4m-4.3-3.6c1.7 1.5 3.9 3.4 4 3.5.2.1 3.1-.1 5.3-.3-1.4-.3-5.7-1.3-9.3-3.2M85.4 153.2s4.2 3.7 4.4 3.9c.2.1 5.7-.3 5.7-.3s-5.7-1.1-10.1-3.6"/><path class="st19" d="M98.3 158.5c-3.8 0-8.5-1.4-8.5-1.4v-.1l5.5-.4 6.2 1.4-.2.1c-.9.3-1.9.4-3 .4m-8.1-1.4c1.5.4 7.7 2 10.8 1l-5.7-1.3-5.1.3zM101.2 158l-6-1.4-5.5.4c.1 0 7.9 2.4 11.5 1"/><path class="st20" d="M101.2 158.1l-6.1-1.4-.2-.2.3.1c.7.1 7.1.2 10.3-.8v.1l-4.3 2.2zm-5.3-1.4l5.3 1.2 3.7-1.9c-2.7.8-7.2.8-9 .7M105.5 155.9l-4.3 2.2-6.1-1.4c.1 0 7 .2 10.4-.8"/><path class="st21" d="M96.3 178l-.1-.2-6.6-20.9h.1c7.3 1.9 11.3 1 11.4 1h.1v.1l-4.9 20zm-6.4-20.9l6.4 20.5 4.8-19.5c-.6.1-4.6.7-11.2-1M89.8 157l6.5 20.8 4.9-19.8s-4 .9-11.4-1"/><path class="st22" d="M93.4 178.2c-1.9 0-4.9-.3-8.8-1.6L76.1 165l5.3-14.2h.1s1.6 1.1 4 2.3c1.3.7 2.4 1.9 3.6 3l.9.9 6.6 20.9h-.1c-.2 0-1.2.3-3.1.3"/><path class="st22" d="M76.2 165l5.3-14.1s1.6 1.1 4 2.3c1.6.8 3 2.5 4.4 3.9l6.5 20.8s-4.3 1.2-11.7-1.3L76.2 165z"/><path class="st23" d="M110.4 153.2l-1.9-12.2h.1l7.3 11.4-2.6 5.3zM115.8 152.4l-2.5 5.1-2.9-4.3-1.9-12.2z"/><path class="st24" d="M113.2 157.6l2.6-5.2L127 149v.1c-1.3 6.6-9 15.3-9.1 15.4l-.1.1-4.6-7zM117.8 164.5s7.8-8.8 9.1-15.4l-11.1 3.3-2.5 5.1 4.5 7z"/><path class="st25" d="M73.1 149.8l3.9-3.2 4.5 4.2-5.4 14.4zM77 146.7l-3.8 3.1 3 15.2 5.2-14.2z"/><path class="st9" d="M73.2 149.9l-12-.7c-3-9.6 2.9-34.3 3-34.5h.1c.4 8.9 1.9 20.9 6.8 27.7 3 4 5.8 4.3 5.8 4.3h.2l-3.9 3.2zm-11.9-.9l11.9.7 3.7-3c-.6-.1-3.2-.7-5.8-4.3-4.9-6.7-6.4-18.5-6.8-27.3-.9 3.3-5.7 25-3 33.9M64.3 114.6s-6 24.7-3 34.5l11.9.7 3.8-3.1s-11.4-.8-12.7-32.1"/><path class="st26" d="M77 146.8c-.1 0-1.4-.2-3.3-1.6-1.7-1.3-4.1-4-6-9.2l6.2-12.2 13.3 14.5-10.2 8.5zM87.1 138.2L77 146.7s-5.6-.6-9.2-10.8l6.1-12.1 13.2 14.4z"/><path class="st27" d="M67.8 136.1l-.1-.1c0-.1-2.9-6.4-3.5-21.3v-.2l9.8 9.3-6.2 12.3zm-3.5-21.3c.3 7.7 1.3 13 2 16.1.7 2.9 1.3 4.4 1.5 4.8l6.1-12-9.6-8.9zM64.3 114.6l9.7 9.2-6.1 12.1c-.1 0-3-6.1-3.6-21.3"/><path class="st28" d="M100.8 150.7s-.8-.4-2.4-.1c-.3-.2-6.9-4.5-7.3-4.8-.4-.3-1.9-2.1-2-2.2l-.1-.1h.2s1.6.3 3.5 1c1.8.7 4.1 1.9 5.4 3.8 0 0 1.2 1.2 2 .7.2-.1.4-.3.7-.5 1.3-1 3.4-2.6 5.1-1.9 0 0 .3.3.2.6 0 .1-.1.2-.3.3-.4.3-4.9 3.1-5 3.2zm-1.2-.4c.7 0 1.1.2 1.2.2.4-.2 4.6-2.8 5.1-3.1.1-.1.2-.1.2-.2 0-.2-.2-.4-.2-.4-1.7-.7-3.8.9-5 1.9-.3.2-.6.4-.7.5-.9.5-2.1-.7-2.2-.7-1.2-1.9-3.6-3.1-5.3-3.7-1.5-.6-2.9-.9-3.4-1 .4.4 1.5 1.8 1.8 2 .3.3 6.8 4.5 7.3 4.7.5-.2.8-.2 1.2-.2M89.1 143.6s6.5 1.2 8.9 4.8c0 0 1.2 1.2 2.1.7.9-.5 3.6-3.3 5.8-2.4 0 0 .5.5 0 .8-.5.3-5.1 3.1-5.1 3.1s-.7-.4-2.4-.1c0 0-6.9-4.5-7.3-4.8-.4-.2-2-2.1-2-2.1"/><path class="st29" d="M96.4 150.9c-.7 0-1.3-.2-1.7-.5 0 0-2.4-.7-6.9-.7l-6.4 1.2-4.5-4.2 10.2-8.6 2.1 5.5 2 2.2 7.4 4.8h-.1c-.1 0-1.1.3-2.1.3"/><path class="st29" d="M87.1 138.2l2 5.4 2 2.2 7.3 4.8s-2.3.8-3.7-.1c0 0-2.4-.7-6.9-.7l-6.4 1.2-4.4-4.1 10.1-8.7z"/><path class="st30" d="M110.5 153.2c-.3 0-4.6-.3-6.3-1.1 0 0-2.6-1.5-3.4-1.5h-.2l5.3-3.3c.1-.2 1.9-2.7 1.9-3.4-.1-.7-1.6-5.8-1.7-5.8l.1-.1 2.4 2.8 1.9 12.4zm-9.5-2.6c.9.2 3.2 1.4 3.3 1.5 1.6.8 5.5 1 6.1 1.1l-1.9-12.2-2.2-2.6c.3 1.1 1.5 4.9 1.6 5.6.1.7-1.8 3.4-1.9 3.5l-5 3.1zM106.1 138.1l2.4 2.8 1.9 12.3s-4.5-.3-6.2-1.1c0 0-2.7-1.5-3.5-1.5l5.1-3.2s2-2.7 1.9-3.5c0-.7-1.6-5.8-1.6-5.8"/><path class="st31" d="M96.3 146.7c-1.8-1.6-7.1-3-7.2-3l-2.1-5.5 6.4-3 3.1 11.6-.2-.1zM93.3 135.2l-6.3 2.9 2 5.4s5.3 1.4 7.2 3l-2.9-11.3z"/><path class="st32" d="M93.3 135.3l2.3-6.5 4.3 7.4-3.6 10.6zM95.6 129l-2.3 6.2 3 11.4 3.5-10.4z"/><path class="st33" d="M99.6 149.3c-.9 0-1.6-.9-1.6-.9-.9-1.1-1.7-1.7-1.7-1.8l3.6-10.5 5.5 10.5h-.1c-1.1-.2-4.3 1.9-4.6 2.2-.4.3-.7.5-1.1.5m-3.2-2.7c.2.1.9.7 1.6 1.7 0 0 .7.8 1.5.9.3 0 .7-.1.9-.4.3-.3 3.3-2.3 4.5-2.3l-5.2-10.1-3.3 10.2zM105.2 146.5l-5.3-10.3-3.5 10.4s.8.6 1.7 1.8c0 0 1.4 1.7 2.6.4.1-.3 3.4-2.4 4.5-2.3"/><path class="st34" d="M105.9 146.8l-.7-.2-5.4-10.4 3.2-6.9 3.4 9.1s1.2 4.3 1.5 5.2c.3 1.1-1.6 3.5-1.7 3.6l-.1.1-.2-.5zM103 129.4l-3.1 6.8 5.3 10.3.7.2.2.4s1.9-2.5 1.6-3.5c-.2-.9-1.5-5.2-1.5-5.2l-3.2-9z"/><path class="st35" d="M64.2 114.7L67.7 94h.1l6.2 30zM67.8 94.1l-3.5 20.5 9.6 9.2z"/><path class="st36" d="M74 123.8h-.1L67.7 94c.1 0 7-3.6 13.7-3.9h.1v.1L74 123.8zm-6.1-29.7l6.1 29.4 7.4-33.3c-6.4.3-13 3.6-13.5 3.9M81.4 90.1l-7.5 33.7-6.1-29.7s6.8-3.7 13.6-4"/><path class="st37" d="M74 123.8l-.1-.1L81.4 90c.1 0 11.9-2.9 19.1 0h.1l-.1.1L74 123.8zm7.5-33.6L74 123.5l26.4-33.4c-7-2.7-18.2-.1-18.9.1M100.5 90.1l-26.6 33.7 7.5-33.7s11.9-2.9 19.1 0"/><path class="st38" d="M93 127.3c-7.3-2.5-19-3.4-19.1-3.5h-.1l7.4-9.3v.1l11.9 12.6-.1.1zm-19-3.6c1.2.1 11.8 1 18.8 3.4l-11.6-12.4-7.2 9zM93 127.3l-11.9-12.6-7.2 9.2c0-.1 11.7.8 19.1 3.4"/><path class="st39" d="M81.1 114.6l19.4-24.5h.1L93 127.4zM100.5 90.1L93 127.3l-11.8-12.7z"/><path class="st40" d="M79 129.5c4.1 2.2 9.5 2.3 9.5 2.4 2.5 0 3.4-3.2 3.4-3.2v-.1l3.7.3-2.3 6.4-6.3 3-8-8.8zM95.6 129l-3.6-.3s-.9 3.3-3.4 3.3c0 0-5.4-.1-9.5-2.5l8 8.7 6.3-2.9 2.2-6.3z"/><path class="st41" d="M95.6 129l-3.7-.3 1.1-1.5.5-3.1 4.9 4-1 4zM93.6 124.2l4.8 3.9-1.1 3.8-1.7-2.9-3.6-.4 1-1.3z"/><path class="st13" d="M92.1 128.7l-2.3-.1c-.4-1.9-2.7-2.8-2.7-2.8v-.1c3.6.6 5.9 1.6 5.9 1.6h.1l-1 1.4zm-2.2-.2l2.1.1.9-1.3c-.4-.2-2.4-.9-5.4-1.5.8.4 2.1 1.2 2.4 2.7M87.1 125.7s2.4.9 2.8 2.8l2.2.1 1-1.4c-.1.1-2.4-.9-6-1.5"/><path class="st42" d="M106.1 138.2l-3.2-8.8.1-.1c.1.1 5.2 5.8 12.3 5.8 1.5 0 2.9-.2 4.3-.7v.1l-11.2 6.5-2.3-2.8zM103 129.4s7.2 8.3 16.7 5.1l-11.2 6.4-2.4-2.8-3.1-8.7z"/><path class="st43" d="M119.6 134.5c2.7-2.5 2.2-4.8 2.2-4.8l5.8-14.6h.1l.4 14.6-8.5 4.8zM127.7 115.2l-5.8 14.6s.5 2.3-2.2 4.8l8.4-4.8-.4-14.6z"/><path class="st12" d="M120.1 130.5c-.1-.1-2.8-3.7-17.1-1v-.1l24.9-14.4-.1.2-5.8 14.6-1.9.7zm-7.7-2.1c1.6 0 3.2.1 4.6.5 2.2.5 3 1.3 3.1 1.5l1.7-.6 5.7-14.4-24.3 14c2.8-.6 6.1-1 9.2-1M103 129.4l24.7-14.3-5.8 14.6-1.8.6c0 .1-2.6-3.6-17.1-.9"/><path class="st44" d="M112.9 130.9c-2.9 0-6.4-.3-10-1.5v-.1s3.3-.6 7-.8c5-.3 8.4.3 10.1 1.6l.1.1h-.1s-2.9.7-7.1.7m-9.7-1.5c7.9 2.5 15.6 1 16.7.7-2.2-1.5-6.6-1.6-9.9-1.5-3.1.2-5.9.7-6.8.8M120.1 130.2s-8.4 2-17.1-.8c0 0 12.9-2.4 17.1.8"/><path class="st45" d="M97.3 131.9l1-3.9 4.7 1.4-3.2 7zM98.4 128.1l4.6 1.3-3.2 6.8-2.5-4.3z"/><path class="st46" d="M98.4 128.1l-4.9-3.8 1.1-5.2 20.9 3.2-12.5 7.2zM94.6 119.2l20.7 3.1-12.3 7.1-4.6-1.3-4.8-3.9z"/><path class="st47" d="M94.6 119.2l1-5.3 20.3-21.1-.5 29.6zM115.8 92.9l-20.1 21-1.1 5.3 20.7 3.1z"/><path class="st48" d="M115.5 109.7l12.2-8.8v.1c.5 1.2 0 13.7 0 14.3l-12.5 7.2.3-12.8zM127.7 115.2s.5-13 0-14.2l-12.2 8.8-.2 12.6 12.4-7.2z"/><path class="st49" d="M115.7 92.9l1.2-2.2 2.6.8c.3.1.6.3.9.5.9.9 2.3 2.4 2.5 3.3.3 1.1 4.7 5.5 4.7 5.6l.1.1-12.3 8.9.3-17zM127.7 100.9s-4.5-4.5-4.7-5.6c-.2-.8-1.8-2.5-2.5-3.2-.2-.2-.5-.4-.9-.5l-2.6-.8-1.2 2.1-.3 16.8 12.2-8.8z"/><path class="st50" d="M100.5 90.1c.1 0 3 .3 5.2.3 1.6 0 2.2-.2 2.4-.3.8-.6 2.7-2.3 3.2-2.8.2-.1.3-.2.5-.3.3-.1 1-.3 1.8-.3.3 0 .7 0 1 .1.8.2 1.4.8 1.8 1.3.3.3.4.7.5 1.2l.2 1.4-1.2 2.2-20.3 21.2 4.9-24zM100.5 90.1s6.6.7 7.6 0c.8-.6 2.6-2.2 3.2-2.8.1-.1.3-.2.5-.3.5-.2 1.7-.5 2.7-.2.8.2 1.4.8 1.8 1.3.3.3.4.7.5 1.2l.2 1.4-1.2 2.1-20.1 21 4.8-23.7z"/><path class="st51" d="M64.2 114.7l-2.5-7.7c.1-3.1.2-9 .1-9.3v-.5c0-.6.1-1.3-.5-2.1-.9-1.1-.8-3.3-.8-3.4v-.1L68 94v.1l-3.5 20.6h-.3zm-2.4-7.7l2.5 7.4 3.5-20.3-7.2-2.4c0 .4.1 2.3.8 3.3.6.8.6 1.6.6 2.2v.5c0 .4-.2 8.8-.2 9.3M60.4 91.7l7.3 2.4-3.5 20.6-2.5-7.7s.2-8.9.1-9.3c-.1-.4.3-1.5-.5-2.6-.9-1.2-.9-3.4-.9-3.4"/><path class="st52" d="M60.4 91.7c-.1 0-.2.1-.4.1-1.2 0-3-1.5-3.1-1.6-2.9-5.7 1-10.7 1.1-10.8l15.2 12.5-5.5 2.3-7.3-2.5zM58.1 79.4s-4 5-1.1 10.7c0 0 2.3 2 3.4 1.5l7.3 2.4 5.4-2.3-15-12.3z"/><path class="st53" d="M58 79.5c1.7-3.3 3.8-5.7 6.1-7 1.8-1 3.2-1.1 3.6-1.1h.1L73.3 92 58 79.5zM67.8 71.4s-5.3-.3-9.7 8.1l15.1 12.4-5.4-20.5z"/><path class="st54" d="M67.7 71.4l1.3-3s1-1.6.5-2.6c-.4-.7-.1-1 .3-1.3.2-.2.4-.3.6-.6.5-.6 1.3-.7 2.4-.7h1.8c1.1-.1 1.4-.3 1.6-.6.2-.2.3-.4.8-.5.7-.1.9-.7 1.1-1.4.1-.4.3-.8.5-1.2.4-.7 1.2-1 1.8-1.2.3-.1.6-.2.8-.4.1-.2.4-.2.7-.2.3 0 .6.1.9.1.2 0 .5.1.8.1h.1c.6 0 1.3-.3 2.2-.7.8-.3 1.7-.7 2.7-1 .3-.1.8-.1 1.4-.1 2.8 0 7.4 1.2 7.5 1.2h.1L73.2 91.9l-5.5-20.5zM97.3 57.3s-6.5-1.7-8.8-1.1c-2.3.7-4 1.9-5.1 1.7-1-.1-1.9-.4-2.3 0-.4.4-1.9.5-2.5 1.6s-.5 2.5-1.6 2.7c-1.1.2-.4 1-2.4 1.1-2 .1-3.5-.2-4.2.7s-1.4.9-.9 1.9c.5 1-.5 2.6-.5 2.6l-1.3 2.9 5.4 20.4 24.2-34.5z"/><path class="st55" d="M73 91.9l.1-.2 24.1-34.5h.1L89.7 89h-.1c-1.3-.2-8.1 1.2-8.2 1.2-3.5 0-8.2 1.7-8.2 1.7H73zm24.2-34.3L73.4 91.7c.9-.3 4.9-1.6 8.1-1.6.3-.1 6.8-1.4 8.2-1.2l7.5-31.3zM89.6 88.9l7.7-31.6-24.1 34.5s4.7-1.7 8.2-1.7c0 0 6.9-1.4 8.2-1.2"/><path class="st56" d="M97.3 57.2c.1 0 1.7.5 2.7.7.3.1.6.1 1.1.1h1.3c.6 0 1.1-.1 1.7-.1 1.7 0 7.3 1.2 7.4 1.3h.1L92.1 78.4l5.2-21.2zM111.4 59.2s-5.7-1.3-7.4-1.3c-1.7 0-3.2.2-4.1 0-.9-.2-2.6-.7-2.6-.7l-5.1 20.9 19.2-18.9z"/><path class="st7" d="M105.7 90.5c-2.2 0-5-.3-5.2-.3-4.1-1.9-10.8-1.2-10.9-1.2h-.1v-.1l2.6-10.8 8-7.9v.1l13 16.5h-.1c-.5 0-1.7.6-1.7.6-.7.6-1.3 1.1-1.8 1.5-.5.4-1 .8-1.4 1.2-.3.3-1.3.4-2.4.4m-5.2-.4c.3 0 6.6.7 7.5 0 .5-.4.9-.8 1.4-1.2.5-.5 1.1-1 1.8-1.5.1 0 1.1-.6 1.7-.6l-12.8-16.2-7.9 7.8-2.6 10.7c.9-.3 7.1-.9 10.9 1M113.1 86.7l-12.9-16.4-7.9 7.8-2.6 10.8s6.8-.8 10.9 1.2c0 0 6.6.8 7.6 0s1.9-1.6 3.2-2.8c-.1.1 1.1-.6 1.7-.6"/><path class="st57" d="M128.5 72.7L100 70.4l11.4-11.3s2.5.4 5.8 2.3c3 1.7 7.5 5.1 11.2 11.2l.1.1zm-28.2-2.4l27.9 2.3c-6.8-11.2-16.2-13.2-16.8-13.3l-11.1 11zM128.3 72.7l-28.2-2.3 11.3-11.1c0-.1 9.8 1.6 16.9 13.4"/><path class="st58" d="M100 70.3l28.5 2.3-15.4 14.2zM113.1 86.7l15.2-14-28.1-2.4z"/><path class="st59" d="M127.6 119.2v-4s.1-2.8.2-6.5c.1-3.6-.2-7.7-.2-7.8 0 0-3.7-4-4.2-4.6-.4-.5-.5-.8-.7-1.2 0-.1-.1-.2-.1-.2-.2-.5-2.3-2.7-2.3-2.7l-.2-.2 13.1 4-.1.1c-.4.5-3.8 15.4-5.6 23.1h.1zM127.7 119.2s5.1-22.5 5.6-23.2l-12.8-3.9s2.1 2.3 2.3 2.8c.2.5.3.8.8 1.4.5.6 4.2 4.6 4.2 4.6s.3 4.1.2 7.8c-.1 3.7-.2 6.5-.2 6.5l-.1 4z"/><path class="st60" d="M120.4 92.1l8-19.6.1.1c.1.1 6.4 12.2 4.9 23.4v.1l-13-4zM128.3 72.7s6.4 12.1 4.9 23.3l-12.8-3.9 7.9-19.4z"/><path class="st61" d="M120.4 92.1c0-.3-2.1-.9-3.4-1.2 0-3.8-3.1-4-3.8-4H112.9l15.4-14.2.1.1-7.9 19.4-.1-.1zM113.1 86.7s3.9-.2 3.9 4c0 0 3.4.8 3.4 1.3l7.9-19.4-15.2 14.1z"/><path class="st62" d="M58.4 139.5c-.1 0-.2 0-.3-.1-.7-.4-2.7-2.3-2.5-3.5.1-.7.4-2.5 1.3-3.8.7-1.1.9-4.4.9-4.9 0-.4.3-3.8.3-3.9v-1.5h.1l3.2 9c0 .1-.7 6.7-.7 7.4-.2.2-1.5 1.3-2.3 1.3m-.2-17.3v1.1s-.3 3.6-.3 3.9c0 .4-.2 3.8-.9 4.9-.8 1.3-1.1 3-1.2 3.7-.2 1 1.7 2.9 2.4 3.3.6.4 2.2-.9 2.3-1 .1-.8.7-7.1.7-7.4l-3-8.5zM60.5 138.3s-1.7 1.5-2.4 1.1-2.6-2.3-2.5-3.4c.2-1.1.5-2.6 1.3-3.8.7-1.1.9-4.5.9-4.9 0-.4.3-3.9.3-3.9v-1.5l3.2 9c0-.1-.7 6.6-.8 7.4"/><path class="st8" d="M61.2 121.6c-1.3-1.3-1.2-4.1-1.2-4.2 0-.1.6-2.3 2.1-2.3h.1c.3 0 .6.2.9.4.7.8.5 2.4.5 2.4l-1.1 5.6-1.3-1.9zM63.5 117.9s.3-2.7-1.3-2.8c-1.6-.1-2.1 2.2-2.1 2.2s-.1 2.9 1.2 4.2l1.2 1.8 1-5.4z"/><path class="st63" d="M63.5 117.9c.1-1.2-.1-2-.5-2.4-.2-.2-.5-.3-.8-.3-.2 0-.4.1-.4.1h-.1l-3.3-7.2.5-.7c.3-.4.8-.6 1.6-.6.7 0 1.3.2 1.3.2l2.6 7.7-.7 3.3-.2-.1zM61.7 107s-2-.6-2.8.4l-.5.7 3.2 7.1s2-.8 1.8 2.7l.7-3.3-2.4-7.6z"/><path class="st64" d="M58 121.9c0-.3-1.1-6.6-.4-8.7.6-2.1.8-5.1.8-5.1h.1l3.3 7.2h-.1c-.1 0-1 .1-1.6 2.1 0 0 0 1.6.4 2.6 0 0 .3.9.8 1.6.5.7 1.2 1.8 1.2 1.8l-1.2 7.5h-.1l-3.2-9zM58.1 121.9s-1.1-6.5-.4-8.7.8-5.1.8-5.1l3.2 7.1s-1-.1-1.6 2.2c0 0 0 1.7.4 2.6 0 0 .3.9.8 1.6.5.7 1.2 1.8 1.2 1.8l-1.2 7.4-3.2-8.9z"/><path class="st65" d="M136.9 96.1H133l.2-.1s.1 0 .1-.2-.1-.7-1.1-1.7c-.8-.8-2-1.7-2.9-2.5-1.2-1-1.7-1.3-1.7-1.5 0-.2-.5-5.7-.7-8.5v-.1l10 .8c.2-.2 1.7-1.2 2.4-.4.7.9 2.2 2.9 2.3 3.5 0 .1.1.3.2.4.2.4.4.9-.2 1.5-.8.9-1.6 2.2-1.6 2.7 0 .6-.1 2.8-.1 2.8l-1.6 2-1.4 1.3zm-3.5-.1h3.5l1.3-1.1 1.6-2c0-.2.1-2.2.1-2.8 0-.6 1-2 1.6-2.8.5-.6.3-1 .2-1.4-.1-.1-.1-.3-.2-.4-.1-.6-1.6-2.6-2.3-3.5-.7-.8-2.2.4-2.2.4l-9.9-.8c.1.9.8 8.2.7 8.5 0 .1.8.8 1.6 1.4.9.7 2.1 1.7 2.9 2.5 1 1 1.2 1.5 1.1 1.8v.2M127 81.6l9.9.8s1.6-1.3 2.3-.4c.7.9 2.2 2.9 2.3 3.5.1.6.7 1 0 1.9-.7.9-1.6 2.2-1.6 2.8s-.1 2.8-.1 2.8l-1.6 2-1.3 1.1h-3.6s.6-.4-1-2-4.6-3.6-4.5-3.9c-.1-.4-.8-8.6-.8-8.6"/><path class="st34" d="M104.6 154.9c-3.3 0-8.3-.5-8.6-.6-11.1-1.6-13.2-3-13.2-3l-.2-.1h.2c.6 0 2.4.3 2.7.3l6.7 1.1c7.7 1 14.5 2 14.5 2v.1c-.3.1-1.1.2-2.1.2m-21.5-3.6c.8.4 3.9 1.6 12.9 2.9.1 0 7.9.9 10.4.5-1.5-.2-7.5-1.1-14.2-1.9l-6.7-1.1c-.2-.2-1.6-.3-2.4-.4M82.8 151.2s2 1.4 13.2 3c0 0 8.7.9 10.8.4 0 0-6.8-1-14.5-2l-6.7-1.1c-.4 0-2.2-.3-2.8-.3"/><path class="st66" d="M84.8 176.6l-.2-.1c-2.9-.9-6.7-2.9-6.8-2.9l-1.7-8.6h.1l8.6 11.6zm-6.9-3c.3.2 3.8 1.9 6.5 2.8l-8.2-11.1 1.7 8.3zM84.6 176.5L76.2 165l1.7 8.6c-.1 0 3.8 2 6.7 2.9"/><path class="st67" d="M115.8 152.5l-7.3-11.5h.1l19.6-11.3v.1c.1 1.2-1.2 18.6-1.2 19.4l-11.2 3.3zm-7.2-11.5l7.2 11.3 11-3.3c.1-1 1.3-17.4 1.2-19.2L108.6 141zM128.1 129.8L108.5 141l7.3 11.4 11.1-3.3s1.3-18.1 1.2-19.3"/><path class="st68" d="M96.2 177.9l4.9-19.9 4.3-2.2c.2-.1 1-.4 3.9-1.6l1.1-1.1 7.4 11.4c-.1.1-15.2 13.4-21.6 13.4zM117.8 164.5s-15.1 13.4-21.5 13.4l4.9-19.8 4.3-2.2s-.9.5 3.9-1.6l1-1.1 7.4 11.3z"/><path class="st10" d="M106.8 154.7s-5-.7-10.1-1.4c-3.8-.5-7.6-1.2-9.7-1.5-.7-.1-1.2-.2-1.4-.2-.3 0-.7-.1-1.2-.1-.6-.1-1.2-.1-1.7-.2-.8-.1-1.3-.3-1.3-.3l-.2-.1 6.6-1.2c1.9 0 5.9.2 6.9.7.8.4 1.3.4 1.6.4h.3c.3 0 .5-.1.9-.1.4-.1.9-.2 1.7-.3h.3c1.4 0 2.9.8 4.2 1.5l.4.2c1.5.8 6.1 1.1 6.2 1.1v.1l-3.5 1.4zM81.5 150.8s.5.2 1.3.3c.9.1 2.3.3 2.9.4.9.1 6.1 1.1 11.1 1.8 5.1.7 10.1 1.4 10.1 1.4l3.6-1.5s-4.7-.3-6.2-1.1-3.3-1.8-4.9-1.7c-1.5.1-2 .4-2.6.4-.5 0-.9.1-2-.4-1-.5-4.9-.7-6.9-.7l-6.4 1.1z"/><path class="st13" d="M120.1 130.4c-3.5-2.9-17-.9-17.1-.9v-.1c4.2-1.2 10-2.4 14.1-1.1 2.4.7 3 2 3 2.1zm-8.1-1.7c3.8 0 6.4.5 7.8 1.4-.3-.4-1.2-1.2-2.9-1.7-2.2-.7-6.2-1-13.2.9 1.3-.2 3.7-.4 6.4-.5.7-.1 1.3-.1 1.9-.1M103 129.4s13.6-2 17.1.9c0 .1-2.5-5.1-17.1-.9"/><path class="st14" d="M115.2 130.9l-.1-.1c.8-.2 1.4-1.7 1.4-1.7h.1c2.1.5 3.3.9 3.4 1.1v.1c-2.7.5-4.5.6-4.8.6m1.4-1.7c-.1.2-.5 1.2-1.2 1.6.6 0 2.2-.1 4.4-.6-.1-.1-.6-.5-3.2-1M116.6 129.1s-.6 1.5-1.4 1.7c0 0 1.8 0 4.7-.6 0 0 .2-.3-3.3-1.1"/><path class="st14" d="M110.9 130.9c-.4 0-4.5-.2-8-1.4v-.1l6-.6s.8 1.8 1.9 1.9l.1.2zM109 128.9s.9 1.9 2 1.9c0 0-4.3-.2-8-1.4l6-.5z"/><path class="st15" d="M107.4 130.5c-.1 0-3.4-.5-4.4-1l-.2-.1 2.6-.3s1.5 1.1 2 1.3v.1zM105.3 129.2s1.5 1.1 2 1.3c0 0-3.4-.5-4.4-1l2.4-.3z"/><path class="st11" d="M115.4 135.3c-3.1 0-5.8-1-7.7-2.1-3-1.7-4.8-3.7-4.8-3.7l-.1-.2.2.1c10.2 2.9 18.8.3 18.9.3h.1v.1c.3 2.8-2.2 4.9-2.2 4.9-1.6.4-3.1.6-4.4.6m-12.2-5.7c.5.5 2.1 2.2 4.6 3.6 2.7 1.5 7 3 11.9 1.4.2-.1 2.4-2.1 2.2-4.7-.9.2-9.1 2.4-18.7-.3M121.9 129.8s-8.7 2.6-19-.3c0 0 7.1 8.2 16.7 5.1.1 0 2.6-2.1 2.3-4.8"/><path class="st69" d="M88.5 132c-2.7 0-8.5-1.4-9.5-2.5l-5.2-5.7.1-.1c.1 0 12.3 4.8 17.6 4.8h.6v.1c0 .1-.9 3.3-3.6 3.4zM73.9 123.8s13 5.2 18.1 4.8c0 0-.8 3.3-3.4 3.3-2.8 0-8.5-1.4-9.5-2.5l-5.2-5.6z"/><path class="st44" d="M84.9 127.5s-2.9-.8-4.3-1.3c0 0-.6-.9-.5-1.8v-.1h.1s1.6.2 3.2.5c3.2.5 3.2.6 3.2.7-.1.2-.8 1.9-1.7 2zm-4.1-1.3c1.3.5 4 1.2 4.2 1.2.7-.1 1.4-1.6 1.5-1.8-.3-.2-3.9-.8-6.2-1.1-.1.8.4 1.5.5 1.7M86.5 125.6s-.7 1.7-1.6 1.9c0 0-2.9-.8-4.2-1.3 0 0-.6-.9-.5-1.7 0 0 6.3.8 6.3 1.1"/><path class="st13" d="M93 127.3c-.1 0-8.3-2.6-19.1-3.5v-.1c.1 0 9.4-.7 19.1 3.5v.1zm-18-3.5c7.9.7 14.4 2.3 16.9 3-7.4-2.8-14.4-3-16.9-3M73.9 123.8s9.3-.7 19.1 3.5c0 0-8.2-2.7-19.1-3.5"/><g class="st70"><defs><path id="SVGID_9_" d="M83.5 125.4h1v1h-1z"/></defs><clipPath id="SVGID_10_"><use xlink:href="#SVGID_9_" overflow="visible"/></clipPath><g class="st71"><defs><path id="SVGID_11_" d="M83.6 125.5h.8v.8h-.8z"/></defs><clipPath id="SVGID_12_"><use xlink:href="#SVGID_11_" overflow="visible"/></clipPath><path class="st72" d="M83.5 125.8l.5-.4.4.7-.6.3zM84 125.5l-.4.3.3.5.4-.2z"/></g></g><g class="st70"><defs><path id="SVGID_13_" d="M111.8 129.1h1.4v.8h-1.4z"/></defs><clipPath id="SVGID_14_"><use xlink:href="#SVGID_13_" overflow="visible"/></clipPath><g class="st73"><defs><path id="SVGID_15_" d="M111.8 129.2h1.1v.7h-1.1z"/></defs><clipPath id="SVGID_16_"><use xlink:href="#SVGID_15_" overflow="visible"/></clipPath><path class="st74" d="M111.9 129.9c-.1 0-.1 0-.2-.7v-.1l1.4.1-.2.1c-.3.2-.9.6-1 .6zM111.8 129.2l.1.7 1-.6-1.1-.1z"/></g></g><path class="st15" d="M102.5 128.8l6.7-3.8 9.4-1.6-2.9 2.8-7 1.4-1.1.6-5.1.8zM118.4 123.5l-9.2 1.5-3.6 2.1-3.1 1.8 5.1-.8 1.1-.5 7-1.4zM84.6 121.9l-6-5.9v-.1l10.6 4.7L96 126l-3.5.8zM95.9 126l-6.7-5.3-10.6-4.8 6 5.9 7.9 5z"/></g></g></svg>