<?xml version="1.0" encoding="UTF-8"?>
<svg width="11px" height="11px" viewBox="0 0 11 11" version="1.1" xmlns="http://www.w3.org/2000/svg" xmlns:xlink="http://www.w3.org/1999/xlink">
    <!-- Generator: sketchtool 54.1 (76490) - https://sketchapp.com -->
    <title>F929B7A1-FD6C-41C8-AD11-1C69D7C915F4</title>
    <desc>Created with sketchtool.</desc>
    <g id="Page-1" stroke="none" stroke-width="1" fill="none" fill-rule="evenodd">
        <g id="Elements" transform="translate(-188.000000, -551.000000)" fill="#FFFFFF" fill-rule="nonzero">
            <g id="Group-2" transform="translate(188.000000, 551.000000)">
                <path d="M5.49999601,10.99985 C5.67874914,10.9928501 5.88535275,10.9192758 6.01563003,10.7967269 L10.7657231,6.29676989 C11.077051,6.0340224 11.0708084,5.52855223 10.7902735,5.23315505 C10.5097411,4.93773287 10.0129374,4.9135081 9.73445507,5.21090526 L6.25001913,8.50772379 L6.25001913,0.749992841 C6.25001913,0.335771795 5.91420325,0 5.5,0 C5.08576376,0 4.74998289,0.335771795 4.74998289,0.749992841 L4.74998289,8.50772379 L1.26554695,5.21090526 C0.987067081,4.9135581 0.488158355,4.93788287 0.207628449,5.23340504 C-0.0729014576,5.52880223 -0.0741264791,6.04144733 0.234278915,6.29691989 L4.98436199,10.7968769 C5.12981454,10.9337506 5.2994925,10.998 5.5,11 L5.49999601,10.99985 Z" id="Path"></path>
            </g>
        </g>
    </g>
</svg>