<?xml version="1.0" encoding="UTF-8"?>
<svg width="235px" height="61px" viewBox="0 0 235 61" version="1.1" xmlns="http://www.w3.org/2000/svg" xmlns:xlink="http://www.w3.org/1999/xlink">
    <!-- Generator: sketchtool 54.1 (76490) - https://sketchapp.com -->
    <title>8674DFF3-C0B2-421D-A724-2771D00F2899</title>
    <desc>Created with sketchtool.</desc>
    <g id="Page-1" stroke="none" stroke-width="1" fill="none" fill-rule="evenodd">
        <g id="Therefore-Drupal-Home" transform="translate(-105.000000, -873.000000)" fill="#FFFFFE">
            <g id="Group-2" transform="translate(105.000000, 873.000000)">
                <path d="M111,12 L101.171013,12 L101.187362,30.5772086 C101.187362,36.0062615 98.8832552,40.3983043 93.508341,40.3983043 C88.1317586,40.3983043 85.8062991,36.0062615 85.8062991,30.5772086 L85.8062991,12.0181991 L76.0026691,12.0181991 L76,30.5772086 C76,41.3052247 82.8269084,50 93.4486197,50 C104.067996,50 110.996664,41.3052247 110.996664,30.5772086 L111,12" id="Fill-3"></path>
                <polygon id="Fill-4" points="200 49 209 49 209 1 200 1"></polygon>
                <polyline id="Fill-5" points="216 2.66433491 216 1 224 1 224 2.66433491 221.074324 2.66433491 221.074324 10 218.927777 10 218.927777 2.66433491 216 2.66433491"></polyline>
                <polyline id="Fill-6" points="227.872939 1 230.045129 7.18822643 230.071107 7.18822643 232.124396 1 235 1 235 10 233.088593 10 233.088593 3.62128713 233.061615 3.62128713 230.786511 10 229.21249 10 226.937719 3.68424451 226.91174 3.68424451 226.91174 10 225 10 225 1 227.872939 1"></polyline>
                <path d="M67.8712093,11.2979494 C59.3499302,9.31727736 53.974814,17.8431329 53.7512442,18.300603 C53.6416512,18.5247531 53.6376047,18.6555073 53.2599302,18.6456583 C52.9483488,18.6388659 52.9126047,18.300603 52.9126047,18.300603 L51.8551163,11.7788533 L43,11.7788533 L43,49 L52.926093,49 L52.926093,28.8526398 C52.926093,27.2061553 57.3283605,19.3123351 65.8570581,21.3442899 C70.1706395,22.3719843 72,24.2154492 72,24.2154492 C72,24.2154492 72,17.0307586 72,12.8765096 C70.4036512,12.038324 69.3087326,11.6321368 67.8712093,11.2979494" id="Fill-7"></path>
                <path d="M133.620925,21.1169492 C139.007069,21.1169492 143.372087,25.4811742 143.372087,30.8603892 C143.372087,36.2445814 139.007069,40.6084746 133.620925,40.6084746 C128.236109,40.6084746 123.872087,36.2445814 123.872087,30.8603892 C123.872087,25.4811742 128.236109,21.1169492 133.620925,21.1169492 Z M123.616874,60.9474576 L123.616874,47.6248003 C123.617882,47.6248003 123.619563,47.6258138 123.620235,47.6268273 L123.621915,42.6378412 C123.621915,42.6378412 123.63771,42.238506 123.995273,42.2337762 C124.314527,42.2303977 124.385771,42.4429034 124.463736,42.6378412 C125.213477,44.5142432 129.338904,51.6624094 138.493076,49.4201191 C146.687808,47.0994482 152.698174,39.534041 152.698174,30.5500145 C152.698174,19.7253976 143.967433,10.9474576 133.197838,10.9474576 C122.428243,10.9474576 113.698174,19.7253976 113.698174,30.5500145 C113.698174,30.5500145 113.698174,57.3483739 113.698174,60.9474576 L123.616874,60.9474576 L123.616874,60.9474576 Z" id="Fill-8"></path>
                <path d="M185.372087,30.8690242 C185.372087,36.2555573 181.00696,40.6213478 175.623083,40.6213478 C170.238209,40.6213478 165.872087,36.2555573 165.872087,30.8690242 C165.872087,25.4874703 170.238209,21.1213478 175.623083,21.1213478 C181.00696,21.1213478 185.372087,25.4874703 185.372087,30.8690242 Z M184.779223,48.8621961 L194.698174,48.8621961 L194.698174,30.5986115 C194.698174,19.7471465 185.969188,10.9474348 175.199014,10.9474348 C164.428504,10.9474348 155.698174,19.7471465 155.698174,30.5986115 C155.698174,39.6049211 161.708824,47.1890926 169.903821,49.5155193 C179.058587,51.7633712 183.182298,44.5974755 183.933041,42.7164195 C184.010669,42.5209983 184.080904,42.3079654 184.401163,42.3113523 C184.75906,42.3160939 184.773846,42.7164195 184.773846,42.7164195 L184.779223,48.8621961 Z" id="Fill-9"></path>
                <path d="M14.7249815,9.36884211 L10.7915455,9.36884211 L10.7915455,40.4232057 L14.8309852,40.5267368 C23.114894,40.5267368 28.4506364,39.7738133 28.4506364,24.9001718 C28.4506364,10.6364349 23.7399504,9.36884211 14.7249815,9.36884211 Z M11.7202395,48.9477895 L0.700636364,48.9477895 L0.700636364,0.947789474 L12.5242082,0.947789474 C26.8416295,0.947789474 37.7006364,3.62182632 37.7006364,24.9477895 C37.7006364,46.0677225 26.1982571,48.9477895 11.7202395,48.9477895 L11.7202395,48.9477895 Z" id="Fill-10"></path>
            </g>
        </g>
    </g>
</svg>