<?xml version="1.0" encoding="UTF-8"?>
<svg width="155px" height="155px" viewBox="0 0 155 155" version="1.1" xmlns="http://www.w3.org/2000/svg" xmlns:xlink="http://www.w3.org/1999/xlink">
    <!-- Generator: sketchtool 54.1 (76490) - https://sketchapp.com -->
    <title>B262A99E-C6A4-424D-A3DB-AD2D2951630C</title>
    <desc>Created with sketchtool.</desc>
    <g id="Page-1" stroke="none" stroke-width="1" fill="none" fill-rule="evenodd">
        <g id="Therefore-Drupal-Home" transform="translate(-139.000000, -2078.000000)" fill="#FFFFFF" fill-rule="nonzero">
            <g id="noun_QUESTION-ANSWER_382032" transform="translate(139.000000, 2077.000000)">
                <g id="Group" transform="translate(0.000000, 0.637820)">
                    <path d="M17.1182528,0.36218 C7.71453142,0.36218 0,7.99267083 0,17.3734483 L0,82.0052573 C0,91.3860524 7.71451381,99.0165256 17.1182528,99.0165256 L27.1910511,99.0165256 L27.1910511,130.726851 C27.1835478,132.243213 28.1468131,133.59433 29.5825996,134.081337 C31.018386,134.568345 32.6046712,134.082016 33.5209517,132.873904 L59.8863636,99.0165256 L75.7386364,99.0165256 L75.7386364,126.157481 C75.7386364,132.424851 80.7767828,137.663485 87.0223722,137.663485 L116.47017,137.663485 L133.533381,154.344437 C134.540449,155.340056 136.045625,155.63588 137.354479,155.095429 C138.663334,154.554978 139.521489,153.283288 139.533026,151.867068 L139.533026,137.663485 L143.716264,137.663485 C149.961854,137.663485 155,132.424851 155,126.157481 L155,82.3355732 C155,76.0682035 149.961854,70.8295697 143.716264,70.8295697 L133.863636,70.8295697 L133.863636,17.3734483 C133.863636,7.99267083 126.149105,0.36218 116.745384,0.36218 L17.1182528,0.36218 Z M17.0919118,7.36218 L116.908088,7.36218 C122.570241,7.36218 127,11.7623163 127,17.3295289 L127,70.8007765 L87.1286765,70.8007765 C80.8712359,70.8007765 75.8235294,76.0408927 75.8235294,82.3100358 L75.8235294,91.9469753 L58.1764706,91.9469753 C57.0847233,91.9294245 56.0463005,92.4173954 55.3639706,93.2686127 L34.2426471,120.36218 L34.2426471,95.4713418 C34.2424522,93.5249686 32.6623949,91.9471699 30.7132353,91.9469753 L17.0919118,91.9469753 C11.4297771,91.9469753 7,87.5467157 7,81.9796264 L7,17.3295289 C7,11.7623163 11.4297594,7.36218 17.0919118,7.36218 Z M62.8770263,14.36218 C52.9397717,14.36218 44.2776312,20.4740092 42.1907032,29.2394281 C41.7562577,30.5121644 42.0773971,31.9235608 43.0184482,32.8773391 C43.9594994,33.8311173 45.3563042,34.1608992 46.618749,33.7273604 C47.8811937,33.2938216 48.7890561,32.1725892 48.9587878,30.8373547 C50.1616554,25.7851206 55.7651701,21.4150976 62.8770263,21.4150976 C71.0120963,21.4150976 77.0135901,26.961512 77.0135901,33.0964924 C77.0135901,43.1231493 73.7698454,45.6439502 69.4267856,49.681869 C65.0837258,53.7197878 59.5475653,59.275706 59.5475653,70.7855209 C59.5297579,72.0572827 60.191637,73.2402078 61.2797581,73.8813348 C62.3678792,74.5224617 63.7136613,74.5224617 64.8017824,73.8813348 C65.8899035,73.2402078 66.5517826,72.0572827 66.5339752,70.7855209 C66.5339752,61.2449158 69.7308271,58.9428788 74.1207797,54.8613554 C78.5107323,50.779832 84,45.0123262 84,33.0964924 C84,22.4844963 74.2267042,14.36218 62.8770263,14.36218 Z M63.5,77.36218 C61.5670043,77.36218 60,78.9291843 60,80.86218 C60,82.7951758 61.5670043,84.36218 63.5,84.36218 C65.4329958,84.36218 67,82.7951758 67,80.86218 C67,78.9291843 65.4329958,77.36218 63.5,77.36218 Z M87.2271959,77.36218 L129.773649,77.36218 C130.244426,77.4607521 130.730236,77.4607521 131.201014,77.36218 L143.772804,77.36218 C146.094177,77.36218 148,79.2162536 148,81.850845 L148,125.961676 C148,128.596268 146.094177,130.450341 143.772804,130.450341 L136.086993,130.450341 C134.146614,130.450537 132.573674,132.038289 132.57348,133.996941 L132.57348,143.36218 L120.550676,131.503238 C119.897462,130.836421 119.009225,130.457856 118.080236,130.450341 L87.2271959,130.450341 C84.9058228,130.450341 83,128.596268 83,125.961676 L83,95.7601649 C83.0518927,95.4111538 83.0518927,95.0562793 83,94.7072682 L83,81.850845 C83,79.2162536 84.9058228,77.36218 87.2271959,77.36218 Z M115.445319,81.3626078 C114.517169,81.3770479 113.632788,81.7585569 112.986741,82.4232026 C112.340695,83.0878483 111.985906,83.9811831 112.000429,84.906673 L112.000429,112.823002 C111.982603,114.081441 112.645691,115.251968 113.735789,115.886375 C114.825888,116.520782 116.174112,116.520782 117.26421,115.886375 C118.354309,115.251968 119.017397,114.081441 118.999571,112.823002 L118.999571,84.906673 C119.014391,83.9622756 118.644688,83.052217 117.974897,82.3843455 C117.305105,81.7164739 116.392431,81.3478298 115.445319,81.3626078 L115.445319,81.3626078 Z M115.5,120.36218 C113.567004,120.36218 112,121.929184 112,123.86218 C112,125.795176 113.567004,127.36218 115.5,127.36218 C117.432996,127.36218 119,125.795176 119,123.86218 C119,121.929184 117.432996,120.36218 115.5,120.36218 Z" id="Shape"></path>
                </g>
            </g>
        </g>
    </g>
</svg>