<?xml version="1.0" encoding="UTF-8"?>
<!DOCTYPE svg PUBLIC "-//W3C//DTD SVG 1.1//EN" "http://www.w3.org/Graphics/SVG/1.1/DTD/svg11.dtd">
<svg version="1.1" xmlns="http://www.w3.org/2000/svg" xmlns:xlink="http://www.w3.org/1999/xlink" x="0" y="0" width="1400" height="150" viewBox="0, 0, 1400, 150">
  <g id="Layer_1">
    <path d="M574.5,88.5 L574.506,0.25" fill-opacity="0" stroke="#000000" stroke-width="1" stroke-opacity="0.195"/>
    <path d="M574.5,88.5 L797.5,48.5" fill-opacity="0" stroke="#000000" stroke-width="1" stroke-opacity="0.195"/>
    <path d="M168.5,137.5 L350.5,93.5 L353.5,7.5 L459.5,129.5 L351.5,92.5 L236.5,0.5 L168.5,137.5 z" fill-opacity="0" stroke="#000000" stroke-width="1" stroke-opacity="0.195"/>
    <path d="M168.5,137.5 L95.5,0.25 L0.5,88.5 L168.5,137.5 z" fill-opacity="0" stroke="#000000" stroke-width="1" stroke-opacity="0.195"/>
    <path d="M459.5,129.5 L459.5,0.25 C459.5,0.25 575.5,88.5 574.5,88.5 C573.5,88.5 459.5,129.5 459.5,129.5 z" fill-opacity="0" stroke="#000000" stroke-width="1" stroke-opacity="0.195"/>
    <path d="M797.5,48.5 z" fill-opacity="0" stroke="#000000" stroke-width="1" stroke-opacity="0.195"/>
    <path d="M797.5,48.5 L951.5,65.5 L906.5,0.5" fill-opacity="0" stroke="#000000" stroke-width="1" stroke-opacity="0.195"/>
    <path d="M1347.5,42.5 L1400.5,7.5" fill-opacity="0" stroke="#000000" stroke-width="1" stroke-opacity="0.195"/>
    <g>
      <path d="M169,144.5 C164.858,144.5 161.5,141.142 161.5,137 C161.5,132.858 164.858,129.5 169,129.5 C173.142,129.5 176.5,132.858 176.5,137 C176.5,141.142 173.142,144.5 169,144.5 z" fill="#FFFFFF"/>
      <path d="M169,144.5 C164.858,144.5 161.5,141.142 161.5,137 C161.5,132.858 164.858,129.5 169,129.5 C173.142,129.5 176.5,132.858 176.5,137 C176.5,141.142 173.142,144.5 169,144.5 z" fill-opacity="0" stroke="#A0A0A0" stroke-width="1"/>
    </g>
    <g>
      <path d="M344.773,99.036 C341.716,96.241 341.503,91.497 344.298,88.44 C347.092,85.382 351.836,85.17 354.894,87.964 C357.951,90.759 358.164,95.503 355.369,98.56 C352.574,101.618 347.83,101.83 344.773,99.036 z" fill="#FFFFFF"/>
      <path d="M344.773,99.036 C341.716,96.241 341.503,91.497 344.298,88.44 C347.092,85.382 351.836,85.17 354.894,87.964 C357.951,90.759 358.164,95.503 355.369,98.56 C352.574,101.618 347.83,101.83 344.773,99.036 z" fill-opacity="0" stroke="#A0A0A0" stroke-width="1"/>
    </g>
    <g>
      <path d="M454.44,135.536 C451.382,132.741 451.17,127.997 453.964,124.94 C456.759,121.882 461.503,121.67 464.56,124.464 C467.618,127.259 467.83,132.003 465.036,135.06 C462.241,138.118 457.497,138.33 454.44,135.536 z" fill="#FFFFFF"/>
      <path d="M454.44,135.536 C451.382,132.741 451.17,127.997 453.964,124.94 C456.759,121.882 461.503,121.67 464.56,124.464 C467.618,127.259 467.83,132.003 465.036,135.06 C462.241,138.118 457.497,138.33 454.44,135.536 z" fill-opacity="0" stroke="#A0A0A0" stroke-width="1"/>
    </g>
    <g>
      <path d="M569.94,95.036 C566.882,92.241 566.67,87.497 569.464,84.44 C572.259,81.382 577.003,81.17 580.06,83.964 C583.118,86.759 583.33,91.503 580.536,94.56 C577.741,97.618 572.997,97.83 569.94,95.036 z" fill="#FFFFFF"/>
      <path d="M569.94,95.036 C566.882,92.241 566.67,87.497 569.464,84.44 C572.259,81.382 577.003,81.17 580.06,83.964 C583.118,86.759 583.33,91.503 580.536,94.56 C577.741,97.618 572.997,97.83 569.94,95.036 z" fill-opacity="0" stroke="#A0A0A0" stroke-width="1"/>
    </g>
    <path d="M353.5,7.5 L361.5,0.25" fill-opacity="0" stroke="#000000" stroke-width="1" stroke-opacity="0.195"/>
    <path d="M353.5,7.5 L291.5,0.25" fill-opacity="0" stroke="#000000" stroke-width="1" stroke-opacity="0.195"/>
    <path d="M689.5,0.25 L702,0.25" fill-opacity="0" stroke="#000000" stroke-width="1" stroke-opacity="0.195"/>
    <path d="M797.5,48.5 L674.5,0.25" fill-opacity="0" stroke="#000000" stroke-width="1" stroke-opacity="0.195"/>
    <path d="M797.5,48.5 L864.5,0.25" fill-opacity="0" stroke="#000000" stroke-width="1" stroke-opacity="0.195"/>
    <path d="M951.5,65.5 L1017.5,0.5" fill-opacity="0" stroke="#000000" stroke-width="1" stroke-opacity="0.195"/>
    <path d="M1080.5,0.25 L1100.5,42.5 L951.5,65.5" fill-opacity="0" stroke="#000000" stroke-width="1" stroke-opacity="0.195"/>
    <path d="M1185.5,48.5 L1165.5,0.5" fill-opacity="0" stroke="#000000" stroke-width="1" stroke-opacity="0.195"/>
    <path d="M1100.5,42.5 L1118.5,0.25" fill-opacity="0" stroke="#000000" stroke-width="1" stroke-opacity="0.195"/>
    <path d="M1185.5,48.5 L1238.5,0.25" fill-opacity="0" stroke="#000000" stroke-width="1" stroke-opacity="0.195"/>
    <path d="M1347.5,42.5 L1334.5,0.5" fill-opacity="0" stroke="#000000" stroke-width="1" stroke-opacity="0.195"/>
    <g>
      <path d="M946.44,71.536 C943.382,68.741 943.17,63.997 945.964,60.94 C948.759,57.882 953.503,57.67 956.56,60.464 C959.617,63.259 959.83,68.003 957.036,71.06 C954.241,74.118 949.497,74.33 946.44,71.536 z" fill="#FFFFFF"/>
      <path d="M946.44,71.536 C943.382,68.741 943.17,63.997 945.964,60.94 C948.759,57.882 953.503,57.67 956.56,60.464 C959.617,63.259 959.83,68.003 957.036,71.06 C954.241,74.118 949.497,74.33 946.44,71.536 z" fill-opacity="0" stroke="#A0A0A0" stroke-width="1"/>
    </g>
    <g>
      <path d="M792.44,54.036 C789.382,51.241 789.17,46.497 791.964,43.44 C794.759,40.382 799.503,40.17 802.56,42.964 C805.618,45.759 805.83,50.503 803.036,53.56 C800.241,56.618 795.497,56.83 792.44,54.036 z" fill="#FFFFFF"/>
      <path d="M792.44,54.036 C789.382,51.241 789.17,46.497 791.964,43.44 C794.759,40.382 799.503,40.17 802.56,42.964 C805.618,45.759 805.83,50.503 803.036,53.56 C800.241,56.618 795.497,56.83 792.44,54.036 z" fill-opacity="0" stroke="#A0A0A0" stroke-width="1"/>
    </g>
    <path d="M1100.5,42.5 L1185.5,48.5" fill-opacity="0" stroke="#000000" stroke-width="1" stroke-opacity="0.195"/>
    <g>
      <path d="M1095.44,46.536 C1092.382,43.741 1092.17,38.997 1094.964,35.94 C1097.759,32.882 1102.503,32.67 1105.56,35.464 C1108.617,38.259 1108.83,43.003 1106.036,46.06 C1103.241,49.118 1098.497,49.33 1095.44,46.536 z" fill="#FFFFFF"/>
      <path d="M1095.44,46.536 C1092.382,43.741 1092.17,38.997 1094.964,35.94 C1097.759,32.882 1102.503,32.67 1105.56,35.464 C1108.617,38.259 1108.83,43.003 1106.036,46.06 C1103.241,49.118 1098.497,49.33 1095.44,46.536 z" fill-opacity="0" stroke="#A0A0A0" stroke-width="1"/>
    </g>
    <path d="M1185.5,48.5 L1347.5,42.5" fill-opacity="0" stroke="#000000" stroke-width="1" stroke-opacity="0.195"/>
    <g>
      <path d="M1180.94,54.036 C1177.882,51.241 1177.67,46.497 1180.464,43.44 C1183.259,40.382 1188.003,40.17 1191.06,42.964 C1194.117,45.759 1194.33,50.503 1191.536,53.56 C1188.741,56.618 1183.997,56.83 1180.94,54.036 z" fill="#FFFFFF"/>
      <path d="M1180.94,54.036 C1177.882,51.241 1177.67,46.497 1180.464,43.44 C1183.259,40.382 1188.003,40.17 1191.06,42.964 C1194.117,45.759 1194.33,50.503 1191.536,53.56 C1188.741,56.618 1183.997,56.83 1180.94,54.036 z" fill-opacity="0" stroke="#A0A0A0" stroke-width="1"/>
    </g>
    <g>
      <path d="M1341.94,46.536 C1338.882,43.741 1338.67,38.997 1341.464,35.94 C1344.259,32.882 1349.003,32.67 1352.06,35.464 C1355.117,38.259 1355.33,43.003 1352.536,46.06 C1349.741,49.118 1344.997,49.33 1341.94,46.536 z" fill="#FFFFFF"/>
      <path d="M1341.94,46.536 C1338.882,43.741 1338.67,38.997 1341.464,35.94 C1344.259,32.882 1349.003,32.67 1352.06,35.464 C1355.117,38.259 1355.33,43.003 1352.536,46.06 C1349.741,49.118 1344.997,49.33 1341.94,46.536 z" fill-opacity="0" stroke="#A0A0A0" stroke-width="1"/>
    </g>
  </g>
</svg>
