<?xml version="1.0" encoding="UTF-8"?>
<!DOCTYPE svg PUBLIC "-//W3C//DTD SVG 1.1//EN" "http://www.w3.org/Graphics/SVG/1.1/DTD/svg11.dtd">
<svg version="1.1" xmlns="http://www.w3.org/2000/svg" xmlns:xlink="http://www.w3.org/1999/xlink" x="0" y="0" width="1400" height="150" viewBox="0, 0, 1400, 150">
  <g id="Layer_1">
    <path d="M459,-0.758 L459.803,-0.148 C459.859,-0.105 459.859,-0.105 460.133,0.103 C460.512,0.391 460.512,0.391 461.094,0.835 C462.147,1.636 463.369,2.566 464.745,3.613 C468.676,6.605 473.056,9.941 477.773,13.535 C491.25,23.803 504.728,34.083 517.307,43.694 C517.493,43.836 517.493,43.836 517.679,43.978 C533.921,56.388 547.418,66.73 557.258,74.315 C565.536,80.708 561.471,77.556 569.455,83.769 C570.797,82.283 572.112,82.146 574,81.756 L574.006,0.25 L575.006,0.25 L575,81.651 L576.174,81.586 C579.607,82.809 578.268,82.01 580.398,83.595 C581.916,85.292 581.252,84.312 582.303,86.592 L789.679,49.395 C789.566,46.893 789.354,47.976 790.021,46.103 L674.317,0.715 L674.682,-0.215 L790.357,45.161 C790.809,43.893 790.467,44.617 791.595,43.102 C794.119,40.578 795.367,40.734 798.674,40.586 C802.107,41.809 800.768,41.01 802.898,42.595 L803.66,43.448 L864.208,-0.155 L864.792,0.656 L804.202,44.289 C805.591,47.302 805.239,45.766 805.378,48.866 L943.827,64.15 C944.809,61.393 944.152,62.54 945.595,60.602 C946.577,59.693 946.149,59.998 946.791,59.577 L906.089,0.785 L906.911,0.215 L947.627,59.028 C949.092,58.041 950.983,58.155 952.674,58.086 C954.429,58.683 955.053,58.705 956.545,59.83 L1017.149,0.144 L1017.851,0.856 L957.274,60.516 C958.593,61.99 957.83,60.983 959.136,63.815 L1092.859,43.174 C1091.91,41.158 1092.759,38.728 1093.627,36.902 C1093.859,36.414 1094.273,36.036 1094.595,35.602 C1095.667,34.61 1095.149,34.998 1096.1,34.374 L1080.048,0.464 L1080.952,0.036 L1096.944,33.82 C1098.371,33.052 1100.105,33.15 1101.674,33.086 L1102.264,33.292 C1103.331,33.647 1102.857,33.496 1103.682,33.755 L1118.04,0.054 L1118.96,0.446 L1104.605,34.139 C1105.466,34.764 1105.035,34.445 1105.897,35.095 C1107.697,36.954 1109.229,39.887 1108.281,42.548 L1178.093,47.476 C1177.983,45.712 1179.148,44.375 1180.095,43.102 C1181.305,41.983 1180.649,42.498 1182.069,41.566 L1165.038,0.692 L1165.961,0.308 L1182.967,41.122 C1184.305,40.586 1185.761,40.644 1187.174,40.586 L1187.764,40.792 C1189.387,41.216 1190.001,41.543 1191.313,42.532 L1238.163,-0.12 L1238.836,0.62 L1191.995,43.263 C1193.282,44.499 1193.749,45.991 1193.825,47.691 L1339.197,42.307 C1338.754,39.418 1339.411,37.864 1341.095,35.602 C1341.976,34.694 1342.981,33.906 1344.207,33.553 L1334.022,0.648 L1334.978,0.352 L1345.169,33.28 C1347.407,33.103 1346.404,33.158 1348.174,33.086 L1348.764,33.292 C1350.437,33.722 1351.048,34.078 1352.397,35.095 C1353.787,36.649 1353.252,35.812 1354.061,37.568 L1400.224,7.083 L1400.775,7.917 L1354.484,38.487 C1355.583,40.646 1354.837,43.072 1353.873,45.098 C1353.64,45.586 1353.227,45.964 1352.905,46.398 C1349.924,49.659 1344.863,49.886 1341.602,46.905 C1339.935,45.041 1340.748,46.187 1339.417,43.3 L1193.87,48.69 C1194.198,50.671 1193.02,52.399 1191.905,53.897 C1188.924,57.159 1183.863,57.386 1180.602,54.405 C1178.49,52.284 1178.263,51.277 1178.138,48.481 L1107.933,43.526 C1107.191,45.607 1107.705,44.652 1106.405,46.398 C1103.424,49.659 1098.363,49.886 1095.102,46.905 C1093.636,45.265 1094.248,46.187 1093.294,44.118 L959.307,64.801 C959.749,67.624 959.046,69.193 957.405,71.397 C954.424,74.659 949.363,74.886 946.102,71.905 C943.652,69.451 943.742,68.317 943.599,65.131 L805.345,49.869 C804.191,53.107 804.949,51.823 803.405,53.898 C800.424,57.159 795.363,57.386 792.102,54.405 C790.338,52.432 791.248,53.687 789.733,50.401 L582.735,87.531 C583.595,89.398 582.656,91.952 581.872,93.598 C581.64,94.086 581.227,94.464 580.905,94.897 C577.924,98.159 572.863,98.386 569.602,95.405 C567.859,93.456 568.748,94.687 567.273,91.488 C534.013,103.292 550.714,97.344 517.172,109.335 C516.983,109.403 516.983,109.403 516.794,109.471 C504.27,113.955 490.876,118.76 477.497,123.564 C470.296,126.151 473.819,124.885 466.927,127.362 C468.08,129.563 467.367,132.008 466.372,134.098 C466.14,134.586 465.727,134.964 465.405,135.397 C462.424,138.659 457.363,138.886 454.102,135.905 C452.096,133.992 451.373,131.563 451.586,128.826 C451.623,128.351 451.905,127.929 452.065,127.481 L357.59,95.115 C356.525,98.107 357.231,96.893 355.738,98.897 C352.757,102.159 347.697,102.386 344.436,99.405 C342.815,97.592 343.581,98.687 342.337,95.988 L176.897,135.984 L177,137 C177,141.418 173.418,145 169,145 C164.582,145 161,141.418 161,137 L161.114,135.866 L0.36,88.98 L-0.486,88.733 L0.16,88.133 L95.16,-0.116 L95.636,-0.559 L95.941,0.015 L165.136,130.11 C167.885,128.953 166.577,129.244 169,129 C171.049,129.207 170.114,128.953 171.826,129.673 L236.052,0.278 L236.328,-0.278 L236.812,0.11 L345.342,86.934 C346.767,85.751 348.507,85.688 350.275,85.616 L352.984,7.943 L291.442,0.747 L291.558,-0.246 L353.019,6.94 L353.044,6.213 L353.543,6.787 L361.164,-0.12 L361.836,0.62 L354.198,7.542 L454.934,123.483 C456.108,122.443 457.513,122.292 459,122.174 L459,-0.758 z M236.672,1.278 L172.75,130.062 C175.092,130.825 175.832,132.999 176.678,135.008 L342.041,95.031 C341.621,91.924 342.105,90.551 343.929,88.102 L344.519,87.556 L236.672,1.278 z M95.364,1.059 L1.486,88.266 L161.368,134.899 C162.715,131.698 161.76,133.134 164.274,130.619 L95.364,1.059 z M353.955,8.786 L351.273,85.679 C353.211,86.253 353.643,86.399 355.231,87.595 C357.601,89.973 357.584,91.028 357.722,94.103 L452.4,126.539 C452.809,125.393 452.493,126.083 453.595,124.602 L454.142,124.096 L353.955,8.786 z M460,1.259 L460,122.113 L460.674,122.086 C464.107,123.309 462.768,122.51 464.898,124.095 C466.259,125.617 465.752,124.812 466.507,126.45 C473.454,123.954 469.903,125.229 477.159,122.623 C490.538,117.818 503.933,113.014 516.456,108.529 C516.646,108.462 516.646,108.462 516.835,108.394 C533.651,102.51 550.367,96.349 567.182,90.462 C566.754,88.259 567.48,86.271 568.787,84.516 C560.837,78.33 564.883,81.467 556.648,75.107 C546.809,67.523 533.313,57.182 517.071,44.772 C516.886,44.63 516.886,44.63 516.7,44.488 C504.121,34.878 490.644,24.598 477.167,14.33 C472.45,10.737 468.07,7.401 464.139,4.409 C462.763,3.361 461.542,2.432 460.489,1.631 C460.097,1.333 460.26,1.457 460,1.259 z" fill="#FFFFFF" fill-opacity="0.25"/>
    <path d="M702,-0.25 L702,0.75 L689.5,0.75 L689.5,-0.25 L702,-0.25 z" fill="#FFFFFF" fill-opacity="0.25"/>
  </g>
</svg>
