<?xml version="1.0" encoding="UTF-8"?>
<!DOCTYPE svg PUBLIC "-//W3C//DTD SVG 1.1//EN" "http://www.w3.org/Graphics/SVG/1.1/DTD/svg11.dtd">
<svg version="1.1" xmlns="http://www.w3.org/2000/svg" xmlns:xlink="http://www.w3.org/1999/xlink" x="0" y="0" width="500" height="500" viewBox="0, 0, 500, 500">
  <g id="Layer_1">
    <g>
      <path d="M334.826,166.198 L341.724,180.845 C356.094,174.07 395.264,196.015 428.727,220.07 C413.346,218.13 393.542,216.45 370.14,216.31 C312.147,215.947 275.622,234.745 251.331,234.592 C227.052,234.439 190.753,215.195 132.746,214.838 C109.353,214.69 89.539,216.117 74.136,217.873 C107.917,194.228 147.392,172.775 161.618,179.727 L168.695,165.169 C135.69,149.152 38.257,223.762 38.257,223.762 L38.097,250.797 C38.097,250.797 48.878,252.219 55.567,261.706 C62.254,271.184 56.394,346.687 135.976,347.187 C215.56,347.681 228.06,289.753 234.891,274.95 C241.73,260.159 243.077,260.166 251.178,260.219 C259.268,260.27 260.618,260.281 267.266,275.157 C273.932,290.031 285.704,348.107 365.285,348.609 C444.878,349.103 439.945,273.529 446.753,264.13 C453.548,254.728 464.352,253.439 464.352,253.439 L464.523,226.406 C464.525,226.399 368.023,150.582 334.826,166.198 z" fill="#FFFFFF"/>
    </g>
  </g>
</svg>
