<?xml version="1.0" encoding="UTF-8"?>
<!DOCTYPE svg PUBLIC "-//W3C//DTD SVG 1.1//EN" "http://www.w3.org/Graphics/SVG/1.1/DTD/svg11.dtd">
<svg version="1.1" xmlns="http://www.w3.org/2000/svg" xmlns:xlink="http://www.w3.org/1999/xlink" x="0" y="0" width="500" height="500" viewBox="0, 0, 500, 500">
  <g id="Layer_1">
    <path d="M250,88.5 Q282.805,88.5 312.726,101.297 Q342.646,114.095 364.276,135.724 Q385.905,157.353 398.702,187.274 Q411.5,217.195 411.5,250 Q411.5,282.805 398.702,312.725 Q385.905,342.646 364.276,364.275 Q342.646,385.904 312.726,398.702 Q282.805,411.5 250,411.5 Q217.195,411.5 187.274,398.702 Q157.354,385.904 135.724,364.275 Q114.095,342.646 101.298,312.725 Q88.5,282.805 88.5,250 Q88.5,217.195 101.298,187.274 Q114.095,157.353 135.724,135.724 Q157.354,114.095 187.274,101.297 Q217.195,88.5 250,88.5 z M250,111.571 Q215.753,111.571 184.931,127.793 L219.899,162.76 Q234.679,157.713 250,157.713 Q265.321,157.713 280.101,162.76 L315.069,127.793 Q284.246,111.571 250,111.571 z M127.793,315.069 L162.761,280.101 Q157.714,265.32 157.714,250 Q157.714,234.679 162.761,219.898 L127.793,184.931 Q111.571,215.752 111.571,250 Q111.571,284.246 127.793,315.069 z M250,388.428 Q284.246,388.428 315.069,372.206 L280.101,337.239 Q265.321,342.286 250,342.286 Q234.679,342.286 219.899,337.239 L184.931,372.206 Q215.753,388.428 250,388.428 z M250,319.213 Q278.659,319.213 298.937,298.937 Q319.214,278.659 319.214,250 Q319.214,221.34 298.937,201.063 Q278.659,180.786 250,180.786 Q221.341,180.786 201.063,201.063 Q180.786,221.34 180.786,250 Q180.786,278.659 201.063,298.937 Q221.341,319.213 250,319.213 z M337.239,280.101 L372.207,315.069 Q388.429,284.246 388.429,250 Q388.429,215.752 372.207,184.931 L337.239,219.898 Q342.286,234.679 342.286,250 Q342.286,265.32 337.239,280.101 z" fill="#FFFFFF"/>
  </g>
</svg>
