<?xml version="1.0" encoding="UTF-8"?>
<!DOCTYPE svg PUBLIC "-//W3C//DTD SVG 1.1//EN" "http://www.w3.org/Graphics/SVG/1.1/DTD/svg11.dtd">
<svg version="1.1" xmlns="http://www.w3.org/2000/svg" xmlns:xlink="http://www.w3.org/1999/xlink" x="0" y="0" width="500" height="500" viewBox="0, 0, 500, 500">
  <g id="Layer_1">
    <path d="M219.438,372.518 Q219.438,364.143 213.575,358.282 Q207.714,352.42 199.339,352.42 Q190.965,352.42 185.104,358.282 Q179.242,364.143 179.242,372.518 Q179.242,380.893 185.104,386.754 Q190.965,392.617 199.339,392.617 Q207.714,392.617 213.575,386.754 Q219.438,380.893 219.438,372.518 z M219.438,131.339 Q219.438,122.965 213.575,117.104 Q207.714,111.242 199.339,111.242 Q190.965,111.242 185.104,117.104 Q179.242,122.965 179.242,131.339 Q179.242,139.714 185.104,145.575 Q190.965,151.438 199.339,151.438 Q207.714,151.438 213.575,145.575 Q219.438,139.714 219.438,131.339 z M353.425,158.138 Q353.425,149.763 347.563,143.901 Q341.701,138.039 333.327,138.039 Q324.953,138.039 319.091,143.901 Q313.229,149.763 313.229,158.138 Q313.229,166.51 319.091,172.373 Q324.953,178.235 333.327,178.235 Q341.701,178.235 347.563,172.373 Q353.425,166.51 353.425,158.138 z M373.523,158.138 Q373.523,169.024 368.08,178.339 Q362.637,187.656 353.425,192.89 Q353.006,252.976 306.111,279.563 Q291.874,287.52 263.612,296.52 Q236.814,304.895 228.125,311.386 Q219.438,317.876 219.438,332.321 L219.438,337.765 Q228.649,342.998 234.092,352.315 Q239.536,361.631 239.536,372.518 Q239.536,389.266 227.812,400.99 Q216.089,412.714 199.339,412.714 Q182.591,412.714 170.867,400.99 Q159.143,389.266 159.143,372.518 Q159.143,361.631 164.587,352.315 Q170.029,342.998 179.242,337.765 L179.242,166.092 Q170.029,160.859 164.587,151.543 Q159.143,142.226 159.143,131.339 Q159.143,114.591 170.867,102.867 Q182.591,91.143 199.339,91.143 Q216.089,91.143 227.812,102.867 Q239.536,114.591 239.536,131.339 Q239.536,142.226 234.092,151.543 Q228.649,160.859 219.438,166.092 L219.438,270.143 Q230.743,264.699 251.678,258.21 Q263.192,254.65 269.998,252.033 Q276.801,249.417 284.758,245.543 Q292.712,241.67 297.11,237.275 Q301.505,232.877 305.588,226.597 Q309.67,220.315 311.45,212.047 Q313.229,203.777 313.229,192.89 Q304.017,187.656 298.574,178.339 Q293.13,169.024 293.13,158.138 Q293.13,141.388 304.854,129.664 Q316.579,117.941 333.327,117.941 Q350.076,117.941 361.8,129.664 Q373.523,141.388 373.523,158.138 z" fill="#FFFFFF"/>
  </g>
</svg>
