<?xml version="1.0" encoding="UTF-8"?>
<!DOCTYPE svg PUBLIC "-//W3C//DTD SVG 1.1//EN" "http://www.w3.org/Graphics/SVG/1.1/DTD/svg11.dtd">
<svg version="1.1" xmlns="http://www.w3.org/2000/svg" xmlns:xlink="http://www.w3.org/1999/xlink" x="0" y="0" width="500" height="500" viewBox="0, 0, 500, 500">
  <g id="Layer_1">
    <path d="M218.322,148.867 L218.322,275.59 C218.322,278.452 217.275,280.927 215.187,283.018 C213.096,285.106 210.621,286.153 207.762,286.153 L207.762,381.194 C207.762,384.052 206.715,386.528 204.626,388.62 C202.536,390.707 200.061,391.755 197.202,391.755 L112.721,391.755 C109.859,391.755 107.384,390.707 105.295,388.62 C103.204,386.528 102.16,384.054 102.16,381.194 L102.16,296.71 L143.245,152.661 C144.015,150.132 145.721,148.866 148.361,148.866 L218.322,148.867 L218.322,148.867 z M223.603,101.346 L223.603,138.307 L165.52,138.307 L165.52,101.346 C165.52,99.806 166.015,98.54 167.005,97.55 C167.996,96.56 169.258,96.065 170.799,96.065 L218.32,96.065 C219.86,96.065 221.125,96.56 222.114,97.55 C223.108,98.54 223.603,99.806 223.603,101.346 z M271.123,148.867 L271.123,265.029 L228.882,265.029 L228.882,148.867 L271.123,148.867 z M334.485,101.346 L334.485,138.307 L276.403,138.307 L276.403,101.346 C276.403,99.806 276.899,98.54 277.888,97.55 C278.878,96.56 280.141,96.065 281.682,96.065 L329.203,96.065 C330.741,96.065 332.009,96.56 332.996,97.55 C333.99,98.54 334.485,99.806 334.485,101.346 z M397.847,296.71 L397.847,381.191 C397.847,384.049 396.8,386.525 394.709,388.616 C392.618,390.705 390.146,391.751 387.287,391.751 L302.803,391.751 C299.943,391.751 297.468,390.705 295.38,388.616 C293.287,386.525 292.244,384.051 292.244,381.191 L292.244,286.148 C289.381,286.148 286.907,285.105 284.819,283.013 C282.729,280.923 281.682,278.451 281.682,275.586 L281.682,148.866 L351.644,148.866 C354.286,148.866 355.989,150.133 356.759,152.661 L397.847,296.71 z" fill="#FFFFFF"/>
  </g>
</svg>
