<?xml version="1.0" encoding="UTF-8"?>
<!DOCTYPE svg PUBLIC "-//W3C//DTD SVG 1.1//EN" "http://www.w3.org/Graphics/SVG/1.1/DTD/svg11.dtd">
<svg version="1.1" xmlns="http://www.w3.org/2000/svg" xmlns:xlink="http://www.w3.org/1999/xlink" x="0" y="0" width="500" height="500" viewBox="0, 0, 500, 500">
  <g id="Layer_1">
    <path d="M323.823,377.663 Q322.897,374.148 319.382,376.738 Q313.832,380.808 303.285,383.954 Q292.74,387.099 279.048,387.099 Q255.181,387.099 243.339,378.033 Q242.415,377.293 240.935,377.293 Q238.898,377.293 236.124,379.514 Q234.828,380.623 234.735,382.474 Q234.644,384.323 236.124,386.174 Q242.415,392.094 252.313,394.684 Q262.211,397.275 271.277,396.998 Q280.343,396.72 289.594,396.164 Q297.18,395.425 305.228,392.372 Q313.277,389.32 317.254,386.821 Q321.232,384.323 322.527,383.029 Q324.748,380.808 323.823,377.663 z M316.606,356.386 Q313.091,347.69 309.391,345.1 Q305.136,342.324 295.329,342.324 Q286.633,342.324 282.193,344.175 Q276.827,346.394 267.762,354.536 Q262.951,358.976 265.542,362.676 Q267.207,364.156 268.78,363.509 Q270.352,362.862 274.607,359.161 Q275.162,358.792 276.55,357.589 Q277.938,356.386 278.493,356.016 Q279.048,355.646 280.343,354.72 Q281.638,353.795 282.47,353.426 Q283.304,353.056 284.784,352.501 Q286.264,351.946 287.559,351.668 Q288.854,351.391 290.612,351.205 Q292.369,351.021 294.404,351.021 Q299.4,351.021 302.637,352.408 Q305.875,353.795 306.893,355.091 Q307.911,356.386 309.391,359.161 Q311.241,362.307 311.704,362.862 Q312.166,363.417 314.016,362.676 Q318.272,360.456 316.606,356.386 z M382.289,304.396 Q382.289,300.325 381.363,296.162 Q380.438,292 378.31,287.837 Q376.182,283.674 372.019,281.084 Q367.856,278.493 362.306,278.493 Q356.201,278.493 344.36,286.172 Q332.519,293.85 320.492,301.62 Q308.466,309.391 301.805,309.391 Q296.81,309.577 290.057,305.876 Q283.304,302.176 275.995,296.81 Q268.687,291.445 260.546,286.079 Q252.405,280.713 242.044,277.012 Q231.683,273.313 221.507,273.497 Q200.23,273.683 185.058,288.021 Q169.887,302.361 169.516,321.047 Q169.147,341.769 183.208,351.391 Q188.574,355.091 194.772,356.664 Q200.97,358.236 213.922,358.236 Q224.467,358.236 238.343,352.223 Q252.221,346.21 263.137,339.087 Q274.053,331.963 285.339,326.043 Q296.625,320.122 302.546,320.307 Q307.355,320.492 314.571,326.136 Q321.787,331.779 327.801,338.532 Q333.813,345.285 340.382,351.021 Q346.95,356.755 350.65,356.941 Q357.126,357.496 361.474,354.35 Q365.821,351.205 371.742,342.695 Q376.923,335.108 379.606,324.008 Q382.289,312.906 382.289,304.396 z M392.095,274.793 Q392.095,305.135 380.623,331.131 Q369.152,357.126 349.91,374.796 Q330.668,392.465 305.043,402.455 Q279.418,412.447 251.296,412.447 Q223.173,412.447 197.084,401.808 Q170.996,391.169 151.293,372.76 Q131.588,354.35 119.746,328.078 Q107.905,301.806 107.905,272.203 Q107.905,255.736 111.513,240.286 Q115.121,224.837 120.58,213.366 Q126.037,201.895 133.624,191.442 Q141.209,180.988 148.148,174.05 Q155.085,167.112 162.672,161.191 Q170.257,155.27 174.605,152.588 Q178.953,149.905 182.468,148.054 Q185.058,146.574 191.904,143.152 Q198.75,139.728 201.988,137.879 Q205.225,136.029 210.869,132.328 Q216.512,128.628 222.062,124.187 Q228.723,119.006 232.793,110.773 Q236.863,102.54 238.343,87.553 Q262.211,116.232 272.757,123.262 Q280.898,128.628 296.81,135.844 Q312.721,143.059 320.678,148.054 Q324.562,150.46 327.893,152.68 Q331.223,154.9 339.086,161.284 Q346.95,167.667 353.148,174.328 Q359.346,180.988 367.024,191.905 Q374.702,202.821 379.79,214.476 Q384.879,226.133 388.487,241.952 Q392.095,257.771 392.095,274.793 z" fill="#FFFFFF"/>
  </g>
</svg>
