<?xml version="1.0" encoding="utf-8"?>
<!-- Generator: Adobe Illustrator 19.2.1, SVG Export Plug-In . SVG Version: 6.00 Build 0)  -->
<svg version="1.1" id="Layer_1" xmlns="http://www.w3.org/2000/svg" xmlns:xlink="http://www.w3.org/1999/xlink" x="0px" y="0px"
	 width="192px" height="234px" viewBox="0 0 192 234" style="enable-background:new 0 0 192 234;" xml:space="preserve">
<style type="text/css">
	.st0{fill:#F2F2F2;}
	.st1{fill:#23A684;}
	.st2{clip-path:url(#SVGID_2_);}
	.st3{clip-path:url(#SVGID_4_);fill:#050507;}
	.st4{clip-path:url(#SVGID_4_);fill:#0C0B03;}
	.st5{clip-path:url(#SVGID_4_);fill:#22140D;}
	.st6{clip-path:url(#SVGID_4_);fill:#17140E;}
	.st7{clip-path:url(#SVGID_4_);fill:#100908;}
	.st8{clip-path:url(#SVGID_4_);fill:#5A3D2E;}
	.st9{clip-path:url(#SVGID_4_);fill:#A06B4F;}
	.st10{clip-path:url(#SVGID_4_);fill:#1B080F;}
	.st11{clip-path:url(#SVGID_4_);fill:#341D25;}
	.st12{clip-path:url(#SVGID_4_);fill:#2A0D17;}
	.st13{clip-path:url(#SVGID_4_);fill:#8A6251;}
	.st14{clip-path:url(#SVGID_4_);fill:#62413E;}
	.st15{clip-path:url(#SVGID_4_);fill:#482520;}
	.st16{clip-path:url(#SVGID_4_);fill:#7C4C3E;}
	.st17{clip-path:url(#SVGID_4_);fill:#492024;}
	.st18{clip-path:url(#SVGID_4_);fill:#985F4A;}
	.st19{clip-path:url(#SVGID_4_);fill:#82583E;}
	.st20{clip-path:url(#SVGID_4_);fill:#70443A;}
	.st21{clip-path:url(#SVGID_4_);fill:#604132;}
	.st22{clip-path:url(#SVGID_4_);fill:#654332;}
	.st23{clip-path:url(#SVGID_4_);fill:#763C37;}
	.st24{clip-path:url(#SVGID_4_);fill:#7F423B;}
	.st25{clip-path:url(#SVGID_4_);fill:#AF544F;}
	.st26{clip-path:url(#SVGID_4_);fill:#A04B44;}
	.st27{clip-path:url(#SVGID_4_);fill:#955458;}
	.st28{clip-path:url(#SVGID_4_);fill:#86484A;}
	.st29{clip-path:url(#SVGID_4_);fill:#A77F73;}
	.st30{clip-path:url(#SVGID_4_);fill:#361B18;}
	.st31{clip-path:url(#SVGID_4_);fill:#623F27;}
	.st32{clip-path:url(#SVGID_4_);fill:#AF6A42;}
	.st33{clip-path:url(#SVGID_4_);fill:#754A2E;}
	.st34{clip-path:url(#SVGID_4_);fill:#29190F;}
	.st35{clip-path:url(#SVGID_4_);fill:#341610;}
	.st36{clip-path:url(#SVGID_4_);fill:#301314;}
	.st37{clip-path:url(#SVGID_4_);fill:#54241D;}
	.st38{clip-path:url(#SVGID_4_);fill:#D77C57;}
	.st39{clip-path:url(#SVGID_4_);fill:#65412E;}
	.st40{clip-path:url(#SVGID_4_);fill:#876447;}
	.st41{clip-path:url(#SVGID_4_);fill:#5B4641;}
	.st42{clip-path:url(#SVGID_4_);fill:#AE755F;}
	.st43{clip-path:url(#SVGID_4_);fill:#C77251;}
	.st44{clip-path:url(#SVGID_4_);fill:#C36048;}
	.st45{clip-path:url(#SVGID_4_);fill:#D67F5F;}
	.st46{clip-path:url(#SVGID_4_);fill:#4A2B1F;}
	.st47{clip-path:url(#SVGID_4_);fill:#D37562;}
	.st48{clip-path:url(#SVGID_4_);fill:#C8714A;}
	.st49{clip-path:url(#SVGID_4_);fill:#D0784F;}
	.st50{clip-path:url(#SVGID_4_);fill:#D87E5C;}
	.st51{clip-path:url(#SVGID_4_);fill:#D27350;}
	.st52{clip-path:url(#SVGID_4_);fill:#C86733;}
	.st53{clip-path:url(#SVGID_4_);fill:#8E502B;}
	.st54{clip-path:url(#SVGID_4_);fill:#C57244;}
	.st55{clip-path:url(#SVGID_4_);fill:#6A4B3A;}
	.st56{clip-path:url(#SVGID_4_);fill:#602F12;}
	.st57{clip-path:url(#SVGID_4_);fill:#43210B;}
	.st58{clip-path:url(#SVGID_4_);fill:#582913;}
	.st59{clip-path:url(#SVGID_4_);fill:#91573A;}
	.st60{clip-path:url(#SVGID_4_);fill:#693C29;}
	.st61{clip-path:url(#SVGID_4_);fill:#885639;}
	.st62{clip-path:url(#SVGID_4_);fill:#945B3D;}
	.st63{clip-path:url(#SVGID_4_);fill:#7C462E;}
	.st64{clip-path:url(#SVGID_4_);fill:#372513;}
	.st65{clip-path:url(#SVGID_4_);fill:#67442F;}
	.st66{clip-path:url(#SVGID_4_);fill:#52402E;}
	.st67{clip-path:url(#SVGID_4_);fill:#5E4539;}
	.st68{clip-path:url(#SVGID_4_);fill:#4F362A;}
	.st69{clip-path:url(#SVGID_4_);fill:#563820;}
	.st70{clip-path:url(#SVGID_4_);fill:#5D3726;}
	.st71{clip-path:url(#SVGID_4_);fill:#73492C;}
	.st72{clip-path:url(#SVGID_4_);fill:#623931;}
	.st73{clip-path:url(#SVGID_4_);fill:#7A5347;}
	.st74{clip-path:url(#SVGID_4_);fill:#975A3B;}
	.st75{clip-path:url(#SVGID_4_);fill:#BD7155;}
	.st76{clip-path:url(#SVGID_4_);fill:#B76F48;}
	.st77{clip-path:url(#SVGID_4_);fill:#C6744E;}
	.st78{clip-path:url(#SVGID_4_);fill:#B76642;}
	.st79{clip-path:url(#SVGID_4_);fill:#AD6042;}
	.st80{clip-path:url(#SVGID_4_);fill:#905B48;}
	.st81{clip-path:url(#SVGID_4_);fill:#250B04;}
	.st82{clip-path:url(#SVGID_4_);fill:#1B0B08;}
	.st83{clip-path:url(#SVGID_4_);fill:#1A0E0D;}
	.st84{clip-path:url(#SVGID_4_);fill:#2B1108;}
	.st85{clip-path:url(#SVGID_4_);fill:#2F140C;}
	.st86{clip-path:url(#SVGID_4_);fill:#38160E;}
	.st87{clip-path:url(#SVGID_4_);fill:#160907;}
	.st88{clip-path:url(#SVGID_4_);fill:#B2A8AA;}
	.st89{clip-path:url(#SVGID_4_);fill:#170A11;}
	.st90{clip-path:url(#SVGID_4_);fill:#D3C0BC;}
	.st91{clip-path:url(#SVGID_4_);fill:#BF6F44;}
	.st92{clip-path:url(#SVGID_4_);fill:#271E0C;}
	.st93{clip-path:url(#SVGID_4_);fill:#250A0B;}
	.st94{clip-path:url(#SVGID_4_);fill:#6A3B26;}
	.st95{clip-path:url(#SVGID_4_);fill:#461F14;}
	.st96{clip-path:url(#SVGID_4_);fill:#2E2121;}
	.st97{clip-path:url(#SVGID_4_);fill:#4C3834;}
	.st98{clip-path:url(#SVGID_4_);fill:#43301D;}
	.st99{clip-path:url(#SVGID_4_);fill:#48342C;}
	.st100{clip-path:url(#SVGID_4_);fill:#4B2110;}
	.st101{clip-path:url(#SVGID_4_);fill:#362A21;}
	.st102{clip-path:url(#SVGID_4_);fill:#25150A;}
	.st103{clip-path:url(#SVGID_4_);fill:#2B1A15;}
	.st104{clip-path:url(#SVGID_4_);fill:#311B23;}
	.st105{clip-path:url(#SVGID_4_);fill:#3A1A1F;}
	.st106{clip-path:url(#SVGID_4_);fill:#39281F;}
	.st107{clip-path:url(#SVGID_4_);fill:#999999;}
	.st108{clip-path:url(#SVGID_4_);fill:#352B2B;}
	.st109{clip-path:url(#SVGID_4_);fill:#403032;}
	.st110{clip-path:url(#SVGID_4_);fill:#392420;}
	.st111{clip-path:url(#SVGID_4_);fill:#2F171F;}
	.st112{clip-path:url(#SVGID_4_);fill:#2E171B;}
	.st113{clip-path:url(#SVGID_4_);fill:#211513;}
	.st114{clip-path:url(#SVGID_4_);fill:#2E181A;}
	.st115{clip-path:url(#SVGID_4_);fill:#3D2428;}
	.st116{clip-path:url(#SVGID_4_);fill:#5F3D4F;}
	.st117{clip-path:url(#SVGID_4_);fill:#CE7859;}
	.st118{clip-path:url(#SVGID_4_);fill:#6C432C;}
</style>
<rect class="st0" width="192" height="234"/>
<polygon class="st1" points="192,215.5 172.5,234 192,234 "/>
<g>
	<g>
		<defs>
			<rect id="SVGID_1_" x="-24" y="21.1" width="239" height="259.5"/>
		</defs>
		<clipPath id="SVGID_2_">
			<use xlink:href="#SVGID_1_"  style="overflow:visible;"/>
		</clipPath>
		<g class="st2">
			<defs>
				<rect id="SVGID_3_" x="-24" y="21.1" width="239" height="259.5"/>
			</defs>
			<clipPath id="SVGID_4_">
				<use xlink:href="#SVGID_3_"  style="overflow:visible;"/>
			</clipPath>
			<path class="st3" d="M104.7,179.1c-4.7,0-8-2.2-8-2.3l7.4-7.7l9.3,7.1C110.6,178.1,107.7,179.1,104.7,179.1L104.7,179.1z"/>
			<path class="st3" d="M104.1,169.1l-7.4,7.7c0,0,8,5.4,16.7-0.6L104.1,169.1z"/>
			<path class="st4" d="M96.6,176.8c-0.1,0-5.2-3.6-7-7.7l5.9-0.6L96.6,176.8L96.6,176.8z"/>
			<path class="st4" d="M95.5,168.6l1.1,8.2c0,0-5.2-3.5-7-7.7L95.5,168.6z"/>
			<polygon class="st5" points="95.5,168.6 104.1,169.1 96.6,176.8 			"/>
			<polygon class="st5" points="104.1,169.1 95.5,168.6 96.6,176.8 			"/>
			<polygon class="st6" points="104.1,169.1 111.1,168.2 113.4,176.3 			"/>
			<polygon class="st6" points="111.1,168.2 104.1,169.1 113.3,176.2 			"/>
			<path class="st7" d="M111.1,168.3l9.5,0.3c-2.3,4-7.1,7.7-7.2,7.7l0,0L111.1,168.3z"/>
			<path class="st7" d="M120.5,168.6l-9.5-0.3l2.3,8C113.3,176.2,118.2,172.6,120.5,168.6"/>
			<path class="st8" d="M96.6,176.8c-4-0.4-15.6-7.6-15.7-7.7l-5.5-6.6l11.2,0l3.2,6.6C91.8,173.5,96.6,176.7,96.6,176.8L96.6,176.8
				z"/>
			<path class="st8" d="M89.7,169.1l-3.2-6.6H75.4l5.5,6.6c0,0,11.7,7.3,15.7,7.7C96.6,176.8,91.8,173.5,89.7,169.1"/>
			<polygon class="st9" points="95.5,168.6 86.5,162.5 102.5,161.7 111.1,168.2 104.1,169.1 			"/>
			<polygon class="st9" points="102.5,161.7 86.5,162.5 95.5,168.6 104.1,169.1 111.1,168.2 			"/>
			<polygon class="st10" points="102.5,161.7 104.1,158 108.8,161.7 			"/>
			<polygon class="st10" points="104.1,158 102.5,161.7 108.7,161.7 			"/>
			<path class="st11" d="M108.7,161.6L108.7,161.6l3.2-4.8l2.2,1.8C114.1,158.7,109.3,161.4,108.7,161.6L108.7,161.6z"/>
			<path class="st11" d="M114.2,158.6l-2.2-1.8l-3.3,4.8C108.2,161.9,114.2,158.6,114.2,158.6"/>
			<polygon class="st12" points="99.8,157.4 104.1,158 102.5,161.7 			"/>
			<polygon class="st12" points="99.8,157.4 102.5,161.7 104.1,158 			"/>
			<polygon class="st13" points="102.5,161.7 108.7,161.7 114.1,158.6 111.1,168.3 			"/>
			<polygon class="st13" points="114.2,158.6 111.1,168.2 102.5,161.7 108.7,161.7 			"/>
			<polygon class="st14" points="111.1,168.3 122.4,156.9 120.6,168.6 			"/>
			<polygon class="st14" points="111.1,168.2 122.4,156.9 120.5,168.6 			"/>
			<polygon class="st15" points="111.9,156.9 115.8,155.7 114.2,158.7 			"/>
			<polygon class="st15" points="115.8,155.7 112,156.9 114.2,158.6 			"/>
			<polygon class="st16" points="111.1,168.2 114.1,158.6 115.8,155.7 122.5,156.9 111.1,168.3 			"/>
			<polygon class="st16" points="122.4,156.9 115.8,155.7 114.2,158.6 111.1,168.2 			"/>
			<polygon class="st17" points="94.5,156.2 99.8,157.3 102.6,161.7 102.5,161.7 			"/>
			<polygon class="st17" points="94.5,156.2 99.8,157.4 102.5,161.7 			"/>
			<path class="st18" d="M86.5,162.5c0.2-0.2,7.7-6.1,8-6.4l8,5.5L86.5,162.5L86.5,162.5z"/>
			<path class="st18" d="M94.5,156.2c0,0-7.8,6.1-8,6.4l16-0.8L94.5,156.2z"/>
			<path class="st19" d="M80.1,154.8l8.1-3.9c0,0,1.6,1.7,6.3,5.3l-8,6.4L80.1,154.8z"/>
			<path class="st19" d="M88.2,150.9l-8.1,3.9l6.4,7.7l8-6.4C89.7,152.5,88.2,150.9,88.2,150.9"/>
			<polygon class="st16" points="115.8,155.8 124.1,145.8 122.5,156.9 			"/>
			<polygon class="st16" points="124.2,145.8 115.8,155.7 122.4,156.9 			"/>
			<path class="st20" d="M120.5,168.5l1.9-11.7l1.7-11.1l7.8-4.4c-0.7,5.3-5.7,15.9-5.7,16L120.5,168.5L120.5,168.5z"/>
			<path class="st20" d="M124.2,145.8l-1.7,11.1l-1.9,11.7l5.6-11.2c0,0,5-10.6,5.8-15.9L124.2,145.8z"/>
			<path class="st21" d="M75.4,162.5c-4.3-5.2-10.9-20.9-11-21.1l15.7,13.3l6.5,7.8H75.4z"/>
			<path class="st21" d="M80.1,154.8l-15.7-13.3c0,0,6.6,15.9,11,21.1h11.1L80.1,154.8z"/>
			<polygon class="st22" points="64.4,141.5 88.2,150.8 80.1,154.8 			"/>
			<polygon class="st22" points="88.2,150.9 64.4,141.4 80.1,154.8 			"/>
			<polygon class="st23" points="99.8,157.4 104.5,152.2 112,156.9 104.1,158.1 			"/>
			<polygon class="st23" points="104.5,152.2 99.8,157.4 104.1,158 112,156.9 			"/>
			<path class="st24" d="M104.5,152.2c4.9-0.1,7.4-1.8,7.5-1.8l7,1.5l-3.2,3.8l-3.9,1.2L104.5,152.2z"/>
			<path class="st24" d="M119,152l-7-1.5c0,0-2.5,1.6-7.5,1.7l7.5,4.7l3.9-1.1L119,152z"/>
			<polygon class="st25" points="94.5,156.2 97.7,152.2 104.5,152.2 99.8,157.4 			"/>
			<polygon class="st25" points="94.5,156.2 97.7,152.2 104.5,152.2 99.8,157.4 			"/>
			<path class="st26" d="M94.5,156.2c0,0-5-3.7-6.3-5.3l9.5,1.3L94.5,156.2L94.5,156.2z"/>
			<path class="st26" d="M88.2,150.9l9.5,1.3l-3.2,4C94.5,156.2,89.6,152.5,88.2,150.9"/>
			<path class="st27" d="M112,150.5c5.2-3,9.3-7.1,9.4-7.2L119,152L112,150.5z"/>
			<path class="st27" d="M121.3,143.3c0,0-4.1,4.1-9.4,7.1l7,1.5L121.3,143.3z"/>
			<polygon class="st28" points="119,152 121.3,143.3 124.2,145.8 119,152 			"/>
			<polygon class="st28" points="124.2,145.8 121.3,143.3 119,152 			"/>
			<polygon class="st29" points="88.2,150.9 77.8,146.8 84.4,144.8 89.8,151.1 			"/>
			<polygon class="st29" points="84.4,144.8 89.7,151.1 88.2,150.9 77.8,146.8 			"/>
			<polygon class="st30" points="121.3,143.3 124.1,137.1 124.2,145.9 			"/>
			<polygon class="st30" points="124.2,137.1 121.3,143.3 124.2,145.8 			"/>
			<path class="st31" d="M124.1,137.1l8.5-13.2c1,0.5-0.6,16.8-0.7,17.5l-7.9,4.4V137.1z"/>
			<path class="st31" d="M132.7,123.9l-8.5,13.2v8.7l7.8-4.4C132,141.4,133.6,124.5,132.7,123.9"/>
			<polygon class="st32" points="59.9,126.7 76.3,122.1 67.3,131 			"/>
			<polygon class="st32" points="59.9,126.6 76.3,122.1 67.3,130.9 			"/>
			<polygon class="st33" points="64.4,141.5 59.9,126.7 79.1,137.8 77.9,146.8 			"/>
			<polygon class="st33" points="59.9,126.6 64.4,141.4 77.8,146.8 79.1,137.8 			"/>
			<polygon class="st34" points="79.1,137.8 84.5,144.8 77.8,146.8 			"/>
			<polygon class="st34" points="84.4,144.8 79.1,137.8 77.8,146.8 			"/>
			<polygon class="st35" points="89.7,151.1 84.4,144.9 87.9,144.8 91.2,151.3 			"/>
			<polygon class="st35" points="87.9,144.8 91.2,151.3 89.7,151.1 84.4,144.8 			"/>
			<polygon class="st36" points="117.3,140.2 122,141.7 121.4,143.3 116.9,147.7 			"/>
			<polygon class="st36" points="117.3,140.2 117,147.6 121.3,143.3 122,141.8 			"/>
			<path class="st37" d="M84.4,144.9c-0.1-0.2,1.6-1.2,2.4-1.6c0.2-0.1,4.9-1.8,5.6-1.9c0.8-0.1,6-0.4,7.4-0.4
				c0.7,0,7.9-1.2,12.2-1.9c1.5-0.2,2.6-0.4,3.1-0.5c0.2,0,0.4,0,0.6,0c2.4,0,7,1.6,7,1.6l-0.7,1.6l-4.7-1.5
				c-15.4,1.5-29.3,4.6-29.4,4.6l0,0L84.4,144.9z"/>
			<path class="st37" d="M87.9,144.8c0,0,13.8-3.1,29.4-4.6l4.7,1.5l0.7-1.5c0,0-5.5-1.9-7.6-1.5c-2.1,0.3-14.4,2.4-15.3,2.4
				c-1.4,0-6.6,0.3-7.4,0.4c-0.7,0.1-5.6,1.9-5.6,1.9s-2.7,1.5-2.4,1.5L87.9,144.8z"/>
			<polygon class="st32" points="121.3,139.8 121,128 127.6,131.7 124.2,137.1 122.7,140.3 			"/>
			<polygon class="st32" points="127.6,131.8 121,128 121.3,139.8 122.7,140.2 124.2,137.1 			"/>
			<path class="st38" d="M121.3,139.8c0,0-3.8-1.1-5.3-1.1c-0.1,0-0.1,0-0.2,0c-1.3,0.1-3,0.4-3,0.4l2.5-13.8l5.7,2.7L121.3,139.8
				L121.3,139.8z"/>
			<path class="st38" d="M112.8,139.1l2.5-13.8l5.7,2.8l0.3,11.8c0,0-4.2-1.3-5.5-1.1C114.5,138.8,112.8,139.1,112.8,139.1"/>
			<path class="st16" d="M105.9,134.1c0.5,0,8.4-3.8,8.5-3.8l-1.5,8.8L105.9,134.1z"/>
			<path class="st16" d="M105.9,134.1l6.9,4.9l1.6-8.7C114.4,130.4,106.4,134.1,105.9,134.1"/>
			<path class="st16" d="M99.8,141.1l6.1-7l6.9,4.9C112.7,139.1,100.8,141.1,99.8,141.1L99.8,141.1z"/>
			<path class="st16" d="M99.8,141l6.1-6.9l6.9,4.9C112.8,139.1,100.8,141,99.8,141"/>
			<polygon class="st39" points="94.1,132.1 105.9,134.1 99.8,141.1 			"/>
			<polygon class="st39" points="94.2,132.1 99.8,141 105.9,134.1 			"/>
			<polygon class="st40" points="89.8,129 94.2,132.1 99.8,141 92.5,141.5 88.2,142.9 			"/>
			<polygon class="st40" points="89.9,129 88.2,142.8 92.5,141.4 99.8,141 94.2,132.1 			"/>
			<path class="st41" d="M79.1,137.8l9.2,4.9c0,0.1-2.9,1.2-3.8,2.1l0,0L79.1,137.8z"/>
			<path class="st41" d="M88.2,142.8l-9.2-5l5.4,7C85.4,144,88.2,142.8,88.2,142.8"/>
			<polygon class="st42" points="79.1,137.8 89.8,129 88.3,142.9 			"/>
			<polygon class="st42" points="89.9,129 79.1,137.8 88.2,142.8 			"/>
			<polygon class="st43" points="121,128.1 115.3,125.3 119.5,116.6 131.6,111.7 132.7,123.9 127.6,131.8 			"/>
			<polygon class="st43" points="131.6,111.8 119.5,116.6 115.3,125.3 121,128 127.6,131.8 132.7,123.9 			"/>
			<polygon class="st44" points="109.2,122.3 108.8,115.6 119.5,116.5 115.3,125.3 			"/>
			<polygon class="st44" points="108.8,115.6 109.2,122.3 115.3,125.3 119.5,116.6 			"/>
			<path class="st45" d="M76.3,122.1c0.1-0.1,12.8-1.1,17.8-6.5l3,3.2L89.9,129L76.3,122.1z"/>
			<path class="st45" d="M94.2,115.6c-5.1,5.5-17.8,6.5-17.8,6.5l13.5,6.9l7.3-10.2L94.2,115.6z"/>
			<polygon class="st46" points="94.2,132.1 99,129.9 100.5,133.2 			"/>
			<polygon class="st46" points="94.2,132.1 99,130 100.4,133.2 			"/>
			<path class="st38" d="M100.4,133.2L99,130l0-0.1c0.2-0.3,1.7-0.5,1.8-0.5l2.6,4.4L100.4,133.2z"/>
			<path class="st38" d="M103.4,133.7l-2.6-4.3c0,0-1.9,0.2-1.8,0.5c0.1,0.3,1.4,3.2,1.4,3.2L103.4,133.7z"/>
			<polygon class="st46" points="108.8,130.4 113.2,130.9 108.2,133.2 			"/>
			<polygon class="st46" points="108.2,133.2 108.8,130.4 113.2,130.9 			"/>
			<polygon class="st47" points="108.8,130.4 109.2,122.3 115.3,125.2 114.4,130.4 112.8,130.9 			"/>
			<polygon class="st47" points="109.2,122.3 108.8,130.4 112.8,130.9 114.4,130.4 115.3,125.3 			"/>
			<polygon class="st48" points="89.8,129 97.1,118.7 100.9,129.4 99,130 94.2,132.1 			"/>
			<polygon class="st48" points="97.2,118.8 100.8,129.4 99,130 94.2,132.1 89.9,129 			"/>
			<polygon class="st49" points="103.4,133.7 102.7,132.5 108.8,129 108.8,130.4 108.3,133.2 105.9,134.2 			"/>
			<polygon class="st49" points="108.8,129 102.7,132.5 103.4,133.7 105.9,134.1 108.2,133.2 108.8,130.4 			"/>
			<polygon class="st50" points="100.8,129.4 99,104.3 108.8,129 102.7,132.6 			"/>
			<polygon class="st50" points="99,104.3 100.8,129.4 102.7,132.5 108.8,129 			"/>
			<polygon class="st51" points="99,104.3 108.8,115.6 109.2,122.3 108.8,129 108.8,129 			"/>
			<polygon class="st51" points="108.8,115.6 99,104.3 108.8,129 109.2,122.3 			"/>
			<polygon class="st52" points="97.1,118.8 99,103.6 100.9,129.4 100.8,129.4 			"/>
			<polygon class="st52" points="99,103.6 97.2,118.8 100.8,129.4 			"/>
			<polygon class="st53" points="94.1,115.6 99,104.3 97.2,118.8 			"/>
			<polygon class="st53" points="94.2,115.6 99,104.3 97.2,118.8 			"/>
			<polygon class="st54" points="99,104.3 103.4,103.1 105.3,111.5 105.3,111.5 			"/>
			<polygon class="st54" points="103.4,103.2 105.3,111.5 99,104.3 			"/>
			<path class="st55" d="M61.2,145.3c-1.9,0-3.9-1.9-6.1-5.8l-2.4-4.7l3.2,1.9l8.9,5.6C64.8,142.3,63.5,145.3,61.2,145.3"/>
			<path class="st55" d="M64.8,142.3c0,0-3.4,8.2-9.6-2.8l-2.4-4.7l3.1,2L64.8,142.3z"/>
			<path class="st56" d="M56.8,137.3l3.8-1.4c1.3,3.2,1.9,4.9,1.9,4.9l0,0L56.8,137.3z"/>
			<path class="st56" d="M60.5,135.9c0,0,1.9,4.9,1.9,4.9c-0.1-0.1-5.6-3.5-5.6-3.5L60.5,135.9z"/>
			<polygon class="st57" points="62.4,140.8 60.5,135.9 56.8,137.3 59.9,126.6 64.8,142.4 			"/>
			<polygon class="st57" points="59.9,126.6 56.8,137.3 60.5,135.9 62.4,140.8 64.8,142.3 			"/>
			<polygon class="st58" points="54.5,130.6 54.8,123.2 57.8,124.5 54.6,130.6 			"/>
			<polygon class="st58" points="54.9,123.2 54.6,130.6 57.7,124.5 			"/>
			<path class="st59" d="M52.7,134.8c-0.1-0.3-2.3-7.3-2.3-7.8l4.2,3.7l5.3-4l-3.1,10.7L52.7,134.8z"/>
			<path class="st59" d="M50.4,126.9c0,0.5,2.3,7.8,2.3,7.8l4,2.5l3.1-10.6l-5.4,4L50.4,126.9z"/>
			<polygon class="st60" points="50.4,126.9 49.8,116 53.1,119.3 50.5,126.9 			"/>
			<polygon class="st60" points="53.1,119.3 50.4,126.9 49.9,116 			"/>
			<path class="st61" d="M50.4,126.9l2.7-7.6l-3.2-3.3c0.3-1,0.9-1.5,1.9-1.5c1.3,0,2.8,1,2.8,1l0.3,7.6l-0.3,7.5L50.4,126.9z"/>
			<path class="st61" d="M54.6,115.6c0,0-3.7-2.6-4.7,0.4l3.2,3.4l-2.7,7.6l4.1,3.7l0.3-7.4L54.6,115.6z"/>
			<polygon class="st62" points="70.3,115 76.3,122.1 59.9,126.7 			"/>
			<polygon class="st62" points="70.3,115 59.9,126.6 76.3,122.1 			"/>
			<path class="st63" d="M59.9,126.6c-1.4-9.4-5.3-11-5.3-11l-0.8-4.6l16.6,4L59.9,126.6L59.9,126.6z"/>
			<path class="st63" d="M53.8,111l0.8,4.6c0,0,4,1.5,5.4,11.1L70.3,115L53.8,111z"/>
			<path class="st64" d="M54.6,115.6c0,0-1.8-0.9-2.2-1l-0.9-9.2l2.3-2.9l0,8.4L54.6,115.6L54.6,115.6z"/>
			<path class="st64" d="M52.4,114.6l-0.9-9.2l2.3-2.8v8.4l0.8,4.6C54.6,115.6,52.8,114.7,52.4,114.6"/>
			<polygon class="st65" points="53.8,111 53.8,102.6 62,97.5 70.4,115.1 			"/>
			<polygon class="st65" points="62,97.5 53.8,102.6 53.8,111 70.3,115 			"/>
			<polygon class="st66" points="51.5,95 53.8,102.6 51.5,105.5 			"/>
			<polygon class="st66" points="51.5,95 51.5,105.4 53.8,102.6 			"/>
			<path class="st67" d="M51.5,95.2l3.1-9.4c0,0.1-1.5,10-0.7,16.8l-0.1,0L51.5,95.2z"/>
			<path class="st67" d="M54.6,85.8c0,0-1.5,9.9-0.8,16.8l-2.3-7.4L54.6,85.8z"/>
			<path class="st68" d="M51.5,95.2c0-10.3,3.1-16.9,3.1-17l0.1,7.6L51.5,95.2L51.5,95.2z"/>
			<path class="st68" d="M54.6,78.2c0,0-3.1,6.6-3.1,17l3.1-9.4V78.2z"/>
			<polygon class="st69" points="54.5,78.2 58.4,80.3 54.5,85.8 			"/>
			<polygon class="st69" points="58.4,80.3 54.6,85.8 54.6,78.2 			"/>
			<path class="st70" d="M54.6,78.2c1.3-3.8,8.8-10.1,8.9-10.1l-5,12.3L54.6,78.2z"/>
			<path class="st70" d="M63.4,68.1c0,0-7.5,6.3-8.9,10.1l3.8,2.1L63.4,68.1z"/>
			<path class="st71" d="M53.8,102.6c0-0.1-1-8.6,0.8-16.8l7.5,11.8L53.8,102.6L53.8,102.6z"/>
			<path class="st71" d="M54.6,85.8L62,97.5l-8.3,5C53.8,102.6,52.8,94.1,54.6,85.8"/>
			<polygon class="st72" points="63.4,68.1 70.7,65.9 61.6,72.6 			"/>
			<line class="st72" x1="63.4" y1="68.1" x2="61.6" y2="72.5"/>
			<path class="st73" d="M63.4,68.1c2.9-3.5,12.8-7.8,12.9-7.8l-5.6,5.2L63.4,68.1L63.4,68.1z"/>
			<path class="st73" d="M76.3,60.3c0,0-10,4.2-12.9,7.8l7.2-2.3L76.3,60.3z"/>
			<path class="st73" d="M71,65.1l5.3-4.9l7.5-1.1C83.8,59.3,78.1,60.2,71,65.1L71,65.1z"/>
			<path class="st73" d="M83.9,59.5c0,0-6.6,2.4-13.3,6.3l5.7-5.6L83.9,59.5z"/>
			<polygon class="st74" points="62,97.6 58.4,80.3 77.3,101.5 			"/>
			<polygon class="st74" points="77.3,101.4 62,97.5 58.4,80.3 			"/>
			<path class="st75" d="M61.6,72.5l6.5-5l19.5,31.4C87.6,98.8,61.6,72.6,61.6,72.5"/>
			<path class="st76" d="M61.6,72.5c-0.5,0.4-3.2,7.8-3.2,7.8l18.9,21.1l10.3-2.6"/>
			<path class="st77" d="M87.6,98.9L68.1,67.5c7.9-5.3,15.8-8,15.8-8l15.1,44.8L87.6,98.9z"/>
			<path class="st54" d="M83.8,59.3c0,0,2.9-0.8,7.2-0.8c2.9,0,5.8,0.4,8.7,1l4.9,39l-5.6,5.9L83.8,59.3z"/>
			<path class="st78" d="M124.3,96.5c-1.4-1-10.1-1-10.2-1l3-26.5L124.3,96.5L124.3,96.5z"/>
			<path class="st78" d="M124.3,96.5L117.2,69l-3,26.5C114.1,95.5,122.9,95.5,124.3,96.5"/>
			<path class="st79" d="M117.1,69c0.1,0.1,8.5,9.6,11.1,24.5l-3.9,3.1L117.1,69z"/>
			<path class="st79" d="M128.2,93.5l-3.9,3L117.2,69C117.2,69,125.5,78.4,128.2,93.5"/>
			<path class="st72" d="M76.3,60.3c3.6-2.9,15-3.4,15.1-3.4l8.3,2.6c-3-0.6-5.9-1-8.8-1c-4.3,0-7,0.8-7,0.8L76.3,60.3L76.3,60.3z"
				/>
			<path class="st72" d="M91.4,56.9c0,0-11.5,0.5-15.1,3.4l7.6-0.8c0,0,5.7-1,15.8,0L91.4,56.9z"/>
			<path class="st68" d="M99.7,59.5l-8.3-2.6c0-0.1,0.4-0.1,1.1-0.1c1.9,0,7.2,0.3,14,2.6l0,0.1H99.7z"/>
			<path class="st68" d="M106.5,59.5h-6.8l-8.3-2.6C91.4,56.9,97.6,56.4,106.5,59.5"/>
			<path class="st68" d="M117.1,69c-6.4-6.7-17.3-9.5-17.4-9.5l6.8-0.1c2.8,0.4,9.1,5.6,9.1,5.6L117.1,69L117.1,69z"/>
			<path class="st68" d="M117.2,69l-1.5-3.9c0,0-6.3-5.2-9.1-5.6l-6.8,0C99.7,59.5,108,61.9,117.2,69"/>
			<path class="st64" d="M122.9,78c-0.9-1.8-5.7-8.9-5.8-8.9l-1.5-3.9c1.9,1.4,7.1,7.6,7.1,7.6L122.9,78L122.9,78z"/>
			<path class="st64" d="M123,77.9l-0.3-5.2c0,0-5.2-6.2-7.1-7.6l1.5,3.9C117.2,69,122.1,76.1,123,77.9"/>
			<path class="st68" d="M126.9,88.1c-0.9-3.7-4-10-4-10.1l-0.3-5.2l3.1,6.2L126.9,88.1L126.9,88.1z"/>
			<path class="st68" d="M127,88l-1.2-9.1l-3.1-6.2l0.3,5.2C123,77.9,126,84.3,127,88"/>
			<path class="st72" d="M128.2,93.5l-1.3-5.4l-1.2-9.1c0.1,0.1,3.8,7.4,4.9,18.2l-1.3,1.3L128.2,93.5z"/>
			<path class="st72" d="M129.4,98.5l-1.1-5L127,88l-1.2-9.1c0,0,3.7,7.3,4.9,18.2L129.4,98.5z"/>
			<path class="st72" d="M131.3,111.5l-2-13l1.3-1.3C130.7,97.3,132.4,107.4,131.3,111.5L131.3,111.5z"/>
			<path class="st72" d="M131.3,111.5l-2-13l1.3-1.3C130.7,97.2,132.4,107.4,131.3,111.5"/>
			<path class="st79" d="M131.6,111.8c-1.4-3-7.3-15.2-7.3-15.3l3.9-3l1.2,5L131.6,111.8L131.6,111.8z"/>
			<path class="st79" d="M131.6,111.8l-2.3-13.3l-1.1-5l-3.9,3C124.3,96.5,130.2,108.8,131.6,111.8"/>
			<path class="st80" d="M62,97.6l15.2,3.9c-7.2,3.4-9.1,9-9.1,9l0,0.1L62,97.6z"/>
			<path class="st80" d="M68.1,110.4c0,0,1.8-5.6,9.1-9L62,97.5L68.1,110.4z"/>
			<path class="st81" d="M68.1,110.4c0-0.1,2-5.8,9.1-9l-2.4,5.9L68.1,110.4L68.1,110.4z"/>
			<path class="st81" d="M74.8,107.3l-6.7,3.1c0,0,1.9-5.7,9.1-9L74.8,107.3z"/>
			<polygon class="st82" points="77.2,101.4 81.2,104.3 74.8,107.4 			"/>
			<polygon class="st82" points="81.1,104.4 74.8,107.3 77.3,101.4 			"/>
			<polygon class="st83" points="77.2,101.5 87.6,98.8 81.1,104.4 			"/>
			<polygon class="st83" points="87.6,98.8 81.1,104.4 77.3,101.4 			"/>
			<polygon class="st84" points="87.6,98.8 90.4,103.1 81.1,104.4 			"/>
			<polygon class="st84" points="90.4,103.2 81.1,104.4 87.6,98.8 			"/>
			<polygon class="st85" points="90.4,103.2 87.6,98.9 96.7,103.1 96.6,103.2 			"/>
			<polygon class="st85" points="96.6,103.2 90.4,103.2 87.6,98.8 			"/>
			<polygon class="st86" points="121.6,101 124.3,96.5 127.7,102.2 			"/>
			<polygon class="st86" points="121.6,101 124.3,96.5 127.6,102.1 			"/>
			<path class="st82" d="M114.1,95.5c0.5-0.1,0.9-0.1,1.3-0.1c7.2,0,8.9,1,8.9,1l-2.8,4.6L114.1,95.5z"/>
			<path class="st82" d="M114.1,95.5l7.4,5.5l2.7-4.5C124.3,96.5,122.5,95.4,114.1,95.5"/>
			<polygon class="st87" points="112.8,100.3 114.1,95.5 121.7,101 			"/>
			<polygon class="st87" points="112.8,100.2 114.1,95.5 121.6,101 			"/>
			<path class="st84" d="M104.6,98.5c3.8-2.9,9.5-3,9.5-3l-1.3,4.8L104.6,98.5z"/>
			<path class="st84" d="M104.6,98.5l8.2,1.7l1.4-4.7C114.1,95.5,108.4,95.6,104.6,98.5"/>
			<path class="st88" d="M80.2,116.4c-2.8,0-4.8-0.4-4.8-0.4l0.9-1c2.6-3.2,5.4-4.9,8.5-4.9c4.1,0,7.3,3,7.3,3
				C88.4,115.8,83.6,116.4,80.2,116.4"/>
			<path class="st88" d="M92.1,113.2c0,0-8.1-7.9-15.8,1.8l-0.9,1C75.4,116,85.4,117.9,92.1,113.2"/>
			<path class="st43" d="M84.4,116l0.9,4.4c-2.7,0.9-5.7,1.4-9,1.7l-0.1,0L84.4,116z"/>
			<path class="st43" d="M85.3,120.4l-0.9-4.4l-8.1,6.1C79.9,121.8,82.9,121.1,85.3,120.4"/>
			<path class="st88" d="M118.3,112.1c-2.6,0-5.3-0.7-8.2-2c0-0.1,3.9-4.2,8.6-4.2c2,0,3.8,0.7,5.5,2.2c0,0,0.9,0.8,0.9,1.5
				c0,0.2-0.1,0.4-0.2,0.5C123.7,111.1,121.5,112.1,118.3,112.1"/>
			<path class="st88" d="M110.1,110.2c0,0,7.3-7.9,14-2c0,0,1.4,1.3,0.7,2C123.2,111.5,118.2,113.8,110.1,110.2"/>
			<polygon class="st53" points="105.3,111.5 103.4,103.2 110.1,110.1 108.8,115.6 			"/>
			<polygon class="st53" points="108.8,115.6 110.1,110.2 103.4,103.2 105.3,111.5 			"/>
			<polygon class="st38" points="108.8,115.6 110.1,110.1 119.6,116.6 			"/>
			<path class="st38" d="M119.5,116.6c0,0-7.4-5-9.4-6.4l-1.3,5.4L119.5,116.6z"/>
			<path class="st62" d="M124.8,110.2l2.8-8.1c0.8,1.3,4.1,9.6,4.1,9.6l0,0L124.8,110.2z"/>
			<path class="st62" d="M127.6,102.1l-2.8,8l6.8,1.6C131.6,111.8,128.4,103.4,127.6,102.1"/>
			<path class="st89" d="M118.3,112c-1,0-1.8-0.1-1.8-0.1c-2.1-0.3-1.7-4.8-1.7-5c1.3-0.7,2.6-1,3.8-1c2.1,0,3.4,0.9,3.4,1
				c0.2,1.5,0,4.4-0.9,4.7C120.4,111.8,119.4,112,118.3,112L118.3,112z"/>
			<path class="st89" d="M114.9,106.9c0,0-0.4,4.7,1.7,5c0,0,2.6,0.4,4.6-0.3c0.8-0.3,1-3,0.9-4.7
				C122.1,106.9,119.3,104.7,114.9,106.9"/>
			<path class="st89" d="M83.9,116.1c-0.5,0-0.8,0-0.8,0c-0.9-0.1-1.6-0.5-2-1.1c-0.9-1.5-0.2-3.8-0.2-3.8c1-0.7,2.3-1,3.7-1
				c2,0,3.7,0.7,3.7,0.7c0.4,1.6,0.2,2.9-0.5,3.8C86.8,115.9,84.9,116.1,83.9,116.1L83.9,116.1z"/>
			<path class="st89" d="M80.9,111.1c0,0-1.4,4.4,2.2,4.9c0,0,6.6,0.9,5.2-5.2C88.3,110.8,84.1,109.1,80.9,111.1"/>
			<path class="st90" d="M97.7,152.2l-6.6-0.9l-3.3-6.5c0.2-0.1,20.6-4.7,28.3-4.7c0.4,0,0.8,0,1.1,0l-0.3,7.5c0,0-2.4,1.9-5,2.8
				c0,0-2.8,1.7-7.5,1.7H97.7z"/>
			<path class="st90" d="M87.9,144.8c0,0,22.6-5.1,29.4-4.6l-0.4,7.4c0,0-2.3,1.9-5,2.8c0,0-2.8,1.7-7.5,1.7h-6.8l-6.6-0.9
				L87.9,144.8z"/>
			<path class="st91" d="M99.7,59.5c0.2,0,10.4,3.5,17.5,9.5l-3,26.5c-0.1,0-6.7,0.6-9.5,3l0,0L99.7,59.5z"/>
			<path class="st91" d="M99.7,59.5l4.9,39c2.9-2.5,9.5-3,9.5-3l3-26.5C108.4,62.2,99.7,59.5,99.7,59.5"/>
			<polygon class="st38" points="67.3,131 76.3,122.1 89.9,129 79.1,137.9 			"/>
			<polygon class="st38" points="76.3,122.1 67.3,130.9 79.1,137.8 89.9,129 			"/>
			<polygon class="st92" points="86.5,162.5 95.6,168.5 89.7,169.1 			"/>
			<polygon class="st92" points="86.5,162.5 89.7,169.1 95.5,168.6 			"/>
			<polygon class="st93" points="104.1,158 112,156.9 108.7,161.7 			"/>
			<polygon class="st93" points="112,156.9 104.1,158 108.7,161.7 			"/>
			<path class="st94" d="M54.5,130.6l3.2-6.1l-2.9-1.3l-0.3-7.6h0c0.1,0,4,1.5,5.4,11.1L54.5,130.6L54.5,130.6z"/>
			<path class="st94" d="M59.9,126.6l-5.4,4l3.2-6.1l-2.9-1.3l-0.3-7.6C54.6,115.6,58.5,116.9,59.9,126.6"/>
			<polygon class="st95" points="104.6,98.5 112.8,100.2 103.4,103.2 98.9,104.3 			"/>
			<polygon class="st95" points="103.4,103.2 112.8,100.2 104.6,98.5 99,104.3 			"/>
			<polygon class="st96" points="70.3,115 74.8,111.5 75.4,116 			"/>
			<polygon class="st96" points="70.3,115 74.8,111.5 75.4,116 			"/>
			<path class="st97" d="M74.8,111.5l5.3,0c-0.7,0.3-4.7,4.5-4.7,4.5l0,0L74.8,111.5z"/>
			<path class="st97" d="M80.1,111.5h-5.3l0.6,4.5C75.4,116,79.4,111.7,80.1,111.5"/>
			<polygon class="st98" points="68.1,110.4 74.8,107.3 74.8,111.5 70.3,115.1 			"/>
			<polygon class="st98" points="74.8,107.3 74.8,111.5 70.3,115 68.1,110.4 			"/>
			<path class="st99" d="M74.8,111.6c0-0.1,4.5-3.8,8.8-4.6l-3.4,4.6H74.8z"/>
			<path class="st99" d="M83.6,106.9l-3.4,4.6h-5.3C74.8,111.5,79.3,107.8,83.6,106.9"/>
			<polygon class="st100" points="92.1,113.2 90.3,111.9 98,106.6 94.2,115.6 			"/>
			<polygon class="st100" points="98,106.6 90.4,111.9 92.1,113.2 94.2,115.6 			"/>
			<path class="st101" d="M90.3,111.9c0,0-2.5-1.7-5.7-1.7c-1.6,0-3.2,0.5-4.5,1.4l3.4-4.6L90.3,111.9L90.3,111.9z"/>
			<path class="st101" d="M83.6,106.9l6.8,4.9c0,0-5.3-3.6-10.2-0.3L83.6,106.9z"/>
			<path class="st102" d="M83.5,107c0.4-0.2,0.9-0.2,1.5-0.2c3.5,0,10.2,1.8,10.2,1.8l-4.9,3.4L83.5,107z"/>
			<path class="st102" d="M95.3,108.6c0,0-9.1-2.4-11.7-1.6l6.8,4.9L95.3,108.6z"/>
			<path class="st103" d="M74.8,107.3l6.3-3l2.5,2.6c-3.5,0.7-8.7,4.6-8.8,4.6l0,0V107.3z"/>
			<path class="st103" d="M81.1,104.4l-6.3,3v4.2c0,0,5.3-3.9,8.8-4.6L81.1,104.4z"/>
			<path class="st104" d="M81.1,104.4c0.1-0.1,6.9-1.3,9.2-1.3l-6.8,3.9L81.1,104.4z"/>
			<path class="st104" d="M90.4,103.2l-6.8,3.8l-2.4-2.6C81.1,104.4,88,103.2,90.4,103.2"/>
			<path class="st105" d="M95.2,108.6c-5.6-1.4-9-1.7-10.5-1.7c-0.8,0-1.1,0.1-1.1,0.1l6.8-3.8L95.2,108.6L95.2,108.6z"/>
			<path class="st105" d="M95.2,108.6l-4.9-5.4l-6.8,3.8C83.6,106.9,87.1,106.4,95.2,108.6"/>
			<polygon class="st106" points="95.2,108.6 95.2,108.6 90.3,103.1 96.7,103.1 99,104.3 99,104.3 96.6,103.2 90.4,103.2 
				95.2,108.5 98,106.6 99,104.5 99,104.5 98.1,106.6 			"/>
			<polyline class="st106" points="99,104.3 96.6,103.2 90.4,103.2 95.2,108.6 98,106.6 99,104.5 			"/>
			<polygon class="st107" points="84.3,112.6 84.2,111.5 86.6,111.5 85.8,113.4 			"/>
			<polygon class="st107" points="84.3,111.5 84.3,112.6 85.8,113.4 86.6,111.5 			"/>
			<path class="st108" d="M111.1,105l3.8,1.8c-1.3,0.3-4.7,3.3-4.7,3.3l-0.1,0.1L111.1,105z"/>
			<path class="st108" d="M111.1,105l-1,5.1c0,0,3.4-3.1,4.7-3.3L111.1,105z"/>
			<path class="st109" d="M111.1,105.1c0-0.1,3.5-2.6,7.1-2.6c0.3,0,0.6,0,0.8,0l-4.1,4.3L111.1,105.1z"/>
			<path class="st109" d="M119,102.6l-4.1,4.3l-3.8-1.8C111.1,105,115.1,102.1,119,102.6"/>
			<path class="st110" d="M114.8,106.8l4.1-4.3l2.6,4c-1.1-0.3-2.1-0.5-3.2-0.5C116.2,106.1,114.9,106.9,114.8,106.8L114.8,106.8z"
				/>
			<path class="st110" d="M121.6,106.6l-2.6-4l-4.1,4.3C114.9,106.9,117.5,105.3,121.6,106.6"/>
			<path class="st111" d="M119,102.6C119,102.6,119,102.6,119,102.6c0.2,0,4,1,5.6,2.1l-3,1.9L119,102.6z"/>
			<path class="st111" d="M124.6,104.7l-3,1.8l-2.6-4C119,102.6,122.9,103.6,124.6,104.7"/>
			<path class="st112" d="M125,109.4c-0.9-1.3-3.4-2.8-3.5-2.8l3-1.9L125,109.4L125,109.4z"/>
			<path class="st112" d="M125.1,109.4l-0.5-4.7l-3,1.8C121.6,106.6,124.1,108.1,125.1,109.4"/>
			<polygon class="st113" points="103.4,103.2 111.1,105 110.1,110.2 			"/>
			<polygon class="st113" points="111.1,105 103.4,103.2 110.1,110.2 			"/>
			<path class="st114" d="M103.4,103.2l9.4-3l6.2,2.4c-0.1,0-0.3,0-0.4,0c-0.1,0-0.1,0-0.2,0c-3.4,0-7.2,2.5-7.3,2.5l0,0
				L103.4,103.2z"/>
			<path class="st114" d="M119,102.6l-6.2-2.4l-9.4,2.9l7.7,1.9C111.1,105,115.4,102.3,119,102.6"/>
			<path class="st115" d="M112.8,100.3C112.8,100.2,112.8,100.2,112.8,100.3c0.7,0,7.9,0.5,8.8,0.7l6.2,1.1l-0.2,0.1l-8.6,0.5
				L112.8,100.3z"/>
			<path class="st115" d="M127.6,102.1l-8.6,0.5l-6.2-2.4c0,0,7.8,0.6,8.8,0.8l6.2,1.1L127.6,102.1z"/>
			<path class="st116" d="M125,109.4l-0.5-4.7c-1.1-0.8-5.5-2.1-5.6-2.1l8.6-0.5L125,109.4L125,109.4z"/>
			<path class="st99" d="M125.1,109.4l2.5-7.2l-8.6,0.5c0,0,4.5,1.3,5.6,2.1L125.1,109.4z"/>
			<polygon class="st32" points="119.5,116.5 124.8,110.1 131.6,111.7 119.5,116.6 			"/>
			<polygon class="st32" points="131.6,111.8 124.8,110.2 119.5,116.6 			"/>
			<polygon class="st107" points="118.5,108.9 119.5,107.3 121,109.4 			"/>
			<polygon class="st107" points="119.5,107.3 118.5,108.9 121,109.4 			"/>
			<path class="st32" d="M70.3,115l5.1,0.9c1.4,0.2,2.9,0.3,4.5,0.3c2.7,0,4.6-0.3,4.6-0.3l-8.1,6.2L70.3,115z"/>
			<path class="st32" d="M70.3,115l6,7.1l8.1-6.1c0,0-4.3,0.7-9.1,0L70.3,115z"/>
			<path class="st117" d="M110.1,110.2c3,1.2,5.8,1.9,8.4,1.9c4.3,0,6.3-1.9,6.3-1.9l-5.3,6.5L110.1,110.2z"/>
			<path class="st117" d="M124.8,110.2c0,0-4.5,4.3-14.7,0l9.4,6.4L124.8,110.2z"/>
			<path class="st117" d="M84.4,116c3.8-0.4,7.6-2.8,7.7-2.8l-6.8,7.3L84.4,116z"/>
			<path class="st117" d="M92.1,113.2c0,0-3.8,2.4-7.7,2.8l0.9,4.4L92.1,113.2z"/>
			<path class="st38" d="M85.3,120.4L85.3,120.4l6.8-7.3l2.1,2.4l0,0c0,0-0.7,1.4-3.3,2.4C89.4,119,87.8,119.6,85.3,120.4
				 M92.1,113.2l-6.7,7.1c2.5-0.8,4.1-1.4,5.5-2.4c2.4-1,3.1-2.2,3.2-2.4L92.1,113.2z"/>
			<path class="st38" d="M90.9,118c-1.5,1-3.2,1.6-5.6,2.4l6.8-7.2l2.1,2.4C94.2,115.6,93.4,117,90.9,118"/>
			<polygon class="st118" points="58.4,80.3 54.6,85.8 62,97.5 			"/>
		</g>
	</g>
</g>
</svg>
