<?xml version="1.0" encoding="utf-8"?>
<!-- Generator: Adobe Illustrator 19.2.1, SVG Export Plug-In . SVG Version: 6.00 Build 0)  -->
<svg version="1.1" id="Layer_1" xmlns="http://www.w3.org/2000/svg" xmlns:xlink="http://www.w3.org/1999/xlink" x="0px" y="0px"
	 viewBox="0 0 192 234" style="enable-background:new 0 0 192 234;" xml:space="preserve">
<style type="text/css">
	.st0{fill:#F2F2F2;}
	.st1{display:none;fill:#F69133;}
	.st2{fill:#D54339;}
	.st3{display:none;fill:#23A684;}
	.st4{display:none;}
	.st5{display:inline;}
	.st6{fill:#191819;}
	.st7{fill:#C9C9C9;}
	.st8{fill:#49494A;}
	.st9{fill:#4D4E4E;}
	.st10{fill:#555555;}
	.st11{fill:#929191;}
	.st12{fill:#969696;}
	.st13{fill:#C3C3C3;}
	.st14{fill:#CECECD;}
	.st15{fill:#D7D8D7;}
	.st16{fill:#D6D6D5;}
	.st17{fill:#C2C2C2;}
	.st18{fill:#AEAEAE;}
	.st19{fill:#8E8E8D;}
	.st20{fill:#858485;}
	.st21{fill:#8B8B8B;}
	.st22{fill:#B3B2B3;}
	.st23{fill:#20201F;}
	.st24{fill:#272727;}
	.st25{fill:#464646;}
	.st26{fill:#6A6A6A;}
	.st27{fill:#B9B9BA;}
	.st28{fill:#2B2C2B;}
	.st29{fill:#272626;}
	.st30{fill:#636565;}
	.st31{fill:#A9A7A7;}
	.st32{fill:#818282;}
	.st33{fill:#A6A5A5;}
	.st34{fill:#B3B3B4;}
	.st35{fill:#A3A3A3;}
	.st36{fill:#959595;}
	.st37{fill:#AFAFB0;}
	.st38{fill:#ADADAD;}
	.st39{fill:#828282;}
	.st40{fill:#3A3B3B;}
	.st41{fill:#242424;}
	.st42{fill:#1A1A1A;}
	.st43{fill:#969595;}
	.st44{fill:#B2B2B2;}
	.st45{fill:#B4B5B6;}
	.st46{fill:#999999;}
	.st47{fill:#7E7E7E;}
	.st48{fill:#908F8F;}
	.st49{fill:#252525;}
	.st50{fill:#868686;}
	.st51{fill:#BBBBBA;}
	.st52{fill:#BABABA;}
	.st53{fill:#C6C4C3;}
	.st54{fill:#8F8E8E;}
	.st55{fill:#C1C1C1;}
	.st56{fill:#B4B4B5;}
	.st57{fill:#B9B8B9;}
	.st58{fill:#C0BEBE;}
	.st59{fill:#AEAEAF;}
	.st60{fill:#2D2E2D;}
	.st61{fill:#616262;}
	.st62{fill:#302F2F;}
	.st63{fill:#D3D3D3;}
	.st64{fill:#A9AAAA;}
	.st65{fill:#B2B3B3;}
	.st66{fill:#ABABAB;}
	.st67{fill:#888888;}
	.st68{fill:#747575;}
	.st69{fill:#3E3E3E;}
	.st70{fill:#686A6A;}
	.st71{fill:#797979;}
	.st72{fill:#707071;}
	.st73{fill:#7A7A7A;}
	.st74{fill:#6B6B6A;}
	.st75{fill:#A4A4A4;}
	.st76{fill:#B7B7B7;}
	.st77{fill:#575757;}
	.st78{fill:#6C6D6D;}
	.st79{fill:none;stroke:#010101;stroke-width:0.25;stroke-miterlimit:10;}
	.st80{fill:#767677;}
	.st81{fill:#AFB0B0;}
	.st82{fill:#9A9A9C;}
	.st83{fill:#ACACAC;}
	.st84{fill:#1B1C1C;}
	.st85{fill:#C1C0C0;}
	.st86{fill:#C8C8C8;}
	.st87{fill:#C7C7C7;}
	.st88{fill:#B5B6B6;}
	.st89{fill:#BFBDBD;}
	.st90{fill:#949494;}
	.st91{fill:#141414;}
	.st92{fill:#1D1D1D;}
	.st93{fill:#191918;}
	.st94{fill:#181818;}
	.st95{fill:#171717;}
	.st96{fill:#1E1E1E;}
	.st97{fill:#232323;}
	.st98{fill:#585958;}
	.st99{fill:#5C5D5D;}
	.st100{fill:#212221;}
	.st101{fill:#545454;}
	.st102{fill:#4E4E4E;}
	.st103{fill:#4F504F;}
	.st104{fill:#626363;}
	.st105{fill:#676767;}
	.st106{fill:#808081;}
	.st107{fill:#A09F9F;}
	.st108{fill:#7F7F7F;}
	.st109{fill:#431412;}
	.st110{fill:#2C1311;}
	.st111{fill:#6C1111;}
	.st112{fill:#551112;}
	.st113{fill:#250E11;}
	.st114{fill:#0E0A0C;}
	.st115{fill:#AF625A;}
	.st116{fill:#701211;}
	.st117{fill:#C05B4B;}
	.st118{fill:#7D1719;}
	.st119{fill:#9E3C3C;}
	.st120{fill:#D76C71;}
	.st121{fill:#D47780;}
	.st122{fill:#E89184;}
	.st123{fill:#D5A9A6;}
	.st124{fill:#FBE9E4;}
	.st125{fill:#F5BDB0;}
	.st126{fill:#F498A1;}
	.st127{fill:#F7A9AA;}
	.st128{fill:#F69C8F;}
	.st129{fill:#F8B1A4;}
	.st130{fill:#F7AEA8;}
	.st131{fill:#F8C5C5;}
	.st132{fill:#F9CACF;}
	.st133{fill:#EFB1C0;}
	.st134{fill:#EDAEB4;}
	.st135{fill:#EAA2AA;}
	.st136{fill:#F5A2B1;}
	.st137{fill:#E3808D;}
	.st138{fill:#E67067;}
	.st139{fill:#991E22;}
	.st140{fill:#F495A1;}
	.st141{fill:#A94034;}
	.st142{fill:#EE8992;}
	.st143{fill:#C5736E;}
	.st144{fill:#B66877;}
	.st145{fill:#6D1210;}
	.st146{fill:#8F3220;}
	.st147{fill:#BA6A5C;}
	.st148{fill:#8E4736;}
	.st149{fill:#C7746F;}
	.st150{fill:#F1A794;}
	.st151{fill:#E49996;}
	.st152{fill:#88484F;}
	.st153{fill:#F3A2A2;}
	.st154{fill:#C7344C;}
	.st155{fill:#B42E46;}
	.st156{fill:#AD4755;}
	.st157{fill:#D44B65;}
	.st158{fill:#2A1110;}
	.st159{fill:#401212;}
	.st160{fill:#351414;}
	.st161{fill:#DB7377;}
	.st162{fill:#781216;}
	.st163{fill:#070707;}
	.st164{fill:#281010;}
	.st165{fill:#160D10;}
	.st166{fill:#D2898C;}
	.st167{fill:#D37E80;}
	.st168{fill:#9B6060;}
	.st169{fill:#F6ACB7;}
	.st170{fill:#F7C5CB;}
	.st171{fill:#F6A4A6;}
	.st172{fill:#DE948D;}
	.st173{fill:#AF6F6C;}
	.st174{fill:#531516;}
	.st175{fill:#C26D73;}
	.st176{fill:#B05B62;}
	.st177{fill:#EA9FA3;}
	.st178{fill:#C63D48;}
	.st179{fill:#F27C80;}
	.st180{fill:#99414F;}
</style>
<rect class="st0" width="192" height="234"/>
<polygon class="st1" points="192,215.5 172.5,234 192,234 "/>
<polygon class="st2" points="192,215.5 172.5,234 192,234 "/>
<polygon class="st3" points="192,215.5 172.5,234 192,234 "/>
<g class="st4">
	<g class="st5">
		<g>
			<path class="st6" d="M68.1,69.5c-0.9,5.8-0.4,11.9-2.7,17.5c-1.2,3,3.6,4.3,4.8,1.3c2.3-5.6,1.7-11.6,2.7-17.5
				C73.5,67.7,68.7,66.3,68.1,69.5L68.1,69.5z"/>
		</g>
	</g>
	<g class="st5">
		<g>
			<path class="st6" d="M59.5,75.3c0.5,4.7,1.2,9.3,2.8,13.8c1,3,5.9,1.7,4.8-1.3c-1.4-4.1-2.1-8.2-2.6-12.5
				C64.1,72.1,59.1,72.1,59.5,75.3L59.5,75.3z"/>
		</g>
	</g>
	<g class="st5">
		<g>
			<path class="st6" d="M57.4,92.6c2.3,0.3,4.7,0.5,7,0.8c1.3,0.1,2.5-1.3,2.5-2.5c0-1.5-1.2-2.4-2.5-2.5c-2.3-0.3-4.7-0.5-7-0.8
				c-1.3-0.2-2.5,1.3-2.5,2.5C54.9,91.5,56.1,92.4,57.4,92.6L57.4,92.6z"/>
		</g>
	</g>
	<g class="st5">
		<g>
			<path class="st6" d="M57.7,106.8c1.1-4.9,0.9-9.9,0.9-14.9c0-3.2-5-3.2-5,0c0,4.5,0.2,9.1-0.7,13.6C52.2,108.6,57,110,57.7,106.8
				L57.7,106.8z"/>
		</g>
	</g>
	<g class="st5">
		<g>
			<path class="st6" d="M70.8,84c-0.6,1.7-1.2,2.8-2.2,4.2c-1.6,2.3,2.2,5.3,3.9,3c2.2-2.8,5.3-5.1,6.7-8.5c1.7-4.2,0.3-9-0.6-13.3
				c-0.4-2-3.6-2.3-4.6-0.5c-2.4,4.3-1.7,9.4-1.1,14c0.4,3.1,4.6,1.8,4.9-0.7c0.8-5.7,1.2-13.7-2.6-18.4c-0.9-1.1-2.6-0.8-3.5,0
				C67.1,68,63,73.3,60.6,79.1c-1.2,2.9,3.1,5.5,4.3,2.5c2.3-5.4,6-10.3,10.4-14.3c-1.2,0-2.4,0-3.5,0c2.7,3.3,1.7,11,1.1,14.9
				c1.6-0.2,3.3-0.4,4.9-0.7c-0.4-3.1-1-7.3,0.6-10.2c-1.5-0.2-3-0.4-4.6-0.6c0.7,3.5,2.2,7.6,0.4,11c-1.2,2.2-3.6,4-5.1,5.9
				c1.3,1,2.6,2,3.9,3c1.2-1.7,2-3.5,2.7-5.4C76.7,82.3,71.9,81,70.8,84L70.8,84z"/>
		</g>
	</g>
	<g class="st5">
		<g>
			<path class="st6" d="M75,66.7c4.3,1.8,8.4,4.4,12.8,5.7c1.6,0.5,3.8,0.4,5.2,1.2c2.8,1.4,1.8,2.9,0.6,5.3
				c1.6,0.4,3.1,0.8,4.7,1.3c0.4-3.6,0.3-5.9,4.4-6.5c2-0.3,4.4,0.3,6.5,0.4c0-1.7,0-3.3,0-5c-2.7,0.2-5.4,0.3-8.1,0.5
				c-3.2,0.3-3.2,5.2,0,5c7.2-0.4,12.7,3.5,19.2,6.1c1.5,0.6,3.2-0.9,3.2-2.4c0-1.1-0.1-1.8-0.4-2.8c-0.7-3.1-5.5-1.8-4.8,1.3
				c0.1,0.5,0.1,1,0.2,1.5c1.1-0.8,2.1-1.6,3.2-2.4c-7-2.8-12.7-6.7-20.5-6.3c0,1.7,0,3.3,0,5c2.7-0.2,5.4-0.3,8.1-0.5
				c3.2-0.3,3.3-4.9,0-5c-3.8-0.1-8.6-1.4-12.2,0.4c-4.1,2.1-3.3,6.8-3.8,10.7c-0.3,2.5,3.6,3.4,4.7,1.3c2.2-4.4,5-8.8-1-11.8
				c-2.6-1.3-5.7-1.3-8.3-2.2c-4.2-1.4-8.2-3.8-12.3-5.6C73.4,60.6,72.1,65.4,75,66.7L75,66.7z"/>
		</g>
	</g>
	<g class="st5">
		<g>
			<path class="st6" d="M112.7,69c-0.1,0-0.6-0.1-0.6,0c0.4,0.1,0.5,0.1,0.2,0s-0.2-0.1,0.1,0.1c-0.6-0.3-1.2-0.4-1.9-0.3
				c-0.6,0.2-1.2,0.6-1.5,1.1c-0.6,1.1-0.4,2.8,0.9,3.4c0.9,0.4,1.8,0.6,2.9,0.6c1.3,0,2.6-1.2,2.5-2.5
				C115.2,70.2,114.1,69,112.7,69L112.7,69z"/>
		</g>
	</g>
	<g class="st5">
		<g>
			<path class="st6" d="M104.9,60c0.4,4.3,1.6,8.4,3,12.5c1.1,3,5.9,1.7,4.8-1.3c-1.3-3.6-2.5-7.3-2.9-11.2
				C109.6,56.8,104.6,56.8,104.9,60L104.9,60z"/>
		</g>
	</g>
	<g class="st5">
		<g>
			<path class="st6" d="M87,56.9c2.4,5.8,6.7,10.8,8.3,16.9c0.8,3.1,5.7,1.8,4.8-1.3c-1.7-6.2-5.9-11.1-8.3-16.9
				C90.6,52.6,85.7,53.9,87,56.9L87,56.9z"/>
		</g>
	</g>
	<g class="st5">
		<g>
			<path class="st6" d="M97.7,77.3c-0.1,0.5-0.3,0.9-0.4,1.4c-0.1,0.3-0.1,0.2,0.1-0.1c0,0.1-0.1,0.2-0.1,0.3
				c-0.1,0.2-0.2,0.4-0.3,0.6c-0.7,1.1-0.3,2.8,0.9,3.4c1.2,0.7,2.7,0.3,3.4-0.9c0.6-1,1-2.1,1.3-3.3c0.3-1.3-0.4-2.8-1.7-3.1
				C99.5,75.3,98,75.9,97.7,77.3L97.7,77.3z"/>
		</g>
	</g>
	<g class="st5">
		<g>
			<path class="st6" d="M100.3,83.1c4.2-2.8,7.6-6.4,11.3-9.8c2.4-2.2-1.2-5.7-3.5-3.5c-3.3,3.1-6.4,6.5-10.2,9
				C95.1,80.5,97.6,84.9,100.3,83.1L100.3,83.1z"/>
		</g>
	</g>
	<g class="st5">
		<g>
			<path class="st6" d="M112.2,70.3c0.2,1.6,0.2,3.3,0.8,4.8c0.7,1.8,2.7,2.4,4.2,1.1c1.6-1.3,2.6-3,3.3-4.9
				c-1.6-0.2-3.3-0.4-4.9-0.7c0,0.6,0,1.3,0,1.9c0,2.4,3.6,3.6,4.7,1.3c0.6-1.3,1-2.7,1.3-4.1c0.3-1.3-0.4-2.7-1.7-3.1
				c-1.2-0.3-2.8,0.4-3.1,1.7c-0.2,1-0.4,2-0.8,2.9c1.6,0.4,3.1,0.8,4.7,1.3c0-0.6,0-1.3,0-1.9c0-1.2-1-2.3-2.2-2.5
				c-1.3-0.2-2.3,0.6-2.7,1.8c-0.4,1-1.2,1.9-2,2.7c1.4,0.4,2.8,0.7,4.2,1.1c-0.6-1.5-0.6-3.2-0.8-4.8c-0.2-1.3-1.9-2.1-3.1-1.7
				C112.5,67.6,112,69,112.2,70.3L112.2,70.3z"/>
		</g>
	</g>
	<g class="st5">
		<g>
			<path class="st6" d="M121.7,78.8c1.9,0.4,3.7,0,5.4-0.8c1.2-0.6,1.6-2.4,0.9-3.4c-0.8-1.2-2.2-1.5-3.4-0.9
				c-0.5,0.2,0.2,0-0.3,0.1c-0.3,0.1-0.5,0.1-0.8,0.2c-0.2,0-0.2,0,0.1,0c-0.1,0-0.2,0-0.3,0c-0.1,0-0.2,0-0.3,0
				c0.3,0.1,0.3,0.1,0,0c-1.3-0.3-2.8,0.4-3.1,1.7C119.7,76.9,120.4,78.5,121.7,78.8L121.7,78.8z"/>
		</g>
	</g>
	<g class="st5">
		<g>
			<path class="st6" d="M127.2,78c3.2,0,3.2-5,0-5S124,78,127.2,78L127.2,78z"/>
		</g>
	</g>
	<g class="st5">
		<g>
			<path class="st6" d="M127.4,97.6c1.6,0.5,3.3,0.9,4.8,1.6c1.2,0.6,2.7,0.3,3.4-0.9c0.6-1.1,0.3-2.8-0.9-3.4
				c-1.9-0.9-3.9-1.5-6-2.1C125.6,91.9,124.3,96.7,127.4,97.6L127.4,97.6z"/>
		</g>
	</g>
	<g class="st5">
		<g>
			<path class="st6" d="M135,112.2c1.1-3.2,1.7-6.4,1.7-9.8c0-3.2-5-3.2-5,0c0,2.9-0.6,5.7-1.5,8.5C129.1,113.9,134,115.2,135,112.2
				L135,112.2z"/>
		</g>
	</g>
	<g class="st5">
		<g>
			<path class="st6" d="M135.9,109.4c0-3.3,0-6.6,0-9.9c0-3.2-5-3.2-5,0c0,3.3,0,6.6,0,9.9C130.9,112.6,135.9,112.6,135.9,109.4
				L135.9,109.4z"/>
		</g>
	</g>
	<g class="st5">
		<g>
			<path class="st6" d="M135.8,116.2c0.5-1.2,0.6-2.5,0.8-3.8s-0.4-2.8-1.7-3.1c-1.2-0.3-2.8,0.4-3.1,1.7c-0.2,1.3-0.3,2.5-0.8,3.8
				c-0.5,1.2,0.5,2.8,1.7,3.1C134.2,118.3,135.3,117.5,135.8,116.2L135.8,116.2z"/>
		</g>
	</g>
	<g class="st5">
		<g>
			<path class="st6" d="M73.1,67.5c1.2-0.4,2.3-1.1,3.3-2c0.9-0.9,1-2.6,0-3.5s-2.5-1-3.5,0c0,0-0.3,0.3-0.4,0.3
				c0.3-0.2,0.3-0.2,0.1-0.1c-0.1,0.1-0.1,0.1-0.2,0.1c-0.1,0.1-0.3,0.2-0.5,0.3c-0.6,0.3,0.3-0.1-0.1,0.1c-1.2,0.4-2.2,1.7-1.7,3.1
				C70.4,66.9,71.8,67.9,73.1,67.5L73.1,67.5z"/>
		</g>
	</g>
	<g class="st5">
		<g>
			<path class="st6" d="M87.1,82c7.2-2.1,13-9.1,17.1-15.1c1.8-2.7-2.5-5.2-4.3-2.5c-3.3,4.8-8.2,11.1-14.1,12.8
				C82.7,78.1,84,82.9,87.1,82L87.1,82z"/>
		</g>
	</g>
	<g class="st5">
		<g>
			<path class="st6" d="M86.1,79c-3-1.6-5.8,2.8-7.9,4.3c-2.6,1.8-0.3,6,2.5,4.3c4.5-2.6,9.1-5.1,13.7-7.5c2.8-1.5,0.3-5.8-2.5-4.3
				c-4.6,2.4-9.2,4.9-13.7,7.5c0.8,1.4,1.7,2.9,2.5,4.3c1-0.7,1.9-1.5,2.8-2.3c0.4-0.4,2-1.8,1.9-1.8c-0.6-0.1-1.3-0.2-1.9-0.3
				c0,0,0.1,0,0.1,0.1C86.4,84.9,88.9,80.6,86.1,79L86.1,79z"/>
		</g>
	</g>
	<g class="st5">
		<g>
			<path class="st6" d="M126.7,91.8c0.8,2.6,2.4,4.6,5,5.5c1.2,0.4,2.8-0.5,3.1-1.7c0.3-1.4-0.4-2.6-1.7-3.1
				c-0.6-0.2,0.4,0.3-0.1-0.1c-0.1-0.1-0.2-0.2-0.3-0.2c0.4,0.2,0.1,0.1-0.1-0.1c-0.1-0.1-0.2-0.2-0.3-0.4c-0.2-0.2,0.3,0.4,0-0.1
				c-0.1-0.2-0.2-0.3-0.3-0.5s-0.2-0.4-0.1-0.1c-0.1-0.2-0.2-0.4-0.2-0.7c-0.4-1.3-1.8-2.2-3.1-1.7
				C127.2,89.1,126.3,90.4,126.7,91.8L126.7,91.8z"/>
		</g>
	</g>
	<g class="st5">
		<g>
			<path class="st7" d="M110.9,158c0.3-2.8-0.8-5.2-1.7-7.7c-0.9-2.3-2.3-5,0.4-6.5c3.6-2.1,9-1.4,13-2.1c2.4-0.4,2.4-4.4,0-4.8
				c-3-0.5-6-0.6-9-0.9c0,1.7,0,3.3,0,5c2.6-0.1,5.1-0.4,7.7-0.4c0.8,0,2.4-0.1,2.8,0.4c0.7,0.9,0,3.9-0.1,5c-0.1,3.2,4.9,3.2,5,0
				c0.1-3.7,0.9-8.7-3.5-10.1c-3.7-1.2-8.1-0.1-11.9,0c-3.3,0.1-3.2,4.7,0,5c2.6,0.2,5.1,0.3,7.7,0.7c0-1.6,0-3.2,0-4.8
				c-5.2,0.9-11.7,0.1-15.9,3.8c-5.8,5.1,1.2,11.6,0.7,17.4C105.6,161.2,110.6,161.2,110.9,158L110.9,158z"/>
		</g>
	</g>
	<g class="st5">
		<g>
			<path class="st7" d="M109.5,142.2c2,0,3.9-0.2,5.9-0.3c3.2,0,3.2-5,0-5s-6.4,0.2-9.7,0c0.2,1.6,0.4,3.3,0.7,4.9
				c2.3-0.5,4.6-0.4,6.9-0.4c3.2,0,3.2-4.8,0-5c-0.8,0-1.5-0.3-2.3-0.4c-3.1-0.8-4.4,4-1.3,4.8c1.2,0.3,2.4,0.6,3.6,0.6
				c0-1.7,0-3.3,0-5c-2.8,0-5.5,0.1-8.2,0.6c-2.9,0.6-2,4.7,0.7,4.9c3.2,0.2,6.4,0,9.7,0c0-1.7,0-3.3,0-5c-2,0-3.9,0.2-5.9,0.3
				C106.3,137.3,106.3,142.3,109.5,142.2L109.5,142.2z"/>
		</g>
	</g>
	<g class="st5">
		<g>
			<path class="st7" d="M109.5,142c4.3-0.3,8.6-0.8,12.9-0.8c3.2,0,3.2-4.9,0-5c-0.3-0.1-0.6-0.1-0.9-0.2c-3.1-0.9-4.4,3.9-1.3,4.8
				c0.8,0.2,1.4,0.3,2.3,0.4c0-1.7,0-3.3,0-5c-4.3,0-8.6,0.5-12.9,0.8C106.3,137.2,106.3,142.2,109.5,142L109.5,142z"/>
		</g>
	</g>
	<g class="st5">
		<g>
			<path class="st7" d="M85.6,138.5c-4.3,6.9-15.3,8.9-22.7,10.1c0.6,1.5,1.3,3,1.9,4.6c2.6-1.8,5.5-2.8,8.3-4c2.4-1,1-4.7-1.3-4.7
				c-1.8,0-3.7,0-5.5,0.4c0.6,1.5,1.3,3,1.9,4.6c0.1,0,0.1,0,0.2-0.1c2.9-1.2,1.7-6-1.3-4.8c-0.5,0.2-0.9,0.4-1.4,0.6
				c-2.7,1.2-0.7,5.2,1.9,4.6c1.3-0.3,2.8-0.2,4.1-0.2c-0.4-1.6-0.8-3.1-1.3-4.7c-2.9,1.2-5.7,2.2-8.3,4c-2.4,1.7-0.9,5,1.9,4.6
				c8.9-1.4,20.5-4.3,25.7-12.4C91.6,138.3,87.3,135.8,85.6,138.5L85.6,138.5z"/>
		</g>
	</g>
	<g class="st5">
		<g>
			<path class="st7" d="M82.4,125.9c3.2,0,3.2-5,0-5C79.2,120.9,79.2,125.9,82.4,125.9L82.4,125.9z"/>
		</g>
	</g>
	<g class="st5">
		<g>
			<path class="st7" d="M91.7,123.4c0,2.2-0.5,4.2-1,6.3c-0.5,2,1.2,3.4,3.1,3.1c2.7-0.4,4.9-2.2,7.3-3.5c-1.2-0.9-2.4-1.9-3.7-2.8
				c-0.6,1.6-1.5,3-2.2,4.5c-1.1,2.5,1.8,5.2,3.9,3c0.6-0.6,1.3-1.3,1.9-1.9c2.3-2.3-1.3-5.8-3.5-3.5c-0.6,0.6-1.3,1.3-1.9,1.9
				c1.3,1,2.6,2,3.9,3c0.9-1.9,1.9-3.7,2.7-5.7c0.8-2.2-1.9-3.8-3.7-2.8c-2,1.1-3.8,2.6-6.1,3c1,1,2.1,2.1,3.1,3.1
				c0.6-2.5,1.1-5.1,1.2-7.6C96.8,120.1,91.8,120.1,91.7,123.4L91.7,123.4z"/>
		</g>
	</g>
	<g class="st5">
		<g>
			<path class="st7" d="M113.3,129.1c0.6,3.1,0.5,6.1,2.1,8.9c0.8,1.4,2.8,1.7,3.9,0.5c2.8-2.9,4.6-6.5,6.6-9.9
				c-1.5-0.2-3-0.4-4.6-0.6c0.5,1.4,0.4,3,0.4,4.4c0,3.2,5,3.2,5,0c0-1.9,0-3.9-0.6-5.8c-0.7-2-3.5-2.5-4.6-0.6
				c-1.8,3.1-3.3,6.3-5.8,8.9c1.3,0.2,2.6,0.3,3.9,0.5c-1.4-2.3-1.2-5.2-1.6-7.7C117.5,124.6,112.7,126,113.3,129.1L113.3,129.1z"/>
		</g>
	</g>
	<g class="st5">
		<g>
			<path class="st7" d="M71.4,88.4c-0.2,0.1-0.4,0.3-0.6,0.4c-0.1,0-0.1,0.1-0.2,0.1c-0.3,0.1-0.2,0.1,0.1,0
				c-0.4,0.1-0.8,0.3-1.1,0.4c-1.2,0.4-2.2,1.7-1.7,3.1c0.4,1.2,1.7,2.2,3.1,1.7c1-0.3,2.1-0.7,3-1.3c1.1-0.7,1.7-2.3,0.9-3.4
				C74.2,88.2,72.6,87.7,71.4,88.4L71.4,88.4z"/>
		</g>
	</g>
	<g class="st5">
		<g>
			<path class="st7" d="M64.4,92.9c0.4,0.8,1.1,1.5,2,2c1.2,0.6,2.8,0.3,3.4-0.9c0.6-1.2,0.3-2.8-0.9-3.4c-0.1-0.1-0.2-0.1-0.3-0.2
				c-0.2-0.1,0.5,0.4,0.2,0.1c-0.2-0.2,0.2,0.2,0.2,0.2c0-0.1-0.2-0.3-0.2-0.4c-0.6-1.2-2.3-1.6-3.4-0.9
				C64.1,90.3,63.7,91.7,64.4,92.9L64.4,92.9z"/>
		</g>
	</g>
	<g class="st5">
		<g>
			<path class="st7" d="M67,91.1c-0.2,5.3,0.5,10.3,3.6,14.7c0.7,1,2.3,1.7,3.4,0.9c4-2.9,5.6-7,7.6-11.4c-1.6-0.4-3.1-0.8-4.7-1.3
				c0.4,10.8-4,21.8,0.6,32.2c1.3,2.9,5.6,0.4,4.3-2.5c-4-9.1,0.4-20.1,0.1-29.6c-0.1-2.3-3.6-3.7-4.7-1.3c-1.5,3.3-2.8,7.3-5.8,9.6
				c1.1,0.3,2.3,0.6,3.4,0.9c-2.6-3.8-3-7.7-2.9-12.2C72.1,87.9,67.1,87.9,67,91.1L67,91.1z"/>
		</g>
	</g>
	<g class="st5">
		<g>
			<path class="st7" d="M83.2,128.4c4.4,7.7,2.2,17.3,4,25.7c0.3,1.3,1.8,2.1,3.1,1.7c0.6-0.2,1.2-0.4,1.9-0.5
				c-0.9-0.4-1.9-0.8-2.8-1.1c2.4,3.9,3.7,12.4,10.1,10.3c6.4-2.2,8.7-10,14-13.7c-1.1-0.3-2.3-0.6-3.4-0.9c2.5,5,4.3,7,9.6,3.6
				c-1.2-0.5-2.4-1-3.7-1.5c0.1,0.6,0.2,1.3,0.3,1.9c0.6-0.6,1.2-1.2,1.7-1.7c-2,0.4-3.8,0.4-5.8,0.4c-3.2,0-3.2,4.8,0,5
				c1.3,0.1,2.5,0.2,3.8,0.3c0-1.7,0-3.3,0-5c-2.8,0-5.6,0-8.3,0c-3.3,0-3.1,4.7,0,5c2.2,0.2,4.5,0.3,6.7,0.5c0-1.7,0-3.3,0-5
				c-0.7,0-1.4,0-2.1,0c-3.2,0-3.2,4.8,0,5c3.4,0.2,6.8,0.3,10.2,0.3c3.2,0,3.2-5,0-5c-3.4,0-6.8,0-10.2-0.3c0,1.7,0,3.3,0,5
				c0.7,0,1.4,0,2.1,0c3.3,0,3.1-4.7,0-5c-2.2-0.2-4.5-0.3-6.7-0.5c0,1.7,0,3.3,0,5c2.8,0,5.6,0,8.3,0c3.2,0,3.2-4.8,0-5
				c-1.3-0.1-2.5-0.2-3.8-0.3c0,1.7,0,3.3,0,5c2.4,0,4.7-0.1,7.1-0.6c0.8-0.2,1.6-1,1.7-1.7c0.2-1.6,0.3-3-0.3-4.6
				c-0.6-1.4-2.2-2.4-3.7-1.5c-1,0.6-1.1,1-1.6,0.8c-0.2-0.1-1.1-2.5-1.2-2.6c-0.6-1.1-2.4-1.6-3.4-0.9c-4,2.7-6.5,7.1-9.7,10.5
				c-0.6,0.6-1.6,2-2.5,2.3c-1.5,0.5-1.2,0.4-2.1-1.3c-1.1-2-1.7-4.3-2.9-6.3c-0.6-1-1.7-1.4-2.8-1.1c-0.6,0.1-1.3,0.3-1.9,0.5
				c1,0.6,2.1,1.2,3.1,1.7c-2-9.1,0.3-18.5-4.6-26.9C85.9,123.1,81.6,125.6,83.2,128.4L83.2,128.4z"/>
		</g>
	</g>
	<g class="st5">
		<g>
			<path class="st7" d="M126.7,138.8c-2.7-9.1-5.6-18.5-9.8-27c-4-8.1-10.7-15.4-11.4-24.7c-1.1,0.8-2.1,1.6-3.2,2.4
				c1.2,0.4,2.3,0.6,3.5,1.1c3,1.2,4.3-3.7,1.3-4.8c-1.1-0.4-2.3-0.7-3.5-1.1c-1.5-0.5-3.3,0.8-3.2,2.4c0.6,8.8,5.5,15.8,9.8,23.2
				c5.3,9.1,8.5,19.8,11.5,29.9C122.8,143.2,127.6,141.9,126.7,138.8L126.7,138.8z"/>
		</g>
	</g>
	<g class="st5">
		<g>
			<path class="st7" d="M122.1,94.8c-0.8,5.4-1.1,10.8-1.2,16.2c0,2.7,4.5,3.5,4.9,0.7c0.8-5.2,1.1-10.4,1.2-15.7c0-3.2-5-3.2-5,0
				c0,4.8-0.2,9.6-1,14.4c1.6,0.2,3.3,0.4,4.9,0.7c0-5,0.2-10,1-14.9C127.4,92.9,122.6,91.6,122.1,94.8L122.1,94.8z"/>
		</g>
	</g>
	<g class="st5">
		<polygon class="st8" points="64.4,107.1 68.6,103.6 71.3,106.7 		"/>
		<polygon class="st9" points="79.3,106 76,103 71.3,106.7 		"/>
		<path class="st10" d="M84.4,105.7l-5.1,0.3l-3.3-3C76,103,83.3,103.4,84.4,105.7z"/>
		<polygon class="st11" points="57.6,113.6 64.4,107.1 68.6,103.6 60.5,97.3 56.9,107.9 		"/>
		<polygon class="st12" points="69.2,91.9 68.6,103.6 60.5,97.3 67.1,91.2 		"/>
		<path class="st13" d="M79.7,88.9l4.8,16.8c0,0-1.6-2.5-8.4-2.7c0,0-6.9,0.1-7.4,0.5l0.6-11.6L79.7,88.9z"/>
		<polygon class="st14" points="96.8,83.9 84.4,105.7 79.7,88.9 		"/>
		<polygon class="st15" points="94.2,110.6 84.4,105.7 96.8,83.9 		"/>
		<polygon class="st16" points="103.2,105.6 94.2,110.6 96.8,83.9 105.4,104.2 		"/>
		<polygon class="st17" points="110.3,79.3 105.4,104.2 96.8,83.9 		"/>
		<polygon class="st18" points="116.9,103.6 110.3,79.3 105.4,104.2 109,104.2 		"/>
		<polygon class="st19" points="124.3,86.2 116.9,103.6 110.3,79.3 		"/>
		<polygon class="st20" points="124.6,107.2 123.3,106.7 116.9,103.6 124.3,86.2 125.8,93.9 		"/>
		<path class="st21" d="M132.1,116.6c0,0-3.8,1.5-2.8,11.6l3.8-1L132.1,116.6z"/>
		<polygon class="st22" points="121.4,125.6 119.9,130.8 129.3,128.3 129.1,125.1 		"/>
		<polygon class="st17" points="112.4,127.3 103.7,131.3 119.9,130.8 		"/>
		<path class="st23" d="M99.6,117.7c0,0-1.5-3.8,1.3-4.7c0,0,2.6-0.9,5.6-1.1c3-0.3,16.6,0,16.6,0s2.3,0.3,2.7,2.4l0.3,8.9
			c0,0-0.3,1.2-1.7,1.5c-1.4,0.3-19.4,1.1-20.1,1s-3.2-1.5-3.7-3.8S99.6,117.7,99.6,117.7z M97.2,115.3c0,0,1,0.9,1.6,3.3
			c0.6,2.5,1.5,7.8,5.7,7.8c1.6,0,16.3-0.8,16.3-0.8s5.7,0.2,6-1.9s0-5.1,0-5.1l-0.4-7c0,0,0-1-3.4-1.1s-18.8,0.2-18.8,0.2
			s-3.8,0.4-5.1,1.4c0,0-0.9,0.8-2,1s-3,0.2-3,0.2v2H97.2z"/>
		<path class="st23" d="M91.2,115.4c0,0-0.4,3.5-0.6,4.7c-0.2,1.6-1.6,6.3-6.7,6.4c-1.6,0-14.7-0.3-14.7-0.3s-7.1,0.3-7.4-1.7
			c-0.3-2.1,0-5.6,0-5.6v-7c0,0,0-1,3.4-1.2c3.4-0.1,18.8,0.2,18.8,0.2s3.8,0.4,5.1,1.4c0,0,0.9,0.8,2,1s3,0.1,3,0.1v2H91.2z
			 M89.6,117.7c0,0,1.5-3.8-1.3-4.7c0,0-2.6-0.9-5.6-1.1c-3-0.3-16.6,0-16.6,0s-2.3,0.3-2.7,2.4l-0.3,8.9c0,0,0.3,1.2,1.7,1.5
			c1.4,0.3,19.4,1.1,20.1,1s3.2-1.5,3.7-3.8S89.6,117.7,89.6,117.7z"/>
		<polygon class="st24" points="126.9,118.6 129.9,112.5 126.3,111.3 		"/>
		<path class="st25" d="M130.4,118.5l-3.5,0.2l3.1-6.2c0,0,0.8,0.4,1.6-0.8l0.5,5C132.1,116.6,130.8,117.4,130.4,118.5z"/>
		<path class="st26" d="M124.6,125.4c0,0,2.3-0.4,2.4-2.3c0-2-0.1-4.4-0.1-4.4l3.5-0.2c0,0-1.5,2.8-1.3,6.6L124.6,125.4z"/>
		<polygon class="st27" points="110.6,126.2 112.4,127.3 119.9,130.8 121.4,125.6 		"/>
		<polygon class="st28" points="62,111.7 59,117.6 61.8,119.5 		"/>
		<polygon class="st29" points="57.6,113.6 57.8,114.7 59,117.6 62,111.5 60.3,111.1 		"/>
		<polygon class="st30" points="61.7,124.4 61.8,119.5 59,117.6 		"/>
		<path class="st12" d="M64.5,107.1l7.7,3.7c0,0-8.4-0.4-10.2,0.7l-1.7-0.4L64.5,107.1z"/>
		<polygon class="st18" points="79.3,106 72.1,110.7 64.6,107.1 71.3,106.7 		"/>
		<polygon class="st31" points="84,110.9 79.3,106 72.1,110.7 		"/>
		<path class="st32" d="M91.3,113.3l-3.2-5.7l-3.7-1.8l-5.1,0.3L84,111c0,0,3.8,0.4,5.1,1.4C89.2,112.3,90.3,113.2,91.3,113.3z"/>
		<polygon class="st33" points="94.2,110.6 91.3,113.3 88.1,107.5 		"/>
		<path class="st34" d="M97.4,113.1l-3.2-2.6l-2.9,2.7C91.3,113.3,96.3,113.4,97.4,113.1z"/>
		<path class="st35" d="M103.2,105.6l-0.8,5.5c0,0-2.5,0.6-3.2,1.1c0,0-1.2,0.9-1.8,0.9l-3.2-2.6L103.2,105.6z"/>
		<path class="st36" d="M108.9,110.7l-2.2-2.5l-3.5-2.6l-0.8,5.5c0,0,1.8-0.3,2-0.3C104.5,110.8,108.9,110.7,108.9,110.7z"/>
		<polygon class="st37" points="114.5,107.5 108.9,110.7 106.7,108.2 112.6,107.1 		"/>
		<polygon class="st38" points="119.1,110.6 114.5,107.5 108.9,110.7 		"/>
		<path class="st39" d="M124.1,110.6h-5l-4.7-3.1l4.9,1C119.4,108.5,123.7,110.3,124.1,110.6z"/>
		<path class="st40" d="M99.5,117.3c0,0,1.8,0.5,2,1.2l-1.3,1.8L99.5,117.3z"/>
		<path class="st23" d="M100.5,121.6c0,0,1.8-1.4,1-3.1l-1.3,1.8L100.5,121.6z"/>
		<path class="st41" d="M104.1,118.5c0,0,4.8-9.1,14.7-1.9l1.1,1.2h-2.5c0,0-5.8-7.8-12.2,0.4L104.1,118.5z"/>
		<path class="st42" d="M112,119.2c0,0-3.8,0.9-3.6-3.8c0,0,2.9-2.1,6.6,0.2C114.9,115.6,114.9,118.8,112,119.2z"/>
		<path class="st31" d="M105.2,118.3c0,0,7.6,3.1,12.2-0.4l-2.5-2.3c0,0,0.1,3.6-3.6,3.7c0,0-3.1,0.2-3-3.9
			C108.3,115.4,105.9,117.1,105.2,118.3z"/>
		<path class="st43" d="M124.3,124.6l-4.4-6.8l5.9-1l0.2,6.2C126,123.1,125.6,124.5,124.3,124.6z"/>
		<path class="st44" d="M112.2,119.5l4.7,5.7l3-7.3h-2.5C117.4,117.9,114.6,119.6,112.2,119.5z"/>
		<polygon class="st44" points="110.3,125.4 112.2,119.5 116.9,125.1 		"/>
		<path class="st45" d="M104.1,118.5l6.3,6.9l1.9-5.9c0,0-5.4-0.2-7-1.2L104.1,118.5z"/>
		<path class="st45" d="M100.5,121.6l3.6-3.1l6.3,6.9l-6.1,0.2C104.2,125.6,101.1,124.4,100.5,121.6z"/>
		<path class="st38" d="M103.2,112.3l2.7,3.8c0,0-1.6,1.3-1.9,2.3l-3.6,3.1c0,0,3.4-3.1-1-4.3C99.5,117.3,97.8,112.7,103.2,112.3z"
			/>
		<path class="st46" d="M110.6,111.7l-0.8,2.3c0,0-2.7,0.8-3.9,2.1l-2.7-3.8C103.2,112.3,106.7,111.5,110.6,111.7z"/>
		<polygon class="st47" points="115.6,111.7 118.8,116.6 119.9,117.9 122.7,111.8 		"/>
		<path class="st48" d="M110.6,111.7h5l3.1,4.9c0,0-4.3-3.6-9-2.6L110.6,111.7z"/>
		<path class="st41" d="M72,117.3c0,0,5.3-6.1,11.9,0.3l0.6,0.6l1.4-0.2c0,0-6.3-8.3-14.6-1.6l-0.5,0.4l0.7,0.7L72,117.3z"/>
		<path class="st49" d="M78.1,119.3c0,0-3.7,0.1-3.5-3.9c0,0,3.3-1.7,6.7,0.3C81.3,115.7,81.4,119.3,78.1,119.3z"/>
		<path class="st31" d="M84.4,118.3c0,0-8,3.9-12.5-1c0,0,1.9-1.6,2.7-1.9c0,0-0.5,3.6,3.5,3.9c0,0,2.8,0.3,3.2-3.6
			C81.3,115.7,83.5,117.1,84.4,118.3z"/>
		<polygon class="st23" points="89.5,118.3 87.8,119.3 89,120.4 		"/>
		<path class="st50" d="M70.8,116.9l-5.1-5c0,0-2.4,0.6-2.2,3.4l-0.1,2.5L70.8,116.9z"/>
		<path class="st51" d="M72.8,125.1l-1.3-7.5l-7.7,6.4C63.8,124.1,61.7,124.6,72.8,125.1z"/>
		<path class="st52" d="M78.8,119.7l-6.1,5.4l-1.3-7.5l0.5-0.3C72,117.3,73.6,119.9,78.8,119.7z"/>
		<path class="st53" d="M85,125.6l-6.2-5.8l-6.1,5.4C72.8,125.1,84.8,125.6,85,125.6z"/>
		<path class="st38" d="M84.4,118.3l3.4,1l1.2,1.2c0,0-0.3,3.9-4,5.1l-6.2-5.8C78.8,119.7,82.7,119.2,84.4,118.3z"/>
		<path class="st54" d="M89.5,118.3l-1.7,1l-3.4-1l1.4-0.2c0,0-1.6-2.2-3.6-3l3-2.8c0,0,4.3,0.5,4.5,2.2
			C89.8,114.4,90.4,115.8,89.5,118.3z"/>
		<path class="st19" d="M78.8,111.7l3.5,3.4l3-2.8C85.3,112.2,81.8,111.6,78.8,111.7z"/>
		<path class="st39" d="M70.8,116.9c0,0,2-1.8,3.8-2.5l4-2.7l-12.5,0.1l-0.5,0.1L70.8,116.9z"/>
		<path class="st13" d="M72.5,126.4l0.2,4.9l-9.2-2.3l-1.7-4.3C61.8,124.7,60.9,126.3,72.5,126.4z"/>
		<polygon class="st53" points="83.2,126.5 72.8,131.3 72.5,126.4 		"/>
		<polygon class="st55" points="80.2,138.7 83.2,126.5 72.8,131.3 		"/>
		<polygon class="st56" points="88.1,130.8 83.2,126.5 80.2,138.7 		"/>
		<path class="st57" d="M102.1,125.6l1.6,5.7l8.7-4l-1.8-1.1C110.6,126.2,102.6,127,102.1,125.6z"/>
		<polygon class="st14" points="91.2,115.4 94.4,133.7 97.2,115.3 		"/>
		<path class="st57" d="M102.1,125.6l-7.7,8.1l2.9-18.4c0,0,1,1,1.6,3.3C99.4,121,100.6,124.9,102.1,125.6z"/>
		<path class="st57" d="M87.6,125.4l6.8,8.3l-3.2-18.3C91.2,115.4,91.1,123.5,87.6,125.4z"/>
		<polygon class="st58" points="94.9,140.7 94.4,133.7 102.1,125.6 		"/>
		<polygon class="st34" points="104.7,143.2 103.5,130.8 107.6,138.5 106.9,142 		"/>
		<polygon class="st59" points="94.9,140.7 103.8,134.1 103.5,130.8 102.1,125.6 		"/>
		<path class="st45" d="M104.5,141.1c0-0.1-5.1-3.7-5.1-3.7l4.5-3.3L104.5,141.1z"/>
		<path class="st60" d="M98.2,141.1c0,0,1.5-3.1,4.8-1.1l0.5,1.1H98.2z"/>
		<path class="st26" d="M94.9,140.7l2.8,2.3l0.5-1.9c0,0,1.1-2.5,4.1-1.4l-3-2.3L94.9,140.7z"/>
		<path class="st61" d="M91.9,142l3-1.3l2.8,2.3c0,0-2.3,0.6-3,0.3S91.9,142,91.9,142z"/>
		<path class="st62" d="M85.9,141.1c0,0,1.9-3.4,4.7-1.3l0.7,0.9L85.9,141.1z"/>
		<path class="st56" d="M88.1,130.8l6.3,2.9l-6.8-8.3c0,0-1.4,1.2-4.4,1.2L88.1,130.8z"/>
		<polygon class="st63" points="94.9,140.7 88.1,130.8 94.4,133.7 		"/>
		<polygon class="st52" points="83.7,135.2 94.9,140.7 88.1,130.8 		"/>
		<path class="st38" d="M83.7,135.2l1.2,8l1-2.1c0,0,1.1-2,2.9-2l0.7-1L83.7,135.2z"/>
		<polygon class="st64" points="80.2,138.7 84.9,143.2 83.7,135.2 		"/>
		<path class="st65" d="M112,116c0,0-1.6,0.6-1.4-1.5c0,0,0.7-0.2,1.7,0C112.3,114.6,112.4,116,112,116z"/>
		<path class="st65" d="M78.7,114.7c0,0,0.2,1.4-0.3,1.5c0,0-1.6,0.6-1.4-1.5H78.7z"/>
		<polygon class="st66" points="91.5,161.5 94.2,156 97.7,161.5 		"/>
		<polygon class="st37" points="85.9,156 91.5,161.5 94.2,156 		"/>
		<polygon class="st46" points="86.5,161.4 85.9,156 91.5,161.5 		"/>
		<path class="st67" d="M81.2,158.7l4.6-2.7l0.7,5.4C86.5,161.4,82.6,159.8,81.2,158.7z"/>
		<path class="st39" d="M78.3,155.7l7.6,0.3l-4.6,2.7C81.2,158.7,78.9,156.8,78.3,155.7z"/>
		<path class="st36" d="M106.1,156c0,0-7,5.4-8.4,5.5l5.2-5.5H106.1z"/>
		<path class="st68" d="M108.8,156H106c0,0-6.6,5-8,5.4l3.6-0.1C101.6,161.3,107.3,158.6,108.8,156z"/>
		<polygon class="st69" points="82.5,154.3 83.7,156 78.3,155.7 79.7,153.1 		"/>
		<path class="st70" d="M86.1,152.9l2.7,3.1h-2.9h-2.2l-1.2-1.7C82.5,154.3,84.5,154,86.1,152.9z"/>
		<path class="st71" d="M94.7,152.4l-6,3.6l-2.7-3.1C86.1,152.9,89.8,150.4,94.7,152.4z"/>
		<polygon class="st72" points="99,156 94.7,152.4 88.8,156 		"/>
		<path class="st73" d="M103.7,152.5L99,156l-4.3-3.6c0,0,0.3,0.5,3.8-0.7C98.5,151.7,100.8,151.4,103.7,152.5z"/>
		<path class="st74" d="M108.8,156H99l4.7-3.5C103.7,152.5,107.2,154.4,108.8,156z"/>
		<path class="st44" d="M86,178.7l8.4-15.7l11.4,14.1C105.8,177,96.5,182.7,86,178.7z"/>
		<path class="st66" d="M117.6,168.8c0,0-8.7,6.8-11.8,8.2l3-21L117.6,168.8z"/>
		<path class="st75" d="M94.4,162.9c0,0,8.7,0,14.5-6.9l-3,21L94.4,162.9z"/>
		<polygon class="st18" points="128.3,155.5 117.6,168.8 108.8,156 		"/>
		<path class="st37" d="M94.4,162.9c0,0-11.6-0.5-16.1-7.2l-5.6,13.8L94.4,162.9z"/>
		<path class="st76" d="M94.4,162.9L86,178.7c0,0-6.4-1.7-13.3-9.1L94.4,162.9z"/>
		<path class="st56" d="M78.3,155.7l-14.7,2.5c0,0,3.3,5.7,9.2,11.4L78.3,155.7z"/>
		<path class="st77" d="M86.5,161.4l3.9,0.1l3.9,1.5C94.4,162.9,91.4,163,86.5,161.4z"/>
		<path class="st77" d="M97.4,161.5l-3,1.5l-4-1.5C90.4,161.5,97,161.5,97.4,161.5z"/>
		<path class="st78" d="M101.6,161.3l-4.4,0.1l-2.8,1.5C94.4,162.9,99.3,162.8,101.6,161.3z"/>
		<line class="st79" x1="101.6" y1="161.3" x2="94.7" y2="161.5"/>
		<polygon class="st21" points="132.2,140.2 119.3,155.7 128.3,155.5 		"/>
		<polygon class="st32" points="125.8,138.5 126.8,146.7 132.2,140.2 		"/>
		<polygon class="st80" points="133,127.3 125.8,138.5 132.2,140.2 		"/>
		<polygon class="st34" points="119.3,155.7 113,138.5 125.8,138.5 126.8,146.7 		"/>
		<polygon class="st57" points="119.9,130.8 113,138.5 125.8,138.5 		"/>
		<polygon class="st81" points="108.8,156 113,138.5 119.3,155.7 		"/>
		<polygon class="st14" points="107.6,138.5 113,138.5 106.9,142 		"/>
		<path class="st82" d="M59.1,142c0,0,3.2,14.3,4.4,16.2l3-10.3L59.1,142z"/>
		<polygon class="st83" points="78.3,155.7 66.5,147.9 63.6,158.2 		"/>
		<polygon class="st22" points="84.9,143.2 78.3,155.7 66.5,147.9 		"/>
		<polygon class="st17" points="66.5,147.9 72.8,131.3 84.9,143.2 		"/>
		<polygon class="st57" points="59.1,142 72.8,131.3 66.5,147.9 		"/>
		<polygon class="st31" points="56.5,127.3 59.1,142 64.5,137.7 		"/>
		<polygon class="st44" points="72.8,131.3 56.5,127.3 64.5,137.7 		"/>
		<polygon class="st84" points="57.8,114.7 56.5,127.3 55.3,115.1 		"/>
		<polygon class="st82" points="63.6,129 57.8,114.7 56.5,127.3 		"/>
		<path class="st85" d="M94.7,152.4c0.7,0.4,1.9-0.1,3.3-0.5s6-0.5,10.8,4.2l-4.2-12.8L94.7,152.4z"/>
		<path class="st86" d="M94.7,143.2v9.1l9.9-9.1c0,0-1.9-1.8-5.6-0.6C99,142.6,95.4,143.8,94.7,143.2z"/>
		<path class="st55" d="M94.7,152.4c0,0-3.2-1.3-5.8-0.5c-2.6,0.8-5.2,2.4-6.4,2.5l2.4-11.1L94.7,152.4z"/>
		<path class="st87" d="M94.7,143.2c0,0-4.3-2.7-7.7-1.1l-2.1,1.1l9.8,9.1C94.7,152.3,94.7,143.2,94.7,143.2z"/>
		<polygon class="st88" points="82.5,154.3 79.7,153.1 84.9,143.2 		"/>
		<path class="st59" d="M131.7,142c0,0,5.9-5.9,7-10.2l-6.2,4.1l-0.3,4.3L131.7,142z"/>
		<polygon class="st25" points="136.6,114.3 134.4,127.3 132.6,133.7 133,127.3 131.7,113.2 		"/>
		<path class="st81" d="M138.7,131.8l-3.8-7.6c0,0-0.8,5.5-2.3,9.5l-0.1,2.2L138.7,131.8z"/>
		<path class="st89" d="M140.5,118.3l-5.6,5.8l3.8,7.6C138.7,131.8,140.8,120.7,140.5,118.3z"/>
		<path class="st90" d="M136.6,114.3c0,0,3.1-1.8,3.9,4l-5.6,5.8L136.6,114.3z"/>
		<polygon class="st56" points="53.5,130.8 51.5,119.1 56.5,127.3 		"/>
		<path class="st34" d="M59.1,142c0,0-4.9-4-5.2-6.1c-0.2-2.1-0.4-5.1-0.4-5.1l2.9-3.5L59.1,142z"/>
		<path class="st91" d="M135.6,97.8l-3.8,15.3l4.8,1.2C136.6,114.3,136.7,99.7,135.6,97.8z"/>
		<path class="st84" d="M125.8,93.9c0,0,5.2,10.4,6,19.2l3.8-15.3L125.8,93.9z"/>
		<polygon class="st92" points="124.3,86 125.8,93.9 135.6,97.8 		"/>
		<path class="st92" d="M128.9,74.7L124.2,86l11.3,11.8C135.6,97.8,133.4,80.2,128.9,74.7z"/>
		<polygon class="st93" points="116.6,77.2 124.3,86 128.9,74.7 		"/>
		<path class="st94" d="M121.1,64.5l-4.4,12.7l12.3-2.5C128.9,74.7,123.4,66.4,121.1,64.5z"/>
		<polygon class="st94" points="110.5,71.2 121.1,64.5 116.6,77.2 		"/>
		<path class="st94" d="M107.5,57.3l3,13.9l10.5-6.8C121.1,64.5,114.6,59.4,107.5,57.3z"/>
		<path class="st29" d="M96.8,83.9l13.7-12.6l6.1,5.9C116.6,77.2,101.8,82.2,96.8,83.9z"/>
		<path class="st6" d="M97.3,72.6l-0.5,11.2c0,0,13.1-12.2,13.7-12.6L97.3,72.6z"/>
		<polygon class="st94" points="107.5,57.3 97.3,72.6 110.5,71.2 		"/>
		<path class="st95" d="M89.5,54.1c0,0,13.3,1.7,18,3.2L97.3,72.6L89.5,54.1z"/>
		<path class="st94" d="M72.8,62.4c0,0,7.2-7.7,16.7-8.3l7.8,18.5L72.8,62.4z"/>
		<polygon class="st96" points="97.3,72.6 69.2,91.9 96.8,83.9 		"/>
		<polygon class="st6" points="72.8,62.4 83.3,82.3 97.3,72.6 		"/>
		<polygon class="st97" points="77.1,86.5 72.8,62.4 83.3,82.3 		"/>
		<path class="st98" d="M69.2,91.9c0.5-0.3,7.3-8.7,7.3-8.7l0.6,3.2L69.2,91.9z"/>
		<polygon class="st99" points="67.3,91 76.5,83.3 69.2,91.9 		"/>
		<polygon class="st100" points="72.8,62.4 67.3,91 76.5,83.3 		"/>
		<path class="st42" d="M61.2,72.6c0.4-0.6,10.7-10.1,11.6-10.2L67.3,91L61.2,72.6z"/>
		<path class="st95" d="M55,89.2c0,0,4.4-15.6,6.2-16.5l6.1,18.4L55,89.2z"/>
		<path class="st97" d="M60.5,97.3c0.3-0.3,6.8-6.3,6.8-6.3L55,89.2L60.5,97.3z"/>
		<path class="st97" d="M56.9,108.3c0,0,3.1-10.5,3.6-10.9L55,89.2L56.9,108.3z"/>
		<path class="st6" d="M57.8,114.7l-0.9-6.4L55,89.2c0,0-3,15.8-2.6,18.3c0.3,2.5,3,7.6,3,7.6L57.8,114.7z"/>
		<polygon class="st78" points="110.1,79.4 124.5,86.3 116.6,77.2 		"/>
		<path class="st71" d="M125.8,93.9l-1.5,16.8c0,0,5,1.3,5.7,1.7c0,0,1,0.4,1.6-0.8C131.6,111.6,130.7,103.8,125.8,93.9z"/>
		<polygon class="st25" points="103.2,105.6 106.7,108.2 109,104.2 105.4,104.2 		"/>
		<polygon class="st101" points="112.5,107 106.7,108.2 109,104.2 		"/>
		<polygon class="st102" points="116.9,103.6 112.5,107 109,104.2 		"/>
		<polygon class="st103" points="119.4,108.5 116.9,103.6 112.5,107 		"/>
		<path class="st8" d="M123.3,106.7l-4,1.8l-2.5-4.9C116.9,103.6,122.3,106.1,123.3,106.7z"/>
		<path class="st104" d="M124.3,110.7c0-0.4-4.9-2.2-4.9-2.2l4-1.8l1.3,0.5L124.3,110.7z"/>
		<path class="st105" d="M76,103l-4.7,3.7l-2.7-3.1C68.6,103.6,74.4,102.9,76,103z"/>
		<polygon class="st7" points="103.7,131.3 119.9,130.8 113,138.5 107.6,138.5 		"/>
		<polygon class="st22" points="104.7,143.2 108.8,156 113,138.5 		"/>
		<polygon class="st18" points="102.9,156 97.7,161.5 94.2,156 		"/>
		<path class="st102" d="M104.7,143.2l-0.2-2.1l-1.4-1.1l0.5,1.1h-5.3l-0.5,1.9C97.7,143,102.2,141.1,104.7,143.2z"/>
		<path class="st106" d="M84.9,143.2l1-2.1l5.5-0.4c0,0-0.7-1.6-2.6-1.6l0.7-1l5.4,2.6l-3,1.3C91.9,142,88.7,140.6,84.9,143.2z"/>
		<polygon class="st107" points="133,127.3 119.9,130.8 125.8,138.5 		"/>
		<path class="st47" d="M55.3,115.1c0,0-4-0.7-3.9,4l5,8.1L55.3,115.1z"/>
		<path class="st108" d="M122.7,111.8l-2.8,6.1l5.9-1l-0.1-2.7C125.8,114.2,125.2,111.8,122.7,111.8z"/>
		<polygon class="st88" points="116.9,125.1 119.9,117.9 124.3,124.6 		"/>
		<path class="st43" d="M63.8,124.1l7.7-6.4l-0.7-0.7l-7.4,1l-0.2,5C63.2,122.8,63.5,123.8,63.8,124.1z"/>
		<path class="st43" d="M74.6,114.4l4.2-2.7l3.5,3.4C82.3,115,79,112.9,74.6,114.4z"/>
	</g>
</g>
<g>
	<polygon class="st109" points="96,95.7 102.2,91 105.5,91.8 107.1,95.7 	"/>
	<path class="st110" d="M90.9,97.9l5.1-2.2l6.2-4.7c0,0-4.4-0.9-5.1-1.2C96.4,89.5,90.9,97.9,90.9,97.9"/>
	<polygon class="st111" points="110.5,97.9 107.1,95.7 105.5,91.8 108.7,89.2 	"/>
	<polygon class="st112" points="97.1,91 108.7,89.2 105.5,91.8 102.2,91 	"/>
	<polygon class="st113" points="114.8,84.2 111.6,87.6 101.5,85.9 103.6,82.6 	"/>
	<polygon class="st114" points="89.5,89.2 94.8,83.4 103.6,82.6 101.5,85.9 94.5,85.9 	"/>
	<polygon class="st115" points="90.9,97.9 89.5,89.2 94.5,85.9 97.1,91 	"/>
	<polygon class="st116" points="108.7,89.2 111.6,87.6 101.5,85.9 97.1,91 	"/>
	<polygon class="st117" points="94.5,85.9 101.5,85.9 97.1,91 	"/>
	<polygon class="st118" points="111.6,87.6 110.5,97.9 108.7,89.2 	"/>
	<polygon class="st118" points="90.9,97.9 101.5,103 101.5,95.7 96,95.7 	"/>
	<polygon class="st119" points="110.5,97.9 101.5,103 101.5,95.7 107.1,95.7 	"/>
	<polygon class="st120" points="110.5,97.9 114.8,107.2 101.5,103 	"/>
	<polygon class="st121" points="105.5,123 114.8,107.2 101.5,103 	"/>
	<polygon class="st122" points="90.9,97.9 74.3,102.5 74.3,89.9 	"/>
	<polygon class="st123" points="89.5,89.2 78.4,71.2 71.1,79.6 	"/>
	<polygon class="st124" points="74.3,89.9 89.5,89.2 71.1,79.6 	"/>
	<polygon class="st125" points="90.9,97.9 74.3,89.9 89.5,89.2 	"/>
	<polygon class="st125" points="74.3,114.6 74.3,102.5 90.9,97.9 	"/>
	<polygon class="st126" points="101.5,103 74.3,114.6 90.9,97.9 	"/>
	<polygon class="st127" points="105.5,123 74.3,114.6 101.5,103 	"/>
	<polygon class="st128" points="72.2,130.1 74.3,114.6 105.5,123 	"/>
	<polygon class="st129" points="96.2,149 105.5,123 72.2,130.1 	"/>
	<polygon class="st130" points="77.7,145.2 96.2,149 72.2,130.1 	"/>
	<polygon class="st131" points="94.8,83.4 78.4,71.2 89.5,89.2 	"/>
	<polygon class="st132" points="103.6,82.6 94.8,63 78.4,71.2 94.8,83.4 	"/>
	<polygon class="st133" points="114.8,84.2 103.6,82.6 94.8,63 114.8,64.2 	"/>
	<path class="st134" d="M129.2,85.1c-0.5,0.3-14.3-0.9-14.3-0.9v-20l13.1,7.7L129.2,85.1z"/>
	<polygon class="st135" points="124.1,94.4 129.2,85.1 114.8,84.2 	"/>
	<polygon class="st136" points="131.7,107.2 124.1,94.4 128.2,106.3 	"/>
	<polygon class="st137" points="114.8,107.2 128.2,106.3 124.3,110.5 117,110.5 	"/>
	<polygon class="st138" points="131.7,107.2 128.2,106.3 124.3,110.5 130.6,111.7 	"/>
	<path class="st138" d="M117.9,113.7c0,0-4.5,0-4.5-0.7c0-0.7,1.4-5.8,1.4-5.8l2.2,3.3L117.9,113.7z"/>
	<polygon class="st139" points="123.3,113.7 124.3,110.5 130.6,111.7 126,114.6 	"/>
	<path class="st140" d="M114.8,107.2l9.3-12.8c0,0,5.1,11.8,4.1,11.8C127.2,106.3,114.8,107.2,114.8,107.2"/>
	<polygon class="st141" points="114.8,84.2 110.5,97.9 111.6,87.6 	"/>
	<polygon class="st142" points="114.8,107.2 117.9,87.6 124.1,94.4 	"/>
	<polygon class="st143" points="114.8,84.2 117.9,87.6 114.8,107.2 110.5,97.9 	"/>
	<polygon class="st144" points="113.5,113 105.9,122.4 114.8,107.2 	"/>
	<path class="st109" d="M127.9,98.5c-0.1-0.4,6.1-4.1,6.1-4.1l4.2,3v5.1c0,0-4.9,0.1-5.3-0.3c-0.4-0.4-5.3-2-5.3-2l-0.7-1.1
		L127.9,98.5z"/>
	<polygon class="st113" points="129.2,85.1 129.2,91 135.5,90.5 139.8,93.5 138.8,88.4 134.5,86.6 	"/>
	<polygon class="st145" points="124.1,94.4 129.2,91 129.2,85.1 	"/>
	<polygon class="st146" points="127,99.2 134,94.4 129.2,91 124.1,94.4 	"/>
	<polygon class="st147" points="138.2,97.4 129.2,91 135.5,90.5 	"/>
	<polygon class="st148" points="139.8,93.5 139.8,99.2 138.2,102.5 138.2,97.4 135.5,90.5 	"/>
	<polygon class="st149" points="131.7,107.2 138.2,102.5 132.7,100.8 127.6,100.3 	"/>
	<polygon class="st150" points="72.2,130.1 67.3,132.1 72.2,177.7 77.7,145.2 	"/>
	<polygon class="st151" points="96.2,149 72.2,177.7 77.7,145.2 	"/>
	<polygon class="st152" points="134,147.9 126.7,153.1 96.2,149 	"/>
	<polygon class="st153" points="108.7,126.8 105.5,123 96.2,149 	"/>
	<polygon class="st154" points="121.5,120.6 108.7,126.8 123.3,124.9 	"/>
	<path class="st155" d="M128,120.2c-0.8,0.3-6.5,0.4-6.5,0.4l1.8,4.3l3.7,0.5L128,120.2z"/>
	<polygon class="st156" points="132.6,130.1 127,125.5 127.9,120.6 132.6,125.5 	"/>
	<polygon class="st157" points="108.7,126.8 122.5,129.3 132.6,130.1 127,125.5 123.3,124.9 	"/>
	<polygon class="st158" points="105.9,122.4 117.9,113.7 123.3,113.7 123.3,118 107.1,124.9 105.5,123 	"/>
	<polygon class="st159" points="126.7,119.3 123.3,118 123.3,113.7 126,114.6 	"/>
	<polygon class="st160" points="135.5,127.5 132.6,119.9 126,114.6 126.7,119.3 	"/>
	<polygon class="st161" points="117.9,113.7 105.9,122.4 113.5,113 	"/>
	<polygon class="st162" points="117,110.5 124.3,110.5 123.3,113.7 117.9,113.7 	"/>
	<polygon class="st163" points="74.3,114.6 52.2,96.5 74.3,89.9 	"/>
	<polygon class="st164" points="71.1,79.6 60.8,77.8 52.2,96.5 74.3,89.9 	"/>
	<polygon class="st165" points="78.4,71.2 79.2,64.2 60.8,77.8 71.1,79.6 	"/>
	<polygon class="st164" points="94.8,63 91,59.4 79.2,64.2 78.4,71.2 	"/>
	<polygon class="st165" points="114.8,64.2 114.8,59.4 103.6,56.6 91,59.4 94.8,63 	"/>
	<polygon class="st164" points="127.9,71.9 129.8,68.9 114.8,59.4 114.8,64.2 	"/>
	<polygon class="st114" points="138.8,88.4 129.8,68.9 127.9,71.9 	"/>
	<polygon class="st133" points="129.2,85.1 138.8,88.4 127.9,71.9 	"/>
	<polygon class="st166" points="108.7,126.8 121.5,148.3 96.2,149 	"/>
	<polygon class="st167" points="121.5,148.3 132.6,130.1 108.7,126.8 	"/>
	<path class="st160" d="M129.8,133.2c0,0-5.2-1.9-5.5-1.9c-0.3,0-4.3,0.9-4.3,0.9l4.2,4.6L129.8,133.2z"/>
	<polygon class="st168" points="134,147.9 132.6,130.1 121.5,148.3 	"/>
	<polygon class="st169" points="131.7,107.2 138.8,108.4 138.2,102.5 	"/>
	<polygon class="st170" points="132.6,119.9 138.8,108.4 131.7,107.2 130.6,111.7 	"/>
	<polygon class="st171" points="126,114.6 130.6,111.7 132.6,119.9 	"/>
	<polygon class="st172" points="135.5,127.5 139.8,125.5 139.8,114.6 138.8,108.4 132.6,119.9 	"/>
	<polygon class="st150" points="134,147.9 138.8,136 139.8,125.5 135.5,127.5 132.6,130.1 	"/>
	<polygon class="st140" points="107.1,124.9 123.3,118 121.5,120.6 108.7,126.8 	"/>
	<polygon class="st173" points="126.7,119.3 123.3,118 121.5,120.6 127.9,120.6 	"/>
	<polygon class="st140" points="132.6,130.1 135.5,127.5 127.9,120.6 132.6,126.3 	"/>
	<polygon class="st174" points="134,147.9 126,158.1 112.6,167.8 96.2,149 126.7,153.1 	"/>
	<polygon class="st175" points="72.2,177.7 112.6,167.8 96.2,149 	"/>
	<polygon class="st176" points="124.9,173.1 127,159.4 126.7,157.3 112.6,167.8 	"/>
	<polygon class="st164" points="52.2,96.5 53.9,119.9 65.2,107.2 	"/>
	<polygon class="st163" points="67.3,132.1 60.1,126.8 58.7,114.6 53.9,119.9 56.9,134.1 	"/>
	<polygon class="st164" points="69.8,155.5 56.9,134.1 67.3,132.1 	"/>
	<polygon class="st177" points="74.3,114.6 65.2,107.2 66.5,114.8 67.3,118.7 72.2,130.1 	"/>
	<polygon class="st178" points="58.7,114.6 65.2,107.2 66.7,115.8 60.1,126.8 	"/>
	<polygon class="st179" points="67.3,132.1 60.1,126.8 66.7,115.8 	"/>
	<polygon class="st180" points="72.2,130.1 67.3,118.7 66.7,115.8 67.3,132.1 	"/>
</g>
</svg>
