<?xml version="1.0" encoding="utf-8"?>
<!-- Generator: Adobe Illustrator 19.2.1, SVG Export Plug-In . SVG Version: 6.00 Build 0)  -->
<svg version="1.1" id="Layer_1" xmlns="http://www.w3.org/2000/svg" xmlns:xlink="http://www.w3.org/1999/xlink" x="0px" y="0px"
	 width="192px" height="234px" viewBox="0 0 192 234" style="enable-background:new 0 0 192 234;" xml:space="preserve">
<style type="text/css">
	.st0{fill:#F2F2F2;}
	.st1{fill:#D54339;}
	.st2{fill:#C68F75;}
	.st3{fill:#BA5B4D;}
	.st4{fill:#B88069;}
	.st5{fill:#A7775F;}
	.st6{fill:#705345;}
	.st7{fill:#A96D59;}
	.st8{fill:#906247;}
	.st9{fill:#322813;}
	.st10{fill:#906145;}
	.st11{fill:#935F2F;}
	.st12{fill:#794A2D;}
	.st13{fill:#7A4B2E;}
	.st14{fill:#88522F;}
	.st15{fill:#8D5735;}
	.st16{fill:#956032;}
	.st17{fill:#8D5535;}
	.st18{fill:#905737;}
	.st19{fill:#8F5839;}
	.st20{fill:#875332;}
	.st21{fill:#88502D;}
	.st22{fill:#895532;}
	.st23{fill:#8A5534;}
	.st24{fill:#8B5534;}
	.st25{fill:#744B2A;}
	.st26{fill:#8D5636;}
	.st27{fill:#8B5231;}
	.st28{fill:#8A5131;}
	.st29{fill:#754A2F;}
	.st30{fill:#8B5434;}
	.st31{fill:#925D2F;}
	.st32{fill:#AA674B;}
	.st33{fill:#774B2D;}
	.st34{fill:#7A492C;}
	.st35{fill:#7A4A30;}
	.st36{fill:#A46445;}
	.st37{fill:#946236;}
	.st38{fill:#B87257;}
	.st39{fill:#B87056;}
	.st40{fill:#B97258;}
	.st41{fill:#C58F72;}
	.st42{fill:#C69074;}
	.st43{fill:#C68F72;}
	.st44{fill:#B8826C;}
	.st45{fill:#C59485;}
	.st46{fill:#C89477;}
	.st47{fill:#C79077;}
	.st48{fill:#C99C7C;}
	.st49{fill:#C49484;}
	.st50{fill:#C38A67;}
	.st51{fill:#A9664A;}
	.st52{fill:#443B2A;}
	.st53{fill:none;stroke:#000000;stroke-width:0.1;stroke-miterlimit:10;}
	.st54{fill:#BC755E;}
	.st55{fill:#C18763;}
	.st56{fill:#BF865D;}
	.st57{fill:#CD9E8E;}
	.st58{fill:#C68E73;}
	.st59{fill:#BA816B;}
	.st60{fill:#C28663;}
	.st61{fill:#574835;}
	.st62{fill:#BC8B71;}
	.st63{fill:#3D3521;}
	.st64{fill:#997467;}
	.st65{fill:#C49685;}
	.st66{fill:#C49283;}
	.st67{fill:#916343;}
	.st68{fill:#77492C;}
	.st69{fill:#764B2E;}
	.st70{fill:#6B4F42;}
	.st71{fill:#966E57;}
	.st72{fill:#8C735F;}
	.st73{fill:#6E5547;}
	.st74{fill:#6F5343;}
	.st75{fill:#72564A;}
	.st76{fill:#C3A28E;}
	.st77{fill:#B5947E;}
	.st78{fill:#C1855C;}
	.st79{fill:#B18368;}
	.st80{fill:#C38664;}
	.st81{fill:#B7826B;}
	.st82{fill:#8E6750;}
	.st83{fill:#C69172;}
	.st84{fill:#B88A71;}
	.st85{fill:#B79482;}
	.st86{fill:#B79284;}
	.st87{fill:#6E5446;}
	.st88{fill:#6E4F41;}
	.st89{fill:#4F3E2A;}
	.st90{fill:#4E3D2C;}
	.st91{fill:#6A5040;}
	.st92{fill:#513620;}
	.st93{fill:#6F5141;}
	.st94{fill:#544133;}
	.st95{fill:#513F30;}
	.st96{fill:#533F2F;}
	.st97{fill:#524031;}
	.st98{fill:#503E2F;}
	.st99{fill:#403323;}
	.st100{fill:#4D331E;}
	.st101{fill:#523E2F;}
	.st102{fill:#4C423A;}
	.st103{fill:#4D3D2B;}
	.st104{fill:#4B3827;}
	.st105{fill:#413525;}
	.st106{fill:#3F2B1D;}
	.st107{fill:#423928;}
	.st108{fill:#A56449;}
	.st109{fill:#BC745D;}
	.st110{fill:#C86C44;}
	.st111{fill:#C18562;}
	.st112{fill:#B7886C;}
	.st113{fill:#C79073;}
	.st114{fill:#B78972;}
	.st115{fill:#BB5B4A;}
	.st116{fill:#B45946;}
	.st117{fill:#91362B;}
	.st118{fill:#985441;}
	.st119{fill:#97523E;}
	.st120{fill:#A46244;}
	.st121{fill:#312815;}
	.st122{fill:#9A8B7C;}
	.st123{fill:#885431;}
	.st124{fill:#2D2513;}
	.st125{fill:#574936;}
	.st126{fill:#705647;}
	.st127{fill:#B6886E;}
	.st128{fill:#9D7B6C;}
	.st129{fill:#AA7964;}
	.st130{fill:#A5745F;}
	.st131{fill:#966B56;}
	.st132{fill:#A07C6E;}
	.st133{fill:#7C4B2F;}
	.st134{fill:#A9765E;}
	.st135{fill:#A46B55;}
	.st136{fill:#916954;}
	.st137{fill:#8E634E;}
	.st138{fill:#CD9E92;}
	.st139{fill:#7A4C30;}
	.st140{fill:#B8826E;}
	.st141{fill:#B67F67;}
	.st142{fill:#B57964;}
	.st143{fill:#624637;}
	.st144{fill:#D38D77;}
	.st145{fill:#8E7861;}
</style>
<rect class="st0" width="192" height="234"/>
<polygon class="st1" points="192,215.5 172.5,234 192,234 "/>
<g>
	<g>
		<g>
			<path class="st2" d="M93.8,119.7C93.8,119.7,93.8,119.7,93.8,119.7c1.3,2.4,2.7,4.9,4.1,7.4c0.3-2,0.3-3.9-0.8-5.6
				c-0.7-1.2-1.8-2.2-3-2.9c-0.9-0.5-2.1-0.9-3.1-1.3c-1.4-0.6-2.9-1.1-4.3-1.7c1.4,2.5,2.8,4.9,4.2,7.4c0,0,0-0.1,0-0.1
				c-2.5,1.4-4.9,2.8-7.4,4.2c1,0.4,2,0.8,3,1.2c0.6,0.2,1.2,0.5,1.8,0.7c0.2,0.1,0.3,0.1,0.5,0.2c-0.9-0.3-2.2-1.3-2.4-2.4
				c0-1.1,0-2.1,0-3.2c0,0.1,0,0.2,0,0.3c-0.2,1.7-0.3,3.1,0.6,4.6c0.7,1.2,2.2,2.4,3.6,2.8c2.8,0.6,6.9-0.9,7.4-4.2
				c0.3-2,0.3-3.9-0.8-5.7c-0.7-1.2-1.8-2.2-3-2.9c-0.9-0.5-2.1-0.9-3.1-1.3c-1.4-0.6-2.9-1.1-4.3-1.7c-1.3-0.5-3.5-0.1-4.6,0.6
				c-1.4,0.9-2.2,2.1-2.8,3.6c0,0,0,0.1,0,0.1c-0.5,1.3-0.1,3.5,0.6,4.6c0.9,1.4,2.1,2.1,3.6,2.8c1,0.4,2,0.8,3,1.2
				c0.6,0.2,1.2,0.5,1.8,0.7c0.2,0.1,0.3,0.1,0.5,0.2c-0.9-0.3-2.2-1.3-2.4-2.5c0-1.1,0-2.1,0-3.2c0,0.1,0,0.2,0,0.3
				c-0.2,1.6-0.3,3.2,0.6,4.6c0.9,1.4,2,2.3,3.6,2.8c0,0,0.1,0,0.1,0c3,1,6.7-1.1,7.4-4.2C98.8,123.8,97,120.7,93.8,119.7z"/>
		</g>
	</g>
	<g>
		<g>
			<path class="st2" d="M83.6,127.1c1.1,0.4,2.3,0.9,3.4,1.3c0.5,0.2,1,0.4,1.5,0.6c0.7,0.3,0.6,0.3-0.3-0.1c-1.1-0.8-1.7-2-1.9-3.4
				c-0.4,3.1,3,6.1,6,6c3.6-0.2,5.6-2.7,6-6c0.5-3.8-2.7-6.4-5.8-7.7c-1.9-0.8-3.8-1.5-5.7-2.3c-2.9-1.2-6.7,1.3-7.4,4.2
				C78.6,123.2,80.4,125.9,83.6,127.1L83.6,127.1z"/>
		</g>
	</g>
	<g>
		<g>
			<path class="st2" d="M84.6,129.1c7.7,0,7.7-12,0-12C76.8,117.1,76.8,129.1,84.6,129.1L84.6,129.1z"/>
		</g>
	</g>
	<g>
		<g>
			<path class="st2" d="M84.6,129.1c7.7,0,7.7-12,0-12C76.8,117.1,76.8,129.1,84.6,129.1L84.6,129.1z"/>
		</g>
	</g>
	<g>
		<g>
			<path class="st2" d="M99.6,142.2c-1.5-3.4-4.4-6.1-6.4-9.2c-2.4-3.6-4.5-7.5-6.1-11.5c-1.4,2.5-2.8,4.9-4.2,7.4c0,0,0.1,0,0.1,0
				c-2.5-1.4-4.9-2.8-7.4-4.2c1.8,4.5,3.8,8.9,6.5,13.1c2.2,3.5,5.6,6.7,7.3,10.5c1.2-2.9,2.4-5.9,3.6-8.8c0,0-0.1,0-0.1,0
				c-7.3,2.4-4.2,14,3.2,11.6c0,0,0.1,0,0.1,0C100.1,149.7,101.3,145.8,99.6,142.2c-1.4-3.4-4.3-6.2-6.4-9.2
				c-2.4-3.6-4.5-7.4-6.1-11.5c-1.1-2.8-4.1-5.4-7.4-4.2c0,0-0.1,0-0.1,0c-2.8,1-5.5,4.2-4.2,7.4c1.8,4.5,3.8,8.9,6.5,13.1
				c2.2,3.5,5.6,6.7,7.3,10.5C92.4,155.3,102.7,149.2,99.6,142.2z"/>
		</g>
	</g>
	<g>
		<g>
			<path class="st2" d="M75.5,124.7c1.7,4.3,3.6,8.5,6.1,12.4c2.3,3.8,5.9,7.1,7.7,11.1c3.2,7,13.5,0.9,10.4-6.1
				c-1.6-3.6-4.7-6.5-6.9-9.8c-2.2-3.4-4.1-7.1-5.7-10.8c-1.2-3-4-5.1-7.4-4.2C76.9,118.1,74.3,121.7,75.5,124.7L75.5,124.7z"/>
		</g>
	</g>
	<g>
		<g>
			<path class="st3" d="M113.4,152C113.4,152,113.4,151.9,113.4,152c-2,1.9-4,3.9-6,5.9c5.6-0.3,11.2-0.4,16.7-0.3c-2-2-4-4-6-6
				c0,0,0,0.1,0,0.1c2-2,4-4,6-6c-5.6-0.1-11.2,0-16.7,0.3c-7.7,0.4-7.7,12.4,0,12c5.6-0.3,11.1-0.4,16.7-0.3c3.3,0.1,5.9-2.8,6-6
				c0,0,0-0.1,0-0.1c0.1-3.3-2.8-5.9-6-6c-5.6-0.1-11.2,0-16.7,0.3c-3.1,0.2-6.2,2.6-6,6c0,0,0,0.1,0,0.1
				C101.9,159.7,113.9,159.7,113.4,152z"/>
		</g>
	</g>
	<g>
		<g>
			<path class="st3" d="M107.4,158c5.6-0.3,11.2-0.4,16.7-0.3c7.7,0.1,7.7-11.9,0-12c-5.6-0.1-11.2,0-16.7,0.3
				C99.7,146.4,99.6,158.4,107.4,158L107.4,158z"/>
		</g>
	</g>
	<g>
		<g>
			<path class="st4" d="M106.9,118.6c-3.6-0.1-7.1-0.2-10.7-0.3c2,2,4,4,6,6c0,0,0-0.1,0-0.1c-2,2-4,4-6,6c3.6,0.1,7.1,0.2,10.7,0.3
				c-2-2-4-4-6-6c0,0,0,0.1,0,0.1c-0.1,3.2,2.8,6,6,6c3.3,0,5.9-2.7,6-6c0,0,0-0.1,0-0.1C113,121.2,110,118.6,106.9,118.6
				c-3.6-0.2-7.1-0.3-10.7-0.4c-3.3-0.1-5.9,2.8-6,6c0,0,0,0.1,0,0.1c-0.1,3.3,2.8,5.9,6,6c3.6,0.1,7.1,0.2,10.7,0.3
				c3.2,0.1,6-2.8,6-6C112.9,121.3,110.1,118.7,106.9,118.6z"/>
		</g>
	</g>
	<g>
		<g>
			<path class="st4" d="M96.2,130.3c3.6,0.1,7.1,0.2,10.7,0.3c3.2,0.1,6-2.8,6-6c0-3.3-2.7-5.9-6-6c-3.6-0.1-7.1-0.2-10.7-0.3
				c-3.2-0.1-6,2.8-6,6C90.2,127.6,93,130.2,96.2,130.3L96.2,130.3z"/>
		</g>
	</g>
	<g>
		<g>
			<path class="st5" d="M113.6,110.4c-5.5-0.5-11.1-1-16.6-1.5c2,2,4,4,6,6c0,0,0-0.1,0-0.1c-2,2-4,4-6,6c5.5,0.5,11.1,1,16.6,1.5
				c-2-2-4-4-6-6c0,0,0,0.1,0,0.1c-0.5,7.7,11.5,7.7,12,0c0,0,0-0.1,0-0.1C119.8,112.9,116.6,110.6,113.6,110.4
				c-5.5-0.5-11.1-1-16.6-1.6c-3.5-0.3-5.7,3-6,6c0,0,0,0.1,0,0.1c-0.4,3.4,3.1,5.7,6,6c5.5,0.5,11.1,1,16.6,1.5c3.2,0.3,6-3,6-6
				C119.6,112.9,116.8,110.7,113.6,110.4z"/>
		</g>
	</g>
	<g>
		<g>
			<path class="st5" d="M97,120.9c5.5,0.5,11.1,1,16.6,1.5c3.2,0.3,6-3,6-6c0-3.5-2.8-5.7-6-6c-5.5-0.5-11.1-1-16.6-1.5
				c-3.2-0.3-6,3-6,6C91,118.4,93.8,120.5,97,120.9L97,120.9z"/>
		</g>
	</g>
	<g>
		<g>
			<path class="st6" d="M127,118.1c7.7,0,7.7-12,0-12C119.2,106.1,119.2,118.1,127,118.1L127,118.1z"/>
		</g>
	</g>
	<g>
		<g>
			<path class="st6" d="M127,118.1c7.7,0,7.7-12,0-12C119.2,106.1,119.2,118.1,127,118.1L127,118.1z"/>
		</g>
	</g>
	<g>
		<g>
			<path class="st6" d="M128.7,115.2c7.7,0,7.7-12,0-12C121,103.2,121,115.2,128.7,115.2L128.7,115.2z"/>
		</g>
	</g>
	<g>
		<g>
			<path class="st6" d="M128.7,115.2c7.7,0,7.7-12,0-12C121,103.2,121,115.2,128.7,115.2L128.7,115.2z"/>
		</g>
	</g>
	<g>
		<g>
			<path class="st6" d="M126.8,115.2c7.7,0,7.7-12,0-12C119.1,103.2,119.1,115.2,126.8,115.2L126.8,115.2z"/>
		</g>
	</g>
	<g>
		<g>
			<path class="st6" d="M126.8,115.2c7.7,0,7.7-12,0-12C119.1,103.2,119.1,115.2,126.8,115.2L126.8,115.2z"/>
		</g>
	</g>
	<g>
		<g>
			<path class="st6" d="M127.9,114.1c7.7,0,7.7-12,0-12C120.2,102.1,120.2,114.1,127.9,114.1L127.9,114.1z"/>
		</g>
	</g>
	<g>
		<g>
			<path class="st6" d="M127.9,114.1c7.7,0,7.7-12,0-12C120.2,102.1,120.2,114.1,127.9,114.1L127.9,114.1z"/>
		</g>
	</g>
	<g>
		<g>
			<path class="st6" d="M129.2,114.1c7.7,0,7.7-12,0-12C121.5,102.1,121.5,114.1,129.2,114.1L129.2,114.1z"/>
		</g>
	</g>
	<g>
		<g>
			<path class="st6" d="M129.2,114.1c7.7,0,7.7-12,0-12C121.5,102.1,121.5,114.1,129.2,114.1L129.2,114.1z"/>
		</g>
	</g>
	<g>
		<g>
			<path class="st6" d="M126.8,115.2c7.7,0,7.7-12,0-12C119.1,103.2,119.1,115.2,126.8,115.2L126.8,115.2z"/>
		</g>
	</g>
	<g>
		<g>
			<path class="st6" d="M126.8,115.2c7.7,0,7.7-12,0-12C119.1,103.2,119.1,115.2,126.8,115.2L126.8,115.2z"/>
		</g>
	</g>
	<g>
		<g>
			<path class="st7" d="M68.5,139.8c7.7,0,7.7-12,0-12C60.7,127.8,60.7,139.8,68.5,139.8L68.5,139.8z"/>
		</g>
	</g>
	<g>
		<g>
			<path class="st7" d="M68.5,139.8c7.7,0,7.7-12,0-12C60.7,127.8,60.7,139.8,68.5,139.8L68.5,139.8z"/>
		</g>
	</g>
	<g>
		<g>
			<path class="st8" d="M75.5,161.8c7.7,0,7.7-12,0-12C67.8,149.8,67.7,161.8,75.5,161.8L75.5,161.8z"/>
		</g>
	</g>
	<g>
		<g>
			<path class="st8" d="M75.5,161.8c7.7,0,7.7-12,0-12C67.8,149.8,67.7,161.8,75.5,161.8L75.5,161.8z"/>
		</g>
	</g>
	<g>
		<g>
			<path class="st9" d="M115.8,140.9c7.7,0,7.7-12,0-12C108.1,128.9,108.1,140.9,115.8,140.9L115.8,140.9z"/>
		</g>
	</g>
	<g>
		<g>
			<path class="st9" d="M115.8,140.9c7.7,0,7.7-12,0-12C108.1,128.9,108.1,140.9,115.8,140.9L115.8,140.9z"/>
		</g>
	</g>
	<polygon class="st10" points="128.3,151.9 135.7,147.7 133.4,158.3 	"/>
	<polygon class="st10" points="128.3,151.9 133.4,158.2 135.7,147.8 	"/>
	<polygon class="st11" points="129.8,140.7 135.8,147.7 128.2,152 	"/>
	<polygon class="st11" points="129.8,140.7 128.3,151.9 135.7,147.8 	"/>
	<polygon class="st12" points="122.1,145.5 125.7,136.9 129.9,140.7 129.1,146.3 	"/>
	<polygon class="st12" points="125.7,136.9 122.1,145.5 129.1,146.3 129.8,140.7 	"/>
	<polygon class="st13" points="117.5,137.7 121.6,136.2 125.7,136.8 122.2,145.6 	"/>
	<polygon class="st13" points="117.5,137.6 122.1,145.5 125.7,136.9 121.6,136.2 	"/>
	<polygon class="st13" points="113.8,145.5 117.5,137.6 122.2,145.5 	"/>
	<polygon class="st13" points="113.8,145.5 122.1,145.5 117.5,137.6 	"/>
	<polygon class="st13" points="109.9,140 117.5,137.6 113.8,145.6 	"/>
	<polygon class="st13" points="110,140 113.8,145.5 117.5,137.6 	"/>
	<polygon class="st14" points="109.9,139.9 113.8,145.4 105.6,148.6 	"/>
	<polygon class="st14" points="105.7,148.5 110,140 113.8,145.5 	"/>
	<polygon class="st15" points="101.7,145.5 109.9,139.9 105.8,148.6 	"/>
	<polygon class="st15" points="101.8,145.5 105.7,148.5 110,140 	"/>
	<polygon class="st16" points="101.7,145.5 105.8,148.5 100.8,150.7 	"/>
	<polygon class="st16" points="100.9,150.6 101.8,145.5 105.7,148.5 	"/>
	<polygon class="st17" points="100.8,150.6 105.7,148.5 105.8,153 	"/>
	<polygon class="st17" points="105.7,153 105.7,148.5 100.9,150.6 	"/>
	<polygon class="st18" points="131.2,166.5 128.3,151.9 133.5,158.1 131.3,166.5 	"/>
	<polygon class="st18" points="133.4,158.2 131.2,166.5 128.3,151.9 	"/>
	<polygon class="st19" points="129.5,158.1 131.3,166.5 125.7,168.7 	"/>
	<polygon class="st19" points="125.7,168.7 129.6,158.2 131.2,166.5 	"/>
	<path class="st20" d="M125.7,168.7l5.5-2.2c0,0.1-2.5,7.1-5.5,9.3l-0.1,0.1V168.7z"/>
	<path class="st20" d="M125.7,175.7v-7.1l5.5-2.2C131.2,166.5,128.7,173.5,125.7,175.7z"/>
	<path class="st21" d="M119.7,169.3l6.1,6.4c-0.1,0.1-4.7,2.4-8.2,2.8l-0.1,0L119.7,169.3z"/>
	<path class="st21" d="M117.5,178.4l2.2-9.1l6,6.4C125.7,175.7,121.1,178,117.5,178.4z"/>
	<polygon class="st22" points="119.7,169.3 120.1,164.4 125.8,168.6 125.8,175.8 	"/>
	<polygon class="st22" points="120.1,164.4 119.7,169.3 125.7,175.7 125.7,168.7 	"/>
	<polygon class="st23" points="120.1,164.5 129.5,158.1 125.8,168.7 	"/>
	<polygon class="st23" points="129.6,158.2 120.1,164.4 125.7,168.7 	"/>
	<polygon class="st24" points="119,155.2 129.6,158.1 122.7,162.8 	"/>
	<polygon class="st24" points="119.1,155.2 122.7,162.7 129.6,158.2 	"/>
	<polygon class="st25" points="116.5,162.7 119,155.2 122.8,162.7 120.1,164.5 	"/>
	<polygon class="st25" points="116.5,162.7 119.1,155.2 122.7,162.7 120.1,164.4 	"/>
	<polygon class="st26" points="109.7,157.4 119.1,155.2 116.5,162.8 	"/>
	<polygon class="st26" points="109.8,157.4 116.5,162.7 119.1,155.2 	"/>
	<polygon class="st27" points="109.8,169.4 116.5,162.7 120.1,164.4 119.8,169.4 	"/>
	<polygon class="st27" points="109.8,169.3 116.5,162.7 120.1,164.4 119.7,169.3 	"/>
	<polygon class="st28" points="109.7,169.3 119.7,169.3 117.6,178.5 	"/>
	<polygon class="st28" points="117.5,178.4 109.8,169.3 119.7,169.3 	"/>
	<path class="st29" d="M112.5,178.8c-3.3,0-6.9-0.3-10.7-1l8-8.5l7.8,9.1C117.5,178.5,115.8,178.8,112.5,178.8z"/>
	<path class="st29" d="M101.8,177.8l8-8.5l7.8,9.1C117.5,178.4,112.1,179.6,101.8,177.8z"/>
	<polygon class="st29" points="96.7,170.1 109.8,169.3 101.8,177.8 	"/>
	<polygon class="st29" points="96.8,170.1 101.8,177.8 109.8,169.3 	"/>
	<polygon class="st30" points="101.7,157.6 109.8,169.3 96.7,170.1 	"/>
	<polygon class="st30" points="101.8,157.6 96.8,170.1 109.8,169.3 	"/>
	<polygon class="st31" points="105.2,162.7 113.8,165.3 109.8,169.4 	"/>
	<polygon class="st31" points="113.8,165.3 105.2,162.7 109.8,169.3 	"/>
	<polygon class="st32" points="110,164.2 109.7,157.4 116.5,162.7 113.8,165.4 	"/>
	<polygon class="st32" points="109.8,157.4 110,164.2 113.8,165.3 116.5,162.7 	"/>
	<path class="st33" d="M101.8,177.8c-0.1,0-9.4-3.2-11.8-4.9l6.8-2.9l5.1,7.8L101.8,177.8z"/>
	<path class="st33" d="M90,172.9l6.8-2.8l5,7.7C101.8,177.8,92.4,174.6,90,172.9z"/>
	<path class="st34" d="M85.4,167.4c3.5,2.5,9.9,2.6,11.2,2.6l0.2,0.1L90,173L85.4,167.4z"/>
	<path class="st34" d="M85.5,167.4l4.5,5.5l6.8-2.8C96.8,170.1,89.3,170.2,85.5,167.4z"/>
	<path class="st35" d="M90,172.9c-0.1,0-9.5-4.6-12.6-7.6l8.1,2L90,172.9L90,172.9z"/>
	<path class="st35" d="M77.4,165.3l8.1,2l4.5,5.5C90,172.9,80.5,168.3,77.4,165.3z"/>
	<path class="st8" d="M77.4,165.4c-2.7-3.2-4.1-7.7-4.1-7.7l12.2,9.7l0,0.1L77.4,165.4z"/>
	<path class="st8" d="M73.3,157.6c0,0,1.4,4.5,4.1,7.7l8.1,2L73.3,157.6z"/>
	<polygon class="st36" points="100.8,150.6 105.8,152.9 101.7,157.7 	"/>
	<polygon class="st36" points="100.9,150.6 101.8,157.6 105.7,153 	"/>
	<polygon class="st37" points="99,164.4 100.8,150.6 101.8,157.6 99.1,164.5 	"/>
	<polygon class="st37" points="99,164.4 100.9,150.6 101.8,157.6 	"/>
	<polygon class="st38" points="105.2,162.7 101.7,157.7 105.7,152.9 109.8,157.4 110,164.2 	"/>
	<polygon class="st38" points="109.8,157.4 105.7,153 101.8,157.6 105.2,162.7 110,164.2 	"/>
	<path class="st39" d="M119.1,155.3c5.6-0.5,9.2-3.4,9.2-3.4l1.4,6.4L119.1,155.3z"/>
	<path class="st39" d="M128.3,151.9c0,0-3.6,2.9-9.2,3.3l10.5,2.9L128.3,151.9z"/>
	<path class="st40" d="M105.7,153l0-2.2c0.1,0,6.3,4.3,13.4,4.4l-9.3,2.3L105.7,153z"/>
	<path class="st40" d="M105.7,150.8c0,0,6.2,4.3,13.3,4.5l-9.3,2.2l-4-4.4V150.8z"/>
	<path class="st41" d="M96.8,170.1c-8.4-0.1-11.3-2.7-11.3-2.7l1-21.1l12.7,18.1L96.8,170.1L96.8,170.1z"/>
	<path class="st41" d="M86.5,146.3l-1,21.1c0,0,2.8,2.6,11.3,2.7l2.3-5.6L86.5,146.3z"/>
	<polygon class="st42" points="86.4,146.3 93.4,138.1 101.8,145.4 99.1,164.6 	"/>
	<polygon class="st42" points="93.4,138.2 86.5,146.3 99,164.4 101.8,145.5 	"/>
	<polygon class="st43" points="73.3,135.5 86.5,146.3 85.5,167.4 85.4,167.4 	"/>
	<polygon class="st43" points="73.3,135.5 86.5,146.3 85.5,167.4 	"/>
	<polygon class="st44" points="73.3,157.7 70.8,144.3 73.3,135.5 85.6,167.5 	"/>
	<polygon class="st44" points="73.3,157.6 70.9,144.3 73.3,135.5 85.5,167.4 	"/>
	<polygon class="st45" points="73.3,135.5 72,118.1 86.5,146.3 86.4,146.3 	"/>
	<polygon class="st45" points="72.1,118.1 73.3,135.5 86.5,146.3 	"/>
	<polygon class="st46" points="72,118.1 93.5,138.1 86.4,146.4 	"/>
	<polygon class="st46" points="93.4,138.2 72.1,118.1 86.5,146.3 	"/>
	<path class="st47" d="M129.8,140.8l8.5-11.6c0.1,0.1,1.4,10.4-2.5,18.6l0,0.1L129.8,140.8z"/>
	<path class="st47" d="M138.3,129.2c0,0,1.4,10.3-2.6,18.6l-5.9-7.1L138.3,129.2z"/>
	<path class="st48" d="M125.7,136.9c1.9-0.2,3.3-0.8,4-1.9c1.2-1.8,0.4-4.2,0.4-4.2l8.1-1.7l-8.4,11.6L125.7,136.9z"/>
	<path class="st48" d="M130.2,130.8c0,0,1.8,5.7-4.4,6.1l4.1,3.8l8.5-11.5L130.2,130.8z"/>
	<path class="st49" d="M127.6,124.1c1.1,0.6,2.9,0.9,5.4,0.9c2.4,0,4.7-0.3,4.7-0.3l0.6,4.5l-8.2,1.7L127.6,124.1z"/>
	<path class="st49" d="M137.8,124.7c0,0-7.4,1-10.1-0.6l2.5,6.7l8.1-1.6L137.8,124.7z"/>
	<path class="st9" d="M121.6,136.3c-5.6-0.4-5.7-1.5-5.7-1.5c-0.2-0.3-0.2-0.6,0-0.9c0.4-0.6,1.7-0.7,2-0.7c0,0,0,0,0,0
		C119.4,133.2,121.6,136.1,121.6,136.3L121.6,136.3L121.6,136.3z"/>
	<path class="st9" d="M121.6,136.2c0,0-2.4-3.1-3.7-2.9c0,0-2.8-0.1-2,1.5C116,134.8,116,135.8,121.6,136.2z"/>
	<polygon class="st50" points="93.4,138.2 99,125.2 110,139.9 101.8,145.5 	"/>
	<polygon class="st50" points="99.1,125.2 93.4,138.2 101.8,145.5 110,140 	"/>
	<polygon class="st51" points="111.1,135.9 117.5,137.6 109.9,140 	"/>
	<polygon class="st51" points="111.2,135.9 110,140 117.5,137.6 	"/>
	<polygon class="st2" points="72.1,118.1 99.1,125.2 93.4,138.2 	"/>
	<polygon class="st2" points="72.1,118.1 99.1,125.2 93.4,138.2 	"/>
	<path class="st52" d="M107.6,124.8c-4.2,0-10.2-0.2-10.3-0.2c-6.3-0.5-7.5-8.1-7.6-8.2c-0.5-5.6,2.9-6.7,2.9-6.7
		c1.7-0.5,3.9-0.8,6.6-0.8c6.3,0,13.6,1.4,15.9,2c2.5,0.6,2.3,3.7,2.3,3.7c-1.5,6.6-4.2,9.4-5.6,9.9
		C111.5,124.7,110.1,124.8,107.6,124.8C107.6,124.8,107.6,124.8,107.6,124.8z M99.6,109.5c-2.5,0-4.5,0.2-6.1,0.7c0,0-3.2,1-2.7,6.2
		c0,0.1,1.1,7.1,7,7.6c0.1,0,5.6,0.2,9.6,0.2c2.3,0,3.6-0.1,3.9-0.2c1.3-0.5,3.8-3,5.2-9.2c0,0,0.3-2.8-2.1-3.4
		C112.3,110.9,105.4,109.5,99.6,109.5z"/>
	<path class="st52" d="M93.4,110.2c6.4-1.9,18.6,0.6,21,1.2c2.4,0.6,2.1,3.5,2.1,3.5c-1.5,6.7-4.3,8.8-5.2,9.2s-13.6,0-13.6,0
		c-6-0.5-7-7.6-7-7.6C90.2,111.2,93.4,110.2,93.4,110.2z M89.8,116.4c0,0,1.1,7.6,7.5,8.1c0,0,13.5,0.4,14.5,0c1-0.4,4-2.7,5.6-9.9
		c0,0,0.3-3.1-2.2-3.7c-2.5-0.6-15.6-3.3-22.5-1.2C92.7,109.8,89.3,110.8,89.8,116.4z"/>
	<path class="st53" d="M99.4,125.8"/>
	<path class="st53" d="M99.4,125.8"/>
	<polygon class="st54" points="105.4,133.8 110.7,130.4 111.2,135.9 110,140.1 	"/>
	<polygon class="st54" points="110.7,130.5 105.4,133.8 110,140 111.2,135.9 	"/>
	<path class="st55" d="M99,125.3l-1.7-0.7c0,0,0.2,0,0.4,0c1.4,0,5.9,0.2,9.5,0.2c0,0,0,0,0,0c2.5,0,4-0.1,4.6-0.2l-1,6l-5.4,3.4
		L99,125.3z"/>
	<path class="st55" d="M111.8,124.6l-1.1,5.9l-5.3,3.3l-6.3-8.6l-1.8-0.7C97.3,124.6,109.9,125.1,111.8,124.6z"/>
	<polygon class="st56" points="110.7,130.5 111.8,124.6 115.4,128.1 113.7,134.8 111.1,136 	"/>
	<polygon class="st56" points="115.4,128.1 111.8,124.6 110.7,130.5 111.2,135.9 113.7,134.8 	"/>
	<polygon class="st57" points="119.8,114.4 122.7,114.3 127.7,124 124.8,128.5 	"/>
	<polygon class="st57" points="119.9,114.4 124.8,128.4 127.7,124.1 122.7,114.4 	"/>
	<path class="st58" d="M124.8,128.4l5.4,2.3c0,0.1,0.7,2.6-0.4,4.4c-0.6,0.9-1.7,1.5-3.1,1.7l0,0L124.8,128.4z"/>
	<path class="st58" d="M126.7,136.8l-1.9-8.4l5.4,2.4C130.2,130.8,131.7,136.1,126.7,136.8z"/>
	<path class="st59" d="M121.6,136.3c-2.4-2.9-3.6-2.9-3.6-2.9l1.8-9.5l1.2-6.1l3.9,10.6l1.9,8.4l-1,0.2L121.6,136.3z"/>
	<path class="st59" d="M121.1,117.8l-1.2,6.1l-1.9,9.5c0,0,1.2-0.1,3.7,2.9l4.1,0.6l1-0.1l-1.9-8.4L121.1,117.8z"/>
	<path class="st60" d="M113.6,134.8L113.6,134.8l1.7-6.8l4.8-5.1l-2.1,10.4l0,0c0,0-1,0-1.6,0.3c-0.1,0-0.3,0.1-0.5,0.2l0,0
		C115,134.2,113.7,134.8,113.6,134.8L113.6,134.8z M115.4,128.1l-1.6,6.6c0.3-0.1,1.4-0.6,2.1-0.9l0,0c0.3-0.1,0.4-0.2,0.5-0.2
		c0.5-0.2,1.4-0.3,1.6-0.3l2-10L115.4,128.1z"/>
	<path class="st60" d="M115.9,133.8c-0.8,0.4-2.2,1-2.2,1l1.7-6.7l4.7-5l-2,10.2c0,0-1,0-1.6,0.3
		C116.3,133.6,116.1,133.7,115.9,133.8"/>
	<polygon class="st52" points="117.4,114.4 117.4,113.2 124.4,113.1 124.2,114.4 	"/>
	<polygon class="st52" points="117.4,113.2 124.4,113.2 124.1,114.4 122.7,114.4 117.4,114.4 	"/>
	<polygon class="st61" points="122.7,114.4 124.1,114.3 124,117 	"/>
	<polygon class="st61" points="124,116.9 124.1,114.4 122.7,114.4 	"/>
	<path class="st62" d="M72.1,118.1c0.9-0.1,17.5-2.6,17.7-2.6c0.1,0.1,0.9,7,5.9,8.6l0,0.1L72.1,118.1z"/>
	<path class="st62" d="M72.1,118.1c0.4,0.1,17.7-2.5,17.7-2.5s0.7,7,5.9,8.6L72.1,118.1z"/>
	<polygon class="st52" points="73.9,116.1 89.7,114.3 89.8,115.6 76.4,117.6 	"/>
	<polygon class="st52" points="89.8,114.4 73.9,116 76.4,117.6 89.8,115.6 	"/>
	<polygon class="st63" points="64.5,117.6 73.9,116 76.4,117.5 72.1,118.1 66.8,119.2 	"/>
	<polygon class="st63" points="66.8,119.1 72.1,118.1 76.4,117.6 73.9,116 64.5,117.6 	"/>
	<polygon class="st64" points="57.8,118.7 64.5,117.5 66.8,119.1 61.7,120.3 	"/>
	<polygon class="st64" points="61.7,120.3 66.8,119.1 64.5,117.6 57.9,118.7 	"/>
	<polygon class="st65" points="71.3,107.5 89.8,114.3 74,116.1 72,116.4 	"/>
	<polygon class="st65" points="72.1,116.3 71.3,107.5 89.8,114.4 73.9,116 	"/>
	<polygon class="st66" points="71.3,107.5 84.2,100.2 89.8,114.4 	"/>
	<polygon class="st66" points="84.2,100.2 71.3,107.5 89.8,114.4 	"/>
	<polygon class="st67" points="111.1,105 116.4,109.5 110.4,110.1 	"/>
	<polygon class="st67" points="116.4,109.5 111.2,105 110.5,110 	"/>
	<polygon class="st68" points="101,103.4 111.2,105 104.6,108.1 	"/>
	<polygon class="st68" points="101,103.4 104.6,108 111.2,105 	"/>
	<polygon class="st69" points="94.4,106.6 101,103.3 104.7,108.1 	"/>
	<polygon class="st69" points="94.4,106.6 101,103.4 104.6,108 	"/>
	<polygon class="st70" points="92.1,103.1 101,103.3 94.4,106.6 	"/>
	<polygon class="st70" points="92.1,103 94.4,106.6 101,103.4 	"/>
	<path class="st71" d="M85.3,103.1l6.9-0.1l2.3,3.5l-1.7,3.2c-2.3,0.5-3,4.5-3,4.6l0,0.2L85.3,103.1z"/>
	<path class="st71" d="M92.1,103h-6.8l4.4,11.3c0,0,0.7-4.1,3-4.6l1.7-3.2L92.1,103z"/>
	<path class="st53" d="M92.7,109.8"/>
	<path class="st53" d="M92.7,109.8"/>
	<path class="st72" d="M110.4,110.1c-0.1,0-6.4-1-11.8-1c-2.6,0-4.6,0.2-5.9,0.7l1.6-3.2l10.2,1.5L110.4,110.1L110.4,110.1z"/>
	<path class="st72" d="M92.7,109.8l1.7-3.2l10.2,1.5l5.9,2C110.5,110,97.5,108,92.7,109.8z"/>
	<path class="st52" d="M133.3,124.9c-3,0-4.9-0.3-5.6-0.8l-3.7-7.2l0.1-2.5l0.3-1.2c0-0.1,0.8-2.9,2.3-3.4c0.8-0.3,4-1,7.6-1
		c3.2,0,5.9,0.5,8,1.4c1.2,0.5,2,1.5,2.2,2.7c0.1,0.3,0.1,0.6,0,0.9l0,0.2c-1,8.2-4.2,10.4-6.7,10.7
		C137.8,124.7,135.6,124.9,133.3,124.9z M127.4,123.5c0.2,0,4,0.3,7.3,0.3l0,0c2,0,3.5-0.1,4.3-0.3c3-0.8,4.2-7.9,4.4-9.6
		c0.2-2.1-1.4-2.6-1.5-2.6c-2.6-1.1-5.3-1.6-8-1.6c-3.1,0-5.6,0.7-6.9,1.1l-0.3,0.1c-2,0.6-2,7.3-2,7.4L127.4,123.5
		C127.4,123.5,127.4,123.5,127.4,123.5z"/>
	<path class="st52" d="M124.4,113.2c0,0,0.8-2.8,2.3-3.4c1.4-0.5,9.8-2.1,15.5,0.5c1.1,0.5,2,1.5,2.2,2.6c0,0.3,0.1,0.6,0,0.9
		c-0.2,1.6-0.9,10.1-6.7,10.9c0,0-8.3,0.7-10.1-0.6l-3.7-7.2l0.1-2.5L124.4,113.2z M127.4,123.5c0,0,8.8,0.8,11.7,0
		c2.9-0.8,4.2-7.5,4.4-9.7c0.2-2.2-1.5-2.6-1.5-2.6c-7.1-3-13.2-1.1-15.3-0.5s-2.1,7.4-2.1,7.4L127.4,123.5z"/>
	<path class="st73" d="M138.5,109c0,0-1.2-0.3-5.1-0.3l3.9-3.7C137.4,105,138.6,106.6,138.5,109L138.5,109L138.5,109z"/>
	<path class="st73" d="M137.3,105c0,0,1.3,1.6,1.2,4c0,0-1.2-0.3-5.1-0.3L137.3,105z"/>
	<polygon class="st6" points="131.3,105.7 137.3,105 133.4,108.8 	"/>
	<polygon class="st6" points="131.4,105.7 133.4,108.7 137.3,105 	"/>
	<path class="st74" d="M126.7,109.7l4.7-4.1l2.1,3C133.4,108.7,130.6,108.7,126.7,109.7L126.7,109.7z"/>
	<path class="st74" d="M126.7,109.8l4.7-4.1l2.1,3C133.4,108.7,130.6,108.7,126.7,109.8z"/>
	<polygon class="st75" points="125.7,106.6 131.4,105.7 126.7,109.8 	"/>
	<polygon class="st75" points="125.7,106.6 126.7,109.8 131.4,105.7 	"/>
	<path class="st76" d="M127.6,96.6l3.2-7.3c0.1,0,5,5.3,6.6,15.8l-6,0.7L127.6,96.6z"/>
	<path class="st76" d="M130.9,89.3c0,0,4.9,5.2,6.5,15.8l-6,0.7l-3.7-9.1L130.9,89.3z"/>
	<polygon class="st77" points="125.7,102 127.6,96.5 131.4,105.7 125.7,106.6 	"/>
	<polygon class="st77" points="125.7,102 127.7,96.6 131.4,105.7 125.7,106.6 	"/>
	<path class="st78" d="M116.4,109.5l8.2-11.7l1.2,4.1l0,4.5l1,3.2c-1.3,0.4-2.3,3.4-2.3,3.4l0,0L116.4,109.5z"/>
	<path class="st78" d="M124.6,97.9l-8.2,11.6l8,3.7c0,0,1-3.1,2.3-3.4l-1-3.2V102L124.6,97.9z"/>
	<path class="st79" d="M117.4,113.2c0-0.1-0.3-1.8-2.5-2.2l-4.5-0.9l6-0.6l8,3.7l0,0.1H117.4z"/>
	<path class="st79" d="M117.4,113.2c0,0-0.3-1.8-2.5-2.2l-4.5-0.9l6-0.5l8,3.7H117.4z"/>
	<polygon class="st80" points="111.2,105.1 109.5,95.2 121.5,102.3 116.4,109.6 	"/>
	<polygon class="st80" points="109.5,95.2 111.2,105 116.4,109.5 121.5,102.4 	"/>
	<polygon class="st81" points="109.5,95.3 115.8,81 121.5,102.5 	"/>
	<polygon class="st81" points="115.9,81 109.5,95.2 121.5,102.4 	"/>
	<polygon class="st82" points="115.8,81 122.3,82.6 123.5,99.6 121.5,102.5 	"/>
	<polygon class="st82" points="122.3,82.7 123.4,99.6 121.5,102.4 115.9,81 	"/>
	<polygon class="st83" points="101,103.4 97.3,103.3 109.5,95.2 111.2,105.1 	"/>
	<polygon class="st83" points="97.3,103.2 109.5,95.2 111.2,105 101,103.4 	"/>
	<path class="st84" d="M69.3,168.2c0-0.1-0.5-7.9-2-13.1l6.1,2.6c0,0.1,1.5,5.1,4.1,7.7L69.3,168.2L69.3,168.2z"/>
	<path class="st84" d="M69.3,168.2c0,0-0.5-7.8-2.1-13.1l6,2.6c0,0,1.5,5.1,4.1,7.7L69.3,168.2z"/>
	<polygon class="st85" points="67.3,155.1 70.8,144.2 73.4,157.7 	"/>
	<polygon class="st85" points="70.9,144.3 67.3,155 73.3,157.6 	"/>
	<path class="st86" d="M64.5,146.3c0.1,0,0.1,0,0.2,0c0.2,0,0.4,0,0.5,0c2.3,0,5.6-2.1,5.7-2.1l-3.6,10.9L64.5,146.3z"/>
	<path class="st86" d="M64.5,146.3l2.8,8.7l3.6-10.8C70.9,144.3,66.9,146.8,64.5,146.3z"/>
	<polygon class="st87" points="70.8,144.3 68.4,133.3 73.3,135.5 70.9,144.3 	"/>
	<polygon class="st87" points="68.4,133.3 70.9,144.3 73.3,135.5 	"/>
	<polygon class="st88" points="68.4,133.3 72,118.1 73.4,135.6 	"/>
	<polygon class="st88" points="72.1,118.1 68.4,133.3 73.3,135.5 	"/>
	<path class="st89" d="M68.4,133.4c-0.3,0-3.1-10.5-4-13.7l2.3-0.6l5.3-1L68.4,133.4L68.4,133.4z"/>
	<path class="st89" d="M64.5,119.7c0,0,3.8,14.3,4,13.6c0.2-0.7,3.6-15.2,3.6-15.2l-5.3,1L64.5,119.7z"/>
	<path class="st90" d="M137.3,105c0-0.1-0.5-8.5-6.5-15.7l3.2-10.4l4.5,2C138.6,81.1,142.8,95.2,137.3,105l0,0.2L137.3,105z"/>
	<path class="st90" d="M138.5,81c0,0,4.2,14.1-1.2,24c0,0-0.4-8.4-6.5-15.8l3.2-10.3L138.5,81z"/>
	<polygon class="st91" points="130.8,89.3 130.8,68.8 134.1,78.9 130.9,89.3 	"/>
	<polygon class="st91" points="130.9,68.8 130.9,89.3 134.1,78.9 	"/>
	<polygon class="st91" points="134,79 130.8,68.8 138.7,81.1 	"/>
	<polygon class="st91" points="138.5,81 130.9,68.8 134.1,78.9 	"/>
	<polygon class="st92" points="124.6,97.9 123.5,99.6 122.3,82.7 130.8,75.4 130.9,89.3 127.7,96.6 125.7,102.2 	"/>
	<polygon class="st92" points="130.9,75.5 122.3,82.7 123.4,99.6 124.6,97.9 125.7,102 127.7,96.6 130.9,89.3 	"/>
	<path class="st93" d="M119.6,61.1c6.3,3.4,11.2,7.6,11.3,7.7l0,6.7l-8.6,7.3L119.6,61.1z"/>
	<path class="st93" d="M119.6,61.1l2.7,21.5l8.5-7.2v-6.7C130.9,68.8,126,64.6,119.6,61.1z"/>
	<polygon class="st94" points="115.8,81 119.6,61.1 122.4,82.7 	"/>
	<polygon class="st94" points="115.9,81 119.6,61.1 122.3,82.7 	"/>
	<polygon class="st95" points="85.3,74.9 108.3,58.3 105.3,75.5 	"/>
	<polygon class="st95" points="85.3,74.9 108.3,58.3 105.2,75.5 	"/>
	<polygon class="st95" points="91.1,55.2 108.3,58.3 85.2,75 	"/>
	<polygon class="st95" points="91.1,55.2 85.3,74.9 108.3,58.3 	"/>
	<path class="st96" d="M63,71.7c0.1-0.2,13.8-15.7,28.1-16.5l-2.9,9.9l-25.3,6.7L63,71.7z"/>
	<path class="st96" d="M63,71.7c0,0,13.6-15.7,28.1-16.5l-2.9,9.8L63,71.7z"/>
	<polygon class="st97" points="105.2,75.5 118,69.8 115.9,81 109.6,95.2 97.2,103.1 	"/>
	<polygon class="st97" points="105.2,75.5 97.3,103 109.5,95.2 115.9,81 118,69.8 	"/>
	<polygon class="st98" points="85.3,103.1 84.2,100.2 105.2,75.4 97.3,103.3 	"/>
	<polygon class="st98" points="84.2,100.2 105.2,75.5 97.3,103.2 85.3,103 	"/>
	<polygon class="st99" points="85.3,74.9 105.2,75.4 84.2,100.3 	"/>
	<polygon class="st99" points="85.3,74.9 84.2,100.2 105.2,75.5 	"/>
	<polygon class="st100" points="85.3,74.9 84.2,100.2 71.2,107.6 	"/>
	<polygon class="st100" points="71.3,107.5 85.3,74.9 84.2,100.2 	"/>
	<polygon class="st101" points="77.4,93.3 75.5,68.4 88.2,65 85.4,74.9 77.4,93.3 	"/>
	<polygon class="st101" points="75.5,68.4 77.4,93.3 85.3,74.9 88.2,65.1 	"/>
	<polygon class="st102" points="63,71.7 75.5,68.4 77.5,93.5 	"/>
	<polygon class="st102" points="63,71.7 77.4,93.3 75.5,68.4 	"/>
	<path class="st103" d="M48.9,91.7c0-0.2,6.1-14.2,14.1-20.1l14.5,21.7L48.9,91.7z"/>
	<path class="st103" d="M48.9,91.7c0,0,6-14.1,14.2-20l14.4,21.6L48.9,91.7z"/>
	<polygon class="st104" points="56,92.1 77.4,93.2 71.3,107.5 	"/>
	<polygon class="st104" points="71.3,107.5 56,92.1 77.4,93.3 	"/>
	<polygon class="st105" points="62.3,98.4 71.3,107.4 72.1,116.3 64.5,117.6 57.8,118.7 	"/>
	<polygon class="st105" points="57.9,118.7 62.3,98.4 71.3,107.5 72.1,116.3 64.5,117.6 	"/>
	<polygon class="st106" points="48.8,91.7 56,92 62.3,98.4 57.9,118.8 	"/>
	<polygon class="st106" points="48.9,91.7 57.9,118.7 62.3,98.4 56,92.1 	"/>
	<path class="st107" d="M51.5,123.1c-0.1-0.1-6.9-10.8-2.7-31.4l9.1,27c0,0,0,0,0,0c-0.1,0-1.1-0.5-2.3-0.5
		C54.1,118.1,52.3,119,51.5,123.1L51.5,123.1L51.5,123.1z"/>
	<path class="st107" d="M51.6,123.1c0,0-6.9-10.5-2.7-31.4l9,27C57.9,118.7,52.7,115.7,51.6,123.1z"/>
	<path class="st107" d="M64.5,151.9l-3.9-7.6l4,2c0.1,0.1,4.5,12.5,4.3,17.9l-0.1,0L64.5,151.9z"/>
	<path class="st107" d="M60.6,144.3l3.9,2.1c0,0,4.4,12.4,4.3,17.9l-4.3-12.3L60.6,144.3z"/>
	<polygon class="st108" points="57.8,132.2 60.6,128.1 63.2,130.2 57.8,135.6 	"/>
	<polygon class="st108" points="63.1,130.2 60.6,128.1 57.9,132.2 57.9,135.5 	"/>
	<path class="st7" d="M57.9,135.6l5.3-5.4c0.1,0.1-0.3,2.7-0.1,3.6c0.1,0.9,1.8,2.9,1.8,3l0.1,0.1L57.9,135.6z"/>
	<path class="st7" d="M64.7,136.8c0,0-1.7-2.1-1.8-3c-0.1-0.9,0.2-3.6,0.2-3.6l-5.3,5.3L64.7,136.8z"/>
	<polygon class="st109" points="54.4,121.2 60.5,125.7 54.4,127.4 	"/>
	<polygon class="st109" points="60.5,125.7 54.5,121.2 54.5,127.3 	"/>
	<polygon class="st110" points="53.6,131.8 52.6,125.8 54.4,121.2 54.5,127.3 53.7,131.8 	"/>
	<polygon class="st110" points="53.7,131.8 54.5,127.3 54.5,121.2 52.7,125.8 	"/>
	<path class="st111" d="M65.1,146.4c-0.4,0-0.6-0.1-0.6-0.1l-3.9-2.1l4.1-7.5l6.2,7.5C67.7,146.1,65.9,146.4,65.1,146.4L65.1,146.4z
		"/>
	<path class="st111" d="M64.7,136.8l-4.1,7.5l3.9,2.1c0,0,1.6,0.7,6.3-2.1L64.7,136.8z"/>
	<path class="st112" d="M64.7,136.8c-2.6-2.5-1.6-6.5-1.6-6.6l2.7-5.3l2.6,8.4l2.4,11l-0.1,0L64.7,136.8z"/>
	<path class="st112" d="M65.9,124.9l-2.7,5.3c0,0-1.1,4.1,1.6,6.5l6.1,7.5l-2.4-11L65.9,124.9z"/>
	<path class="st113" d="M60.6,144.3c-6.5-3.2-7.9-8.9-7.9-8.9l5.2,0.1l6.9,1.3L60.6,144.3L60.6,144.3z"/>
	<path class="st113" d="M52.7,135.3c0,0,1.4,5.6,7.9,8.9l4.1-7.5l-6.9-1.3L52.7,135.3z"/>
	<polygon class="st114" points="60.6,128.1 60.5,125.7 61.7,120.3 64.4,119.6 65.9,124.9 63.2,130.3 	"/>
	<polygon class="st114" points="61.7,120.3 60.5,125.7 60.6,128.1 63.1,130.2 65.9,124.9 64.5,119.7 	"/>
	<path class="st115" d="M118.8,155.3c-1.4,0-5.1-0.8-5.1-0.8l3.8-3l5.9,2.9c0,0.1-3.2,0.8-4.4,0.9
		C119,155.3,118.9,155.3,118.8,155.3z"/>
	<path class="st115" d="M117.5,151.5l-3.8,3c0,0,4.2,0.9,5.3,0.8c1.2-0.1,4.4-0.9,4.4-0.9L117.5,151.5z"/>
	<path class="st3" d="M123.3,154.3c-0.2,0-0.2,0-0.3,0l-5.6-2.8l10.8,0.3C125.2,154,123.9,154.3,123.3,154.3L123.3,154.3z"/>
	<path class="st3" d="M128.3,151.9l-10.8-0.4l5.6,2.8C123.1,154.2,124.1,154.7,128.3,151.9z"/>
	<path class="st116" d="M113.7,154.4c0,0-4.6-1.1-8-3.7l11.8,0.6L113.7,154.4L113.7,154.4z"/>
	<path class="st116" d="M105.7,150.8l11.8,0.7l-3.8,3C113.7,154.4,109.2,153.3,105.7,150.8z"/>
	<path class="st117" d="M105.7,150.8c1.8-0.4,4.4-0.6,7.9-0.6c6.9,0,14.6,0.7,14.7,0.7l0,1L105.7,150.8z"/>
	<path class="st117" d="M128.3,150.9c0,0-16-1.4-22.6-0.2l22.6,1.1V150.9z"/>
	<polygon class="st118" points="116.4,150.3 120.5,148.4 128.6,149.6 128.3,151 	"/>
	<polygon class="st118" points="120.5,148.4 116.4,150.2 128.3,150.9 128.6,149.6 	"/>
	<path class="st119" d="M105.7,148.5l14.8-0.1l-4.1,1.9l-1.5,0c-2.5,0-8.3,0-9.2,0.5l-0.1,0V148.5z"/>
	<path class="st119" d="M105.7,148.5l14.8-0.1l-4.1,1.8c0,0-9.5-0.1-10.7,0.5V148.5z"/>
	<polygon class="st120" points="120.9,148.5 105.7,148.6 113.8,145.4 122.1,145.4 129.1,146.3 128.6,149.7 	"/>
	<polygon class="st120" points="113.8,145.5 105.7,148.5 120.9,148.4 128.6,149.6 129.1,146.3 122.1,145.5 	"/>
	<path class="st121" d="M98.2,118.6c-1.7,0-3-0.5-3-0.5c-1-0.8-0.6-2.9-0.5-3c2.1-1.8,3.9-2.2,5.1-2.2c0.8,0,1.2,0.2,1.2,0.2
		c1.8,3.7,0,5,0,5C100.2,118.5,99.2,118.6,98.2,118.6L98.2,118.6z"/>
	<path class="st121" d="M94.7,115.1c0,0-0.5,2.2,0.5,3c0,0,2.9,1.1,5.8,0c0,0,1.7-1.3,0-4.9C101,113.2,98.3,112.1,94.7,115.1z"/>
	<path class="st122" d="M92.7,116.9l2-1.8c0.1,0.1-0.4,1.8,0.6,3l-0.1,0.1L92.7,116.9z"/>
	<path class="st122" d="M92.7,116.8l2-1.7c0,0-0.5,1.7,0.5,3L92.7,116.8z"/>
	<path class="st123" d="M103.3,117.6c0.8-0.6,1.2-1.3,1.2-2c0-1-0.9-1.7-0.9-1.7c1.3,0,3.6,1.7,3.7,1.8c0.1,0.2,0.1,0.4,0,0.6
		C106.8,117.2,103.4,117.6,103.3,117.6l-0.1,0.1L103.3,117.6z"/>
	<path class="st123" d="M107.2,115.6c0,0-2.4-1.8-3.7-1.9c0,0,2.2,1.8-0.3,3.8C103.3,117.6,108,117,107.2,115.6z"/>
	<path class="st124" d="M92.1,117.1l-0.1-0.1c-0.1-0.1,0-0.2,0.1-0.5c0,0,2.8-4.1,8.1-4.1c2.2,0,4.6,0.7,7.1,2.1
		c0.1,0.1,0.7,0.7,0.5,1c0,0.1-0.2,0.1-0.3,0.1c-0.1,0-0.2,0-0.3,0c0,0-1.8-1.4-3.5-1.8c0,0-1.8-0.6-2.7-0.6c-0.1,0-0.5-0.2-1.2-0.2
		c-1,0-2.8,0.4-5.1,2.1l-2,1.7C92.7,116.9,92.4,117.1,92.1,117.1L92.1,117.1z"/>
	<path class="st124" d="M92.1,116.6c0,0,5.1-7.7,15.2-2c0,0,1.3,1.3-0.1,1c0,0-1.7-1.4-3.5-1.8c0,0-1.9-0.7-2.8-0.6
		c0,0-2.3-1.1-6.3,2l-2,1.7C92.7,116.8,91.7,117.5,92.1,116.6z"/>
	<polygon class="st125" points="113.4,116.6 115.9,117.2 114.7,120.2 	"/>
	<polygon class="st125" points="114.7,120.1 113.4,116.6 115.9,117.2 	"/>
	<polygon class="st126" points="113.4,116.7 116.4,115.2 115.9,117.3 	"/>
	<polygon class="st126" points="116.4,115.2 113.4,116.6 115.9,117.2 	"/>
	<path class="st127" d="M98.2,124.1c-5.5,0-7.1-5.9-7.1-6l0.9-1.1l0.7-0.3l2.5,1.3c0.9,0.3,1.9,0.4,2.9,0.4c1.7,0,2.8-0.4,2.8-0.4
		L98.2,124.1L98.2,124.1z"/>
	<path class="st127" d="M92,117.1l-0.9,1c0,0,1.5,5.9,7.1,6l2.8-6c0,0-2.6,1-5.8,0l-2.5-1.3L92,117.1z"/>
	<path class="st128" d="M91.1,118.1c0-0.1-1.8-5.7,2-7.8l1.7,3.8c0,0.1-2.5,1.7-2.7,2.9L91.1,118.1L91.1,118.1z"/>
	<path class="st128" d="M93.1,110.4l1.6,3.8c0,0-2.4,1.6-2.7,2.9l-0.9,1C91.1,118.1,89.3,112.4,93.1,110.4z"/>
	<path class="st129" d="M101,118.1c0-0.1,1.9-0.3,2.3-0.6c0.2-0.1,0.2-0.2,0.3-0.2l0,0l0,0.2c0-0.1,3.1-0.5,3.6-1.4
		c0.1-0.2,0.1-0.3,0-0.5l4.2,8.5L101,118.1z"/>
	<path class="st129" d="M107.2,115.6l4,8.4l-10.3-6c0,0,1.9-0.2,2.3-0.5c0.4-0.3,0.2,0,0.2,0S107.9,117,107.2,115.6z"/>
	<path class="st5" d="M107.2,115.7l0.7-0.1l5.6,1l1.3,3.5c-1.8,3.5-3.4,4-3.4,4l0,0L107.2,115.7z"/>
	<path class="st5" d="M113.4,116.6l-5.6-1l-0.6,0l4,8.4c0,0,1.6-0.4,3.4-3.9L113.4,116.6z"/>
	<path class="st130" d="M107.9,115.7c0-0.7-0.5-1-0.5-1l3.1-4.1c4.7,0.7,5,1.2,5,1.2c1.6,1.1,1.1,3.4,1.1,3.5l-3,1.4L107.9,115.7z"
		/>
	<path class="st130" d="M110.5,110.6l-3.1,4.1c0,0,0.5,0.3,0.5,1l5.6,1l3-1.4c0,0,0.5-2.3-1.1-3.4
		C115.4,111.8,115.2,111.3,110.5,110.6z"/>
	<path class="st131" d="M107.3,114.7c-2-1.5-5.6-2.1-5.6-2.1l0-3c0,0,0,0,0,0c3.1,0,8.7,1,8.7,1L107.3,114.7L107.3,114.7z"/>
	<path class="st131" d="M101.8,109.6l-0.1,2.9c0,0,3.6,0.6,5.6,2.1l3.1-4.1C110.5,110.6,104.9,109.6,101.8,109.6z"/>
	<path class="st132" d="M93,110.4c1.9-0.8,4.7-0.9,6.7-0.9c1.2,0,2.1,0.1,2.1,0.1l0,3c-0.5,0-1,0-1.4,0c-3.7,0-5.6,1.7-5.6,1.7l0,0
		L93,110.4z"/>
	<path class="st132" d="M93.1,110.4l1.6,3.8c0,0,2.4-2.2,7-1.7l0.1-2.9C101.8,109.6,96.2,109.2,93.1,110.4z"/>
	<path class="st124" d="M135.5,116.1c0,0-2.8-2.3-6-2.3c-1.7,0-3.2,0.6-4.6,1.8c-0.1-0.1,1.5-2.6,4.5-2.6
		C131.3,113,133.4,114,135.5,116.1L135.5,116.1z"/>
	<path class="st124" d="M124.8,115.6c0,0,3.7-6,10.7,0.4C135.5,116,129.6,111.2,124.8,115.6z"/>
	<path class="st133" d="M134.3,118.4c0.1-0.4-1.6-3.1-2.3-4.1c0,0,0,0,0,0c0.2,0,2.9,1.1,3.5,1.8c0.6,0.7,1,1.2,1,1.2L134.3,118.4
		L134.3,118.4z"/>
	<path class="st133" d="M134.4,118.4c0.1-0.6-2.3-4.2-2.3-4.2s2.8,1.1,3.5,1.8c0.6,0.7,1,1.2,1,1.2L134.4,118.4z"/>
	<path class="st122" d="M130,119.1c-0.3,0-0.6,0-0.9,0c0-0.1,1.4-0.1,2.2-1.2c0.6-0.9,0.7-2.2,0.1-3.8l0.7,0.1
		c0.1,0.1,2.4,3.2,2.4,4.2C134.3,118.4,132.3,119.1,130,119.1z"/>
	<path class="st122" d="M134.4,118.4c0,0-2.7,0.9-5.3,0.6c0,0,3.9-0.1,2.3-5l0.6,0.2C132,114.2,134.4,117.4,134.4,118.4z"/>
	<path class="st128" d="M127.4,123.5l-2.8-5.4l0.2-2.5c0.3,2.9,1.9,3.5,3.2,3.5c0.6,0,1-0.1,1-0.1l2.4,4.8L127.4,123.5z"/>
	<path class="st128" d="M124.8,115.6l-0.2,2.5l2.7,5.4l4,0.3l-2.3-4.7C129.1,119,125.2,120.2,124.8,115.6z"/>
	<path class="st134" d="M129,119c0,0,0.1,0,0.2,0c0.2,0,0.6,0,1,0c1.1,0,2.6-0.1,4.1-0.7l-3,5.5L129,119z"/>
	<path class="st134" d="M134.4,118.4l-3,5.4l-2.3-4.7C129.1,119,131.9,119.4,134.4,118.4z"/>
	<path class="st135" d="M136.4,117.3c0,0-2.5-3.4-6-4.1l3.4-3.7c0,0,0,0,0,0c0.3,0,3.4,0.2,4.7,0.5L136.4,117.3L136.4,117.3z"/>
	<path class="st135" d="M138.5,110.1l-2.1,7.2c0,0-2.4-3.4-6-4.1l3.4-3.6C133.9,109.6,137.2,109.7,138.5,110.1z"/>
	<path class="st136" d="M126.7,110.7c4.1-1.2,6.7-1.2,7.1-1.2l-3.3,3.7L126.7,110.7z"/>
	<path class="st136" d="M126.7,110.7l3.8,2.5l3.4-3.6C133.9,109.6,131.2,109.5,126.7,110.7z"/>
	<path class="st137" d="M124.8,115.6c0-0.2,0.2-4.2,1.9-4.9l3.8,2.5c0,0-0.1,0-0.1,0c-0.2,0-0.5,0-0.9,0
		C128.4,113.1,126.3,113.4,124.8,115.6l0,0.2L124.8,115.6z"/>
	<path class="st137" d="M124.8,115.6c0,0,0.2-4.2,1.9-4.9l3.8,2.5C130.5,113.2,127,112.3,124.8,115.6z"/>
	<polygon class="st138" points="124.8,128.4 127.6,124 130.3,130.9 	"/>
	<polygon class="st138" points="130.2,130.8 124.8,128.4 127.7,124.1 	"/>
	<polygon class="st139" points="104.6,108.1 111.2,105 110.5,110.1 	"/>
	<polygon class="st139" points="104.6,108 111.2,105 110.5,110 	"/>
	<polygon class="st4" points="98.2,124.1 101,118.1 111.4,124.1 	"/>
	<polygon class="st4" points="98.2,124.1 101,118.1 111.3,124.1 	"/>
	<path class="st140" d="M111.8,124.6c4.3-2.1,5.6-10.2,5.6-10.3l2.5,0l1.2,3.4l-1.1,5.3l-4.7,5.1L111.8,124.6z"/>
	<path class="st140" d="M119.9,114.4h-2.4c0,0-1.2,8.2-5.6,10.2l3.5,3.5l4.7-5l1.1-5.3L119.9,114.4z"/>
	<path class="st121" d="M128,119.2c-0.9,0-1.6-0.3-2.1-0.8c-1-1-1-2.7-1-2.8c1.7-1.6,3.5-1.9,4.7-1.9c1.1,0,1.9,0.3,1.9,0.3
		c0.6,1.7,0.5,3.1-0.1,4c-0.8,1.1-2.2,1.1-2.2,1.1C128.7,119.1,128.3,119.2,128,119.2L128,119.2z"/>
	<path class="st121" d="M124.8,115.6c0,0,0,4.3,4.2,3.4c0,0,3.8-0.1,2.3-5C131.4,114,127.9,112.8,124.8,115.6z"/>
	<path class="st141" d="M135.4,123.9c-1.8,0-4-0.2-4-0.2l2.9-5.4l2.1-1.1l1.3,6.5C137.4,123.9,136.6,123.9,135.4,123.9z"/>
	<path class="st141" d="M137.7,123.7l-1.2-6.5l-2.1,1.1l-3,5.4C131.4,123.7,136.6,124.1,137.7,123.7z"/>
	<path class="st142" d="M111.2,135.9l4.7-2.2c0,0.4,0,0.7,0.2,1c1,1.4,5.5,1.5,5.6,1.5l-4.1,1.5L111.2,135.9z"/>
	<path class="st142" d="M115.9,133.8l-4.7,2.1l6.3,1.8l4.1-1.4C121.6,136.2,115.1,136.1,115.9,133.8z"/>
	<polygon class="st143" points="108.2,58.3 119.7,61.1 118,69.9 105.2,75.5 	"/>
	<polygon class="st143" points="108.3,58.3 105.2,75.5 118,69.8 119.6,61.1 	"/>
	<path class="st144" d="M52.7,135.4c-0.1-0.1-2.1-5.1-1.2-12.3l1.2,2.7l1,6l0.7-4.5l6.1-1.6l0.2,2.4l-2.8,4.1l0,3.3L52.7,135.4z"/>
	<path class="st144" d="M52.7,135.3c0,0-2.1-5-1.1-12.3l1.1,2.7l1,6l0.8-4.5l6-1.6l0.1,2.4l-2.8,4.1v3.3L52.7,135.3z"/>
	<path class="st142" d="M51.5,123.1c0-0.1,0.4-5,4-5c0.7,0,1.5,0.2,2.3,0.5l3.8,1.6l-1.2,5.5l-6.1-4.5l-1.7,4.6L51.5,123.1z"/>
	<path class="st142" d="M52.7,125.8l-1.1-2.7c0,0,0.4-6.9,6.3-4.4l3.8,1.6l-1.2,5.4l-6-4.5L52.7,125.8z"/>
	<path class="st122" d="M101,118.1c1.8-2,0-4.9,0-4.9c1.5,0.1,2.6,0.5,2.6,0.5c0.7,0.6,0.9,1.3,0.9,2c-0.1,1-0.9,1.8-1.2,1.9
		C103,117.8,101.1,118.1,101,118.1L101,118.1L101,118.1z"/>
	<path class="st122" d="M103.6,113.8c0,0-1.1-0.4-2.6-0.6c0,0,1.9,2.9,0,4.9c0,0,2-0.3,2.3-0.5C103.6,117.4,105.5,115.6,103.6,113.8
		z"/>
	<polygon class="st145" points="97,115.3 98.4,114 99.5,115.2 98.4,116.4 	"/>
	<polygon class="st145" points="98.4,114 97.1,115.2 98.4,116.3 99.5,115.2 	"/>
	<polygon class="st145" points="127.6,114.6 129.5,114.7 128.3,116.3 	"/>
	<polygon class="st145" points="129.5,114.8 128.3,116.2 127.7,114.5 	"/>
</g>
</svg>
