<?xml version="1.0" encoding="utf-8"?>
<!-- Generator: Adobe Illustrator 19.2.1, SVG Export Plug-In . SVG Version: 6.00 Build 0)  -->
<svg version="1.1" id="Layer_1" xmlns="http://www.w3.org/2000/svg" xmlns:xlink="http://www.w3.org/1999/xlink" x="0px" y="0px"
	 width="192px" height="234px" viewBox="0 0 192 234" style="enable-background:new 0 0 192 234;" xml:space="preserve">
<style type="text/css">
	.st0{fill:#F2F2F2;}
	.st1{fill:#D54339;}
	.st2{clip-path:url(#SVGID_2_);}
	.st3{clip-path:url(#SVGID_4_);fill:#83432F;}
	.st4{clip-path:url(#SVGID_4_);fill:#491D0A;}
	.st5{clip-path:url(#SVGID_4_);fill:#260704;}
	.st6{clip-path:url(#SVGID_4_);fill:#492616;}
	.st7{clip-path:url(#SVGID_4_);fill:#A8694D;}
	.st8{clip-path:url(#SVGID_4_);fill:#3C2410;}
	.st9{clip-path:url(#SVGID_4_);fill:#B17B60;}
	.st10{clip-path:url(#SVGID_4_);fill:#1A1E0E;}
	.st11{clip-path:url(#SVGID_4_);fill:#2E2216;}
	.st12{clip-path:url(#SVGID_4_);fill:#7F573F;}
	.st13{clip-path:url(#SVGID_4_);fill:#BB8969;}
	.st14{clip-path:url(#SVGID_4_);fill:#4E210A;}
	.st15{clip-path:url(#SVGID_4_);fill:#E97371;}
	.st16{clip-path:url(#SVGID_4_);fill:#55150A;}
	.st17{clip-path:url(#SVGID_4_);fill:#F4B1A6;}
	.st18{clip-path:url(#SVGID_4_);fill:#772D19;}
	.st19{clip-path:url(#SVGID_4_);fill:#3C0E00;}
	.st20{clip-path:url(#SVGID_4_);fill:#5E321F;}
	.st21{clip-path:url(#SVGID_4_);fill:#4B3C1F;}
	.st22{clip-path:url(#SVGID_4_);fill:#BCA38C;}
	.st23{clip-path:url(#SVGID_4_);fill:#D9E3E6;}
	.st24{clip-path:url(#SVGID_4_);fill:#FEE1DB;}
	.st25{clip-path:url(#SVGID_4_);fill:#D3825E;}
	.st26{clip-path:url(#SVGID_4_);fill:#FBE0DA;}
	.st27{clip-path:url(#SVGID_4_);fill:#222612;}
	.st28{clip-path:url(#SVGID_4_);fill:#FDE6D9;}
	.st29{clip-path:url(#SVGID_4_);fill:none;stroke:#462E19;stroke-width:0.5;stroke-miterlimit:10;}
	.st30{clip-path:url(#SVGID_4_);fill:#DDAC9B;}
	.st31{clip-path:url(#SVGID_4_);fill:#D29375;}
	.st32{clip-path:url(#SVGID_4_);fill:#B16B47;}
	.st33{clip-path:url(#SVGID_4_);fill:#8E6550;}
	.st34{clip-path:url(#SVGID_4_);fill:#413318;}
	.st35{clip-path:url(#SVGID_4_);fill:#784938;}
	.st36{clip-path:url(#SVGID_4_);fill:#85503A;}
	.st37{clip-path:url(#SVGID_4_);fill:#7D563A;}
	.st38{clip-path:url(#SVGID_4_);fill:#8F6141;}
	.st39{clip-path:url(#SVGID_4_);fill:#DCAF94;}
	.st40{clip-path:url(#SVGID_4_);fill:#FAD8C6;}
	.st41{clip-path:url(#SVGID_4_);fill:#F1C3AB;}
	.st42{clip-path:url(#SVGID_4_);fill:#C69689;}
	.st43{clip-path:url(#SVGID_4_);fill:#5E2F1B;}
	.st44{clip-path:url(#SVGID_4_);fill:#7E3718;}
	.st45{clip-path:url(#SVGID_4_);fill:#632E0F;}
	.st46{clip-path:url(#SVGID_4_);fill:#8E4B29;}
	.st47{clip-path:url(#SVGID_4_);fill:#935C37;}
	.st48{clip-path:url(#SVGID_4_);fill:#724C30;}
	.st49{clip-path:url(#SVGID_4_);fill:#2B1C0C;}
	.st50{clip-path:url(#SVGID_4_);fill:#221006;}
	.st51{clip-path:url(#SVGID_4_);fill:#34230D;}
	.st52{clip-path:url(#SVGID_4_);fill:#2D1901;}
	.st53{clip-path:url(#SVGID_4_);fill:#754029;}
	.st54{clip-path:url(#SVGID_4_);fill:#331F0A;}
	.st55{clip-path:url(#SVGID_4_);fill:#240901;}
	.st56{clip-path:url(#SVGID_4_);fill:#49190E;}
	.st57{clip-path:url(#SVGID_4_);fill:#5E2012;}
	.st58{clip-path:url(#SVGID_4_);fill:#321905;}
	.st59{clip-path:url(#SVGID_4_);fill:#281D0B;}
	.st60{clip-path:url(#SVGID_4_);fill:#281A05;}
	.st61{clip-path:url(#SVGID_4_);fill:#592E21;}
	.st62{clip-path:url(#SVGID_4_);fill:#8C573F;}
	.st63{clip-path:url(#SVGID_4_);fill:#7C431C;}
	.st64{clip-path:url(#SVGID_4_);fill:#5B3618;}
	.st65{clip-path:url(#SVGID_4_);fill:#8E5E46;}
	.st66{clip-path:url(#SVGID_4_);fill:#EAB4A4;}
	.st67{clip-path:url(#SVGID_4_);}
	.st68{clip-path:url(#SVGID_4_);fill:#171B06;}
	.st69{clip-path:url(#SVGID_4_);fill:#131004;}
	.st70{clip-path:url(#SVGID_4_);fill:#101202;}
	.st71{clip-path:url(#SVGID_4_);fill:#0A0A02;}
	.st72{clip-path:url(#SVGID_4_);fill:#030300;}
	.st73{clip-path:url(#SVGID_4_);fill:#201D0A;}
	.st74{clip-path:url(#SVGID_4_);fill:#100D02;}
	.st75{clip-path:url(#SVGID_4_);fill:#3A3C2B;}
	.st76{clip-path:url(#SVGID_4_);fill:#010202;}
	.st77{clip-path:url(#SVGID_4_);fill:#000100;}
	.st78{clip-path:url(#SVGID_4_);fill:#373017;}
	.st79{clip-path:url(#SVGID_4_);fill:#5A3C1F;}
	.st80{clip-path:url(#SVGID_4_);fill:#FED7D0;}
	.st81{clip-path:url(#SVGID_4_);fill:#FDCBBA;}
	.st82{clip-path:url(#SVGID_4_);fill:#BA876D;}
	.st83{clip-path:url(#SVGID_4_);fill:#F0BB95;}
	.st84{clip-path:url(#SVGID_4_);fill:#443717;}
	.st85{clip-path:url(#SVGID_4_);fill:#F3D3C2;}
	.st86{clip-path:url(#SVGID_4_);fill:#B59169;}
	.st87{clip-path:url(#SVGID_4_);fill:#D29B74;}
	.st88{clip-path:url(#SVGID_4_);fill:#BE7D65;}
	.st89{clip-path:url(#SVGID_4_);fill:#3A1B0B;}
	.st90{clip-path:url(#SVGID_4_);fill:#955D3D;}
	.st91{clip-path:url(#SVGID_4_);fill:#393322;}
	.st92{clip-path:url(#SVGID_4_);fill:#2E2A13;}
	.st93{clip-path:url(#SVGID_4_);fill:#593E2F;}
	.st94{clip-path:url(#SVGID_4_);fill:#B1AAA5;}
	.st95{clip-path:url(#SVGID_4_);fill:#B9C4B0;}
	.st96{clip-path:url(#SVGID_4_);fill:#C2BFB4;}
	.st97{clip-path:url(#SVGID_4_);fill:#FFFFFE;}
	.st98{clip-path:url(#SVGID_4_);fill:#0A0F06;}
	.st99{clip-path:url(#SVGID_4_);fill:#BF9072;}
	.st100{clip-path:url(#SVGID_4_);fill:#EDBAA7;}
	.st101{clip-path:url(#SVGID_4_);fill:#CE9C7D;}
	.st102{clip-path:url(#SVGID_4_);fill:#B6B2AB;}
	.st103{clip-path:url(#SVGID_4_);fill:#BA8063;}
	.st104{clip-path:url(#SVGID_4_);fill:#D6A28B;}
	.st105{clip-path:url(#SVGID_4_);fill:#F7DCD0;}
	.st106{clip-path:url(#SVGID_4_);fill:#FAD4BC;}
	.st107{clip-path:url(#SVGID_4_);fill:#FED3C4;}
</style>
<rect class="st0" width="192" height="234"/>
<polygon class="st1" points="192,215.5 172.5,234 192,234 "/>
<g>
	<g>
		<defs>
			<rect id="SVGID_1_" x="23.6" y="47.3" width="136.4" height="140.9"/>
		</defs>
		<clipPath id="SVGID_2_">
			<use xlink:href="#SVGID_1_"  style="overflow:visible;"/>
		</clipPath>
		<g class="st2">
			<defs>
				<rect id="SVGID_3_" x="23.6" y="47.3" width="136.4" height="140.9"/>
			</defs>
			<clipPath id="SVGID_4_">
				<use xlink:href="#SVGID_3_"  style="overflow:visible;"/>
			</clipPath>
			<path class="st3" d="M119.3,136.4C119.3,136.4,119.3,136.4,119.3,136.4l-0.5,0.4c0.6-0.1,1.2-0.1,1.7-0.4
				c0.2-0.1,0.4-0.3,0.5-0.4c0,0,0.4-0.6,0.3-0.6c-0.2-0.2-0.3-0.4-0.5-0.6l0,0c0.2-0.1,0.3-0.2,0.5-0.3c-0.3,0-0.5,0.1-0.6,0.3
				c-0.2,0.2-0.2,0.5-0.4,0.6c-0.4,0.4-1,0.5-1.5,0.5c-0.6,0.1-0.6,1,0,1c0.6-0.1,1.1-0.1,1.6-0.4c0.2-0.1,0.4-0.3,0.6-0.4
				c0.1-0.1,0.4-0.6,0.3-0.6c0.2,0,0.4-0.1,0.5-0.3l0,0c0.1-0.3-0.1-0.6-0.5-0.6c-0.2,0-0.4,0.1-0.6,0.2c-0.2,0.2-0.2,0.4-0.4,0.6
				c-0.3,0.5-1,0.5-1.5,0.6c-0.2,0-0.5,0.2-0.5,0.5c0,0,0,0,0,0C118.4,137,119.4,137,119.3,136.4"/>
			<path class="st3" d="M118.9,136.9c0.6-0.1,1.1-0.1,1.7-0.4c0.2-0.1,0.4-0.3,0.6-0.4c0,0,0.4-0.6,0.3-0.6c0.6,0,0.6-1,0-1
				c-0.2,0-0.4,0.1-0.6,0.2c-0.2,0.2-0.2,0.4-0.4,0.6c-0.3,0.5-1,0.5-1.5,0.6C118.3,136,118.2,137,118.9,136.9"/>
			<path class="st3" d="M123.7,133.2C123.7,133.2,123.7,133.2,123.7,133.2l0,0.6c1-0.8,2-1.8,2.9-2.8c0.4-0.5,0.8-1,1.2-1.6
				c0.2-0.3,0.4-0.5,0.5-0.8c0.1-0.2,0.1-0.3,0.2-0.5c0-0.1,0-0.3,0.1-0.4h-0.7l0,0v-0.7c-0.2,0.2-0.2,0.5-0.3,0.8
				c-0.1,0.3-0.3,0.6-0.5,0.8c-0.4,0.6-0.8,1.1-1.2,1.6c-0.9,1-1.8,2-2.9,2.8c-0.5,0.4,0.2,1.1,0.7,0.7c1-0.8,2-1.8,2.9-2.8
				c0.4-0.5,0.8-1,1.2-1.6c0.2-0.3,0.4-0.5,0.5-0.8c0.1-0.2,0.2-0.3,0.2-0.5c0-0.1,0-0.3,0.1-0.4c0.2-0.2,0.2-0.5,0-0.7l0,0
				c-0.2-0.2-0.5-0.2-0.7,0c-0.2,0.3-0.2,0.5-0.3,0.8c-0.1,0.3-0.3,0.6-0.4,0.8c-0.4,0.6-0.8,1.1-1.2,1.6c-0.9,1-1.8,2-2.9,2.8
				c-0.2,0.2-0.1,0.5,0,0.7c0,0,0,0,0,0C123.4,134.4,124.1,133.7,123.7,133.2"/>
			<path class="st3" d="M123.7,133.9c1-0.8,2-1.8,2.9-2.8c0.4-0.5,0.8-1,1.2-1.6c0.2-0.3,0.4-0.5,0.5-0.8c0.1-0.2,0.1-0.3,0.2-0.5
				c0-0.1,0-0.3,0.1-0.4c0.4-0.5-0.3-1.1-0.7-0.7c-0.2,0.3-0.2,0.5-0.3,0.8c-0.1,0.3-0.3,0.6-0.5,0.8c-0.4,0.6-0.8,1.1-1.2,1.6
				c-0.9,1-1.8,2-2.9,2.8C122.6,133.6,123.2,134.2,123.7,133.9"/>
			<path class="st4" d="M128.8,123.8c-0.2-0.9,0.4-1.7,0.7-2.5c0.4-0.9,0.3-1.9,0.8-2.8c-0.2,0.1-0.4,0.1-0.7,0.2c0,0,0,0,0,0
				c-0.1-0.2-0.1-0.4-0.2-0.7c-0.5,0.9-0.5,2-0.8,3c-0.3,0.9-0.9,1.8-0.8,2.8c0.1,0.5,0.7,0.6,0.9,0.1c0.2-0.4,0.3-0.7,0.4-1.1
				c-0.2,0.1-0.4,0.2-0.6,0.3l0,0c-0.1-0.2-0.2-0.4-0.3-0.6c-0.1,0.4-0.2,0.8-0.4,1.1c-0.2,0.6,0.6,1,0.8,0.5
				c0.2-0.4,0.4-0.9,0.5-1.4c0.1-0.2-0.1-0.5-0.3-0.6l0,0c-0.3-0.1-0.5,0.1-0.6,0.3c-0.1,0.4-0.2,0.7-0.4,1.1
				C128.2,123.7,128.5,123.7,128.8,123.8c-0.1-0.9,0.5-1.7,0.8-2.6c0.3-0.9,0.3-1.9,0.7-2.7c0.1-0.2,0.1-0.5-0.2-0.7c0,0,0,0,0,0
				c-0.2-0.1-0.5-0.1-0.7,0.2c-0.5,1-0.5,2.2-0.9,3.2c-0.4,0.9-0.9,1.8-0.7,2.8C128,124.7,128.9,124.4,128.8,123.8"/>
			<path class="st4" d="M129.5,118c-0.5,0.9-0.5,2-0.8,3c-0.4,1-1,1.9-0.8,3c0.1,0.5,0.8,0.4,0.9,0c0.2-0.4,0.3-0.8,0.4-1.2
				c0.2-0.6-0.7-0.8-0.9-0.3c-0.1,0.4-0.3,0.8-0.4,1.2h0.9c-0.2-0.9,0.5-1.8,0.8-2.6c0.3-0.9,0.3-1.8,0.7-2.6
				C130.6,118,129.8,117.5,129.5,118"/>
			<path class="st4" d="M129,119C129,119,129,119,129,119l0.4,0.5c-0.1-1.2-0.3-2.3-0.5-3.5c-0.1,0.2-0.2,0.4-0.3,0.6c0,0,0,0,0,0
				c-0.2-0.1-0.4-0.2-0.6-0.3c0.2,1,0.4,2.1,0.4,3.1c0,0.2,0.1,0.4,0.3,0.5c0,0,0,0,0,0c-0.1-0.2-0.2-0.4-0.3-0.6c0,0,0,0.1,0,0.1
				c-0.1,0.6,0.8,0.8,0.9,0.3c0,0,0-0.1,0-0.1c0.1-0.2-0.1-0.5-0.3-0.6c0,0,0,0,0,0c0.1,0.2,0.2,0.3,0.3,0.5
				c-0.1-1.1-0.3-2.3-0.5-3.4c-0.1-0.3-0.3-0.4-0.6-0.3c0,0,0,0,0,0c-0.3,0.1-0.4,0.3-0.3,0.6c0.2,1.1,0.4,2.1,0.5,3.2
				c0,0.3,0.2,0.5,0.5,0.5c0,0,0,0,0,0C129.6,120,129.6,119.1,129,119"/>
			<path class="st4" d="M128.1,116.3c0.2,1.1,0.4,2.1,0.5,3.2c0,0.5,0.8,0.7,0.9,0.1l0-0.1c0.1-0.6-0.8-0.8-0.9-0.3c0,0,0,0.1,0,0.1
				l0.9,0.1c-0.1-1.2-0.3-2.3-0.5-3.5C128.9,115.4,128,115.7,128.1,116.3"/>
			<path class="st4" d="M127.8,112.9c-0.3-0.3-0.5-0.7-0.7-1.1c-0.1,0.2-0.1,0.4-0.2,0.7c0,0,0,0,0,0c-0.2-0.1-0.4-0.1-0.7-0.2
				c0.2,0.4,0.5,0.8,0.8,1.2c0.2,0.3,0.7,0.1,0.8-0.2l0-0.1c-0.1,0.1-0.2,0.2-0.3,0.3c0,0,0,0,0,0c-0.2-0.2-0.4-0.3-0.6-0.5
				c0,0,0,0,0,0.1c0-0.1,0-0.2,0.1-0.2c0,0,0,0,0,0c-0.4,0.4,0.2,1.1,0.7,0.7c0.1-0.1,0.2-0.3,0.2-0.5c0-0.3-0.3-0.5-0.6-0.5
				c0,0,0,0,0,0c-0.2,0-0.3,0.2-0.3,0.3l0,0.1C127.2,113,127.5,112.9,127.8,112.9c-0.3-0.4-0.5-0.7-0.7-1.1
				c-0.1-0.2-0.4-0.3-0.7-0.2c0,0,0,0,0,0c-0.2,0.1-0.3,0.4-0.2,0.7c0.3,0.4,0.6,0.9,0.9,1.2c0.2,0.2,0.5,0.2,0.7,0
				C127.9,113.4,127.9,113.1,127.8,112.9"/>
			<path class="st4" d="M126.2,112.4c0.3,0.4,0.5,0.8,0.9,1.2c0.2,0.2,0.6,0.1,0.7-0.1c0.1-0.1,0.1-0.2,0.1-0.3
				c0-0.3-0.2-0.5-0.5-0.5c-0.3,0-0.4,0.2-0.5,0.5c0,0,0,0,0,0.1c0-0.1,0-0.2,0.1-0.2c0,0,0,0,0,0c0.2,0,0.5-0.1,0.7-0.1
				c-0.3-0.3-0.5-0.7-0.7-1C126.7,111.3,125.9,111.8,126.2,112.4"/>
			<path class="st4" d="M124.3,110C124.3,110,124.3,109.9,124.3,110c0,0,0.1,0.1,0.1,0.1C124.5,110,124.5,110,124.3,110
				c0.1,0.2,0.2,0.4,0.2,0.5c0,0,0,0,0-0.1c-0.3,0.1-0.5,0.1-0.8,0.2c0,0,0,0,0,0V110c0,0,0,0,0,0c-0.1,0.2-0.2,0.4-0.1,0.6
				c0.2,0.3,0.6,0.3,0.9,0.3c0.3,0,0.6,0,0.8,0l-0.5-0.5v0l0.5-0.5c-0.4,0-0.8,0-1.3,0c-0.6,0-0.6,1,0,1c0.4,0,0.8,0,1.3,0
				c0.3,0,0.5-0.2,0.5-0.5v0c0-0.3-0.2-0.5-0.5-0.5l-0.7,0C124.7,109.9,124.5,109.9,124.3,110C124.4,109.9,124.3,109.9,124.3,110
				C124.2,109.9,124.2,109.8,124.3,110c0.1,0,0.2,0.1,0.2,0.1c0,0,0,0,0,0c0,0.2,0,0.4-0.1,0.6c0,0,0,0,0,0c0.2-0.2,0.2-0.5,0-0.7
				c0,0,0,0,0,0c-0.2-0.3-0.7-0.1-0.8,0.2c0,0,0,0,0,0.1c0,0.2,0,0.3,0.1,0.5c0.1,0.1,0.2,0.2,0.3,0.2
				C124.7,111,124.9,110.1,124.3,110"/>
			<path class="st4" d="M123.7,110.2C123.7,110.2,123.7,110.2,123.7,110.2c0,0.2,0,0.4,0.1,0.5c0.2,0.2,0.5,0.2,0.8,0.2
				c0.3,0,0.6,0,0.9,0c0.6,0,0.6-1,0-1c-0.2,0-0.4,0-0.6,0c-0.2,0-0.4,0-0.6,0c0.1,0,0.1,0.1,0.2,0.1c0,0,0,0,0,0
				c0,0.2,0.1,0.3,0.1,0.5c0,0,0,0,0,0c0-0.3-0.1-0.5-0.3-0.6C124,109.8,123.7,109.9,123.7,110.2"/>
			<path class="st4" d="M130.6,113.1c-0.2-1.2-0.2-2.5-0.5-3.7c-0.1-0.6-0.4-1.1-0.7-1.7c-0.3-0.6-0.7-1.1-1.1-1.6
				c-0.5-0.6-1.3-0.6-2.1-0.6l-1.9,0c-0.4,0-0.8,0-1.2,0.1c-0.6,0.2-1.1,0.6-1.5,1.1h0.7c0,0,0,0,0,0v0.7c0.2-0.2,0.4-0.5,0.7-0.7
				c0.3-0.2,0.7-0.3,1-0.3c0.2,0,0.4,0,0.7,0c0.7,0,1.3,0,2,0c0.5,0,0.9,0.1,1.2,0.5c0.4,0.6,0.8,1.2,1.1,1.9
				c0.3,0.6,0.4,1.3,0.5,1.9c0.1,0.8,0.2,1.6,0.3,2.4c0.1,0.4,0.7,0.5,0.9,0.1c0.6-1.2,0.4-2.5,0.1-3.7c-0.1,0.2-0.2,0.4-0.3,0.6
				c0,0,0,0,0,0c-0.2-0.1-0.4-0.2-0.6-0.3c0.2,1,0.4,2.2-0.1,3.1c-0.3,0.5,0.5,1,0.8,0.5c0.7-1.2,0.5-2.6,0.2-3.9
				c-0.1-0.3-0.3-0.4-0.6-0.3c0,0,0,0,0,0c-0.3,0.1-0.4,0.3-0.3,0.6c0.2,1,0.4,2,0,3c0.3,0,0.6,0.1,0.9,0.1c-0.1-0.7-0.2-1.4-0.3-2
				c-0.1-0.6-0.1-1.3-0.4-1.9c-0.2-0.6-0.5-1.1-0.8-1.6c-0.3-0.5-0.6-1.1-1.1-1.5c-0.6-0.5-1.3-0.5-2-0.5c-0.6,0-1.3,0-1.9,0
				c-0.4,0-0.8,0-1.2,0.1c-0.6,0.2-1.1,0.7-1.6,1.1c-0.2,0.2-0.2,0.5,0,0.7c0,0,0,0,0,0c0.2,0.2,0.5,0.2,0.7,0
				c0.2-0.2,0.4-0.5,0.7-0.7c0.3-0.2,0.6-0.3,1-0.3c0.2,0,0.5,0,0.7,0c0.7,0,1.3,0,2,0c0.2,0,0.4,0,0.7,0.1c0.3,0.1,0.5,0.5,0.7,0.8
				c0.4,0.6,0.7,1.1,1,1.8c0.3,0.7,0.3,1.4,0.4,2.1c0.1,0.7,0.2,1.4,0.3,2.1c0,0.3,0.4,0.4,0.6,0.3
				C130.6,113.6,130.7,113.4,130.6,113.1"/>
			<path class="st4" d="M122.2,107.3c0.3-0.3,0.6-0.7,1-0.8c0.5-0.2,1.1-0.1,1.6-0.1c0.6,0,1.1,0,1.7,0c0.3,0,0.5,0,0.8,0.1
				c0.2,0.1,0.4,0.3,0.5,0.5c0.6,0.8,1.2,1.8,1.4,2.8c0.2,1.1,0.3,2.3,0.5,3.4c0.1,0.4,0.7,0.5,0.9,0.1c0.6-1.2,0.4-2.5,0.2-3.8
				c-0.1-0.6-1-0.3-0.9,0.3c0.2,1,0.4,2.1-0.1,3.1c0.3,0,0.6,0.1,0.9,0.1c-0.1-0.7-0.2-1.4-0.3-2c-0.1-0.6-0.1-1.3-0.4-1.9
				c-0.2-0.6-0.5-1.1-0.8-1.6c-0.3-0.5-0.6-1.1-1.1-1.5c-0.4-0.4-1-0.4-1.6-0.5c-0.7,0-1.3,0-2,0c-0.6,0-1.2-0.1-1.8,0.2
				c-0.5,0.2-0.9,0.6-1.3,1C121.1,107.1,121.8,107.8,122.2,107.3"/>
			<path class="st4" d="M122.1,118.5c0.6,0,0.6-1,0-1C121.5,117.5,121.5,118.5,122.1,118.5"/>
			<path class="st4" d="M122.1,118.5c0.6,0,0.6-1,0-1C121.5,117.5,121.5,118.5,122.1,118.5"/>
			<path class="st5" d="M122.9,119.9c0-0.1-0.1-0.1-0.1-0.2c-0.1,0.2-0.1,0.4-0.2,0.7c0,0,0,0,0,0c-0.2-0.1-0.4-0.1-0.7-0.2
				c0,0,0,0.1,0.1,0.1c0.2,0.3,0.5,0.3,0.7,0.1c0.4-0.5,0.6-0.9,0.6-1.5c0-0.4,0-0.7,0-1.1l-0.5,0.5c0,0,0,0,0,0l-0.5-0.5
				c0,0.3,0,0.6,0,1c0,0.1,0,0.2,0,0.3c0,0.3-0.2,0.5-0.4,0.7c-0.4,0.4,0.3,1.1,0.7,0.7c0.4-0.5,0.6-0.9,0.7-1.5c0-0.4,0-0.8,0-1.1
				c0-0.3-0.2-0.5-0.5-0.5c0,0,0,0,0,0c-0.3,0-0.5,0.2-0.5,0.5c0,0.3,0,0.6,0,0.9c0,0.4,0,0.7-0.3,1
				C122.4,119.7,122.6,119.8,122.9,119.9c0-0.1,0-0.1-0.1-0.2c-0.1-0.2-0.4-0.3-0.7-0.2c0,0,0,0,0,0c-0.2,0.1-0.3,0.4-0.2,0.7
				c0,0.1,0.1,0.1,0.1,0.2C122.4,120.9,123.2,120.4,122.9,119.9"/>
			<path class="st5" d="M122.5,117.8c0,0.4,0,0.8,0,1.2c0,0.3-0.1,0.5-0.3,0.8c0.2,0,0.5,0.1,0.7,0.1c0,0-0.1-0.1-0.1-0.1
				c-0.3-0.5-1.1,0-0.8,0.5l0.1,0.1c0.2,0.3,0.5,0.3,0.7,0.1c0.3-0.3,0.5-0.6,0.6-1.1c0.1-0.5,0-1,0-1.5
				C123.5,117.2,122.5,117.2,122.5,117.8"/>
			<path class="st5" d="M119.2,116.1C119.2,116.1,119.2,116.1,119.2,116.1c0.1,0.1,0.2,0.3,0.3,0.4c0-0.9,0.2-1.8,0.4-2.6
				c-0.2,0.1-0.4,0.2-0.6,0.3c0,0,0,0,0,0c-0.1-0.2-0.2-0.4-0.3-0.6c-0.3,0.9-0.5,1.8-0.5,2.8c0,0.4,0.7,0.7,0.9,0.2
				c0.4-0.9,0.5-1.9,0.6-2.9c-0.3,0.1-0.5,0.1-0.8,0.2c0.7,0.7,1.3,1.4,1.7,2.3c0.1-0.2,0.1-0.4,0.2-0.7c0,0,0,0,0,0
				c0.2,0.1,0.4,0.1,0.7,0.2c-0.5-0.9-1.1-1.7-1.8-2.4c-0.2-0.2-0.7-0.2-0.8,0.2c-0.1,0.9-0.2,1.9-0.6,2.7c-0.3,0.5,0.6,1,0.8,0.5
				c0.4-0.9,0.5-1.9,0.7-2.9c-0.3,0.1-0.5,0.1-0.8,0.2c0.7,0.6,1.2,1.4,1.6,2.2c0.1,0.2,0.4,0.3,0.7,0.2c0,0,0,0,0,0
				c0.2-0.1,0.3-0.4,0.2-0.7c-0.5-0.9-1.1-1.8-1.9-2.5c-0.2-0.2-0.7-0.2-0.8,0.2c-0.1,0.9-0.2,1.9-0.5,2.7c0.3,0.1,0.6,0.2,0.9,0.2
				c0-0.9,0.2-1.7,0.4-2.5c0.1-0.3-0.1-0.5-0.3-0.6c0,0,0,0,0,0c-0.3-0.1-0.5,0.1-0.6,0.3c-0.3,0.9-0.5,1.9-0.5,2.9
				c0,0.2,0.1,0.4,0.3,0.5c0,0,0,0,0,0C119.6,117.1,119.8,116.2,119.2,116.1"/>
			<path class="st5" d="M119.1,113.6c-0.3,0.9-0.5,1.9-0.5,2.9c0,0.5,0.7,0.7,0.9,0.2c0.5-0.9,0.5-2,0.7-3c-0.3,0.1-0.5,0.1-0.8,0.2
				c0.7,0.6,1.2,1.4,1.7,2.2c0.3,0.5,1.1,0.1,0.8-0.5c-0.5-0.9-1.1-1.7-1.8-2.4c-0.2-0.2-0.7-0.2-0.8,0.2c-0.1,0.9-0.2,1.9-0.6,2.7
				c0.3,0.1,0.6,0.2,0.9,0.2c0-0.9,0.2-1.8,0.4-2.6C120.2,113.3,119.3,113.1,119.1,113.6"/>
			<path class="st6" d="M123.3,118.6c0.6,0,0.6-1,0-1C122.6,117.7,122.6,118.6,123.3,118.6"/>
			<path class="st6" d="M123.3,118.6c0.6,0,0.6-1,0-1C122.6,117.7,122.6,118.6,123.3,118.6"/>
			<path class="st6" d="M124,124.4C123.9,124.4,123.9,124.3,124,124.4l0,0.6c0.8-0.9,1.9-1.8,2.1-3.1c0.1-0.6,0.1-1.1-0.2-1.6
				c-0.1-0.2-0.3-0.4-0.4-0.6c-0.2-0.3-0.3-0.5-0.5-0.8c-0.4-0.5-0.8-0.8-1.3-1.2c0.1,0.2,0.1,0.4,0.2,0.7c0,0,0,0,0,0
				c-0.2,0.1-0.4,0.1-0.7,0.2c0.4,0.3,0.8,0.5,1.1,0.9c0.1,0.2,0.2,0.3,0.3,0.5c0.1,0.2,0.3,0.4,0.4,0.6c0.2,0.2,0.2,0.4,0.2,0.7
				c0,0.4-0.1,0.9-0.4,1.2c-0.1,0.2-0.3,0.3-0.4,0.5c-0.3,0.3-0.5,0.6-0.8,0.9c-0.4,0.5,0.2,1.1,0.7,0.7c0.3-0.2,0.5-0.5,0.8-0.7
				c0.3-0.3,0.7-0.6,0.7-1c-0.1,0.1-0.2,0.3-0.2,0.4c0,0,0,0,0,0c-0.2-0.1-0.5-0.2-0.7-0.3c-0.1-0.4,0.1-0.1,0-0.1
				c0,0-0.1,0.1-0.2,0.2c-0.2,0.2-0.4,0.3-0.6,0.5l-0.8,0.8c-0.5,0.4,0.2,1.1,0.7,0.7c0.3-0.3,0.7-0.6,1-0.9c0.4-0.3,1-0.7,0.8-1.3
				c-0.1-0.3-0.4-0.4-0.7-0.3c0,0,0,0,0,0c-0.1,0.1-0.2,0.3-0.2,0.4c0,0,0.1-0.1,0-0.1c0,0-0.1,0.1-0.1,0.1
				c-0.1,0.1-0.3,0.3-0.4,0.4c-0.2,0.2-0.4,0.4-0.7,0.6c0.2,0.2,0.4,0.4,0.7,0.7c0.3-0.3,0.6-0.7,0.9-1c0.3-0.3,0.5-0.6,0.7-0.9
				c0.2-0.5,0.3-1,0.3-1.5c0-0.7-0.4-1.2-0.7-1.7c-0.2-0.3-0.3-0.5-0.5-0.7c-0.3-0.5-0.8-0.8-1.2-1.1c-0.2-0.1-0.5,0-0.7,0.2
				c0,0,0,0,0,0c-0.1,0.2,0,0.5,0.2,0.7c0.5,0.3,0.8,0.6,1.1,1c0.1,0.2,0.2,0.4,0.3,0.5c0.1,0.2,0.2,0.4,0.4,0.5
				c0.2,0.4,0.2,0.8,0.1,1.3c-0.1,0.5-0.6,0.9-1,1.4c-0.3,0.3-0.6,0.6-0.8,0.9c-0.2,0.2-0.2,0.5,0,0.7c0,0,0,0,0,0
				C123.7,125.5,124.4,124.8,124,124.4"/>
			<path class="st6" d="M123.2,118.7c0.6,0.3,0.9,0.7,1.3,1.3c0.2,0.2,0.3,0.5,0.5,0.7c0.2,0.3,0.3,0.5,0.2,0.8
				c-0.1,0.6-0.2,1-0.6,1.4c-0.4,0.5-0.9,1-1.3,1.4c-0.4,0.5,0.2,1.1,0.7,0.7c0.4-0.3,0.8-0.7,1.1-1c0.3-0.3,0.8-0.6,0.7-1
				c-0.1-0.6-1-0.6-1,0c0-0.1,0-0.1-0.1,0c-0.1,0.1-0.2,0.1-0.2,0.2c-0.1,0.1-0.3,0.2-0.4,0.4c-0.3,0.3-0.6,0.5-0.9,0.8
				c0.2,0.2,0.4,0.4,0.7,0.7c0.5-0.6,1.1-1.1,1.5-1.7c0.5-0.6,0.6-1.2,0.6-2c0-0.8-0.5-1.4-0.9-2c-0.4-0.7-0.9-1.1-1.6-1.6
				C123.1,117.5,122.7,118.3,123.2,118.7"/>
			<path class="st7" d="M128.9,125.8C128.9,125.8,128.9,125.8,128.9,125.8l0.4,0.5c0-0.3,0.2-0.7,0.3-1c0.1-0.3,0-0.6-0.3-0.7
				c0.2,0.3,0.3,0.3,0.2,0.1c0,0,0-0.1,0-0.1c0-0.1,0.1-0.3,0.1-0.4c0.1-0.1,0.1-0.3,0.2-0.4c0.1-0.2,0.2-0.3,0.2-0.5
				c0.3-0.5,0.6-1.1,0.9-1.6c0.8-1.5,1.8-3.1,1.5-4.9c-0.1,0.2-0.2,0.3-0.3,0.5c0,0,0,0,0,0c-0.2-0.2-0.4-0.3-0.6-0.5
				c0.2,1.8-0.8,3.4-1.6,4.9c-0.3,0.5-0.5,1-0.8,1.5c-0.2,0.3-0.3,0.6-0.4,0.9c-0.1,0.4-0.2,1.2,0.3,1.3c0.2,0,0.4,0,0.5-0.2
				c0.4-1,0.9-2,1.5-3c-0.2,0.1-0.4,0.1-0.7,0.2c0,0,0,0,0,0c-0.1-0.2-0.1-0.4-0.2-0.5c-0.3,0.7-0.5,1.5-0.8,2.2
				c-0.1,0.1-0.2,0.3-0.3,0.4c-0.1,0.1-0.2,0.2-0.3,0.3c-0.2,0.3-0.3,0.7-0.4,1c-0.1,0.2,0.1,0.5,0.3,0.6c0,0,0,0,0,0
				c-0.1-0.2-0.2-0.4-0.3-0.6c0,0.1,0,0.2-0.1,0.3c-0.1,0.6,0.8,0.8,0.9,0.3c0-0.1,0-0.2,0.1-0.3c0.1-0.2-0.1-0.5-0.3-0.6
				c0,0,0,0,0,0c0.1,0.2,0.2,0.4,0.3,0.6c0.1-0.2,0.2-0.4,0.2-0.5c0.1-0.2,0-0.1,0.2-0.3c0.3-0.2,0.4-0.5,0.6-0.8
				c0.3-0.7,0.6-1.5,0.9-2.2c0.1-0.2,0-0.5-0.2-0.5c0,0,0,0,0,0c-0.2-0.1-0.5-0.1-0.7,0.2c-0.5,1-1,2-1.5,3c0.2-0.1,0.4-0.1,0.5-0.2
				c0,0,0,0,0,0c0.1,0.1,0.2,0.1,0.3,0.2c-0.1-0.3,0.2-0.8,0.4-1c0.1-0.2,0.2-0.3,0.3-0.5c0.3-0.5,0.6-1,0.8-1.6
				c0.8-1.5,1.7-3.1,1.5-4.9c0-0.3-0.3-0.5-0.6-0.5c0,0,0,0,0,0c-0.2,0-0.4,0.3-0.3,0.5c0.2,1.8-0.9,3.4-1.7,4.9
				c-0.4,0.8-2.1,3.3-0.8,3.8c-0.1-0.2-0.2-0.5-0.3-0.7c-0.2,0.5-0.5,0.9-0.5,1.4c0,0.3,0.2,0.5,0.5,0.5c0,0,0,0,0,0
				C129.5,126.8,129.5,125.8,128.9,125.8"/>
			<path class="st7" d="M130.2,122.1c-0.5,0.9-0.9,1.8-1.3,2.7c-0.2,0.4,0.2,1,0.7,0.7c0.4-0.3,0.6-0.7,0.8-1.1
				c0.3-0.6,0.5-1.2,0.7-1.8c0.2-0.6-0.7-0.8-0.9-0.3c-0.2,0.5-0.3,1-0.5,1.4c-0.1,0.3-0.3,0.7-0.6,0.9c0.2,0.2,0.4,0.4,0.7,0.7
				c0.4-0.9,0.8-1.8,1.3-2.7C131.3,122,130.5,121.6,130.2,122.1"/>
			<path class="st7" d="M131.6,116.8c0.2,1.2-0.3,2.4-0.9,3.5c-0.6,1.1-1.2,2.2-1.8,3.3c-0.2,0.4-0.4,1-0.3,1.5
				c0.2,0.5,0.7,0.5,1,0.2c0.4-0.3,0.6-0.8,0.7-1.2c0.2-0.6,0.5-1.2,0.7-1.8c0.2-0.5-0.6-0.8-0.9-0.4c-0.4,0.7-0.8,1.5-1.1,2.2
				c-0.2,0.4-0.3,0.7-0.5,1.1c-0.2,0.4-0.3,0.7-0.3,1.1c0,0.5,0.8,0.7,0.9,0.1c0-0.1,0-0.2,0.1-0.3c0.1-0.6-0.8-0.8-0.9-0.3
				c0,0.1,0,0.2-0.1,0.3l0.9,0.1c0-0.3,0.2-0.7,0.3-1c0.2-0.3,0.3-0.7,0.5-1c0.3-0.7,0.6-1.3,1-1.9c-0.3-0.1-0.6-0.2-0.9-0.4
				c-0.2,0.5-0.4,1-0.6,1.6c-0.1,0.2-0.2,0.4-0.3,0.6c-0.1,0.1-0.1,0.2-0.2,0.3c0,0-0.1,0.1-0.1,0.1c-0.1,0.1-0.1,0.1,0,0
				c0.1,0.1,0.3,0.2,0.4,0.2c-0.1-0.2,0.2-0.8,0.3-1c0.2-0.3,0.3-0.6,0.5-1c0.3-0.7,0.7-1.3,1-2c0.7-1.3,1.3-2.6,1.1-4.1
				c0-0.3-0.2-0.5-0.5-0.5C131.9,116.4,131.6,116.6,131.6,116.8"/>
			<path class="st7" d="M132.3,116.4L132.3,116.4l0.4,0.5v-0.6l-0.5,0.5h0l-0.5-0.5v0.6c0,0.2,0.2,0.5,0.5,0.5
				c0.3,0,0.5-0.2,0.5-0.5v-0.6c0-0.3-0.2-0.5-0.5-0.5h0c-0.3,0-0.5,0.2-0.5,0.5v0.6c0,0.3,0.2,0.5,0.5,0.5h0c0.2,0,0.5-0.2,0.5-0.5
				C132.8,116.6,132.6,116.4,132.3,116.4"/>
			<path class="st7" d="M132.8,116.8v-0.6c0-0.2-0.2-0.5-0.5-0.5c-0.3,0-0.5,0.2-0.5,0.5v0.6c0,0.2,0.2,0.5,0.5,0.5
				C132.5,117.3,132.8,117.1,132.8,116.8"/>
			<path class="st8" d="M112.7,115.4C112.7,115.4,112.7,115.3,112.7,115.4l-0.5,0.4c0.4,0,0.8-0.1,1.2-0.1l-0.5-0.5c0,0,0,0,0,0
				c0,0.2,0.2,0.5,0.5,0.5c0.2,0,0.3,0,0.5,0l-0.5-0.5c0,0,0,0,0,0l0.5-0.5c-0.4,0-0.8,0-1.2,0l0.5,0.5c0,0,0,0,0,0
				c0-0.2-0.2-0.5-0.5-0.5c-0.2,0-0.3,0-0.5,0c-0.3,0-0.5,0.2-0.5,0.5c0,0.2,0.2,0.5,0.5,0.5c0.2,0,0.3,0,0.5,0l-0.5-0.5
				c0,0,0,0,0,0c0,0.3,0.2,0.5,0.5,0.5c0.4,0,0.8,0,1.2,0c0.2,0,0.5-0.2,0.5-0.5c0,0,0,0,0,0c0-0.2-0.2-0.5-0.5-0.5
				c-0.2,0-0.3,0-0.5,0l0.5,0.5c0,0,0,0,0,0c0-0.3-0.2-0.5-0.5-0.5c-0.4,0-0.8,0-1.2,0.1c-0.2,0-0.5,0.2-0.5,0.5c0,0,0,0,0,0
				c0,0.3,0.2,0.5,0.5,0.5C112.5,115.8,112.8,115.6,112.7,115.4"/>
			<path class="st8" d="M112.3,115.8c0.4,0,0.8-0.1,1.2-0.1v-1c-0.2,0-0.5,0-0.7,0c-0.6,0-0.6,0.9,0,1c0.4,0,0.8,0,1.2,0
				c0.6-0.1,0.6-1,0-1c-0.4,0-0.8,0-1.2,0v1c0.2,0,0.5,0,0.7,0c0.6,0,0.6-0.9,0-1c-0.4,0-0.8,0-1.2,0.1c-0.3,0-0.5,0.2-0.5,0.5
				C111.8,115.6,112,115.9,112.3,115.8"/>
			<path class="st7" d="M121.8,103.5L121.8,103.5c-0.1,0.2-0.1,0.4-0.2,0.6c0.8-0.4,1.6-0.7,2.5-0.9c0.8-0.2,1.6-0.2,2.3,0.3
				c-0.1-0.2-0.1-0.4-0.2-0.7c0,0,0,0,0,0c0.2-0.1,0.4-0.1,0.7-0.2c-0.8-0.6-1.8-0.6-2.8-0.4c-1,0.2-2,0.5-2.9,1
				c-0.5,0.3-0.1,1.1,0.5,0.8c0.8-0.4,1.6-0.7,2.4-0.8c0.8-0.2,1.6-0.2,2.3,0.3c0.2,0.2,0.5,0,0.7-0.2c0,0,0,0,0,0
				c0.2-0.2,0-0.5-0.2-0.7c-0.8-0.6-1.9-0.6-2.8-0.4c-1,0.2-2,0.5-2.9,1c-0.2,0.1-0.3,0.4-0.2,0.7l0,0
				C121.2,104.6,122.1,104.1,121.8,103.5"/>
			<path class="st7" d="M121.6,104.2c0.8-0.4,1.6-0.7,2.5-0.9c0.8-0.1,1.6-0.2,2.3,0.3c0.5,0.3,1-0.5,0.5-0.8
				c-0.8-0.5-1.8-0.6-2.7-0.4c-1,0.2-2.1,0.5-3,1C120.6,103.7,121,104.5,121.6,104.2"/>
			<path class="st9" d="M96.7,79.3c-1.8-2-4.4-2.9-6.8-3.7c0.1,0.2,0.2,0.4,0.3,0.6c0,0,0,0,0,0c-0.2,0.1-0.4,0.2-0.6,0.3
				c2.3,0.8,4.8,1.6,6.4,3.5v-0.7c0,0,0,0,0,0c-0.5,0.4,0.2,1.1,0.7,0.7c0,0,0,0,0,0C96.9,79.8,96.9,79.5,96.7,79.3
				c-1.8-2-4.4-2.9-6.8-3.8c-0.3-0.1-0.5,0.1-0.6,0.3c0,0,0,0,0,0c-0.1,0.3,0.1,0.5,0.3,0.6c2.3,0.8,4.8,1.6,6.4,3.5
				C96.4,80.4,97.1,79.8,96.7,79.3"/>
			<path class="st9" d="M89.6,76.5c2.3,0.8,4.8,1.6,6.4,3.5c0.4,0.5,1.1-0.2,0.7-0.7c-1.8-2-4.4-2.9-6.9-3.7
				C89.2,75.4,89,76.3,89.6,76.5"/>
			<path class="st9" d="M90.3,105.5C90.3,105.5,90.3,105.5,90.3,105.5c0,0.2,0.1,0.4,0.1,0.6c0.7-1.4,1.4-2.8,1.8-4.4
				c0.4-1.5,0.5-3,1.4-4.3c-0.2,0.1-0.4,0.1-0.7,0.2c0,0,0,0,0,0c-0.1-0.2-0.1-0.4-0.2-0.5c-0.2,0.5-0.3,1.1-0.4,1.6
				c0.2-0.1,0.4-0.2,0.6-0.3c0,0,0,0,0,0c0.1,0.2,0.2,0.4,0.3,0.6c0.1-0.5,0.2-1,0.4-1.5c0.1-0.5-0.6-0.8-0.9-0.4
				c-0.8,1.3-0.9,2.8-1.3,4.2c-0.4,1.5-1.1,2.9-1.8,4.3c-0.3,0.5,0.5,1,0.8,0.5c0.7-1.4,1.4-2.8,1.8-4.2c0.4-1.4,0.5-3,1.3-4.3
				c-0.3-0.1-0.6-0.2-0.9-0.4c-0.1,0.5-0.3,1-0.4,1.5c-0.1,0.2,0.1,0.5,0.3,0.6c0,0,0,0,0,0c0.2,0.1,0.5-0.1,0.6-0.3
				c0.1-0.5,0.3-1.1,0.4-1.6c0.1-0.2,0-0.4-0.2-0.5c0,0,0,0,0,0c-0.2-0.1-0.5-0.1-0.7,0.2c-0.9,1.3-1,2.8-1.4,4.2
				c-0.4,1.5-1.1,3-1.8,4.4c-0.1,0.2-0.1,0.5,0.2,0.7c0,0,0,0,0,0C90.3,106.6,90.8,105.8,90.3,105.5"/>
			<path class="st9" d="M90.4,106.1c0.7-1.4,1.4-2.8,1.8-4.2c0.5-1.5,0.5-3.1,1.4-4.4c-0.3-0.1-0.6-0.2-0.9-0.4
				c-0.2,0.5-0.3,1.1-0.4,1.6c-0.1,0.6,0.8,0.8,0.9,0.3c0.1-0.6,0.3-1.1,0.4-1.6c0.2-0.5-0.6-0.8-0.9-0.4c-0.9,1.3-1,2.9-1.4,4.3
				c-0.4,1.5-1.1,2.9-1.8,4.3C89.3,106.2,90.2,106.7,90.4,106.1"/>
			<path class="st10" d="M80.2,110.3c-1.5-0.5-3-0.9-4.6-0.7c0.2,0.1,0.4,0.2,0.6,0.3c0,0,0,0,0,0c-0.1,0.2-0.2,0.4-0.3,0.6
				c1.4-0.2,2.8,0.2,4.1,0.7c-0.1-0.2-0.2-0.4-0.3-0.6c0,0,0,0,0,0c-0.2,0.6,0.7,0.8,0.9,0.3c0,0,0,0,0,0
				C80.7,110.6,80.5,110.4,80.2,110.3c-1.5-0.5-3-1-4.6-0.7c-0.3,0-0.4,0.4-0.3,0.6c0,0,0,0,0,0c0.1,0.3,0.3,0.4,0.6,0.3
				c1.4-0.2,2.8,0.2,4.1,0.7C80.6,111.4,80.8,110.5,80.2,110.3"/>
			<path class="st10" d="M75.9,110.6c1.4-0.2,2.8,0.2,4.1,0.7c0.6,0.2,0.8-0.7,0.3-0.9c-1.5-0.5-3-0.9-4.6-0.7
				C75.1,109.7,75.3,110.7,75.9,110.6"/>
			<path class="st11" d="M73.3,110.6C73.3,110.6,73.3,110.6,73.3,110.6c-0.1,0.2-0.1,0.4-0.2,0.6c0.2-0.2,0.5-0.3,0.7-0.5
				C73.7,110.6,73.4,110.6,73.3,110.6C73.2,110.5,73.2,110.6,73.3,110.6c0-0.2,0-0.4,0.1-0.7c-0.2,0.2-0.5,0.3-0.7,0.5
				c-0.2,0.1-0.3,0.4-0.2,0.7c0.1,0.2,0.4,0.3,0.7,0.2c0.2-0.2,0.5-0.3,0.7-0.5c0.2-0.1,0.3-0.4,0.2-0.7c0,0,0,0,0,0
				c-0.1-0.2-0.4-0.3-0.7-0.2c-0.2,0.2-0.5,0.3-0.7,0.5c-0.2,0.1-0.3,0.4-0.2,0.7c0,0,0,0,0,0c0.1,0.2,0.4,0.3,0.7,0.2
				C73.4,111.1,73.5,110.8,73.3,110.6"/>
			<path class="st11" d="M73.1,111.2c0.2-0.2,0.5-0.3,0.7-0.5c0.2-0.1,0.3-0.4,0.2-0.7c-0.1-0.2-0.4-0.3-0.7-0.2
				c-0.2,0.2-0.5,0.3-0.7,0.5c-0.2,0.1-0.3,0.4-0.2,0.7C72.6,111.2,72.9,111.4,73.1,111.2"/>
			<path class="st12" d="M75.3,108.5l-0.9,0l0.5,0.5c0,0,0,0,0,0l-0.5,0.5c0.3,0,0.7-0.1,1-0.1c0.6-0.1,0.6-0.9,0-1
				c-0.3,0-0.6,0-0.9-0.1l0.5,0.5c0,0,0,0,0,0l-0.5,0.5c0.4,0,0.8,0.1,1.1,0.1l-0.5-0.5c0,0,0,0,0,0l0.5-0.5c-0.3,0-0.5,0-0.8,0.1
				c-0.6,0.1-0.6,0.9,0,1c0.1,0,0.3,0,0.4,0l-0.5-0.5c0,0,0,0,0,0c0,0.6,0.9,0.6,1,0c0,0,0,0,0,0C75.8,108.6,75.5,108.4,75.3,108.5
				c-0.1,0-0.3,0-0.4,0v1c0.3,0,0.5,0,0.8-0.1c0.3,0,0.5-0.2,0.5-0.5c0,0,0,0,0,0c0-0.3-0.2-0.5-0.5-0.5c-0.4,0-0.8-0.1-1.1-0.1
				c-0.3,0-0.5,0.2-0.5,0.5c0,0,0,0,0,0c0,0.3,0.2,0.5,0.5,0.5c0.3,0,0.6,0,0.9,0.1v-1c-0.3,0-0.7,0.1-1,0.1c-0.2,0-0.5,0.2-0.5,0.5
				c0,0,0,0,0,0c0,0.3,0.2,0.5,0.5,0.5l0.9,0C75.9,109.4,75.9,108.5,75.3,108.5"/>
			<path class="st12" d="M75.3,108.5c-0.3,0-0.6,0-0.9,0v1c0.4,0,0.8-0.1,1.3-0.1c0.6-0.1,0.6-0.9,0-1c-0.4,0-0.8-0.1-1.1-0.1
				c-0.3,0-0.5,0.2-0.5,0.5c0,0.3,0.2,0.5,0.5,0.5c0.4,0,0.8,0.1,1.1,0.1v-1c-0.4,0-0.8,0.1-1.3,0.1c-0.6,0.1-0.6,0.9,0,1
				c0.3,0,0.6,0,0.9,0C75.9,109.4,75.9,108.5,75.3,108.5"/>
			<path class="st12" d="M81.1,109.7c-1-0.4-2.1-0.4-3-0.8c0.1,0.2,0.2,0.4,0.3,0.6c0,0,0,0,0,0c-0.2,0.1-0.4,0.2-0.6,0.3
				c0.9,0.3,1.9,0.3,2.8,0.7c-0.1-0.2-0.1-0.4-0.2-0.7c0,0,0,0,0,0c-0.3,0.5,0.6,1,0.8,0.5c0,0,0,0,0,0
				C81.4,110.1,81.3,109.8,81.1,109.7c-1-0.5-2-0.4-3-0.8c-0.3-0.1-0.5,0.1-0.6,0.3c0,0,0,0,0,0c-0.1,0.3,0.1,0.5,0.3,0.6
				c0.9,0.3,1.9,0.3,2.8,0.7C81.1,110.8,81.6,110,81.1,109.7"/>
			<path class="st12" d="M77.8,109.9c0.9,0.3,1.9,0.3,2.8,0.7c0.6,0.3,1-0.6,0.5-0.8c-1-0.4-2.1-0.4-3-0.8
				C77.4,108.7,77.2,109.7,77.8,109.9"/>
			<path class="st12" d="M86.1,112.1c-0.4-0.3-0.9-0.6-1.5-0.8c0.1,0.2,0.2,0.4,0.3,0.6c0,0,0,0,0,0c-0.2,0.1-0.4,0.2-0.6,0.3
				c0.5,0.2,0.9,0.4,1.3,0.7c-0.1-0.2-0.1-0.4-0.2-0.7c0,0,0,0,0,0c-0.2,0.2,0,0.5,0.2,0.7c0.2,0.1,0.5,0,0.7-0.2c0,0,0,0,0,0
				C86.5,112.5,86.3,112.2,86.1,112.1c-0.4-0.4-0.9-0.6-1.5-0.8c-0.3-0.1-0.5,0.1-0.6,0.3c0,0,0,0,0,0c-0.1,0.3,0.1,0.5,0.3,0.6
				c0.4,0.2,0.9,0.4,1.2,0.7c0.2,0.2,0.5,0,0.7-0.2C86.4,112.5,86.3,112.2,86.1,112.1"/>
			<path class="st12" d="M84.4,112.2c0.5,0.2,0.9,0.4,1.2,0.7c0.2,0.2,0.5,0,0.7-0.2c0.1-0.2,0-0.5-0.2-0.7
				c-0.4-0.3-0.9-0.6-1.5-0.8C84.1,111.1,83.8,112,84.4,112.2"/>
			<path class="st13" d="M81.2,90.2c-0.5-1.2-1.4-2.2-2-3.3c-0.6-1.1-1.1-2.2-1.8-3.3c-1.2-2.1-3.1-4-3.8-6.4
				c-0.1,0.2-0.2,0.4-0.3,0.6l0,0c-0.2-0.1-0.4-0.2-0.6-0.3c0.7,2.4,2.6,4.3,3.8,6.5c0.6,1.1,1.2,2.3,1.8,3.4c0.6,1.1,1.5,2.1,2,3.3
				c0.1-0.2,0.1-0.4,0.2-0.7c0,0,0,0,0,0c-0.6,0.2-0.1,1.1,0.5,0.8c0,0,0,0,0,0C81.4,90.7,81.4,90.3,81.2,90.2
				c-0.5-1.2-1.3-2.2-2-3.3c-0.6-1.1-1.1-2.2-1.8-3.3c-1.2-2.1-3.1-4-3.8-6.4c-0.1-0.2-0.3-0.4-0.6-0.3l0,0
				c-0.2,0.1-0.4,0.3-0.3,0.6c0.7,2.5,2.6,4.3,3.8,6.5c0.6,1.1,1.2,2.3,1.8,3.4c0.6,1.1,1.5,2.1,2,3.3
				C80.7,91.2,81.5,90.7,81.2,90.2"/>
			<path class="st13" d="M81.3,90.1c-0.6-1.2-1.4-2.2-2.1-3.4c-0.7-1.1-1.2-2.3-1.8-3.4c-1.2-2-3-3.8-3.7-6.1
				c-0.2-0.6-1.1-0.3-0.9,0.3c0.7,2.4,2.5,4.1,3.7,6.2c0.7,1.2,1.2,2.4,1.9,3.6c0.7,1.1,1.5,2.2,2.1,3.4
				C80.7,91.2,81.5,90.7,81.3,90.1"/>
			<path class="st9" d="M76,76.1C76,76.1,76,76.1,76,76.1c-0.1,0.2-0.2,0.3-0.3,0.5c3.2-0.6,6.4-0.8,9.7-0.5l-0.5-0.5c0,0,0,0,0,0
				l0.5-0.5c-3.3-0.3-6.6-0.1-9.9,0.5c-0.6,0.1-0.3,1,0.3,0.9c3.2-0.6,6.4-0.8,9.6-0.5c0.3,0,0.5-0.2,0.5-0.5c0,0,0,0,0,0
				c0-0.3-0.2-0.5-0.5-0.5c-3.3-0.3-6.6-0.1-9.9,0.5c-0.3,0.1-0.4,0.3-0.3,0.6c0,0,0,0,0,0C75.2,77,76.1,76.7,76,76.1"/>
			<path class="st9" d="M75.6,76.7c3.2-0.6,6.4-0.8,9.7-0.5c0.6,0.1,0.6-0.9,0-1c-3.3-0.3-6.6-0.1-9.9,0.5
				C74.8,75.9,75,76.8,75.6,76.7"/>
			<path class="st14" d="M79.6,149.4c-0.4-0.4-0.8-0.8-1.1-1.2c-0.3-0.4-0.5-0.8-0.8-1.1c-0.4-0.4-0.9-0.6-1.3-0.9
				c-0.5-0.3-1-0.5-1.5-0.8c0.1,0.2,0.1,0.4,0.2,0.7c0,0,0,0,0,0c-0.2,0.1-0.4,0.1-0.7,0.2c0.5,0.2,1,0.5,1.5,0.7
				c0.4,0.2,0.9,0.5,1.2,0.8c0.3,0.3,0.5,0.8,0.8,1.1c0.3,0.4,0.7,0.8,1.1,1.2v-0.7c0,0,0,0,0,0c-0.4,0.5,0.3,1.1,0.7,0.7
				c0,0,0,0,0,0C79.8,149.9,79.8,149.6,79.6,149.4c-0.4-0.4-0.7-0.8-1.1-1.3c-0.3-0.4-0.5-0.8-0.8-1.2c-0.4-0.4-0.8-0.6-1.3-0.9
				c-0.5-0.3-1-0.5-1.5-0.8c-0.2-0.1-0.5-0.1-0.7,0.2c0,0,0,0,0,0c-0.1,0.2-0.1,0.5,0.2,0.7c0.5,0.2,0.9,0.4,1.4,0.7
				c0.4,0.3,1,0.5,1.3,0.9c0.3,0.3,0.5,0.7,0.7,1.1c0.3,0.4,0.7,0.8,1.1,1.2C79.4,150.5,80.1,149.8,79.6,149.4"/>
			<path class="st14" d="M74.4,146.2c0.5,0.2,0.9,0.4,1.4,0.7c0.4,0.2,1,0.5,1.3,0.9c0.3,0.4,0.5,0.8,0.8,1.2c0.3,0.4,0.6,0.8,1,1.1
				c0.4,0.4,1.1-0.3,0.7-0.7c-0.4-0.4-0.8-0.7-1.1-1.2c-0.3-0.4-0.5-0.9-0.9-1.2c-0.7-0.7-1.8-1.2-2.8-1.6
				C74.4,145.2,73.9,146,74.4,146.2"/>
			<path class="st15" d="M64.8,142.2c-0.9-0.1-1.7-0.2-2.6-0.3l0.5,0.5c0,0,0,0,0,0l-0.5,0.5c0.8,0.1,1.6,0.1,2.4,0.2
				c-0.1-0.2-0.2-0.4-0.3-0.6c0,0,0,0,0,0c-0.1,0.6,0.8,0.9,0.9,0.3c0,0,0,0,0,0C65.1,142.6,65,142.2,64.8,142.2
				c-0.9-0.2-1.7-0.3-2.6-0.3c-0.3,0-0.5,0.2-0.5,0.5c0,0,0,0,0,0c0,0.3,0.2,0.5,0.5,0.5c0.8,0.1,1.6,0.1,2.4,0.2
				c0.3,0,0.5-0.1,0.6-0.3C65.1,142.6,65,142.3,64.8,142.2"/>
			<path class="st15" d="M62.1,142.9c0.8,0.1,1.6,0.1,2.4,0.2c0.3,0,0.5-0.1,0.6-0.3c0.1-0.2-0.1-0.6-0.3-0.6
				c-0.9-0.1-1.7-0.2-2.6-0.3C61.5,141.9,61.5,142.9,62.1,142.9"/>
			<path class="st16" d="M69.4,143.1c-0.2,0-0.5,0-0.7,0l0.5,0.5c0,0,0,0,0,0l-0.5,0.5c0.7,0,1.3,0,2-0.1c0.7-0.1,1.3-0.4,1.9-0.3
				l-0.5-0.5c0,0,0,0,0,0l0.5-0.5C71.5,142.5,70.5,143.1,69.4,143.1c-0.6,0-0.6,1,0,1c0.6,0,1.1-0.1,1.6-0.2c0.5-0.1,1-0.3,1.6-0.3
				c0.3,0,0.4-0.2,0.5-0.5c0,0,0,0,0,0c0-0.3-0.2-0.5-0.5-0.5c-0.7-0.1-1.3,0.1-1.9,0.3c-0.7,0.2-1.3,0.2-2,0.1
				c-0.3,0-0.5,0.2-0.5,0.5c0,0,0,0,0,0c0,0.3,0.2,0.5,0.5,0.5c0.2,0,0.5,0,0.7,0C70,144,70,143.1,69.4,143.1"/>
			<path class="st16" d="M68.7,144c0.7,0,1.4,0,2-0.1c0.6-0.1,1.3-0.4,1.9-0.3c0.6,0,0.6-0.9,0-1c-0.7,0-1.3,0.1-1.9,0.3
				c-0.7,0.2-1.3,0.2-2,0.1C68.1,143,68.1,143.9,68.7,144"/>
			<path class="st17" d="M69.3,142.3c-0.6,0-1.1-0.1-1.7-0.3c0.1,0.2,0.2,0.4,0.3,0.6c0,0,0,0,0,0c-0.2,0.1-0.4,0.2-0.6,0.3
				c1,0.4,2.1,0.4,3.1,0.2c-0.2-0.1-0.4-0.2-0.6-0.3c0,0,0,0,0,0c0.1-0.2,0.2-0.4,0.3-0.6C69.9,142.3,69.6,142.3,69.3,142.3
				c-0.6,0-0.6,1,0,1c0.4,0,0.8,0,1.2-0.1c0.3,0,0.4-0.4,0.3-0.6c0,0,0,0,0,0c-0.1-0.3-0.3-0.4-0.6-0.3c-0.9,0.2-1.8,0.1-2.6-0.2
				c-0.3-0.1-0.5,0.1-0.6,0.3c0,0,0,0,0,0c-0.1,0.3,0.1,0.5,0.3,0.6c0.6,0.2,1.3,0.3,2,0.3C69.9,143.3,69.9,142.3,69.3,142.3"/>
			<path class="st17" d="M67.3,142.9c1,0.4,2.1,0.4,3.1,0.2c0.6-0.1,0.3-1-0.3-0.9c-0.9,0.2-1.8,0.1-2.6-0.2
				C67,141.8,66.8,142.7,67.3,142.9"/>
			<path class="st17" d="M60.2,141.6c-0.4,0-0.7,0-1.1,0l0.5,0.5l0,0l-0.5,0.5c1.1,0.1,2.3,0,3.4-0.1c-0.2-0.1-0.4-0.2-0.6-0.3
				c0,0,0,0,0,0c0.1-0.2,0.2-0.4,0.3-0.6C61.6,141.5,60.9,141.6,60.2,141.6c-0.6,0-0.6,1,0,1c0.8,0,1.6-0.1,2.3-0.2
				c0.3,0,0.4-0.4,0.3-0.6c0,0,0,0,0,0c0-0.3-0.4-0.4-0.6-0.3c-1,0.1-2.1,0.2-3.2,0.1c-0.3,0-0.5,0.2-0.5,0.5l0,0
				c0,0.3,0.2,0.5,0.5,0.5c0.4,0,0.7,0,1.1,0C60.8,142.5,60.8,141.6,60.2,141.6"/>
			<path class="st17" d="M59.1,142.5c1.1,0.1,2.3,0,3.4-0.1c0.6-0.1,0.3-1-0.3-0.9c-1,0.1-2.1,0.2-3.2,0.1
				C58.5,141.5,58.5,142.4,59.1,142.5"/>
			<path class="st17" d="M54.1,141.9C54.1,141.9,54.1,141.9,54.1,141.9c-0.1,0.2-0.2,0.3-0.3,0.5c0.4-0.1,0.8-0.2,1.1-0.3
				c-0.2-0.1-0.4-0.2-0.6-0.3c0,0,0,0,0,0c0.1-0.2,0.2-0.4,0.3-0.6c-0.4,0.1-0.8,0.2-1.1,0.3c-0.6,0.1-0.3,1.1,0.3,0.9
				c0.4-0.1,0.8-0.2,1.1-0.3c0.2-0.1,0.4-0.3,0.3-0.6c0,0,0,0,0,0c-0.1-0.2-0.3-0.4-0.6-0.3c-0.4,0.1-0.8,0.2-1.1,0.3
				c-0.3,0.1-0.4,0.3-0.3,0.6c0,0,0,0,0,0C53.3,142.7,54.3,142.5,54.1,141.9"/>
			<path class="st17" d="M53.8,142.4c0.4-0.1,0.8-0.2,1.1-0.3c0.6-0.2,0.3-1.1-0.3-0.9c-0.4,0.1-0.8,0.2-1.1,0.3
				C52.9,141.7,53.2,142.6,53.8,142.4"/>
			<path class="st18" d="M60.3,136.4C60.3,136.4,60.3,136.4,60.3,136.4c0,0.2,0.1,0.4,0.1,0.6c0.3-0.6,0.5-1.1,0.8-1.7
				c0.3-0.7,0.6-1.4,1-2.1c-0.2,0.1-0.4,0.1-0.7,0.2c0,0,0,0,0,0c-0.1-0.2-0.1-0.4-0.2-0.7c-0.4,0.6-0.7,1.4-1,2.1
				c-0.3,0.6-0.5,1.1-0.8,1.7c-0.3,0.6,0.6,1,0.8,0.5c0.3-0.6,0.5-1.1,0.8-1.7c0.3-0.7,0.6-1.4,1-2.1c0.1-0.2,0-0.5-0.2-0.7
				c0,0,0,0,0,0c-0.2-0.2-0.5,0-0.7,0.2c-0.4,0.6-0.7,1.4-1,2.1c-0.3,0.6-0.5,1.1-0.8,1.7c-0.1,0.2-0.1,0.5,0.2,0.7c0,0,0,0,0,0
				C60.4,137.5,60.9,136.7,60.3,136.4"/>
			<path class="st18" d="M60.5,137.1c0.3-0.7,0.6-1.3,0.9-2c0.3-0.6,0.5-1.2,0.9-1.8c0.3-0.5-0.5-1-0.8-0.5
				c-0.4,0.6-0.6,1.2-0.9,1.8l-0.9,2C59.4,137.1,60.2,137.6,60.5,137.1"/>
			<path class="st18" d="M59.3,138.4C59.2,138.4,59.2,138.4,59.3,138.4c0,0.2,0.1,0.4,0.1,0.6c0.3-0.7,0.8-1.4,1.2-2.1
				c-0.2,0.1-0.4,0.1-0.7,0.2c0,0,0,0,0,0c-0.1-0.2-0.1-0.4-0.2-0.5c-0.2,0.5-0.4,1-0.8,1.4c0.2-0.1,0.4-0.1,0.7-0.2c0,0,0,0,0,0
				c0.1,0.2,0.1,0.4,0.2,0.7c0.3-0.5,0.6-0.9,0.8-1.5c0.2-0.5-0.6-0.8-0.9-0.4c-0.4,0.6-0.8,1.2-1.1,1.9c-0.3,0.6,0.6,1,0.8,0.5
				c0.3-0.7,0.7-1.3,1.1-1.9c-0.3-0.1-0.6-0.2-0.9-0.4c-0.2,0.4-0.4,0.9-0.7,1.2c-0.2,0.2,0,0.5,0.2,0.7c0,0,0,0,0,0
				c0.2,0.2,0.5,0,0.7-0.2c0.4-0.5,0.6-1,0.9-1.6c0.1-0.2,0-0.4-0.2-0.5c0,0,0,0,0,0c-0.2-0.1-0.5,0-0.7,0.2
				c-0.5,0.6-0.9,1.3-1.2,2.1c-0.1,0.2-0.1,0.5,0.2,0.7c0,0,0,0,0,0C59.3,139.5,59.8,138.6,59.3,138.4"/>
			<path class="st18" d="M59.8,138.5c0.4-0.5,0.6-1,0.9-1.6c0.2-0.6-0.6-0.8-0.9-0.4c-0.5,0.6-0.9,1.3-1.2,2.1
				c-0.3,0.6,0.6,1,0.8,0.5c0.3-0.7,0.8-1.4,1.2-2.1c-0.3-0.1-0.6-0.2-0.9-0.4c-0.2,0.5-0.4,1-0.8,1.4
				C58.7,138.5,59.5,139,59.8,138.5"/>
			<path class="st19" d="M63.8,129.2L63.8,129.2c0,0.2,0.1,0.4,0.1,0.6c0.2-0.3,0.5-0.5,0.7-0.7c0.2-0.1,0.3-0.3,0.2-0.5
				c-0.3-0.9-1.1-1-1.9-1c-0.9-0.1-1.9-0.1-2.9-0.1l0.5,0.5c0,0,0,0,0,0l-0.5,0.5c0.7,0,1.5,0,2.2,0c0.4,0,1.6,0,1.7,0.5
				c0.1-0.2,0.1-0.4,0.2-0.5c-0.4,0.3-0.8,0.7-1.1,1.1c-0.4,0.5,0.5,1,0.8,0.5c0.2-0.3,0.5-0.5,0.7-0.7c0.2-0.1,0.3-0.3,0.2-0.5
				c-0.2-0.9-1.2-1-1.9-1.1c-1-0.1-2-0.1-2.9-0.1c-0.3,0-0.5,0.2-0.5,0.5c0,0,0,0,0,0c0,0.3,0.2,0.5,0.5,0.5c0.7,0,1.4,0,2.1,0
				c0.3,0,0.7,0,1,0.1c0.2,0,0.7,0,0.8,0.3c0.1-0.2,0.1-0.4,0.2-0.5c-0.4,0.3-0.8,0.6-1.1,1.1c-0.2,0.2,0,0.5,0.2,0.7l0,0
				C63.8,130.3,64.3,129.5,63.8,129.2"/>
			<path class="st19" d="M60.1,128.3c0.7,0,1.4,0,2.1,0c0.3,0,0.7,0,1,0.1c0.3,0,0.7,0.1,0.8,0.4c0.1-0.2,0.1-0.4,0.2-0.5
				c-0.4,0.3-0.8,0.6-1.1,1.1c-0.4,0.5,0.5,1,0.8,0.5c0.2-0.3,0.5-0.5,0.7-0.7c0.2-0.1,0.3-0.3,0.2-0.5c-0.3-0.9-1.2-1-1.9-1.1
				c-0.9-0.1-1.9-0.1-2.9-0.1C59.5,127.4,59.5,128.3,60.1,128.3"/>
			<path class="st20" d="M66.7,130.3C66.7,130.3,66.7,130.3,66.7,130.3l0,0.6c0.5-0.4,1-0.8,1.5-1.2h-0.7c0,0,0,0,0,0v-0.7
				c-0.5,0.4-1,0.8-1.5,1.2c-0.2,0.2-0.2,0.5,0,0.7c0.2,0.2,0.5,0.2,0.7,0c0.5-0.4,1-0.8,1.5-1.2c0.2-0.2,0.1-0.5,0-0.7c0,0,0,0,0,0
				c-0.2-0.2-0.5-0.1-0.7,0c-0.5,0.4-1,0.8-1.5,1.2c-0.2,0.2-0.1,0.5,0,0.7c0,0,0,0,0,0c0.2,0.2,0.5,0.2,0.7,0
				C66.9,130.8,66.9,130.5,66.7,130.3"/>
			<path class="st20" d="M66.7,131c0.5-0.4,1-0.8,1.5-1.2c0.2-0.2,0.2-0.5,0-0.7c-0.2-0.2-0.5-0.2-0.7,0c-0.5,0.4-1,0.8-1.5,1.2
				c-0.2,0.2-0.2,0.5,0,0.7C66.2,131.2,66.5,131.2,66.7,131"/>
			<path class="st20" d="M65,130.9C65,130.9,65,130.9,65,130.9l-0.5,0.4c0.6,0,1.2,0,1.9-0.1c0.6,0,0.6-0.9,0-1c-0.1,0-0.2,0-0.2,0
				l0.5,0.5c0,0,0,0,0,0l-0.5,0.5c0.3,0,0.5,0,0.8,0l-0.5-0.5c0,0,0,0,0,0l0.5-0.5c-0.8,0-1.6,0.1-2.4,0.1c-0.6,0-0.6,1,0,1
				c0.8,0,1.6-0.1,2.4-0.1c0.3,0,0.5-0.2,0.5-0.5c0,0,0,0,0,0c0-0.3-0.2-0.5-0.5-0.5c-0.3,0-0.5,0-0.8,0c-0.3,0-0.5,0.2-0.5,0.5
				c0,0,0,0,0,0c0,0.3,0.2,0.5,0.5,0.5c0.1,0,0.2,0,0.2,0v-1c-0.6,0-1.2,0-1.9,0.1c-0.3,0-0.5,0.2-0.5,0.5c0,0,0,0,0,0
				C64.1,131.5,65,131.5,65,130.9"/>
			<path class="st20" d="M64.5,131.3c0.8,0,1.6-0.1,2.4-0.1c0.6,0,0.6-0.9,0-1c-0.3,0-0.5,0-0.8,0c-0.6,0-0.6,0.9,0,1
				c0.3,0,0.5,0,0.8,0v-1c-0.8,0-1.6,0.1-2.4,0.1C63.9,130.4,63.9,131.4,64.5,131.3"/>
			<path class="st21" d="M62.4,77C62.4,77,62.4,77,62.4,77c-0.1,0.2-0.2,0.3-0.3,0.5c2.1-0.6,4.2-0.8,6.4-0.6L68,76.5c0,0,0,0,0,0
				l0.5-0.5c-2.2-0.1-4.5,0.1-6.6,0.7c-0.6,0.2-0.3,1.1,0.3,0.9c2.1-0.6,4.2-0.8,6.4-0.6c0.3,0,0.5-0.2,0.5-0.5c0,0,0,0,0,0
				c0-0.3-0.2-0.5-0.5-0.5c-2.2-0.1-4.5,0.1-6.6,0.7c-0.2,0.1-0.4,0.3-0.3,0.6c0,0,0,0,0,0C61.7,77.9,62.6,77.6,62.4,77"/>
			<path class="st21" d="M62.1,77.6c2.1-0.6,4.2-0.8,6.4-0.6c0.6,0,0.6-0.9,0-1c-2.2-0.1-4.5,0.1-6.6,0.7
				C61.3,76.8,61.5,77.8,62.1,77.6"/>
			<path class="st22" d="M56.1,113.6C56.1,113.6,56.1,113.6,56.1,113.6c-0.1,0.2-0.2,0.3-0.3,0.5c0.2-0.1,0.5-0.1,0.7-0.2
				c0.2,0,0.4-0.1,0.5-0.3c0.2-0.3,0.2-0.6,0.1-0.8c-0.1,0.2-0.2,0.4-0.3,0.6c0,0,0,0,0,0c-0.2-0.1-0.4-0.2-0.6-0.3c0,0,0,0.1,0,0.1
				c0,0,0.1-0.1,0.1-0.1c0,0,0.1,0,0,0c-0.1,0-0.1,0-0.2,0c-0.2,0-0.4,0.1-0.5,0.1c-0.3,0.1-0.4,0.3-0.3,0.6
				c0.1,0.3,0.3,0.4,0.6,0.3c0.2-0.1,0.5-0.1,0.7-0.2c0.2-0.1,0.5-0.2,0.6-0.4c0.2-0.3,0.1-0.6,0.1-0.9c0-0.3-0.4-0.4-0.6-0.3
				c0,0,0,0,0,0c-0.3,0.1-0.4,0.3-0.3,0.6c0,0,0,0.1,0,0.1c0,0,0,0,0.1-0.1c0.1,0,0.1-0.1,0,0c0,0,0,0,0,0c-0.1,0-0.2,0-0.2,0.1
				c-0.2,0-0.4,0.1-0.5,0.1c-0.3,0.1-0.4,0.3-0.3,0.6c0,0,0,0,0,0c0.1,0.3,0.3,0.4,0.6,0.3C56,114.1,56.1,113.8,56.1,113.6"/>
			<path class="st22" d="M55.8,114.2c0.2,0,0.4-0.1,0.6-0.1c0.2,0,0.4-0.1,0.5-0.2c0.3-0.3,0.3-0.6,0.2-1c0-0.3-0.4-0.4-0.6-0.3
				c-0.3,0.1-0.4,0.3-0.3,0.6c0,0,0,0.1,0,0.1c0,0,0.1-0.1,0.1-0.1c0,0,0,0,0,0c0,0-0.1,0-0.1,0c-0.2,0-0.5,0.1-0.7,0.1
				c-0.3,0.1-0.4,0.3-0.3,0.6C55.2,114.1,55.5,114.2,55.8,114.2"/>
			<path class="st22" d="M54.4,114.8L54.4,114.8c-0.1,0.2-0.1,0.3-0.1,0.5c0,0,0,0,0,0c0.4-0.3,0-0.9-0.5-0.8c0,0-0.1,0-0.1,0
				c0.2,0.1,0.4,0.1,0.5,0.2c0,0,0,0,0,0c0,0.2,0,0.4-0.1,0.6c0.4-0.3,0.8-0.5,1.2-0.7c-0.2-0.1-0.4-0.1-0.7-0.2c0,0,0,0,0,0
				c0-0.2,0-0.4,0.1-0.6c0,0-0.1,0.1-0.1,0.1c-0.5,0.4,0.1,0.9,0.6,0.7c0.2-0.1,0.4-0.2,0.5-0.3h-0.7c0,0,0,0,0,0v-0.7
				c0,0-0.1,0.1-0.1,0.1c-0.4,0.4,0.1,1,0.6,0.7c0.2-0.1,0.3-0.2,0.4-0.3h-0.7c0,0,0,0,0,0v-0.7c-0.1,0.1-0.2,0.1-0.4,0.2
				c-0.2,0.1-0.3,0.2-0.4,0.4c-0.3,0.2-0.6,0.3-0.9,0.5c-0.5,0.3,0,1.1,0.5,0.8c0.3-0.2,0.7-0.3,1.1-0.6c0.3-0.2,0.6-0.4,0.9-0.6
				c0.2-0.2,0.2-0.5,0-0.7c0,0,0,0,0,0c-0.2-0.2-0.5-0.2-0.7,0c-0.1,0.1-0.1,0.1-0.2,0.1c0.2,0.2,0.4,0.5,0.6,0.7
				c0,0,0.1-0.1,0.1-0.1c0.2-0.2,0.2-0.5,0-0.7c0,0,0,0,0,0c-0.2-0.2-0.5-0.2-0.7,0c-0.2,0.2,0.1,0,0,0.1c-0.1,0-0.2,0.1-0.3,0.1
				c0.2,0.2,0.4,0.5,0.6,0.7c0,0,0.1-0.1,0.1-0.1c0.2-0.1,0.2-0.4,0.1-0.6c0,0,0,0,0,0c-0.1-0.2-0.4-0.3-0.7-0.2
				c-0.5,0.2-1,0.5-1.4,0.9c-0.2,0.1-0.2,0.4-0.1,0.6c0,0,0,0,0,0c0.1,0.2,0.3,0.3,0.5,0.2c0,0,0.1,0,0.1,0
				c-0.2-0.3-0.3-0.5-0.5-0.8c0,0,0,0,0,0c-0.1,0.1-0.2,0.4-0.1,0.6l0,0C54,115.8,54.8,115.3,54.4,114.8"/>
			<path class="st22" d="M54.8,113.9c-0.4,0.2-0.8,0.5-1.2,0.7c-0.2,0.1-0.2,0.4-0.1,0.6c0.1,0.2,0.3,0.3,0.5,0.2
				c0.3-0.1,0.4-0.2,0.6-0.4c0.2-0.1,0.4-0.3,0.6-0.4c0.2-0.2,0.2-0.5,0-0.7C55.2,113.8,54.9,113.8,54.8,113.9
				c-0.2,0.2-0.4,0.2-0.5,0.3c-0.2,0.1-0.3,0.2-0.5,0.4c0.1,0,0.1-0.1,0.2-0.1c0,0-0.1,0-0.1,0c0.2,0.3,0.3,0.5,0.5,0.8
				c0.3-0.2,0.6-0.4,1-0.6c0.2-0.1,0.3-0.4,0.2-0.7C55.3,113.8,55,113.8,54.8,113.9"/>
			<path class="st22" d="M54.4,114.2c-0.1,0.1-0.2,0.1-0.3,0.2c-0.1,0.1-0.2,0.2-0.2,0.3c0,0.1,0,0.3,0,0.4c0.1,0.2,0.4,0.3,0.7,0.2
				c0.1-0.1,0.2-0.1,0.3-0.2c0.1-0.1,0.2-0.2,0.2-0.3c0-0.1,0-0.3,0-0.4c-0.1-0.1-0.2-0.2-0.3-0.2C54.6,114.1,54.5,114.1,54.4,114.2
				c-0.1,0.1-0.2,0.1-0.3,0.2c0.2,0.3,0.3,0.5,0.5,0.8c0.1-0.1,0.2-0.1,0.3-0.2c0.1-0.1,0.2-0.2,0.2-0.3c0-0.1,0-0.3,0-0.4
				C54.9,114.2,54.6,114.1,54.4,114.2"/>
			<path class="st22" d="M54.7,114c-0.2,0.1-0.4,0.3-0.6,0.4c-0.2,0.1-0.3,0.4-0.2,0.7c0.1,0.2,0.4,0.3,0.7,0.2
				c0.4-0.2,0.7-0.4,1-0.6c0.2-0.2,0.2-0.5,0-0.6c-0.2-0.2-0.4-0.2-0.6-0.1C54.9,113.9,54.8,114,54.7,114c-0.2,0.1-0.3,0.4-0.2,0.7
				c0.1,0.2,0.4,0.3,0.7,0.2c0.1-0.1,0.2-0.1,0.3-0.2c-0.2-0.2-0.4-0.5-0.6-0.7c-0.2,0.2-0.5,0.4-0.8,0.5c0.2,0.3,0.3,0.5,0.5,0.8
				c0.2-0.1,0.4-0.3,0.6-0.4c0.2-0.2,0.3-0.4,0.2-0.7C55.2,114,54.9,113.9,54.7,114"/>
			<path class="st22" d="M55.2,113.7c-0.4,0.4-0.9,0.7-1.5,0.8l0.5,0.8c0.4-0.3,0.8-0.5,1.2-0.7c-0.2-0.2-0.4-0.5-0.6-0.7
				c-0.4,0.3-0.7,0.5-1.1,0.8c0.2,0.2,0.4,0.5,0.6,0.7c0.3-0.2,0.6-0.5,1-0.6c0.3-0.2,0.6-0.3,0.9-0.5c0.4-0.4-0.2-1.1-0.7-0.7
				c-0.2,0.2-0.6,0.3-0.9,0.5c-0.3,0.2-0.6,0.4-0.9,0.7c-0.4,0.4,0.1,1,0.6,0.7c0.5-0.3,0.9-0.6,1.3-0.9c0.5-0.4-0.1-0.9-0.6-0.7
				c-0.5,0.2-1,0.5-1.4,0.9c-0.4,0.3,0,0.9,0.5,0.8c0.7-0.2,1.4-0.6,1.9-1.1C56.3,113.9,55.6,113.3,55.2,113.7"/>
			<path class="st23" d="M50,115.7c-0.1-0.1-0.2-0.2-0.4-0.2c-0.1,0-0.3,0-0.4-0.1c-0.2-0.1-0.3-0.5-0.3-0.7l-0.5,0.5c0,0,0,0,0,0
				l-0.5-0.5c0,0.4,0.2,0.8,0.5,1.2c0.1,0.2,0.3,0.3,0.5,0.4c0.1,0,0.3,0,0.4,0.1v-0.7c0,0,0,0,0,0c-0.2,0.2-0.2,0.5,0,0.7
				c0.2,0.2,0.5,0.2,0.7,0c0,0,0,0,0,0C50.2,116.2,50.2,115.9,50,115.7c-0.1-0.1-0.2-0.2-0.3-0.3c-0.1,0-0.3,0-0.4-0.1
				c-0.2-0.1-0.3-0.4-0.3-0.6c0-0.3-0.2-0.5-0.5-0.5c0,0,0,0,0,0c-0.3,0-0.5,0.2-0.5,0.5c0,0.4,0.2,0.8,0.5,1.2
				c0.1,0.1,0.2,0.3,0.4,0.4c0.1,0.1,0.4,0.1,0.5,0.1C49.8,116.8,50.4,116.2,50,115.7"/>
			<path class="st23" d="M48,114.7c0,0.4,0.2,0.8,0.5,1.2c0.1,0.2,0.3,0.3,0.5,0.4c0.1,0,0.3,0,0.4,0.1c0.4,0.4,1.1-0.2,0.7-0.7
				c-0.1-0.1-0.3-0.2-0.4-0.3c-0.1,0-0.2,0-0.3-0.1c-0.2-0.1-0.3-0.5-0.3-0.6C48.9,114.1,48,114.1,48,114.7"/>
			<path class="st24" d="M53.3,109.2c0.1,0,0.1,0,0.2,0.1c0,0,0,0,0,0C53.4,109.2,53.4,109.2,53.3,109.2c0-0.1-0.1-0.2-0.2-0.3
				c0.1,0.2,0.1,0.4,0.2,0.7c0,0,0,0,0,0c-0.2,0.1-0.4,0.1-0.7,0.2c0,0,0.1,0.1,0.1,0.1c0,0-0.1-0.1,0,0c0,0,0.1,0.1,0.1,0.1
				c0.2,0.2,0.4,0.2,0.6,0.2c-0.2-0.1-0.4-0.2-0.6-0.3c0,0,0,0,0,0C53,109.6,53.1,109.4,53.3,109.2
				C53.2,109.2,53.3,109.2,53.3,109.2c-0.2,0-0.5,0.2-0.5,0.5c0,0.2,0.2,0.5,0.5,0.5c0.1,0,0.1,0,0.2,0c0.2-0.1,0.4-0.3,0.3-0.6
				c0,0,0,0,0,0C53.7,109.3,53.5,109.1,53.3,109.2c0-0.1,0.1,0,0.2,0c0,0,0,0,0,0C53.4,109.2,53.4,109.1,53.3,109.2
				c0-0.2-0.1-0.3-0.2-0.3c-0.2-0.1-0.5-0.1-0.7,0.2c0,0,0,0,0,0c-0.1,0.2-0.1,0.5,0.2,0.7c0,0,0,0,0.1,0c0,0-0.1-0.1,0,0
				c0,0,0.1,0.1,0.1,0.1c0.1,0.2,0.3,0.2,0.5,0.2c0.2,0,0.5-0.2,0.5-0.5C53.7,109.4,53.5,109.2,53.3,109.2"/>
			<path class="st24" d="M52.6,109.7C52.6,109.7,52.7,109.8,52.6,109.7C52.7,109.8,52.6,109.7,52.6,109.7c0.1,0.1,0.2,0.1,0.2,0.2
				c0.2,0.2,0.4,0.3,0.7,0.2c0.2-0.1,0.4-0.3,0.3-0.6c-0.1-0.3-0.3-0.4-0.6-0.3c0.1,0,0.2,0,0.3,0.1c0,0,0,0,0,0
				c0,0-0.1-0.1-0.1-0.1c-0.1-0.1-0.2-0.2-0.3-0.2c-0.2-0.1-0.5-0.1-0.7,0.2C52.3,109.3,52.4,109.6,52.6,109.7"/>
			<path class="st24" d="M51.2,109.9C51.2,109.9,51.2,109.9,51.2,109.9l-0.5,0.4c0.6-0.1,1.1-0.2,1.7-0.5c-0.2-0.1-0.4-0.2-0.6-0.3
				c0,0,0,0,0,0c0.1-0.2,0.2-0.4,0.3-0.6c-0.5,0.2-0.9,0.4-1.4,0.4c-0.3,0-0.5,0.2-0.5,0.5c0,0.2,0.2,0.5,0.5,0.5
				c0.6-0.1,1.1-0.2,1.7-0.5c0.2-0.1,0.4-0.3,0.3-0.6c0,0,0,0,0,0c-0.1-0.2-0.3-0.4-0.6-0.3c-0.5,0.2-0.9,0.4-1.4,0.4
				c-0.2,0-0.5,0.2-0.5,0.5c0,0,0,0,0,0C50.3,110.5,51.3,110.5,51.2,109.9"/>
			<path class="st24" d="M52.2,109c-0.5,0.2-0.9,0.4-1.4,0.4c-0.3,0-0.5,0.2-0.5,0.5c0,0.2,0.2,0.5,0.5,0.5c0.6-0.1,1.1-0.2,1.7-0.5
				c0.2-0.1,0.4-0.3,0.3-0.6C52.7,109.1,52.4,108.9,52.2,109"/>
			<path class="st24" d="M51.8,108.3c-0.5-0.3-1-0.6-1.5-0.9c-0.6-0.4-1.3-0.6-2-0.8c-0.7-0.2-1.4-0.6-2.1-0.7l0.5,0.5c0,0,0,0,0,0
				l-0.5,0.5c0.7,0.1,1.3,0.5,2,0.7c0.7,0.2,1.2,0.4,1.8,0.7c0.4,0.3,0.9,0.6,1.3,0.8c-0.1-0.2-0.1-0.4-0.2-0.7c0,0,0,0,0,0
				c-0.3,0.5,0.5,1,0.8,0.5c0,0,0,0,0,0C52.2,108.7,52.1,108.4,51.8,108.3c-0.5-0.3-1-0.7-1.5-1c-0.6-0.4-1.3-0.6-2-0.8
				c-0.7-0.2-1.4-0.6-2.1-0.7c-0.3,0-0.5,0.2-0.5,0.5c0,0,0,0,0,0c0,0.3,0.2,0.4,0.5,0.5c0.7,0.1,1.3,0.5,2,0.7
				c0.6,0.2,1.2,0.4,1.8,0.7c0.4,0.3,0.9,0.6,1.3,0.8C51.9,109.4,52.4,108.6,51.8,108.3"/>
			<path class="st24" d="M51.8,108.3c-0.9-0.5-1.7-1.2-2.7-1.5c-0.5-0.1-1-0.3-1.4-0.4c-0.5-0.2-0.9-0.4-1.4-0.4
				c-0.6-0.1-0.6,0.9,0,1c0.5,0.1,0.9,0.3,1.3,0.5c0.4,0.2,0.9,0.3,1.3,0.4c0.9,0.3,1.7,0.9,2.5,1.4
				C51.9,109.4,52.4,108.6,51.8,108.3"/>
			<path class="st24" d="M47,106.3c-0.3-0.1-0.6-0.3-0.9-0.4c-0.7-0.3-1.4-0.4-2.1-0.6c0.1,0.2,0.2,0.4,0.3,0.6c0,0,0,0,0,0
				c-0.2,0.1-0.4,0.2-0.6,0.3c0.7,0.2,1.3,0.3,2,0.6c0.3,0.1,0.5,0.2,0.8,0.3c-0.1-0.2-0.1-0.4-0.2-0.7c0,0,0,0,0,0
				c-0.2,0.6,0.6,1,0.8,0.5c0,0,0,0,0,0C47.3,106.7,47.3,106.4,47,106.3c-0.3-0.2-0.6-0.3-0.9-0.4c-0.7-0.3-1.4-0.4-2.1-0.6
				c-0.3-0.1-0.5,0.1-0.6,0.3c0,0,0,0,0,0c-0.1,0.2,0.1,0.5,0.3,0.6c0.7,0.2,1.3,0.3,2,0.6c0.3,0.1,0.5,0.2,0.8,0.3
				C47.1,107.4,47.6,106.6,47,106.3"/>
			<path class="st24" d="M47,106.3c-0.5-0.2-0.9-0.4-1.4-0.6c-0.5-0.2-1.1-0.3-1.6-0.4c-0.6-0.2-0.8,0.7-0.3,0.9
				c0.5,0.1,1,0.2,1.5,0.4c0.4,0.1,0.9,0.4,1.3,0.5C47.1,107.4,47.6,106.6,47,106.3"/>
			<path class="st24" d="M49.2,110.8C49.2,110.7,49.2,110.7,49.2,110.8c-0.1,0.2-0.2,0.3-0.3,0.5c0.2-0.1,0.5-0.2,0.7-0.3
				c0.2-0.1,0.4-0.2,0.6-0.3c0.3-0.4,0-0.9-0.5-0.8c-0.5,0.1-1.1,0.3-1.6,0.6c0.2,0.1,0.4,0.1,0.7,0.2c0,0,0,0,0,0
				c-0.1,0.2-0.1,0.4-0.2,0.7c0.5-0.2,0.9-0.4,1.4-0.5c-0.2-0.2-0.4-0.3-0.6-0.5c0,0,0,0,0,0c0-0.1,0.1-0.1,0.1-0.2
				c-0.2,0.2-0.6,0.3-0.8,0.4c-0.6,0.2-0.3,1.1,0.3,0.9c0.5-0.2,1.4-0.4,1.4-1c0-0.3-0.3-0.5-0.6-0.5c-0.6,0.1-1.1,0.3-1.6,0.6
				c-0.2,0.1-0.3,0.4-0.2,0.7c0,0,0,0,0,0c0.1,0.2,0.4,0.3,0.7,0.2c0.4-0.2,0.9-0.4,1.4-0.5c-0.2-0.3-0.3-0.5-0.5-0.8
				c-0.1,0.1-0.3,0.1-0.4,0.2c-0.2,0.1-0.3,0.1-0.5,0.2c-0.2,0.1-0.4,0.3-0.3,0.6c0,0,0,0,0,0C48.5,111.6,49.4,111.3,49.2,110.8"/>
			<path class="st24" d="M48.9,111.3c0.5-0.2,1.2-0.3,1.4-0.9c0.1-0.4-0.2-0.7-0.6-0.6c-0.6,0.1-1.1,0.3-1.6,0.6
				c-0.6,0.3-0.1,1.1,0.5,0.8c0.4-0.2,0.9-0.4,1.4-0.5c-0.2-0.2-0.4-0.4-0.6-0.6l0,0.1c0-0.1,0.1-0.1,0.1-0.2
				c-0.1,0.1-0.3,0.1-0.4,0.2c-0.2,0.1-0.3,0.1-0.5,0.2C48.1,110.6,48.3,111.5,48.9,111.3"/>
			<path class="st25" d="M49.6,111.6C49.6,111.6,49.6,111.6,49.6,111.6c-0.1,0.1-0.2,0.3-0.3,0.4c0.2,0,0.3-0.1,0.5-0.2
				c0.2-0.1,0.5-0.1,0.7-0.1c0.5,0,1.1,0,1.6-0.1l-0.5-0.5l0,0l0.5-0.5c-0.6,0-1.2,0.1-1.8,0.1c-0.2,0-0.5,0-0.7,0.1
				c-0.2,0.1-0.4,0.2-0.6,0.3c-0.6,0.1-0.3,1,0.3,0.9c0.2,0,0.3-0.2,0.5-0.2c0.2-0.1,0.5-0.1,0.7-0.1c0.5,0,1.1,0,1.6-0.1
				c0.2,0,0.5-0.2,0.5-0.5l0,0c0-0.2-0.2-0.5-0.5-0.5c-0.6,0-1.2,0.1-1.8,0.1c-0.2,0-0.5,0-0.7,0.1c-0.2,0.1-0.4,0.2-0.6,0.3
				c-0.2,0-0.3,0.3-0.3,0.5c0,0,0,0,0,0C48.6,112.2,49.6,112.2,49.6,111.6"/>
			<path class="st25" d="M52.1,110.7c-0.6,0-1.2,0.1-1.8,0.1c-0.2,0-0.5,0-0.7,0.1c-0.2,0.1-0.4,0.2-0.6,0.3c-0.6,0.1-0.3,1,0.3,0.9
				c0.2,0,0.3-0.2,0.5-0.2c0.2-0.1,0.5-0.1,0.7-0.1c0.5,0,1.1,0,1.6-0.1C52.7,111.7,52.7,110.7,52.1,110.7"/>
			<path class="st26" d="M49.2,110.7C49.2,110.7,49.2,110.7,49.2,110.7c-0.1,0.2-0.1,0.4-0.2,0.6c0,0,0.1,0,0.1-0.1c0,0-0.1,0-0.1,0
				c0.1,0,0.2-0.1,0.3-0.1c-0.2-0.1-0.4-0.2-0.6-0.3c0,0,0,0,0,0c0.1-0.2,0.2-0.4,0.3-0.6c-0.2,0-0.3,0.1-0.5,0.2
				c-0.2,0.1-0.3,0.4-0.2,0.7c0.1,0.2,0.4,0.3,0.7,0.2c0,0,0.1,0,0.1-0.1c0,0-0.1,0-0.1,0c0.1,0,0.2-0.1,0.2-0.1
				c0.1,0,0.2-0.1,0.3-0.2c0.1-0.1,0.1-0.2,0-0.4c0,0,0,0,0,0c0-0.1-0.1-0.2-0.2-0.3c-0.1-0.1-0.2-0.1-0.4,0c-0.2,0-0.3,0.1-0.5,0.2
				c-0.2,0.1-0.3,0.4-0.2,0.7c0,0,0,0,0,0c0.1,0.2,0.4,0.3,0.7,0.2C49.2,111.2,49.3,111,49.2,110.7"/>
			<path class="st26" d="M49,111.4c0,0,0.1,0,0.1-0.1C49.1,111.3,49.1,111.3,49,111.4c0.1,0,0.2-0.1,0.3-0.1c0.2,0,0.4-0.4,0.3-0.6
				c-0.1-0.3-0.3-0.4-0.6-0.3c-0.2,0-0.3,0.1-0.5,0.2c-0.2,0.1-0.3,0.4-0.2,0.7C48.5,111.4,48.8,111.5,49,111.4"/>
			<path class="st26" d="M49.1,110.7C49.1,110.7,49.1,110.7,49.1,110.7c-0.1,0.2-0.1,0.4-0.2,0.6c0.5-0.3,0.9-0.6,1.3-0.9h-0.7
				c0,0,0,0,0,0v-0.7c-0.4,0.3-0.7,0.5-1.2,0.8c-0.5,0.3-0.1,1.1,0.5,0.8c0.5-0.3,0.9-0.6,1.3-0.9c0.2-0.2,0.1-0.5,0-0.7
				c0,0,0,0,0,0c-0.2-0.2-0.5-0.1-0.7,0c-0.4,0.3-0.7,0.5-1.1,0.7c-0.2,0.1-0.3,0.4-0.2,0.7c0,0,0,0,0,0
				C48.6,111.8,49.4,111.3,49.1,110.7"/>
			<path class="st26" d="M48.9,111.4c0.5-0.3,0.9-0.6,1.3-0.9c0.2-0.2,0.2-0.5,0-0.7c-0.2-0.2-0.5-0.2-0.7,0
				c-0.4,0.3-0.7,0.5-1.2,0.8C47.9,110.8,48.4,111.7,48.9,111.4"/>
			<path class="st25" d="M49.2,111.9c0.6,0,0.6-1,0-1C48.6,111,48.6,111.9,49.2,111.9"/>
			<path class="st25" d="M49.2,111.9c0.6,0,0.6-1,0-1C48.6,111,48.6,111.9,49.2,111.9"/>
			<path class="st25" d="M48.9,111.9c0.6,0,0.6-1,0-1C48.3,110.9,48.3,111.9,48.9,111.9"/>
			<path class="st25" d="M48.9,111.9c0.6,0,0.6-1,0-1C48.3,110.9,48.3,111.9,48.9,111.9"/>
			<path class="st25" d="M48.6,112.2c0.6,0,0.6-1,0-1C48,111.3,48,112.2,48.6,112.2"/>
			<path class="st25" d="M48.6,112.2c0.6,0,0.6-1,0-1C48,111.3,48,112.2,48.6,112.2"/>
			<path class="st25" d="M48.7,112.1c0.6,0,0.6-1,0-1C48.1,111.2,48,112.1,48.7,112.1"/>
			<path class="st25" d="M48.7,112.1c0.6,0,0.6-1,0-1C48.1,111.2,48,112.1,48.7,112.1"/>
			<path class="st26" d="M46.5,112.5C46.5,112.5,46.5,112.5,46.5,112.5l0,0.6c0.1-0.1,0.2-0.3,0.3-0.4c0,0,0,0,0-0.1c0,0.1,0,0,0,0
				c0.1-0.1,0.1-0.1,0.2-0.1c-0.2-0.1-0.4-0.1-0.7-0.2c0,0,0,0,0,0c0.1-0.2,0.1-0.4,0.2-0.7c-0.2,0.1-0.4,0.3-0.5,0.4
				c0,0-0.1,0.1-0.1,0.1c0,0-0.1,0.1-0.1,0.1c0,0.1,0,0-0.1,0.1c-0.2,0.2-0.2,0.5,0,0.7c0.2,0.2,0.5,0.2,0.7,0
				c0.1-0.1,0.2-0.3,0.3-0.4c0,0,0,0,0-0.1c0,0.1,0,0,0,0c0,0,0.1-0.1,0.1-0.1c-0.1,0,0.1,0,0.1,0c0.2-0.1,0.3-0.4,0.2-0.7
				c0,0,0,0,0,0c-0.1-0.2-0.4-0.3-0.7-0.2c-0.2,0.1-0.4,0.3-0.5,0.5c0,0-0.1,0.1-0.1,0.1c0,0-0.1,0.1-0.1,0.1c0,0.1,0,0,0,0.1
				c-0.1,0.2-0.2,0.5,0,0.7c0,0,0,0,0,0c0.2,0.2,0.5,0.2,0.7,0C46.7,113,46.7,112.7,46.5,112.5"/>
			<path class="st26" d="M46.5,113.2c0.1-0.1,0.2-0.3,0.3-0.4c0,0,0-0.1,0,0c0,0,0,0,0,0c0.1-0.1,0.1-0.1,0.1-0.1
				c0.2-0.1,0.3-0.4,0.2-0.7c-0.1-0.2-0.4-0.3-0.7-0.2c-0.2,0.1-0.3,0.2-0.5,0.4c0,0.1-0.1,0.1-0.1,0.2c0,0,0,0.1-0.1,0.1
				c0,0.1,0,0,0,0.1c-0.2,0.2-0.2,0.5,0,0.7C46,113.4,46.3,113.4,46.5,113.2"/>
			<path class="st26" d="M47,112.4c0.6,0,0.6-1,0-1C46.4,111.5,46.4,112.4,47,112.4"/>
			<path class="st26" d="M47,112.4c0.6,0,0.6-1,0-1C46.4,111.5,46.4,112.4,47,112.4"/>
			<path class="st22" d="M53.4,115.8c0.6,0,0.6-1,0-1C52.8,114.9,52.8,115.8,53.4,115.8"/>
			<path class="st22" d="M53.4,115.8c0.6,0,0.6-1,0-1C52.8,114.9,52.8,115.8,53.4,115.8"/>
			<path class="st22" d="M53.3,116c0.6,0,0.6-1,0-1C52.7,115.1,52.7,116,53.3,116"/>
			<path class="st22" d="M53.3,116c0.6,0,0.6-1,0-1C52.7,115.1,52.7,116,53.3,116"/>
			<path class="st27" d="M51.8,116.6c0.6,0,0.6-1,0-1C51.2,115.7,51.2,116.6,51.8,116.6"/>
			<path class="st27" d="M51.8,116.6c0.6,0,0.6-1,0-1C51.2,115.7,51.2,116.6,51.8,116.6"/>
			<path class="st27" d="M51.5,116C51.5,116,51.5,116,51.5,116c-0.1,0.2-0.1,0.4-0.2,0.6c0,0,0,0,0,0c-0.2-0.1-0.4-0.1-0.7-0.2
				c0,0,0,0,0,0c0.1-0.2,0.1-0.4,0.2-0.7c0,0,0,0,0,0c-0.1,0-0.1,0.1-0.1,0.1c0,0-0.1,0.1-0.1,0.2c0,0.1,0,0.3,0,0.4
				c0.1,0.1,0.2,0.2,0.3,0.2c0.1,0,0.3,0,0.4,0c0,0,0,0,0,0c0.1,0,0.1-0.1,0.1-0.1c0,0,0.1-0.1,0.1-0.2c0,0,0-0.1,0-0.1
				C51.6,116.2,51.5,116.1,51.5,116C51.5,116,51.5,116,51.5,116c0-0.1-0.1-0.1-0.1-0.2c0,0-0.1-0.1-0.2-0.1c0,0-0.1,0-0.1,0
				c-0.1,0-0.2,0-0.2,0.1c0,0,0,0,0,0c-0.1,0-0.1,0.1-0.1,0.1c0,0-0.1,0.1-0.1,0.2c0,0.1,0,0.3,0,0.4c0,0,0,0,0,0
				c0,0.1,0.1,0.1,0.1,0.1c0,0,0.1,0.1,0.2,0.1c0.1,0,0.3,0,0.4,0c0.1-0.1,0.2-0.2,0.2-0.3C51.6,116.3,51.6,116.1,51.5,116"/>
			<path class="st27" d="M50.8,115.8C50.8,115.8,50.8,115.8,50.8,115.8c-0.1,0-0.1,0.1-0.1,0.1c0,0-0.1,0.1-0.1,0.2
				c0,0.1,0,0.3,0,0.4c0.1,0.1,0.2,0.2,0.3,0.2c0.1,0,0.3,0,0.4,0c0,0,0,0,0,0c0.1,0,0.1-0.1,0.1-0.1c0,0,0.1-0.1,0.1-0.2
				c0-0.1,0-0.3,0-0.4c-0.1-0.1-0.2-0.2-0.3-0.2C51.1,115.8,50.9,115.8,50.8,115.8"/>
			<path class="st27" d="M51,116.8c0.6,0,0.6-1,0-1C50.3,115.8,50.3,116.8,51,116.8"/>
			<path class="st27" d="M51,116.8c0.6,0,0.6-1,0-1C50.3,115.8,50.3,116.8,51,116.8"/>
			<path class="st27" d="M51.9,115.8C51.9,115.8,51.9,115.8,51.9,115.8c-0.1,0.2-0.1,0.5-0.1,0.7l0,0c-0.2-0.1-0.4-0.1-0.7-0.2
				c0,0,0,0,0,0c0.1-0.2,0.1-0.4,0.2-0.7c0,0,0,0,0,0c-0.1,0.1-0.2,0.2-0.2,0.3c0,0.1,0,0.3,0,0.4c0.1,0.1,0.2,0.2,0.3,0.2
				c0.1,0,0.3,0,0.4,0c0,0,0,0,0,0c0.1-0.1,0.2-0.2,0.2-0.3C52,116.2,52,116,51.9,115.8C52,115.9,51.9,115.9,51.9,115.8
				c0,0-0.1-0.1-0.2-0.2c-0.1,0-0.3,0-0.4,0l0,0c-0.1,0-0.1,0.1-0.2,0.2c0,0.1-0.1,0.1-0.1,0.2c0,0.1,0,0.1,0,0.2
				c0,0.1,0.1,0.2,0.1,0.2c0,0,0,0,0,0c0,0,0.1,0.1,0.2,0.1c0.1,0,0.1,0,0.2,0c0.1,0,0.3-0.1,0.3-0.1c0.1-0.1,0.1-0.2,0.1-0.3
				c0,0,0-0.1,0-0.1C52,116,51.9,115.9,51.9,115.8"/>
			<path class="st27" d="M51.8,116.6C51.8,116.6,51.8,116.6,51.8,116.6c0.1-0.1,0.2-0.2,0.2-0.3c0-0.1,0-0.3,0-0.4
				c-0.1-0.1-0.2-0.2-0.3-0.2c-0.1,0-0.3,0-0.4,0c0,0,0,0,0,0c-0.1,0.1-0.2,0.2-0.2,0.3c0,0.1,0,0.3,0,0.4c0.1,0.1,0.2,0.2,0.3,0.2
				C51.5,116.6,51.7,116.6,51.8,116.6"/>
			<path class="st27" d="M52.5,115.7C52.5,115.7,52.5,115.7,52.5,115.7c-0.3,0.2-0.5,0.3-0.8,0.5l0,0c0,0,0-0.1-0.1-0.1c0,0,0,0,0,0
				C52,116,52.2,115.8,52.5,115.7c-0.1-0.1-0.1-0.1-0.1-0.1c0,0-0.1,0-0.1-0.1c-0.1,0-0.1-0.1-0.2-0.1c0,0-0.1,0-0.1,0
				c-0.1,0-0.1,0-0.2,0.1c-0.1,0-0.1,0.1-0.2,0.2c0,0.1-0.1,0.1-0.1,0.2c0,0.1,0,0.1,0,0.2c0,0,0,0,0,0c0,0.1,0,0.1,0.1,0.2
				c0,0.1,0.1,0.1,0.1,0.1c0.1,0.1,0.3,0.1,0.4,0c0.1,0,0.2-0.1,0.3-0.2c0.1-0.1,0.1-0.2,0-0.4C52.6,115.8,52.6,115.8,52.5,115.7
				c-0.2,0.2-0.5,0.4-0.8,0.6c0,0,0,0,0,0c0,0,0.1,0.1,0.2,0.1c0.1,0,0.1,0,0.2,0c0,0,0.1,0,0.1,0c0.1,0,0.1,0,0.2-0.1
				c0.1-0.1,0.1-0.1,0.2-0.2c0,0,0-0.1,0-0.1C52.6,115.8,52.6,115.8,52.5,115.7c0-0.1-0.1-0.1-0.1-0.1c0,0-0.1-0.1-0.2-0.1
				c-0.1,0-0.1,0-0.2,0c0,0-0.1,0-0.1,0c-0.1,0-0.1,0-0.2,0.1c-0.1,0.1-0.1,0.1-0.2,0.2l0,0.1c0,0.1,0,0.2,0.1,0.2c0,0,0,0,0,0
				c0,0.1,0.1,0.1,0.1,0.1c0,0,0.1,0.1,0.2,0.1c0.1,0,0.3,0,0.4,0c0.1-0.1,0.2-0.2,0.2-0.3c0,0,0-0.1,0-0.1
				C52.6,115.8,52.6,115.8,52.5,115.7"/>
			<path class="st27" d="M52.4,116.3C52.4,116.3,52.4,116.3,52.4,116.3c0.1-0.1,0.2-0.2,0.2-0.3c0-0.1,0-0.3,0-0.4
				c-0.1-0.1-0.2-0.2-0.3-0.2c0,0-0.1,0-0.1,0c-0.1,0-0.2,0-0.2,0.1c0,0,0,0,0,0c-0.1,0.1-0.2,0.2-0.2,0.3c0,0.1,0,0.3,0,0.4
				c0.1,0.1,0.2,0.2,0.3,0.2c0,0,0.1,0,0.1,0C52.2,116.4,52.3,116.4,52.4,116.3"/>
			<path class="st27" d="M52.3,116.3c0.6,0,0.6-1,0-1C51.7,115.4,51.7,116.3,52.3,116.3"/>
			<path class="st27" d="M52.3,116.3c0.6,0,0.6-1,0-1C51.7,115.4,51.7,116.3,52.3,116.3"/>
			<path class="st27" d="M52.4,116.3c0.6,0,0.6-1,0-1C51.8,115.3,51.8,116.3,52.4,116.3"/>
			<path class="st27" d="M52.4,116.3c0.6,0,0.6-1,0-1C51.8,115.3,51.8,116.3,52.4,116.3"/>
			<path class="st28" d="M47,115.3c0.6,0,0.6-1,0-1C46.4,114.4,46.4,115.3,47,115.3"/>
			<path class="st28" d="M47,115.3c0.6,0,0.6-1,0-1C46.4,114.4,46.4,115.3,47,115.3"/>
			<path class="st28" d="M46.8,115.3c0.6,0,0.6-1,0-1C46.2,114.4,46.2,115.3,46.8,115.3"/>
			<path class="st28" d="M46.8,115.3c0.6,0,0.6-1,0-1C46.2,114.4,46.2,115.3,46.8,115.3"/>
			<path class="st28" d="M47.2,116.1c0.6,0,0.6-1,0-1C46.6,115.1,46.6,116.1,47.2,116.1"/>
			<path class="st28" d="M47.2,116.1c0.6,0,0.6-1,0-1C46.6,115.1,46.6,116.1,47.2,116.1"/>
			<path class="st28" d="M47.6,115.4C47.6,115.4,47.6,115.4,47.6,115.4l0,0.7c0,0,0,0,0,0H47c0,0,0,0,0,0v-0.7c0,0,0,0,0,0
				c-0.1,0.1-0.1,0.2-0.1,0.3c0,0.1,0.1,0.3,0.1,0.3c0.1,0.1,0.2,0.1,0.3,0.1c0.1,0,0.2,0,0.3-0.1c0,0,0,0,0,0
				C47.8,115.9,47.8,115.6,47.6,115.4C47.7,115.4,47.7,115.4,47.6,115.4c-0.2-0.2-0.5-0.2-0.6,0c0,0,0,0,0,0c-0.2,0.2-0.2,0.5,0,0.7
				c0,0,0,0,0,0c0.1,0.1,0.2,0.1,0.3,0.1c0.1,0,0.3-0.1,0.3-0.1c0.1-0.1,0.1-0.2,0.1-0.3C47.8,115.6,47.7,115.5,47.6,115.4"/>
			<path class="st28" d="M47,116.1C47,116.1,47,116.1,47,116.1c0.1,0.1,0.2,0.1,0.3,0.1c0.1,0,0.3-0.1,0.3-0.1
				c0.1-0.1,0.1-0.2,0.1-0.3c0-0.1,0-0.2-0.1-0.3c0,0,0,0,0,0c-0.1-0.1-0.2-0.1-0.3-0.1c-0.1,0-0.3,0.1-0.3,0.1
				c-0.1,0.1-0.1,0.2-0.1,0.3C46.8,115.8,46.9,116,47,116.1"/>
			<path class="st28" d="M47.5,116.5c0.6,0,0.6-1,0-1C46.9,115.5,46.9,116.5,47.5,116.5"/>
			<path class="st28" d="M47.5,116.5c0.6,0,0.6-1,0-1C46.9,115.5,46.9,116.5,47.5,116.5"/>
			<path class="st28" d="M47.7,116.9c0.6,0,0.6-1,0-1C47.1,116,47.1,116.9,47.7,116.9"/>
			<path class="st28" d="M47.7,116.9c0.6,0,0.6-1,0-1C47.1,116,47.1,116.9,47.7,116.9"/>
			<path class="st28" d="M47,114.9c0.6,0,0.6-1,0-1C46.3,114,46.3,114.9,47,114.9"/>
			<path class="st28" d="M47,114.9c0.6,0,0.6-1,0-1C46.3,114,46.3,114.9,47,114.9"/>
			<path class="st28" d="M46.9,114.8c0.6,0,0.6-1,0-1C46.3,113.9,46.3,114.8,46.9,114.8"/>
			<path class="st28" d="M46.9,114.8c0.6,0,0.6-1,0-1C46.3,113.9,46.3,114.8,46.9,114.8"/>
			<path class="st28" d="M47,114.6c0.6,0,0.6-1,0-1C46.4,113.7,46.4,114.6,47,114.6"/>
			<path class="st28" d="M47,114.6c0.6,0,0.6-1,0-1C46.4,113.7,46.4,114.6,47,114.6"/>
			<path class="st28" d="M46.9,114.7c0.6,0,0.6-1,0-1C46.2,113.7,46.2,114.7,46.9,114.7"/>
			<path class="st28" d="M46.9,114.7c0.6,0,0.6-1,0-1C46.2,113.7,46.2,114.7,46.9,114.7"/>
			<path class="st26" d="M45.9,113.3c0.6,0,0.6-1,0-1C45.3,112.4,45.3,113.3,45.9,113.3"/>
			<path class="st26" d="M45.9,113.3c0.6,0,0.6-1,0-1C45.3,112.4,45.3,113.3,45.9,113.3"/>
			<path class="st26" d="M45.8,113.3c0.6,0,0.6-1,0-1C45.2,112.4,45.2,113.3,45.8,113.3"/>
			<path class="st26" d="M45.8,113.3c0.6,0,0.6-1,0-1C45.2,112.4,45.2,113.3,45.8,113.3"/>
			<path class="st26" d="M45.7,113.4c0.6,0,0.6-1,0-1C45.1,112.5,45.1,113.4,45.7,113.4"/>
			<path class="st26" d="M45.7,113.4c0.6,0,0.6-1,0-1C45.1,112.5,45.1,113.4,45.7,113.4"/>
			<path class="st29" d="M104.5,108.1L104.5,108.1c0.9,0.1,1.5,4.4,1.8,12.9c0.2,6.3,0.2,12.7,0.2,12.8l0,0l-21.7,9.5L104.5,108.1z"
				/>
			<path class="st29" d="M104.6,108.1L85,143.3l21.6-9.5C106.6,133.8,106.7,108.2,104.6,108.1z"/>
			<path class="st29" d="M79.7,116.3L79.7,116.3c4.2,0,7.6-3.1,7.6-3.1l0,0l17.3-5.1l-19.7,35.3L79.7,116.3z"/>
			<path class="st29" d="M79.7,116.3l5.2,27l19.6-35.2l-17.2,5.1C87.3,113.2,84,116.3,79.7,116.3z"/>
			<polygon class="st30" points="59.1,109.3 63.8,109.3 71.2,113 68.8,122.9 			"/>
			<polygon class="st30" points="59.2,109.3 68.8,122.8 71.2,113 63.8,109.3 			"/>
			<polygon class="st31" points="74.5,136.3 72,126.9 72.1,126.9 85,143.3 82.3,146.4 			"/>
			<polygon class="st31" points="72,126.9 74.5,136.3 82.3,146.4 85,143.3 			"/>
			<polygon class="st32" points="65.9,134.3 68.8,128.7 68.8,122.8 72.1,126.9 74.5,136.3 			"/>
			<polygon class="st32" points="65.9,134.2 68.8,128.7 68.8,122.8 72,126.9 74.5,136.3 			"/>
			<polygon class="st33" points="95.8,91.7 104.8,108.1 87.3,113.3 			"/>
			<polygon class="st33" points="95.8,91.7 87.3,113.2 104.8,108 			"/>
			<polygon class="st34" points="95.7,91.7 96.5,79.1 101.1,85.2 104.8,108.2 104.8,108.2 			"/>
			<polygon class="st34" points="96.5,79.1 95.8,91.7 104.8,108.2 101.1,85.2 			"/>
			<path class="st9" d="M73,76.9L73,76.9c0.1,0,4.2-1.3,10.6-1.7c0.3,0,0.6,0,0.9,0c6.1,0,12,4,12,4l0,0l-0.8,12.6L90.1,106L73,76.9
				z"/>
			<path class="st9" d="M73,76.9L90.1,106l5.7-14.2l0.8-12.6c0,0-6.4-4.4-12.9-4C77.1,75.6,73,76.9,73,76.9"/>
			<polygon class="st13" points="77.6,100 72.9,77 73,77 90.2,106 			"/>
			<polygon class="st13" points="77.6,100 90.2,105.9 72.9,77 			"/>
			<path class="st35" d="M88.6,110c-0.2-0.1-1.1-1-2.7-2.7c-2.1-2.4-4.8-5.5-4.9-5.6l0,0l9.1,4.3L88.6,110L88.6,110z"/>
			<path class="st35" d="M88.6,110c-0.2-0.1-1.3-1.3-2.6-2.7c-2.2-2.4-4.9-5.6-4.9-5.6l9.1,4.3L88.6,110z"/>
			<polygon class="st36" points="75.9,104.4 77.6,100 81.1,101.7 86,107.3 			"/>
			<polygon class="st36" points="75.9,104.4 86,107.2 81.1,101.7 77.6,100 			"/>
			<polygon class="st37" points="68.8,104.2 68.8,104.2 77.6,100 75.9,104.4 			"/>
			<polygon class="st37" points="68.8,104.2 77.6,100 75.9,104.4 			"/>
			<polygon class="st38" points="68.8,104.2 75.9,104.4 75.9,104.4 67.9,106.6 			"/>
			<polygon class="st38" points="68,106.6 68.8,104.2 75.9,104.4 			"/>
			<path class="st39" d="M59.7,77.7L59.7,77.7c3.5-1,6.5-1.4,9-1.4c3,0,4.2,0.7,4.2,0.7l0,0l4.6,23.1l-8.8,4.2L59.7,77.7z"/>
			<path class="st39" d="M59.8,77.7l9,26.5l8.8-4.2L72.9,77C72.9,77,69.7,75,59.8,77.7"/>
			<path class="st40" d="M43.3,93.6L43.3,93.6c0.1-0.6,2.9-14.2,5.5-15.1l11-0.8l-0.6,31.7L43.3,93.6z"/>
			<path class="st40" d="M48.8,78.5l10.9-0.8l-0.6,31.6L43.4,93.6C43.4,93.6,46.2,79.5,48.8,78.5"/>
			<polygon class="st41" points="59.1,109.3 59.7,77.7 59.8,77.7 68.8,104.2 68,106.6 63.8,109.3 			"/>
			<polygon class="st41" points="68,106.6 63.8,109.3 59.2,109.3 59.8,77.7 68.8,104.2 			"/>
			<path class="st24" d="M53.6,110L53.6,110c-0.4-0.7-2.4-1.7-5.9-2.9c-2.6-0.9-5.2-1.7-5.2-1.7l0,0l1-11.8l15.9,15.7l-3,1.9
				L53.6,110z"/>
			<path class="st24" d="M43.4,93.6l-1,11.8c0,0,10.2,2.9,11.2,4.6l2.6,1.2l3-1.9L43.4,93.6z"/>
			<path class="st19" d="M62.7,130.2c-1.1,0-3.8-0.5-4.9-0.9c-0.4-0.1-0.6-0.3-0.6-0.4c0-0.4,1.5-0.8,2.7-1c0.4-0.1,0.8-0.1,1.2-0.1
				c1.5,0,2.7,0.5,2.9,0.8c0.2,0.3-0.9,1.6-0.9,1.6C63.1,130.2,63,130.2,62.7,130.2L62.7,130.2z"/>
			<path class="st19" d="M63.2,130.1c0.1-0.1,1.1-1.2,0.9-1.6c-0.2-0.3-2-1.1-4.1-0.7s-3.6,0.9-2.2,1.4
				C59.2,129.8,62.9,130.5,63.2,130.1"/>
			<path class="st42" d="M64.6,130.9c-0.5,0-1-0.1-1.6-0.2l0,0l0.1-0.6l0,0c0,0,1-0.9,0.9-1.5c-0.1-0.4-1.4-0.8-2.9-0.8
				c-0.5,0-0.9,0-1.1,0.1c0,0-2.4,0.4-2.7,0.9c0,0.1,0,0.1,0,0.2l0,0l-1.3,0.8l0.5-1.7l10.3-8l1.9,2.7v5.8l0,0
				C68.8,128.7,67.5,130.9,64.6,130.9"/>
			<path class="st42" d="M68.8,128.7c0,0-1.8,3.1-5.7,2l0.1-0.6c0,0,1-1,0.9-1.6c-0.1-0.6-2.9-1.1-4.1-0.7c0,0-3,0.5-2.7,1.1
				l-1.2,0.7l0.5-1.6l10.3-8l1.9,2.7V128.7z"/>
			<path class="st20" d="M63,130.7L63,130.7c0.1,0,0.7,0.2,1.6,0.2c1.2,0,2.9-0.4,4.1-2.2l0,0l-2.9,5.6L63,130.7z"/>
			<path class="st20" d="M65.9,134.2l-2.9-3.5c0,0,3.7,1.2,5.7-2L65.9,134.2z"/>
			<path class="st43" d="M79.9,150c-0.1-0.1-4.3-3.7-6.5-5.6l0,0l-0.6-2.8l1.7-5.4l4,5.2L79.9,150L79.9,150L79.9,150z"/>
			<path class="st43" d="M79.9,149.9c0-0.1-6.5-5.6-6.5-5.6l-0.6-2.8l1.7-5.3l4,5.2L79.9,149.9z"/>
			<polygon class="st44" points="68.2,141.7 65.9,134.2 74.5,136.2 72.8,141.6 73,142.4 			"/>
			<polygon class="st44" points="65.9,134.2 68.2,141.7 73,142.3 72.8,141.6 74.5,136.3 			"/>
			<polygon class="st18" points="58.6,140 63.1,130.7 66,134.2 68.2,141.7 			"/>
			<polygon class="st18" points="63.1,130.7 58.6,140 68.2,141.7 65.9,134.2 			"/>
			<path class="st45" d="M56,129.7l1.2-0.8l0,0c0.2,0.3,2,0.7,2,0.7c2,0.4,3,0.5,3.4,0.5c0.3,0,0.4,0,0.4,0l0,0l0,0.1l-0.1,0.6
				l-2.4,5L56,129.7z"/>
			<path class="st45" d="M56.1,129.7l4.6,5.9l2.4-5l0.1-0.6c0,0-0.3,0.3-3.9-0.4c0,0-1.8-0.4-2-0.7L56.1,129.7z"/>
			<path class="st46" d="M53.1,130.5l3-0.8l4.6,5.9l-2.1,4.3l0,0c0,0,0,0-0.1,0c-0.5,0-2.9,0-5.7,0.7l0,0L53.1,130.5z"/>
			<path class="st46" d="M58.6,140c0,0-2.7-0.1-5.8,0.7l0.3-10.2l3-0.8l4.6,5.9L58.6,140z"/>
			<polygon class="st47" points="47.5,139.5 53.1,130.4 52.8,140.7 51.2,142.5 			"/>
			<polygon class="st47" points="51.2,142.5 52.8,140.7 53.1,130.5 47.5,139.5 			"/>
			<path class="st48" d="M47.2,151.1c-0.3-0.4-1.9-7.7-2-8l0,0l2.3-3.6l3.7,3l1.6,0.4L47.2,151.1L47.2,151.1z"/>
			<path class="st48" d="M52.8,142.9l-1.6-0.4l-3.7-3l-2.3,3.6c0,0,1.7,7.6,2,8L52.8,142.9z"/>
			<path class="st49" d="M106.6,133.8l-0.1-10c-0.3-12.8-1.3-15.1-1.6-15.5l-0.1-0.1l0,0c0,0,0,0,0.1,0.1l7.2,7L106.6,133.8
				L106.6,133.8z"/>
			<path class="st49" d="M112.1,115.3l-7.3-7.1c0,0,1.3,0.6,1.7,15.5l0.1,10L112.1,115.3z"/>
			<polygon class="st50" points="106.5,133.8 112.1,115.3 112.1,115.3 115.7,140.8 			"/>
			<polygon class="st50" points="115.7,140.8 112.1,115.3 106.6,133.8 			"/>
			<polygon class="st51" points="100.2,164.9 106.6,133.7 115.7,140.8 100.2,164.9 			"/>
			<polygon class="st51" points="106.8,134 106.6,133.8 100.2,164.9 115.7,140.8 			"/>
			<polygon class="st52" points="84.9,143.3 106.6,133.7 100.2,164.9 			"/>
			<polygon class="st52" points="85,143.3 100.2,164.9 106.6,133.8 			"/>
			<polygon class="st53" points="78.5,141.4 78.5,141.4 82.4,146.4 79.9,150 			"/>
			<polygon class="st53" points="79.9,149.9 82.3,146.4 78.5,141.4 			"/>
			<polygon class="st54" points="79.9,149.9 82.3,146.4 85,143.2 100.2,164.9 87.6,173.1 			"/>
			<polygon class="st54" points="85,143.3 82.3,146.4 79.9,149.9 87.6,173 100.2,164.9 			"/>
			<polygon class="st55" points="61.4,166.8 79.9,149.9 87.6,173.1 			"/>
			<polygon class="st55" points="61.4,166.7 79.9,149.9 87.6,173 			"/>
			<polygon class="st14" points="61.4,166.7 73.4,144.3 79.9,149.9 61.5,166.8 			"/>
			<polygon class="st14" points="73.4,144.4 61.4,166.7 79.9,149.9 			"/>
			<path class="st56" d="M53.4,165.8L53.4,165.8c-3.9-4.1-6.2-14.6-6.2-14.7l0,0l3.8-5.4l10.6,21.1L53.4,165.8z"/>
			<path class="st56" d="M47.2,151.1c0,0,2.3,10.5,6.2,14.7l8,1l-10.5-21.1L47.2,151.1z"/>
			<polygon class="st57" points="53.9,151.8 69.5,151.8 61.4,166.8 			"/>
			<polygon class="st57" points="69.5,151.8 54,151.8 61.4,166.7 			"/>
			<path class="st58" d="M69.5,175.8c-0.2,0-2.2-1.5-4.6-3.2c-2.6-1.9-5.6-4-6.1-4.2c-0.9-0.4-5.4-2.7-5.4-2.7l0,0l8,1l12,2.9
				l9.6,8.2L69.5,175.8z"/>
			<path class="st58" d="M69.5,175.8c-0.4-0.1-9.7-7-10.6-7.4c-0.9-0.4-5.4-2.7-5.4-2.7l8,1l12,2.9l9.6,8.1L69.5,175.8z"/>
			<polygon class="st58" points="83,177.8 73.4,169.6 73.5,169.6 87.6,173 93,179.3 			"/>
			<polygon class="st58" points="93,179.3 83,177.8 73.5,169.6 87.6,173 			"/>
			<polygon class="st59" points="87.5,173 100.2,164.9 105.7,169.4 93,179.3 			"/>
			<polygon class="st59" points="105.6,169.4 93,179.3 87.6,173 100.2,164.9 			"/>
			<polygon class="st60" points="100.2,164.9 115.7,140.7 115.7,140.8 105.7,169.4 			"/>
			<polygon class="st60" points="115.7,140.8 105.6,169.4 100.2,164.9 			"/>
			<path class="st8" d="M112.1,115.3L112.1,115.3c0,0,0.2,0,0.5-0.1c1.2-0.1,4.3-0.5,4.7-1.5l0,0l-2.3,22.5l0,0L112.1,115.3z"/>
			<path class="st8" d="M117.3,113.7l-2.3,22.5l-3-21C112.3,115.2,116.8,115,117.3,113.7"/>
			<path class="st3" d="M117.1,136.8c-0.7,0-1.4-0.2-2.1-0.5l0,0l1-9.5l12.7,0.3v0c0,0.1-1.9,3.2-4.6,5.9
				C121.5,135.5,119.2,136.8,117.1,136.8"/>
			<path class="st3" d="M128.6,127.1c0,0.1-7.4,12.2-13.6,9.2l1-9.5L128.6,127.1z"/>
			<path class="st6" d="M116,126.8L116,126.8c0-0.1,2.1-4.4,2.1-4.8c0-0.4-0.1-3.7-0.1-3.7l0,0l1.3-0.7l0,0c0,0,2.3,2.4,2.9,2.4
				c0,0,0,0,0.1,0c0.5-0.2,0.8-2,0.8-2l0,0l0,0c0,0,0.9,0.7,1.8,1.5c1.1,1.1,1.4,2.1,1,2.8c0,0-0.5,2.6-4,2.6c-0.2,0-0.5,0-0.7,0
				l-2.9,2.1L116,126.8z"/>
			<path class="st6" d="M121.2,124.8l-2.9,2.1l-2.3-0.1c0,0,2.1-4.4,2.1-4.8c0-0.4-0.1-3.7-0.1-3.7l1.3-0.7c0,0,2.5,2.6,3,2.4
				c0.5-0.2,0.8-2.1,0.8-2.1s3.7,2.6,2.7,4.3C125.9,122.2,125.3,125.1,121.2,124.8"/>
			<path class="st5" d="M122.2,120.1c-0.6,0-2.8-2.3-2.9-2.4l0,0l0,0c-0.9-2.4,0.3-3.9,0.3-3.9l0,0l0,0c2.3,1.3,3.5,4.2,3.5,4.2l0,0
				l0,0c0,0.1-0.5,1.7-0.8,2.1C122.3,120.1,122.3,120.1,122.2,120.1L122.2,120.1z"/>
			<path class="st5" d="M119.6,113.7c0,0-1.2,1.5-0.3,3.9c0,0,2.7,2.8,3,2.4c0.3-0.4,0.8-2.1,0.8-2.1S121.9,115,119.6,113.7"/>
			<path class="st4" d="M128.2,124.1c0,0,0-0.1,0.1-0.6c0.3-1.6,1.3-6.6-0.6-9.8c0,0-1.9-3.4-2.9-3.4c0,0,0,0,0,0
				c-0.6,0.1-1,0.9-1.4,1.6c-0.3,0.5-0.5,1-0.7,1c-0.2,0-0.5,0.1-1,0.1c-0.6,0-1.9-0.1-2.1-0.9c0-0.1,0.1-2.4,1.5-4.3
				c1-1.4,2.5-2.1,4.2-2.1c0.4,0,0.8,0,1.2,0.1c1.1,0.2,2.1,0.8,2.7,1.8c2.5,3.8,0.5,12.3,0.4,12.4
				C129.6,120.2,128.6,123.7,128.2,124.1C128.3,124.1,128.3,124.1,128.2,124.1L128.2,124.1L128.2,124.1z"/>
			<path class="st4" d="M119.6,112.2c-0.1-0.2,0.6-7.3,6.9-6.2c6.3,1,3.1,14.1,3.1,14.1s-1.1,3.7-1.4,4c-0.3,0.4,1.9-6.3-0.5-10.3
				c0,0-1.9-3.5-3-3.4c-1.1,0.1-1.5,2.5-2.1,2.6C122.1,113.1,120,113.2,119.6,112.2"/>
			<path class="st61" d="M116,126.8l1.3-13.1l3.7-9.9l3.3,2.1l-0.1,0c-2.1,0.3-3.2,1.9-3.8,3.3c-0.6,1.5-0.8,2.9-0.8,2.9l-0.1,1.5
				l0,0c-0.6,0.8-0.7,1.8-0.6,2.5c0.1,0.8,0.3,1.3,0.3,1.4l0,0l-1.3,0.7c0,0.2,0,3.1,0.1,3.7C118.1,122.6,116.1,126.6,116,126.8
				L116,126.8z"/>
			<path class="st61" d="M121,103.9l-3.7,9.8l-1.3,13.1c0,0,2.1-4.2,2.1-4.8c0-0.6-0.1-3.7-0.1-3.7l1.3-0.7c0,0-1-2.3,0.3-3.9
				l0.1-1.5c0,0,0.6-5.7,4.6-6.2L121,103.9z"/>
			<path class="st7" d="M128.3,124.1L128.3,124.1c2.2-4,2.2-10.8,2.2-10.8c0.1-2.8-0.5-4.9-1.7-6.1c-1-1.1-2.4-1.3-3.3-1.3
				c-0.7,0-1.2,0.1-1.3,0.1l0,0l-3.2-2.1l0,0c1.4-0.6,2.7-0.9,3.9-0.9c3.1,0,5.1,2.1,6.2,3.9c1.2,1.9,1.7,3.9,1.7,3.9
				c-0.1,9-4.1,16.3-4.2,16.4l0,0.1L128.3,124.1z"/>
			<path class="st7" d="M132.8,110.7c0,0-2.5-10.9-11.7-6.8l3.2,2c0,0,6.5-1.8,6.2,7.3c0,0,0,6.8-2.2,10.9l0.3,3
				C128.6,127.1,132.7,119.8,132.8,110.7"/>
			<path class="st62" d="M118.3,126.9l3-2.1l0,0c0,0,0.3,0,0.7,0c0.8,0,2.3-0.1,3.2-1.1c0.6-0.6,0.9-1.5,0.9-2.6
				c-0.1-0.1-1.1-1.9-2.9-3l0,0l0,0c0,0-1.7-3.3-3.5-4.2l0,0l0.1-1.5l0,0c0,0,0.4,0.9,2,0.9c0.3,0,0.7,0,1.1-0.1l0,0l0,0
				c0,0,0.2,0,0.9-1.4c0.4-0.8,0.8-1.2,1.3-1.2c0.5,0,1.1,0.5,1.6,1.4c0.2,0.2,0.3,0.5,0.5,0.7c1,1.5,1.9,2.8,1.9,6.5
				c0,2.2-0.2,3.4-0.3,4.2c-0.1,0.7-0.3,1-0.3,1l0.3,3L118.3,126.9z"/>
			<path class="st62" d="M118.3,126.9l2.9-2.1c0,0,4.9,0.7,4.8-3.8c0,0-1-1.8-2.9-3.1c0,0-1.6-3.3-3.5-4.2l0.1-1.5
				c0,0,0.5,1.3,3.1,0.8c0,0,0.2,0.1,0.9-1.4c0.7-1.5,1.7-1.7,2.9,0.2c1.2,1.9,2.4,3,2.4,7.2c0,4.2-0.6,5.2-0.6,5.2l0.3,3
				L118.3,126.9z"/>
			<polygon class="st63" points="53.9,151.8 58.6,144.9 69.5,151.8 			"/>
			<polygon class="st63" points="58.6,144.9 54,151.8 69.5,151.8 			"/>
			<polygon class="st64" points="58.6,144.9 73.1,142.9 73.5,144.4 69.5,151.8 			"/>
			<polygon class="st64" points="73.1,142.9 58.6,144.9 69.5,151.8 73.4,144.4 			"/>
			<polygon class="st65" points="50.9,145.7 52.8,142.9 58.7,144.9 54,151.8 			"/>
			<polygon class="st65" points="52.8,142.9 58.6,144.9 54,151.8 50.9,145.7 			"/>
			<path class="st66" d="M58.6,145c-0.6,0-5.6-1.9-5.8-2l0,0l15.8,0.6l0,0L58.6,145C58.6,145,58.6,145,58.6,145z"/>
			<path class="st66" d="M68.6,143.5l-15.8-0.6c0,0,5.4,2.1,5.8,2C59.1,144.9,68.6,143.5,68.6,143.5"/>
			<polygon class="st67" points="104.8,108.2 101.1,85.2 110.2,75.1 124.3,72.5 112.1,115.3 			"/>
			<polygon class="st67" points="110.2,75.2 101.1,85.2 104.8,108.2 112.1,115.3 124.2,72.5 			"/>
			<path class="st68" d="M124.2,72.5L124.2,72.5c0.8,2,7.8,19.8,7.8,20v0L121,104L124.2,72.5z"/>
			<path class="st68" d="M132,92.5c0-0.1-7.7-20-7.7-20l-3.2,31.4L132,92.5z"/>
			<path class="st69" d="M112.1,115.3l12.2-42.8l0,0l-3.2,31.4l-3.7,9.8c-0.4,1.1-3.2,1.4-4.5,1.5
				C112.4,115.3,112.1,115.3,112.1,115.3L112.1,115.3z"/>
			<path class="st69" d="M124.2,72.5l-12.2,42.8c0.1-0.1,4.7-0.2,5.2-1.6l3.7-9.8L124.2,72.5z"/>
			<path class="st70" d="M132.4,109.7c-1.1-3.1-3.4-6.7-7.6-6.7c-2.1,0-3.8,0.9-3.8,0.9l0,0L132,92.4l0,0c0,0,0.5,3.7,0.5,5.2
				c0,0.9-0.3,1.6-0.6,2.4c-0.2,0.5-0.4,1.1-0.6,1.7C131,103.2,132.5,109.6,132.4,109.7L132.4,109.7z"/>
			<path class="st70" d="M132.5,109.7c0,0-1.5-6.5-1.2-8c0.3-1.5,1.2-2.5,1.2-4c0-1.5-0.5-5.1-0.5-5.1L121,103.9
				C121,103.9,128.7,99.5,132.5,109.7"/>
			<path class="st71" d="M103.9,56.9L103.9,56.9c5.1,1.5,10.3,5.7,13.8,8.9c3.8,3.5,6.5,6.7,6.5,6.7l0,0l-14.1,2.6l-13.8,4
				L103.9,56.9z"/>
			<path class="st71" d="M104,56.9l-7.5,22.2l13.7-4l14-2.6C124.2,72.5,113.7,59.9,104,56.9"/>
			<polygon class="st72" points="96.4,79.1 110.3,75.1 101.1,85.2 			"/>
			<polygon class="st72" points="101.1,85.2 96.5,79.1 110.2,75.2 			"/>
			<path class="st73" d="M96.5,79.1c0,0-1.1-1-3.3-1.9c-2-0.9-5.3-1.9-9.7-1.9c-3.3,0-6.8,0.6-10.5,1.7c0,0,0,0,0,0h0l0,0
				c0,0,0-0.1,15.5-10.1c7.7-4.9,15.5-9.9,15.5-10l0.1,0L96.5,79.1L96.5,79.1z"/>
			<path class="st73" d="M72.9,77c-0.7,0.2,31-20.1,31-20.1l-7.5,22.2C96.5,79.1,88.4,72.1,72.9,77"/>
			<path class="st74" d="M63.9,59.5L63.9,59.5c6.2-2.9,13.9-4.4,22.9-4.4c9.6,0,17.4,1.7,17.5,1.7l0.1,0L72.9,77L63.9,59.5z"/>
			<path class="st74" d="M64,59.5l9,17.4l31.4-20.1C104.4,56.9,80.8,51.6,64,59.5"/>
			<path class="st21" d="M64,59.5L73,77l-0.1,0c0,0-1.3-0.7-4.4-0.7c-2.5,0-5.5,0.5-8.8,1.4l-11,0.8L64,59.5z"/>
			<path class="st21" d="M48.8,78.5l15.1-19l9,17.4c0,0-3.7-2-13.2,0.7L48.8,78.5z"/>
			<path class="st75" d="M46.2,82.8c-0.1,0-0.2-0.2-0.4-0.5c-0.4-0.8-0.7-2.6-0.3-4.7c0.4-2.6,1.8-5.1,3.8-7.4
				C56.3,63,63.7,59.7,64,59.5l0,0l-15.1,19c0,0-0.4,0.3-0.9,1c-0.5,0.6-1.1,1.7-1.6,3.1C46.3,82.8,46.3,82.8,46.2,82.8"/>
			<path class="st75" d="M46.3,82.7c-0.3,1-3.1-5.8,3.1-12.4c6.2-6.6,12.9-10,14.6-10.8l-15.1,19C48.8,78.5,47.3,79.8,46.3,82.7"/>
			<path class="st74" d="M121.8,134.9L121.8,134.9c2.9-2.2,5.1-4.8,6.8-7.8c2.8-5.1,3.7-10.4,3.9-12.4c0-0.1,0-0.1,0-0.1h0l0,0
				l2.2,18.7l-12.9,18V134.9z"/>
			<path class="st74" d="M121.8,134.9v16.2l12.9-17.9l-2.2-18.7c0-0.1-0.5,6.3-3.9,12.5C127.1,129.9,124.8,132.6,121.8,134.9"/>
			<path class="st76" d="M128.2,165.4c-0.2-0.5-6.4-14.1-6.4-14.3l0,0l12.9-17.9l0,0L128.2,165.4L128.2,165.4z"/>
			<path class="st76" d="M128.3,165.4c-0.2-0.6-6.4-14.3-6.4-14.3l12.9-17.9L128.3,165.4z"/>
			<polygon class="st77" points="128.2,165.4 134.7,133.2 134.7,133.2 144.9,170.5 			"/>
			<polygon class="st77" points="144.9,170.5 128.3,165.4 134.7,133.2 			"/>
			<path class="st78" d="M115.7,140.8l-0.6-4.5l0,0c0.7,0.3,1.5,0.4,2.2,0.4c2.7,0,4.5-1.8,4.5-1.8l0,0v16.4L115.7,140.8z"/>
			<path class="st78" d="M115.7,140.8l6.2,10.4v-16.2c0,0-2.9,2.9-6.8,1.4L115.7,140.8z"/>
			<path class="st79" d="M128.2,165.4c-0.5-0.3-18.2-7.9-18.4-8l0,0l5.9-16.7l6.2,10.4L128.2,165.4L128.2,165.4z"/>
			<path class="st79" d="M128.3,165.4c-0.5-0.3-18.4-8-18.4-8l5.8-16.6l6.2,10.4L128.3,165.4z"/>
			<path class="st17" d="M51.2,142.5l1.6-1.8l0,0c3.1-0.7,5.3-0.7,5.8-0.7c0,0,0.1,0,0.1,0l9.6,1.7l4.8,0.6l0,0c0,0-1.1,0.2-2.2,0.4
				c-0.1,0-0.2,0-0.4,0c-1.2,0-3.7-0.4-5.2-0.6c-0.5-0.1-0.8-0.1-1-0.1c-0.7-0.1-1.4-0.1-2.1-0.1c-0.3,0-0.6,0-0.8,0
				c-0.3,0-1.1,0.1-2,0.1c-0.5,0-1.4,0-1.7-0.1c-0.1-0.1-0.5-0.1-1.1-0.1c-0.8,0-1.7,0.1-2.1,0.1c-0.7,0.1-1.5,0.9-1.6,1l0,0
				L51.2,142.5z"/>
			<path class="st17" d="M52.8,142.9c0.1-0.2,1-1,1.6-1c0.7-0.1,2.8-0.2,3.2,0c0.4,0.2,3.1,0.1,3.6,0c0.6-0.1,1.8,0,2.9,0.1
				c1.1,0.1,5.5,0.9,6.6,0.7c1.1-0.2,2.2-0.4,2.2-0.4l-4.8-0.6l-9.6-1.7c0,0-2.4,0-5.8,0.7l-1.6,1.8L52.8,142.9z"/>
			<path class="st16" d="M68.3,143.5c0,0-4-0.9-4.6-0.9c-0.1,0-0.3,0-0.5-0.1c-0.7-0.1-1.9-0.2-2.5-0.2c-0.1,0-0.2,0-0.3,0
				c-0.4,0.1-1.4,0.2-2.1,0.2c-0.1,0-0.2,0-0.2,0c-0.6,0-2.3-0.7-2.4-0.7l0,0c0,0,0.3,0,0.6,0c0.4,0,0.9,0,1.1,0.1
				c0.2,0,0.9,0.2,2.2,0.2c0.8,0,1.6,0,2.5-0.1c0,0,3.1,0.1,5.3,0.6c0.8,0.2,1.7,0.3,2.5,0.3c1,0,2-0.1,3-0.4l0,0l0.1,0.6
				L68.3,143.5L68.3,143.5z"/>
			<path class="st16" d="M73.1,142.9l-4.8,0.6c0,0-4-0.9-4.6-0.9c-0.6-0.1-2.8-0.4-3.2-0.3c-0.4,0.1-1.7,0.2-2.3,0.2
				c-0.6,0-2.4-0.7-2.4-0.7s1.3,0,1.7,0c0.3,0.1,1.9,0.3,4.7,0c0,0,3.1,0.1,5.2,0.6c2.2,0.5,3.9,0.3,5.5-0.2L73.1,142.9z"/>
			<path class="st15" d="M52.8,142.9L52.8,142.9c0,0,0.1-0.1,0.1-0.1c0.2-0.3,0.9-1,2.6-1c0.1,0,0.3,0,0.4,0c0,0,1.8,0.7,2.3,0.7
				c0.3,0,1-0.1,1.6-0.1c0.5,0,1-0.1,1.2-0.1c0,0,0,0,0,0c0.2,0,5.4,0.6,7.3,1.2l0,0L52.8,142.9z"/>
			<path class="st15" d="M52.8,142.9c0.1,0,0.6-1.3,3.2-1.1c0,0,1.7,0.7,2.3,0.7c0.5,0,2.6-0.2,2.8-0.2c0.2,0,5.4,0.6,7.3,1.2
				L52.8,142.9z"/>
			<path class="st80" d="M45.2,143.1c-0.4-1.1-0.8-4-0.5-12.3c0.2-5,0.5-9.5,0.5-9.6l0,0l5.1,2.1l-2.7,16.3L45.2,143.1L45.2,143.1z"
				/>
			<path class="st80" d="M45.2,121.2c0,0-1.3,18.2,0,21.9l2.3-3.6l2.7-16.2L45.2,121.2z"/>
			<path class="st81" d="M47.5,139.5l2.6-15.2c0-0.3,0.1-0.7,0.2-1l0,0l-0.2,1c-0.2,1.5-0.1,3.5,1.3,5c0.8,0.9,1.7,1.2,1.7,1.2l0,0
				L47.5,139.5L47.5,139.5z"/>
			<path class="st81" d="M53.1,130.5c0,0-4.1-1.2-2.9-7.2l-2.7,16.2L53.1,130.5z"/>
			<path class="st28" d="M45.2,121.2l0.8-5.2l0.3-1.8l0.9,1.1c0.3,0.7,0.9,1.1,1.9,1.1h0c1.4,0,3.3-0.7,4.6-1.4
				c1.4-0.7,2.5-1.3,2.6-1.4l0,0l-6.1,9.5L45.2,121.2z"/>
			<path class="st28" d="M46,116.1l-0.8,5.1l5.1,2.1l6.1-9.4c0,0-7.8,4.8-9.1,1.6l-0.8-1.1L46,116.1z"/>
			<path class="st82" d="M41.4,108.4L41.4,108.4c0-0.7,1-2.9,1-3l0,0l2.6,0.8l1.8,2.9L41.4,108.4z"/>
			<path class="st82" d="M42.4,105.4c0,0-1,2.3-1,3l5.3,0.7l-1.8-2.9L42.4,105.4z"/>
			<path class="st82" d="M46.7,109l-1.8-2.9l0.1,0c0.3,0.1,7.4,2.5,7.9,3.1l0,0L46.7,109z"/>
			<path class="st82" d="M52.8,109.3l-6.1-0.3l-1.8-2.9C45,106.1,52.4,108.6,52.8,109.3"/>
			<path class="st26" d="M45.8,113.5c0,0-0.8,0-1.7-0.7c-0.8-0.6-2-1.8-2.7-4.5l0,0l5.3,0.7l6.1,0.3l0,0
				C52.8,109.3,46.8,111.2,45.8,113.5L45.8,113.5L45.8,113.5z"/>
			<path class="st26" d="M45.8,113.4c0,0-3-0.1-4.4-5.1l5.3,0.7l6.1,0.3C52.8,109.3,46.8,111.1,45.8,113.4"/>
			<path class="st25" d="M56.8,112.6c-0.2,0-1.9-0.5-3.3-0.9c-0.8-0.2-1.5-0.4-1.6-0.4c0,0-0.2,0-0.4,0c-1,0-3.4,0.1-3.4,0.1l0,0
				c0,0,1.8-0.9,2.2-1.1c0.4-0.2,3.1-0.2,3.3-0.2l0,0l2.6,1.2C56.2,111.2,57,111.5,56.8,112.6C56.8,112.6,56.8,112.6,56.8,112.6"/>
			<path class="st25" d="M56.8,112.5c0,0.1-4.6-1.3-4.9-1.3c-0.3,0-3.8,0.1-3.8,0.1s1.8-0.9,2.2-1.1c0.4-0.2,3.3-0.2,3.3-0.2
				l2.6,1.2C56.2,111.2,57,111.5,56.8,112.5"/>
			<polygon class="st83" points="50.3,110.2 52.8,109.2 53.6,110 50.3,110.2 			"/>
			<polygon class="st83" points="52.8,109.3 50.3,110.2 53.6,110 			"/>
			<path class="st84" d="M45.8,113.4c0,0,1-1.5,2.4-2.2l0,0l3.8-0.1l0.6,0.2l0.3,0.1l0,0c0,0-2.8,0.3-3.4,0.5
				c-0.6,0.1-1.1,0.3-1.5,0.4l-0.1,0c-0.3,0.1-0.7,0.3-0.9,0.6C46.7,113.3,45.8,113.5,45.8,113.4L45.8,113.4L45.8,113.4z"/>
			<path class="st84" d="M52.8,111.4c0,0-2.8,0.3-3.4,0.5c-0.6,0.1-1.2,0.3-1.5,0.4c-0.3,0.1-0.8,0.3-1,0.6
				c-0.2,0.3-1.1,0.5-1.1,0.5s0.9-1.4,2.4-2.2l3.8-0.1l0.6,0.2L52.8,111.4z"/>
			<path class="st85" d="M48.1,116.4c-0.3-0.1-0.8-0.7-0.9-0.9c-0.1-0.3-0.8-1.1-0.8-1.1l0,0v0c0,0,0-0.7,0.4-1.2
				c0.4-0.5,1.2-0.8,1.2-0.8l0,0C46.6,113.1,48.1,116.3,48.1,116.4L48.1,116.4L48.1,116.4z"/>
			<path class="st85" d="M48.1,116.4c0,0-1.6-3.3-0.2-4c0,0-0.8,0.3-1.2,0.8c-0.4,0.5-0.4,1.2-0.4,1.2s0.7,0.8,0.8,1.1
				C47.3,115.7,47.8,116.3,48.1,116.4"/>
			<polygon class="st86" points="63.7,109.3 71.7,108.2 71.2,113 			"/>
			<polygon class="st86" points="71.2,113 71.6,108.2 63.8,109.3 			"/>
			<polygon class="st87" points="63.8,109.3 67.9,106.5 76,104.4 73.9,108.1 71.4,108.3 63.8,109.3 			"/>
			<polygon class="st87" points="75.9,104.4 73.9,108.1 71.4,108.3 63.8,109.3 68,106.6 			"/>
			<polygon class="st88" points="75.9,104.4 75.9,104.4 86,107.2 88.6,110 87.7,112.3 			"/>
			<polygon class="st88" points="87.7,112.3 75.9,104.4 86,107.2 88.6,110 			"/>
			<path class="st11" d="M84,112.2c-0.1,0-5.4-2.1-6.2-2.2c-0.1,0-0.3,0-0.4,0c-0.8,0-1.8,0.1-1.8,0.1c-0.5,0.2-0.9,0.3-1.2,0.4
				c-0.5,0.1-0.9,0.2-1.2,0.2c-0.4,0-0.5-0.1-0.5-0.1l0,0l2.9-1.3c0.2-0.1,0.4-0.1,0.7-0.1c1.8,0,5.1,1.2,7.5,2.1
				c0.1,0,0.1,0.1,0.2,0.1c0.8,0.3,2,1.2,2,1.2l0,0l-0.9,0.2L84,112.2z"/>
			<path class="st11" d="M75.6,109.3l-2.9,1.3c0,0,0.3,0.3,1.6-0.1c0.3-0.1,0.8-0.2,1.3-0.4c0,0,1.4-0.2,2.2-0.1
				c0.8,0.1,6.2,2.2,6.2,2.2l1.1,0.7l0.9-0.2c0,0-1.2-0.9-2-1.2C83.1,111.1,77.5,108.7,75.6,109.3"/>
			<path class="st89" d="M71.1,113l0.1-1l1.4-1.4l0,0c0.1,0.1,0.3,0.1,0.5,0.1h0c0.5,0,1.1-0.2,1.1-0.2l0,0l-1.6,1.4l1.3,1H71.1z"/>
			<path class="st89" d="M72.7,112l1.6-1.5c0,0-1.2,0.4-1.6,0.1l-1.4,1.4l-0.1,1H74L72.7,112z"/>
			<path class="st90" d="M71.6,108.2l2.2-0.1l0,0c0.1,0,1.6,0.9,1.7,1.2l0,0l-2.9,1.3l-1.4,1.4L71.6,108.2z"/>
			<path class="st90" d="M75.6,109.3c-0.1-0.3-1.7-1.2-1.7-1.2l-2.2,0.1l-0.4,3.7l1.4-1.4L75.6,109.3z"/>
			<path class="st12" d="M85.9,112.7L85.9,112.7c-0.1,0-0.1-0.1-0.2-0.1c-0.4-0.3-1-0.8-4.7-2.2c-2.5-0.9-4-1.1-4.8-1.1
				c-0.5,0-0.7,0.1-0.7,0.1l0,0l0,0c-0.1-0.3-1.7-1.2-1.7-1.2l0,0l4.6,0.1l5.3,1.4l4,2.7l-0.3,0.7L85.9,112.7z"/>
			<path class="st12" d="M83.7,109.7l-5.2-1.4l-4.6-0.1c0,0,1.6,0.8,1.7,1.2c0,0,1.3-0.5,5.5,1.1c4.2,1.5,4.4,2,4.9,2.3l1.5,0.3
				l0.3-0.7L83.7,109.7z"/>
			<polygon class="st91" points="134.7,133.2 134.7,133.2 141.7,144.3 142.9,163.1 142.8,163.1 			"/>
			<polygon class="st91" points="134.7,133.2 141.7,144.4 142.1,151.7 142.8,163.1 			"/>
			<polygon class="st92" points="142.8,163.1 142.1,151.1 142.1,151.1 148.9,168.1 148.8,168.1 			"/>
			<polygon class="st92" points="148.8,168.1 142.1,151.1 142.8,163.1 			"/>
			<path class="st93" d="M104.5,108.1L104.5,108.1C104.6,108.1,104.6,108.1,104.5,108.1c0.1,0,0.2,0,0.3,0.1
				c0.8,0.8,1.3,5.3,1.6,13.5c0.2,6.1,0.2,12,0.2,12.1l0,0l-21.7,9.5L104.5,108.1z"/>
			<path class="st93" d="M104.6,108.1L85,143.3l21.6-9.5C106.6,133.8,106.7,107.9,104.6,108.1"/>
			<path class="st94" d="M76.9,114.4c0,0-1.8-0.2-2.9-1.4l-1.3-1l1.7-1.5l1.3-0.4l0,0C75.6,110.2,74.7,113.4,76.9,114.4L76.9,114.4z
				"/>
			<path class="st94" d="M75.6,110.1c0,0-0.9,3.2,1.3,4.3c0,0-1.8-0.2-2.9-1.4l-1.3-1l1.6-1.5L75.6,110.1z"/>
			<path class="st10" d="M78.2,114.6c-0.5,0-1-0.1-1.3-0.2c0,0-2.2-0.8-1.3-4.3l0,0l0,0c0,0,1.4-0.1,2-0.1c0.1,0,0.2,0,0.2,0
				c0.3,0.1,3.2,1,3.3,1.1l0,0l0,0c0,0,0.3,2.4-0.9,3.2C80.2,114.3,79.3,114.6,78.2,114.6"/>
			<path class="st10" d="M75.6,110.1c0,0,1.9-0.2,2.2-0.1c0.3,0.1,3.3,1.1,3.3,1.1s0.3,2.4-0.9,3.2c0,0-1.9,0.5-3.3,0.1
				C76.9,114.4,74.7,113.6,75.6,110.1"/>
			<polygon class="st95" points="76.1,111.7 77.1,111.7 77.6,113.2 77.6,113.2 			"/>
			<polygon class="st95" points="77.6,113.2 77.1,111.7 76.2,111.7 			"/>
			<polygon class="st96" points="76.2,111.8 75.9,111 77.4,110.3 77.1,111.8 			"/>
			<polygon class="st96" points="77.3,110.3 75.9,111 76.2,111.7 77.1,111.7 			"/>
			<path class="st22" d="M52.8,115.6c0.5-0.8,0.7-1.6,0.5-2.4c-0.3-1.1-1.2-1.7-1.2-1.7l0,0l0.5-0.2l4.4,1.2l-0.5,1.3L52.8,115.6
				L52.8,115.6z"/>
			<path class="st22" d="M52,111.5c0,0,2.4,1.4,0.8,4.1l3.5-1.8l0.5-1.3l-4.3-1.2L52,111.5z"/>
			<path class="st27" d="M50.5,116.4c0,0-2.2-0.5-2.4-2.7c0-0.1,0.1-1.3,0.2-1.5c0.1-0.2,3.3-0.6,3.7-0.6l0,0l0,0
				c0,0,1.1,0.7,1.4,1.9c0.1,0.7-0.1,1.5-0.6,2.2l0,0L50.5,116.4L50.5,116.4z"/>
			<path class="st27" d="M50.5,116.4c0,0-2.2-0.5-2.4-2.7c0,0,0.1-1.3,0.2-1.5c0.1-0.2,3.7-0.6,3.7-0.6s2.5,1.6,0.8,4.1L50.5,116.4z
				"/>
			<path class="st97" d="M49.1,116.6c-0.4,0-0.7-0.1-1-0.2l0,0l0,0c0,0-0.4-0.8-0.6-1.6c-0.3-1.2-0.2-1.9,0.2-2.3l0.7-0.3l0,0
				c0,0-0.3,1.5-0.2,1.8c0,0,0,0.1,0,0.1c0.2,0.5,0.6,1.8,2.3,2.3l0,0C50.5,116.4,49.8,116.6,49.1,116.6"/>
			<path class="st97" d="M48.1,116.4c0,0-1.4-3-0.4-3.9l0.6-0.3c0,0-0.3,1.5-0.2,1.8c0.1,0.3,0.5,1.9,2.4,2.4
				C50.5,116.4,48.9,116.7,48.1,116.4"/>
			<path class="st98" d="M51.1,114.3c-0.2,0-1.1,0-1.1-0.9c0-0.4,0.1-0.7,0.3-0.9c0.1-0.1,0.3-0.2,0.5-0.2c0.1,0,0.2,0,0.3,0.1
				c0.4,0.1,0.6,0.9,0.5,1.5C51.6,114.1,51.4,114.3,51.1,114.3C51.2,114.3,51.1,114.3,51.1,114.3"/>
			<path class="st98" d="M51.2,114.3c0,0-1.1,0.1-1.1-0.9s0.6-1.3,1.1-1.1S51.9,114.3,51.2,114.3"/>
			<path class="st23" d="M50.3,116.3C50.3,116.3,50.3,116.3,50.3,116.3c-1.9-0.6-2.2-2.4-2.2-2.4l0,0l1.9-0.5l0.5,0.7l0,0
				C50.5,114.2,50.6,116.1,50.3,116.3C50.4,116.3,50.3,116.3,50.3,116.3L50.3,116.3z"/>
			<path class="st23" d="M50.3,116.3c0.3,0.1,0.2-2.2,0.2-2.2l-0.4-0.7l-1.9,0.5C48.2,113.9,48.4,115.8,50.3,116.3"/>
			<path class="st99" d="M79.7,116.3L79.7,116.3c2.8-0.2,4.7-1.1,5.9-1.8c1.2-0.8,1.8-1.5,1.8-1.5l0,0l17.2-4.9l-19.7,35.3
				L79.7,116.3z"/>
			<path class="st99" d="M104.6,108.1L87.4,113c0,0-2.4,3-7.7,3.3l5.2,27L104.6,108.1z"/>
			<path class="st100" d="M68.8,122.8l2.4-9.9l0,0c3.2,2.7,8.5,3.3,8.5,3.3l0,0l5.2,27l0,0L68.8,122.8z"/>
			<path class="st100" d="M79.7,116.3c0,0-5.3-0.6-8.6-3.3l-2.4,9.9L85,143.3L79.7,116.3z"/>
			<polygon class="st101" points="78.5,108.3 73.8,108.1 75.9,104.4 83.8,109.6 83.7,109.7 			"/>
			<polygon class="st101" points="73.9,108.1 75.9,104.4 83.7,109.7 78.5,108.2 			"/>
			<path class="st102" d="M80.2,114.3c1.2-0.9,0.9-3.2,0.9-3.2l0,0l2.9,1.1l1.1,0.7L80.2,114.3L80.2,114.3z"/>
			<path class="st102" d="M81.1,111.1c0,0,0.4,2.3-0.9,3.2l4.9-1.4l-1.1-0.7L81.1,111.1z"/>
			<path class="st103" d="M79.9,116.3c-0.1,0-0.1,0-0.2,0c-0.1,0-0.5-0.1-2.1-0.3c-0.8-0.1-3.5-1.1-4.9-1.9c-0.1,0-1.3-0.7-1.5-1.1
				l0,0H74l0,0c0,0,1.4,1.5,4.4,1.5c0.5,0,1,0,1.5-0.1l3.7-1.2l2.4-0.6l1.5,0.3l-0.1,0.3l0,0C87.3,113.3,83.9,116.3,79.9,116.3"/>
			<path class="st103" d="M74,113c0,0,1.9,2,5.9,1.4l3.7-1.2l2.4-0.6l1.5,0.3l-0.1,0.2c0,0-3.6,3.2-7.6,3.1c-0.2,0-0.7-0.1-2.1-0.3
				c-0.8-0.1-3.5-1.1-4.9-1.9c0,0-1.3-0.7-1.5-1.1H74z"/>
			<polygon class="st104" points="60.9,111.7 66.9,120.2 56.5,128.2 			"/>
			<polygon class="st104" points="66.9,120.1 56.6,128.1 60.9,111.7 			"/>
			<path class="st105" d="M53.1,130.5c0,0-2.2-0.5-2.8-3l0,0l2.8-2l3,4.3L53.1,130.5L53.1,130.5z"/>
			<path class="st105" d="M56.1,129.7l-3,0.8c0,0-2.2-0.5-2.8-3l2.8-2L56.1,129.7z"/>
			<path class="st106" d="M53.1,125.5l3.7-13c0,0,0.3-0.9-0.6-1.3l0,0l3-1.9l1.8,2.5l-4.4,16.4l-0.5,1.7L53.1,125.5z"/>
			<path class="st106" d="M56.2,111.2l3-1.9l1.7,2.5l-4.4,16.4l-0.5,1.6l-3-4.2l3.7-13C56.8,112.5,57.1,111.6,56.2,111.2"/>
			<path class="st107" d="M50.3,127.5c-0.7-1.4-0.1-4.2-0.1-4.2l0,0l6.2-9.7l0,0l-3.4,11.9L50.3,127.5L50.3,127.5z"/>
			<path class="st107" d="M50.3,123.3c0,0-0.6,2.8,0.1,4.2l2.8-2l3.4-11.9L50.3,123.3z"/>
		</g>
	</g>
</g>
</svg>
