<?xml version="1.0" encoding="utf-8"?>
<!-- Generator: Adobe Illustrator 19.2.1, SVG Export Plug-In . SVG Version: 6.00 Build 0)  -->
<svg version="1.1" id="Layer_1" xmlns="http://www.w3.org/2000/svg" xmlns:xlink="http://www.w3.org/1999/xlink" x="0px" y="0px"
	 width="192px" height="234px" viewBox="0 0 192 234" style="enable-background:new 0 0 192 234;" xml:space="preserve">
<style type="text/css">
	.st0{fill:#F2F2F2;}
	.st1{fill:#D54339;}
	.st2{fill:#BB7831;}
	.st3{fill:#824B1F;}
	.st4{fill:#AE6F2F;}
	.st5{fill:#BF7C3B;}
	.st6{fill:#C6833C;}
	.st7{fill:#814D1F;}
	.st8{fill:#593011;}
	.st9{fill:#874D22;}
	.st10{fill:#673514;}
	.st11{fill:#D4A067;}
	.st12{fill:#DA9C64;}
	.st13{fill:#CC9459;}
	.st14{fill:#C48849;}
	.st15{fill:#B37735;}
	.st16{fill:#BE8031;}
	.st17{fill:#AB712A;}
	.st18{fill:#CB8B43;}
	.st19{fill:#D19140;}
	.st20{fill:#CD8A40;}
	.st21{fill:#C38B46;}
	.st22{fill:#DD9F54;}
	.st23{fill:#F4AE7A;}
	.st24{fill:#F1A763;}
	.st25{fill:#DE9C67;}
	.st26{fill:#DBAC79;}
	.st27{fill:#E0AC76;}
	.st28{fill:#DFAE79;}
	.st29{fill:#D29E69;}
	.st30{fill:#C48B4E;}
	.st31{fill:#D99950;}
	.st32{fill:#B17636;}
	.st33{fill:#C8812E;}
	.st34{fill:#D99152;}
	.st35{fill:#F6AD71;}
	.st36{fill:#C6803A;}
	.st37{fill:#CC8942;}
	.st38{fill:#D78D43;}
	.st39{fill:#DC8D46;}
	.st40{fill:#CE8842;}
	.st41{fill:#E19A4B;}
	.st42{fill:#E79A4F;}
	.st43{fill:#F0A85F;}
	.st44{fill:#DF974F;}
	.st45{fill:#C17330;}
	.st46{fill:#AC6C2C;}
	.st47{fill:#A95F27;}
	.st48{fill:#C57735;}
	.st49{fill:#DB9141;}
	.st50{fill:#D58537;}
	.st51{fill:#C27835;}
	.st52{fill:#D8935D;}
	.st53{fill:#B2723B;}
	.st54{fill:#31120D;}
	.st55{fill:#AB673E;}
	.st56{fill:#D7874D;}
	.st57{fill:#EDA470;}
	.st58{fill:#D9873C;}
	.st59{fill:#F6AE7B;}
	.st60{fill:#F3AA79;}
	.st61{fill:#F7B382;}
	.st62{fill:#EDAC6D;}
	.st63{fill:#E6A06A;}
	.st64{fill:#A45826;}
	.st65{fill:#AC6A34;}
	.st66{fill:#A96328;}
	.st67{fill:#7A5033;}
	.st68{fill:#934F22;}
	.st69{fill:#805228;}
	.st70{fill:#583A20;}
	.st71{fill:#D3C281;}
	.st72{fill:#79401B;}
	.st73{fill:#29170F;}
	.st74{fill:#E1C596;}
	.st75{fill:#723416;}
	.st76{fill:#70461C;}
	.st77{fill:#B3682D;}
	.st78{fill:#B57B44;}
	.st79{fill:#362411;}
	.st80{fill:#382A15;}
	.st81{fill:#443622;}
	.st82{fill:#4E3A22;}
	.st83{fill:#694C2E;}
	.st84{fill:#CC8743;}
	.st85{fill:#703917;}
	.st86{fill:#5D2E15;}
	.st87{fill:#6C4019;}
	.st88{fill:#703817;}
	.st89{fill:#5B2C10;}
	.st90{fill:#412513;}
	.st91{fill:#EDE995;}
	.st92{fill:#A55B26;}
	.st93{fill:#C57349;}
	.st94{fill:#935225;}
	.st95{fill:#9F5E29;}
	.st96{fill:#342113;}
	.st97{fill:#352716;}
	.st98{fill:none;stroke:#000000;stroke-width:0.25;stroke-miterlimit:10;}
	.st99{fill:#302415;}
	.st100{fill:#2A1F10;}
	.st101{fill:#3C2914;}
	.st102{fill:#4E3115;}
	.st103{fill:#855E33;}
	.st104{fill:#FBC390;}
	.st105{fill:#312018;}
	.st106{fill:#D89359;}
	.st107{fill:#D89455;}
	.st108{fill:#8D4221;}
	.st109{fill:#B25C27;}
	.st110{fill:#E7A269;}
	.st111{fill:#D2884D;}
	.st112{fill:#E39B60;}
	.st113{fill:#ECA97D;}
	.st114{fill:#E49762;}
	.st115{fill:#D29054;}
	.st116{fill:#D07C41;}
	.st117{fill:#D18846;}
	.st118{fill:#D78850;}
	.st119{fill:#D79458;}
	.st120{fill:#B9692F;}
	.st121{fill:#89421F;}
	.st122{fill:#683C1A;}
	.st123{fill:#CF905A;}
	.st124{fill:#E7A571;}
	.st125{fill:#C97B3D;}
	.st126{fill:#4E381E;}
	.st127{fill:#E6A15B;}
	.st128{fill:#F7B77A;}
	.st129{fill:#FABB8D;}
	.st130{fill:#F8BB83;}
	.st131{fill:#DF9548;}
	.st132{fill:#22150C;}
	.st133{fill:#D5893E;}
	.st134{fill:#4E2711;}
	.st135{fill:#3A2514;}
	.st136{fill:#35291B;}
	.st137{fill:#CC7A32;}
	.st138{fill:#29160D;}
	.st139{fill:#1E160B;}
	.st140{fill:#13100B;}
	.st141{fill:#28150D;}
	.st142{fill:#070707;}
	.st143{fill:#090606;}
	.st144{fill:#0C0D0A;}
	.st145{fill:#11120C;}
	.st146{fill:#1E201B;}
	.st147{fill:#15130D;}
	.st148{fill:#121211;}
	.st149{fill:#161916;}
	.st150{fill:#111213;}
	.st151{fill:#19140C;}
	.st152{fill:#161917;}
	.st153{fill:#070B09;}
	.st154{fill:#171713;}
	.st155{fill:#222620;}
	.st156{fill:#191A16;}
	.st157{fill:#1B1914;}
	.st158{fill:#0E1010;}
	.st159{fill:#1B1D19;}
	.st160{fill:#141411;}
	.st161{fill:#21221B;}
	.st162{fill:#0F0D09;}
	.st163{fill:#723F1B;}
	.st164{fill:#9A5728;}
	.st165{fill:#9D562C;}
	.st166{fill:#DC6B3A;}
	.st167{fill:#D57E4C;}
	.st168{fill:#F58958;}
	.st169{fill:#F37D54;}
	.st170{fill:#BE723E;}
	.st171{fill:#DA8150;}
	.st172{fill:#F59163;}
	.st173{fill:#F27E4E;}
	.st174{fill:#E08458;}
	.st175{fill:#CF805C;}
	.st176{fill:#BB795C;}
	.st177{fill:#904824;}
	.st178{fill:#854528;}
	.st179{fill:#92512C;}
	.st180{fill:#B46428;}
	.st181{fill:#B5653B;}
	.st182{fill:#AE5D31;}
	.st183{fill:#A25628;}
	.st184{fill:#AE6538;}
	.st185{fill:#9B552F;}
	.st186{fill:#9A5231;}
	.st187{fill:#FAF6C0;}
	.st188{fill:#AF6836;}
	.st189{fill:#C9824A;}
	.st190{fill:#C28E55;}
	.st191{fill:#AE6837;}
	.st192{fill:#B47139;}
	.st193{fill:#DE9245;}
	.st194{fill:#763F1A;}
	.st195{fill:#6E4622;}
	.st196{fill:#7F5C35;}
	.st197{fill:#845F40;}
	.st198{fill:#795633;}
	.st199{fill:#947052;}
	.st200{fill:#896131;}
	.st201{fill:#815D31;}
	.st202{fill:#935D34;}
	.st203{fill:#A36928;}
	.st204{fill:#14090A;}
	.st205{fill:#1D130A;}
	.st206{fill:#FCC591;}
	.st207{fill:#F5B37B;}
	.st208{fill:#E7A874;}
	.st209{fill:#D28E42;}
	.st210{fill:#E4A05D;}
	.st211{fill:#CB975D;}
	.st212{fill:#F2A474;}
	.st213{fill:#64250E;}
	.st214{fill:#70431E;}
	.st215{fill:#693C1A;}
	.st216{fill:#D18347;}
	.st217{fill:#E59B52;}
	.st218{fill:#DA863D;}
	.st219{fill:#F5B480;}
</style>
<rect class="st0" width="192" height="234"/>
<polygon class="st1" points="192,215.5 172.5,234 192,234 "/>
<g>
	<path class="st2" d="M65.6,163.7c-2.4-3.3-6.8-13.3-6.9-13.4l23.3,3.7L65.6,163.7L65.6,163.7z"/>
	<path class="st2" d="M58.7,150.3c0,0,4.5,10.1,6.9,13.4l16.5-9.7L58.7,150.3z"/>
	<path class="st3" d="M89.6,177.9c-0.1,0-12.2-4.1-13-4.8l3.8-4L89.6,177.9L89.6,177.9z"/>
	<path class="st3" d="M89.6,177.9c0,0-12.2-4.1-13-4.8l3.8-4L89.6,177.9z"/>
	<polygon class="st4" points="72.3,159.7 80.4,169.2 76.6,173.1 	"/>
	<polygon class="st4" points="72.3,159.7 80.4,169.2 76.6,173.1 	"/>
	<polygon class="st5" points="72.3,159.7 82.1,154 80.4,169.2 	"/>
	<polygon class="st5" points="82.1,154 80.4,169.2 72.3,159.7 	"/>
	<path class="st6" d="M82.1,154c0.1,0.1,5.1,6.3,7.9,7l-9.6,8.2L82.1,154z"/>
	<path class="st6" d="M89.9,160.9l-9.6,8.2l1.7-15.2C82.1,154,87.1,160.2,89.9,160.9z"/>
	<polygon class="st7" points="80.4,169.2 94.6,174.8 89.6,177.9 	"/>
	<polygon class="st7" points="89.6,177.9 80.4,169.2 94.6,174.8 	"/>
	<path class="st8" d="M95.4,178.5c-3.5,0-5.7-0.6-5.7-0.6l5-3.1l9.3,2.6C101,178.2,98.2,178.5,95.4,178.5
		C95.4,178.5,95.4,178.5,95.4,178.5z"/>
	<path class="st8" d="M103.9,177.5l-9.3-2.6l-5,3.1C89.6,177.9,95.5,179.5,103.9,177.5z"/>
	<polygon class="st9" points="94.6,174.8 110.3,171.7 103.9,177.5 	"/>
	<polygon class="st9" points="110.3,171.7 94.6,174.8 103.9,177.5 	"/>
	<path class="st10" d="M103.9,177.5l6.4-5.7l9.9-0.7C109.4,177.4,103.9,177.5,103.9,177.5L103.9,177.5z"/>
	<path class="st10" d="M120.1,171.1l-9.9,0.7l-6.4,5.7C103.9,177.5,109.3,177.5,120.1,171.1z"/>
	<polygon class="st11" points="80.4,169.2 89.9,160.9 94.6,174.8 	"/>
	<polygon class="st11" points="89.9,160.9 94.6,174.8 80.4,169.2 	"/>
	<polygon class="st12" points="89.9,160.9 100.2,161.6 94.6,174.8 	"/>
	<polygon class="st12" points="100.2,161.6 89.9,160.9 94.6,174.8 	"/>
	<polygon class="st13" points="100.1,161.6 110.3,171.7 94.6,174.8 	"/>
	<polygon class="st13" points="110.3,171.7 100.2,161.6 94.6,174.8 	"/>
	<path class="st14" d="M100.1,161.6c5.2-0.8,10.1-5.9,10.1-6l0,16.2L100.1,161.6z"/>
	<path class="st14" d="M110.3,155.6c0,0-4.8,5.2-10.1,6l10.1,10.2V155.6z"/>
	<polygon class="st15" points="110.3,155.6 120.1,171 110.3,171.7 	"/>
	<path class="st15" d="M120.1,171.1l-9.9-15.5v16.1C110.3,171.7,118.1,171.2,120.1,171.1z"/>
	<path class="st16" d="M110.3,155.6l20.3-0.8c-4.6,9.6-10.4,16.2-10.4,16.2l0,0L110.3,155.6z"/>
	<path class="st16" d="M130.6,154.8l-20.3,0.8l9.9,15.5C120.1,171.1,125.9,164.5,130.6,154.8z"/>
	<path class="st17" d="M134,137.6c0,0.2-2.3,16.2-3.4,17.2l-7.2,0.3L134,137.6z"/>
	<path class="st17" d="M134,137.6c0,0-2.3,16.2-3.4,17.2l-7.2,0.3L134,137.6z"/>
	<polygon class="st18" points="112.2,147.2 134,137.6 123.3,155.1 	"/>
	<polygon class="st18" points="112.2,147.2 116.5,150.3 123.3,155.1 134,137.6 	"/>
	<polygon class="st19" points="116.5,150.3 123.3,155.1 115.2,155.4 	"/>
	<polygon class="st19" points="115.2,155.4 116.5,150.3 123.3,155.1 	"/>
	<polygon class="st20" points="112.2,147.2 116.5,150.2 115.2,155.4 110.3,155.6 	"/>
	<polygon class="st20" points="110.3,155.6 112.2,147.2 116.5,150.3 115.2,155.4 	"/>
	<polygon class="st21" points="105.2,150.3 112.2,147.2 110.3,155.6 	"/>
	<polygon class="st21" points="105.2,150.3 110.3,155.6 112.2,147.2 	"/>
	<polygon class="st22" points="120.4,133.8 132.6,124.1 134,137.6 	"/>
	<polygon class="st22" points="132.6,124.1 134,137.6 120.4,133.8 	"/>
	<polygon class="st23" points="107.8,134.7 120.4,133.8 112.2,147.2 	"/>
	<polygon class="st23" points="107.8,134.7 112.2,147.2 120.4,133.8 	"/>
	<polygon class="st24" points="105.9,124.1 120.4,133.8 107.8,134.7 	"/>
	<polygon class="st24" points="105.9,124.1 107.8,134.7 120.4,133.8 	"/>
	<path class="st25" d="M103,141.7c2.2-0.3,3.8-1,4.6-2.2c1-1.4,0.7-3.2,0.4-4.1l-0.2-0.7c0,0,0.1,0.3,0.2,0.7l0,0l4.1,11.8
		L103,141.7z"/>
	<path class="st25" d="M103,141.7l9.1,5.5l-4.3-12.5C107.8,134.7,110.6,140.8,103,141.7z"/>
	<path class="st26" d="M105.2,150.3c-1.4-1.5-3-2.2-4.7-2.2c-2,0-3.5,1.1-3.5,1.1l6-7.4L105.2,150.3L105.2,150.3z"/>
	<path class="st26" d="M97,149.1c0,0,4.2-3,8.2,1.1l-2.2-8.5L97,149.1z"/>
	<polygon class="st27" points="93,141.7 103,141.7 97,149.1 	"/>
	<polygon class="st27" points="93,141.7 97,149.1 103,141.7 	"/>
	<path class="st28" d="M87.2,149.3l5.8-7.6l4,7.4c0,0-2-1.6-4.8-1.6C90.4,147.5,88.8,148.1,87.2,149.3L87.2,149.3z"/>
	<path class="st28" d="M87.2,149.3l5.8-7.6l4,7.4C97,149.1,92.4,145.4,87.2,149.3z"/>
	<path class="st29" d="M83.7,140.5l2.9-4.5c0,0-0.3,2,1,3.6c1.1,1.3,2.9,2,5.4,2.1l-5.8,7.6L83.7,140.5z"/>
	<path class="st29" d="M86.6,136c0,0-0.9,5.4,6.4,5.7l-5.8,7.6l-3.5-8.8L86.6,136z"/>
	<polygon class="st30" points="83.7,140.5 87.2,149.3 82.1,154 	"/>
	<polygon class="st30" points="82.1,154 87.2,149.3 83.7,140.5 	"/>
	<polygon class="st31" points="75.8,153 83.1,145 82.1,154 	"/>
	<polygon class="st31" points="75.8,153 83.1,145 82.1,154 	"/>
	<path class="st32" d="M58.7,150.3c-0.9-3.3-1.4-13.6-1.4-13.7l12.7,15.5L58.7,150.3z"/>
	<path class="st32" d="M57.4,136.6c0,0,0.5,10.4,1.4,13.7l11.3,1.8L57.4,136.6z"/>
	<polygon class="st33" points="70.1,152.1 65.1,146 83.1,145 75.8,153 	"/>
	<polygon class="st33" points="83.1,145 65.1,146 70.1,152.1 75.8,153 	"/>
	<polygon class="st34" points="74.1,132.3 83.1,145 65.1,146 	"/>
	<polygon class="st34" points="74.1,132.3 65.1,146 83.1,145 	"/>
	<polygon class="st35" points="74.1,132.3 85.1,127.3 83.7,140.5 83.1,145 	"/>
	<polygon class="st35" points="85.1,127.3 74.1,132.3 83.1,145 83.7,140.5 	"/>
	<polygon class="st36" points="57.4,136.6 71.3,136.6 65.1,146 	"/>
	<polygon class="st36" points="71.3,136.6 57.4,136.6 65.1,146 	"/>
	<polygon class="st37" points="58.4,136.6 59.6,124.9 71.3,136.6 	"/>
	<polygon class="st37" points="59.6,124.9 58.4,136.6 71.3,136.6 	"/>
	<polygon class="st38" points="83.7,140.5 85.1,127.3 90.5,128.9 86.6,136 83.7,140.5 	"/>
	<polygon class="st38" points="90.5,128.9 86.6,136 83.7,140.5 85.1,127.3 	"/>
	<polygon class="st39" points="63.5,128.8 74.1,132.3 71.3,136.6 	"/>
	<polygon class="st39" points="74.1,132.3 63.5,128.8 71.3,136.6 	"/>
	<polygon class="st40" points="59.6,124.9 61,116 69.4,120 63.5,128.8 	"/>
	<polygon class="st40" points="61,116 59.6,124.9 63.5,128.8 69.4,120 	"/>
	<polygon class="st41" points="63.5,128.8 69.4,120 74.1,132.4 	"/>
	<polygon class="st41" points="74.1,132.3 69.4,120 63.5,128.8 	"/>
	<path class="st42" d="M69.4,120c0,0,2.1,2.1,7.4,2.1c0,0,0,0,0,0c0.7,0,1.4,0,2.1-0.1l-4.8,10.4L69.4,120z"/>
	<path class="st42" d="M78.9,122l-4.8,10.3L69.4,120C69.4,120,72,122.7,78.9,122z"/>
	<polygon class="st43" points="78.9,122 85.1,127.3 74.1,132.4 	"/>
	<polygon class="st43" points="85.1,127.3 78.9,122 74.1,132.3 	"/>
	<polygon class="st44" points="78.9,122 88.3,120.3 85.1,127.3 	"/>
	<polygon class="st44" points="88.3,120.3 85.1,127.3 78.9,122 	"/>
	<polygon class="st45" points="85.1,127.3 88.3,120.3 93.6,121.1 90.5,128.9 	"/>
	<polygon class="st45" points="90.5,128.9 93.6,121.1 88.3,120.3 85.1,127.3 	"/>
	<polygon class="st46" points="61,116 65.4,111.3 69.4,120 	"/>
	<polygon class="st46" points="65.4,111.3 69.4,120 61,116 	"/>
	<polygon class="st47" points="88.3,120.3 89.9,110.5 93.6,121.1 	"/>
	<polygon class="st47" points="89.9,110.5 88.3,120.3 93.6,121.1 	"/>
	<polygon class="st48" points="89.9,110.5 95.5,116.3 93.6,121.1 	"/>
	<polygon class="st48" points="95.5,116.3 93.6,121.1 89.9,110.5 	"/>
	<polygon class="st49" points="119.9,123.8 126.6,128.9 120.4,133.8 	"/>
	<polygon class="st49" points="119.9,123.8 120.4,133.8 126.6,128.9 	"/>
	<polygon class="st50" points="112.2,128.3 119.9,123.8 120.4,133.8 	"/>
	<polygon class="st50" points="112.2,128.3 119.9,123.8 120.4,133.8 	"/>
	<polygon class="st51" points="105.9,124.1 119.9,123.8 112.2,128.3 	"/>
	<polygon class="st51" points="105.9,124.1 119.9,123.8 112.2,128.3 	"/>
	<polygon class="st52" points="106.6,120.8 119.9,123.8 105.9,124.1 	"/>
	<polygon class="st52" points="106.6,120.8 105.9,124.1 119.9,123.8 	"/>
	<polygon class="st53" points="124.7,123.9 130.9,114.7 132.6,124.1 	"/>
	<polygon class="st53" points="130.9,114.7 124.7,123.9 132.6,124.1 	"/>
	<path class="st54" d="M94.6,139.2c0,0-4.2-0.4-4.7-1c0,0,0.5-1.6,1.7-1.6c0.1,0,0.1,0,0.2,0C94.3,136.9,94.6,138.6,94.6,139.2
		L94.6,139.2L94.6,139.2z"/>
	<path class="st54" d="M94.6,139.2c0,0-4.1-0.4-4.7-1c0,0,0.6-1.8,1.9-1.6C93.1,136.7,94.6,137.5,94.6,139.2z"/>
	<path class="st54" d="M99.9,139.2c0,0,0.6-2.2,2.3-2.3c0,0,0.1,0,0.1,0c1.1,0,1.9,0.6,2.4,1.1c0.4,0.4,0.6,0.9,0.5,1.2l0,0H99.9z"
		/>
	<path class="st54" d="M105.2,139.2h-5.3c0,0,0.6-2.2,2.3-2.3C103.9,136.8,105.3,138.2,105.2,139.2z"/>
	<polygon class="st55" points="94.6,139.2 97,136.5 99.9,139.2 97.7,141.7 	"/>
	<polygon class="st55" points="97,136.5 94.6,139.2 97.7,141.7 99.9,139.2 	"/>
	<polygon class="st56" points="88.6,132.3 90.5,128.9 95.5,129.8 92.7,136.8 	"/>
	<polygon class="st56" points="95.5,129.8 92.7,136.8 88.6,132.3 90.5,128.9 	"/>
	<polygon class="st57" points="90.5,128.9 93.6,121.1 95.5,129.8 	"/>
	<polygon class="st57" points="93.6,121.1 95.5,129.8 90.5,128.9 	"/>
	<polygon class="st58" points="103.4,129.4 101.1,121.1 105.9,124.1 107.8,134.7 	"/>
	<polygon class="st58" points="101.1,121.1 103.4,129.4 107.8,134.7 105.9,124.1 	"/>
	<polygon class="st59" points="95.5,129.8 93.6,121.1 103.4,129.4 101.5,134.7 	"/>
	<polygon class="st59" points="93.6,121.1 103.4,129.4 101.5,134.7 95.5,129.8 	"/>
	<polygon class="st60" points="93.6,121.1 101.1,121.1 103.4,129.4 	"/>
	<polygon class="st60" points="101.1,121.1 93.6,121.1 103.4,129.4 	"/>
	<polygon class="st61" points="93.6,121.1 95.5,116.3 101.1,121.1 	"/>
	<polygon class="st61" points="95.5,116.3 101.1,121.1 93.6,121.1 	"/>
	<polygon class="st62" points="95.5,116.3 103.7,111.5 101.1,121.1 	"/>
	<polygon class="st62" points="103.7,111.5 95.5,116.3 101.1,121.1 	"/>
	<path class="st63" d="M89.9,110.5c0.6,0.2,13.6,1,13.8,1l-8.2,4.8L89.9,110.5z"/>
	<path class="st63" d="M89.9,110.5c0.6,0.2,13.8,1,13.8,1l-8.2,4.8L89.9,110.5z"/>
	<polygon class="st64" points="101.1,121.1 103.7,111.5 106.6,120.8 105.9,124.1 	"/>
	<polygon class="st64" points="106.6,120.8 103.7,111.5 101.1,121.1 105.9,124.1 	"/>
	<path class="st65" d="M61,116c0.4-5.2,5.2-12.5,5.3-12.6l-0.9,7.9L61,116L61,116z"/>
	<path class="st65" d="M66.3,103.4c0,0-4.8,7.3-5.3,12.6l4.4-4.7L66.3,103.4z"/>
	<polygon class="st66" points="66.3,103.4 71.7,105.7 65.4,111.3 	"/>
	<polygon class="st66" points="71.7,105.7 66.3,103.4 65.4,111.3 	"/>
	<polygon class="st67" points="119.9,123.8 125.7,122.4 124.7,123.9 	"/>
	<polygon class="st67" points="119.9,123.8 125.7,122.4 124.7,123.9 	"/>
	<polygon class="st68" points="106.6,120.8 108.3,120.3 113.4,121.5 114.1,122.5 	"/>
	<polygon class="st68" points="106.6,120.8 108.3,120.3 113.4,121.5 114.1,122.5 	"/>
	<polygon class="st69" points="114.1,122.5 113.4,121.5 118.5,122.9 119.9,123.8 119.9,123.8 	"/>
	<polygon class="st69" points="119.9,123.8 118.5,122.9 113.4,121.5 114.1,122.5 	"/>
	<path class="st70" d="M118.5,122.9c0.5,0.1,0.9,0.2,1.3,0.2c0,0,0,0,0,0c0.8,0,1.4-0.2,1.8-0.7c0.8-0.8,0.8-2.1,0.8-2.1l2.3,2.4
		l-4.8,1.1L118.5,122.9z"/>
	<path class="st70" d="M122.4,120.3c0,0,0,3.6-3.9,2.6l1.4,0.9l4.8-1.1L122.4,120.3z"/>
	<path class="st71" d="M110.3,120.8l0-2.3l2.8-1.3c0,0-1.1,1.6,0.2,4.3l0,0L110.3,120.8z"/>
	<path class="st71" d="M113.2,117.2c0,0-1.1,1.6,0.2,4.3l-3.1-0.8v-2.3L113.2,117.2z"/>
	<polygon class="st72" points="108.3,120.3 106.6,120.8 106.3,120 110.3,118.5 110.3,120.8 	"/>
	<polygon class="st72" points="106.3,120 110.3,118.5 110.3,120.8 108.3,120.3 106.6,120.8 	"/>
	<path class="st73" d="M113.4,121.5c0,0-1.4-2.5-0.2-4.3c0,0,1-0.5,2.5-0.5c1.3,0,2.7,0.3,3.9,1c0,0,0.2,3.2-2.6,4.7l0,0
		L113.4,121.5z"/>
	<path class="st73" d="M119.6,117.8c0,0,0.2,3.2-2.6,4.7l-3.6-0.9c0,0-1.4-2.5-0.2-4.3C113.2,117.2,116.1,115.9,119.6,117.8z"/>
	<path class="st74" d="M119.8,123.1c-0.7,0-1.3-0.2-1.3-0.2l-1.5-0.4c2.9-1.7,2.6-4.7,2.6-4.7c1.8,1.1,2.8,2.5,2.8,2.5
		C122.2,122.6,120.9,123.1,119.8,123.1C119.8,123.1,119.8,123.1,119.8,123.1z"/>
	<path class="st74" d="M122.4,120.3c0,0-1-1.4-2.8-2.5c0,0,0.4,3-2.6,4.7l1.5,0.4C118.5,122.9,122.1,124.1,122.4,120.3z"/>
	<polygon class="st75" points="103.7,111.5 114.1,111.9 106.3,120 	"/>
	<polygon class="st75" points="114.1,111.9 106.3,120 103.7,111.5 	"/>
	<path class="st76" d="M114.1,111.9c0,0,0.4,0,1,0c2.9,0,9.8,0.1,10.5,1.1l-6.1,3.8L114.1,111.9z"/>
	<path class="st76" d="M125.7,113l-6.1,3.8l-5.4-4.8C114.1,111.9,124.8,111.8,125.7,113z"/>
	<polygon class="st77" points="125.7,113 130.9,114.7 125.7,122.4 	"/>
	<polygon class="st77" points="130.9,114.7 125.7,113 125.7,122.4 	"/>
	<path class="st78" d="M103.7,111.5l0.8-5.9c0.1,0.1,7.2,6,7.4,6.2l0,0L103.7,111.5z"/>
	<path class="st78" d="M104.5,105.6l-0.8,5.9l8.2,0.3C111.6,111.6,104.5,105.6,104.5,105.6z"/>
	<polygon class="st79" points="104.5,105.6 113.2,106.2 111.9,111.8 	"/>
	<polygon class="st79" points="113.2,106.2 111.9,111.8 104.5,105.6 	"/>
	<polygon class="st80" points="111.9,111.8 113.2,106.2 120,112 	"/>
	<polygon class="st80" points="120,112 113.2,106.2 111.9,111.8 	"/>
	<polygon class="st81" points="113.2,106.2 122.8,107.4 120,112 	"/>
	<polygon class="st81" points="122.8,107.4 120,112 113.2,106.2 	"/>
	<path class="st82" d="M125.6,113c-0.4-0.7-5.6-0.9-5.7-0.9l2.8-4.6L125.6,113L125.6,113C125.6,113,125.7,113,125.6,113L125.6,113
		L125.6,113z"/>
	<path class="st82" d="M125.7,113l-2.9-5.6L120,112C120,112,125.4,112.3,125.7,113z"/>
	<polygon class="st83" points="125.7,113 122.8,107.4 128.7,114 	"/>
	<polygon class="st83" points="128.6,114 122.8,107.4 125.7,113 	"/>
	<polygon class="st84" points="128.6,114 122.8,107.4 129.4,107 130.9,114.7 	"/>
	<polygon class="st84" points="129.4,107 122.8,107.4 128.6,114 130.9,114.7 	"/>
	<path class="st85" d="M83.7,119.8c0.6-0.2,0.9-0.5,1.1-1c0.2-0.8-0.3-1.6-0.3-1.6l4.1,1.4l-0.3,1.6L83.7,119.8z"/>
	<path class="st85" d="M84.5,117.3c0,0,1.2,1.8-0.8,2.5l4.6,0.5l0.3-1.6L84.5,117.3z"/>
	<path class="st86" d="M84.5,117.3l-2.1-1.9c1.9,0.4,4.9,2.8,4.9,2.9l0,0L84.5,117.3z"/>
	<path class="st86" d="M82.4,115.3l2.1,1.9l2.8,0.9C87.3,118.2,84.4,115.8,82.4,115.3z"/>
	<path class="st87" d="M75.5,120.8C75.5,120.8,75.6,120.8,75.5,120.8c0.1,0,0.1,0,0.2,0c1,0,4.5-0.3,4.6-0.3l-1.3,1.5L75.5,120.8z"
		/>
	<path class="st87" d="M75.5,120.8l3.4,1.2l1.4-1.5C80.3,120.5,76.1,120.9,75.5,120.8z"/>
	<path class="st88" d="M76.8,122.1c-1.2,0-2.3-0.1-3.3-0.3c0-0.1,1.9-0.9,2.1-1l3.4,1.2C78.9,122,78,122.1,76.8,122.1z"/>
	<path class="st88" d="M73.4,121.8c-0.1,0,2.1-1,2.1-1l3.4,1.2C78.9,122,76.2,122.4,73.4,121.8z"/>
	<polygon class="st89" points="71.9,119.3 75.5,120.8 73.4,121.8 	"/>
	<polygon class="st89" points="71.9,119.3 75.5,120.8 73.4,121.8 	"/>
	<path class="st90" d="M73.4,121.8c0,0-2.6-0.3-4.1-1.8l2.5-0.7L73.4,121.8L73.4,121.8z"/>
	<path class="st90" d="M69.4,120l2.5-0.7l1.5,2.5C73.4,121.8,70.9,121.5,69.4,120z"/>
	<path class="st91" d="M78.8,120.7c0,0,2-0.4,2.9-1.8c0.5-0.7,0.6-1.6,0.4-2.5l2.4,0.9c0,0,0.5,0.8,0.3,1.6c-0.1,0.4-0.5,0.8-1.1,1
		l-3.4,0.7L78.8,120.7L78.8,120.7z"/>
	<path class="st91" d="M78.8,120.7c0,0,4.1-0.7,3.3-4.3l2.4,0.9c0,0,1.2,1.8-0.8,2.5l-3.4,0.7L78.8,120.7z"/>
	<path class="st71" d="M71.9,119.3c0,0,0.7-1.4,3.2-2.7c0,0-0.2,3.2,2.8,4.1l-2.4,0.1L71.9,119.3z"/>
	<path class="st71" d="M75.1,116.6c0,0-0.3,3.2,2.8,4.1l-2.4,0.1l-3.6-1.5C71.9,119.3,72.6,117.9,75.1,116.6z"/>
	<path class="st73" d="M77.9,120.7c0,0-2.8-0.7-2.8-4.1c0,0,1.4-0.8,3.7-0.8c1.1,0,2.2,0.2,3.3,0.5c0,0,0.4,1.3-0.3,2.5
		c-0.5,0.9-1.6,1.5-3,1.8L77.9,120.7L77.9,120.7z"/>
	<path class="st73" d="M82.1,116.4c0,0,1,3.4-3.3,4.3l-0.9,0.1c0,0-2.8-0.7-2.8-4.1C75.1,116.6,77.9,115.1,82.1,116.4z"/>
	<path class="st91" d="M79.9,118.5c-0.3,0-0.6,0-0.6,0l0.5-0.9l0.3,0.1l0,0.8c0,0,0,0-0.1,0C80,118.5,80,118.5,79.9,118.5z"/>
	<path class="st91" d="M79.8,117.6l-0.5,0.9c0,0,0.9,0,0.9,0c0,0,0-0.8,0-0.8L79.8,117.6z"/>
	<polygon class="st91" points="79.3,116.6 80.3,116.9 79.6,117.8 	"/>
	<polygon class="st91" points="79.3,116.6 79.6,117.8 80.3,116.9 	"/>
	<path class="st91" d="M78.2,117.6c-0.1,0-0.2-0.8-0.2-0.9l0.9,0.2C78.9,116.9,78.3,117.5,78.2,117.6L78.2,117.6z"/>
	<path class="st91" d="M78,116.7c0,0,0.1,0.9,0.2,0.8c0.1-0.1,0.7-0.7,0.7-0.7L78,116.7z"/>
	<path class="st92" d="M84.9,116.5c0,0-1.4-0.9-2.5-1.1c0,0-1.5-0.5-3.4-0.5c-0.5,0-1,0-1.5,0.1c0-0.1,6.1-4.7,6.7-5.2L84.9,116.5
		L84.9,116.5z"/>
	<path class="st92" d="M77.5,114.9c-0.1,0,6.7-5.2,6.7-5.2l0.6,6.7c0,0-1.4-0.9-2.5-1.1C82.4,115.3,80.1,114.6,77.5,114.9z"/>
	<path class="st93" d="M71.9,109.9c0.4,0.1,1.3,0.2,2.9,0.2c3.7,0,9.4-0.4,9.4-0.4l-6.7,5.2L71.9,109.9z"/>
	<path class="st93" d="M71.9,109.9l5.6,5l6.7-5.2C84.3,109.7,73.4,110.5,71.9,109.9z"/>
	<path class="st94" d="M69.4,120L69.4,120c-0.1-0.1,2.4-9.7,2.5-10.1l5.6,5C77.5,115,72.9,115.3,69.4,120L69.4,120L69.4,120z"/>
	<path class="st94" d="M69.4,120c-0.2,0.2,2.5-10.1,2.5-10.1l5.6,5C77.5,114.9,72.9,115.2,69.4,120z"/>
	<path class="st95" d="M65.4,111.3l3.5-3.1l3,1.8c0,0.1-2.5,9.5-2.5,10.1l0,0L65.4,111.3z"/>
	<path class="st95" d="M68.9,108.2l3,1.8c0,0-2.5,9.5-2.5,10.1l-4-8.7L68.9,108.2z"/>
	<polygon class="st96" points="68.9,108.2 71.7,105.7 74.6,105.1 71.9,109.9 	"/>
	<polygon class="st96" points="74.6,105.1 71.7,105.7 68.9,108.2 71.9,109.9 	"/>
	<path class="st97" d="M75.3,110.1c-2.6,0-3.4-0.2-3.4-0.2l2.7-4.8c0.2,0.2,5.1,4.8,5,4.9C78,110.1,76.5,110.1,75.3,110.1
		C75.3,110.1,75.3,110.1,75.3,110.1z"/>
	<path class="st97" d="M79.6,110c0.2,0-5-4.9-5-4.9l-2.7,4.8C71.9,109.9,73.4,110.4,79.6,110z"/>
	<path class="st98" d="M82,105.7"/>
	<path class="st98" d="M82,105.7"/>
	<path class="st99" d="M79.6,110c-0.1-0.3-5-4.9-5-4.9l7.3-0.4L79.6,110z"/>
	<path class="st99" d="M79.6,110l2.3-5.3l-7.3,0.4C74.6,105.1,79.5,109.7,79.6,110z"/>
	<polygon class="st100" points="81.9,104.7 84.3,109.7 79.6,110 	"/>
	<polygon class="st100" points="84.3,109.7 81.9,104.7 79.6,110 	"/>
	<polygon class="st101" points="81.9,104.7 85.7,104.7 84.3,109.7 	"/>
	<polygon class="st101" points="85.7,104.7 81.9,104.7 84.3,109.7 	"/>
	<polygon class="st102" points="84.3,109.7 85.7,104.7 89.9,110.5 	"/>
	<polygon class="st102" points="89.9,110.5 85.7,104.7 84.3,109.7 	"/>
	<polygon class="st103" points="85.7,104.7 90.5,105.3 89.9,110.5 	"/>
	<polygon class="st103" points="90.5,105.3 89.9,110.5 85.7,104.7 	"/>
	<path class="st104" d="M103.7,111.5c-5.7-0.2-13.7-1-13.8-1l0.6-5.2L103.7,111.5L103.7,111.5z"/>
	<path class="st104" d="M103.7,111.5l-13.2-6.2l-0.6,5.2C89.9,110.5,97.9,111.3,103.7,111.5z"/>
	<polygon class="st105" points="133.6,133.9 132.6,124.1 130.9,114.7 136,123.2 133.6,133.9 	"/>
	<polygon class="st105" points="136,123.2 133.6,133.9 132.6,124.1 130.9,114.7 	"/>
	<path class="st106" d="M133.9,155.4c-1.4,0-3-1.4-3-1.4l4.4-5l0.6,3.4c0.1,0.4,0,0.8-0.1,1.1C135.6,154.7,134.9,155.4,133.9,155.4
		L133.9,155.4z"/>
	<path class="st106" d="M131,154c0,0,3.9,3.5,4.9-0.5c0.1-0.4,0.1-0.7,0.1-1.1l-0.5-3.4L131,154z"/>
	<path class="st107" d="M131,154c0,0,0.8-2.5,1.6-7.6l2.8,2.6L131,154L131,154z"/>
	<path class="st107" d="M132.6,146.4l2.8,2.6l-4.4,5C131,154,131.7,151.5,132.6,146.4z"/>
	<path class="st108" d="M135.2,126.7l0.8-3.5c0.8,0.3,1.3,1.8,1.6,3c0.3,1.3,0.4,2.6,0.4,2.6l0,0L135.2,126.7z"/>
	<path class="st108" d="M135.2,126.7l2.9,2.1c0,0-0.5-5-2.1-5.6L135.2,126.7z"/>
	<polygon class="st109" points="136,131.5 135.2,126.7 136.9,127.9 137.2,134.5 137.2,134.5 	"/>
	<polygon class="st109" points="137.2,134.5 136,131.5 135.2,126.7 136.9,127.9 	"/>
	<polygon class="st110" points="136,138.8 136,131.5 137.2,134.5 136,138.8 	"/>
	<polygon class="st110" points="136,138.8 137.2,134.5 136,131.5 	"/>
	<polygon class="st111" points="133.6,133.9 135.2,126.7 136,131.5 136,138.8 136,138.8 	"/>
	<polygon class="st111" points="133.6,133.9 136,138.8 136,131.5 135.2,126.7 	"/>
	<path class="st112" d="M137.2,134.5l-0.4-6.6l1.2,0.9c0.7,2,0.3,9.9,0.3,10l0,0L137.2,134.5z"/>
	<path class="st112" d="M137.2,134.5l1.1,4.3c0,0,0.5-8-0.3-10l-1.2-0.9L137.2,134.5z"/>
	<polygon class="st113" points="136,138.8 137.2,134.5 136.9,140.9 136,142 	"/>
	<polygon class="st113" points="136,142 136,138.8 137.2,134.5 136.9,140.9 	"/>
	<polygon class="st114" points="137.2,143.5 136.9,140.9 137.2,134.5 138.4,138.8 137.2,143.5 	"/>
	<polygon class="st114" points="137.2,143.5 136.9,140.9 137.2,134.5 138.4,138.8 	"/>
	<polygon class="st115" points="132.6,146.4 137.2,143.5 135.4,149 	"/>
	<polygon class="st115" points="132.6,146.4 137.2,143.5 135.4,149 	"/>
	<polygon class="st116" points="132.6,146.4 136,142 136.9,140.9 137.2,143.5 132.6,146.4 	"/>
	<polygon class="st116" points="136,142 132.6,146.4 137.2,143.5 136.9,140.9 	"/>
	<polygon class="st116" points="132.6,146.4 133.6,140.2 136,138.8 136,142 132.6,146.4 	"/>
	<polygon class="st116" points="136,138.8 133.6,140.2 132.6,146.4 136,142 	"/>
	<polygon class="st117" points="134,137.6 133.6,133.9 136,138.8 133.6,140.2 	"/>
	<path class="st117" d="M133.6,133.9l0.4,3.8l-0.4,2.6c0.5-0.3,2.5-1.4,2.5-1.4L133.6,133.9z"/>
	<path class="st118" d="M56.1,151c-0.7,0-1.2-0.2-1.5-0.6c-0.6-0.8-0.6-2.3,0.1-4.4l4.1,4.3C58.7,150.3,57.3,151,56.1,151z"/>
	<path class="st118" d="M58.7,150.3c0,0-6.3,3.4-4.1-4.3L58.7,150.3z"/>
	<path class="st119" d="M54.7,146l2.9-6.4c0.2,5.6,1.2,10.7,1.2,10.7l0,0L54.7,146z"/>
	<path class="st119" d="M57.5,139.5l-2.9,6.4l4.1,4.3C58.7,150.3,57.8,145.2,57.5,139.5z"/>
	<path class="st120" d="M54.9,145.4c-0.8-1.6-1.4-11.5-1.4-11.6l4,5.7L54.9,145.4L54.9,145.4z"/>
	<path class="st120" d="M53.5,133.8c0,0,0.6,10,1.4,11.6l2.6-5.9L53.5,133.8z"/>
	<polygon class="st121" points="55.8,121.8 57.1,123.2 55.4,132.7 55.2,132.9 	"/>
	<polygon class="st121" points="57,123.2 55.4,132.7 55.2,132.8 55.9,121.8 	"/>
	<polygon class="st122" points="57.4,136.6 58,123.8 59.6,124.9 58.4,136.6 	"/>
	<polygon class="st122" points="57.4,136.6 58,123.8 59.6,124.9 58.4,136.6 	"/>
	<polygon class="st123" points="53.5,133.8 57.6,131.5 57.4,136.6 57.5,139.6 	"/>
	<polygon class="st123" points="53.5,133.8 57.6,131.5 57.4,136.6 57.5,139.5 	"/>
	<path class="st124" d="M53.5,133.8c0-1.3,1.3-8.8,1.3-8.9l0.8,1.7l-0.5,6.2L53.5,133.8L53.5,133.8z"/>
	<path class="st124" d="M54.9,124.9c0,0-1.4,7.6-1.3,8.9l1.7-0.9l0.5-6.2L54.9,124.9z"/>
	<path class="st125" d="M123.3,87.2l-0.6-7.2c0.1,0.1,5.9,7.5,5.9,11.4l0,0L123.3,87.2z"/>
	<path class="st125" d="M122.8,80c0,0,5.8,7.4,5.9,11.4l-5.3-4.3L122.8,80z"/>
	<polygon class="st126" points="125.7,92.1 129.4,100.2 129.4,107 129.4,107 	"/>
	<polygon class="st126" points="129.4,107 129.4,100.2 125.7,92.1 	"/>
	<polygon class="st127" points="113.2,106.2 125.7,92.1 129.4,107 122.8,107.4 	"/>
	<polygon class="st127" points="113.2,106.2 125.7,92.1 129.4,107 122.8,107.4 	"/>
	<polygon class="st128" points="104.5,105.6 112.1,76.1 119.3,99.3 113.2,106.2 	"/>
	<polygon class="st128" points="104.5,105.6 112.1,76.1 119.3,99.3 113.2,106.2 	"/>
	<polygon class="st104" points="90.5,105.3 94.7,100.2 104.5,105.6 95.5,107.7 	"/>
	<polygon class="st104" points="90.5,105.3 94.7,100.2 104.5,105.6 95.5,107.7 	"/>
	<path class="st129" d="M96.1,74.7c1.1-0.2,2.2-0.2,3.5-0.2c5.9,0,12.4,1.6,12.5,1.6l-7.7,29.6L96.1,74.7z"/>
	<path class="st129" d="M96.1,74.7l8.3,31l7.7-29.6C112.1,76.1,102.8,73.8,96.1,74.7z"/>
	<path class="st130" d="M80.1,77.7c3.5-2.6,15.9-3,16-3l-1.4,25.6L80.1,77.7z"/>
	<path class="st130" d="M80.1,77.7l14.6,22.5l1.4-25.6C96.1,74.7,83.7,75.1,80.1,77.7z"/>
	<path class="st131" d="M73.4,83.9c2.2-4.3,6.7-6.1,6.7-6.2l1.5,22.5l0,0L73.4,83.9z"/>
	<path class="st131" d="M73.4,83.9l8.2,16.4l-1.5-22.5C80.1,77.7,75.7,79.5,73.4,83.9z"/>
	<path class="st132" d="M79.3,99.1C79.3,99.1,79.2,99.1,79.3,99.1c-5-2.3-6.9-6-7.6-8.7C71,87.4,71.4,85,71.4,85l2-1.1
		C71,94.8,78.3,98.6,79.3,99.1L79.3,99.1L79.3,99.1L79.3,99.1z"/>
	<path class="st132" d="M79.3,99.1c0,0-8.4-3.5-5.9-15.2l-2,1.1C71.4,85,69.6,94.7,79.3,99.1z"/>
	<path class="st133" d="M72.7,93.1c0,0,1.6,3.9,6.6,6l-7.6,6.6L72.7,93.1z"/>
	<path class="st133" d="M71.7,105.7l1-12.6c0,0,1.6,3.8,6.6,6L71.7,105.7z"/>
	<polygon class="st134" points="68.9,104.5 71.9,103.2 71.7,105.7 	"/>
	<polygon class="st134" points="68.9,104.5 71.9,103.2 71.7,105.7 	"/>
	<polygon class="st135" points="65.4,98 71.9,103.2 68.9,104.5 	"/>
	<polygon class="st135" points="65.4,98 68.9,104.5 71.9,103.2 	"/>
	<path class="st136" d="M65.4,98l2.2-9.4c0,0.1,0.3,10.9,1.3,12.1l0,0L65.4,98z"/>
	<path class="st136" d="M67.6,88.6c0,0,0.3,10.9,1.2,12.1L65.4,98L67.6,88.6z"/>
	<path class="st137" d="M68.8,100.7c-1-1.6-1.3-12-1.3-12.1l5.2,4.5l-0.8,10.1L68.8,100.7z"/>
	<path class="st137" d="M72.7,93.1l-5.1-4.5c0,0,0.2,10.5,1.3,12.1l3.1,2.5L72.7,93.1z"/>
	<polygon class="st138" points="66.3,103.4 65.4,98 68.9,104.5 	"/>
	<polygon class="st138" points="66.3,103.4 65.4,98 68.9,104.5 	"/>
	<path class="st139" d="M67.6,88.6l3.8-3.6c-0.7,4.6,1.3,8,1.3,8.1l0,0L67.6,88.6z"/>
	<path class="st139" d="M71.4,85l-3.8,3.6l5.1,4.5C72.7,93.1,70.7,89.6,71.4,85z"/>
	<path class="st140" d="M58,123.8l-0.9-0.6l-1.2-1.3l-0.4-0.5c0-0.1-2.3-7.5-1.9-11.3c0-0.4,12.2-6.3,12.8-6.6
		c0,0.1-4.5,6.5-5.3,12.6l-1.4,8.9L58,123.8z"/>
	<path class="st140" d="M53.5,110c0-0.4,12.8-6.6,12.8-6.6s-4.5,6.4-5.3,12.6l-1.4,8.9l-1.6-1.2l-0.9-0.6l-1.2-1.3l-0.4-0.5
		C55.4,121.3,53.1,113.8,53.5,110z"/>
	<polygon class="st141" points="65.4,98 66.3,103.4 64.3,104.4 	"/>
	<polygon class="st141" points="65.4,98 64.3,104.4 66.3,103.4 	"/>
	<path d="M53.5,110c-0.3-7.6,0.7-13.6,1.6-17.3c1-4,2-6.2,2-6.2l7.1,18C61,105.9,53.6,110,53.5,110L53.5,110L53.5,110z"/>
	<path d="M57.2,86.4c0,0-4.2,8.8-3.6,23.6c0,0,7.4-4.1,10.7-5.6L57.2,86.4z"/>
	<path class="st142" d="M57.2,86.4c0-0.6,4.1-8.6,4.1-8.7l3,26.7l0,0L57.2,86.4z"/>
	<path class="st142" d="M61.3,77.7c0,0-4.2,8.1-4.1,8.7l7.1,18L61.3,77.7z"/>
	<polygon class="st143" points="64.3,104.4 61.3,77.7 67.6,88.6 65.4,98 64.3,104.4 	"/>
	<polygon class="st143" points="67.6,88.6 61.3,77.7 64.3,104.4 65.4,98 	"/>
	<path class="st144" d="M61.3,77.7c0.1-1.5,7.9-9.6,8-9.7l-1.8,20.6L61.3,77.7z"/>
	<path class="st144" d="M69.3,68c0,0-7.9,8.2-8,9.7l6.2,10.9L69.3,68z"/>
	<polygon class="st145" points="69.3,68 73.4,83.9 71.4,85 67.6,88.6 	"/>
	<polygon class="st145" points="73.4,83.9 69.3,68 67.6,88.6 71.4,85 	"/>
	<path class="st146" d="M130.9,114.7l7.2-17.2c0,0,0,0,0.1,0.1c0.3,0.5,0.3,3.7,0.2,6.5c-0.1,2.8-0.3,6.3-0.7,7.5
		c-0.8,2.3-1.7,11.5-1.7,11.6l0,0L130.9,114.7z"/>
	<path class="st146" d="M138.1,97.5l-7.2,17.2l5.2,8.5c0,0,0.9-9.3,1.7-11.6C138.5,109.2,138.7,97.6,138.1,97.5z"/>
	<polygon class="st147" points="129.4,107 131.4,90 130.9,114.7 130.9,114.7 	"/>
	<polygon class="st147" points="131.4,90 129.4,107 130.9,114.7 	"/>
	<path class="st148" d="M130.9,114.7l0.6-24.7c0.1,0.1,5.1,5.7,6.7,7.5L130.9,114.7L130.9,114.7z"/>
	<path class="st148" d="M138.1,97.5c-1.6-1.8-6.7-7.5-6.7-7.5l-0.6,24.7L138.1,97.5z"/>
	<path class="st149" d="M131.4,90l-3.2-11.2c6.2,2.2,9.8,18.5,9.8,18.7l0,0L131.4,90z"/>
	<path class="st149" d="M128.3,78.8l3.2,11.2l6.7,7.5C138.1,97.5,134.6,81.1,128.3,78.8z"/>
	<path d="M129.4,107v-6.8l-0.8-8.8c0,0,0-1.1-0.6-2.6l0.2-10l3.2,11.2L129.4,107L129.4,107z"/>
	<path d="M128.1,88.8l0.2-10l3.2,11.2l-2,17v-6.8l-0.8-8.8C128.6,91.4,128.6,90.4,128.1,88.8z"/>
	<path class="st150" d="M128.1,88.8c0,0-1.6-4.2-5.3-8.8c0,0-2.2-1.6-3.9-2.3l9.4,1.1L128.1,88.8L128.1,88.8z"/>
	<path class="st150" d="M118.9,77.7l9.4,1.1l-0.2,10c0,0-1.6-4.1-5.3-8.8C122.8,80,120.6,78.4,118.9,77.7z"/>
	<path class="st151" d="M112.1,76.1c-0.1,0-6.3-1.6-12.5-1.6c-1.3,0-2.5,0.1-3.5,0.2l3.7-4.1L112.1,76.1L112.1,76.1z"/>
	<path class="st151" d="M96.1,74.7l3.7-4.1l12.3,5.5C112.1,76.1,103.3,73.8,96.1,74.7z"/>
	<path class="st152" d="M118.9,77.7c-2.9-1.5-6.7-1.6-6.8-1.6l8.3-11.4c7.2,5.4,7.8,14.1,7.8,14.2l0,0L118.9,77.7z"/>
	<path class="st152" d="M120.5,64.7l-8.3,11.4c0,0,3.8,0.1,6.8,1.6l9.4,1.1C128.3,78.8,127.8,70.1,120.5,64.7z"/>
	<path class="st153" d="M111.9,58.9c1.6,0.1,8.5,5.7,8.6,5.8l-8.3,11.4L111.9,58.9z"/>
	<path class="st153" d="M111.9,58.9l0.3,17.2l8.3-11.4C120.5,64.7,113.5,59,111.9,58.9z"/>
	<polygon class="st148" points="99.8,70.6 112,65 112.1,76.1 	"/>
	<polygon class="st148" points="99.8,70.6 112,65 112.1,76.1 	"/>
	<polygon class="st154" points="101.7,56.1 112,65 99.8,70.6 	"/>
	<polygon class="st154" points="101.7,56.1 99.8,70.6 112,65 	"/>
	<path class="st155" d="M101.7,56.1c4.2,0.1,10.1,2.7,10.2,2.8l0.1,6.2L101.7,56.1z"/>
	<path class="st155" d="M111.9,58.9c0,0-5.9-2.7-10.2-2.8L112,65L111.9,58.9z"/>
	<path class="st156" d="M91.7,55.5c0.3,0,0.7,0,1.2,0c3.3,0,8.7,0.6,8.8,0.6l-1.9,14.5L91.7,55.5z"/>
	<path class="st156" d="M91.7,55.5l8.1,15l1.9-14.5C101.7,56.1,94.7,55.3,91.7,55.5z"/>
	<path d="M69.3,68l10.8,9.7c-4.7,2.1-6.7,6.1-6.7,6.2l0,0L69.3,68z"/>
	<path d="M80.1,77.7L69.3,68l4.1,15.9C73.4,83.9,75.4,79.8,80.1,77.7z"/>
	<path class="st157" d="M81.3,71.2l7.3-0.7l7.6,4.1c-13.3,0.5-16,3-16,3l0,0L81.3,71.2z"/>
	<path class="st157" d="M81.3,71.2l-1.1,6.4c0,0,2.5-2.5,16-3l-7.6-4.1L81.3,71.2z"/>
	<path class="st158" d="M69.3,68c0.1-0.1,7.1-7.6,9.1-7.6l2.8,10.9l-1.1,6.5L69.3,68z"/>
	<path class="st158" d="M78.5,60.4l2.8,10.8l-1.1,6.4L69.3,68C69.3,68,76.4,60.4,78.5,60.4z"/>
	<path class="st159" d="M78.4,60.4c0.1,0,7.9-3.8,10.1-3.9l-7.2,14.8L78.4,60.4z"/>
	<path class="st159" d="M88.5,56.5l-7.2,14.7l-2.8-10.8C78.5,60.4,86.3,56.6,88.5,56.5z"/>
	<polygon class="st160" points="88.5,56.5 88.6,70.6 81.3,71.3 	"/>
	<polygon class="st160" points="88.5,70.6 88.5,56.5 81.3,71.2 	"/>
	<polygon points="88.5,56.5 91.7,55.5 96.6,64.7 88.5,70.6 	"/>
	<polygon points="91.7,55.5 88.5,56.5 88.5,70.6 96.6,64.7 	"/>
	<polygon class="st161" points="88.5,70.6 96.6,64.7 96.1,74.7 	"/>
	<polygon class="st161" points="96.1,74.7 88.5,70.6 96.6,64.7 	"/>
	<polygon class="st162" points="96.6,64.7 99.8,70.6 96.1,74.7 	"/>
	<polygon class="st162" points="99.8,70.6 96.1,74.7 96.6,64.7 	"/>
	<path class="st163" d="M86.1,158.4c-1.3-1.1-4.1-4.4-4.1-4.4l4.1-0.2L86.1,158.4L86.1,158.4z"/>
	<path class="st163" d="M86.1,153.8l-4.1,0.2c0,0,2.8,3.3,4.1,4.4V153.8z"/>
	<path class="st164" d="M89.9,160.9c-1.5-0.3-3.7-2.5-3.8-2.6l3.5-0.9l2.8,3.6L89.9,160.9z"/>
	<path class="st164" d="M92.4,161.1l-2.8-3.6l-3.5,0.9c0,0,2.3,2.2,3.8,2.6L92.4,161.1z"/>
	<path class="st165" d="M86.1,153.8l3.5,3.7c0,0-3,0.8-3.5,0.9l0,0V153.8z"/>
	<path class="st165" d="M86.1,153.8l3.5,3.7c0,0-3,0.8-3.5,0.9V153.8z"/>
	<path class="st166" d="M86.1,153.8c0,0,1.4-0.2,2.8-0.2c1.2,0,2.1,0.1,2.6,0.3l-2,3.5L86.1,153.8z"/>
	<path class="st166" d="M91.6,154l-2,3.5l-3.5-3.7C86.1,153.8,90,153.4,91.6,154z"/>
	<polygon class="st167" points="90.7,158.9 95.5,159 92.4,161.1 	"/>
	<polygon class="st167" points="95.5,159 92.4,161.1 90.7,158.9 	"/>
	<polygon class="st168" points="90.7,158.9 89.6,157.5 91.6,154 95.5,159 	"/>
	<polygon class="st168" points="91.6,154 95.5,159 90.7,158.9 89.6,157.5 	"/>
	<path class="st169" d="M91.6,154C91.6,154,91.6,154,91.6,154c0.1,0,3.1,0.4,4.3,0.7l-0.4,4.3L91.6,154z"/>
	<path class="st169" d="M95.9,154.7l-0.4,4.3l-3.9-5C91.6,154,94.7,154.3,95.9,154.7z"/>
	<polygon class="st170" points="92.4,161.1 95.5,159 100.2,161.6 100.2,161.6 	"/>
	<polygon class="st170" points="100.2,161.6 95.5,159 92.4,161.1 	"/>
	<path class="st171" d="M100.2,161.6C100.2,161.6,100.2,161.6,100.2,161.6c-0.3-0.2-4.7-2.6-4.7-2.6l5.1-0.1
		C100.6,159,100.4,161.6,100.2,161.6z"/>
	<path class="st171" d="M100.6,158.9c0,0-0.2,2.8-0.5,2.7c-0.3-0.2-4.6-2.6-4.6-2.6L100.6,158.9z"/>
	<polygon class="st172" points="95.9,154.7 100.6,158.9 95.5,159 	"/>
	<polygon class="st172" points="95.9,154.7 100.6,158.9 95.5,159 	"/>
	<polygon class="st173" points="95.9,154.7 102.2,154.5 100.6,158.9 	"/>
	<polygon class="st173" points="102.2,154.5 100.6,158.9 95.9,154.7 	"/>
	<path class="st174" d="M102.2,154.5l2.5-0.6l3.4,1.4c-4.5,2.4-7.4,3.5-7.4,3.5l0,0L102.2,154.5z"/>
	<path class="st174" d="M104.7,154l-2.5,0.6l-1.5,4.4c0,0,2.8-1.1,7.4-3.5L104.7,154z"/>
	<path class="st175" d="M100.1,161.6c0.3-0.3,0.5-2.7,0.5-2.7l2.8-1.2l3,1.2C102.4,161.5,100.2,161.6,100.1,161.6L100.1,161.6
		L100.1,161.6z"/>
	<path class="st175" d="M106.5,158.8l-3-1.2l-2.8,1.2c0,0-0.1,2.4-0.5,2.7C100.2,161.6,102.4,161.5,106.5,158.8z"/>
	<path class="st176" d="M103.5,157.6l4.6-2.3l2.2,0.2c-1.1,1.3-3.8,3.2-3.8,3.2l0,0L103.5,157.6z"/>
	<path class="st176" d="M110.3,155.6l-2.2-0.2l-4.6,2.3l3,1.2C106.5,158.8,109.1,156.9,110.3,155.6z"/>
	<polygon class="st177" points="108.1,155.4 104.7,154 106.5,151.6 110.3,155.6 	"/>
	<polygon class="st177" points="106.5,151.6 104.7,154 108.1,155.4 110.3,155.6 	"/>
	<polygon class="st178" points="82.1,154 88.1,152.4 88.9,153.6 86.1,153.8 82.1,154 	"/>
	<polygon class="st178" points="88.1,152.4 82.1,154 86.1,153.8 88.9,153.6 	"/>
	<path class="st178" d="M82.1,154c0.4-0.3,5.1-4.6,5.1-4.6l0.9,3.1L82.1,154L82.1,154z"/>
	<path class="st178" d="M87.2,149.3l0.9,3.1l-6,1.5C82.4,153.6,87.2,149.3,87.2,149.3z"/>
	<path class="st179" d="M87.2,149.3l3.5,1.3l0,0c-0.5,0-2.6,1.7-2.6,1.8l0,0L87.2,149.3z"/>
	<path class="st179" d="M90.7,150.7l-3.5-1.4l0.9,3.1C88.1,152.4,90.3,150.6,90.7,150.7z"/>
	<path class="st180" d="M87.2,149.3c0,0,2.1-1.8,4.9-1.8c0.3,0,0.7,0,1,0.1l-2.4,3.1L87.2,149.3z"/>
	<path class="st180" d="M93.1,147.6l-2.4,3.1l-3.5-1.4C87.2,149.3,89.7,147.1,93.1,147.6z"/>
	<path class="st181" d="M93.6,151.6c-0.6,0-2.9-0.9-2.9-0.9l2.4-3.1l2.6,3.8C95.6,151.4,94.1,151.5,93.6,151.6
		C93.6,151.6,93.6,151.6,93.6,151.6L93.6,151.6z"/>
	<path class="st181" d="M95.7,151.4l-2.6-3.8l-2.4,3.1c0,0,2.4,1,2.9,0.9C94.2,151.5,95.7,151.4,95.7,151.4z"/>
	<path class="st182" d="M93.1,147.6C93.1,147.6,93.1,147.6,93.1,147.6c0.1,0,2.3,0.2,3.9,1.5l-1.4,2.3L93.1,147.6z"/>
	<path class="st182" d="M97,149.1l-1.4,2.3l-2.6-3.8C93.1,147.6,95.4,147.8,97,149.1z"/>
	<polygon class="st183" points="95.7,151.4 97,149.1 100.2,151.8 	"/>
	<polygon class="st183" points="100.2,151.8 97,149.1 95.7,151.4 	"/>
	<path class="st184" d="M97,149.1c0,0,1.4-1.1,3.4-1.1c0.7,0,1.4,0.1,2.1,0.4l-2.4,3.4L97,149.1z"/>
	<path class="st184" d="M102.6,148.4l-2.4,3.4l-3.1-2.7C97,149.1,99.4,147.2,102.6,148.4z"/>
	<path class="st185" d="M103.9,152.7c0,0-2.4-0.8-3.7-0.9l2.4-3.4L103.9,152.7L103.9,152.7z"/>
	<path class="st185" d="M103.9,152.7c0,0-2.4-0.8-3.7-0.9l2.4-3.4L103.9,152.7z"/>
	<path class="st186" d="M103.9,152.7l-1.3-4.3c0,0,1.4,0.5,2.7,1.8l1.3,1.3l-1.8,2.4L103.9,152.7z"/>
	<path class="st186" d="M104.7,154l-0.8-1.3l-1.3-4.3c0,0,1.4,0.5,2.7,1.8l1.3,1.3L104.7,154z"/>
	<path class="st187" d="M95.9,154.7c0,0-2.7-0.6-4.3-0.7c0,0-0.9-0.3-2.2-0.3c-0.2,0-0.3,0-0.5,0l-0.8-1.2c0,0,1.9-1.6,2.6-1.8
		c0,0,2,0.9,2.8,0.9c0,0,0.1,0,0.1,0c0.8-0.1,2-0.2,2-0.2l4.5,0.4c0,0,2.1,0.3,3.7,0.9l0.8,1.3l-2.5,0.6L95.9,154.7z"/>
	<path class="st187" d="M91.6,154c0,0-1.1-0.4-2.7-0.3l-0.8-1.2c0,0,1.9-1.6,2.6-1.8c0,0,2.2,1,2.9,0.9c0.8-0.1,2-0.2,2-0.2l4.5,0.4
		c0,0,2.1,0.3,3.7,0.9l0.8,1.3l-2.5,0.6l-6.3,0.2C95.9,154.7,93.2,154.1,91.6,154z"/>
	<polygon class="st74" points="115.2,119 115.2,118.7 117.2,118.5 117,120.3 	"/>
	<polygon class="st74" points="117.2,118.5 115.2,118.7 115.2,119 117,120.3 	"/>
	<path class="st188" d="M106.3,120l7.8-8.1l5.4,4.8c-0.6-0.4-2-0.7-2.1-0.7c-0.2,0-0.4,0-0.7,0C112.6,116,106.4,120,106.3,120
		L106.3,120z"/>
	<path class="st188" d="M114.1,111.9l-7.8,8.1c0,0,7-4.5,11.2-4c0,0,1.5,0.3,2.1,0.7L114.1,111.9z"/>
	<path class="st189" d="M97.7,141.7l2.2-2.6l5.3,0l2.4,0.4c-1.2,1.9-4.5,2.2-4.6,2.2h0H97.7z"/>
	<path class="st189" d="M99.9,139.2l-2.2,2.5h5.3c0,0,3.3-0.3,4.6-2.2l-2.4-0.4H99.9z"/>
	<path class="st190" d="M93,141.7c-4.7,0-5.9-2.9-5.9-2.9l2.8-0.7c0.7,0.7,4.7,1,4.7,1l3.1,2.6H93z"/>
	<path class="st190" d="M97.7,141.7l-3.1-2.5c0,0-4-0.3-4.7-1l-2.8,0.7c0,0,1.2,2.9,5.9,2.9H97.7z"/>
	<polygon class="st191" points="80.3,120.5 83.7,119.8 88.3,120.3 78.9,122 	"/>
	<polygon class="st191" points="78.9,122 80.3,120.5 83.7,119.8 88.3,120.3 	"/>
	<polygon class="st192" points="57,123.2 58,123.8 57.6,131.5 55.4,132.7 	"/>
	<polygon class="st192" points="58,123.8 57,123.2 55.4,132.7 57.6,131.5 	"/>
	<path class="st193" d="M79.6,99.1c0,0-2.2-0.8-4-3.1c-1.7-2.1-3.5-5.8-2.4-11.9l8.9,16.1L79.6,99.1z"/>
	<path class="st193" d="M82,100.1l-2.4-1.1c0,0-8.5-3.2-6.4-15L82,100.1z"/>
	<polygon class="st125" points="123.3,87.2 128.7,91.4 129.4,100.2 129.4,100.2 	"/>
	<polygon class="st125" points="129.4,100.2 128.6,91.4 123.3,87.2 	"/>
	<polygon class="st194" points="108.5,116.2 113,116.8 107.8,119.2 	"/>
	<polygon class="st194" points="108.5,116.2 107.8,119.2 113,116.8 	"/>
	<path class="st195" d="M113,116.8l1.8-2.3l3,2c0,0,0,0,0,0c-0.1,0-0.9-0.1-1.9-0.1C114.4,116.4,113.5,116.5,113,116.8L113,116.8z"
		/>
	<path class="st195" d="M117.7,116.5c0,0-3.4-0.4-4.7,0.4l1.8-2.3L117.7,116.5z"/>
	<path class="st196" d="M114.7,114.5C114.7,114.5,114.7,114.5,114.7,114.5c0.1,0,5.3,0.4,6,1.1l-3.1,0.8L114.7,114.5z"/>
	<path class="st196" d="M120.8,115.6l-3.1,0.8l-2.9-2C114.7,114.5,120,114.9,120.8,115.6z"/>
	<path class="st197" d="M123.8,120.1c0,0-3.7-3.5-6.1-3.6l3.1-0.8L123.8,120.1L123.8,120.1z"/>
	<path class="st197" d="M123.8,120.1c0,0-3.7-3.5-6.1-3.6l3.1-0.8L123.8,120.1z"/>
	<path class="st198" d="M120.8,115.6c0,0,3.3,1.4,4.5,3.3l-1.5,1.2L120.8,115.6z"/>
	<path class="st198" d="M125.3,118.9l-1.5,1.2l-3-4.4C120.8,115.6,124,117,125.3,118.9z"/>
	<polygon class="st199" points="123.8,120.1 125.3,118.9 125.7,122.7 	"/>
	<polygon class="st199" points="125.7,122.7 123.8,120.1 125.3,118.9 	"/>
	<polygon class="st198" points="70.4,115.9 74.1,115.9 70.1,119.2 	"/>
	<polygon class="st198" points="70.4,115.9 70.1,119.2 74.1,115.9 	"/>
	<path class="st197" d="M70.4,115.9c0,0,2.2-2.3,4.4-2.4l-0.7,2.4H70.4z"/>
	<path class="st197" d="M74.9,113.6l-0.7,2.3h-3.7C70.4,115.9,72.6,113.7,74.9,113.6z"/>
	<path class="st196" d="M74.8,113.6l3.4,1.3c0,0,0,0,0,0c0,0,0,0,0,0c-0.8,0-4,1.1-4.1,1.1l0,0L74.8,113.6z"/>
	<path class="st196" d="M78.3,114.9l-3.4-1.3l-0.7,2.3C74.1,115.9,77.5,114.8,78.3,114.9z"/>
	<path class="st200" d="M74.8,113.6c0,0,1.8-0.6,3.6-0.6c0.7,0,1.4,0.1,2,0.3l-2.2,1.6L74.8,113.6z"/>
	<path class="st200" d="M80.5,113.3l-2.2,1.6l-3.4-1.3C74.9,113.6,78,112.5,80.5,113.3z"/>
	<path class="st201" d="M82.9,115.7c0,0-2.3-0.8-4.2-0.8c-0.2,0-0.3,0-0.5,0l2.2-1.6c0,0,2.3,0.3,3.7,1L82.9,115.7L82.9,115.7z"/>
	<path class="st201" d="M82.9,115.7c0,0-2.7-0.9-4.7-0.8l2.2-1.6c0,0,2.3,0.3,3.7,1L82.9,115.7z"/>
	<path class="st202" d="M82.9,115.7l1.3-1.4c0,0,3,1.7,3,3.9l0,0L82.9,115.7z"/>
	<path class="st202" d="M87.2,118.1l-4.3-2.4l1.3-1.4C84.2,114.2,87.2,115.9,87.2,118.1z"/>
	<path class="st203" d="M76.6,173.1c-0.1-0.1-8.1-6-11-9.5l6.7-3.9L76.6,173.1L76.6,173.1z"/>
	<path class="st203" d="M65.6,163.7l6.7-3.9l4.3,13.4C76.6,173.1,68.6,167.1,65.6,163.7z"/>
	<path class="st204" d="M69.4,120c3.2-4.3,7-5.2,9.7-5.2c2,0,3.4,0.5,3.4,0.5l2.1,1.9c-2-0.9-3.9-1.4-5.7-1.4
		c-4.7,0-6.9,3.5-6.9,3.5L69.4,120L69.4,120z"/>
	<path class="st204" d="M82.4,115.3c0,0-7.5-2.8-13,4.7l2.5-0.7c0,0,3.8-6.2,12.6-2.1L82.4,115.3z"/>
	<path class="st205" d="M122.4,120.3c-2.3-2.9-4.9-3.5-6.6-3.5c-1.5,0-2.6,0.4-2.6,0.4l-2.8,1.3l-4,1.6c2-1.2,7-4.1,10.5-4.1
		c0.4,0,0.6,0,0.6,0c4.5,0.8,8.1,6.3,8.2,6.4l-1,0.2L122.4,120.3z"/>
	<path class="st205" d="M125.7,122.4c0,0-3.7-5.6-8.2-6.4c0,0-3.4-0.8-11.2,4l4-1.6l2.8-1.3c0,0,5.2-2.1,9.2,3.1l2.3,2.4
		L125.7,122.4z"/>
	<path class="st206" d="M94.7,100.2c0-0.4,1.4-25.3,1.4-25.6l8.3,31L94.7,100.2z"/>
	<path class="st206" d="M94.7,100.2c0-0.4,1.4-25.6,1.4-25.6l8.3,31L94.7,100.2z"/>
	<polygon class="st207" points="85.7,104.7 81.9,104.7 80.1,77.7 94.8,100.2 90.5,105.4 	"/>
	<polygon class="st207" points="81.9,104.7 80.1,77.7 94.7,100.2 90.5,105.3 85.7,104.7 	"/>
	<polygon class="st208" points="79.3,99.1 81.6,100.2 81.9,104.7 74.6,105.1 71.7,105.7 	"/>
	<polygon class="st208" points="81.9,104.7 74.6,105.1 71.7,105.7 79.3,99.1 81.6,100.2 	"/>
	<polygon class="st209" points="119.9,123.8 132.6,124.1 126.6,128.9 	"/>
	<polygon class="st209" points="132.6,124.1 119.9,123.8 126.6,128.9 	"/>
	<polygon class="st210" points="120.4,133.8 134,137.6 112.1,147.2 	"/>
	<polygon class="st210" points="112.2,147.2 120.4,133.8 134,137.6 	"/>
	<polygon class="st211" points="103,141.7 112.2,147.2 105.2,150.3 	"/>
	<polygon class="st211" points="105.2,150.3 103,141.7 112.2,147.2 	"/>
	<path class="st212" d="M97,136.5l-2.4,2.6c0,0,0-0.4-0.2-0.9c-0.2-0.5-0.7-1.1-1.7-1.5l2.8-7l6,4.8l-1.6,4.5L97,136.5z"/>
	<path class="st212" d="M95.5,129.8l6,4.8l-1.6,4.5l-2.9-2.6l-2.4,2.6c0,0,0.2-1.6-1.9-2.4L95.5,129.8z"/>
	<path class="st213" d="M87.3,118.2c-0.3-0.3-2.4-1.7-2.5-1.7l-0.6-6.7l5.7,0.8l-1.3,8.2L87.3,118.2z"/>
	<path class="st213" d="M84.3,109.7l0.6,6.7c0,0,2.2,1.4,2.5,1.7l1.3,0.4l1.3-8.1L84.3,109.7z"/>
	<path class="st214" d="M108.5,116.2c0.1-0.2,3.3-1.7,5.7-1.7c0.2,0,0.4,0,0.6,0l-1.8,2.4L108.5,116.2z"/>
	<path class="st214" d="M108.5,116.2c0.2-0.2,4-2,6.3-1.7l-1.8,2.3L108.5,116.2z"/>
	<path class="st215" d="M125.7,122.4c-3.2-4.6-6.1-5.7-6.1-5.7l6.1-3.8L125.7,122.4L125.7,122.4z"/>
	<path class="st215" d="M125.7,122.4V113l-6.1,3.8C119.5,116.7,122.4,117.8,125.7,122.4z"/>
	<path class="st216" d="M54.8,125.2c-0.1-0.6,0.6-3.8,0.6-3.9l0.4,0.5l-0.3,4.8L54.8,125.2z"/>
	<path class="st216" d="M55.4,121.3c0,0-0.7,3.2-0.6,3.9l0.8,1.4l0.3-4.8L55.4,121.3z"/>
	<path class="st217" d="M112.1,76.1c5.9,0.1,10.6,3.9,10.6,3.9l0.6,7.2l2.3,5l-6.4,7.2L112.1,76.1z"/>
	<path class="st217" d="M112.1,76.1l7.1,23.3l6.4-7.2l-2.3-5l-0.6-7.2C122.8,80,118.1,76.2,112.1,76.1z"/>
	<path class="st218" d="M105.2,139.2c0-1.4-1.5-2-1.5-2c-0.5-0.2-0.9-0.4-1.3-0.4c-1.3,0-2,1.1-2.3,1.8l3.3-9.3l4.5,5.3
		c1.1,3.7-0.2,4.9-0.2,4.9l0,0L105.2,139.2z M99.9,139.2c0,0,0.1-0.2,0.2-0.5L99.9,139.2L99.9,139.2z"/>
	<path class="st218" d="M103.4,129.4l-3.5,9.8c0,0,0.9-3.4,3.8-2c0,0,1.5,0.5,1.5,2l2.4,0.4c0,0,1.4-1.1,0.2-4.9L103.4,129.4z"/>
	<path class="st56" d="M87.1,138.8c0,0-0.7-1.2-0.5-2.8l2-3.7l4.1,4.4l0,0c0,0-0.5-0.3-1-0.3c-0.5,0-1.3,0.3-1.8,1.7L87.1,138.8
		L87.1,138.8z"/>
	<path class="st56" d="M88.6,132.3l4.1,4.4c0,0-1.9-1.3-2.8,1.3l-2.8,0.7c0,0-0.7-1.2-0.5-2.8L88.6,132.3z"/>
	<polygon class="st219" points="95.5,107.7 104.5,105.6 103.7,111.6 	"/>
	<polygon class="st219" points="104.5,105.6 95.5,107.7 103.7,111.5 	"/>
</g>
</svg>
