<?xml version="1.0" encoding="utf-8"?>
<!-- Generator: Adobe Illustrator 19.2.1, SVG Export Plug-In . SVG Version: 6.00 Build 0)  -->
<svg version="1.1" id="Layer_1" xmlns="http://www.w3.org/2000/svg" xmlns:xlink="http://www.w3.org/1999/xlink" x="0px" y="0px"
	 width="192px" height="234px" viewBox="0 0 192 234" style="enable-background:new 0 0 192 234;" xml:space="preserve">
<style type="text/css">
	.st0{fill:#F2F2F2;}
	.st1{fill:#F69133;}
	.st2{clip-path:url(#SVGID_2_);}
	.st3{clip-path:url(#SVGID_4_);fill:#6A2A1B;}
	.st4{clip-path:url(#SVGID_4_);fill:#B47A65;}
	.st5{clip-path:url(#SVGID_4_);fill:#C9917E;}
	.st6{clip-path:url(#SVGID_4_);fill:#C9917F;}
	.st7{clip-path:url(#SVGID_4_);fill:#FADCCD;}
	.st8{clip-path:url(#SVGID_4_);fill:#FFE1CF;}
	.st9{clip-path:url(#SVGID_4_);fill:#AD7968;}
	.st10{clip-path:url(#SVGID_4_);fill:#BC7B74;}
	.st11{clip-path:url(#SVGID_4_);fill:#D8B9AF;}
	.st12{clip-path:url(#SVGID_4_);fill:#ECC8BB;}
	.st13{clip-path:url(#SVGID_4_);fill:#E4C4B5;}
	.st14{clip-path:url(#SVGID_4_);fill:#F8DDD3;}
	.st15{clip-path:url(#SVGID_4_);fill:#D49E93;}
	.st16{clip-path:url(#SVGID_4_);fill:#FEECE0;}
	.st17{clip-path:url(#SVGID_4_);fill:#FCE6DB;}
	.st18{clip-path:url(#SVGID_4_);fill:#E4C5BB;}
	.st19{clip-path:url(#SVGID_4_);fill:#FCE0D5;}
	.st20{clip-path:url(#SVGID_4_);fill:#FFF7E5;}
	.st21{clip-path:url(#SVGID_4_);fill:#FFEEDD;}
	.st22{clip-path:url(#SVGID_4_);fill:#FFF0E1;}
	.st23{clip-path:url(#SVGID_4_);fill:#FFF3E3;}
	.st24{clip-path:url(#SVGID_4_);fill:#FCEFE0;}
	.st25{clip-path:url(#SVGID_4_);fill:#FEEEDD;}
	.st26{clip-path:url(#SVGID_4_);fill:#FCE8DA;}
	.st27{clip-path:url(#SVGID_4_);fill:#FCE2D1;}
	.st28{clip-path:url(#SVGID_4_);fill:#9E5F45;}
	.st29{clip-path:url(#SVGID_4_);fill:#F8DBCF;}
	.st30{clip-path:url(#SVGID_4_);fill:#FEE2D7;}
	.st31{clip-path:url(#SVGID_4_);fill:#FBE2D4;}
	.st32{clip-path:url(#SVGID_4_);fill:#FFF6E5;}
	.st33{clip-path:url(#SVGID_4_);fill:#FCDCD0;}
	.st34{clip-path:url(#SVGID_4_);fill:#310803;}
	.st35{clip-path:url(#SVGID_4_);fill:#CD9C84;}
	.st36{clip-path:url(#SVGID_4_);fill:#D09482;}
	.st37{clip-path:url(#SVGID_4_);fill:#CD8E85;}
	.st38{clip-path:url(#SVGID_4_);fill:#CE9686;}
	.st39{clip-path:url(#SVGID_4_);fill:#804332;}
	.st40{clip-path:url(#SVGID_4_);fill:#FFEDD7;}
	.st41{clip-path:url(#SVGID_4_);fill:#FFEFDF;}
	.st42{clip-path:url(#SVGID_4_);fill:#FFF1E2;}
	.st43{clip-path:url(#SVGID_4_);fill:#FCE3D7;}
	.st44{clip-path:url(#SVGID_4_);fill:#FFE1D5;}
	.st45{clip-path:url(#SVGID_4_);fill:#CD8D79;}
	.st46{clip-path:url(#SVGID_4_);fill:#F8ECD7;}
	.st47{clip-path:url(#SVGID_4_);fill:#FCC9CB;}
	.st48{clip-path:url(#SVGID_4_);fill:#F2BDBA;}
	.st49{clip-path:url(#SVGID_4_);fill:#F2C0C5;}
	.st50{clip-path:url(#SVGID_4_);fill:#FDBABA;}
	.st51{clip-path:url(#SVGID_4_);fill:#FCC4C7;}
	.st52{clip-path:url(#SVGID_4_);fill:#8D3020;}
	.st53{clip-path:url(#SVGID_4_);fill:#912D13;}
	.st54{clip-path:url(#SVGID_4_);fill:#BF4D2D;}
	.st55{clip-path:url(#SVGID_4_);fill:#CB655D;}
	.st56{clip-path:url(#SVGID_4_);fill:#892716;}
	.st57{clip-path:url(#SVGID_4_);fill:#FEABA6;}
	.st58{clip-path:url(#SVGID_4_);fill:#EF816F;}
	.st59{clip-path:url(#SVGID_4_);fill:#F5D8CB;}
	.st60{clip-path:url(#SVGID_4_);fill:#FFF2E4;}
	.st61{clip-path:url(#SVGID_4_);fill:#FFF0DF;}
	.st62{clip-path:url(#SVGID_4_);fill:#E9C0B1;}
	.st63{clip-path:url(#SVGID_4_);fill:#936D64;}
	.st64{clip-path:url(#SVGID_4_);fill:#83645F;}
	.st65{clip-path:url(#SVGID_4_);fill:#A48488;}
	.st66{clip-path:url(#SVGID_4_);fill:#FDEEDF;}
	.st67{clip-path:url(#SVGID_4_);fill:#3B2622;}
	.st68{clip-path:url(#SVGID_4_);fill:#F6EADF;}
	.st69{clip-path:url(#SVGID_4_);fill:#F3B4AA;}
	.st70{clip-path:url(#SVGID_4_);fill:#612316;}
	.st71{clip-path:url(#SVGID_4_);fill:#673B29;}
	.st72{clip-path:url(#SVGID_4_);fill:#F4D0BD;}
	.st73{clip-path:url(#SVGID_4_);fill:#F1C49C;}
	.st74{clip-path:url(#SVGID_4_);fill:#3B322E;}
	.st75{clip-path:url(#SVGID_4_);fill:#EEE4DF;}
	.st76{clip-path:url(#SVGID_4_);fill:#252C31;}
	.st77{clip-path:url(#SVGID_4_);fill:#090B0A;}
	.st78{clip-path:url(#SVGID_4_);fill:#36393A;}
	.st79{clip-path:url(#SVGID_4_);fill:#21252E;}
	.st80{clip-path:url(#SVGID_4_);fill:#2E363A;}
	.st81{clip-path:url(#SVGID_4_);fill:#20252E;}
	.st82{clip-path:url(#SVGID_4_);fill:#211F1D;}
	.st83{clip-path:url(#SVGID_4_);fill:#35160D;}
	.st84{clip-path:url(#SVGID_4_);fill:#28160D;}
	.st85{clip-path:url(#SVGID_4_);fill:#281808;}
	.st86{clip-path:url(#SVGID_4_);fill:#18110D;}
	.st87{clip-path:url(#SVGID_4_);fill:#D7AE9B;}
	.st88{clip-path:url(#SVGID_4_);fill:#DFBCA6;}
	.st89{clip-path:url(#SVGID_4_);fill:#191D1E;}
	.st90{clip-path:url(#SVGID_4_);fill:#22292B;}
	.st91{clip-path:url(#SVGID_4_);fill:#1A2025;}
	.st92{clip-path:url(#SVGID_4_);fill:#1F2628;}
	.st93{clip-path:url(#SVGID_4_);fill:#0A0E0F;}
	.st94{clip-path:url(#SVGID_4_);fill:#0F1414;}
	.st95{clip-path:url(#SVGID_4_);fill:#212325;}
	.st96{clip-path:url(#SVGID_4_);fill:#111415;}
	.st97{clip-path:url(#SVGID_4_);fill:#262629;}
	.st98{clip-path:url(#SVGID_4_);fill:#080C0D;}
	.st99{clip-path:url(#SVGID_4_);fill:#151715;}
	.st100{clip-path:url(#SVGID_4_);fill:#C9A18A;}
	.st101{clip-path:url(#SVGID_4_);fill:#CABBB6;}
	.st102{clip-path:url(#SVGID_4_);fill:#A89FA7;}
	.st103{clip-path:url(#SVGID_4_);fill:#FFDFD7;}
	.st104{clip-path:url(#SVGID_4_);fill:#371A14;}
	.st105{clip-path:url(#SVGID_4_);fill:#BE7D6A;}
	.st106{clip-path:url(#SVGID_4_);fill:#9E8F88;}
	.st107{clip-path:url(#SVGID_4_);fill:#F5D1D4;}
</style>
<rect class="st0" width="192" height="234"/>
<polygon class="st1" points="192,215.5 172.5,234 192,234 "/>
<g>
	<g>
		<defs>
			<rect id="SVGID_1_" x="-25.8" y="-30.2" width="235.8" height="305.1"/>
		</defs>
		<clipPath id="SVGID_2_">
			<use xlink:href="#SVGID_1_"  style="overflow:visible;"/>
		</clipPath>
		<g class="st2">
			<defs>
				<rect id="SVGID_3_" x="-25.8" y="-30.2" width="235.8" height="305.1"/>
			</defs>
			<clipPath id="SVGID_4_">
				<use xlink:href="#SVGID_3_"  style="overflow:visible;"/>
			</clipPath>
			<path class="st3" d="M127.4,105.2v-1.5c-0.4-0.3-2.6-0.5-3.8-0.6l0-0.1c0.7-0.3,1.5-0.4,2.3-0.4c1.1,0,1.9,0.3,2.3,0.4
				c0.8,0.3,2.1,2.3,2.1,2.4l0,0.1l-1.5,0.2L127.4,105.2z"/>
			<path class="st4" d="M90.1,149.5c-0.2-0.3-5.9-6.4-6.3-7c-0.5-0.7-2.2-3.1-3.5-5c-0.8-1.1-1.5-2.1-1.6-2.3l-0.1-0.1h2.6
				L90.1,149.5L90.1,149.5z"/>
			<path class="st4" d="M78.6,135.2h2.5l9,14.3c0,0-5.9-6.4-6.3-7C83,141.4,79,135.8,78.6,135.2"/>
			<polygon class="st5" points="90.1,149.5 84.6,140.9 95.2,146.2 98.5,153.2 			"/>
			<polygon class="st5" points="98.4,153.1 90.1,149.5 84.8,141 95.2,146.3 			"/>
			<polygon class="st6" points="98.3,153.2 95.1,146.3 95.2,146.2 107.3,156 107.2,156.1 			"/>
			<polygon class="st6" points="107.2,156 98.4,153.1 95.2,146.3 			"/>
			<polygon class="st7" points="95.1,146.3 103.8,138 107.3,156.2 			"/>
			<polygon class="st7" points="103.8,138.1 95.2,146.3 107.2,156 			"/>
			<path class="st8" d="M103.7,138.1L103.7,138.1c2.7,3.3,9.3,5.7,9.4,5.7l0.1,0l-6,12.3L103.7,138.1z"/>
			<path class="st8" d="M113.1,143.9c0,0-6.7-2.4-9.3-5.8l3.5,17.9L113.1,143.9z"/>
			<path class="st9" d="M78.6,135.3L78.6,135.3c-0.2-0.6-1-6.8-1.1-7.1l0-0.1l3.7,1.8v5.4H78.6z"/>
			<path class="st9" d="M77.6,128.2c0,0,0.9,6.5,1.1,7h2.5v-5.3L77.6,128.2z"/>
			<polygon class="st10" points="77.5,128.2 78.2,120.2 84.9,128.6 81.1,130 			"/>
			<polygon class="st10" points="78.2,120.3 77.6,128.2 81.1,129.9 84.8,128.6 			"/>
			<polygon class="st11" points="84.7,128.6 78.2,120.4 78.2,120.3 95.6,129.9 95.6,130 			"/>
			<polygon class="st11" points="95.6,129.9 78.2,120.3 84.8,128.6 			"/>
			<path class="st12" d="M90.9,133.1L90.9,133.1l-9.9-3.1l3.8-1.4l0,0l11,1.4L90.9,133.1z M81.3,129.9l9.6,3l4.6-3l-10.7-1.3
				L81.3,129.9z"/>
			<polygon class="st12" points="90.6,129.3 84.8,128.6 81.1,129.9 90.9,133 95.6,129.9 			"/>
			<polygon class="st13" points="84.8,141.1 81.1,135.2 81.1,129.8 90.9,133 95.3,146.4 			"/>
			<polygon class="st13" points="81.1,135.2 81.1,129.9 90.9,133 95.2,146.3 84.8,141 			"/>
			<polygon class="st14" points="90.8,133 95.6,129.8 99.4,142.4 95.2,146.4 			"/>
			<polygon class="st14" points="99.3,142.3 95.6,129.9 90.9,133 95.2,146.3 			"/>
			<path class="st15" d="M78.2,120.4L78.2,120.4c0-0.3,0.3-7.8,3-9.9l0.1-0.1l-1.9,10.8L78.2,120.4z"/>
			<path class="st15" d="M81.2,110.5L79.4,121l-1.1-0.7C78.2,120.3,78.5,112.6,81.2,110.5"/>
			<polygon class="st16" points="79.3,121 81.1,110.4 89.2,108.4 95.7,130 			"/>
			<polygon class="st16" points="89.1,108.4 81.2,110.5 79.4,121 95.6,129.9 			"/>
			<polygon class="st17" points="89.1,108.4 89.2,108.3 104.5,128.2 99.3,142.5 			"/>
			<polygon class="st17" points="104.4,128.2 99.3,142.3 95.6,129.9 89.1,108.4 			"/>
			<path class="st18" d="M99.3,142.4L99.3,142.4L99.3,142.4l0-0.1c0.4-0.9,5-14,5-14.2l0.1,0l-0.6,9.9
				C102.8,139.1,99.6,142.4,99.3,142.4L99.3,142.4z"/>
			<path class="st18" d="M104.3,128.2l-0.6,9.9c0,0-4.7,4.7-4.4,4.2C99.7,141.4,104.4,128.1,104.3,128.2"/>
			<path class="st19" d="M98.6,113c-4.6,0-7.9-5-8-5.1l-0.1-0.1l0.1,0c1.9,0.4,5,0.8,8.2,0.8c1.6,0,3-0.1,4.3-0.3
				c0.5-0.1,1-0.1,1.4-0.1c0.7,0,1.1,0.1,1.1,0.1l0.1,0l0,0.1C103.5,111.4,101.1,113,98.6,113L98.6,113z"/>
			<path class="st19" d="M105.7,108.4c0,0-0.8-0.3-2.5,0c-4.7,0.7-10.1,0-12.6-0.5C90.7,107.8,97.9,118.9,105.7,108.4"/>
			<path class="st20" d="M89,108.4l1.6-0.6l0,0c0,0.1,3.4,5,7.9,5c2.5,0,4.9-1.5,7.1-4.4l0.1-0.1l-1.4,20.1L89,108.4z"/>
			<path class="st20" d="M89.1,108.4l1.5-0.6c0,0,7.3,10.9,15.1,0.6l-1.4,19.7L89.1,108.4z"/>
			<polygon class="st21" points="104.3,128.2 105.7,108.3 111.6,114.4 104.4,128.2 			"/>
			<polygon class="st21" points="104.3,128.2 107,123.2 111.6,114.5 105.7,108.4 			"/>
			<polygon class="st22" points="104.3,128.2 106.7,123.5 112.6,133.6 103.8,136.1 			"/>
			<polygon class="st22" points="112.5,133.5 106.7,123.6 104.3,128.2 103.9,136.1 			"/>
			<polygon class="st23" points="108.3,126.5 117.7,127.1 112.4,133.5 			"/>
			<polygon class="st23" points="117.6,127.2 112.4,133.4 108.4,126.5 			"/>
			<path class="st24" d="M117.6,127.1l8,5.3h-0.2c-0.7,0-13,1.2-13.1,1.2l-0.1,0L117.6,127.1z"/>
			<path class="st24" d="M125.4,132.3l-7.8-5.2l-5.3,6.3C112.3,133.5,124.7,132.3,125.4,132.3"/>
			<polygon class="st25" points="117.5,127.2 124.6,122.9 125.5,132.4 			"/>
			<polygon class="st25" points="124.5,123 117.6,127.2 125.4,132.3 			"/>
			<path class="st26" d="M113.5,156.8c-1.9,0-4-0.2-6.2-0.7l-0.1,0l5.9-12.3l11.5,7.8l0,0C124.6,151.7,122.4,156.8,113.5,156.8"/>
			<path class="st26" d="M124.5,151.6c0,0-3,7.4-17.3,4.4l5.9-12.1L124.5,151.6z"/>
			<path class="st27" d="M114.9,145.1l13.7-2.4l-0.1,0.1c-0.6,1.1-2.3,3.9-2.4,4.3c-0.1,0.4-1.5,4.4-1.6,4.5l0,0.1L114.9,145.1z"/>
			<path class="st27" d="M128.5,142.8c0,0-2.3,3.9-2.4,4.3c-0.1,0.4-1.6,4.5-1.6,4.5l-9.5-6.4l6.7-1.2L128.5,142.8z"/>
			<polygon class="st28" points="115.8,144 121.6,143 121.6,144.1 115,145.2 			"/>
			<polygon class="st28" points="121.5,143 115.9,144.1 115.1,145.2 121.5,144 			"/>
			<path class="st29" d="M121.5,143l12.3-14.9l0.1,0c0,0.1-1.2,5.8-1.4,6.6c-0.3,0.9-3.5,7.7-3.9,8l-7,1.3V143z"/>
			<path class="st29" d="M133.8,128.2c0,0-1.2,5.7-1.4,6.6c-0.3,0.9-3.5,7.7-3.9,8l-6.9,1.2v-1L133.8,128.2z"/>
			<path class="st30" d="M124.4,123l11.5-4l0,0.1c0,0.2-0.4,3.8-0.5,4.2c-0.2,0.4-1.6,4.9-1.6,4.9l-3.1,3.8L124.4,123z"/>
			<path class="st30" d="M124.5,123l6.2,8.9l3.1-3.7c0,0,1.4-4.5,1.6-4.9c0.2-0.4,0.5-4.2,0.5-4.2L124.5,123z"/>
			<polygon class="st31" points="124.4,122.8 130.7,131.9 125.9,137.8 			"/>
			<polygon class="st31" points="124.5,123 126,137.7 130.7,131.9 			"/>
			<path class="st23" d="M132.9,105.4l0,0.1c0.1,0.3,3,6.9,3.1,7.6c0.3,1.2-0.1,5.7-0.1,5.9l0,0l-11.5,4L132.9,105.4z"/>
			<path class="st23" d="M132.9,105.6l-8.4,17.5l11.4-4c0,0,0.5-4.7,0.1-5.9C135.9,112.5,132.9,105.6,132.9,105.6"/>
			<path class="st32" d="M116.9,109l0.1,0c2.7,0.9,5.2,1.4,7.3,1.4c5,0,7.2-2.4,8.1-3.9l0.4-0.9l0.1,0c0,0-0.1,0.4-0.4,0.9l-8,16.6
				L116.9,109z"/>
			<path class="st32" d="M117,109.1l7.5,14l8.4-17.5C132.9,105.6,130.4,113.5,117,109.1"/>
			<path class="st33" d="M111.5,114.3l5.8,9.3l-0.1,0.1c0,0-1.2-0.8-2.6-0.8c-1.2,0-2.1,0.6-2.8,1.7l-0.1,0.2L111.5,114.3z"/>
			<path class="st33" d="M111.6,114.5l5.7,9.2c0,0-3.5-2.3-5.4,0.9L111.6,114.5z"/>
			<path class="st34" d="M111.7,124.6L111.7,124.6c0-0.1,0.9-1.9,2.9-1.9c0.8,0,1.7,0.3,2.7,0.9c0,0,0.9,0.9,0.6,1.7
				c-0.1,0.4-0.5,0.7-1.2,0.9l0,0L111.7,124.6z"/>
			<path class="st34" d="M116.7,126.2l-4.8-1.7c0,0,1.5-3.3,5.4-0.9C117.3,123.6,119,125.6,116.7,126.2"/>
			<polygon class="st35" points="108.4,126.6 107.9,125.8 107.3,122.3 111.9,124.5 111.6,126.8 			"/>
			<polygon class="st35" points="111.6,126.8 111.8,124.5 107.4,122.4 108,125.8 108.4,126.5 			"/>
			<polygon class="st36" points="106.7,123.6 107.4,122.2 108,125.8 107.9,125.8 			"/>
			<polygon class="st36" points="106.7,123.6 107.4,122.4 108,125.8 			"/>
			<polygon class="st37" points="111.5,126.8 111.8,124.4 115.5,125.7 115.7,127.1 			"/>
			<polygon class="st37" points="115.6,127 115.5,125.8 111.8,124.5 111.6,126.8 			"/>
			<path class="st38" d="M115.6,127.1l-0.2-1.4l1.2,0.4c0,0,0.9-0.2,1.1-0.8c0.2-0.4,0-1-0.6-1.7l-1.1-1.8l5.6,2.9l-4.1,2.5
				L115.6,127.1z"/>
			<path class="st38" d="M116.2,122l5.4,2.8l-4,2.4l-2-0.1l-0.1-1.3l1.2,0.4c0,0,2.3-0.4,0.6-2.6L116.2,122z"/>
			<path class="st39" d="M121.6,124.8c0-1.6,1.9-3.4,2-3.4l0.1,0l0.9,1.8L121.6,124.8L121.6,124.8z"/>
			<path class="st39" d="M123.6,121.4c0,0-2.1,1.8-2,3.4l2.9-1.7L123.6,121.4z"/>
			<path class="st40" d="M116.2,122l0.8-13.2l6.7,12.5l0,0c-2,1.7-2,3.3-2,3.4l0,0.1L116.2,122z"/>
			<path class="st40" d="M117,109.1l-0.8,12.9l5.4,2.8c0,0,0-1.6,2-3.4L117,109.1z"/>
			<polygon class="st41" points="111.5,114.5 108.4,102.2 117.1,109 116.3,122.2 			"/>
			<polygon class="st41" points="108.5,102.3 111.6,114.5 116.2,122 117,109.1 			"/>
			<polygon class="st42" points="105.7,108.4 108.6,102.2 111.7,114.6 			"/>
			<polygon class="st42" points="105.7,108.4 108.5,102.3 111.6,114.5 			"/>
			<polygon class="st43" points="108.5,102.4 109.9,99.2 118.9,93.6 117.1,109.2 			"/>
			<polygon class="st43" points="110,99.3 108.5,102.3 117,109.1 118.8,93.7 			"/>
			<path class="st44" d="M124.4,110.4c-3.8,0-7.3-1.3-7.3-1.3l-0.1,0l3.2-2.6l0,0c1,0.1,2,0.1,3,0.1c5.6,0,7.1-1.6,7.1-1.6l0,0
				l2.7,0.5l0,0.1C131.6,108.8,128.7,110.4,124.4,110.4"/>
			<path class="st44" d="M120.1,106.6l-3.1,2.5c0,0,12.4,4.7,15.9-3.5l-2.6-0.5C130.3,105.1,128.2,107.3,120.1,106.6"/>
			<polygon class="st45" points="112.9,143.8 116,144 115.1,145.2 115,145.2 			"/>
			<polygon class="st45" points="115.9,144.1 113.1,143.9 115,145.2 115.1,145.2 			"/>
			<path class="st46" d="M124.2,139.6c0.1-0.2-0.1-2.7-0.3-4.3l0,0l1.7-0.8l0.3,3.2L124.2,139.6L124.2,139.6z"/>
			<path class="st46" d="M125.7,134.6l-1.6,0.8c0,0,0.5,4.1,0.3,4.3l1.7-2L125.7,134.6z"/>
			<path class="st47" d="M121.5,143c0.6-0.7,0.1-6.1,0.1-6.2l0,0l3.3-1.9l-0.5,4.8L121.5,143L121.5,143z"/>
			<path class="st47" d="M124.8,135l-3.2,1.8c0,0,0.5,5.5-0.1,6.2l2.8-3.4L124.8,135z"/>
			<path class="st48" d="M113.1,143.9c-0.1,0-6.7-2.5-9.4-5.8l-0.1-0.1l0.1,0c0.1,0,6.2,0.8,7.1,0.9l0,0l5.1,5.2L113.1,143.9z"/>
			<path class="st48" d="M110.9,139l5,5.1l-2.8-0.2c0,0-6.6-2.4-9.3-5.8C103.8,138.1,110,138.9,110.9,139"/>
			<path class="st49" d="M110.8,138.9l0.1,0c1.6-0.2,8-0.9,8-0.9l0.1,0l-3.1,6.1L110.8,138.9z"/>
			<path class="st49" d="M118.9,138.1c0,0-6.4,0.7-8,0.9l5,5.1L118.9,138.1z"/>
			<polygon class="st50" points="118.9,138 121.6,143.1 115.8,144.1 			"/>
			<polygon class="st50" points="121.5,143 118.9,138.1 115.9,144.1 			"/>
			<path class="st51" d="M118.9,138.1l2.8-1.4l0,0.1c0.8,5.1-0.1,6.2-0.1,6.3l-0.1,0.1L118.9,138.1z"/>
			<path class="st51" d="M121.6,136.8l-2.7,1.3l2.6,4.9C121.5,143,122.4,141.9,121.6,136.8"/>
			<polygon class="st52" points="103.7,138.1 103.8,136 110,137.1 105.9,138.6 			"/>
			<polygon class="st52" points="105.9,138.5 109.8,137.1 103.9,136.1 103.8,138.1 			"/>
			<polygon class="st53" points="103.9,136.1 103.9,136 112.5,134.9 109.8,137.2 			"/>
			<polygon class="st53" points="112.3,135 109.8,137.1 103.9,136.1 			"/>
			<polygon class="st54" points="112.3,135 114.9,134.7 116.1,136.6 109.8,137.1 			"/>
			<polygon class="st54" points="116,136.5 110,137 112.3,135 114.8,134.8 			"/>
			<path class="st55" d="M117.1,136.7c-0.4,0-0.8,0-1-0.1l-1.3-1.9l0.1,0c1.2,0.2,3.4,0.7,3.5,0.7c0.1,0,0.9-0.1,1.4-0.2l0.1,0
				l-1.1,1.3C118.7,136.5,117.9,136.7,117.1,136.7"/>
			<path class="st55" d="M118.7,136.5c0,0-1.7,0.3-2.7,0l-1.2-1.7c0,0,3.4,0.7,3.5,0.7c0.1,0,1.4-0.2,1.4-0.2L118.7,136.5z"/>
			<path class="st56" d="M118.7,136.5l1-1.2c2.1-1.5,5.8-1.9,5.9-1.9l0.1,0l0.1,1.2l-0.9,0.4l0,0c-0.1-0.1-0.3-0.1-0.6-0.1
				C122.5,134.9,118.8,136.5,118.7,136.5L118.7,136.5z"/>
			<path class="st56" d="M125.5,133.4c0,0-3.7,0.4-5.8,1.8l-1,1.2c0,0,4.9-2.2,6.1-1.5l0.8-0.4L125.5,133.4z"/>
			<path class="st57" d="M103.9,136l8.7-2.6l8.7-0.9l1.1,1.6l-0.1,0c0,0-1.6,0.5-2.6,1.2l-1.4,0.2l-3.2-0.6l-0.3-0.1l-2.5,0.2
				l-8.4,1.1L103.9,136z"/>
			<path class="st57" d="M114.8,134.8l-2.5,0.2l-8.4,1.1l8.7-2.6l8.6-0.9l1,1.5c0,0-1.6,0.5-2.6,1.2l-1.4,0.2l-3.2-0.6L114.8,134.8z
				"/>
			<path class="st58" d="M121.2,132.5l4.3-0.2l0.1,1.2l-0.1,0c-0.7,0-3.2,0.7-3.2,0.7l0,0L121.2,132.5z"/>
			<path class="st58" d="M125.5,133.4l-0.1-1.1l-4.2,0.2l1,1.5C122.3,134.1,124.8,133.5,125.5,133.4"/>
			<path class="st59" d="M118.2,98.4l0.1,0.1c0.5,0.6,3.4,0.6,3.5,0.6h0.1l0,0.1l0.3,4.3l0,0c-1.1,0.6-1.9,3.1-1.9,3.1l-3.2,2.6
				L118.2,98.4z"/>
			<path class="st59" d="M121.8,99.2c0,0-3,0-3.5-0.7l-1.2,10.6l3.1-2.5c0,0,0.8-2.5,2-3.1L121.8,99.2z"/>
			<path class="st60" d="M121.7,99.1L121.7,99.1c0.4-0.4,9.1-3.5,9.5-3.6l0.1,0.1l-9.3,8L121.7,99.1z"/>
			<path class="st60" d="M131.2,95.6c0,0-9.1,3.2-9.5,3.6l0.3,4.3L131.2,95.6z"/>
			<path class="st61" d="M132.9,105.6c0,0-1.5-4-6.4-4c-0.8,0-1.6,0.1-2.5,0.3l0-0.1l7.4-6.4l1.7,10.1L132.9,105.6z"/>
			<path class="st61" d="M132.9,105.6c0,0-2-5.3-9-3.7l7.3-6.3L132.9,105.6z"/>
			<path class="st62" d="M130.2,105.1l0.8-2.1l0.1,0.1c0.1,0.1,1.7,1.6,1.9,2.5l0,0.1L130.2,105.1z"/>
			<path class="st62" d="M130.3,105.1l0.7-2c0,0,1.7,1.6,1.9,2.5L130.3,105.1z"/>
			<path class="st63" d="M120.2,99.1c-0.1,0-1.7-0.1-2-0.6l0.1-1.3l4.3-0.9L120.2,99.1L120.2,99.1z"/>
			<path class="st63" d="M118.4,97.3l4.1-0.9l-2.2,2.7c0,0-1.7-0.1-2-0.6L118.4,97.3z"/>
			<path class="st64" d="M120.1,99.1l2.2-2.8l1.5-0.3l0,0c1.9,1.3,1.8,1.4,1.8,1.4l0,0l0,0c-0.1,0-3.9,1.6-4,1.6l0,0L120.1,99.1z"/>
			<path class="st64" d="M125.7,97.6c0.1-0.1-1.8-1.4-1.8-1.4l-1.5,0.3l-2.2,2.7l1.5,0.1C121.7,99.2,125.6,97.6,125.7,97.6"/>
			<polygon class="st65" points="123.8,96.1 127,95.6 129.2,96.3 125.7,97.6 			"/>
			<polygon class="st65" points="129,96.3 127,95.6 123.9,96.2 125.7,97.6 			"/>
			<path class="st66" d="M118.7,93.6L118.7,93.6c4.3-1.7,7.9-10.7,8-10.8l0,0l0,0c0,0,0.1,0,0.1,0c1.3,0,4.3,12.2,4.5,12.7l0,0
				l-2.3,0.8l-2-0.7l-3.1,0.5l-1.5,0.3l-4.2,0.9L118.7,93.6z"/>
			<path class="st66" d="M126.8,82.9c0,0-3.6,9.1-8,10.8l-0.4,3.6l4.1-0.9l1.5-0.3l3.1-0.5l2,0.7l2.2-0.8
				C131.2,95.6,128.1,82.5,126.8,82.9"/>
			<path class="st67" d="M120,106.6L120,106.6c1-2.8,2-3.2,2-3.2c0.2-0.1,1.7-0.3,1.9-0.3l0,0l0,0c0.5,0.6,0.7,1.3,0.6,1.9
				c-0.2,1.1-1.2,1.7-1.2,1.7l0,0L120,106.6z"/>
			<path class="st67" d="M123.9,103.1c0,0-1.7,0.2-1.9,0.3c0,0-1,0.4-2,3.1l3.2,0.1C123.4,106.7,125.7,105.3,123.9,103.1"/>
			<path class="st68" d="M123.9,106.8c-0.2,0-0.4,0-0.5,0l-0.2,0l0.1-0.1c0,0,1-0.6,1.1-1.6c0.1-0.6-0.1-1.3-0.6-1.9l-0.1-0.1l0.1,0
				c0,0,1-0.1,1.9-0.1c0.5,0,0.9,0,1.2,0.1c0.9,0.2,1,0.7,1,0.7c0,0.1,0.3,1.9-0.2,2.5C127.8,106.3,125.6,106.8,123.9,106.8"/>
			<path class="st68" d="M128,103.8c0,0,0.3,1.9-0.2,2.4c0,0-2.7,0.6-4.4,0.5c0,0,2.3-1.4,0.6-3.6c0,0,2.2-0.2,3.1,0
				C127.8,103.3,128,103.8,128,103.8"/>
			<path class="st69" d="M127.7,106.2c0.4-0.8,0.2-2.4,0.2-2.4l0-0.2l1.8,2l0,0C129.4,105.8,128,106.2,127.7,106.2l-0.1,0.1
				L127.7,106.2z"/>
			<path class="st69" d="M129.6,105.6l-1.6-1.8c0,0,0.3,1.6-0.2,2.4C127.8,106.2,129.4,105.8,129.6,105.6"/>
			<path class="st70" d="M127.9,103.8l0.4-2.1l0.1,0.1c1.1,1.2,2.3,2.6,2.3,2.6l0,0l-0.3,0.8l-0.8,0.5L127.9,103.8z"/>
			<path class="st70" d="M128.3,101.8l-0.3,2l1.6,1.8l0.7-0.5l0.3-0.8C130.6,104.3,129.4,103,128.3,101.8"/>
			<path class="st71" d="M127.9,103.8c0,0-0.1-0.7-2.3-0.7c-0.5,0-1.1,0-1.7,0.1l-2,0.3l2-1.7c0,0,1.4-0.3,2.7-0.3
				c0.7,0,1.2,0.1,1.7,0.2l0,0l-0.3,2.1L127.9,103.8z"/>
			<path class="st71" d="M122.1,103.4l1.8-1.6c0,0,2.7-0.6,4.4-0.1l-0.3,2c0,0,0-1.1-4-0.7L122.1,103.4z"/>
			<path class="st72" d="M105.7,108.4c-0.6-3-4.3-3.5-6.4-3.5c-1.2,0-2.1,0.1-2.1,0.1l-0.1,0l0.2-2.3l6.1-2.6c0.4,0,0.7,0,1.1,0
				c3,0,5.5-1,5.5-1.1l0.1-0.1l-4.4,9.5L105.7,108.4z"/>
			<path class="st72" d="M97.3,102.9l-0.2,2.2c0,0,7.7-1.2,8.7,3.4l4.2-9.2c0,0-3.1,1.3-6.6,1L97.3,102.9z"/>
			<path class="st73" d="M81.1,110.4l6.4-3.7l9.9-3.9l-0.2,2.3l0,0c-2.5,0-6.4,2.8-6.4,2.8l-1.5,0.6L81.1,110.4L81.1,110.4z"/>
			<path class="st73" d="M90.7,107.8c0,0,3.9-2.8,6.4-2.8l0.2-2.2l-9.8,3.9l-6.4,3.7l8-2L90.7,107.8z"/>
			<path class="st74" d="M95.1,108.6c0,0-1.4-0.6-1.1-2.4l0,0l0,0c0,0,1.7-0.9,3-1.1c0.1,0,1.7-0.3,2.3-0.3c0.1,0,0.1,0,0.2,0l0,0
				l0,0c0,0,1.1,3-0.9,4l0,0L95.1,108.6z"/>
			<path class="st74" d="M99.5,104.8c0,0,1.1,2.9-0.9,3.9l-3.5-0.2c0,0-1.4-0.5-1-2.4c0,0,1.7-0.9,3-1.1
				C97.1,105,99.3,104.7,99.5,104.8"/>
			<path class="st75" d="M95.3,108.6l-0.2,0c0,0-0.6-0.1-1.4-0.2c-1.8-0.2-2.8-0.4-3.1-0.6l-0.1,0l0.1,0c0.1-0.1,2.9-1.9,3.5-2
				l0.1,0l0,0.1c0,0-0.3,1.7,0.9,2.6L95.3,108.6z M90.8,107.8c0.3,0.1,1.4,0.3,2.9,0.5c0.5,0.1,1,0.1,1.2,0.1
				c-1-0.9-0.9-2.2-0.9-2.5C93.4,106.2,91.2,107.6,90.8,107.8"/>
			<path class="st75" d="M93.7,108.4c-1.2-0.1-2.8-0.4-3-0.6c0,0,2.9-1.8,3.5-2c0,0-0.3,1.7,1,2.7C95.1,108.6,94.5,108.5,93.7,108.4
				"/>
			<path class="st69" d="M105.7,108.5c-0.1-0.1-0.3-0.1-0.8-0.1c-0.7,0-1.6,0.1-1.6,0.1l-0.1,0l0.1-0.1c0.6-0.8-0.2-2.9-0.3-2.9
				l0-0.1l0.1,0C105.5,106.4,105.8,108.4,105.7,108.5L105.7,108.5L105.7,108.5z"/>
			<path class="st69" d="M103,105.5c0,0,0.9,2.1,0.2,3c0,0,2.1-0.3,2.5,0C105.7,108.4,105.5,106.4,103,105.5"/>
			<path class="st75" d="M99.4,108.8c-0.4,0-0.6,0-0.8-0.1l-0.1,0l0.1-0.1c0.1,0,1.8-0.8,0.9-3.7l0-0.1l0.1,0c0.1,0,2.2,0,3.4,0.6
				l0,0l0,0c0,0.1,0.9,2.2,0.2,3l0,0l0,0C103.2,108.5,100.8,108.8,99.4,108.8"/>
			<path class="st75" d="M99.6,104.9c0,0,2.2,0,3.4,0.6c0,0,0.9,2.2,0.2,3c0,0-3.8,0.5-4.5,0.2C98.7,108.7,100.6,107.9,99.6,104.9"
				/>
			<path class="st76" d="M104.7,100.4c-0.4,0-0.8,0-1.2-0.1l-0.1,0l19.9-36.1l0,0c0.1,0,5.9,2.8,9.3,6l0,0l-5.9,12.6
				c0,0.1-3.4,9-8,10.8l-8.8,5.6C110,99.3,107.5,100.4,104.7,100.4"/>
			<path class="st76" d="M132.7,70.3l-5.9,12.6c0,0-3.4,8.9-8,10.8l-8.8,5.6c0,0-3.1,1.4-6.4,1l19.8-36
				C123.4,64.3,129.2,67.1,132.7,70.3"/>
			<path class="st77" d="M110.7,176l1.7-19.4l0.1,0c0,0,0.5,0,1.2,0c2.3,0,8-0.5,10.8-5l0.1,0.1l-13.8,24.3L110.7,176z"/>
			<path class="st77" d="M110.8,176l1.7-19.3c0,0,8.4,0.9,12.1-5L110.8,176z"/>
			<path class="st78" d="M124.3,151.9l16.9-0.8l0,0.1c-0.1,0.2-8.7,16.9-30.5,24.9l-0.1,0.1L124.3,151.9z"/>
			<path class="st78" d="M141.2,151.1c0,0-8.5,16.8-30.4,24.9l13.6-24.1L141.2,151.1z"/>
			<path class="st79" d="M126,147l2.2-4c0-0.1,3.6-6.6,4-8.2l1.5-6.8l0.1,0.2c0.1,0.2,7,20.8,7.4,23l0,0.1l-17,0.8L126,147z"/>
			<path class="st79" d="M141.2,151.1l-16.8,0.8l1.7-4.9l2.2-4c0,0,3.6-6.6,4-8.2l1.4-6.6C133.8,128.2,140.7,149,141.2,151.1"/>
			<path class="st80" d="M133.7,128.2l1.6-5l6.6-8.6l3.3,28.1c-0.2,1.1-3.8,8.1-4,8.4l-0.1,0.1L133.7,128.2z"/>
			<path class="st80" d="M141.9,114.8l-6.5,8.4l-1.6,4.9l7.4,23c0,0,3.8-7.3,4-8.4L141.9,114.8z"/>
			<path class="st81" d="M135.3,123.2c0.3-0.7,0.8-6.8,0.8-9.3c0-0.5-0.2-1-0.4-1.6c0-0.1-0.1-0.2-0.1-0.3l-2.7-6.5l-1.7-10l3.3-5.2
				l0.1,0c-0.3,1.4,7.3,24.2,7.4,24.4l0,0L135.3,123.2L135.3,123.2z"/>
			<path class="st81" d="M134.5,90.4l-3.2,5.2l1.7,10l2.7,6.5c0.2,0.6,0.5,1.2,0.5,1.9c0,2.4-0.4,8.6-0.8,9.3l6.5-8.4
				C141.9,114.8,134.2,91.8,134.5,90.4"/>
			<path class="st82" d="M131.2,95.6c0-0.1-2.9-12.2-4.4-12.6l-0.1,0l6-12.8l1.8,20.2l-3.3,5.3L131.2,95.6z"/>
			<path class="st82" d="M132.7,70.3l1.8,20l-3.2,5.2c0,0-2.9-12.2-4.5-12.7L132.7,70.3z"/>
			<polygon class="st83" points="90,149.4 98.4,153.1 107.4,156 93.4,163.2 			"/>
			<polygon class="st83" points="90.1,149.5 93.4,163.1 107.2,156 98.4,153.1 			"/>
			<path class="st84" d="M102.5,166.4c-3.3,0-6.4-1.1-9.2-3.2l-0.1-0.1l14-7.2l0.3,9.5l0,0C107.5,165.5,105.5,166.4,102.5,166.4"/>
			<path class="st84" d="M107.5,165.4c0,0-7.1,3.1-14.1-2.3l13.8-7.1L107.5,165.4z"/>
			<path class="st85" d="M107.2,155.9L107.2,155.9c0.1,0,2.8,0.7,5.3,0.7h0.1l-0.4,5.1l-4.6,3.8L107.2,155.9z"/>
			<path class="st85" d="M112,161.7l-4.5,3.7l-0.3-9.4c0,0,2.7,0.7,5.2,0.7L112,161.7z"/>
			<polygon class="st86" points="83.7,142.5 83.8,142.5 90.1,149.4 93.5,163.1 93.4,163.1 			"/>
			<polygon class="st86" points="83.8,142.5 93.4,163.1 90.1,149.5 			"/>
			<polygon class="st87" points="107.5,165.4 112.1,161.6 110.8,176.1 100.4,178.6 			"/>
			<polygon class="st87" points="100.5,178.5 110.8,176 112,161.7 107.5,165.4 			"/>
			<path class="st88" d="M93.3,162.9l0.2,0.1c2.9,2.1,6,3.2,9.2,3.2c2.9,0,4.8-0.9,4.8-0.9l0.2-0.1l-7.2,13.3L93.3,162.9z"/>
			<path class="st88" d="M93.4,163.1l7.1,15.4l7.1-13.1C107.5,165.4,100.9,168.6,93.4,163.1"/>
			<path class="st89" d="M87.4,56.9L87.4,56.9c0.1,0,3-0.5,7.5-0.5c7.4,0,18.3,1.4,28.5,7.9l0,0l-19.9,36.1L87.4,56.9z"/>
			<path class="st89" d="M87.5,56.9c0,0,19-3.5,35.9,7.4l-19.8,36L87.5,56.9z"/>
			<polygon class="st90" points="87.4,56.9 87.5,56.9 103.6,100.3 97.3,102.9 87.6,106.8 81.1,110.6 			"/>
			<polygon class="st90" points="81.2,110.5 87.5,56.9 103.5,100.3 97.3,102.9 87.5,106.7 			"/>
			<path class="st91" d="M64.8,68L64.8,68c5.8-7.4,22.5-11.1,22.7-11.1l0.1,0l-6.3,53.6l-0.1,0L64.8,68z"/>
			<path class="st91" d="M64.9,68c5.9-7.4,22.6-11.1,22.6-11.1l-6.3,53.5L64.9,68z"/>
			<path class="st92" d="M51.8,86.9L51.8,86.9c0.1-0.2,7.6-14.8,13-18.9l0.1,0l16.4,42.6l0,0c0,0-2.4,1.5-2.9,9.8l0,0.1L51.8,86.9z"
				/>
			<path class="st92" d="M51.9,86.9c0,0,7.5-14.7,13-18.9l16.3,42.5c0,0-2.4,1.4-3,9.9L51.9,86.9z"/>
			<path class="st93" d="M47,141.9c-4.6-23,4.7-54.7,4.8-55l0-0.1l12.9,16.4L47,142L47,141.9z"/>
			<path class="st93" d="M51.9,86.9c0,0-9.4,31.8-4.8,55l17.6-38.7L51.9,86.9z"/>
			<polygon class="st94" points="64.6,103.1 64.7,103.1 78.3,120.3 77.6,128.2 78.7,135.2 81.2,153.8 81.1,153.8 			"/>
			<polygon class="st94" points="78.2,120.3 64.7,103.1 81.1,153.8 78.6,135.2 77.6,128.2 			"/>
			<polygon class="st95" points="54,126.6 64.6,103.1 64.7,103.1 64.7,171.6 64.6,171.6 			"/>
			<polygon class="st95" points="54,126.5 64.7,171.6 64.7,103.1 			"/>
			<path class="st96" d="M64.6,171.7c-6.9-3.3-15.3-12.6-15.4-12.7L47,141.9l7-15.5l10.7,45.3L64.6,171.7z"/>
			<path class="st96" d="M47,141.9l2.2,17c0,0,8.5,9.3,15.4,12.7L54,126.5L47,141.9z"/>
			<polygon class="st97" points="81.1,153.8 78.6,135.2 78.7,135.2 83.8,142.5 93.5,163.1 93.4,163.1 			"/>
			<polygon class="st97" points="93.4,163.1 81.1,153.8 78.6,135.2 83.8,142.5 			"/>
			<path class="st98" d="M93.4,179.1c-17.2,0-28.7-7.4-28.8-7.4l0,0v-68.5l0.1,0l16.5,50.7L93.4,179.1L93.4,179.1z"/>
			<path class="st98" d="M93.4,179l-12.3-25.2l-16.5-50.7v68.5C64.7,171.6,76,179,93.4,179"/>
			<polygon class="st99" points="81.1,153.8 81.2,153.8 93.5,163.1 93.5,179 93.4,179.1 			"/>
			<polygon class="st99" points="93.4,163.1 93.4,179 81.1,153.8 			"/>
			<path class="st100" d="M93.4,163.1l0.1,0l7.1,15.5l-0.1,0c-0.5,0.1-6.8,0.5-7.1,0.5l-0.1,0V163.1z"/>
			<path class="st100" d="M93.4,179c0,0,6.5-0.4,7.1-0.5l-7.1-15.4V179z"/>
			<path class="st101" d="M122.6,104.3c-0.1,0-0.2,0-0.3,0c0,0-0.1-0.1-0.1-0.3c0-0.2,0.5-0.6,0.9-0.6c0.1,0,0.2,0,0.2,0
				c0,0,0.2,0.2,0.2,0.3C123.4,103.8,123.2,104.3,122.6,104.3"/>
			<path class="st101" d="M123.4,103.8c0,0-0.3,0.7-1.2,0.4c0,0-0.1,0-0.1-0.2c0-0.1,0.7-0.7,1.1-0.5
				C123.3,103.6,123.5,103.7,123.4,103.8"/>
			<path class="st102" d="M98.4,106.1c-0.4,0-0.6-0.3-0.6-0.3l0,0l0,0c0.2-0.2,0.4-0.3,0.7-0.3c0.4,0,0.7,0.3,0.7,0.3l0,0l0,0
				C98.8,106,98.6,106.1,98.4,106.1"/>
			<path class="st102" d="M99,105.7c0,0-0.6-0.6-1.3,0C97.8,105.7,98.3,106.4,99,105.7"/>
			<polygon class="st103" points="107.3,122.4 111.6,114.2 111.9,124.6 			"/>
			<polygon class="st103" points="111.6,114.5 107.4,122.4 111.8,124.5 			"/>
			<path class="st104" d="M90.5,107.9L90.5,107.9c2.8-2.2,5.6-3.2,8.5-3.2c3.2,0,5.3,1.3,5.5,1.6c0.1,0.2,1,1.4,1,1.4l-0.1,0.1
				c-2-1.7-4.1-2.6-6.4-2.6c-4.2,0-7.5,3-7.6,3l0,0L90.5,107.9z"/>
			<path class="st104" d="M90.7,107.8l0.8,0.2c0,0,7.1-6.6,14-0.4c0,0-0.9-1.3-1-1.4C104.3,105.9,98.1,102.1,90.7,107.8"/>
			<polygon class="st69" points="95.1,108.6 93.8,108.5 91.5,108.1 91.5,108 93.9,108 96.3,108.6 96.3,108.7 			"/>
			<polygon class="st69" points="96.3,108.6 93.9,108 91.5,108.1 93.8,108.4 95.1,108.6 			"/>
			<path class="st105" d="M128.1,101.7l0.2,0c0.1,0,1.8,0.5,2.8,1.3l0,0l-0.5,1.3L128.1,101.7z"/>
			<path class="st105" d="M131,103.1l-0.5,1.2l-2.3-2.6C128.3,101.8,130.1,102.2,131,103.1"/>
			<polygon class="st106" points="126.8,95.6 129.8,95.1 131.4,95.6 129,96.4 			"/>
			<polygon class="st106" points="129.9,95.1 127,95.6 129,96.3 131.2,95.6 			"/>
			<path class="st107" d="M105.9,138.6l0-0.1l4-1.5c0.1,0,4.6-0.5,5.9-0.5c0.1,0,0.2,0,0.2,0c0,0,0.7,0.1,1.4,0.1
				c0.5,0,0.9,0,1.3-0.1c0,0,3.5-1.6,5.5-1.6c0.3,0,0.5,0,0.7,0.1l0.1,0l-3.3,1.9l-2.7,1.3l-8.1,0.9L105.9,138.6z"/>
			<path class="st107" d="M105.9,138.5l4-1.5c0,0,5.2-0.6,6.1-0.5c0,0,1.6,0.2,2.7,0c0,0,4.5-2.1,6.1-1.5l-3.2,1.8l-2.7,1.3l-8,0.9
				L105.9,138.5z"/>
		</g>
	</g>
</g>
</svg>
