<?xml version="1.0" encoding="utf-8"?>
<!-- Generator: Adobe Illustrator 19.2.1, SVG Export Plug-In . SVG Version: 6.00 Build 0)  -->
<svg version="1.1" id="Layer_1" xmlns="http://www.w3.org/2000/svg" xmlns:xlink="http://www.w3.org/1999/xlink" x="0px" y="0px"
	 width="192px" height="234px" viewBox="0 0 192 234" style="enable-background:new 0 0 192 234;" xml:space="preserve">
<style type="text/css">
	.st0{fill:#F2F2F2;}
	.st1{fill:#D54339;}
	.st2{clip-path:url(#SVGID_2_);}
	.st3{clip-path:url(#SVGID_4_);fill:#382D1B;}
	.st4{clip-path:url(#SVGID_4_);fill:#D6BA9D;}
	.st5{clip-path:url(#SVGID_4_);fill:#24261C;}
	.st6{clip-path:url(#SVGID_4_);fill:#635040;}
	.st7{clip-path:url(#SVGID_4_);fill:#332B21;}
	.st8{clip-path:url(#SVGID_6_);fill:#E0C2AE;}
	.st9{clip-path:url(#SVGID_6_);fill:#DCB79B;}
	.st10{clip-path:url(#SVGID_6_);fill:#DAC099;}
	.st11{clip-path:url(#SVGID_6_);fill:#DCBC9E;}
	.st12{clip-path:url(#SVGID_6_);fill:#DDC3AB;}
	.st13{clip-path:url(#SVGID_6_);fill:#D7BB98;}
	.st14{clip-path:url(#SVGID_6_);fill:#D6BA9D;}
	.st15{clip-path:url(#SVGID_6_);fill:#D8B797;}
	.st16{clip-path:url(#SVGID_6_);fill:#D7AD91;}
	.st17{clip-path:url(#SVGID_6_);fill:#D8AF88;}
	.st18{clip-path:url(#SVGID_6_);fill:#A77E47;}
	.st19{clip-path:url(#SVGID_6_);fill:#D1B79A;}
	.st20{clip-path:url(#SVGID_6_);fill:#D8C2AD;}
	.st21{clip-path:url(#SVGID_6_);fill:#E0BDAB;}
	.st22{clip-path:url(#SVGID_6_);fill:#DAB69E;}
	.st23{clip-path:url(#SVGID_6_);fill:#D3B496;}
	.st24{clip-path:url(#SVGID_6_);fill:#D1AA92;}
	.st25{clip-path:url(#SVGID_6_);fill:#E2B498;}
	.st26{clip-path:url(#SVGID_6_);fill:#E6C5A8;}
	.st27{clip-path:url(#SVGID_6_);fill:#E6C2A6;}
	.st28{clip-path:url(#SVGID_6_);fill:#C48F64;}
	.st29{clip-path:url(#SVGID_6_);fill:#874923;}
	.st30{clip-path:url(#SVGID_6_);fill:#994824;}
	.st31{clip-path:url(#SVGID_6_);fill:#E5C6B5;}
	.st32{clip-path:url(#SVGID_6_);fill:#E5BC9F;}
	.st33{clip-path:url(#SVGID_6_);fill:#E6C0A2;}
	.st34{clip-path:url(#SVGID_6_);fill:#E9C0A9;}
	.st35{clip-path:url(#SVGID_6_);fill:#D8B08B;}
	.st36{clip-path:url(#SVGID_6_);fill:#E4BEA4;}
	.st37{clip-path:url(#SVGID_6_);fill:#E0B693;}
	.st38{clip-path:url(#SVGID_6_);fill:#E2BEA6;}
	.st39{clip-path:url(#SVGID_6_);fill:#3C382D;}
	.st40{clip-path:url(#SVGID_6_);fill:#767C73;}
	.st41{clip-path:url(#SVGID_6_);fill:#383A36;}
	.st42{clip-path:url(#SVGID_6_);fill:#423C37;}
	.st43{clip-path:url(#SVGID_6_);fill:#343533;}
	.st44{clip-path:url(#SVGID_6_);fill:#473E2E;}
	.st45{clip-path:url(#SVGID_6_);fill:#4A4231;}
	.st46{clip-path:url(#SVGID_6_);fill:#4C4234;}
	.st47{clip-path:url(#SVGID_6_);fill:#24261C;}
	.st48{clip-path:url(#SVGID_6_);fill:#3F2B15;}
	.st49{clip-path:url(#SVGID_6_);fill:#493B39;}
	.st50{clip-path:url(#SVGID_6_);fill:#635040;}
	.st51{clip-path:url(#SVGID_6_);fill:#685542;}
	.st52{clip-path:url(#SVGID_6_);fill:#5A4F39;}
	.st53{clip-path:url(#SVGID_6_);fill:#604C3B;}
	.st54{clip-path:url(#SVGID_6_);fill:#6E634F;}
	.st55{clip-path:url(#SVGID_6_);fill:#675945;}
	.st56{clip-path:url(#SVGID_6_);fill:#5C554C;}
	.st57{clip-path:url(#SVGID_6_);fill:#6E6252;}
	.st58{clip-path:url(#SVGID_6_);fill:#63503A;}
	.st59{clip-path:url(#SVGID_6_);fill:#574F43;}
	.st60{clip-path:url(#SVGID_6_);fill:#695746;}
	.st61{clip-path:url(#SVGID_6_);fill:#675D4F;}
	.st62{clip-path:url(#SVGID_6_);fill:#EBCEB4;}
	.st63{clip-path:url(#SVGID_6_);fill:#F0D4C2;}
	.st64{clip-path:url(#SVGID_6_);fill:#E5CEB7;}
	.st65{clip-path:url(#SVGID_6_);fill:#EED3A8;}
	.st66{clip-path:url(#SVGID_6_);fill:#E9D2C1;}
	.st67{clip-path:url(#SVGID_6_);fill:#EFDCC6;}
	.st68{clip-path:url(#SVGID_6_);fill:#DDBB9D;}
	.st69{clip-path:url(#SVGID_6_);fill:#E1B889;}
	.st70{clip-path:url(#SVGID_6_);fill:#D6B086;}
	.st71{clip-path:url(#SVGID_6_);fill:#E9CCB4;}
	.st72{clip-path:url(#SVGID_6_);fill:#DCB191;}
	.st73{clip-path:url(#SVGID_6_);fill:#D2AC89;}
	.st74{clip-path:url(#SVGID_6_);fill:#D3B295;}
	.st75{clip-path:url(#SVGID_6_);fill:#D8C4A9;}
	.st76{clip-path:url(#SVGID_6_);fill:#EDDEC0;}
	.st77{clip-path:url(#SVGID_6_);fill:#DABD9A;}
	.st78{clip-path:url(#SVGID_6_);fill:#36281E;}
	.st79{clip-path:url(#SVGID_6_);fill:#EBD9B1;}
	.st80{clip-path:url(#SVGID_6_);fill:#E2CCA8;}
	.st81{clip-path:url(#SVGID_6_);fill:#D7BD97;}
	.st82{clip-path:url(#SVGID_6_);fill:#DFC6A5;}
	.st83{clip-path:url(#SVGID_6_);fill:#D5AE8C;}
	.st84{clip-path:url(#SVGID_6_);fill:#C6B584;}
	.st85{clip-path:url(#SVGID_6_);fill:#CA9E83;}
	.st86{clip-path:url(#SVGID_6_);fill:#453621;}
	.st87{clip-path:url(#SVGID_6_);fill:#382D1B;}
	.st88{clip-path:url(#SVGID_6_);fill:#2D2315;}
	.st89{clip-path:url(#SVGID_6_);fill:#3A2B1C;}
	.st90{clip-path:url(#SVGID_6_);fill:#332B21;}
	.st91{clip-path:url(#SVGID_6_);fill:#563A23;}
	.st92{clip-path:url(#SVGID_6_);fill:#8B613A;}
	.st93{clip-path:url(#SVGID_6_);fill:#CDAA7D;}
	.st94{clip-path:url(#SVGID_6_);fill:#B89562;}
	.st95{clip-path:url(#SVGID_6_);fill:#D1AE7E;}
	.st96{clip-path:url(#SVGID_6_);fill:#CE857D;}
	.st97{clip-path:url(#SVGID_6_);fill:#DC9A99;}
	.st98{clip-path:url(#SVGID_6_);fill:#DA898B;}
	.st99{clip-path:url(#SVGID_6_);fill:#DF9DA0;}
	.st100{clip-path:url(#SVGID_6_);fill:#DA9A9E;}
	.st101{clip-path:url(#SVGID_6_);fill:#D2827A;}
	.st102{clip-path:url(#SVGID_6_);fill:#C27A70;}
	.st103{clip-path:url(#SVGID_6_);fill:#9D4738;}
	.st104{clip-path:url(#SVGID_6_);fill:#D7AE82;}
	.st105{clip-path:url(#SVGID_6_);fill:#97504C;}
	.st106{clip-path:url(#SVGID_6_);fill:#6F5A47;}
	.st107{clip-path:url(#SVGID_6_);fill:#A5857C;}
	.st108{clip-path:url(#SVGID_6_);fill:#D8DCC1;}
	.st109{clip-path:url(#SVGID_6_);fill:#A78F87;}
	.st110{clip-path:url(#SVGID_6_);fill:#171316;}
	.st111{clip-path:url(#SVGID_6_);fill:#AB8363;}
	.st112{clip-path:url(#SVGID_6_);fill:#0E0D11;}
	.st113{clip-path:url(#SVGID_6_);fill:#110A0B;}
	.st114{clip-path:url(#SVGID_6_);fill:#AC9C8B;}
	.st115{clip-path:url(#SVGID_6_);fill:#D8C2BC;}
	.st116{clip-path:url(#SVGID_6_);fill:#D4BDA1;}
	.st117{clip-path:url(#SVGID_6_);fill:#E6C3AB;}
	.st118{clip-path:url(#SVGID_6_);fill:#CF9D6F;}
</style>
<rect class="st0" width="192" height="234"/>
<polygon class="st1" points="192,215.5 172.5,234 192,234 "/>
<g>
	<g>
		<defs>
			<rect id="SVGID_1_" x="-108.6" y="-131.6" width="367.2" height="475.2"/>
		</defs>
		<clipPath id="SVGID_2_">
			<use xlink:href="#SVGID_1_"  style="overflow:visible;"/>
		</clipPath>
		<g class="st2">
			<defs>
				<rect id="SVGID_3_" x="-108.6" y="-131.6" width="367.2" height="475.2"/>
			</defs>
			<clipPath id="SVGID_4_">
				<use xlink:href="#SVGID_3_"  style="overflow:visible;"/>
			</clipPath>
			<path class="st3" d="M62.3,106.4c0.2,6.8-0.8,13.5-1.6,20.2c-0.3,3.3-0.8,6.5-1.2,9.8c-0.5,3.7,0.1,7.5-0.8,11.1
				c-0.3,1.2,1,2.4,2.2,1.7c3.5-2.2,6.5-5.1,8.7-8.6c2.6-4.1,2.2-9.2,1.9-13.8c-0.4-5.5-1.8-10.8-2.1-16.2
				c-0.3-4.4-3.5-7.2-4.6-11.3c-1.1-3.8-1.7-8.3-0.5-12c0.5-1.6,2.6-3,3.5-4.5c1.2-2.2,1.3-4.8,1.9-7.2c0.9-4.2,7.9-6.4,11.3-7.7
				c5.1-1.8,10.6-2.4,15.9-2.6c1.9-0.1,1.9-3.1,0-3c-9.1,0.4-18.5,2.1-26.2,7.3c-4,2.7-3.9,6.9-5.2,11.1c-0.7,2.2-3,3.1-3.8,5.2
				c-0.7,1.7-0.8,3.4-0.9,5.2c-0.1,3.6,0.6,7.5,1.8,10.8c0.7,1.9,1.9,3.5,2.9,5.2c1.5,2.4,1,5.8,1.3,8.5c0.2,2.7,1,5.4,1.4,8.1
				c0.5,3.3,0.7,6.6,0.5,9.9c-0.3,5.7-4.7,10.1-9.3,13c0.7,0.6,1.5,1.1,2.2,1.7c0.7-3.2,0.5-6.5,0.6-9.8c0.2-3.6,1-7.2,1.4-10.8
				c0.6-7.1,1.8-14.2,1.6-21.3C65.2,104.4,62.2,104.4,62.3,106.4"/>
			<path class="st3" d="M90.4,60.9c-2.6,0-5.2-0.5-7.8-0.1c-2.4,0.3-4.2,1.4-6.3,2.7c-3.1,2.1-7.3,4.5-8.4,8.3
				c-0.2,0.8,0.3,1.6,1,1.8c7,1.9,15.7,1,22.6-1.1c-0.6-0.7-1.1-1.5-1.7-2.2c-5.4,9.6-6.1,20.9-11.1,30.6c0.9,0.1,1.8,0.2,2.7,0.4
				c-1.6-7.6,0.1-16,2-23.4c0.4-1.4-1.5-2.7-2.5-1.5c-4.8,5.9-7.9,12.7-10.6,19.8c-0.7,1.8,2.2,2.6,2.9,0.8c2.5-6.5,5.4-13,9.8-18.4
				c-0.8-0.5-1.7-1-2.5-1.5c-2.1,7.9-3.7,16.9-2,25c0.3,1.3,2.2,1.5,2.7,0.4c5-9.7,5.7-21.1,11.1-30.6c0.6-1.1-0.4-2.6-1.7-2.2
				c-6.3,1.9-14.5,2.9-21,1.1c0.3,0.6,0.7,1.2,1,1.8c1-3.1,5.1-5.2,7.6-6.9c3.9-2.5,7.6-1.9,12-1.8C92.4,64,92.3,61,90.4,60.9"/>
			<path class="st3" d="M56.5,143.5c1.3,10.6,3.1,21.6,8,31.2c0.9,1.7,3.5,0.2,2.6-1.5c-4.6-9.1-6.4-19.6-7.6-29.7
				C59.3,141.6,56.3,141.5,56.5,143.5"/>
			<path class="st3" d="M56.9,144.9c-2.4,4.8-6.9,9.3-6.6,15c0.1,1.9,3.1,1.9,3,0c-0.2-5,4.1-9.2,6.2-13.5
				C60.4,144.7,57.8,143.2,56.9,144.9"/>
			<path class="st4" d="M89,131.9c1.2,4.9,3.8,8.8,8.4,11.1c2.1,1,4.5,1.8,6.9,2c1.5,0.2,3.1,0.3,4.6,0.6c2.4,0.5,1.8,2.7,1.9,4.5
				c0.1,1.3,1.6,2,2.6,1.1c3.9-3.9,9-9.2,9.2-15.1c0.1-2.3-1.9-5.5-4.5-5.4c-1.2,0-2.4,0.4-3.6,0.1c-1.4-0.3-2.5-1.4-3.5-2.3
				c-2.1-1.8-4.3-3.7-6.7-4.9c-1.2-0.6-3,0.7-2.1,2.1c0.3,0.4,0.6,0.9,0.7,1.4c0.7-0.6,1.5-1.1,2.2-1.7c-2.5-1.5-4.5-3.5-6.9-5.1
				c-1.5-1-2.8,1.1-1.8,2.4c4.6,5.5,11.3,8.3,17.2,12.2c1.6,1.1,3.1-1.5,1.5-2.6c-5.6-3.8-12.1-6.4-16.6-11.8
				c-0.6,0.8-1.2,1.6-1.8,2.4c2.4,1.6,4.4,3.6,6.9,5.1c1,0.6,2.7-0.4,2.2-1.7c-0.3-0.7-0.6-1.5-1-2.1c-0.7,0.7-1.4,1.4-2.1,2.1
				c3.7,1.7,6.2,5.2,9.8,7c2.5,1.3,7.1-0.5,7,3.5c-0.1,4.6-5.2,9.4-8.3,12.5c0.9,0.4,1.7,0.7,2.6,1.1c-0.1-2.4,0.3-4.7-1.8-6.4
				c-1.8-1.5-4.9-1.4-7.1-1.6c-6.7-0.7-11.4-4.5-13-11C91.4,129.2,88.5,130,89,131.9"/>
			<path class="st4" d="M96,94.3c1.9,0,1.9-3,0-3C94,91.3,94,94.3,96,94.3"/>
			<path class="st4" d="M94.3,83.8c-2.9,7.9-5.7,15.8-7.5,24c-0.4,1.6,1.9,2.7,2.7,1.2c4.3-8.3,7.4-17.1,10.4-25.9H97
				c0.9,5.4-0.6,10.8-0.1,16.3c0.1,1.3,2.1,2.2,2.8,0.8c3.7-7.8,3.8-16.7,7.5-24.4c-0.9-0.1-1.8-0.2-2.7-0.4
				c2.8,12.8,3.4,25.9,5.1,38.9c0.2,1.3,2.2,1.5,2.7,0.4c2.1-4.9,1-10.6,0.8-15.8c-0.2-7.7-2.1-15.3-2.6-22.9c-1,0.1-2,0.3-2.9,0.4
				c3.6,9.9,6.6,20,10.8,29.7c0.4,0.8,1.8,1,2.4,0.3c3.5-4.5,3-10.3,4.2-15.5c-0.9,0.1-1.8,0.2-2.7,0.4c7.5,10.9,1.5,26.4-3.3,37.1
				h2.6c-2.2-3.7-3.2-7.9-5.8-11.3c-0.5-0.7-1.7-1.1-2.4-0.3c-5.5,6.3-5.2,15-8.7,22.3c0.9,0.1,1.8,0.2,2.7,0.4
				c-1.7-6-0.7-12.3-3.3-18.1c-0.4-0.8-1.4-0.8-2.1-0.5c-3,1.3-4.1,4.6-6.9,6.2c-0.3,0.1-0.6,0.3-0.9,0.4c0.6,0.6,0.7,0.7,0.3,0.2
				c-0.3-0.6-0.9-1.1-1.4-1.4c-1-0.6-2.4-1.8-3.7-1.8c-4.5,0-9.2,8.5-8.3,12.5c1.4,6.2,8.4,4.4,12.9,5.7c2.2,0.6,2.9,4.6,4,6.3
				c1.3,2.1,3.3,3,5.7,2.4c1.9-0.4,1.1-3.3-0.8-2.9c-2.3,0.5-3.2-2.6-3.9-4.2c-0.8-1.7-1.6-3.2-3.3-4.1c-2.9-1.5-11.4,0.4-11.6-4.2
				c-0.1-2.4,1.9-5.4,3.5-7c1.2-1.3,1.8-1.4,3.2-0.5c1,0.6,1.2,1.6,2.1,2.1c1.3,0.8,3.5-0.6,4.5-1.4c2.2-1.7,3.4-4.5,6-5.6
				c-0.7-0.2-1.4-0.4-2.1-0.5c2.4,5.5,1.4,11.7,3,17.4c0.3,1.2,2.2,1.6,2.7,0.4c3.3-6.9,3.1-15.7,8.2-21.7c-0.8-0.1-1.6-0.2-2.4-0.3
				c2.6,3.4,3.6,7.6,5.8,11.3c0.5,0.9,2.1,1.1,2.6,0c5.3-11.7,11.5-28.3,3.3-40.1c-0.7-1-2.4-1-2.7,0.4c-1,4.5-0.4,10.4-3.4,14.2
				c0.8,0.1,1.6,0.2,2.4,0.3c-4.1-9.4-7-19.3-10.5-29c-0.5-1.5-3.1-1.4-2.9,0.4c0.5,7,1.9,13.8,2.5,20.8c0.2,2.7,0.3,5.3,0.4,8
				c0.2,2.7,0.4,5.9-0.7,8.4c0.9,0.1,1.8,0.2,2.7,0.4c-1.7-13-2.3-26.1-5.1-38.9c-0.3-1.2-2.2-1.5-2.7-0.4
				c-3.8,7.7-3.8,16.7-7.5,24.4c0.9,0.3,1.9,0.5,2.8,0.8c-0.5-5.7,0.9-11.4-0.1-17.1c-0.3-1.6-2.5-1.3-2.9,0
				c-2.9,8.6-5.9,17.1-10.1,25.2c0.9,0.4,1.8,0.8,2.7,1.2c1.8-8.2,4.7-16.1,7.5-24C97.9,82.8,95,82,94.3,83.8"/>
			<path class="st5" d="M133.8,95.7c0.7-4-0.7-8-2.4-11.6c-0.8-1.8-3.4-0.2-2.6,1.5c1.3,2.8,2.6,6.2,2.1,9.3
				C130.6,96.8,133.5,97.6,133.8,95.7"/>
			<path class="st5" d="M126.1,83.8v0.4c0,0.8,0.7,1.5,1.5,1.5c0.8,0,1.5-0.7,1.5-1.5v-0.4c0-0.8-0.7-1.5-1.5-1.5
				C126.8,82.3,126.1,83,126.1,83.8"/>
			<path class="st5" d="M128.6,84.1c-3.6-4.3-4.6-10.2-8.8-14.2c-1.4-1.3-3.5,0.8-2.1,2.1c4.2,3.9,5.3,9.8,8.8,14.2
				C127.7,87.7,129.8,85.6,128.6,84.1"/>
			<path class="st5" d="M120.6,78.5c1.4,3.9,3.1,7.7,5.5,11.1c1.1,1.6,3.7,0.1,2.6-1.5c-2.2-3.2-3.8-6.8-5.2-10.4
				C122.8,75.9,119.9,76.7,120.6,78.5"/>
			<path class="st5" d="M129.3,82.7c1.9,0,1.9-3,0-3C127.3,79.7,127.3,82.7,129.3,82.7"/>
			<path class="st6" d="M89,71.5c1.9,0,1.9-3,0-3C87,68.5,87,71.5,89,71.5"/>
			<path class="st6" d="M90,68.8c-5.7-1.2-11.2-3.4-17-3.4c-1.9,0-1.9,3,0,3c5.6,0,10.9,2.1,16.3,3.2C91,72.1,91.8,69.3,90,68.8"/>
			<path class="st6" d="M80.1,65.6c5.8-0.7,12.3-4.2,18.1-2c1.8,0.7,2.6-2.2,0.8-2.9c-6.3-2.4-12.6,1.1-18.8,1.9
				C78.2,62.9,78.2,65.9,80.1,65.6"/>
			<path class="st6" d="M81.6,59.9c-3.3,0.1-4.2,2.5-6.9,4c-2.8,1.6-6.8,1.7-8,5.1c-1.1,3-2.1,6.2-3,9.3C62.9,81,62.5,84,64,86.5
				c1,1.7,3.6,0.2,2.6-1.5c-2.1-3.6,1.5-9.3,2.5-13c0.4-1.5,0.6-2.6,2.1-3.4c1.3-0.7,2.9-1,4.3-1.7c0.9-0.4,1.9-0.9,2.6-1.6
				c1.1-1.1,1.8-2.3,3.6-2.4C83.5,62.9,83.5,59.9,81.6,59.9"/>
			<path class="st6" d="M85.5,84.1c-0.3,3.2-1,6.3-1.4,9.5c-0.4,2.8-1.7,5.4-2.1,8.2c-0.3,1.9,2.6,2.7,2.9,0.8
				c0.4-2.8,1.6-5.4,2.1-8.2c0.6-3.4,1.2-6.9,1.6-10.3C88.7,82.2,85.7,82.2,85.5,84.1"/>
			<path class="st6" d="M72.1,100c1-1.9,2.4-3.5,3.6-5.2c1.5-2.2,2.5-4.7,3.7-7c2.6-4.9,6.5-9,9.2-13.9c0.9-1.7-1.7-3.2-2.6-1.5
				c-2.5,4.6-5.8,8.7-8.7,13c-1.5,2.2-2.4,4.8-3.8,7.1c-1.3,2.1-2.9,3.8-4,6C68.6,100.2,71.2,101.7,72.1,100"/>
			<path class="st6" d="M61.4,96.6c4.3,1.2,8.3,3.7,12.8,3.5c1.9-0.1,1.9-3.1,0-3c-4.2,0.1-8.1-2.3-12.1-3.4
				C60.3,93.2,59.6,96.1,61.4,96.6"/>
			<path class="st6" d="M82.6,99.7c-0.1,0.3-0.1,0.6-0.2,0.8c0,0.2-0.1,0.3-0.1,0.5c0,0.1-0.1,0.2-0.1,0.2c0.1-0.2,0.1-0.2,0,0
				c-0.4,0.7-0.2,1.6,0.5,2.1c0.7,0.4,1.7,0.2,2.1-0.5c0.4-0.7,0.6-1.5,0.8-2.3c0.2-0.8-0.2-1.6-1-1.8C83.6,98.5,82.8,99,82.6,99.7"
				/>
			<path class="st6" d="M82.9,99.9c-0.1,0.6-0.3,1.1-0.4,1.6c-0.3,0.8,0.3,1.6,1,1.8c0.8,0.2,1.6-0.3,1.8-1c0.2-0.5,0.3-1.1,0.4-1.6
				c0.2-0.8-0.2-1.6-1-1.8C83.9,98.6,83.1,99.1,82.9,99.9"/>
			<path class="st6" d="M85.6,104.1c0.2-0.7,0.2-1.5,0.2-2.2c0-0.8-0.7-1.5-1.5-1.5c-0.8,0-1.5,0.7-1.5,1.5c0,0.3,0,0.6,0,0.8
				c0,0.1,0,0.3,0,0.4c0-0.3,0,0.1,0,0.2c-0.2,0.8,0.2,1.6,1,1.8C84.5,105.4,85.4,104.9,85.6,104.1"/>
			<path class="st6" d="M90.9,70.3c3.3-3.6,7.6-6.4,12.1-8.3c-0.8-0.4-1.5-0.9-2.3-1.3c-0.7,5.7-4.6,10.5-6.1,16
				c-0.5,1.9,2.4,2.7,2.9,0.8c1.6-5.8,5.5-10.7,6.2-16.7c0.2-1.3-1.4-1.7-2.3-1.3c-4.7,2-9.3,5-12.8,8.8
				C87.5,69.6,89.6,71.7,90.9,70.3"/>
			<path class="st6" d="M102.4,57.8c-4.2,5.9-8.2,11.9-10.7,18.8c-0.6,1.8,2.3,2.6,2.9,0.8c2.3-6.6,6.3-12.4,10.3-18.1
				C106.1,57.8,103.5,56.3,102.4,57.8"/>
			<path class="st6" d="M97,77.5c-1.6-2.1-3.5-3.9-5.6-5.5c-1.2-0.9-2.9,0.9-2.1,2.1c1.4,2.1,3.3,3.7,5.3,5.2
				c0.7,0.5,1.7,0.1,2.1-0.5c0.4-0.8,0.1-1.6-0.5-2.1c-1.6-1.2-3.1-2.5-4.3-4.1c-0.7,0.7-1.4,1.4-2.1,2.1c1.7,1.3,3.3,2.7,4.6,4.4
				c0.5,0.6,1.3,1,2.1,0.5C97.1,79.2,97.5,78.1,97,77.5"/>
			<path class="st5" d="M132.5,93.8c1.9,0,1.9-3,0-3C130.5,90.8,130.5,93.8,132.5,93.8"/>
			<path class="st5" d="M134.6,93.7c-0.1-4.8-1.6-9.3-2.6-13.9c-0.4-1.9-3.3-1.1-2.9,0.8c0.9,4.4,2.4,8.6,2.5,13.1
				C131.6,95.6,134.6,95.6,134.6,93.7"/>
			<path class="st7" d="M57.6,145.3c0.1,4.9,1.3,9.6,2.2,14.4c1.1,5.4,1.1,10.9,2.2,16.3c0.4,1.9,3.3,1.1,2.9-0.8
				c-0.9-4.7-1-9.5-1.8-14.2c-0.8-5.3-2.4-10.4-2.5-15.7C60.6,143.4,57.6,143.4,57.6,145.3"/>
			<path class="st7" d="M64.8,178.9c1.9,0,1.9-3,0-3C62.9,175.9,62.9,178.9,64.8,178.9"/>
			<path class="st7" d="M49.6,166.4c2.2-3.7,3.8-7.8,5.8-11.5c1.7-3.1,4.1-5.7,5.1-9.2c0.6-1.9-2.3-2.6-2.9-0.8
				c-1.1,3.5-3.6,6.3-5.3,9.4c-1.9,3.5-3.3,7.2-5.3,10.6C46,166.6,48.6,168.1,49.6,166.4"/>
			<path class="st7" d="M58.3,145.8c3.3,4.9,7.5,9,11.4,13.4c4.1,4.6,9.4,7.9,13.4,12.6c1.3,1.5,3.4-0.7,2.1-2.1
				c-3.8-4.4-8.6-7.8-12.7-11.8c-4.2-4.1-8.4-8.7-11.7-13.5C59.8,142.6,57.2,144.1,58.3,145.8"/>
			<path class="st7" d="M76.5,160.6c-1.2-4-4.2-7.1-7.6-9.4c-1.4-0.9-3.1,1.2-1.8,2.4c0.7,0.6,1.5,1.1,2,1.9
				c0.8-0.6,1.6-1.2,2.4-1.8c-3-3.9-6.9-6.9-10.3-10.3c-1.4-1.4-3.5,0.7-2.1,2.1c3.4,3.5,7.3,6.5,10.3,10.3c1.1,1.4,3.3-0.4,2.4-1.8
				c-0.7-1.1-1.5-1.7-2.5-2.6c-0.6,0.8-1.2,1.6-1.8,2.4c2.8,1.9,5.3,4.4,6.2,7.7C74.1,163.3,77,162.5,76.5,160.6"/>
			<path class="st7" d="M86.1,172.7c1.9,0,1.9-3,0-3C84.2,169.7,84.2,172.7,86.1,172.7"/>
			<path class="st7" d="M88.1,170.8c0-1.9-0.5-3.4-1.3-5.1c-1.2-2.7-1.8-5.5-2.4-8.3c-0.9-4.1-2.4-8.4-5.2-11.6
				c-1.3-1.5-3.4,0.7-2.1,2.1c2.5,2.8,3.5,6.7,4.4,10.3c0.5,1.9,0.8,3.8,1.4,5.7c0.7,2.4,2.2,4.4,2.2,6.9
				C85,172.7,88,172.7,88.1,170.8"/>
			<path class="st7" d="M88.8,169.1c0.5-3.8,1.7-7.5,2.1-11.4c0.2-1.9-2.8-1.9-3,0c-0.4,3.9-1.6,7.6-2.1,11.4
				C85.6,171.1,88.6,171,88.8,169.1"/>
			<path class="st7" d="M61.5,144.2c3.9-2.4,7.5-5.2,11.7-7c1.8-0.8,0.2-3.4-1.5-2.6c-4.2,1.9-7.8,4.7-11.7,7
				C58.4,142.6,59.9,145.2,61.5,144.2"/>
			<path class="st7" d="M64.7,111.3c0.8,4.7,2.1,9.2,3.6,13.7c1.2,3.6,2.3,7.6,4.7,10.6c1.2,1.5,3.3-0.6,2.1-2.1
				c-2.2-2.8-3.1-7-4.3-10.3c-1.4-4.2-2.5-8.4-3.3-12.8C67.3,108.6,64.4,109.5,64.7,111.3"/>
			<path class="st7" d="M47,131.7c1.4,2.6,3.7,4.4,5.4,6.7c1.7,2.3,3,4.9,4.9,7.2c1.2,1.5,3.3-0.6,2.1-2.1c-1.9-2.3-3.2-4.9-4.9-7.3
				c-1.6-2.1-3.6-3.7-4.9-6C48.7,128.4,46.1,129.9,47,131.7"/>
			<path class="st7" d="M61.2,145.8c2.8-1.4,5.8-2.4,8.8-3.3c1.9-0.5,1.1-3.4-0.8-2.9c-3.3,0.9-6.4,2.1-9.5,3.6
				C58,144.1,59.5,146.7,61.2,145.8"/>
		</g>
		<g class="st2">
			<defs>
				<rect id="SVGID_5_" x="-108.6" y="-131.6" width="367.2" height="475.2"/>
			</defs>
			<clipPath id="SVGID_6_">
				<use xlink:href="#SVGID_5_"  style="overflow:visible;"/>
			</clipPath>
			<path class="st8" d="M108.6,162.8c-4.2,0-7.7-1.4-7.8-1.5l-0.1,0l8.1-16.6l9.7,14.4l-0.1,0C115.9,161.5,112.6,162.8,108.6,162.8
				L108.6,162.8z"/>
			<path class="st8" d="M108.8,144.8l-8,16.4c0,0,10.7,4.4,17.5-2.2L108.8,144.8z"/>
			<polygon class="st9" points="108.6,144.7 127.7,149.9 118.4,159.1 			"/>
			<polygon class="st9" points="127.5,149.9 118.4,159 108.8,144.8 			"/>
			<path class="st10" d="M108.8,144.9l0-0.2c0.6,0.1,1.2,0.2,1.9,0.2c6,0,10.7-6.3,10.7-6.4l0-0.1l11.5,3.8l0,0.1
				c-0.4,1.1-5.1,7.3-5.3,7.6l0,0L108.8,144.9z"/>
			<path class="st10" d="M121.5,138.6c0,0-5.6,7.8-12.7,6.2l18.7,5.1c0,0,4.9-6.4,5.3-7.5L121.5,138.6z"/>
			<polygon class="st11" points="121.3,138.6 136.3,127.7 132.9,142.5 			"/>
			<polygon class="st11" points="136.2,127.9 121.5,138.6 132.8,142.3 			"/>
			<polygon class="st12" points="90,156.1 109,144.6 100.9,161.3 			"/>
			<polygon class="st12" points="90.2,156.1 100.9,161.2 108.8,144.8 			"/>
			<polygon class="st13" points="80.1,147.2 95.2,138.4 90.2,156.3 			"/>
			<polygon class="st13" points="80.2,147.2 90.2,156.1 95.1,138.6 			"/>
			<path class="st14" d="M95,138.4l0.1,0.1c3.1,3.1,13.6,6.2,13.7,6.2l0.2,0.1l-19,11.5L95,138.4z"/>
			<path class="st14" d="M108.8,144.8c0,0-10.7-3.1-13.8-6.2l-4.9,17.5L108.8,144.8z"/>
			<path class="st15" d="M74.3,135.2L74.3,135.2c-0.4-5.5,2.5-12.4,2.6-12.5l0.1-0.1l10.6,14.8L74.3,135.2z"/>
			<path class="st15" d="M77,122.8c0,0-2.9,6.9-2.6,12.4l13,2.2L77,122.8z"/>
			<polygon class="st16" points="76.8,122.7 100.4,120.3 87.4,137.4 			"/>
			<polygon class="st16" points="100.2,120.4 87.4,137.3 77,122.8 			"/>
			<polygon class="st17" points="87.3,137.4 91.4,131.9 95.2,138.7 			"/>
			<polygon class="st17" points="95.1,138.6 91.4,132 87.4,137.3 			"/>
			<polygon class="st18" points="91.2,131.9 97.3,133.9 97.2,134.1 92.7,134.5 			"/>
			<polygon class="st18" points="97.2,134 92.7,134.4 91.4,132 			"/>
			<polygon class="st19" points="91.3,132.1 100.1,120.4 100.3,120.4 97.3,134.1 			"/>
			<polygon class="st19" points="100.2,120.4 97.2,134 91.4,132 			"/>
			<polygon class="st20" points="99.7,122.2 106.4,133.5 97.1,134.1 			"/>
			<polygon class="st20" points="106.2,133.5 97.2,134 99.8,122.4 			"/>
			<polygon class="st21" points="106.2,133.5 99.9,122.8 100,122.7 116.4,134.1 			"/>
			<polygon class="st21" points="116.1,134 106.2,133.5 100,122.8 			"/>
			<path class="st22" d="M116.1,134.1c-0.6,0-8.9-6.1-12.5-8.7l0.1-0.2l10.6,1.6l0,0.1C114.5,127.6,116.3,133.6,116.1,134.1
				L116.1,134.1L116.1,134.1C116.1,134.1,116.1,134.1,116.1,134.1 M104,125.5c4.6,3.4,11.2,8.1,12,8.5c-0.1-0.6-1.2-4.4-1.9-6.9
				L104,125.5z"/>
			<path class="st22" d="M114.2,126.9l-10.5-1.6c0,0,12.4,9.1,12.5,8.7C116.2,133.6,114.2,126.9,114.2,126.9"/>
			<path class="st23" d="M116.1,134.1L116.1,134.1c-0.4-0.1-1.6-5.1-2-7.2l0-0.1l11.4-0.8l-0.2,0.2
				C125.1,126.3,116.6,133.7,116.1,134.1L116.1,134.1z M114.3,127c0.6,2.5,1.5,6.5,1.8,6.9c0.7-0.6,7.6-6.6,8.8-7.7L114.3,127z"/>
			<path class="st23" d="M125.2,126.1l-11,0.8c0,0,1.7,7.3,1.9,7.1C116.5,133.7,125.2,126.1,125.2,126.1"/>
			<polygon class="st24" points="115.9,134.1 125.3,126 125.3,136 			"/>
			<polygon class="st24" points="125.2,135.9 116.1,134 125.2,126.1 			"/>
			<polygon class="st25" points="125.1,126.1 136.9,118.5 136.2,128 125.1,136.1 			"/>
			<polygon class="st25" points="136.8,118.7 125.2,126.1 125.2,135.9 136.2,127.9 			"/>
			<path class="st26" d="M129.5,109l5.3,0.7c1.3,1.2,2,8.7,2,9l0,0.1l-11.8,7.6L129.5,109z"/>
			<path class="st26" d="M129.6,109.1l-4.4,17l11.6-7.4c0,0-0.7-7.8-1.9-8.9L129.6,109.1z"/>
			<polygon class="st27" points="117.1,110.2 129.7,109 125.2,126.4 			"/>
			<polygon class="st27" points="117.2,110.3 125.2,126.1 129.6,109.1 			"/>
			<path class="st28" d="M121.2,126.4c0,0,2.2-3.7,1.6-4.8l0.2-0.1l2.4,4.8l-4.2,0.3L121.2,126.4z"/>
			<path class="st28" d="M121.2,126.4c0,0,2.2-3.7,1.6-4.9l2.3,4.6L121.2,126.4z"/>
			<path class="st29" d="M110.8,125.5c-0.3,0-0.5-0.1-0.8-0.2c-0.3-0.1-0.6-0.3-1.1-0.3c-0.5-0.1-0.8-0.2-1-0.2
				c-0.3-0.1-0.3-0.1-0.5,0c-0.3,0.2-0.7,0.3-1.1,0.5c-0.1,0.1-0.3,0.1-0.4,0.2l0,0l0,0c-0.1,0-1.1-0.4-1.2-0.9
				c0-0.2,0.1-0.4,0.4-0.6c1.2-0.7,3.6-0.9,4.7-0.4c0.9,0.4,1.8,1.1,1.8,1.6c0,0.1-0.1,0.2-0.3,0.3
				C111,125.5,110.9,125.5,110.8,125.5 M107.6,124.5c0.1,0,0.2,0,0.3,0.1c0.2,0.1,0.5,0.1,1,0.2c0.5,0.1,0.9,0.2,1.2,0.4
				c0.4,0.2,0.7,0.3,1.1,0.1c0.2-0.1,0.2-0.2,0.2-0.2c0-0.3-0.7-0.9-1.7-1.4c-1-0.5-3.4-0.3-4.5,0.4c-0.2,0.1-0.3,0.3-0.3,0.4
				c0,0.3,0.7,0.7,1,0.8c0.1-0.1,0.3-0.1,0.4-0.2c0.4-0.2,0.8-0.3,1-0.5C107.4,124.5,107.5,124.5,107.6,124.5"/>
			<path class="st29" d="M105.8,125.3c0,0-1.9-0.7-0.8-1.4c1.1-0.7,3.5-0.9,4.6-0.4c1.1,0.6,2.3,1.4,1.6,1.7
				c-0.7,0.3-1.1-0.2-2.3-0.5c-1.2-0.2-1.2-0.4-1.6-0.2C106.9,124.9,106.3,125.1,105.8,125.3"/>
			<path class="st30" d="M117.5,126.2c-0.4,0-0.7-0.1-0.8-0.3c-0.2-0.4-0.3-1,0-1.3c0.1-0.2,0.3-0.3,0.6-0.3c0,0,0.1,0,0.1,0
				c0.2,0,0.4,0,0.6-0.1c0.4-0.1,0.8-0.1,1.3,0.1c0.8,0.2,1.5,1.1,1.5,1.1l0,0l0,0c0,0-0.4,0.8-1.6,0.4
				C119,126,118.2,126.2,117.5,126.2 M117.2,124.4c-0.2,0-0.3,0.1-0.4,0.2c-0.2,0.2-0.1,0.7,0.1,1.1c0.2,0.4,1.5,0.2,2.3,0l0,0l0,0
				c0.9,0.3,1.2-0.1,1.3-0.3c-0.2-0.2-0.8-0.8-1.4-1c-0.5-0.1-0.8-0.1-1.2,0C117.7,124.4,117.5,124.4,117.2,124.4L117.2,124.4z"/>
			<path class="st30" d="M119.2,125.8c0,0-2.1,0.6-2.4,0c-0.3-0.6-0.3-1.5,0.4-1.5c0.7,0,1.2-0.2,1.9,0c0.8,0.2,1.5,1.1,1.5,1.1
				S120.3,126.1,119.2,125.8"/>
			<polygon class="st31" points="84.9,104.6 90.3,121.5 76.8,122.9 			"/>
			<polygon class="st31" points="84.9,104.9 77,122.8 90.2,121.4 			"/>
			<path class="st32" d="M90.2,121.6l-5.4-16.9l0,0c0.2-0.2,12,0.3,17.2,1.2l0.1,0l-0.1,0.1L90.2,121.6z M85,104.8l5.2,16.5
				l11.6-15.3C96.4,105.1,86.1,104.7,85,104.8"/>
			<path class="st32" d="M102,105.9l-11.8,15.5l-5.3-16.7C85.1,104.6,96.5,105,102,105.9"/>
			<polygon class="st33" points="102.1,105.6 100.3,120.5 90,121.5 			"/>
			<polygon class="st33" points="100.2,120.4 102,105.9 90.2,121.4 			"/>
			<polygon class="st34" points="102,105.8 109.4,111.8 100.1,120.7 			"/>
			<polygon class="st34" points="109.2,111.8 100.2,120.4 102,105.9 			"/>
			<path class="st35" d="M118.1,126l1.1-0.2c0.2,0,0.4,0.1,0.5,0.1c0.5,0,0.8-0.3,0.9-0.4c-0.6-1-1.5-1.1-2-1.1c-0.2,0-0.3,0-0.3,0
				l-0.1,0l-0.9-14.1l0.2,0l5.6,11.2c0.5,1.6-1.5,4.9-1.6,5l0,0l-2.9,0.2L118.1,126z"/>
			<path class="st35" d="M117.2,110.3l0.9,14c0,0,1.6-0.3,2.5,1.2c0,0-0.4,0.7-1.5,0.4l-1,0.2l0.2,0.6l2.8-0.2c0,0,2.1-3.3,1.6-4.9
				L117.2,110.3z"/>
			<polygon class="st36" points="111.6,121.6 114.6,105.7 117.3,110.2 118.3,124.4 			"/>
			<polygon class="st36" points="114.6,105.9 117.2,110.3 118.2,124.2 111.7,121.5 			"/>
			<path class="st37" d="M105.8,125.4h-2.2l0,0l-3.9-3l0-0.1l0.4-2l0,0l4.6-4.3l0.1,0.1l5.1,7.7l-0.3-0.1c-2.2-0.9-4.5,0.4-4.5,0.4
				c-0.2,0.2-0.3,0.3-0.3,0.5c0,0.4,0.8,0.7,1.1,0.8L105.8,125.4z M103.7,125.3h1.7c-0.3-0.2-0.7-0.4-0.8-0.7c0-0.2,0.1-0.4,0.4-0.6
				c0,0,2.3-1.2,4.4-0.5l-4.8-7.1l-4.4,4.2l-0.4,1.9L103.7,125.3z"/>
			<path class="st37" d="M109.6,123.6l-5-7.4l-4.5,4.3l-0.4,2l3.9,2.9h2.1c0,0-1.9-0.6-0.8-1.4C105,124,107.4,122.7,109.6,123.6"/>
			<polygon class="st38" points="104.6,116.2 109.3,111.7 111.8,121.5 109.6,123.7 			"/>
			<polygon class="st38" points="109.2,111.8 111.7,121.5 109.6,123.6 104.7,116.2 			"/>
			<path class="st39" d="M109.2,61l-5.2-4.1l0.2,0c0,0,1.3-0.4,3.4-0.4c5.6,0,16,2.6,23.5,20.3l0.1,0.3L109.2,61z"/>
			<path class="st39" d="M104.2,56.9c0,0,16.3-4.8,26.8,19.9l-21.7-15.9L104.2,56.9z"/>
			<polygon class="st40" points="108.1,66.7 104,56.6 108.8,60.4 110,66.7 			"/>
			<polygon class="st40" points="108.2,66.7 104.2,56.9 108.7,60.5 109.9,66.7 			"/>
			<path class="st41" d="M96,77.9l8.2-21.3l4.1,10.1l-0.1,0c-4.9,0.8-12,11.2-12,11.3L96,77.9z"/>
			<path class="st41" d="M96.1,78c0.1-0.2,7.1-10.5,12.1-11.3l-4-9.8L96.1,78z"/>
			<polygon class="st42" points="89.1,70.3 104.2,56.8 104.3,56.9 96.1,78.1 			"/>
			<polygon class="st42" points="89.2,70.3 96.1,78 104.2,56.9 			"/>
			<path class="st43" d="M76.7,60.8l0.3-0.1c0,0,0.1,0,0.1-0.1c2.9-1.8,10.6-5.9,18.5-5.9c3.3,0,6.2,0.7,8.7,2.1l0.1,0.1l-6,5.4
				L76.7,60.8z"/>
			<path class="st43" d="M77,60.7c0.3-0.2,16-10.2,27.2-3.8l-5.9,5.3L77,60.7z"/>
			<polygon class="st44" points="109.8,66.7 108.6,60.3 131,76.7 130.9,76.9 			"/>
			<polygon class="st44" points="109.9,66.7 131,76.8 108.7,60.5 			"/>
			<path class="st45" d="M68.9,66c0.1,0,5.8-4.1,8.1-5.3l21.3,1.5l0,0.2l-29.4,3.9L68.9,66z"/>
			<path class="st45" d="M68.9,66.1c0,0,5.8-4,8.1-5.3l21.3,1.5L68.9,66.1z"/>
			<polygon class="st46" points="68.9,66.1 68.9,66 98.5,62.1 89.2,70.4 			"/>
			<polygon class="st46" points="89.2,70.3 68.9,66.1 98.3,62.2 			"/>
			<polygon class="st47" points="117,70 131,76.7 133.9,94.7 133.7,94.7 			"/>
			<polygon class="st47" points="117.2,70.2 133.8,94.7 131,76.8 			"/>
			<path class="st48" d="M134.9,109.9l-0.2,0l-0.6-13.2l-3.2-19.9l0.2,0C131.1,77,140.1,96.6,134.9,109.9 M131.2,77.4l3.1,19.3
				l0.6,12.8C139.2,97.6,132.6,80.8,131.2,77.4"/>
			<path class="st48" d="M134.8,109.9l-0.6-13.2L131,76.8C131,76.8,140,96.5,134.8,109.9"/>
			<path class="st49" d="M84.7,105.2l4.5-35.1l7.1,7.9L96.2,78c-0.1,0.1-5.3,5.1-6.4,10.4l-5,16.8L84.7,105.2z"/>
			<path class="st49" d="M96.1,78c0,0-5.3,5.1-6.4,10.5l-5,16.8l4.5-34.9L96.1,78z"/>
			<polygon class="st50" points="72.6,97.4 89.1,70.3 89.3,70.3 84.8,105.4 			"/>
			<polygon class="st50" points="72.7,97.4 84.8,105.2 89.2,70.3 			"/>
			<path class="st51" d="M72.7,97.5c-0.3,0-1.6-10.6-3.9-31.4l0-0.1l20.5,4.3L72.7,97.5L72.7,97.5z"/>
			<path class="st51" d="M68.9,66.1c0,0,3.5,31.8,3.8,31.3c0.3-0.5,16.5-27.1,16.5-27.1L68.9,66.1z"/>
			<polygon class="st52" points="62.2,95.2 68.8,66 69,66 72.8,97.5 			"/>
			<polygon class="st52" points="62.3,95.1 68.9,66.1 72.7,97.4 			"/>
			<path class="st53" d="M53.3,97.3c0-0.1,0.1-0.3,0.2-0.7C58.1,82,63.5,71.1,68.8,66l0.2-0.2l-6.7,29.4l-9.2,2.3L53.3,97.3z"/>
			<path class="st53" d="M53.3,97.4c0.2-0.6,6.5-22.6,15.6-31.3l-6.6,29.1L53.3,97.4z"/>
			<path class="st54" d="M101.3,94.8c-0.1,0-0.3,0-0.5-3.4l0-0.1l3.6,0.8l-0.1,0.1c-0.7,0.6-2.7,2.1-2.9,2.5L101.3,94.8L101.3,94.8z
				"/>
			<path class="st54" d="M100.9,91.4c0,0,0.2,3.7,0.4,3.2c0.2-0.4,2.9-2.5,2.9-2.5L100.9,91.4z"/>
			<polygon class="st55" points="97,93.1 100.9,91.3 101.4,94.8 			"/>
			<polygon class="st55" points="97.2,93.1 100.9,91.4 101.3,94.7 			"/>
			<polygon class="st56" points="95.6,91 100.9,91.4 100.9,91.5 97.2,93.2 			"/>
			<polygon class="st56" points="95.8,91.1 97.2,93.1 100.9,91.4 			"/>
			<polygon class="st57" points="91.4,91.5 91.4,91.4 95.8,91 97.5,93.2 			"/>
			<polygon class="st57" points="91.4,91.4 95.8,91.1 97.2,93.1 			"/>
			<polygon class="st58" points="119.4,95.3 123,92.9 124.1,95.9 			"/>
			<polygon class="st58" points="119.7,95.3 122.9,93.1 123.9,95.8 			"/>
			<polygon class="st59" points="122.8,93 127.3,93 123.9,95.9 			"/>
			<polygon class="st59" points="127.1,93.1 123.9,95.8 122.9,93.1 			"/>
			<path class="st60" d="M123.9,95.9C123.9,95.9,123.9,95.9,123.9,95.9c-0.1-0.1-0.1-0.1,0-0.1l0,0l0,0c0,0,0,0,0,0
				c0.1-0.1,0.2-0.2,0.4-0.4l2.8-2.3l0.1,0.1l2.6,2.8l-0.2,0C127.6,95.7,124.3,95.6,123.9,95.9C124,95.8,124,95.9,123.9,95.9
				C124,95.9,124,95.9,123.9,95.9L123.9,95.9C123.9,95.9,123.9,95.9,123.9,95.9 M125.7,95.5c1.4,0,3.1,0.1,3.7,0.1l-2.3-2.5
				c-0.4,0.3-2.1,1.8-2.8,2.4C124.6,95.6,125.1,95.5,125.7,95.5"/>
			<path class="st60" d="M129.6,95.8l-2.5-2.7c0,0-3.6,3-3.2,2.7C124.4,95.4,129.6,95.8,129.6,95.8"/>
			<polygon class="st61" points="126.9,92.9 130.4,93.7 129.6,95.9 			"/>
			<polygon class="st61" points="130.3,93.8 129.6,95.8 127.1,93.1 			"/>
			<path class="st62" d="M111.7,96.4c-0.1,0-0.3,0-2.9-29.8l0-0.1h1.1l7.8,3.7l0,0.1C116.7,74.7,111.9,96.2,111.7,96.4L111.7,96.4
				L111.7,96.4z"/>
			<path class="st62" d="M108.8,66.7c0,0,2.6,30,2.8,29.7c0.2-0.2,5.9-26,5.9-26l-7.7-3.7H108.8z"/>
			<path class="st63" d="M111.7,96.5c-0.1,0-0.5-0.6-5.9-11.9c-2.8-5.9-5.6-11.8-5.7-11.9l0,0l0,0c4.1-5.2,8-6.1,8-6.1l0.8,0l0,0.1
				c0,0.3,2.7,29,2.8,29.7L111.7,96.5L111.7,96.5C111.7,96.5,111.7,96.5,111.7,96.5 M100.3,72.7c3.5,7.5,10.1,21.1,11.3,23.3
				c-0.4-3.3-2.6-27.4-2.8-29.3h-0.6C108.1,66.7,104.3,67.6,100.3,72.7"/>
			<path class="st63" d="M100.2,72.7c0,0,11.6,24.4,11.5,23.7c-0.1-0.8-2.8-29.7-2.8-29.7h-0.7C108.2,66.7,104.3,67.4,100.2,72.7"/>
			<polygon class="st64" points="117.5,70.3 117.7,70.3 123,93.1 119.7,95.3 111.6,96.5 			"/>
			<polygon class="st64" points="119.7,95.3 111.7,96.4 117.6,70.4 122.9,93.1 			"/>
			<path class="st65" d="M127.5,93.2l-4.6,0l-5.3-22.6c0-0.1-0.1-0.2,0-0.2l0.2,0l0,0.2c0.9,2.2,13.6,20.4,13.7,20.5l0,0l-1.1,2.8
				L127.5,93.2z"/>
			<path class="st65" d="M130.3,93.8l1.1-2.7c0,0-14-20-13.8-20.8l5.3,22.7l4.6,0L130.3,93.8z"/>
			<path class="st66" d="M111.6,96.4c-0.7-0.4-7.4-4.1-7.5-4.2l-3.4-0.8l-0.7-18.8l0.2,0l11.6,23.9L111.6,96.4z"/>
			<path class="st66" d="M111.7,96.4c-0.7-0.4-7.5-4.2-7.5-4.2l-3.4-0.8l-0.7-18.8L111.7,96.4z"/>
			<path class="st67" d="M95.8,91.2l-4.4,0.3l-1.9-2.4l0,0c0-0.1,0.6-5.7,6.6-11.2l4.2-5.4l0.7,19.1L95.8,91.2z"/>
			<path class="st67" d="M91.4,91.4l-1.9-2.3c0,0,0.6-5.7,6.6-11.1l4.1-5.3l0.7,18.8l-5.1-0.3L91.4,91.4z"/>
			<polygon class="st68" points="104,92 111.8,96.3 109.2,104.1 			"/>
			<polygon class="st68" points="109.2,103.9 104.2,92.2 111.7,96.4 			"/>
			<polygon class="st69" points="109.1,103.9 111.7,96.1 114.8,106.1 			"/>
			<polygon class="st69" points="114.6,105.9 109.2,103.9 111.7,96.4 			"/>
			<polygon class="st70" points="111.6,96.3 120.2,95.2 114.6,106.2 			"/>
			<polygon class="st70" points="120.1,95.3 114.6,105.9 111.7,96.4 			"/>
			<polygon class="st71" points="109.2,111.8 109.1,103.7 114.7,105.9 111.8,121.5 111.6,121.5 			"/>
			<polygon class="st71" points="109.2,111.8 109.2,103.9 114.6,105.9 111.7,121.5 			"/>
			<polygon class="st72" points="101.8,105.9 109.3,103.7 109.3,112 			"/>
			<polygon class="st72" points="102,105.9 109.2,103.9 109.2,111.8 			"/>
			<path class="st73" d="M101.9,106l0.4-2.6l1.8-11.5l0.1,0.3c0.9,1.9,5.2,11.2,5,11.7c-0.2,0.6-6.1,1.9-7.3,2.1L101.9,106z
				 M104.3,92.5l-2.1,13.3c3.3-0.7,6.9-1.7,7-2C109.2,103.4,106.3,96.9,104.3,92.5"/>
			<path class="st73" d="M104.2,92.2l-1.8,11.2l-0.4,2.5c0,0,7-1.5,7.2-2.1C109.4,103.3,104.2,92.2,104.2,92.2"/>
			<polygon class="st74" points="98.2,99.1 101.2,94.6 104.3,92 102.4,104.2 			"/>
			<polygon class="st74" points="102.4,104 104.2,92.2 101.3,94.7 98.3,99.1 			"/>
			<polygon class="st75" points="91.1,91.3 97.3,93 101.3,94.8 98.3,99.2 			"/>
			<polygon class="st75" points="91.4,91.4 98.3,99.1 101.2,94.9 97.2,93.1 			"/>
			<path class="st76" d="M98.8,99.7c-1.6-0.3-4.7-0.4-6.8-0.4c-1.4,0-2,0.1-2,0.1l-0.2,0.1l1.6-8.2l7.7,8.4L98.8,99.7z"/>
			<path class="st76" d="M89.9,99.3c0.4-0.2,6.5-0.1,8.9,0.3l-7.4-8.1L89.9,99.3z"/>
			<polygon class="st77" points="89.5,88.9 91.5,91.4 90.1,99.2 85.6,102.2 			"/>
			<polygon class="st77" points="85.7,102 90,99.2 91.4,91.4 89.5,89.1 			"/>
			<path class="st78" d="M100.2,103.6l-1.8-1.9c-1.7-0.7-3.4-1.1-5.2-1.1c-4.4,0-7.6,2.4-7.7,2.4l-0.2,0.1l0.3-1.3l4.2-2.6
				c1.1-0.3,2.4-0.5,3.7-0.5c2.9,0,5.2,0.8,5.3,0.8l3.8,4.6L100.2,103.6z"/>
			<path class="st78" d="M85.4,102.9c0,0,5.9-4.5,13-1.3l1.7,1.8l2.2,0.5l-3.6-4.4c0,0-4.7-1.5-8.9-0.3l-4.1,2.6L85.4,102.9z"/>
			<polygon class="st79" points="129.5,95.8 130.2,93.8 131.3,90.9 134,94.8 134.3,96.7 134.9,109.6 134.7,109.7 			"/>
			<polygon class="st79" points="134.8,109.6 129.6,95.8 130.3,93.8 131.4,91.1 133.9,94.8 134.2,96.7 			"/>
			<path class="st80" d="M126.8,101.5l-2.9-5.7l0.1,0c0.5-0.3,5.2,0,5.7,0l0.1,0L126.8,101.5z M124.1,95.8l2.7,5.3l2.7-5.2
				C127.5,95.7,124.6,95.7,124.1,95.8"/>
			<path class="st80" d="M123.9,95.8l2.8,5.5l2.8-5.5C129.6,95.8,124.4,95.5,123.9,95.8"/>
			<path class="st81" d="M132.7,103.7l-0.2-0.1c0,0-3.3-2.2-5.6-2.2c0,0,0,0-0.1,0l-0.1,0l3-5.8L132.7,103.7z M126.9,101.2
				c2.1,0,4.7,1.6,5.4,2.1l-2.7-7.3L126.9,101.2z"/>
			<path class="st81" d="M132.5,103.5c0,0-3.3-2.2-5.7-2.2l2.8-5.5L132.5,103.5"/>
			<polygon class="st82" points="120.1,95.1 121.6,102.2 114.5,106.1 			"/>
			<polygon class="st82" points="114.7,105.9 121.5,102.2 120.1,95.3 			"/>
			<polygon class="st83" points="114.5,105.8 119.6,103.1 117.3,110.5 			"/>
			<polygon class="st83" points="119.4,103.3 117.2,110.3 114.7,105.9 			"/>
			<path class="st84" d="M129.5,109.2L129.5,109.2c-0.1-0.7,0.1-1.2,0.5-1.7c1-1.1,3.1-1.1,3.5-1.1l0.1,0l1.3,3.5L129.5,109.2z"/>
			<path class="st84" d="M133.6,106.5c0,0-4.3-0.1-4,2.6l5.2,0.7L133.6,106.5z"/>
			<path class="st85" d="M119.4,103.1l0.1,0.3c0,0,1,3.5,11.2,3.9c0.1,0,0.1,0,0.1,0.1c0.1,0.3-0.8,1.5-1.1,1.7l-12.5,1.2
				L119.4,103.1z"/>
			<path class="st85" d="M119.4,103.4c0,0,0.9,3.6,11.3,4c0.3,0-0.6,1.5-1,1.7l-12.4,1.2L119.4,103.4z"/>
			<polygon class="st86" points="46.6,128.2 53.3,97.3 62.3,95 72.9,97.3 46.7,128.3 			"/>
			<polygon class="st86" points="46.7,128.2 53.3,97.4 62.3,95.1 72.7,97.4 			"/>
			<path class="st87" d="M74.3,135.2L65,106.4l7.8-9.2l12.3,7.6l0,0.1l-7.9,17.9c0,0.1-3.1,10-2.5,12.3L74.3,135.2z M65.2,106.5
				l9.1,27.9c0-3.2,2.5-11.3,2.6-11.6l7.9-17.8l-12-7.4L65.2,106.5z"/>
			<path class="st87" d="M74.4,135.1l-9.4-28.7l7.7-9.1l12.2,7.5L77,122.8C77,122.8,73.8,132.7,74.4,135.1"/>
			<polygon class="st88" points="65,106.4 65.1,106.4 74.5,135.2 59.6,145 			"/>
			<polygon class="st88" points="59.7,144.8 65.1,106.5 74.4,135.1 			"/>
			<polygon class="st87" points="46.6,128.2 65.2,106.2 59.8,145 			"/>
			<polygon class="st87" points="46.7,128.2 59.7,144.8 65.1,106.5 			"/>
			<polygon class="st89" points="59.6,144.8 74.5,135 87.5,172.5 87.3,172.6 			"/>
			<polygon class="st89" points="87.4,172.5 59.7,144.8 74.4,135.1 			"/>
			<polygon class="st90" points="59.6,144.5 87.6,172.6 65,179.3 			"/>
			<polygon class="st90" points="65.1,179.2 59.7,144.8 87.4,172.5 			"/>
			<polygon class="st87" points="46.6,168.6 59.8,144.5 65.2,179.4 			"/>
			<polygon class="st87" points="46.7,168.5 65.1,179.2 59.7,144.8 			"/>
			<polygon class="st87" points="46.6,168.5 46.6,128 59.8,144.8 46.7,168.6 			"/>
			<polygon class="st87" points="46.7,128.2 46.7,168.5 59.7,144.8 			"/>
			<path class="st91" d="M77.4,144l0.2-0.1c0.9,1.2,2.3,3.1,2.7,3.3l10.1,8.9l-2.8,16.5l-0.2,0L77.4,144z"/>
			<path class="st91" d="M90.2,156.1l-2.8,16.4l-9.9-28.6c0,0,2.1,3.1,2.7,3.3L90.2,156.1z"/>
			<polygon class="st92" points="90.1,156 101,161.2 87.3,172.8 			"/>
			<polygon class="st92" points="100.9,161.2 87.4,172.5 90.2,156.1 			"/>
			<path class="st93" d="M111.1,171.6l-0.2-0.2l-10.1-10.1l0.1-0.1c0.1,0,6.5,2.8,13.1,0.5l0.2-0.1l-0.1,0.2c0,0.1-3.1,6.6-3,9.5
				L111.1,171.6z M101.2,161.5l9.7,9.7c0-2.8,2.4-8.2,2.9-9.2C108.1,163.7,102.7,162,101.2,161.5"/>
			<path class="st93" d="M114,161.8c0,0-3.1,6.5-3,9.6l-10.1-10.1C100.9,161.2,107.3,164,114,161.8"/>
			<polygon class="st94" points="101,161 99.9,171.9 87.2,172.6 			"/>
			<polygon class="st94" points="87.4,172.5 99.8,171.8 100.9,161.2 			"/>
			<polygon class="st95" points="100.8,161 111.2,171.4 99.7,171.9 			"/>
			<polygon class="st95" points="111,171.3 99.8,171.8 100.9,161.2 			"/>
			<polygon class="st96" points="108.8,139.7 114.5,139.5 108.8,145 			"/>
			<polygon class="st96" points="108.8,139.8 108.8,144.8 114.3,139.6 			"/>
			<path class="st97" d="M110.7,145c-1.1,0-1.8-0.2-1.8-0.2l-0.2,0l0.1-0.1l5.5-5.2l0.1,0.1l3.1,3l-0.1,0.1
				C115,144.6,112.4,145,110.7,145 M109,144.7c0.8,0.1,4.7,0.7,8.2-2.2l-2.9-2.9L109,144.7z"/>
			<path class="st97" d="M117.4,142.6l-3.1-3l-5.5,5.2C108.8,144.8,113.4,145.9,117.4,142.6"/>
			<path class="st98" d="M117.4,142.7l-3.3-3.2l6.6-0.1l0,0.1C120.7,140.1,117.8,142.4,117.4,142.7L117.4,142.7z M114.5,139.7
				l2.9,2.8c1.1-0.9,2.9-2.4,3.1-2.9L114.5,139.7z"/>
			<path class="st98" d="M120.6,139.5l-6.3,0.1l3.1,3C117.4,142.6,120.6,140,120.6,139.5"/>
			<path class="st99" d="M108.9,144.9l-0.1,0c-0.2-0.1-6.1-1.9-7.4-2.6l-0.2-0.1l7.7-2.5V144.9z M101.7,142.2
				c1.5,0.7,6.3,2.2,7.1,2.5v-4.8L101.7,142.2z"/>
			<path class="st99" d="M101.4,142.2l7.4-2.4v5C108.8,144.8,102.8,143,101.4,142.2"/>
			<path class="st100" d="M101.4,142.3L101.4,142.3c-0.1,0-4.2-1.5-6.4-3.6l-0.2-0.2l0.2,0c0.1,0,12.5,1.2,13.8,1.2l0,0.2
				C108.9,139.9,103.5,141.6,101.4,142.3L101.4,142.3z M95.3,138.7c2.1,1.9,5.8,3.3,6.1,3.4c1.7-0.5,5.6-1.8,6.9-2.2
				C106,139.7,97,138.8,95.3,138.7"/>
			<path class="st100" d="M95.1,138.6c0,0,12.5,1.2,13.8,1.2c0,0-5.4,1.7-7.4,2.4C101.4,142.2,97.3,140.7,95.1,138.6"/>
			<polygon class="st101" points="109.9,135.2 109.9,135 116.1,133.9 125.2,135.8 125.2,136 			"/>
			<polygon class="st101" points="125.2,135.9 109.9,135.1 116.1,134 			"/>
			<polygon class="st102" points="103.2,133.7 103.2,133.6 106.2,133.4 116.1,133.9 116.1,134.1 110.2,135.2 			"/>
			<polygon class="st102" points="103.2,133.7 110.2,135.1 116.1,134 106.2,133.5 			"/>
			<polygon class="st103" points="93,134.5 93,134.3 97.2,133.9 103.2,133.6 110.2,135 110.2,135.2 			"/>
			<polygon class="st103" points="93,134.4 110.2,135.1 103.2,133.7 97.2,134 			"/>
			<polygon class="st104" points="121.8,135.6 125.4,135.8 121.4,138.8 			"/>
			<polygon class="st104" points="121.8,135.7 121.5,138.6 125.2,135.9 			"/>
			<polygon class="st105" points="117.6,139.6 117.4,135.4 121.9,135.7 121.6,138.6 120.7,139.6 			"/>
			<polygon class="st105" points="117.5,135.5 117.7,139.5 120.6,139.5 121.5,138.6 121.8,135.7 			"/>
			<polygon class="st106" points="93.5,136 92.6,134.3 97.7,134.5 97.5,139 			"/>
			<polygon class="st106" points="97.5,138.8 93.6,135.9 92.7,134.4 97.6,134.6 			"/>
			<polygon class="st107" points="95,138.7 93.5,135.9 93.6,135.8 97.7,138.9 			"/>
			<polygon class="st107" points="95.1,138.6 93.6,135.9 97.5,138.8 			"/>
			<polygon class="st108" points="97.4,138.9 97.5,134.5 117.6,135.4 117.8,139.6 108.8,139.9 			"/>
			<polygon class="st108" points="97.6,134.6 97.5,138.8 108.8,139.8 117.7,139.5 117.5,135.5 			"/>
			<path class="st109" d="M84.8,104.8l0.6-1.9l3.5-1.9l0,0.2c0,0-0.3,3,0.4,3.8l0.1,0.2L84.8,104.8z"/>
			<path class="st109" d="M88.8,101.1c0,0-0.3,3,0.5,3.8l-4.3-0.3l0.5-1.8L88.8,101.1z"/>
			<path class="st110" d="M96.8,105.4l-7.5-0.3l0,0c0,0-0.9-0.7-0.6-4l0,0l0,0c0,0,3.8-1.9,8.5,0l0.1,0l0,0.1L96.8,105.4z
				 M89.4,104.9l7.3,0.3l0.5-4c-4.4-1.8-7.9-0.2-8.3,0C88.6,104,89.3,104.8,89.4,104.9"/>
			<path class="st110" d="M97.2,101.1l-0.5,4.2l-7.4-0.3c0,0-0.9-0.7-0.6-3.9C88.8,101.1,92.5,99.2,97.2,101.1"/>
			<polygon class="st111" points="100,105.7 100.1,103.4 102.4,103.9 102.1,106 			"/>
			<polygon class="st111" points="100.2,103.5 100.1,105.6 102,105.9 102.3,104 			"/>
			<path class="st109" d="M96.7,105.4l0.5-4.4l0.1,0c0,0,0.8,0.2,1.2,0.5l1.8,1.9l-0.1,2.2L96.7,105.4z"/>
			<path class="st109" d="M100.1,105.6l-3.3-0.3l0.5-4.2c0,0,0.8,0.2,1.2,0.5l1.7,1.8L100.1,105.6z"/>
			<path class="st112" d="M127.3,102.7c-0.7-0.2-1.4-0.3-2.1-0.3c-3.2,0-5.9,2.1-5.9,2.1l-0.2,0.1l0.1-1.4l2.1-1.2
				c2.2-0.8,4-0.9,4.9-0.9c0.3,0,0.4,0,0.4,0l0.1,0c2.4,0,5.5,2,5.7,2.1l1,2.5L127.3,102.7z"/>
			<path class="st112" d="M119.3,104.5c0,0,4-3.2,8.1-1.8l5.9,3l-0.9-2.3c0,0-3.2-2.1-5.7-2.1c0,0-2.2-0.2-5.2,0.9l-2.1,1.1
				L119.3,104.5z"/>
			<path class="st113" d="M130.5,107.4c0.1-0.8,0.2-3-0.3-3.2l0.1-0.2l3.1,1.5l0.4,0.9l-3.2,1L130.5,107.4z"/>
			<path class="st113" d="M130.6,107.4c0,0,0.4-3-0.4-3.3l3,1.5l0.3,0.8L130.6,107.4z"/>
			<path class="st114" d="M130.5,107.5L130.5,107.5l-2.2-0.1l0.1-0.1c0.4-0.7-0.1-4.1-0.1-4.2l0-0.2l2.1,1c0.8,0.6,0.4,3.4,0.4,3.5
				L130.5,107.5z"/>
			<path class="st114" d="M128.3,103.2c0,0,0.5,3.5,0.1,4.2l2.2,0l0,0.1c0,0,0.4-2.9-0.4-3.4L128.3,103.2z"/>
			<path class="st110" d="M128.5,107.5c0,0-0.1,0-0.1,0c-3.4,0.2-7.4-0.8-7.5-0.8l0,0l0,0c-0.4-0.5,0.2-3.1,0.2-3.4l0,0l0,0
				c2.3-1.2,4.1-1.2,5.2-1c1.2,0.3,1.9,0.8,1.9,0.8l0,0l0,0C128.9,107.4,128.7,107.5,128.5,107.5
				C128.6,107.5,128.5,107.5,128.5,107.5 M121,106.5c0.4,0.1,4.2,1,7.4,0.8l0.1,0l0,0c0.1-0.2,0.1-0.9-0.3-4.1
				c-0.3-0.2-2.9-2-6.9,0.2C121.1,104.1,120.8,106.1,121,106.5"/>
			<path class="st110" d="M121.3,103.3c0,0-0.7,2.8-0.3,3.3c0,0,4,1,7.5,0.8c0,0,0.5,0.8-0.1-4.2C128.3,103.2,125.6,101,121.3,103.3
				"/>
			<path class="st114" d="M120.9,106.7c-0.1,0-0.6,0-1-0.4c-0.4-0.4-0.7-1-0.8-1.8l0,0l0,0c0.1,0,1.6-1.1,2-1.2l0.1,0l0,0.1
				c0,0-0.2,2.8-0.3,3.3l0,0.1L120.9,106.7C121,106.7,121,106.7,120.9,106.7 M119.4,104.5c0.1,0.8,0.3,1.3,0.7,1.7
				c0.3,0.3,0.7,0.3,0.8,0.3c0-0.6,0.2-2.6,0.2-3.1C120.7,103.6,119.8,104.2,119.4,104.5"/>
			<path class="st114" d="M119.3,104.5c0,0,1.5-1.1,2-1.2c0,0-0.2,2.8-0.3,3.3C121,106.6,119.5,106.7,119.3,104.5"/>
			<path class="st115" d="M124.7,104.8c-0.1,0-0.2,0-0.4,0l0,0c-0.1,0-1.1-0.3-1.2-0.7c-0.1-0.4-0.2-1.2-0.2-1.3l0-0.1l0,0
				c0,0,1.1-0.6,2.3-0.4l0.1,0l0,0c0,0.1,0.6,1.6,0,2.2C125.2,104.7,124.9,104.8,124.7,104.8 M124.3,104.6c0.4,0.1,0.7,0,0.9-0.2
				c0.4-0.5,0-1.8-0.1-2c-1-0.1-1.9,0.3-2.1,0.4c0,0.2,0.1,0.9,0.2,1.2C123.2,104.2,123.9,104.5,124.3,104.6"/>
			<path class="st115" d="M124.3,104.7c0,0-1.1-0.3-1.2-0.6c-0.1-0.4-0.2-1.3-0.2-1.3s1-0.6,2.3-0.4
				C125.2,102.3,126.2,105.1,124.3,104.7"/>
			<path class="st115" d="M95,102.9c-0.2,0-0.5-0.1-0.7-0.1l-0.1,0c-1-0.2-0.5-2.4-0.5-2.5l0-0.1l0.1,0c0.8-0.2,2.5,0.4,2.6,0.4
				l0.1,0l0,0.1c0,1.1-0.2,1.7-0.6,2C95.4,102.9,95.2,102.9,95,102.9 M93.8,100.4c-0.1,0.6-0.3,2.1,0.4,2.3l0.1,0
				c0.5,0.1,0.9,0.2,1.3-0.1c0.3-0.3,0.5-0.9,0.6-1.8C95.8,100.6,94.4,100.3,93.8,100.4"/>
			<path class="st115" d="M93.7,100.3c0,0-0.4,2.2,0.4,2.4c0.9,0.2,2,0.5,2.1-2C96.2,100.7,94.4,100.1,93.7,100.3"/>
			<path class="st116" d="M120,95.2l4,0.5l2.9,5.7l-0.2,0c-0.1,0-0.3,0-0.5,0c-1.5,0-4.7,0.9-4.7,0.9l-0.1,0L120,95.2z"/>
			<path class="st116" d="M121.5,102.2c0,0,4.1-1.2,5.2-0.9l-2.8-5.5l-3.9-0.5L121.5,102.2z"/>
			<path class="st117" d="M80.1,147.3c-4.1-3.6-5.8-12.1-5.8-12.1l0-0.1l21,3.5L80.1,147.3L80.1,147.3z"/>
			<path class="st117" d="M74.4,135.1c0,0,1.7,8.4,5.8,12.1l14.9-8.7L74.4,135.1z"/>
			<path class="st118" d="M114.2,127l-8.5-1.3l0.1-0.4l0,0l1.8-0.8l0,0c0.1,0,2.4,0.5,2.9,0.9c0.3,0,0.8,0,0.8-0.2
				c0-0.1-0.1-0.5-1.7-1.5l-0.1-0.1l2.2-2.2l0.1,0l6.5,2.7l0,0.2c0,0-1.1,0-1.4,0.4c-0.1,0.2-0.1,0.4,0,0.7l0,0l0,0
				c0,0,0,0.1,0.1,0.3c0.1,0.1,0.4,0.3,1.4,0.2l0.1,0l0.3,0.8L114.2,127z M105.8,125.6l8.3,1.3l4.1-0.3l-0.2-0.4
				c-0.8,0.1-1.3,0-1.5-0.3c-0.1-0.2-0.1-0.3-0.1-0.4c-0.1-0.3-0.1-0.6,0-0.8c0.2-0.3,0.8-0.4,1.2-0.5l-6.1-2.6l-1.9,2
				c1.7,1,1.8,1.4,1.7,1.6c-0.1,0.4-0.9,0.3-1,0.3l0,0l0,0c-0.3-0.3-2.1-0.7-2.8-0.8l-1.7,0.8L105.8,125.6z"/>
			<path class="st118" d="M109.6,123.6l2.1-2.1l6.5,2.7c0,0-2-0.1-1.5,1.2c0,0-0.3,0.8,1.5,0.6l0.2,0.6l-4.2,0.3l-8.4-1.3l0.1-0.3
				l1.8-0.8c0,0,2.5,0.5,2.9,0.9C110.5,125.4,113.1,125.6,109.6,123.6"/>
		</g>
	</g>
</g>
</svg>
