<?xml version="1.0" encoding="utf-8"?>
<!-- Generator: Adobe Illustrator 19.2.1, SVG Export Plug-In . SVG Version: 6.00 Build 0)  -->
<svg version="1.1" id="Layer_1" xmlns="http://www.w3.org/2000/svg" xmlns:xlink="http://www.w3.org/1999/xlink" x="0px" y="0px"
	 width="192px" height="234px" viewBox="0 0 192 234" style="enable-background:new 0 0 192 234;" xml:space="preserve">
<style type="text/css">
	.st0{fill:#F2F2F2;}
	.st1{fill:#F69133;}
	.st2{clip-path:url(#SVGID_2_);}
	.st3{clip-path:url(#SVGID_4_);fill:#1A1919;}
	.st4{clip-path:url(#SVGID_4_);fill:#C9C9CA;}
	.st5{clip-path:url(#SVGID_4_);fill:#5C5C5C;}
	.st6{clip-path:url(#SVGID_4_);fill:#929191;}
	.st7{clip-path:url(#SVGID_4_);fill:#989897;}
	.st8{clip-path:url(#SVGID_4_);fill:#272626;}
	.st9{clip-path:url(#SVGID_4_);fill:#AFB0B0;}
	.st10{clip-path:url(#SVGID_4_);fill:#8C8C8C;}
	.st11{clip-path:url(#SVGID_4_);fill:#787878;}
	.st12{clip-path:url(#SVGID_4_);fill:#7E7E7E;}
	.st13{clip-path:url(#SVGID_4_);fill:#464646;}
	.st14{clip-path:url(#SVGID_4_);fill:#696A6A;}
	.st15{clip-path:url(#SVGID_4_);fill:#969595;}
	.st16{clip-path:url(#SVGID_4_);fill:#2F2F2F;}
	.st17{clip-path:url(#SVGID_4_);fill:#B4B4B5;}
	.st18{clip-path:url(#SVGID_4_);fill:#A4A5A4;}
	.st19{clip-path:url(#SVGID_2_);fill:#494849;}
	.st20{clip-path:url(#SVGID_2_);fill:#4D4D4D;}
	.st21{clip-path:url(#SVGID_6_);fill:#555554;}
	.st22{clip-path:url(#SVGID_6_);fill:#929191;}
	.st23{clip-path:url(#SVGID_6_);fill:#989897;}
	.st24{clip-path:url(#SVGID_6_);fill:#C3C3C3;}
	.st25{clip-path:url(#SVGID_6_);fill:#CDCDCE;}
	.st26{clip-path:url(#SVGID_6_);fill:#D7D7D7;}
	.st27{clip-path:url(#SVGID_6_);fill:#D5D6D5;}
	.st28{clip-path:url(#SVGID_6_);fill:#C2C2C2;}
	.st29{clip-path:url(#SVGID_6_);fill:#AEADAD;}
	.st30{clip-path:url(#SVGID_6_);fill:#8D8D8D;}
	.st31{clip-path:url(#SVGID_6_);fill:#858485;}
	.st32{clip-path:url(#SVGID_6_);fill:#8C8C8C;}
	.st33{clip-path:url(#SVGID_6_);fill:#B2B2B2;}
	.st34{clip-path:url(#SVGID_6_);fill:#202020;}
	.st35{clip-path:url(#SVGID_6_);fill:#272727;}
	.st36{clip-path:url(#SVGID_6_);fill:#464646;}
	.st37{clip-path:url(#SVGID_6_);fill:#696A6A;}
	.st38{clip-path:url(#SVGID_6_);fill:#B8B8B9;}
	.st39{clip-path:url(#SVGID_6_);fill:#2B2B2B;}
	.st40{clip-path:url(#SVGID_6_);fill:#272626;}
	.st41{clip-path:url(#SVGID_6_);fill:#636463;}
	.st42{clip-path:url(#SVGID_6_);fill:#A8A7A7;}
	.st43{clip-path:url(#SVGID_6_);fill:#808181;}
	.st44{clip-path:url(#SVGID_6_);fill:#A6A5A5;}
	.st45{clip-path:url(#SVGID_6_);fill:#B3B2B3;}
	.st46{clip-path:url(#SVGID_6_);fill:#A4A3A3;}
	.st47{clip-path:url(#SVGID_6_);fill:#959595;}
	.st48{clip-path:url(#SVGID_6_);fill:#AEAEAF;}
	.st49{clip-path:url(#SVGID_6_);fill:#ACACAC;}
	.st50{clip-path:url(#SVGID_6_);fill:#828282;}
	.st51{clip-path:url(#SVGID_6_);fill:#3A3A3A;}
	.st52{clip-path:url(#SVGID_6_);fill:#242424;}
	.st53{clip-path:url(#SVGID_6_);fill:#1A1A1A;}
	.st54{clip-path:url(#SVGID_6_);fill:#A8A8A8;}
	.st55{clip-path:url(#SVGID_6_);fill:#969595;}
	.st56{clip-path:url(#SVGID_6_);fill:#B1B1B1;}
	.st57{clip-path:url(#SVGID_6_);fill:#B4B4B5;}
	.st58{clip-path:url(#SVGID_6_);fill:#999999;}
	.st59{clip-path:url(#SVGID_6_);fill:#7C7D7D;}
	.st60{clip-path:url(#SVGID_6_);fill:#90908F;}
	.st61{clip-path:url(#SVGID_6_);fill:#252525;}
	.st62{clip-path:url(#SVGID_6_);fill:#868787;}
	.st63{clip-path:url(#SVGID_6_);fill:#BBBBBA;}
	.st64{clip-path:url(#SVGID_6_);fill:#B9B9BA;}
	.st65{clip-path:url(#SVGID_6_);fill:#C6C5C4;}
	.st66{clip-path:url(#SVGID_6_);fill:#8E8F8E;}
	.st67{clip-path:url(#SVGID_6_);fill:#C2C1C1;}
	.st68{clip-path:url(#SVGID_6_);fill:#B4B4B4;}
	.st69{clip-path:url(#SVGID_6_);fill:#B8B8B8;}
	.st70{clip-path:url(#SVGID_6_);fill:#BFBEBE;}
	.st71{clip-path:url(#SVGID_6_);fill:#AEAEAE;}
	.st72{clip-path:url(#SVGID_6_);fill:#2D2D2D;}
	.st73{clip-path:url(#SVGID_6_);fill:#616161;}
	.st74{clip-path:url(#SVGID_6_);fill:#2F2F2F;}
	.st75{clip-path:url(#SVGID_6_);fill:#D4D3D3;}
	.st76{clip-path:url(#SVGID_6_);fill:#A9A9A8;}
	.st77{clip-path:url(#SVGID_6_);fill:#AAAAAA;}
	.st78{clip-path:url(#SVGID_6_);fill:#888888;}
	.st79{clip-path:url(#SVGID_6_);fill:#747474;}
	.st80{clip-path:url(#SVGID_6_);fill:#3D3D3D;}
	.st81{clip-path:url(#SVGID_6_);fill:#686969;}
	.st82{clip-path:url(#SVGID_6_);fill:#787878;}
	.st83{clip-path:url(#SVGID_6_);fill:#6F6F6F;}
	.st84{clip-path:url(#SVGID_6_);fill:#797979;}
	.st85{clip-path:url(#SVGID_6_);fill:#6B6A6A;}
	.st86{clip-path:url(#SVGID_6_);fill:#A4A5A4;}
	.st87{clip-path:url(#SVGID_6_);fill:#B6B6B7;}
	.st88{clip-path:url(#SVGID_6_);fill:#575757;}
	.st89{clip-path:url(#SVGID_6_);fill:#6C6C6D;}
	.st90{clip-path:url(#SVGID_6_);fill:none;stroke:#000000;stroke-width:0.25;stroke-miterlimit:10;}
	.st91{clip-path:url(#SVGID_6_);fill:#767676;}
	.st92{clip-path:url(#SVGID_6_);fill:#AFB0B0;}
	.st93{clip-path:url(#SVGID_6_);fill:#9C9C9C;}
	.st94{clip-path:url(#SVGID_6_);fill:#ABABAB;}
	.st95{clip-path:url(#SVGID_6_);fill:#1C1C1C;}
	.st96{clip-path:url(#SVGID_6_);fill:#C0C0C0;}
	.st97{clip-path:url(#SVGID_6_);fill:#C9C9C8;}
	.st98{clip-path:url(#SVGID_6_);fill:#C7C7C7;}
	.st99{clip-path:url(#SVGID_6_);fill:#B5B5B6;}
	.st100{clip-path:url(#SVGID_6_);fill:#444545;}
	.st101{clip-path:url(#SVGID_6_);fill:#BFBDBD;}
	.st102{clip-path:url(#SVGID_6_);fill:#949494;}
	.st103{clip-path:url(#SVGID_6_);fill:#121212;}
	.st104{clip-path:url(#SVGID_6_);fill:#1D1D1D;}
	.st105{clip-path:url(#SVGID_6_);fill:#181818;}
	.st106{clip-path:url(#SVGID_6_);fill:#171717;}
	.st107{clip-path:url(#SVGID_6_);fill:#1A1919;}
	.st108{clip-path:url(#SVGID_6_);fill:#161616;}
	.st109{clip-path:url(#SVGID_6_);fill:#1E1E1E;}
	.st110{clip-path:url(#SVGID_6_);fill:#232323;}
	.st111{clip-path:url(#SVGID_6_);fill:#575858;}
	.st112{clip-path:url(#SVGID_6_);fill:#5C5C5C;}
	.st113{clip-path:url(#SVGID_6_);fill:#222222;}
	.st114{clip-path:url(#SVGID_6_);fill:#535353;}
	.st115{clip-path:url(#SVGID_6_);fill:#4E4E4E;}
	.st116{clip-path:url(#SVGID_6_);fill:#4E4E4F;}
	.st117{clip-path:url(#SVGID_6_);fill:#494849;}
	.st118{clip-path:url(#SVGID_6_);fill:#616262;}
	.st119{clip-path:url(#SVGID_6_);fill:#676767;}
	.st120{clip-path:url(#SVGID_6_);fill:#C9C9CA;}
	.st121{clip-path:url(#SVGID_6_);fill:#808080;}
	.st122{clip-path:url(#SVGID_6_);fill:#A1A1A0;}
	.st123{clip-path:url(#SVGID_6_);fill:#7E7E7E;}
</style>
<rect class="st0" width="192" height="234"/>
<polygon class="st1" points="192,215.5 172.5,234 192,234 "/>
<g>
	<g>
		<defs>
			<rect id="SVGID_1_" x="-66.8" y="-91.7" width="325.7" height="421.5"/>
		</defs>
		<clipPath id="SVGID_2_">
			<use xlink:href="#SVGID_1_"  style="overflow:visible;"/>
		</clipPath>
		<g class="st2">
			<defs>
				<rect id="SVGID_3_" x="-66.8" y="-91.7" width="325.7" height="421.5"/>
			</defs>
			<clipPath id="SVGID_4_">
				<use xlink:href="#SVGID_3_"  style="overflow:visible;"/>
			</clipPath>
			<path class="st3" d="M69.4,70.8c-1,5.8-0.4,11.8-2.7,17.3c-0.7,1.6,1.9,2.3,2.6,0.7c2.3-5.5,1.7-11.5,2.7-17.3
				C72.3,69.8,69.7,69.1,69.4,70.8"/>
			<path class="st3" d="M60.9,76.2c0.5,4.6,1.2,9,2.7,13.4c0.6,1.6,3.1,0.9,2.6-0.7c-1.4-4.1-2.1-8.3-2.6-12.7
				C63.3,74.5,60.7,74.5,60.9,76.2"/>
			<path class="st3" d="M57.7,92.1c2.3,0.3,4.6,0.5,6.9,0.8c1.7,0.2,1.7-2.5,0-2.7c-2.3-0.3-4.6-0.5-6.9-0.8
				C56,89.3,56,91.9,57.7,92.1"/>
			<path class="st3" d="M56.8,107.1c1-4.8,0.9-9.6,0.8-14.5c0-1.7-2.7-1.7-2.7,0c0,4.6,0.2,9.2-0.8,13.7
				C53.9,108.1,56.5,108.8,56.8,107.1"/>
			<path class="st3" d="M72.1,85.1c-0.5,1.7-1.2,3.1-2.3,4.5c-0.9,1.2,1.2,2.8,2.1,1.6c2-2.6,5-4.7,6.3-7.8
				c1.6-4.1,0.2-8.5-0.6-12.6c-0.2-1.2-1.9-1.2-2.4-0.3c-2.3,3.8-1.5,8.9-0.9,13c0.2,1.3,2.4,1.3,2.6,0c0.4-3.1,0.5-6.2,0.3-9.2
				c-0.2-2.9-0.5-6.3-2.5-8.6c-0.5-0.6-1.4-0.5-1.9,0c-4.6,4.1-8.6,9.5-11,15.2c-0.7,1.6,1.9,2.3,2.6,0.7c2.2-5.3,6-10.2,10.3-14
				h-1.9c1.6,1.8,1.6,5.1,1.8,7.3c0.2,2.6,0.1,5.3-0.2,7.9h2.6c-0.5-3.4-1.2-7.9,0.7-10.9c-0.8-0.1-1.6-0.2-2.4-0.3
				c0.7,3.4,1.9,7.1,0.9,10.6c-0.8,2.8-4.1,5-5.8,7.3c0.7,0.5,1.4,1.1,2.1,1.6c1.2-1.6,1.9-3.3,2.5-5.1
				C75.2,84.2,72.6,83.5,72.1,85.1"/>
			<path class="st3" d="M75.4,66.5c4.7,1.9,9.1,4.9,14.1,6c1.8,0.4,3.7,0.7,5.5,1.3c3.7,1.1,0.5,4.4-0.4,6.4c0.8,0.3,1.6,0.7,2.4,1
				c0.4-2.9-0.7-7.5,3.3-7.9c2.9-0.3,5.9,0.3,8.8,0.3v-2.7c-2.7,0.2-5.3,0.3-8,0.5c-1.7,0.2-1.7,2.8,0,2.7
				c7.3-0.6,12.8,3.6,19.3,6.1c0.8,0.3,1.7-0.5,1.7-1.3c0-0.9-0.1-1.6-0.3-2.5c-0.4-1.7-3-1-2.6,0.7c0.2,0.6,0.3,1.2,0.2,1.8
				c0.6-0.4,1.1-0.9,1.7-1.3c-6.8-2.6-12.4-6.7-20-6.2v2.7c2.7-0.2,5.3-0.3,8-0.5c1.7-0.1,1.7-2.6,0-2.7c-3.6-0.1-7.2-0.9-10.7,0
				c-4.3,1.1-3.4,6.3-3.9,9.5c-0.2,1.4,1.7,2.5,2.4,1c0.9-1.9,3.1-4.2,2.6-6.5c-0.4-2.3-2.3-3.4-4.4-4.1c-2.9-0.9-5.9-1.2-8.8-2.4
				c-3.4-1.5-6.7-3.3-10.2-4.7C74.5,63.3,73.9,65.9,75.4,66.5"/>
			<path class="st3" d="M112.5,71.1c-0.2,0-0.5,0-0.7,0c0.3,0,0,0-0.1,0c0,0-0.4-0.1-0.1,0c-0.7-0.3-1.4-0.2-1.8,0.5
				c-0.3,0.6-0.2,1.5,0.5,1.8c0.7,0.3,1.5,0.4,2.3,0.4c0.7,0,1.3-0.6,1.3-1.3C113.8,71.7,113.2,71.1,112.5,71.1"/>
			<path class="st3" d="M105.8,61c0.4,4.2,1.6,8.1,3,12.1c0.6,1.6,3.1,0.9,2.6-0.7c-1.3-3.7-2.5-7.4-2.9-11.4
				C108.4,59.3,105.7,59.3,105.8,61"/>
			<path class="st3" d="M88.1,57.6c2.3,5.8,6.6,10.7,8.2,16.8c0.4,1.7,3,1,2.6-0.7c-1.6-6.1-5.9-11-8.2-16.8
				C90,55.3,87.4,56,88.1,57.6"/>
			<path class="st3" d="M98.7,78.5c-0.2,0.9-0.4,1.6-0.9,2.3c-0.4,0.6-0.1,1.5,0.5,1.8c0.6,0.4,1.4,0.1,1.8-0.5
				c0.6-0.9,0.9-1.9,1.2-3C101.7,77.5,99.1,76.8,98.7,78.5"/>
			<path class="st3" d="M99.6,82.9c4-2.7,7.4-6.2,10.9-9.5c1.3-1.2-0.6-3-1.9-1.9c-3.4,3.1-6.5,6.5-10.4,9.1
				C96.8,81.5,98.2,83.8,99.6,82.9"/>
			<path class="st3" d="M113.1,70.9c0.2,1.6,0.2,3.3,0.8,4.8c0.4,1,1.4,1.3,2.2,0.6c1.4-1.2,2.3-2.6,3-4.3c-0.9-0.1-1.7-0.2-2.6-0.4
				v1.9c0,1.3,1.9,1.9,2.5,0.7c0.6-1.2,0.9-2.5,1.2-3.8c0.3-1.7-2.2-2.4-2.6-0.7c-0.2,1.1-0.5,2.1-0.9,3.1c0.8,0.2,1.7,0.4,2.5,0.7
				v-1.9c0-1.6-2.1-1.7-2.6-0.4c-0.5,1.2-1.3,2.3-2.3,3.1c0.7,0.2,1.5,0.4,2.2,0.6c-0.6-1.5-0.6-3.2-0.8-4.8c-0.1-0.7-1-1.1-1.6-0.9
				C113.2,69.5,113,70.2,113.1,70.9"/>
			<path class="st3" d="M121.7,78.5c1.6,0.3,3.1,0,4.5-0.7c0.7-0.3,0.8-1.2,0.5-1.8c-0.4-0.7-1.2-0.8-1.8-0.5
				c-0.7,0.4-1.6,0.6-2.4,0.4C120.8,75.6,120,78.1,121.7,78.5"/>
			<path class="st3" d="M126.9,77.8c1.7,0,1.7-2.7,0-2.7C125.1,75.1,125.1,77.8,126.9,77.8"/>
			<path class="st3" d="M127.3,97.1c1.7,0.5,3.4,1,5,1.7c1.5,0.7,2.9-1.6,1.3-2.3c-1.8-0.9-3.7-1.4-5.6-2
				C126.4,94.1,125.7,96.7,127.3,97.1"/>
			<path class="st3" d="M133.5,112.4c1.1-3,1.6-6.2,1.6-9.4c0-1.7-2.6-1.7-2.7,0c0,3-0.6,5.9-1.5,8.7
				C130.3,113.4,132.9,114,133.5,112.4"/>
			<path class="st3" d="M134.3,110v-9.8c0-1.7-2.7-1.7-2.7,0v9.8C131.7,111.7,134.3,111.7,134.3,110"/>
			<path class="st3" d="M134.3,116.4c0.5-1.2,0.6-2.5,0.8-3.7c0.1-0.7-0.2-1.4-0.9-1.6c-0.7-0.2-1.5,0.2-1.6,0.9
				c-0.2,1.3-0.3,2.5-0.8,3.7c-0.3,0.7,0.3,1.5,0.9,1.6C133.4,117.6,134,117.1,134.3,116.4"/>
			<path class="st3" d="M72.9,67.3c1-0.4,1.9-0.9,2.7-1.7c0.5-0.5,0.5-1.4,0-1.9c-0.5-0.5-1.4-0.5-1.9,0c-0.4,0.4-1,0.8-1.5,1
				c-0.7,0.2-1.1,0.9-0.9,1.6C71.5,67.1,72.3,67.6,72.9,67.3"/>
			<path class="st3" d="M86.8,81.7c6.8-2,12.4-8.8,16.2-14.4c1-1.4-1.3-2.8-2.3-1.3c-3.4,5-8.5,11.5-14.6,13.2
				C84.4,79.6,85.1,82.2,86.8,81.7"/>
			<path class="st3" d="M85.5,80.9c-2.1-1.2-5.2,3.2-6.7,4.3c-1.4,1-0.2,3.2,1.3,2.3c4.5-2.6,9-5,13.6-7.5c1.5-0.8,0.2-3.1-1.3-2.3
				c-4.6,2.4-9.1,4.8-13.6,7.5c0.4,0.8,0.9,1.5,1.3,2.3c0.8-0.6,1.6-1.2,2.3-1.9c0.5-0.4,0.9-0.8,1.3-1.2c0.3-0.2,0.5-0.5,0.8-0.7
				c0.6-0.3,0.5-0.5-0.5-0.4C85.7,84,87,81.7,85.5,80.9"/>
			<path class="st3" d="M127.4,92.2c0.6,2.2,2,3.9,4.1,4.7c1.6,0.6,2.3-2,0.7-2.6c-1.2-0.4-1.9-1.6-2.3-2.8
				C129.5,89.9,126.9,90.6,127.4,92.2"/>
			<path class="st4" d="M109.6,158.1c0.3-2.6-0.7-5-1.7-7.4c-0.9-2.3-2.4-5.6,0.2-7.4c3.8-2.6,9.5-1.8,13.8-2.6
				c1.3-0.2,1.3-2.3,0-2.6c-2.8-0.5-5.7-0.6-8.6-0.8v2.7c2.7,0,5.4-0.4,8-0.4c1.3,0,3-0.2,3.4,1.2c0.5,1.6,0,3.6,0,5.3
				c-0.1,1.7,2.6,1.7,2.7,0c0.1-3.2,1.1-8.1-3.1-8.9c-3.6-0.8-7.4,0.1-11,0.2c-1.7,0-1.7,2.5,0,2.7c2.6,0.2,5.3,0.3,7.9,0.8v-2.6
				c-4.8,0.9-11.1,0-15.1,3.4c-5.5,4.6,1.5,11.2,0.8,16.6C106.7,159.8,109.4,159.8,109.6,158.1"/>
			<path class="st4" d="M109.3,141.4c2,0,3.9-0.2,5.9-0.3c1.7,0,1.7-2.7,0-2.7c-3.2,0-6.4,0.2-9.6,0c0.1,0.9,0.2,1.7,0.4,2.6
				c2.3-0.5,4.7-0.5,7.1-0.5c1.7,0,1.7-2.6,0-2.7c-0.9,0-1.7-0.3-2.6-0.5c-1.7-0.4-2.4,2.1-0.7,2.6c1.1,0.3,2.2,0.5,3.3,0.6v-2.7
				c-2.6,0-5.2,0.1-7.8,0.6c-1.6,0.3-1.1,2.5,0.4,2.6c3.2,0.2,6.4,0,9.6,0v-2.7c-2,0-3.9,0.2-5.9,0.3
				C107.6,138.7,107.6,141.4,109.3,141.4"/>
			<path class="st4" d="M109.3,141.1c4.3-0.3,8.5-0.8,12.8-0.8c1.7,0,1.7-2.6,0-2.7c-0.4-0.1-0.8-0.1-1.2-0.2
				c-1.7-0.5-2.4,2.1-0.7,2.6c0.8,0.2,1.1,0.3,2,0.3v-2.7c-4.3,0-8.5,0.5-12.8,0.8C107.6,138.5,107.6,141.2,109.3,141.1"/>
			<path class="st4" d="M86.6,139.3c-2.3,3.8-6.7,5.8-10.6,7.3c-4,1.5-8.3,2.6-12.5,3.2c0.3,0.8,0.7,1.6,1,2.4
				c2.5-1.8,5.4-2.8,8.2-4c1.3-0.6,0.6-2.5-0.7-2.5c-1.7,0-3.5-0.1-5.1,0.4c0.3,0.8,0.7,1.6,1,2.4c0.1-0.1,0.3-0.1,0.5-0.2
				c1.6-0.6,0.9-3.2-0.7-2.6c-0.4,0.1-0.8,0.3-1.1,0.5c-1.3,0.7-0.4,2.9,1,2.4c1.4-0.4,3-0.3,4.4-0.3c-0.2-0.8-0.4-1.7-0.7-2.5
				c-2.8,1.2-5.7,2.2-8.2,4c-1.3,0.9-0.5,2.7,1,2.4c8.3-1.3,20-4,24.7-11.8C89.8,139.2,87.5,137.9,86.6,139.3"/>
			<path class="st4" d="M82.4,125.1c1.7,0,1.7-2.7,0-2.7C80.7,122.5,80.7,125.1,82.4,125.1"/>
			<path class="st4" d="M92.8,123.8c0,2.2-0.5,4.4-1,6.6c-0.3,1.1,0.6,1.8,1.6,1.6c2.6-0.4,4.7-2.1,7-3.3c-0.7-0.5-1.3-1-2-1.5
				c-0.6,1.6-1.5,3.1-2.3,4.7c-0.6,1.3,1,2.7,2.1,1.6c0.6-0.6,1.2-1.2,1.9-1.9c1.2-1.2-0.7-3.1-1.9-1.9c-0.6,0.6-1.2,1.2-1.9,1.9
				c0.7,0.5,1.4,1.1,2.1,1.6c0.8-1.8,1.8-3.5,2.5-5.4c0.4-1.2-1-2-2-1.5c-2.1,1.1-4,2.7-6.3,3.1c0.5,0.5,1.1,1.1,1.6,1.6
				c0.6-2.4,1.1-4.8,1.1-7.3C95.5,122.1,92.8,122.1,92.8,123.8"/>
			<path class="st4" d="M114.1,129.2c0.5,2.9,0.4,5.9,2,8.6c0.4,0.7,1.5,0.9,2.1,0.3c2.7-2.8,4.4-6.2,6.3-9.6
				c-0.8-0.1-1.6-0.2-2.4-0.3c0.5,1.5,0.5,3.1,0.5,4.7c0,1.7,2.7,1.7,2.7,0c0-1.8,0-3.7-0.6-5.4c-0.4-1.1-1.8-1.4-2.4-0.3
				c-1.8,3.1-3.4,6.4-5.9,9c0.7,0.1,1.4,0.2,2.1,0.3c-1.4-2.4-1.3-5.3-1.7-7.9C116.4,126.8,113.8,127.5,114.1,129.2"/>
			<path class="st4" d="M72.2,90.2c-0.7,0.4-1.3,0.7-2.1,0.9c-0.7,0.2-1.1,0.9-0.9,1.6c0.2,0.7,0.9,1.2,1.6,0.9
				c0.9-0.3,1.9-0.7,2.7-1.2c0.6-0.4,0.9-1.2,0.5-1.8C73.6,90.1,72.8,89.8,72.2,90.2"/>
			<path class="st4" d="M65.6,93.1c0.3,0.7,0.9,1.2,1.5,1.5c0.6,0.3,1.4,0.2,1.8-0.5c0.4-0.6,0.2-1.5-0.5-1.8
				c-0.1-0.1-0.2-0.1-0.3-0.2c-0.1-0.1-0.1,0,0.1,0.1c-0.1,0-0.1-0.1-0.1-0.1c0,0-0.1-0.1-0.1-0.1c-0.2-0.2,0.2,0.3,0,0.1
				c-0.1-0.1-0.1-0.2-0.2-0.3c-0.3-0.6-1.2-0.8-1.8-0.5C65.4,91.6,65.3,92.4,65.6,93.1"/>
			<path class="st4" d="M68.3,91.9c-0.2,5,0.4,9.9,3.4,14c0.4,0.6,1.2,0.9,1.8,0.5c3.8-2.6,5.3-6.8,7.1-10.9
				c-0.8-0.2-1.7-0.4-2.5-0.7c0.5,10.3-4.2,21.4,0.4,31.3c0.7,1.6,3,0.2,2.3-1.3c-4.3-9.2,0.3-20.3-0.1-29.9c-0.1-1.2-1.9-2-2.5-0.7
				c-1.6,3.5-2.9,7.7-6.2,9.9c0.6,0.2,1.2,0.3,1.8,0.5c-2.8-3.8-3.2-8.1-3-12.6C71.1,90.1,68.4,90.2,68.3,91.9"/>
			<path class="st4" d="M84.2,128.2c4.6,7.7,2.2,17.3,4.1,25.8c0.2,0.9,1.2,1.1,2,0.8c0.4-0.2,1.1-0.2,1.5-0.4l-1.5-0.6
				c1.8,2.9,2.2,7.2,5.1,9.3c1.5,1.1,2.9,0.4,4.5,0c3-0.9,5.6-1.9,8.3-3.5c1.5-0.9,0.1-3.2-1.3-2.3c-2.2,1.3-4.4,2.4-6.8,3.1
				c-0.5,0.1-1.5,0.6-2,0.6c-1.2,0.1-1.3-0.2-1.9-1.2c-1.4-2.3-2-5.1-3.5-7.4c-0.3-0.5-0.9-0.8-1.5-0.6c-0.7,0.2-1.5,0.3-2.2,0.7
				c0.7,0.3,1.3,0.5,2,0.8c-2-8.7,0.5-18.4-4.4-26.4C85.6,125.4,83.3,126.7,84.2,128.2"/>
			<path class="st4" d="M125.2,139.4c-2.7-9.2-5.6-18.8-10-27.4c-4-7.8-10.5-15-11-24.1c-0.6,0.4-1.1,0.9-1.7,1.3
				c1,0.4,2.2,0.5,3.1,0.9c1.5,0.7,2.9-1.6,1.3-2.3c-1.2-0.6-2.5-0.7-3.8-1.2c-0.8-0.3-1.7,0.5-1.7,1.3c0.4,8.5,5.6,15.5,9.7,22.6
				c5.3,9,8.4,19.6,11.3,29.6C123.1,141.8,125.7,141.1,125.2,139.4"/>
			<path class="st4" d="M122.9,95.8c-0.8,5.2-1.1,10.5-1.1,15.8c0,1.5,2.4,1.9,2.6,0.4c0.8-5.1,1.1-10.1,1.1-15.3
				c0-1.7-2.7-1.7-2.7,0c0,4.9-0.3,9.7-1,14.5c0.9,0.1,1.7,0.2,2.6,0.4c0-5,0.3-10.1,1-15.1C125.7,94.8,123.2,94.1,122.9,95.8"/>
			<path class="st5" d="M70.4,93.5c0.9-0.8,1.5-1.7,2.2-2.7c0.3-0.5,0.7-0.9,1-1.4c0.1-0.2,0.3-0.6,0.6-0.7c0.2-0.1,0.6-0.1,0.9-0.2
				c1.6-0.5,0.9-3.1-0.7-2.6c-0.7,0.2-1.3,0.2-1.9,0.7c-0.5,0.4-0.9,1.1-1.3,1.6c-0.9,1.1-1.6,2.5-2.6,3.4
				C67.2,92.7,69.1,94.6,70.4,93.5"/>
			<path class="st5" d="M75.7,87.7c0.8-0.6,1.5-1.2,2.2-1.9c0.5-0.5,0.5-1.4,0-1.9c-0.5-0.5-1.4-0.5-1.9,0c-0.7,0.7-1.4,1.3-2.2,1.9
				c-0.6,0.5-0.5,1.4,0,1.9C74.4,88.3,75.2,88.2,75.7,87.7"/>
			<path class="st6" d="M55.8,108.5c0.1,1.7,0.3,3.3,0.6,4.9c0.3,1.7,2.9,1,2.6-0.7c-0.3-1.4-0.5-2.8-0.5-4.2
				C58.3,106.8,55.7,106.8,55.8,108.5"/>
			<path class="st6" d="M58.9,106.4c1.6-2.6,3.4-4.7,3.9-7.8c0.3-1.7-2.3-2.4-2.6-0.7c-0.5,2.8-2.2,4.8-3.7,7.2
				C55.7,106.5,58,107.9,58.9,106.4"/>
			<path class="st6" d="M61.6,112.1c1.5-0.9,2.8-2.1,4-3.4c0.5-0.5,0.5-1.3,0-1.9c-0.5-0.5-1.4-0.6-1.9,0c-1,1.2-2.1,2.2-3.4,3
				C58.8,110.7,60.2,113,61.6,112.1"/>
			<path class="st6" d="M68.7,105.5l2.9-0.1c1.7-0.1,1.7-2.7,0-2.7l-2.9,0.1C67,102.9,67,105.5,68.7,105.5"/>
			<path class="st6" d="M64.6,109c2.3,1.3,4.9,1.6,7.3,2.8c1.5,0.8,2.9-1.5,1.3-2.3c-2.3-1.2-5-1.5-7.3-2.8
				C64.5,105.9,63.1,108.2,64.6,109"/>
			<path class="st7" d="M62.5,113.2c3,0,5.9-0.9,9-0.8c1.7,0,1.7-2.6,0-2.7c-3.1-0.1-6,0.8-9,0.8C60.7,110.5,60.7,113.2,62.5,113.2"
				/>
			<path class="st8" d="M60,119c0.8-0.9,1.5-1.9,2-3c0.1-0.2,0.2-0.5,0.2-0.8c0-0.1,0-0.3,0-0.4c0,0.1,0,0.1,0,0.2
				c0.3-0.5,0.7-0.8,0.9-1.3c0.6-1.6-2-2.3-2.6-0.7c0,0.1-0.5,0.5-0.6,0.7c-0.2,0.4-0.2,0.8-0.3,1.2c-0.3,0.8-1,1.7-1.6,2.3
				C57,118.4,58.9,120.3,60,119"/>
			<path class="st8" d="M64.5,116.3c0.1-0.5,0.2-1,0.4-1.4c0.1-0.1,0.1-0.2,0.2-0.3c0.1-0.1,0.2-0.1,0.2-0.1
				c0.7-0.1,1.3-0.6,1.3-1.3c0-0.7-0.6-1.4-1.3-1.3c-2.1,0.2-3,1.9-3.4,3.8c-0.1,0.7,0.2,1.4,0.9,1.6
				C63.5,117.4,64.3,117.1,64.5,116.3"/>
			<path class="st8" d="M69.7,114c1.6,0,3.2,0,4.8-0.1c1.7-0.1,1.7-2.8,0-2.7c-1.6,0.1-3.2,0.1-4.8,0.1C68,111.3,68,114,69.7,114"/>
			<path class="st4" d="M130.2,128.3c0,27.1-15.8,49.1-35.3,49.1s-35.3-22-35.3-49.1s15.8-49.1,35.3-49.1S130.2,101.2,130.2,128.3"
				/>
			<path class="st9" d="M133.1,134.1c1.4-1.3,1.8-3.1,2.1-5c0.3-1.7-2.3-2.4-2.6-0.7c-0.2,1.3-0.5,2.8-1.5,3.8
				C130,133.5,131.9,135.4,133.1,134.1"/>
			<path class="st10" d="M129.6,126.8c0.6-1.4,0.6-2.9,0.9-4.4c0.3-1.9,1.1-3.1,2.3-4.5c1.1-1.3-0.7-3.2-1.9-1.9
				c-1.2,1.3-2.3,2.6-2.7,4.3c-0.5,1.9-0.4,3.9-1.1,5.7C126.4,127.7,129,128.4,129.6,126.8"/>
			<path class="st11" d="M123.4,112.9c2,0.9,4.1,1.5,6.3,1.9c1.4,0.2,2.4-1.6,1-2.4c-0.1-0.1-0.3-0.2-0.4-0.2
				c-1.5-0.8-2.8,1.5-1.3,2.3c0.1,0.1,0.3,0.2,0.4,0.2c0.3-0.8,0.7-1.6,1-2.4c-2.2-0.4-4.3-1-6.3-1.9
				C122.5,109.7,121.8,112.2,123.4,112.9"/>
			<path class="st11" d="M119,110.5c2,1.3,4.2,2.3,6.4,3.2c1.6,0.6,2.3-2,0.7-2.6c-2-0.8-4-1.7-5.8-2.9
				C118.9,107.3,117.6,109.6,119,110.5"/>
			<path class="st12" d="M122.4,114c0.8,0.2,1.6,0.6,2.2,1.1c0.5,0.3,1.4,1,1.3,1.7c-0.3,1.7,2.2,2.4,2.6,0.7c0.6-3.1-2.8-5.2-5.4-6
				C121.5,111,120.8,113.5,122.4,114"/>
			<path class="st13" d="M129.8,112.6c0.1,2.4,0.9,4.6,1,7c0.1,1.7,2.8,1.7,2.7,0c-0.1-2.4-0.9-4.6-1-7
				C132.4,110.9,129.7,110.9,129.8,112.6"/>
			<path class="st14" d="M123.8,127.3c1.5-0.3,2.9-0.7,4.4-1.1c1.6-0.5,0.9-3-0.7-2.6c-1.5,0.4-2.9,0.8-4.4,1.1
				C121.4,125.1,122.1,127.7,123.8,127.3"/>
			<path class="st15" d="M124,118c0.3,2.6,0.4,5.1,0.2,7.7c-0.1,1.7,2.5,1.7,2.7,0c0.2-2.6,0.1-5.1-0.2-7.7
				C126.5,116.3,123.8,116.3,124,118"/>
			<path class="st16" d="M88.4,140.9c0.6-0.1,1.3,0.2,1.8,0.6c0.5,0.3,0.7,0.9,1.4,1c0.7,0.1,1.4-0.2,1.6-0.9
				c0.2-0.6-0.2-1.5-0.9-1.6c0,0-0.1,0-0.1,0c0.2,0.1,0.4,0.2,0.6,0.3c-0.2-0.1-0.4-0.5-0.6-0.7c-0.3-0.3-0.7-0.5-1.1-0.7
				c-0.8-0.4-1.7-0.7-2.6-0.6c-0.7,0.1-1.3,0.6-1.3,1.3C87.1,140.3,87.7,141,88.4,140.9"/>
			<path class="st17" d="M98.6,138.9c1.8,1.5,3.2,3.5,5.6,4.1c1.7,0.4,2.4-2.2,0.7-2.6c-1.9-0.4-3-2.2-4.4-3.4
				C99.2,136,97.3,137.8,98.6,138.9"/>
			<path class="st18" d="M103.5,162c1.6-1.1,3.2-2.1,4.9-3c1.5-0.8,0.2-3.1-1.3-2.3c-1.7,0.9-3.3,1.9-4.9,3
				C100.8,160.6,102.1,162.9,103.5,162"/>
			<path class="st18" d="M107.5,155.4c-1.9,1.5-3.5,3.3-5.4,4.8c-2,1.7-4,1.9-6.5,2.4c0.5,0.7,1,1.3,1.5,2c0.7-1.1,1.4-2.2,2.3-3.1
				c1.2-1.2-0.7-3.1-1.9-1.9c-1.1,1.1-1.9,2.3-2.7,3.7c-0.6,1.1,0.4,2.2,1.5,2c2.5-0.5,4.7-0.7,6.7-2.3c2.3-1.7,4.2-3.8,6.4-5.7
				C110.7,156.2,108.8,154.3,107.5,155.4"/>
		</g>
		<polygon class="st19" points="68.8,104.1 71.6,107.4 64.4,107.7 		"/>
		<polygon class="st19" points="64.6,107.6 68.8,104.2 71.4,107.3 		"/>
		<polygon class="st20" points="76.1,103.6 79.6,106.6 71.2,107.4 		"/>
		<polygon class="st20" points="79.4,106.6 76.1,103.7 71.4,107.3 		"/>
		<g class="st2">
			<defs>
				<rect id="SVGID_5_" x="-66.8" y="-91.7" width="325.7" height="421.5"/>
			</defs>
			<clipPath id="SVGID_6_">
				<use xlink:href="#SVGID_5_"  style="overflow:visible;"/>
			</clipPath>
			<path class="st21" d="M75.9,103.6l0.2,0c0.3,0,7.2,0.4,8.4,2.7l0.1,0.1l-5.2,0.3L75.9,103.6z"/>
			<path class="st21" d="M84.5,106.3l-5.1,0.3l-3.3-2.9C76.1,103.7,83.3,104,84.5,106.3"/>
			<polygon class="st22" points="57.2,108.5 60.7,97.9 68.9,104.2 64.7,107.7 57.9,114.3 			"/>
			<polygon class="st22" points="57.9,114.1 64.6,107.6 68.8,104.2 60.8,98 57.2,108.4 			"/>
			<polygon class="st23" points="60.6,98 67.3,91.8 69.5,92.6 68.8,104.3 			"/>
			<polygon class="st23" points="69.4,92.7 68.8,104.2 60.8,98 67.3,91.9 			"/>
			<path class="st24" d="M84.4,106.4c0,0-1.7-2.5-8.3-2.6c-1.9,0-6.9,0.2-7.3,0.5l-0.1,0.1l0.6-11.8l10.5-3.1l4.8,16.8L84.4,106.4z"
				/>
			<path class="st24" d="M79.7,89.6l4.7,16.7c0,0-1.6-2.5-8.3-2.7c0,0-6.8,0.1-7.4,0.5l0.6-11.5L79.7,89.6z"/>
			<polygon class="st25" points="79.6,89.6 96.9,84.6 84.4,106.5 			"/>
			<polygon class="st25" points="96.7,84.7 84.5,106.3 79.7,89.6 			"/>
			<polygon class="st26" points="84.4,106.3 96.6,84.6 96.8,84.7 94.2,111.2 			"/>
			<polygon class="st26" points="94.1,111.1 84.5,106.3 96.7,84.7 			"/>
			<polygon class="st27" points="96.6,84.7 96.8,84.6 105.4,104.8 103.1,106.3 94,111.2 			"/>
			<polygon class="st27" points="103.1,106.2 94.1,111.1 96.7,84.7 105.3,104.8 			"/>
			<polygon class="st28" points="96.6,84.6 110.2,80 105.3,105 			"/>
			<polygon class="st28" points="110.1,80.1 105.3,104.8 96.7,84.7 			"/>
			<polygon class="st29" points="105.2,104.8 110,80.1 110.2,80.1 116.7,104.2 108.8,104.8 			"/>
			<polygon class="st29" points="116.6,104.2 110.1,80.1 105.3,104.8 108.8,104.8 			"/>
			<polygon class="st30" points="110,80 124.1,86.9 116.6,104.4 			"/>
			<polygon class="st30" points="124,86.9 116.6,104.2 110.1,80.1 			"/>
			<polygon class="st31" points="123,107.4 116.5,104.2 124,86.7 125.5,94.6 124.3,107.9 			"/>
			<polygon class="st31" points="124.2,107.8 123,107.3 116.6,104.2 124,86.9 125.4,94.7 			"/>
			<path class="st32" d="M128.8,128.7c-1-10,2.7-11.5,2.8-11.6l0.1,0l1,10.7L128.8,128.7L128.8,128.7z"/>
			<path class="st32" d="M131.6,117.1c0,0-3.8,1.5-2.8,11.5l3.7-1L131.6,117.1z"/>
			<polygon class="st33" points="121,125.9 128.8,125.4 128.9,128.7 119.5,131.2 			"/>
			<polygon class="st33" points="121.1,126 119.6,131.1 128.9,128.6 128.7,125.5 			"/>
			<polygon class="st28" points="103.5,131.6 112.1,127.6 119.6,131.1 119.6,131.2 103.5,131.7 			"/>
			<polygon class="st28" points="112.1,127.7 103.5,131.6 119.6,131.1 			"/>
			<path class="st34" d="M104.4,126.9c-3.9,0-5-4.4-5.6-7.1c-0.1-0.2-0.1-0.4-0.2-0.6c-0.6-2.4-1.6-3.3-1.6-3.3l-3,0v-2.1h0.1
				c0,0,2,0,3-0.2c1-0.2,1.9-0.9,1.9-0.9c1.3-1,5-1.4,5.1-1.4c0.1,0,11.9-0.3,17-0.3c0.7,0,1.2,0,1.6,0c3.4,0.1,3.4,1.2,3.4,1.2
				l0.4,6.9c0,0,0.3,3,0,5c-0.2,1.8-4.4,1.9-5.7,1.9c-0.2,0-0.4,0-0.4,0C120.4,126.1,106,126.9,104.4,126.9 M111.9,112.3
				c-2.8,0-4.7,0-5.6,0.1c-3,0.3-5.5,1.1-5.5,1.1c-0.7,0.2-1.1,0.6-1.4,1.2c-0.7,1.4,0.1,3.4,0.1,3.4c0,0,0.4,1.8,0.9,4
				c0.5,2.2,2.9,3.6,3.6,3.7c0,0,0.1,0,0.4,0c2.7,0,18.1-0.7,19.5-1c1.4-0.3,1.6-1.4,1.6-1.5l-0.3-8.8c-0.4-2-2.6-2.3-2.6-2.3
				C122.7,112.4,116.7,112.3,111.9,112.3"/>
			<path class="st34" d="M99.5,118.2c0,0-1.5-3.8,1.3-4.7c0,0,2.5-0.9,5.5-1.1c3-0.3,16.4,0,16.4,0s2.2,0.3,2.7,2.4l0.3,8.8
				c0,0-0.3,1.2-1.7,1.5c-1.4,0.3-19.2,1.1-19.9,1s-3.2-1.5-3.7-3.8C99.9,119.9,99.5,118.2,99.5,118.2 M97.2,115.8
				c0,0,1,0.8,1.6,3.3c0.6,2.5,1.5,7.7,5.7,7.7c1.6,0,16.1-0.8,16.1-0.8s5.7,0.2,5.9-1.9c0.3-2,0-5,0-5l-0.4-6.9c0,0,0-1-3.4-1.1
				c-3.4-0.1-18.6,0.2-18.6,0.2s-3.8,0.4-5.1,1.4c0,0-0.9,0.8-1.9,1c-1.1,0.2-3,0.2-3,0.2v2H97.2z"/>
			<path class="st34" d="M83.5,127c-2.6,0-14-0.3-14.1-0.3c0,0-0.4,0-1,0c-2.3,0-6.1-0.2-6.3-1.8c-0.3-2,0-5.5,0-5.6l0-6.9
				c0,0,0-1.1,3.4-1.2c0.5,0,1.4,0,2.6,0c5.4,0,15.9,0.2,16,0.2c0.2,0,3.8,0.4,5.1,1.4c0,0,0.9,0.8,1.9,0.9c0.6,0.1,1.4,0.1,2,0.1
				c0.6,0,1,0,1,0l0.1,0l0,2.2l-3,0c-0.1,0.5-0.4,3.5-0.5,4.6c0,0.3-0.9,6.3-6.7,6.4C83.8,127,83.7,127,83.5,127 M77.2,112.3
				c-4.8,0-10.8,0.1-10.8,0.1c0,0-2.2,0.3-2.6,2.3l-0.3,8.8c0,0,0.3,1.2,1.6,1.4c1.3,0.3,16.8,1,19.5,1h0c0.3,0,0.4,0,0.4,0
				c0.7-0.1,3.1-1.5,3.6-3.7c0.5-2.2,0.9-4,0.9-4c0,0,0.8-2,0.1-3.4c-0.3-0.6-0.7-1-1.4-1.2c0,0-2.6-0.9-5.5-1.1
				C81.9,112.3,80,112.3,77.2,112.3"/>
			<path class="st34" d="M91.1,115.9c0,0-0.4,3.5-0.5,4.7c-0.2,1.6-1.6,6.3-6.7,6.4c-1.6,0-14.5-0.3-14.5-0.3s-7,0.3-7.3-1.7
				c-0.3-2,0-5.6,0-5.6l0-6.9c0,0,0-1,3.4-1.1c3.4-0.1,18.6,0.2,18.6,0.2s3.8,0.4,5.1,1.3c0,0,0.9,0.8,1.9,1c1.1,0.2,3,0.1,3,0.1
				l0,2L91.1,115.9z M89.6,118.2c0,0,1.5-3.8-1.3-4.7c0,0-2.5-0.9-5.5-1.1c-3-0.3-16.4,0-16.4,0s-2.2,0.3-2.7,2.4l-0.3,8.8
				c0,0,0.3,1.2,1.7,1.5c1.4,0.3,19.2,1.1,19.9,1c0.7-0.1,3.2-1.5,3.7-3.8C89.2,119.9,89.6,118.2,89.6,118.2"/>
			<polygon class="st35" points="125.8,111.7 129.6,113 126.5,119.4 			"/>
			<polygon class="st35" points="126.5,119.1 129.5,113 125.9,111.8 			"/>
			<path class="st36" d="M129.5,112.9L129.5,112.9c0.1,0,0.2,0.1,0.3,0.1c0.3,0,0.7-0.1,1.2-0.9l0.1-0.2l0.5,5.2l0,0
				c0,0-1.2,0.8-1.7,1.8l0,0l-3.6,0.2L129.5,112.9z"/>
			<path class="st36" d="M129.9,119l-3.4,0.2l3-6.1c0,0,0.8,0.4,1.6-0.8l0.5,4.9C131.6,117.1,130.4,117.9,129.9,119"/>
			<path class="st37" d="M124.2,125.7c0,0,2.2-0.4,2.3-2.2c0-1.9-0.1-4.3-0.1-4.4l0-0.1l3.6-0.2L130,119c0,0-1.5,2.8-1.3,6.5l0,0.1
				l-4.5,0.3L124.2,125.7z"/>
			<path class="st37" d="M124.2,125.8c0,0,2.3-0.4,2.3-2.3c0-2-0.1-4.4-0.1-4.4l3.4-0.2c0,0-1.5,2.8-1.3,6.5L124.2,125.8z"/>
			<polygon class="st38" points="112.1,127.8 110.1,126.5 121.2,125.9 119.7,131.2 			"/>
			<polygon class="st38" points="110.4,126.6 112.1,127.7 119.6,131.1 121.1,126 			"/>
			<polygon class="st39" points="59.1,118.1 62.1,112.2 62.3,112.2 62.1,120.1 			"/>
			<polygon class="st39" points="62.2,112.2 59.2,118.1 62.1,120 			"/>
			<polygon class="st40" points="58,115.2 57.8,114.1 60.5,111.5 62.3,111.9 59.2,118.3 			"/>
			<polygon class="st40" points="57.9,114.1 58.1,115.2 59.2,118.1 62.2,112 60.5,111.6 			"/>
			<polygon class="st41" points="59.1,117.9 62.2,119.9 62,124.8 61.9,124.9 			"/>
			<polygon class="st41" points="62,124.8 62.1,120 59.2,118.1 			"/>
			<path class="st23" d="M60.4,111.7l4.3-4.1l7.6,3.7l0,0.1c0,0-1.5-0.1-3.4-0.1c-2.5,0-5.7,0.1-6.7,0.8l0,0L60.4,111.7z"/>
			<path class="st23" d="M64.7,107.6l7.6,3.6c0,0-8.3-0.4-10.1,0.7l-1.7-0.4L64.7,107.6z"/>
			<polygon class="st29" points="64.6,107.6 71.4,107.2 79.4,106.5 79.5,106.6 72.3,111.4 			"/>
			<polygon class="st29" points="79.4,106.6 72.3,111.3 64.9,107.6 71.4,107.3 			"/>
			<polygon class="st42" points="72,111.4 79.4,106.5 84.3,111.5 			"/>
			<polygon class="st42" points="84.1,111.5 79.4,106.6 72.3,111.3 			"/>
			<path class="st43" d="M91.3,113.9c-1.1-0.1-2.1-1-2.2-1c-1.3-1-5-1.3-5.1-1.3l-4.8-5l5.2-0.3l3.7,1.8l3.3,5.8L91.3,113.9z"/>
			<path class="st43" d="M91.3,113.8l-3.2-5.7l-3.6-1.8l-5.1,0.3l4.7,4.9c0,0,3.7,0.4,5.1,1.3C89.2,112.8,90.2,113.7,91.3,113.8"/>
			<polygon class="st44" points="87.9,107.9 94.3,111.1 91.3,113.9 			"/>
			<polygon class="st44" points="94.1,111.1 91.3,113.8 88.1,108.1 			"/>
			<path class="st45" d="M94,113.9c-1.4,0-2.7,0-2.7,0l-0.2,0l3-2.9l3.3,2.7l-0.1,0C96.9,113.8,95.8,113.9,94,113.9"/>
			<path class="st45" d="M97.3,113.6l-3.2-2.5l-2.8,2.7C91.3,113.8,96.2,114,97.3,113.6"/>
			<path class="st46" d="M94,111.1l9.1-5l-0.9,5.6l0,0c0,0-2.5,0.6-3.1,1c0,0-1.2,0.9-1.8,0.9l0,0L94,111.1z"/>
			<path class="st46" d="M103.1,106.2l-0.8,5.4c0,0-2.5,0.6-3.1,1.1c0,0-1.2,0.9-1.8,0.9l-3.2-2.5L103.1,106.2z"/>
			<path class="st47" d="M103,106.1l3.6,2.6l2.3,2.6c0,0-4.5,0.1-4.7,0.1c-0.2,0-1.3,0.2-2,0.3l-0.1,0L103,106.1z"/>
			<path class="st47" d="M108.7,111.3l-2.2-2.5l-3.5-2.5l-0.8,5.4c0,0,1.8-0.3,2-0.3C104.4,111.3,108.7,111.3,108.7,111.3"/>
			<polygon class="st48" points="106.4,108.7 112.4,107.6 114.4,108 108.7,111.4 			"/>
			<polygon class="st48" points="114.2,108 108.7,111.3 106.5,108.8 112.4,107.6 			"/>
			<polygon class="st49" points="114.2,107.9 119.1,111.2 108.4,111.3 			"/>
			<polygon class="st49" points="118.8,111.1 114.2,108 108.7,111.3 			"/>
			<path class="st50" d="M118.8,111.2l-4.7-3.1l0.1-0.1l4.9,1c0.2,0.1,4.3,1.8,4.7,2l0.2,0.1H118.8z"/>
			<path class="st50" d="M123.8,111.1h-4.9l-4.6-3.1l4.9,1C119.1,109.1,123.4,110.9,123.8,111.1"/>
			<path class="st51" d="M99.3,117.7l0.1,0c0.1,0,1.8,0.5,2.1,1.2l0,0l-1.4,1.9L99.3,117.7z"/>
			<path class="st51" d="M99.4,117.8c0,0,1.8,0.5,2,1.2l-1.3,1.8L99.4,117.8z"/>
			<path class="st34" d="M100,120.7l1.4-1.9l0.1,0.1c0.8,1.8-1,3.2-1,3.2l-0.1,0.1L100,120.7z"/>
			<path class="st34" d="M100.4,122.1c0,0,1.8-1.3,1-3.1l-1.3,1.8L100.4,122.1z"/>
			<path class="st52" d="M103.8,118.9c0,0,2.5-4.6,7.5-4.6c2.3,0,4.7,0.9,7.2,2.8l1.2,1.4h-2.7l0,0c0,0-2.5-3.3-5.9-3.3
				c-2.1,0-4.2,1.2-6.1,3.7l0,0l-1.3,0.2L103.8,118.9z"/>
			<path class="st52" d="M103.9,118.9c0,0,4.7-9,14.6-1.8l1.1,1.2h-2.4c0,0-5.8-7.7-12.1,0.4L103.9,118.9z"/>
			<path class="st53" d="M111.1,119.8c-0.6,0-1.5-0.1-2.1-0.8c-0.6-0.7-0.9-1.7-0.9-3.1l0,0l0,0c0.1,0,1.3-0.9,3.1-0.9
				c1.2,0,2.4,0.4,3.5,1.1l0,0v0c0,0,0,3.2-3,3.7C111.8,119.7,111.5,119.8,111.1,119.8"/>
			<path class="st53" d="M111.7,119.7c0,0-3.8,0.8-3.6-3.8c0,0,2.9-2,6.5,0.2C114.6,116.1,114.6,119.2,111.7,119.7"/>
			<path class="st54" d="M111.5,120.1c-3.4,0-6.5-1.3-6.5-1.3l-0.1,0l0-0.1c0.7-1.2,3-2.8,3.1-2.9l0.1-0.1l0,0.2
				c0,1.3,0.3,2.3,0.9,3c0.7,0.7,1.7,0.8,1.9,0.8l0.1,0c1.1,0,1.9-0.3,2.5-1c1-1,1-2.6,1-2.6l0-0.2l2.7,2.4l-0.1,0.1
				C115.7,119.5,113.8,120.1,111.5,120.1L111.5,120.1z"/>
			<path class="st54" d="M105,118.7c0,0,7.5,3.1,12.1-0.4l-2.5-2.2c0,0,0.1,3.6-3.5,3.6c0,0-3.1,0.2-3-3.8
				C108.1,115.9,105.8,117.6,105,118.7"/>
			<path class="st55" d="M119.5,118.3l6.1-1l0.2,6.2c0,0-0.5,1.4-1.8,1.6l0,0L119.5,118.3z"/>
			<path class="st55" d="M124,125l-4.4-6.7l5.9-1l0.2,6.1C125.7,123.5,125.2,124.9,124,125"/>
			<path class="st56" d="M111.8,119.8l0.2,0c0.1,0,0.1,0,0.2,0c2.3,0,4.9-1.6,5-1.6l2.6,0l-3.1,7.4L111.8,119.8z"/>
			<path class="st56" d="M112,119.9l4.7,5.6l3-7.2h-2.4C117.2,118.3,114.3,120,112,119.9"/>
			<polygon class="st56" points="111.9,119.8 116.8,125.6 110,125.9 			"/>
			<polygon class="st56" points="110.1,125.8 112,119.9 116.6,125.5 			"/>
			<path class="st57" d="M103.7,118.9l1.3-0.2l0,0c1.5,0.9,6.8,1.2,6.9,1.2l0.1,0l-1.9,6.1L103.7,118.9z"/>
			<path class="st57" d="M103.9,118.9l6.2,6.8l1.9-5.9c0,0-5.4-0.2-6.9-1.2L103.9,118.9z"/>
			<path class="st57" d="M104,126.1c0,0-3.1-1.2-3.7-4l0,0l3.6-3.2l6.4,7L104,126.1L104,126.1z"/>
			<path class="st57" d="M100.4,122.1l3.5-3.1l6.2,6.8L104,126C104,126,101,124.8,100.4,122.1"/>
			<path class="st49" d="M100.3,122c0,0,1.5-1.4,1.2-2.6c-0.2-0.7-0.9-1.2-2.1-1.6l0,0l0,0c0-0.1-0.7-1.9,0.3-3.4
				c0.6-1,1.8-1.5,3.5-1.6l0,0l2.7,3.9l-0.1,0c0,0-1.6,1.3-1.8,2.3l-3.6,3.2L100.3,122z"/>
			<path class="st49" d="M103.1,112.9l2.7,3.8c0,0-1.6,1.3-1.8,2.3l-3.5,3.1c0,0,3.3-3.1-1-4.3C99.4,117.8,97.7,113.2,103.1,112.9"
				/>
			<path class="st58" d="M102.9,112.8l0.1,0c0,0,2.8-0.7,6.1-0.7c0.4,0,0.8,0,1.2,0l0.1,0l-0.8,2.4l0,0c0,0-2.7,0.8-3.8,2.1
				l-0.1,0.1L102.9,112.8z"/>
			<path class="st58" d="M110.4,112.2l-0.8,2.3c0,0-2.7,0.8-3.9,2.1l-2.7-3.8C103.1,112.9,106.5,112,110.4,112.2"/>
			<polygon class="st59" points="118.4,117.2 115.2,112.2 122.5,112.3 119.6,118.5 			"/>
			<polygon class="st59" points="115.4,112.2 118.5,117.1 119.6,118.3 122.3,112.3 			"/>
			<path class="st60" d="M118.4,117.2c0,0-3.3-2.7-7.2-2.7c-0.6,0-1.1,0.1-1.7,0.2l-0.1,0l0.9-2.5l5.1,0l3.1,4.9L118.4,117.2z"/>
			<path class="st60" d="M110.4,112.2l5,0l3.1,4.9c0,0-4.3-3.6-8.9-2.6L110.4,112.2z"/>
			<path class="st52" d="M83.8,118.2c-2-1.9-4-2.9-6.1-2.9c-3.3,0-5.6,2.5-5.6,2.6l-0.5,0.4l-0.8-0.8l0.5-0.5
				c2.2-1.8,4.4-2.6,6.6-2.6c4.8,0,8,4.2,8,4.2l0.1,0.1l-1.6,0.2L83.8,118.2z"/>
			<path class="st52" d="M72.1,117.8c0,0,5.3-6,11.8,0.3l0.6,0.6l1.4-0.2c0,0-6.2-8.2-14.5-1.5l-0.5,0.4l0.7,0.7L72.1,117.8z"/>
			<path class="st61" d="M78.2,119.8c-0.2,0-1.6,0-2.6-1.1c-0.6-0.7-0.9-1.6-0.9-2.8l0,0l0,0c0,0,1.4-0.7,3.2-0.7
				c1.3,0,2.4,0.3,3.5,1l0,0l0,0c0,0.1,0,1.7-1,2.8C79.9,119.5,79.1,119.8,78.2,119.8L78.2,119.8z"/>
			<path class="st61" d="M78.2,119.7c0,0-3.6,0.1-3.4-3.8c0,0,3.3-1.7,6.6,0.3C81.3,116.2,81.4,119.7,78.2,119.7"/>
			<path class="st54" d="M78.1,120.3c-2.5,0-4.6-0.8-6.1-2.4l-0.1-0.1l0.1-0.1c0.1-0.1,1.9-1.6,2.6-1.9l0.1,0l0,0.1
				c0,0-0.2,1.5,0.7,2.6c0.6,0.7,1.5,1.1,2.7,1.2c0,0,0.1,0,0.1,0c0.6,0,2.6-0.3,2.9-3.5l0-0.1l0.1,0.1c0.1,0.1,2.3,1.5,3.1,2.6
				l0.1,0.1l-0.1,0C84.5,118.8,81.5,120.3,78.1,120.3"/>
			<path class="st54" d="M84.5,118.7c0,0-7.9,3.8-12.3-1c0,0,1.9-1.6,2.6-1.9c0,0-0.5,3.6,3.4,3.8c0,0,2.8,0.3,3.2-3.6
				C81.3,116.2,83.6,117.6,84.5,118.7"/>
			<polygon class="st34" points="87.7,119.7 89.6,118.6 89,121 			"/>
			<polygon class="st34" points="89.5,118.7 87.8,119.7 89,120.9 			"/>
			<path class="st62" d="M63.6,115.9c-0.1-2.9,2.2-3.5,2.3-3.5l0,0l5.2,5l-7.6,1L63.6,115.9z"/>
			<path class="st62" d="M70.9,117.4l-5.1-4.9c0,0-2.3,0.6-2.2,3.4l-0.1,2.4L70.9,117.4z"/>
			<path class="st63" d="M72.9,125.6c-9-0.4-9.1-0.8-9.1-1c0-0.1,0.2-0.2,0.2-0.2l7.7-6.5L72.9,125.6L72.9,125.6z"/>
			<path class="st63" d="M72.9,125.5l-1.2-7.4l-7.6,6.4C64,124.5,62,125.1,72.9,125.5"/>
			<path class="st64" d="M71.6,118.1l0.6-0.4l0,0.1c0,0,1.6,2.4,6.4,2.4c0.1,0,0.6,0,0.6,0l-6.3,5.6L71.6,118.1z"/>
			<path class="st64" d="M78.9,120.2l-6,5.3l-1.2-7.4l0.5-0.3C72.1,117.8,73.8,120.3,78.9,120.2"/>
			<path class="st65" d="M84.9,126.1c-1.5,0-11.9-0.5-12-0.5l-0.2,0l6.2-5.5l6.3,5.9l-0.1,0C85.1,126.1,85,126.1,84.9,126.1"/>
			<path class="st65" d="M85.1,126l-6.1-5.8l-6,5.3C72.9,125.5,84.8,126.1,85.1,126"/>
			<path class="st49" d="M78.8,120.1l0.2,0c0,0,3.9-0.5,5.5-1.4l0,0l3.4,1l1.2,1.2l0,0c0,0-0.3,3.9-4,5.2l0,0L78.8,120.1z"/>
			<path class="st49" d="M84.5,118.7l3.4,1l1.2,1.2c0,0-0.3,3.8-3.9,5.1l-6.1-5.8C78.9,120.2,82.8,119.7,84.5,118.7"/>
			<path class="st66" d="M84.4,118.8l0-0.1l1.3-0.2c-0.3-0.4-1.7-2.1-3.4-2.8l-0.1,0l3.1-2.9l0,0c0.2,0,4.3,0.5,4.5,2.2
				c0,0,0.5,1.4-0.3,3.9l-1.7,1L84.4,118.8z"/>
			<path class="st66" d="M89.5,118.7l-1.6,1l-3.4-1l1.4-0.2c0,0-1.6-2.1-3.5-3l3-2.8c0,0,4.3,0.5,4.5,2.1
				C89.8,114.9,90.4,116.3,89.5,118.7"/>
			<path class="st30" d="M78.7,112.1l0.4,0c2.9,0,6.2,0.5,6.2,0.5l0.2,0l-3.2,3L78.7,112.1z"/>
			<path class="st30" d="M78.9,112.2l3.4,3.3l3-2.8C85.4,112.7,81.9,112.2,78.9,112.2"/>
			<path class="st50" d="M65.7,112.4l0.6-0.2l12.6-0.1l-4.2,2.8c-1.9,0.7-3.8,2.5-3.8,2.5l-0.1,0L65.7,112.4z"/>
			<path class="st50" d="M70.9,117.4c0,0,1.9-1.8,3.8-2.5l4-2.6l-12.4,0.1l-0.5,0.1L70.9,117.4z"/>
			<path class="st24" d="M63.7,129.5l-1.6-3.9c-0.3-0.3-0.2-0.4-0.2-0.5l0.1-0.1l0.2,0.5c0.5,0.5,2.6,1.2,10.4,1.3l0.1,0l0.2,5
				L63.7,129.5z"/>
			<path class="st24" d="M72.7,126.8l0.2,4.8l-9.1-2.2l-1.7-4.3C62.1,125.1,61.2,126.7,72.7,126.8"/>
			<polygon class="st65" points="72.6,126.7 83.2,126.9 83.3,127 72.8,131.8 			"/>
			<polygon class="st65" points="83.2,126.9 72.9,131.6 72.7,126.8 			"/>
			<polygon class="st67" points="72.8,131.6 83.3,126.8 80.3,139.1 			"/>
			<polygon class="st67" points="80.3,138.9 83.2,126.9 72.9,131.6 			"/>
			<polygon class="st68" points="83.2,126.8 88.2,131.1 80.2,139.2 			"/>
			<polygon class="st68" points="88.1,131.1 83.2,126.9 80.3,138.9 			"/>
			<path class="st69" d="M101.9,126l0.1,0c0.1,0.3,0.7,0.7,3.9,0.7c2.2,0,4.4-0.2,4.4-0.2l1.9,1.2l-8.8,4L101.9,126z"/>
			<path class="st69" d="M101.9,126l1.6,5.6l8.6-3.9l-1.8-1.1C110.4,126.6,102.4,127.3,101.9,126"/>
			<polygon class="st25" points="91,115.8 97.2,115.7 94.4,134 94.2,134 			"/>
			<polygon class="st25" points="91.1,115.9 94.3,134 97.2,115.8 			"/>
			<path class="st69" d="M97.1,115.6l0.1,0.1c0,0,1,1,1.6,3.3c0.4,1.5,1.6,6.1,3.2,6.8l0.1,0l-7.9,8.3L97.1,115.6z"/>
			<path class="st69" d="M101.9,126l-7.6,8l2.8-18.2c0,0,1,1,1.6,3.3C99.3,121.4,100.4,125.3,101.9,126"/>
			<path class="st69" d="M87.4,125.8L87.4,125.8c3.5-1.9,3.6-9.8,3.6-9.9l0.2,0l3.2,18.4L87.4,125.8z"/>
			<path class="st69" d="M87.6,125.8l6.8,8.2l-3.2-18.1C91.1,115.9,91.1,123.9,87.6,125.8"/>
			<polygon class="st70" points="94.2,134 101.9,126 102,126 94.7,141.2 			"/>
			<polygon class="st70" points="94.8,141 94.3,134 101.9,126 			"/>
			<polygon class="st45" points="103.3,131.1 103.5,131.1 107.5,138.8 106.8,142.3 104.5,143.6 			"/>
			<polygon class="st45" points="104.5,143.5 103.4,131.1 107.4,138.8 106.7,142.2 			"/>
			<polygon class="st71" points="94.7,140.9 102,125.8 103.5,131.1 103.8,134.5 94.8,141 			"/>
			<polygon class="st71" points="94.8,141 103.7,134.4 103.4,131.1 101.9,126 			"/>
			<path class="st57" d="M104.3,141.4c-0.1-0.1-3.1-2.3-5.1-3.6l-0.1-0.1l4.6-3.4l0.6,7.1L104.3,141.4L104.3,141.4z"/>
			<path class="st57" d="M104.3,141.4c0-0.1-5.1-3.7-5.1-3.7l4.4-3.3L104.3,141.4z"/>
			<path class="st72" d="M98,141.4l0-0.1c0,0,0.9-1.8,2.7-1.8c0.7,0,1.4,0.2,2.2,0.7l0.6,1.2H98z"/>
			<path class="st72" d="M98.1,141.4c0,0,1.4-3.1,4.8-1.1l0.5,1.1H98.1z"/>
			<path class="st37" d="M94.7,140.9l4.6-3.4l3,2.3l-0.1,0.1c-0.5-0.2-0.9-0.2-1.4-0.2c-1.9,0-2.6,1.6-2.6,1.6l-0.6,2L94.7,140.9z"
				/>
			<path class="st37" d="M94.8,141l2.8,2.3l0.5-1.9c0,0,1.1-2.4,4.1-1.4l-3-2.2L94.8,141z"/>
			<path class="st73" d="M95.3,143.7c-0.3,0-0.5,0-0.7-0.1c-0.6-0.3-2.8-1.2-2.8-1.2l-0.2-0.1l3.1-1.4l2.9,2.4l-0.1,0
				C97.6,143.3,96.2,143.7,95.3,143.7"/>
			<path class="st73" d="M91.9,142.3l2.9-1.3l2.8,2.3c0,0-2.3,0.6-2.9,0.3C94,143.1,91.9,142.3,91.9,142.3"/>
			<path class="st74" d="M85.8,141.3c0-0.1,1.2-2,3-2c0.6,0,1.2,0.2,1.8,0.7l0.8,1.1l-5.7,0.4L85.8,141.3z"/>
			<path class="st74" d="M85.9,141.4c0,0,1.9-3.4,4.7-1.3l0.7,0.9L85.9,141.4z"/>
			<path class="st68" d="M88.1,131.2l-5.1-4.3l0.3,0c2.8,0,4.1-1.1,4.2-1.1l0.1,0l6.8,8.3l-0.1,0.1L88.1,131.2z"/>
			<path class="st68" d="M88.1,131.1l6.2,2.9l-6.8-8.2c0,0-1.4,1.2-4.3,1.1L88.1,131.1z"/>
			<polygon class="st75" points="87.9,130.9 94.4,134 94.9,141.2 			"/>
			<polygon class="st75" points="94.8,141 88.1,131.1 94.3,134 			"/>
			<polygon class="st64" points="83.6,135.5 88.1,131 95,141.1 			"/>
			<polygon class="st64" points="83.7,135.5 94.8,141 88.1,131.1 			"/>
			<path class="st49" d="M83.6,135.4l6,2.9l-0.8,1.1h0c-1.7,0-2.8,1.9-2.8,2l-1.1,2.3L83.6,135.4z"/>
			<path class="st49" d="M83.7,135.5l1.2,8l1-2.1c0,0,1.1-2,2.9-2l0.7-1L83.7,135.5z"/>
			<polygon class="st76" points="80.2,138.9 83.8,135.4 85,143.7 			"/>
			<polygon class="st76" points="80.3,138.9 84.9,143.5 83.7,135.5 			"/>
			<path class="st33" d="M111.2,116.7c-0.3,0-0.5-0.1-0.7-0.3c-0.2-0.3-0.3-0.7-0.2-1.3l0,0l0,0c0,0,0.3-0.1,0.8-0.1
				c0.3,0,0.6,0,0.9,0.1l0.1,0l0,0.1c0,0.1,0.2,1.4-0.3,1.5C111.8,116.6,111.5,116.7,111.2,116.7"/>
			<path class="st33" d="M111.7,116.5c0,0-1.6,0.6-1.4-1.5c0,0,0.7-0.2,1.7,0C112,115.1,112.2,116.5,111.7,116.5"/>
			<path class="st33" d="M78,116.8c-0.3,0-0.5-0.1-0.7-0.3c-0.2-0.3-0.3-0.7-0.2-1.3l0-0.1h1.8l0,0.1c0,0.1,0.2,1.4-0.3,1.5
				C78.5,116.7,78.3,116.8,78,116.8"/>
			<path class="st33" d="M78.8,115.2c0,0,0.2,1.4-0.3,1.5c0,0-1.6,0.6-1.4-1.5H78.8z"/>
			<polygon class="st77" points="94.1,156 97.7,161.6 91.3,161.6 			"/>
			<polygon class="st77" points="91.5,161.5 94.1,156.1 97.6,161.5 			"/>
			<polygon class="st48" points="85.7,156 94.3,156 91.5,161.7 			"/>
			<polygon class="st48" points="85.9,156.1 91.5,161.5 94.1,156.1 			"/>
			<polygon class="st58" points="86.5,161.5 85.8,155.9 91.6,161.6 			"/>
			<polygon class="st58" points="86.6,161.5 85.9,156.1 91.5,161.5 			"/>
			<path class="st78" d="M86.5,161.5c-0.2-0.1-4-1.6-5.3-2.6l-0.1-0.1l4.8-2.8l0.7,5.6L86.5,161.5z"/>
			<path class="st78" d="M81.3,158.8l4.6-2.7l0.7,5.3C86.6,161.5,82.6,159.9,81.3,158.8"/>
			<path class="st50" d="M81.3,158.9c-0.1-0.1-2.3-1.9-2.9-3l-0.1-0.1l7.9,0.3L81.3,158.9L81.3,158.9z"/>
			<path class="st50" d="M78.4,155.9l7.5,0.3l-4.6,2.7C81.3,158.8,79,156.9,78.4,155.9"/>
			<path class="st47" d="M102.7,156h3.4l-0.2,0.1c-0.3,0.2-6.9,5.4-8.4,5.4l-0.2,0L102.7,156z"/>
			<path class="st47" d="M105.9,156.1c0,0-6.9,5.4-8.3,5.4l5.1-5.4H105.9z"/>
			<path class="st79" d="M97.9,161.4c1.4-0.4,7.9-5.3,7.9-5.3l2.9,0l-0.1,0.1c-1.5,2.5-7,5.1-7.2,5.3l-3.6,0.1L97.9,161.4z"/>
			<path class="st79" d="M108.6,156.2l-2.7,0c0,0-6.5,4.9-8,5.3l3.5-0.1C101.5,161.4,107.1,158.7,108.6,156.2"/>
			<polygon class="st80" points="78.3,155.9 79.8,153.1 82.6,154.4 83.9,156.2 			"/>
			<polygon class="st80" points="82.5,154.5 83.7,156.1 78.4,155.9 79.8,153.2 			"/>
			<path class="st81" d="M83.7,156.2l-1.3-1.8l0.1,0c0,0,2-0.3,3.6-1.4l0.1,0l2.8,3.2H83.7z"/>
			<path class="st81" d="M86.1,153.1l2.6,3h-2.9h-2.2l-1.2-1.6C82.5,154.5,84.5,154.2,86.1,153.1"/>
			<path class="st82" d="M86,153.1L86,153.1c0.1-0.1,2-1.4,4.9-1.4c1.3,0,2.6,0.3,3.8,0.8l0.1,0.1l-6.1,3.7L86,153.1z"/>
			<path class="st82" d="M94.7,152.5l-5.9,3.6l-2.6-3C86.1,153.1,89.7,150.5,94.7,152.5"/>
			<polygon class="st83" points="88.5,156.2 94.7,152.4 99.1,156.2 			"/>
			<polygon class="st83" points="98.9,156.1 94.7,152.5 88.8,156.1 			"/>
			<path class="st84" d="M94.7,152.6L94.7,152.6L94.7,152.6l0.1-0.2L94.7,152.6l0.1-0.1c0,0,0.1,0.1,0.4,0.1c0.4,0,1.4-0.1,3.3-0.8
				c0,0,0.3-0.1,0.9-0.1c1,0,2.5,0.2,4.3,0.9l0.1,0.1l-4.8,3.5L94.7,152.6z"/>
			<path class="st84" d="M103.5,152.7l-4.6,3.4l-4.3-3.6c0,0,0.3,0.5,3.8-0.7C98.4,151.9,100.6,151.5,103.5,152.7"/>
			<path class="st85" d="M98.7,156.2l4.8-3.6l0,0c0,0,3.5,1.9,5.1,3.5l0.1,0.1L98.7,156.2z"/>
			<path class="st85" d="M108.6,156.2l-9.7,0l4.6-3.4C103.5,152.7,107,154.5,108.6,156.2"/>
			<path class="st56" d="M93.8,180.1c-2.7,0-5.3-0.5-7.8-1.4l-0.1,0l8.4-15.7l11.4,14.1l-0.1,0C105.6,177,100.6,180.1,93.8,180.1"/>
			<path class="st56" d="M86,178.6l8.3-15.6l11.3,13.9C105.6,176.9,96.4,182.5,86,178.6"/>
			<path class="st77" d="M108.6,156l8.8,12.8l-0.1,0c-0.1,0.1-8.7,6.8-11.7,8.1l-0.1,0.1L108.6,156z"/>
			<path class="st77" d="M117.3,168.8c0,0-8.7,6.8-11.7,8.1l3-20.8L117.3,168.8z"/>
			<path class="st86" d="M94.2,162.9l0.2,0c0.4,0,8.7-0.1,14.3-6.8l0.2-0.2l-3.1,21.2L94.2,162.9z"/>
			<path class="st86" d="M94.3,163c0,0,8.6,0,14.3-6.8l-3,20.8L94.3,163z"/>
			<polygon class="st29" points="108.5,156.1 128,155.5 117.3,168.9 			"/>
			<polygon class="st29" points="127.9,155.6 117.3,168.8 108.6,156.2 			"/>
			<path class="st48" d="M78.4,155.7l0.1,0.1c4.3,6.5,15.7,7.1,15.9,7.1l0,0.1l-21.6,6.6L78.4,155.7z"/>
			<path class="st48" d="M94.3,163c0,0-11.5-0.5-15.9-7.1l-5.5,13.7L94.3,163z"/>
			<path class="st87" d="M86,178.6c-0.1,0-6.5-1.7-13.2-9l-0.1-0.1l21.7-6.7L86,178.6L86,178.6z"/>
			<path class="st87" d="M94.3,163L86,178.6c0,0-6.4-1.6-13.1-9L94.3,163z"/>
			<path class="st68" d="M72.8,169.6c-5.8-5.6-9.1-11.2-9.1-11.3l-0.1-0.1l14.8-2.5L72.8,169.6L72.8,169.6z"/>
			<path class="st68" d="M78.4,155.9l-14.6,2.4c0,0,3.2,5.6,9.1,11.3L78.4,155.9z"/>
			<path class="st88" d="M94.3,163.1c-0.3,0-3.2,0-7.8-1.5l0-0.1l3.9,0.1l3.9,1.5L94.3,163.1L94.3,163.1z"/>
			<path class="st88" d="M86.6,161.5l3.9,0.1l3.9,1.5C94.3,163,91.3,163,86.6,161.5"/>
			<path class="st88" d="M90.3,161.6l0-0.1c0,0,3.1,0,5.2,0c0.9,0,1.6,0,1.8,0l0,0.1l-3,1.5L90.3,161.6z"/>
			<path class="st88" d="M97.3,161.5l-3,1.5l-4-1.5C90.4,161.5,96.9,161.5,97.3,161.5"/>
			<path class="st89" d="M94.3,162.9l2.8-1.5l4.7-0.2l-0.2,0.1c-2.3,1.4-7.1,1.6-7.2,1.6L94.3,162.9z"/>
			<path class="st89" d="M101.5,161.4l-4.3,0.1l-2.8,1.5C94.3,163,99.1,162.8,101.5,161.4"/>
			
				<rect x="94.7" y="161.4" transform="matrix(0.9995 -3.179670e-02 3.179670e-02 0.9995 -5.0857 3.2001)" class="st90" width="6.8" height="0.2"/>
			<line class="st90" x1="101.5" y1="161.4" x2="94.7" y2="161.6"/>
			<polygon class="st32" points="131.7,140.4 131.9,140.4 127.9,155.7 118.8,155.9 			"/>
			<polygon class="st32" points="131.8,140.4 119,155.9 127.9,155.6 			"/>
			<polygon class="st43" points="125.3,138.7 131.9,140.4 126.4,147.1 			"/>
			<polygon class="st43" points="125.4,138.8 126.4,146.9 131.8,140.4 			"/>
			<polygon class="st91" points="125.3,138.9 132.7,127.4 131.9,140.5 			"/>
			<polygon class="st91" points="132.6,127.6 125.4,138.8 131.8,140.4 			"/>
			<polygon class="st45" points="112.7,138.7 125.5,138.7 126.5,146.9 119,156 			"/>
			<polygon class="st45" points="119,155.9 112.8,138.8 125.4,138.8 126.4,146.9 			"/>
			<polygon class="st69" points="112.6,138.9 119.6,131 125.5,138.9 			"/>
			<polygon class="st69" points="119.6,131.1 112.8,138.8 125.4,138.8 			"/>
			<polygon class="st92" points="112.7,138.6 119.1,155.9 108.5,156.2 			"/>
			<polygon class="st92" points="108.6,156.2 112.8,138.8 119,155.9 			"/>
			<polygon class="st25" points="107.4,138.7 113,138.7 106.6,142.4 			"/>
			<polygon class="st25" points="107.4,138.8 112.8,138.8 106.7,142.2 			"/>
			<path class="st93" d="M63.7,158.3c-1.2-1.9-4.3-15.5-4.4-16.1l0-0.2l7.5,6.1l-3,10.4L63.7,158.3z"/>
			<path class="st93" d="M59.4,142.2c0,0,3.2,14.2,4.4,16.1l2.9-10.2L59.4,142.2z"/>
			<polygon class="st94" points="66.7,148 78.6,155.9 63.7,158.4 			"/>
			<polygon class="st94" points="78.4,155.9 66.7,148.1 63.8,158.3 			"/>
			<polygon class="st33" points="66.5,148.1 85.1,143.4 78.4,156 			"/>
			<polygon class="st33" points="84.9,143.5 78.4,155.9 66.7,148.1 			"/>
			<polygon class="st28" points="72.9,131.5 85.1,143.5 66.6,148.2 			"/>
			<polygon class="st28" points="66.7,148.1 72.9,131.6 84.9,143.5 			"/>
			<polygon class="st69" points="59.3,142.2 73.1,131.4 66.8,148.3 			"/>
			<polygon class="st69" points="59.4,142.2 72.9,131.6 66.7,148.1 			"/>
			<polygon class="st42" points="56.7,127.7 56.8,127.6 64.9,138.1 59.4,142.4 			"/>
			<polygon class="st42" points="56.8,127.6 59.4,142.2 64.7,138 			"/>
			<polygon class="st56" points="56.6,127.5 73.1,131.6 64.7,138.1 			"/>
			<polygon class="st56" points="72.9,131.6 56.8,127.6 64.7,138 			"/>
			<polygon class="st95" points="56.7,127.7 55.6,115.6 58.2,115.1 56.8,127.7 			"/>
			<polygon class="st95" points="58.1,115.2 56.8,127.6 55.6,115.6 			"/>
			<polygon class="st93" points="56.7,127.7 58,115.2 58.1,115.2 63.9,129.5 			"/>
			<polygon class="st93" points="63.8,129.4 58.1,115.2 56.8,127.6 			"/>
			<path class="st96" d="M108.6,156.2c-4-3.9-7.7-4.3-9.1-4.3c-0.8,0-1.3,0.1-1.5,0.2l-0.4,0.1c-0.9,0.3-1.6,0.5-2.2,0.5
				c-0.3,0-0.5,0-0.6-0.1l-0.1,0l10-9.2l4.2,12.8L108.6,156.2z"/>
			<path class="st96" d="M94.7,152.5c0.7,0.4,1.8-0.1,3.2-0.5c1.4-0.4,5.9-0.5,10.7,4.2l-4.1-12.7L94.7,152.5z"/>
			<path class="st97" d="M94.6,143.3l0.1,0.1c0.1,0.1,0.2,0.1,0.6,0.1c1.2,0,3.6-0.8,3.6-0.8c0.8-0.3,1.7-0.4,2.4-0.4
				c2.1,0,3.2,1,3.2,1l0.1,0.1l-10,9.2V143.3z"/>
			<path class="st97" d="M94.7,143.5v9l9.8-9c0,0-1.9-1.8-5.6-0.6C98.9,142.8,95.3,144,94.7,143.5"/>
			<path class="st67" d="M84.9,143.3l9.9,9.1l-0.1,0.1c0,0-1.9-0.8-3.9-0.8c-0.7,0-1.3,0.1-1.8,0.3c-1.2,0.4-2.4,0.9-3.5,1.4
				c-1.2,0.6-2.3,1-2.9,1.1l-0.1,0L84.9,143.3z"/>
			<path class="st67" d="M94.7,152.5c0,0-3.2-1.3-5.8-0.5c-2.6,0.8-5.1,2.4-6.4,2.5l2.4-11L94.7,152.5z"/>
			<path class="st98" d="M84.8,143.5l2.2-1.2c0.7-0.3,1.5-0.5,2.4-0.5c2.7,0,5.3,1.6,5.3,1.6l0,0v9.3L84.8,143.5z"/>
			<path class="st98" d="M94.7,143.5c0,0-4.2-2.7-7.6-1.1l-2.1,1.1l9.8,9V143.5z"/>
			<polygon class="st99" points="79.7,153.2 84.8,143.4 85,143.5 82.6,154.6 			"/>
			<polygon class="st99" points="82.5,154.5 79.8,153.2 84.9,143.5 			"/>
			<path class="st71" d="M131.7,140.4l0.3-4.2l6.4-4.2l0,0.2c-1.1,4.2-6.9,10.1-6.9,10.1l-0.2,0.2L131.7,140.4z"/>
			<path class="st71" d="M131.3,142.2c0,0,5.8-5.8,6.9-10.1l-6.2,4.1l-0.3,4.2L131.3,142.2z"/>
			<polygon class="st100" points="132.1,134 132.5,127.6 131.2,113.6 136.2,114.8 134,127.7 132.3,134.1 			"/>
			<polygon class="st100" points="136.1,114.8 134,127.6 132.2,134 132.6,127.6 131.3,113.7 			"/>
			<path class="st92" d="M132.1,134c1.5-3.9,2.3-9.4,2.3-9.4l0-0.2l3.9,7.8l-6.3,4.2L132.1,134z"/>
			<path class="st92" d="M138.2,132.1l-3.8-7.5c0,0-0.8,5.5-2.3,9.4l-0.1,2.2L138.2,132.1z"/>
			<path class="st101" d="M134.4,124.6l5.7-5.9l0,0.2c0.3,2.3-1.7,12.9-1.8,13.3l0,0.2L134.4,124.6z"/>
			<path class="st101" d="M140,118.8l-5.5,5.8l3.8,7.5C138.2,132.1,140.3,121.1,140,118.8"/>
			<path class="st102" d="M136,114.8L136,114.8c0.1,0,0.5-0.3,1.1-0.3c1.1,0,2.4,0.7,2.9,4.3l0,0l-5.7,6L136,114.8z"/>
			<path class="st102" d="M136.1,114.8c0,0,3.1-1.8,3.9,4l-5.5,5.8L136.1,114.8z"/>
			<polygon class="st68" points="51.8,119.6 51.9,119.5 56.8,127.7 53.8,131.3 			"/>
			<polygon class="st68" points="53.9,131.1 51.8,119.6 56.8,127.6 			"/>
			<path class="st45" d="M59.4,142.3c-0.2-0.2-4.9-4-5.1-6.1c-0.2-2-0.4-5.1-0.4-5.1l0,0l3-3.6l2.7,14.9L59.4,142.3z"/>
			<path class="st45" d="M59.4,142.2c0,0-4.9-4-5.1-6c-0.2-2-0.4-5.1-0.4-5.1l2.9-3.5L59.4,142.2z"/>
			<path class="st103" d="M131.2,113.7l3.9-15.4l0.1,0.2c1.1,1.9,1,15.8,1,16.4l0,0.1L131.2,113.7z"/>
			<path class="st103" d="M135.1,98.5l-3.8,15.2l4.8,1.2C136.1,114.8,136.2,100.4,135.1,98.5"/>
			<path class="st95" d="M131.2,113.7c-0.8-8.6-5.9-18.9-5.9-19l-0.1-0.2l10,4l-3.8,15.2L131.2,113.7z"/>
			<path class="st95" d="M125.4,94.7c0,0,5.1,10.3,5.9,19l3.8-15.2L125.4,94.7z"/>
			<polygon class="st104" points="125.3,94.7 123.8,86.6 135.2,98.5 135.1,98.6 			"/>
			<polygon class="st104" points="123.9,86.8 125.4,94.7 135.1,98.5 			"/>
			<path class="st104" d="M123.8,86.8l4.7-11.4l0.1,0.1c4.4,5.5,6.6,22.8,6.6,23l0,0.2L123.8,86.8z"/>
			<path class="st104" d="M128.6,75.6l-4.6,11.2l11.2,11.7C135.1,98.5,132.9,81.1,128.6,75.6"/>
			<polygon class="st105" points="116.2,78 128.7,75.5 124,86.9 			"/>
			<polygon class="st105" points="116.4,78 123.9,86.8 128.6,75.6 			"/>
			<path class="st106" d="M120.7,65.3L120.7,65.3c2.4,1.9,7.8,10.1,7.9,10.2l0.1,0.1l-12.4,2.5L120.7,65.3z"/>
			<path class="st106" d="M120.7,65.5L116.4,78l12.2-2.4C128.6,75.6,123.1,67.3,120.7,65.5"/>
			<polygon class="st106" points="110.2,72.2 120.9,65.3 116.4,78.2 			"/>
			<polygon class="st106" points="110.3,72.2 120.7,65.5 116.4,78 			"/>
			<path class="st106" d="M107.3,58.3l0.1,0c6.9,2.1,13.4,7.1,13.4,7.1l0.1,0.1l-10.6,6.8L107.3,58.3z"/>
			<path class="st106" d="M107.4,58.4l3,13.8l10.4-6.7C120.7,65.5,114.4,60.5,107.4,58.4"/>
			<path class="st40" d="M96.7,84.6l13.7-12.6l6.2,6l-0.1,0c-0.1,0.1-14.8,5-19.6,6.7L96.7,84.6z"/>
			<path class="st40" d="M96.7,84.7l13.6-12.5l6,5.9C116.4,78,101.6,83,96.7,84.7"/>
			<path class="st107" d="M97.2,73.5l13.1-1.4l0,0.1c-0.6,0.4-13.5,12.4-13.6,12.5l-0.1,0.1L97.2,73.5z"/>
			<path class="st107" d="M97.2,73.5l-0.5,11.1c0,0,13-12.1,13.6-12.5L97.2,73.5z"/>
			<polygon class="st106" points="107.4,58.2 110.4,72.2 97.1,73.6 			"/>
			<polygon class="st106" points="107.4,58.4 97.2,73.5 110.3,72.2 			"/>
			<path class="st108" d="M89.4,55.1l0.1,0c0.1,0,13.2,1.7,17.8,3.2l0.1,0L97.2,73.7L89.4,55.1z"/>
			<path class="st108" d="M89.5,55.2c0,0,13.1,1.7,17.8,3.2L97.2,73.5L89.5,55.2z"/>
			<path class="st106" d="M72.9,63.5L72.9,63.5c0.1-0.2,7.3-7.8,16.7-8.4l0.1,0l7.8,18.6L72.9,63.5z"/>
			<path class="st106" d="M73,63.4c0,0,7.1-7.7,16.5-8.2l7.7,18.4L73,63.4z"/>
			<polygon class="st109" points="69.3,92.6 97.3,73.4 96.8,84.7 69.4,92.7 			"/>
			<polygon class="st109" points="97.2,73.5 69.4,92.7 96.7,84.7 			"/>
			<polygon class="st107" points="72.8,63.3 97.4,73.5 83.3,83.2 			"/>
			<polygon class="st107" points="73,63.4 83.3,83.1 97.2,73.5 			"/>
			<polygon class="st110" points="72.9,63.4 73.1,63.4 83.4,83.1 77.2,87.4 			"/>
			<polygon class="st110" points="77.2,87.3 73,63.4 83.3,83.1 			"/>
			<path class="st111" d="M69.3,92.6c0.4-0.2,4.9-5.7,7.2-8.6l0.1-0.1l0.6,3.4l-7.9,5.4L69.3,92.6z"/>
			<path class="st111" d="M69.4,92.7c0.5-0.3,7.2-8.6,7.2-8.6l0.6,3.2L69.4,92.7z"/>
			<polygon class="st112" points="67.2,91.9 76.6,84 76.7,84.1 69.4,92.7 			"/>
			<polygon class="st112" points="67.3,91.9 76.6,84.1 69.4,92.7 			"/>
			<polygon class="st113" points="72.9,63.4 73.1,63.4 76.7,84.1 67.4,91.9 			"/>
			<polygon class="st113" points="73,63.4 67.5,91.7 76.6,84.1 			"/>
			<path class="st53" d="M61.4,73.5L61.4,73.5C61.9,72.8,72,63.5,73,63.4l0.1,0L67.5,92L61.4,73.5z"/>
			<path class="st53" d="M61.5,73.5c0.4-0.6,10.6-10,11.5-10.1l-5.5,28.3L61.5,73.5z"/>
			<path class="st108" d="M55.2,90L55.2,90c0.2-0.7,4.4-15.5,6.2-16.5l0.1,0l6.1,18.4L55.2,90z"/>
			<path class="st108" d="M55.3,89.9c0,0,4.3-15.4,6.2-16.4l6.1,18.2L55.3,89.9z"/>
			<path class="st110" d="M55.1,89.8l12.6,1.8l-0.1,0.1c-0.3,0.2-6.5,6-6.8,6.3l-0.1,0.1L55.1,89.8z"/>
			<path class="st110" d="M60.8,98c0.3-0.3,6.8-6.3,6.8-6.3l-12.2-1.8L60.8,98z"/>
			<path class="st110" d="M57.1,108.8l-1.9-18.9l0.1-0.1l5.5,8.1l0,0c-0.3,0.3-2.3,6.6-3.5,10.8L57.1,108.8z"/>
			<path class="st110" d="M57.2,108.8c0,0,3-10.4,3.5-10.8l-5.5-8L57.2,108.8z"/>
			<path class="st107" d="M55.6,115.7c0-0.1-2.6-5.1-3-7.6c-0.3-2.4,2.5-17.5,2.6-18.2l0.1,0l1.9,18.9l0.9,6.4L55.6,115.7
				L55.6,115.7z"/>
			<path class="st107" d="M58.1,115.2l-0.8-6.4l-1.9-18.9c0,0-2.9,15.7-2.6,18.2c0.3,2.5,2.9,7.5,2.9,7.5L58.1,115.2z"/>
			<polygon class="st89" points="109.7,80.2 116.4,77.9 124.2,87 124.1,87.1 			"/>
			<polygon class="st89" points="109.9,80.2 124.2,87 116.4,78 			"/>
			<path class="st82" d="M129.9,113.1c-0.2,0-0.4-0.1-0.4-0.1c-0.6-0.4-5.5-1.7-5.6-1.7l-0.1,0l1.5-17l0.1,0.2
				c4.8,9.7,5.8,17.5,5.8,17.6C130.8,113,130.3,113.1,129.9,113.1"/>
			<path class="st82" d="M125.4,94.7l-1.5,16.6c0,0,5,1.3,5.6,1.7c0,0,1,0.4,1.6-0.8C131.1,112.2,130.3,104.5,125.4,94.7"/>
			<polygon class="st100" points="102.9,106.2 105.2,104.7 108.9,104.7 106.6,108.9 			"/>
			<polygon class="st100" points="103.1,106.2 106.5,108.8 108.8,104.8 105.3,104.8 			"/>
			<polygon class="st114" points="108.7,104.6 112.4,107.6 106.4,108.9 			"/>
			<polygon class="st114" points="112.2,107.6 106.5,108.8 108.8,104.8 			"/>
			<polygon class="st115" points="108.6,104.7 116.9,104.1 112.2,107.7 			"/>
			<polygon class="st115" points="116.6,104.2 112.2,107.6 108.8,104.8 			"/>
			<polygon class="st116" points="112.1,107.6 116.6,104.1 119.2,109.2 			"/>
			<polygon class="st116" points="119.1,109.1 116.6,104.2 112.2,107.6 			"/>
			<path class="st117" d="M116.5,104l0.2,0.1c0.1,0,5.3,2.5,6.4,3.1l0.1,0.1l-4.1,1.9L116.5,104z"/>
			<path class="st117" d="M123,107.3l-3.9,1.8l-2.5-4.9C116.6,104.2,121.9,106.7,123,107.3"/>
			<path class="st118" d="M123.9,111.3L123.9,111.3L123.9,111.3c-0.1-0.2-2.5-1.3-4.8-2.1l-0.2-0.1l4.1-1.9l1.3,0.5l-0.3,3.6
				L123.9,111.3z"/>
			<path class="st118" d="M123.9,111.3c0-0.4-4.9-2.2-4.9-2.2l3.9-1.8l1.2,0.5L123.9,111.3z"/>
			<path class="st119" d="M68.6,104.1l0.1,0c0,0,4.6-0.6,6.7-0.6c0.3,0,0.5,0,0.7,0l0.2,0l-4.9,3.8L68.6,104.1z"/>
			<path class="st119" d="M76.1,103.7l-4.7,3.6l-2.7-3.1C68.8,104.2,74.5,103.5,76.1,103.7"/>
			<polygon class="st120" points="107.4,138.9 103.4,131.6 119.8,131 112.8,138.9 			"/>
			<polygon class="st120" points="103.5,131.6 119.6,131.1 112.8,138.8 107.4,138.8 			"/>
			<polygon class="st33" points="104.4,143.4 112.9,138.7 108.6,156.4 			"/>
			<polygon class="st33" points="104.5,143.5 108.6,156.2 112.8,138.8 			"/>
			<polygon class="st29" points="94,156 102.9,156 97.6,161.6 			"/>
			<polygon class="st29" points="102.7,156.1 97.6,161.5 94.1,156.1 			"/>
			<path class="st115" d="M104.5,143.5c-0.8-0.7-1.8-1-3.1-1c-1.9,0-3.7,0.7-3.7,0.8l-0.1,0.1l0.6-2.1h5.2l-0.4-1l0.1-0.1l1.4,1.1
				l0.2,2.3L104.5,143.5z"/>
			<path class="st115" d="M104.5,143.5l-0.2-2.1l-1.4-1.1l0.5,1.1h-5.3l-0.5,1.9C97.6,143.2,102.1,141.4,104.5,143.5"/>
			<path class="st121" d="M85.8,141.3l5.4-0.4c-0.2-0.3-0.9-1.5-2.4-1.5h-0.1l0.8-1.2L95,141l-3.1,1.4l0,0c0,0-0.9-0.4-2.2-0.4
				c-1.6,0-3.2,0.5-4.7,1.6l-0.2,0.2L85.8,141.3z"/>
			<path class="st121" d="M84.9,143.5l1-2.1l5.4-0.4c0,0-0.7-1.6-2.5-1.6l0.7-1l5.3,2.6l-2.9,1.3C91.9,142.3,88.7,140.8,84.9,143.5"
				/>
			<polygon class="st122" points="119.5,131.1 132.8,127.5 125.4,139 			"/>
			<polygon class="st122" points="132.6,127.6 119.6,131.1 125.4,138.8 			"/>
			<path class="st59" d="M51.8,119.6c-0.1-1.4,0.2-2.5,0.9-3.2c0.8-0.8,1.9-0.9,2.4-0.9c0.3,0,0.5,0,0.5,0l0.1,0l1.1,12.1l-0.1,0
				L51.8,119.6z"/>
			<path class="st59" d="M55.6,115.6c0,0-4-0.7-3.8,4l4.9,8.1L55.6,115.6z"/>
			<path class="st123" d="M122.3,112.3L122.3,112.3c2.6,0,3.2,2.4,3.2,2.5l0.1,2.7l-6.1,1L122.3,112.3z"/>
			<path class="st123" d="M122.3,112.3l-2.7,6l5.9-1l-0.1-2.6C125.4,114.7,124.9,112.4,122.3,112.3"/>
			<polygon class="st99" points="119.6,118.2 124.1,125.1 116.5,125.6 			"/>
			<polygon class="st99" points="116.6,125.5 119.6,118.3 124,125 			"/>
			<path class="st55" d="M64,124.5c-0.3-0.3-0.6-1.2-0.6-1.3l0.2-5l7.4-1l0.8,0.8L64,124.5L64,124.5z"/>
			<path class="st55" d="M64,124.5l7.6-6.4l-0.7-0.7l-7.3,1l-0.2,4.9C63.4,123.3,63.7,124.2,64,124.5"/>
			<path class="st55" d="M82.3,115.6c0,0-1.9-1.2-4.5-1.2c-1,0-2,0.2-3,0.5l-0.1-0.1l4.2-2.7l3.5,3.4L82.3,115.6z"/>
			<path class="st55" d="M74.7,114.9l4.2-2.7l3.4,3.3C82.4,115.5,79,113.4,74.7,114.9"/>
		</g>
	</g>
</g>
</svg>
