<?xml version="1.0" encoding="utf-8"?>
<!-- Generator: Adobe Illustrator 19.2.1, SVG Export Plug-In . SVG Version: 6.00 Build 0)  -->
<svg version="1.1" id="Layer_1" xmlns="http://www.w3.org/2000/svg" xmlns:xlink="http://www.w3.org/1999/xlink" x="0px" y="0px"
	 width="192px" height="234px" viewBox="0 0 192 234" style="enable-background:new 0 0 192 234;" xml:space="preserve">
<style type="text/css">
	.st0{fill:#F2F2F2;}
	.st1{fill:#D54339;}
	.st2{fill:#431412;}
	.st3{fill:#2C1311;}
	.st4{fill:#6C1111;}
	.st5{fill:#551112;}
	.st6{fill:#250E11;}
	.st7{fill:#0E0A0C;}
	.st8{fill:#AF625A;}
	.st9{fill:#701211;}
	.st10{fill:#C05B4B;}
	.st11{fill:#7D1719;}
	.st12{fill:#9E3C3C;}
	.st13{fill:#D76C71;}
	.st14{fill:#D47780;}
	.st15{fill:#E89184;}
	.st16{fill:#D5A9A6;}
	.st17{fill:#FBE9E4;}
	.st18{fill:#F5BDB0;}
	.st19{fill:#F498A1;}
	.st20{fill:#F7A9AA;}
	.st21{fill:#F69C8F;}
	.st22{fill:#F8B1A4;}
	.st23{fill:#F7AEA8;}
	.st24{fill:#F8C5C5;}
	.st25{fill:#F9CACF;}
	.st26{fill:#EFB1C0;}
	.st27{fill:#EDAEB4;}
	.st28{fill:#EAA2AA;}
	.st29{fill:#F5A2B1;}
	.st30{fill:#E3808D;}
	.st31{fill:#E67067;}
	.st32{fill:#991E22;}
	.st33{fill:#F495A1;}
	.st34{fill:#A94034;}
	.st35{fill:#EE8992;}
	.st36{fill:#C5736E;}
	.st37{fill:#B66877;}
	.st38{fill:#6D1210;}
	.st39{fill:#8F3220;}
	.st40{fill:#BA6A5C;}
	.st41{fill:#8E4736;}
	.st42{fill:#C7746F;}
	.st43{fill:#F1A794;}
	.st44{fill:#E49996;}
	.st45{fill:#88484F;}
	.st46{fill:#F3A2A2;}
	.st47{fill:#C7344C;}
	.st48{fill:#B42E46;}
	.st49{fill:#AD4755;}
	.st50{fill:#D44B65;}
	.st51{fill:#2A1110;}
	.st52{fill:#401212;}
	.st53{fill:#351414;}
	.st54{fill:#DB7377;}
	.st55{fill:#781216;}
	.st56{fill:#070707;}
	.st57{fill:#281010;}
	.st58{fill:#160D10;}
	.st59{fill:#D2898C;}
	.st60{fill:#D37E80;}
	.st61{fill:#9B6060;}
	.st62{fill:#F6ACB7;}
	.st63{fill:#F7C5CB;}
	.st64{fill:#F6A4A6;}
	.st65{fill:#DE948D;}
	.st66{fill:#AF6F6C;}
	.st67{fill:#531516;}
	.st68{fill:#C26D73;}
	.st69{fill:#B05B62;}
	.st70{fill:#EA9FA3;}
	.st71{fill:#C63D48;}
	.st72{fill:#F27C80;}
	.st73{fill:#99414F;}
</style>
<rect class="st0" width="192" height="234"/>
<polygon class="st1" points="192,215.5 172.5,234 192,234 "/>
<g>
	<polygon class="st2" points="96,94.3 102.6,89.3 106,90.1 107.8,94.3 	"/>
	<path class="st3" d="M90.6,96.6l5.4-2.3l6.6-5c0,0-4.7-1-5.4-1.3C96.4,87.7,90.6,96.6,90.6,96.6"/>
	<polygon class="st4" points="111.3,96.6 107.8,94.3 106,90.1 109.5,87.4 	"/>
	<polygon class="st5" points="97.1,89.3 109.5,87.4 106,90.1 102.6,89.3 	"/>
	<polygon class="st6" points="115.9,82.1 112.5,85.7 101.9,83.9 104,80.4 	"/>
	<polygon class="st7" points="89.1,87.4 94.7,81.2 104,80.4 101.9,83.9 94.4,83.9 	"/>
	<polygon class="st8" points="90.6,96.6 89.1,87.4 94.4,83.9 97.1,89.3 	"/>
	<polygon class="st9" points="109.5,87.4 112.5,85.7 101.9,83.9 97.1,89.3 	"/>
	<polygon class="st10" points="94.4,83.9 101.9,83.9 97.1,89.3 	"/>
	<polygon class="st11" points="112.5,85.7 111.3,96.6 109.5,87.4 	"/>
	<polygon class="st11" points="90.6,96.6 101.9,102 101.9,94.3 96,94.3 	"/>
	<polygon class="st12" points="111.3,96.6 101.9,102 101.9,94.3 107.8,94.3 	"/>
	<polygon class="st13" points="111.3,96.6 115.9,106.5 101.9,102 	"/>
	<polygon class="st14" points="106,123.2 115.9,106.5 101.9,102 	"/>
	<polygon class="st15" points="90.6,96.6 73.1,101.5 73.1,88.1 	"/>
	<polygon class="st16" points="89.1,87.4 77.4,68.3 69.6,77.2 	"/>
	<polygon class="st17" points="73.1,88.1 89.1,87.4 69.6,77.2 	"/>
	<polygon class="st18" points="90.6,96.6 73.1,88.1 89.1,87.4 	"/>
	<polygon class="st18" points="73.1,114.3 73.1,101.5 90.6,96.6 	"/>
	<polygon class="st19" points="101.9,102 73.1,114.3 90.6,96.6 	"/>
	<polygon class="st20" points="106,123.2 73.1,114.3 101.9,102 	"/>
	<polygon class="st21" points="70.8,130.7 73.1,114.3 106,123.2 	"/>
	<polygon class="st22" points="96.2,150.8 106,123.2 70.8,130.7 	"/>
	<polygon class="st23" points="76.6,146.7 96.2,150.8 70.8,130.7 	"/>
	<polygon class="st24" points="94.7,81.2 77.4,68.3 89.1,87.4 	"/>
	<polygon class="st25" points="104,80.4 94.7,59.6 77.4,68.3 94.7,81.2 	"/>
	<polygon class="st26" points="115.9,82.1 104,80.4 94.7,59.6 115.9,60.9 	"/>
	<path class="st27" d="M131.1,83c-0.6,0.4-15.2-0.9-15.2-0.9V60.9l13.9,8.2L131.1,83z"/>
	<polygon class="st28" points="125.8,92.9 131.1,83 115.9,82.1 	"/>
	<polygon class="st29" points="133.9,106.5 125.8,92.9 130.1,105.5 	"/>
	<polygon class="st30" points="115.9,106.5 130.1,105.5 126,109.9 118.2,109.9 	"/>
	<polygon class="st31" points="133.9,106.5 130.1,105.5 126,109.9 132.7,111.2 	"/>
	<path class="st31" d="M119.2,113.3c0,0-4.7,0-4.7-0.7c0-0.7,1.4-6.2,1.4-6.2l2.3,3.4L119.2,113.3z"/>
	<polygon class="st32" points="124.9,113.3 126,109.9 132.7,111.2 127.8,114.3 	"/>
	<path class="st33" d="M115.9,106.5l9.9-13.6c0,0,5.4,12.5,4.3,12.5C129,105.5,115.9,106.5,115.9,106.5"/>
	<polygon class="st34" points="115.9,82.1 111.3,96.6 112.5,85.7 	"/>
	<polygon class="st35" points="115.9,106.5 119.2,85.7 125.8,92.9 	"/>
	<polygon class="st36" points="115.9,82.1 119.2,85.7 115.9,106.5 111.3,96.6 	"/>
	<polygon class="st37" points="114.5,112.6 106.5,122.5 115.9,106.5 	"/>
	<path class="st2" d="M129.8,97.3c-0.1-0.4,6.5-4.4,6.5-4.4l4.4,3.2v5.4c0,0-5.2,0.1-5.6-0.3c-0.4-0.4-5.6-2.1-5.6-2.1l-0.7-1.2
		L129.8,97.3z"/>
	<polygon class="st6" points="131.1,83 131.1,89.3 137.9,88.8 142.5,92 141.3,86.6 136.8,84.7 	"/>
	<polygon class="st38" points="125.8,92.9 131.1,89.3 131.1,83 	"/>
	<polygon class="st39" points="128.8,97.9 136.3,92.9 131.1,89.3 125.8,92.9 	"/>
	<polygon class="st40" points="140.7,96.1 131.1,89.3 137.9,88.8 	"/>
	<polygon class="st41" points="142.5,92 142.5,97.9 140.7,101.5 140.7,96.1 137.9,88.8 	"/>
	<polygon class="st42" points="133.9,106.5 140.7,101.5 134.9,99.7 129.5,99.1 	"/>
	<polygon class="st43" points="70.8,130.7 65.6,132.8 70.8,181.2 76.6,146.7 	"/>
	<polygon class="st44" points="96.2,150.8 70.8,181.2 76.6,146.8 	"/>
	<polygon class="st45" points="136.3,149.6 128.5,155.1 96.2,150.8 	"/>
	<polygon class="st46" points="109.5,127.3 106,123.2 96.2,150.8 	"/>
	<polygon class="st47" points="123,120.7 109.5,127.3 124.9,125.2 	"/>
	<path class="st48" d="M129.9,120.2c-0.9,0.3-6.9,0.4-6.9,0.4l1.9,4.6l3.9,0.6L129.9,120.2z"/>
	<polygon class="st49" points="134.8,130.7 128.8,125.8 129.8,120.7 134.8,125.8 	"/>
	<polygon class="st50" points="109.5,127.3 124.1,129.8 134.8,130.7 128.8,125.8 124.9,125.2 	"/>
	<polygon class="st51" points="106.5,122.5 119.2,113.3 124.9,113.3 124.9,117.9 107.8,125.2 106,123.2 	"/>
	<polygon class="st52" points="128.5,119.3 124.9,117.9 124.9,113.3 127.8,114.3 	"/>
	<polygon class="st53" points="137.9,128 134.8,119.9 127.8,114.3 128.5,119.3 	"/>
	<polygon class="st54" points="119.2,113.3 106.5,122.5 114.5,112.6 	"/>
	<polygon class="st55" points="118.2,109.9 126,109.9 124.9,113.3 119.2,113.3 	"/>
	<polygon class="st56" points="73.1,114.3 49.5,95.1 73.1,88.1 	"/>
	<polygon class="st57" points="69.6,77.2 58.7,75.3 49.5,95.1 73.1,88.1 	"/>
	<polygon class="st58" points="77.4,68.3 78.2,60.9 58.7,75.3 69.6,77.2 	"/>
	<polygon class="st57" points="94.7,59.6 90.7,55.9 78.2,60.9 77.4,68.3 	"/>
	<polygon class="st58" points="115.9,60.9 115.9,55.9 104,52.8 90.7,55.9 94.7,59.6 	"/>
	<polygon class="st57" points="129.8,69 131.8,65.9 115.9,55.8 115.9,60.9 	"/>
	<polygon class="st7" points="141.3,86.6 131.8,65.9 129.8,69 	"/>
	<polygon class="st26" points="131.1,83 141.3,86.6 129.8,69 	"/>
	<polygon class="st59" points="109.5,127.3 123,150 96.2,150.8 	"/>
	<polygon class="st60" points="123,150 134.8,130.7 109.5,127.3 	"/>
	<path class="st53" d="M131.8,134c0,0-5.5-2-5.8-2c-0.3,0-4.6,1-4.6,1l4.4,4.9L131.8,134z"/>
	<polygon class="st61" points="136.3,149.6 134.8,130.7 123,150 	"/>
	<polygon class="st62" points="133.9,106.5 141.3,107.7 140.7,101.5 	"/>
	<polygon class="st63" points="134.8,119.9 141.3,107.7 133.9,106.5 132.7,111.2 	"/>
	<polygon class="st64" points="127.8,114.3 132.7,111.2 134.8,119.9 	"/>
	<polygon class="st65" points="137.9,128 142.5,125.8 142.5,114.3 141.3,107.7 134.8,119.9 	"/>
	<polygon class="st43" points="136.3,149.6 141.3,137 142.5,125.8 137.9,128 134.8,130.7 	"/>
	<polygon class="st33" points="107.8,125.2 124.9,117.9 123,120.7 109.5,127.3 	"/>
	<polygon class="st66" points="128.5,119.3 124.9,117.9 123,120.7 129.8,120.7 	"/>
	<polygon class="st33" points="134.8,130.7 137.9,128 129.8,120.7 134.8,126.7 	"/>
	<polygon class="st67" points="136.3,149.6 127.8,160.4 113.6,170.7 96.2,150.8 128.5,155.1 	"/>
	<polygon class="st68" points="70.8,181.2 113.6,170.7 96.2,150.8 	"/>
	<polygon class="st69" points="126.6,176.3 128.8,161.8 128.5,159.6 113.6,170.7 	"/>
	<polygon class="st57" points="49.5,95.1 51.4,119.9 63.4,106.5 	"/>
	<polygon class="st56" points="65.6,132.8 58,127.3 56.5,114.2 51.4,119.9 54.6,134.9 	"/>
	<polygon class="st57" points="68.3,157.6 54.6,134.9 65.6,132.8 	"/>
	<polygon class="st70" points="73.1,114.3 63.4,106.5 64.7,114.5 65.6,118.6 70.8,130.7 	"/>
	<polygon class="st71" points="56.5,114.2 63.4,106.5 65,115.6 58,127.3 	"/>
	<polygon class="st72" points="65.6,132.8 58,127.3 65,115.6 	"/>
	<polygon class="st73" points="70.8,130.7 65.6,118.6 65,115.6 65.6,132.8 	"/>
</g>
</svg>
