<?xml version="1.0" encoding="utf-8"?>
<!-- Generator: Adobe Illustrator 19.2.1, SVG Export Plug-In . SVG Version: 6.00 Build 0)  -->
<svg version="1.1" id="Layer_1" xmlns="http://www.w3.org/2000/svg" xmlns:xlink="http://www.w3.org/1999/xlink" x="0px" y="0px"
	 width="192px" height="234px" viewBox="0 0 192 234" style="enable-background:new 0 0 192 234;" xml:space="preserve">
<style type="text/css">
	.st0{fill:#F2F2F2;}
	.st1{fill:#D54339;}
	.st2{clip-path:url(#SVGID_2_);}
	.st3{clip-path:url(#SVGID_4_);fill:#49341E;}
	.st4{clip-path:url(#SVGID_4_);fill:#D36E76;}
	.st5{clip-path:url(#SVGID_4_);fill:#CD8B8D;}
	.st6{clip-path:url(#SVGID_6_);fill:#14140A;}
	.st7{clip-path:url(#SVGID_6_);fill:#2A2316;}
	.st8{clip-path:url(#SVGID_6_);fill:#250D13;}
	.st9{clip-path:url(#SVGID_6_);fill:#432A21;}
	.st10{clip-path:url(#SVGID_6_);fill:#32221A;}
	.st11{clip-path:url(#SVGID_6_);fill:#322524;}
	.st12{clip-path:url(#SVGID_6_);fill:#443830;}
	.st13{clip-path:url(#SVGID_6_);fill:#63413B;}
	.st14{clip-path:url(#SVGID_6_);fill:#73504C;}
	.st15{clip-path:url(#SVGID_6_);fill:#583A30;}
	.st16{clip-path:url(#SVGID_6_);fill:#2D220B;}
	.st17{clip-path:url(#SVGID_6_);fill:#49341E;}
	.st18{clip-path:url(#SVGID_6_);fill:#583F2D;}
	.st19{clip-path:url(#SVGID_6_);fill:#865B47;}
	.st20{clip-path:url(#SVGID_6_);fill:#442C19;}
	.st21{clip-path:url(#SVGID_6_);fill:#4B3822;}
	.st22{clip-path:url(#SVGID_6_);fill:#342117;}
	.st23{clip-path:url(#SVGID_6_);fill:#54391F;}
	.st24{clip-path:url(#SVGID_6_);fill:#4F3E38;}
	.st25{clip-path:url(#SVGID_6_);fill:#241B12;}
	.st26{clip-path:url(#SVGID_6_);fill:#241B17;}
	.st27{clip-path:url(#SVGID_6_);fill:#3E352E;}
	.st28{clip-path:url(#SVGID_6_);fill:#7A554E;}
	.st29{clip-path:url(#SVGID_6_);fill:#332D12;}
	.st30{clip-path:url(#SVGID_6_);fill:#50423A;}
	.st31{clip-path:url(#SVGID_6_);fill:#80504F;}
	.st32{clip-path:url(#SVGID_6_);fill:#B07A71;}
	.st33{clip-path:url(#SVGID_6_);fill:#88584D;}
	.st34{clip-path:url(#SVGID_6_);fill:#6D4C40;}
	.st35{clip-path:url(#SVGID_6_);fill:#5A3736;}
	.st36{clip-path:url(#SVGID_6_);fill:#5C3737;}
	.st37{clip-path:url(#SVGID_6_);fill:#52292A;}
	.st38{clip-path:url(#SVGID_6_);fill:#653E3B;}
	.st39{clip-path:url(#SVGID_6_);fill:#644240;}
	.st40{clip-path:url(#SVGID_6_);fill:#5D3D3A;}
	.st41{clip-path:url(#SVGID_6_);fill:#79534E;}
	.st42{clip-path:url(#SVGID_6_);fill:#714D46;}
	.st43{clip-path:url(#SVGID_6_);fill:#53322D;}
	.st44{clip-path:url(#SVGID_6_);fill:#44191A;}
	.st45{clip-path:url(#SVGID_6_);fill:#89604C;}
	.st46{clip-path:url(#SVGID_6_);fill:#6D4632;}
	.st47{clip-path:url(#SVGID_6_);fill:#51312E;}
	.st48{clip-path:url(#SVGID_6_);fill:#612F32;}
	.st49{clip-path:url(#SVGID_6_);fill:#A56337;}
	.st50{clip-path:url(#SVGID_6_);fill:#9F6541;}
	.st51{clip-path:url(#SVGID_6_);fill:#A06F41;}
	.st52{clip-path:url(#SVGID_6_);fill:#926748;}
	.st53{clip-path:url(#SVGID_6_);fill:#724A3E;}
	.st54{clip-path:url(#SVGID_6_);fill:#674A3E;}
	.st55{clip-path:url(#SVGID_6_);fill:#BF8B65;}
	.st56{clip-path:url(#SVGID_6_);fill:#835F42;}
	.st57{clip-path:url(#SVGID_6_);fill:#B17D5D;}
	.st58{clip-path:url(#SVGID_6_);fill:#DE9B86;}
	.st59{clip-path:url(#SVGID_6_);fill:#CE9595;}
	.st60{clip-path:url(#SVGID_6_);fill:#CF9C9C;}
	.st61{clip-path:url(#SVGID_6_);fill:#AD6F6F;}
	.st62{clip-path:url(#SVGID_6_);fill:#26070F;}
	.st63{clip-path:url(#SVGID_6_);fill:#7F4D53;}
	.st64{clip-path:url(#SVGID_6_);fill:#B47769;}
	.st65{clip-path:url(#SVGID_6_);fill:#462C29;}
	.st66{clip-path:url(#SVGID_6_);fill:#5A3E35;}
	.st67{clip-path:url(#SVGID_6_);fill:#D59282;}
	.st68{clip-path:url(#SVGID_6_);fill:#CE9593;}
	.st69{clip-path:url(#SVGID_6_);fill:#654340;}
	.st70{clip-path:url(#SVGID_6_);fill:#EB91A3;}
	.st71{clip-path:url(#SVGID_6_);fill:#D67585;}
	.st72{clip-path:url(#SVGID_6_);fill:#BE6971;}
	.st73{clip-path:url(#SVGID_6_);fill:#F0949D;}
	.st74{clip-path:url(#SVGID_6_);fill:#E3828F;}
	.st75{clip-path:url(#SVGID_6_);fill:#A53455;}
	.st76{clip-path:url(#SVGID_6_);fill:#BB456B;}
	.st77{clip-path:url(#SVGID_6_);fill:#DB9D84;}
	.st78{clip-path:url(#SVGID_6_);fill:#D36E76;}
	.st79{clip-path:url(#SVGID_6_);fill:#BE7C7A;}
	.st80{clip-path:url(#SVGID_6_);fill:#D3A7A1;}
	.st81{clip-path:url(#SVGID_6_);fill:#A36E3A;}
	.st82{clip-path:url(#SVGID_6_);fill:#F5C7C1;}
	.st83{clip-path:url(#SVGID_6_);fill:#F4C7BD;}
	.st84{clip-path:url(#SVGID_6_);fill:#FBCCC6;}
	.st85{clip-path:url(#SVGID_6_);fill:#E7BAA8;}
	.st86{clip-path:url(#SVGID_6_);fill:#F1C5BA;}
	.st87{clip-path:url(#SVGID_6_);fill:#F4AA8A;}
	.st88{clip-path:url(#SVGID_6_);fill:#E8AE9E;}
	.st89{clip-path:url(#SVGID_6_);fill:#F9D9D7;}
	.st90{clip-path:url(#SVGID_6_);fill:#D39896;}
	.st91{clip-path:url(#SVGID_6_);fill:#F0C2BF;}
	.st92{clip-path:url(#SVGID_6_);fill:#E9B5AD;}
	.st93{clip-path:url(#SVGID_6_);fill:#F8D3CF;}
	.st94{clip-path:url(#SVGID_6_);fill:#E4BDAB;}
	.st95{clip-path:url(#SVGID_6_);fill:#DC9F99;}
	.st96{clip-path:url(#SVGID_6_);fill:#CA8A91;}
	.st97{clip-path:url(#SVGID_6_);fill:#BB8175;}
	.st98{clip-path:url(#SVGID_6_);fill:#D08F77;}
	.st99{clip-path:url(#SVGID_6_);fill:#B6786C;}
	.st100{clip-path:url(#SVGID_6_);fill:#996153;}
	.st101{clip-path:url(#SVGID_6_);fill:#804A42;}
	.st102{clip-path:url(#SVGID_6_);fill:#7C554C;}
	.st103{clip-path:url(#SVGID_6_);fill:#67473A;}
	.st104{clip-path:url(#SVGID_6_);fill:#C67E62;}
	.st105{clip-path:url(#SVGID_6_);fill:#D49D81;}
	.st106{clip-path:url(#SVGID_6_);fill:#C38F80;}
	.st107{clip-path:url(#SVGID_6_);fill:#A36E56;}
	.st108{clip-path:url(#SVGID_6_);fill:#61492E;}
	.st109{clip-path:url(#SVGID_6_);fill:#573A2E;}
	.st110{clip-path:url(#SVGID_6_);fill:#51342D;}
	.st111{clip-path:url(#SVGID_6_);fill:#3A3026;}
	.st112{clip-path:url(#SVGID_6_);fill:#51312B;}
	.st113{clip-path:url(#SVGID_6_);fill:#B28276;}
	.st114{clip-path:url(#SVGID_6_);fill:#D69092;}
	.st115{clip-path:url(#SVGID_6_);fill:#F7C3BE;}
	.st116{clip-path:url(#SVGID_6_);fill:#F9CFC6;}
	.st117{clip-path:url(#SVGID_6_);fill:#D39E8C;}
	.st118{clip-path:url(#SVGID_6_);fill:#CB9D8A;}
	.st119{clip-path:url(#SVGID_6_);fill:#F6C3BF;}
	.st120{clip-path:url(#SVGID_6_);fill:#EAB6AC;}
	.st121{clip-path:url(#SVGID_6_);fill:#C58E88;}
	.st122{clip-path:url(#SVGID_6_);fill:#D5A893;}
	.st123{clip-path:url(#SVGID_6_);fill:#D9A695;}
	.st124{clip-path:url(#SVGID_6_);fill:#A77266;}
	.st125{clip-path:url(#SVGID_6_);fill:#C08079;}
	.st126{clip-path:url(#SVGID_6_);fill:#6E3F40;}
	.st127{clip-path:url(#SVGID_6_);fill:#674645;}
	.st128{clip-path:url(#SVGID_6_);fill:#693F2A;}
	.st129{clip-path:url(#SVGID_6_);fill:#503229;}
	.st130{clip-path:url(#SVGID_6_);fill:#66463E;}
	.st131{clip-path:url(#SVGID_6_);fill:#94576C;}
	.st132{clip-path:url(#SVGID_6_);fill:#C59989;}
	.st133{clip-path:url(#SVGID_6_);fill:#BF8E83;}
	.st134{clip-path:url(#SVGID_6_);fill:#4F3634;}
	.st135{clip-path:url(#SVGID_6_);fill:#312226;}
	.st136{clip-path:url(#SVGID_6_);fill:#3A2721;}
	.st137{clip-path:url(#SVGID_6_);fill:#463B37;}
	.st138{clip-path:url(#SVGID_6_);fill:#644B45;}
	.st139{clip-path:url(#SVGID_6_);fill:#966E63;}
	.st140{clip-path:url(#SVGID_6_);fill:#DDA78F;}
	.st141{clip-path:url(#SVGID_6_);fill:#E3B8A7;}
	.st142{clip-path:url(#SVGID_6_);fill:#D9A995;}
	.st143{clip-path:url(#SVGID_6_);fill:#FAD2C8;}
	.st144{clip-path:url(#SVGID_6_);fill:#F2C7B7;}
	.st145{clip-path:url(#SVGID_6_);fill:#FBCFC4;}
	.st146{clip-path:url(#SVGID_6_);fill:#F8CEC2;}
	.st147{clip-path:url(#SVGID_6_);fill:#FCDBD2;}
	.st148{clip-path:url(#SVGID_6_);fill:#E4AE94;}
	.st149{clip-path:url(#SVGID_6_);fill:#9F8E8B;}
	.st150{clip-path:url(#SVGID_6_);fill:#8B5364;}
	.st151{clip-path:url(#SVGID_6_);fill:#A5919F;}
	.st152{clip-path:url(#SVGID_6_);fill:#AF939E;}
	.st153{clip-path:url(#SVGID_6_);fill:#48453E;}
	.st154{clip-path:url(#SVGID_6_);fill:#957C84;}
	.st155{clip-path:url(#SVGID_6_);fill:#5B3914;}
	.st156{clip-path:url(#SVGID_6_);fill:#0A0602;}
	.st157{clip-path:url(#SVGID_6_);fill:#FEC59F;}
	.st158{clip-path:url(#SVGID_6_);fill:#E6765A;}
	.st159{clip-path:url(#SVGID_6_);fill:#C27B4D;}
	.st160{clip-path:url(#SVGID_6_);fill:#FFBA9B;}
	.st161{clip-path:url(#SVGID_6_);fill:#FFB49E;}
	.st162{clip-path:url(#SVGID_6_);fill:#FDBB9E;}
	.st163{clip-path:url(#SVGID_6_);fill:#FEB8A9;}
	.st164{clip-path:url(#SVGID_6_);fill:#050202;}
	.st165{clip-path:url(#SVGID_6_);fill:#CF9C93;}
	.st166{clip-path:url(#SVGID_6_);fill:#D98083;}
	.st167{clip-path:url(#SVGID_6_);fill:#B36C74;}
	.st168{clip-path:url(#SVGID_6_);fill:#DCA8A4;}
	.st169{clip-path:url(#SVGID_6_);fill:#2C3829;}
	.st170{clip-path:url(#SVGID_6_);fill:#141710;}
	.st171{clip-path:url(#SVGID_6_);fill:#171513;}
	.st172{clip-path:url(#SVGID_6_);fill:#1B1610;}
	.st173{clip-path:url(#SVGID_6_);fill:#1E1D17;}
	.st174{clip-path:url(#SVGID_6_);fill:#201A15;}
	.st175{clip-path:url(#SVGID_6_);fill:#211F17;}
	.st176{clip-path:url(#SVGID_6_);fill:#2D2819;}
	.st177{clip-path:url(#SVGID_6_);fill:#1E2015;}
	.st178{clip-path:url(#SVGID_6_);fill:#74865B;}
	.st179{clip-path:url(#SVGID_6_);fill:#ABB185;}
	.st180{clip-path:url(#SVGID_6_);fill:#9AA36D;}
	.st181{clip-path:url(#SVGID_6_);fill:#A8AC6E;}
	.st182{clip-path:url(#SVGID_6_);fill:#A1A66C;}
	.st183{clip-path:url(#SVGID_6_);fill:#A9B272;}
	.st184{clip-path:url(#SVGID_6_);fill:#BEC28A;}
	.st185{clip-path:url(#SVGID_6_);fill:#A19E65;}
	.st186{clip-path:url(#SVGID_6_);fill:#A3A660;}
	.st187{clip-path:url(#SVGID_6_);fill:#9E995E;}
	.st188{clip-path:url(#SVGID_6_);fill:#433927;}
	.st189{clip-path:url(#SVGID_6_);fill:#D6988D;}
	.st190{clip-path:url(#SVGID_6_);fill:#C96968;}
	.st191{clip-path:url(#SVGID_6_);fill:#524749;}
	.st192{clip-path:url(#SVGID_6_);fill:#9B8A7C;}
	.st193{clip-path:url(#SVGID_6_);fill:#53484A;}
	.st194{clip-path:url(#SVGID_6_);fill:#B47170;}
	.st195{clip-path:url(#SVGID_6_);fill:#5C554F;}
	.st196{clip-path:url(#SVGID_6_);fill:#4D463F;}
	.st197{clip-path:url(#SVGID_6_);fill:#3D3937;}
	.st198{clip-path:url(#SVGID_6_);fill:#CF7280;}
	.st199{clip-path:url(#SVGID_6_);fill:#773B40;}
	.st200{clip-path:url(#SVGID_6_);fill:#CD8B8D;}
	.st201{clip-path:url(#SVGID_6_);fill:#632E26;}
	.st202{clip-path:url(#SVGID_6_);fill:#AF4451;}
</style>
<rect class="st0" width="192" height="234"/>
<polygon class="st1" points="192,215.5 172.5,234 192,234 "/>
<g>
	<g>
		<defs>
			<rect id="SVGID_1_" x="9.5" y="40.4" width="172.1" height="172.1"/>
		</defs>
		<clipPath id="SVGID_2_">
			<use xlink:href="#SVGID_1_"  style="overflow:visible;"/>
		</clipPath>
		<g class="st2">
			<defs>
				<rect id="SVGID_3_" x="9.5" y="40.4" width="172.1" height="172.1"/>
			</defs>
			<clipPath id="SVGID_4_">
				<use xlink:href="#SVGID_3_"  style="overflow:visible;"/>
			</clipPath>
			<path class="st3" d="M116.5,157.5c0,11.3-9.5,20.5-21.3,20.5c-11.8,0-21.3-9.2-21.3-20.5c0-11.3,9.5-20.5,21.3-20.5
				C107,137,116.5,146.2,116.5,157.5"/>
			<rect x="82.7" y="150.9" class="st4" width="24.2" height="3.1"/>
			<rect x="102.4" y="144.6" class="st5" width="6.5" height="4.8"/>
			<path class="st3" d="M125.3,154.8c0,3-1.7,5.4-3.7,5.4s-3.7-2.4-3.7-5.4s1.7-5.4,3.7-5.4S125.3,151.8,125.3,154.8"/>
		</g>
		<g class="st2">
			<defs>
				<rect id="SVGID_5_" x="9.5" y="40.4" width="172.1" height="172.1"/>
			</defs>
			<clipPath id="SVGID_6_">
				<use xlink:href="#SVGID_5_"  style="overflow:visible;"/>
			</clipPath>
			<path class="st6" d="M88.8,178.6c-5.2-0.9-11.4-5.6-11.5-5.6l-0.1-0.1h8.2l3.4,5.7L88.8,178.6z"/>
			<path class="st6" d="M77.3,172.9c0,0,6.2,4.7,11.4,5.6l-3.4-5.6H77.3z"/>
			<path class="st7" d="M85.4,173L85.4,173c5.6,3.6,10.6,4,10.7,4l0,0.1l-7.3,1.6L85.4,173z"/>
			<path class="st7" d="M96.1,177c0,0-5-0.3-10.6-4l3.4,5.6L96.1,177z"/>
			<path class="st8" d="M95.7,180c-2.7,0-5.1-0.5-7-1.4l-0.1-0.1l7.4-1.6l8.6,1.6l-0.2,0.1C104.4,178.6,100.3,180,95.7,180"/>
			<path class="st8" d="M104.5,178.5c0,0-9.2,3.2-15.7,0l7.3-1.6L104.5,178.5z"/>
			<path class="st9" d="M96,177L96,177c0.1-0.1,0.1-0.1,0.2-0.1c1.8,0,8.1-2.1,8.2-2.1l0.1,0v3.8L96,177z"/>
			<path class="st9" d="M104.5,174.8c0,0-7,2.3-8.4,2.1l8.4,1.6V174.8z"/>
			<path class="st10" d="M104.4,174.8l8-1.9l0,0.1c-0.3,0.2-6.3,5.1-8,5.6l-0.1,0V174.8z"/>
			<path class="st10" d="M112.4,172.9c0,0-6.3,5.1-8,5.6v-3.7L112.4,172.9z"/>
			<polygon class="st11" points="109.8,163 118.6,166 112.4,173 			"/>
			<polygon class="st11" points="118.5,166 112.4,172.9 109.8,163.1 			"/>
			<polygon class="st12" points="109.9,162.9 112.5,173 104.4,174.9 			"/>
			<polygon class="st12" points="104.5,174.8 109.8,163.1 112.4,172.9 			"/>
			<path class="st13" d="M96.3,177.1c-0.1,0-0.2,0-0.3,0l0,0l1.1-10.7l0.1,0.1l7.3,8.5l-0.1,0C104.2,175,97.9,177.1,96.3,177.1
				 M96.1,176.9c0.8,0.2,5.7-1.3,8.3-2.1l-7.2-8.3L96.1,176.9z"/>
			<path class="st13" d="M96.1,177l1.1-10.5l7.3,8.4C104.5,174.8,96.9,177.4,96.1,177"/>
			<polygon class="st14" points="97.1,166.4 109.9,163 104.5,174.9 			"/>
			<polygon class="st14" points="109.8,163.1 97.2,166.4 104.5,174.8 			"/>
			<path class="st15" d="M96.1,177L96.1,177c-0.1,0-6.1-0.8-10.7-4l-0.1,0l0.1,0l11.8-6.5l0,0.1L96.1,177z M85.5,172.9
				c4.4,3,9.9,3.9,10.5,4l1.1-10.4L85.5,172.9z"/>
			<path class="st15" d="M85.4,172.9l11.8-6.5L96.1,177C96.1,177,90.1,176.2,85.4,172.9"/>
			<polygon class="st16" points="77.3,173 76.9,169.5 85.4,172.9 85.4,173 			"/>
			<polygon class="st16" points="77.3,172.9 76.9,169.6 85.4,172.9 			"/>
			<polygon class="st17" points="76.9,169.6 78.6,163.4 85.5,173 			"/>
			<polygon class="st17" points="78.6,163.5 76.9,169.6 85.4,172.9 			"/>
			<polygon class="st18" points="78.5,163.4 87.2,165.2 85.4,173.1 			"/>
			<polygon class="st18" points="87.1,165.2 85.4,172.9 78.6,163.5 			"/>
			<polygon class="st19" points="87.1,165.2 97.2,166.4 85.3,173 			"/>
			<polygon class="st19" points="97,166.4 87.1,165.2 85.4,172.9 			"/>
			<path class="st20" d="M77.3,173c-0.3-0.2-6.3-6.2-6.6-6.5l0,0l4.7-8.1l1.6,11.2L77.3,173L77.3,173z"/>
			<path class="st20" d="M70.8,166.4c0,0,6.3,6.3,6.6,6.5l-0.4-3.4l-1.6-11L70.8,166.4z"/>
			<polygon class="st21" points="76.9,169.6 75.3,158.5 75.4,158.5 78.6,163.5 77,169.6 			"/>
			<polygon class="st21" points="78.6,163.5 75.4,158.5 76.9,169.6 			"/>
			<path class="st22" d="M70.8,166.5c-2-0.7-6.3-7.6-6.5-7.9l0-0.1h11.2L70.8,166.5L70.8,166.5z"/>
			<path class="st22" d="M64.3,158.5c0,0,4.5,7.2,6.4,7.9l4.6-7.9H64.3z"/>
			<path class="st23" d="M64.3,158.6L64.3,158.6c-1-1.5-4.7-14.9-4.8-15.4l0-0.1l11.1,8.6l4.9,7H64.3z"/>
			<path class="st23" d="M59.5,143.1c0,0,3.9,13.9,4.8,15.4h11l-4.9-6.9L59.5,143.1z"/>
			<polygon class="st24" points="109.8,163.1 113.7,159.1 122.8,160.7 118.5,166 			"/>
			<polygon class="st24" points="122.7,160.8 118.5,166 109.8,163.1 113.8,159.2 			"/>
			<polygon class="st25" points="122.9,154.8 127.4,154.8 122.6,160.9 			"/>
			<polygon class="st25" points="127.3,154.9 122.7,160.8 123,154.9 			"/>
			<path class="st26" d="M127.4,154.9h-4.5l6.8-7.1l0.1,0.1C129.5,148.3,127.4,154.8,127.4,154.9L127.4,154.9z M123.1,154.8h4.2
				c0.2-0.5,1.8-5.5,2.2-6.7L123.1,154.8z"/>
			<path class="st26" d="M129.7,147.9l-6.7,7h4.4C127.3,154.9,129.5,148.3,129.7,147.9"/>
			<polygon class="st27" points="113.6,159.2 123,154.8 122.7,160.8 			"/>
			<polygon class="st27" points="113.8,159.2 123,154.9 122.7,160.8 			"/>
			<polygon class="st28" points="112.8,152 123.1,154.9 113.7,159.2 			"/>
			<polygon class="st28" points="112.8,152.1 113.8,159.2 123,154.9 			"/>
			<polygon class="st29" points="127.1,150.5 129.6,141.3 129.7,141.3 129.7,147.9 127.2,150.5 			"/>
			<polygon class="st29" points="127.2,150.5 129.7,141.3 129.7,147.9 			"/>
			<polygon class="st30" points="118.8,153.8 121.8,149.8 127.3,150.5 123,154.9 			"/>
			<polygon class="st30" points="118.9,153.8 121.8,149.9 127.2,150.5 123,154.9 			"/>
			<polygon class="st31" points="112.8,152.1 110.1,150.1 117,147.4 119,153.8 			"/>
			<polygon class="st31" points="112.8,152.1 110.2,150.1 117,147.5 118.9,153.8 			"/>
			<polygon class="st32" points="116.9,147.4 121.9,149.8 118.9,153.9 			"/>
			<polygon class="st32" points="121.8,149.9 117,147.5 118.9,153.8 			"/>
			<polygon class="st33" points="107.6,147.8 117,147.5 117,147.5 110.2,150.1 			"/>
			<polygon class="st33" points="107.7,147.9 110.2,150.1 117,147.5 			"/>
			<polygon class="st34" points="111.2,144.4 117.2,147.5 107.6,147.9 			"/>
			<polygon class="st34" points="111.2,144.4 117,147.5 107.7,147.9 			"/>
			<polygon class="st35" points="104.3,145.9 111.3,144.3 107.7,148 			"/>
			<polygon class="st35" points="104.5,145.9 107.7,147.9 111.2,144.4 			"/>
			<polygon class="st36" points="106.5,139.1 111.3,144.4 104.4,145.9 			"/>
			<polygon class="st36" points="106.5,139.2 104.5,145.9 111.2,144.4 			"/>
			<polygon class="st37" points="101.7,144.4 106.4,139.2 106.5,139.2 104.5,146 			"/>
			<polygon class="st37" points="101.8,144.4 104.5,145.9 106.5,139.2 			"/>
			<polygon class="st38" points="98.6,142.1 106.5,139.2 106.5,139.2 101.8,144.5 			"/>
			<polygon class="st38" points="98.7,142.1 101.8,144.4 106.5,139.2 			"/>
			<polygon class="st39" points="98.7,142 101.8,144.4 97.3,148 			"/>
			<polygon class="st39" points="97.4,147.9 101.8,144.4 98.7,142.1 			"/>
			<polygon class="st40" points="94.4,145.9 98.8,142 97.4,148 			"/>
			<polygon class="st40" points="94.4,145.9 97.4,147.9 98.7,142.1 			"/>
			<polygon class="st41" points="93.1,143.2 96.6,140.5 98.8,142.1 94.4,146 			"/>
			<polygon class="st41" points="96.6,140.6 98.7,142.1 94.4,145.9 93.1,143.2 			"/>
			<polygon class="st42" points="94.1,139.6 96.7,140.6 93.1,143.4 			"/>
			<polygon class="st42" points="94.1,139.7 96.6,140.6 93.1,143.2 			"/>
			<polygon class="st43" points="91.1,139.9 93.4,138.4 94.1,139.6 93.2,143.4 			"/>
			<polygon class="st43" points="91.2,139.9 93.4,138.5 94.1,139.7 93.1,143.2 			"/>
			<polygon class="st44" points="88.7,140.6 91.2,139.8 93.3,143.4 			"/>
			<polygon class="st44" points="88.8,140.6 91.2,139.9 93.1,143.2 			"/>
			<polygon class="st45" points="90.9,144.7 93.2,143.2 94.5,146 			"/>
			<polygon class="st45" points="94.4,145.9 91,144.7 93.1,143.2 			"/>
			<polygon class="st46" points="88.7,140.5 93.2,143.2 91,144.7 88.7,146 			"/>
			<polygon class="st46" points="88.8,140.6 88.8,145.9 91,144.7 93.1,143.2 			"/>
			<polygon class="st47" points="96.5,140.6 98.8,139.8 101.2,141.2 98.7,142.2 			"/>
			<polygon class="st47" points="96.6,140.6 98.7,139.9 101.1,141.2 98.7,142.1 			"/>
			<polygon class="st48" points="98.6,139.9 101.8,138.4 106.7,139.2 101.1,141.3 			"/>
			<polygon class="st48" points="106.5,139.2 101.8,138.5 98.7,139.9 101.1,141.2 			"/>
			<polygon class="st49" points="84.1,142.5 88.8,140.5 88.8,146 			"/>
			<polygon class="st49" points="88.8,140.6 84.2,142.5 88.8,145.9 			"/>
			<polygon class="st50" points="80.1,144.6 84.2,142.5 88.9,145.9 85.1,147.6 			"/>
			<polygon class="st50" points="80.2,144.6 84.2,142.5 88.8,145.9 85.1,147.5 			"/>
			<polygon class="st51" points="80.1,144.5 85.2,147.5 82.1,150.2 			"/>
			<polygon class="st51" points="82.2,150.1 85.1,147.5 80.2,144.6 			"/>
			<polygon class="st52" points="75,148.4 80.2,144.5 82.2,150.1 			"/>
			<polygon class="st52" points="75.1,148.4 80.2,144.6 82.2,150.1 			"/>
			<polygon class="st53" points="74.3,150.9 75.1,148.3 82.2,150 80.6,153.4 			"/>
			<polygon class="st53" points="80.6,153.3 82.2,150.1 75.1,148.4 74.3,150.8 			"/>
			<polygon class="st54" points="74.3,150.8 80.7,153.3 75.3,158.5 			"/>
			<polygon class="st54" points="75.4,158.4 80.6,153.3 74.3,150.8 			"/>
			<polygon class="st55" points="70.4,151.6 74.4,150.8 75.4,158.5 75.3,158.6 			"/>
			<polygon class="st55" points="70.5,151.6 74.3,150.8 75.4,158.5 			"/>
			<polygon class="st56" points="75.3,158.6 75.3,158.3 80.6,153.2 82.7,160.3 78.6,163.5 			"/>
			<polygon class="st56" points="78.6,163.5 82.7,160.3 80.6,153.3 75.4,158.3 75.4,158.5 			"/>
			<polygon class="st57" points="78.5,163.5 82.6,160.2 86.1,158.5 87.2,165.3 			"/>
			<polygon class="st57" points="87.1,165.2 86.1,158.5 82.7,160.3 78.6,163.5 			"/>
			<polygon class="st58" points="80.5,153.3 88,155.3 86.1,158.6 82.6,160.3 			"/>
			<polygon class="st58" points="87.9,155.3 86.1,158.5 82.7,160.3 80.6,153.3 			"/>
			<polygon class="st59" points="106.4,155.2 110.2,152.3 113.2,154.6 113.8,159.2 			"/>
			<polygon class="st59" points="113.8,159.2 106.5,155.2 110.2,152.4 113.1,154.6 			"/>
			<polygon class="st60" points="106.4,155.1 113.8,159.1 109.9,163.1 105.7,164.2 			"/>
			<polygon class="st60" points="105.7,164.2 106.5,155.2 113.8,159.2 109.8,163.1 			"/>
			<polygon class="st61" points="98,163.4 105.7,164.1 105.8,164.2 97.1,166.5 			"/>
			<polygon class="st61" points="97.2,166.4 98.1,163.5 105.7,164.2 			"/>
			<polygon class="st62" points="92.6,162.6 92.6,162.5 97,161.8 101.3,162.2 98.3,163.5 			"/>
			<polygon class="st62" points="92.7,162.6 97,161.9 101.1,162.2 98.3,163.5 			"/>
			<polygon class="st63" points="90,165.6 92.6,162.5 98.1,163.5 97.2,166.5 			"/>
			<polygon class="st63" points="90.1,165.6 92.7,162.6 98.1,163.5 97.2,166.4 			"/>
			<polygon class="st64" points="87.1,165.2 86,158.4 92.7,162.6 90.1,165.6 			"/>
			<polygon class="st64" points="86.1,158.5 89.7,160.8 92.7,162.6 90.1,165.6 87.1,165.2 			"/>
			<polygon class="st65" points="89.6,160.8 94.4,157.8 97.1,161.9 92.6,162.6 			"/>
			<polygon class="st65" points="94.4,157.8 89.7,160.8 92.7,162.6 97,161.9 			"/>
			<polygon class="st66" points="97,161.9 94.3,157.8 100,157.8 99.2,162.1 			"/>
			<polygon class="st66" points="100,157.8 99.2,162.1 97,161.9 94.4,157.8 			"/>
			<path class="st67" d="M86,158.6l1.9-3.3l0,0c0.1,0,5,2.5,6.4,2.5h0.2l-4.8,3L86,158.6z"/>
			<path class="st67" d="M87.9,155.3c0,0,5,2.6,6.5,2.6l-4.7,2.9l-3.7-2.2L87.9,155.3z"/>
			<path class="st68" d="M99.9,157.8L99.9,157.8c0.1,0,5.5-1.9,6.6-2.7l0.1-0.1l-0.8,9.2L99.9,157.8z"/>
			<path class="st68" d="M100,157.8c0,0,5.4-1.9,6.5-2.7l-0.7,9L100,157.8z"/>
			<polygon class="st69" points="98.1,163.5 100.9,162.3 99.1,162.1 100,157.7 105.9,164.2 			"/>
			<polygon class="st69" points="98.3,163.5 101.1,162.2 99.2,162.1 100,157.8 105.7,164.2 			"/>
			<path class="st70" d="M94.3,157.9l0.5-4.6l0,0c0,0,1.7,0.1,2.8,0.1c0.9,0,1.1,0,1.1-0.1l0.1,0l1.2,4.6H94.3z"/>
			<path class="st70" d="M94.4,157.8l0.5-4.5c0,0,3.7,0.2,4,0l1.1,4.5H94.4z"/>
			<path class="st71" d="M99.9,157.9L99.9,157.9l-1.2-4.6l0.1,0l7.7,1.9l0,0C106.4,155.7,100.7,157.7,99.9,157.9L99.9,157.9z
				 M98.9,153.4l1.1,4.4c2.5-0.8,6.1-2.2,6.4-2.6L98.9,153.4z"/>
			<path class="st71" d="M106.5,155.2l-7.6-1.8l1.1,4.5C100,157.8,106.4,155.7,106.5,155.2"/>
			<polygon class="st72" points="98.8,153.4 98.8,153.3 105.7,152 110.4,152.3 106.5,155.2 			"/>
			<polygon class="st72" points="110.2,152.4 105.7,152.1 98.8,153.3 106.5,155.2 			"/>
			<path class="st73" d="M94.2,157.9c-1.1,0-6.1-2.5-6.3-2.6l-0.1-0.1l7.1-2l-0.5,4.6l0,0C94.4,157.9,94.3,157.9,94.2,157.9"/>
			<path class="st73" d="M94.9,153.3l-6.9,2c0,0,5.9,2.9,6.5,2.6L94.9,153.3z"/>
			<path class="st74" d="M80.6,153.4L80.6,153.4c0.1-0.1,5.3-0.8,9.4-0.8c2.5,0,4.1,0.2,4.9,0.7l0.1,0.1l-7.1,2L80.6,153.4z"/>
			<path class="st74" d="M80.6,153.3c0,0,11.7-1.5,14.3,0l-6.9,2L80.6,153.3z"/>
			<path class="st75" d="M97.6,153.4c-1.1,0-2.7,0-2.7,0l0,0l-3.6-1.6l0-0.1l6.5,0.3l0,0l1.1,1.3l-0.1,0
				C98.7,153.4,98.2,153.4,97.6,153.4 M94.9,153.3c0.2,0,3.2,0.1,3.9,0l-1-1.1l-6.2-0.3L94.9,153.3z"/>
			<path class="st75" d="M98.8,153.3l-1-1.2l-6.5-0.3l3.6,1.6C94.9,153.3,98.4,153.4,98.8,153.3"/>
			<polygon class="st76" points="97.7,152 105.7,152 105.8,152.1 98.8,153.4 			"/>
			<polygon class="st76" points="105.7,152.1 105.5,152.1 97.8,152.1 98.8,153.3 			"/>
			<path class="st77" d="M82.1,150.1l3-2.6l3.7-1.6l2,4.7l-2,0.2c-1.6,0.6-4.4,0.6-5.5,0.6c-0.4,0-0.6,0-0.6,0l-1.4,0.5L82.1,150.1z
				"/>
			<path class="st77" d="M90.7,150.5l-2-4.6l-3.6,1.6l-3,2.6l-0.8,1.6l1.3-0.5c0,0,4,0.1,6.1-0.6L90.7,150.5z"/>
			<path class="st78" d="M91.2,151.8l2.1-1.4c0,0,1.3-0.2,3-0.2c1.4,0,2.7,0.1,3.9,0.4l0,0l1.2,1.5L91.2,151.8z"/>
			<path class="st78" d="M91.4,151.8l2-1.3c0,0,3.3-0.5,6.9,0.2l1.1,1.5L91.4,151.8z"/>
			<path class="st79" d="M100.3,150.7c0,0-1.5-0.3-4-0.3c-1,0-2,0-3,0.1l0-0.1l4.1-2.6l4.5-3.6L100.3,150.7L100.3,150.7z"/>
			<path class="st79" d="M101.8,144.4l-1.5,6.2c0,0-2.8-0.5-6.9-0.2l4.1-2.6L101.8,144.4z"/>
			<polygon class="st80" points="121.8,149.9 117,147.5 121,137.6 127.3,150.5 			"/>
			<polygon class="st80" points="117,147.5 121,137.7 127.2,150.5 121.8,149.9 			"/>
			<polygon class="st81" points="59.5,143.2 57.5,132.7 57.5,132.7 61.6,144.8 			"/>
			<polygon class="st81" points="57.5,132.7 61.5,144.7 59.5,143.1 			"/>
			<path class="st82" d="M61.5,144.7l4.7-28.8l0,0c0,0,1.5,0.1,2.4,0.7c0.9,0.6,3,1.9,3,1.9l0,0l3.5,29.8l-0.8,2.5l-3.9,0.8
				L61.5,144.7z"/>
			<path class="st82" d="M75.1,148.4l-3.5-29.8c0,0-2.1-1.3-3-1.9c-0.9-0.6-2.4-0.7-2.4-0.7l-4.7,28.7l9,6.9l3.8-0.8L75.1,148.4z"/>
			<path class="st83" d="M75.1,148.4L75.1,148.4l-3.6-29.9l0.1,0c3.6,1.5,9.1,3.6,9.5,3.4l0.1-0.1L75.1,148.4z M71.7,118.7l3.4,29.5
				l6-26.1c0,0,0,0,0,0C79.9,122,72.8,119.1,71.7,118.7"/>
			<path class="st83" d="M81.2,121.9l-6.1,26.4l-3.5-29.8C71.6,118.6,80.6,122.3,81.2,121.9"/>
			<polygon class="st84" points="81.2,121.8 86.9,141.5 80.2,144.6 75,148.5 			"/>
			<polygon class="st84" points="86.8,141.5 81.2,121.9 75.1,148.4 80.2,144.6 			"/>
			<path class="st85" d="M57.5,132.7c-2.7-10.4,0-21.4,0-21.5l0-0.2l6.5,19.1l-2.4,14.6l-0.1,0L57.5,132.7z"/>
			<path class="st85" d="M57.5,111.2c0,0-2.7,11,0,21.5l4,12l2.4-14.6L57.5,111.2z"/>
			<polygon class="st86" points="81.1,121.9 89.8,119.9 85.4,136.8 			"/>
			<polygon class="st86" points="89.7,119.9 81.2,121.9 85.4,136.6 			"/>
			<polygon class="st43" points="88.7,138.4 93.6,138.4 91.2,139.9 88.7,140.7 			"/>
			<polygon class="st43" points="88.8,140.6 88.8,138.5 93.4,138.5 91.2,139.9 			"/>
			<polygon class="st87" points="85.4,136.6 88.8,131.4 88.8,140.6 86.8,141.5 			"/>
			<polygon class="st87" points="88.8,131.6 85.4,136.6 86.8,141.5 88.8,140.6 88.8,138.5 			"/>
			<polygon class="st88" points="85.4,136.6 89.7,119.9 91.2,113.9 94.1,123.3 88.8,131.6 85.4,136.7 			"/>
			<polygon class="st88" points="94.1,123.3 88.8,131.6 85.4,136.6 89.7,119.9 91.2,114.1 			"/>
			<polygon class="st89" points="94.1,139.7 93.4,138.5 95.6,132.6 101.9,138.5 98.8,139.9 96.6,140.7 			"/>
			<polygon class="st89" points="93.4,138.5 95.6,132.7 101.8,138.5 98.7,139.9 96.6,140.6 94.1,139.7 			"/>
			<polygon class="st90" points="101.7,138.5 103.5,127.8 108.5,134.4 106.5,139.3 			"/>
			<polygon class="st90" points="106.5,139.2 108.4,134.4 103.5,127.9 101.8,138.5 			"/>
			<polygon class="st91" points="95.6,132.7 99.6,120.7 103.6,127.9 101.8,138.6 			"/>
			<polygon class="st91" points="99.6,120.8 95.6,132.7 101.8,138.5 103.5,127.9 			"/>
			<polygon class="st92" points="88.7,138.5 88.7,131.6 94.1,123.2 95.7,132.7 93.5,138.5 			"/>
			<polygon class="st92" points="94.1,123.3 95.6,132.7 93.4,138.5 88.8,138.5 88.8,131.6 			"/>
			<polygon class="st93" points="95.6,132.7 94,123.3 91.2,114.1 93.4,110 101.5,112.7 99.6,120.8 95.7,132.7 			"/>
			<polygon class="st93" points="99.6,120.8 101.5,112.8 93.4,110.1 91.2,114.1 94.1,123.3 95.6,132.7 			"/>
			<polygon class="st94" points="57.5,111.2 58.4,106.8 65.4,103.3 66.3,116 64,130.1 63.9,130.1 			"/>
			<polygon class="st94" points="58.4,106.8 57.5,111.2 63.9,130.1 66.2,116 65.3,103.4 			"/>
			<path class="st95" d="M81.2,122L81.2,122c-0.1,0-4.3-0.8-9.6-3.4l-0.1,0l3.9-1.8l0,0c0,0,4.4,0.3,5.6,0l0.1,0L81.2,122z
				 M71.7,118.6c4.9,2.3,8.9,3.2,9.4,3.3l-0.2-5c-1.3,0.2-5.2,0-5.5,0L71.7,118.6z"/>
			<path class="st95" d="M71.6,118.6l3.8-1.7c0,0,4.4,0.3,5.6,0l0.2,5.1C81.2,121.9,77,121.2,71.6,118.6"/>
			<polygon class="st96" points="80.9,116.8 89.9,119.9 81.1,122 			"/>
			<polygon class="st96" points="89.7,119.9 80.9,116.8 81.2,121.9 			"/>
			<path class="st97" d="M81.3,117c-0.9-0.3-0.9-0.3-0.9-0.3l0,0h0c0,0,0,0,0.5,0.1c0.2,0,0.4,0.1,0.7,0.1c1.8,0,5.5-0.9,5.5-0.9
				l4.1-1.9l-1.5,6L81.3,117z"/>
			<path class="st97" d="M87.1,116c0,0-4.9,1.2-6.2,0.8c-1.3-0.4,0.4,0.1,0.4,0.1l8.4,2.9l1.5-5.8L87.1,116z"/>
			<path class="st98" d="M71.6,118.6L71.6,118.6c-2.1-1.5-3.4-2.1-4.2-2.4c-0.8-0.3-1.2-0.2-1.2-0.2l0-0.1l4.6-1.9l0,0
				c0.6,1.2,4.5,2.7,4.6,2.7l0.1,0L71.6,118.6z M66.5,115.9c0.6,0,2.1,0.4,5.1,2.6l3.6-1.7c-0.6-0.3-3.9-1.6-4.5-2.7L66.5,115.9z"/>
			<path class="st98" d="M70.8,114.1l-4.5,1.9c0,0,1.3-0.3,5.4,2.6l3.8-1.7C75.4,116.8,71.4,115.3,70.8,114.1"/>
			<path class="st99" d="M91.2,114.2L91.2,114.2c0,0-4.2-2.6-4.7-2.9l0,0l0,0l3.8-6l3.2,4.9l0,0L91.2,114.2z M86.6,111.2
				c0.6,0.4,4.2,2.6,4.6,2.9l2.2-4l-3.1-4.7L86.6,111.2z"/>
			<path class="st99" d="M86.5,111.2l3.7-5.9l3.2,4.8l-2.2,4C91.2,114.1,87,111.5,86.5,111.2"/>
			<polygon class="st100" points="86.4,111.1 91.3,114.1 87.1,116.1 			"/>
			<polygon class="st100" points="87.1,116 86.5,111.2 91.2,114.1 			"/>
			<path class="st101" d="M87.1,115.9c-0.4-2.1-6.8-4.6-6.9-4.7l-0.1,0l2.6-1.6l0,0c0.9,0.4,3.8,1.5,3.8,1.5l0,0L87.1,115.9
				c0.1,0,0.1,0.1,0.1,0.1l-0.1,0L87.1,115.9z"/>
			<path class="st101" d="M80.2,111.2c0,0,6.8,2.7,6.9,4.8l-0.6-4.8c0,0-2.9-1.1-3.8-1.5L80.2,111.2z"/>
			<path class="st102" d="M76.4,110L76.4,110c1.2-0.3,6.1-0.4,6.3-0.4l0.2,0l-2.6,1.6l0,0c-0.4-0.2-0.9-0.3-1.4-0.3
				c-1.6,0-3.4,0.7-3.4,0.7L76.4,110z"/>
			<path class="st102" d="M75.4,111.6c0,0,3.1-1.2,4.8-0.4l2.5-1.5c0,0-5.1,0.1-6.3,0.4L75.4,111.6z"/>
			<path class="st103" d="M72.3,111.2c0.3-0.5,4-1.1,4.1-1.1l0.1,0l-1.1,1.7c-1,0.3-4.6,2.5-4.6,2.5l-0.1,0.1L72.3,111.2z"/>
			<path class="st103" d="M70.8,114.1c0,0,3.6-2.1,4.6-2.5l1-1.6c0,0-3.8,0.7-4.1,1.1L70.8,114.1z"/>
			<path class="st104" d="M66.1,114.1L66.1,114.1c0.2-0.1,4.6-2.9,6.1-2.9c0.1,0,0.1,0,0.2,0l0.1,0l-1.5,3l-4.6,2L66.1,114.1z"/>
			<path class="st104" d="M66.1,114.1c0,0,4.8-3.1,6.2-2.9l-1.5,2.9l-4.5,1.9L66.1,114.1z"/>
			<path class="st105" d="M66.1,114.2L66.1,114.2l-0.5-7.1l4.3-1.9l0,0l6.6,4.9l-0.1,0c-2.7,0.4-4.1,1.1-4.1,1.1l0,0
				C70,111.3,66.2,114.1,66.1,114.2L66.1,114.2z M65.7,107.2l0.5,6.8c0.5-0.4,4-2.8,6.1-2.9c0.1-0.1,1.5-0.7,4-1.1l-6.4-4.7
				L65.7,107.2z"/>
			<path class="st105" d="M76.4,110.1l-6.5-4.8l-4.3,1.9l0.5,7c0,0,3.8-2.8,6.2-2.9C72.3,111.2,73.7,110.5,76.4,110.1"/>
			<path class="st106" d="M76.4,110.1l-6.6-4.8l0-0.1c0.9,0.2,11,2.1,11.1,2.1l0,0l0,0l1.8,2.4l-0.1,0
				C80.4,109.6,76.4,110.1,76.4,110.1L76.4,110.1z M70.1,105.3l6.4,4.7c0.3,0,3.9-0.5,6.1-0.4l-1.6-2.2
				C80.5,107.3,71.7,105.6,70.1,105.3"/>
			<path class="st106" d="M82.7,109.7l-1.7-2.3c0,0-10.1-2-11.1-2.1l6.5,4.8C76.4,110.1,80.4,109.5,82.7,109.7"/>
			<polygon class="st107" points="82.6,109.7 80.8,107.3 87.8,109.2 86.5,111.2 			"/>
			<polygon class="st107" points="87.7,109.2 80.9,107.4 82.7,109.7 86.5,111.2 			"/>
			<polygon class="st108" points="65.3,103.4 71.1,100.6 69.9,105.3 65.6,107.2 			"/>
			<polygon class="st108" points="71,100.7 65.3,103.4 65.6,107.2 69.9,105.2 			"/>
			<polygon class="st109" points="69.8,105.3 71,100.6 77.5,106.8 			"/>
			<polygon class="st109" points="77.3,106.7 71,100.7 69.9,105.2 			"/>
			<polygon class="st110" points="77.3,106.7 71,100.7 71,100.6 82.2,103.5 81,107.4 			"/>
			<polygon class="st110" points="82.2,103.6 80.9,107.4 77.3,106.7 71,100.7 			"/>
			<polygon class="st111" points="82.1,103.5 86.6,104.7 80.9,107.5 			"/>
			<polygon class="st111" points="86.5,104.7 80.9,107.4 82.2,103.6 			"/>
			<polygon class="st112" points="80.8,107.4 86.5,104.6 87.8,109.3 			"/>
			<polygon class="st112" points="87.7,109.2 86.5,104.7 80.9,107.4 			"/>
			<polygon class="st113" points="86.4,104.6 90.3,105.2 87.7,109.4 			"/>
			<polygon class="st113" points="90.2,105.2 86.5,104.7 87.7,109.2 			"/>
			<polygon class="st114" points="111.2,144.5 106.4,139.2 108.4,134.3 117.1,147.5 117,147.5 			"/>
			<polygon class="st114" points="117,147.5 108.4,134.4 106.5,139.2 111.2,144.4 			"/>
			<polygon class="st115" points="108.4,134.4 111.7,116.9 121,137.7 117,147.6 			"/>
			<polygon class="st115" points="111.7,117 108.4,134.4 117,147.5 121,137.7 			"/>
			<path class="st116" d="M111.7,116.9l0.1,0c0.5,0.2,1.1,0.3,1.9,0.3c3.1,0,7.3-1.7,7.4-1.7l0.1,0v22.3l-0.1,0L111.7,116.9z"/>
			<path class="st116" d="M121,115.6c0,0-6.2,2.6-9.2,1.5l9.2,20.7V115.6z"/>
			<polygon class="st117" points="120.9,137.7 125,130 129.7,141.3 127.2,150.6 			"/>
			<polygon class="st117" points="125,130.1 121,137.7 127.2,150.5 129.7,141.3 			"/>
			<path class="st118" d="M129.7,141.4l-0.1-0.1l-4.7-11.2l0,0l8.5-10.3l0,0.1c0,0.1-0.3,7.3-0.4,8.4c-0.1,1.1-3.1,12.5-3.3,13
				L129.7,141.4z M125.1,130.1l4.6,11c0.3-1.3,3.1-11.9,3.2-12.9c0.1-1,0.4-7.2,0.4-8.2L125.1,130.1z"/>
			<path class="st118" d="M133.4,119.9l-8.4,10.2l4.7,11.2c0,0,3.1-11.9,3.2-13C133,127.2,133.4,119.9,133.4,119.9"/>
			<polygon class="st119" points="120.9,137.7 120.9,115.5 133.5,119.9 125,130.1 121,137.8 			"/>
			<polygon class="st119" points="121,115.6 133.4,119.9 125,130.1 121,137.7 			"/>
			<path class="st120" d="M103.5,128l-3.9-7.2l6.2-4.9l0,0c0,0,3.5,1.1,5.3,1.1c0.3,0,0.5,0,0.7-0.1l0.1,0l-3.3,17.6L103.5,128z"/>
			<path class="st120" d="M99.6,120.8l6.2-4.8c0,0,4.7,1.5,6,1l-3.3,17.4l-4.9-6.4L99.6,120.8z"/>
			<polygon class="st121" points="101.4,112.7 105.8,116 99.5,120.9 			"/>
			<polygon class="st121" points="101.5,112.8 105.7,116 99.6,120.8 			"/>
			<polygon class="st122" points="120.9,115.6 124,113.6 132.5,109.6 133.4,120 			"/>
			<polygon class="st122" points="124.1,113.6 121,115.6 133.4,119.9 132.5,109.7 			"/>
			<polygon class="st123" points="93.4,110.1 90.2,105.3 91.4,102.6 104.5,104 101.5,112.8 			"/>
			<polygon class="st123" points="104.5,104 103.8,106 101.5,112.8 93.4,110.1 90.2,105.2 91.4,102.7 			"/>
			<polygon class="st124" points="104.5,103.9 106.5,110.1 101.4,112.9 			"/>
			<polygon class="st124" points="106.5,110.1 101.5,112.8 104.5,104 			"/>
			<polygon class="st125" points="101.4,112.8 106.5,110 106.5,110.1 103.5,114.3 			"/>
			<polygon class="st125" points="103.5,114.3 101.5,112.8 106.5,110.1 			"/>
			<polygon class="st126" points="106.4,110 114.2,111.6 114.2,111.7 108.8,112.9 			"/>
			<polygon class="st126" points="114.2,111.6 108.8,112.8 106.5,110.1 			"/>
			<path class="st127" d="M114.2,111.7L114.2,111.7l-7.7-1.6l0-0.1c0,0,4.1-0.5,9.4,0l0.1,0L114.2,111.7z M106.8,110.1l7.4,1.5
				l1.6-1.5C111.3,109.7,107.8,110,106.8,110.1"/>
			<path class="st127" d="M115.9,110.1l-1.7,1.6l-7.7-1.6C106.5,110.1,110.5,109.5,115.9,110.1"/>
			<path class="st128" d="M120.9,115.6c0,0-0.2-1.2-0.9-1.9l0,0v-2.5l4.1,2.5L120.9,115.6L120.9,115.6z"/>
			<path class="st128" d="M121,115.6c0,0-0.2-1.2-0.9-2v-2.4l4,2.4L121,115.6z"/>
			<path class="st129" d="M120,113.6c-1.2-1.3-3-1.5-3-1.5l0-0.1l3.1-0.9L120,113.6L120,113.6z"/>
			<path class="st129" d="M117,112.1c0,0,1.9,0.2,3.1,1.5v-2.4L117,112.1z"/>
			<path class="st130" d="M114.1,111.7l1.8-1.7l0,0c0,0,2.8,0.7,4.2,1.1l0.1,0l-3.2,1L114.1,111.7z"/>
			<path class="st130" d="M115.9,110.1c0,0,2.8,0.7,4.2,1.1l-3.1,0.9l-2.8-0.4L115.9,110.1z"/>
			<polygon class="st131" points="105.6,116 107.6,114 110.3,117.1 			"/>
			<polygon class="st131" points="110.1,117 107.6,114.1 105.7,116 			"/>
			<polygon class="st132" points="120,111.2 123,107.6 128.4,111.6 124.1,113.6 			"/>
			<polygon class="st132" points="128.3,111.6 123,107.7 120.1,111.2 124.1,113.6 			"/>
			<path class="st133" d="M120.1,111.2c0,0-3.6-1-4.2-1.1c0,0-3.2-0.2-5.9-0.2c-1.6,0-2.8,0.1-3.4,0.2l-0.1,0v-0.4l0,0
				c0.1,0,10.9-2.2,15.3-2.2c0.5,0,1,0,1.3,0.1l0.1,0L120.1,111.2L120.1,111.2z"/>
			<path class="st133" d="M106.5,109.8c0,0,13.6-2.7,16.6-2.1l-3,3.5c0,0-3.6-1-4.2-1.1c0,0-7.1-0.6-9.4,0V109.8z"/>
			<polygon class="st134" points="104.4,103.9 113.9,108.5 106.4,109.8 			"/>
			<polygon class="st134" points="104.5,104 113.8,108.5 106.5,109.8 			"/>
			<polygon class="st135" points="107.7,105.6 117.1,103.9 113.8,108.6 			"/>
			<polygon class="st135" points="117,104 113.8,108.5 107.8,105.6 			"/>
			<path class="st136" d="M113.7,108.6l3.3-4.6l0,0l6,3.7l0,0.1c-3.2-0.3-9.2,0.8-9.3,0.8L113.7,108.6z M117,104.1l-3.2,4.3
				c0.8-0.1,6-1,9-0.8L117,104.1z"/>
			<path class="st136" d="M123,107.7l-6-3.7l-3.3,4.5C113.8,108.5,119.8,107.4,123,107.7"/>
			<path class="st137" d="M123,107.8L123,107.8l-6.2-3.8l0.1,0c0.1,0,5.7-0.4,8.3,0.7l0.1,0l0,0L123,107.8z M117.2,104.1l5.9,3.6
				l2.2-2.9C122.9,103.7,118.1,104,117.2,104.1"/>
			<path class="st137" d="M125.3,104.7l-2.3,3l-6-3.7C117,104,122.7,103.6,125.3,104.7"/>
			<polygon class="st138" points="125.3,104.6 129.3,107.7 122.9,107.8 			"/>
			<polygon class="st138" points="129.2,107.6 125.3,104.7 123,107.7 			"/>
			<polygon class="st139" points="122.9,107.7 129.2,107.6 132.6,109.7 128.3,111.7 			"/>
			<polygon class="st139" points="132.5,109.7 129.2,107.6 123,107.7 128.3,111.6 			"/>
			<polygon class="st140" points="129.2,107.7 125.3,104.7 132.5,96.8 132.5,109.8 			"/>
			<polygon class="st140" points="132.5,96.9 125.3,104.7 129.2,107.6 132.5,109.7 			"/>
			<path class="st141" d="M109.5,80L109.5,80c0.2,0.1,9.1,3.7,11.7,5.5l0,0l4.2,19.3l-0.1,0c0,0-2-0.8-5.9-0.8c-0.8,0-1.6,0-2.4,0.1
				l-9.2,1.6L109.5,80z"/>
			<path class="st141" d="M107.8,105.6l1.7-25.6c0,0,9,3.6,11.6,5.5l4.2,19.2c0,0-2.7-1.1-8.3-0.7L107.8,105.6z"/>
			<path class="st142" d="M121.1,85.4L121.1,85.4c5.4,2.9,11.4,11.4,11.4,11.5l0,0l-7.2,7.9L121.1,85.4z"/>
			<path class="st142" d="M132.5,96.9c0,0-6-8.6-11.3-11.4l4.2,19.2L132.5,96.9z"/>
			<path class="st143" d="M104.4,104.1L95.5,78l0.1,0c0.5,0,13.1,0.9,14,2l0,0l-1.7,25.7L104.4,104.1z"/>
			<path class="st143" d="M104.5,104l-8.9-26c0,0,13,0.8,14,2l-1.7,25.6L104.5,104z"/>
			<polygon class="st144" points="91.3,102.7 95.6,78 95.7,78 104.5,104.1 			"/>
			<polygon class="st144" points="91.4,102.7 95.6,78 104.5,104 			"/>
			<path class="st145" d="M79.3,81.4L79.3,81.4c0.1-0.1,9.5-3.6,14.8-3.6c0.6,0,1.1,0,1.5,0.1l0,0l-4.2,24.7l-1.2,2.7L79.3,81.4z"/>
			<path class="st145" d="M79.4,81.5c0,0,11.5-4.3,16.2-3.4l-4.2,24.7l-1.2,2.6L79.4,81.5z"/>
			<polygon class="st146" points="86.5,104.7 76.2,102.1 79.4,81.3 90.3,105.3 			"/>
			<polygon class="st146" points="76.3,102 79.4,81.5 90.2,105.2 86.5,104.7 			"/>
			<path class="st147" d="M71,100.7l-5.4-12.2l0,0c0.1-0.1,9.9-6,13.8-7.1l0.1,0l-3.1,20.7L71,100.7z"/>
			<path class="st147" d="M71,100.7l-5.4-12.1c0,0,9.8-6,13.8-7.1L76.3,102L71,100.7z"/>
			<polygon class="st148" points="56.7,98.4 71.2,100.6 58.4,106.9 			"/>
			<polygon class="st148" points="58.4,106.8 56.8,98.4 71,100.7 			"/>
			<path class="st144" d="M56.7,98.5L56.7,98.5c-0.9-4.8,8.8-10,8.9-10l0,0l5.5,12.3L56.7,98.5z"/>
			<path class="st144" d="M65.6,88.5c0,0-9.8,5.1-8.8,9.9l14.2,2.2L65.6,88.5z"/>
			<path class="st149" d="M77,117l-1.6-0.1c-0.2-0.1-4.3-1.8-4.6-2.8l0,0l0,0c0.2-0.1,4.3-2.4,4.6-2.5l0.1,0l0,0.1
				C75.4,111.7,74,115.3,77,117L77,117z M75.4,116.8l1.4,0.1c-2.6-1.5-1.7-4.5-1.5-5.1c-0.7,0.3-4.1,2.2-4.5,2.4
				C71.2,115.1,75.2,116.7,75.4,116.8"/>
			<path class="st149" d="M75.4,111.6c0,0-1.5,3.7,1.6,5.3l-1.6-0.1c0,0-4.3-1.7-4.6-2.7C70.8,114.1,75.1,111.7,75.4,111.6"/>
			<path class="st150" d="M82.2,116.9L82.2,116.9c2.4-0.6,1.8-3.9,1.8-3.9l0-0.1l0.1,0.1c3.1,1.8,3.1,3,3.1,3v0l0,0L82.2,116.9z
				 M84.1,113.1c0.1,0.5,0.3,2.8-1.3,3.6l4.3-0.8c0-0.1-0.1-0.4-0.4-0.8C86.4,114.8,85.6,114,84.1,113.1"/>
			<path class="st150" d="M84,113c0,0,0.6,3.3-1.9,3.9l5-0.9C87.1,116,87.1,114.8,84,113"/>
			<path class="st151" d="M80.4,117L80.4,117c2-2.4,1.9-3.9,1.9-4.5c0-0.2,0-0.3,0-0.3c0,0,0.1,0,0.1,0l0,0c0.4,0.1,1.6,0.8,1.6,0.9
				l0,0l0,0c0.5,3-1.6,3.8-1.6,3.9l0,0L80.4,117z M82.4,112.2L82.4,112.2c0,0,0,0.1,0,0.2c0,0.6,0.1,2.1-1.8,4.4l1.9-0.1
				c0.1,0,0.5-0.2,1-0.8c0.4-0.5,0.8-1.4,0.6-3C83.8,113,82.7,112.3,82.4,112.2C82.4,112.2,82.4,112.2,82.4,112.2"/>
			<path class="st151" d="M82.4,112.2c-0.3-0.1,0.7,1.6-1.9,4.7l2-0.1c0,0,2.1-0.8,1.6-3.8C84,113,82.8,112.3,82.4,112.2"/>
			<path class="st152" d="M115.9,117.1L115.9,117.1c1-0.8,1.5-1.9,1.5-3.2c0-1-0.4-1.7-0.4-1.8l0-0.1l0.1,0c3.5,0.6,4,3.5,4,3.5l0,0
				l0,0C119.7,116.5,116,117,115.9,117.1 M117.1,112.1c0.1,0.2,0.3,0.9,0.4,1.7c0,0.9-0.2,2.1-1.4,3.1c0.8-0.1,3.7-0.7,4.9-1.4
				C120.9,115.2,120.3,112.7,117.1,112.1"/>
			<path class="st152" d="M117,112.1c0,0,1.5,3.1-1.1,4.9c0,0,3.8-0.6,5.1-1.5C121,115.6,120.5,112.7,117,112.1"/>
			<path class="st153" d="M113.2,117.3c-0.3,0-0.5,0-0.7-0.1l0,0c0,0-3.1-2.1-1.8-4.9l0,0l0,0l3.3-0.8l0,0l2.9,0.5l0,0
				c0,0,0.4,0.8,0.4,1.8c0,0.9-0.2,2.2-1.6,3.2l0,0C115.8,117.1,114.3,117.3,113.2,117.3 M112.6,117.2c0.8,0.2,3.1-0.2,3.2-0.2
				c1-0.7,1.5-1.7,1.5-3.1c0-0.9-0.3-1.6-0.4-1.8l-2.8-0.4l-3.3,0.7c-0.5,1.1-0.4,2.3,0.4,3.4C111.8,116.6,112.5,117.1,112.6,117.2"
				/>
			<path class="st153" d="M112.6,117.2c0,0-3.1-2-1.7-4.8l3.3-0.7l2.8,0.4c0,0,1.4,3.2-1.1,4.9C115.9,117,113.4,117.4,112.6,117.2"
				/>
			<path class="st154" d="M111.7,117.1l-1.6,0l-2.6-3l1.3-1.3l2.2-0.5l0,0.1c-1.4,2.6,1.7,4.8,1.7,4.8l0,0.1L111.7,117.1z"/>
			<path class="st154" d="M108.8,112.8l-1.2,1.3l2.5,2.9h1.6l0.8,0.2c0,0-3.1-2.1-1.7-4.8L108.8,112.8z"/>
			<polygon class="st155" points="54.5,108.5 56.7,97.7 56.8,97.7 58.4,106.8 57.2,113 			"/>
			<polygon class="st155" points="57.2,112.8 54.5,108.5 55,106.3 56.7,97.7 58.4,106.8 			"/>
			<path class="st156" d="M54.6,107.7l-1.8-11.3l5.6-2.4l0.1,0.1c0,0-1.8,2.2-1.6,4c0.1,0.8,0.1,0.8,0,0.8l0,0c0,0,0,0,0,0
				c0,0-0.1,0-0.1-0.7L54.6,107.7L54.6,107.7z"/>
			<path class="st156" d="M54.7,107.7l-1.8-11.3l5.6-2.4c0,0-1.8,2.2-1.6,4s-0.1-0.2-0.1-0.2L54.7,107.7z"/>
			<path class="st157" d="M50.9,110.1l-2.2,1.6l0.7-2.5c0.6-1.3,1.4-2,2.5-2c1.4,0,2.7,1.2,2.7,1.3l2.7,4.4l-0.7,5.1L50.9,110.1z"/>
			<path class="st157" d="M54.5,108.5c0,0-3.3-3.2-5,0.7l-0.7,2.4l2.1-1.6l1.8,2.4l3.8,5.3l0.7-4.9L54.5,108.5z"/>
			<polygon class="st158" points="49.1,121.4 50,110.7 50.9,110 52.4,112.1 49.2,121.4 			"/>
			<polygon class="st158" points="49.1,121.4 52.3,112.1 50.9,110.1 50,110.7 			"/>
			<path class="st159" d="M56.9,130.1l-3.3-6.8l0,0l2.8-5.5l0.1,0C56,125.7,57,130.1,56.9,130.1L56.9,130.1z M53.7,123.3l3.1,6.5
				c-0.1-0.5-0.2-1.4-0.4-2.8c-0.2-1.9-0.3-4.9-0.1-9L53.7,123.3z"/>
			<path class="st159" d="M56.5,117.8l-2.8,5.5l3.3,6.8C56.9,130.1,55.9,125.8,56.5,117.8"/>
			<path class="st160" d="M59,140.9c-0.7,0-4.3-0.3-6.7-5.7l1.9-10.9l2.8,5.8l2.1,10.8L59,140.9C59.1,140.9,59.1,140.9,59,140.9"/>
			<path class="st160" d="M59.1,140.9c0,0-4.1,0.3-6.7-5.7l1.9-10.7l2.7,5.6L59.1,140.9z"/>
			<path class="st161" d="M52.3,135.2c-1.4-0.9-4.2-11.5-4.3-11.9l0-0.1h5.7l0.6,1.2L52.3,135.2L52.3,135.2z"/>
			<path class="st161" d="M48,123.3c0,0,2.9,11,4.3,11.9l1.9-10.7l-0.6-1.2H48z"/>
			<polygon class="st162" points="48,123.3 49.1,121.4 52.3,112 56.5,117.8 53.7,123.3 			"/>
			<polygon class="st162" points="49.1,121.4 48,123.3 53.7,123.3 56.5,117.8 52.3,112.1 			"/>
			<path class="st163" d="M48,123.3c-0.9-3.2,0.7-11.6,0.8-11.7l0,0l1.3-1l-0.9,10.8l-1.2,2L48,123.3z"/>
			<path class="st163" d="M48.8,111.6c0,0-1.7,8.4-0.8,11.7l1.1-1.9l0.9-10.7L48.8,111.6z"/>
			<polygon class="st164" points="132.8,113.9 132.4,109.7 132.4,96.8 136.4,99.5 132.9,114 			"/>
			<polygon class="st164" points="132.9,113.9 136.3,99.5 132.5,96.9 132.5,109.7 			"/>
			<path class="st165" d="M133.3,119.9l-0.5-6l1.3-5.5l0,0c0.2-0.1,0.5-0.2,0.7-0.2c0.6,0,1.1,0.3,1.5,1c1.2,1.7,1.7,5.2,1.5,5.7
				c-0.1,0.2-0.2,0.5-0.3,0.9c-0.5,1.6-0.6,2-0.7,2c-0.1,0-0.1-0.1-0.1-0.2c0-0.9-0.8-5.8-1.1-6c0,0.1-0.3,0.7-1.6,5.6
				C133.7,118.7,133.4,119.9,133.3,119.9L133.3,119.9z"/>
			<path class="st165" d="M133.4,119.9c0,0,0.3-1.2,0.7-2.7c0.6-2.4,1.5-5.6,1.6-5.6c0.3,0.1,1.1,5.2,1.1,6.1c0,0.8,0.8-2,1-2.7
				c0.3-0.7-0.9-7.8-3.7-6.5l-1.3,5.5L133.4,119.9z"/>
			<path class="st166" d="M134,117.2l1.7-5.7l0.1,0.1c0,0,0.2,0.2,0.4,1.4c0.2,1.2,0.7,4.6,0.7,4.7l-0.6,7.5l-0.1,0L134,117.2z"/>
			<path class="st166" d="M136.2,125.2l-2.1-8l1.6-5.6c0,0,0.2,0.2,0.4,1.4c0.2,1.2,0.7,4.7,0.7,4.7L136.2,125.2z"/>
			<path class="st167" d="M131.3,135.2L131.3,135.2c-0.1-0.1,1.6-6.9,1.6-7.3c0-0.3,0.4-7.9,0.4-8l0.7-2.9l0,0.2l2.1,8l0,0
				L131.3,135.2z M134.1,117.4l-0.6,2.5c0,0.1-0.4,7.7-0.4,8c0,0.3-1.2,5.3-1.6,6.8l4.7-9.6L134.1,117.4z"/>
			<path class="st167" d="M131.3,135.2l4.9-10l-2.1-8l-0.7,2.7c0,0-0.4,7.7-0.4,8C132.9,128.3,131.3,135.2,131.3,135.2"/>
			<path class="st168" d="M130.4,138.5l0.9-3.3l4.9-10l0.6-7.5l1-2.7l0.1,0l-0.6,10.4c0,0.2-0.6,5.3-1,6.2
				C135.8,132.6,130.7,138.3,130.4,138.5L130.4,138.5z"/>
			<path class="st168" d="M130.4,138.5c0,0,5.4-5.9,5.8-6.9c0.4-1,1-6.2,1-6.2l0.6-10.4l-1,2.7l-0.6,7.5l-4.9,10L130.4,138.5z"/>
			<path class="st169" d="M132.5,97l-2.5-3.1l0.8-6.3l0.1,0.1c0,0.1,4.1,6.7,4.6,8.2c0.5,1.5,0.9,3.7,0.9,3.7l0,0.1L132.5,97z"/>
			<path class="st169" d="M130,93.8l0.8-6.2c0,0,4.1,6.6,4.6,8.2c0.5,1.5,0.9,3.7,0.9,3.7l-3.8-2.6L130,93.8z"/>
			<path class="st170" d="M130.1,94L130.1,94c-0.1-0.2-4.9-6.5-8.9-8.4l0-0.1l9.7,2.2L130.1,94z M121.5,85.6c3.7,2,7.9,7.3,8.5,8.1
				l0.8-6L121.5,85.6z"/>
			<path class="st170" d="M121.2,85.5l9.7,2.2l-0.8,6.2C130,93.8,125.2,87.5,121.2,85.5"/>
			<path class="st171" d="M121.1,85.5c-2.7-1.7-11.5-5.4-11.6-5.5l0,0l0.8-7.3h0.2c0.2,0,9.6,3.7,10.7,4.1l0,0L121.1,85.5
				L121.1,85.5z"/>
			<path class="st171" d="M110.3,72.8l-0.8,7.2c0,0,8.9,3.8,11.6,5.5v-8.6c0,0-10.5-4.1-10.7-4.1H110.3z"/>
			<path class="st170" d="M121.1,85.5v-8.7l0.1,0c2.9,1.5,10.3,8.1,10.3,8.2l0,0l-0.7,2.7L121.1,85.5z"/>
			<path class="st170" d="M130.8,87.7l0.7-2.6c0,0-7.4-6.6-10.3-8.2v8.6L130.8,87.7z"/>
			<path class="st172" d="M109.6,80.1L109.6,80.1c-0.8-0.5-4.7-1.6-14-2.1l0-0.1l14.8-5.2l0,0.1L109.6,80.1z M95.9,78
				c10.5,0.5,13.2,1.7,13.7,2l0.8-7.1L95.9,78z"/>
			<path class="st172" d="M95.6,78l14.7-5.2l-0.8,7.2C109.6,80,107.4,78.6,95.6,78"/>
			<path class="st173" d="M95.6,78.1L95.6,78.1l-10.3-4.5l0.1,0c7.4-2.2,13.8-2.3,17.9-2c4.4,0.3,7.1,1.2,7.1,1.2l0.1,0L95.6,78.1z
				 M85.5,73.6L95.6,78l14.6-5.2c-0.6-0.2-3.1-0.9-6.9-1.2C99.2,71.3,92.9,71.4,85.5,73.6"/>
			<path class="st173" d="M85.4,73.6L95.6,78l14.7-5.2C110.3,72.8,99.8,69.3,85.4,73.6"/>
			<path class="st174" d="M79.3,81.6l6.1-8.1l0,0L95.6,78l0,0.1c0,0-3.9-1-16.2,3.4L79.3,81.6z M85.4,73.6l-5.9,7.7
				c10.2-3.6,14.5-3.6,15.7-3.5L85.4,73.6z"/>
			<path class="st174" d="M79.4,81.5l6-7.9L95.6,78C95.6,78,91.9,77,79.4,81.5"/>
			<path class="st175" d="M65.6,88.6L65.6,88.6l5.3-8.9l0,0c0,0,3.6-1.6,7.2-3.1c7.2-3.1,7.2-3.1,7.3-3l0,0l0,0
				c-0.6,0.8-6,7.9-6,7.9l0,0l0,0c0,0-0.9,0.3-3.1,1.2C74.4,83.7,70.9,85.4,65.6,88.6 M71,79.7l-5.3,8.6c5.2-3.1,8.6-4.8,10.5-5.7
				c2-0.9,2.9-1.2,3.1-1.2c0.2-0.3,5-6.6,5.9-7.8C84.1,74.1,75.6,77.8,71,79.7"/>
			<path class="st175" d="M65.6,88.5l5.4-8.8c0,0,14.5-6.3,14.4-6.1c-0.6,0.8-6,7.9-6,7.9S75.8,82.4,65.6,88.5"/>
			<path class="st176" d="M52.8,96.4c0.1-0.1,8.6-13.2,18.2-16.7l0.1,0l-5.5,8.9c-0.1,0-5.3,2.9-7.2,5.5l-5.7,2.5L52.8,96.4z"/>
			<path class="st176" d="M52.8,96.4c0,0,8.5-13.1,18.2-16.7l-5.4,8.8c0,0-5.3,2.9-7.2,5.5L52.8,96.4z"/>
			<path class="st169" d="M136.4,99.5L136.4,99.5c-0.1,0-0.5-1.6-0.8-3.1c-0.4-1.5-4.7-8.7-4.8-8.7l0,0l0,0l0.7-2.6l0,0
				c1.2-0.3,6.1,8.4,6.4,8.8l0,0l0,0L136.4,99.5z M130.9,87.7c0.3,0.5,4.4,7.2,4.8,8.7c0.3,1.2,0.6,2.5,0.7,2.9l1.4-5.5
				c-0.1-0.2-1.4-2.4-2.7-4.5c-2.3-3.6-3.2-4.2-3.5-4.2c0,0,0,0,0,0L130.9,87.7z"/>
			<path class="st169" d="M136.3,99.5l1.5-5.7c0,0-5.1-9.1-6.3-8.8l-0.7,2.6c0,0,4.4,7.2,4.8,8.7C136,98,136.3,99.5,136.3,99.5"/>
			<path class="st177" d="M137.8,93.7L137.8,93.7c1.6,2.1,2.1,4,1.7,5.9c-0.8,3.3-4.3,5.1-4.3,5.1l-0.1,0L137.8,93.7z"/>
			<path class="st177" d="M135.1,104.7c0,0,7.8-4,2.7-10.9L135.1,104.7z"/>
			<path class="st178" d="M139.5,99.4l0-0.2c0,0,0.3-3-1.7-5.4c-0.1-0.1-4.8-8.7-6.2-8.7c0,0,0,0,0,0l-0.1,0l1.4-4.2l0.1,0.1l6,11.2
				c0,0,0.5,1.4,0.8,2.9c0.4,2.1,0.4,3.5-0.2,4.1L139.5,99.4z M131.6,85c1.6,0.2,6.1,8.4,6.3,8.8c1.7,2.1,1.8,4.6,1.7,5.3
				c1-1.7-0.7-6.8-0.7-6.8l-6-11.1L131.6,85z"/>
			<path class="st178" d="M131.5,85.1l1.4-4l6,11.2c0,0,1.9,5.4,0.6,7c0,0,0.3-3-1.7-5.4C137.8,93.8,133,85,131.5,85.1"/>
			<path class="st179" d="M131.5,85.2L131.5,85.2c-4.3-4.2-10.3-8.2-10.4-8.2l0,0l0,0l0.4-12.1h0c2.4,0,11,15.5,11.3,16.2l0,0l0,0
				L131.5,85.2z M121.2,76.9c0.4,0.3,6.1,4.1,10.3,8.1l1.3-3.9c-0.3-0.6-8.8-15.9-11.2-16.1L121.2,76.9z"/>
			<path class="st179" d="M121.6,64.9l-0.4,12c0,0,6,4,10.3,8.2l1.4-4C132.9,81,124,64.9,121.6,64.9"/>
			<path class="st180" d="M121.2,77L121.2,77c-0.2-0.1-10.4-4-10.9-4.1c-0.1,0-0.1-0.1-0.2-0.1c-0.6-0.2-2-0.8-9.1-1.3l0-0.1
				l20.7-6.6L121.2,77z M101.2,71.4c6.9,0.5,8.3,1,8.9,1.3c0.1,0,0.2,0.1,0.2,0.1c0.5,0.2,9.8,3.7,10.8,4.1l0.4-11.9L101.2,71.4z"/>
			<path class="st180" d="M101,71.4l20.6-6.5l-0.4,12c0,0-10.3-4-10.8-4.1C109.8,72.6,109.2,72,101,71.4"/>
			<path class="st181" d="M101,71.5L101,71.5l-7.2-16l0.1,0c5.4-0.5,12.7,2.1,17.8,4.3c5.6,2.5,9.9,5.1,9.9,5.1l0.1,0.1l-0.1,0
				L101,71.5z M93.9,55.5l7.1,15.8l20.5-6.5c-0.7-0.4-4.7-2.8-9.8-5C106.5,57.6,99.3,55,93.9,55.5"/>
			<path class="st181" d="M93.8,55.5l7.1,15.9l20.6-6.5C121.6,64.9,104.3,54.5,93.8,55.5"/>
			<path class="st182" d="M85.4,73.6C85.4,73.6,85.4,73.6,85.4,73.6c-0.1-0.1-0.3-0.2,4.1-9.2c2.1-4.4,4.3-8.9,4.3-8.9l0-0.1
				l7.2,16.1l-0.1,0C100.9,71.5,90.6,71.6,85.4,73.6C85.4,73.6,85.4,73.6,85.4,73.6 M85.4,73.5L85.4,73.5L85.4,73.5z M93.8,55.6
				c-3.4,6.9-8.3,17.1-8.4,17.9c4.9-1.9,14.6-2.1,15.5-2.1L93.8,55.6z"/>
			<path class="st182" d="M85.4,73.6c-0.6,0.2,8.4-18.1,8.4-18.1l7.1,15.9C101,71.4,90.6,71.5,85.4,73.6"/>
			<path class="st183" d="M71.7,62.7L71.7,62.7c0.2-0.1,12-7.6,19.5-7.6c1,0,1.8,0.1,2.6,0.4l0.1,0l0,0c-0.1,0.2-8.2,16.4-8.4,18.1
				l0,0.1L71.7,62.7z"/>
			<path class="st183" d="M71.8,62.7c0,0,15-9.6,22-7.2c0,0-8.2,16.4-8.4,18.1L71.8,62.7z"/>
			<path class="st184" d="M61.8,72.4L61.8,72.4c0.3-0.5,9-9.1,10-9.7l0,0l13.7,11L61.8,72.4z"/>
			<path class="st184" d="M61.9,72.4c0.2-0.3,8.9-9,9.9-9.7l13.6,10.8L61.9,72.4z"/>
			<path class="st185" d="M62.7,85.1l0-0.1l-0.8-12.6l0.1,0l23.5,1.2l0,0.1c-0.1,0-7.5,3.1-14.4,6.1C68.3,80.9,64.7,83,62.7,85.1
				L62.7,85.1z M62,72.4l0.8,12.4c2-2,5.6-4,8.2-5.2c6.3-2.8,13-5.6,14.2-6.1L62,72.4z"/>
			<path class="st185" d="M62.7,85l-0.8-12.6l23.5,1.2c0,0-7.4,3-14.4,6.1C68,81,64.6,83.1,62.7,85"/>
			<path class="st186" d="M52.8,96.4l2.8-12.6c0.1-0.5,3-10.7,6.3-11.5l0.1,0L62.8,85l0,0C62.7,85.1,56.3,91,52.8,96.4L52.8,96.4z"
				/>
			<path class="st186" d="M55.6,83.8c0.1-0.7,3-10.7,6.3-11.4L62.7,85c0,0-6.4,5.9-9.9,11.4L55.6,83.8z"/>
			<path class="st187" d="M50,96.4c0.1-0.4,3.4-11,5.3-11.5l0.1,0l-2.1,9.7L50,96.5L50,96.4z"/>
			<path class="st187" d="M50,96.4c0,0,3.4-11,5.3-11.4l-2.1,9.6L50,96.4z"/>
			<path class="st188" d="M54.5,108.5c-0.2-0.5-4.7-11.4-4.5-12.1l0,0l0,0l3.3-1.9l-0.4,1.9l1.8,11.3l-0.1,0l-1.8-11.3l0.4-1.7
				l-3.1,1.8C50,97.1,52.9,104.6,54.5,108.5L54.5,108.5z"/>
			<path class="st188" d="M54.5,108.5c0,0-4.7-11.3-4.5-12.1l3.2-1.8l-0.4,1.8l1.8,11.3"/>
			<polygon class="st189" points="90.7,150.5 88.7,145.9 91,144.6 94.4,145.8 97.5,147.9 93.3,150.5 			"/>
			<polygon class="st189" points="90.7,150.5 93.3,150.5 97.4,147.9 94.4,145.9 91,144.7 88.8,145.9 			"/>
			<path class="st190" d="M91.2,151.8c-0.4,0-1.4-0.2-1.9-0.3c0,0-0.1,0-0.1,0c-0.1,0-0.3,0-0.6,0.1c-0.2,0-0.5,0.1-0.8,0.1
				c-0.2,0-0.3,0-0.4,0c-0.2,0-0.2,0-1,0c-1.1,0-3.8-0.5-3.8-0.5l0-0.1c0.2,0,0.4,0,0.7,0c4.1,0,5.4-0.6,5.4-0.6l2-0.2h2.8l-2.2,1.4
				C91.3,151.8,91.2,151.8,91.2,151.8"/>
			<path class="st190" d="M93.3,150.5h-2.6l-2,0.2c0,0-1.4,0.7-6.1,0.6c0,0,2.8,0.5,3.8,0.5c1.1,0,0.7,0,1.4-0.1
				c0.6-0.1,1.2-0.2,1.4-0.2c0.2,0,1.7,0.3,2,0.3L93.3,150.5z"/>
			<path class="st191" d="M77,117c0,0-3.1-1.5-1.7-5.3l0,0l0,0c0,0,1.6-0.7,3.3-0.7c0.6,0,1.1,0.1,1.5,0.2l2.2,1l0,0
				c0,0,0.1,2.6-1.9,4.8l0,0L77,117L77,117z"/>
			<path class="st191" d="M77,116.9c0,0-3.1-1.4-1.6-5.3c0,0,2.7-1.1,4.8-0.4l2.2,1c0,0,0.1,2.5-1.9,4.7L77,116.9z"/>
			<path class="st192" d="M79.3,113.6c-0.1,0-0.2,0-0.3-0.1c-0.1,0-0.7-0.3-0.8-0.9c0,0,0-0.3,0.1-0.5c0.1-0.1,0.4-0.2,0.6-0.2
				c0.5,0,0.8,0.2,0.9,0.4c0.1,0.2,0.2,0.4,0.2,0.5c0,0.2-0.3,0.5-0.6,0.7C79.5,113.5,79.4,113.6,79.3,113.6 M78.9,112.1
				c-0.2,0-0.4,0.1-0.5,0.2c-0.1,0.2-0.1,0.4-0.1,0.4c0.1,0.5,0.7,0.8,0.7,0.8l0,0c0.1,0.1,0.3,0.1,0.5,0c0.3-0.1,0.5-0.4,0.5-0.6
				c0-0.1,0-0.3-0.2-0.4c-0.1-0.1-0.4-0.3-0.8-0.4C79,112.1,78.9,112.1,78.9,112.1"/>
			<path class="st192" d="M79,113.4c0,0-0.7-0.3-0.7-0.8c0,0-0.1-0.7,0.7-0.6c0.8,0.1,1.1,0.6,1,0.8C80,113.1,79.5,113.8,79,113.4"
				/>
			<path class="st192" d="M115.2,113.6l-1.4-0.2l0,0c-0.1-0.3-0.3-0.9-0.2-1c0.1-0.1,1.8-0.1,2,0c0.1,0,0.1,0.1,0.1,0.3
				C115.6,112.9,115.5,113.5,115.2,113.6L115.2,113.6z M113.9,113.3l1.3,0.2c0.2-0.1,0.3-0.6,0.3-0.9c0-0.2,0-0.2,0-0.2
				c-0.2-0.1-1.7-0.1-1.9,0C113.6,112.5,113.7,112.9,113.9,113.3"/>
			<path class="st192" d="M115.2,113.6l-1.4-0.2c0,0-0.3-0.9-0.2-1c0.1-0.1,1.7-0.1,1.9,0C115.7,112.5,115.5,113.5,115.2,113.6"/>
			<path class="st193" d="M111.7,116.5l2.5-1.6l2.9,0.8l0,0c0.1,0.4-1,1.2-1.2,1.3l-3.3,0.2L111.7,116.5z"/>
			<path class="st193" d="M114.2,115l-2.4,1.5l0.8,0.7l3.3-0.2c0,0,1.3-0.9,1.1-1.3L114.2,115z"/>
			<polygon class="st194" points="103.4,114.3 106.5,109.7 108.9,112.8 105.7,116.1 			"/>
			<polygon class="st194" points="108.8,112.8 106.5,109.8 103.5,114.3 105.7,116 			"/>
			<path class="st195" d="M77,117c-0.2,0-0.9-0.7-1-0.8l0,0l1.2-1.4l2,0.7l1.4,1.5L77,117L77,117z"/>
			<path class="st195" d="M77.2,114.8l-0.1,0.2l-1,1.2c0,0,0.8,0.7,1,0.7l3.5,0l-1.3-1.4L77.2,114.8z"/>
			<path class="st196" d="M76.2,116.4L76.2,116.4c-0.1-0.1-1.1-1.4-1.2-2.4l0-0.1l2.5,0.2l-0.2,0.8L76.2,116.4z M75.1,114
				c0.1,0.9,0.9,2,1.1,2.2l1-1.4l0.1-0.6L75.1,114z"/>
			<path class="st196" d="M75,113.9l2.3,0.2l-0.1,0.7l-1,1.5C76.2,116.3,75.1,115,75,113.9"/>
			<path class="st197" d="M111.7,116.6L111.7,116.6c-0.1-0.1-1-1.4-1.2-2.1c0,0,0,0,0-0.1c0.1-0.2,2.6-1,3-1.1l0.1,0v2.1
				L111.7,116.6z M110.6,114.5c0.2,0.6,1,1.8,1.1,2l1.8-1.1v-1.9C112.2,113.8,110.7,114.3,110.6,114.5 M110.6,114.4L110.6,114.4
				L110.6,114.4z"/>
			<path class="st197" d="M110.6,114.5c-0.1-0.2,3-1.1,3-1.1v2l-1.8,1.2C111.7,116.5,110.8,115.2,110.6,114.5"/>
			<path class="st198" d="M105.5,152.1l-4.2,0l-1.1-1.5l0.1,0c0,0,1.2-0.5,2.8-0.5c0.8,0,1.6,0.1,2.3,0.3l3.9,1.8l0,0.1L105.5,152.1
				z"/>
			<path class="st198" d="M100.3,150.6c0,0,2.3-1,5.1-0.2l1.4,0.6l2.5,1.2l-3.8-0.2l-4.2,0L100.3,150.6z"/>
			<polygon class="st199" points="110.2,152.4 109.3,152.4 107.2,151.4 111.1,150.7 112.9,152.1 113.2,154.7 			"/>
			<polygon class="st199" points="110.2,152.4 109.3,152.3 107.4,151.4 111.1,150.8 112.8,152.1 113.1,154.6 			"/>
			<path class="st200" d="M107.4,151.5L107.4,151.5c0,0-3.1-1.9-7.1-0.8l-0.1,0l1.5-6.4l0.1,0l5.9,3.5l3.5,2.9L107.4,151.5z
				 M102.8,150.2c2.6,0,4.4,1,4.6,1.1l3.6-0.6l-3.3-2.8l-5.9-3.4l-1.5,6.1C101.2,150.3,102,150.2,102.8,150.2"/>
			<path class="st200" d="M100.3,150.6l1.5-6.2l5.9,3.5l3.4,2.9l-3.7,0.7C107.4,151.4,104.3,149.5,100.3,150.6"/>
			<path class="st201" d="M80.5,153.4l0.8-1.7l1.3-0.5l0,0l3.8,1.5l0,0.1c-0.1,0-5.5,0.4-5.9,0.6L80.5,153.4z M81.4,151.8l-0.7,1.5
				c0.8-0.1,4.7-0.4,5.6-0.5l-3.6-1.4L81.4,151.8z"/>
			<path class="st201" d="M80.6,153.3l0.8-1.6l1.3-0.5l3.8,1.5C86.5,152.8,81,153.2,80.6,153.3"/>
			<path class="st202" d="M94.1,153c-2.1-0.6-7.5-0.2-7.6-0.2l0,0l0,0l-3.8-1.5l0-0.1c3.4,1,6.6,0.2,6.6,0.2l0,0l0,0
				c0.4,0.2,2,0.3,2,0.3l0,0L94.1,153L94.1,153z M90.1,152.6c1.2,0,2.6,0.1,3.5,0.2l-2.3-1c-0.1,0-1.6-0.1-2-0.3
				c-0.2,0.1-2.9,0.7-5.9,0l3.1,1.2C86.7,152.7,88.3,152.6,90.1,152.6"/>
			<path class="st202" d="M89.3,151.5c0,0-3.2,0.8-6.6-0.2l3.8,1.5c0,0,5.5-0.4,7.6,0.2l-2.8-1.2C91.3,151.8,89.7,151.7,89.3,151.5"
				/>
		</g>
	</g>
</g>
</svg>
