<?xml version="1.0" encoding="utf-8"?>
<!-- Generator: Adobe Illustrator 19.2.1, SVG Export Plug-In . SVG Version: 6.00 Build 0)  -->
<svg version="1.1" id="Layer_1" xmlns="http://www.w3.org/2000/svg" xmlns:xlink="http://www.w3.org/1999/xlink" x="0px" y="0px"
	 width="192px" height="234px" viewBox="0 0 192 234" style="enable-background:new 0 0 192 234;" xml:space="preserve">
<style type="text/css">
	.st0{fill:#F2F2F2;}
	.st1{fill:#23A684;}
	.st2{clip-path:url(#SVGID_2_);}
	.st3{clip-path:url(#SVGID_4_);}
	.st4{clip-path:url(#SVGID_6_);fill:#552C14;}
	.st5{clip-path:url(#SVGID_6_);fill:#FBC1A0;}
	.st6{clip-path:url(#SVGID_6_);fill:#744229;}
	.st7{clip-path:url(#SVGID_6_);fill:#BA9281;}
	.st8{clip-path:url(#SVGID_6_);fill:#FAB394;}
	.st9{clip-path:url(#SVGID_6_);fill:#633520;}
	.st10{clip-path:url(#SVGID_6_);fill:#7C472B;}
	.st11{clip-path:url(#SVGID_6_);fill:#4E2D1F;}
	.st12{clip-path:url(#SVGID_6_);fill:#FAB89C;}
	.st13{clip-path:url(#SVGID_6_);fill:#795341;}
	.st14{clip-path:url(#SVGID_6_);fill:#EFB096;}
	.st15{clip-path:url(#SVGID_6_);fill:#5E2915;}
	.st16{clip-path:url(#SVGID_6_);fill:#FABA9D;}
	.st17{clip-path:url(#SVGID_6_);fill:#E69C80;}
	.st18{clip-path:url(#SVGID_6_);fill:#F49388;}
	.st19{clip-path:url(#SVGID_6_);fill:#C55C57;}
	.st20{clip-path:url(#SVGID_6_);fill:#E69E7F;}
	.st21{clip-path:url(#SVGID_6_);fill:#FAB599;}
	.st22{clip-path:url(#SVGID_6_);fill:#FBBD9F;}
	.st23{clip-path:url(#SVGID_6_);fill:#FBBC9C;}
	.st24{clip-path:url(#SVGID_6_);fill:#FBBC9A;}
	.st25{clip-path:url(#SVGID_6_);fill:#FAB69A;}
	.st26{clip-path:url(#SVGID_6_);fill:#E9A68B;}
	.st27{clip-path:url(#SVGID_6_);fill:#F9AB8D;}
	.st28{clip-path:url(#SVGID_6_);fill:#E59177;}
	.st29{clip-path:url(#SVGID_6_);fill:#E9987C;}
	.st30{clip-path:url(#SVGID_6_);fill:#DF9175;}
	.st31{clip-path:url(#SVGID_6_);fill:#DD977C;}
	.st32{clip-path:url(#SVGID_6_);fill:#DF9779;}
	.st33{clip-path:url(#SVGID_6_);fill:#EA9C7F;}
	.st34{clip-path:url(#SVGID_6_);fill:#E59276;}
	.st35{clip-path:url(#SVGID_6_);fill:#D78E72;}
	.st36{clip-path:url(#SVGID_6_);fill:#F19C82;}
	.st37{clip-path:url(#SVGID_6_);fill:#DD8C71;}
	.st38{clip-path:url(#SVGID_6_);fill:#753A24;}
	.st39{clip-path:url(#SVGID_6_);fill:#E18073;}
	.st40{clip-path:url(#SVGID_6_);fill:#C96D63;}
	.st41{clip-path:url(#SVGID_6_);fill:#CF8267;}
	.st42{clip-path:url(#SVGID_6_);fill:#ECA287;}
	.st43{clip-path:url(#SVGID_6_);fill:#F9AA8F;}
	.st44{clip-path:url(#SVGID_6_);fill:#FAB595;}
	.st45{clip-path:url(#SVGID_6_);fill:#A5654C;}
	.st46{clip-path:url(#SVGID_6_);fill:#B16C55;}
	.st47{clip-path:url(#SVGID_6_);fill:#F1A488;}
	.st48{clip-path:url(#SVGID_6_);fill:#F4A78C;}
	.st49{clip-path:url(#SVGID_6_);fill:#F0A284;}
	.st50{clip-path:url(#SVGID_6_);fill:#FBBB9B;}
	.st51{clip-path:url(#SVGID_6_);fill:#FAB899;}
	.st52{clip-path:url(#SVGID_6_);fill:#F3AA8A;}
	.st53{clip-path:url(#SVGID_6_);fill:#D28F78;}
	.st54{clip-path:url(#SVGID_6_);fill:#A56D57;}
	.st55{clip-path:url(#SVGID_6_);fill:#7F4F3B;}
	.st56{clip-path:url(#SVGID_6_);fill:#7D533C;}
	.st57{clip-path:url(#SVGID_6_);fill:#916048;}
	.st58{clip-path:url(#SVGID_6_);fill:#B88169;}
	.st59{clip-path:url(#SVGID_6_);fill:#9B674F;}
	.st60{clip-path:url(#SVGID_6_);fill:#A66B54;}
	.st61{clip-path:url(#SVGID_6_);fill:#FBC5AC;}
	.st62{clip-path:url(#SVGID_6_);fill:#EDA78A;}
	.st63{clip-path:url(#SVGID_6_);fill:#FAB59B;}
	.st64{clip-path:url(#SVGID_6_);fill:#FBBEA2;}
	.st65{clip-path:url(#SVGID_6_);fill:#956148;}
	.st66{clip-path:url(#SVGID_6_);fill:#BC7F68;}
	.st67{clip-path:url(#SVGID_6_);fill:#6B3D30;}
	.st68{clip-path:url(#SVGID_6_);fill:#6B3C2B;}
	.st69{clip-path:url(#SVGID_6_);fill:#643725;}
	.st70{clip-path:url(#SVGID_6_);fill:#6D3F2C;}
	.st71{clip-path:url(#SVGID_6_);fill:#F4A98B;}
	.st72{clip-path:url(#SVGID_6_);fill:#E29478;}
	.st73{clip-path:url(#SVGID_6_);fill:#D78F71;}
	.st74{clip-path:url(#SVGID_6_);fill:#A97055;}
	.st75{clip-path:url(#SVGID_6_);fill:#8F624B;}
	.st76{clip-path:url(#SVGID_6_);fill:#C48872;}
	.st77{clip-path:url(#SVGID_6_);fill:#5A3B2A;}
	.st78{clip-path:url(#SVGID_6_);fill:#FDD5C4;}
	.st79{clip-path:url(#SVGID_6_);fill:#764D41;}
	.st80{clip-path:url(#SVGID_6_);fill:#8D6656;}
	.st81{clip-path:url(#SVGID_6_);fill:#DC9986;}
	.st82{clip-path:url(#SVGID_6_);fill:#E7A58F;}
	.st83{clip-path:url(#SVGID_6_);fill:#DB9881;}
	.st84{clip-path:url(#SVGID_6_);fill:#C68773;}
	.st85{clip-path:url(#SVGID_6_);fill:#CC927F;}
	.st86{clip-path:url(#SVGID_6_);fill:#DCAD9A;}
	.st87{clip-path:url(#SVGID_6_);fill:#E1AA99;}
	.st88{clip-path:url(#SVGID_6_);fill:#D19887;}
	.st89{clip-path:url(#SVGID_6_);fill:#B67E6E;}
	.st90{clip-path:url(#SVGID_6_);fill:#50291A;}
	.st91{clip-path:url(#SVGID_6_);fill:#794F40;}
	.st92{clip-path:url(#SVGID_6_);fill:#DBB3A0;}
	.st93{clip-path:url(#SVGID_6_);fill:#FBC4B2;}
	.st94{clip-path:url(#SVGID_6_);fill:#BE7C6C;}
	.st95{clip-path:url(#SVGID_6_);fill:#C08A74;}
	.st96{clip-path:url(#SVGID_6_);fill:#9D6E5E;}
	.st97{clip-path:url(#SVGID_6_);fill:#815543;}
	.st98{clip-path:url(#SVGID_6_);fill:#946856;}
	.st99{clip-path:url(#SVGID_6_);fill:#FCC9B1;}
	.st100{clip-path:url(#SVGID_6_);fill:#FCC6AD;}
	.st101{clip-path:url(#SVGID_6_);fill:#F3C5B0;}
	.st102{clip-path:url(#SVGID_6_);fill:#E4AC9B;}
	.st103{clip-path:url(#SVGID_6_);fill:#CE917E;}
	.st104{clip-path:url(#SVGID_6_);fill:#FAB397;}
	.st105{clip-path:url(#SVGID_6_);fill:#8C5239;}
	.st106{clip-path:url(#SVGID_6_);fill:#542D19;}
	.st107{clip-path:url(#SVGID_6_);fill:#512F1C;}
	.st108{clip-path:url(#SVGID_6_);fill:#381910;}
	.st109{clip-path:url(#SVGID_6_);fill:#4D2719;}
	.st110{clip-path:url(#SVGID_6_);fill:#482617;}
	.st111{clip-path:url(#SVGID_6_);fill:#603017;}
	.st112{clip-path:url(#SVGID_6_);fill:#59311C;}
	.st113{clip-path:url(#SVGID_6_);fill:#5E2F17;}
	.st114{clip-path:url(#SVGID_6_);fill:#5F2911;}
	.st115{clip-path:url(#SVGID_6_);fill:#733B1B;}
	.st116{clip-path:url(#SVGID_6_);fill:#56270F;}
	.st117{clip-path:url(#SVGID_6_);fill:#7E421D;}
	.st118{clip-path:url(#SVGID_6_);fill:#6D3B1B;}
	.st119{clip-path:url(#SVGID_6_);fill:#7F411C;}
	.st120{clip-path:url(#SVGID_6_);fill:#572712;}
	.st121{clip-path:url(#SVGID_6_);fill:#5D311A;}
	.st122{clip-path:url(#SVGID_6_);fill:#713D1E;}
	.st123{clip-path:url(#SVGID_6_);fill:#612F17;}
	.st124{clip-path:url(#SVGID_6_);fill:#5B2713;}
	.st125{clip-path:url(#SVGID_6_);fill:#38180E;}
	.st126{clip-path:url(#SVGID_6_);fill:#592513;}
	.st127{clip-path:url(#SVGID_6_);fill:#64361A;}
	.st128{clip-path:url(#SVGID_6_);fill:#592D18;}
	.st129{clip-path:url(#SVGID_6_);fill:#FEDBB7;}
	.st130{clip-path:url(#SVGID_6_);fill:#36231D;}
	.st131{opacity:0.8;clip-path:url(#SVGID_6_);}
	.st132{clip-path:url(#SVGID_8_);fill:#F5D2C2;}
	.st133{clip-path:url(#SVGID_10_);fill:#F5D2C2;}
	.st134{clip-path:url(#SVGID_6_);fill:#6B3D2C;}
	.st135{clip-path:url(#SVGID_12_);fill:#F5D2C2;}
	.st136{clip-path:url(#SVGID_14_);fill:#F5D2C2;}
</style>
<rect class="st0" width="192" height="234"/>
<polygon class="st1" points="192,215.5 172.5,234 192,234 "/>
<g>
	<g>
		<defs>
			<rect id="SVGID_1_" x="-6.5" y="19.3" width="198.5" height="198.5"/>
		</defs>
		<clipPath id="SVGID_2_">
			<use xlink:href="#SVGID_1_"  style="overflow:visible;"/>
		</clipPath>
		<g class="st2">
			<defs>
				<rect id="SVGID_3_" x="-6.5" y="19.3" width="198.5" height="198.5"/>
			</defs>
			<clipPath id="SVGID_4_">
				<use xlink:href="#SVGID_3_"  style="overflow:visible;"/>
			</clipPath>
			<g class="st3">
				<defs>
					<rect id="SVGID_5_" x="-6.5" y="19.3" width="198.5" height="198.5"/>
				</defs>
				<clipPath id="SVGID_6_">
					<use xlink:href="#SVGID_5_"  style="overflow:visible;"/>
				</clipPath>
				<path class="st4" d="M44.6,140.4c1.6-1.1,3.1-2.3,4.3-3.9c1.2-1.7,2.2-3.5,3.6-5c2.7-3,5-6.1,6.8-9.6c0.7-1.4-1.4-2.7-2.1-1.3
					c-1.7,3.4-3.9,6.3-6.4,9.1c-1,1.1-1.8,2.2-2.6,3.4c-1.3,2.1-2.6,3.6-4.7,5.1C42,139.2,43.3,141.4,44.6,140.4"/>
				<path class="st4" d="M65.4,105.5c-1.6,4.4-2.5,9.1-2.5,13.8c0,5.1,1.2,10.1,0.6,15.2c-0.2,1.3,1.7,1.5,2.3,0.6
					c3.6-5.1,1.5-11.3,1.1-17c-0.1-1.6-2.4-1.6-2.5,0c-0.5,7.5-0.6,14.9-0.3,22.4c0.1,1.6,2.5,1.6,2.5,0c-0.3-7.5-0.2-14.9,0.3-22.4
					h-2.5c0.4,5.2,2.6,11.1-0.7,15.7c0.8,0.2,1.5,0.4,2.3,0.6c0.6-4.8-0.5-9.5-0.6-14.3c-0.1-4.8,0.8-9.6,2.4-14.1
					C68.3,104.6,65.9,104,65.4,105.5"/>
				<path class="st4" d="M83.2,69c0.1-0.8,0.2-1.7,0.5-2.4C84,66,84.6,65.5,85,65c0.9-1.2,2-1.8,3-2.8c1.1-1.2-0.7-2.9-1.8-1.8
					c-0.6,0.7-1.5,1.1-2.2,1.8c-0.6,0.6-1,1.3-1.6,2c-1.2,1.4-1.5,3.1-1.7,4.9C80.6,70.6,83,70.6,83.2,69"/>
				<path class="st4" d="M110.4,78c5,1.7,10,3.6,14.8,5.8c1.4,0.7,2.7-1.5,1.3-2.1c-5-2.3-10.2-4.3-15.4-6
					C109.5,75.1,108.8,77.5,110.4,78"/>
				<path class="st4" d="M121.5,82.4c0.1,2,2.2,3.5,3.8,4.5c1.4,0.9,2.6-1.3,1.3-2.1c-0.6-0.3-1.1-0.7-1.5-1.2c-0.3-0.2-1-0.8-1-1.2
					C123.9,80.8,121.5,80.8,121.5,82.4"/>
				<path class="st4" d="M128.7,87.9c0.1,5.7,0.2,11.4,0.3,17.2c0.1,4.4-0.7,9.9,1.5,14c0.8,1.4,2.9,0.1,2.1-1.3
					c-1.2-2.2-1.1-4.8-1.1-7.3c0-2.5-0.1-4.9-0.1-7.4c-0.1-5.1-0.2-10.1-0.3-15.2C131.2,86.3,128.7,86.3,128.7,87.9"/>
				<path class="st4" d="M130.7,117.7c-0.9,4.4-0.4,9-1.4,13.4c-1,4.5-2.5,8.8-4,13.1c-0.5,1.5,1.9,2.2,2.4,0.7
					c1.5-4.3,3-8.7,4-13.1c1-4.4,0.5-9,1.4-13.4C133.4,116.8,131,116.2,130.7,117.7"/>
				<path class="st4" d="M130.6,139.8c-0.1,8.5,0,17,0,25.5c0,1.6,2.5,1.6,2.5,0c-0.1-8.5-0.1-17,0-25.5
					C133.1,138.2,130.6,138.2,130.6,139.8"/>
				<path class="st4" d="M130.9,153.3c-0.2,6.3-0.2,12.6,0,18.9c0,1.6,2.5,1.6,2.5,0c-0.1-6.3-0.1-12.6,0-18.9
					C133.5,151.7,131,151.7,130.9,153.3"/>
				<path class="st5" d="M104.1,154.8c2.5-1.8,4.6-4,6.2-6.6c0.8-1.4-1.3-2.6-2.1-1.3c-1.4,2.2-3.2,4.2-5.3,5.7
					C101.5,153.6,102.8,155.7,104.1,154.8"/>
				<path class="st6" d="M85.2,150.4l1.9-4.3c0.5-1.1-0.3-2-1.4-1.8c-1.4,0.2-2.6,1.7-2.5,3.1c0.1,1.6,2.1,2.8,3.3,3.5
					c0.7,0.4,1.6,0.1,1.8-0.7c0.1-0.5,0.1-0.9-0.2-1.3c-0.8-1.4-2.9-0.1-2.1,1.3c0,0.1,0.1,0.1,0.1,0.2c0-0.3-0.1-0.6-0.1-1
					c0,0.1,0,0.1,0,0.2c0.6-0.2,1.2-0.5,1.8-0.7c-0.3-0.2-0.7-0.4-1-0.6c-0.3-0.2-0.5-0.6-0.9-0.8c-0.1-0.3-0.2-0.3-0.2-0.1
					c0-0.1,0.1-0.2,0.2-0.3c0.2-0.2,0.3-0.2,0.5-0.2c-0.5-0.6-0.9-1.2-1.4-1.8c-0.6,1.4-1.3,2.8-1.9,4.3c-0.3,0.6-0.2,1.3,0.4,1.7
					C84,151.1,84.9,151,85.2,150.4"/>
				<path class="st6" d="M81.4,147c1.5,0,3,0.2,4.5,0.4c1.6,0.3,2.2-2.1,0.7-2.4c-1.7-0.3-3.4-0.5-5.2-0.5
					C79.8,144.4,79.8,146.9,81.4,147"/>
				<path class="st7" d="M76.1,115.4c-0.1,1.1,0.1,2.3,0.4,3.4c0.3,1.1,1,1.8,2.1,1.9c0.7,0.1,1.2-0.6,1.2-1.2
					c0-0.7-0.6-1.2-1.2-1.2c-0.1,0-0.1,0-0.2,0c0.2,0.1,0.4,0.1,0.6,0.2c-0.3-0.1-0.3-0.9-0.4-1.3c-0.1-0.6-0.1-1.1-0.1-1.7
					C78.7,113.9,76.2,113.9,76.1,115.4"/>
				<path class="st8" d="M93.8,78.6c3-0.7,5.9-1.2,9-1.3c1.6-0.1,1.6-2.6,0-2.5c-3.3,0.2-6.5,0.6-9.6,1.4
					C91.6,76.6,92.3,79,93.8,78.6"/>
				<path class="st9" d="M71.6,89.7c1.6-3.5,4.1-7.9,8.4-7.8c1.6,0,1.6-2.5,0-2.5c-5.3-0.1-8.6,4.6-10.6,9
					C68.8,89.9,71,91.2,71.6,89.7"/>
				<path class="st10" d="M66,102.1c-1.7,4-2,8.3-2.2,12.5c-0.1,4-1,9.2,0.6,12.9c0.6,1.5,2.8,0.2,2.1-1.3c-0.8-1.8-0.4-4.2-0.4-6.1
					c0-1.8,0.1-3.7,0.1-5.5c0.1-3.8,0.3-7.8,1.8-11.3C68.7,101.9,66.6,100.7,66,102.1"/>
				<path class="st10" d="M64.3,127.5c-0.1,3-0.1,5.9-0.2,8.9c0,1.6,2.4,1.6,2.5,0c0.1-3,0.1-5.9,0.2-8.9
					C66.8,125.9,64.3,125.9,64.3,127.5"/>
				<path class="st11" d="M74.7,118c1.2-1.8,2.7-3.2,4.5-4.3c1.4-0.8,0.1-3-1.3-2.1c-2.2,1.3-4,3.1-5.4,5.2
					C71.7,118.1,73.8,119.3,74.7,118"/>
				<path class="st11" d="M73.2,111.6c1.6-0.6,3.2-0.9,4.9-1c1.6-0.1,1.6-2.6,0-2.5c-1.9,0.1-3.8,0.5-5.6,1.1
					C71.1,109.7,71.7,112.1,73.2,111.6"/>
				<path class="st11" d="M77.1,119.1c2.4,0.5,4.9,0.7,7.3,0.8c1.6,0,1.6-2.5,0-2.5c-2.2,0-4.5-0.3-6.7-0.7
					C76.2,116.4,75.5,118.8,77.1,119.1"/>
				<path class="st12" d="M100.8,121.2c1.4-0.6,2.7-1.3,3.9-2.1c1.3-0.9,0.1-3-1.3-2.1c-1.3,0.8-2.6,1.5-3.9,2.1
					c-0.6,0.3-0.8,1.2-0.4,1.7C99.5,121.4,100.2,121.4,100.8,121.2"/>
				<path class="st13" d="M110.9,114.5c2.2,0.6,4.5,1.2,6.2,2.9c1.1,1.1,2.9-0.6,1.8-1.8c-2-2-4.7-2.8-7.3-3.5
					C110,111.7,109.3,114.1,110.9,114.5"/>
				<path class="st13" d="M116.2,118c0.6,0.9,1.3,1.7,1.9,2.5c0.4,0.5,1.3,0.4,1.8,0c0.5-0.5,0.4-1.2,0-1.8c-0.5-0.7-1.1-1.3-1.6-2
					c-0.4-0.5-1.1-0.8-1.7-0.4C116.1,116.6,115.8,117.5,116.2,118"/>
				<path class="st14" d="M109.8,119.5c2.1,0.2,4.2,0.4,6.4,0.4c1.6,0,1.6-2.4,0-2.5c-2.1,0-4.2-0.2-6.4-0.4
					C108.2,116.9,108.2,119.4,109.8,119.5"/>
				<path class="st15" d="M130.3,128c0.6,7.1,0.3,14.2,0,21.3c-0.1,1.6,2.4,1.6,2.5,0c0.3-7.1,0.6-14.2,0-21.3
					C132.6,126.4,130.1,126.4,130.3,128"/>
				<path class="st16" d="M102.9,146.2c2.2,0.8,4.3,1.6,6.6,2.3c1.5,0.5,2.2-1.9,0.7-2.4c-2.2-0.7-4.4-1.4-6.6-2.3
					C102.1,143.3,101.4,145.7,102.9,146.2"/>
				<path class="st17" d="M100.7,138.9c0.4-0.7,0.9-1.4,1.5-2.1c0.2-0.2,0.4-0.5,0.5-0.5c0.4-0.1,0.9,0.1,1.2,0.2
					c1.6,0.1,1.6-2.3,0-2.5c-1.2-0.1-2.1-0.3-3.1,0.6c-0.9,0.9-1.6,1.9-2.2,3C97.7,139,99.9,140.3,100.7,138.9"/>
				<path class="st17" d="M95.3,154.2c4.5-0.3,8.6-1.6,12.6-3.8c1.4-0.8,0.1-2.9-1.3-2.1c-3.5,2-7.3,3.1-11.3,3.4
					C93.8,151.8,93.7,154.3,95.3,154.2"/>
				<path class="st17" d="M93,148c3.4-0.3,6.7-0.3,10.1-0.1c1.6,0.1,1.6-2.4,0-2.5c-3.4-0.2-6.7-0.2-10.1,0.1
					C91.4,145.7,91.4,148.1,93,148"/>
				<path class="st6" d="M86,145.7c-0.3,2.2-0.1,4.4,0.3,6.6c0.3,1.6,2.7,0.9,2.4-0.7c-0.4-2-0.4-3.9-0.2-5.9
					C88.6,144.1,86.2,144.1,86,145.7"/>
				<path class="st18" d="M91.4,157c1.7,0.3,3.3,0.7,4.9,1.2c1.5,0.5,2.2-1.9,0.7-2.4c-1.6-0.5-3.3-0.9-4.9-1.2
					C90.5,154.3,89.9,156.7,91.4,157"/>
				<path class="st19" d="M87.2,146.5c2.7-0.8,5.4-1.2,8.2-1c1.3,0.1,2.5,0,3.8,0c1.7,0.1,2.9,1,4.4,1.7c1.4,0.7,2.7-1.4,1.3-2.1
					c-1.2-0.6-2.3-1.4-3.5-1.7c-1.6-0.5-3.3-0.2-4.9-0.3c-3.4-0.1-6.4,0.1-9.8,1C85,144.6,85.6,147,87.2,146.5"/>
				<path class="st20" d="M82.6,149.4c1.6,0,1.6-2.5,0-2.5C81,146.9,81,149.4,82.6,149.4"/>
				<path class="st20" d="M82.3,149.1c1.6,0,1.6-2.5,0-2.5C80.7,146.6,80.7,149.1,82.3,149.1"/>
				<path class="st20" d="M82,148.7c1.6,0,1.6-2.5,0-2.5C80.4,146.2,80.4,148.7,82,148.7"/>
				<path class="st20" d="M82,148.4c1.6,0,1.6-2.5,0-2.5C80.4,145.9,80.4,148.4,82,148.4"/>
				<path class="st6" d="M86.7,148.6c1.6,0,1.6-2.5,0-2.5C85.2,146.1,85.1,148.6,86.7,148.6"/>
				<path class="st6" d="M86.2,148.1c1.6,0,1.6-2.5,0-2.5C84.6,145.6,84.6,148.1,86.2,148.1"/>
				<path class="st21" d="M96.7,173.5c-5.3,0-9.9-1.9-9.9-1.9l8.5-14.7l12,13.1C104.5,172.3,100.9,173.5,96.7,173.5L96.7,173.5z"/>
				<path class="st21" d="M95.3,156.9l-8.5,14.7c0,0,12.3,5.2,20.5-1.6L95.3,156.9z"/>
				<path class="st22" d="M95.3,156.9c5-0.6,9.6-4,9.6-4.1l2.4,17.3L95.3,156.9z"/>
				<path class="st22" d="M104.9,152.8c0,0-4.5,3.4-9.6,4l12,13.1L104.9,152.8z"/>
				<path class="st23" d="M104.9,152.8l13.5,7.4c-0.1,0.1-8.3,8-11.2,9.8l0,0L104.9,152.8z"/>
				<path class="st23" d="M118.4,160.2c0,0-8.2,7.9-11.2,9.8l-2.3-17.2L118.4,160.2z"/>
				<path class="st5" d="M104.9,152.8c1.4-1.3,3.8-5.2,3.8-5.3l16.1,2.8c-1.2,2.3-6.4,9.7-6.4,9.8l0,0L104.9,152.8z"/>
				<path class="st5" d="M108.8,147.6c0,0-2.4,4-3.8,5.3l13.5,7.4c0,0,5.3-7.5,6.5-9.8L108.8,147.6z"/>
				<path class="st24" d="M112.2,148.2l16.9-12.5c-0.9,4.3-4.1,14.6-4.1,14.7l0,0L112.2,148.2z"/>
				<path class="st24" d="M129,135.7l-16.9,12.5l12.7,2.2C124.9,150.4,128.1,140.1,129,135.7"/>
				<polygon class="st25" points="118.4,118.9 129.1,135.7 119.1,143.1 				"/>
				<polygon class="st25" points="118.4,118.9 119.1,143.1 129,135.7 				"/>
				<path class="st26" d="M118.4,118.9l13.3,1.2c0,0.1-1.5,11.6-2.7,15.6l0,0L118.4,118.9z"/>
				<path class="st26" d="M131.7,120.1c0,0-1.5,11.5-2.7,15.6l-10.6-16.8L131.7,120.1z"/>
				<polygon class="st16" points="108.8,133.4 118.4,118.9 119.1,143.1 				"/>
				<polygon class="st16" points="108.8,133.4 119.1,143.1 118.4,118.9 				"/>
				<polygon class="st27" points="108.8,133.4 119.1,143.1 112.2,148.2 				"/>
				<polygon class="st27" points="112.2,148.2 108.8,133.4 119.1,143.1 				"/>
				<polygon class="st28" points="104.7,135.7 108.8,133.4 110.9,142.3 				"/>
				<polygon class="st28" points="104.7,135.7 110.8,142.2 108.8,133.4 				"/>
				<polygon class="st29" points="103.9,130.3 108.8,133.4 104.7,135.8 				"/>
				<polygon class="st29" points="103.9,130.3 104.7,135.7 108.8,133.4 				"/>
				<path class="st30" d="M86.8,171.6c-2-0.7-7.6-5.7-7.7-5.8l16.2-9L86.8,171.6L86.8,171.6z"/>
				<path class="st30" d="M79.1,165.8c0,0,5.7,5.1,7.7,5.8l8.5-14.7L79.1,165.8z"/>
				<path class="st31" d="M84.1,150.4c0.1,0.1,3,5.5,11.2,6.4l-16.2,9L84.1,150.4z"/>
				<path class="st31" d="M84.1,150.4c0,0,2.9,5.5,11.2,6.5l-16.2,8.9L84.1,150.4z"/>
				<path class="st32" d="M79.1,165.8c-5.8-5.3-9.8-14.8-9.8-14.9l14.8-0.5L79.1,165.8L79.1,165.8z"/>
				<path class="st32" d="M69.3,150.9c0,0,3.9,9.6,9.8,14.9l5-15.4L69.3,150.9z"/>
				<path class="st20" d="M69.3,150.9l13.4-4.7c0.3,2,1.4,4.2,1.4,4.2L69.3,150.9L69.3,150.9z"/>
				<path class="st20" d="M82.7,146.2l-13.4,4.7l14.8-0.5C84.1,150.4,83,148.3,82.7,146.2"/>
				<polygon class="st33" points="66,138.8 82.7,146.2 69.3,150.9 				"/>
				<polygon class="st33" points="66,138.8 69.3,150.9 82.7,146.2 				"/>
				<path class="st34" d="M66,138.8c-0.5-1.7,0-10.5,0-10.6l7.8,14L66,138.8z"/>
				<path class="st34" d="M66,128.3c0,0-0.5,8.9,0,10.5l7.7,3.4L66,128.3z"/>
				<path class="st35" d="M82.7,146.2c-0.3-0.1-9-4-9-4l12.7-6.2C86.3,136.5,83.1,146.2,82.7,146.2L82.7,146.2z"/>
				<path class="st35" d="M86.4,136.1c0,0-3.4,10.3-3.7,10.1c-0.3-0.1-9-4-9-4L86.4,136.1z"/>
				<polygon class="st36" points="80.4,121.8 86.5,136.1 73.7,142.3 				"/>
				<polygon class="st36" points="80.4,121.8 86.4,136.1 73.7,142.2 				"/>
				<polygon class="st37" points="80.4,121.8 91.6,120.1 86.4,136.1 				"/>
				<polygon class="st37" points="91.6,120.1 86.4,136.1 80.4,121.8 				"/>
				<path class="st19" d="M108.8,147.6c-0.1,0-5.4-1.8-8.3-1.8c-0.3,0-0.5,0-0.7,0l-0.3,0c-1.8,0.3-3.5,0.5-4.6,0.5
					c-0.5,0-0.9-0.1-1.2-0.2c-0.5-0.2-2-0.7-4.7-0.7c-1.9,0-4,0.2-6.2,0.7c0.1,0,8.8-2.1,10.5-2.1c0,0,0.1,0,0.1,0
					c0.4,0,0.7,0.1,1,0.2c0.4,0.1,0.8,0.2,1.4,0.2c0.7,0,1.6-0.1,2.7-0.4c0,0,0.1,0,0.2,0C99.5,144.1,102.7,144.3,108.8,147.6
					L108.8,147.6z"/>
				<path class="st19" d="M82.7,146.2c0,0,9.3-2.2,10.7-2.1c1.4,0.1,1.6,0.9,5,0c0,0,3.1-0.4,10.4,3.5c0,0-6.4-2.1-9.1-1.7
					c-2.7,0.4-5.1,0.8-6.1,0.4C92.7,145.8,89.4,144.9,82.7,146.2"/>
				<polygon class="st38" points="106,146.8 108.8,147.6 107.3,149.9 				"/>
				<polygon class="st38" points="107.3,149.9 106,146.8 108.8,147.6 				"/>
				<path class="st19" d="M92.2,156.3c-6.2-1.9-8.1-5.8-8.2-5.8c-0.8-1.5-1.4-4.2-1.4-4.2c5.1,4.2,7.8,5.6,7.9,5.6L92.2,156.3
					L92.2,156.3z"/>
				<path class="st19" d="M92.2,156.3l-1.7-4.5c0,0-2.7-1.3-7.9-5.6c0,0,0.6,2.7,1.4,4.2C84.1,150.4,86,154.3,92.2,156.3"/>
				<path class="st18" d="M95.3,156.9c-1.8-0.3-3.1-0.6-3.1-0.6l-1.7-4.5c1.3,0.6,4,1,4.1,1L95.3,156.9L95.3,156.9z M90.5,151.8
					c-0.1,0-0.2-0.1-0.3-0.1c-0.5-0.3-0.5-0.3-0.5-0.3c0,0,0,0,0,0C89.8,151.4,89.9,151.4,90.5,151.8L90.5,151.8z"/>
				<path class="st18" d="M94.6,152.8c0,0-3.2-0.5-4.4-1.2c-1.2-0.7,0.3,0.2,0.3,0.2l1.7,4.5c0,0,1.3,0.3,3.1,0.6L94.6,152.8z"/>
				<path class="st39" d="M94.6,152.8l0.2,0c2,0,5.4-0.8,5.4-0.9l-4.9,4.9L94.6,152.8z"/>
				<path class="st39" d="M100.2,152c0,0-3.5,0.9-5.6,0.8l0.7,4L100.2,152z"/>
				<path class="st40" d="M100.2,152c3.8-0.7,6.5-3.4,6.5-3.4l0.6,1.3l-2.3,3c-4.6,3.5-9.6,4-9.6,4.1l0,0L100.2,152z"/>
				<path class="st40" d="M106.7,148.6c0,0-2.7,2.7-6.5,3.4l-4.9,4.9c0,0,5-0.5,9.6-4l2.3-2.9L106.7,148.6z"/>
				<path class="st41" d="M82.7,146.2c0.7-0.7,3.7-10,3.7-10.1l6.4,8C89.7,144.5,82.8,146.2,82.7,146.2L82.7,146.2L82.7,146.2z"/>
				<path class="st41" d="M92.8,144.1l-6.4-8c0,0-3,9.4-3.7,10.1C82.7,146.2,89.7,144.5,92.8,144.1"/>
				<polygon class="st42" points="86.4,136.1 96.6,138.8 92.8,144.1 				"/>
				<polygon class="st42" points="96.6,138.8 92.8,144.1 86.4,136.1 				"/>
				<path class="st43" d="M102.3,144.8c-1.6-0.6-3.9-0.7-3.9-0.7c-0.7,0.3-1.5,0.5-2.3,0.5c-1.5,0-2.7-0.5-2.7-0.5l-0.6,0l3.8-5.3
					L102.3,144.8L102.3,144.8z"/>
				<path class="st43" d="M102.4,144.8l-5.7-6l-3.8,5.3l0.6,0c0,0,2.7,1,5,0C98.4,144.1,100.7,144.2,102.4,144.8"/>
				<path class="st16" d="M108.8,147.6c-2.3-1.5-6.4-2.8-6.4-2.8l2.3-9.1l6.2,6.5l1.4,6L108.8,147.6z"/>
				<path class="st16" d="M104.7,135.7l-2.3,9.1c0,0,4.1,1.3,6.4,2.8l3.4,0.6l-1.4-5.9L104.7,135.7z"/>
				<polygon class="st44" points="96.6,138.8 104.7,135.7 102.4,144.8 				"/>
				<polygon class="st44" points="96.6,138.8 104.7,135.7 102.4,144.8 				"/>
				<path class="st45" d="M89.1,136.8c0,0,0.7-0.5,1.7-0.5c1.1,0,2.1,0.6,3,1.7l0,0L89.1,136.8z"/>
				<path class="st45" d="M89.1,136.8c0,0,2.5-1.6,4.7,1.3L89.1,136.8z"/>
				<path class="st45" d="M100.2,137.4c0,0,0.2-1.3,1.7-1.3c0.4,0,0.8,0.1,1.2,0.2L100.2,137.4L100.2,137.4z"/>
				<path class="st45" d="M100.2,137.4c0,0,0.2-2,2.8-1.1L100.2,137.4z"/>
				<path class="st46" d="M86.4,136.1l5.1-16l1.8-5L94,121l-3.7,15.4c0,0-0.9,0.2-1.3,0.5l0,0L86.4,136.1z"/>
				<path class="st46" d="M94,121l-3.7,15.4c0,0-0.9,0.2-1.3,0.5l-2.6-0.7l5.1-16l1.8-5L94,121z"/>
				<path class="st17" d="M93.7,138.1c-1.2-1.5-2.4-1.7-3-1.7c-0.2,0-0.4,0-0.4,0l0.7-2.9l11.3,1.4l0.7,1.5
					c-0.5-0.2-0.9-0.2-1.3-0.2c-1.4,0-1.6,1.3-1.6,1.3l-3.6,1.4L93.7,138.1z"/>
				<path class="st17" d="M102.4,134.8L91,133.4l-0.7,2.9c0,0,1.8-0.4,3.4,1.7l2.9,0.8l3.6-1.4c0,0,0.2-2.1,2.8-1.1L102.4,134.8z"/>
				<polygon class="st47" points="102.3,134.8 99.1,134.4 100.2,120.1 103.9,130.3 104.7,135.7 103,136.4 				"/>
				<polygon class="st47" points="100.2,120.1 99.1,134.4 102.4,134.8 103.1,136.4 104.7,135.7 103.9,130.3 				"/>
				<polygon class="st48" points="91,133.4 100.2,120.1 99.1,134.4 				"/>
				<polygon class="st48" points="91,133.4 100.2,120.1 99.1,134.4 				"/>
				<polygon class="st49" points="91,133.4 94,121 93.3,115.1 100.2,120.1 91.1,133.4 				"/>
				<polygon class="st49" points="93.3,115.1 100.2,120.1 91,133.4 94,121 				"/>
				<polygon class="st50" points="93.3,115.1 97.9,107.7 100.2,120.1 				"/>
				<polygon class="st50" points="97.9,107.7 93.3,115.1 100.2,120.1 				"/>
				<polygon class="st51" points="97.9,107.7 106,107.7 100.2,120.1 				"/>
				<polygon class="st51" points="106,107.7 100.2,120.1 97.9,107.7 				"/>
				<polygon class="st52" points="88,108.4 97.9,107.7 93.3,115.2 				"/>
				<polygon class="st52" points="88,108.4 93.3,115.1 97.9,107.7 				"/>
				<polygon class="st53" points="125.8,119.6 128,101.8 131.7,120.1 				"/>
				<polygon class="st53" points="128.1,101.8 125.8,119.6 131.7,120.1 				"/>
				<polygon class="st54" points="105.9,107.7 109.4,110.5 104.2,111.5 				"/>
				<polygon class="st54" points="109.4,110.5 106,107.7 104.2,111.4 				"/>
				<path class="st55" d="M105.9,107.7c0,0,3.1-0.2,5.5-0.2c1.4,0,2.2,0,2.6,0.1l-4.6,2.8L105.9,107.7z"/>
				<path class="st55" d="M114,107.7l-4.6,2.8l-3.4-2.8C106,107.7,112.9,107.4,114,107.7"/>
				<path class="st56" d="M109.4,110.5l4.6-2.8l5.1,2.8c-0.3-0.1-1.2-0.2-2.8-0.2C113.4,110.3,109.4,110.6,109.4,110.5L109.4,110.5z
					"/>
				<path class="st56" d="M119.1,110.5l-5.1-2.8l-4.6,2.8C109.4,110.5,118.3,110.1,119.1,110.5"/>
				<path class="st57" d="M114,107.7c0,0,0.1,0,0.1,0c0.8,0,5.2,0.1,6.3,0.9l-1.3,1.9L114,107.7z"/>
				<path class="st57" d="M120.4,108.7l-1.3,1.9l-5.1-2.8C114,107.7,119.2,107.8,120.4,108.7"/>
				<path class="st58" d="M122.8,112.3c-0.7-1-3.7-1.8-3.7-1.8l1.3-1.9L122.8,112.3L122.8,112.3
					C122.8,112.3,122.8,112.4,122.8,112.3L122.8,112.3L122.8,112.3z"/>
				<path class="st58" d="M122.8,112.4l-2.4-3.7l-1.3,1.9C119.1,110.5,122.2,111.4,122.8,112.4"/>
				<path class="st59" d="M120.4,108.7c0.1,0,3.4,2,3.9,2.7l-1.8,0.7L120.4,108.7z"/>
				<path class="st59" d="M124.3,111.4l-1.7,0.7l-2.2-3.4C120.4,108.7,123.8,110.7,124.3,111.4"/>
				<polygon class="st60" points="122.6,112.1 124.3,111.4 125.1,114.5 				"/>
				<polygon class="st60" points="125.1,114.5 122.6,112.1 124.3,111.4 				"/>
				<polygon class="st61" points="118.4,118.9 125.1,114.4 126.2,116.2 125.8,119.6 				"/>
				<polygon class="st61" points="118.4,118.9 125.1,114.5 126.2,116.3 125.8,119.6 				"/>
				<polygon class="st62" points="125.1,114.5 124.3,111.4 123.3,110.6 124.3,97.3 128.1,101.8 126.2,116.3 				"/>
				<polygon class="st62" points="128.1,101.8 124.3,97.3 123.3,110.5 124.3,111.4 125.1,114.5 126.2,116.3 				"/>
				<path class="st25" d="M120.4,108.7c0,0-1.6-0.9-6.5-0.9l4.6-27.5l5.8,17l-1.1,13.3L120.4,108.7z"/>
				<path class="st25" d="M118.5,80.2l5.8,17l-1.1,13.3l-2.8-1.9c0,0-1.5-0.9-6.5-1L118.5,80.2z"/>
				<path class="st63" d="M102.3,76.2c0.2,0,0.4,0,0.6,0c9.5,0,15.6,4,15.6,4.1l-4.6,27.6L102.3,76.2z"/>
				<path class="st63" d="M102.3,76.2l11.6,31.5l4.6-27.5C118.5,80.2,112.2,76,102.3,76.2"/>
				<path class="st64" d="M103.7,107.8c-2.4,0-5.8,0-5.8,0l4.4-31.6l11.7,31.5c-0.2-0.1-0.9-0.1-2.3-0.1c-2.2,0-5.4,0.1-5.7,0.1
					C105.8,107.8,105.1,107.8,103.7,107.8"/>
				<path class="st64" d="M102.3,76.2l-4.4,31.5c0,0,7.6,0,8,0c0.4,0,7.6-0.2,8,0L102.3,76.2z"/>
				<path class="st8" d="M89.5,78.3c2.6-1.1,12.7-2.1,12.9-2.1l-4.4,31.6l0,0L89.5,78.3z"/>
				<path class="st8" d="M89.5,78.3l8.5,29.4l4.4-31.5C102.3,76.2,92.1,77.2,89.5,78.3"/>
				<polygon class="st65" points="83.9,107.1 88,108.4 86.9,111.5 				"/>
				<polygon class="st65" points="88,108.4 84,107.1 86.9,111.4 				"/>
				<polygon class="st66" points="86.9,111.4 88,108.4 93.4,115.1 93.3,115.1 				"/>
				<polygon class="st66" points="93.3,115.1 86.9,111.4 88,108.4 				"/>
				<path class="st67" d="M77.9,107.8c1.7-0.5,6-0.6,6.1-0.6l-3.2,2.5L77.9,107.8z"/>
				<path class="st67" d="M77.9,107.7l2.9,1.8l3.2-2.5C84,107.1,79.6,107.3,77.9,107.7"/>
				<path class="st68" d="M74.3,109.9l3.6-2.2l2.9,1.8c0,0,0,0,0,0c-0.2,0-1-0.1-2.1-0.1C77.1,109.5,75.6,109.6,74.3,109.9
					L74.3,109.9z"/>
				<path class="st68" d="M74.3,109.9l3.6-2.2l2.9,1.8C80.7,109.6,77.6,109.2,74.3,109.9"/>
				<path class="st69" d="M70.9,109.6c2.3-1.2,7-1.9,7-1.9l-3.6,2.2L70.9,109.6z"/>
				<path class="st69" d="M70.9,109.6l3.4,0.3l3.6-2.2C77.9,107.7,73.2,108.4,70.9,109.6"/>
				<path class="st70" d="M68.1,112.9c0,0,1.8-3,2.8-3.4l3.4,0.3C74.2,110,69.6,111,68.1,112.9L68.1,112.9z"/>
				<path class="st70" d="M68.1,112.9c0,0,1.8-2.9,2.8-3.4l3.4,0.3C74.3,109.9,69.6,111,68.1,112.9"/>
				<path class="st71" d="M88,108.4c0,0-2.3-0.7-4.1-1.3l5.5-28.9l8.5,29.4L88,108.4L88,108.4z"/>
				<path class="st71" d="M84,107.1l5.5-28.8l8.5,29.4l-9.9,0.7C88,108.4,85.7,107.7,84,107.1"/>
				<path class="st72" d="M75.5,82.3c5.7-3.1,13.9-4,14-4L84,107.1c-4.1,0.1-6.1,0.6-6.1,0.6l0,0L75.5,82.3z"/>
				<path class="st72" d="M75.5,82.3l2.4,25.4c0,0,1.9-0.5,6.1-0.6l5.5-28.8C89.5,78.3,81.3,79.2,75.5,82.3"/>
				<path class="st73" d="M70.9,109.6L70.9,109.6c-0.4-0.4,4.4-26.2,4.7-27.3l2.4,25.4C77.8,107.8,73.1,108.5,70.9,109.6L70.9,109.6
					L70.9,109.6z"/>
				<path class="st73" d="M70.9,109.6c-0.5,0.2,4.7-27.3,4.7-27.3l2.4,25.4C77.9,107.7,73.2,108.5,70.9,109.6"/>
				<path class="st74" d="M67.1,101.8c0-0.2,2.7-16.2,8.4-19.5c0,0.2-4.4,23.5-4.6,27.3l0,0L67.1,101.8z"/>
				<path class="st74" d="M67.1,101.8c0,0,2.6-16.2,8.4-19.5c0,0-4.5,23.4-4.7,27.3L67.1,101.8z"/>
				<path class="st75" d="M67.1,101.8l3.8,7.8c0,0-0.8,0.1-2.8,3.4l-2.3,1L67.1,101.8z"/>
				<path class="st75" d="M65.8,113.9l1.3-12.1l3.8,7.8c0,0-0.7,0.1-2.8,3.4L65.8,113.9z"/>
				<polygon class="st76" points="65.8,113.9 68.1,112.9 73.7,117.4 66,128.3 				"/>
				<polygon class="st76" points="66,128.3 65.8,113.9 68.1,112.9 73.7,117.4 				"/>
				<path class="st11" d="M73.7,117.4c1.6-3.1,3.8-4.6,6.4-4.6c4.2,0,8.1,4,8.1,4c-0.1,0.1-0.2,0.1-0.3,0.1h0
					c-0.3,0-0.6-0.3-0.6-0.3c-2.6-2-4.8-3-6.8-3c-2.5,0-3.8,1.8-4.3,2.4c-0.1,0.1-0.2,0.2-0.2,0.3C75.7,116.7,73.7,117.4,73.7,117.4
					L73.7,117.4L73.7,117.4z"/>
				<path class="st11" d="M88.3,116.9c0,0-9.2-9.4-14.6,0.6c0,0,1.9-0.8,2.3-1.1c0.4-0.3,3-6.1,11.3,0.3
					C87.3,116.7,87.8,117.2,88.3,116.9"/>
				<path class="st77" d="M81.7,118.2c-0.6,0-3.5-0.2-3.6-4c0,0,0.9-0.6,2.4-0.6c1.1,0,2.3,0.3,3.5,0.9
					C84.1,114.6,84.5,117.5,81.7,118.2L81.7,118.2z"/>
				<path class="st77" d="M81.8,118.2c0,0-3.6,0.2-3.6-3.9c0,0,2.1-1.6,5.9,0.3C84.1,114.6,84.5,117.5,81.8,118.2"/>
				<path class="st7" d="M81,118.2c-4.1,0-5-1.9-5-1.9c0.9-1.4,2.1-2.1,2.1-2.1c0.1,3.8,2.9,3.9,3.5,3.9l0.1,0c0,0,0,0,0,0l0,0l0,0
					l0,0l0,0C81.5,118.2,81.3,118.2,81,118.2L81,118.2z"/>
				<path class="st7" d="M76,116.3c0,0,1,2.1,5.7,1.9c0,0-3.6,0.3-3.6-3.9C78.1,114.3,77,115,76,116.3"/>
				<path class="st78" d="M81.8,118.2c0,0,2.7-0.7,2.3-3.6c0,0,2.7,1.5,3.3,2.1C87.3,116.7,83.9,118.1,81.8,118.2L81.8,118.2z"/>
				<path class="st78" d="M87.3,116.7c0,0-3.4,1.5-5.5,1.6c0,0,2.8-0.7,2.3-3.6C84.1,114.6,86.7,116,87.3,116.7"/>
				<path class="st79" d="M78.9,119.1c-3.8-0.4-5.2-1.7-5.2-1.7l2.4-1.1c0.8,1.1,1.5,1.2,1.5,1.2L78.9,119.1L78.9,119.1z"/>
				<path class="st79" d="M73.7,117.4c0,0,1.4,1.3,5.2,1.7l-1.4-1.5c0,0-0.6-0.1-1.5-1.2L73.7,117.4z"/>
				<path class="st80" d="M77.6,117.7C77.6,117.7,77.6,117.7,77.6,117.7c0.1,0,1.4,0.5,3.3,0.5h0c0.3,0,0.7,0,1,0l-3.1,0.9
					L77.6,117.7z"/>
				<path class="st80" d="M82,118.2l-3.1,0.9l-1.3-1.4C77.7,117.7,79.4,118.5,82,118.2"/>
				<polygon class="st81" points="87.3,116.7 90.4,120.3 85.4,121 				"/>
				<polygon class="st81" points="87.3,116.7 85.4,121 90.3,120.3 				"/>
				<path class="st82" d="M82,118.2c2.5-0.3,5.3-1.6,5.3-1.6l-1.9,4.4l-1.6,0.2L82,118.2z"/>
				<path class="st82" d="M82,118.2l1.8,3l1.6-0.2l1.9-4.4C87.3,116.7,84.5,117.9,82,118.2"/>
				<path class="st82" d="M80.4,121.8c0.2-0.3,1.6-3.5,1.6-3.5l1.9,3L80.4,121.8L80.4,121.8z"/>
				<path class="st82" d="M80.4,121.8c0.2-0.3,1.6-3.5,1.6-3.5l1.8,3L80.4,121.8z"/>
				<polygon class="st14" points="78.9,119.1 82,118.2 80.4,121.8 				"/>
				<polygon class="st14" points="78.9,119.1 80.4,121.8 82,118.2 				"/>
				<path class="st83" d="M87.3,116.7c0.3,0.2,0.6,0.3,0.7,0.3c0.2,0,0.2-0.1,0.2-0.1l4.1,1.2l-0.7,2l-1.3,0.2L87.3,116.7z"/>
				<path class="st83" d="M88.3,116.9c0,0-0.1,0.4-1-0.2l3,3.6l1.2-0.2l0.7-2L88.3,116.9z"/>
				<polygon class="st84" points="90.3,117.5 88.2,112.2 93.4,115.1 92.3,118.1 				"/>
				<polygon class="st84" points="88.3,112.2 90.3,117.5 92.3,118.1 93.3,115.1 				"/>
				<path class="st85" d="M88.3,116.9c0,0-2.2-2.3-4.9-3.3l4.9-1.3l2.1,5.3L88.3,116.9z"/>
				<path class="st85" d="M83.3,113.5l4.9-1.3l2.1,5.3l-2.1-0.6C88.3,116.9,86,114.6,83.3,113.5"/>
				<path class="st86" d="M83.3,113.5c-1-0.5-2.7-0.7-2.7-0.7l-1.8-3.4l2,0.1l0.1,0c2.3,0,6.1,1.8,6.2,1.9l1.3,0.8L83.3,113.5
					L83.3,113.5z"/>
				<path class="st86" d="M78.8,109.5l1.8,3.3c0,0,1.7,0.2,2.7,0.7l4.9-1.3l-1.3-0.8c0,0-3.9-1.9-6.2-1.9L78.8,109.5z"/>
				<path class="st87" d="M76.4,109.6c0,0,1.2-0.1,2-0.1c0.1,0,0.2,0,0.3,0l1.8,3.4c0,0,0,0,0,0c-0.1,0-0.2,0-0.4,0
					c-0.7,0-2.3,0.2-4.1,1.5l0,0L76.4,109.6z"/>
				<path class="st87" d="M76,114.3l0.4-4.7c0,0,1.5-0.2,2.4-0.1l1.8,3.3C80.6,112.8,78.6,112.5,76,114.3"/>
				<path class="st88" d="M68.1,113c2.1-2.7,8.3-3.4,8.4-3.4l-0.4,4.7l-0.9,0.9L68.1,113z"/>
				<path class="st88" d="M68.1,112.9l7.1,2.2l0.9-0.9l0.4-4.7C76.4,109.6,70.2,110.3,68.1,112.9"/>
				<path class="st89" d="M68.1,113l7.1,2.2c-0.9,1.2-1.4,2.3-1.4,2.3l0,0L68.1,113z"/>
				<path class="st89" d="M73.7,117.4c0,0,0.5-1.1,1.4-2.3l-7.1-2.2L73.7,117.4z"/>
				<path class="st90" d="M118.7,118.5c-0.2,0-0.4-0.1-0.7-0.2c0,0-2.8-4-6.5-4c-1.8,0-3.6,0.9-5.2,2.8c0,0-0.7,0.8-1,0.8
					c0,0,0,0-0.1,0c0-0.1,0-0.2,0.1-0.4c0,0,2.3-3.8,6.1-3.8c2.3,0,4.8,1.4,7.3,4c0,0,0.2,0.5,0.1,0.8
					C118.9,118.4,118.8,118.5,118.7,118.5"/>
				<path class="st90" d="M105.4,117.3c0,0,5.1-8.7,13.4,0.3c0,0,0.6,1.4-0.8,0.6c0,0-5.5-8.2-11.7-1.2
					C106.3,117,104.9,118.5,105.4,117.3"/>
				<path class="st77" d="M111.9,118.6c-0.1,0-1.3,0-2.1-0.9c-0.6-0.7-0.9-1.6-0.8-2.9c0,0,1.1-0.7,2.6-0.7c1.3,0,2.5,0.4,3.7,1.3
					c0,0,0.1,1.3-0.7,2.2C114,118.3,113.1,118.6,111.9,118.6L111.9,118.6z"/>
				<path class="st77" d="M111.9,118.6c0,0-3.2,0.1-2.9-3.8c0,0,2.9-1.8,6.3,0.6C115.3,115.5,115.6,118.6,111.9,118.6"/>
				<polygon class="st91" points="116.9,116.9 118,118.2 116.5,118.6 				"/>
				<polygon class="st91" points="116.9,116.9 116.5,118.6 118,118.2 				"/>
				<path class="st92" d="M112.4,118.6l0.2,0c2.9-0.4,2.6-3.1,2.6-3.1c0.4,0,1.6,1.4,1.7,1.4l-0.2,0.9c-0.5,0.4-3.3,0.7-4.1,0.8l0,0
					C112.6,118.6,112.5,118.6,112.4,118.6L112.4,118.6z"/>
				<path class="st92" d="M112.4,118.6c0,0,3.7-0.4,4.3-0.9l0.2-0.9c0,0-1.3-1.4-1.7-1.4C115.3,115.5,115.6,118.3,112.4,118.6"/>
				<path class="st93" d="M110.4,118.2c-1.5-0.4-3.6-1.7-3.6-1.7c0.2-0.4,2.1-1.6,2.2-1.7C108.8,117.6,110.4,118.2,110.4,118.2
					L110.4,118.2z"/>
				<path class="st93" d="M106.8,116.5c0,0,2.1,1.3,3.6,1.7c0,0-1.6-0.5-1.4-3.4C109,114.8,107,116.1,106.8,116.5"/>
				<path class="st94" d="M105.4,117.8c0.4-0.3,1.3-1.3,1.4-1.3c1.5,1,3.5,1.7,3.5,1.7l0,0L105.4,117.8z"/>
				<path class="st94" d="M105.4,117.8l4.8,0.5c0,0-2-0.7-3.5-1.7C106.8,116.5,105.9,117.5,105.4,117.8"/>
				<path class="st95" d="M117.8,120L117.8,120l-1.3-1.4l0,0l1.6-0.4l0,0c0,0,0.6,0.3,0.8,0.1c0.1-0.1,0.1-0.4-0.1-0.7l0,0l0.7,0.6
					l0,0l-1.1,0.7L117.8,120z M116.5,118.6l1.2,1.3l0.7-1l1-0.7l-0.6-0.5c0.2,0.4,0.2,0.6,0,0.7c-0.2,0.2-0.8-0.1-0.9-0.1
					L116.5,118.6z"/>
				<path class="st95" d="M118,118.2c0,0,1.4,0.7,0.8-0.6l0.7,0.6l-1.1,0.7l-0.7,1l-1.3-1.3L118,118.2"/>
				<path class="st96" d="M113,118.6c2-0.3,3.7-0.9,3.7-0.9l-0.2,0.9l0.5,0.5L113,118.6z"/>
				<path class="st96" d="M113,118.6l3.9,0.5l-0.4-0.5l0.2-0.9C116.7,117.8,115,118.3,113,118.6"/>
				<polygon class="st97" points="118.8,117.6 117.7,116.5 120.6,117.3 120.8,117.3 119.5,118.2 				"/>
				<polygon class="st97" points="120.8,117.3 120.6,117.3 117.7,116.5 118.8,117.6 119.5,118.2 				"/>
				<polygon class="st98" points="117.7,116.5 117.4,114.2 120.8,117.3 120.8,117.4 				"/>
				<polygon class="st98" points="117.4,114.2 117.7,116.5 120.8,117.3 				"/>
				<path class="st13" d="M117.7,116.5c0,0-2-2-4-2.6l3.7,0.2L117.7,116.5L117.7,116.5z"/>
				<path class="st13" d="M113.7,113.9l3.7,0.3l0.3,2.3C117.7,116.5,115.8,114.5,113.7,113.9"/>
				<path class="st99" d="M117.4,114.2l1.7-3.6c2.6,0.7,3.5,1.5,3.5,1.6l2.5,2.3l-4.3,2.9L117.4,114.2z"/>
				<path class="st99" d="M119.1,110.5l-1.7,3.6l3.4,3.2l4.3-2.9l-2.5-2.3C122.6,112.1,121.7,111.2,119.1,110.5"/>
				<path class="st100" d="M113.7,110.4c0.9-0.1,1.8-0.1,2.5-0.1c2.2,0,2.9,0.2,2.9,0.2l-1.7,3.7L113.7,110.4z"/>
				<path class="st100" d="M113.7,110.4l3.7,3.8l1.7-3.6C119.1,110.5,118.1,110.2,113.7,110.4"/>
				<path class="st101" d="M113.7,113.9c0,0-1.1-0.4-2.4-0.4c-0.8,0-1.4,0.1-1.9,0.4l4.2-3.6l3.7,3.8L113.7,113.9z"/>
				<path class="st101" d="M109.5,114l4.3-3.6l3.7,3.8l-3.7-0.3C113.7,113.9,111.1,113.1,109.5,114"/>
				<path class="st102" d="M104.2,111.4l5.2-0.9l4.3-0.2l-4.3,3.6c-0.6,0.1-0.8,0.4-0.8,0.4l0,0L104.2,111.4z"/>
				<path class="st102" d="M104.2,111.4l4.4,2.9c0,0,0.2-0.2,0.8-0.4l4.3-3.6l-4.3,0.2L104.2,111.4z"/>
				<path class="st103" d="M104.2,111.4l4.4,2.9c0,0-2.3,1.1-3.3,3.4l0,0L104.2,111.4z"/>
				<path class="st103" d="M105.3,117.8l0-0.1l-1.1-6.2l4.4,2.9C108.6,114.3,106.3,115.4,105.3,117.8"/>
				<polygon class="st12" points="104.2,111.4 105.3,117.8 100.2,120.1 				"/>
				<polygon class="st12" points="100.2,120.1 105.3,117.8 104.2,111.4 				"/>
				<path class="st14" d="M110.3,118.2C110.3,118.2,110.3,118.2,110.3,118.2c0.1,0,0.8,0.4,2.2,0.4c0.2,0,0.4,0,0.5,0l3.9,0.5
					l0.8,0.9l-3.5,5.4L110.3,118.2z"/>
				<path class="st14" d="M114.2,125.3l-4-7.1c0,0,0.9,0.5,2.7,0.4l3.9,0.5l0.8,0.9L114.2,125.3z"/>
				<polygon class="st82" points="105.4,117.8 110.3,118.2 107.5,122.8 				"/>
				<polygon class="st82" points="105.4,117.8 107.5,122.8 110.3,118.2 				"/>
				<polygon class="st82" points="107.5,122.8 110.3,118.2 114.3,125.3 				"/>
				<polygon class="st82" points="114.2,125.3 107.5,122.8 110.3,118.2 				"/>
				<polygon class="st104" points="107.5,122.8 114.2,125.3 108.8,133.5 				"/>
				<polygon class="st104" points="107.5,122.8 108.8,133.4 114.2,125.3 				"/>
				<polygon class="st12" points="100.2,120.1 105.4,117.7 107.5,122.8 				"/>
				<polygon class="st12" points="100.2,120.1 107.5,122.8 105.4,117.8 				"/>
				<polygon class="st12" points="103.9,130.3 100.2,120.1 107.5,122.8 108.8,133.5 				"/>
				<polygon class="st12" points="103.9,130.3 100.2,120.1 107.5,122.8 108.8,133.4 				"/>
				<polygon class="st105" points="124.3,97.3 118.5,80.3 123.8,83.2 128.1,101.8 128,101.8 				"/>
				<polygon class="st105" points="123.7,83.3 118.5,80.2 124.3,97.3 128.1,101.8 				"/>
				<path class="st106" d="M102.7,59.9l-0.4,16.3l-0.1,0c-2.6,0-9.8,1.4-9.9,1.4l0,0L102.7,59.9z"/>
				<path class="st106" d="M102.8,59.9L92.3,77.6c0,0,7.5-1.4,10-1.4L102.8,59.9z"/>
				<path class="st107" d="M113,77.8c-1.5-1.2-10.6-1.6-10.7-1.6l0.4-16.3L113,77.8L113,77.8z"/>
				<path class="st107" d="M113,77.7l-10.2-17.8l-0.4,16.2C102.3,76.2,111.5,76.6,113,77.7"/>
				<path class="st108" d="M86.4,59.9c1.1-0.3,3.1-0.5,5.9-0.5c4.8,0,10.4,0.5,10.4,0.5L92.3,77.6L86.4,59.9z"/>
				<path class="st108" d="M86.4,59.9l5.9,17.6l10.5-17.6C102.8,59.9,90.2,58.8,86.4,59.9"/>
				<path class="st109" d="M75.5,82.4L75.5,82.4C75.2,81.9,86,60.8,86.4,59.9l5.9,17.6l-2.8,0.7C89.4,78.3,78.5,80.2,75.5,82.4
					L75.5,82.4L75.5,82.4z"/>
				<path class="st109" d="M75.5,82.3C74.6,83,86.4,59.9,86.4,59.9l5.9,17.6l-2.8,0.7C89.5,78.3,78.5,80.2,75.5,82.3"/>
				<path class="st110" d="M72.2,68.5c2.4-3.8,14.1-8.5,14.2-8.6c-3.5,6.4-10.8,22.2-10.9,22.4l0,0L72.2,68.5z"/>
				<path class="st110" d="M72.3,68.5l3.3,13.8c0,0,7.3-15.9,10.9-22.4C86.4,59.9,74.7,64.7,72.3,68.5"/>
				<path class="st9" d="M67.1,101.8l5.2-33.3l3.3,13.8C75.5,82.4,70.7,83.7,67.1,101.8L67.1,101.8z"/>
				<path class="st9" d="M67.1,101.8l5.2-33.3l3.3,13.8C75.5,82.3,70.7,83.5,67.1,101.8"/>
				<path class="st111" d="M59.5,87.6c0-0.1,4.2-11,12.7-19.1l-5.1,34.3L59.5,87.6z"/>
				<path class="st111" d="M59.5,87.6c0,0,4.1-10.9,12.7-19.1l-5.2,34.2L59.5,87.6z"/>
				<path class="st10" d="M59.5,87.6l7.6,15.1c0,0.1-1.4,9-1.3,11.2c0,1.2,0,1.2,0,1.2c0,0,0,0,0,0c0,0,0,0,0-0.5l0,18.9l0,0
					L59.5,87.6z"/>
				<path class="st10" d="M65.8,133.4l-6.2-45.8l7.6,15.1c0,0-1.4,9-1.3,11.2c0,2.2,0,0.7,0,0.7V133.4z"/>
				<path class="st4" d="M51.8,105.8c0-3.4,7.6-18.1,7.7-18.2l6.4,46.8l0,0L51.8,105.8z"/>
				<path class="st4" d="M51.8,105.8l14.1,28.6l-6.4-46.8C59.5,87.6,51.8,102.4,51.8,105.8"/>
				<path class="st112" d="M123.7,83.3c-4.1-3.2-10.7-5.5-10.8-5.5l-10.2-17.8c3.6,0.2,8.2,2.2,8.2,2.2L123.7,83.3L123.7,83.3z"/>
				<path class="st112" d="M123.7,83.3L111,62.2c0,0-4.6-2-8.2-2.2L113,77.7C113,77.7,119.6,80,123.7,83.3"/>
				<path class="st113" d="M111,62.2L111,62.2c0.1,0,7.9,1.6,12.9,4.8l-0.1,16.3L111,62.2z"/>
				<path class="st113" d="M123.8,67l-0.1,16.2L111,62.2C111,62.2,118.8,63.8,123.8,67"/>
				<path class="st114" d="M123.7,83.3l6.5,2.3c0,0.3,1.3,33.4,1.5,34.5l0,0L123.7,83.3z"/>
				<path class="st114" d="M131.7,120.1c-0.2-1.1-1.5-34.5-1.5-34.5l-6.5-2.4L131.7,120.1z"/>
				<path class="st115" d="M130.2,85.6l-6.5-2.4l0.1-16.3c0.2,0.1,13.3,13.7,17.1,26.3l0,0L130.2,85.6z"/>
				<path class="st115" d="M140.9,93.3l-10.7-7.7l-6.5-2.4l0.1-16.2C123.8,67,137,80.6,140.9,93.3"/>
				<path class="st116" d="M130.2,85.6l10.7,7.7c0.1,0.3,8.4,32,8.1,34.8l0,0L130.2,85.6z"/>
				<path class="st116" d="M149,128.1l-18.7-42.5l10.7,7.7C140.9,93.3,149.3,125.3,149,128.1"/>
				<polygon class="st117" points="131.7,120.1 130.2,85.6 149,128.1 				"/>
				<polygon class="st117" points="131.7,120.1 149,128.1 130.2,85.6 				"/>
				<path class="st15" d="M120.6,157.1c0,0,0.6-1,4.3-6.7c0.1-0.2,6-18.6,6.8-30.3l0.6,54.5L120.6,157.1z"/>
				<path class="st15" d="M120.6,157.1c0,0,0.6-0.9,4.3-6.7c0,0,6-18.4,6.8-30.3l0.6,54.5L120.6,157.1z"/>
				<path class="st118" d="M131.7,120.1l17.3,8c0,0.3,0.9,31.7,5.2,43.5l0,0L131.7,120.1z"/>
				<path class="st118" d="M149,128.1c0,0,0.9,31.6,5.2,43.5l-22.5-51.5L149,128.1z"/>
				<polygon class="st119" points="132.1,154.1 131.7,120.1 154.2,171.6 154.2,171.6 				"/>
				<polygon class="st119" points="154.2,171.6 132.1,154.1 131.7,120.1 				"/>
				<polygon class="st120" points="132.1,154.1 154.2,171.6 132.3,174.6 				"/>
				<polygon class="st120" points="132.3,174.6 154.2,171.6 132.1,154.1 				"/>
				<path class="st121" d="M32.2,153.9l0.3-0.3c4.3-5.8,19.2-47.3,19.3-47.7l7.3,14.8l-26.6,33l0,0
					C32.4,153.7,32.3,153.8,32.2,153.9L32.2,153.9z"/>
				<path class="st121" d="M51.8,105.8c0,0-15.6,43.7-19.6,48.1l26.9-33.3L51.8,105.8z"/>
				<path class="st122" d="M50.9,131l8.2-10.4l6.8,13.8c0,0-0.5,2.4,0.1,4.4l3.3,12.1c0,0.1,3.5,7.4,5.7,10.3l0,0l0.1,0.1l0,0
					L50.9,131z"/>
				<path class="st122" d="M75.1,161.3L50.9,131l8.2-10.4l6.8,13.8c0,0-0.5,2.4,0.1,4.4c0.6,2,3.3,12.1,3.3,12.1
					S72.8,158.4,75.1,161.3"/>
				<polygon class="st123" points="56.9,169.5 50.9,131 69.3,177.9 				"/>
				<polygon class="st123" points="69.3,177.9 56.9,169.5 50.9,131 				"/>
				<path class="st124" d="M50.9,131l24.3,30.3c1.7,2.5,3.9,4.5,4,4.5l-9.8,12.1L50.9,131z"/>
				<path class="st124" d="M79.1,165.8c0,0-2.3-2-4-4.5L50.9,131l18.4,46.9L79.1,165.8z"/>
				<polygon class="st125" points="44.5,162.2 52.9,144.1 56.9,169.6 				"/>
				<polygon class="st125" points="44.5,162.2 52.9,144.1 56.9,169.5 				"/>
				<polygon class="st126" points="42.8,140.8 50.9,131 52.9,144.1 44.5,162.2 				"/>
				<polygon class="st126" points="42.8,140.8 44.5,162.2 52.9,144.1 50.9,131 				"/>
				<polygon class="st127" points="32.2,153.9 42.8,140.8 44.5,162.2 				"/>
				<polygon class="st127" points="32.2,153.9 44.5,162.2 42.8,140.8 				"/>
				<polygon class="st128" points="115.7,162.8 118.4,160.2 120.6,157.1 132.3,174.5 132.3,174.6 				"/>
				<polygon class="st128" points="115.7,162.8 132.3,174.6 120.6,157.1 118.4,160.2 				"/>
				<path class="st129" d="M94.6,152.8c-2.1-0.3-4-1-4.1-1c-0.9-0.3-3.3-2.1-3.4-2.1c-0.3-1.1,0-4.1,0-4.1c0.6-0.1,1.2-0.1,1.7-0.1
					c3.1,0,4.7,0.7,4.7,0.7c0.2,0.1,0.6,0.2,1.2,0.2c1.1,0,2.7-0.2,4-0.4c0.7-0.1,1.3-0.2,1.7-0.2c0.1,0,0.2,0,0.3,0
					c1.8,0,5.2,1,5.2,1l0.6,1.8c-3.6,3.1-6.5,3.4-6.5,3.4C98,152.7,94.7,152.8,94.6,152.8L94.6,152.8L94.6,152.8z"/>
				<path class="st129" d="M87.2,145.6c0,0-0.3,2.9,0,4.1c0,0,2.4,1.8,3.4,2.1c0,0,1.9,0.8,4.1,1c0,0,3.4-0.2,5.6-0.8
					c0,0,2.8-0.3,6.5-3.4l-0.6-1.8c0,0-3.8-1.2-5.5-1c-1.7,0.2-6.1,1-7,0.4C93.6,146.2,91.5,145.3,87.2,145.6"/>
				<path class="st34" d="M66,128.3l7.7-10.9c3.7,1.6,5.2,1.7,5.2,1.7l1.5,2.7l-6.7,20.5L66,128.3z"/>
				<path class="st34" d="M66,128.3l7.7,14l6.7-20.5l-1.5-2.7c0,0-1.5,0-5.2-1.7L66,128.3z"/>
				<path class="st130" d="M112.5,117.5L112.5,117.5l-1-1l0,0l0.5-1l0,0l1.4,0.3l0,0l0.5,0.6L112.5,117.5z M111.5,116.5l1,0.9l1.5-1
					l-0.5-0.6l-1.4-0.3L111.5,116.5z"/>
				<polygon class="st130" points="112.6,117.3 114,116.4 113.4,115.8 112,115.5 111.5,116.5 112.5,117.4 				"/>
				<g class="st131">
					<g>
						<defs>
							<rect id="SVGID_7_" x="111" y="114.7" width="2.1" height="1.9"/>
						</defs>
						<clipPath id="SVGID_8_">
							<use xlink:href="#SVGID_7_"  style="overflow:visible;"/>
						</clipPath>
						<path class="st132" d="M112,116.7c0,0-0.5-0.1-0.8-0.4c-0.2-0.2-0.2-0.5-0.2-0.8c0.1-0.6,0.5-0.7,0.9-0.7c0.4,0,1,0.3,1.1,0.7
							c0.1,0.4,0.1,0.7-0.1,0.9C112.7,116.6,112.3,116.7,112,116.7L112,116.7z"/>
					</g>
				</g>
				<g class="st131">
					<g>
						<defs>
							<rect id="SVGID_9_" x="111" y="114.7" width="2" height="1.9"/>
						</defs>
						<clipPath id="SVGID_10_">
							<use xlink:href="#SVGID_9_"  style="overflow:visible;"/>
						</clipPath>
						<path class="st133" d="M112,116.7c0,0-1.1-0.1-1-1.2c0.2-1.1,1.8-0.9,2,0C113.2,116.4,112.6,116.7,112,116.7"/>
					</g>
				</g>
				<path class="st134" d="M86.9,111.4c0,0-3.6-1.8-6.2-1.8l3.2-2.5L86.9,111.4L86.9,111.4z"/>
				<path class="st134" d="M86.9,111.4c0,0-3.6-1.8-6.2-1.9l3.2-2.5L86.9,111.4z"/>
				<polygon class="st130" points="80.7,116.7 80.1,115.2 80.4,114.6 82.7,115.8 81.8,116.7 				"/>
				<polygon class="st130" points="80.1,115.2 80.7,116.7 81.8,116.7 82.7,115.8 80.4,114.6 				"/>
				<g class="st131">
					<g>
						<defs>
							<rect id="SVGID_11_" x="80.5" y="114.1" width="2.2" height="2.2"/>
						</defs>
						<clipPath id="SVGID_12_">
							<use xlink:href="#SVGID_11_"  style="overflow:visible;"/>
						</clipPath>
						<path class="st135" d="M81.8,116.3c-0.1,0-0.8,0-1.1-0.4c-0.2-0.2-0.2-0.6-0.1-1c0.1-0.5,0.4-0.7,0.9-0.7c0.3,0,0.8,0.2,1,0.5
							c0.2,0.2,0.2,0.4,0.2,0.6C82.5,116,82.5,116,81.8,116.3L81.8,116.3z"/>
					</g>
				</g>
				<g class="st131">
					<g>
						<defs>
							<rect id="SVGID_13_" x="80.5" y="114.1" width="2.1" height="2.1"/>
						</defs>
						<clipPath id="SVGID_14_">
							<use xlink:href="#SVGID_13_"  style="overflow:visible;"/>
						</clipPath>
						<path class="st136" d="M81.8,116.2c0,0-1.6,0-1.2-1.4s2.2-0.4,2,0.3C82.5,115.9,82.5,116,81.8,116.2"/>
					</g>
				</g>
				<path class="st6" d="M82.7,146.2c0,0,2.4-0.3,4.5-0.6c0,0-0.4,3.2,0,4.1l0,0L82.7,146.2z"/>
				<path class="st6" d="M87.2,145.6c0,0-0.4,3.2,0,4.1l-4.5-3.5C82.7,146.2,85.1,145.9,87.2,145.6"/>
			</g>
		</g>
	</g>
</g>
</svg>
