<?xml version="1.0" encoding="utf-8"?>
<!-- Generator: Adobe Illustrator 19.2.1, SVG Export Plug-In . SVG Version: 6.00 Build 0)  -->
<svg version="1.1" id="Layer_1" xmlns="http://www.w3.org/2000/svg" xmlns:xlink="http://www.w3.org/1999/xlink" x="0px" y="0px"
	 width="192px" height="234px" viewBox="0 0 192 234" style="enable-background:new 0 0 192 234;" xml:space="preserve">
<style type="text/css">
	.st0{fill:#F3F3F3;}
	.st1{display:none;fill:#F79334;}
	.st2{fill:#D64439;}
	.st3{display:none;fill:#25A786;}
	.st4{display:none;}
	.st5{display:inline;}
	.st6{clip-path:url(#SVGID_2_);}
	.st7{clip-path:url(#SVGID_4_);fill:#F8A382;}
	.st8{clip-path:url(#SVGID_4_);fill:#CD745B;}
	.st9{clip-path:url(#SVGID_4_);fill:#955944;}
	.st10{clip-path:url(#SVGID_4_);fill:#DAA18F;}
	.st11{clip-path:url(#SVGID_4_);fill:#21100F;}
	.st12{clip-path:url(#SVGID_4_);fill:#B17058;}
	.st13{clip-path:url(#SVGID_4_);fill:#FCC8AE;}
	.st14{clip-path:url(#SVGID_6_);fill:#AB754E;}
	.st15{clip-path:url(#SVGID_6_);fill:#9B795E;}
	.st16{clip-path:url(#SVGID_6_);fill:#F9B096;}
	.st17{clip-path:url(#SVGID_6_);fill:#DB8F75;}
	.st18{clip-path:url(#SVGID_6_);fill:#AC7354;}
	.st19{clip-path:url(#SVGID_6_);fill:#A26E56;}
	.st20{clip-path:url(#SVGID_6_);fill:#F5C096;}
	.st21{clip-path:url(#SVGID_6_);fill:#ECA48A;}
	.st22{clip-path:url(#SVGID_6_);fill:#FBBC95;}
	.st23{clip-path:url(#SVGID_6_);fill:#FCC5A0;}
	.st24{clip-path:url(#SVGID_6_);fill:#F9B296;}
	.st25{clip-path:url(#SVGID_6_);fill:#F3AA8B;}
	.st26{clip-path:url(#SVGID_6_);fill:#BA7C55;}
	.st27{clip-path:url(#SVGID_6_);fill:#FAB594;}
	.st28{clip-path:url(#SVGID_6_);fill:#A86C4A;}
	.st29{clip-path:url(#SVGID_6_);fill:#955944;}
	.st30{clip-path:url(#SVGID_6_);fill:#B9795D;}
	.st31{clip-path:url(#SVGID_6_);fill:#CD7A5C;}
	.st32{clip-path:url(#SVGID_6_);fill:#A55A46;}
	.st33{clip-path:url(#SVGID_6_);fill:#C87260;}
	.st34{clip-path:url(#SVGID_6_);fill:#CD7468;}
	.st35{clip-path:url(#SVGID_6_);fill:#DB8B7B;}
	.st36{clip-path:url(#SVGID_6_);fill:#0E0B0C;}
	.st37{clip-path:url(#SVGID_6_);fill:#B96459;}
	.st38{clip-path:url(#SVGID_6_);fill:#A7664F;}
	.st39{clip-path:url(#SVGID_6_);fill:#CD8977;}
	.st40{clip-path:url(#SVGID_6_);fill:#DD947E;}
	.st41{clip-path:url(#SVGID_6_);fill:#EEAA94;}
	.st42{clip-path:url(#SVGID_6_);fill:#F8B399;}
	.st43{clip-path:url(#SVGID_6_);fill:#1C160F;}
	.st44{clip-path:url(#SVGID_6_);fill:#F79C90;}
	.st45{clip-path:url(#SVGID_6_);fill:#F69989;}
	.st46{clip-path:url(#SVGID_6_);fill:#F8A68C;}
	.st47{clip-path:url(#SVGID_6_);fill:#AD533C;}
	.st48{clip-path:url(#SVGID_6_);fill:#B45642;}
	.st49{clip-path:url(#SVGID_6_);fill:#F9B8A7;}
	.st50{clip-path:url(#SVGID_6_);fill:#A43023;}
	.st51{clip-path:url(#SVGID_6_);fill:#A64327;}
	.st52{clip-path:url(#SVGID_6_);fill:#52332B;}
	.st53{clip-path:url(#SVGID_6_);fill:#DD9E88;}
	.st54{clip-path:url(#SVGID_6_);fill:#F9B4A0;}
	.st55{clip-path:url(#SVGID_6_);fill:#B77452;}
	.st56{clip-path:url(#SVGID_6_);fill:#21100F;}
	.st57{clip-path:url(#SVGID_6_);fill:#674027;}
	.st58{clip-path:url(#SVGID_6_);fill:#5E3A2A;}
	.st59{clip-path:url(#SVGID_6_);fill:#784F3D;}
	.st60{clip-path:url(#SVGID_6_);fill:#8E6855;}
	.st61{clip-path:url(#SVGID_6_);fill:#1D150F;}
	.st62{clip-path:url(#SVGID_6_);fill:#150F0E;}
	.st63{clip-path:url(#SVGID_6_);fill:#85563D;}
	.st64{clip-path:url(#SVGID_6_);fill:#704831;}
	.st65{clip-path:url(#SVGID_6_);fill:#CA9274;}
	.st66{clip-path:url(#SVGID_6_);fill:#EFAF97;}
	.st67{clip-path:url(#SVGID_6_);fill:#FBC6AE;}
	.st68{clip-path:url(#SVGID_6_);fill:#FDCFB4;}
	.st69{clip-path:url(#SVGID_6_);fill:#FBBF9E;}
	.st70{clip-path:url(#SVGID_6_);fill:#FBBC9A;}
	.st71{clip-path:url(#SVGID_6_);fill:#F9AC87;}
	.st72{clip-path:url(#SVGID_6_);fill:#F2B186;}
	.st73{clip-path:url(#SVGID_6_);fill:#F8A382;}
	.st74{clip-path:url(#SVGID_6_);fill:#D1835F;}
	.st75{clip-path:url(#SVGID_6_);fill:#FAB288;}
	.st76{clip-path:url(#SVGID_6_);fill:#181712;}
	.st77{clip-path:url(#SVGID_6_);fill:#1B1C1C;}
	.st78{clip-path:url(#SVGID_6_);fill:#0C0A0B;}
	.st79{clip-path:url(#SVGID_6_);fill:#151211;}
	.st80{clip-path:url(#SVGID_6_);fill:#0E0A0C;}
	.st81{clip-path:url(#SVGID_6_);fill:#151614;}
	.st82{clip-path:url(#SVGID_6_);fill:#060505;}
	.st83{clip-path:url(#SVGID_6_);fill:#111111;}
	.st84{clip-path:url(#SVGID_6_);fill:#14120F;}
	.st85{clip-path:url(#SVGID_6_);fill:#11100F;}
	.st86{clip-path:url(#SVGID_6_);fill:#090707;}
	.st87{clip-path:url(#SVGID_6_);}
	.st88{clip-path:url(#SVGID_6_);fill:#110F0E;}
	.st89{clip-path:url(#SVGID_6_);fill:#030303;}
	.st90{clip-path:url(#SVGID_6_);fill:#070808;}
	.st91{clip-path:url(#SVGID_6_);fill:#171514;}
	.st92{clip-path:url(#SVGID_6_);fill:#FDD0B3;}
	.st93{clip-path:url(#SVGID_6_);fill:#FCC8AE;}
	.st94{clip-path:url(#SVGID_6_);fill:#FAB99F;}
	.st95{clip-path:url(#SVGID_6_);fill:#F9A88C;}
	.st96{clip-path:url(#SVGID_6_);fill:#F8A48F;}
	.st97{clip-path:url(#SVGID_6_);fill:#CD745B;}
	.st98{clip-path:url(#SVGID_6_);fill:#C97959;}
	.st99{clip-path:url(#SVGID_6_);fill:#F59E80;}
	.st100{clip-path:url(#SVGID_6_);fill:#834B3A;}
	.st101{clip-path:url(#SVGID_6_);fill:#E2906E;}
	.st102{clip-path:url(#SVGID_6_);fill:#F8A993;}
	.st103{clip-path:url(#SVGID_6_);fill:#F3F3F3;}
	.st104{clip-path:url(#SVGID_6_);fill:#4C3233;}
	.st105{clip-path:url(#SVGID_6_);fill:#242722;}
	.st106{clip-path:url(#SVGID_6_);fill:#CCB6B4;}
	.st107{clip-path:url(#SVGID_6_);fill:#A98068;}
	.st108{clip-path:url(#SVGID_6_);fill:#A06E55;}
	.st109{clip-path:url(#SVGID_6_);fill:#98604A;}
	.st110{clip-path:url(#SVGID_6_);fill:#A26854;}
	.st111{clip-path:url(#SVGID_6_);fill:#B17058;}
	.st112{clip-path:url(#SVGID_6_);fill:#E09779;}
	.st113{clip-path:url(#SVGID_6_);fill:#F0AD8A;}
	.st114{clip-path:url(#SVGID_6_);fill:#DA988A;}
	.st115{clip-path:url(#SVGID_6_);fill:#DAA18F;}
	.st116{clip-path:url(#SVGID_6_);fill:#A5796B;}
	.st117{clip-path:url(#SVGID_6_);fill:#CD9B8B;}
	.st118{clip-path:url(#SVGID_6_);fill:#EFE3B3;}
	.st119{clip-path:url(#SVGID_8_);fill:#BF8C79;}
	.st120{clip-path:url(#SVGID_8_);fill:#E1BAA2;}
	.st121{clip-path:url(#SVGID_8_);fill:#EAB09A;}
	.st122{clip-path:url(#SVGID_8_);fill:#DEBA9F;}
	.st123{clip-path:url(#SVGID_8_);fill:#C88870;}
	.st124{clip-path:url(#SVGID_10_);fill:#FBC0A5;}
	.st125{clip-path:url(#SVGID_10_);fill:#FCC5A9;}
	.st126{clip-path:url(#SVGID_10_);fill:#52190F;}
	.st127{clip-path:url(#SVGID_10_);fill:#C17E57;}
	.st128{clip-path:url(#SVGID_10_);fill:#D78767;}
	.st129{clip-path:url(#SVGID_10_);fill:#EAAC95;}
	.st130{clip-path:url(#SVGID_10_);fill:#F1A68C;}
	.st131{clip-path:url(#SVGID_10_);fill:#F2AB91;}
	.st132{clip-path:url(#SVGID_10_);fill:#C97F5E;}
	.st133{clip-path:url(#SVGID_10_);fill:#F69289;}
	.st134{clip-path:url(#SVGID_10_);fill:#EB9382;}
	.st135{clip-path:url(#SVGID_10_);fill:#FCC8AE;}
	.st136{clip-path:url(#SVGID_10_);fill:#242722;}
	.st137{clip-path:url(#SVGID_12_);}
	.st138{clip-path:url(#SVGID_14_);}
	.st139{clip-path:url(#SVGID_16_);fill:#C69270;}
	.st140{clip-path:url(#SVGID_16_);fill:#AE605D;}
	.st141{clip-path:url(#SVGID_16_);fill:#4F3127;}
	.st142{clip-path:url(#SVGID_16_);fill:#AC7C65;}
	.st143{clip-path:url(#SVGID_16_);fill:#D9A995;}
	.st144{clip-path:url(#SVGID_16_);fill:#C18F74;}
	.st145{clip-path:url(#SVGID_16_);fill:#403024;}
	.st146{clip-path:url(#SVGID_16_);fill:#EFBCA8;}
	.st147{clip-path:url(#SVGID_18_);fill:#DCAD9B;}
	.st148{clip-path:url(#SVGID_18_);fill:#A3705D;}
	.st149{clip-path:url(#SVGID_18_);fill:#976253;}
	.st150{clip-path:url(#SVGID_18_);fill:#A36E5E;}
	.st151{clip-path:url(#SVGID_18_);fill:#DBA992;}
	.st152{clip-path:url(#SVGID_18_);fill:#CA987F;}
	.st153{clip-path:url(#SVGID_18_);fill:#D6A084;}
	.st154{clip-path:url(#SVGID_18_);fill:#B48164;}
	.st155{clip-path:url(#SVGID_18_);fill:#EAB8A2;}
	.st156{clip-path:url(#SVGID_18_);fill:#F4C8B1;}
	.st157{clip-path:url(#SVGID_18_);fill:#DDAA8F;}
	.st158{clip-path:url(#SVGID_18_);fill:#E1AF98;}
	.st159{clip-path:url(#SVGID_18_);fill:#EAB49A;}
	.st160{clip-path:url(#SVGID_18_);fill:#D49E82;}
	.st161{clip-path:url(#SVGID_18_);fill:#E8BA9E;}
	.st162{clip-path:url(#SVGID_18_);fill:#C99781;}
	.st163{clip-path:url(#SVGID_18_);fill:#EEBEA8;}
	.st164{clip-path:url(#SVGID_18_);fill:#E9B59F;}
	.st165{clip-path:url(#SVGID_18_);fill:#D7A88C;}
	.st166{clip-path:url(#SVGID_18_);fill:#AA7C65;}
	.st167{clip-path:url(#SVGID_18_);fill:#997865;}
	.st168{clip-path:url(#SVGID_18_);fill:#C18F74;}
	.st169{clip-path:url(#SVGID_18_);fill:#AF7F68;}
	.st170{clip-path:url(#SVGID_18_);fill:#C69270;}
	.st171{clip-path:url(#SVGID_18_);fill:#F1C2AB;}
	.st172{clip-path:url(#SVGID_18_);fill:#EAB198;}
	.st173{clip-path:url(#SVGID_18_);fill:#D29B7F;}
	.st174{clip-path:url(#SVGID_18_);fill:#B58E75;}
	.st175{clip-path:url(#SVGID_18_);fill:#E29895;}
	.st176{clip-path:url(#SVGID_18_);fill:#B63A43;}
	.st177{clip-path:url(#SVGID_18_);fill:#B26E65;}
	.st178{clip-path:url(#SVGID_18_);fill:#AE605D;}
	.st179{clip-path:url(#SVGID_18_);fill:#9F544F;}
	.st180{clip-path:url(#SVGID_18_);fill:#C4947F;}
	.st181{clip-path:url(#SVGID_18_);fill:#DBA69A;}
	.st182{clip-path:url(#SVGID_18_);fill:#EDB0A6;}
	.st183{clip-path:url(#SVGID_18_);fill:#E0AB9B;}
	.st184{clip-path:url(#SVGID_18_);fill:#663224;}
	.st185{clip-path:url(#SVGID_18_);fill:#6E3325;}
	.st186{clip-path:url(#SVGID_18_);fill:#C58B76;}
	.st187{clip-path:url(#SVGID_18_);fill:#EBC0A5;}
	.st188{clip-path:url(#SVGID_18_);fill:#955D4A;}
	.st189{clip-path:url(#SVGID_18_);fill:#B17C6A;}
	.st190{clip-path:url(#SVGID_18_);fill:#E2AA95;}
	.st191{clip-path:url(#SVGID_18_);fill:#D1A18C;}
	.st192{clip-path:url(#SVGID_18_);fill:#B88572;}
	.st193{clip-path:url(#SVGID_18_);fill:#CF9E8D;}
	.st194{clip-path:url(#SVGID_18_);fill:#BE8E7A;}
	.st195{clip-path:url(#SVGID_18_);fill:#D79889;}
	.st196{clip-path:url(#SVGID_18_);fill:#CFA08B;}
	.st197{clip-path:url(#SVGID_18_);fill:#BBA9A0;}
	.st198{clip-path:url(#SVGID_18_);fill:#D4B8AA;}
	.st199{clip-path:url(#SVGID_18_);fill:#3E3E3E;}
	.st200{clip-path:url(#SVGID_18_);fill:#432117;}
	.st201{clip-path:url(#SVGID_18_);fill:#583122;}
	.st202{clip-path:url(#SVGID_18_);fill:#533628;}
	.st203{clip-path:url(#SVGID_18_);fill:#4F3127;}
	.st204{clip-path:url(#SVGID_18_);fill:#624337;}
	.st205{clip-path:url(#SVGID_18_);fill:#744939;}
	.st206{clip-path:url(#SVGID_18_);fill:#B27F6E;}
	.st207{clip-path:url(#SVGID_18_);fill:#AE8471;}
	.st208{clip-path:url(#SVGID_18_);fill:#9A7668;}
	.st209{clip-path:url(#SVGID_18_);fill:#9A6955;}
	.st210{clip-path:url(#SVGID_18_);fill:#B5856F;}
	.st211{clip-path:url(#SVGID_18_);fill:#BC8C7A;}
	.st212{clip-path:url(#SVGID_18_);fill:#D3A093;}
	.st213{clip-path:url(#SVGID_18_);fill:#DCC1B6;}
	.st214{clip-path:url(#SVGID_18_);fill:#B4A19A;}
	.st215{clip-path:url(#SVGID_18_);fill:#BB8A73;}
	.st216{clip-path:url(#SVGID_18_);fill:#CC9B8A;}
	.st217{clip-path:url(#SVGID_18_);fill:#97654F;}
	.st218{clip-path:url(#SVGID_18_);fill:#7A4C40;}
	.st219{clip-path:url(#SVGID_18_);fill:#4A2D1F;}
	.st220{clip-path:url(#SVGID_18_);fill:#4F3429;}
	.st221{clip-path:url(#SVGID_18_);fill:#4B2E28;}
	.st222{clip-path:url(#SVGID_18_);fill:#4D2F23;}
	.st223{clip-path:url(#SVGID_18_);fill:#614130;}
	.st224{clip-path:url(#SVGID_18_);fill:#A68272;}
	.st225{clip-path:url(#SVGID_18_);fill:#AF7F69;}
	.st226{clip-path:url(#SVGID_18_);fill:#AC7C65;}
	.st227{clip-path:url(#SVGID_18_);fill:#9F7964;}
	.st228{clip-path:url(#SVGID_18_);fill:#D4A089;}
	.st229{clip-path:url(#SVGID_18_);fill:#F1C5B9;}
	.st230{clip-path:url(#SVGID_18_);fill:#EFBCA8;}
	.st231{clip-path:url(#SVGID_18_);fill:#CE977B;}
	.st232{clip-path:url(#SVGID_18_);fill:#E1A58D;}
	.st233{clip-path:url(#SVGID_18_);fill:#ECB49B;}
	.st234{clip-path:url(#SVGID_18_);fill:#EFBBA4;}
	.st235{clip-path:url(#SVGID_18_);fill:#DBA385;}
	.st236{clip-path:url(#SVGID_18_);fill:#C79176;}
	.st237{clip-path:url(#SVGID_18_);fill:#D39B7C;}
	.st238{clip-path:url(#SVGID_18_);fill:#D39176;}
	.st239{clip-path:url(#SVGID_18_);fill:#CA9688;}
	.st240{clip-path:url(#SVGID_18_);fill:#E5967F;}
	.st241{clip-path:url(#SVGID_18_);fill:#D8AA92;}
	.st242{clip-path:url(#SVGID_18_);fill:#D78770;}
	.st243{clip-path:url(#SVGID_18_);fill:#CC896D;}
	.st244{clip-path:url(#SVGID_18_);fill:#544139;}
	.st245{clip-path:url(#SVGID_18_);fill:#2F1E15;}
	.st246{clip-path:url(#SVGID_18_);fill:#331A13;}
	.st247{clip-path:url(#SVGID_18_);fill:#1D1511;}
	.st248{clip-path:url(#SVGID_18_);fill:#30241A;}
	.st249{clip-path:url(#SVGID_18_);fill:#171412;}
	.st250{clip-path:url(#SVGID_18_);fill:#2B201D;}
	.st251{clip-path:url(#SVGID_18_);fill:#36251A;}
	.st252{clip-path:url(#SVGID_18_);fill:#281510;}
	.st253{clip-path:url(#SVGID_18_);fill:#201812;}
	.st254{clip-path:url(#SVGID_18_);fill:#403024;}
	.st255{clip-path:url(#SVGID_18_);fill:#69514A;}
	.st256{clip-path:url(#SVGID_18_);fill:#AA857B;}
	.st257{clip-path:url(#SVGID_18_);fill:#B87C74;}
	.st258{clip-path:url(#SVGID_18_);fill:#9E6B54;}
	.st259{clip-path:url(#SVGID_18_);fill:#8F5D4C;}
	.st260{clip-path:url(#SVGID_18_);fill:#A8715D;}
	.st261{clip-path:url(#SVGID_18_);fill:#D88684;}
	.st262{clip-path:url(#SVGID_18_);fill:#CB827E;}
	.st263{clip-path:url(#SVGID_18_);fill:#E4B29B;}
	.st264{clip-path:url(#SVGID_18_);fill:#513329;}
	.st265{clip-path:url(#SVGID_18_);fill:#A77761;}
	.st266{clip-path:url(#SVGID_18_);fill:#D9A995;}
	.st267{clip-path:url(#SVGID_18_);fill:#1E1A19;}
	.st268{clip-path:url(#SVGID_18_);fill:#D29580;}
	.st269{clip-path:url(#SVGID_18_);fill:#DBA084;}
	.st270{opacity:0.7;clip-path:url(#SVGID_18_);}
	.st271{clip-path:url(#SVGID_20_);fill:none;stroke:#432117;stroke-linecap:round;stroke-linejoin:round;stroke-miterlimit:10;}
	.st272{opacity:0.3;clip-path:url(#SVGID_18_);}
	.st273{clip-path:url(#SVGID_22_);fill:none;stroke:#432117;stroke-linecap:round;stroke-linejoin:round;stroke-miterlimit:10;}
	.st274{clip-path:url(#SVGID_24_);fill:none;stroke:#432117;stroke-linecap:round;stroke-linejoin:round;stroke-miterlimit:10;}
	.st275{clip-path:url(#SVGID_26_);fill:none;stroke:#432117;stroke-linecap:round;stroke-linejoin:round;stroke-miterlimit:10;}
	.st276{clip-path:url(#SVGID_18_);fill:#313634;}
</style>
<rect class="st0" width="192" height="234"/>
<polygon class="st1" points="192,215.5 172.5,234 192,234 "/>
<polygon class="st2" points="192,215.5 172.5,234 192,234 "/>
<polygon class="st3" points="192,215.5 172.5,234 192,234 "/>
<g class="st4">
	<g class="st5">
		<defs>
			<rect id="SVGID_1_" x="1" y="55.6" width="172.5" height="173.5"/>
		</defs>
		<clipPath id="SVGID_2_">
			<use xlink:href="#SVGID_1_"  style="overflow:visible;"/>
		</clipPath>
		<g class="st6">
			<defs>
				<rect id="SVGID_3_" x="1" y="55.6" width="172.5" height="173.5"/>
			</defs>
			<clipPath id="SVGID_4_">
				<use xlink:href="#SVGID_3_"  style="overflow:visible;"/>
			</clipPath>
			<path class="st7" d="M68.9,114.8c-0.5-3.1-2.6-5.7-2.9-8.9c-0.4,0.5-0.7,0.9-1.1,1.4c4.5-0.8,9-0.4,13.6-0.8
				c2.1-0.1,4.1-0.5,6.1-1.2c1.6-0.5,2.9-1.6,4.6-2.1c4.4-1.2,9.4-1,13.9-1.6c1.8-0.2,3.7-0.5,5.4-1c1.4-0.4,2.2-1.7,3.4-2.1
				c1.5-0.5,1.3-2.9-0.4-2.8c-8.2,0.4-16.3,2.7-23.7,6.2c-1.7,0.8-0.2,3.3,1.5,2.5c7-3.3,14.6-5.5,22.3-5.8
				c-0.1-0.9-0.3-1.9-0.4-2.8c-1.4,0.4-2,1.6-3.4,2.1c-2.1,0.8-4.6,0.9-6.8,1.1c-4.1,0.5-8.4,0.5-12.5,1.4c-1,0.2-2.4,0.7-3.2,1.4
				c-1.9,1.5-5.4,1.6-7.7,1.8c-4.5,0.3-8.9,0-13.3,0.8c-0.6,0.1-1.1,0.8-1.1,1.4c0.4,3.5,2.5,6.4,3,9.7
				C66.4,117.4,69.2,116.6,68.9,114.8"/>
			<path class="st7" d="M65.2,85.7c0.2,2.1,0.2,4.2,0.2,6.3c0,1.9,2.9,1.9,2.9,0c0-2.1,0-4.2-0.2-6.3C67.9,83.9,65.1,83.9,65.2,85.7
				"/>
			<path class="st7" d="M62,116.4c0.1-7.8-3.8-15.7-2.1-23.5c-0.9,0.1-1.8,0.2-2.6,0.3c3.4,7.8,5,16.2,9,23.8
				c0.9,1.6,3.3,0.2,2.5-1.5c-4-7.5-5.6-16-9-23.8c-0.5-1.1-2.4-0.8-2.6,0.3c-1.8,8.2,2.1,16.1,2,24.2C59,118.3,61.9,118.3,62,116.4
				"/>
			<path class="st8" d="M74.1,131.8c0.6,3.3,0.4,6.6,0.4,10c0,1.9,2.9,1.9,2.9,0c0-3.6,0.1-7.2-0.5-10.7
				C76.5,129.3,73.7,130,74.1,131.8"/>
			<path class="st9" d="M73.6,142.2c1,4.5,1.9,8.9,2.3,13.5c0.2,1.8,3,1.8,2.9,0c-0.4-4.8-1.4-9.6-2.4-14.3
				C76,139.6,73.2,140.4,73.6,142.2"/>
			<path class="st9" d="M75,144.1c1.6,1.1,3.7,1.2,5.5,1.3c1.9,0,1.9-2.9,0-2.9c-1.4,0-2.9-0.1-4.1-0.9
				C74.9,140.6,73.5,143.1,75,144.1"/>
			<path class="st9" d="M81.6,162.6c0.9,0.5,1.9,0.8,2.9,1.1c0.9,0.3,2,0.5,2.7,1.1c1.4,1.1,3.5-0.9,2-2c-1.9-1.5-4.2-1.5-6.2-2.6
				C81.5,159.2,80,161.7,81.6,162.6"/>
			<path class="st9" d="M89.7,159.6c-2,0-4-0.2-5.9,0.3c-1.8,0.5-1,3.3,0.8,2.8c1.7-0.5,3.4-0.3,5.2-0.2
				C91.6,162.5,91.6,159.7,89.7,159.6"/>
			<path class="st9" d="M76.6,174.4c-0.2-0.2,0.4,0.4,0.5,0.4c0.4,0.3,0.7,0.6,1.1,0.9c0.7,0.6,1.5,1.2,2.4,1.5
				c0.9,0.3,2.3,0,2.8-0.9c0.6-1.1,0.2-2.3-0.6-3.2c-0.5-0.6-1.5-0.5-2,0c-0.6,0.6-0.5,1.4,0,2c0,0,0,0.1,0,0
				c0.1-0.5,0.4-0.7,0.8-0.6c-0.1,0-0.2,0,0,0c-0.4-0.2-0.8-0.5-1.1-0.7c-0.8-0.6-1.6-1.3-2.4-2c-0.6-0.5-1.6-0.1-2,0.5
				C75.6,173.2,75.9,173.9,76.6,174.4"/>
			<path class="st9" d="M75.8,169.6c0-0.6,2.8-1.9,3.3-2.3c0.9-0.8,1.4-2.3,0.8-3.4c-0.8-1.4-2.3-2.1-3.9-1.5
				c-1.7,0.6-1.4,2.4-1.3,3.9c0.1,1.5,2.6,2.1,2.8,0.4c0.2-1.4,0.1-2.7-0.1-4.2c-0.1-0.8-0.2-1.7-0.3-2.5c-0.1-0.4,0.4-0.3,0.7-0.5
				c1.8-1,1.7-3.4,0.2-4.6c-1.4-1.2-3.4,0.8-2,2c0.4,0.3-0.6,0.4-0.9,0.7c-0.6,0.6-0.8,0.9-0.9,1.7c-0.3,2.2,0.8,4.4,0.5,6.6
				c0.9,0.1,1.9,0.3,2.8,0.4c-0.1-0.9,0-1.4-0.9-0.7c-0.7,0.5-1.4,0.8-2,1.3c-1,0.7-1.6,1.5-1.6,2.7
				C72.9,171.5,75.8,171.5,75.8,169.6"/>
			<path class="st9" d="M88.6,116.9c1.2-0.1,2.2-0.6,3.4-0.8c0.8-0.2,1.2-1,1-1.8c-0.2-0.8-1-1.2-1.8-1c-0.9,0.2-1.7,0.6-2.6,0.7
				c-0.8,0.1-1.4,0.6-1.4,1.4C87.2,116.2,87.8,117,88.6,116.9"/>
			<path class="st10" d="M93.8,116.7c2.3-0.5,4.6-1.2,7-1.4c1.8-0.2,1.8-3,0-2.9c-2.6,0.2-5.2,1-7.8,1.5
				C91.2,114.4,92,117.1,93.8,116.7"/>
			<path class="st10" d="M93.1,130.8c2.9-0.8,5.9-1.3,8.9-1.8c1.8-0.3,1-3.1-0.8-2.8c-3,0.5-6,1.1-8.9,1.8
				C90.5,128.5,91.3,131.3,93.1,130.8"/>
			<path class="st10" d="M104,113.6c1.9,0.2,3.7,0.1,5.6,0.1c1.9,0,1.9-2.9,0-2.9c-1.9,0-3.7,0.1-5.6-0.1
				C102.2,110.6,102.2,113.5,104,113.6"/>
			<path class="st11" d="M81.3,118.8c-1.6,1.7-0.1,4,0.7,5.7l0.9-2.1c-1,0.2-2,0.2-3.1,0.1c-1.9,0-1.8,2.8,0,2.9
				c1,0.1,2.3,0.1,2.9-0.9c0.2-0.3,0.2-0.6,0.3-1c0.1-0.6,1.3-1.2,1.8-1.6c0.7-0.7,0.5-2.3-0.6-2.4c-3-0.4-7.8-0.9-9.7,2.2
				c-0.5,0.9,0,1.8,0.9,2.1c0.7,0.3,1.4,0.4,2.1,0.4c1.9,0.1,1.8-2.8,0-2.9c-0.5,0-0.9-0.1-1.3-0.3l0.9,2.1c1-1.6,4.9-1.1,6.4-0.9
				c-0.2-0.8-0.4-1.6-0.6-2.4c-0.8,0.8-1.8,1.2-2.3,2.3c-0.1,0.3-0.2,0.6-0.3,0.9c-0.1,0.4,0.1,0.3,0.6-0.5c-0.3,0-0.6,0-0.9,0v2.9
				c1.3,0,2.6,0,3.8-0.2c1-0.2,1.3-1.3,0.9-2.1c-0.2-0.4-0.4-0.8-0.6-1.2c-0.1-0.2-0.4-1.2-0.6-1C84.6,119.6,82.6,117.5,81.3,118.8"
				/>
			<path class="st11" d="M59.4,122c4.4,0.4,8.9,0.3,13.3,0c1.8-0.1,1.9-3,0-2.9c-4.4,0.3-8.9,0.4-13.3,0
				C57.5,118.9,57.5,121.8,59.4,122"/>
			<path class="st11" d="M64.2,120.5c2.1,0.4,4.2,0.1,6.3,0.3c1.8,0.2,1.8-2.7,0-2.9c-1.8-0.2-3.7,0.1-5.6-0.2
				C63.1,117.4,62.3,120.2,64.2,120.5"/>
			<path class="st12" d="M60.5,126.7c0.8,0.7,1.6,1.3,2.4,1.9c0.6,0.5,1.6,0.1,2-0.5c0.4-0.7,0.1-1.5-0.5-2
				c-0.3-0.2-0.6-0.5-0.9-0.7c-0.1-0.1-0.2-0.1-0.1-0.1c-0.1-0.1-0.2-0.1-0.2-0.2c-0.2-0.2-0.4-0.3-0.6-0.5c-0.6-0.5-1.4-0.6-2,0
				C59.9,125.2,59.9,126.2,60.5,126.7"/>
			<path class="st12" d="M59.4,130.4c1.2-0.3,2.5,0,3.7-0.2c1.3-0.2,2.6-1.1,2.8-2.5c0.1-0.8-0.7-1.4-1.4-1.4c0.1,0,0.1,0,0.2,0
				c-1.8-0.5-2.6,2.3-0.8,2.8c0.2,0,0.4,0.1,0.6,0.1c-0.5-0.5-1-1-1.4-1.4c0.1-0.6,0.1-0.4-0.4-0.3c-0.4,0.1-0.8,0-1.2,0
				c-0.9,0-1.8-0.1-2.7,0.2C56.8,128.1,57.6,130.9,59.4,130.4"/>
			<path class="st12" d="M61.7,128.5c1.9,0,1.9-2.9,0-2.9S59.8,128.5,61.7,128.5"/>
			<path class="st12" d="M68.9,126.7c1-0.3,2.1-0.5,3.1-0.8c1.8-0.5,1-3.3-0.8-2.8c-1,0.3-2,0.5-3.1,0.8
				C66.4,124.4,67.2,127.2,68.9,126.7"/>
			<path class="st12" d="M64.1,125.5c1.6-2.6,6.3-2.3,8.7-1.2c1.7,0.7,3.1-1.7,1.5-2.5c-3.9-1.7-10.1-1.9-12.6,2.2
				C60.6,125.6,63.1,127.1,64.1,125.5"/>
			<path class="st13" d="M105.7,126c-1,1.7,0,3.3,0.6,4.9c0.3-0.6,0.7-1.2,1-1.8c-2.1,0.5-4.2,0.1-4.5,2.8c-0.3,2.6,2.8,4.5,4.9,4.9
				c0.7,0.1,1.6-0.2,1.8-1c0.3-1.7-0.1-2.9-0.8-4.5c-0.8,0.5-1.7,1-2.5,1.5c1,1.8,1.7,3.6,2.1,5.6c0.3,1.8,3.1,1,2.8-0.8
				c-0.4-2.3-1.2-4.3-2.3-6.3c-0.9-1.6-3.2-0.2-2.5,1.5c0.4,0.7,0.6,1.4,0.5,2.2l1.8-1c-0.6-0.1-1.2-0.3-1.7-0.7
				c-0.2-0.2-0.4-0.3-0.6-0.5c-0.1-1-0.4-1.2-0.7-0.5c0.8-0.3,1.8-0.2,2.7-0.4c0.7-0.2,1.3-1,1-1.8c-0.2-0.6-1.3-2.1-0.9-2.7
				C109.2,125.9,106.7,124.4,105.7,126"/>
		</g>
		<g class="st6">
			<defs>
				<rect id="SVGID_5_" x="1" y="55.6" width="172.5" height="173.5"/>
			</defs>
			<clipPath id="SVGID_6_">
				<use xlink:href="#SVGID_5_"  style="overflow:visible;"/>
			</clipPath>
			<path class="st14" d="M74.5,172.4c-3.6-3.2-9-12.5-9-12.6l11.3-5.1L74.5,172.4L74.5,172.4z"/>
			<path class="st14" d="M65.5,159.8c0,0,5.4,9.3,9,12.6l2.3-17.6L65.5,159.8z"/>
			<polygon class="st15" points="74.5,172.4 84,174.6 78,176.2 			"/>
			<polygon class="st15" points="74.5,172.4 78.1,176.2 84,174.6 			"/>
			<polygon class="st16" points="89.4,164.3 103.2,170.2 91.9,172.4 83.9,174.6 			"/>
			<polygon class="st16" points="89.5,164.4 84,174.6 91.8,172.4 103.2,170.2 			"/>
			<polygon class="st17" points="74.5,172.4 89.4,164.3 84,174.6 			"/>
			<polygon class="st17" points="74.5,172.4 89.5,164.4 84,174.6 			"/>
			<path class="st18" d="M76.8,154.8c0.1,0.1,2.7,6.8,12.7,9.6l-15,8.1L76.8,154.8z"/>
			<path class="st18" d="M76.8,154.8c0,0,2.6,6.8,12.7,9.6l-15,8L76.8,154.8z"/>
			<path class="st19" d="M89.5,164.4c-3.6-0.9-7.7-3.7-7.8-3.7c1,0.3,2.1,0.4,3.3,0.4c4.4,0,8.5-1.9,8.5-2
				C91.2,164.1,89.5,164.4,89.5,164.4L89.5,164.4L89.5,164.4z"/>
			<path class="st19" d="M93.6,159.1c0,0-6.5,3.1-11.9,1.5c0,0,4.1,2.9,7.8,3.7C89.5,164.4,91.1,164.2,93.6,159.1"/>
			<polygon class="st20" points="105.6,154 118.9,163.6 103.1,170.2 			"/>
			<polygon class="st20" points="105.7,154 103.2,170.2 118.9,163.6 			"/>
			<path class="st21" d="M128.7,134.6c0,0.1,1.5,11.7-1,13.8l-11.1,2.8L128.7,134.6z"/>
			<path class="st21" d="M128.7,134.6c0,0,1.5,11.7-1.1,13.8l-11,2.8L128.7,134.6z"/>
			<path class="st22" d="M97.5,156.5c0-0.1,3.9-3.5,4.8-5.8l3.4,3.2l-2.5,16.3L97.5,156.5z"/>
			<path class="st22" d="M105.7,154l-2.5,16.2l-5.7-13.7c0,0,3.9-3.4,4.8-5.8L105.7,154z"/>
			<polygon class="st23" points="109.9,138.6 116.7,151.2 105.6,154 			"/>
			<polygon class="st23" points="105.7,154 109.9,138.6 116.7,151.2 			"/>
			<polygon class="st24" points="109.9,138.6 128.7,134.6 116.7,151.3 			"/>
			<polygon class="st24" points="128.7,134.6 109.9,138.6 116.7,151.2 			"/>
			<path class="st25" d="M122.9,117.6c1.7,2.6,5.8,16.9,5.8,17l-18.9,4L122.9,117.6z"/>
			<path class="st25" d="M122.9,117.6l-13,21l18.9-4C128.7,134.6,124.7,120.3,122.9,117.6"/>
			<polygon class="st26" points="102.3,150.8 103.1,150 106.5,150.8 105.7,154 			"/>
			<polygon class="st26" points="106.5,150.8 103.2,150 102.3,150.8 105.6,154 			"/>
			<polygon class="st27" points="102.3,139.5 109.9,138.6 107.3,147.9 			"/>
			<polygon class="st27" points="107.3,147.9 102.3,139.5 109.9,138.6 			"/>
			<path class="st28" d="M65.5,159.9c-0.9-0.8-3.2-8.3-3.3-8.6l14.6,3.5L65.5,159.9L65.5,159.9z"/>
			<path class="st28" d="M62.2,151.2c0,0,2.3,7.9,3.3,8.6l11.3-5.1L62.2,151.2z"/>
			<polygon class="st29" points="70.6,153.3 75.6,141.9 76.8,154.8 			"/>
			<polygon class="st29" points="75.6,141.9 70.6,153.3 76.8,154.8 			"/>
			<polygon class="st30" points="62.2,151.2 75.6,141.8 70.6,153.3 			"/>
			<polygon class="st30" points="62.2,151.2 75.6,141.9 70.6,153.3 			"/>
			<path class="st31" d="M58.8,141.1c-1.3-3.9-1.2-6.8-1.2-6.8l18,7.6l-13.4,9.4L58.8,141.1z"/>
			<path class="st31" d="M57.6,134.2c0,0-0.1,2.9,1.2,6.8l3.4,10.2l13.4-9.4L57.6,134.2z"/>
			<path class="st32" d="M81.7,160.6c-3.4-2.4-4.9-5.8-4.9-5.8c2.4,1,6.8,1.3,6.8,1.3L81.7,160.6L81.7,160.6z"/>
			<path class="st32" d="M83.6,156.1c0,0-4.4-0.3-6.8-1.3c0,0,1.4,3.5,4.9,5.8L83.6,156.1z"/>
			<path class="st33" d="M85.1,161c-2.1,0-3.4-0.4-3.4-0.4l1.9-4.5l8.8,3.4C89.9,160.5,87.4,161,85.1,161L85.1,161z"/>
			<path class="st33" d="M92.4,159.6l-8.8-3.5l-1.9,4.5C81.7,160.6,86,162,92.4,159.6"/>
			<path class="st34" d="M83.6,156.1c0.1,0,0.3,0,0.4,0c0.2,0,0.6,0,0.6,0c4.5,0,10.2-1.8,10.3-1.8l-2.4,5.2L83.6,156.1z"/>
			<path class="st34" d="M94.8,154.4c0,0-6.5,2-11.2,1.7l8.8,3.5L94.8,154.4z"/>
			<path class="st35" d="M94.8,154.4l7.5-3.6c-0.7,2.2-4.7,5.7-4.7,5.8l-3.9,2.6l-1.2,0.5L94.8,154.4z"/>
			<path class="st35" d="M102.3,150.8l-7.5,3.6l-2.4,5.2l1.2-0.5l3.9-2.6C97.5,156.5,101.5,152.9,102.3,150.8"/>
			<path class="st36" d="M83.6,156.1c-3,0-6.7-1.3-6.8-1.3l2.2-1.4L83.6,156.1L83.6,156.1z"/>
			<path class="st36" d="M79,153.4l-2.2,1.4c0,0,3.7,1.3,6.8,1.3L79,153.4z"/>
			<path class="st37" d="M76.8,154.8c0.1-0.1,2-2.6,2.5-3c0.5-0.3,2.9-1.5,4.1-1.5c0.1,0,0.2,0,0.2,0c0.1,0,0.2,0,0.3,0
				c0.7,0,1.9-0.4,2.7-0.6c0.4-0.1,0.8-0.3,1-0.3c0.1,0,0.3-0.1,0.6-0.1c1-0.2,2.7-0.5,3.8-0.5c0.1,0,0.2,0,0.3,0
				c1.3,0.1,10.7,1,10.8,1.1l-0.9,0.8c-3-0.4-5.8-0.5-8.4-0.5c-10.8,0-14.9,3.1-14.9,3.1L76.8,154.8L76.8,154.8z"/>
			<path class="st37" d="M79,153.4c0,0,5.9-4.7,23.3-2.6l0.9-0.8c0,0-9.5-1-10.8-1.1c-1.3-0.1-4.1,0.5-4.8,0.6c-0.7,0.1-3,1.1-4,0.9
				c-1-0.2-3.7,1.1-4.3,1.5c-0.5,0.3-2.5,2.9-2.5,2.9L79,153.4z"/>
			<path class="st38" d="M75.6,141.9c0,0,1.9,1.4,5.7,1.4c0.3,0,0.7,0,1,0l-3,8.6c0,0-1.9,2-2.5,2.9l0,0L75.6,141.9z"/>
			<path class="st38" d="M82.4,143.3l-3.1,8.6c0,0-1.9,2-2.5,2.9l-1.2-12.9C75.6,141.9,77.8,143.5,82.4,143.3"/>
			<path class="st39" d="M82.3,143.3l7.8,5.8l-3.1,0.6c-1.9,0.6-2.8,0.8-3.2,0.8c-0.2,0-0.3-0.1-0.3-0.1c-0.1,0-0.2,0-0.2,0
				c-1.5,0-4,1.5-4,1.5l0,0L82.3,143.3z"/>
			<path class="st39" d="M90.1,149.1l-7.7-5.8l-3.1,8.6c0,0,2.8-1.7,4.3-1.5c0,0,0.2,0.4,3.4-0.7L90.1,149.1z"/>
			<path class="st40" d="M82.4,143.3c0.1,0,0.2,0,0.3,0c0,0,0.1,0,0.1,0c4.2,0,9.6-2.9,9.6-3l-2.3,8.8L82.4,143.3z"/>
			<path class="st40" d="M92.4,140.3c0,0-5.7,3.1-10,2.9l7.7,5.8L92.4,140.3z"/>
			<path class="st41" d="M103.2,150c-0.1,0-10.3-1-10.8-1.1c0,0-0.1,0-0.2,0c-0.6,0-2.1,0.2-2.1,0.2l12.2-9.6l5.1,8.4l-0.8,2.9
				L103.2,150z"/>
			<path class="st41" d="M102.3,139.5l-12.2,9.6c0,0,1.8-0.2,2.3-0.2c0.5,0,10.8,1.1,10.8,1.1l3.4,0.8l0.8-2.9L102.3,139.5z"/>
			<polygon class="st42" points="92.4,140.3 93.8,134.5 102.3,139.5 90.1,149.1 			"/>
			<polygon class="st42" points="93.8,134.5 92.4,140.3 90.1,149.1 102.3,139.5 			"/>
			<path class="st43" d="M128.7,134.6c0.3,0.7,0.9,1,1.8,1c1.5,0,3.2-1.1,3.2-1.1l-4.6,6.4L128.7,134.6z"/>
			<path class="st43" d="M133.8,134.6c0,0-4,2.4-5,0l0.4,6.3L133.8,134.6z"/>
			<path class="st44" d="M130.5,135.7c-1.5,0-1.7-1.1-1.7-1.1l3.2-6.8l1.9,6.8C132.5,135.4,131.3,135.7,130.5,135.7L130.5,135.7z"/>
			<path class="st44" d="M131.9,127.8l-3.2,6.8c0,0,0.5,2.4,5,0L131.9,127.8z"/>
			<path class="st45" d="M131.9,127.8l3.9,1.9c0,0.1-1,4.2-2,4.9l0,0L131.9,127.8z"/>
			<path class="st45" d="M135.8,129.8c0,0-1,4.1-2,4.9l-1.9-6.8L135.8,129.8z"/>
			<polygon class="st46" points="127.2,129.4 132.6,125.3 131.9,127.8 128.7,134.7 			"/>
			<polygon class="st46" points="127.2,129.4 132.6,125.3 131.9,127.8 128.7,134.6 			"/>
			<polygon class="st47" points="127.7,126.4 132.6,125.3 127.2,129.5 			"/>
			<polygon class="st47" points="127.7,126.4 127.2,129.4 132.6,125.3 			"/>
			<polygon class="st48" points="126.3,120.7 128,117.1 132.6,125.3 130.9,125.7 			"/>
			<polygon class="st48" points="126.3,120.7 130.9,125.7 132.6,125.3 128,117.1 			"/>
			<polygon class="st49" points="125,122.5 126.3,120.6 130.9,125.7 127.7,126.4 127.2,129.4 127.2,129.4 			"/>
			<polygon class="st49" points="125,122.5 126.3,120.7 130.9,125.7 127.7,126.4 127.2,129.4 			"/>
			<polygon class="st50" points="130.2,111.6 132.6,111.2 134.9,125 134.9,125 			"/>
			<polygon class="st50" points="130.2,111.6 134.9,125 132.6,111.3 			"/>
			<polygon class="st51" points="133.1,127.4 134.9,125 134.5,128.2 			"/>
			<polygon class="st51" points="133.1,127.4 134.5,128.1 134.9,125 			"/>
			<path class="st52" d="M125,122.5c0,0-1.6-4.2-2-4.9l-2-5.5l5.8-0.3l-0.3,8.8L125,122.5L125,122.5z"/>
			<path class="st52" d="M126.7,111.9l-0.3,8.8l-1.4,1.9c0,0-1.6-4.2-2-4.9l-2-5.5L126.7,111.9z"/>
			<polygon class="st53" points="126.3,120.7 126.7,111.9 131.9,108.8 133.8,110.8 132.6,111.3 130.2,111.6 128,117.1 126.4,120.7 
							"/>
			<polygon class="st53" points="131.9,108.8 126.7,111.9 126.3,120.7 128,117.1 130.2,111.6 132.6,111.3 133.8,110.8 			"/>
			<polygon class="st54" points="132.6,125.3 128,117.1 130.2,111.5 134.9,125 133.1,127.4 131.9,127.9 			"/>
			<polygon class="st54" points="131.9,127.8 133.1,127.4 134.9,125 130.2,111.6 128,117.1 132.6,125.3 			"/>
			<path class="st55" d="M57.1,120.4c-3.2-22.1,1.5-28.7,1.5-28.8l1.7,24.5l-2.1,4L57.1,120.4L57.1,120.4z"/>
			<path class="st55" d="M58.6,91.6c0,0-4.8,6.4-1.5,28.8l1.1-0.3l2.1-4L58.6,91.6z"/>
			<path class="st56" d="M60.2,134.3c-0.9,0-1.7,0-2.6-0.1h0c-0.3,0-2.3-0.1-3.2-2.3l-2.7-7.8c0,0,0-1.8,2.3-2.6
				c0,0,3.9-2.2,13.6-2.2c2.6,0,5.4,0.2,8.4,0.5c0,0,1.8,0.1,1.8,2.2l-0.4,7.1c0,0-0.5,1.9-2.3,2.6C72.4,132.6,67,134.3,60.2,134.3
				 M68.5,120.2c-5.1,0-11.9,0.5-15.5,2.8c0,0-0.6,0.4-0.5,1.1c0.4,1.5,2.8,9.4,4.1,9.4c0,0,1.2,0.1,2.9,0.1
				c3.9,0,11.2-0.4,15.6-3.1c0,0,0.9-1,1.1-1.9c0.2-1,0-6.6,0-6.7c0,0-0.2-1.3-1.2-1.4l-0.1,0C72.4,120.3,70,120.2,68.5,120.2"/>
			<path class="st56" d="M75.1,120.5c1.1,0.1,1.2,1.4,1.2,1.4s0.2,5.7,0,6.7c-0.2,1-1.2,1.9-1.2,1.9c-6.2,3.9-18.5,3-18.5,3
				c-1.5,0-4-8.7-4.2-9.4c-0.2-0.7,0.5-1.2,0.5-1.2C59.2,119.1,74.7,120.4,75.1,120.5 M54.4,131.9c1,2.4,3.2,2.3,3.2,2.3
				c8.7,0.6,15.7-1.9,17.5-2.6c1.8-0.7,2.3-2.6,2.3-2.6l0.4-7.1c-0.1-2.1-1.8-2.2-1.8-2.2c-16.2-1.7-22,1.8-22,1.8
				c-2.3,0.8-2.3,2.6-2.3,2.6L54.4,131.9z"/>
			<polygon class="st57" points="60.2,116.1 67,114.6 58.1,120.2 			"/>
			<polygon class="st57" points="67,114.7 58.2,120.1 60.2,116.2 			"/>
			<path class="st58" d="M58.1,120.1l8.9-5.5c0.3,0.5,2.4,4.4,2.3,4.6c-0.7,0-1.3,0-2,0C62.6,119.2,58.2,120.1,58.1,120.1
				L58.1,120.1z"/>
			<path class="st58" d="M69.3,119.3c0.3,0-2.3-4.6-2.3-4.6l-8.9,5.5C58.2,120.1,63.8,119,69.3,119.3"/>
			<path class="st59" d="M69.3,119.3c0,0-0.3-1-2.3-4.6l8.2,0.3L69.3,119.3L69.3,119.3z"/>
			<path class="st59" d="M75.2,115l-5.9,4.3c0,0-0.2-0.9-2.3-4.6L75.2,115z"/>
			<path class="st60" d="M77,120.1L77,120.1c-0.3-0.6-7.6-0.9-7.7-0.9l6-4.2L77,120.1L77,120.1L77,120.1z"/>
			<path class="st60" d="M77,120.2l-1.7-5.1l-6,4.2C69.3,119.2,76.9,119.5,77,120.2"/>
			<path class="st56" d="M77,120.1l3.1-0.4c0.9-0.1,2.4-0.7,2.4-0.7l0.9,3.3c-0.6-1.2-1.3-1.7-2.3-1.7c-0.3,0-0.7,0-1.2,0.1
				c-1.7,0.3-2.1,2.5-2.1,2.5l0,0L77,120.1z"/>
			<path class="st56" d="M77.8,123.2c0,0,0.3-2.3,2.1-2.5c1.8-0.3,2.7-0.2,3.5,1.6l-0.9-3.3c0,0-1.5,0.6-2.4,0.7l-3.1,0.4
				L77.8,123.2z"/>
			<path class="st56" d="M89.6,129.2c-0.6,0-1.8-0.3-3.4-2.3c-2.3-2.9-2.9-4.6-2.9-4.7l-0.9-3.3c0.1-0.1,7.1-6.5,28.2-7.1l1.6,4.7
				c0,0-0.4,1.9-0.4,4.1c0,2.2-0.2,3.6-1.8,4.4c-0.1,0-7.9,3.9-20.1,4.1C90.1,129.2,89.9,129.2,89.6,129.2 M108.1,112.6
				c-0.1,0-0.1,0-0.2,0c-1.5,0.1-16.9,2-22.8,5.6c0,0-2.1,1.1-1.2,3.2c0.8,2,4,6.7,5.9,6.7c1.8,0,15.8-0.8,20.1-3.9
				c0,0,1.1-0.2,1.1-1.7c0-1.5-1.1-8.8-1.1-8.8C109.9,113.7,109.5,112.6,108.1,112.6"/>
			<path class="st56" d="M111,122.5c0,1.5-1.1,1.7-1.1,1.7c-4.3,3.1-18.2,3.9-20.1,3.9c-1.9,0-5-4.6-5.9-6.8
				c-0.9-2.1,1.2-3.2,1.2-3.2c5.9-3.6,21.3-5.5,22.9-5.6c1.6-0.1,1.9,1.2,1.9,1.2S111,121,111,122.5 M83.4,122.2
				c0,0,0.6,1.7,2.9,4.7c2.3,2.9,3.8,2.2,3.8,2.2c10.9-0.2,18.5-3.3,20.1-4.1c1.6-0.8,1.9-2.2,1.8-4.4c0-2.2,0.4-4.1,0.4-4.1
				l-1.6-4.7c-21.4,0.6-28.2,7.1-28.2,7.1L83.4,122.2z"/>
			<polygon class="st61" points="110.7,111.9 119.8,109.3 121,112.2 117.7,113.1 			"/>
			<polygon class="st61" points="119.8,109.3 110.7,111.9 117.7,113.1 120.9,112.2 			"/>
			<path class="st62" d="M110.7,111.9l7,1.2c-4.3,0.7-5.3,3.5-5.3,3.5l0,0L110.7,111.9z"/>
			<path class="st62" d="M112.4,116.6c0,0,1-2.8,5.3-3.5l-6.9-1.2L112.4,116.6z"/>
			<path class="st63" d="M101.6,107.4l9.1,4.5c-5,0-11.6,1.1-11.6,1.1l0,0L101.6,107.4z"/>
			<path class="st63" d="M101.6,107.4l-2.5,5.5c0,0,6.6-1,11.6-1L101.6,107.4z"/>
			<polygon class="st64" points="92,109.1 101.6,107.4 99.1,112.9 			"/>
			<polygon class="st64" points="92,109.1 99.1,112.9 101.6,107.4 			"/>
			<path class="st57" d="M88.2,115.8l3.8-6.7l7.1,3.9C99,112.9,89.9,114.6,88.2,115.8L88.2,115.8z"/>
			<path class="st57" d="M88.2,115.8l3.8-6.7l7.1,3.9C99.1,112.9,90,114.6,88.2,115.8"/>
			<path class="st58" d="M82.5,111.2c1.8-0.9,9.4-2.2,9.5-2.2l-3.8,6.8L82.5,111.2z"/>
			<path class="st58" d="M82.5,111.2l5.6,4.6l3.8-6.7C92,109.1,84.4,110.3,82.5,111.2"/>
			<polygon class="st65" points="79.2,113.1 82.5,111.2 88.2,115.8 86.2,116.7 			"/>
			<polygon class="st65" points="79.2,113.1 86.2,116.7 88.2,115.8 82.5,111.2 			"/>
			<polygon class="st66" points="108.4,87.9 119.8,109.3 110.7,111.9 			"/>
			<polygon class="st66" points="108.4,87.9 110.7,111.9 119.8,109.3 			"/>
			<polygon class="st67" points="101.6,107.4 109.1,94.7 110.7,111.9 			"/>
			<polygon class="st67" points="101.6,107.4 109.1,94.7 110.7,111.9 			"/>
			<path class="st68" d="M96.8,82.4c7.6,0.4,11.6,5.5,11.6,5.5l0.7,6.8l-7.5,12.7L96.8,82.4z"/>
			<path class="st68" d="M96.8,82.4l4.8,25l7.5-12.7l-0.7-6.8C108.4,87.9,104.5,82.8,96.8,82.4"/>
			<polygon class="st69" points="96.8,82.4 101.6,107.4 92,109.1 			"/>
			<polygon class="st69" points="92,109.1 96.8,82.4 101.6,107.4 			"/>
			<path class="st70" d="M81.5,83c4-0.6,8.1-0.7,10.8-0.7c2.6,0,4.4,0.1,4.4,0.1L92,109.1L81.5,83z"/>
			<path class="st70" d="M81.5,82.9L92,109.1l4.8-26.7C96.8,82.4,89,81.9,81.5,82.9"/>
			<path class="st71" d="M81.5,82.9L92,109.1c-0.1,0-8.8,1.6-9.5,2.2l-3.3,1.9L81.5,82.9z"/>
			<path class="st71" d="M79.2,113.1l2.3-30.1L92,109.1c0,0-8.8,1.6-9.4,2.2L79.2,113.1z"/>
			<path class="st72" d="M75.2,115l4-1.9l7,3.6c0,0-2.9,1.5-3.7,2.3c0,0-2.5,0.9-5.5,1.2l0,0L75.2,115z"/>
			<path class="st72" d="M75.2,115l4-1.9l7,3.6c0,0-2.9,1.5-3.7,2.3c0,0-2.5,0.9-5.5,1.2L75.2,115z"/>
			<polygon class="st73" points="67,114.7 67.5,85.4 79.8,106 79.3,113.1 75.2,115 			"/>
			<polygon class="st73" points="67,114.7 67.5,85.4 79.8,106 79.2,113.1 75.2,115 			"/>
			<path class="st74" d="M58.5,91.6c0.1-0.1,5.1-4.5,8.9-6.2l-0.3,29.2l0,0L58.5,91.6z"/>
			<path class="st74" d="M58.6,91.6c0,0,5-4.4,8.9-6.2l-0.4,29.2L58.6,91.6z"/>
			<path class="st75" d="M67.5,85.4c3.9-2.3,9.2-2.6,11.9-2.6c1.3,0,2.1,0.1,2.1,0.1l-1.7,23.1L67.5,85.4z"/>
			<path class="st75" d="M81.5,82.9c0,0-8.4-0.7-14,2.5L79.8,106L81.5,82.9z"/>
			<polygon class="st76" points="130.9,86.8 133.8,110.8 131.9,108.8 126.7,111.9 120.9,112.2 			"/>
			<polygon class="st76" points="130.9,86.8 120.9,112.2 126.7,111.9 131.9,108.8 133.8,110.8 			"/>
			<polygon class="st77" points="119.8,109.4 108.4,87.9 125.6,100.4 120.9,112.2 			"/>
			<polygon class="st77" points="108.4,87.9 125.6,100.5 120.9,112.2 119.8,109.3 			"/>
			<path class="st78" d="M117.7,94.7l5.2-23.6c3.1,3.1,8,15.5,8,15.7l-5.4,13.7L117.7,94.7z"/>
			<path class="st78" d="M122.9,71.2l-5.2,23.6l7.8,5.7l5.4-13.6C130.9,86.8,126.1,74.3,122.9,71.2"/>
			<polygon class="st79" points="108.4,87.9 110.1,74.1 120.5,82.2 117.7,94.7 			"/>
			<polygon class="st79" points="110.2,74.1 108.4,87.9 117.7,94.7 120.5,82.3 			"/>
			<path class="st80" d="M108.4,87.9c0-0.1-4-5-11.6-5.6l13.3-8.3L108.4,87.9L108.4,87.9z"/>
			<path class="st80" d="M96.8,82.4l13.3-8.2l-1.7,13.8C108.4,87.9,104.5,82.9,96.8,82.4"/>
			<path class="st81" d="M110.1,74.1l-2-15.1c5.2,1.6,14.7,12,14.8,12.1l-2.5,11.1L110.1,74.1z"/>
			<path class="st81" d="M108.1,59l2,15.1l10.3,8.1l2.5-11.1C122.9,71.2,113.4,60.7,108.1,59"/>
			<polygon class="st82" points="102.5,72.2 110.2,74.1 96.8,82.4 			"/>
			<polygon class="st82" points="102.5,72.2 96.8,82.4 110.2,74.1 			"/>
			<path class="st83" d="M102.5,72.2l-5.7-16.8c0.2,0,0.4,0,0.5,0c4.7,0,10.8,3.6,10.8,3.7l2,15.1L102.5,72.2z"/>
			<path class="st83" d="M96.8,55.4l5.7,16.8l7.7,2l-2-15.1C108.1,59,101.6,55.1,96.8,55.4"/>
			<path class="st84" d="M86.3,70.2l10.5,12.2c0,0-0.1,0-0.3,0c-0.5,0-1.9,0-3.7,0c-3.5,0-8.3,0.1-11.3,0.6l0,0L86.3,70.2z"/>
			<path class="st84" d="M81.5,82.9l4.8-12.7l10.5,12.2C96.8,82.4,86.6,82.1,81.5,82.9"/>
			<polygon class="st85" points="86.3,70.2 96.8,55.4 102.5,72.2 96.8,82.4 			"/>
			<polygon class="st85" points="96.8,55.4 86.3,70.2 96.8,82.4 102.5,72.2 			"/>
			<path class="st86" d="M72.5,63.8c0,0,0.1-0.1,0.4-0.1c1.2-0.1,4.4-0.4,6-2.1c1.1-1.1,5.3-4.2,6.2-4.3c0.2,0,0.8-0.2,1.7-0.5
				c2.1-0.7,5.5-1.8,8.1-1.8c0.8,0,1.4,0.1,1.9,0.3L86.3,70.2L72.5,63.8z"/>
			<path class="st86" d="M72.5,63.8c0.1-0.1,4.5-0.1,6.5-2.2c1-1,5.3-4.2,6.2-4.3c0.9,0,8.6-3.4,11.6-2L86.3,70.2L72.5,63.8z"/>
			<path class="st87" d="M67.5,85.4l18.8-15.2l-4.8,12.8c0,0,0,0,0,0c-0.1,0-0.8-0.1-1.9-0.1C77,82.9,71.9,83.2,67.5,85.4L67.5,85.4
				z"/>
			<path class="st87" d="M67.5,85.4l18.8-15.2l-4.8,12.7C81.5,82.9,73.8,82.3,67.5,85.4"/>
			<polygon class="st88" points="72.5,63.8 86.3,70.2 67.5,85.5 			"/>
			<polygon class="st88" points="72.5,63.8 67.5,85.4 86.3,70.2 			"/>
			<path class="st83" d="M58.1,66.8c0.8-1.1,2-1.7,3.6-1.7c0.6,0,1.2,0.1,1.9,0.2c0.5,0.1,1.1,0.2,1.7,0.2c3.4,0,7.2-1.7,7.3-1.7
				l-5,21.7L58.1,66.8z"/>
			<path class="st83" d="M58.1,66.8c0.4-0.5,1.7-2.3,5.4-1.4c3.8,0.8,9-1.5,9-1.5l-5,21.6L58.1,66.8z"/>
			<path class="st89" d="M60.5,71.6l7.1,13.8c0,0-4.1,2-8.9,6.2l0,0L60.5,71.6z"/>
			<path class="st89" d="M58.6,91.6l1.9-20l7,13.8C67.5,85.4,63.5,87.4,58.6,91.6"/>
			<path class="st90" d="M50.6,76.1c1.5-0.6,7.4-9.2,7.5-9.3l2.5,4.8l-1.9,20.1L50.6,76.1z"/>
			<path class="st90" d="M50.6,76l8,15.6l1.9-20l-2.4-4.8C58.1,66.8,52.1,75.5,50.6,76"/>
			<path class="st91" d="M44.6,86.3c0.1-0.3,5.7-9.8,6-10.2l8,15.6L44.6,86.3z"/>
			<path class="st91" d="M44.6,86.3c0.1-0.3,6-10.2,6-10.2l8,15.6L44.6,86.3z"/>
			<path class="st79" d="M51,106.3c-6-4.2-6.4-19.9-6.4-20l14,5.4L51,106.3L51,106.3z"/>
			<path class="st79" d="M51,106.3l7.6-14.7l-14-5.4C44.6,86.3,44.9,102,51,106.3"/>
			<path class="st82" d="M51,106.3l7.2-13.8c0.3-0.6,0.4-0.8,0.4-0.8l-0.4,0.8l0,0c-1.1,2.6-3.6,10.5-1.1,27.9l-1.8,0.6L51,106.3z"
				/>
			<path class="st82" d="M55.3,120.9L51,106.3l7.6-14.7c0,0-4.7,6.9-1.5,28.8L55.3,120.9z"/>
			<path class="st92" d="M111.4,123.9c0.4-0.6,0.5-2,0.5-2c-0.2-1.2,0.4-5.3,0.4-5.3c1-2.2,3.7-3.1,3.7-3.1l1.5,12.8L111.4,123.9z"
				/>
			<path class="st92" d="M111.4,123.9l6.1,2.4l-1.5-12.8c0,0-2.7,0.9-3.7,3.1c0,0-0.6,4.1-0.4,5.3
				C112,121.9,111.9,123.3,111.4,123.9"/>
			<path class="st93" d="M107.1,126.3c3.9-1.5,4.4-2.1,4.4-2.3c0,0,0-0.1,0-0.1l6.2,2.4l-7.7,12.4L107.1,126.3z"/>
			<path class="st93" d="M107.1,126.3l2.8,12.3l7.7-12.3l-6.1-2.4C111.5,123.9,112.1,124.3,107.1,126.3"/>
			<polygon class="st94" points="103.4,127.4 107.1,126.3 109.9,138.6 102.3,139.5 			"/>
			<polygon class="st94" points="103.4,127.4 102.3,139.5 109.9,138.6 107.1,126.3 			"/>
			<path class="st95" d="M93.8,134.5l-1.4-5.5c0,0,0,0,0.1,0c0.1,0,0.2,0,0.3,0c1.1,0,4.3-0.2,10.6-1.7l-1.1,12.2L93.8,134.5z"/>
			<path class="st95" d="M93.8,134.5l-1.4-5.4c0,0,2.9,0.3,11-1.7l-1.2,12.1L93.8,134.5z"/>
			<path class="st96" d="M89.3,129.2c0.2,0,0.3,0,0.4,0c0.3,0,0.4-0.1,0.4-0.1l2.3-0.1l1.4,5.5l-1.3,5.2L89.3,129.2z"/>
			<path class="st96" d="M89.3,129.2l3.3,10.5l1.2-5.2l-1.4-5.4l-2.3,0.1C90.1,129.1,89.9,129.3,89.3,129.2"/>
			<path class="st97" d="M57.6,134.3C57.6,134.2,57.7,134.2,57.6,134.3c0.3,0,1.2,0.1,2.6,0.1h0c3,0,9-0.4,14.9-2.7
				c0,0.1-0.5,9,0.5,10.2l0,0L57.6,134.3z"/>
			<path class="st97" d="M75.1,131.6c0,0-0.6,9,0.5,10.2l-18-7.6C57.6,134.2,66.4,135.1,75.1,131.6"/>
			<path class="st98" d="M75.1,140.3c-0.2-1,0-8.6,0-8.7c2.1-1,2.3-2.6,2.3-2.6l1.2,3.1l0.4,2.4L75.1,140.3L75.1,140.3z"/>
			<path class="st98" d="M75.1,140.3l3.8-5.8l-0.4-2.4l-1.2-3.1c0,0-0.2,1.6-2.3,2.6C75.1,131.6,74.9,139.3,75.1,140.3"/>
			<path class="st99" d="M79,134.5l-0.4-2.4l5-9.6c0.1,0,2.3,3.9,3.2,4.8L82.3,141L79,134.5z"/>
			<path class="st99" d="M82.3,141l-3.3-6.5l-0.4-2.4l5-9.5c0,0,2.2,3.9,3.1,4.8L82.3,141z"/>
			<path class="st100" d="M80.7,143.3c-2.3,0-4.5-1-4.5-1l2.3-1.4L80.7,143.3L80.7,143.3z"/>
			<path class="st100" d="M80.7,143.3l-2.2-2.4l-2.3,1.4C76.2,142.2,78.3,143.3,80.7,143.3"/>
			<path class="st101" d="M78.5,140.8l-2.3,1.4c0,0-0.9-0.2-1.1-1.9l3.8-5.8l3.3,6.5l-1.6,2.3L78.5,140.8z"/>
			<path class="st101" d="M82.3,141l-1.5,2.3l-2.2-2.4l-2.3,1.4c0,0-0.9-0.1-1.1-1.9l3.8-5.8L82.3,141z"/>
			<path class="st102" d="M80.7,143.3l1.5-2.3l4.4-13.6c1.4,1.7,2.6,1.8,2.6,1.8l3.3,10.5l-0.2,0.7c-3.5,1.9-7,3-9.9,3l-0.9,0
				L80.7,143.3z"/>
			<path class="st102" d="M89.3,129.2c0,0-1.3-0.1-2.6-1.8L82.3,141l-1.5,2.3c0,0,0.9,0,1.6,0c0.8,0,4.5,0.1,10-2.9l0.2-0.7
				L89.3,129.2z"/>
			<path class="st56" d="M85.6,124.4c-2.1-3.1-2-4.6-2-4.6l3.7,2L85.6,124.4L85.6,124.4z"/>
			<path class="st56" d="M87.2,121.9l-3.6-2c0,0-0.2,1.4,2,4.6L87.2,121.9z"/>
			<path class="st103" d="M56.7,133.5c-0.2,0-0.5-0.1-1-0.9c-0.5-0.9-2.1-4.2-3.2-8.5c0,0-0.3-0.8,0.8-1.4c1.1-0.5,4-1.5,4.1-1.5
				l0.2,12.3C57.7,133.6,56.7,133.5,56.7,133.5"/>
			<path class="st103" d="M57.4,121.3l0.2,12.3l-0.9,0c0,0-0.4,0.1-1-0.9c-0.6-1.1-2.2-4.3-3.2-8.5c0,0-0.3-0.8,0.8-1.4
				C54.5,122.2,57.4,121.3,57.4,121.3"/>
			<path class="st56" d="M61.9,127.7c-0.2,0-0.3-0.2-0.4-0.6c0-0.1,1.9-5.2,8.1-5.2c0.8,0,1.6,0.1,2.4,0.2l1.8,0.7l-0.3,0.6
				c0,0-1.9-1-4.1-1c-2.8,0-4.9,1.4-6.3,4C63.1,126.6,62.3,127.7,61.9,127.7"/>
			<path class="st56" d="M61.6,127.1c0,0,2.2-6.5,10.5-5l1.8,0.7l-0.3,0.6c0,0-6.9-3.6-10.5,3.1C63.1,126.5,61.7,128.8,61.6,127.1"
				/>
			<path class="st104" d="M73.5,123.5l0.3-0.6l-1.8-0.7l-1.6-0.2c0,0,3.2-1.6,3.2-1.6c0,0,0.6,0,1.5,0.1c1,0.1,1.2,1.4,1.2,1.4
				l0.1,3.6L73.5,123.5z"/>
			<path class="st104" d="M73.6,120.3l-3.2,1.6l1.6,0.2l1.8,0.7l-0.3,0.6l2.9,2l-0.1-3.6c0,0-0.3-1.4-1.2-1.4
				C74.2,120.4,73.6,120.3,73.6,120.3"/>
			<path class="st105" d="M70.5,124.8c-0.1,0-0.1,0-0.1,0c0.4-0.6-0.4-2.3-0.4-2.3c0.1,0,0.2,0,0.3,0c1,0,3.3,0.9,3.3,0.9
				C72.3,124.7,70.9,124.8,70.5,124.8"/>
			<path class="st105" d="M70,122.5c0,0,0.9,1.7,0.4,2.3c0,0,1.7,0.1,3.1-1.4C73.6,123.5,70.9,122.3,70,122.5"/>
			<path class="st106" d="M65.4,125.8c-1,0-1.6-0.2-1.6-0.2c0.9-1.7,2.6-2.4,2.6-2.5c-0.2,1.1,1.4,2.2,1.4,2.2
				C67,125.7,66.2,125.8,65.4,125.8"/>
			<path class="st106" d="M63.7,125.6c0,0,1.8,0.5,4-0.2c0,0-1.6-1.1-1.4-2.2C66.3,123.2,64.7,123.9,63.7,125.6"/>
			<path class="st107" d="M57.4,121.3c3.6-0.9,8.5-1,11.9-1c2.5,0,4.3,0.1,4.3,0.1l-3.2,1.6l-0.1,0c-5.4,0-7,2.5-7.1,2.6l0,0
				L57.4,121.3z"/>
			<path class="st107" d="M57.4,121.3l5.8,3.2c0,0,1.6-2.6,7.2-2.6l3.2-1.6C73.6,120.3,63.7,119.8,57.4,121.3"/>
			<path class="st108" d="M57.6,129.8l-0.1-8.5l5.9,3.2c-1.4,1.3-1.7,2.6-1.7,2.6C60,128.1,57.6,129.7,57.6,129.8L57.6,129.8z"/>
			<path class="st108" d="M57.6,129.8c0-0.1,4-2.7,4-2.7s0.3-1.4,1.7-2.6l-5.8-3.2L57.6,129.8z"/>
			<path class="st109" d="M70.4,124.9c1.6-0.3,3.1-1.5,3.1-1.5l2.9,2c0,0,0,2-0.1,3.2c-0.1,0.9-0.5,1.3-0.9,1.7
				c-0.1,0.1-0.2,0.2-0.3,0.3c-0.4,0.4-2.8,1.3-2.9,1.4l0,0L70.4,124.9z"/>
			<path class="st109" d="M70.5,124.9l1.8,6.9c0,0,2.6-0.9,2.9-1.4c0.4-0.4,1.1-0.8,1.2-1.9c0.1-1.2,0.1-3.1,0.1-3.1l-2.9-2
				C73.6,123.5,72.1,124.6,70.5,124.9"/>
			<path class="st110" d="M63.7,125.6c0.6,0.1,1.2,0.1,1.7,0.1c1.4,0,2.2-0.3,2.3-0.3c2.2,0,2.7-0.6,2.7-0.6l1.9,7.1L63.7,125.6z"/>
			<path class="st110" d="M63.7,125.6l8.6,6.3l-1.9-7c0,0-0.5,0.6-2.7,0.6C67.7,125.4,66.3,126,63.7,125.6"/>
			<path class="st111" d="M62.2,127.6c0.7-0.2,1.5-1.9,1.5-2l8.6,6.2c-3.6,1.6-10.5,1.7-10.6,1.7l0,0L62.2,127.6z"/>
			<path class="st111" d="M62.2,127.6l-0.6,6c0,0,7-0.1,10.6-1.7l-8.6-6.3C63.7,125.6,62.9,127.4,62.2,127.6"/>
			<path class="st106" d="M94.2,120.6c-0.7,0-1.2-0.1-1.6-0.2c0-0.1,1.8-2.8,3.9-3.4c0,0-0.5,0.8-0.3,1.6c0.2,0.6,0.7,1.2,1.6,1.6
				C97.7,120.1,95.8,120.6,94.2,120.6"/>
			<path class="st106" d="M92.6,120.3c0,0,1.8-2.7,3.9-3.4c0,0-1.5,1.9,1.3,3.2C97.7,120.1,94.1,121,92.6,120.3"/>
			<path class="st105" d="M97.7,120.1c0,0-1.3-0.4-1.6-1.3c-0.2-0.5-0.1-1.2,0.3-1.8c0,0,1.7-0.8,3.6-0.8c0.6,0,1.1,0.1,1.6,0.2
				c0,0,0.8,1.6,0,2.4C101.6,118.8,99,120.1,97.7,120.1L97.7,120.1L97.7,120.1z"/>
			<path class="st105" d="M101.6,118.8c0,0-2.6,1.3-3.9,1.4c0,0-2.7-0.8-1.3-3.2c0,0,2.6-1.2,5.2-0.6
				C101.6,116.4,102.4,118,101.6,118.8"/>
			<path class="st106" d="M101.6,118.8c0.8-0.6,0-2.3,0-2.3l2.4,1.2L101.6,118.8L101.6,118.8z"/>
			<path class="st106" d="M104,117.6l-2.4-1.2c0,0,0.8,1.8,0,2.4L104,117.6z"/>
			<path class="st56" d="M92.5,120.3c0,0,1.5-4.6,6.7-4.6c1.6,0,3.5,0.5,5.5,1.3l1.2,0.5l0,0.4l-1.9-0.3l-2.4-1.2
				c0,0-0.5-0.2-1.4-0.2c-1.1,0-2.4,0.2-3.8,0.7C96.4,117,94.2,118,92.5,120.3L92.5,120.3z"/>
			<path class="st56" d="M92.6,120.3c0,0,2.3-7.6,12.1-3.3l1.2,0.5v0.3l-1.8-0.3l-2.4-1.2c0,0-1.7-0.6-5.2,0.6
				C96.4,117,94.2,117.9,92.6,120.3"/>
			<path class="st112" d="M90.1,121.4l2.5-1.1c0.4,0.2,0.9,0.3,1.6,0.3c1.6,0,3.6-0.5,3.6-0.5l1.7-0.4l-3.3,8L90.1,121.4z"/>
			<path class="st112" d="M92.6,120.3l-2.5,1l6.1,6.3l3.3-8l-1.7,0.4C97.7,120.1,93.9,121,92.6,120.3"/>
			<path class="st113" d="M99.5,119.7c1-0.3,4.5-2.1,4.5-2.1l1.8,0.3l0-0.3l4.6,0.5c0,0,0.6,2.9,0.5,4.5c-0.1,1.6-1.1,1.7-1.1,1.7
				l0,0L99.5,119.7z"/>
			<path class="st113" d="M110.5,118l-4.6-0.5v0.3l-1.8-0.3c0,0-3.6,1.8-4.5,2.1l10.4,4.6c0,0,1-0.1,1.1-1.7
				C111.1,120.9,110.5,118,110.5,118"/>
			<path class="st114" d="M105.9,117.6c-1.1-0.7-4.4-1.6-4.4-1.6l1.5-2.8c0,0,3.4-0.5,5-0.7c0.1,0,0.2,0,0.3,0
				c1.4,0,1.7,1.2,1.7,1.2l0.6,4.3L105.9,117.6z"/>
			<path class="st114" d="M102.9,113.2l-1.5,2.8c0,0,3.4,0.9,4.4,1.6l4.6,0.5l-0.6-4.3c0,0-0.3-1.3-1.9-1.2
				C106.3,112.7,102.9,113.2,102.9,113.2"/>
			<path class="st115" d="M92.9,115.3l10-2.1l-1.5,2.8c-0.8-0.1-1.6-0.2-2.3-0.2c-2.8,0-4,1.2-4,1.2l0,0L92.9,115.3z"/>
			<path class="st115" d="M92.9,115.3l2.2,1.6c0,0,1.8-1.8,6.3-0.9l1.5-2.8L92.9,115.3z"/>
			<path class="st116" d="M86.2,117.6c0-0.1,4.8-2.1,6.7-2.3l2.2,1.6c0,0-2.3,1.7-2.6,3.4l0,0L86.2,117.6z"/>
			<path class="st116" d="M92.6,120.3l-6.3-2.8c0,0,4.8-2.1,6.7-2.3l2.2,1.6C95.1,116.9,92.9,118.6,92.6,120.3"/>
			<path class="st117" d="M83.6,119.9c0,0,0.1-1.3,2.6-2.4l6.4,2.8l-2.5,1.1l-2.9,0.5L83.6,119.9z"/>
			<path class="st117" d="M83.6,119.9c0,0,0.1-1.2,2.6-2.3l6.3,2.8l-2.5,1l-2.8,0.5L83.6,119.9z"/>
			<path class="st118" d="M84.6,156.2c-0.6,0-1,0-1,0l-4.6-2.7c4-2.6,10.3-3.2,14.9-3.2c4.6,0,8.3,0.5,8.4,0.5l-7.5,3.6
				C90.1,155.9,86.4,156.2,84.6,156.2z"/>
			<path class="st118" d="M79,153.4l4.6,2.7c0,0,4.7,0.4,11.2-1.7l7.5-3.6C102.3,150.8,86.5,148.4,79,153.4"/>
		</g>
		<g class="st6">
			<defs>
				<path id="SVGID_7_" d="M103.2,170.2l-11.3,2.2l-13.8,3.8c0,0,19.2,14.8,40.8-12.6L103.2,170.2z"/>
			</defs>
			<clipPath id="SVGID_8_">
				<use xlink:href="#SVGID_7_"  style="overflow:visible;"/>
			</clipPath>
			<path class="st119" d="M93.7,183.2c-3.7,0-6.4-1-6.4-1l4.6-9.8l8.1,9.8C98,182.9,95.9,183.2,93.7,183.2L93.7,183.2z"/>
			<path class="st119" d="M91.8,172.4l-4.6,9.8c0,0,6,2.3,12.7,0L91.8,172.4z"/>
			<path class="st120" d="M103.1,170.2l8.3,4.8c-2.9,4.8-11.4,7.2-11.5,7.2l0,0L103.1,170.2z"/>
			<path class="st120" d="M103.2,170.2l-3.3,12c0,0,8.5-2.4,11.5-7.2L103.2,170.2z"/>
			<polygon class="st121" points="91.8,172.4 103.2,170.2 99.9,182.2 			"/>
			<polygon class="st121" points="91.8,172.4 103.2,170.2 99.9,182.2 			"/>
			<polygon class="st122" points="103.2,170.2 118.9,163.6 111.4,175 			"/>
			<polygon class="st122" points="118.9,163.6 111.4,175 103.2,170.2 			"/>
			<path class="st123" d="M87.2,182.2c-2.8-0.3-9.1-5.9-9.2-6l13.8-3.8L87.2,182.2L87.2,182.2z"/>
			<path class="st123" d="M78.1,176.2c0,0,6.3,5.7,9.2,6l4.6-9.8L78.1,176.2z"/>
		</g>
		<g class="st6">
			<defs>
				<rect id="SVGID_9_" x="1" y="55.6" width="172.5" height="173.5"/>
			</defs>
			<clipPath id="SVGID_10_">
				<use xlink:href="#SVGID_9_"  style="overflow:visible;"/>
			</clipPath>
			<polygon class="st124" points="105.6,154 127.7,148.4 118.9,163.6 			"/>
			<polygon class="st124" points="127.7,148.4 118.9,163.6 105.7,154 			"/>
			<path class="st125" d="M89.4,164.4c0,0,1.8-0.3,4.1-5.3l4-2.6l5.7,13.7L89.4,164.4z"/>
			<path class="st125" d="M89.5,164.4c0,0,1.8-0.2,4.1-5.3l3.9-2.6l5.7,13.7L89.5,164.4z"/>
			<path class="st126" d="M89.8,140.7c-0.1,0-2.6,0-3.1-0.5c-0.2-0.2-0.3-0.3-0.2-0.5c0-0.2,0.2-0.4,0.2-0.4c0,0,0.8-0.2,1.5-0.2
				c1,0,1.7,0.3,1.9,0.8C90.3,140.4,89.8,140.6,89.8,140.7L89.8,140.7L89.8,140.7z"/>
			<path class="st126" d="M89.8,140.6c0,0-2.6,0-3.1-0.5c-0.5-0.5,0-0.8,0-0.8s3-0.6,3.4,0.6C90.3,140.4,89.8,140.6,89.8,140.6"/>
			<path class="st127" d="M57.6,133.6l-0.1-3.8l4-2.7c0,0.4,0.1,0.6,0.3,0.6c0.2,0,0.4-0.2,0.4-0.2l-0.5,6H57.6z"/>
			<path class="st127" d="M57.6,133.6h4l0.6-6c0,0-0.7,0.6-0.7-0.4l-4,2.7L57.6,133.6z"/>
			<path class="st128" d="M77.4,129l0.4-5.8c0,0,0.6-2.3,2.1-2.6c0.4-0.1,0.8-0.1,1.1-0.1c1,0,1.4,0.3,1.6,0.5c0.3,0.3,1,1.5,1,1.5
				l-5,9.6L77.4,129z"/>
			<path class="st128" d="M83.5,122.5l-5,9.5l-1.2-3.1l0.4-5.8c0,0,0.6-2.3,2.1-2.5c1.5-0.3,2.4,0,2.7,0.4S83.5,122.5,83.5,122.5"/>
			<path class="st129" d="M99.5,119.7l10.4,4.5c-2.7,2.3-13.6,3.5-13.7,3.5l0,0L99.5,119.7z"/>
			<path class="st129" d="M109.9,124.2l-10.4-4.6l-3.3,8C96.2,127.7,107.2,126.6,109.9,124.2"/>
			<path class="st130" d="M89.7,128.1c-1.7,0-4.1-3.7-4.1-3.7l1.6-2.5l2.9-0.5l6.1,6.3C96.1,127.7,91.5,128.1,89.7,128.1L89.7,128.1
				z"/>
			<path class="st130" d="M96.2,127.7l-6.1-6.3l-2.8,0.5l-1.6,2.5c0,0,2.4,3.8,4.2,3.7C91.5,128.1,96.2,127.7,96.2,127.7"/>
			<polygon class="st131" points="116,113.5 117.7,113.1 120.9,112.2 122.9,117.6 117.6,126.3 			"/>
			<polygon class="st131" points="116.1,113.5 117.6,126.3 122.9,117.6 120.9,112.2 117.7,113.1 			"/>
			<polygon class="st132" points="58.6,91.6 67,114.7 60.2,116.2 			"/>
			<polygon class="st132" points="67,114.7 58.6,91.6 60.2,116.2 			"/>
			<path class="st133" d="M131.9,127.9l1.2-0.5l1.5,0.8l0.4-3.1l1.6,0c0.1,1.1-0.6,4.7-0.7,4.7l0,0L131.9,127.9z"/>
			<path class="st133" d="M135.8,129.8c0,0,0.7-3.6,0.7-4.7h-1.6l-0.4,3.1l-1.4-0.8l-1.1,0.5L135.8,129.8z"/>
			<path class="st134" d="M134.9,125.1l-2.3-13.8l1.1-0.5c0,0.1,2.6,9.2,2.7,14.3l0,0H134.9z"/>
			<path class="st134" d="M133.8,110.8c0,0,2.6,9.1,2.7,14.3h-1.6l-2.3-13.8L133.8,110.8z"/>
			<path class="st135" d="M100,118.2c-0.2,0-0.5,0-0.7-0.3c-0.2-0.2-0.2-0.5-0.1-0.9c0,0,0.4-0.3,0.8-0.3c0.2,0,0.5,0.1,0.6,0.3
				c0.2,0.2,0.2,0.4,0.1,0.6c-0.1,0.3-0.6,0.5-0.6,0.5C100.2,118.2,100.1,118.2,100,118.2"/>
			<path class="st135" d="M100.2,118.1c0,0-1.3,0.2-1-1.1c0,0,0.9-0.8,1.4,0C101.2,117.8,100.2,118.1,100.2,118.1"/>
			<path class="st136" d="M68.2,125.5c-0.2,0-0.3,0-0.5,0c0,0-1.6-1.1-1.4-2.3c0,0,1.3-0.7,2.9-0.7c0.3,0,0.5,0,0.8,0.1
				c0,0,1,1.4,0.7,2.3C70.7,124.8,69.6,125.5,68.2,125.5"/>
			<path class="st136" d="M70.7,124.8c0,0-1.4,0.8-3,0.6c0,0-1.6-1.1-1.4-2.2c0,0,1.7-1,3.7-0.7C70,122.5,71,123.9,70.7,124.8"/>
		</g>
	</g>
</g>
<g>
	<g>
		<defs>
			<rect id="SVGID_11_" x="22.5" y="51.8" width="147.5" height="147.5"/>
		</defs>
		<clipPath id="SVGID_12_">
			<use xlink:href="#SVGID_11_"  style="overflow:visible;"/>
		</clipPath>
		<g class="st137">
			<defs>
				<rect id="SVGID_13_" x="22.5" y="51.8" width="147.5" height="147.5"/>
			</defs>
			<clipPath id="SVGID_14_">
				<use xlink:href="#SVGID_13_"  style="overflow:visible;"/>
			</clipPath>
			<g class="st138">
				<defs>
					<rect id="SVGID_15_" x="22.5" y="51.8" width="147.5" height="147.5"/>
				</defs>
				<clipPath id="SVGID_16_">
					<use xlink:href="#SVGID_15_"  style="overflow:visible;"/>
				</clipPath>
				<path class="st139" d="M67,143.4c-0.2,2.8,0,5.7,0.8,8.4c0.4,1.2,2.3,0.7,1.9-0.5c-0.8-2.6-0.9-5.2-0.8-7.9
					C69.1,142.1,67.1,142.1,67,143.4"/>
				<path class="st139" d="M71.4,160.1c4.6,0.6,9.3,0.9,13.8,2c1.2,0.3,1.8-1.6,0.5-1.9c-4.7-1.1-9.6-1.4-14.4-2
					C70.1,157.9,70.1,159.9,71.4,160.1"/>
				<path class="st139" d="M79.2,153c0.9,2.1,2.4,3.9,3.8,5.6c0.8,1,2.2-0.4,1.4-1.4c-1.2-1.4-2.6-3-3.3-4.7
					C80.6,151.3,78.7,151.8,79.2,153"/>
				<path class="st139" d="M81.6,155c1.1,1.1,2.3,2.1,3.4,3.2c0.9,0.9,2.3-0.5,1.4-1.4c-1.1-1.1-2.3-2.1-3.4-3.2
					C82.1,152.7,80.7,154.1,81.6,155"/>
				<path class="st139" d="M68.6,159.7c2.2,0.6,4.5,1,6.8,1c1.3,0,1.3-2,0-2c-2.1,0-4.2-0.4-6.3-1C67.8,157.4,67.3,159.3,68.6,159.7
					"/>
				<path class="st139" d="M110.7,154.1c4.1,1,8.3,1.6,12.3,2.8c1.2,0.4,1.8-1.6,0.5-1.9c-4.1-1.2-8.2-1.8-12.3-2.8
					C110,151.9,109.4,153.8,110.7,154.1"/>
				<path class="st140" d="M84,154.1c7.2-1,14.5-1,21.8-0.8c1.3,0,1.3-2,0-2c-7.4-0.2-14.9-0.2-22.3,0.8
					C82.2,152.3,82.7,154.3,84,154.1"/>
				<path class="st140" d="M81.1,154.5c1.6,0,3.3-0.2,4.8-0.6c1.2-0.3,0.7-2.3-0.5-1.9c-1.4,0.4-2.8,0.5-4.3,0.6
					C79.9,152.5,79.9,154.5,81.1,154.5"/>
				<path class="st141" d="M99,109.8h4c1.3,0,1.3-2,0-2h-4C97.8,107.8,97.8,109.8,99,109.8"/>
				<path class="st141" d="M100.6,110.8h3.4c1.3,0,1.3-2,0-2h-3.4C99.3,108.8,99.3,110.8,100.6,110.8"/>
				<path class="st141" d="M104.6,109.4c2,0.2,4.1,0.2,6.2,0.2c1.3,0,1.3-2,0-2c-2.1,0-4.1,0-6.2-0.2
					C103.3,107.3,103.3,109.3,104.6,109.4"/>
				<path class="st141" d="M107.1,108.3c0.4,0.3,0.8,0.5,1.3,0.5c0.5,0,1-0.5,1-1c0-0.5-0.5-1-1-1c-0.1,0-0.3,0,0,0
					c-0.1,0-0.1,0,0.1,0c-0.1-0.1-0.1,0,0,0c-0.4-0.4-1-0.4-1.4,0C106.7,107.3,106.7,107.9,107.1,108.3"/>
				<path class="st141" d="M107.1,107.7c0.1,0.1,0.3,0.3,0.5,0.3c0.1,0.1,0.2,0.1,0.4,0.2c0,0,0.1,0,0.1,0c-0.3-0.1,0,0,0,0
					c0.5,0.2,1.1,0.1,1.4-0.4c0.3-0.4,0.1-1.1-0.4-1.4c-0.2-0.1-0.4-0.2-0.6-0.3c-0.2-0.1,0.2,0.1,0,0c-0.2-0.1,0.1,0.1,0,0
					c-0.4-0.4-1-0.4-1.4,0C106.7,106.7,106.7,107.3,107.1,107.7"/>
				<path class="st141" d="M107.3,109.8c0.7,0.2,1.5,0.2,2.3,0.2c1.3,0,1.3-2,0-2c-0.6,0-1.2,0-1.7-0.2
					C106.6,107.5,106.1,109.4,107.3,109.8"/>
				<path class="st141" d="M114.7,109.2c1.4,0.2,2.9,0.4,4.3,0.8c1.2,0.3,1.8-1.6,0.5-1.9c-1.6-0.4-3.2-0.6-4.8-0.8
					C113.5,107.1,113.5,109,114.7,109.2"/>
				<path class="st141" d="M72.8,113.6c1.8-0.2,3.6-0.1,5.4-0.4c1.3-0.3,0.7-2.2-0.5-1.9c-1.6,0.3-3.3,0.2-4.9,0.4
					C71.5,111.7,71.5,113.7,72.8,113.6"/>
				<path class="st141" d="M70.1,112.9l3.6-0.6c1.3-0.2,0.7-2.1-0.5-1.9l-3.6,0.6C68.3,111.2,68.8,113.1,70.1,112.9"/>
				<path class="st141" d="M68,114.1c1.2,0.2,2.4,0.2,3.6,0.2c-0.1-0.7-0.2-1.3-0.3-2c-0.9,0.2-1.8,0.3-2.7,0.4v2c0,0,0.1,0,0.1,0
					c0.4,0,0.9-0.3,1-0.7c0-0.2,0.1-0.4,0.1-0.6c0-0.4-0.3-0.9-0.7-1c-0.4,0-0.7-0.2-1-0.5l-0.6,1.5c3.9-1.6,8.4-1.6,12.2,0.5
					c1.1,0.6,2.1-1.1,1-1.7c-4.1-2.4-9.3-2.5-13.7-0.7c-0.5,0.2-1,0.9-0.6,1.5c0.6,0.8,1.2,1.2,2.2,1.5c-0.2-0.3-0.5-0.6-0.7-1
					c0,0,0,0.1,0,0.1l1-0.7c0,0-0.1,0-0.1,0c-1.2,0.1-1.3,2,0,2c1.1-0.1,2.2-0.2,3.2-0.4c1.1-0.2,0.8-1.9-0.3-2c-1,0-2.1,0-3.1-0.2
					C67.2,112,66.7,114,68,114.1"/>
				<path class="st142" d="M60.5,107.9c-0.3,2-2.3,3-2.8,5c-0.2,0.6,0.3,1.3,1,1.3c3-0.3,5.6-1.7,8.1-3.3c0.8-0.5,0.5-2-0.5-1.9
					c-1.9,0.2-3.9,0.2-5.7,1.1c-0.5,0.2-0.6,0.9-0.4,1.4c1.3,2,3.6,2.9,5.7,1.7c1.1-0.6,0.1-2.3-1-1.7c-1.2,0.6-2.3,0-3-1
					c-0.1,0.5-0.2,0.9-0.4,1.4c1.4-0.7,3.1-0.7,4.7-0.9c-0.2-0.6-0.3-1.2-0.5-1.9c-2.2,1.4-4.5,2.8-7.1,3c0.3,0.4,0.6,0.8,1,1.3
					c0.5-1.9,2.5-2.9,2.8-5C62.6,107.2,60.7,106.7,60.5,107.9"/>
				<path class="st142" d="M62.1,119.3c0.1,0.6,0.4,2.3-0.4,2.6c-0.9,0.3-1.9,0.3-2.9,0.4c-1.1,0.2-0.8,1.6,0,1.9
					c3.9,1.5,8,2.4,12.2,2.6c1,0.1,1.4-1.4,0.5-1.9c-1.7-0.8-3.7-1.3-4.8-2.8c-1.6-2.1-1.6-5.2-1.6-7.6c0-1.3-2-1.3-2,0
					c0,2.8,0.3,5.7,1.6,8.2c1.2,2.3,3.7,3,5.8,4c0.2-0.6,0.3-1.2,0.5-1.9c-4-0.2-8-1.1-11.7-2.5v1.9c1.2-0.2,3-0.1,3.9-1
					c1.1-1,0.9-2.7,0.8-4C63.9,118.1,62,118.1,62.1,119.3"/>
				<path class="st142" d="M65.4,120.2c0.4-1.7,0.6-3.3,0.6-5c0-1.3-2-1.3-2,0c0,1.5-0.2,3-0.6,4.5
					C63.2,120.9,65.1,121.4,65.4,120.2"/>
				<path class="st143" d="M78.1,125.4c1-0.2,2-0.5,3.1-0.8c0.9-0.3,1.7-0.7,2.6-0.9c1.3-0.3,0.7-2.2-0.5-1.9
					c-0.9,0.2-1.7,0.6-2.6,0.9c-1,0.3-2,0.6-3.1,0.8C76.3,123.7,76.9,125.6,78.1,125.4"/>
				<path class="st143" d="M74.4,122.6c2.4,0.2,4.7-0.2,7.1-0.2c1.3,0,1.3-2,0-2c-2.4,0-4.7,0.4-7.1,0.2
					C73.1,120.5,73.1,122.5,74.4,122.6"/>
				<path class="st143" d="M129.2,124.5c0.4,0.9,0.5,1.8,0.7,2.7c0.2,1.2,1.9,0.8,2-0.3c0.1-1.4-0.2-2.8-0.3-4.2c-0.1-1.3-2-1.3-2,0
					c0,0.7,0,1.4,0.2,2.1c0.4,1.2,2.3,0.7,1.9-0.5c-0.2-0.5-0.2-1-0.2-1.5h-2c0.1,1.4,0.4,2.8,0.3,4.2c0.7-0.1,1.3-0.2,2-0.3
					c-0.2-1.1-0.4-2.2-0.9-3.2C130.4,122.3,128.7,123.4,129.2,124.5"/>
				<path class="st143" d="M79.8,154.2c0.3,0.3,0.5,0.4,0.9,0.4c0.5,0,1-0.5,1-1c0-0.5-0.5-1-1-1c-0.3,0,0.8,0.4,0.5,0.2
					c-0.4-0.4-1-0.4-1.4,0C79.5,153.2,79.5,153.9,79.8,154.2"/>
				<path class="st143" d="M80.7,154.6c0.2,0.1,0.4,0.3,0.5,0.5c0.1-0.5,0.2-0.9,0.4-1.4c-0.7,0.4-1.6,0.3-2.3,0.5
					c-1.2,0.3-0.7,2.2,0.5,1.9c1-0.2,1.9-0.2,2.8-0.7c0.4-0.3,0.7-0.9,0.4-1.4c-0.3-0.5-0.7-0.9-1.3-1.3
					C80.6,152.2,79.6,154,80.7,154.6"/>
				<path class="st144" d="M79,152.9c0.8,0.5,3,1.5,2.8,2.8c-0.2,1.3,1.7,1.8,1.9,0.5c0.5-2.5-1.9-3.9-3.7-5
					C78.9,150.5,77.9,152.2,79,152.9"/>
				<path class="st144" d="M111.4,116.7c1.6,0.3,3.3,0.6,4.9,1.1c1.2,0.4,1.8-1.5,0.5-1.9c-1.6-0.5-3.2-0.8-4.9-1.1
					C110.7,114.6,110.1,116.5,111.4,116.7"/>
				<path class="st144" d="M105.4,115c1.1,0,2.1,0,3.2,0.1c-0.1-0.7-0.2-1.3-0.3-2c-0.6,0.2-1.3,0.2-1.9,0.3c-1.1,0.2-0.8,2,0.3,2
					h3.8c1.3,0,1.3-2,0-2h-3.8c0.1,0.7,0.2,1.3,0.3,2c0.6-0.1,1.3-0.1,1.9-0.3c1.1-0.3,0.8-1.9-0.3-2c-1.1-0.1-2.1-0.1-3.2-0.1
					C104.1,113,104.1,115,105.4,115"/>
				<path class="st144" d="M99.6,113.6c2.3,0.1,4.4,0.9,6.6,1.6c1.2,0.4,1.8-1.5,0.5-1.9c-2.3-0.7-4.7-1.5-7.1-1.6
					C98.3,111.5,98.4,113.5,99.6,113.6"/>
				<path class="st145" d="M55.1,96.2h0.7c0.5,0,1-0.5,1-1c0-0.5-0.5-1-1-1h-0.7c-0.5,0-1,0.5-1,1C54.1,95.7,54.6,96.2,55.1,96.2"/>
				<path class="st145" d="M55.6,96.2c1.4,0.1,2.8,0.6,4.2,0.9c1.3,0.3,1.8-1.7,0.5-1.9c-1.6-0.3-3.1-0.8-4.7-0.9
					C54.3,94.1,54.3,96.1,55.6,96.2"/>
				<path class="st145" d="M54.6,99.6c0.7,1.3,1.4,2.6,2.1,4c0.2,0.5,2.3,4.6,1.5,5.1l1.2,0.2c-0.7-0.9-0.8-2.5-1.1-3.5
					c-0.4-1.3-0.2-2.5-0.7-3.7c-0.5-1.2-2.2-0.2-1.7,1c0.3,0.7,0,1.4,0.2,2c0.2,0.7,0.4,1.4,0.6,2.2c0.4,1.2,0.5,2.4,1.3,3.4
					c0.3,0.3,0.8,0.4,1.2,0.2c1.8-1.1,0.9-3.7,0.3-5.2c-0.8-2.3-2-4.5-3.2-6.6C55.7,97.4,54,98.4,54.6,99.6"/>
				<path class="st145" d="M122.5,72.5c5.5,6-14.1,14.8-31.4,14.8s-29.1-6.6-29.1-14.8c0-2,2.7-2.4,4.3-4.2
					C71,63,78.1,57.7,91.1,57.7c11.9,0,16,3.1,21.3,7.7C114.8,67.5,119.8,69.6,122.5,72.5"/>
				<path class="st145" d="M58.6,81.5c1.9,0.1,3.5-1.1,5.4-1.2l-1-1c0.1,1.2,0,2.4,0,3.6c0,1.2,0.3,2.4,0.3,3.6l1-1
					c-0.6,0-1-0.6-1.4-1v1.4c0,0,0,0,0,0.1c0.7-0.1,0.9-0.9,0.6-1.5C62.3,82.4,60.3,82.6,58.6,81.5c-1-0.8-2,0.9-1,1.7
					c1.3,0.9,3.3,0.8,4.1,2.3l0.6-1.5c-0.4,0.1-0.6,0.2-0.8,0.5c-0.4,0.4-0.4,1,0,1.4c0.8,0.9,1.5,1.6,2.8,1.6c0.5,0,1-0.5,1-1
					c0-1-0.3-2.1-0.3-3.1c-0.1-1.4,0.2-2.7,0-4.1c-0.1-0.5-0.4-1-1-1c-1.9,0.1-3.5,1.3-5.4,1.2C57.3,79.4,57.3,81.4,58.6,81.5"/>
				<path class="st145" d="M125,78.4c-0.6,0.6-0.9,1.1-0.9,1.9c0.3-0.3,0.7-0.7,1-1c-0.8,0-1.9,0.3-2.1,1.2
					c-0.2,0.9,0.2,1.7,0.8,2.3c0.2,0.3,0.6,0.3,1,0.3c0.5-0.1,0.9-0.5,1-1c0.3-1.2-1.6-1.8-1.9-0.5l0,0.1c0.1-0.1,0.2-0.3,0.3-0.4
					c0.1,0,0.1-0.1,0.2-0.1c0.3,0.1,0.6,0.2,1,0.3c-0.1-0.2-0.2-0.3-0.3-0.5c0,0.1,0,0.2-0.1,0.3c-0.2,0.1-0.2,0.1,0,0
					c0.1,0,0.2,0,0.3,0c0.6,0,1-0.4,1-1c0-0.3,0.1-0.3,0.3-0.5C127.3,78.9,125.9,77.5,125,78.4"/>
				<path class="st145" d="M124.7,80.9c3.4,6.3,1.5,13.6,2.5,20.3c0.2,1.3,2.1,0.7,1.9-0.5c-0.5-3.7,0.2-7.4-0.3-11
					c-0.5-3.4-0.7-6.7-2.4-9.8C125.8,78.7,124.1,79.8,124.7,80.9"/>
				<path class="st145" d="M128.6,103c0.6,0.7,1.6,0.9,2.6,0.7c0.5-0.2,0.8-0.7,0.7-1.2c-0.1-0.5-0.7-0.9-1.2-0.7
					c-0.1,0-0.2,0.1-0.3,0.1c0.3-0.1-0.3,0,0,0c-0.1,0-0.1,0-0.2,0c0.1,0,0.1,0,0,0c-0.1-0.1-0.1-0.1,0,0c0,0-0.1-0.1-0.1-0.1
					c-0.4-0.4-1-0.4-1.4,0C128.2,102,128.3,102.6,128.6,103"/>
				<path class="st145" d="M131,104c1.3,0,1.3-2,0-2C129.8,102,129.8,104,131,104"/>
				<path class="st145" d="M127.3,105.7c0,1.9,0.2,3.7,0.5,5.5c0.2,1.3,2.1,0.7,1.9-0.5c-0.3-1.7-0.4-3.3-0.5-5
					C129.2,104.4,127.3,104.4,127.3,105.7"/>
				<path class="st139" d="M69.4,153.3c3.1-0.5,6.3-0.9,9.4-0.1c1.2,0.3,1.8-1.6,0.5-1.9c-3.5-0.8-7-0.5-10.5,0.1
					C67.6,151.6,68.2,153.5,69.4,153.3"/>
				<path class="st146" d="M102.4,79.2c0.5,2.6-2.7,2.3-4.4,2.3c-2.1,0-4.5-0.2-6.4,0.9c-1.9,1.1-1.9,3.8-0.6,5.3
					c1.7,2.1,5.8,1.6,8.2,1.3c1.3-0.2,0.7-2.1-0.5-1.9c-1.8,0.3-7.2,0.8-6.5-2.3c0.4-1.7,3.7-1.4,4.9-1.4c3.4,0,8.3,0,7.4-4.8
					C104,77.4,102.1,77.9,102.4,79.2"/>
				<path class="st146" d="M103.9,89.3c1.8-0.2,5.8-0.5,5.9-3c0-0.6-0.5-1-1-1c-1-0.1-2,0.2-3.1,0.2c-0.6,0-1.2-0.8-1.7-1.2
					c-0.6-0.5-1.5-1.2-1-2.1c-0.6-0.1-1.2-0.2-1.8-0.2c0.4,1.2,0.9,2.3,1.1,3.6c0.2-0.4,0.3-0.7,0.5-1.1c-1.2,0.6-1.6,1.7-1.6,3
					c0.1,1.3,2.1,1.3,2,0c0-0.6,0-1,0.6-1.3c0.4-0.2,0.5-0.7,0.5-1.1c-0.2-1.2-0.7-2.4-1.1-3.6c-0.3-0.8-1.4-1.1-1.8-0.2
					c-1.2,2.3,0.6,3.9,2.2,5.3c1.7,1.4,3.3,0.6,5.3,0.8c-0.3-0.3-0.7-0.7-1-1c0-0.1-0.3,0.2-0.5,0.3c-0.3,0.2-0.7,0.3-1.1,0.3
					c-0.8,0.2-1.5,0.3-2.3,0.4C102.6,87.5,102.6,89.5,103.9,89.3"/>
				<path class="st146" d="M84.9,87.8c0.1-1,0-2-0.1-3c0-0.8,0.4-3.3,1.3-1.6c0.1-0.5,0.2-0.9,0.4-1.4c-1.1,0.6-1.5,1.5-0.9,2.7
					c0.6,1.2,2.2,1.5,2.9,2.5c0.6,0.8,1.7,0.5,1.9-0.5c0.2-2-1-3.2-2.9-3.7c-0.7-0.2-1.5,0.5-1.2,1.2c0.7,2,2.2,3.5,2.9,5.4
					c0.2-0.4,0.5-0.8,0.7-1.2c-1.7,0.3-3.1,1.5-4.8,1.7c-0.7-0.2-0.8-0.1-0.2,0.4c0.1-0.3,0.3-0.5,0.4-0.8c0.3-0.6,0.4-1.1,0.4-1.7
					c0-0.8-0.8-1.2-1.5-0.9c-1.3,0.6-1.8,1.9-2.2,3.1c-0.4,1.2,1.5,1.7,1.9,0.5c0.2-0.8,0.5-1.6,1.3-1.9c-0.5-0.3-1-0.6-1.5-0.9
					c0.1,1.3-2,3.1,0,4c2.3,0.9,4.5-1.2,6.6-1.5c0.5-0.1,0.9-0.8,0.7-1.2c-0.7-1.9-2.3-3.5-2.9-5.4l-1.2,1.2c1,0.3,1.5,0.7,1.4,1.8
					c0.6-0.2,1.2-0.3,1.9-0.5c-0.3-0.5-0.8-0.8-1.2-1.1c-0.4-0.3-0.7-0.5-1.1-0.8c-0.2-0.1-0.3-0.3-0.4-0.4c-0.2-0.2-0.2-0.3,0-0.2
					c0.5-0.3,0.6-0.9,0.4-1.4c-0.8-1.7-2.3-2.3-3.9-1c-1.9,1.6-0.8,4.5-1,6.6C82.7,89.1,84.7,89.1,84.9,87.8"/>
				<path class="st146" d="M85.6,82c1-0.3,1.9-0.4,2.9-0.8c1-0.4,0.4-1.8-0.5-1.9c-1,0-2.2,0.3-2.7,1.2c-0.7,1.1-0.1,2.1,0.9,2.7
					v-1.7c-1.5,0.9-2,2.3-2.4,3.9c-0.4,1.2,1.6,1.8,1.9,0.5c0.3-1,0.5-2.1,1.5-2.7c0.7-0.4,0.6-1.3,0-1.7c-0.3,0.1-0.3,0.1,0,0
					c0.2-0.1,0.6-0.1,0.8-0.1c-0.2-0.6-0.3-1.2-0.5-1.9c-0.8,0.3-1.6,0.3-2.4,0.6C83.8,80.4,84.3,82.4,85.6,82"/>
				<path class="st146" d="M114.8,106.7c1.1-2.7,0.6-5.6,1.9-8.3c0.4-0.9,1.4-1.5,1.8-2.5c0.4-0.9,0.4-2.7,1.3-3.4
					c1.2-0.9,3.7-0.3,5.2-0.4c1.3-0.1,2.4-0.7,2.8-2c0.2-0.8-0.5-1.3-1.2-1.2c-0.6,0.1-1.2,0.2-1.9,0.4c-1.2,0.4-0.7,2.3,0.5,1.9
					c0.6-0.2,1.2-0.3,1.9-0.4c-0.4-0.4-0.8-0.8-1.2-1.2c-0.3,1.1-3.6,0.6-4.5,0.7c-1.5,0-2.8,0.4-3.6,1.7c-0.5,0.8-0.7,1.8-0.9,2.7
					c-0.4,1.3-1.6,2.1-2.2,3.3c-1.2,2.6-0.7,5.6-1.8,8.2C112.4,107.4,114.3,107.9,114.8,106.7"/>
				<path class="st146" d="M119.3,85.5c-0.3,2.4,0,4.9-0.5,7.3c-0.4,2.1-2.8,3.3-3.7,5.2c-0.6,1.1,1.1,2.1,1.7,1c1-1.9,2.9-3,3.7-5
					c1-2.6,0.5-5.7,0.8-8.5C121.4,84.3,119.5,84.3,119.3,85.5"/>
				<path class="st146" d="M115.1,107.9c1.1-1.6,2.9-2.4,4-4c0.7-1.1-1-2.1-1.7-1c-1,1.6-2.9,2.4-4,4
					C112.6,108,114.3,109,115.1,107.9"/>
				<path class="st146" d="M71,85.1c2.5,2.8,3.3,6.2,3.7,9.9c0.1,0.7,0.2,1.5,0.2,2.2c0,0.6-0.5,1.1,0,0.9c-1,0.4-2.1,0.5-3.2,0.7
					c-2.1,0.4-3.5,1.8-3,4c0.5,2.2,3.3,3.6,5.1,4.4c0.5,0.2,1.3,0.1,1.5-0.6c0.3-1.8,0.4-3.1,2-4.2c0.9-0.6,1.5-1.4,1.8-2.4
					c0.2-0.6-0.3-1.3-1-1.3c-2.4,0-5,1.5-6.2,3.6c-1.3,2.2,0.9,5.6,3.4,4.1l-1.5-0.6c0.7,3.3,2.7,5.6,6.2,5.4
					c3.4-0.2,6.4-2.2,9.7-2.8c-0.3-0.6-0.6-1.1-1-1.7c-0.7,0.8-1.3,1.5-2.1,2.2c-1.3,1.1-2.2,0.9-2.8-0.7c-0.1,0.5-0.2,0.9-0.4,1.4
					c1.5-1,3.3-1.2,4.6-2.5c0.7-0.8,0-1.8-1-1.7c-1.6,0.2-2.3,1.5-3,2.8c0.4-0.2,0.7-0.3,1.1-0.5c-2.7-0.9-4.1-3.8-6.8-4.9
					c-0.4-0.2-0.9,0.1-1.1,0.5c-1.2,2.3,0.9,3.8,0.8,6.1c0.6-0.2,1.2-0.3,1.9-0.5c-1.6-2.9-2.5-5.9-3.2-9c-0.3-1.2-2.2-0.7-1.9,0.5
					c0.8,3.3,1.8,6.5,3.4,9.5c0.5,0.9,1.8,0.5,1.9-0.5c0-1.5-1.7-3.8-1.1-5.1c-0.4,0.2-0.7,0.3-1.1,0.5c2.7,1.1,3.9,4,6.8,4.9
					c0.4,0.1,0.9-0.1,1.1-0.5c0.4-0.8,0.7-1.8,1.8-1.9c-0.3-0.6-0.6-1.1-1-1.7c-1.1,1.1-2.9,1.3-4.2,2.2c-0.5,0.3-0.6,0.8-0.4,1.4
					c1.9,4.6,5.9,1.4,8.1-1.1c0.7-0.8,0-1.8-1-1.7c-2.5,0.5-4.8,1.6-7.2,2.3c-1.2,0.4-2.5,0.6-3.8,0.3c-1.6-0.4-2.2-2.3-2.5-3.8
					c-0.1-0.6-0.9-0.9-1.5-0.6c-0.8,0.5-0.8-0.8-0.7-1.3c0.2-0.6,0.9-1.2,1.4-1.6c0.9-0.6,2-1.2,3.1-1.2c-0.3-0.4-0.6-0.8-1-1.3
					c-0.4,1.3-1.9,1.7-2.7,2.7c-0.9,1.3-0.9,2.4-1.2,3.9l1.5-0.6c-1.7-0.7-6.7-3.9-2.5-4.8c1.5-0.3,3.7-0.2,4.4-1.8
					c0.8-2.2,0-5.1-0.3-7.3c-0.5-3-1.8-5.7-3.8-7.9C71.5,82.7,70.1,84.1,71,85.1"/>
				<path class="st146" d="M72.1,83.6v-0.4c0-0.5-0.5-1-1-1s-1,0.5-1,1v0.4c0,0.5,0.5,1,1,1S72.1,84.1,72.1,83.6"/>
			</g>
			<g class="st138">
				<defs>
					<rect id="SVGID_17_" x="22.5" y="51.8" width="147.5" height="147.5"/>
				</defs>
				<clipPath id="SVGID_18_">
					<use xlink:href="#SVGID_17_"  style="overflow:visible;"/>
				</clipPath>
				<path class="st147" d="M95.9,177.9c-4.3,0-7.1-0.9-7.2-0.9l5-16.6l10.9,16.3C101.8,177.4,98.8,177.9,95.9,177.9L95.9,177.9z"/>
				<path class="st147" d="M93.7,160.3l-5,16.6c0,0,7,2.3,15.9-0.3L93.7,160.3z"/>
				<path class="st148" d="M84.1,155.8c2.9,1.8,8.6,2.4,8.7,2.4l-3.6,2.4L84.1,155.8z"/>
				<path class="st148" d="M84.1,155.8l5.1,4.8l3.6-2.4C92.7,158.2,87,157.6,84.1,155.8"/>
				<polygon class="st149" points="92.7,158.2 93.7,160.3 89.1,160.6 				"/>
				<polygon class="st149" points="93.7,160.3 89.2,160.6 92.7,158.2 				"/>
				<path class="st150" d="M93.7,160.3l-1-2.1c1.7-0.1,2.6-0.3,2.7-0.3l3.1,2.5H93.7z"/>
				<path class="st150" d="M98.4,160.3l-3-2.5c0,0-0.9,0.3-2.7,0.3l1,2.1H98.4z"/>
				<path class="st151" d="M93.7,160.3l4.7,0l18.5,8.4c-0.1,0.1-8.2,7-12.3,7.9l0,0L93.7,160.3z"/>
				<path class="st151" d="M116.9,168.7c0,0-8.2,7-12.3,7.9l-10.9-16.3h4.7L116.9,168.7z"/>
				<path class="st152" d="M108.6,152.5l18.4,3.3c-2.5,6.1-10,12.9-10,12.9l0,0L108.6,152.5z"/>
				<path class="st152" d="M108.6,152.5l8.3,16.2c0,0,7.5-6.8,10-12.9L108.6,152.5z"/>
				<path class="st153" d="M98.4,160.3l2-3.9c0,0,3.8-1.2,8.2-3.9l8.3,16.3L98.4,160.3z"/>
				<path class="st153" d="M100.4,156.4c0,0,3.8-1.1,8.2-3.9l8.3,16.2l-18.4-8.4L100.4,156.4z"/>
				<path class="st154" d="M115.3,153.7l15.1-15.8c0,0.1-0.6,13-3.4,17.9l0,0L115.3,153.7z"/>
				<path class="st154" d="M115.3,153.7l15.1-15.8c0,0-0.6,12.9-3.4,17.9L115.3,153.7z"/>
				<polygon class="st155" points="112,122.1 130.4,137.9 121.1,147.6 				"/>
				<polygon class="st155" points="112,122.1 121.1,147.6 130.4,137.9 				"/>
				<polygon class="st156" points="102,135.5 112,122.1 121.2,147.6 				"/>
				<polygon class="st156" points="102,135.5 112,122.1 121.1,147.6 				"/>
				<path class="st157" d="M118.2,117.4l10.4-1.3c0,0.1,1.7,5.9,1.7,8.9l0,0L118.2,117.4z"/>
				<path class="st157" d="M128.7,116.1c0,0,1.7,5.8,1.7,8.9l-12.1-7.6L128.7,116.1z"/>
				<path class="st158" d="M112,122.1c0,0,1.5-0.5,6.2-4.8l12.1,7.6l0,0L112,122.1z"/>
				<path class="st158" d="M112,122.1c0,0,1.5-0.5,6.2-4.8l12.1,7.6L112,122.1z"/>
				<path class="st159" d="M112,122.1l18.4,2.8c0.6,6.8,0,12.9,0,12.9l0,0L112,122.1z"/>
				<path class="st159" d="M130.4,137.9c0,0,0.6-6.1,0-12.9l-18.4-2.8L130.4,137.9z"/>
				<polygon class="st160" points="108.6,152.5 113.9,143 121.1,147.6 115.3,153.7 				"/>
				<polygon class="st160" points="108.6,152.5 113.9,143 121.1,147.6 115.3,153.7 				"/>
				<polygon class="st161" points="102,135.5 113.9,143 108.6,152.5 				"/>
				<polygon class="st161" points="102,135.5 108.6,152.5 113.9,143 				"/>
				<path class="st162" d="M128.6,102.7c0,0.1-0.3,8.2-0.2,9.3c0.1,1.2,0.3,4,0.3,4l-10.4,1.3L128.6,102.7z"/>
				<path class="st162" d="M128.6,102.7c0,0-0.3,8.2-0.2,9.3c0.1,1.2,0.3,4,0.3,4l-10.4,1.3L128.6,102.7z"/>
				<path class="st163" d="M99.6,119c2.5,2.8,7.7,3.2,10.6,3.2c1.1,0,1.9-0.1,1.9-0.1l-10,13.4L99.6,119z"/>
				<path class="st163" d="M99.6,119l2.5,16.5l10-13.4C112,122.1,103,122.9,99.6,119"/>
				<path class="st164" d="M97.4,140.9c0,0,3-0.3,4.2-2.1c0.6-0.9,0.8-2,0.4-3.3l4.7,12.1L97.4,140.9z"/>
				<path class="st164" d="M97.4,140.9c0,0,6-0.5,4.6-5.4l4.7,12.1L97.4,140.9z"/>
				<path class="st165" d="M88.7,176.9c-2.9-0.6-11.8-6.1-11.9-6.2l12.3-10.2l4.6-0.3L88.7,176.9L88.7,176.9z"/>
				<path class="st165" d="M76.8,170.8c0,0,8.9,5.5,11.9,6.2l5-16.6l-4.6,0.3L76.8,170.8z"/>
				<path class="st166" d="M76.8,170.8c-4.1-2.4-10.7-12.3-10.8-12.4l23.1,2.2L76.8,170.8L76.8,170.8z"/>
				<path class="st166" d="M66,158.3c0,0,6.7,10,10.8,12.4l12.3-10.2L66,158.3z"/>
				<path class="st167" d="M66,158.3c-2.1-3-3.6-12.3-3.7-12.4l14.9,13.4L66,158.3z"/>
				<path class="st167" d="M62.4,146c0,0,1.5,9.3,3.6,12.4l11.2,1L62.4,146z"/>
				<path class="st168" d="M77.2,159.4l-8-7.2l10.8,0c1.5,2.4,4,3.6,4,3.6l5.1,4.8L77.2,159.4z"/>
				<path class="st168" d="M80,152.1H69.2l8,7.2l11.9,1.2l-5.1-4.8C84.1,155.8,81.5,154.6,80,152.1"/>
				<polygon class="st169" points="62.4,146 60.1,134.2 68.6,140.7 69.2,152.2 				"/>
				<polygon class="st169" points="60.1,134.2 62.4,146 69.2,152.1 68.6,140.7 				"/>
				<polygon class="st170" points="69.2,152.1 68.5,140.7 80,152.1 				"/>
				<polygon class="st170" points="80,152.1 68.6,140.7 69.2,152.1 				"/>
				<polygon class="st171" points="72.9,125.1 83.4,136.8 77.2,149.4 				"/>
				<polygon class="st171" points="83.4,136.8 77.2,149.4 72.9,125.1 				"/>
				<polygon class="st172" points="68.5,140.7 72.9,125.1 77.3,149.4 				"/>
				<polygon class="st172" points="68.6,140.7 72.9,125.1 77.2,149.4 				"/>
				<polygon class="st173" points="60.1,134.3 72.9,125.1 68.6,140.7 				"/>
				<polygon class="st173" points="60.1,134.2 72.9,125.1 68.6,140.7 				"/>
				<polygon class="st174" points="57.9,123.1 72.9,125.1 60.1,134.3 				"/>
				<polygon class="st174" points="58,123 60.1,134.2 72.9,125.1 				"/>
				<polygon class="st175" points="87.6,152.9 97.9,152.5 92.7,158.2 				"/>
				<polygon class="st175" points="97.9,152.5 87.6,152.9 92.7,158.2 				"/>
				<path class="st176" d="M80.8,153.2c0.1,0,8-0.9,9.4-1c1.4-0.1,6.9-0.5,7.4-0.5h3.4c0.3,0,6.8,0.1,7.6,0.8c0,0,0,0,0,0
					c-0.4,0-4.2-0.2-7.2-0.2c-1.8,0-3,0.1-3.4,0.2l-10.3,0.5L80.8,153.2L80.8,153.2z"/>
				<path class="st176" d="M80.8,153.2c0,0,8-0.9,9.4-1c1.5-0.1,7-0.5,7.4-0.5h3.4c0,0,6.8,0.1,7.6,0.8c0,0-9.1-0.5-10.7,0
					l-10.3,0.5L80.8,153.2z"/>
				<path class="st177" d="M107.5,152.1c-0.1,0-6-0.5-8-0.5l-5.8-1.8c0,0,2.3-0.9,4.9-0.9c0.9,0,1.8,0.1,2.6,0.3L107.5,152.1
					L107.5,152.1z"/>
				<path class="st177" d="M93.7,149.9c0,0,3.9-1.5,7.5-0.5l6.3,2.8c0,0-6-0.5-8-0.5L93.7,149.9z"/>
				<path class="st178" d="M88.4,152.3l5.3-2.4l5.8,1.8C99.5,151.7,89.9,152.1,88.4,152.3L88.4,152.3z"/>
				<path class="st178" d="M88.4,152.3l5.3-2.4l5.8,1.8C99.6,151.7,89.9,152,88.4,152.3"/>
				<path class="st179" d="M80.8,153.2c0.1,0,6.2-4.2,8.6-4.2c0.1,0,0.2,0,0.3,0c2.1,0.5,4,0.9,4,0.9l-5.3,2.4L80.8,153.2
					L80.8,153.2z"/>
				<path class="st179" d="M80.8,153.2c0,0,6.9-4.6,9-4.1c2.1,0.5,4,0.9,4,0.9l-5.3,2.4L80.8,153.2z"/>
				<path class="st180" d="M80,152.1l-2.8-2.8l5-10.3L89,149c-2.9,0.5-8.2,4.1-8.2,4.2l0,0L80,152.1z"/>
				<path class="st180" d="M89,149l-6.7-9.9l-5.1,10.3l2.8,2.8l0.8,1C80.8,153.2,86.1,149.5,89,149"/>
				<polygon class="st181" points="82.3,139.1 85.8,140 90.5,141.3 92.7,141.5 89,149 				"/>
				<polygon class="st181" points="92.7,141.5 89,149 82.3,139.1 85.8,140 90.5,141.3 				"/>
				<path class="st182" d="M89.8,149l-0.7,0l3.7-7.5l6.6,7.5c-0.2,0-0.5,0-0.8,0c-2,0-4.8,0.9-4.8,0.9l0,0L89.8,149z"/>
				<path class="st182" d="M99.3,149l-6.6-7.5L89,149h0.7l4,0.9C93.7,149.9,97.4,148.7,99.3,149"/>
				<path class="st183" d="M101.2,149.4c0,0-0.7-0.3-1.9-0.3l-6.6-7.5l4.6-0.6l9.3,6.7l1.9,4.9L101.2,149.4z"/>
				<path class="st183" d="M92.7,141.5l4.6-0.6l9.3,6.7l1.9,4.9l-7.4-3.1c0,0-0.7-0.3-1.9-0.3L92.7,141.5z"/>
				<path class="st184" d="M99.1,139.7c-1.5,0-3.9-0.2-3.9-0.2c0.8-1,1.7-1.5,2.6-1.5c1.5,0,2.6,1.3,2.6,1.5l0,0l0,0
					C100.4,139.7,99.9,139.7,99.1,139.7L99.1,139.7z"/>
				<path class="st184" d="M95.2,139.5c0,0,5.4,0.4,5.2,0C100.3,139.2,97.8,136.3,95.2,139.5"/>
				<path class="st185" d="M85.2,139.9l0.1-0.2c0.6-0.6,1.3-0.9,2-0.9c1.6,0,2.8,1.5,2.8,1.6l-0.5,0.7L85.2,139.9z"/>
				<path class="st185" d="M90.1,140.3c0,0-2.3-3-4.8-0.6l-0.1,0.1l4.4,1.2L90.1,140.3z"/>
				<path class="st186" d="M83.4,136.8l1-14.7l2.9-5.6c0,0.1,1.1,9.8,0.8,10.8C87.8,128.3,83.4,136.8,83.4,136.8L83.4,136.8z"/>
				<path class="st186" d="M87.3,116.5l-2.9,5.6l-1,14.7c0,0,4.4-8.5,4.6-9.6C88.3,126.2,87.3,116.5,87.3,116.5"/>
				<path class="st187" d="M94.7,141.3c-1-1.2-4.7-1.9-4.7-1.9l-0.2-1.5l2.6-8.4l2.9,10.1L94.7,141.3L94.7,141.3z"/>
				<path class="st187" d="M92.3,129.5l-2.6,8.4l0.2,1.5c0,0,3.8,0.8,4.7,1.9l0.5-1.8L92.3,129.5z"/>
				<path class="st188" d="M90.5,141.3l-0.9-0.2l0.5-0.7l-0.2-1h0c0.1,0,3.7,0.8,4.8,1.9l-1.9,0.3L90.5,141.3z"/>
				<path class="st188" d="M89.6,141l0.5-0.7l-0.2-1c0,0,3.7,0.7,4.7,1.9l-1.9,0.3l-2.3-0.3L89.6,141z"/>
				<path class="st189" d="M95.2,139.5c1.6,0.1,2.9,0.2,3.8,0.2c1.2,0,1.4-0.1,1.5-0.1l0.3,0.1c-1.4,1.1-3.3,1.3-3.4,1.3l-2.7,0.4
					L95.2,139.5z"/>
				<path class="st189" d="M95.2,139.5l-0.5,1.8l2.7-0.4c0,0,2-0.2,3.4-1.2l-0.3-0.2C100.4,139.5,100.6,139.9,95.2,139.5"/>
				<path class="st190" d="M89.7,137.9L88,127.3c0.2-1.5-0.8-10.7-0.8-10.8l1.4-5.5l4.1,4l-0.4,14.5L89.7,137.9L89.7,137.9z"/>
				<path class="st190" d="M88.6,111l-1.4,5.5c0,0,1,9.2,0.8,10.8l1.7,10.6l2.6-8.4l0.4-14.5L88.6,111z"/>
				<polygon class="st191" points="92.7,115 99.6,119 102,135.5 102,135.5 				"/>
				<polygon class="st191" points="99.6,119 92.7,115 102,135.5 				"/>
				<path class="st192" d="M111.1,118.7c1.1-0.3,2.8-1.9,2.8-1.9l4.4,0.5c-3.1,3-6.2,4.8-6.2,4.8l0,0L111.1,118.7z"/>
				<path class="st192" d="M118.2,117.3l-4.4-0.5c0,0-1.7,1.7-2.8,1.9l0.9,3.4C112,122.1,115.2,120.3,118.2,117.3"/>
				<path class="st193" d="M110.6,122.2c-1.7,0-4.4-0.1-7-0.8l3.7-1.6l4.7,2.4C112,122.1,111.5,122.2,110.6,122.2"/>
				<path class="st193" d="M103.6,121.4l3.7-1.6l4.7,2.4C112,122.1,107.8,122.4,103.6,121.4"/>
				<path class="st194" d="M107.3,119.7c0,0,2.8-0.5,3.8-1l0.9,3.4L107.3,119.7z"/>
				<path class="st194" d="M107.3,119.7c0,0,2.8-0.5,3.8-1l0.9,3.4L107.3,119.7z"/>
				<path class="st195" d="M102.2,117.8c0,0,1.2,1.7,5.1,2l-3.7,1.6L102.2,117.8z"/>
				<path class="st195" d="M102.2,117.7c0,0,1.2,1.7,5.1,2l-3.7,1.6L102.2,117.7z"/>
				<path class="st196" d="M103.6,121.4c0,0-2.4-0.6-4-2.3l2.7-1.3L103.6,121.4L103.6,121.4z"/>
				<path class="st196" d="M99.6,119l2.7-1.3l1.4,3.6C103.6,121.3,101.2,120.8,99.6,119"/>
				<path class="st197" d="M109.2,119.3c0.9-0.5,1.5-1.1,1.6-1.9c0.3-1.3-0.5-2.5-0.5-2.5l3.6,1.8c-1.3,1.4-2.8,2-2.8,2L109.2,119.3
					L109.2,119.3z"/>
				<path class="st197" d="M110.3,115c0,0,1.9,2.7-1.1,4.4l1.9-0.6c0,0,1.4-0.5,2.8-1.9L110.3,115z"/>
				<path class="st198" d="M107.2,119.7c-0.5,0-3-0.1-4.9-2c0,0,0.9-1.7,2.8-2.5c0,0-0.6,3.3,2.3,4.4
					C107.3,119.7,107.2,119.7,107.2,119.7"/>
				<path class="st198" d="M105,115.3c0,0-0.7,3.3,2.3,4.4c0,0-2.9,0.1-5.1-2C102.2,117.7,103.1,116.1,105,115.3"/>
				<path class="st199" d="M107.3,119.7c-3.1-1.3-2.3-4.4-2.3-4.4c1-0.4,2.1-0.6,3.2-0.6c1.2,0,2.1,0.3,2.1,0.3
					c0.6,0.9,0.8,1.8,0.6,2.5c-0.4,1.2-1.7,1.8-1.7,1.8L107.3,119.7L107.3,119.7z"/>
				<path class="st199" d="M110.3,115c0,0-2.3-0.8-5.3,0.3c0,0-0.8,3.1,2.3,4.4l1.9-0.4C109.2,119.3,112.3,117.9,110.3,115"/>
				<path class="st200" d="M101.6,118.1c0,0-0.3-0.3-0.3-0.7c0-0.2,0.1-0.4,0.3-0.5c0,0,0.1-0.1,0.2-0.1c0.7-0.6,2.8-2.6,6.2-2.6
					c2,0,4.2,0.7,6.5,2l1.9,1.1l-2.5-0.3l-3.6-1.8c0,0-0.8-0.2-2-0.2c-1.1,0-2.2,0.2-3.3,0.6c0,0-2,0.9-2.8,2.4L101.6,118.1
					L101.6,118.1z"/>
				<path class="st200" d="M101.6,118.1c0,0-0.6-0.7,0-1.2c0.6-0.5,5-5.4,12.9-0.7l1.9,1.1l-2.5-0.3l-3.6-1.8c0,0-2.3-0.7-5.3,0.3
					c0,0-2,0.8-2.8,2.4L101.6,118.1z"/>
				<polygon class="st201" points="98.4,107.3 104.1,110.7 98.1,111.9 				"/>
				<polygon class="st201" points="98.4,107.3 98.1,111.9 104.1,110.7 				"/>
				<polygon class="st202" points="98.4,107.3 102.2,106.9 104.1,110.8 				"/>
				<polygon class="st202" points="102.2,106.9 104.1,110.7 98.4,107.3 				"/>
				<polygon class="st203" points="102.2,106.9 108.6,106.3 108.6,109.4 104.1,110.8 				"/>
				<polygon class="st203" points="108.6,109.4 104.1,110.7 102.2,106.9 108.6,106.3 				"/>
				<polygon class="st204" points="108.6,106.3 114.2,106.9 108.6,109.4 				"/>
				<polygon class="st204" points="114.2,106.9 108.6,109.4 108.6,106.3 				"/>
				<path class="st205" d="M117.4,108.8l-3.2-1.9c0,0,0,0,0,0c0.3,0,5.7,0.4,6.7,2.5l0,0L117.4,108.8z"/>
				<path class="st205" d="M120.8,109.4l-3.4-0.6l-3.2-1.9C114.2,106.9,119.8,107.3,120.8,109.4"/>
				<polygon class="st206" points="116.4,117.2 114.7,109 117.4,108.8 120.9,109.4 122.5,111.4 118.3,117.4 				"/>
				<polygon class="st206" points="114.7,109 116.4,117.2 118.2,117.3 122.5,111.4 120.9,109.4 117.4,108.8 				"/>
				<path class="st207" d="M116.4,117.2c-4.4-2.8-7.4-3.1-8.5-3.1c-0.4,0-0.6,0-0.6,0l1.3-4.7l6.1-0.4L116.4,117.2L116.4,117.2z"/>
				<path class="st207" d="M108.6,109.4l-1.3,4.7c0,0,3.4-0.6,9.1,3.1l-1.7-8.2L108.6,109.4z"/>
				<polygon class="st208" points="98.1,111.9 104.1,110.7 108.6,109.4 107.3,114.1 				"/>
				<polygon class="st208" points="98.1,111.9 107.3,114.1 108.6,109.4 104.1,110.7 				"/>
				<path class="st209" d="M98.1,111.9l9.2,2.2c0,0-3.5,0.1-6,3.3l0,0L98.1,111.9z"/>
				<path class="st209" d="M101.2,117.3l-3.2-5.5l9.2,2.2C107.3,114.1,103.9,114.1,101.2,117.3"/>
				<polygon class="st210" points="92.7,115 98.1,111.9 101.3,117.3 101.6,118 99.6,119 				"/>
				<polygon class="st210" points="92.7,115 98.1,111.9 101.2,117.3 101.6,118.1 99.6,119 				"/>
				<path class="st211" d="M74.4,121.3l6.3,2.1c-3.7,1.4-7.7,1.6-7.8,1.6l0,0L74.4,121.3z"/>
				<path class="st211" d="M74.4,121.4l-1.5,3.7c0,0,4.1-0.2,7.8-1.6L74.4,121.4z"/>
				<path class="st212" d="M74.4,121.4c0.4,0,0.8,0.1,1.2,0.1c2.8,0,6.6-1,6.7-1l-1.6,3.1L74.4,121.4z"/>
				<path class="st212" d="M82.3,120.4c0,0-5.1,1.3-7.9,0.9l6.3,2.1L82.3,120.4z"/>
				<path class="st213" d="M78.3,121.2c-0.1,0-0.2,0-0.2,0c0.6-0.4,1.1-0.8,1.2-1.4c0.4-1.2-0.4-2.6-0.4-2.6
					c2.3,0.2,3.8,1.6,3.8,1.6c0.2,0.6,0.2,1.1,0,1.4c-0.2,0.3-0.5,0.3-0.5,0.3C79.8,121.1,78.7,121.2,78.3,121.2z"/>
				<path class="st213" d="M79,117.2c0,0,1.6,2.7-0.9,4c0,0,0.7,0.2,4.1-0.7c0,0,1-0.1,0.5-1.7C82.8,118.7,81.3,117.4,79,117.2"/>
				<path class="st214" d="M74.4,121.4c0,0-2-0.2-2.8-1.8c-0.2-0.3,0.8-0.9,0.9-1c0,0,1,2.3,3.5,2.8l0,0L74.4,121.4z"/>
				<path class="st214" d="M71.6,119.5c-0.2-0.3,0.9-0.9,0.9-0.9s1,2.3,3.5,2.8l-1.5-0.1C74.4,121.4,72.4,121.2,71.6,119.5"/>
				<path class="st215" d="M82.3,120.4c0.3-0.1,0.4-0.2,0.6-0.4c0.3-0.5-0.1-1.3-0.1-1.3l4.5-2.3l-2.9,5.7L82.3,120.4z"/>
				<path class="st215" d="M87.3,116.5l-4.5,2.3c0,0,0.6,1.4-0.5,1.7l2.1,1.7L87.3,116.5z"/>
				<polygon class="st216" points="82.3,120.4 84.4,122.1 80.6,123.5 				"/>
				<polygon class="st216" points="80.7,123.5 82.3,120.4 84.4,122.1 				"/>
				<path class="st217" d="M82.8,118.7c-0.6-0.7-2.1-1.2-2.1-1.2l-1.2-3.9c0.8-0.2,1.6-0.3,2.4-0.3c4.3,0,5.4,3.1,5.4,3.1
					L82.8,118.7L82.8,118.7z"/>
				<path class="st217" d="M79.5,113.6l1.2,3.9c0,0,1.5,0.5,2.1,1.2l4.5-2.3C87.3,116.5,85.9,112.3,79.5,113.6"/>
				<path class="st218" d="M78.9,109.6l4.5,3.9c0,0,0,0,0,0c-0.1,0-0.7-0.1-1.6-0.1c-0.8,0-1.5,0.1-2.3,0.3l0,0L78.9,109.6z"/>
				<path class="st218" d="M78.9,109.6l4.5,3.9c0,0-1.6-0.4-3.9,0.1L78.9,109.6z"/>
				<polygon class="st219" points="74.7,113.6 78.9,109.6 79.5,113.6 				"/>
				<polygon class="st219" points="74.7,113.6 78.9,109.6 79.5,113.6 				"/>
				<path class="st220" d="M71.1,110c0.8-0.4,5.3-0.4,7.2-0.4c0.4,0,0.6,0,0.6,0l-4.2,4.1L71.1,110z"/>
				<path class="st220" d="M71.1,110l3.6,3.6l4.2-4C78.9,109.6,72,109.5,71.1,110"/>
				<polygon class="st221" points="71.1,110 74.7,113.6 69.2,114.1 				"/>
				<polygon class="st221" points="69.2,114.1 74.7,113.6 71.1,110 				"/>
				<path class="st222" d="M66.5,111.6c0.9-0.5,4.6-1.6,4.6-1.6l-1.9,4.1L66.5,111.6z"/>
				<path class="st222" d="M66.5,111.6l2.7,2.5l1.9-4.1C71.1,110,67.4,111.1,66.5,111.6"/>
				<path class="st223" d="M65,114.3c0.3-0.2,1.5-2.6,1.5-2.7l2.8,2.5L65,114.3L65,114.3z"/>
				<path class="st223" d="M65,114.3c0.3-0.2,1.5-2.7,1.5-2.7l2.7,2.5L65,114.3z"/>
				<path class="st224" d="M71.5,119.5c0,0,0-0.1,0.1-0.2l3.1-5.7l4.8,0l1.2,3.9l-1.7-0.4c-0.7-0.1-1.4-0.1-2-0.1
					c-2.4,0-3.3,0.7-3.3,0.7c-1.2,0.8-1.8,1.3-2,1.6l0,0L71.5,119.5L71.5,119.5z"/>
				<path class="st224" d="M74.7,113.6l-3.2,5.9c0,0,0-0.5,2.1-1.8c0,0,1.4-1.1,5.4-0.6l1.7,0.4l-1.2-3.9H74.7z"/>
				<polygon class="st225" points="69.2,114.1 74.7,113.6 71.5,119.6 				"/>
				<polygon class="st225" points="69.2,114.1 71.6,119.5 74.7,113.6 				"/>
				<path class="st210" d="M65.9,124.1l5.6-4.6c0,0,0.7,1.6,2.8,1.8l-1.5,3.7L65.9,124.1z"/>
				<path class="st210" d="M65.9,124.1l5.6-4.6c0,0,0.7,1.6,2.8,1.8l-1.5,3.7L65.9,124.1z"/>
				<polygon class="st226" points="57.9,123.1 65,114.3 65.9,124.1 				"/>
				<polygon class="st226" points="58,123 65,114.3 65.9,124.1 				"/>
				<polygon class="st227" points="58.7,111 66.5,111.6 65,114.3 57.9,123.1 				"/>
				<polygon class="st227" points="58.7,111 58,123 65,114.3 66.5,111.6 				"/>
				<path class="st228" d="M87.2,116.5c-0.8-2.3-3.8-3-3.9-3l-4.5-3.9l9.7,1.4L87.2,116.5L87.2,116.5z"/>
				<path class="st228" d="M88.6,111l-9.7-1.4l4.5,3.9c0,0,3,0.7,3.9,3L88.6,111z"/>
				<polygon class="st229" points="78.9,109.6 86.2,79.3 98.4,107.3 88.6,111 				"/>
				<polygon class="st229" points="86.2,79.3 78.9,109.6 88.6,111 98.4,107.3 				"/>
				<path class="st230" d="M86.2,79.3c3.1-1,8.4-1.2,12.2-1.2c3,0,5.2,0.1,5.2,0.1l-1.4,28.6l-3.9,0.5L86.2,79.3z"/>
				<path class="st230" d="M103.6,78.3c0,0-11.9-0.7-17.4,1.1l12.2,28l3.8-0.4L103.6,78.3z"/>
				<path class="st231" d="M120.8,109.4c-1.4-2.2-6.6-2.5-6.7-2.5l6.9-22.1c2.9,2.8,7.4,17.8,7.5,18l-6.1,8.7L120.8,109.4z"/>
				<path class="st231" d="M121.1,84.7l-6.9,22.1c0,0,5.2,0.3,6.7,2.5l1.6,2l6.1-8.7C128.6,102.7,124,87.6,121.1,84.7"/>
				<path class="st232" d="M103.6,78.3c0.1,0,9.6,2.1,17.5,6.5l-6.9,22.2L103.6,78.3z"/>
				<path class="st232" d="M103.6,78.3c0,0,9.5,2,17.5,6.5l-6.9,22.1L103.6,78.3z"/>
				<polygon class="st233" points="108.6,106.3 102.2,106.9 103.6,78.3 114.2,106.9 				"/>
				<polygon class="st233" points="102.2,106.9 108.6,106.3 114.2,106.9 103.6,78.3 				"/>
				<path class="st234" d="M72,82.8c4.8-2,14.1-3.4,14.2-3.5l-7.3,30.3h0L72,82.8z"/>
				<path class="st234" d="M72,82.8l6.9,26.8l7.3-30.3C86.2,79.3,76.8,80.8,72,82.8"/>
				<polygon class="st235" points="64,86.6 72,82.8 78.9,109.6 78.9,109.6 				"/>
				<polygon class="st235" points="64,86.6 78.9,109.6 72,82.8 				"/>
				<path class="st236" d="M58.7,111l1-15.3l19.3,13.9l-0.1,0c-0.7,0-6.5,0-7.7,0.4l-4.6,1.6L58.7,111z"/>
				<path class="st236" d="M58.7,111l1-15.3l19.2,13.9c0,0-6.5,0-7.8,0.4l-4.6,1.6L58.7,111z"/>
				<polygon class="st237" points="59.7,95.7 64,86.6 78.9,109.6 78.9,109.6 				"/>
				<polygon class="st237" points="64,86.6 59.7,95.7 78.9,109.6 				"/>
				<path class="st238" d="M131.8,139.5c-0.9,0-1.5-0.2-1.5-0.2l0.1-1.5l0.3-5l6.8-4.2l0,3c0,0.4-0.2,0.6-0.4,1
					c-0.2,0.4-0.5,0.9-0.6,1.6c-0.1,1.4-0.8,3.6-0.8,3.6C134.5,139.3,132.9,139.5,131.8,139.5C131.8,139.5,131.8,139.5,131.8,139.5"
					/>
				<path class="st238" d="M130.3,139.4c0,0,3.3,0.9,5.5-1.5c0,0,0.7-2.3,0.8-3.6c0.1-1.4,0.9-1.8,0.9-2.6v-3l-6.8,4.2l-0.3,5
					L130.3,139.4z"/>
				<path class="st239" d="M132.5,131.7L132.5,131.7c-0.3-0.4,3.1-9.4,3.2-9.8l1.1,3.5l0.7,3.1L132.5,131.7L132.5,131.7L132.5,131.7
					z"/>
				<path class="st239" d="M135.7,122c0,0-3.8,10.1-3.2,9.8c0.6-0.4,5-3.1,5-3.1l-0.7-3.1L135.7,122z"/>
				<path class="st240" d="M133,129.5c-0.2,0-0.9-4.7-1-5.7l2.4,1.6C134.4,125.5,133.1,129.1,133,129.5L133,129.5z"/>
				<path class="st240" d="M132,123.8c0,0,0.9,6,1,5.6c0.1-0.4,1.4-4,1.4-4L132,123.8z"/>
				<path class="st241" d="M130.6,132.9c0-0.1,0.1-9.4-0.5-10.2l1.8,1.2l1,5.6c0,0-0.4,1.4-0.5,2.2L130.6,132.9L130.6,132.9z"/>
				<path class="st241" d="M130.1,122.6l1.8,1.2l1,5.6c0,0-0.4,1.4-0.5,2.2l-1.9,1.2C130.6,132.9,130.7,123.5,130.1,122.6"/>
				<polygon class="st242" points="130.1,122.7 136,116.5 135.7,122 134.4,125.5 				"/>
				<polygon class="st242" points="136,116.6 130.1,122.6 134.4,125.5 135.7,122 				"/>
				<path class="st243" d="M131.6,115c1.1-1,2-1.5,2.7-1.5c1.7,0,1.8,3.1,1.8,3.1l-5.9,6.1L131.6,115z"/>
				<path class="st243" d="M131.6,115l-1.4,7.7l5.9-6.1C136,116.6,135.9,110.8,131.6,115"/>
				<path class="st244" d="M128.6,102.7l-2.9-26.1c5,2.5,5.8,8.7,5.9,8.7c2.2,5.4,0.9,17.2,0.9,17.3l0,0H128.6z"/>
				<path class="st244" d="M125.7,76.7l2.8,26h3.8c0,0,1.4-11.9-0.9-17.3C131.6,85.4,130.8,79.2,125.7,76.7"/>
				<path class="st245" d="M128.6,102.7c0-0.1-4.4-14.9-7.5-18l-3.6-1.8l8.2-6.3L128.6,102.7L128.6,102.7z"/>
				<path class="st245" d="M117.5,82.9l8.2-6.3l2.8,26c0,0-4.4-14.9-7.5-18L117.5,82.9z"/>
				<path class="st246" d="M117.5,82.9c-4.4-2.3-13.8-4.7-13.9-4.7l4.2-9.4L117.5,82.9L117.5,82.9z"/>
				<path class="st246" d="M107.8,68.8l-4.2,9.4c0,0,9.5,2.4,13.9,4.7L107.8,68.8z"/>
				<path class="st247" d="M92.1,56.1l4.9,22.1c-0.1,0-8.7,0.1-10.7,1.2l0,0L92.1,56.1z"/>
				<path class="st247" d="M86.2,79.3l5.9-23.3l4.8,22.1C96.9,78.1,88.2,78.3,86.2,79.3"/>
				<polygon class="st248" points="96.9,78.2 94.9,68.9 101.1,61 103.6,78.3 				"/>
				<polygon class="st248" points="101.1,61 94.9,68.9 96.9,78.1 103.6,78.3 				"/>
				<path class="st249" d="M92.1,56.1c0.1,0,5.3,1.8,7.2,2.1c1,0.1,2.1,0.2,2.9,0.2h0c0.8,0,1.5,0,1.5,0l-2.5,2.7l-6.2,8L92.1,56.1z
					"/>
				<path class="st249" d="M103.6,58.3l-2.5,2.7l-6.2,8l-2.8-12.9c0,0,5.3,1.9,7.2,2.1C101.2,58.4,103.6,58.3,103.6,58.3"/>
				<path class="st250" d="M101.1,61l2.5-2.7c0.1,0,4.8,0.4,9.2,3.7l-4.9,6.8l-4.2,9.4L101.1,61z"/>
				<path class="st250" d="M112.7,62l-4.9,6.8l-4.2,9.4L101.1,61l2.5-2.7C103.6,58.3,108.3,58.6,112.7,62"/>
				<path class="st251" d="M118.6,67.7c0.3,0.3,7.2,8.1,7.2,9c0,0.9-7.9,6.1-8.2,6.3l0,0L118.6,67.7z"/>
				<path class="st251" d="M118.6,67.7l-1.1,15.2c0,0,8.2-5.4,8.2-6.3C125.7,75.8,118.6,67.7,118.6,67.7"/>
				<polygon class="st252" points="107.8,68.9 112.7,62 118.6,67.7 117.5,83 				"/>
				<polygon class="st252" points="112.7,62 118.6,67.7 117.5,82.9 107.8,68.8 				"/>
				<path class="st253" d="M79.5,57.1C81,56.5,92,56.1,92.1,56l-5.9,23.3L79.5,57.1z"/>
				<path class="st253" d="M79.5,57.1l6.7,22.2l5.9-23.3C92.1,56.1,81,56.5,79.5,57.1"/>
				<path class="st248" d="M69.7,61c0.5-0.5,6-3.9,9.5-3.9c0.1,0,0.2,0,0.3,0l6.7,22.2l0,0L69.7,61z"/>
				<path class="st248" d="M69.7,61c0.6-0.5,6.3-4,9.8-3.8l6.7,22.2L69.7,61z"/>
				<path class="st254" d="M69.7,61l16.5,18.3c-0.1,0-11.7,2-14.2,3.5l0,0L69.7,61z"/>
				<path class="st254" d="M72,82.8L69.7,61l16.5,18.4C86.2,79.3,74.5,81.2,72,82.8"/>
				<path class="st248" d="M63.6,65.4c0,0,4.1-4.1,6.1-4.5L72,82.8l-8,3.8L63.6,65.4z"/>
				<path class="st248" d="M64,86.6l-0.4-21.2c0,0,4.1-4.1,6.1-4.4L72,82.8L64,86.6z"/>
				<polygon class="st247" points="56.6,81 63.8,78.7 64,86.6 				"/>
				<polygon class="st247" points="56.6,81 64,86.6 63.8,78.7 				"/>
				<path class="st247" d="M56.6,81c0.4-2.7,6.9-15.4,7-15.6l0.3,13.3L56.6,81L56.6,81z"/>
				<path class="st247" d="M63.6,65.4c0,0-6.6,12.9-7,15.6l7.2-2.3L63.6,65.4z"/>
				<path class="st245" d="M54.2,94.9c0-0.1,0.1-4.3,0.4-6.4c0.3-2.2,2-7.4,2-7.5l7.4,5.6l-4.3,9.1L54.2,94.9z"/>
				<path class="st245" d="M54.2,94.9c0,0,0.1-4.2,0.4-6.4c0.3-2.2,2-7.5,2-7.5l7.4,5.6l-4.3,9.1L54.2,94.9z"/>
				<polygon class="st244" points="54.2,94.9 59.7,95.7 58.7,111 58.7,111 				"/>
				<polygon class="st244" points="58.7,111 54.2,94.9 59.7,95.7 				"/>
				<path class="st255" d="M57.9,123.1c0-0.2-4.7-23.1-3.7-28.2l4.5,16.1L57.9,123.1L57.9,123.1z"/>
				<path class="st255" d="M58,123c0,0-4.7-23.1-3.7-28.2l4.4,16.1L58,123z"/>
				<path class="st256" d="M62.4,146c0,0-3.1-0.3-4.4-4.9c0,0-1-2.2-1-3.1l4.5,3.4L62.4,146L62.4,146z"/>
				<path class="st256" d="M62.4,146c0,0-3.1-0.2-4.4-4.9c0,0-1-2.2-1-3.1l4.5,3.4L62.4,146z"/>
				<polygon class="st257" points="56.9,137.9 59.2,129.5 61.5,141.3 				"/>
				<polygon class="st257" points="59.2,129.5 57,137.9 61.5,141.3 				"/>
				<path class="st258" d="M56.9,137.9c0-0.1,0.1-6,0-7.4c-0.1-1.3-1.2-6-1.3-6.1l3.5,5L56.9,137.9L56.9,137.9z"/>
				<path class="st258" d="M55.7,124.4c0,0,1.2,4.8,1.3,6.1c0.1,1.3,0,7.4,0,7.4l2.2-8.4L55.7,124.4z"/>
				<path class="st259" d="M55.7,124.4c-0.9-0.8-1.3-1.6-1.2-2.4c0.1-0.8,0.7-1.3,1.2-1.6c0.1-0.1,0.3-0.1,0.4-0.1
					c0.8,0,1.5,1,1.5,1L58,123l1.2,6.4l0,0L55.7,124.4z"/>
				<path class="st259" d="M57.6,121.4c0,0-0.9-1.4-1.9-0.9c-1,0.5-2.1,2.1,0,4l3.5,5.1L58,123L57.6,121.4z"/>
				<polygon class="st255" points="128.6,116.1 128.4,112 128.6,102.7 132.4,102.7 131.6,115 130.1,122.6 130.1,122.6 				"/>
				<polygon class="st255" points="132.4,102.7 131.6,115 130.1,122.6 128.7,116.1 128.4,112 128.6,102.7 				"/>
				<path class="st260" d="M95.4,157.8c0,0,3.9-0.8,5-1.5l-2,3.9L95.4,157.8z"/>
				<path class="st260" d="M100.4,156.4l-2,3.9l-3-2.5C95.4,157.8,99.3,157,100.4,156.4"/>
				<path class="st261" d="M92.7,158.2c-0.1,0-5.6-0.5-8.7-2.4c0,0-2.6-2-3.3-2.6c0.1,0,5.6-0.2,6.8-0.2L92.7,158.2L92.7,158.2z"/>
				<path class="st261" d="M80.8,153.2c0,0,5.6-0.2,6.8-0.2l5.2,5.2c0,0-5.6-0.5-8.7-2.4C84.1,155.8,81.5,153.8,80.8,153.2"/>
				<path class="st262" d="M97.9,152.5c0.4-0.1,1.5-0.2,3.4-0.2c3.1,0,7.3,0.2,7.3,0.2c-8.9,5.5-15.8,5.7-15.8,5.7l0,0L97.9,152.5z"
					/>
				<path class="st262" d="M108.6,152.5c0,0-9.3-0.5-10.7,0l-5.2,5.7C92.7,158.2,99.6,158,108.6,152.5"/>
				<path class="st262" d="M97.9,152.5c0.4-0.1,1.5-0.2,3.4-0.2c3.1,0,7.3,0.2,7.3,0.2c-8.9,5.5-15.8,5.7-15.8,5.7l0,0L97.9,152.5z"
					/>
				<path class="st262" d="M108.6,152.5c0,0-9.3-0.5-10.7,0l-5.2,5.7C92.7,158.2,99.6,158,108.6,152.5"/>
				<polygon class="st263" points="88.6,111 98.4,107.3 98.1,111.9 92.7,115 				"/>
				<polygon class="st263" points="88.6,111 98.4,107.3 98.1,111.9 92.7,115 				"/>
				<polygon class="st264" points="108.6,109.4 114.2,106.9 117.4,108.8 108.6,109.4 				"/>
				<polygon class="st264" points="117.4,108.8 114.2,106.9 108.6,109.4 				"/>
				<polygon class="st265" points="65,114.3 69.2,114.1 71.6,119.5 65.9,124.1 				"/>
				<polygon class="st265" points="65,114.3 65.9,124.1 71.6,119.5 69.2,114.1 				"/>
				<path class="st266" d="M72.9,125.1c5.4-0.3,11.4-2.9,11.5-3l-1,14.7L72.9,125.1z"/>
				<path class="st266" d="M84.4,122.1c0,0-6,2.6-11.5,2.9l10.5,11.8L84.4,122.1z"/>
				<polygon class="st267" points="106.3,117 106.7,115.3 108.2,115 109.2,116.1 108.6,117.8 				"/>
				<polygon class="st267" points="108.6,117.7 106.3,117 106.7,115.3 108.2,115 109.2,116.1 				"/>
				<polygon class="st198" points="107.9,116.1 109.2,115 110,116 109.7,116.8 				"/>
				<polygon class="st198" points="107.9,116 109.2,115 110,116 109.7,116.8 				"/>
				<path class="st200" d="M68.4,120.2l1.8-1.3c2.4-1.8,4.8-2.7,7.2-2.7c2.9,0,4.9,1.5,5.5,2c0.1,0.1,0.1,0.1,0.2,0.1
					c0.2,0.1,0.3,0.3,0.3,0.5c0.1,0.4-0.2,0.8-0.2,0.8l-0.7-0.2c-0.9-1.5-3-2.1-3-2.1c-0.8-0.1-1.7-0.2-2.4-0.2
					c-1.8,0-2.8,0.4-2.8,0.4l-3.4,2.2L68.4,120.2L68.4,120.2z"/>
				<path class="st200" d="M83.2,119.6c0,0,0.6-0.8-0.1-1.2c-0.7-0.5-5.5-4.9-12.9,0.6l-1.8,1.3l2.4-0.6l3.4-2.2
					c0,0,1.9-0.8,5.3-0.2c0,0,2.1,0.6,3,2.1L83.2,119.6z"/>
				<path class="st268" d="M90.1,140.4c-0.8-1-1.7-1.5-2.7-1.5c-1.3,0-2.2,1-2.2,1l-3-0.8l5.7-11.9L90.1,140.4L90.1,140.4z"/>
				<path class="st268" d="M90.1,140.3L88,127.3l-5.7,11.8l2.9,0.8C85.2,139.9,87.5,137.4,90.1,140.3"/>
				<path class="st269" d="M100.4,139.5c-0.9-1-1.8-1.5-2.6-1.5c-1.5,0-2.6,1.5-2.6,1.5l-2.9-10.1l0.4-14.5l9.3,20.5
					c0.9,2.8-1.3,4.2-1.3,4.2l0,0L100.4,139.5z"/>
				<path class="st269" d="M102,135.5L92.7,115l-0.4,14.5l2.8,10.1c0,0,2.3-3.5,5.2,0l0.3,0.2C100.7,139.7,102.9,138.3,102,135.5"/>
				<g class="st270">
					<g>
						<defs>
							<rect id="SVGID_19_" x="99.5" y="112.6" width="16.4" height="3.9"/>
						</defs>
						<clipPath id="SVGID_20_">
							<use xlink:href="#SVGID_19_"  style="overflow:visible;"/>
						</clipPath>
						<path class="st271" d="M99.7,116.3L99.7,116.3c0,0,2-1.8,5-2.8c1.7-0.6,3.5-0.8,5.1-0.7c2.1,0.2,4,0.9,5.8,2.3l0,0
							c-1.8-1.3-3.8-2.1-5.8-2.3c-1.7-0.1-3.4,0.1-5.1,0.7C101.7,114.5,99.7,116.3,99.7,116.3z"/>
					</g>
				</g>
				<g class="st272">
					<g>
						<defs>
							<rect id="SVGID_21_" x="99.5" y="112.6" width="16.4" height="3.9"/>
						</defs>
						<clipPath id="SVGID_22_">
							<use xlink:href="#SVGID_21_"  style="overflow:visible;"/>
						</clipPath>
						<path class="st273" d="M99.7,116.3c0,0,8-7,16-1.2"/>
					</g>
				</g>
				<g class="st270">
					<g>
						<defs>
							<rect id="SVGID_23_" x="67" y="115.1" width="16.9" height="4.3"/>
						</defs>
						<clipPath id="SVGID_24_">
							<use xlink:href="#SVGID_23_"  style="overflow:visible;"/>
						</clipPath>
						<path class="st274" d="M67.2,119.1L67.2,119.1c0,0,2.1-1.8,5.1-2.9c1.8-0.7,3.6-1,5.3-0.9c2.1,0.1,4.2,0.7,6.1,1.9l0,0
							c-1.9-1.2-4-1.8-6.1-1.8c-0.1,0-0.2,0-0.3,0c-1.6,0-3.3,0.3-4.9,0.9C69.3,117.3,67.3,119.1,67.2,119.1z"/>
					</g>
				</g>
				<g class="st272">
					<g>
						<defs>
							<rect id="SVGID_25_" x="67" y="115.1" width="16.9" height="4.2"/>
						</defs>
						<clipPath id="SVGID_26_">
							<use xlink:href="#SVGID_25_"  style="overflow:visible;"/>
						</clipPath>
						<path class="st275" d="M67.2,119.1c0,0,8.2-7.1,16.5-2"/>
					</g>
				</g>
				<path class="st276" d="M75.9,121.4c-2.5-0.5-3.5-2.8-3.5-2.8c1.5-1.4,3.4-1.7,4.8-1.7c1.1,0,1.8,0.2,1.8,0.2
					c0.5,1,0.6,1.9,0.4,2.6c-0.3,1-1.2,1.4-1.2,1.4L75.9,121.4L75.9,121.4z"/>
				<path class="st276" d="M72.4,118.6c0,0,1,2.3,3.5,2.8l2.3-0.3c0,0,2.4-1.1,0.9-4C79,117.2,75,116.2,72.4,118.6"/>
				<polygon class="st267" points="75.9,119.7 75,117.8 76.6,117.1 78.2,118.4 77.2,119.7 				"/>
				<polygon class="st267" points="77.2,119.7 75.9,119.7 75,117.7 76.6,117.2 78.1,118.4 				"/>
				<polygon class="st198" points="77.5,118.5 76.8,117.8 78.1,117.3 78.7,119.1 				"/>
				<polygon class="st198" points="78.1,117.3 76.8,117.7 77.5,118.4 78.6,119.1 				"/>
			</g>
		</g>
	</g>
</g>
</svg>
