<?xml version="1.0" encoding="utf-8"?>
<!-- Generator: Adobe Illustrator 19.2.1, SVG Export Plug-In . SVG Version: 6.00 Build 0)  -->
<svg version="1.1" id="Layer_1" xmlns="http://www.w3.org/2000/svg" xmlns:xlink="http://www.w3.org/1999/xlink" x="0px" y="0px"
	 width="192px" height="234px" viewBox="0 0 192 234" style="enable-background:new 0 0 192 234;" xml:space="preserve">
<style type="text/css">
	.st0{fill:#F2F2F2;}
	.st1{fill:#F69133;}
	.st2{clip-path:url(#SVGID_2_);}
	.st3{clip-path:url(#SVGID_4_);fill:#F0C0B3;}
	.st4{clip-path:url(#SVGID_4_);fill:#E3BAAF;}
	.st5{clip-path:url(#SVGID_4_);fill:#DEB39C;}
	.st6{clip-path:url(#SVGID_4_);fill:#EEB69A;}
	.st7{clip-path:url(#SVGID_4_);fill:#CD9A84;}
	.st8{clip-path:url(#SVGID_4_);fill:#CC9286;}
	.st9{clip-path:url(#SVGID_4_);fill:#C18B7D;}
	.st10{clip-path:url(#SVGID_4_);fill:#BE8072;}
	.st11{clip-path:url(#SVGID_4_);fill:#C18471;}
	.st12{clip-path:url(#SVGID_4_);fill:#C6896F;}
	.st13{clip-path:url(#SVGID_4_);fill:#CC8976;}
	.st14{clip-path:url(#SVGID_4_);fill:#D59078;}
	.st15{clip-path:url(#SVGID_4_);fill:#F3CAB5;}
	.st16{clip-path:url(#SVGID_4_);fill:#E4B3A7;}
	.st17{clip-path:url(#SVGID_4_);fill:#D39893;}
	.st18{clip-path:url(#SVGID_4_);fill:#EAB1A2;}
	.st19{clip-path:url(#SVGID_4_);fill:#E9BEAC;}
	.st20{clip-path:url(#SVGID_4_);fill:#F6CFBE;}
	.st21{clip-path:url(#SVGID_4_);fill:#F2CEC0;}
	.st22{clip-path:url(#SVGID_4_);fill:#F9D4CE;}
	.st23{clip-path:url(#SVGID_4_);fill:#F5CEC6;}
	.st24{clip-path:url(#SVGID_4_);fill:#F8DAD3;}
	.st25{clip-path:url(#SVGID_4_);fill:#EC9C8B;}
	.st26{clip-path:url(#SVGID_4_);fill:#FFD4CD;}
	.st27{clip-path:url(#SVGID_4_);fill:#5E2316;}
	.st28{clip-path:url(#SVGID_4_);fill:#4F2118;}
	.st29{clip-path:url(#SVGID_4_);fill:#E1C9B9;}
	.st30{clip-path:url(#SVGID_4_);fill:#B76B67;}
	.st31{clip-path:url(#SVGID_4_);fill:#C26974;}
	.st32{clip-path:url(#SVGID_4_);fill:#D96775;}
	.st33{clip-path:url(#SVGID_4_);fill:#F09191;}
	.st34{clip-path:url(#SVGID_4_);fill:#F4CCC6;}
	.st35{clip-path:url(#SVGID_4_);fill:#060500;}
	.st36{clip-path:url(#SVGID_4_);fill:#954D41;}
	.st37{clip-path:url(#SVGID_4_);fill:#4C1409;}
	.st38{clip-path:url(#SVGID_4_);fill:#78241F;}
	.st39{clip-path:url(#SVGID_4_);fill:#D28977;}
	.st40{clip-path:url(#SVGID_4_);fill:#ECAA9E;}
	.st41{clip-path:url(#SVGID_4_);fill:#2B0D02;}
	.st42{clip-path:url(#SVGID_4_);fill:#FFE7DD;}
	.st43{clip-path:url(#SVGID_4_);fill:#FFDFD4;}
	.st44{clip-path:url(#SVGID_4_);fill:#F9D8CE;}
	.st45{clip-path:url(#SVGID_4_);fill:#FFE0D6;}
	.st46{clip-path:url(#SVGID_4_);fill:#2B0000;}
	.st47{clip-path:url(#SVGID_4_);fill:#FFF9EF;}
	.st48{clip-path:url(#SVGID_4_);fill:#120000;}
	.st49{clip-path:url(#SVGID_4_);fill:#EFB89E;}
	.st50{clip-path:url(#SVGID_4_);fill:#E8B9A5;}
	.st51{clip-path:url(#SVGID_4_);fill:#FFC8B4;}
	.st52{clip-path:url(#SVGID_4_);fill:#90482F;}
	.st53{clip-path:url(#SVGID_4_);fill:#7A3622;}
	.st54{clip-path:url(#SVGID_4_);fill:#6E2316;}
	.st55{clip-path:url(#SVGID_4_);fill:#82392E;}
	.st56{clip-path:url(#SVGID_4_);fill:#8F4F3E;}
	.st57{clip-path:url(#SVGID_4_);fill:#FFC6BC;}
	.st58{clip-path:url(#SVGID_4_);fill:#CC796B;}
	.st59{clip-path:url(#SVGID_4_);fill:#905645;}
	.st60{clip-path:url(#SVGID_4_);fill:#D88271;}
	.st61{clip-path:url(#SVGID_4_);fill:#8B351D;}
	.st62{clip-path:url(#SVGID_4_);fill:#3C1006;}
	.st63{clip-path:url(#SVGID_4_);fill:#060000;}
	.st64{clip-path:url(#SVGID_4_);fill:#190A0E;}
	.st65{clip-path:url(#SVGID_4_);fill:#A25D49;}
	.st66{clip-path:url(#SVGID_4_);fill:#C0755D;}
	.st67{clip-path:url(#SVGID_4_);fill:#D88A7E;}
	.st68{clip-path:url(#SVGID_4_);fill:#361511;}
	.st69{clip-path:url(#SVGID_4_);fill:#542314;}
	.st70{clip-path:url(#SVGID_4_);fill:#72322B;}
	.st71{clip-path:url(#SVGID_4_);fill:#472013;}
	.st72{clip-path:url(#SVGID_4_);fill:#4F2012;}
	.st73{clip-path:url(#SVGID_4_);fill:#6E2618;}
	.st74{clip-path:url(#SVGID_4_);fill:#622B1F;}
	.st75{clip-path:url(#SVGID_4_);fill:#65220F;}
	.st76{clip-path:url(#SVGID_4_);fill:#7E4638;}
	.st77{clip-path:url(#SVGID_4_);fill:#DCA599;}
	.st78{clip-path:url(#SVGID_4_);fill:#6C3122;}
	.st79{clip-path:url(#SVGID_4_);fill:#AB8071;}
	.st80{clip-path:url(#SVGID_4_);fill:#E5B29D;}
	.st81{clip-path:url(#SVGID_4_);fill:#E6B7A7;}
	.st82{clip-path:url(#SVGID_4_);fill:#D6A992;}
	.st83{clip-path:url(#SVGID_4_);fill:#EABFAE;}
	.st84{clip-path:url(#SVGID_4_);fill:#553D31;}
	.st85{clip-path:url(#SVGID_4_);fill:#854E40;}
	.st86{clip-path:url(#SVGID_4_);fill:#834534;}
	.st87{clip-path:url(#SVGID_4_);fill:#593227;}
	.st88{clip-path:url(#SVGID_4_);fill:#6F4D47;}
	.st89{clip-path:url(#SVGID_4_);fill:#3F2B20;}
	.st90{clip-path:url(#SVGID_4_);fill:#684329;}
	.st91{clip-path:url(#SVGID_4_);fill:#5E3D3C;}
	.st92{clip-path:url(#SVGID_4_);fill:#592512;}
	.st93{clip-path:url(#SVGID_4_);fill:#FDE1D3;}
	.st94{clip-path:url(#SVGID_4_);fill:#6D4A3E;}
	.st95{clip-path:url(#SVGID_4_);fill:#F5D9CC;}
	.st96{clip-path:url(#SVGID_4_);fill:#FAE3D9;}
	.st97{clip-path:url(#SVGID_4_);fill:#F8DDD3;}
	.st98{clip-path:url(#SVGID_4_);fill:#C98B78;}
	.st99{clip-path:url(#SVGID_4_);fill:#EFCCC1;}
	.st100{clip-path:url(#SVGID_4_);fill:#FFE4DD;}
	.st101{clip-path:url(#SVGID_4_);fill:#FFE9DD;}
	.st102{clip-path:url(#SVGID_4_);fill:#CA9E94;}
	.st103{clip-path:url(#SVGID_4_);fill:#FFDDC9;}
	.st104{clip-path:url(#SVGID_4_);fill:#EFD6CA;}
	.st105{clip-path:url(#SVGID_4_);fill:#F0CFCA;}
	.st106{clip-path:url(#SVGID_4_);fill:#F9C7BD;}
	.st107{clip-path:url(#SVGID_4_);fill:#120600;}
	.st108{clip-path:url(#SVGID_4_);fill:#FFF4F8;}
	.st109{clip-path:url(#SVGID_4_);fill:#EFC9BF;}
	.st110{clip-path:url(#SVGID_4_);fill:#FFC7B9;}
	.st111{clip-path:url(#SVGID_4_);fill:#6F4944;}
	.st112{clip-path:url(#SVGID_4_);fill:#D37E65;}
</style>
<rect class="st0" width="192" height="234"/>
<polygon class="st1" points="192,215.5 172.5,234 192,234 "/>
<g>
	<g>
		<defs>
			<rect id="SVGID_1_" x="20.9" y="50.2" width="151.2" height="151.2"/>
		</defs>
		<clipPath id="SVGID_2_">
			<use xlink:href="#SVGID_1_"  style="overflow:visible;"/>
		</clipPath>
		<g class="st2">
			<defs>
				<rect id="SVGID_3_" x="20.9" y="50.2" width="151.2" height="151.2"/>
			</defs>
			<clipPath id="SVGID_4_">
				<use xlink:href="#SVGID_3_"  style="overflow:visible;"/>
			</clipPath>
			<path class="st3" d="M97.5,177.9c-5.8,0-10.8-2.8-10.9-2.9l7.9-14.5l11.9,14.5C103.9,176.9,100.9,177.9,97.5,177.9L97.5,177.9z"
				/>
			<path class="st3" d="M94.6,160.5L86.6,175c0,0,11.2,6.4,19.8,0L94.6,160.5z"/>
			<path class="st4" d="M94.6,160.5c0.1,0,5.9-0.6,8.6-2.9l11.2,10.5l-8,6.9L94.6,160.5z"/>
			<path class="st4" d="M114.4,168.1l-7.9,6.9l-11.9-14.5c0,0,5.8-0.6,8.6-2.9L114.4,168.1z"/>
			<path class="st5" d="M103.2,157.6c0.9-0.6,5.6-6.3,5.6-6.3l14.6,5c-1.7,3.3-8.9,11.7-9,11.8l0,0L103.2,157.6z"/>
			<path class="st5" d="M108.8,151.3c0,0-4.7,5.7-5.6,6.3l11.2,10.5c0,0,7.2-8.5,9-11.8L108.8,151.3z"/>
			<polygon class="st6" points="108.8,151.3 113.3,144.9 123.5,156.4 			"/>
			<polygon class="st6" points="113.3,144.9 108.8,151.3 123.4,156.3 			"/>
			<polygon class="st7" points="113.3,144.9 128.8,146.2 123.4,156.4 			"/>
			<polygon class="st7" points="128.8,146.2 123.4,156.3 113.3,144.9 			"/>
			<path class="st8" d="M80.9,156.9c3.6,3.2,13.6,3.6,13.7,3.6L86.6,175L80.9,156.9z"/>
			<path class="st8" d="M80.9,156.9l5.7,18.1l7.9-14.5C94.6,160.5,84.5,160.2,80.9,156.9"/>
			<path class="st9" d="M86.6,175c-1.4-0.7-14.6-12.5-14.7-12.6l9-5.5L86.6,175L86.6,175z"/>
			<path class="st9" d="M71.9,162.4c0,0,13.3,11.9,14.7,12.6l-5.7-18.1L71.9,162.4z"/>
			<path class="st10" d="M74.7,149.3c0.1,0.1,4.9,6.7,6.2,7.6l-9,5.5L74.7,149.3z"/>
			<path class="st10" d="M74.7,149.3c0,0,4.9,6.7,6.2,7.6l-9,5.5L74.7,149.3z"/>
			<path class="st11" d="M71.9,162.4c-6.7-5.9-8.9-14.1-8.9-14.1l11.7,1L71.9,162.4L71.9,162.4z"/>
			<path class="st11" d="M63.1,148.3c0,0,2.1,8.1,8.9,14.1l2.8-13.1L63.1,148.3z"/>
			<polygon class="st12" points="63.1,148.3 72.7,145.3 74.8,149.3 			"/>
			<polygon class="st12" points="72.8,145.4 63.1,148.3 74.7,149.3 			"/>
			<path class="st13" d="M63,148.3c-0.2-0.7-0.6-10.4-0.6-10.9l10.3,7.9L63,148.3L63,148.3z"/>
			<path class="st13" d="M62.5,137.4c0,0,0.4,10.2,0.6,10.9l9.7-2.9L62.5,137.4z"/>
			<polygon class="st14" points="62.5,137.4 79.8,137.4 72.8,145.4 			"/>
			<polygon class="st14" points="79.8,137.4 72.8,145.4 62.5,137.4 			"/>
			<path class="st15" d="M113.3,144.9c3.9-2.4,17.9-17.5,18-17.7c-0.3,6.7-2.5,18.8-2.5,18.9l0,0L113.3,144.9z"/>
			<path class="st15" d="M131.3,127.3c0,0-14,15.2-18,17.6l15.5,1.3C128.8,146.2,131,134,131.3,127.3"/>
			<polygon class="st16" points="62.5,137.4 71.9,125.4 79.8,137.4 			"/>
			<polygon class="st16" points="71.9,125.4 62.5,137.4 79.8,137.4 			"/>
			<path class="st17" d="M62.5,137.4c0-1-1.8-16.4-1.9-16.6l11.3,4.5L62.5,137.4L62.5,137.4z"/>
			<path class="st17" d="M60.6,120.8c0,0,1.8,15.5,1.9,16.6l9.5-12L60.6,120.8z"/>
			<polygon class="st18" points="71.9,125.4 82.8,124.1 79.8,137.5 			"/>
			<polygon class="st18" points="82.8,124.1 71.9,125.4 79.8,137.4 			"/>
			<path class="st19" d="M107.5,123.1l23.8,4.2c-3.8,4.3-15.1,15.4-15.2,15.5l0,0L107.5,123.1z"/>
			<path class="st19" d="M107.5,123.1l8.6,19.7c0,0,11.4-11.2,15.2-15.5L107.5,123.1z"/>
			<polygon class="st20" points="107.5,123.1 116.9,115.7 131.4,127.3 131.3,127.3 			"/>
			<path class="st20" d="M116.9,115.7c0,0-8.2,6.5-9.3,7.4l23.8,4.2L116.9,115.7z"/>
			<polygon class="st21" points="116.9,115.7 127.5,110 131.4,127.3 			"/>
			<polygon class="st21" points="127.5,110 116.9,115.7 131.3,127.3 			"/>
			<polygon class="st22" points="97.7,130.2 107.5,123 116.2,142.8 			"/>
			<polygon class="st22" points="97.7,130.2 116.1,142.8 107.5,123.1 			"/>
			<polygon class="st23" points="95.6,121.5 97.7,120.5 107.5,123 97.7,130.2 			"/>
			<polygon class="st23" points="95.6,121.5 97.7,130.2 107.5,123.1 97.7,120.5 			"/>
			<polygon class="st24" points="102.5,133.4 112.6,140.3 99.3,146.2 			"/>
			<polygon class="st24" points="102.5,133.4 99.4,146.2 112.6,140.4 			"/>
			<polygon class="st25" points="107.8,142.5 112.6,140.3 116.1,142.8 113.3,144.9 			"/>
			<polygon class="st25" points="113.3,144.9 107.8,142.5 112.6,140.4 116.1,142.8 			"/>
			<polygon class="st26" points="99.4,146.2 107.8,142.5 113.3,144.9 99.4,146.2 			"/>
			<polygon class="st26" points="99.4,146.2 113.3,144.9 107.8,142.5 			"/>
			<polygon class="st27" points="72.7,145.4 79.7,137.4 82.8,147.3 74.7,149.3 			"/>
			<polygon class="st27" points="79.8,137.4 82.8,147.3 74.7,149.3 72.8,145.4 			"/>
			<polygon class="st28" points="82.8,147.4 80.6,140.4 91,146.2 89.3,147.4 			"/>
			<polygon class="st28" points="89.3,147.3 82.8,147.3 80.7,140.4 91,146.2 			"/>
			<polygon class="st29" points="126.2,94.6 127.5,110 116.8,115.8 			"/>
			<polygon class="st29" points="126.2,94.6 116.9,115.7 127.5,110 			"/>
			<path class="st30" d="M94.5,160.6c-0.8,0-4.1-0.4-4.1-0.4l4.2-3.8l4.8,3.2c-0.7,0.3-4.3,1-4.8,1
				C94.6,160.5,94.5,160.6,94.5,160.6"/>
			<path class="st30" d="M94.6,156.3l-4.2,3.8c0,0,3.8,0.5,4.2,0.4c0.5-0.1,4.1-0.8,4.8-1L94.6,156.3z"/>
			<path class="st30" d="M94.6,156.3c1.8,0,8.6-2.8,8.6-2.8l-3.8,6L94.6,156.3z"/>
			<path class="st30" d="M103.2,153.5c0,0-6.9,2.8-8.6,2.8l4.8,3.2L103.2,153.5z"/>
			<path class="st31" d="M103.2,153.5c2.8-1.1,10-8.6,10.1-8.6l-4.5,6.4c-0.5,0.7-5.6,6.2-5.6,6.3c-0.8,0.8-3.8,1.9-3.9,1.9l-0.1,0
				L103.2,153.5z"/>
			<path class="st31" d="M113.3,144.9c0,0-7.3,7.6-10.1,8.6l-3.9,6c0,0,3.1-1.2,3.9-1.9c0,0,5.1-5.5,5.6-6.3L113.3,144.9z"/>
			<path class="st32" d="M84.5,155.9c2.1,0.5,4.3,0.8,6.4,0.8c2.3,0,3.7-0.3,3.7-0.3l-4.2,3.8L84.5,155.9z"/>
			<path class="st32" d="M84.5,155.9l5.8,4.3l4.2-3.8C94.6,156.3,90.3,157.3,84.5,155.9"/>
			<path class="st31" d="M90.3,160.1c-0.1,0-7.1-0.7-9.4-3.2c-0.1-0.1-5.2-5.6-6.2-7.6c0.1,0,7.8,6.1,9.8,6.5L90.3,160.1L90.3,160.1
				z"/>
			<path class="st31" d="M74.7,149.3c0,0,7.8,6.1,9.7,6.5l5.8,4.3c0,0-7.1-0.6-9.4-3.2C80.9,156.9,75.8,151.4,74.7,149.3"/>
			<path class="st33" d="M87.9,150.2c-2.9,0-11.1-1.4-11.2-1.4l6-1.5l6.7,0l6.1,2c-0.4,0.1-0.9,0.2-1.5,0.3c-1.7,0.2-4,0.6-5.9,0.7
				C88.1,150.2,88,150.2,87.9,150.2"/>
			<path class="st33" d="M76.7,148.8c0,0,8.7,1.5,11.4,1.4c2.7-0.1,6-0.7,7.5-0.9l-6.1-2l-6.7,0L76.7,148.8z"/>
			<polygon class="st34" points="91,146.2 101.2,138.5 99.4,146.2 89.5,147.3 			"/>
			<polygon class="st34" points="91,146.2 101.2,138.6 99.4,146.2 89.5,147.3 			"/>
			<path class="st33" d="M89.5,147.3l9.8-1.2l13.9-1.3c-0.2,0.1-16.4,4.3-17.7,4.5l0,0L89.5,147.3z"/>
			<path class="st33" d="M113.3,144.9c0,0-16.4,4.3-17.7,4.4l-6.1-2l9.8-1.1L113.3,144.9z"/>
			<polygon class="st35" points="74.7,149.3 76.7,148.8 83.7,149.8 77.3,151.3 			"/>
			<polygon class="st35" points="77.3,151.3 83.7,149.8 76.7,148.8 74.7,149.3 			"/>
			<polygon class="st36" points="80.6,140.4 79.7,137.4 83.7,133.4 85.8,143.3 			"/>
			<polygon class="st36" points="83.7,133.4 79.8,137.4 80.7,140.4 85.8,143.3 			"/>
			<polygon class="st37" points="82.8,124.1 85.8,119.2 85.8,126.4 			"/>
			<polygon class="st37" points="85.8,119.2 82.8,124.1 85.8,126.4 			"/>
			<polygon class="st38" points="82.8,124.1 85.8,126.4 83.7,133.4 79.7,137.5 			"/>
			<polygon class="st38" points="83.7,133.4 85.8,126.4 82.8,124.1 79.8,137.4 			"/>
			<polygon class="st39" points="85.8,143.3 84.9,138.9 94.8,143.4 91,146.2 			"/>
			<polygon class="st39" points="94.8,143.4 84.9,138.9 85.8,143.3 91,146.2 			"/>
			<polygon class="st40" points="84.9,138.9 83.7,133.4 85.8,126.4 88.3,124.1 88.4,140.4 			"/>
			<polygon class="st40" points="85.8,126.4 88.3,124.1 88.3,140.4 84.9,138.9 83.7,133.4 			"/>
			<path class="st41" d="M93.8,143c0-0.3,2.9-2.9,5.7-3.2l-4.8,3.6L93.8,143z"/>
			<path class="st41" d="M93.8,142.9c-0.2-0.1,2.9-2.8,5.7-3.1l-4.8,3.6L93.8,142.9z"/>
			<polygon class="st42" points="88.3,140.4 88.3,124.1 89.5,116.2 93.8,143 			"/>
			<polygon class="st42" points="89.5,116.2 88.3,124.1 88.3,140.4 93.8,142.9 			"/>
			<polygon class="st43" points="93.8,142.9 89.5,116.2 95.6,121.5 97.7,130.2 93.8,142.9 			"/>
			<polygon class="st43" points="95.6,121.5 89.5,116.2 93.8,142.9 97.7,130.2 			"/>
			<path class="st44" d="M93.8,142.9l3.9-12.8l4.8,3.2l-1.2,5.1l-1.7,1.3C96.5,140.2,93.9,142.9,93.8,142.9L93.8,142.9z"/>
			<path class="st44" d="M102.5,133.4l-4.8-3.3l-3.9,12.8c0,0,2.7-2.7,5.7-3.1l1.7-1.3L102.5,133.4z"/>
			<path class="st45" d="M103.2,118.6c-0.2,0-0.7,0-1.4,0c-1.3,0-2.9,0-2.9,0c0.4-1.1,3.4-2.9,3.6-3
				C102.3,117.4,103.2,118.6,103.2,118.6L103.2,118.6L103.2,118.6z"/>
			<path class="st45" d="M102.5,115.7c0,0-3.2,1.8-3.6,2.9c0,0,3.6-0.1,4.3,0C103.2,118.6,102.3,117.5,102.5,115.7"/>
			<path class="st46" d="M103.2,118.6c-0.9-0.9-0.7-2.9-0.7-2.9c1-1,2.6-1.2,3.8-1.2c0.9,0,1.5,0.1,1.6,0.1c1.1,1.9,0,3.3,0,3.3
				C106.4,118.4,103.2,118.6,103.2,118.6L103.2,118.6L103.2,118.6z"/>
			<path class="st46" d="M107.8,114.7c0,0-3.7-0.6-5.3,1.1c0,0-0.1,2,0.7,2.9c0,0,3.2-0.2,4.6-0.7
				C107.8,117.9,108.9,116.6,107.8,114.7"/>
			<path class="st47" d="M107.8,117.9c1.2-1.3,0-3.2,0-3.2c0.6,0,2.9,0.8,3.2,1.4c0,0.1,0,0.2,0,0.2
				C110.2,117.3,107.8,117.9,107.8,117.9L107.8,117.9L107.8,117.9z"/>
			<path class="st47" d="M110.9,116.2c0.4-0.5-2.5-1.5-3.1-1.6c0,0,1.3,1.9,0,3.2C107.8,117.9,110.1,117.3,110.9,116.2"/>
			<path class="st48" d="M98.9,118.6c0,0,2.2-4.6,7.7-4.6c1.7,0,3.5,0.4,5.4,1.2l0.6,1.1l-2,0.3l0.3-0.6v0c0,0-1.9-1.4-4.5-1.4
				C103.7,114.5,101.2,115.9,98.9,118.6L98.9,118.6z"/>
			<path class="st48" d="M98.9,118.6c0,0,3.5-7.5,13.1-3.4l0.6,1.1l-2,0.3l0.3-0.6C110.9,116,105.1,111.3,98.9,118.6"/>
			<path class="st49" d="M103.9,118.6c0.1,0,4.3-0.1,6.7-2l-3,6.5L103.9,118.6z"/>
			<path class="st49" d="M110.6,116.6l-3,6.5l-3.6-4.5C103.9,118.6,108.2,118.5,110.6,116.6"/>
			<polygon class="st50" points="107.5,123.1 110.6,116.6 112.6,116.3 116.9,115.7 107.5,123.1 			"/>
			<polygon class="st50" points="116.9,115.7 112.6,116.3 110.6,116.6 107.5,123.1 			"/>
			<polygon class="st51" points="111.9,115.3 108.8,114.3 119.4,109.9 116.9,115.7 112.6,116.4 			"/>
			<polygon class="st51" points="119.4,109.9 108.8,114.3 112,115.3 112.6,116.3 116.9,115.7 			"/>
			<polygon class="st52" points="113.3,106.6 119.4,109.9 113.3,112.4 			"/>
			<polygon class="st52" points="119.4,109.9 113.3,106.6 113.3,112.4 			"/>
			<path class="st53" d="M113.3,112.4c0,0-4.2-2-5.8-2c-0.1,0-0.1,0-0.2,0l6.1-3.9L113.3,112.4L113.3,112.4z"/>
			<path class="st53" d="M107.2,110.5l6.1-3.9v5.8C113.3,112.4,108.7,110.3,107.2,110.5"/>
			<path class="st54" d="M105,107.4c0.1,0,5.5-0.9,7.6-0.9c0.4,0,0.6,0,0.7,0.1l-6.1,3.9c0,0,0,0,0,0c0,0-0.3,0-0.6,0
				c-0.6,0-1.6,0.1-2.1,0.5l0,0L105,107.4z"/>
			<path class="st54" d="M104.5,111l0.6-3.5c0,0,7.5-1.2,8.3-0.8l-6.1,3.9C107.2,110.5,105.3,110.3,104.5,111"/>
			<polygon class="st55" points="101,109.5 105,107.4 104.5,111 			"/>
			<polygon class="st55" points="101.1,109.5 104.5,111 105.1,107.4 			"/>
			<path class="st56" d="M98.9,113.1l2.2-3.6l3.5,1.4C104.5,111,99.5,112.4,98.9,113.1L98.9,113.1z"/>
			<path class="st56" d="M98.9,113.1l2.2-3.6l3.4,1.5C104.5,111,99.5,112.4,98.9,113.1"/>
			<path class="st57" d="M108.8,114.3c0,0-1.9-0.2-2.4-0.2l-0.1,0l-1.8-3.1c0,0,1.1-0.6,2.3-0.6c0.2,0,0.3,0,0.5,0
				c1.4,0.2,4.3,1.1,6.1,2L108.8,114.3L108.8,114.3z"/>
			<path class="st57" d="M106.3,114l-1.8-3.1c0,0,1.4-0.7,2.7-0.5c1.4,0.2,4.3,1.1,6.1,2l-4.5,1.8C108.8,114.3,106.7,114,106.3,114"
				/>
			<path class="st58" d="M98.9,113.1c0.3-0.5,5.4-2.1,5.6-2.2l1.9,3.1c-2.5,0.2-4.1,1.2-4.1,1.2l0,0L98.9,113.1z"/>
			<path class="st58" d="M98.9,113.1l3.3,2.1c0,0,1.6-1,4.1-1.1l-1.8-3.1C104.5,111,99.2,112.6,98.9,113.1"/>
			<path class="st59" d="M97.7,120.5c-0.1-0.1,0.9-5.7,1.2-7.4l3.3,2C102.2,115.2,99,117.3,97.7,120.5L97.7,120.5L97.7,120.5z"/>
			<path class="st59" d="M97.7,120.5c-0.1,0.4,1.2-7.4,1.2-7.4l3.3,2.1C102.2,115.2,99,117.3,97.7,120.5"/>
			<polygon class="st60" points="95.6,116.6 98.9,113.1 97.7,120.6 			"/>
			<polygon class="st60" points="95.6,116.6 97.7,120.5 98.9,113.1 			"/>
			<polygon class="st61" points="95.4,111.3 101,109.5 98.9,113.1 95.6,116.6 			"/>
			<polygon class="st61" points="95.4,111.3 95.6,116.6 98.9,113.1 101.1,109.5 			"/>
			<polygon class="st62" points="60.6,120.9 67.3,119.4 69,121 65.5,122.8 			"/>
			<polygon class="st62" points="60.6,120.8 67.3,119.4 69,121.1 65.5,122.8 			"/>
			<path class="st46" d="M74.7,121.5c-0.4-0.1-0.8-0.3-1-0.6c-0.7-1-0.3-3-0.3-3c0.8-0.2,1.6-0.3,2.2-0.3c2.6,0,3.2,1.6,3.2,1.7
				c-0.4,2.2-2,2.3-2.1,2.3h0H74.7z"/>
			<path class="st46" d="M73.5,117.9c0,0-0.8,3.3,1.3,3.6h2.1c0,0,1.6-0.1,2-2.3C78.9,119.2,77.9,116.7,73.5,117.9"/>
			<path class="st45" d="M70,120.6c0.1-0.1,2.9-2.5,3.4-2.6c0,0-0.4,1.8,0.3,2.9c0.2,0.4,0.6,0.6,1,0.7l0,0L70,120.6z"/>
			<path class="st45" d="M70,120.6c0,0,2.9-2.5,3.4-2.6c0,0-0.8,3.2,1.3,3.6L70,120.6z"/>
			<path class="st47" d="M76.8,121.5c1.9-0.5,2-2.2,2-2.3l2.1,1.8C80.1,121.2,76.9,121.5,76.8,121.5L76.8,121.5z"/>
			<path class="st47" d="M78.9,119.2c0,0-0.2,1.8-2,2.3c0,0,3.2-0.3,4.1-0.4L78.9,119.2z"/>
			<polygon class="st48" points="67.3,119.4 73.5,117.9 70.1,120.5 69,121.1 			"/>
			<polygon class="st48" points="69,121.1 70,120.5 73.5,117.9 67.3,119.4 			"/>
			<path class="st63" d="M79.1,119.5c0.2,0.4,0.3,0.6,0.3,0.7c0,0,0,0,0,0c0,0-0.1-0.1-0.5-1c-0.4-0.8-0.9-1.3-1.6-1.5
				c-0.4-0.1-0.8-0.1-1.1-0.1c0,0,0.1-0.1,0.3-0.1c0.2,0,0.5,0,0.8,0.1l0,0c2.7,0.5,4.7,2.8,4.7,2.8l-1,0.6L79.1,119.5z"/>
			<path class="st63" d="M81.9,120.5c0,0-2.5-2.9-5.8-2.9c0,0,1.8-0.3,2.8,1.6c1,2,0.3,0.3,0.3,0.3l1.8,1.6L81.9,120.5z"/>
			<path class="st64" d="M67.3,119.4c0,0,4.3-2,7.5-2c0.5,0,1,0.1,1.4,0.2c0,0-0.1,0-0.2,0c-0.1,0-0.2,0-0.3,0c-0.6,0-1.7,0-2.1,0.3
				C73.4,117.9,67.7,119.3,67.3,119.4L67.3,119.4z"/>
			<path class="st64" d="M67.3,119.4c0,0,5.7-2.7,8.8-1.8c0,0-2.1-0.1-2.6,0.3C73.5,117.9,67.7,119.3,67.3,119.4"/>
			<polygon class="st65" points="78.9,121.3 80.9,121 81.9,120.5 82.8,124.1 76.7,124.9 			"/>
			<polygon class="st65" points="81.9,120.5 82.8,124.1 76.7,124.8 78.9,121.3 80.9,121.1 			"/>
			<polygon class="st66" points="72.9,121.1 74.7,121.5 76.8,121.5 78.9,121.3 76.8,124.8 73.4,125.2 			"/>
			<polygon class="st66" points="72.9,121.1 73.5,125.2 76.7,124.8 78.9,121.3 76.8,121.5 74.7,121.5 			"/>
			<polygon class="st67" points="65.5,122.8 70,120.5 72.9,121.1 73.5,125.2 71.9,125.4 			"/>
			<polygon class="st67" points="70,120.5 69,121.1 65.5,122.8 71.9,125.4 73.5,125.2 72.9,121.1 			"/>
			<polygon class="st68" points="81.9,120.5 85.8,119.2 82.8,124.2 			"/>
			<polygon class="st68" points="85.8,119.2 81.9,120.5 82.8,124.1 			"/>
			<polygon class="st69" points="63,113.1 67.6,115.2 63,118.4 			"/>
			<polygon class="st69" points="63.1,113.1 63.1,118.4 67.6,115.2 			"/>
			<path class="st70" d="M63.1,113.1c0-0.1,4.8-2.1,7.1-2.1c0.4,0,0.8,0.1,1,0.2l-3.5,3.9L63.1,113.1z"/>
			<path class="st70" d="M71.1,111.3l-3.5,3.9l-4.6-2.1C63.1,113.1,69.7,110.3,71.1,111.3"/>
			<polygon class="st71" points="71.1,111.3 74.8,114.6 67.6,115.2 			"/>
			<polygon class="st71" points="74.7,114.7 71.1,111.3 67.6,115.2 			"/>
			<polygon class="st72" points="71.1,111.3 78.9,112.3 74.7,114.7 			"/>
			<polygon class="st72" points="78.9,112.3 74.7,114.7 71.1,111.3 			"/>
			<polygon class="st73" points="74.7,114.6 78.9,112.3 80.7,114.5 74.7,114.7 			"/>
			<polygon class="st73" points="80.7,114.6 74.7,114.7 78.9,112.3 			"/>
			<polygon class="st74" points="80.6,114.6 85.8,119.2 81.9,120.5 			"/>
			<polygon class="st74" points="85.8,119.2 80.7,114.6 81.9,120.5 			"/>
			<path class="st75" d="M81.9,120.5c0,0-2.5-3-5.5-3c-0.1,0-0.2,0-0.4,0l4.5-3.1L81.9,120.5L81.9,120.5z"/>
			<path class="st75" d="M76.1,117.6l4.6-3l1.3,6C81.9,120.5,79.3,117.3,76.1,117.6"/>
			<path class="st76" d="M76.1,117.6c-0.3-0.1-0.8-0.2-1.4-0.2c-0.5,0-0.8,0-0.9,0l-1.9-2.5l2.8-0.2l5.9-0.1L76.1,117.6L76.1,117.6z
				"/>
			<path class="st76" d="M71.9,114.9l1.9,2.5c0,0,1.4-0.2,2.3,0.2l4.6-3l-5.9,0.1L71.9,114.9z"/>
			<path class="st77" d="M67.6,115.2l4.3-0.3l1.9,2.5c-0.1,0-0.2,0-0.2,0h0c-2.3,0-5.9,2-5.9,2l0,0V115.2z"/>
			<path class="st77" d="M67.6,115.2v4.2c0,0,3.9-2.1,6.2-2l-1.9-2.5L67.6,115.2z"/>
			<polygon class="st78" points="63.1,118.4 67.6,115.2 67.6,119.4 60.6,120.9 			"/>
			<polygon class="st78" points="63.1,118.4 60.6,120.8 67.6,119.4 67.6,115.2 			"/>
			<path class="st79" d="M58.3,107.4c-3.9-7.7-0.8-24.1-0.8-24.3l5.6,6.8l0,23.2L58.3,107.4z"/>
			<path class="st79" d="M57.5,83.2c0,0-3.2,16.5,0.8,24.3l4.8,5.7V90L57.5,83.2z"/>
			<path class="st80" d="M63,90l8.6-12.4l-0.5,33.8c-0.3-0.2-0.7-0.4-1.3-0.4c-2.4,0-6.7,2.2-6.7,2.2l0,0V90z"/>
			<path class="st80" d="M71.7,77.5L63.1,90v23.1c0,0,6.4-3.3,8.1-1.8L71.7,77.5z"/>
			<polygon class="st81" points="80.6,114.6 78.9,112.4 71.1,111.3 71.5,88.6 85.8,119.2 85.8,119.2 			"/>
			<polygon class="st81" points="85.8,119.2 71.5,88.6 71.1,111.3 78.9,112.3 80.7,114.6 			"/>
			<path class="st82" d="M57.5,83.2c4.8-8.9,14.8-14.5,14.9-14.6l-0.7,8.9L63.1,90L57.5,83.2z"/>
			<path class="st82" d="M72.4,68.6c0,0-10,5.6-14.9,14.5l5.5,6.8l8.6-12.4L72.4,68.6z"/>
			<polygon class="st83" points="71.7,77.5 82,84.2 71.5,88.6 			"/>
			<polygon class="st83" points="81.9,84.2 71.7,77.5 71.5,88.6 			"/>
			<path class="st84" d="M57.5,83.1c0.1-0.1,5.2-10.4,10.1-14.5l4.8,0C72.3,68.7,61.7,75.6,57.5,83.1L57.5,83.1z"/>
			<path class="st84" d="M57.5,83.2c0,0,5.1-10.3,10.1-14.5h4.8C72.4,68.6,61.7,75.4,57.5,83.2"/>
			<polygon class="st85" points="72.4,68.6 84.9,71.2 71.7,77.6 			"/>
			<polygon class="st85" points="84.9,71.2 71.7,77.5 72.4,68.6 			"/>
			<polygon class="st86" points="71.7,77.6 84.9,71.2 82,84.2 			"/>
			<polygon class="st86" points="81.9,84.2 84.9,71.2 71.7,77.5 			"/>
			<polygon class="st85" points="84.9,71.2 93.8,77.5 81.9,84.2 			"/>
			<polygon class="st85" points="93.8,77.5 81.9,84.2 84.9,71.2 			"/>
			<polygon class="st87" points="84.9,71.3 88.3,58.1 93.8,77.6 			"/>
			<polygon class="st87" points="88.3,58.1 84.9,71.2 93.8,77.5 			"/>
			<path class="st88" d="M72.4,68.6h-4.8c2.4-2.5,13.3-8.3,14.3-8.4l-5.8,9.2L72.4,68.6z"/>
			<path class="st88" d="M81.9,60.2c-1,0.2-11.9,5.9-14.3,8.4h4.8l3.7,0.8L81.9,60.2z"/>
			<polygon class="st87" points="76.1,69.4 81.9,60.2 84.9,71.3 			"/>
			<polygon class="st87" points="84.9,71.2 81.9,60.2 76.1,69.4 			"/>
			<path class="st89" d="M81.9,60.2c0.1,0,4.7-2,6.4-2.1l-3.5,13.2L81.9,60.2z"/>
			<path class="st89" d="M81.9,60.2c0,0,4.6-1.9,6.4-2.1l-3.5,13.1L81.9,60.2z"/>
			<polygon class="st88" points="91.1,67.8 102.2,75.9 93.8,77.6 			"/>
			<polygon class="st88" points="102.2,75.9 91.1,67.8 93.8,77.5 			"/>
			<polygon class="st90" points="91.1,67.8 98.2,62.3 102.2,75.9 			"/>
			<polygon class="st90" points="102.2,75.9 98.2,62.3 91.1,67.8 			"/>
			<polygon class="st91" points="98.2,62.3 102.5,59 107.9,65.8 			"/>
			<polygon class="st91" points="107.8,65.7 102.5,59 98.2,62.3 			"/>
			<path class="st91" d="M107.8,65.7l-5.3-6.7c0.2,0,13.2,5.1,14.4,6.7l-2.5,5.6L107.8,65.7z"/>
			<path class="st91" d="M116.9,65.7l-2.5,5.5l-6.6-5.5l-5.3-6.7C102.5,59,115.6,64.1,116.9,65.7"/>
			<path class="st92" d="M114.4,71.3l2.4-5.5c0.3,0.2,7.4,4.6,7.9,5.5l0,0H114.4z"/>
			<path class="st92" d="M124.7,71.2h-10.3l2.5-5.5C116.9,65.7,124.2,70.4,124.7,71.2"/>
			<polygon class="st93" points="98.2,62.3 107.8,65.7 114.4,71.2 102.2,75.9 			"/>
			<polygon class="st93" points="102.2,75.9 114.4,71.2 107.8,65.7 98.2,62.3 			"/>
			<path class="st94" d="M128.9,116.6l-1.5-6.6l-0.3-3.5l6.8-9.4l-0.8,8C131.3,107,129,116.5,128.9,116.6L128.9,116.6z"/>
			<path class="st94" d="M129,116.6c0,0,2.3-9.6,4.2-11.4l0.9-8l-6.8,9.4l0.3,3.5L129,116.6z"/>
			<path class="st84" d="M126.2,94.6l5.9-10.4c0.2,1.7,1.9,12.8,2,13l-6.9,9.4L126.2,94.6z"/>
			<path class="st84" d="M132.1,84.2l-5.9,10.4l1,11.9l6.8-9.4C134,97.2,132.3,86,132.1,84.2"/>
			<path class="st89" d="M124.1,70.6c2.1,1.5,8,13.4,8,13.6l-5.9,10.5L124.1,70.6z"/>
			<path class="st89" d="M124.1,70.6l2.1,24l5.9-10.4C132.1,84.2,126.1,72.1,124.1,70.6"/>
			<polygon class="st87" points="114.4,71.3 124.2,71.2 124.8,79.3 			"/>
			<polygon class="st87" points="114.4,71.2 124.7,79.3 124.2,71.2 			"/>
			<polygon class="st95" points="113.3,106.6 105.1,107.4 114.4,71.2 124.8,79.3 126.2,94.6 119.4,109.9 			"/>
			<polygon class="st95" points="105.1,107.4 114.4,71.2 124.7,79.3 126.2,94.6 119.4,109.9 113.3,106.6 			"/>
			<polygon class="st96" points="93.8,77.6 102.2,75.9 114.4,71.2 105.1,107.5 			"/>
			<polygon class="st96" points="93.8,77.5 105.1,107.4 114.4,71.2 102.2,75.9 			"/>
			<polygon class="st97" points="93.8,77.6 105.1,107.4 101.1,109.5 95.4,111.3 			"/>
			<polygon class="st97" points="95.4,111.3 93.8,77.5 105.1,107.4 101.1,109.5 			"/>
			<polygon class="st98" points="89.5,116.4 89.5,115.7 95.4,111.3 95.6,116.6 97.7,120.5 95.6,121.5 			"/>
			<polygon class="st98" points="89.5,115.7 95.4,111.3 95.6,116.6 97.7,120.5 95.6,121.5 89.5,116.4 			"/>
			<polygon class="st99" points="71.5,88.6 81.9,84.2 89.6,115.7 85.8,119.2 			"/>
			<polygon class="st99" points="71.5,88.6 85.8,119.2 89.5,115.7 81.9,84.2 			"/>
			<path class="st100" d="M130.7,133.4c0-0.4,0.6-6.1,0.6-6.2l7.8-6.2c0,0.1-0.9,4.3-1.5,6.2C136.9,129.2,130.8,133.4,130.7,133.4
				L130.7,133.4L130.7,133.4z"/>
			<path class="st100" d="M130.7,133.4c0,0,6.2-4.2,6.8-6.2c0.6-1.9,1.6-6.2,1.6-6.2l-7.8,6.2C131.3,127.3,130.8,133,130.7,133.4"/>
			<polygon class="st101" points="131.3,127.3 139.1,112.4 139.1,121.1 131.4,127.3 			"/>
			<polygon class="st101" points="139.1,112.4 131.3,127.3 139.1,121.1 			"/>
			<polygon class="st102" points="130.7,114.7 133.5,112.3 134,117.6 			"/>
			<polygon class="st102" points="133.5,112.3 130.7,114.7 134,117.6 			"/>
			<path class="st103" d="M128.9,116.6c0-0.1,2.5-9.5,4.2-11.4c0.2-0.2,3.8-4.6,5.2-4.6c0.1,0,0.2,0,0.3,0.1
				c0.8,0.6,1.1,1.4,1.1,2.2v0.4l-6.3,9.1l-2.8,2.3L128.9,116.6L128.9,116.6z"/>
			<path class="st103" d="M133.2,105.2c0,0,4.5-5.4,5.5-4.5c1.1,0.9,1.1,1.8,1.1,2.2v0.4l-6.3,9.1l-2.8,2.3l-1.8,1.9
				C129,116.6,131.4,107.1,133.2,105.2"/>
			<polygon class="st104" points="131.3,127.3 128.9,116.6 130.7,114.6 134,117.6 131.4,127.3 			"/>
			<polygon class="st104" points="131.3,127.3 129,116.6 130.7,114.7 134,117.6 			"/>
			<polygon class="st105" points="133.5,112.4 139.8,103.3 139.1,112.4 			"/>
			<polygon class="st105" points="139.8,103.3 139.1,112.4 133.5,112.3 			"/>
			<path class="st103" d="M57.9,120.8c0,0-0.5-3.1-0.9-4.6c-0.1-0.5-0.3-1.1-0.6-1.9c-0.5-1.7-1.2-3.7-1.1-4.9
				c0-0.5,0.3-0.8,0.9-0.8c1,0,2.4,0.7,2.4,0.7l0.9,5.5L57.9,120.8L57.9,120.8z"/>
			<path class="st103" d="M58.7,109.5c0,0-3.2-1.6-3.3,0c-0.1,1.6,1.3,5.2,1.7,6.7c0.3,1.5,0.9,4.6,0.9,4.6l1.7-5.9L58.7,109.5z"/>
			<polygon class="st106" points="57.9,120.8 59.6,115 60.6,120.8 61.9,131.4 61.8,131.4 			"/>
			<polygon class="st106" points="61.8,131.4 57.9,120.8 59.6,115 60.6,120.8 			"/>
			<path class="st101" d="M62.5,138.4c0-0.1-3-5.3-3.6-8.8c-0.6-3.5-1-8.7-1-8.8l4,10.6L62.5,138.4L62.5,138.4z"/>
			<path class="st101" d="M62.5,138.4c0,0-3-5.2-3.6-8.8c-0.6-3.5-1-8.8-1-8.8l4,10.6L62.5,138.4z"/>
			<path class="st107" d="M84.9,155.9c0,0-2.9-0.6-7.6-4.6l3.3-0.7C80.7,150.6,83.4,155.5,84.9,155.9L84.9,155.9z"/>
			<path class="st107" d="M80.7,150.6c0,0,2.7,4.9,4.2,5.3c0,0-2.8-0.6-7.5-4.6L80.7,150.6z"/>
			<path class="st108" d="M94.6,156.3c-3.9,0-9.6-0.5-9.7-0.5c-2-1.1-4.2-5.2-4.2-5.3l3.1-0.8c1.3,0.3,2.7,0.4,4.2,0.4
				c4,0,7.6-0.9,7.7-0.9l17.7-4.4c-4.3,4.9-10,8.6-10.1,8.7C102,154.2,95.5,156.3,94.6,156.3"/>
			<path class="st108" d="M83.7,149.8l-3.1,0.8c0,0,2.3,4.2,4.2,5.3c0,0,5.8,0.5,9.7,0.5c0.9,0,7.4-2.1,8.6-2.8
				c0,0,5.7-3.7,10.1-8.6l-17.7,4.4C95.6,149.3,89.1,151,83.7,149.8"/>
			<polygon class="st109" points="81.9,84.2 93.8,77.5 95.4,111.3 89.5,115.7 			"/>
			<polygon class="st109" points="81.9,84.2 89.5,115.7 95.4,111.3 93.8,77.5 			"/>
			<path class="st87" d="M88.3,58.1c0,0,2.3-0.2,5.1-0.2c3,0,7,0.2,9.1,1l-11.4,8.9L88.3,58.1z"/>
			<path class="st87" d="M102.5,59l-11.4,8.8l-2.7-9.7C88.3,58.1,98.6,57.4,102.5,59"/>
			<polygon class="st106" points="131.3,127.3 134,117.6 133.5,112.3 139.1,112.4 131.4,127.3 			"/>
			<polygon class="st106" points="139.1,112.4 133.5,112.3 134,117.6 131.3,127.3 			"/>
			<polygon class="st110" points="85.8,119.2 89.5,115.7 88.4,124.1 85.8,126.4 			"/>
			<polygon class="st110" points="89.5,115.7 85.8,119.2 85.8,126.4 88.3,124.1 			"/>
			<polygon class="st111" points="58.3,107.4 63.1,113.1 63.1,118.4 60.6,120.9 			"/>
			<polygon class="st111" points="58.3,107.4 63.1,113.1 63.1,118.4 60.6,120.8 			"/>
			<polygon class="st112" points="97.7,120.5 98.9,118.6 103.9,118.6 107.6,123.1 			"/>
			<polygon class="st112" points="98.9,118.6 97.7,120.5 107.5,123.1 103.9,118.6 			"/>
			<polygon class="st47" points="105.1,116.3 105,114.7 107,114.6 107,116.3 			"/>
			<polygon class="st47" points="106.3,116.2 105.1,116.2 105.1,114.7 107,114.7 107,116.2 			"/>
			<polygon class="st47" points="76.4,119.5 75.9,118.6 76.9,117.9 77.8,119.5 			"/>
			<polygon class="st47" points="77,117.9 75.9,118.6 76.4,119.5 77.8,119.5 			"/>
		</g>
	</g>
</g>
</svg>
