<?xml version="1.0" encoding="utf-8"?>
<!-- Generator: Adobe Illustrator 19.2.1, SVG Export Plug-In . SVG Version: 6.00 Build 0)  -->
<svg version="1.1" id="Layer_1" xmlns="http://www.w3.org/2000/svg" xmlns:xlink="http://www.w3.org/1999/xlink" x="0px" y="0px"
	 width="192px" height="234px" viewBox="0 0 192 234" style="enable-background:new 0 0 192 234;" xml:space="preserve">
<style type="text/css">
	.st0{fill:#F3F3F3;}
	.st1{fill:#F79334;}
	.st2{fill:#D64439;}
	.st3{fill:#25A786;}
	.st4{clip-path:url(#SVGID_2_);}
	.st5{clip-path:url(#SVGID_4_);fill:#F8A382;}
	.st6{clip-path:url(#SVGID_4_);fill:#CD745B;}
	.st7{clip-path:url(#SVGID_4_);fill:#955944;}
	.st8{clip-path:url(#SVGID_4_);fill:#DAA18F;}
	.st9{clip-path:url(#SVGID_4_);fill:#21100F;}
	.st10{clip-path:url(#SVGID_4_);fill:#B17058;}
	.st11{clip-path:url(#SVGID_4_);fill:#FCC8AE;}
	.st12{clip-path:url(#SVGID_6_);fill:#AB754E;}
	.st13{clip-path:url(#SVGID_6_);fill:#9B795E;}
	.st14{clip-path:url(#SVGID_6_);fill:#F9B096;}
	.st15{clip-path:url(#SVGID_6_);fill:#DB8F75;}
	.st16{clip-path:url(#SVGID_6_);fill:#AC7354;}
	.st17{clip-path:url(#SVGID_6_);fill:#A26E56;}
	.st18{clip-path:url(#SVGID_6_);fill:#F5C096;}
	.st19{clip-path:url(#SVGID_6_);fill:#ECA48A;}
	.st20{clip-path:url(#SVGID_6_);fill:#FBBC95;}
	.st21{clip-path:url(#SVGID_6_);fill:#FCC5A0;}
	.st22{clip-path:url(#SVGID_6_);fill:#F9B296;}
	.st23{clip-path:url(#SVGID_6_);fill:#F3AA8B;}
	.st24{clip-path:url(#SVGID_6_);fill:#BA7C55;}
	.st25{clip-path:url(#SVGID_6_);fill:#FAB594;}
	.st26{clip-path:url(#SVGID_6_);fill:#A86C4A;}
	.st27{clip-path:url(#SVGID_6_);fill:#955944;}
	.st28{clip-path:url(#SVGID_6_);fill:#B9795D;}
	.st29{clip-path:url(#SVGID_6_);fill:#CD7A5C;}
	.st30{clip-path:url(#SVGID_6_);fill:#A55A46;}
	.st31{clip-path:url(#SVGID_6_);fill:#C87260;}
	.st32{clip-path:url(#SVGID_6_);fill:#CD7468;}
	.st33{clip-path:url(#SVGID_6_);fill:#DB8B7B;}
	.st34{clip-path:url(#SVGID_6_);fill:#0E0B0C;}
	.st35{clip-path:url(#SVGID_6_);fill:#B96459;}
	.st36{clip-path:url(#SVGID_6_);fill:#A7664F;}
	.st37{clip-path:url(#SVGID_6_);fill:#CD8977;}
	.st38{clip-path:url(#SVGID_6_);fill:#DD947E;}
	.st39{clip-path:url(#SVGID_6_);fill:#EEAA94;}
	.st40{clip-path:url(#SVGID_6_);fill:#F8B399;}
	.st41{clip-path:url(#SVGID_6_);fill:#1C160F;}
	.st42{clip-path:url(#SVGID_6_);fill:#F79C90;}
	.st43{clip-path:url(#SVGID_6_);fill:#F69989;}
	.st44{clip-path:url(#SVGID_6_);fill:#F8A68C;}
	.st45{clip-path:url(#SVGID_6_);fill:#AD533C;}
	.st46{clip-path:url(#SVGID_6_);fill:#B45642;}
	.st47{clip-path:url(#SVGID_6_);fill:#F9B8A7;}
	.st48{clip-path:url(#SVGID_6_);fill:#A43023;}
	.st49{clip-path:url(#SVGID_6_);fill:#A64327;}
	.st50{clip-path:url(#SVGID_6_);fill:#52332B;}
	.st51{clip-path:url(#SVGID_6_);fill:#DD9E88;}
	.st52{clip-path:url(#SVGID_6_);fill:#F9B4A0;}
	.st53{clip-path:url(#SVGID_6_);fill:#B77452;}
	.st54{clip-path:url(#SVGID_6_);fill:#21100F;}
	.st55{clip-path:url(#SVGID_6_);fill:#674027;}
	.st56{clip-path:url(#SVGID_6_);fill:#5E3A2A;}
	.st57{clip-path:url(#SVGID_6_);fill:#784F3D;}
	.st58{clip-path:url(#SVGID_6_);fill:#8E6855;}
	.st59{clip-path:url(#SVGID_6_);fill:#1D150F;}
	.st60{clip-path:url(#SVGID_6_);fill:#150F0E;}
	.st61{clip-path:url(#SVGID_6_);fill:#85563D;}
	.st62{clip-path:url(#SVGID_6_);fill:#704831;}
	.st63{clip-path:url(#SVGID_6_);fill:#CA9274;}
	.st64{clip-path:url(#SVGID_6_);fill:#EFAF97;}
	.st65{clip-path:url(#SVGID_6_);fill:#FBC6AE;}
	.st66{clip-path:url(#SVGID_6_);fill:#FDCFB4;}
	.st67{clip-path:url(#SVGID_6_);fill:#FBBF9E;}
	.st68{clip-path:url(#SVGID_6_);fill:#FBBC9A;}
	.st69{clip-path:url(#SVGID_6_);fill:#F9AC87;}
	.st70{clip-path:url(#SVGID_6_);fill:#F2B186;}
	.st71{clip-path:url(#SVGID_6_);fill:#F8A382;}
	.st72{clip-path:url(#SVGID_6_);fill:#D1835F;}
	.st73{clip-path:url(#SVGID_6_);fill:#FAB288;}
	.st74{clip-path:url(#SVGID_6_);fill:#181712;}
	.st75{clip-path:url(#SVGID_6_);fill:#1B1C1C;}
	.st76{clip-path:url(#SVGID_6_);fill:#0C0A0B;}
	.st77{clip-path:url(#SVGID_6_);fill:#151211;}
	.st78{clip-path:url(#SVGID_6_);fill:#0E0A0C;}
	.st79{clip-path:url(#SVGID_6_);fill:#151614;}
	.st80{clip-path:url(#SVGID_6_);fill:#060505;}
	.st81{clip-path:url(#SVGID_6_);fill:#111111;}
	.st82{clip-path:url(#SVGID_6_);fill:#14120F;}
	.st83{clip-path:url(#SVGID_6_);fill:#11100F;}
	.st84{clip-path:url(#SVGID_6_);fill:#090707;}
	.st85{clip-path:url(#SVGID_6_);}
	.st86{clip-path:url(#SVGID_6_);fill:#110F0E;}
	.st87{clip-path:url(#SVGID_6_);fill:#030303;}
	.st88{clip-path:url(#SVGID_6_);fill:#070808;}
	.st89{clip-path:url(#SVGID_6_);fill:#171514;}
	.st90{clip-path:url(#SVGID_6_);fill:#FDD0B3;}
	.st91{clip-path:url(#SVGID_6_);fill:#FCC8AE;}
	.st92{clip-path:url(#SVGID_6_);fill:#FAB99F;}
	.st93{clip-path:url(#SVGID_6_);fill:#F9A88C;}
	.st94{clip-path:url(#SVGID_6_);fill:#F8A48F;}
	.st95{clip-path:url(#SVGID_6_);fill:#CD745B;}
	.st96{clip-path:url(#SVGID_6_);fill:#C97959;}
	.st97{clip-path:url(#SVGID_6_);fill:#F59E80;}
	.st98{clip-path:url(#SVGID_6_);fill:#834B3A;}
	.st99{clip-path:url(#SVGID_6_);fill:#E2906E;}
	.st100{clip-path:url(#SVGID_6_);fill:#F8A993;}
	.st101{clip-path:url(#SVGID_6_);fill:#F3F3F3;}
	.st102{clip-path:url(#SVGID_6_);fill:#4C3233;}
	.st103{clip-path:url(#SVGID_6_);fill:#242722;}
	.st104{clip-path:url(#SVGID_6_);fill:#CCB6B4;}
	.st105{clip-path:url(#SVGID_6_);fill:#A98068;}
	.st106{clip-path:url(#SVGID_6_);fill:#A06E55;}
	.st107{clip-path:url(#SVGID_6_);fill:#98604A;}
	.st108{clip-path:url(#SVGID_6_);fill:#A26854;}
	.st109{clip-path:url(#SVGID_6_);fill:#B17058;}
	.st110{clip-path:url(#SVGID_6_);fill:#E09779;}
	.st111{clip-path:url(#SVGID_6_);fill:#F0AD8A;}
	.st112{clip-path:url(#SVGID_6_);fill:#DA988A;}
	.st113{clip-path:url(#SVGID_6_);fill:#DAA18F;}
	.st114{clip-path:url(#SVGID_6_);fill:#A5796B;}
	.st115{clip-path:url(#SVGID_6_);fill:#CD9B8B;}
	.st116{clip-path:url(#SVGID_6_);fill:#EFE3B3;}
	.st117{clip-path:url(#SVGID_8_);fill:#BF8C79;}
	.st118{clip-path:url(#SVGID_8_);fill:#E1BAA2;}
	.st119{clip-path:url(#SVGID_8_);fill:#EAB09A;}
	.st120{clip-path:url(#SVGID_8_);fill:#DEBA9F;}
	.st121{clip-path:url(#SVGID_8_);fill:#C88870;}
	.st122{clip-path:url(#SVGID_10_);fill:#FBC0A5;}
	.st123{clip-path:url(#SVGID_10_);fill:#FCC5A9;}
	.st124{clip-path:url(#SVGID_10_);fill:#52190F;}
	.st125{clip-path:url(#SVGID_10_);fill:#C17E57;}
	.st126{clip-path:url(#SVGID_10_);fill:#D78767;}
	.st127{clip-path:url(#SVGID_10_);fill:#EAAC95;}
	.st128{clip-path:url(#SVGID_10_);fill:#F1A68C;}
	.st129{clip-path:url(#SVGID_10_);fill:#F2AB91;}
	.st130{clip-path:url(#SVGID_10_);fill:#C97F5E;}
	.st131{clip-path:url(#SVGID_10_);fill:#F69289;}
	.st132{clip-path:url(#SVGID_10_);fill:#EB9382;}
	.st133{clip-path:url(#SVGID_10_);fill:#FCC8AE;}
	.st134{clip-path:url(#SVGID_10_);fill:#242722;}
</style>
<rect class="st0" width="192" height="234"/>
<polygon class="st1" points="192,215.5 172.5,234 192,234 "/>
<polygon class="st2" points="192,215.5 172.5,234 192,234 "/>
<polygon class="st3" points="192,215.5 172.5,234 192,234 "/>
<g>
	<g>
		<defs>
			<rect id="SVGID_1_" x="1" y="55.6" width="172.5" height="173.5"/>
		</defs>
		<clipPath id="SVGID_2_">
			<use xlink:href="#SVGID_1_"  style="overflow:visible;"/>
		</clipPath>
		<g class="st4">
			<defs>
				<rect id="SVGID_3_" x="1" y="55.6" width="172.5" height="173.5"/>
			</defs>
			<clipPath id="SVGID_4_">
				<use xlink:href="#SVGID_3_"  style="overflow:visible;"/>
			</clipPath>
			<path class="st5" d="M68.9,114.8c-0.5-3.1-2.6-5.7-2.9-8.9c-0.4,0.5-0.7,0.9-1.1,1.4c4.5-0.8,9-0.4,13.6-0.8
				c2.1-0.1,4.1-0.5,6.1-1.2c1.6-0.5,2.9-1.6,4.6-2.1c4.4-1.2,9.4-1,13.9-1.6c1.8-0.2,3.7-0.5,5.4-1c1.4-0.4,2.2-1.7,3.4-2.1
				c1.5-0.5,1.3-2.9-0.4-2.8c-8.2,0.4-16.3,2.7-23.7,6.2c-1.7,0.8-0.2,3.3,1.5,2.5c7-3.3,14.6-5.5,22.3-5.8
				c-0.1-0.9-0.3-1.9-0.4-2.8c-1.4,0.4-2,1.6-3.4,2.1c-2.1,0.8-4.6,0.9-6.8,1.1c-4.1,0.5-8.4,0.5-12.5,1.4c-1,0.2-2.4,0.7-3.2,1.4
				c-1.9,1.5-5.4,1.6-7.7,1.8c-4.5,0.3-8.9,0-13.3,0.8c-0.6,0.1-1.1,0.8-1.1,1.4c0.4,3.5,2.5,6.4,3,9.7
				C66.4,117.4,69.2,116.6,68.9,114.8"/>
			<path class="st5" d="M65.2,85.7c0.2,2.1,0.2,4.2,0.2,6.3c0,1.9,2.9,1.9,2.9,0c0-2.1,0-4.2-0.2-6.3C67.9,83.9,65.1,83.9,65.2,85.7
				"/>
			<path class="st5" d="M62,116.4c0.1-7.8-3.8-15.7-2.1-23.5c-0.9,0.1-1.8,0.2-2.6,0.3c3.4,7.8,5,16.2,9,23.8
				c0.9,1.6,3.3,0.2,2.5-1.5c-4-7.5-5.6-16-9-23.8c-0.5-1.1-2.4-0.8-2.6,0.3c-1.8,8.2,2.1,16.1,2,24.2C59,118.3,61.9,118.3,62,116.4
				"/>
			<path class="st6" d="M74.1,131.8c0.6,3.3,0.4,6.6,0.4,10c0,1.9,2.9,1.9,2.9,0c0-3.6,0.1-7.2-0.5-10.7
				C76.5,129.3,73.7,130,74.1,131.8"/>
			<path class="st7" d="M73.6,142.2c1,4.5,1.9,8.9,2.3,13.5c0.2,1.8,3,1.8,2.9,0c-0.4-4.8-1.4-9.6-2.4-14.3
				C76,139.6,73.2,140.4,73.6,142.2"/>
			<path class="st7" d="M75,144.1c1.6,1.1,3.7,1.2,5.5,1.3c1.9,0,1.9-2.9,0-2.9c-1.4,0-2.9-0.1-4.1-0.9
				C74.9,140.6,73.5,143.1,75,144.1"/>
			<path class="st7" d="M81.6,162.6c0.9,0.5,1.9,0.8,2.9,1.1c0.9,0.3,2,0.5,2.7,1.1c1.4,1.1,3.5-0.9,2-2c-1.9-1.5-4.2-1.5-6.2-2.6
				C81.5,159.2,80,161.7,81.6,162.6"/>
			<path class="st7" d="M89.7,159.6c-2,0-4-0.2-5.9,0.3c-1.8,0.5-1,3.3,0.8,2.8c1.7-0.5,3.4-0.3,5.2-0.2
				C91.6,162.5,91.6,159.7,89.7,159.6"/>
			<path class="st7" d="M76.6,174.4c-0.2-0.2,0.4,0.4,0.5,0.4c0.4,0.3,0.7,0.6,1.1,0.9c0.7,0.6,1.5,1.2,2.4,1.5
				c0.9,0.3,2.3,0,2.8-0.9c0.6-1.1,0.2-2.3-0.6-3.2c-0.5-0.6-1.5-0.5-2,0c-0.6,0.6-0.5,1.4,0,2c0,0,0,0.1,0,0
				c0.1-0.5,0.4-0.7,0.8-0.6c-0.1,0-0.2,0,0,0c-0.4-0.2-0.8-0.5-1.1-0.7c-0.8-0.6-1.6-1.3-2.4-2c-0.6-0.5-1.6-0.1-2,0.5
				C75.6,173.2,75.9,173.9,76.6,174.4"/>
			<path class="st7" d="M75.8,169.6c0-0.6,2.8-1.9,3.3-2.3c0.9-0.8,1.4-2.3,0.8-3.4c-0.8-1.4-2.3-2.1-3.9-1.5
				c-1.7,0.6-1.4,2.4-1.3,3.9c0.1,1.5,2.6,2.1,2.8,0.4c0.2-1.4,0.1-2.7-0.1-4.2c-0.1-0.8-0.2-1.7-0.3-2.5c-0.1-0.4,0.4-0.3,0.7-0.5
				c1.8-1,1.7-3.4,0.2-4.6c-1.4-1.2-3.4,0.8-2,2c0.4,0.3-0.6,0.4-0.9,0.7c-0.6,0.6-0.8,0.9-0.9,1.7c-0.3,2.2,0.8,4.4,0.5,6.6
				c0.9,0.1,1.9,0.3,2.8,0.4c-0.1-0.9,0-1.4-0.9-0.7c-0.7,0.5-1.4,0.8-2,1.3c-1,0.7-1.6,1.5-1.6,2.7
				C72.9,171.5,75.8,171.5,75.8,169.6"/>
			<path class="st7" d="M88.6,116.9c1.2-0.1,2.2-0.6,3.4-0.8c0.8-0.2,1.2-1,1-1.8c-0.2-0.8-1-1.2-1.8-1c-0.9,0.2-1.7,0.6-2.6,0.7
				c-0.8,0.1-1.4,0.6-1.4,1.4C87.2,116.2,87.8,117,88.6,116.9"/>
			<path class="st8" d="M93.8,116.7c2.3-0.5,4.6-1.2,7-1.4c1.8-0.2,1.8-3,0-2.9c-2.6,0.2-5.2,1-7.8,1.5
				C91.2,114.4,92,117.1,93.8,116.7"/>
			<path class="st8" d="M93.1,130.8c2.9-0.8,5.9-1.3,8.9-1.8c1.8-0.3,1-3.1-0.8-2.8c-3,0.5-6,1.1-8.9,1.8
				C90.5,128.5,91.3,131.3,93.1,130.8"/>
			<path class="st8" d="M104,113.6c1.9,0.2,3.7,0.1,5.6,0.1c1.9,0,1.9-2.9,0-2.9c-1.9,0-3.7,0.1-5.6-0.1
				C102.2,110.6,102.2,113.5,104,113.6"/>
			<path class="st9" d="M81.3,118.8c-1.6,1.7-0.1,4,0.7,5.7l0.9-2.1c-1,0.2-2,0.2-3.1,0.1c-1.9,0-1.8,2.8,0,2.9
				c1,0.1,2.3,0.1,2.9-0.9c0.2-0.3,0.2-0.6,0.3-1c0.1-0.6,1.3-1.2,1.8-1.6c0.7-0.7,0.5-2.3-0.6-2.4c-3-0.4-7.8-0.9-9.7,2.2
				c-0.5,0.9,0,1.8,0.9,2.1c0.7,0.3,1.4,0.4,2.1,0.4c1.9,0.1,1.8-2.8,0-2.9c-0.5,0-0.9-0.1-1.3-0.3l0.9,2.1c1-1.6,4.9-1.1,6.4-0.9
				c-0.2-0.8-0.4-1.6-0.6-2.4c-0.8,0.8-1.8,1.2-2.3,2.3c-0.1,0.3-0.2,0.6-0.3,0.9c-0.1,0.4,0.1,0.3,0.6-0.5c-0.3,0-0.6,0-0.9,0v2.9
				c1.3,0,2.6,0,3.8-0.2c1-0.2,1.3-1.3,0.9-2.1c-0.2-0.4-0.4-0.8-0.6-1.2c-0.1-0.2-0.4-1.2-0.6-1C84.6,119.6,82.6,117.5,81.3,118.8"
				/>
			<path class="st9" d="M59.4,122c4.4,0.4,8.9,0.3,13.3,0c1.8-0.1,1.9-3,0-2.9c-4.4,0.3-8.9,0.4-13.3,0
				C57.5,118.9,57.5,121.8,59.4,122"/>
			<path class="st9" d="M64.2,120.5c2.1,0.4,4.2,0.1,6.3,0.3c1.8,0.2,1.8-2.7,0-2.9c-1.8-0.2-3.7,0.1-5.6-0.2
				C63.1,117.4,62.3,120.2,64.2,120.5"/>
			<path class="st10" d="M60.5,126.7c0.8,0.7,1.6,1.3,2.4,1.9c0.6,0.5,1.6,0.1,2-0.5c0.4-0.7,0.1-1.5-0.5-2
				c-0.3-0.2-0.6-0.5-0.9-0.7c-0.1-0.1-0.2-0.1-0.1-0.1c-0.1-0.1-0.2-0.1-0.2-0.2c-0.2-0.2-0.4-0.3-0.6-0.5c-0.6-0.5-1.4-0.6-2,0
				C59.9,125.2,59.9,126.2,60.5,126.7"/>
			<path class="st10" d="M59.4,130.4c1.2-0.3,2.5,0,3.7-0.2c1.3-0.2,2.6-1.1,2.8-2.5c0.1-0.8-0.7-1.4-1.4-1.4c0.1,0,0.1,0,0.2,0
				c-1.8-0.5-2.6,2.3-0.8,2.8c0.2,0,0.4,0.1,0.6,0.1c-0.5-0.5-1-1-1.4-1.4c0.1-0.6,0.1-0.4-0.4-0.3c-0.4,0.1-0.8,0-1.2,0
				c-0.9,0-1.8-0.1-2.7,0.2C56.8,128.1,57.6,130.9,59.4,130.4"/>
			<path class="st10" d="M61.7,128.5c1.9,0,1.9-2.9,0-2.9S59.8,128.5,61.7,128.5"/>
			<path class="st10" d="M68.9,126.7c1-0.3,2.1-0.5,3.1-0.8c1.8-0.5,1-3.3-0.8-2.8c-1,0.3-2,0.5-3.1,0.8
				C66.4,124.4,67.2,127.2,68.9,126.7"/>
			<path class="st10" d="M64.1,125.5c1.6-2.6,6.3-2.3,8.7-1.2c1.7,0.7,3.1-1.7,1.5-2.5c-3.9-1.7-10.1-1.9-12.6,2.2
				C60.6,125.6,63.1,127.1,64.1,125.5"/>
			<path class="st11" d="M105.7,126c-1,1.7,0,3.3,0.6,4.9c0.3-0.6,0.7-1.2,1-1.8c-2.1,0.5-4.2,0.1-4.5,2.8c-0.3,2.6,2.8,4.5,4.9,4.9
				c0.7,0.1,1.6-0.2,1.8-1c0.3-1.7-0.1-2.9-0.8-4.5c-0.8,0.5-1.7,1-2.5,1.5c1,1.8,1.7,3.6,2.1,5.6c0.3,1.8,3.1,1,2.8-0.8
				c-0.4-2.3-1.2-4.3-2.3-6.3c-0.9-1.6-3.2-0.2-2.5,1.5c0.4,0.7,0.6,1.4,0.5,2.2l1.8-1c-0.6-0.1-1.2-0.3-1.7-0.7
				c-0.2-0.2-0.4-0.3-0.6-0.5c-0.1-1-0.4-1.2-0.7-0.5c0.8-0.3,1.8-0.2,2.7-0.4c0.7-0.2,1.3-1,1-1.8c-0.2-0.6-1.3-2.1-0.9-2.7
				C109.2,125.9,106.7,124.4,105.7,126"/>
		</g>
		<g class="st4">
			<defs>
				<rect id="SVGID_5_" x="1" y="55.6" width="172.5" height="173.5"/>
			</defs>
			<clipPath id="SVGID_6_">
				<use xlink:href="#SVGID_5_"  style="overflow:visible;"/>
			</clipPath>
			<path class="st12" d="M74.5,172.4c-3.6-3.2-9-12.5-9-12.6l11.3-5.1L74.5,172.4L74.5,172.4z"/>
			<path class="st12" d="M65.5,159.8c0,0,5.4,9.3,9,12.6l2.3-17.6L65.5,159.8z"/>
			<polygon class="st13" points="74.5,172.4 84,174.6 78,176.2 			"/>
			<polygon class="st13" points="74.5,172.4 78.1,176.2 84,174.6 			"/>
			<polygon class="st14" points="89.4,164.3 103.2,170.2 91.9,172.4 83.9,174.6 			"/>
			<polygon class="st14" points="89.5,164.4 84,174.6 91.8,172.4 103.2,170.2 			"/>
			<polygon class="st15" points="74.5,172.4 89.4,164.3 84,174.6 			"/>
			<polygon class="st15" points="74.5,172.4 89.5,164.4 84,174.6 			"/>
			<path class="st16" d="M76.8,154.8c0.1,0.1,2.7,6.8,12.7,9.6l-15,8.1L76.8,154.8z"/>
			<path class="st16" d="M76.8,154.8c0,0,2.6,6.8,12.7,9.6l-15,8L76.8,154.8z"/>
			<path class="st17" d="M89.5,164.4c-3.6-0.9-7.7-3.7-7.8-3.7c1,0.3,2.1,0.4,3.3,0.4c4.4,0,8.5-1.9,8.5-2
				C91.2,164.1,89.5,164.4,89.5,164.4L89.5,164.4L89.5,164.4z"/>
			<path class="st17" d="M93.6,159.1c0,0-6.5,3.1-11.9,1.5c0,0,4.1,2.9,7.8,3.7C89.5,164.4,91.1,164.2,93.6,159.1"/>
			<polygon class="st18" points="105.6,154 118.9,163.6 103.1,170.2 			"/>
			<polygon class="st18" points="105.7,154 103.2,170.2 118.9,163.6 			"/>
			<path class="st19" d="M128.7,134.6c0,0.1,1.5,11.7-1,13.8l-11.1,2.8L128.7,134.6z"/>
			<path class="st19" d="M128.7,134.6c0,0,1.5,11.7-1.1,13.8l-11,2.8L128.7,134.6z"/>
			<path class="st20" d="M97.5,156.5c0-0.1,3.9-3.5,4.8-5.8l3.4,3.2l-2.5,16.3L97.5,156.5z"/>
			<path class="st20" d="M105.7,154l-2.5,16.2l-5.7-13.7c0,0,3.9-3.4,4.8-5.8L105.7,154z"/>
			<polygon class="st21" points="109.9,138.6 116.7,151.2 105.6,154 			"/>
			<polygon class="st21" points="105.7,154 109.9,138.6 116.7,151.2 			"/>
			<polygon class="st22" points="109.9,138.6 128.7,134.6 116.7,151.3 			"/>
			<polygon class="st22" points="128.7,134.6 109.9,138.6 116.7,151.2 			"/>
			<path class="st23" d="M122.9,117.6c1.7,2.6,5.8,16.9,5.8,17l-18.9,4L122.9,117.6z"/>
			<path class="st23" d="M122.9,117.6l-13,21l18.9-4C128.7,134.6,124.7,120.3,122.9,117.6"/>
			<polygon class="st24" points="102.3,150.8 103.1,150 106.5,150.8 105.7,154 			"/>
			<polygon class="st24" points="106.5,150.8 103.2,150 102.3,150.8 105.6,154 			"/>
			<polygon class="st25" points="102.3,139.5 109.9,138.6 107.3,147.9 			"/>
			<polygon class="st25" points="107.3,147.9 102.3,139.5 109.9,138.6 			"/>
			<path class="st26" d="M65.5,159.9c-0.9-0.8-3.2-8.3-3.3-8.6l14.6,3.5L65.5,159.9L65.5,159.9z"/>
			<path class="st26" d="M62.2,151.2c0,0,2.3,7.9,3.3,8.6l11.3-5.1L62.2,151.2z"/>
			<polygon class="st27" points="70.6,153.3 75.6,141.9 76.8,154.8 			"/>
			<polygon class="st27" points="75.6,141.9 70.6,153.3 76.8,154.8 			"/>
			<polygon class="st28" points="62.2,151.2 75.6,141.8 70.6,153.3 			"/>
			<polygon class="st28" points="62.2,151.2 75.6,141.9 70.6,153.3 			"/>
			<path class="st29" d="M58.8,141.1c-1.3-3.9-1.2-6.8-1.2-6.8l18,7.6l-13.4,9.4L58.8,141.1z"/>
			<path class="st29" d="M57.6,134.2c0,0-0.1,2.9,1.2,6.8l3.4,10.2l13.4-9.4L57.6,134.2z"/>
			<path class="st30" d="M81.7,160.6c-3.4-2.4-4.9-5.8-4.9-5.8c2.4,1,6.8,1.3,6.8,1.3L81.7,160.6L81.7,160.6z"/>
			<path class="st30" d="M83.6,156.1c0,0-4.4-0.3-6.8-1.3c0,0,1.4,3.5,4.9,5.8L83.6,156.1z"/>
			<path class="st31" d="M85.1,161c-2.1,0-3.4-0.4-3.4-0.4l1.9-4.5l8.8,3.4C89.9,160.5,87.4,161,85.1,161L85.1,161z"/>
			<path class="st31" d="M92.4,159.6l-8.8-3.5l-1.9,4.5C81.7,160.6,86,162,92.4,159.6"/>
			<path class="st32" d="M83.6,156.1c0.1,0,0.3,0,0.4,0c0.2,0,0.6,0,0.6,0c4.5,0,10.2-1.8,10.3-1.8l-2.4,5.2L83.6,156.1z"/>
			<path class="st32" d="M94.8,154.4c0,0-6.5,2-11.2,1.7l8.8,3.5L94.8,154.4z"/>
			<path class="st33" d="M94.8,154.4l7.5-3.6c-0.7,2.2-4.7,5.7-4.7,5.8l-3.9,2.6l-1.2,0.5L94.8,154.4z"/>
			<path class="st33" d="M102.3,150.8l-7.5,3.6l-2.4,5.2l1.2-0.5l3.9-2.6C97.5,156.5,101.5,152.9,102.3,150.8"/>
			<path class="st34" d="M83.6,156.1c-3,0-6.7-1.3-6.8-1.3l2.2-1.4L83.6,156.1L83.6,156.1z"/>
			<path class="st34" d="M79,153.4l-2.2,1.4c0,0,3.7,1.3,6.8,1.3L79,153.4z"/>
			<path class="st35" d="M76.8,154.8c0.1-0.1,2-2.6,2.5-3c0.5-0.3,2.9-1.5,4.1-1.5c0.1,0,0.2,0,0.2,0c0.1,0,0.2,0,0.3,0
				c0.7,0,1.9-0.4,2.7-0.6c0.4-0.1,0.8-0.3,1-0.3c0.1,0,0.3-0.1,0.6-0.1c1-0.2,2.7-0.5,3.8-0.5c0.1,0,0.2,0,0.3,0
				c1.3,0.1,10.7,1,10.8,1.1l-0.9,0.8c-3-0.4-5.8-0.5-8.4-0.5c-10.8,0-14.9,3.1-14.9,3.1L76.8,154.8L76.8,154.8z"/>
			<path class="st35" d="M79,153.4c0,0,5.9-4.7,23.3-2.6l0.9-0.8c0,0-9.5-1-10.8-1.1c-1.3-0.1-4.1,0.5-4.8,0.6c-0.7,0.1-3,1.1-4,0.9
				c-1-0.2-3.7,1.1-4.3,1.5c-0.5,0.3-2.5,2.9-2.5,2.9L79,153.4z"/>
			<path class="st36" d="M75.6,141.9c0,0,1.9,1.4,5.7,1.4c0.3,0,0.7,0,1,0l-3,8.6c0,0-1.9,2-2.5,2.9l0,0L75.6,141.9z"/>
			<path class="st36" d="M82.4,143.3l-3.1,8.6c0,0-1.9,2-2.5,2.9l-1.2-12.9C75.6,141.9,77.8,143.5,82.4,143.3"/>
			<path class="st37" d="M82.3,143.3l7.8,5.8l-3.1,0.6c-1.9,0.6-2.8,0.8-3.2,0.8c-0.2,0-0.3-0.1-0.3-0.1c-0.1,0-0.2,0-0.2,0
				c-1.5,0-4,1.5-4,1.5l0,0L82.3,143.3z"/>
			<path class="st37" d="M90.1,149.1l-7.7-5.8l-3.1,8.6c0,0,2.8-1.7,4.3-1.5c0,0,0.2,0.4,3.4-0.7L90.1,149.1z"/>
			<path class="st38" d="M82.4,143.3c0.1,0,0.2,0,0.3,0c0,0,0.1,0,0.1,0c4.2,0,9.6-2.9,9.6-3l-2.3,8.8L82.4,143.3z"/>
			<path class="st38" d="M92.4,140.3c0,0-5.7,3.1-10,2.9l7.7,5.8L92.4,140.3z"/>
			<path class="st39" d="M103.2,150c-0.1,0-10.3-1-10.8-1.1c0,0-0.1,0-0.2,0c-0.6,0-2.1,0.2-2.1,0.2l12.2-9.6l5.1,8.4l-0.8,2.9
				L103.2,150z"/>
			<path class="st39" d="M102.3,139.5l-12.2,9.6c0,0,1.8-0.2,2.3-0.2c0.5,0,10.8,1.1,10.8,1.1l3.4,0.8l0.8-2.9L102.3,139.5z"/>
			<polygon class="st40" points="92.4,140.3 93.8,134.5 102.3,139.5 90.1,149.1 			"/>
			<polygon class="st40" points="93.8,134.5 92.4,140.3 90.1,149.1 102.3,139.5 			"/>
			<path class="st41" d="M128.7,134.6c0.3,0.7,0.9,1,1.8,1c1.5,0,3.2-1.1,3.2-1.1l-4.6,6.4L128.7,134.6z"/>
			<path class="st41" d="M133.8,134.6c0,0-4,2.4-5,0l0.4,6.3L133.8,134.6z"/>
			<path class="st42" d="M130.5,135.7c-1.5,0-1.7-1.1-1.7-1.1l3.2-6.8l1.9,6.8C132.5,135.4,131.3,135.7,130.5,135.7L130.5,135.7z"/>
			<path class="st42" d="M131.9,127.8l-3.2,6.8c0,0,0.5,2.4,5,0L131.9,127.8z"/>
			<path class="st43" d="M131.9,127.8l3.9,1.9c0,0.1-1,4.2-2,4.9l0,0L131.9,127.8z"/>
			<path class="st43" d="M135.8,129.8c0,0-1,4.1-2,4.9l-1.9-6.8L135.8,129.8z"/>
			<polygon class="st44" points="127.2,129.4 132.6,125.3 131.9,127.8 128.7,134.7 			"/>
			<polygon class="st44" points="127.2,129.4 132.6,125.3 131.9,127.8 128.7,134.6 			"/>
			<polygon class="st45" points="127.7,126.4 132.6,125.3 127.2,129.5 			"/>
			<polygon class="st45" points="127.7,126.4 127.2,129.4 132.6,125.3 			"/>
			<polygon class="st46" points="126.3,120.7 128,117.1 132.6,125.3 130.9,125.7 			"/>
			<polygon class="st46" points="126.3,120.7 130.9,125.7 132.6,125.3 128,117.1 			"/>
			<polygon class="st47" points="125,122.5 126.3,120.6 130.9,125.7 127.7,126.4 127.2,129.4 127.2,129.4 			"/>
			<polygon class="st47" points="125,122.5 126.3,120.7 130.9,125.7 127.7,126.4 127.2,129.4 			"/>
			<polygon class="st48" points="130.2,111.6 132.6,111.2 134.9,125 134.9,125 			"/>
			<polygon class="st48" points="130.2,111.6 134.9,125 132.6,111.3 			"/>
			<polygon class="st49" points="133.1,127.4 134.9,125 134.5,128.2 			"/>
			<polygon class="st49" points="133.1,127.4 134.5,128.1 134.9,125 			"/>
			<path class="st50" d="M125,122.5c0,0-1.6-4.2-2-4.9l-2-5.5l5.8-0.3l-0.3,8.8L125,122.5L125,122.5z"/>
			<path class="st50" d="M126.7,111.9l-0.3,8.8l-1.4,1.9c0,0-1.6-4.2-2-4.9l-2-5.5L126.7,111.9z"/>
			<polygon class="st51" points="126.3,120.7 126.7,111.9 131.9,108.8 133.8,110.8 132.6,111.3 130.2,111.6 128,117.1 126.4,120.7 
							"/>
			<polygon class="st51" points="131.9,108.8 126.7,111.9 126.3,120.7 128,117.1 130.2,111.6 132.6,111.3 133.8,110.8 			"/>
			<polygon class="st52" points="132.6,125.3 128,117.1 130.2,111.5 134.9,125 133.1,127.4 131.9,127.9 			"/>
			<polygon class="st52" points="131.9,127.8 133.1,127.4 134.9,125 130.2,111.6 128,117.1 132.6,125.3 			"/>
			<path class="st53" d="M57.1,120.4c-3.2-22.1,1.5-28.7,1.5-28.8l1.7,24.5l-2.1,4L57.1,120.4L57.1,120.4z"/>
			<path class="st53" d="M58.6,91.6c0,0-4.8,6.4-1.5,28.8l1.1-0.3l2.1-4L58.6,91.6z"/>
			<path class="st54" d="M60.2,134.3c-0.9,0-1.7,0-2.6-0.1h0c-0.3,0-2.3-0.1-3.2-2.3l-2.7-7.8c0,0,0-1.8,2.3-2.6
				c0,0,3.9-2.2,13.6-2.2c2.6,0,5.4,0.2,8.4,0.5c0,0,1.8,0.1,1.8,2.2l-0.4,7.1c0,0-0.5,1.9-2.3,2.6C72.4,132.6,67,134.3,60.2,134.3
				 M68.5,120.2c-5.1,0-11.9,0.5-15.5,2.8c0,0-0.6,0.4-0.5,1.1c0.4,1.5,2.8,9.4,4.1,9.4c0,0,1.2,0.1,2.9,0.1
				c3.9,0,11.2-0.4,15.6-3.1c0,0,0.9-1,1.1-1.9c0.2-1,0-6.6,0-6.7c0,0-0.2-1.3-1.2-1.4l-0.1,0C72.4,120.3,70,120.2,68.5,120.2"/>
			<path class="st54" d="M75.1,120.5c1.1,0.1,1.2,1.4,1.2,1.4s0.2,5.7,0,6.7c-0.2,1-1.2,1.9-1.2,1.9c-6.2,3.9-18.5,3-18.5,3
				c-1.5,0-4-8.7-4.2-9.4c-0.2-0.7,0.5-1.2,0.5-1.2C59.2,119.1,74.7,120.4,75.1,120.5 M54.4,131.9c1,2.4,3.2,2.3,3.2,2.3
				c8.7,0.6,15.7-1.9,17.5-2.6c1.8-0.7,2.3-2.6,2.3-2.6l0.4-7.1c-0.1-2.1-1.8-2.2-1.8-2.2c-16.2-1.7-22,1.8-22,1.8
				c-2.3,0.8-2.3,2.6-2.3,2.6L54.4,131.9z"/>
			<polygon class="st55" points="60.2,116.1 67,114.6 58.1,120.2 			"/>
			<polygon class="st55" points="67,114.7 58.2,120.1 60.2,116.2 			"/>
			<path class="st56" d="M58.1,120.1l8.9-5.5c0.3,0.5,2.4,4.4,2.3,4.6c-0.7,0-1.3,0-2,0C62.6,119.2,58.2,120.1,58.1,120.1
				L58.1,120.1z"/>
			<path class="st56" d="M69.3,119.3c0.3,0-2.3-4.6-2.3-4.6l-8.9,5.5C58.2,120.1,63.8,119,69.3,119.3"/>
			<path class="st57" d="M69.3,119.3c0,0-0.3-1-2.3-4.6l8.2,0.3L69.3,119.3L69.3,119.3z"/>
			<path class="st57" d="M75.2,115l-5.9,4.3c0,0-0.2-0.9-2.3-4.6L75.2,115z"/>
			<path class="st58" d="M77,120.1L77,120.1c-0.3-0.6-7.6-0.9-7.7-0.9l6-4.2L77,120.1L77,120.1L77,120.1z"/>
			<path class="st58" d="M77,120.2l-1.7-5.1l-6,4.2C69.3,119.2,76.9,119.5,77,120.2"/>
			<path class="st54" d="M77,120.1l3.1-0.4c0.9-0.1,2.4-0.7,2.4-0.7l0.9,3.3c-0.6-1.2-1.3-1.7-2.3-1.7c-0.3,0-0.7,0-1.2,0.1
				c-1.7,0.3-2.1,2.5-2.1,2.5l0,0L77,120.1z"/>
			<path class="st54" d="M77.8,123.2c0,0,0.3-2.3,2.1-2.5c1.8-0.3,2.7-0.2,3.5,1.6l-0.9-3.3c0,0-1.5,0.6-2.4,0.7l-3.1,0.4
				L77.8,123.2z"/>
			<path class="st54" d="M89.6,129.2c-0.6,0-1.8-0.3-3.4-2.3c-2.3-2.9-2.9-4.6-2.9-4.7l-0.9-3.3c0.1-0.1,7.1-6.5,28.2-7.1l1.6,4.7
				c0,0-0.4,1.9-0.4,4.1c0,2.2-0.2,3.6-1.8,4.4c-0.1,0-7.9,3.9-20.1,4.1C90.1,129.2,89.9,129.2,89.6,129.2 M108.1,112.6
				c-0.1,0-0.1,0-0.2,0c-1.5,0.1-16.9,2-22.8,5.6c0,0-2.1,1.1-1.2,3.2c0.8,2,4,6.7,5.9,6.7c1.8,0,15.8-0.8,20.1-3.9
				c0,0,1.1-0.2,1.1-1.7c0-1.5-1.1-8.8-1.1-8.8C109.9,113.7,109.5,112.6,108.1,112.6"/>
			<path class="st54" d="M111,122.5c0,1.5-1.1,1.7-1.1,1.7c-4.3,3.1-18.2,3.9-20.1,3.9c-1.9,0-5-4.6-5.9-6.8
				c-0.9-2.1,1.2-3.2,1.2-3.2c5.9-3.6,21.3-5.5,22.9-5.6c1.6-0.1,1.9,1.2,1.9,1.2S111,121,111,122.5 M83.4,122.2
				c0,0,0.6,1.7,2.9,4.7c2.3,2.9,3.8,2.2,3.8,2.2c10.9-0.2,18.5-3.3,20.1-4.1c1.6-0.8,1.9-2.2,1.8-4.4c0-2.2,0.4-4.1,0.4-4.1
				l-1.6-4.7c-21.4,0.6-28.2,7.1-28.2,7.1L83.4,122.2z"/>
			<polygon class="st59" points="110.7,111.9 119.8,109.3 121,112.2 117.7,113.1 			"/>
			<polygon class="st59" points="119.8,109.3 110.7,111.9 117.7,113.1 120.9,112.2 			"/>
			<path class="st60" d="M110.7,111.9l7,1.2c-4.3,0.7-5.3,3.5-5.3,3.5l0,0L110.7,111.9z"/>
			<path class="st60" d="M112.4,116.6c0,0,1-2.8,5.3-3.5l-6.9-1.2L112.4,116.6z"/>
			<path class="st61" d="M101.6,107.4l9.1,4.5c-5,0-11.6,1.1-11.6,1.1l0,0L101.6,107.4z"/>
			<path class="st61" d="M101.6,107.4l-2.5,5.5c0,0,6.6-1,11.6-1L101.6,107.4z"/>
			<polygon class="st62" points="92,109.1 101.6,107.4 99.1,112.9 			"/>
			<polygon class="st62" points="92,109.1 99.1,112.9 101.6,107.4 			"/>
			<path class="st55" d="M88.2,115.8l3.8-6.7l7.1,3.9C99,112.9,89.9,114.6,88.2,115.8L88.2,115.8z"/>
			<path class="st55" d="M88.2,115.8l3.8-6.7l7.1,3.9C99.1,112.9,90,114.6,88.2,115.8"/>
			<path class="st56" d="M82.5,111.2c1.8-0.9,9.4-2.2,9.5-2.2l-3.8,6.8L82.5,111.2z"/>
			<path class="st56" d="M82.5,111.2l5.6,4.6l3.8-6.7C92,109.1,84.4,110.3,82.5,111.2"/>
			<polygon class="st63" points="79.2,113.1 82.5,111.2 88.2,115.8 86.2,116.7 			"/>
			<polygon class="st63" points="79.2,113.1 86.2,116.7 88.2,115.8 82.5,111.2 			"/>
			<polygon class="st64" points="108.4,87.9 119.8,109.3 110.7,111.9 			"/>
			<polygon class="st64" points="108.4,87.9 110.7,111.9 119.8,109.3 			"/>
			<polygon class="st65" points="101.6,107.4 109.1,94.7 110.7,111.9 			"/>
			<polygon class="st65" points="101.6,107.4 109.1,94.7 110.7,111.9 			"/>
			<path class="st66" d="M96.8,82.4c7.6,0.4,11.6,5.5,11.6,5.5l0.7,6.8l-7.5,12.7L96.8,82.4z"/>
			<path class="st66" d="M96.8,82.4l4.8,25l7.5-12.7l-0.7-6.8C108.4,87.9,104.5,82.8,96.8,82.4"/>
			<polygon class="st67" points="96.8,82.4 101.6,107.4 92,109.1 			"/>
			<polygon class="st67" points="92,109.1 96.8,82.4 101.6,107.4 			"/>
			<path class="st68" d="M81.5,83c4-0.6,8.1-0.7,10.8-0.7c2.6,0,4.4,0.1,4.4,0.1L92,109.1L81.5,83z"/>
			<path class="st68" d="M81.5,82.9L92,109.1l4.8-26.7C96.8,82.4,89,81.9,81.5,82.9"/>
			<path class="st69" d="M81.5,82.9L92,109.1c-0.1,0-8.8,1.6-9.5,2.2l-3.3,1.9L81.5,82.9z"/>
			<path class="st69" d="M79.2,113.1l2.3-30.1L92,109.1c0,0-8.8,1.6-9.4,2.2L79.2,113.1z"/>
			<path class="st70" d="M75.2,115l4-1.9l7,3.6c0,0-2.9,1.5-3.7,2.3c0,0-2.5,0.9-5.5,1.2l0,0L75.2,115z"/>
			<path class="st70" d="M75.2,115l4-1.9l7,3.6c0,0-2.9,1.5-3.7,2.3c0,0-2.5,0.9-5.5,1.2L75.2,115z"/>
			<polygon class="st71" points="67,114.7 67.5,85.4 79.8,106 79.3,113.1 75.2,115 			"/>
			<polygon class="st71" points="67,114.7 67.5,85.4 79.8,106 79.2,113.1 75.2,115 			"/>
			<path class="st72" d="M58.5,91.6c0.1-0.1,5.1-4.5,8.9-6.2l-0.3,29.2l0,0L58.5,91.6z"/>
			<path class="st72" d="M58.6,91.6c0,0,5-4.4,8.9-6.2l-0.4,29.2L58.6,91.6z"/>
			<path class="st73" d="M67.5,85.4c3.9-2.3,9.2-2.6,11.9-2.6c1.3,0,2.1,0.1,2.1,0.1l-1.7,23.1L67.5,85.4z"/>
			<path class="st73" d="M81.5,82.9c0,0-8.4-0.7-14,2.5L79.8,106L81.5,82.9z"/>
			<polygon class="st74" points="130.9,86.8 133.8,110.8 131.9,108.8 126.7,111.9 120.9,112.2 			"/>
			<polygon class="st74" points="130.9,86.8 120.9,112.2 126.7,111.9 131.9,108.8 133.8,110.8 			"/>
			<polygon class="st75" points="119.8,109.4 108.4,87.9 125.6,100.4 120.9,112.2 			"/>
			<polygon class="st75" points="108.4,87.9 125.6,100.5 120.9,112.2 119.8,109.3 			"/>
			<path class="st76" d="M117.7,94.7l5.2-23.6c3.1,3.1,8,15.5,8,15.7l-5.4,13.7L117.7,94.7z"/>
			<path class="st76" d="M122.9,71.2l-5.2,23.6l7.8,5.7l5.4-13.6C130.9,86.8,126.1,74.3,122.9,71.2"/>
			<polygon class="st77" points="108.4,87.9 110.1,74.1 120.5,82.2 117.7,94.7 			"/>
			<polygon class="st77" points="110.2,74.1 108.4,87.9 117.7,94.7 120.5,82.3 			"/>
			<path class="st78" d="M108.4,87.9c0-0.1-4-5-11.6-5.6l13.3-8.3L108.4,87.9L108.4,87.9z"/>
			<path class="st78" d="M96.8,82.4l13.3-8.2l-1.7,13.8C108.4,87.9,104.5,82.9,96.8,82.4"/>
			<path class="st79" d="M110.1,74.1l-2-15.1c5.2,1.6,14.7,12,14.8,12.1l-2.5,11.1L110.1,74.1z"/>
			<path class="st79" d="M108.1,59l2,15.1l10.3,8.1l2.5-11.1C122.9,71.2,113.4,60.7,108.1,59"/>
			<polygon class="st80" points="102.5,72.2 110.2,74.1 96.8,82.4 			"/>
			<polygon class="st80" points="102.5,72.2 96.8,82.4 110.2,74.1 			"/>
			<path class="st81" d="M102.5,72.2l-5.7-16.8c0.2,0,0.4,0,0.5,0c4.7,0,10.8,3.6,10.8,3.7l2,15.1L102.5,72.2z"/>
			<path class="st81" d="M96.8,55.4l5.7,16.8l7.7,2l-2-15.1C108.1,59,101.6,55.1,96.8,55.4"/>
			<path class="st82" d="M86.3,70.2l10.5,12.2c0,0-0.1,0-0.3,0c-0.5,0-1.9,0-3.7,0c-3.5,0-8.3,0.1-11.3,0.6l0,0L86.3,70.2z"/>
			<path class="st82" d="M81.5,82.9l4.8-12.7l10.5,12.2C96.8,82.4,86.6,82.1,81.5,82.9"/>
			<polygon class="st83" points="86.3,70.2 96.8,55.4 102.5,72.2 96.8,82.4 			"/>
			<polygon class="st83" points="96.8,55.4 86.3,70.2 96.8,82.4 102.5,72.2 			"/>
			<path class="st84" d="M72.5,63.8c0,0,0.1-0.1,0.4-0.1c1.2-0.1,4.4-0.4,6-2.1c1.1-1.1,5.3-4.2,6.2-4.3c0.2,0,0.8-0.2,1.7-0.5
				c2.1-0.7,5.5-1.8,8.1-1.8c0.8,0,1.4,0.1,1.9,0.3L86.3,70.2L72.5,63.8z"/>
			<path class="st84" d="M72.5,63.8c0.1-0.1,4.5-0.1,6.5-2.2c1-1,5.3-4.2,6.2-4.3c0.9,0,8.6-3.4,11.6-2L86.3,70.2L72.5,63.8z"/>
			<path class="st85" d="M67.5,85.4l18.8-15.2l-4.8,12.8c0,0,0,0,0,0c-0.1,0-0.8-0.1-1.9-0.1C77,82.9,71.9,83.2,67.5,85.4L67.5,85.4
				z"/>
			<path class="st85" d="M67.5,85.4l18.8-15.2l-4.8,12.7C81.5,82.9,73.8,82.3,67.5,85.4"/>
			<polygon class="st86" points="72.5,63.8 86.3,70.2 67.5,85.5 			"/>
			<polygon class="st86" points="72.5,63.8 67.5,85.4 86.3,70.2 			"/>
			<path class="st81" d="M58.1,66.8c0.8-1.1,2-1.7,3.6-1.7c0.6,0,1.2,0.1,1.9,0.2c0.5,0.1,1.1,0.2,1.7,0.2c3.4,0,7.2-1.7,7.3-1.7
				l-5,21.7L58.1,66.8z"/>
			<path class="st81" d="M58.1,66.8c0.4-0.5,1.7-2.3,5.4-1.4c3.8,0.8,9-1.5,9-1.5l-5,21.6L58.1,66.8z"/>
			<path class="st87" d="M60.5,71.6l7.1,13.8c0,0-4.1,2-8.9,6.2l0,0L60.5,71.6z"/>
			<path class="st87" d="M58.6,91.6l1.9-20l7,13.8C67.5,85.4,63.5,87.4,58.6,91.6"/>
			<path class="st88" d="M50.6,76.1c1.5-0.6,7.4-9.2,7.5-9.3l2.5,4.8l-1.9,20.1L50.6,76.1z"/>
			<path class="st88" d="M50.6,76l8,15.6l1.9-20l-2.4-4.8C58.1,66.8,52.1,75.5,50.6,76"/>
			<path class="st89" d="M44.6,86.3c0.1-0.3,5.7-9.8,6-10.2l8,15.6L44.6,86.3z"/>
			<path class="st89" d="M44.6,86.3c0.1-0.3,6-10.2,6-10.2l8,15.6L44.6,86.3z"/>
			<path class="st77" d="M51,106.3c-6-4.2-6.4-19.9-6.4-20l14,5.4L51,106.3L51,106.3z"/>
			<path class="st77" d="M51,106.3l7.6-14.7l-14-5.4C44.6,86.3,44.9,102,51,106.3"/>
			<path class="st80" d="M51,106.3l7.2-13.8c0.3-0.6,0.4-0.8,0.4-0.8l-0.4,0.8l0,0c-1.1,2.6-3.6,10.5-1.1,27.9l-1.8,0.6L51,106.3z"
				/>
			<path class="st80" d="M55.3,120.9L51,106.3l7.6-14.7c0,0-4.7,6.9-1.5,28.8L55.3,120.9z"/>
			<path class="st90" d="M111.4,123.9c0.4-0.6,0.5-2,0.5-2c-0.2-1.2,0.4-5.3,0.4-5.3c1-2.2,3.7-3.1,3.7-3.1l1.5,12.8L111.4,123.9z"
				/>
			<path class="st90" d="M111.4,123.9l6.1,2.4l-1.5-12.8c0,0-2.7,0.9-3.7,3.1c0,0-0.6,4.1-0.4,5.3
				C112,121.9,111.9,123.3,111.4,123.9"/>
			<path class="st91" d="M107.1,126.3c3.9-1.5,4.4-2.1,4.4-2.3c0,0,0-0.1,0-0.1l6.2,2.4l-7.7,12.4L107.1,126.3z"/>
			<path class="st91" d="M107.1,126.3l2.8,12.3l7.7-12.3l-6.1-2.4C111.5,123.9,112.1,124.3,107.1,126.3"/>
			<polygon class="st92" points="103.4,127.4 107.1,126.3 109.9,138.6 102.3,139.5 			"/>
			<polygon class="st92" points="103.4,127.4 102.3,139.5 109.9,138.6 107.1,126.3 			"/>
			<path class="st93" d="M93.8,134.5l-1.4-5.5c0,0,0,0,0.1,0c0.1,0,0.2,0,0.3,0c1.1,0,4.3-0.2,10.6-1.7l-1.1,12.2L93.8,134.5z"/>
			<path class="st93" d="M93.8,134.5l-1.4-5.4c0,0,2.9,0.3,11-1.7l-1.2,12.1L93.8,134.5z"/>
			<path class="st94" d="M89.3,129.2c0.2,0,0.3,0,0.4,0c0.3,0,0.4-0.1,0.4-0.1l2.3-0.1l1.4,5.5l-1.3,5.2L89.3,129.2z"/>
			<path class="st94" d="M89.3,129.2l3.3,10.5l1.2-5.2l-1.4-5.4l-2.3,0.1C90.1,129.1,89.9,129.3,89.3,129.2"/>
			<path class="st95" d="M57.6,134.3C57.6,134.2,57.7,134.2,57.6,134.3c0.3,0,1.2,0.1,2.6,0.1h0c3,0,9-0.4,14.9-2.7
				c0,0.1-0.5,9,0.5,10.2l0,0L57.6,134.3z"/>
			<path class="st95" d="M75.1,131.6c0,0-0.6,9,0.5,10.2l-18-7.6C57.6,134.2,66.4,135.1,75.1,131.6"/>
			<path class="st96" d="M75.1,140.3c-0.2-1,0-8.6,0-8.7c2.1-1,2.3-2.6,2.3-2.6l1.2,3.1l0.4,2.4L75.1,140.3L75.1,140.3z"/>
			<path class="st96" d="M75.1,140.3l3.8-5.8l-0.4-2.4l-1.2-3.1c0,0-0.2,1.6-2.3,2.6C75.1,131.6,74.9,139.3,75.1,140.3"/>
			<path class="st97" d="M79,134.5l-0.4-2.4l5-9.6c0.1,0,2.3,3.9,3.2,4.8L82.3,141L79,134.5z"/>
			<path class="st97" d="M82.3,141l-3.3-6.5l-0.4-2.4l5-9.5c0,0,2.2,3.9,3.1,4.8L82.3,141z"/>
			<path class="st98" d="M80.7,143.3c-2.3,0-4.5-1-4.5-1l2.3-1.4L80.7,143.3L80.7,143.3z"/>
			<path class="st98" d="M80.7,143.3l-2.2-2.4l-2.3,1.4C76.2,142.2,78.3,143.3,80.7,143.3"/>
			<path class="st99" d="M78.5,140.8l-2.3,1.4c0,0-0.9-0.2-1.1-1.9l3.8-5.8l3.3,6.5l-1.6,2.3L78.5,140.8z"/>
			<path class="st99" d="M82.3,141l-1.5,2.3l-2.2-2.4l-2.3,1.4c0,0-0.9-0.1-1.1-1.9l3.8-5.8L82.3,141z"/>
			<path class="st100" d="M80.7,143.3l1.5-2.3l4.4-13.6c1.4,1.7,2.6,1.8,2.6,1.8l3.3,10.5l-0.2,0.7c-3.5,1.9-7,3-9.9,3l-0.9,0
				L80.7,143.3z"/>
			<path class="st100" d="M89.3,129.2c0,0-1.3-0.1-2.6-1.8L82.3,141l-1.5,2.3c0,0,0.9,0,1.6,0c0.8,0,4.5,0.1,10-2.9l0.2-0.7
				L89.3,129.2z"/>
			<path class="st54" d="M85.6,124.4c-2.1-3.1-2-4.6-2-4.6l3.7,2L85.6,124.4L85.6,124.4z"/>
			<path class="st54" d="M87.2,121.9l-3.6-2c0,0-0.2,1.4,2,4.6L87.2,121.9z"/>
			<path class="st101" d="M56.7,133.5c-0.2,0-0.5-0.1-1-0.9c-0.5-0.9-2.1-4.2-3.2-8.5c0,0-0.3-0.8,0.8-1.4c1.1-0.5,4-1.5,4.1-1.5
				l0.2,12.3C57.7,133.6,56.7,133.5,56.7,133.5"/>
			<path class="st101" d="M57.4,121.3l0.2,12.3l-0.9,0c0,0-0.4,0.1-1-0.9c-0.6-1.1-2.2-4.3-3.2-8.5c0,0-0.3-0.8,0.8-1.4
				C54.5,122.2,57.4,121.3,57.4,121.3"/>
			<path class="st54" d="M61.9,127.7c-0.2,0-0.3-0.2-0.4-0.6c0-0.1,1.9-5.2,8.1-5.2c0.8,0,1.6,0.1,2.4,0.2l1.8,0.7l-0.3,0.6
				c0,0-1.9-1-4.1-1c-2.8,0-4.9,1.4-6.3,4C63.1,126.6,62.3,127.7,61.9,127.7"/>
			<path class="st54" d="M61.6,127.1c0,0,2.2-6.5,10.5-5l1.8,0.7l-0.3,0.6c0,0-6.9-3.6-10.5,3.1C63.1,126.5,61.7,128.8,61.6,127.1"
				/>
			<path class="st102" d="M73.5,123.5l0.3-0.6l-1.8-0.7l-1.6-0.2c0,0,3.2-1.6,3.2-1.6c0,0,0.6,0,1.5,0.1c1,0.1,1.2,1.4,1.2,1.4
				l0.1,3.6L73.5,123.5z"/>
			<path class="st102" d="M73.6,120.3l-3.2,1.6l1.6,0.2l1.8,0.7l-0.3,0.6l2.9,2l-0.1-3.6c0,0-0.3-1.4-1.2-1.4
				C74.2,120.4,73.6,120.3,73.6,120.3"/>
			<path class="st103" d="M70.5,124.8c-0.1,0-0.1,0-0.1,0c0.4-0.6-0.4-2.3-0.4-2.3c0.1,0,0.2,0,0.3,0c1,0,3.3,0.9,3.3,0.9
				C72.3,124.7,70.9,124.8,70.5,124.8"/>
			<path class="st103" d="M70,122.5c0,0,0.9,1.7,0.4,2.3c0,0,1.7,0.1,3.1-1.4C73.6,123.5,70.9,122.3,70,122.5"/>
			<path class="st104" d="M65.4,125.8c-1,0-1.6-0.2-1.6-0.2c0.9-1.7,2.6-2.4,2.6-2.5c-0.2,1.1,1.4,2.2,1.4,2.2
				C67,125.7,66.2,125.8,65.4,125.8"/>
			<path class="st104" d="M63.7,125.6c0,0,1.8,0.5,4-0.2c0,0-1.6-1.1-1.4-2.2C66.3,123.2,64.7,123.9,63.7,125.6"/>
			<path class="st105" d="M57.4,121.3c3.6-0.9,8.5-1,11.9-1c2.5,0,4.3,0.1,4.3,0.1l-3.2,1.6l-0.1,0c-5.4,0-7,2.5-7.1,2.6l0,0
				L57.4,121.3z"/>
			<path class="st105" d="M57.4,121.3l5.8,3.2c0,0,1.6-2.6,7.2-2.6l3.2-1.6C73.6,120.3,63.7,119.8,57.4,121.3"/>
			<path class="st106" d="M57.6,129.8l-0.1-8.5l5.9,3.2c-1.4,1.3-1.7,2.6-1.7,2.6C60,128.1,57.6,129.7,57.6,129.8L57.6,129.8z"/>
			<path class="st106" d="M57.6,129.8c0-0.1,4-2.7,4-2.7s0.3-1.4,1.7-2.6l-5.8-3.2L57.6,129.8z"/>
			<path class="st107" d="M70.4,124.9c1.6-0.3,3.1-1.5,3.1-1.5l2.9,2c0,0,0,2-0.1,3.2c-0.1,0.9-0.5,1.3-0.9,1.7
				c-0.1,0.1-0.2,0.2-0.3,0.3c-0.4,0.4-2.8,1.3-2.9,1.4l0,0L70.4,124.9z"/>
			<path class="st107" d="M70.5,124.9l1.8,6.9c0,0,2.6-0.9,2.9-1.4c0.4-0.4,1.1-0.8,1.2-1.9c0.1-1.2,0.1-3.1,0.1-3.1l-2.9-2
				C73.6,123.5,72.1,124.6,70.5,124.9"/>
			<path class="st108" d="M63.7,125.6c0.6,0.1,1.2,0.1,1.7,0.1c1.4,0,2.2-0.3,2.3-0.3c2.2,0,2.7-0.6,2.7-0.6l1.9,7.1L63.7,125.6z"/>
			<path class="st108" d="M63.7,125.6l8.6,6.3l-1.9-7c0,0-0.5,0.6-2.7,0.6C67.7,125.4,66.3,126,63.7,125.6"/>
			<path class="st109" d="M62.2,127.6c0.7-0.2,1.5-1.9,1.5-2l8.6,6.2c-3.6,1.6-10.5,1.7-10.6,1.7l0,0L62.2,127.6z"/>
			<path class="st109" d="M62.2,127.6l-0.6,6c0,0,7-0.1,10.6-1.7l-8.6-6.3C63.7,125.6,62.9,127.4,62.2,127.6"/>
			<path class="st104" d="M94.2,120.6c-0.7,0-1.2-0.1-1.6-0.2c0-0.1,1.8-2.8,3.9-3.4c0,0-0.5,0.8-0.3,1.6c0.2,0.6,0.7,1.2,1.6,1.6
				C97.7,120.1,95.8,120.6,94.2,120.6"/>
			<path class="st104" d="M92.6,120.3c0,0,1.8-2.7,3.9-3.4c0,0-1.5,1.9,1.3,3.2C97.7,120.1,94.1,121,92.6,120.3"/>
			<path class="st103" d="M97.7,120.1c0,0-1.3-0.4-1.6-1.3c-0.2-0.5-0.1-1.2,0.3-1.8c0,0,1.7-0.8,3.6-0.8c0.6,0,1.1,0.1,1.6,0.2
				c0,0,0.8,1.6,0,2.4C101.6,118.8,99,120.1,97.7,120.1L97.7,120.1L97.7,120.1z"/>
			<path class="st103" d="M101.6,118.8c0,0-2.6,1.3-3.9,1.4c0,0-2.7-0.8-1.3-3.2c0,0,2.6-1.2,5.2-0.6
				C101.6,116.4,102.4,118,101.6,118.8"/>
			<path class="st104" d="M101.6,118.8c0.8-0.6,0-2.3,0-2.3l2.4,1.2L101.6,118.8L101.6,118.8z"/>
			<path class="st104" d="M104,117.6l-2.4-1.2c0,0,0.8,1.8,0,2.4L104,117.6z"/>
			<path class="st54" d="M92.5,120.3c0,0,1.5-4.6,6.7-4.6c1.6,0,3.5,0.5,5.5,1.3l1.2,0.5l0,0.4l-1.9-0.3l-2.4-1.2
				c0,0-0.5-0.2-1.4-0.2c-1.1,0-2.4,0.2-3.8,0.7C96.4,117,94.2,118,92.5,120.3L92.5,120.3z"/>
			<path class="st54" d="M92.6,120.3c0,0,2.3-7.6,12.1-3.3l1.2,0.5v0.3l-1.8-0.3l-2.4-1.2c0,0-1.7-0.6-5.2,0.6
				C96.4,117,94.2,117.9,92.6,120.3"/>
			<path class="st110" d="M90.1,121.4l2.5-1.1c0.4,0.2,0.9,0.3,1.6,0.3c1.6,0,3.6-0.5,3.6-0.5l1.7-0.4l-3.3,8L90.1,121.4z"/>
			<path class="st110" d="M92.6,120.3l-2.5,1l6.1,6.3l3.3-8l-1.7,0.4C97.7,120.1,93.9,121,92.6,120.3"/>
			<path class="st111" d="M99.5,119.7c1-0.3,4.5-2.1,4.5-2.1l1.8,0.3l0-0.3l4.6,0.5c0,0,0.6,2.9,0.5,4.5c-0.1,1.6-1.1,1.7-1.1,1.7
				l0,0L99.5,119.7z"/>
			<path class="st111" d="M110.5,118l-4.6-0.5v0.3l-1.8-0.3c0,0-3.6,1.8-4.5,2.1l10.4,4.6c0,0,1-0.1,1.1-1.7
				C111.1,120.9,110.5,118,110.5,118"/>
			<path class="st112" d="M105.9,117.6c-1.1-0.7-4.4-1.6-4.4-1.6l1.5-2.8c0,0,3.4-0.5,5-0.7c0.1,0,0.2,0,0.3,0
				c1.4,0,1.7,1.2,1.7,1.2l0.6,4.3L105.9,117.6z"/>
			<path class="st112" d="M102.9,113.2l-1.5,2.8c0,0,3.4,0.9,4.4,1.6l4.6,0.5l-0.6-4.3c0,0-0.3-1.3-1.9-1.2
				C106.3,112.7,102.9,113.2,102.9,113.2"/>
			<path class="st113" d="M92.9,115.3l10-2.1l-1.5,2.8c-0.8-0.1-1.6-0.2-2.3-0.2c-2.8,0-4,1.2-4,1.2l0,0L92.9,115.3z"/>
			<path class="st113" d="M92.9,115.3l2.2,1.6c0,0,1.8-1.8,6.3-0.9l1.5-2.8L92.9,115.3z"/>
			<path class="st114" d="M86.2,117.6c0-0.1,4.8-2.1,6.7-2.3l2.2,1.6c0,0-2.3,1.7-2.6,3.4l0,0L86.2,117.6z"/>
			<path class="st114" d="M92.6,120.3l-6.3-2.8c0,0,4.8-2.1,6.7-2.3l2.2,1.6C95.1,116.9,92.9,118.6,92.6,120.3"/>
			<path class="st115" d="M83.6,119.9c0,0,0.1-1.3,2.6-2.4l6.4,2.8l-2.5,1.1l-2.9,0.5L83.6,119.9z"/>
			<path class="st115" d="M83.6,119.9c0,0,0.1-1.2,2.6-2.3l6.3,2.8l-2.5,1l-2.8,0.5L83.6,119.9z"/>
			<path class="st116" d="M84.6,156.2c-0.6,0-1,0-1,0l-4.6-2.7c4-2.6,10.3-3.2,14.9-3.2c4.6,0,8.3,0.5,8.4,0.5l-7.5,3.6
				C90.1,155.9,86.4,156.2,84.6,156.2z"/>
			<path class="st116" d="M79,153.4l4.6,2.7c0,0,4.7,0.4,11.2-1.7l7.5-3.6C102.3,150.8,86.5,148.4,79,153.4"/>
		</g>
		<g class="st4">
			<defs>
				<path id="SVGID_7_" d="M103.2,170.2l-11.3,2.2l-13.8,3.8c0,0,19.2,14.8,40.8-12.6L103.2,170.2z"/>
			</defs>
			<clipPath id="SVGID_8_">
				<use xlink:href="#SVGID_7_"  style="overflow:visible;"/>
			</clipPath>
			<path class="st117" d="M93.7,183.2c-3.7,0-6.4-1-6.4-1l4.6-9.8l8.1,9.8C98,182.9,95.9,183.2,93.7,183.2L93.7,183.2z"/>
			<path class="st117" d="M91.8,172.4l-4.6,9.8c0,0,6,2.3,12.7,0L91.8,172.4z"/>
			<path class="st118" d="M103.1,170.2l8.3,4.8c-2.9,4.8-11.4,7.2-11.5,7.2l0,0L103.1,170.2z"/>
			<path class="st118" d="M103.2,170.2l-3.3,12c0,0,8.5-2.4,11.5-7.2L103.2,170.2z"/>
			<polygon class="st119" points="91.8,172.4 103.2,170.2 99.9,182.2 			"/>
			<polygon class="st119" points="91.8,172.4 103.2,170.2 99.9,182.2 			"/>
			<polygon class="st120" points="103.2,170.2 118.9,163.6 111.4,175 			"/>
			<polygon class="st120" points="118.9,163.6 111.4,175 103.2,170.2 			"/>
			<path class="st121" d="M87.2,182.2c-2.8-0.3-9.1-5.9-9.2-6l13.8-3.8L87.2,182.2L87.2,182.2z"/>
			<path class="st121" d="M78.1,176.2c0,0,6.3,5.7,9.2,6l4.6-9.8L78.1,176.2z"/>
		</g>
		<g class="st4">
			<defs>
				<rect id="SVGID_9_" x="1" y="55.6" width="172.5" height="173.5"/>
			</defs>
			<clipPath id="SVGID_10_">
				<use xlink:href="#SVGID_9_"  style="overflow:visible;"/>
			</clipPath>
			<polygon class="st122" points="105.6,154 127.7,148.4 118.9,163.6 			"/>
			<polygon class="st122" points="127.7,148.4 118.9,163.6 105.7,154 			"/>
			<path class="st123" d="M89.4,164.4c0,0,1.8-0.3,4.1-5.3l4-2.6l5.7,13.7L89.4,164.4z"/>
			<path class="st123" d="M89.5,164.4c0,0,1.8-0.2,4.1-5.3l3.9-2.6l5.7,13.7L89.5,164.4z"/>
			<path class="st124" d="M89.8,140.7c-0.1,0-2.6,0-3.1-0.5c-0.2-0.2-0.3-0.3-0.2-0.5c0-0.2,0.2-0.4,0.2-0.4c0,0,0.8-0.2,1.5-0.2
				c1,0,1.7,0.3,1.9,0.8C90.3,140.4,89.8,140.6,89.8,140.7L89.8,140.7L89.8,140.7z"/>
			<path class="st124" d="M89.8,140.6c0,0-2.6,0-3.1-0.5c-0.5-0.5,0-0.8,0-0.8s3-0.6,3.4,0.6C90.3,140.4,89.8,140.6,89.8,140.6"/>
			<path class="st125" d="M57.6,133.6l-0.1-3.8l4-2.7c0,0.4,0.1,0.6,0.3,0.6c0.2,0,0.4-0.2,0.4-0.2l-0.5,6H57.6z"/>
			<path class="st125" d="M57.6,133.6h4l0.6-6c0,0-0.7,0.6-0.7-0.4l-4,2.7L57.6,133.6z"/>
			<path class="st126" d="M77.4,129l0.4-5.8c0,0,0.6-2.3,2.1-2.6c0.4-0.1,0.8-0.1,1.1-0.1c1,0,1.4,0.3,1.6,0.5c0.3,0.3,1,1.5,1,1.5
				l-5,9.6L77.4,129z"/>
			<path class="st126" d="M83.5,122.5l-5,9.5l-1.2-3.1l0.4-5.8c0,0,0.6-2.3,2.1-2.5c1.5-0.3,2.4,0,2.7,0.4S83.5,122.5,83.5,122.5"/>
			<path class="st127" d="M99.5,119.7l10.4,4.5c-2.7,2.3-13.6,3.5-13.7,3.5l0,0L99.5,119.7z"/>
			<path class="st127" d="M109.9,124.2l-10.4-4.6l-3.3,8C96.2,127.7,107.2,126.6,109.9,124.2"/>
			<path class="st128" d="M89.7,128.1c-1.7,0-4.1-3.7-4.1-3.7l1.6-2.5l2.9-0.5l6.1,6.3C96.1,127.7,91.5,128.1,89.7,128.1L89.7,128.1
				z"/>
			<path class="st128" d="M96.2,127.7l-6.1-6.3l-2.8,0.5l-1.6,2.5c0,0,2.4,3.8,4.2,3.7C91.5,128.1,96.2,127.7,96.2,127.7"/>
			<polygon class="st129" points="116,113.5 117.7,113.1 120.9,112.2 122.9,117.6 117.6,126.3 			"/>
			<polygon class="st129" points="116.1,113.5 117.6,126.3 122.9,117.6 120.9,112.2 117.7,113.1 			"/>
			<polygon class="st130" points="58.6,91.6 67,114.7 60.2,116.2 			"/>
			<polygon class="st130" points="67,114.7 58.6,91.6 60.2,116.2 			"/>
			<path class="st131" d="M131.9,127.9l1.2-0.5l1.5,0.8l0.4-3.1l1.6,0c0.1,1.1-0.6,4.7-0.7,4.7l0,0L131.9,127.9z"/>
			<path class="st131" d="M135.8,129.8c0,0,0.7-3.6,0.7-4.7h-1.6l-0.4,3.1l-1.4-0.8l-1.1,0.5L135.8,129.8z"/>
			<path class="st132" d="M134.9,125.1l-2.3-13.8l1.1-0.5c0,0.1,2.6,9.2,2.7,14.3l0,0H134.9z"/>
			<path class="st132" d="M133.8,110.8c0,0,2.6,9.1,2.7,14.3h-1.6l-2.3-13.8L133.8,110.8z"/>
			<path class="st133" d="M100,118.2c-0.2,0-0.5,0-0.7-0.3c-0.2-0.2-0.2-0.5-0.1-0.9c0,0,0.4-0.3,0.8-0.3c0.2,0,0.5,0.1,0.6,0.3
				c0.2,0.2,0.2,0.4,0.1,0.6c-0.1,0.3-0.6,0.5-0.6,0.5C100.2,118.2,100.1,118.2,100,118.2"/>
			<path class="st133" d="M100.2,118.1c0,0-1.3,0.2-1-1.1c0,0,0.9-0.8,1.4,0C101.2,117.8,100.2,118.1,100.2,118.1"/>
			<path class="st134" d="M68.2,125.5c-0.2,0-0.3,0-0.5,0c0,0-1.6-1.1-1.4-2.3c0,0,1.3-0.7,2.9-0.7c0.3,0,0.5,0,0.8,0.1
				c0,0,1,1.4,0.7,2.3C70.7,124.8,69.6,125.5,68.2,125.5"/>
			<path class="st134" d="M70.7,124.8c0,0-1.4,0.8-3,0.6c0,0-1.6-1.1-1.4-2.2c0,0,1.7-1,3.7-0.7C70,122.5,71,123.9,70.7,124.8"/>
		</g>
	</g>
</g>
</svg>
