<?xml version="1.0" encoding="utf-8"?>
<!-- Generator: Adobe Illustrator 19.2.1, SVG Export Plug-In . SVG Version: 6.00 Build 0)  -->
<svg version="1.1" id="Layer_1" xmlns="http://www.w3.org/2000/svg" xmlns:xlink="http://www.w3.org/1999/xlink" x="0px" y="0px"
	 width="192px" height="234px" viewBox="0 0 192 234" style="enable-background:new 0 0 192 234;" xml:space="preserve">
<style type="text/css">
	.st0{fill:#F2F2F2;}
	.st1{fill:#D54339;}
	.st2{clip-path:url(#SVGID_2_);}
	.st3{clip-path:url(#SVGID_4_);}
	.st4{clip-path:url(#SVGID_6_);fill:#C79270;}
	.st5{clip-path:url(#SVGID_6_);fill:#AE605C;}
	.st6{clip-path:url(#SVGID_6_);fill:#4F3127;}
	.st7{clip-path:url(#SVGID_6_);fill:#AC7C65;}
	.st8{clip-path:url(#SVGID_6_);fill:#D9A995;}
	.st9{clip-path:url(#SVGID_6_);fill:#C29075;}
	.st10{clip-path:url(#SVGID_6_);fill:#403024;}
	.st11{clip-path:url(#SVGID_6_);fill:#F0BDA8;}
	.st12{clip-path:url(#SVGID_8_);fill:#DCAD9B;}
	.st13{clip-path:url(#SVGID_8_);fill:#A3705D;}
	.st14{clip-path:url(#SVGID_8_);fill:#976252;}
	.st15{clip-path:url(#SVGID_8_);fill:#A36E5E;}
	.st16{clip-path:url(#SVGID_8_);fill:#DBA992;}
	.st17{clip-path:url(#SVGID_8_);fill:#CB9980;}
	.st18{clip-path:url(#SVGID_8_);fill:#D6A084;}
	.st19{clip-path:url(#SVGID_8_);fill:#B48164;}
	.st20{clip-path:url(#SVGID_8_);fill:#EBB9A2;}
	.st21{clip-path:url(#SVGID_8_);fill:#F4C7B0;}
	.st22{clip-path:url(#SVGID_8_);fill:#DDAA8F;}
	.st23{clip-path:url(#SVGID_8_);fill:#E1AF98;}
	.st24{clip-path:url(#SVGID_8_);fill:#EAB49A;}
	.st25{clip-path:url(#SVGID_8_);fill:#D49E82;}
	.st26{clip-path:url(#SVGID_8_);fill:#E9BA9E;}
	.st27{clip-path:url(#SVGID_8_);fill:#CA9881;}
	.st28{clip-path:url(#SVGID_8_);fill:#EFBFA8;}
	.st29{clip-path:url(#SVGID_8_);fill:#E9B59F;}
	.st30{clip-path:url(#SVGID_8_);fill:#D7A88C;}
	.st31{clip-path:url(#SVGID_8_);fill:#AA7C65;}
	.st32{clip-path:url(#SVGID_8_);fill:#997865;}
	.st33{clip-path:url(#SVGID_8_);fill:#C29075;}
	.st34{clip-path:url(#SVGID_8_);fill:#AF7F68;}
	.st35{clip-path:url(#SVGID_8_);fill:#C79270;}
	.st36{clip-path:url(#SVGID_8_);fill:#F2C2AB;}
	.st37{clip-path:url(#SVGID_8_);fill:#EAB198;}
	.st38{clip-path:url(#SVGID_8_);fill:#D29B7F;}
	.st39{clip-path:url(#SVGID_8_);fill:#B68E75;}
	.st40{clip-path:url(#SVGID_8_);fill:#E19894;}
	.st41{clip-path:url(#SVGID_8_);fill:#B53A42;}
	.st42{clip-path:url(#SVGID_8_);fill:#B26E65;}
	.st43{clip-path:url(#SVGID_8_);fill:#AE605C;}
	.st44{clip-path:url(#SVGID_8_);fill:#9F544E;}
	.st45{clip-path:url(#SVGID_8_);fill:#C5957F;}
	.st46{clip-path:url(#SVGID_8_);fill:#DBA599;}
	.st47{clip-path:url(#SVGID_8_);fill:#EDB1A6;}
	.st48{clip-path:url(#SVGID_8_);fill:#E0AB9B;}
	.st49{clip-path:url(#SVGID_8_);fill:#663123;}
	.st50{clip-path:url(#SVGID_8_);fill:#6E3325;}
	.st51{clip-path:url(#SVGID_8_);fill:#C68C76;}
	.st52{clip-path:url(#SVGID_8_);fill:#ECC0A5;}
	.st53{clip-path:url(#SVGID_8_);fill:#955C49;}
	.st54{clip-path:url(#SVGID_8_);fill:#B17C6A;}
	.st55{clip-path:url(#SVGID_8_);fill:#E2AA95;}
	.st56{clip-path:url(#SVGID_8_);fill:#D1A18B;}
	.st57{clip-path:url(#SVGID_8_);fill:#B88572;}
	.st58{clip-path:url(#SVGID_8_);fill:#CE9D8C;}
	.st59{clip-path:url(#SVGID_8_);fill:#BF8F7B;}
	.st60{clip-path:url(#SVGID_8_);fill:#D79889;}
	.st61{clip-path:url(#SVGID_8_);fill:#CF9F8B;}
	.st62{clip-path:url(#SVGID_8_);fill:#BAA99F;}
	.st63{clip-path:url(#SVGID_8_);fill:#D4B8AA;}
	.st64{clip-path:url(#SVGID_8_);fill:#3E3E3E;}
	.st65{clip-path:url(#SVGID_8_);fill:#432116;}
	.st66{clip-path:url(#SVGID_8_);fill:#583122;}
	.st67{clip-path:url(#SVGID_8_);fill:#533628;}
	.st68{clip-path:url(#SVGID_8_);fill:#4F3127;}
	.st69{clip-path:url(#SVGID_8_);fill:#624236;}
	.st70{clip-path:url(#SVGID_8_);fill:#744938;}
	.st71{clip-path:url(#SVGID_8_);fill:#B27F6E;}
	.st72{clip-path:url(#SVGID_8_);fill:#AF8471;}
	.st73{clip-path:url(#SVGID_8_);fill:#9A7668;}
	.st74{clip-path:url(#SVGID_8_);fill:#996955;}
	.st75{clip-path:url(#SVGID_8_);fill:#B5856F;}
	.st76{clip-path:url(#SVGID_8_);fill:#BD8C7B;}
	.st77{clip-path:url(#SVGID_8_);fill:#D39F92;}
	.st78{clip-path:url(#SVGID_8_);fill:#DCC1B6;}
	.st79{clip-path:url(#SVGID_8_);fill:#B4A19A;}
	.st80{clip-path:url(#SVGID_8_);fill:#BC8A73;}
	.st81{clip-path:url(#SVGID_8_);fill:#CC9B8A;}
	.st82{clip-path:url(#SVGID_8_);fill:#97654E;}
	.st83{clip-path:url(#SVGID_8_);fill:#7A4C3F;}
	.st84{clip-path:url(#SVGID_8_);fill:#4A2D1F;}
	.st85{clip-path:url(#SVGID_8_);fill:#4F3429;}
	.st86{clip-path:url(#SVGID_8_);fill:#4B2E28;}
	.st87{clip-path:url(#SVGID_8_);fill:#4D2F23;}
	.st88{clip-path:url(#SVGID_8_);fill:#61402F;}
	.st89{clip-path:url(#SVGID_8_);fill:#A68272;}
	.st90{clip-path:url(#SVGID_8_);fill:#AF7F69;}
	.st91{clip-path:url(#SVGID_8_);fill:#AC7C65;}
	.st92{clip-path:url(#SVGID_8_);fill:#9F7964;}
	.st93{clip-path:url(#SVGID_8_);fill:#D4A088;}
	.st94{clip-path:url(#SVGID_8_);fill:#F1C5B8;}
	.st95{clip-path:url(#SVGID_8_);fill:#F0BDA8;}
	.st96{clip-path:url(#SVGID_8_);fill:#CF987C;}
	.st97{clip-path:url(#SVGID_8_);fill:#E1A58D;}
	.st98{clip-path:url(#SVGID_8_);fill:#ECB49B;}
	.st99{clip-path:url(#SVGID_8_);fill:#F0BCA4;}
	.st100{clip-path:url(#SVGID_8_);fill:#DBA384;}
	.st101{clip-path:url(#SVGID_8_);fill:#C89276;}
	.st102{clip-path:url(#SVGID_8_);fill:#D39B7C;}
	.st103{clip-path:url(#SVGID_8_);fill:#D49176;}
	.st104{clip-path:url(#SVGID_8_);fill:#CB9688;}
	.st105{clip-path:url(#SVGID_8_);fill:#E4967F;}
	.st106{clip-path:url(#SVGID_8_);fill:#D8AA92;}
	.st107{clip-path:url(#SVGID_8_);fill:#D78770;}
	.st108{clip-path:url(#SVGID_8_);fill:#CD8A6D;}
	.st109{clip-path:url(#SVGID_8_);fill:#544138;}
	.st110{clip-path:url(#SVGID_8_);fill:#2F1E15;}
	.st111{clip-path:url(#SVGID_8_);fill:#331912;}
	.st112{clip-path:url(#SVGID_8_);fill:#1C130F;}
	.st113{clip-path:url(#SVGID_8_);fill:#30241B;}
	.st114{clip-path:url(#SVGID_8_);fill:#16120F;}
	.st115{clip-path:url(#SVGID_8_);fill:#2B201D;}
	.st116{clip-path:url(#SVGID_8_);fill:#36251A;}
	.st117{clip-path:url(#SVGID_8_);fill:#28150F;}
	.st118{clip-path:url(#SVGID_8_);fill:#201812;}
	.st119{clip-path:url(#SVGID_8_);fill:#403024;}
	.st120{clip-path:url(#SVGID_8_);fill:#69514A;}
	.st121{clip-path:url(#SVGID_8_);fill:#AA857B;}
	.st122{clip-path:url(#SVGID_8_);fill:#B87C74;}
	.st123{clip-path:url(#SVGID_8_);fill:#9E6A54;}
	.st124{clip-path:url(#SVGID_8_);fill:#8F5C4B;}
	.st125{clip-path:url(#SVGID_8_);fill:#A8715C;}
	.st126{clip-path:url(#SVGID_8_);fill:#D88784;}
	.st127{clip-path:url(#SVGID_8_);fill:#CB827E;}
	.st128{clip-path:url(#SVGID_8_);fill:#E4B29B;}
	.st129{clip-path:url(#SVGID_8_);fill:#513329;}
	.st130{clip-path:url(#SVGID_8_);fill:#A77761;}
	.st131{clip-path:url(#SVGID_8_);fill:#D9A995;}
	.st132{clip-path:url(#SVGID_8_);fill:#1E1A19;}
	.st133{clip-path:url(#SVGID_8_);fill:#D39681;}
	.st134{clip-path:url(#SVGID_8_);fill:#DBA083;}
	.st135{opacity:0.7;clip-path:url(#SVGID_8_);}
	.st136{clip-path:url(#SVGID_10_);fill:none;stroke:#432116;stroke-linecap:round;stroke-linejoin:round;stroke-miterlimit:10;}
	.st137{opacity:0.3;clip-path:url(#SVGID_8_);}
	.st138{clip-path:url(#SVGID_12_);fill:none;stroke:#432116;stroke-linecap:round;stroke-linejoin:round;stroke-miterlimit:10;}
	.st139{clip-path:url(#SVGID_14_);fill:none;stroke:#432116;stroke-linecap:round;stroke-linejoin:round;stroke-miterlimit:10;}
	.st140{clip-path:url(#SVGID_16_);fill:none;stroke:#432116;stroke-linecap:round;stroke-linejoin:round;stroke-miterlimit:10;}
	.st141{clip-path:url(#SVGID_8_);fill:#313634;}
</style>
<rect class="st0" width="192" height="234"/>
<polygon class="st1" points="192,215.5 172.5,234 192,234 "/>
<g>
	<g>
		<defs>
			<rect id="SVGID_1_" x="20.6" y="52.7" width="146.4" height="146.4"/>
		</defs>
		<clipPath id="SVGID_2_">
			<use xlink:href="#SVGID_1_"  style="overflow:visible;"/>
		</clipPath>
		<g class="st2">
			<defs>
				<rect id="SVGID_3_" x="20.6" y="52.7" width="146.4" height="146.4"/>
			</defs>
			<clipPath id="SVGID_4_">
				<use xlink:href="#SVGID_3_"  style="overflow:visible;"/>
			</clipPath>
			<g class="st3">
				<defs>
					<rect id="SVGID_5_" x="20.6" y="52.7" width="146.4" height="146.4"/>
				</defs>
				<clipPath id="SVGID_6_">
					<use xlink:href="#SVGID_5_"  style="overflow:visible;"/>
				</clipPath>
				<path class="st4" d="M64.8,143.7c-0.2,2.8,0,5.6,0.8,8.4c0.4,1.2,2.3,0.7,1.9-0.5c-0.7-2.6-0.9-5.2-0.8-7.8
					C66.8,142.4,64.9,142.4,64.8,143.7"/>
				<path class="st4" d="M69.1,160.3c4.6,0.6,9.2,0.9,13.7,1.9c1.2,0.3,1.8-1.6,0.5-1.9c-4.7-1.1-9.5-1.4-14.3-2
					C67.9,158.2,67.9,160.1,69.1,160.3"/>
				<path class="st4" d="M76.9,153.2c0.8,2.1,2.4,3.9,3.8,5.6c0.8,1,2.2-0.4,1.4-1.4c-1.2-1.4-2.6-2.9-3.3-4.7
					C78.3,151.6,76.4,152.1,76.9,153.2"/>
				<path class="st4" d="M79.3,155.3c1.1,1.1,2.3,2.1,3.4,3.2c0.9,0.9,2.3-0.5,1.4-1.4c-1.1-1.1-2.3-2.1-3.4-3.2
					C79.8,153,78.4,154.4,79.3,155.3"/>
				<path class="st4" d="M66.3,159.9c2.2,0.6,4.5,1,6.8,1c1.3,0,1.3-2,0-2c-2.1,0-4.2-0.4-6.2-1C65.6,157.6,65.1,159.5,66.3,159.9"
					/>
				<path class="st4" d="M108.1,154.3c4.1,0.9,8.2,1.6,12.2,2.8c1.2,0.4,1.7-1.5,0.5-1.9c-4-1.2-8.2-1.8-12.2-2.8
					C107.4,152.1,106.9,154,108.1,154.3"/>
				<path class="st5" d="M81.6,154.3c7.2-1,14.4-1,21.6-0.8c1.3,0,1.3-1.9,0-2c-7.4-0.2-14.8-0.2-22.2,0.8
					C79.8,152.6,80.4,154.5,81.6,154.3"/>
				<path class="st5" d="M78.8,154.8c1.6,0,3.2-0.2,4.8-0.6c1.2-0.3,0.7-2.2-0.5-1.9c-1.4,0.4-2.8,0.5-4.3,0.6
					C77.5,152.8,77.5,154.8,78.8,154.8"/>
				<path class="st6" d="M96.6,110.4h3.9c1.3,0,1.3-2,0-2h-3.9C95.3,108.4,95.3,110.4,96.6,110.4"/>
				<path class="st6" d="M98.1,111.3h3.4c1.3,0,1.3-2,0-2h-3.4C96.9,109.4,96.9,111.3,98.1,111.3"/>
				<path class="st6" d="M102.1,110c2,0.2,4.1,0.2,6.1,0.2c1.3,0,1.3-2,0-2c-2,0-4.1,0-6.1-0.2C100.8,107.9,100.8,109.8,102.1,110"
					/>
				<path class="st6" d="M104.5,108.9c0.4,0.3,0.8,0.5,1.3,0.5c0.5,0,1-0.4,1-1c0-0.5-0.4-1-1-1c-0.1,0-0.3,0,0,0
					c-0.1,0-0.1,0,0.1,0c-0.1-0.1-0.1,0,0,0c-0.4-0.4-1-0.4-1.4,0C104.2,107.9,104.1,108.5,104.5,108.9"/>
				<path class="st6" d="M104.5,108.3c0.1,0.1,0.3,0.3,0.5,0.3c0.1,0.1,0.2,0.1,0.4,0.2c0,0,0.1,0,0.1,0c-0.3-0.1,0,0,0,0
					c0.5,0.2,1.1,0.1,1.3-0.4c0.3-0.4,0.1-1.1-0.4-1.3c-0.2-0.1-0.4-0.2-0.6-0.3c-0.2-0.1,0.2,0.1,0,0c-0.2-0.1,0.1,0.1,0,0
					c-0.4-0.4-1-0.4-1.4,0C104.2,107.3,104.1,107.9,104.5,108.3"/>
				<path class="st6" d="M104.8,110.3c0.7,0.2,1.5,0.2,2.2,0.2c1.3,0,1.3-2,0-2c-0.6,0-1.2,0-1.7-0.2
					C104.1,108,103.6,109.9,104.8,110.3"/>
				<path class="st6" d="M112.1,109.8c1.4,0.2,2.9,0.4,4.3,0.8c1.2,0.3,1.8-1.6,0.5-1.9c-1.6-0.4-3.2-0.6-4.8-0.8
					C110.9,107.6,110.9,109.6,112.1,109.8"/>
				<path class="st6" d="M70.5,114.1c1.8-0.2,3.6-0.1,5.4-0.4c1.2-0.3,0.7-2.2-0.5-1.9c-1.6,0.3-3.2,0.2-4.9,0.4
					C69.2,112.3,69.2,114.2,70.5,114.1"/>
				<path class="st6" d="M67.8,113.5l3.6-0.6c1.3-0.2,0.7-2.1-0.5-1.9l-3.6,0.6C66,111.8,66.6,113.7,67.8,113.5"/>
				<path class="st6" d="M65.7,114.7c1.2,0.2,2.4,0.2,3.6,0.2c-0.1-0.6-0.2-1.3-0.3-1.9c-0.9,0.2-1.8,0.3-2.7,0.4v2c0,0,0.1,0,0.1,0
					c0.4,0,0.9-0.3,1-0.7c0-0.2,0.1-0.4,0.1-0.6c0-0.4-0.3-0.9-0.7-1c-0.4,0-0.7-0.2-1-0.5l-0.6,1.4c3.9-1.6,8.4-1.6,12.1,0.5
					c1.1,0.6,2.1-1.1,1-1.7c-4.1-2.3-9.3-2.5-13.6-0.7c-0.5,0.2-1,0.9-0.6,1.4c0.6,0.8,1.2,1.2,2.2,1.4c-0.2-0.3-0.5-0.6-0.7-1
					c0,0,0,0.1,0,0.1l1-0.7c0,0-0.1,0-0.1,0c-1.2,0.1-1.3,2,0,2c1.1-0.1,2.1-0.2,3.2-0.4c1.1-0.2,0.8-1.9-0.3-1.9
					c-1,0-2.1,0-3.1-0.2C65,112.6,64.4,114.5,65.7,114.7"/>
				<path class="st7" d="M58.3,108.5c-0.3,2-2.3,3-2.8,4.9c-0.1,0.6,0.3,1.3,1,1.2c2.9-0.3,5.5-1.7,8-3.3c0.8-0.5,0.5-1.9-0.5-1.8
					c-1.9,0.2-3.9,0.2-5.6,1.1c-0.5,0.2-0.6,0.9-0.4,1.3c1.3,2,3.6,2.9,5.7,1.7c1.1-0.6,0.1-2.3-1-1.7c-1.2,0.6-2.3,0-3-1
					c-0.1,0.4-0.2,0.9-0.4,1.3c1.4-0.7,3.1-0.7,4.6-0.9c-0.2-0.6-0.3-1.2-0.5-1.8c-2.1,1.3-4.4,2.7-7,3c0.3,0.4,0.6,0.8,1,1.2
					c0.5-1.9,2.5-2.9,2.8-4.9C60.4,107.8,58.5,107.3,58.3,108.5"/>
				<path class="st7" d="M59.8,119.8c0.1,0.6,0.4,2.3-0.4,2.6c-0.9,0.3-1.9,0.3-2.9,0.4c-1.1,0.2-0.8,1.6,0,1.9
					c3.8,1.5,8,2.3,12.1,2.6c1,0.1,1.4-1.4,0.5-1.8c-1.7-0.8-3.6-1.3-4.8-2.8c-1.5-2-1.6-5.1-1.6-7.6c0-1.3-2-1.3-2,0
					c0,2.8,0.3,5.6,1.6,8.1c1.2,2.3,3.6,2.9,5.8,4c0.2-0.6,0.3-1.2,0.5-1.8c-3.9-0.2-7.9-1.1-11.6-2.5v1.9c1.2-0.2,2.9-0.1,3.9-1
					c1.1-1,0.9-2.6,0.8-3.9C61.7,118.6,59.7,118.6,59.8,119.8"/>
				<path class="st7" d="M63.2,120.7c0.4-1.6,0.6-3.3,0.6-5c0-1.3-2-1.3-2,0c0,1.5-0.2,3-0.6,4.5C61,121.4,62.9,121.9,63.2,120.7"/>
				<path class="st8" d="M75.8,125.8c1-0.2,2-0.5,3-0.8c0.9-0.3,1.7-0.7,2.6-0.9c1.2-0.3,0.7-2.2-0.5-1.9c-0.9,0.2-1.7,0.6-2.6,0.9
					c-1,0.3-2,0.6-3,0.8C74,124.2,74.6,126.1,75.8,125.8"/>
				<path class="st8" d="M72.1,123.1c2.3,0.2,4.7-0.2,7-0.2c1.3,0,1.3-2,0-2c-2.3,0-4.7,0.3-7,0.2C70.8,121,70.8,123,72.1,123.1"/>
				<path class="st8" d="M126.5,125c0.4,0.9,0.5,1.8,0.7,2.7c0.2,1.1,1.9,0.8,1.9-0.3c0.1-1.4-0.2-2.8-0.3-4.1c-0.1-1.3-2-1.3-2,0
					c0,0.7,0,1.4,0.2,2c0.4,1.2,2.3,0.7,1.9-0.5c-0.2-0.5-0.2-1-0.2-1.5h-2c0.1,1.4,0.4,2.8,0.3,4.1c0.6-0.1,1.3-0.2,1.9-0.3
					c-0.2-1.1-0.4-2.2-0.9-3.2C127.7,122.8,126,123.8,126.5,125"/>
				<path class="st8" d="M77.5,154.5c0.3,0.3,0.5,0.4,0.9,0.4c0.5,0,1-0.5,1-1c0-0.5-0.4-1-1-1c-0.3,0,0.8,0.4,0.5,0.2
					c-0.4-0.4-1-0.4-1.4,0C77.1,153.4,77.1,154.1,77.5,154.5"/>
				<path class="st8" d="M78.4,154.8c0.2,0.1,0.4,0.3,0.5,0.5c0.1-0.4,0.2-0.9,0.4-1.3c-0.7,0.4-1.6,0.3-2.3,0.5
					c-1.2,0.3-0.7,2.2,0.5,1.9c1-0.2,1.9-0.2,2.8-0.7c0.4-0.3,0.7-0.9,0.4-1.3c-0.3-0.5-0.7-0.9-1.2-1.2
					C78.3,152.5,77.3,154.2,78.4,154.8"/>
				<path class="st9" d="M76.6,153.1c0.8,0.5,3,1.5,2.8,2.7c-0.2,1.2,1.7,1.8,1.9,0.5c0.5-2.5-1.9-3.8-3.7-5
					C76.5,150.8,75.5,152.5,76.6,153.1"/>
				<path class="st9" d="M108.8,117.2c1.6,0.3,3.2,0.6,4.8,1.1c1.2,0.4,1.7-1.5,0.5-1.9c-1.6-0.5-3.2-0.8-4.8-1.1
					C108.1,115.1,107.6,117,108.8,117.2"/>
				<path class="st9" d="M102.9,115.5c1.1,0,2.1,0,3.2,0.1c-0.1-0.6-0.2-1.3-0.3-1.9c-0.6,0.2-1.2,0.2-1.9,0.3
					c-1.1,0.2-0.8,1.9,0.3,1.9h3.7c1.3,0,1.3-2,0-2h-3.7c0.1,0.6,0.2,1.3,0.3,1.9c0.6-0.1,1.3-0.1,1.9-0.3c1.1-0.3,0.8-1.8-0.3-1.9
					c-1.1-0.1-2.1-0.1-3.2-0.1C101.6,113.5,101.6,115.5,102.9,115.5"/>
				<path class="st9" d="M97.1,114.1c2.3,0.1,4.4,0.9,6.5,1.5c1.2,0.4,1.7-1.5,0.5-1.9c-2.3-0.7-4.6-1.5-7.1-1.6
					C95.9,112,95.9,114,97.1,114.1"/>
				<path class="st10" d="M52.9,96.8h0.7c0.5,0,1-0.4,1-1c0-0.5-0.4-1-1-1h-0.7c-0.5,0-1,0.4-1,1C52,96.4,52.4,96.8,52.9,96.8"/>
				<path class="st10" d="M53.4,96.8c1.4,0.1,2.8,0.6,4.2,0.9c1.2,0.3,1.8-1.6,0.5-1.9c-1.6-0.3-3.1-0.8-4.7-0.9
					C52.2,94.8,52.2,96.7,53.4,96.8"/>
				<path class="st10" d="M52.5,100.2c0.7,1.3,1.4,2.6,2.1,4c0.2,0.5,2.3,4.6,1.5,5.1l1.2,0.2c-0.7-0.9-0.8-2.5-1.1-3.5
					c-0.4-1.3-0.2-2.5-0.7-3.7c-0.5-1.2-2.2-0.2-1.7,1c0.3,0.7,0,1.3,0.2,2c0.2,0.7,0.4,1.4,0.6,2.2c0.4,1.2,0.5,2.4,1.3,3.4
					c0.3,0.3,0.8,0.4,1.2,0.2c1.8-1.1,0.9-3.6,0.3-5.2c-0.8-2.3-2-4.4-3.2-6.5C53.6,98.1,51.9,99.1,52.5,100.2"/>
				<path class="st10" d="M119.8,73.3c5.5,5.9-14,14.7-31.2,14.7s-28.9-6.6-28.9-14.7c0-2,2.7-2.4,4.3-4.2
					c4.7-5.3,11.7-10.5,24.7-10.5c11.8,0,15.8,3.1,21.1,7.6C112.2,68.4,117.2,70.5,119.8,73.3"/>
				<path class="st10" d="M56.4,82.2c1.9,0.1,3.5-1.1,5.3-1.2l-1-1c0.1,1.2,0,2.4,0,3.6c0,1.2,0.3,2.4,0.3,3.6l1-1
					c-0.6,0-1-0.6-1.4-1v1.4c0,0,0,0,0,0.1c0.6-0.1,0.9-0.9,0.6-1.4C60.1,83.2,58.1,83.4,56.4,82.2c-1-0.8-2,0.9-1,1.6
					c1.3,0.9,3.3,0.8,4.1,2.3l0.6-1.4c-0.4,0.1-0.6,0.2-0.8,0.5c-0.4,0.4-0.4,1,0,1.4c0.8,0.9,1.5,1.5,2.8,1.6c0.5,0,1-0.5,1-1
					c0-1-0.3-2-0.3-3.1c-0.1-1.3,0.2-2.7,0-4c-0.1-0.5-0.4-1-1-1c-1.8,0.1-3.5,1.3-5.3,1.2C55.1,80.2,55.1,82.2,56.4,82.2"/>
				<path class="st10" d="M122.3,79.2c-0.6,0.6-0.8,1.1-0.9,1.9c0.3-0.3,0.7-0.7,1-1c-0.8,0-1.8,0.3-2.1,1.2
					c-0.2,0.9,0.2,1.7,0.8,2.3c0.2,0.3,0.6,0.3,1,0.3c0.5-0.1,0.9-0.5,1-1c0.3-1.2-1.6-1.8-1.9-0.5l0,0.1c0.1-0.1,0.2-0.3,0.3-0.4
					c0.1,0,0.1-0.1,0.2-0.1c0.3,0.1,0.6,0.2,1,0.3c-0.1-0.2-0.2-0.3-0.3-0.5c0,0.1,0,0.2-0.1,0.3c-0.2,0.1-0.2,0.1,0,0
					c0.1,0,0.2,0,0.3,0c0.6,0,1-0.4,1-1c0-0.2,0.1-0.3,0.3-0.5C124.6,79.7,123.2,78.3,122.3,79.2"/>
				<path class="st10" d="M122,81.6c3.4,6.2,1.5,13.5,2.5,20.2c0.2,1.3,2.1,0.7,1.9-0.5c-0.5-3.6,0.2-7.3-0.3-11
					c-0.5-3.4-0.7-6.7-2.4-9.7C123.1,79.5,121.4,80.5,122,81.6"/>
				<path class="st10" d="M125.9,103.7c0.6,0.7,1.6,0.9,2.5,0.6c0.5-0.2,0.8-0.7,0.7-1.2c-0.1-0.5-0.7-0.8-1.2-0.7
					c-0.1,0-0.2,0.1-0.3,0.1c0.3,0-0.3,0,0,0c-0.1,0-0.1,0-0.2,0c0.1,0,0.1,0,0,0c-0.1-0.1-0.1-0.1,0,0c0,0-0.1-0.1-0.1-0.1
					c-0.4-0.4-1-0.4-1.4,0C125.5,102.7,125.6,103.2,125.9,103.7"/>
				<path class="st10" d="M128.3,104.6c1.3,0,1.3-2,0-2C127.1,102.7,127.1,104.6,128.3,104.6"/>
				<path class="st10" d="M124.6,106.3c0,1.8,0.2,3.7,0.5,5.5c0.2,1.3,2.1,0.7,1.9-0.5c-0.3-1.6-0.4-3.3-0.5-5
					C126.5,105,124.6,105,124.6,106.3"/>
				<path class="st4" d="M67.1,153.5c3.1-0.5,6.3-0.8,9.3-0.1c1.2,0.3,1.8-1.6,0.5-1.9c-3.4-0.8-7-0.5-10.4,0.1
					C65.4,151.9,65.9,153.8,67.1,153.5"/>
				<path class="st11" d="M99.9,80c0.5,2.6-2.7,2.3-4.4,2.3c-2.1,0-4.5-0.2-6.3,0.9c-1.9,1.1-1.9,3.7-0.6,5.3
					c1.7,2.1,5.8,1.6,8.1,1.3c1.3-0.2,0.7-2.1-0.5-1.9c-1.7,0.3-7.1,0.8-6.4-2.2c0.4-1.7,3.6-1.4,4.8-1.4c3.4,0,8.3,0,7.3-4.8
					C101.5,78.2,99.6,78.7,99.9,80"/>
				<path class="st11" d="M101.4,90c1.8-0.2,5.8-0.5,5.9-3c0-0.6-0.5-0.9-1-1c-1-0.1-2,0.2-3,0.2c-0.6,0-1.2-0.8-1.7-1.2
					c-0.6-0.5-1.5-1.2-1-2.1c-0.6-0.1-1.2-0.2-1.8-0.2c0.4,1.2,0.9,2.3,1.1,3.6c0.2-0.4,0.3-0.7,0.5-1.1c-1.2,0.6-1.6,1.7-1.5,3
					c0.1,1.3,2.1,1.3,2,0c0-0.6,0-1,0.6-1.3c0.4-0.2,0.5-0.7,0.5-1.1c-0.2-1.2-0.6-2.4-1.1-3.6c-0.3-0.8-1.4-1-1.8-0.2
					c-1.2,2.3,0.6,3.9,2.2,5.3c1.7,1.4,3.3,0.6,5.2,0.8c-0.3-0.3-0.7-0.7-1-1c0-0.1-0.3,0.2-0.5,0.3c-0.3,0.2-0.7,0.2-1.1,0.3
					c-0.7,0.2-1.5,0.3-2.3,0.4C100.1,88.2,100.1,90.2,101.4,90"/>
				<path class="st11" d="M82.5,88.5c0.1-1,0-2-0.1-2.9c0-0.8,0.4-3.3,1.3-1.6c0.1-0.4,0.2-0.9,0.4-1.4c-1,0.6-1.5,1.5-0.9,2.7
					c0.6,1.2,2.2,1.5,2.9,2.5c0.6,0.8,1.7,0.5,1.8-0.5c0.2-2-1-3.2-2.8-3.7c-0.7-0.2-1.5,0.5-1.2,1.2c0.7,2,2.2,3.5,2.9,5.4
					c0.2-0.4,0.5-0.8,0.7-1.2c-1.7,0.3-3.1,1.5-4.7,1.7c-0.7-0.2-0.8-0.1-0.2,0.4c0.1-0.3,0.3-0.5,0.4-0.8c0.3-0.5,0.4-1.1,0.4-1.7
					c0-0.8-0.8-1.2-1.5-0.9c-1.2,0.6-1.8,1.9-2.2,3.1c-0.4,1.2,1.5,1.7,1.9,0.5c0.2-0.8,0.5-1.6,1.3-1.9c-0.5-0.3-1-0.6-1.5-0.9
					c0.1,1.3-2,3.1,0,3.9c2.3,0.9,4.4-1.2,6.6-1.5c0.5-0.1,0.9-0.8,0.7-1.2c-0.7-1.9-2.2-3.4-2.9-5.4l-1.2,1.2
					c1,0.3,1.5,0.7,1.4,1.8c0.6-0.2,1.2-0.3,1.8-0.5c-0.3-0.5-0.8-0.8-1.2-1.1c-0.4-0.3-0.7-0.5-1.1-0.8c-0.2-0.1-0.3-0.3-0.4-0.4
					c-0.2-0.2-0.2-0.3,0-0.2c0.5-0.3,0.6-0.9,0.4-1.4c-0.8-1.7-2.3-2.3-3.8-1c-1.9,1.6-0.8,4.5-1,6.5C80.4,89.8,82.3,89.8,82.5,88.5
					"/>
				<path class="st11" d="M83.2,82.8c1-0.3,1.9-0.4,2.9-0.8c1-0.4,0.4-1.8-0.5-1.8c-1,0-2.2,0.3-2.7,1.2c-0.7,1.1-0.1,2,0.9,2.7
					v-1.7c-1.5,0.8-2,2.3-2.4,3.9c-0.4,1.2,1.5,1.7,1.9,0.5c0.3-1,0.5-2.1,1.5-2.7c0.7-0.4,0.6-1.3,0-1.7c-0.3,0.1-0.3,0.1,0,0
					c0.2-0.1,0.5-0.1,0.8-0.1c-0.2-0.6-0.3-1.2-0.5-1.8c-0.7,0.3-1.6,0.3-2.4,0.6C81.5,81.2,82,83.1,83.2,82.8"/>
				<path class="st11" d="M112.2,107.3c1.1-2.6,0.6-5.5,1.9-8.2c0.4-0.9,1.4-1.5,1.8-2.5c0.4-0.9,0.4-2.7,1.3-3.3
					c1.2-0.9,3.7-0.3,5.1-0.4c1.3-0.1,2.4-0.7,2.8-2c0.2-0.8-0.5-1.3-1.2-1.2c-0.6,0.1-1.2,0.2-1.8,0.4c-1.2,0.4-0.7,2.3,0.5,1.9
					c0.6-0.2,1.2-0.3,1.8-0.4c-0.4-0.4-0.8-0.8-1.2-1.2c-0.3,1.1-3.5,0.6-4.4,0.6c-1.5,0-2.7,0.4-3.6,1.7c-0.5,0.8-0.6,1.8-0.9,2.7
					c-0.4,1.3-1.6,2.1-2.2,3.3c-1.2,2.6-0.7,5.5-1.8,8.1C109.8,108,111.7,108.5,112.2,107.3"/>
				<path class="st11" d="M116.7,86.3c-0.3,2.4,0,4.9-0.5,7.3c-0.4,2.1-2.7,3.3-3.7,5.1c-0.6,1.1,1.1,2.1,1.7,1c1-1.9,2.9-2.9,3.7-5
					c1-2.6,0.5-5.7,0.8-8.4C118.8,85,116.8,85,116.7,86.3"/>
				<path class="st11" d="M112.5,108.5c1.1-1.5,2.9-2.3,3.9-3.9c0.7-1.1-1-2.1-1.7-1c-1,1.6-2.9,2.4-3.9,3.9
					C110,108.5,111.7,109.5,112.5,108.5"/>
				<path class="st11" d="M68.7,85.8c2.5,2.8,3.3,6.2,3.7,9.8c0.1,0.7,0.2,1.4,0.2,2.2c0,0.6-0.5,1.1,0,0.9c-1,0.4-2.1,0.5-3.2,0.7
					c-2.1,0.4-3.5,1.8-3,4c0.5,2.1,3.2,3.6,5,4.4c0.5,0.2,1.3,0.1,1.4-0.6c0.3-1.8,0.4-3,2-4.2c0.9-0.6,1.5-1.3,1.8-2.4
					c0.2-0.6-0.3-1.2-1-1.2c-2.4,0-5,1.5-6.2,3.6c-1.3,2.2,0.8,5.6,3.4,4.1l-1.4-0.6c0.7,3.2,2.6,5.5,6.1,5.3
					c3.4-0.2,6.4-2.2,9.7-2.8c-0.3-0.5-0.6-1.1-1-1.6c-0.7,0.8-1.3,1.5-2.1,2.2c-1.3,1.1-2.1,0.9-2.8-0.7c-0.1,0.4-0.2,0.9-0.4,1.4
					c1.4-1,3.3-1.2,4.5-2.5c0.7-0.8,0-1.8-1-1.6c-1.6,0.2-2.3,1.5-3,2.8c0.4-0.2,0.7-0.3,1.1-0.5c-2.7-0.9-4.1-3.8-6.7-4.9
					c-0.4-0.2-0.9,0.1-1.1,0.5c-1.2,2.3,0.9,3.8,0.8,6c0.6-0.2,1.2-0.3,1.8-0.5c-1.6-2.8-2.4-5.8-3.2-9c-0.3-1.2-2.2-0.7-1.9,0.5
					c0.8,3.3,1.8,6.5,3.4,9.4c0.5,0.9,1.8,0.5,1.8-0.5c0-1.5-1.7-3.7-1.1-5c-0.4,0.2-0.7,0.3-1.1,0.5c2.6,1.1,3.9,3.9,6.7,4.9
					c0.4,0.1,0.9-0.1,1.1-0.5c0.4-0.8,0.7-1.8,1.8-1.9c-0.3-0.5-0.6-1.1-1-1.6c-1.1,1.1-2.9,1.3-4.1,2.2c-0.5,0.3-0.6,0.8-0.4,1.4
					c1.9,4.5,5.8,1.4,8-1.1c0.7-0.8,0-1.8-1-1.6c-2.5,0.5-4.7,1.6-7.1,2.3c-1.2,0.4-2.5,0.6-3.8,0.3c-1.6-0.4-2.1-2.3-2.5-3.7
					c-0.1-0.6-0.9-0.9-1.4-0.6c-0.8,0.5-0.8-0.8-0.7-1.2c0.2-0.6,0.9-1.2,1.4-1.6c0.9-0.6,2-1.2,3.1-1.2c-0.3-0.4-0.6-0.8-1-1.2
					c-0.4,1.3-1.9,1.6-2.7,2.7c-0.9,1.3-0.9,2.4-1.2,3.9l1.4-0.6c-1.7-0.7-6.7-3.9-2.5-4.8c1.4-0.3,3.7-0.2,4.3-1.8
					c0.8-2.2,0-5-0.3-7.2c-0.5-3-1.8-5.6-3.8-7.9C69.2,83.4,67.9,84.8,68.7,85.8"/>
				<path class="st11" d="M69.8,84.3v-0.4c0-0.5-0.4-1-1-1c-0.5,0-1,0.4-1,1v0.4c0,0.5,0.4,1,1,1C69.4,85.3,69.8,84.8,69.8,84.3"/>
			</g>
			<g class="st3">
				<defs>
					<rect id="SVGID_7_" x="20.6" y="52.7" width="146.4" height="146.4"/>
				</defs>
				<clipPath id="SVGID_8_">
					<use xlink:href="#SVGID_7_"  style="overflow:visible;"/>
				</clipPath>
				<path class="st12" d="M93.4,177.9c-4.3,0-7.1-0.9-7.1-0.9l5-16.5l10.8,16.2C99.3,177.5,96.3,177.9,93.4,177.9L93.4,177.9z"/>
				<path class="st12" d="M91.3,160.5l-5,16.5c0,0,6.9,2.3,15.8-0.3L91.3,160.5z"/>
				<path class="st13" d="M81.7,156c2.9,1.8,8.6,2.3,8.6,2.3l-3.6,2.4L81.7,156z"/>
				<path class="st13" d="M81.7,156l5.1,4.7l3.6-2.4C90.3,158.4,84.6,157.8,81.7,156"/>
				<polygon class="st14" points="90.3,158.4 91.3,160.5 86.7,160.8 				"/>
				<polygon class="st14" points="91.3,160.5 86.8,160.7 90.3,158.4 				"/>
				<path class="st15" d="M91.3,160.5l-1-2.1c1.7-0.1,2.6-0.3,2.6-0.3l3.1,2.5H91.3z"/>
				<path class="st15" d="M96,160.5l-3-2.4c0,0-0.9,0.3-2.6,0.3l1,2.1H96z"/>
				<path class="st16" d="M91.3,160.5l4.7,0l18.3,8.4c-0.1,0.1-8.1,6.9-12.2,7.8l0,0L91.3,160.5z"/>
				<path class="st16" d="M114.3,168.8c0,0-8.1,6.9-12.2,7.8l-10.8-16.2H96L114.3,168.8z"/>
				<path class="st17" d="M106,152.7l18.2,3.3c-2.5,6.1-9.9,12.8-10,12.9l0,0L106,152.7z"/>
				<path class="st17" d="M106,152.7l8.2,16.1c0,0,7.5-6.7,10-12.8L106,152.7z"/>
				<path class="st18" d="M96,160.5l2-3.9c0,0,3.8-1.2,8.1-3.9l8.3,16.2L96,160.5z"/>
				<path class="st18" d="M97.9,156.6c0,0,3.7-1.1,8.1-3.9l8.2,16.1L96,160.5L97.9,156.6z"/>
				<path class="st19" d="M112.7,153.9l14.9-15.7c0,0.1-0.6,12.9-3.4,17.8l0,0L112.7,153.9z"/>
				<path class="st19" d="M112.7,153.9l14.9-15.7c0,0-0.6,12.8-3.4,17.8L112.7,153.9z"/>
				<polygon class="st20" points="109.4,122.6 127.7,138.2 118.5,147.9 				"/>
				<polygon class="st20" points="109.4,122.6 118.5,147.9 127.7,138.2 				"/>
				<polygon class="st21" points="99.5,135.9 109.4,122.6 118.5,147.9 				"/>
				<polygon class="st21" points="99.5,135.9 109.4,122.6 118.5,147.9 				"/>
				<path class="st22" d="M115.6,117.9l10.3-1.3c0,0.1,1.7,5.8,1.7,8.8l0,0L115.6,117.9z"/>
				<path class="st22" d="M126,116.6c0,0,1.6,5.8,1.7,8.8l-12-7.6L126,116.6z"/>
				<path class="st23" d="M109.4,122.6c0,0,1.5-0.5,6.2-4.8l12.1,7.6l0,0L109.4,122.6z"/>
				<path class="st23" d="M109.4,122.6c0,0,1.4-0.5,6.2-4.7l12,7.6L109.4,122.6z"/>
				<path class="st24" d="M109.4,122.6l18.2,2.8c0.6,6.7,0,12.8,0,12.8l0,0L109.4,122.6z"/>
				<path class="st24" d="M127.7,138.2c0,0,0.6-6.1,0-12.8l-18.2-2.8L127.7,138.2z"/>
				<polygon class="st25" points="106,152.7 111.3,143.3 118.5,147.9 112.7,153.9 				"/>
				<polygon class="st25" points="106,152.7 111.3,143.3 118.5,147.9 112.7,153.9 				"/>
				<polygon class="st26" points="99.5,135.9 111.3,143.3 106,152.7 				"/>
				<polygon class="st26" points="99.5,135.9 106,152.7 111.3,143.3 				"/>
				<path class="st27" d="M125.9,103.3c0,0.1-0.3,8.1-0.2,9.3c0.1,1.2,0.3,4,0.3,4l-10.4,1.3L125.9,103.3z"/>
				<path class="st27" d="M125.9,103.3c0,0-0.3,8.1-0.2,9.3c0.1,1.2,0.3,4,0.3,4l-10.3,1.2L125.9,103.3z"/>
				<path class="st28" d="M97.1,119.5c2.4,2.7,7.6,3.1,10.5,3.1c1.1,0,1.9-0.1,1.9-0.1l-9.9,13.3L97.1,119.5z"/>
				<path class="st28" d="M97.1,119.5l2.4,16.4l9.9-13.3C109.4,122.6,100.5,123.4,97.1,119.5"/>
				<path class="st29" d="M94.9,141.3c0,0,2.9-0.3,4.2-2.1c0.6-0.9,0.7-2,0.4-3.3l4.7,12L94.9,141.3z"/>
				<path class="st29" d="M94.9,141.3c0,0,5.9-0.5,4.6-5.4l4.6,12L94.9,141.3z"/>
				<path class="st30" d="M86.3,177c-2.9-0.6-11.7-6.1-11.8-6.1l12.2-10.1l4.5-0.3L86.3,177L86.3,177z"/>
				<path class="st30" d="M74.5,170.9c0,0,8.8,5.5,11.8,6.1l5-16.5l-4.5,0.3L74.5,170.9z"/>
				<path class="st31" d="M74.5,170.9c-4-2.4-10.7-12.2-10.7-12.3l23,2.2L74.5,170.9L74.5,170.9z"/>
				<path class="st31" d="M63.8,158.5c0,0,6.6,9.9,10.7,12.3l12.2-10.1L63.8,158.5z"/>
				<path class="st32" d="M63.8,158.5c-2.1-3-3.6-12.2-3.6-12.3l14.8,13.3L63.8,158.5z"/>
				<path class="st32" d="M60.2,146.3c0,0,1.5,9.3,3.6,12.3l11.1,1L60.2,146.3z"/>
				<path class="st33" d="M74.9,159.6l-8-7.2l10.7,0c1.5,2.4,4,3.6,4,3.6l5.1,4.8L74.9,159.6z"/>
				<path class="st33" d="M77.7,152.4H67l8,7.2l11.8,1.2l-5.1-4.7C81.7,156,79.2,154.8,77.7,152.4"/>
				<polygon class="st34" points="60.2,146.3 57.9,134.6 66.3,141 67,152.4 				"/>
				<polygon class="st34" points="57.9,134.6 60.2,146.3 67,152.4 66.3,141 				"/>
				<polygon class="st35" points="67,152.4 66.3,141 77.7,152.4 				"/>
				<polygon class="st35" points="77.7,152.4 66.3,141 67,152.4 				"/>
				<polygon class="st36" points="70.6,125.5 81,137.2 74.9,149.7 				"/>
				<polygon class="st36" points="81,137.2 74.9,149.6 70.6,125.5 				"/>
				<polygon class="st37" points="66.3,141 70.6,125.5 74.9,149.7 				"/>
				<polygon class="st37" points="66.3,141 70.6,125.5 74.9,149.6 				"/>
				<polygon class="st38" points="57.9,134.6 70.6,125.5 66.3,141 				"/>
				<polygon class="st38" points="57.9,134.6 70.6,125.5 66.3,141 				"/>
				<polygon class="st39" points="55.8,123.5 70.6,125.5 57.9,134.6 				"/>
				<polygon class="st39" points="55.8,123.5 57.9,134.6 70.6,125.5 				"/>
				<polygon class="st40" points="85.2,153.2 95.4,152.7 90.3,158.4 				"/>
				<polygon class="st40" points="95.4,152.7 85.2,153.2 90.3,158.4 				"/>
				<path class="st41" d="M78.4,153.4c0.1,0,7.9-0.9,9.4-1c1.4-0.1,6.9-0.5,7.3-0.5h3.4c0.3,0,6.8,0.1,7.5,0.8c0,0,0,0,0,0
					c-0.4,0-4.2-0.2-7.2-0.2c-1.8,0-3,0.1-3.4,0.2l-10.3,0.5L78.4,153.4L78.4,153.4z"/>
				<path class="st41" d="M78.4,153.4c0,0,7.9-0.9,9.4-1c1.4-0.1,6.9-0.5,7.3-0.5h3.4c0,0,6.8,0.1,7.5,0.8c0,0-9.1-0.5-10.6,0
					l-10.3,0.5L78.4,153.4z"/>
				<path class="st42" d="M105,152.4c-0.1,0-6-0.5-7.9-0.5l-5.8-1.8c0,0,2.2-0.9,4.8-0.9c0.9,0,1.8,0.1,2.6,0.3L105,152.4L105,152.4
					z"/>
				<path class="st42" d="M91.3,150.2c0,0,3.9-1.5,7.4-0.5l6.3,2.8c0,0-5.9-0.5-7.9-0.5L91.3,150.2z"/>
				<path class="st43" d="M86,152.5l5.3-2.4l5.8,1.8C97,151.9,87.5,152.3,86,152.5L86,152.5z"/>
				<path class="st43" d="M86,152.5l5.3-2.4l5.8,1.8C97.1,151.9,87.5,152.3,86,152.5"/>
				<path class="st44" d="M78.4,153.4c0.1,0,6.2-4.1,8.6-4.1c0.1,0,0.2,0,0.3,0c2.1,0.5,3.9,0.9,3.9,0.9l-5.3,2.4L78.4,153.4
					L78.4,153.4z"/>
				<path class="st44" d="M78.4,153.4c0,0,6.8-4.6,8.9-4.1c2.1,0.5,3.9,0.9,3.9,0.9l-5.3,2.4L78.4,153.4z"/>
				<path class="st45" d="M77.7,152.4l-2.8-2.8l5-10.2l6.7,9.9c-2.9,0.5-8.1,4.1-8.2,4.1l0,0L77.7,152.4z"/>
				<path class="st45" d="M86.6,149.3l-6.7-9.9l-5,10.2l2.8,2.8l0.8,1C78.4,153.4,83.7,149.8,86.6,149.3"/>
				<polygon class="st46" points="79.9,139.4 83.5,140.3 88.1,141.6 90.3,141.9 86.6,149.3 				"/>
				<polygon class="st46" points="90.3,141.9 86.6,149.3 79.9,139.4 83.5,140.4 88.1,141.6 				"/>
				<path class="st47" d="M87.3,149.3l-0.7,0l3.7-7.4l6.5,7.4c-0.2,0-0.5,0-0.8,0c-1.9,0-4.8,0.9-4.8,0.9l0,0L87.3,149.3z"/>
				<path class="st47" d="M96.8,149.3l-6.5-7.4l-3.7,7.4h0.7l3.9,0.9C91.3,150.2,94.9,149,96.8,149.3"/>
				<path class="st48" d="M98.7,149.6c0,0-0.7-0.3-1.9-0.3l-6.5-7.4l4.6-0.6l9.3,6.6l1.9,4.9L98.7,149.6z"/>
				<path class="st48" d="M90.3,141.9l4.6-0.6l9.2,6.6l1.9,4.8l-7.3-3.1c0,0-0.7-0.3-1.9-0.3L90.3,141.9z"/>
				<path class="st49" d="M96.6,140.1c-1.5,0-3.9-0.2-3.9-0.2c0.8-1,1.7-1.5,2.6-1.5c1.5,0,2.5,1.3,2.6,1.5l0,0l0,0
					C97.9,140,97.4,140.1,96.6,140.1L96.6,140.1z"/>
				<path class="st49" d="M92.7,139.9c0,0,5.3,0.4,5.2,0C97.8,139.5,95.3,136.7,92.7,139.9"/>
				<path class="st50" d="M82.8,140.2l0.1-0.2c0.6-0.6,1.3-0.9,2-0.9c1.6,0,2.8,1.5,2.8,1.5l-0.5,0.7L82.8,140.2z"/>
				<path class="st50" d="M87.7,140.7c0,0-2.3-3-4.8-0.6l-0.1,0.1l4.4,1.2L87.7,140.7z"/>
				<path class="st51" d="M81,137.2l1-14.6l2.8-5.6c0,0.1,1.1,9.7,0.8,10.7C85.4,128.7,81.1,137.1,81,137.2L81,137.2z"/>
				<path class="st51" d="M84.9,117l-2.8,5.6l-1,14.6c0,0,4.3-8.5,4.6-9.5C85.9,126.7,84.9,117,84.9,117"/>
				<path class="st52" d="M92.2,141.6c-1-1.1-4.7-1.9-4.7-1.9l-0.2-1.5l2.6-8.4l2.8,10L92.2,141.6L92.2,141.6z"/>
				<path class="st52" d="M89.9,129.9l-2.6,8.4l0.2,1.5c0,0,3.7,0.8,4.7,1.9l0.5-1.7L89.9,129.9z"/>
				<path class="st53" d="M88.1,141.6l-0.9-0.2l0.4-0.7l-0.2-1h0c0.1,0,3.7,0.7,4.7,1.9l-1.9,0.3L88.1,141.6z"/>
				<path class="st53" d="M87.2,141.4l0.5-0.7l-0.2-1c0,0,3.7,0.7,4.7,1.9l-1.9,0.3l-2.2-0.3L87.2,141.4z"/>
				<path class="st54" d="M92.7,139.9c1.6,0.1,2.8,0.2,3.7,0.2c1.2,0,1.4-0.1,1.5-0.1l0.3,0.1c-1.4,1-3.3,1.2-3.3,1.2l-2.7,0.4
					L92.7,139.9z"/>
				<path class="st54" d="M92.7,139.9l-0.5,1.7l2.7-0.4c0,0,2-0.2,3.3-1.2l-0.3-0.2C97.9,139.9,98.1,140.3,92.7,139.9"/>
				<path class="st55" d="M87.3,138.2l-1.7-10.6c0.2-1.5-0.8-10.6-0.8-10.7l1.4-5.5l4.1,3.9l-0.4,14.4L87.3,138.2L87.3,138.2z"/>
				<path class="st55" d="M86.2,111.5l-1.4,5.5c0,0,1,9.2,0.8,10.7l1.7,10.6l2.6-8.4l0.4-14.4L86.2,111.5z"/>
				<polygon class="st56" points="90.3,115.5 97.1,119.5 99.5,135.9 99.5,135.9 				"/>
				<polygon class="st56" points="97.1,119.5 90.3,115.5 99.5,135.9 				"/>
				<path class="st57" d="M108.5,119.2c1.1-0.3,2.7-1.9,2.8-1.9l4.3,0.5c-3,2.9-6.1,4.7-6.2,4.8l0,0L108.5,119.2z"/>
				<path class="st57" d="M115.6,117.9l-4.3-0.5c0,0-1.7,1.7-2.8,1.9l0.9,3.4C109.4,122.6,112.6,120.8,115.6,117.9"/>
				<path class="st58" d="M108,122.6c-1.7,0-4.3-0.1-6.9-0.8l3.7-1.6l4.7,2.4C109.4,122.6,108.9,122.6,108,122.6"/>
				<path class="st58" d="M101.1,121.8l3.7-1.6l4.7,2.4C109.4,122.6,105.2,122.9,101.1,121.8"/>
				<path class="st59" d="M104.7,120.2c0,0,2.8-0.5,3.8-1l0.9,3.4L104.7,120.2z"/>
				<path class="st59" d="M104.7,120.2c0,0,2.8-0.5,3.8-1l0.9,3.4L104.7,120.2z"/>
				<path class="st60" d="M99.7,118.3c0,0,1.2,1.7,5,2l-3.7,1.6L99.7,118.3z"/>
				<path class="st60" d="M99.7,118.2c0,0,1.2,1.7,5,2l-3.7,1.6L99.7,118.2z"/>
				<path class="st61" d="M101.1,121.8c0,0-2.4-0.6-4-2.3l2.6-1.3L101.1,121.8L101.1,121.8z"/>
				<path class="st61" d="M97.1,119.5l2.6-1.2l1.4,3.6C101.1,121.8,98.7,121.3,97.1,119.5"/>
				<path class="st62" d="M106.6,119.8c0.9-0.5,1.4-1.1,1.6-1.9c0.3-1.3-0.5-2.4-0.5-2.4l3.6,1.8c-1.3,1.4-2.7,1.9-2.8,1.9
					L106.6,119.8L106.6,119.8z"/>
				<path class="st62" d="M107.7,115.5c0,0,1.9,2.7-1.1,4.3l1.9-0.6c0,0,1.4-0.5,2.8-1.9L107.7,115.5z"/>
				<path class="st63" d="M104.6,120.2c-0.5,0-3-0.1-4.9-2c0,0,0.9-1.7,2.8-2.4c0,0-0.6,3.3,2.3,4.4
					C104.7,120.2,104.7,120.2,104.6,120.2"/>
				<path class="st63" d="M102.5,115.8c0,0-0.7,3.3,2.3,4.4c0,0-2.8,0.1-5-2C99.7,118.2,100.6,116.6,102.5,115.8"/>
				<path class="st64" d="M104.7,120.2c-3-1.3-2.3-4.4-2.3-4.4c1-0.4,2.1-0.6,3.2-0.6c1.2,0,2,0.3,2,0.3c0.6,0.9,0.8,1.8,0.6,2.5
					c-0.4,1.2-1.7,1.8-1.7,1.8L104.7,120.2L104.7,120.2z"/>
				<path class="st64" d="M107.7,115.5c0,0-2.3-0.8-5.2,0.3c0,0-0.8,3.1,2.3,4.4l1.9-0.4C106.6,119.8,109.7,118.4,107.7,115.5"/>
				<path class="st65" d="M99.1,118.6c0,0-0.3-0.3-0.3-0.7c0-0.2,0.1-0.4,0.3-0.5c0,0,0.1-0.1,0.2-0.1c0.7-0.6,2.7-2.6,6.2-2.6
					c2,0,4.2,0.7,6.4,2l1.9,1.1l-2.5-0.3l-3.6-1.8c0,0-0.8-0.2-2-0.2c-1.1,0-2.2,0.2-3.3,0.6c0,0-2,0.9-2.7,2.4L99.1,118.6
					L99.1,118.6z"/>
				<path class="st65" d="M99.1,118.6c0,0-0.6-0.7,0-1.2c0.6-0.5,4.9-5.4,12.8-0.7l1.9,1.1l-2.5-0.3l-3.6-1.8c0,0-2.3-0.7-5.2,0.3
					c0,0-2,0.8-2.8,2.4L99.1,118.6z"/>
				<polygon class="st66" points="95.9,107.9 101.6,111.3 95.6,112.4 				"/>
				<polygon class="st66" points="95.9,107.9 95.6,112.4 101.6,111.3 				"/>
				<polygon class="st67" points="95.9,107.9 99.7,107.4 101.6,111.3 				"/>
				<polygon class="st67" points="99.7,107.4 101.6,111.3 95.9,107.9 				"/>
				<polygon class="st68" points="99.7,107.4 106.1,106.9 106.1,110 101.6,111.3 				"/>
				<polygon class="st68" points="106.1,110 101.6,111.3 99.7,107.4 106.1,106.9 				"/>
				<polygon class="st69" points="106.1,106.9 111.6,107.4 106.1,110 				"/>
				<polygon class="st69" points="111.6,107.4 106.1,110 106.1,106.9 				"/>
				<path class="st70" d="M114.8,109.4l-3.2-1.9c0,0,0,0,0,0c0.3,0,5.6,0.4,6.6,2.5l0,0L114.8,109.4z"/>
				<path class="st70" d="M118.2,110l-3.4-0.6l-3.2-1.9C111.6,107.4,117.2,107.8,118.2,110"/>
				<polygon class="st71" points="113.8,117.7 112.1,109.6 114.8,109.4 118.2,109.9 119.8,111.9 115.6,117.9 				"/>
				<polygon class="st71" points="112.1,109.6 113.8,117.7 115.6,117.9 119.8,111.9 118.2,110 114.8,109.4 				"/>
				<path class="st72" d="M113.8,117.7c-4.3-2.8-7.3-3.1-8.4-3.1c-0.4,0-0.6,0-0.6,0l1.3-4.6l6-0.4L113.8,117.7L113.8,117.7z"/>
				<path class="st72" d="M106.1,110l-1.3,4.6c0,0,3.4-0.6,9,3.1l-1.7-8.1L106.1,110z"/>
				<polygon class="st73" points="95.6,112.4 101.6,111.3 106.1,110 104.7,114.6 				"/>
				<polygon class="st73" points="95.6,112.4 104.7,114.6 106.1,110 101.6,111.3 				"/>
				<path class="st74" d="M95.6,112.4l9.1,2.2c0,0-3.4,0.1-6,3.3l0,0L95.6,112.4z"/>
				<path class="st74" d="M98.7,117.9l-3.1-5.4l9.1,2.2C104.7,114.6,101.3,114.6,98.7,117.9"/>
				<polygon class="st75" points="90.3,115.5 95.6,112.4 98.8,117.8 99.1,118.5 97.1,119.5 				"/>
				<polygon class="st75" points="90.3,115.5 95.6,112.4 98.7,117.9 99.1,118.6 97.1,119.5 				"/>
				<path class="st76" d="M72.1,121.8l6.3,2.1c-3.7,1.4-7.7,1.6-7.7,1.6l0,0L72.1,121.8z"/>
				<path class="st76" d="M72.1,121.8l-1.5,3.7c0,0,4-0.2,7.7-1.6L72.1,121.8z"/>
				<path class="st77" d="M72.1,121.8c0.4,0,0.8,0.1,1.2,0.1c2.8,0,6.6-1,6.6-1l-1.6,3.1L72.1,121.8z"/>
				<path class="st77" d="M79.9,120.9c0,0-5.1,1.3-7.8,0.9l6.2,2.1L79.9,120.9z"/>
				<path class="st78" d="M76,121.7c-0.1,0-0.2,0-0.2,0c0.6-0.4,1.1-0.8,1.2-1.4c0.4-1.2-0.4-2.5-0.4-2.6c2.3,0.2,3.8,1.6,3.8,1.6
					c0.2,0.6,0.2,1.1,0,1.4c-0.2,0.3-0.5,0.3-0.5,0.3C77.5,121.6,76.4,121.7,76,121.7z"/>
				<path class="st78" d="M76.7,117.7c0,0,1.5,2.7-0.9,4c0,0,0.7,0.1,4.1-0.7c0,0,1-0.1,0.5-1.7C80.4,119.2,78.9,117.9,76.7,117.7"
					/>
				<path class="st79" d="M72.1,121.8c0,0-1.9-0.2-2.8-1.8c-0.2-0.3,0.8-0.9,0.9-0.9c0,0,1,2.3,3.5,2.8l0,0L72.1,121.8z"/>
				<path class="st79" d="M69.3,120c-0.2-0.3,0.8-0.9,0.8-0.9s1,2.3,3.4,2.8l-1.5-0.1C72.1,121.8,70.2,121.7,69.3,120"/>
				<path class="st80" d="M79.9,120.9c0.3-0.1,0.4-0.2,0.5-0.4c0.3-0.5-0.1-1.3-0.1-1.3l4.4-2.3l-2.8,5.6L79.9,120.9z"/>
				<path class="st80" d="M84.9,117l-4.4,2.2c0,0,0.6,1.4-0.5,1.7l2.1,1.7L84.9,117z"/>
				<polygon class="st81" points="79.9,120.9 82,122.6 78.3,124 				"/>
				<polygon class="st81" points="78.3,123.9 79.9,120.9 82,122.6 				"/>
				<path class="st82" d="M80.4,119.2c-0.6-0.7-2.1-1.2-2.1-1.2l-1.2-3.9c0.8-0.2,1.6-0.3,2.3-0.3c4.3,0,5.4,3.1,5.4,3.1L80.4,119.2
					L80.4,119.2z"/>
				<path class="st82" d="M77.2,114.2l1.2,3.9c0,0,1.5,0.5,2.1,1.2l4.4-2.2C84.9,117,83.5,112.8,77.2,114.2"/>
				<path class="st83" d="M76.6,110.2L81,114c0,0,0,0,0,0c-0.1,0-0.7-0.1-1.6-0.1c-0.8,0-1.5,0.1-2.3,0.3l0,0L76.6,110.2z"/>
				<path class="st83" d="M76.6,110.2L81,114c0,0-1.6-0.4-3.8,0.1L76.6,110.2z"/>
				<polygon class="st84" points="72.4,114.2 76.6,110.2 77.2,114.2 				"/>
				<polygon class="st84" points="72.4,114.2 76.6,110.2 77.2,114.2 				"/>
				<path class="st85" d="M68.8,110.6c0.8-0.4,5.3-0.4,7.2-0.4c0.4,0,0.6,0,0.6,0l-4.1,4L68.8,110.6z"/>
				<path class="st85" d="M68.8,110.6l3.6,3.6l4.1-4C76.6,110.2,69.8,110.1,68.8,110.6"/>
				<polygon class="st86" points="68.8,110.5 72.4,114.1 66.9,114.6 				"/>
				<polygon class="st86" points="67,114.6 72.4,114.2 68.8,110.6 				"/>
				<path class="st87" d="M64.2,112.2c0.9-0.5,4.6-1.6,4.6-1.6l-1.9,4.1L64.2,112.2z"/>
				<path class="st87" d="M64.2,112.2l2.7,2.4l1.9-4C68.8,110.6,65.2,111.7,64.2,112.2"/>
				<path class="st88" d="M62.8,114.8c0.3-0.2,1.5-2.6,1.5-2.6l2.7,2.4L62.8,114.8L62.8,114.8z"/>
				<path class="st88" d="M62.8,114.8c0.3-0.2,1.5-2.6,1.5-2.6l2.7,2.4L62.8,114.8z"/>
				<path class="st89" d="M69.3,120c0,0,0-0.1,0.1-0.2l3-5.7l4.7,0l1.2,3.9l-1.7-0.4c-0.7-0.1-1.4-0.1-2-0.1c-2.4,0-3.3,0.7-3.3,0.7
					c-1.2,0.8-1.7,1.3-1.9,1.6l0,0L69.3,120L69.3,120z"/>
				<path class="st89" d="M72.4,114.2l-3.2,5.9c0,0,0-0.5,2.1-1.8c0,0,1.4-1.1,5.3-0.6l1.7,0.4l-1.2-3.9H72.4z"/>
				<polygon class="st90" points="67,114.6 72.4,114.1 69.3,120.1 				"/>
				<polygon class="st90" points="67,114.6 69.3,120 72.4,114.2 				"/>
				<path class="st75" d="M63.7,124.6l5.6-4.6c0,0,0.7,1.6,2.8,1.8l-1.5,3.7L63.7,124.6z"/>
				<path class="st75" d="M63.7,124.6l5.6-4.5c0,0,0.7,1.6,2.8,1.8l-1.5,3.7L63.7,124.6z"/>
				<polygon class="st91" points="55.8,123.5 62.8,114.8 63.7,124.6 				"/>
				<polygon class="st91" points="55.8,123.5 62.8,114.8 63.7,124.6 				"/>
				<polygon class="st92" points="56.5,111.5 64.2,112.1 62.8,114.8 55.8,123.5 				"/>
				<polygon class="st92" points="56.5,111.5 55.8,123.5 62.8,114.8 64.2,112.2 				"/>
				<path class="st93" d="M84.8,117c-0.8-2.3-3.8-3-3.8-3l-4.4-3.9l9.7,1.4L84.8,117L84.8,117z"/>
				<path class="st93" d="M86.2,111.5l-9.7-1.4L81,114c0,0,3,0.7,3.8,3L86.2,111.5z"/>
				<polygon class="st94" points="76.6,110.2 83.8,80.1 95.9,107.9 86.2,111.6 				"/>
				<polygon class="st94" points="83.8,80.1 76.6,110.2 86.2,111.5 95.9,107.9 				"/>
				<path class="st95" d="M83.8,80.1c3.1-1,8.3-1.2,12.1-1.2c2.9,0,5.2,0.1,5.2,0.1l-1.4,28.4l-3.8,0.5L83.8,80.1z"/>
				<path class="st95" d="M101.1,79c0,0-11.8-0.7-17.3,1.1l12.1,27.8l3.8-0.4L101.1,79z"/>
				<path class="st96" d="M118.2,110c-1.4-2.2-6.6-2.5-6.6-2.5l6.9-22c2.9,2.8,7.4,17.7,7.4,17.8l-6.1,8.6L118.2,110z"/>
				<path class="st96" d="M118.5,85.5l-6.9,22c0,0,5.2,0.3,6.6,2.5l1.6,1.9l6.1-8.6C125.9,103.3,121.4,88.4,118.5,85.5"/>
				<path class="st97" d="M101.1,79c0.1,0,9.5,2,17.4,6.4l-6.9,22L101.1,79z"/>
				<path class="st97" d="M101.1,79c0,0,9.4,2,17.4,6.4l-6.9,22L101.1,79z"/>
				<polygon class="st98" points="106.1,106.9 99.7,107.5 101.1,79 111.6,107.5 				"/>
				<polygon class="st98" points="99.7,107.4 106.1,106.9 111.6,107.4 101.1,79 				"/>
				<path class="st99" d="M69.7,83.5c4.8-2,14-3.4,14.1-3.4l-7.2,30.1h0L69.7,83.5z"/>
				<path class="st99" d="M69.7,83.5l6.9,26.6l7.2-30.1C83.8,80.1,74.5,81.5,69.7,83.5"/>
				<polygon class="st100" points="61.8,87.3 69.7,83.5 76.6,110.2 76.6,110.2 				"/>
				<polygon class="st100" points="61.8,87.3 76.6,110.2 69.7,83.5 				"/>
				<path class="st101" d="M56.5,111.6l1-15.2l19.1,13.8l-0.1,0c-0.7,0-6.5,0-7.7,0.4l-4.6,1.6L56.5,111.6z"/>
				<path class="st101" d="M56.5,111.5l1-15.2l19.1,13.8c0,0-6.5,0-7.7,0.4l-4.6,1.6L56.5,111.5z"/>
				<polygon class="st102" points="57.5,96.4 61.8,87.3 76.6,110.2 76.6,110.2 				"/>
				<polygon class="st102" points="61.8,87.3 57.5,96.3 76.6,110.2 				"/>
				<path class="st103" d="M129.1,139.9c-0.9,0-1.5-0.2-1.5-0.2l0.1-1.5l0.2-5l6.8-4.2l0,3c0,0.4-0.2,0.6-0.4,1
					c-0.2,0.4-0.5,0.9-0.6,1.6c-0.1,1.4-0.8,3.6-0.8,3.6C131.8,139.6,130.2,139.9,129.1,139.9C129.1,139.9,129.1,139.9,129.1,139.9"
					/>
				<path class="st103" d="M127.6,139.7c0,0,3.2,0.9,5.4-1.5c0,0,0.7-2.2,0.8-3.6c0.1-1.4,0.9-1.8,0.9-2.6v-3l-6.8,4.2l-0.2,5
					L127.6,139.7z"/>
				<path class="st104" d="M129.7,132.1L129.7,132.1c-0.3-0.4,3-9.3,3.2-9.7l1.1,3.5l0.7,3.1L129.7,132.1L129.7,132.1L129.7,132.1z"
					/>
				<path class="st104" d="M132.9,122.4c0,0-3.8,10.1-3.2,9.7c0.6-0.4,4.9-3,4.9-3l-0.7-3.1L132.9,122.4z"/>
				<path class="st105" d="M130.3,129.9c-0.2,0-0.9-4.7-1-5.6l2.4,1.6C131.6,126,130.4,129.5,130.3,129.9L130.3,129.9z"/>
				<path class="st105" d="M129.2,124.3c0,0,0.9,6,1,5.6s1.4-3.9,1.4-3.9L129.2,124.3z"/>
				<path class="st106" d="M127.9,133.3c0-0.1,0.1-9.3-0.5-10.1l1.8,1.2l1,5.6c0,0-0.4,1.4-0.5,2.2L127.9,133.3L127.9,133.3z"/>
				<path class="st106" d="M127.4,123.1l1.8,1.2l1,5.6c0,0-0.4,1.3-0.5,2.2l-1.9,1.1C127.9,133.3,128,124,127.4,123.1"/>
				<polygon class="st107" points="127.4,123.1 133.2,117.1 132.9,122.4 131.6,126 				"/>
				<polygon class="st107" points="133.3,117.1 127.4,123.1 131.6,125.9 132.9,122.4 				"/>
				<path class="st108" d="M128.8,115.5c1.1-1,1.9-1.5,2.6-1.5c1.7,0,1.8,3.1,1.8,3.1l-5.9,6.1L128.8,115.5z"/>
				<path class="st108" d="M128.8,115.5l-1.4,7.6l5.8-6C133.3,117.1,133.2,111.3,128.8,115.5"/>
				<path class="st109" d="M125.9,103.3L123,77.5c5,2.5,5.8,8.6,5.8,8.7c2.2,5.3,0.9,17.1,0.9,17.2l0,0H125.9z"/>
				<path class="st109" d="M123.1,77.5l2.8,25.9h3.8c0,0,1.4-11.8-0.9-17.2C128.8,86.1,128.1,80,123.1,77.5"/>
				<path class="st110" d="M125.9,103.3c0-0.1-4.4-14.8-7.4-17.8l-3.6-1.8l8.2-6.2L125.9,103.3L125.9,103.3z"/>
				<path class="st110" d="M114.9,83.7l8.2-6.2l2.8,25.9c0,0-4.3-14.8-7.4-17.8L114.9,83.7z"/>
				<path class="st111" d="M114.9,83.7c-4.4-2.3-13.7-4.6-13.8-4.6l4.2-9.4L114.9,83.7L114.9,83.7z"/>
				<path class="st111" d="M105.3,69.7l-4.2,9.3c0,0,9.4,2.3,13.8,4.6L105.3,69.7z"/>
				<path class="st112" d="M89.6,57l4.8,21.9c-0.1,0-8.6,0.1-10.7,1.2l0,0L89.6,57z"/>
				<path class="st112" d="M83.8,80.1L89.6,57l4.8,21.9C94.4,78.9,85.8,79,83.8,80.1"/>
				<polygon class="st113" points="94.4,78.9 92.4,69.8 98.6,61.9 101.1,79.1 				"/>
				<polygon class="st113" points="98.6,61.9 92.4,69.8 94.4,78.9 101.1,79 				"/>
				<path class="st114" d="M89.6,57c0.1,0,5.3,1.8,7.1,2.1c1,0.1,2.1,0.2,2.9,0.2h0c0.8,0,1.4,0,1.4,0l-2.5,2.7l-6.2,7.9L89.6,57z"
					/>
				<path class="st114" d="M101.1,59.2l-2.5,2.6l-6.2,7.9L89.6,57c0,0,5.2,1.8,7.1,2.1C98.7,59.4,101.1,59.2,101.1,59.2"/>
				<path class="st115" d="M98.6,61.9l2.5-2.6c0.1,0,4.7,0.4,9.1,3.7l-4.9,6.8l-4.2,9.4L98.6,61.9z"/>
				<path class="st115" d="M110.2,62.9l-4.9,6.8l-4.2,9.3l-2.5-17.2l2.5-2.6C101.1,59.2,105.8,59.6,110.2,62.9"/>
				<path class="st116" d="M115.9,68.6c0.3,0.3,7.1,8.1,7.1,8.9c0,0.9-7.8,6-8.2,6.2l0,0L115.9,68.6z"/>
				<path class="st116" d="M116,68.6l-1,15.1c0,0,8.2-5.4,8.2-6.2C123.1,76.6,116,68.6,116,68.6"/>
				<polygon class="st117" points="105.3,69.7 110.2,62.9 116,68.5 114.9,83.7 				"/>
				<polygon class="st117" points="110.2,62.9 116,68.6 114.9,83.7 105.3,69.7 				"/>
				<path class="st118" d="M77.2,58.1c1.5-0.6,12.4-1.1,12.5-1.1l-5.8,23.1L77.2,58.1z"/>
				<path class="st118" d="M77.2,58.1l6.6,22L89.6,57C89.6,57,78.7,57.5,77.2,58.1"/>
				<path class="st113" d="M67.4,61.9c0.5-0.5,6-3.8,9.5-3.8c0.1,0,0.2,0,0.3,0l6.6,22l0,0L67.4,61.9z"/>
				<path class="st113" d="M67.4,61.9c0.6-0.5,6.3-4,9.7-3.8l6.6,22L67.4,61.9z"/>
				<path class="st119" d="M67.4,61.9l16.4,18.2c-0.1,0-11.6,1.9-14.1,3.4l0,0L67.4,61.9z"/>
				<path class="st119" d="M69.7,83.5l-2.3-21.6l16.4,18.2C83.8,80.1,72.2,82,69.7,83.5"/>
				<path class="st113" d="M61.4,66.3c0,0,4.1-4.1,6.1-4.4l2.3,21.7l-7.9,3.8L61.4,66.3z"/>
				<path class="st113" d="M61.8,87.3l-0.4-21c0,0,4.1-4.1,6.1-4.4l2.3,21.6L61.8,87.3z"/>
				<polygon class="st112" points="54.4,81.8 61.6,79.5 61.8,87.3 				"/>
				<polygon class="st112" points="54.5,81.7 61.8,87.3 61.6,79.5 				"/>
				<path class="st112" d="M54.4,81.7c0.4-2.7,6.8-15.3,6.9-15.5l0.3,13.2L54.4,81.7L54.4,81.7z"/>
				<path class="st112" d="M61.4,66.3c0,0-6.5,12.8-6.9,15.5l7.2-2.2L61.4,66.3z"/>
				<path class="st110" d="M52.1,95.6c0-0.1,0.1-4.2,0.4-6.4c0.3-2.1,2-7.4,2-7.4l7.3,5.6l-4.3,9.1L52.1,95.6z"/>
				<path class="st110" d="M52.1,95.6c0,0,0.1-4.2,0.4-6.4c0.3-2.2,2-7.4,2-7.4l7.3,5.6l-4.3,9L52.1,95.6z"/>
				<polygon class="st109" points="52.1,95.6 57.5,96.3 56.5,111.5 56.5,111.5 				"/>
				<polygon class="st109" points="56.5,111.5 52.1,95.6 57.5,96.3 				"/>
				<path class="st120" d="M55.8,123.5c0-0.2-4.7-23-3.7-28l4.4,16L55.8,123.5L55.8,123.5z"/>
				<path class="st120" d="M55.8,123.5c0,0-4.7-22.9-3.7-28l4.4,16L55.8,123.5z"/>
				<path class="st121" d="M60.2,146.3c0,0-3.1-0.3-4.4-4.9c0,0-1-2.1-1-3.1l4.5,3.4L60.2,146.3L60.2,146.3z"/>
				<path class="st121" d="M60.2,146.3c0,0-3.1-0.2-4.4-4.9c0,0-1-2.1-1-3.1l4.5,3.4L60.2,146.3z"/>
				<polygon class="st122" points="54.8,138.3 57,129.9 59.3,141.7 				"/>
				<polygon class="st122" points="57,129.9 54.8,138.2 59.3,141.6 				"/>
				<path class="st123" d="M54.8,138.2c0-0.1,0.1-6,0-7.3c-0.1-1.3-1.2-6-1.2-6l3.5,5L54.8,138.2L54.8,138.2z"/>
				<path class="st123" d="M53.5,124.9c0,0,1.2,4.7,1.2,6.1c0.1,1.3,0,7.3,0,7.3l2.2-8.3L53.5,124.9z"/>
				<path class="st124" d="M53.5,124.9c-0.9-0.8-1.3-1.6-1.2-2.4c0.1-0.8,0.7-1.3,1.2-1.6c0.1-0.1,0.3-0.1,0.4-0.1
					c0.8,0,1.5,1,1.5,1l0.3,1.7l1.2,6.4l0,0L53.5,124.9z"/>
				<path class="st124" d="M55.4,121.8c0,0-0.9-1.4-1.9-0.9s-2.1,2.1,0,4l3.4,5l-1.2-6.4L55.4,121.8z"/>
				<polygon class="st120" points="125.9,116.6 125.7,112.6 125.9,103.3 129.7,103.3 128.9,115.5 127.4,123.1 127.4,123.1 				"/>
				<polygon class="st120" points="129.7,103.3 128.8,115.5 127.4,123.1 126,116.6 125.7,112.6 125.9,103.3 				"/>
				<path class="st125" d="M92.9,158.1c0,0,3.9-0.8,5-1.5l-2,3.9L92.9,158.1z"/>
				<path class="st125" d="M97.9,156.6l-2,3.9l-3-2.4C92.9,158,96.8,157.3,97.9,156.6"/>
				<path class="st126" d="M90.3,158.4c-0.1,0-5.6-0.5-8.6-2.4c0,0-2.6-2-3.3-2.6c0.1,0,5.6-0.2,6.8-0.2L90.3,158.4L90.3,158.4z"/>
				<path class="st126" d="M78.4,153.4c0,0,5.6-0.2,6.7-0.2l5.1,5.2c0,0-5.5-0.5-8.6-2.4C81.7,156,79.1,154,78.4,153.4"/>
				<path class="st127" d="M95.4,152.7c0.4-0.1,1.5-0.2,3.3-0.2c3.1,0,7.2,0.2,7.3,0.2c-8.8,5.5-15.7,5.7-15.7,5.7l0,0L95.4,152.7z"
					/>
				<path class="st127" d="M106,152.7c0,0-9.3-0.5-10.6,0l-5.1,5.7C90.3,158.4,97.1,158.2,106,152.7"/>
				<path class="st127" d="M95.4,152.7c0.4-0.1,1.5-0.2,3.3-0.2c3.1,0,7.2,0.2,7.3,0.2c-8.8,5.5-15.7,5.7-15.7,5.7l0,0L95.4,152.7z"
					/>
				<path class="st127" d="M106,152.7c0,0-9.3-0.5-10.6,0l-5.1,5.7C90.3,158.4,97.1,158.2,106,152.7"/>
				<polygon class="st128" points="86.2,111.5 95.9,107.9 95.6,112.4 90.3,115.5 				"/>
				<polygon class="st128" points="86.2,111.5 95.9,107.9 95.6,112.4 90.3,115.5 				"/>
				<polygon class="st129" points="106.1,110 111.6,107.4 114.8,109.4 106.1,110 				"/>
				<polygon class="st129" points="114.8,109.4 111.6,107.4 106.1,110 				"/>
				<polygon class="st130" points="62.7,114.8 67,114.6 69.3,120 63.7,124.6 				"/>
				<polygon class="st130" points="62.8,114.8 63.7,124.6 69.3,120 67,114.6 				"/>
				<path class="st131" d="M70.6,125.5c5.4-0.3,11.4-2.9,11.4-2.9l-1,14.6L70.6,125.5z"/>
				<path class="st131" d="M82,122.6c0,0-6,2.6-11.4,2.9L81,137.2L82,122.6z"/>
				<polygon class="st132" points="103.8,117.5 104.1,115.8 105.7,115.5 106.6,116.6 106,118.3 				"/>
				<polygon class="st132" points="106,118.2 103.8,117.5 104.2,115.8 105.7,115.5 106.6,116.6 				"/>
				<polygon class="st63" points="105.4,116.6 106.6,115.5 107.4,116.6 107.1,117.3 				"/>
				<polygon class="st63" points="105.4,116.6 106.6,115.5 107.4,116.6 107.1,117.3 				"/>
				<path class="st65" d="M66.1,120.7l1.8-1.2c2.4-1.8,4.8-2.7,7.1-2.7c2.9,0,4.9,1.5,5.5,2c0.1,0.1,0.1,0.1,0.2,0.1
					c0.2,0.1,0.3,0.3,0.3,0.5c0.1,0.4-0.2,0.7-0.2,0.8l-0.7-0.2c-0.9-1.5-3-2.1-3-2.1c-0.8-0.1-1.7-0.2-2.4-0.2
					c-1.8,0-2.8,0.4-2.8,0.4l-3.4,2.2L66.1,120.7L66.1,120.7z"/>
				<path class="st65" d="M80.8,120c0,0,0.6-0.8-0.1-1.2c-0.7-0.5-5.4-4.8-12.8,0.6l-1.8,1.2l2.4-0.6l3.4-2.2c0,0,1.9-0.8,5.2-0.2
					c0,0,2.1,0.6,3,2.1L80.8,120z"/>
				<path class="st133" d="M87.7,140.7c-0.8-1-1.7-1.5-2.6-1.5c-1.3,0-2.2,1-2.2,1l-2.9-0.8l5.7-11.8L87.7,140.7L87.7,140.7z"/>
				<path class="st133" d="M87.7,140.7l-2-13l-5.7,11.7l2.9,0.8C82.8,140.2,85.1,137.7,87.7,140.7"/>
				<path class="st134" d="M97.9,139.9c-0.9-1-1.7-1.5-2.6-1.5c-1.5,0-2.5,1.5-2.6,1.5l-2.8-10l0.4-14.4l9.2,20.4
					c0.9,2.8-1.2,4.2-1.3,4.2l0,0L97.9,139.9z"/>
				<path class="st134" d="M99.5,135.9l-9.2-20.4l-0.4,14.4l2.8,10c0,0,2.3-3.4,5.2,0l0.3,0.2C98.2,140,100.4,138.7,99.5,135.9"/>
				<g class="st135">
					<g>
						<defs>
							<rect id="SVGID_9_" x="97" y="113.1" width="16.3" height="3.9"/>
						</defs>
						<clipPath id="SVGID_10_">
							<use xlink:href="#SVGID_9_"  style="overflow:visible;"/>
						</clipPath>
						<path class="st136" d="M97.2,116.8L97.2,116.8c0,0,2-1.8,5-2.8c1.7-0.6,3.4-0.8,5.1-0.7c2.1,0.2,4,0.9,5.8,2.3l0,0
							c-1.8-1.3-3.7-2.1-5.8-2.3c-1.6-0.1-3.3,0.1-5.1,0.7C99.2,115.1,97.2,116.8,97.2,116.8z"/>
					</g>
				</g>
				<g class="st137">
					<g>
						<defs>
							<rect id="SVGID_11_" x="97" y="113.1" width="16.2" height="3.9"/>
						</defs>
						<clipPath id="SVGID_12_">
							<use xlink:href="#SVGID_11_"  style="overflow:visible;"/>
						</clipPath>
						<path class="st138" d="M97.2,116.8c0,0,8-7,15.9-1.2"/>
					</g>
				</g>
				<g class="st135">
					<g>
						<defs>
							<rect id="SVGID_13_" x="64.8" y="115.6" width="16.8" height="4.2"/>
						</defs>
						<clipPath id="SVGID_14_">
							<use xlink:href="#SVGID_13_"  style="overflow:visible;"/>
						</clipPath>
						<path class="st139" d="M65,119.6L65,119.6c0,0,2-1.8,5.1-2.9c1.8-0.7,3.5-1,5.2-0.9c2.1,0.1,4.2,0.7,6.1,1.8l0,0
							c-1.9-1.2-3.9-1.8-6-1.8c-0.1,0-0.2,0-0.3,0c-1.6,0-3.2,0.3-4.9,0.9C67,117.8,65,119.6,65,119.6z"/>
					</g>
				</g>
				<g class="st137">
					<g>
						<defs>
							<rect id="SVGID_15_" x="64.8" y="115.6" width="16.8" height="4.2"/>
						</defs>
						<clipPath id="SVGID_16_">
							<use xlink:href="#SVGID_15_"  style="overflow:visible;"/>
						</clipPath>
						<path class="st140" d="M65,119.6c0,0,8.1-7.1,16.4-2"/>
					</g>
				</g>
				<path class="st141" d="M73.6,121.9c-2.4-0.5-3.4-2.8-3.5-2.8c1.5-1.4,3.4-1.6,4.7-1.6c1.1,0,1.8,0.2,1.8,0.2
					c0.5,1,0.6,1.9,0.4,2.6c-0.3,1-1.2,1.4-1.2,1.4L73.6,121.9L73.6,121.9z"/>
				<path class="st141" d="M70.1,119.1c0,0,1,2.3,3.4,2.8l2.3-0.3c0,0,2.3-1.1,0.9-4C76.7,117.7,72.7,116.7,70.1,119.1"/>
				<polygon class="st132" points="73.6,120.2 72.7,118.3 74.2,117.6 75.8,118.9 74.9,120.2 				"/>
				<polygon class="st132" points="74.9,120.2 73.6,120.2 72.7,118.2 74.2,117.7 75.8,118.9 				"/>
				<polygon class="st63" points="75.1,119 74.5,118.3 75.8,117.8 76.3,119.6 				"/>
				<polygon class="st63" points="75.8,117.9 74.5,118.2 75.1,118.9 76.3,119.6 				"/>
			</g>
		</g>
	</g>
</g>
</svg>
