<?xml version="1.0" encoding="utf-8"?>
<!-- Generator: Adobe Illustrator 19.2.1, SVG Export Plug-In . SVG Version: 6.00 Build 0)  -->
<svg version="1.1" id="Layer_1" xmlns="http://www.w3.org/2000/svg" xmlns:xlink="http://www.w3.org/1999/xlink" x="0px" y="0px"
	 width="192px" height="234px" viewBox="0 0 192 234" style="enable-background:new 0 0 192 234;" xml:space="preserve">
<style type="text/css">
	.st0{fill:#F2F2F2;}
	.st1{fill:#D54339;}
	.st2{clip-path:url(#SVGID_2_);}
	.st3{clip-path:url(#SVGID_4_);fill:#FAC7B1;}
	.st4{clip-path:url(#SVGID_4_);fill:#E1A282;}
	.st5{clip-path:url(#SVGID_4_);fill:#543928;}
	.st6{clip-path:url(#SVGID_4_);fill:#ECB7A7;}
	.st7{clip-path:url(#SVGID_4_);fill:#EBBAA8;}
	.st8{clip-path:url(#SVGID_4_);fill:#EAAE90;}
	.st9{clip-path:url(#SVGID_4_);fill:#EDBA9B;}
	.st10{clip-path:url(#SVGID_4_);fill:#EFB9A2;}
	.st11{clip-path:url(#SVGID_4_);fill:#E5978F;}
	.st12{clip-path:url(#SVGID_4_);fill:#FCD7C1;}
	.st13{clip-path:url(#SVGID_4_);fill:#EEBEAF;}
	.st14{clip-path:url(#SVGID_4_);fill:#F7BEA8;}
	.st15{clip-path:url(#SVGID_4_);fill:#EFB89E;}
	.st16{clip-path:url(#SVGID_4_);fill:#F2BFB1;}
	.st17{clip-path:url(#SVGID_4_);fill:#513628;}
	.st18{clip-path:url(#SVGID_4_);fill:#CF937B;}
	.st19{clip-path:url(#SVGID_4_);fill:#3B291E;}
	.st20{clip-path:url(#SVGID_4_);fill:#F3968E;}
	.st21{clip-path:url(#SVGID_4_);fill:#825A3C;}
	.st22{clip-path:url(#SVGID_4_);fill:#563A26;}
	.st23{clip-path:url(#SVGID_4_);fill:#5F412C;}
	.st24{clip-path:url(#SVGID_4_);fill:#573D28;}
	.st25{clip-path:url(#SVGID_4_);fill:#4F331F;}
	.st26{clip-path:url(#SVGID_4_);fill:#69462C;}
	.st27{clip-path:url(#SVGID_4_);fill:#6C4836;}
	.st28{clip-path:url(#SVGID_4_);fill:#583A2A;}
	.st29{clip-path:url(#SVGID_4_);fill:#A16E52;}
	.st30{clip-path:url(#SVGID_4_);fill:#B38067;}
	.st31{clip-path:url(#SVGID_4_);fill:#91684A;}
	.st32{clip-path:url(#SVGID_4_);fill:#A77358;}
	.st33{clip-path:url(#SVGID_4_);fill:#B4805D;}
	.st34{clip-path:url(#SVGID_4_);fill:#A17252;}
	.st35{clip-path:url(#SVGID_4_);fill:#AB7152;}
	.st36{clip-path:url(#SVGID_4_);fill:#754F39;}
	.st37{clip-path:url(#SVGID_4_);fill:#563A25;}
	.st38{clip-path:url(#SVGID_4_);fill:#4E3223;}
	.st39{clip-path:url(#SVGID_4_);fill:#45362F;}
	.st40{clip-path:url(#SVGID_4_);fill:#9E6E50;}
	.st41{clip-path:url(#SVGID_4_);fill:#C79370;}
	.st42{clip-path:url(#SVGID_4_);fill:#D79075;}
	.st43{clip-path:url(#SVGID_4_);fill:#FDDAC2;}
	.st44{clip-path:url(#SVGID_4_);fill:#E8AD98;}
	.st45{clip-path:url(#SVGID_4_);fill:#F6C5AC;}
	.st46{clip-path:url(#SVGID_4_);fill:#F0BAA2;}
	.st47{clip-path:url(#SVGID_4_);fill:#FAC3A9;}
	.st48{clip-path:url(#SVGID_4_);fill:#EFBFAF;}
	.st49{clip-path:url(#SVGID_4_);fill:#ECBBA8;}
	.st50{clip-path:url(#SVGID_4_);fill:#E4B29C;}
	.st51{clip-path:url(#SVGID_4_);fill:#FACBBD;}
	.st52{clip-path:url(#SVGID_4_);fill:none;stroke:#FAC6B8;stroke-miterlimit:10;}
	.st53{clip-path:url(#SVGID_4_);fill:#FBCFBA;}
	.st54{clip-path:url(#SVGID_4_);fill:#FBCAAC;}
	.st55{clip-path:url(#SVGID_4_);fill:#FBC9B3;}
	.st56{clip-path:url(#SVGID_4_);fill:#F4BDA1;}
	.st57{clip-path:url(#SVGID_4_);fill:#BD7668;}
	.st58{clip-path:url(#SVGID_4_);fill:#A25E4F;}
	.st59{clip-path:url(#SVGID_4_);fill:#FBCAB7;}
	.st60{clip-path:url(#SVGID_4_);fill:#EEB2A0;}
	.st61{clip-path:url(#SVGID_4_);fill:#FAC8BA;}
	.st62{clip-path:url(#SVGID_4_);fill:#F8B5A6;}
	.st63{clip-path:url(#SVGID_4_);fill:#F4B39E;}
	.st64{clip-path:url(#SVGID_4_);fill:#F7AB9A;}
	.st65{clip-path:url(#SVGID_4_);fill:#C9806E;}
	.st66{clip-path:url(#SVGID_4_);fill:#E18E7E;}
	.st67{clip-path:url(#SVGID_4_);fill:#F3BAA1;}
	.st68{clip-path:url(#SVGID_4_);fill:#DCA896;}
	.st69{clip-path:url(#SVGID_4_);fill:#F8BEA8;}
	.st70{clip-path:url(#SVGID_4_);fill:#ECB09B;}
	.st71{clip-path:url(#SVGID_4_);fill:#D0947C;}
	.st72{clip-path:url(#SVGID_4_);fill:#DDA590;}
	.st73{clip-path:url(#SVGID_4_);fill:#FCD4C2;}
	.st74{clip-path:url(#SVGID_4_);fill:#FBC8B0;}
	.st75{clip-path:url(#SVGID_4_);fill:#CB9178;}
	.st76{clip-path:url(#SVGID_4_);fill:#EDB59A;}
	.st77{clip-path:url(#SVGID_4_);fill:#694B3E;}
	.st78{clip-path:url(#SVGID_4_);fill:#8F6356;}
	.st79{clip-path:url(#SVGID_4_);fill:#CFA69A;}
	.st80{clip-path:url(#SVGID_4_);fill:#E3D4D6;}
	.st81{clip-path:url(#SVGID_4_);fill:#D9C3BB;}
	.st82{clip-path:url(#SVGID_4_);fill:#6E756D;}
	.st83{clip-path:url(#SVGID_4_);fill:#CD9883;}
	.st84{clip-path:url(#SVGID_4_);fill:#B1816A;}
	.st85{clip-path:url(#SVGID_4_);fill:#B4846B;}
	.st86{clip-path:url(#SVGID_4_);fill:#B78B6F;}
	.st87{clip-path:url(#SVGID_4_);fill:#8B7C76;}
	.st88{clip-path:url(#SVGID_4_);fill:#AC7D62;}
	.st89{clip-path:url(#SVGID_4_);fill:#BC876E;}
	.st90{clip-path:url(#SVGID_4_);fill:#EBB49C;}
	.st91{clip-path:url(#SVGID_4_);fill:#E1AC90;}
	.st92{clip-path:url(#SVGID_4_);fill:#BA8970;}
	.st93{clip-path:url(#SVGID_4_);fill:#F3C0B1;}
	.st94{clip-path:url(#SVGID_4_);fill:#FBC9B6;}
	.st95{clip-path:url(#SVGID_4_);fill:#FBC9B2;}
	.st96{clip-path:url(#SVGID_4_);fill:#FBC7AB;}
	.st97{clip-path:url(#SVGID_4_);fill:#FCD0B4;}
	.st98{clip-path:url(#SVGID_4_);fill:#C28E72;}
	.st99{clip-path:url(#SVGID_4_);fill:#B48371;}
	.st100{clip-path:url(#SVGID_4_);fill:#A97B6B;}
	.st101{clip-path:url(#SVGID_4_);fill:#BC886D;}
	.st102{clip-path:url(#SVGID_4_);fill:#F6C7AE;}
	.st103{clip-path:url(#SVGID_4_);fill:#EFAC8C;}
	.st104{clip-path:url(#SVGID_4_);fill:#A27469;}
	.st105{clip-path:url(#SVGID_4_);fill:#F9C0A1;}
	.st106{clip-path:url(#SVGID_4_);fill:#E1B3A5;}
	.st107{clip-path:url(#SVGID_4_);fill:#EAB8AA;}
	.st108{clip-path:url(#SVGID_4_);fill:#EFBEA4;}
	.st109{clip-path:url(#SVGID_4_);fill:#F2D5CB;}
	.st110{clip-path:url(#SVGID_4_);fill:#E8D9D6;}
	.st111{clip-path:url(#SVGID_4_);fill:#584034;}
	.st112{clip-path:url(#SVGID_4_);fill:#261710;}
	.st113{clip-path:url(#SVGID_4_);fill:#21130D;}
	.st114{clip-path:url(#SVGID_4_);fill:#FBC8B1;}
	.st115{clip-path:url(#SVGID_4_);fill:#4B3729;}
	.st116{clip-path:url(#SVGID_4_);fill:#291B10;}
	.st117{clip-path:url(#SVGID_4_);fill:#432F20;}
	.st118{clip-path:url(#SVGID_4_);fill:#362517;}
	.st119{clip-path:url(#SVGID_4_);fill:#614731;}
	.st120{clip-path:url(#SVGID_4_);fill:#3F2919;}
	.st121{clip-path:url(#SVGID_4_);fill:#3D261A;}
	.st122{clip-path:url(#SVGID_4_);fill:#2F2111;}
	.st123{clip-path:url(#SVGID_4_);fill:#39291A;}
	.st124{clip-path:url(#SVGID_4_);fill:#39281E;}
	.st125{clip-path:url(#SVGID_4_);fill:#21140D;}
	.st126{clip-path:url(#SVGID_4_);fill:#1F1310;}
	.st127{clip-path:url(#SVGID_4_);fill:#3D2E27;}
	.st128{clip-path:url(#SVGID_4_);fill:#908987;}
	.st129{clip-path:url(#SVGID_4_);fill:#352012;}
	.st130{clip-path:url(#SVGID_4_);fill:#FABEAB;}
	.st131{clip-path:url(#SVGID_4_);fill:#F5CABC;}
	.st132{clip-path:url(#SVGID_4_);fill:#EDB8A7;}
	.st133{clip-path:url(#SVGID_4_);fill:#FCDAC4;}
	.st134{clip-path:url(#SVGID_4_);fill:#FBD2C6;}
	.st135{clip-path:url(#SVGID_4_);fill:#CD7E78;}
	.st136{clip-path:url(#SVGID_4_);fill:#F0B89E;}
	.st137{clip-path:url(#SVGID_4_);fill:#BB886F;}
	.st138{clip-path:url(#SVGID_4_);fill:#FAC3AE;}
	.st139{clip-path:url(#SVGID_4_);fill:#F2B9A2;}
	.st140{clip-path:url(#SVGID_4_);fill:#DDDDDC;}
	.st141{clip-path:url(#SVGID_4_);fill:#E19187;}
	.st142{clip-path:url(#SVGID_4_);fill:#ECA899;}
	.st143{clip-path:url(#SVGID_4_);fill:#FAD8CB;}
	.st144{clip-path:url(#SVGID_4_);fill:#4A423B;}
	.st145{clip-path:url(#SVGID_4_);fill:#484544;}
	.st146{clip-path:url(#SVGID_4_);fill:#918580;}
	.st147{clip-path:url(#SVGID_4_);fill:#8B8578;}
	.st148{clip-path:url(#SVGID_4_);fill:#AB7A5D;}
</style>
<rect class="st0" width="192" height="234"/>
<polygon class="st1" points="192,215.5 172.5,234 192,234 "/>
<g>
	<g>
		<defs>
			<rect id="SVGID_1_" x="-8.2" y="-20.2" width="208.5" height="269.8"/>
		</defs>
		<clipPath id="SVGID_2_">
			<use xlink:href="#SVGID_1_"  style="overflow:visible;"/>
		</clipPath>
		<g class="st2">
			<defs>
				<rect id="SVGID_3_" x="-8.2" y="-20.2" width="208.5" height="269.8"/>
			</defs>
			<clipPath id="SVGID_4_">
				<use xlink:href="#SVGID_3_"  style="overflow:visible;"/>
			</clipPath>
			<path class="st3" d="M108.3,79.9c-1.7-0.2-3.2-1.7-4.7-2.4c0.1,0.4,0.2,0.8,0.3,1.2c0,0,0-0.1,0-0.1c-0.4,0.1-0.8,0.2-1.2,0.3
				c0.3,0.2,0.7,0.3,1.1,0.5c0.8,0.4,1.8-0.7,1-1.3c-2.7-2.2-5.3-4.5-8-6.7v1.2c0,0,0,0,0.1-0.1h-1.2c1.9,1.6,3.8,3.2,5.7,4.8
				c0.7,0.6,1.3,1.1,2,1.7c0.8,0.7,1.6,1,2.6,1.3c0.6,0.2,1.3,0.3,2,0.4c0.2,0,0.5,0,0.7,0C109,80.7,108.9,80.4,108.3,79.9
				c-1.1,0.1-1.1,1.8,0,1.7c0.7-0.1,1.8-0.3,1.9-1.2c0.2-0.8-0.4-1.3-1.1-1.5c-1.4-0.4-2.9-0.2-4.3-1c-0.4-0.2-0.7-0.6-1-0.9
				c-2.3-2-4.6-3.9-6.9-5.9c-0.3-0.3-0.9-0.4-1.2,0c0,0,0,0-0.1,0.1c-0.3,0.3-0.4,0.9,0,1.2c2.7,2.2,5.3,4.5,8,6.7
				c0.3-0.4,0.7-0.9,1-1.3c-0.4-0.2-0.7-0.3-1.1-0.5c-0.4-0.2-1-0.1-1.2,0.3c0,0,0,0.1,0,0.1c-0.2,0.4-0.1,1,0.3,1.2
				c1.9,0.9,3.4,2.4,5.6,2.6C109.4,81.8,109.4,80.1,108.3,79.9"/>
			<path class="st3" d="M104.3,79.6c0.9,0.7,1.9,1.4,3,1.7c0.9,0.2,2.2,0.3,2.7-0.6c0.5-0.9-0.3-1.6-1.2-1.7
				c-1.3-0.1-2.5-0.3-3.7-0.8c-1-0.4-1.5,1.2-0.5,1.6c0.8,0.3,1.5,0.6,2.4,0.7c0.3,0.1,0.7,0.1,1,0.1c0.2,0,0.6-0.1,0.8,0.1
				c-0.1-0.2-0.3-0.3-0.4-0.5c0,0.1,0,0.1,0.1,0.2c0-0.2,0.1-0.4,0.1-0.7c-0.1,0.3-1.3-0.2-1.5-0.3c-0.6-0.3-1.1-0.6-1.6-1
				C104.6,77.8,103.4,79,104.3,79.6"/>
			<path class="st3" d="M95.7,72.5c2.4,2,4.8,4,7.1,6c1.5,1.2,3.2,3,5.3,3.1c1,0,2.7-0.7,1.9-2c-0.4-0.7-1.2-0.5-1.9-0.6
				c-1.6-0.2-3-0.8-4.5-1.5c-1-0.5-1.9,1-0.9,1.5c1.4,0.6,2.8,1.3,4.3,1.6c0.3,0,0.5,0.1,0.8,0.1c0.6,0.1,1,0.3,0.5-0.4
				c-0.6-0.7-1.8-1-2.6-1.6c-3.1-2.3-5.9-4.9-8.8-7.4C96.1,70.6,94.9,71.8,95.7,72.5"/>
			<path class="st3" d="M96.8,97.1C96.8,97.1,96.8,97.1,96.8,97.1c0,0.3,0.1,0.7,0.2,1.1c0.8-1.6,1.6-3.1,2.7-4.5
				c1-1.2,2.1-2.4,3.1-3.6c0.9-1.1,1.7-2.3,2.5-3.6c0.9-1.5,1.5-3.1,2.9-4.2c-0.4-0.1-0.9-0.1-1.3-0.2c0,0,0,0.1,0.1,0.1l0.1-1
				c-1.2,0.9-1.8,2.2-2.5,3.5c-0.9,1.7-1.9,3.3-3.2,4.8c-2.2,2.6-4.2,4.9-5.7,8c-0.5,1,1,1.8,1.5,0.9c0.8-1.6,1.6-3.1,2.7-4.5
				c1-1.2,2.1-2.4,3.1-3.6c0.9-1.1,1.7-2.3,2.5-3.6c0.9-1.5,1.5-3.1,2.8-4.2c0.3-0.2,0.3-0.7,0.1-1c0,0,0-0.1-0.1-0.1
				c-0.3-0.5-0.9-0.5-1.3-0.2c-1.2,0.9-1.9,2.2-2.6,3.5c-0.9,1.7-1.9,3.3-3.2,4.7c-2.2,2.6-4.2,4.9-5.7,8c-0.2,0.4-0.1,1,0.3,1.2
				c0,0,0.1,0,0.1,0C96.9,99.1,97.8,97.6,96.8,97.1"/>
			<path class="st3" d="M97.1,98.3c0.8-1.6,1.6-3.1,2.6-4.4c1-1.3,2.2-2.4,3.2-3.7c0.9-1.1,1.7-2.3,2.5-3.6c0.9-1.5,1.5-3.1,2.9-4.2
				c0.9-0.7-0.3-1.9-1.2-1.2c-1.2,0.9-1.8,2.2-2.5,3.5c-0.9,1.7-1.9,3.3-3.2,4.7c-2.2,2.6-4.2,4.9-5.7,8
				C95.1,98.4,96.6,99.3,97.1,98.3"/>
			<path class="st3" d="M114.5,80.3C114.5,80.3,114.5,80.2,114.5,80.3c-0.2,0.3-0.4,0.6-0.6,1c2.1-0.6,4-1.6,6-2.5
				c-0.4-0.1-0.8-0.2-1.2-0.3l0,0.1c0.1-0.4,0.2-0.8,0.3-1.2c-1.8,0.8-3.6,1.8-5.6,2.4c-1.1,0.3-0.6,1.9,0.5,1.6
				c2.1-0.6,4-1.6,6-2.5c0.4-0.2,0.5-0.8,0.3-1.2l0-0.1c-0.2-0.4-0.8-0.5-1.2-0.3c-1.8,0.8-3.6,1.8-5.5,2.4c-0.4,0.1-0.7,0.6-0.6,1
				c0,0,0,0.1,0,0.1C113.2,81.8,114.8,81.4,114.5,80.3"/>
			<path class="st3" d="M113.9,81.3c2.1-0.6,4-1.6,6-2.5c1-0.5,0.1-1.9-0.9-1.5c-1.8,0.8-3.6,1.8-5.6,2.4
				C112.4,80,112.9,81.6,113.9,81.3"/>
			<path class="st4" d="M129.1,83.9c-1.8-2.6-3-5.7-4.4-8.5c-0.1,0.4-0.2,0.8-0.3,1.2c0,0,0.1,0,0.1,0c-0.4-0.1-0.8-0.2-1.2-0.3
				c1.4,2.8,2.5,5.9,4.4,8.5c0.1-0.4,0.2-0.8,0.3-1.2c0,0-0.1,0-0.1,0.1c-0.9,0.7,0,2.1,0.9,1.5c0,0,0.1,0,0.1-0.1
				C129.3,84.7,129.5,84.3,129.1,83.9c-1.7-2.6-2.9-5.7-4.3-8.6c-0.2-0.4-0.8-0.5-1.2-0.3c0,0-0.1,0-0.1,0c-0.4,0.2-0.5,0.8-0.3,1.2
				c1.4,2.8,2.6,6,4.4,8.5C128.3,85.6,129.8,84.8,129.1,83.9"/>
			<path class="st4" d="M123.3,76.2c1.4,2.8,2.5,5.9,4.4,8.5c0.6,0.9,2.1,0,1.5-0.9c-1.8-2.6-3-5.7-4.4-8.5
				C124.3,74.4,122.9,75.2,123.3,76.2"/>
			<path class="st4" d="M127.4,89.9c1.1,0,1.1-1.7,0-1.7C126.3,88.2,126.3,89.9,127.4,89.9"/>
			<path class="st4" d="M127.4,89.9c1.1,0,1.1-1.7,0-1.7C126.3,88.2,126.3,89.9,127.4,89.9"/>
			<path class="st4" d="M131.9,92c-0.1-0.9-0.2-1.8-0.2-2.7l-0.9,0.9c0,0,0.1,0,0.1,0l-0.9-0.9c0,1,0.1,2,0.2,3
				c0.1,0.7,1,0.8,1.4,0.4c0,0,0,0,0.1,0l-1,0.1c0,0,0.1,0,0.1,0.1c-0.1-0.4-0.1-0.9-0.2-1.3c0.2-0.1,0.3-0.1,0.2-0.1
				c-1.1,0.3-0.6,1.9,0.5,1.6c0.2-0.1,0.4-0.2,0.6-0.3c0.4-0.4,0.3-1-0.2-1.3c0,0-0.1,0-0.1-0.1c-0.3-0.2-0.8-0.1-1,0.1
				c0,0,0,0-0.1,0c0.5,0.1,0.9,0.3,1.4,0.4c-0.1-0.8-0.2-1.7-0.2-2.6c0-0.5-0.4-0.8-0.9-0.9c0,0-0.1,0-0.1,0c-0.5,0-0.8,0.4-0.9,0.9
				c0,1.1,0.1,2.1,0.3,3.1C130.4,93.5,132,93,131.9,92"/>
			<path class="st4" d="M130,89.3c0,1,0.1,2.1,0.2,3.1c0.1,0.5,0.8,0.8,1.3,0.5l0.1-0.1c0.9-0.6,0-2.1-0.9-1.5c0,0-0.1,0.1-0.1,0.1
				c0.4,0.2,0.8,0.3,1.3,0.5c-0.1-0.9-0.2-1.7-0.2-2.6C131.7,88.2,130,88.2,130,89.3"/>
			<path class="st5" d="M59.3,97.1C59.3,97.1,59.3,97.1,59.3,97.1l0,1.2c0,0,0,0,0.1-0.1h-1.2c0,0,0,0,0,0V97c0,0,0,0-0.1,0.1
				c-0.3,0.3-0.3,0.9,0,1.2c0.3,0.3,0.9,0.3,1.2,0c0,0,0,0,0.1-0.1C59.7,97.9,59.7,97.3,59.3,97.1C59.4,97,59.4,97,59.3,97.1
				c-0.3-0.4-0.8-0.4-1.2-0.1c0,0,0,0-0.1,0.1c-0.3,0.3-0.3,0.9,0,1.2c0,0,0,0,0,0c0.3,0.3,0.9,0.3,1.2,0
				C59.6,97.9,59.7,97.4,59.3,97.1"/>
			<path class="st5" d="M58.1,98.2C58.1,98.2,58.1,98.2,58.1,98.2c0.3,0.3,0.9,0.4,1.2,0c0.3-0.3,0.3-0.9,0-1.2c0,0,0,0,0,0
				c-0.3-0.3-0.9-0.3-1.2,0C57.8,97.4,57.8,97.9,58.1,98.2"/>
			<path class="st5" d="M62.9,105.6c-0.6-1.6-0.8-3.3-1.3-4.8c-0.5-1.3-1.4-2.2-2.1-3.3c-0.1,0.4-0.2,0.8-0.3,1.2c0,0,0.1,0,0.1,0
				c-0.4-0.1-0.8-0.2-1.2-0.3c0.7,1.2,1.6,2.1,2.1,3.4c0.4,1.4,0.7,2.9,1.2,4.4c0.2-0.3,0.4-0.7,0.6-1c0,0-0.1,0-0.1,0
				c-1,0.4-0.6,2,0.5,1.6c0,0,0.1,0,0.1,0C62.8,106.5,63.1,106.1,62.9,105.6c-0.5-1.6-0.7-3.3-1.2-4.9c-0.5-1.3-1.4-2.2-2.1-3.4
				c-0.2-0.4-0.8-0.5-1.2-0.3c0,0-0.1,0-0.1,0c-0.4,0.2-0.5,0.8-0.3,1.2c0.7,1.2,1.6,2.1,2.1,3.4c0.4,1.4,0.7,2.9,1.2,4.4
				C61.6,107.1,63.2,106.7,62.9,105.6"/>
			<path class="st5" d="M58.1,98.3c0.7,1.2,1.6,2.1,2.1,3.5c0.5,1.4,0.7,2.9,1.2,4.3c0.4,1,2,0.6,1.6-0.5c-0.6-1.6-0.8-3.3-1.4-4.9
				c-0.5-1.3-1.4-2.2-2.1-3.3C59,96.5,57.5,97.4,58.1,98.3"/>
			<path class="st5" d="M64.2,106.4L64.2,106.4c0.1,0.3,0.3,0.7,0.5,1c0.5-2.6,1.3-5.1,1.7-7.6c0.4-2.3,0.4-4.7,1.1-7
				c-0.3,0.2-0.7,0.4-1,0.6c0,0,0.1,0,0.1,0c-0.2-0.3-0.4-0.7-0.6-1c-0.8,2.3-0.8,4.6-1.1,7c-0.4,2.6-1.2,5.1-1.7,7.6
				c-0.2,1.1,1.4,1.5,1.6,0.5c0.5-2.6,1.3-5.1,1.7-7.6c0.4-2.3,0.4-4.7,1.1-7c0.2-0.5-0.2-0.9-0.6-1c0,0-0.1,0-0.1,0
				c-0.4-0.2-0.9,0.2-1,0.6c-0.8,2.3-0.8,4.6-1.1,7c-0.4,2.6-1.2,5.1-1.7,7.6c-0.1,0.4,0.1,1,0.6,1l0.1,0
				C64.8,108.3,65.2,106.6,64.2,106.4"/>
			<path class="st5" d="M64.7,107.5c0.5-2.5,1.2-4.9,1.6-7.4c0.4-2.4,0.4-4.9,1.2-7.2c0.4-1-1.3-1.5-1.6-0.5
				c-0.8,2.3-0.8,4.8-1.2,7.2c-0.4,2.5-1.1,4.9-1.6,7.4C62.9,108.1,64.5,108.6,64.7,107.5"/>
			<path class="st6" d="M61.8,107.6C61.8,107.6,61.8,107.6,61.8,107.6c-0.1,0.3-0.3,0.7-0.4,1.1c0.4-0.2,0.8-0.4,1.2-0.6
				c-0.4-0.1-0.8-0.2-1.2-0.3c0,0,0,0.1,0,0.1c0.1-0.4,0.2-0.8,0.3-1.2c-0.4,0.2-0.8,0.4-1.2,0.6c-0.4,0.2-0.6,0.8-0.3,1.2
				c0.3,0.4,0.7,0.5,1.2,0.3c0.4-0.2,0.8-0.4,1.2-0.6c0.5-0.2,0.5-0.8,0.3-1.2c0,0,0-0.1,0-0.1c-0.2-0.5-0.8-0.5-1.2-0.3
				c-0.4,0.2-0.8,0.4-1.2,0.6c-0.4,0.2-0.5,0.8-0.3,1.2c0,0,0,0.1,0,0.1c0.2,0.4,0.8,0.6,1.2,0.3C61.9,108.5,62.1,108,61.8,107.6"/>
			<path class="st6" d="M61.5,108.8c0.4-0.2,0.8-0.4,1.2-0.6c0.4-0.2,0.5-0.8,0.3-1.2c-0.3-0.4-0.7-0.5-1.2-0.3
				c-0.4,0.2-0.8,0.4-1.2,0.6c-0.4,0.2-0.6,0.8-0.3,1.2C60.6,108.8,61.1,109,61.5,108.8"/>
			<path class="st7" d="M71.7,125.2c-0.9-0.9-0.8-2.7-1.1-3.9c-0.4-1.3-0.8-2.6-1.3-3.9c-0.9-2.4-2.3-4.6-3-6.9
				c-0.2,0.3-0.4,0.7-0.6,1c0,0,0.1,0,0.1,0c-0.3-0.2-0.7-0.4-1-0.6c0.9,2.8,2.5,5.3,3.4,8.1c0.5,1.5,1.1,3.1,1.3,4.7
				c0.2,1.1,0.3,1.9,1.1,2.7c0-0.3-0.1-0.7-0.1-1c0,0,0,0.1-0.1,0.1c-0.7,0.9,0.8,1.7,1.5,0.9c0,0,0-0.1,0.1-0.1
				C72.1,125.9,72,125.4,71.7,125.2c-0.8-0.9-0.7-2.8-1-3.9c-0.4-1.3-0.8-2.6-1.3-3.9c-0.8-2.4-2.3-4.6-3-6.9
				c-0.1-0.4-0.6-0.7-1-0.6c0,0-0.1,0-0.1,0c-0.4,0.1-0.7,0.6-0.6,1c0.9,2.8,2.5,5.3,3.4,8.1c0.5,1.5,1.1,3.1,1.3,4.6
				c0.2,1.1,0.3,2,1.1,2.8C71.3,127.2,72.5,126,71.7,125.2"/>
			<path class="st7" d="M64.7,111c0.9,2.9,2.6,5.4,3.5,8.3c0.5,1.5,1,2.9,1.2,4.4c0.2,1.1,0.3,1.9,1.1,2.7c0.8,0.8,2-0.4,1.2-1.2
				c-0.8-0.8-0.8-2.7-1.1-3.9c-0.4-1.2-0.8-2.4-1.2-3.6c-0.9-2.5-2.3-4.7-3.1-7.2C66,109.5,64.3,109.9,64.7,111"/>
			<path class="st7" d="M75.8,134.5c-0.6-3-2.5-5.7-3.5-8.6c-0.2,0.3-0.4,0.7-0.6,1c0,0,0.1,0,0.1,0c-0.3-0.2-0.7-0.4-1-0.6
				c0.9,2.9,2.9,5.6,3.5,8.6c0.2-0.3,0.4-0.7,0.6-1c0,0-0.1,0-0.1,0c-1.1,0.2-0.6,1.8,0.5,1.6c0,0,0.1,0,0.1,0
				C75.8,135.4,76,134.9,75.8,134.5c-0.5-3-2.5-5.7-3.4-8.6c-0.1-0.4-0.6-0.7-1-0.6c0,0-0.1,0-0.1,0c-0.4,0.1-0.7,0.6-0.6,1
				c0.9,2.9,2.9,5.6,3.5,8.6C74.4,136,76,135.5,75.8,134.5"/>
			<path class="st7" d="M70.7,126.3c0.9,2.9,2.9,5.6,3.5,8.6c0.2,1.1,1.9,0.6,1.6-0.5c-0.6-3-2.5-5.7-3.5-8.6
				C72.1,124.8,70.4,125.3,70.7,126.3"/>
			<path class="st7" d="M77.1,137.7c-0.9-0.9-1.2-2.6-1.5-3.8c-0.2,0.3-0.4,0.7-0.6,1c0,0,0.1,0,0.1,0c-0.3-0.2-0.7-0.4-1-0.6
				c0.3,1.5,0.8,3.4,1.9,4.5v-1.2c0,0,0,0-0.1,0.1c-0.7,0.8,0.5,2,1.2,1.2c0,0,0,0,0.1-0.1C77.5,138.5,77.5,138,77.1,137.7
				c-0.8-1-1.1-2.7-1.4-3.8c-0.1-0.5-0.6-0.7-1-0.6c0,0-0.1,0-0.1,0c-0.5,0.1-0.7,0.6-0.6,1c0.3,1.5,0.8,3.4,1.9,4.6
				C76.7,139.7,77.9,138.5,77.1,137.7"/>
			<path class="st7" d="M74.1,134.3c0.3,1.5,0.8,3.4,1.9,4.5c0.8,0.8,2-0.4,1.2-1.2c-0.9-0.9-1.2-2.6-1.5-3.8
				C75.5,132.8,73.9,133.2,74.1,134.3"/>
			<path class="st8" d="M102.6,141c-0.9,0-1.8-0.1-2.8-0.2c0.2,0.3,0.4,0.7,0.6,1c0,0,0-0.1,0-0.1c-0.3,0.2-0.7,0.4-1,0.6
				c2.4,0.3,4.8,0.3,7.2-0.1l-0.9-0.9c0,0,0,0.1,0,0.1l0.9-0.9C105.3,140.9,104,141,102.6,141c-1.1,0-1.1,1.7,0,1.7
				c1.4,0,2.7-0.1,4.1-0.3c0.4-0.1,0.9-0.4,0.9-0.9c0,0,0-0.1,0-0.1c-0.1-0.4-0.3-0.9-0.9-0.9c-2.3,0.3-4.5,0.4-6.8,0.1
				c-0.4-0.1-1,0.1-1,0.6c0,0,0,0.1,0,0.1c-0.1,0.4,0.1,1,0.6,1c1.1,0.1,2.1,0.2,3.2,0.2C103.7,142.7,103.7,141,102.6,141"/>
			<path class="st8" d="M99.4,142.4c2.4,0.3,4.8,0.3,7.3-0.1c1.1-0.1,1.1-1.8,0-1.7c-2.3,0.3-4.5,0.4-6.8,0.1
				C98.8,140.6,98.3,142.3,99.4,142.4"/>
			<path class="st8" d="M116.8,152.1c-0.1-1.8-0.1-3.6-0.2-5.5c0-1.3-0.1-2.5-0.4-3.8c-0.5-1.7-1.7-3-3-4.2v1.2c0,0,0,0,0.1-0.1H112
				c1.7,1.5,2.7,2.9,2.9,5.1c0.1,0.8,0.1,1.6,0.1,2.4c0.1,1.6,0.1,3.2,0.2,4.8l0.9-0.9c0,0-0.1,0-0.1,0c-1.1,0-1.1,1.7,0,1.7
				c0,0,0.1,0,0.1,0C116.5,152.9,116.9,152.5,116.8,152.1c0-1.8,0-3.7-0.1-5.5c0-1.3-0.1-2.6-0.4-3.8c-0.5-1.8-1.7-3-3-4.2
				c-0.3-0.3-0.9-0.4-1.2,0c0,0,0,0-0.1,0.1c-0.3,0.3-0.4,0.9,0,1.2c1.6,1.4,2.6,2.8,2.8,5.1c0.1,0.8,0.1,1.6,0.1,2.3
				c0.1,1.6,0.1,3.2,0.2,4.8C115.1,153.2,116.8,153.2,116.8,152.1"/>
			<path class="st8" d="M112,139.8c1.8,1.6,2.8,3.1,2.9,5.6c0.1,2.2,0.2,4.4,0.3,6.7c0,1.1,1.7,1.1,1.7,0c-0.1-2.7,0-5.5-0.4-8.1
				c-0.3-2.3-1.6-3.8-3.3-5.3C112.4,137.9,111.2,139.1,112,139.8"/>
			<path class="st9" d="M101.5,160.5C101.5,160.5,101.5,160.4,101.5,160.5c-0.2,0.3-0.4,0.6-0.6,1c2.7-0.6,5.4-1.4,7.9-2.7
				c2.5-1.3,4.8-2.9,7.3-4.2c-0.4-0.1-0.8-0.2-1.2-0.3c0,0,0,0.1,0,0.1c0.1-0.4,0.2-0.8,0.3-1.2c-2.4,1.2-4.5,2.7-6.8,3.9
				c-2.5,1.3-5.2,2.2-8,2.8c-1.1,0.2-0.6,1.9,0.5,1.6c2.7-0.6,5.4-1.4,7.9-2.7c2.5-1.3,4.8-2.9,7.3-4.2c0.4-0.2,0.5-0.8,0.3-1.2
				c0,0,0-0.1,0-0.1c-0.2-0.4-0.8-0.5-1.2-0.3c-2.4,1.2-4.5,2.7-6.8,3.9c-2.5,1.3-5.2,2.2-7.9,2.8c-0.5,0.1-0.7,0.6-0.6,1
				c0,0,0,0.1,0,0.1C100.1,162,101.7,161.6,101.5,160.5"/>
			<path class="st9" d="M100.9,161.5c2.7-0.6,5.4-1.4,7.9-2.7c2.5-1.3,4.8-2.9,7.3-4.2c1-0.5,0.1-1.9-0.9-1.5
				c-2.4,1.1-4.5,2.6-6.8,3.9c-2.5,1.4-5.2,2.2-8,2.8C99.4,160.1,99.8,161.7,100.9,161.5"/>
			<path class="st10" d="M100.5,159.3c-1.4-0.2-2.7-0.2-4.1-0.3c-1.5-0.1-2.8-0.5-4.2-0.8c0.2,0.3,0.4,0.7,0.6,1c0,0,0-0.1,0-0.1
				c-0.3,0.2-0.7,0.4-1,0.6c1.2,0.3,2.4,0.7,3.6,0.8c1.6,0.2,3.1,0,4.7,0.3c-0.2-0.3-0.4-0.7-0.6-1c0,0,0,0.1,0,0.1
				c-0.2,1.1,1.4,1.5,1.6,0.5c0,0,0-0.1,0-0.1C101.2,159.8,101,159.2,100.5,159.3c-1.3-0.3-2.7-0.3-4.1-0.4
				c-1.5-0.1-2.8-0.5-4.2-0.8c-0.4-0.1-1,0.1-1,0.6c0,0,0,0.1,0,0.1c-0.1,0.4,0.1,0.9,0.6,1c1.2,0.3,2.4,0.7,3.6,0.8
				c1.6,0.2,3.1,0,4.7,0.3C101.1,161.1,101.6,159.4,100.5,159.3"/>
			<path class="st10" d="M91.8,159.8c1.2,0.3,2.4,0.7,3.7,0.8c1.5,0.2,3.1,0,4.6,0.3c1.1,0.2,1.5-1.5,0.5-1.6
				c-1.3-0.2-2.6-0.2-3.9-0.3c-1.5-0.1-2.9-0.5-4.4-0.8C91.1,157.9,90.7,159.5,91.8,159.8"/>
			<path class="st11" d="M104.4,138c-1.6,0-3.2-0.1-4.7-0.2l0.9,0.9c0,0,0-0.1,0-0.1l-0.9,0.9c1.6,0.1,3.1,0.2,4.7,0.2l-0.9-0.9
				c0,0,0,0.1,0,0.1c0,1.1,1.7,1.1,1.7,0c0,0,0-0.1,0-0.1C105.2,138.3,104.8,137.9,104.4,138c-1.6-0.1-3.1-0.2-4.7-0.3
				c-0.5,0-0.8,0.4-0.9,0.9c0,0,0,0.1,0,0.1c0,0.5,0.4,0.8,0.9,0.9c1.6,0.1,3.2,0.2,4.7,0.2C105.5,139.7,105.5,138,104.4,138"/>
			<path class="st11" d="M99.6,139.4c1.6,0.1,3.1,0.2,4.7,0.2c1.1,0,1.1-1.7,0-1.7c-1.6,0-3.2-0.1-4.7-0.2
				C98.5,137.6,98.6,139.3,99.6,139.4"/>
			<path class="st11" d="M112.4,137.8c-1.4-1.6-3.7-1.8-5.7-2l0.9,0.9c0,0,0-0.1,0-0.1l-0.9,0.9c1.6,0.2,3.5,0.3,4.6,1.5v-1.2
				c0,0-0.1,0-0.1,0.1c-0.9,0.7,0.3,1.9,1.2,1.2c0,0,0.1,0,0.1-0.1C112.9,138.7,112.8,138.1,112.4,137.8c-1.3-1.7-3.7-1.9-5.7-2.1
				c-0.5-0.1-0.8,0.4-0.9,0.9c0,0,0,0.1,0,0.1c0,0.5,0.4,0.8,0.9,0.9c1.5,0.2,3.5,0.3,4.5,1.5C111.9,139.9,113.1,138.7,112.4,137.8"
				/>
			<path class="st11" d="M106.7,137.5c1.6,0.2,3.5,0.2,4.6,1.5c0.7,0.8,1.9-0.4,1.2-1.2c-1.4-1.6-3.8-1.8-5.8-2
				C105.6,135.7,105.6,137.4,106.7,137.5"/>
			<path class="st11" d="M88.1,139.4c1.1,0,1.1-1.7,0-1.7C87,137.7,87,139.4,88.1,139.4"/>
			<path class="st11" d="M88.1,139.4c1.1,0,1.1-1.7,0-1.7C87,137.7,87,139.4,88.1,139.4"/>
			<path class="st11" d="M102,140.4c-2.4,0-4.8-0.2-7.1-0.6c-1-0.2-1.9-0.4-2.9-0.6c-1.2-0.3-2.2-1-3.3-1.6c0.1,0.4,0.2,0.8,0.3,1.2
				c0,0,0-0.1,0-0.1c-0.4,0.1-0.8,0.2-1.2,0.3c1.5,0.8,2.8,1.5,4.5,1.9c1.5,0.4,3.1,0.6,4.6,0.8c3.8,0.4,7.6,0.3,11.4-0.1l-0.9-0.9
				l0,0.1l0.9-0.9C106.2,140.3,104.1,140.4,102,140.4c-1.1,0-1.1,1.7,0,1.7c2.1,0,4.2-0.1,6.3-0.3c0.4,0,0.9-0.4,0.9-0.9l0-0.1
				c0-0.4-0.4-0.9-0.9-0.9c-3.4,0.3-6.9,0.5-10.3,0.2c-1.5-0.1-3-0.4-4.5-0.7c-1.8-0.4-3.2-1.1-4.8-1.9c-0.4-0.2-1-0.1-1.2,0.3
				c0,0,0,0.1,0,0.1c-0.2,0.4-0.1,0.9,0.3,1.2c1.1,0.6,2,1.2,3.2,1.6c1.1,0.3,2.3,0.6,3.4,0.8c2.5,0.4,5,0.6,7.5,0.6
				C103.1,142.1,103.1,140.4,102,140.4"/>
			<path class="st11" d="M87.8,139.1c1.4,0.7,2.5,1.4,4,1.8c1.7,0.4,3.5,0.7,5.2,0.9c3.7,0.4,7.5,0.3,11.2-0.1
				c1.1-0.1,1.1-1.8,0-1.7c-3.3,0.3-6.6,0.5-9.9,0.2c-1.7-0.1-3.4-0.4-5.1-0.8c-1.7-0.4-3-1.1-4.6-1.9
				C87.7,137.1,86.8,138.5,87.8,139.1"/>
			<path class="st12" d="M79.3,136.4C79.3,136.3,79.3,136.3,79.3,136.4c-0.1,0.3-0.2,0.7-0.3,1.1c5.2-2.3,11-4.5,15.6-8l-1-0.1
				c0,0,0,0.1,0.1,0.1c0.1-0.4,0.1-0.9,0.2-1.3c-4.6,3.5-10.4,5.7-15.6,8c-1,0.4-0.1,1.9,0.9,1.5c5.2-2.3,11-4.5,15.6-8
				c0.5-0.4,0.5-0.9,0.2-1.3c0,0,0-0.1-0.1-0.1c-0.2-0.3-0.8-0.3-1-0.1c-4.6,3.5-10.4,5.7-15.6,8c-0.5,0.2-0.5,0.8-0.3,1.2
				c0,0,0,0.1,0,0.1C78.3,138.2,79.8,137.4,79.3,136.4"/>
			<path class="st12" d="M79,137.5c5.2-2.3,11-4.5,15.6-8c0.9-0.7,0-2.1-0.9-1.5c-4.6,3.5-10.4,5.7-15.6,8
				C77.1,136.5,78,137.9,79,137.5"/>
			<path class="st13" d="M103.9,126.9c-1.9-0.1-3.7-0.3-5.6-0.7c0.2,0.3,0.4,0.7,0.6,1c0,0,0-0.1,0-0.1c-0.3,0.2-0.7,0.4-1,0.6
				c2,0.4,4,0.6,6,0.7l-0.9-0.9c0,0,0,0.1,0,0.1c-0.1,1.1,1.6,1.1,1.7,0c0,0,0-0.1,0-0.1C104.7,127.2,104.3,126.9,103.9,126.9
				c-1.9-0.2-3.7-0.4-5.6-0.8c-0.4-0.1-1,0.1-1,0.6c0,0,0,0.1,0,0.1c-0.1,0.4,0.1,1,0.6,1c2,0.4,4,0.6,6,0.7
				C105,128.7,105,127,103.9,126.9"/>
			<path class="st13" d="M97.8,127.9c2,0.4,4,0.6,6,0.7c1.1,0.1,1.1-1.6,0-1.7c-1.9-0.1-3.7-0.3-5.6-0.7
				C97.2,126,96.8,127.7,97.8,127.9"/>
			<path class="st14" d="M105.9,126.1C105.9,126.1,105.8,126,105.9,126.1c-0.2,0.3-0.4,0.6-0.6,1c1.5-0.6,3.1-1,4.7-1.2l-0.9-0.9
				c0,0,0,0.1,0,0.1l0.9-0.9c-1.8,0.2-3.5,0.6-5.2,1.2c-1,0.4-0.6,2,0.5,1.6c1.5-0.6,3.1-1,4.7-1.2c0.4-0.1,0.9-0.4,0.9-0.9
				c0,0,0-0.1,0-0.1c0-0.4-0.4-0.9-0.9-0.9c-1.8,0.2-3.5,0.6-5.2,1.2c-0.4,0.1-0.8,0.6-0.6,1c0,0,0,0.1,0,0.1
				C104.6,127.6,106.3,127.1,105.9,126.1"/>
			<path class="st14" d="M105.3,127.1c1.5-0.6,3.1-1,4.7-1.2c1.1-0.1,1.1-1.8,0-1.7c-1.8,0.2-3.5,0.6-5.2,1.2
				C103.8,125.8,104.2,127.5,105.3,127.1"/>
			<path class="st14" d="M108.3,124.6c-1.4-0.3-2.8-0.5-4.2-0.7l0.9,0.9c0,0,0-0.1,0-0.1l-0.9,0.9c1.3,0.2,2.5,0.4,3.8,0.6
				c-0.2-0.3-0.4-0.7-0.6-1c0,0,0,0.1,0,0.1c-0.2,1.1,1.4,1.5,1.6,0.5c0,0,0-0.1,0-0.1C109,125.2,108.8,124.6,108.3,124.6
				c-1.4-0.4-2.8-0.6-4.2-0.8c-0.5-0.1-0.8,0.4-0.9,0.9c0,0,0,0.1,0,0.1c-0.1,0.5,0.4,0.8,0.9,0.9c1.3,0.2,2.5,0.4,3.8,0.6
				C108.9,126.5,109.4,124.8,108.3,124.6"/>
			<path class="st14" d="M104,125.6c1.3,0.2,2.5,0.4,3.8,0.6c1.1,0.2,1.5-1.4,0.5-1.6c-1.4-0.3-2.8-0.5-4.3-0.7
				C103,123.8,103,125.5,104,125.6"/>
			<path class="st12" d="M81.8,135.2C81.8,135.1,81.7,135.1,81.8,135.2c-0.2,0.3-0.4,0.6-0.6,1c2.5-0.8,5-1.7,7.4-2.8
				c0.8-0.4,1.6-0.8,2.3-1.3c0.8-0.6,1.3-1.5,2.1-2.1c0.8-0.6-0.2-1.8-1-1.3c-2.6,1.4-5.6,2.4-7.9,4.1l1,0.1c0,0,0-0.1-0.1-0.1
				c-0.1,0.4-0.1,0.9-0.2,1.3c2.5-1.9,5.6-2.9,8.4-4.4c-0.4-0.1-0.8-0.2-1.2-0.3c0,0,0,0.1,0.1,0.1l0.1-1c-1.6,1.3-2.6,2.6-4.5,3.5
				c-2.3,1-4.6,1.8-7,2.6c-1,0.3-0.6,2,0.5,1.6c2.5-0.8,5-1.7,7.4-2.8c2.1-0.9,3.1-2.4,4.9-3.8c0.3-0.2,0.3-0.7,0.1-1
				c0,0,0-0.1-0.1-0.1c-0.3-0.4-0.7-0.5-1.2-0.3c-2.8,1.5-5.9,2.5-8.4,4.4c-0.5,0.4-0.5,0.9-0.2,1.3c0,0,0,0.1,0.1,0.1
				c0.2,0.3,0.8,0.3,1,0.1c2.4-1.8,5.3-2.8,7.9-4.1c-0.3-0.4-0.7-0.9-1-1.3c-0.6,0.5-1.1,1.1-1.6,1.7c-0.7,0.7-1.6,1.1-2.5,1.5
				c-2.3,1-4.6,1.8-7,2.6c-0.4,0.1-0.7,0.6-0.6,1c0,0,0,0.1,0,0.1C80.5,136.6,82.1,136.2,81.8,135.2"/>
			<path class="st12" d="M81.2,136.2c2.3-0.8,4.6-1.5,6.8-2.5c1-0.4,2-0.9,2.9-1.5c0.9-0.8,1.6-1.7,2.6-2.5c0.8-0.6-0.2-1.8-1-1.3
				c-2.8,1.5-5.9,2.5-8.4,4.4c-0.9,0.6,0,2.1,0.9,1.5c2.5-1.9,5.6-2.9,8.4-4.4c-0.3-0.4-0.7-0.9-1-1.3c-0.8,0.6-1.4,1.4-2.2,2.1
				c-0.8,0.8-1.9,1.2-2.9,1.6c-2.1,0.9-4.3,1.6-6.4,2.3C79.7,134.9,80.1,136.5,81.2,136.2"/>
			<path class="st13" d="M105.1,135.5c-2-1.2-4.7-1-7-1c-2.8,0-5.6,0.3-8.3,0.8c0.3,0.2,0.7,0.4,1,0.6c0,0,0-0.1,0-0.1
				c-0.2,0.3-0.4,0.7-0.6,1c2.4-0.4,4.8-0.7,7.3-0.7c2.1,0,5-0.3,6.9,0.8c-0.1-0.4-0.2-0.8-0.3-1.2c0,0,0,0.1-0.1,0.1
				c-0.6,0.9,0.8,1.8,1.5,0.9c0,0,0-0.1,0.1-0.1C105.8,136.2,105.6,135.7,105.1,135.5c-2-1.3-4.7-1.1-7-1.1c-2.8,0-5.6,0.3-8.4,0.8
				c-0.5,0.1-0.7,0.6-0.6,1c0,0,0,0.1,0,0.1c0.1,0.5,0.6,0.7,1,0.6c2.4-0.4,4.8-0.7,7.2-0.7c2.1,0,4.9-0.3,6.8,0.8
				C105.2,137.6,106.1,136.1,105.1,135.5"/>
			<path class="st13" d="M90.2,136.9c2.4-0.4,4.8-0.7,7.3-0.7c2.1,0,4.9-0.3,6.8,0.8c0.9,0.6,1.8-0.9,0.9-1.5c-2-1.2-4.7-1.1-7-1
				c-2.8,0-5.6,0.3-8.4,0.8C88.7,135.4,89.1,137.1,90.2,136.9"/>
			<path class="st14" d="M117.3,137.7c-1.2-1.4-2.3-3-3.7-4.2c-1.2-0.9-2.7-1.5-4.1-2.1c0.2,0.3,0.4,0.7,0.6,1l0-0.1
				c-0.3,0.2-0.7,0.4-1,0.6c1.4,0.6,3,1.2,4.1,2.3c1.1,1.1,2,2.4,3,3.6v-1.2c0,0,0,0-0.1,0.1c-0.8,0.7,0.4,1.9,1.2,1.2
				c0,0,0,0,0.1-0.1C117.7,138.5,117.6,137.9,117.3,137.7c-1.1-1.5-2.2-3.1-3.7-4.2c-1.2-1-2.7-1.5-4.1-2.1c-0.5-0.2-0.9,0.2-1,0.6
				l0,0.1c-0.2,0.5,0.2,0.9,0.6,1c1.4,0.6,2.9,1.2,4.1,2.3c1.1,1.1,2,2.4,3,3.6C116.8,139.7,118,138.5,117.3,137.7"/>
			<path class="st14" d="M109,133c1.4,0.6,2.9,1.2,4.1,2.3c1.1,1.1,2,2.4,3,3.6c0.7,0.8,1.9-0.4,1.2-1.2c-1.2-1.4-2.3-3-3.7-4.2
				c-1.2-1-2.7-1.5-4.1-2.1C108.4,130.9,108,132.6,109,133"/>
			<path class="st8" d="M115.3,145.2c1.1,0,1.1-1.7,0-1.7C114.2,143.5,114.2,145.2,115.3,145.2"/>
			<path class="st8" d="M115.3,145.2c1.1,0,1.1-1.7,0-1.7C114.2,143.5,114.2,145.2,115.3,145.2"/>
			<path class="st15" d="M75.2,98.3C75.2,98.2,75.1,98.2,75.2,98.3c-0.1,0.3-0.3,0.7-0.4,1.1c1.7-1,3.5-2.2,5.3-2.7
				c-0.3-0.2-0.7-0.4-1-0.6c0,0,0,0.1,0,0.1c0.2-0.3,0.4-0.7,0.6-1c-2,0.6-3.9,1.9-5.7,2.9c-1,0.5-0.1,2,0.9,1.5
				c1.7-0.9,3.4-2.2,5.3-2.7c0.5-0.1,0.7-0.6,0.6-1c0,0,0-0.1,0-0.1c-0.1-0.4-0.6-0.7-1-0.6c-2,0.6-3.9,1.9-5.7,2.9
				c-0.4,0.2-0.5,0.8-0.3,1.2c0,0,0,0.1,0,0.1C74.2,100.1,75.7,99.2,75.2,98.3"/>
			<path class="st15" d="M74.9,99.4c1.7-1,3.4-2.2,5.3-2.7c1.1-0.3,0.6-1.9-0.5-1.6c-2,0.6-3.9,1.9-5.7,2.9
				C73,98.4,73.9,99.9,74.9,99.4"/>
			<path class="st15" d="M78.8,83.6c-1.8,0-3.5-0.1-5.3-0.2c0.3,0.3,0.6,0.6,0.9,0.9c0,0,0-0.1,0-0.1c-0.3,0.3-0.6,0.6-0.9,0.9
				c2.4,0.2,4.7,0.3,7.1,0.2l-0.9-0.9c0,0,0,0.1,0,0.1l0.9-0.9C80,83.5,79.4,83.6,78.8,83.6c-1.1,0-1.1,1.7,0,1.7c0.6,0,1.2,0,1.8,0
				c0.4,0,0.9-0.4,0.9-0.9c0,0,0-0.1,0-0.1c0-0.5-0.4-0.9-0.9-0.9c-2.4,0.1-4.7,0-7.1-0.2c-0.5,0-0.8,0.4-0.9,0.9c0,0,0,0.1,0,0.1
				c0,0.5,0.4,0.8,0.9,0.9c1.7,0.2,3.5,0.2,5.3,0.2C79.9,85.3,79.9,83.6,78.8,83.6"/>
			<path class="st15" d="M73.5,85c2.4,0.2,4.7,0.3,7.1,0.2c1.1,0,1.1-1.7,0-1.7c-2.4,0.1-4.7,0-7.1-0.2C72.5,83.2,72.5,84.9,73.5,85
				"/>
			<path class="st15" d="M90.7,95.1c-2.2-0.3-4.5-0.5-6.7-0.7l0.9,0.9c0,0,0-0.1,0-0.1L84,96.1c2.1,0.1,4.2,0.3,6.3,0.6
				c-0.2-0.3-0.4-0.7-0.6-1c0,0,0,0.1,0,0.1c-0.2,1.1,1.5,1.5,1.6,0.5c0,0,0-0.1,0-0.1C91.4,95.6,91.2,95.1,90.7,95.1
				c-2.2-0.4-4.4-0.6-6.7-0.7c-0.5,0-0.8,0.4-0.9,0.9c0,0,0,0.1,0,0.1c0,0.5,0.4,0.8,0.9,0.9c2.1,0.1,4.2,0.3,6.2,0.6
				C91.3,96.9,91.8,95.3,90.7,95.1"/>
			<path class="st15" d="M84,96.1c2.1,0.1,4.2,0.3,6.3,0.6c1.1,0.2,1.5-1.5,0.5-1.6c-2.2-0.3-4.5-0.5-6.7-0.7
				C82.9,94.3,82.9,96.1,84,96.1"/>
			<path class="st16" d="M109.8,97.9C109.8,97.9,109.8,97.9,109.8,97.9c-0.2,0.3-0.4,0.6-0.6,1c1.9-0.3,3.8-0.3,5.7-0.6
				c1.8-0.3,3.5-1,5.3-1.4c-0.3-0.2-0.7-0.4-1-0.6c0,0,0,0.1,0,0.1c0.2-0.3,0.4-0.7,0.6-1c-1.8,0.4-3.6,1.1-5.5,1.4
				c-1.8,0.3-3.7,0.3-5.5,0.6c-1.1,0.2-0.6,1.8,0.5,1.6c1.9-0.3,3.8-0.3,5.7-0.6c1.8-0.3,3.5-1,5.3-1.4c0.5-0.1,0.7-0.6,0.6-1
				c0,0,0-0.1,0-0.1c-0.1-0.5-0.6-0.7-1-0.6c-1.8,0.4-3.6,1.1-5.5,1.4c-1.8,0.3-3.7,0.3-5.5,0.6c-0.5,0.1-0.7,0.6-0.6,1
				c0,0,0,0.1,0,0.1C108.4,99.5,110,99,109.8,97.9"/>
			<path class="st16" d="M109.2,98.9c1.9-0.3,3.8-0.3,5.7-0.6c1.8-0.3,3.6-1,5.3-1.4c1.1-0.2,0.6-1.9-0.5-1.6
				c-1.9,0.4-3.6,1.1-5.5,1.4c-1.8,0.3-3.7,0.3-5.5,0.6C107.7,97.5,108.1,99.1,109.2,98.9"/>
			<path class="st16" d="M116.9,99.1C116.9,99.1,116.9,99.1,116.9,99.1c-0.2,0.3-0.4,0.6-0.6,1c1.6-0.3,3.3-0.3,5-0.2l-0.9-0.9
				c0,0,0,0.1,0,0.1l0.9-0.9c-1.8-0.1-3.6,0-5.4,0.3c-1.1,0.2-0.6,1.8,0.5,1.6c1.6-0.3,3.3-0.3,4.9-0.2c0.5,0,0.8-0.4,0.9-0.9
				c0,0,0-0.1,0-0.1c0-0.5-0.4-0.8-0.9-0.9c-1.8-0.1-3.6,0-5.4,0.3c-0.5,0.1-0.7,0.6-0.6,1c0,0,0,0.1,0,0.1
				C115.5,100.7,117.1,100.2,116.9,99.1"/>
			<path class="st16" d="M116.3,100.1c1.6-0.3,3.3-0.3,4.9-0.2c1.1,0,1.1-1.7,0-1.7c-1.8-0.1-3.6,0-5.4,0.3
				C114.8,98.6,115.3,100.3,116.3,100.1"/>
			<path class="st4" d="M122.9,96.1C122.9,96.1,122.9,96.1,122.9,96.1l-0.9,0.8c0.8-0.1,1.6-0.1,2.4,0l-0.9-0.9c0,0,0,0.1,0,0.1
				l0.9-0.9c-0.8,0-1.6,0-2.3,0c-0.5,0-0.9,0.4-0.9,0.9c0,0.4,0.4,0.9,0.9,0.9c0.8-0.1,1.6-0.1,2.3,0c0.5,0,0.8-0.4,0.9-0.9
				c0,0,0-0.1,0-0.1c0-0.5-0.4-0.8-0.9-0.9c-0.8,0-1.6,0-2.4,0c-0.4,0-0.9,0.4-0.9,0.9c0,0,0,0.1,0,0.1c0,0.5,0.4,0.9,0.9,0.9
				C122.5,97,123,96.6,122.9,96.1"/>
			<path class="st4" d="M122.1,96.9c0.8-0.1,1.6-0.1,2.4,0c1.1,0.1,1.1-1.6,0-1.7c-0.8,0-1.6,0-2.4,0c-0.5,0-0.9,0.4-0.9,0.9
				C121.2,96.5,121.6,97,122.1,96.9"/>
			<path class="st17" d="M132.7,103.6C132.6,103.6,132.6,103.6,132.7,103.6l-0.1,1.1c0.9-1,1.8-2,2.9-2.8h-1.2c0,0,0,0.1,0.1,0.1
				v-1.2c-1,0.9-2,1.8-2.9,2.8c-0.7,0.8,0.5,2.1,1.2,1.2c0.9-1,1.8-2,2.9-2.8c0.4-0.3,0.3-0.9,0-1.2c0,0,0-0.1-0.1-0.1
				c-0.3-0.4-0.9-0.3-1.2,0c-1.1,0.9-2,1.8-2.9,2.8c-0.3,0.3-0.4,0.9,0,1.2c0,0,0,0,0.1,0.1C132.3,105.5,133.5,104.3,132.7,103.6"/>
			<path class="st17" d="M132.6,104.8c0.9-1,1.8-2,2.9-2.8c0.4-0.3,0.3-0.9,0-1.2c-0.3-0.4-0.8-0.3-1.2,0c-1,0.9-2,1.8-2.9,2.8
				C130.7,104.4,131.9,105.7,132.6,104.8"/>
			<path class="st18" d="M133.7,122.4c-1.1-2.7-0.6-5.9-0.7-8.7c-0.1-2.9-0.3-5.9-0.3-8.8l-0.9,0.9c0,0,0.1,0,0.1,0l-0.9-0.9
				c0,3.2,0.2,6.3,0.3,9.5c0.1,2.8-0.3,5.8,0.8,8.5l0.4-1l-0.1,0c-1,0.5-0.1,1.9,0.9,1.5l0.1,0C133.7,123.1,134,122.6,133.7,122.4
				c-1-2.7-0.5-5.9-0.6-8.7c-0.1-2.9-0.3-5.9-0.3-8.8c0-0.5-0.4-0.8-0.9-0.9c0,0-0.1,0-0.1,0c-0.5,0-0.8,0.4-0.9,0.9
				c0,3.2,0.2,6.3,0.3,9.5c0.1,2.8-0.3,5.9,0.8,8.5C132.5,123.8,134.2,123.4,133.7,122.4"/>
			<path class="st18" d="M131,104.8c0,3.2,0.2,6.5,0.3,9.7c0.1,2.7-0.3,5.6,0.8,8.3c0.4,1,2.1,0.6,1.6-0.5c-1.1-2.6-0.6-5.7-0.7-8.5
				c-0.1-3-0.3-6-0.3-9.1C132.7,103.7,131,103.7,131,104.8"/>
			<path class="st19" d="M69,72.1C69,72.1,69,72,69,72.1L69,73.2c1.9-2.3,3.6-4.6,5.4-7c-0.4,0.1-0.8,0.2-1.2,0.3c0,0,0.1,0,0.1,0.1
				c-0.1-0.4-0.2-0.8-0.3-1.2c-1.6,2.1-3.1,4.2-4.8,6.2c-0.7,0.8,0.4,1.9,1.2,1.2c1.1-1,2.2-1.9,3.3-2.9h-1.2c0,0,0,0,0.1,0.1v-1.2
				c-1.3,1.1-2.5,2.2-3.7,3.2C67,72.8,68.2,74,69,73.3c1.3-1.1,2.5-2.2,3.7-3.2c0.4-0.3,0.3-0.9,0-1.2c0,0,0,0-0.1-0.1
				c-0.3-0.4-0.9-0.3-1.2,0c-1.1,0.9-2.2,1.9-3.3,2.9c0.4,0.4,0.8,0.8,1.2,1.2c1.7-2.1,3.4-4.4,5-6.5c0.3-0.4,0-0.9-0.3-1.2
				c0,0-0.1,0-0.1-0.1c-0.4-0.3-0.9,0-1.2,0.3c-1.7,2.2-3.3,4.5-5.1,6.6c-0.3,0.4-0.4,0.9,0,1.2c0,0,0,0,0.1,0.1
				C68.6,74.1,69.8,72.9,69,72.1"/>
			<path class="st19" d="M72.9,65.4c-1.7,2.2-3.3,4.5-5.1,6.6c-0.7,0.8,0.4,1.9,1.2,1.2c1.3-1.1,2.5-2.2,3.7-3.2
				c0.8-0.7-0.4-1.9-1.2-1.2c-1.3,1.1-2.5,2.2-3.7,3.2c0.4,0.4,0.8,0.8,1.2,1.2c1.9-2.3,3.6-4.6,5.4-7
				C75.1,65.4,73.6,64.5,72.9,65.4"/>
			<path class="st19" d="M60.5,72.4C60.5,72.4,60.4,72.4,60.5,72.4c-0.1,0.3-0.2,0.7-0.4,1.1c2.2-1.2,4.4-2.5,6.6-3.7
				c-0.3,0-0.7-0.1-1-0.1c0,0,0,0,0.1,0.1c0-0.3-0.1-0.7-0.1-1c-0.7,1-1.4,1.9-2,2.9c-0.4,0.8,0.4,1.5,1.2,1.2
				c3.1-1.5,5.2-4.4,8.4-5.7c-0.3-0.2-0.7-0.4-1-0.6c0,0,0,0.1,0,0.1c0.2-0.3,0.4-0.7,0.6-1c-3.3,1.4-5.5,4.5-8.8,5.8
				c0.3,0.4,0.6,0.8,1,1.3c0.5-1.1,1.3-2,2-3c0.5-0.7-0.5-1.5-1.2-1.2c-2.2,1.2-4.3,2.5-6.5,3.7c-1,0.5-0.1,2,0.9,1.5
				c2.2-1.2,4.3-2.5,6.5-3.7c-0.4-0.4-0.8-0.8-1.2-1.2c-0.7,1-1.5,1.9-2,3c-0.2,0.6,0.2,1.6,1,1.3c3.3-1.4,5.5-4.5,8.8-5.8
				c0.4-0.2,0.8-0.6,0.6-1c0,0,0-0.1,0-0.1c-0.1-0.4-0.6-0.8-1-0.6c-3.3,1.4-5.6,4.3-8.8,5.8c0.4,0.4,0.8,0.8,1.2,1.2
				c0.6-1.1,1.3-2,2-2.9c0.2-0.3,0.1-0.8-0.1-1c0,0,0,0-0.1-0.1c-0.3-0.3-0.7-0.3-1-0.1c-2.2,1.2-4.4,2.5-6.6,3.7
				c-0.4,0.2-0.5,0.8-0.3,1.2c0,0,0,0.1,0,0.1C59.5,74.3,61,73.4,60.5,72.4"/>
			<path class="st19" d="M72.8,65.5c-3.4,1.4-5.6,4.4-8.9,5.9c0.4,0.4,0.8,0.8,1.2,1.2c0.5-1.1,1.3-2.1,2-3.1
				c0.5-0.7-0.5-1.5-1.2-1.2c-2.2,1.2-4.4,2.5-6.6,3.7c-1,0.5-0.1,2,0.9,1.5c2.2-1.2,4.4-2.5,6.6-3.7c-0.4-0.4-0.8-0.8-1.2-1.2
				c-0.7,1-1.5,1.9-2,3.1c-0.4,0.8,0.4,1.5,1.2,1.2c3.1-1.4,5.3-4.4,8.5-5.7C74.2,66.8,73.8,65.1,72.8,65.5"/>
			<path class="st19" d="M75.4,64.3C75.4,64.3,75.4,64.3,75.4,64.3c0.2,0.3,0.5,0.6,0.8,0.8c0.2-1.7,1.1-3.3,1.5-5
				c0.2-1-1-1.4-1.6-0.7c-1,1.4-1.8,2.9-3,4.1h1.2c0,0,0,0-0.1-0.1v1.2c1.3-1.4,2.2-3.1,3.4-4.6c-0.4,0.1-0.8,0.2-1.2,0.3
				c0,0,0.1,0,0.1,0l-0.4-1c-0.4,1.9-1.3,3.7-1.6,5.7c-0.1,1.1,1.6,1.1,1.7,0c0.2-1.8,1.1-3.4,1.5-5.2c0.1-0.3,0-0.8-0.4-1
				c0,0-0.1,0-0.1,0c-0.5-0.2-0.9-0.1-1.2,0.3c-1,1.4-1.9,3-3.1,4.3c-0.3,0.3-0.3,0.9,0,1.2c0,0,0,0,0.1,0.1c0.3,0.3,0.9,0.3,1.2,0
				c1.3-1.3,2.2-2.9,3.2-4.4c-0.5-0.2-1-0.4-1.6-0.7c-0.4,1.9-1.3,3.6-1.5,5.5c-0.1,0.5,0.4,0.8,0.9,0.9c0,0,0.1,0,0.1,0
				C76.5,66.1,76.5,64.4,75.4,64.3"/>
			<path class="st19" d="M76.2,65.2c0.2-1.8,1.1-3.4,1.5-5.2c0.2-1-1-1.4-1.6-0.7c-1,1.4-1.9,3-3.1,4.3c-0.8,0.8,0.4,2,1.2,1.2
				c1.3-1.4,2.2-3.1,3.4-4.6c-0.5-0.2-1-0.4-1.6-0.7c-0.4,1.9-1.3,3.7-1.6,5.7C74.4,66.2,76.1,66.2,76.2,65.2"/>
			<path class="st19" d="M72.1,70.1C72.1,70.1,72.1,70,72.1,70.1l0.3,0.9c1.2-4.7,2.6-9.4,4.1-14c-0.3,0.2-0.7,0.4-1,0.6
				c0,0,0.1,0,0.1,0c-0.2-0.3-0.4-0.7-0.6-1c-1.5,4.5-2.9,9.1-4,13.8c-0.3,1,1,1.4,1.6,0.7c1.8-2.3,3-5,4.5-7.4
				c1.2-2,2.9-4.8,5.3-5.5c-0.4-0.3-0.7-0.5-1.1-0.8c0.2,1.9,0,3.9-0.3,5.8c-0.2,1.1,1.3,1.5,1.6,0.5c0.5-1.7,1.4-3.2,2.5-4.6h-1.2
				c1.6,2,2.1,4.6,3.8,6.7c0.3,0.4,0.9,0.3,1.2,0c0.6-0.5,1.6-1.2,1.9-2c0.3-0.8,0.1-2,0.1-2.9c0.1-2.4,0.4-4.8,1-7.2
				c-0.3,0.2-0.5,0.4-0.8,0.6c0,0,0.1,0,0.1,0c-0.3-0.3-0.6-0.6-0.9-0.9c0,2.4,0.4,4.8,0.7,7.3c0.1,0.8,1.1,1.2,1.6,0.4
				c0.2-0.2,0.3-0.5,0.5-0.7c-0.5-0.1-1-0.1-1.6-0.2c0.5,1.6,0.2,3.2-0.1,4.8c0.3-0.2,0.5-0.4,0.8-0.6l-0.1,0
				c0.3,0.3,0.6,0.6,0.9,0.9c0-1.4-0.1-2.8-0.3-4.2c-0.1-0.8-1.1-1.2-1.6-0.4c-0.7,1-1.7,1.9-1.8,3.2c-0.1,1.5,0,3,0.1,4.5
				c0,0.6,0.7,1.1,1.3,0.7c0.3-0.2,0.6-0.4,0.9-0.7c-0.5-0.2-1-0.4-1.5-0.6c0,0.3,0.1,0.7,0.2,1c0.2-0.3,0.4-0.7,0.6-1
				c0,0-0.1,0-0.1,0c0.3,0.2,0.7,0.4,1,0.6c-0.1-0.2-0.1-0.4-0.2-0.6c-0.2-0.7-1-0.8-1.4-0.4c0,0.1-0.1,0.1-0.1,0.2
				c0.3,0.3,0.6,0.6,0.9,0.9c-0.1-1.6-0.1-3.2-0.1-4.8c0-0.7-1-1.2-1.5-0.6c-0.5,0.6-1.1,1.2-1.8,1.7h1.2c-1.7-1.8-2.1-4.5-3.6-6.5
				c-0.4-0.5-1.1-0.5-1.5,0c-1.2,1.5-2.1,3.2-2.7,5c-0.2,0.7,0.6,1.4,1.3,1c-0.1,0-0.1,0-0.1,0c-0.3-0.4-0.5-0.7-0.8-1.1
				c-0.3,1.5-0.8,3-1,4.5c0.3-0.2,0.5-0.4,0.8-0.6c0,0-0.1,0-0.1,0c0.3,0.3,0.6,0.6,0.9,0.9c0.4-3.4,1.3-6.7,1-10.2
				c0-0.5-0.5-1-1.1-0.8c-2.4,0.8-4,3-5.4,5c-1.9,2.8-3.2,6-5.3,8.6c-0.7,0.8,0.5,2.1,1.2,1.2c1.7-2.2,3-4.7,4.4-7
				c1.3-2.2,3-5.3,5.6-6.2c-0.4-0.3-0.7-0.5-1.1-0.8c0.3,3.4-0.6,6.8-1,10.2c-0.1,0.5,0.4,0.8,0.9,0.9c0,0,0.1,0,0.1,0
				c0.3,0,0.8-0.3,0.8-0.6c0.2-1.5,0.7-3,1-4.5c0.1-0.5-0.2-1.1-0.8-1.1c-0.3,0-0.5,0.1-0.7,0.3c0.4,0.3,0.8,0.6,1.3,1
				c0.6-1.7,1.5-3.2,2.5-4.6h-1.5c1.6,2.1,2.1,4.8,3.9,6.8c0.3,0.4,0.9,0.3,1.2,0c0.6-0.5,1.2-1.1,1.8-1.7c-0.5-0.2-1-0.4-1.5-0.6
				c0,1.6,0,3.2,0.1,4.8c0,0.5,0.4,0.9,0.9,0.9c0.5,0,0.9-0.4,1.3-0.7c-0.5-0.1-0.9-0.3-1.4-0.4c0,0.2,0.1,0.4,0.2,0.6
				c0.1,0.4,0.6,0.7,1,0.6c0,0,0.1,0,0.1,0c0.4-0.1,0.7-0.6,0.6-1c0-0.2-0.1-0.4-0.1-0.6c0-0.7-0.9-1.1-1.5-0.6
				c-0.2,0.2-0.3,0.3-0.5,0.4c0.4,0.2,0.9,0.5,1.3,0.7c0-1.3-0.2-2.6-0.1-3.9c0.1-1.1,1-2,1.6-2.9c-0.5-0.1-1.1-0.3-1.6-0.4
				c0.2,1.4,0.3,2.8,0.3,4.2c0,0.5,0.4,0.8,0.9,0.9l0.1,0c0.3,0,0.7-0.3,0.8-0.6c0.4-1.9,0.7-3.8,0.1-5.7c-0.2-0.7-1.2-0.8-1.6-0.2
				c-0.2,0.2-0.3,0.5-0.5,0.7c0.5,0.1,1.1,0.3,1.6,0.4c-0.3-2.4-0.7-4.8-0.7-7.3c0-0.5-0.4-0.8-0.9-0.9c0,0-0.1,0-0.1,0
				c-0.4,0-0.7,0.3-0.8,0.6c-0.5,1.9-0.8,3.8-0.9,5.7c-0.1,1-0.1,1.9-0.2,2.9c0,1.4-0.4,1.8-1.5,2.7h1.2c-1.6-2-2.1-4.7-3.8-6.7
				c-0.3-0.3-0.9-0.3-1.2,0c-1.3,1.6-2.3,3.4-2.9,5.3c0.5,0.2,1.1,0.3,1.6,0.5c0.3-2,0.6-4.1,0.4-6.2c-0.1-0.5-0.5-1-1.1-0.8
				c-2.4,0.7-4,2.9-5.4,4.8c-1.9,2.9-3.4,6.1-5.5,8.9c0.5,0.2,1,0.4,1.6,0.7c1.2-4.6,2.5-9.2,4-13.8c0.2-0.5-0.2-0.9-0.6-1
				c0,0-0.1,0-0.1,0c-0.5-0.2-0.9,0.2-1,0.6c-1.5,4.6-2.9,9.3-4.1,14c-0.1,0.3,0.1,0.8,0.4,1c0,0,0.1,0,0.1,0
				C72.2,72,73.1,70.6,72.1,70.1"/>
			<path class="st19" d="M80.8,63.3c-0.1,0.7-0.2,1.5-0.4,2.2c-0.1,0.5,0.1,0.9,0.6,1c0.4,0.1,0.9-0.1,1-0.6
				c0.2-0.9,0.5-1.7,0.7-2.6c0.2-0.8-0.8-1.4-1.4-0.8c-0.1,0.1-0.2,0.3-0.3,0.4c-0.8,0.8,0.4,2,1.2,1.2c0.1-0.1,0.1-0.1,0.2-0.2
				c0,0,0.3-0.3,0.2-0.2l-1.4-0.8c-0.2,0.9-0.5,1.7-0.7,2.6c0.5,0.2,1.1,0.3,1.6,0.5c0.1-0.7,0.2-1.5,0.4-2.2c0.1-0.5-0.1-0.9-0.6-1
				C81.5,62.6,80.9,62.9,80.8,63.3"/>
			<path class="st19" d="M91,60.6c0.2,1.3,0.3,2.6,0.3,3.9c0,0.9,1.5,1.2,1.7,0.2c0.3-1.7,0.5-3.3,0.1-5c-0.2-0.7-1.2-0.8-1.6-0.2
				c-0.1,0.2-0.3,0.4-0.4,0.7c-0.6,0.9,0.9,1.8,1.5,0.9c0.1-0.2,0.3-0.4,0.4-0.7c-0.5-0.1-1-0.1-1.6-0.2c0.3,1.4,0.2,2.7-0.1,4.1
				c0.6,0.1,1.1,0.2,1.7,0.2c0-1.3-0.2-2.6-0.3-3.9C92.5,59.6,90.8,59.6,91,60.6"/>
			<path class="st19" d="M90.2,53.4c-0.7,3.2-1,6.4-1,9.7c0,0.7,1,1.2,1.5,0.6c0.5-0.7,1.1-1.4,1.5-2.1c0.5-0.8,0.4-1,0.3-1.9
				c-0.3-2-0.5-4-0.6-6c0-1.1-1.7-1.1-1.7,0c0,1.5,0.2,3.1,0.4,4.6c0.1,0.6,0.3,1.3,0.2,1.9c-0.1,0.9-0.9,1.7-1.4,2.3
				c0.5,0.2,1,0.4,1.5,0.6c0.1-3.1,0.3-6.2,1-9.2C92.1,52.8,90.4,52.3,90.2,53.4"/>
			<path class="st19" d="M74.9,56.6c-1.5,4.6-2.9,9.3-4.1,14c-0.2,0.8,0.9,1.5,1.4,0.8c1.7-2.1,2.9-4.6,4.3-6.9
				c1.3-2.3,3-5.5,5.7-6.3c-0.4-0.3-0.7-0.5-1.1-0.8c0.3,3.4-0.6,6.8-1,10.2c-0.1,1,1.5,1.2,1.7,0.2c0.2-1.5,0.7-3,1-4.4
				c0.2-0.7-0.6-1.4-1.3-1c-0.3,0.2-0.4,0.4-0.6,0.6c0.5,0.2,1,0.4,1.6,0.7c0.6-1.8,1.5-3.4,2.6-4.9h-1.5c1.6,2.1,2.2,4.8,3.9,6.8
				c0.3,0.4,0.9,0.3,1.2,0c1.8-1.5,3-3.4,4.2-5.3c-0.5-0.1-1-0.1-1.6-0.2c0.4,1.6,0.2,3.1-0.2,4.7c0.6,0.1,1.1,0.2,1.7,0.2
				c-0.1-3.9-1-7.8-1-11.8c0-0.9-1.4-1.2-1.7-0.2C89,57.9,89,63,89.2,68c0,0.7,0.7,1,1.3,0.7c0.3-0.1,0.6-0.4,0.9-0.6
				c-0.5-0.1-0.9-0.3-1.4-0.4c0,0.2,0.1,0.5,0.2,0.7c0.3,1,2,0.6,1.6-0.5c-0.1-0.2-0.1-0.4-0.2-0.7c-0.1-0.7-1-0.8-1.4-0.4
				c-0.1,0.2-0.3,0.3-0.5,0.4c0.4,0.2,0.9,0.5,1.3,0.7c-0.2-4.9-0.2-9.8,1-14.6c-0.6-0.1-1.1-0.2-1.7-0.2c0.1,3.9,1,7.8,1,11.8
				c0,0.9,1.5,1.2,1.7,0.2c0.4-1.9,0.6-3.7,0.2-5.6c-0.2-0.7-1.2-0.8-1.6-0.2c-1.1,1.8-2.3,3.5-4,4.9h1.2c-1.6-1.9-2.1-4.5-3.6-6.5
				c-0.4-0.5-1.1-0.5-1.5,0c-1.2,1.6-2.2,3.3-2.8,5.3c-0.3,1,1,1.4,1.6,0.7c0,0,0,0,0,0c-0.4-0.3-0.8-0.6-1.3-1
				c-0.4,1.5-0.8,2.9-1,4.4c0.6,0.1,1.1,0.2,1.7,0.2c0.4-3.4,1.3-6.8,1-10.2c0-0.5-0.5-1-1.1-0.8c-2.6,0.9-4.4,3.4-5.8,5.6
				c-1.7,2.6-3,5.6-5,8.1c0.5,0.3,0.9,0.6,1.4,0.8c1.2-4.7,2.6-9.4,4.1-14C76.9,56,75.3,55.5,74.9,56.6"/>
			<path class="st19" d="M80.7,70.3L80.7,70.3c0.2,0.3,0.5,0.6,0.8,0.9v-4.4c-0.3,0.3-0.6,0.6-0.9,0.9h0.1c-0.3-0.3-0.6-0.6-0.9-0.9
				v4.4c0,1.1,1.7,1.1,1.7,0v-4.4c0-0.5-0.4-0.9-0.9-0.9h-0.1c-0.5,0-0.9,0.4-0.9,0.9v4.4c0,0.5,0.4,0.9,0.9,0.9h0.1
				C81.8,72,81.8,70.3,80.7,70.3"/>
			<path class="st19" d="M79.8,66.7v4.4c0,1.1,1.7,1.1,1.7,0v-4.4C81.5,65.6,79.8,65.6,79.8,66.7"/>
			<path class="st19" d="M76.3,63.8C76.3,63.8,76.2,63.8,76.3,63.8c0.2,0.3,0.5,0.6,0.8,0.8c0.2-3.6,0.5-7.3,1.3-10.9
				c-0.3,0.2-0.7,0.4-1,0.6c0,0,0.1,0,0.1,0c-0.2-0.3-0.4-0.7-0.6-1c-0.9,3.7-1.2,7.5-1.4,11.3c-0.1,1.1,1.6,1.1,1.7,0
				c0.2-3.6,0.5-7.3,1.3-10.8c0.1-0.4-0.1-0.9-0.6-1c0,0-0.1,0-0.1,0c-0.4-0.1-0.9,0.1-1,0.6c-0.9,3.7-1.2,7.5-1.4,11.3
				c0,0.5,0.4,0.8,0.9,0.9c0,0,0.1,0,0.1,0C77.4,65.5,77.4,63.8,76.3,63.8"/>
			<path class="st19" d="M76.8,53.3c-0.9,3.7-1.2,7.5-1.4,11.3c-0.1,1.1,1.6,1.1,1.7,0c0.2-3.6,0.5-7.3,1.3-10.8
				C78.7,52.7,77,52.3,76.8,53.3"/>
			<path class="st19" d="M80.1,71.5c0-1-0.5-1.8-1.5-1.8c-0.4,0-0.7,0.2-1.1-0.1c-0.2-0.2-0.3-0.5-0.5-0.6c-0.5-0.4-1.2-0.5-1.7-0.7
				c0.2,0.3,0.4,0.7,0.6,1c0,0,0-0.1,0-0.1c-0.3,0.2-0.7,0.4-1,0.6c0.4,0.2,0.9,0.3,1.3,0.5c0.6,0.2,1.3-0.5,1-1
				c-0.1-0.3-0.2-0.5-0.2-0.8c-0.3,0.4-0.5,0.7-0.8,1.1c0,0,0.1,0,0.1,0c-0.3-0.2-0.5-0.4-0.8-0.6c0.2,1.2,0.7,1.4,1.7,1.8
				c1,0.4,1.5,0.8,2.4,0.1c-0.4-0.1-0.9-0.1-1.3-0.2c0.1,0.2,0.1,0.5,0.3,0.6c0.3,0.3,0.8,0.4,1.1,0.6c-0.1-0.2-0.2-0.4-0.2-0.6l0,0
				c0.1-0.2,0.2-0.4,0.2-0.6c0.3-0.4,0.4-0.1,0-0.1c-0.2,0-0.4,0.1-0.6,0.1c-1.1,0.2-0.6,1.8,0.5,1.6c0.5-0.1,1.3-0.1,1.5-0.7
				c0.4-0.9-0.8-1.4-1.4-1.7c0.1,0.2,0.3,0.3,0.4,0.5c-0.1-0.2-0.2-0.5-0.3-0.7c-0.3-0.5-0.9-0.5-1.3-0.2c0,0-0.1,0.1-0.1,0.1h0.9
				c-0.8-0.3-1.6-0.6-2.3-0.9l0.6,0.6c-0.1-0.3-0.2-0.5-0.2-0.8c-0.1-0.3-0.5-0.7-0.8-0.6c0,0-0.1,0-0.1,0c-0.6,0.1-0.9,0.5-0.8,1.1
				c0,0.3,0.1,0.5,0.2,0.8c0.3-0.3,0.7-0.7,1-1c-0.4-0.2-0.9-0.3-1.3-0.5c-0.5-0.2-0.9,0.2-1,0.6c0,0,0,0.1,0,0.1
				c-0.2,0.5,0.2,0.9,0.6,1c0.5,0.2,0.9,0.4,1.4,0.5c-0.2-0.1-0.3-0.3-0.5-0.4c0.8,1.3,2,1.8,3.4,1.2h-0.9c0.1,0.1,0.3,0.1,0.4,0.2
				c-0.1-0.2-0.3-0.3-0.4-0.5c0,0.2,0.1,0.4,0.1,0.6C78.4,72.6,80.1,72.6,80.1,71.5"/>
			<path class="st19" d="M78.4,71c0,0.1,0.1,0.2,0.1,0.3c0,0.1,0.1,0.4,0,0.1c0,0.3,0.1,0.5,0.3,0.7c0.2,0.2,0.5,0.2,0.7,0.2
				c0.2,0,0.5-0.1,0.7-0.1c0.3-0.1,0.6-0.4,0.6-0.7c0-0.3-0.1-0.7-0.4-0.8c-0.3-0.2-0.6-0.3-0.8-0.5c-0.4-0.2-0.9-0.1-1.2,0.3
				c-0.2,0.4-0.1,0.9,0.3,1.2c0.3,0.1,0.6,0.3,0.8,0.5l0.2-1.6c-0.2,0-0.5,0.1-0.7,0.1c0.4,0.3,0.7,0.5,1.1,0.8
				c0-0.3-0.1-0.6-0.2-0.8c-0.1-0.4-0.6-0.7-1-0.6C78.6,70.1,78.3,70.6,78.4,71"/>
			<path class="st19" d="M75.9,70.1c0.3,0.5,0.7,0.9,1.1,1.1c0.7,0.3,1.3,0.3,2,0c0.6-0.2,0.6-1.2,0-1.5c-0.7-0.3-1.4-0.6-2.2-0.9
				c-0.4-0.2-0.9,0.2-1,0.6c-0.1,0.5,0.2,0.9,0.6,1c0.6,0.2,1.2,0.4,1.8,0.7v-1.5c-0.4,0.2-0.7-0.2-0.8-0.5
				C76.8,68.3,75.3,69.2,75.9,70.1"/>
			<path class="st19" d="M78.3,71.2c0.1,0,0.2,0.1,0.3,0.1c0.3,0.2,0.7,0.2,0.9-0.1c0.3-0.2,0.4-0.6,0.3-0.9
				c-0.1-0.2-0.1-0.3-0.2-0.5c-0.1-0.2-0.4-0.4-0.6-0.4c-0.3,0-0.5,0.1-0.7,0.2c0.2-0.1,0,0,0,0C78,70,77.8,70.5,78,70.9
				c0.2,0.4,0.8,0.6,1.2,0.3c0.1-0.1,0.2-0.2,0.3-0.3c-0.4-0.1-0.9-0.1-1.3-0.2c-0.1-0.2,0,0,0,0.1c0.4-0.3,0.8-0.6,1.3-1
				c-0.1,0-0.2-0.1-0.3-0.1c-0.2-0.1-0.4-0.2-0.7-0.1c-0.2,0.1-0.4,0.2-0.5,0.4C77.8,70.4,77.9,71,78.3,71.2"/>
			<path class="st19" d="M75.4,69c0.3,1.9,2.2,3.4,4,2c-0.4-0.1-0.8-0.2-1.2-0.3c0.1,0.2,0.2,0.5,0.2,0.8c0.1,0.6,0.5,0.9,1.1,0.8
				c0.3,0,0.6-0.1,0.9-0.2c0.7-0.2,0.8-1.2,0.2-1.6c-1.7-1-3.5-1.6-5.3-2.3c-1-0.4-1.5,1.2-0.5,1.6c1.7,0.7,3.4,1.2,4.9,2.1
				c0.1-0.5,0.1-1,0.2-1.6c-0.3,0.1-0.6,0.1-0.9,0.2c0.4,0.3,0.7,0.5,1.1,0.8c-0.1-0.6-0.2-1.1-0.5-1.6c-0.2-0.4-0.8-0.6-1.2-0.3
				c-0.9,0.7-1.3-0.2-1.5-1C76.9,67.4,75.2,67.9,75.4,69"/>
			<path class="st19" d="M109.2,78.1C109.1,78.1,109.1,78.1,109.2,78.1l0.8,0.9c0.1-9.7-2.2-19.1-3.6-28.7c-0.2,0.3-0.4,0.7-0.6,1
				l0.1,0c-0.3-0.2-0.7-0.4-1-0.6c1.4,9.4,3.7,18.7,3.5,28.2c0,1.1,1.7,1.1,1.7,0c0.1-9.7-2.2-19.1-3.6-28.7c-0.1-0.5-0.6-0.7-1-0.6
				l-0.1,0c-0.5,0.1-0.7,0.6-0.6,1c1.4,9.4,3.7,18.7,3.5,28.2c0,0.5,0.4,0.8,0.9,0.9c0,0,0.1,0,0.1,0
				C110.3,79.8,110.3,78.1,109.2,78.1"/>
			<path class="st19" d="M104.7,50.7c1.4,9.4,3.7,18.7,3.5,28.2c0,1.1,1.7,1.1,1.7,0c0.1-9.7-2.2-19.1-3.6-28.7
				C106.2,49.2,104.6,49.7,104.7,50.7"/>
			<path class="st19" d="M108.9,61.5C108.8,61.5,108.8,61.5,108.9,61.5c-0.2,0.3-0.3,0.7-0.4,1.1c1.2-0.8,2.5-1.8,3.9-2.2
				c1.5-0.5,3.1-0.3,4.7,0.1c-0.2-0.3-0.4-0.5-0.6-0.8c0,0,0,0,0,0c-0.1,0.5,0.4,0.8,0.9,0.9c2.6,0,5.3,0.1,7.8,1
				c-0.2-0.3-0.4-0.7-0.6-1c0,0,0,0.1,0,0.1c0.3-0.2,0.7-0.4,1-0.6c-3.1-1.1-6.4-1-9.6-1c0.3,0.3,0.6,0.6,0.9,0.9v-0.1
				c-0.3,0.3-0.6,0.6-0.9,0.9h0.9c0.9,0,1.2-1.5,0.2-1.7c-1.6-0.3-3.3-0.5-4.9-0.1c-1.7,0.5-3.1,1.5-4.5,2.5
				c-0.9,0.6-0.1,2.1,0.9,1.5c1.2-0.8,2.4-1.7,3.8-2.2c1.4-0.5,2.9-0.3,4.3,0c0.1-0.6,0.2-1.1,0.2-1.7h-0.9c-0.5,0-0.9,0.4-0.9,0.9
				v0.1c0,0.5,0.4,0.9,0.9,0.9c3.1,0,6.2,0,9.1,1c0.5,0.2,0.9-0.2,1-0.6c0,0,0-0.1,0-0.1c0.2-0.5-0.2-0.9-0.6-1
				c-2.6-0.9-5.5-1-8.2-1.1c0.3,0.3,0.6,0.6,0.9,0.9c0,0,0,0,0,0c0-0.4-0.3-0.7-0.6-0.8c-1.7-0.4-3.5-0.7-5.2-0.2
				c-1.7,0.5-3.2,1.5-4.7,2.5c-0.4,0.2-0.6,0.8-0.3,1.2c0,0,0,0.1,0.1,0.1C108,63.3,109.5,62.4,108.9,61.5"/>
			<path class="st19" d="M108.5,62.6c1.2-0.8,2.4-1.7,3.8-2.2c1.5-0.6,3.2-0.3,4.8,0.1c0.1-0.6,0.2-1.1,0.2-1.7h-1.4
				c-1.1,0-1.1,1.7,0,1.7c3.1,0,6.2,0,9.1,1c1,0.4,1.5-1.3,0.5-1.6c-3.1-1.1-6.4-1.1-9.6-1.1v1.7h1.4c0.9,0,1.2-1.5,0.2-1.7
				c-1.7-0.4-3.3-0.6-4.9-0.3c-1.8,0.4-3.4,1.6-4.9,2.6C106.8,61.8,107.6,63.3,108.5,62.6"/>
			<path class="st19" d="M136.2,81.6c-3-1.1-6.4-2.8-8.7-5.1v1.2c0,0,0,0,0.1-0.1h-1.2c2.4,2.5,6.1,4.3,9.4,5.5
				c-0.2-0.3-0.4-0.7-0.6-1c0,0,0,0.1,0,0.1c-0.4,1,1.3,1.5,1.6,0.5c0,0,0-0.1,0-0.1C137,82.1,136.7,81.6,136.2,81.6
				c-2.9-1.2-6.4-2.8-8.6-5.1c-0.3-0.3-0.9-0.3-1.2,0c0,0,0,0-0.1,0.1c-0.3,0.3-0.3,0.9,0,1.2c2.5,2.6,6.1,4.3,9.4,5.5
				C136.8,83.6,137.3,82,136.2,81.6"/>
			<path class="st19" d="M126.4,77.7c2.5,2.5,6.1,4.3,9.4,5.5c1,0.4,1.5-1.3,0.5-1.6c-3-1.1-6.4-2.7-8.7-5.1
				C126.8,75.7,125.6,76.9,126.4,77.7"/>
			<path class="st19" d="M132.5,84.8C132.5,84.8,132.5,84.7,132.5,84.8l-0.9,0.8c2-0.2,3.8-0.9,5.6-1.8c0.7-0.3,0.5-1.4-0.2-1.6
				c-0.3-0.1-0.6-0.1-1-0.2l0.9,0.9v-0.1l-0.9,0.9c0.2,0,0.4,0,0.5,0.1v-1.5c-1.6,0.8-3.2,1.4-5,1.6c-1.1,0.1-1.1,1.8,0,1.7
				c2.1-0.2,4-0.9,5.8-1.9c0.6-0.3,0.6-1.2,0-1.5c-0.4-0.2-0.9-0.3-1.4-0.3c-0.5,0-0.9,0.4-0.9,0.9v0.1c0,0.5,0.4,0.8,0.9,0.9
				c0.2,0,0.3,0,0.5,0.1l-0.2-1.6c-1.5,0.7-3.1,1.4-4.7,1.5c-0.4,0-0.9,0.4-0.9,0.9c0,0,0,0.1,0,0.1
				C130.9,85.9,132.6,85.9,132.5,84.8"/>
			<path class="st19" d="M131.6,85.6c2-0.2,3.9-0.9,5.7-1.8c0.7-0.4,0.4-1.3-0.2-1.6c-0.4-0.1-0.7-0.2-1.1-0.2c-1.1,0-1.1,1.7,0,1.7
				c0.2,0,0.4,0,0.6,0.1c-0.1-0.5-0.1-1-0.2-1.6c-1.5,0.8-3.1,1.4-4.9,1.6C130.5,84,130.5,85.7,131.6,85.6"/>
			<path class="st19" d="M58,88.9C58,88.8,58,88.8,58,88.9c-0.3,0.2-0.6,0.5-0.9,0.8c2.3-0.2,4.7-0.5,6.8-1.4c1-0.4,1.9-0.9,2.7-1.6
				c1.1-0.9,2.1-2,3.6-2.3c-0.4-0.3-0.7-0.5-1.1-0.8c0,0,0,0.1,0,0.1c0.2-0.3,0.4-0.5,0.6-0.8c-2.2,0.4-3.5,2.4-5.4,3.4
				c-2.2,1.2-4.8,1.6-7.3,1.8c-1.1,0.1-1.1,1.8,0,1.7c2.4-0.2,4.7-0.5,6.9-1.4c1-0.4,1.9-0.9,2.8-1.6c1.1-0.9,2.1-2,3.5-2.3
				c0.3-0.1,0.7-0.5,0.6-0.8c0,0,0-0.1,0-0.1c-0.1-0.6-0.5-0.9-1.1-0.8c-2.2,0.4-3.5,2.4-5.4,3.5c-2.2,1.2-4.8,1.6-7.3,1.8
				c-0.4,0-0.9,0.4-0.9,0.9c0,0,0,0.1,0,0.1C56.4,90,58.1,90,58,88.9"/>
			<path class="st19" d="M57.2,89.7c2.4-0.2,4.8-0.5,7-1.5c1.1-0.5,2-1,2.9-1.7c1-0.8,1.9-1.8,3.2-2.1c1.1-0.2,0.6-1.8-0.5-1.6
				c-2.1,0.4-3.3,2.2-5.1,3.3c-2.3,1.4-5,1.8-7.6,2C56.1,88,56.1,89.8,57.2,89.7"/>
			<path class="st19" d="M70.3,82.3c-2.4-1.9-4.4-4.2-7.5-5c0.2,0.3,0.4,0.7,0.6,1c0,0,0-0.1,0-0.1c-0.3,0.2-0.7,0.4-1,0.6
				c2.8,0.7,4.6,2.8,6.8,4.6v-1.2c0,0,0,0.1-0.1,0.1c-0.7,0.9,0.5,2.1,1.2,1.2c0,0,0-0.1,0.1-0.1C70.7,83.1,70.8,82.5,70.3,82.3
				c-2.3-2-4.4-4.3-7.5-5.1c-0.4-0.1-0.9,0.1-1,0.6c0,0,0,0.1,0,0.1c-0.1,0.4,0.1,0.9,0.6,1c2.8,0.7,4.6,2.8,6.8,4.5
				C70,84.2,71.2,83,70.3,82.3"/>
			<path class="st19" d="M62.4,78.9c2.8,0.7,4.6,2.8,6.8,4.6c0.8,0.7,2.1-0.5,1.2-1.2c-2.4-1.9-4.4-4.2-7.5-5
				C61.8,77,61.3,78.6,62.4,78.9"/>
			<path class="st20" d="M108.8,138.5c-2.3-0.4-4.6-0.7-6.9-0.9l0.9,0.9c0,0,0-0.1,0-0.1l-0.9,0.9c2.9,0.2,5.7,0.3,8.6-0.3
				c1-0.2,0.7-1.6-0.2-1.7c-3.5-0.2-7-0.2-10.5-0.2c-3.4,0-6.8-0.3-10.1-0.5l0.9,0.9c0,0,0-0.1,0-0.1l-0.9,0.9c0.6,0,1.1,0,1.7,0
				c0.5,0,0.8-0.4,0.9-0.9c0,0,0,0,0,0l-0.9,0.9c4,0.3,8.1,0,12.1,0.2l-0.9-0.9c0,0,0,0.1,0,0.1c0.2-0.3,0.4-0.5,0.6-0.8
				c-0.3,0.1-0.6,0.1-0.8,0.1c-1,0.1-0.7,1.6,0.2,1.7c2.7,0.1,5.3,0.2,8,0.3l-0.9-0.9c0,0,0,0.1,0,0.1c0.2-0.3,0.4-0.5,0.6-0.8
				c-2.1,0.5-4.2,0.5-6.4,0.4c-1.1,0-1.1,1.6,0,1.7c1.4,0.2,2.9,0.4,4.3,0.6c-0.2-0.3-0.4-0.7-0.6-1c0,0,0,0.1,0,0.1
				c-0.2,1.1,1.5,1.5,1.6,0.5c0,0,0-0.1,0-0.1C109.5,139,109.3,138.5,108.8,138.5c-1.6-0.3-3.2-0.6-4.8-0.8v1.7
				c2.3,0.1,4.6,0,6.8-0.5c0.3-0.1,0.7-0.5,0.6-0.8c0,0,0-0.1,0-0.1c0-0.5-0.4-0.8-0.9-0.9c-2.7-0.1-5.3-0.2-8-0.3
				c0.1,0.6,0.2,1.1,0.2,1.7c0.3,0,0.6-0.1,0.8-0.1c0.3-0.1,0.6-0.5,0.6-0.8c0,0,0-0.1,0-0.1c0-0.5-0.4-0.8-0.9-0.9
				c-4-0.1-8.1,0.1-12.1-0.2c-0.5,0-0.8,0.4-0.9,0.9c0,0,0,0,0,0l0.9-0.9c-0.6,0-1.1,0-1.7,0c-0.5,0-0.8,0.4-0.9,0.9
				c0,0,0,0.1,0,0.1c0,0.5,0.4,0.8,0.9,0.9c3.4,0.2,6.8,0.5,10.1,0.5c3.5,0,7,0,10.5,0.2c-0.1-0.6-0.2-1.1-0.2-1.7
				c-2.7,0.5-5.4,0.4-8.1,0.2c-0.5,0-0.8,0.4-0.9,0.9c0,0,0,0.1,0,0.1c0,0.5,0.4,0.8,0.9,0.9c2.2,0.2,4.3,0.5,6.4,0.8
				C109.4,140.3,109.9,138.6,108.8,138.5"/>
			<path class="st20" d="M95.2,138.5c2,0.1,3.9,0.3,5.9,0.2c1.1-0.1,1.1-1.7,0-1.7c-2,0-3.9-0.1-5.9-0.2
				C94.1,136.8,94.1,138.5,95.2,138.5c2,0.1,3.9,0.1,5.9,0.2v-1.7c-2,0.1-3.9,0-5.9-0.2C94.2,136.7,94.2,138.4,95.2,138.5"/>
			<path class="st20" d="M96.7,138.4c2.2,0.1,4.4,0.3,6.5,0c1-0.1,0.7-1.6-0.2-1.7c-2.1-0.1-4.2,0-6.3,0
				C95.6,136.7,95.6,138.4,96.7,138.4c2.1,0,4.2-0.1,6.3,0c-0.1-0.6-0.2-1.1-0.2-1.7c-2,0.3-4.1,0-6.1,0
				C95.6,136.7,95.6,138.4,96.7,138.4"/>
			<path class="st20" d="M91.4,138.2c4,0.3,8.1,0,12.1,0.2c-0.1-0.6-0.2-1.1-0.2-1.7c-4.5,0.7-9-0.2-13.6-0.2c-1.1,0-1.1,1.7,0,1.7
				c7,0.3,14,0.3,21,0.7c-0.1-0.6-0.2-1.1-0.2-1.7c-2.8,0.6-5.6,0.5-8.5,0.3c-1.1-0.1-1.1,1.6,0,1.7c2.2,0.2,4.3,0.5,6.4,0.8
				c1.1,0.2,1.5-1.5,0.5-1.6c-2.3-0.4-4.6-0.7-6.9-0.9v1.7c3,0.2,6,0.3,8.9-0.4c1-0.2,0.7-1.6-0.2-1.7c-7-0.3-14-0.4-21-0.7v1.7
				c4.7,0,9.3,0.9,14,0.1c1-0.2,0.7-1.6-0.2-1.7c-4-0.1-8.1,0.1-12.1-0.2C90.3,136.4,90.3,138.1,91.4,138.2"/>
			<path class="st20" d="M111.7,138.4h-2.9l0.9,0.9v-0.1l-0.9,0.9h2.9l-0.9-0.9v0.1c0,1.1,1.7,1.1,1.7,0v-0.1
				C112.5,138.7,112.1,138.3,111.7,138.4l-2.9-0.1c-0.5,0-0.9,0.4-0.9,0.9v0.1c0,0.5,0.4,0.9,0.9,0.9h2.9
				C112.8,140.1,112.8,138.4,111.7,138.4"/>
			<path class="st20" d="M111,138.4h-2.2c-1.1,0-1.1,1.7,0,1.7h2.9c1.1,0,1.1-1.7,0-1.7h-2.9c-1.1,0-1.1,1.7,0,1.7h2.2
				C112.1,140.1,112.1,138.4,111,138.4"/>
			<path class="st20" d="M89.2,137.9L89.2,137.9l-0.9,0.8c1.1,0,2.1,0,3.2-0.1c1.1-0.1,1.1-1.6,0-1.7c-1.3-0.1-2.7-0.1-4-0.1
				l0.9,0.9v-0.1l-0.9,0.9c1.5,0,3,0,4.4,0.2l-0.9-0.9c0,0,0,0.1,0,0.1l0.9-0.9c-1.2,0.2-2.4,0.2-3.6,0.2c-1.1,0-1.1,1.7,0,1.7
				c1.2,0,2.4,0,3.6-0.2c0.5-0.1,0.9-0.3,0.9-0.9c0,0,0-0.1,0-0.1c0-0.5-0.4-0.8-0.9-0.9c-1.5-0.2-3-0.2-4.4-0.2
				c-0.5,0-0.9,0.4-0.9,0.9v0.1c0,0.5,0.4,0.9,0.9,0.9c1.3,0,2.7,0,4,0.1v-1.7c-1.1,0.1-2.1,0.1-3.2,0.1c-0.5,0-0.9,0.4-0.9,0.9v0.1
				C87.5,139,89.2,139,89.2,137.9"/>
			<path class="st20" d="M87.5,138.4c1.5,0,3,0,4.4,0.2v-1.7c-1.2,0.2-2.4,0.2-3.6,0.2c-1.1,0-1.1,1.7,0,1.7c1.2,0,2.4,0,3.6-0.2
				c1.1-0.1,1.1-1.6,0-1.7c-1.5-0.2-3-0.2-4.4-0.2C86.4,136.7,86.4,138.4,87.5,138.4"/>
			<path class="st21" d="M127.8,145.3c0-0.6,0.2-1.2,0.3-1.7c-0.3,0.2-0.5,0.4-0.8,0.6c0,0,0.1,0,0.1,0l-0.9-0.9
				c0,0.5,0.1,0.9,0.2,1.3c0.1,0.6,0.8,0.7,1.3,0.5c0.6-0.3,0.9-0.7,1.2-1.3c-0.4,0.1-0.8,0.2-1.2,0.3c0,0,0.1,0,0.1,0
				c-0.1-0.4-0.2-0.8-0.3-1.2c-0.1,0.2-0.3,0.5-0.5,0.7c-0.5,0.6,0.3,1.4,1,1.3c0.5-0.1,1-0.2,1.4-0.4l-1-0.4c0,0,0,0.1,0.1,0.1
				l0.1-1c-0.2,0.2-0.3,0.3-0.5,0.5c-0.3,0.3-0.3,0.9,0,1.2c0.3,0.3,0.8,0.4,1.1,0.8c0.3,0.3,0.9,0.3,1.2,0c0.4-0.3,0.8-0.1,1.3-0.1
				l-0.9-0.9v0.1l0.9-0.9c-1-0.1-1.7-0.2-2.5,0.6c0.4,0.1,0.9,0.1,1.3,0.2c-0.1-0.2-0.3-0.4-0.5-0.5c-0.2-0.1-0.6-0.2-0.7-0.4
				l-0.1,1c0.1-0.1,0.2-0.2,0.4-0.4c0.6-0.6,0-1.7-0.8-1.4c-0.5,0.2-1.1,0.2-1.5,0.4c-0.4,0.2-0.7,0.7-1.1,0.9
				c-0.9,0.6-0.1,2.1,0.9,1.5c0.3-0.2,0.6-0.5,0.9-0.7c0.4-0.3,0.8-0.4,1.3-0.5l-0.8-1.4c-0.1,0.1-0.2,0.2-0.4,0.4
				c-0.3,0.3-0.3,0.7-0.1,1c0.1,0.2,0.3,0.4,0.5,0.6c0.2,0.1,0.6,0.2,0.7,0.4c0.3,0.5,0.9,0.6,1.3,0.2c0.4-0.4,0.7-0.2,1.3-0.1
				c0.5,0,0.9-0.4,0.9-0.9v-0.1c0-0.5-0.4-0.8-0.9-0.9c-1.1-0.1-1.6-0.2-2.5,0.6h1.2c-0.3-0.3-0.8-0.4-1.1-0.8v1.2
				c0.2-0.2,0.3-0.3,0.5-0.5c0.2-0.2,0.4-0.7,0.1-1c0,0,0-0.1-0.1-0.1c-0.2-0.3-0.6-0.5-1-0.4c-0.5,0.2-0.9,0.3-1.4,0.4
				c0.3,0.4,0.6,0.8,1,1.3c0.2-0.2,0.3-0.4,0.5-0.7c0.2-0.4,0.1-1-0.3-1.2c0,0-0.1,0-0.1,0c-0.4-0.2-0.9-0.1-1.2,0.3
				c-0.2,0.4-0.2,0.5-0.6,0.7c0.4,0.2,0.8,0.3,1.3,0.5c0-0.3-0.1-0.6-0.1-0.9c0-0.5-0.4-0.8-0.9-0.9c0,0-0.1,0-0.1,0
				c-0.4,0-0.7,0.3-0.8,0.6c-0.2,0.7-0.4,1.5-0.4,2.2C126.1,146.4,127.8,146.4,127.8,145.3"/>
			<path class="st21" d="M126.5,143.4c-0.1,0.6-0.3,1.1-0.3,1.7c0,0.6,0.8,1.1,1.3,0.7c0.3-0.2,0.7-0.5,0.9-0.8
				c0.3-0.3,0.3-0.7,0.1-1c-0.2-0.3-0.6-0.5-1-0.4c-0.2,0.1-0.4,0.2-0.6,0.3c0.4,0.2,0.9,0.5,1.3,0.7c0-0.4-0.1-0.8-0.2-1.2
				c-0.1-0.5-0.6-0.7-1-0.6c-0.5,0.1-0.7,0.6-0.6,1c0,0.2,0.1,0.4,0.1,0.6c0,0.2,0-0.2,0,0.1c0,0,0,0.1,0,0.1c0,0.6,0.7,1.1,1.3,0.7
				c0,0,0,0,0.1-0.1c0,0,0.2-0.1,0.1-0.1l-0.8-1.4c-0.1,0.1-0.2,0.2-0.4,0.4c0,0-0.1,0.1-0.1,0.1c-0.2,0.2,0.1-0.1-0.1,0.1
				c0.4,0.2,0.9,0.5,1.3,0.7c0-0.4,0.1-0.8,0.2-1.2c0.1-0.4-0.1-0.9-0.6-1C127.1,142.7,126.6,143,126.5,143.4"/>
			<path class="st21" d="M127.8,143.1c-0.3,0.6-0.7,1-1.2,1.4c0.4,0.2,0.9,0.5,1.3,0.7c0-0.6,0.2-1.1,0.3-1.6
				c-0.6-0.1-1.1-0.2-1.7-0.2c0,0.4,0.1,0.8,0.2,1.2c0.1,0.6,0.7,1.1,1.3,0.7c0.6-0.3,1.4-0.4,2-0.7c-0.3-0.4-0.7-0.9-1-1.3
				l-0.5,0.5c-0.3,0.3-0.3,0.9,0,1.2c0.3,0.4,0.9,0.5,1.2,0.9c0.3,0.4,0.9,0.3,1.2,0c0.4-0.4,0.8-0.1,1.3-0.1c1.1,0.1,1.1-1.6,0-1.7
				c-0.4,0-0.8-0.2-1.2-0.1c-0.5,0.1-0.9,0.4-1.3,0.7h1.2c-0.3-0.4-0.9-0.5-1.2-0.9v1.2l0.5-0.5c0.7-0.7-0.2-1.7-1-1.3
				c-0.7,0.3-1.4,0.3-2,0.7c0.4,0.2,0.9,0.5,1.3,0.7c0-0.4-0.1-0.8-0.2-1.2c-0.1-0.9-1.4-1.2-1.7-0.2c-0.2,0.7-0.3,1.4-0.4,2.1
				c0,0.6,0.8,1.1,1.3,0.7c0.8-0.5,1.4-1.2,1.8-2C129.8,143,128.3,142.1,127.8,143.1"/>
			<path class="st21" d="M133.3,144.1C133.3,144.1,133.2,144.1,133.3,144.1C133.2,144.1,133.4,144.1,133.3,144.1c-0.1,0,0.1,0,0.1,0
				c-0.1-0.1,0.1,0.1,0.1,0.1c-0.1-0.1,0.1,0.2,0.1,0.1c0-0.1,0.1,0.2,0,0.1c0,0,0-0.1,0,0c0,0.2,0,0,0,0l-0.9,0.9h0.1l-0.9-0.9
				c0,0.3,0.1,0.7,0.4,1c0.3,0.3,0.6,0.4,1,0.4l-0.9-0.9v0.1c0,0.4,0.4,0.9,0.9,0.9c0.5,0,0.9-0.4,0.9-0.9v-0.1
				C134.2,144.4,133.8,144,133.3,144.1C133.2,144,133.2,144,133.3,144.1C133.4,144,133.4,144,133.3,144.1c0.1-0.1,0.1-0.1,0.2,0
				c-0.1,0,0,0,0.1,0.1c0.1,0.1,0.1,0.2,0.1,0.1c0-0.1,0,0,0.1,0.1c0,0,0,0,0-0.1c0,0.2,0,0.2,0,0.1c0-0.5-0.4-0.9-0.9-0.9h-0.1
				c-0.5,0-0.9,0.4-0.9,0.9c0,0.4,0.1,0.7,0.4,1c0.3,0.3,0.6,0.4,1,0.4c0.4,0,0.9-0.4,0.9-0.9C134.1,144.4,133.8,144.1,133.3,144.1"
				/>
			<path class="st21" d="M131.9,144.4c0,0.4,0.1,0.7,0.4,1c0.2,0.3,0.6,0.4,1,0.4c0.5,0,0.9-0.4,0.9-0.9c0-0.5-0.4-0.8-0.9-0.9
				c-0.2,0,0.1,0,0,0c-0.1,0,0,0,0.1,0c-0.1,0,0,0,0.1,0.1c0.1,0.1,0.1,0.2,0.1,0.1c0.1,0.2,0.1,0.2,0,0.1c0-0.1,0,0.2,0,0
				c0-0.5-0.4-0.9-0.9-0.9C132.3,143.5,131.9,143.9,131.9,144.4"/>
			<path class="st21" d="M125.1,158.6c-1-0.3-2.1-0.8-2.7-1.7c-0.1,0.4-0.2,0.8-0.3,1.2c0,0,0.1,0,0.1-0.1c-0.4-0.1-0.8-0.2-1.2-0.3
				c0.8,1.2,2.1,1.9,3.4,2.4c0.7,0.2,1.4-0.6,1-1.3c-0.9-1.3-2.2-2.2-3.6-2.9c0.1,0.4,0.2,0.8,0.3,1.2c0,0,0-0.1,0-0.1
				c-0.4,0.1-0.8,0.2-1.2,0.3c1.2,0.6,2.5,1.3,3.2,2.5c0.5,1,2,0.1,1.5-0.9c-0.8-1.5-2.3-2.4-3.8-3.2c-0.4-0.2-0.9-0.1-1.2,0.3
				c0,0,0,0.1,0,0.1c-0.2,0.4-0.1,0.9,0.3,1.2c1.1,0.6,2.3,1.2,3,2.3c0.3-0.4,0.6-0.8,1-1.3c-0.9-0.3-1.8-0.8-2.4-1.6
				c-0.3-0.4-0.8-0.6-1.2-0.3c0,0-0.1,0-0.1,0.1c-0.4,0.2-0.6,0.8-0.3,1.2c0.9,1.3,2.2,2.1,3.7,2.5
				C125.7,160.5,126.2,158.9,125.1,158.6"/>
			<path class="st21" d="M121,157.7c0.9,1.2,2.1,2,3.6,2.4c0.7,0.2,1.3-0.6,1-1.3c-0.9-1.4-2.3-2.3-3.7-3c-1-0.5-1.8,1-0.9,1.5
				c1.2,0.6,2.4,1.3,3.1,2.4c0.3-0.4,0.6-0.8,1-1.3c-1-0.3-2-0.8-2.6-1.7C121.8,156,120.4,156.8,121,157.7"/>
			<path class="st21" d="M110.2,178c-1.7-2.2-2.2-5-3.7-7.4c-1.5-2.4-4.3-4.5-4.6-7.4l-1.3,0.7c2.3,1.2,3.3,4.1,5,5.9v-1.2
				c0,0,0,0-0.1,0.1h1.2c-1.8-2-2.9-4.6-5.2-6c-0.7-0.4-1.4,0.3-1.3,1c0.5,3,2.8,5,4.4,7.3c1.7,2.5,2.2,5.5,4,7.9
				c0-0.3,0.1-0.7,0.1-1c0,0,0,0-0.1,0.1c-0.8,0.7,0.4,1.9,1.2,1.2c0,0,0,0,0.1-0.1C110.4,178.8,110.4,178.2,110.2,178
				c-1.6-2.3-2.1-5.1-3.6-7.5c-1.5-2.5-4-4.4-4.6-7.4c-0.4,0.3-0.8,0.6-1.3,1c2.1,1.4,3.1,4,4.8,5.8c0.3,0.3,0.9,0.3,1.2,0
				c0,0,0,0,0.1-0.1c0.3-0.3,0.3-0.9,0-1.2c-1.9-2-2.9-4.8-5.4-6.1c-0.5-0.3-1.4,0.1-1.3,0.7c0.3,2.9,2.3,4.9,4,7.1
				c2,2.6,2.5,6,4.5,8.6C109.3,179.8,110.8,178.9,110.2,178"/>
			<path class="st21" d="M106.8,168.6c-1.9-2-2.9-4.7-5.3-6.1c-0.7-0.4-1.4,0.3-1.3,1c0.4,2.9,2.6,4.9,4.2,7.2
				c1.9,2.5,2.3,5.7,4.2,8.2c0.7,0.9,2.1,0,1.5-0.9c-1.8-2.3-2.3-5.3-3.9-7.8c-1.5-2.3-3.9-4.2-4.3-7.2c-0.4,0.3-0.8,0.6-1.3,1
				c2.2,1.3,3.2,4,4.9,5.8C106.4,170.6,107.6,169.4,106.8,168.6"/>
			<path class="st21" d="M90.7,179.3C90.7,179.2,90.6,179.2,90.7,179.3c0,0.3,0.1,0.7,0.2,1.1c3.3-5.7,6.2-11.7,8.4-17.9
				c-0.3,0.2-0.7,0.4-1,0.6c0,0,0.1,0,0.1,0c-0.2-0.3-0.4-0.7-0.6-1c-2.2,6.1-5,11.9-8.3,17.5c-0.6,0.9,0.9,1.8,1.5,0.9
				c3.3-5.7,6.2-11.7,8.4-17.9c0.2-0.5-0.2-0.9-0.6-1c0,0-0.1,0-0.1,0c-0.5-0.2-0.9,0.2-1,0.6c-2.2,6.1-5,11.9-8.3,17.5
				c-0.2,0.4-0.1,0.9,0.3,1.2c0,0,0.1,0,0.1,0C90.8,181.3,91.6,179.8,90.7,179.3"/>
			<path class="st21" d="M90.9,180.4c3.3-5.7,6.2-11.7,8.4-17.9c0.4-1-1.3-1.5-1.6-0.5c-2.2,6.1-5,11.9-8.3,17.5
				C88.9,180.5,90.4,181.3,90.9,180.4"/>
			<path class="st21" d="M111.1,177.3C111.1,177.3,111,177.3,111.1,177.3c0.1,0.3,0.3,0.7,0.5,1c1.1-3.8,1.3-7.7,2.3-11.5
				c1.1-3.9,3-7.5,4-11.5c-0.3,0.2-0.7,0.4-1,0.6c0,0,0.1,0,0.1,0c-0.2-0.3-0.4-0.7-0.6-1c-0.9,4-2.9,7.6-4,11.5
				c-1,3.8-1.3,7.7-2.3,11.5c-0.3,1.1,1.3,1.5,1.6,0.5c1.1-3.8,1.3-7.7,2.3-11.5c1.1-3.9,3-7.5,4-11.5c0.1-0.4-0.1-0.9-0.6-1
				c0,0-0.1,0-0.1,0c-0.4-0.1-0.9,0.1-1,0.6c-0.9,4-2.9,7.6-4,11.5c-1,3.8-1.3,7.7-2.3,11.5c-0.1,0.4,0.2,0.9,0.6,1c0,0,0.1,0,0.1,0
				C111.7,179.2,112.1,177.6,111.1,177.3"/>
			<path class="st21" d="M111.6,178.3c1.1-3.8,1.4-7.7,2.3-11.5c1-4,3-7.6,4-11.5c0.3-1.1-1.4-1.5-1.6-0.5c-0.9,4-2.9,7.6-4,11.5
				c-1,3.8-1.2,7.7-2.3,11.5C109.7,178.9,111.3,179.4,111.6,178.3"/>
			<path class="st21" d="M90.1,158c-2.8-2.1-5.4-4.2-8.7-5.5c0.2,0.3,0.4,0.7,0.6,1c0,0,0-0.1,0-0.1c-0.3,0.2-0.7,0.4-1,0.6
				c3.1,1.2,5.7,3.4,8.3,5.4c-0.1-0.4-0.2-0.8-0.3-1.2c0,0,0,0.1-0.1,0.1c-0.6,0.9,0.8,1.7,1.5,0.9c0,0,0-0.1,0.1-0.1
				C90.8,158.7,90.5,158.1,90.1,158c-2.7-2.2-5.4-4.3-8.7-5.6c-0.5-0.2-0.9,0.2-1,0.6c0,0,0,0.1,0,0.1c-0.2,0.5,0.2,0.9,0.6,1
				c3.1,1.2,5.7,3.4,8.3,5.4C90.1,160.1,91,158.6,90.1,158"/>
			<path class="st21" d="M81,154c3.1,1.2,5.7,3.4,8.3,5.4c0.9,0.7,1.7-0.8,0.9-1.5c-2.8-2.1-5.4-4.3-8.7-5.5
				C80.4,152,79.9,153.6,81,154"/>
			<path class="st21" d="M74.9,149.9c-1.8-1.8-3.6-3.5-5.2-5.4c-0.7-0.8-1.7,0.2-1.3,1c0.6,1.2,1.2,2.2,2.1,3.2v-1.2
				c0,0,0,0-0.1,0.1h1.2c-0.9-1-1.4-2.2-2.1-3.3c-0.8-1.2-1.8-2.2-2.6-3.3c-1.5-2.3-2.7-4.8-3.2-7.5c-0.2,0.3-0.4,0.7-0.6,1
				c0,0,0.1,0,0.1,0c-0.3-0.2-0.7-0.4-1-0.6c0.9,4.3,3.2,8,6.1,11.3c0.5,0.6,1.7,0,1.4-0.8c-0.3-0.8-0.5-1.8-0.9-2.5
				c-0.5-0.7-1.4-1.3-2-2c-1.2-1.5-1.8-3.2-1.6-5.1c-0.5,0.2-1,0.4-1.5,0.6c1.9,2.4,4.6,4,6.4,6.5c1.8,2.5,3.1,5.6,3.5,8.7
				c0.1,1.1,1.8,1.1,1.7,0c-0.4-3.2-1.6-6.4-3.4-9.1c-1.9-2.9-4.9-4.6-7-7.3c-0.5-0.6-1.4,0-1.5,0.6c-0.1,1.7,0.3,3.4,1.1,4.8
				c0.4,0.8,1,1.5,1.6,2.1c1,1.1,1.4,1.8,1.9,3.1c0.5-0.3,0.9-0.6,1.4-0.8c-2.7-3.1-4.8-6.5-5.6-10.5c-0.1-0.5-0.6-0.7-1-0.6
				c0,0-0.1,0-0.1,0c-0.5,0.1-0.7,0.6-0.6,1c0.6,2.8,1.8,5.5,3.4,7.9c0.8,1.1,1.7,2.1,2.5,3.3c0.9,1.2,1.4,2.6,2.5,3.8
				c0.3,0.3,0.9,0.3,1.2,0c0,0,0,0,0.1-0.1c0.3-0.3,0.3-0.9,0-1.2c-0.8-0.8-1.3-1.8-1.8-2.8c-0.4,0.3-0.9,0.7-1.3,1
				c1.7,1.9,3.5,3.6,5.2,5.4C74.4,151.8,75.6,150.6,74.9,149.9"/>
			<path class="st21" d="M68.3,145.4c1.7,1.9,3.5,3.7,5.2,5.4c0.7,0.7,1.5,0,1.4-0.8c-0.5-3.2-1.7-6.3-3.6-8.9
				c-1.8-2.6-4.5-4.3-6.6-6.7c-0.5-0.6-1.4-0.1-1.5,0.6c-0.1,3.3,1.6,5.8,4,7.9c0.6,0.6,1.6,0,1.4-0.8c-0.2-0.9-0.3-1.7-0.4-2.6
				c-0.2,0.3-0.4,0.5-0.6,0.8c0,0,0.1,0,0.1,0c-0.3-0.2-0.7-0.4-1-0.6c0.8,1.9,3.1,3.4,3.4,5.4c0.4-0.3,0.8-0.6,1.3-1
				c-0.9-0.7-1.9-1.4-2.8-2.2c-0.6-0.5-1.7,0-1.4,0.8c0.2,0.8,0.5,1.5,0.8,2.2c0.4,1,2.1,0.6,1.6-0.5c-0.3-0.7-0.6-1.5-0.8-2.2
				c-0.5,0.3-0.9,0.6-1.4,0.8c1,0.8,2.1,1.6,3.1,2.4c0.7,0.5,1.4-0.3,1.3-1c-0.4-2.2-2.6-3.4-3.4-5.4c-0.2-0.5-0.5-0.7-1-0.6
				c0,0-0.1,0-0.1,0c-0.4,0.1-0.6,0.5-0.6,0.8c0,1,0.2,2,0.4,3c0.5-0.3,0.9-0.6,1.4-0.8c-2-1.8-3.5-3.9-3.5-6.7
				c-0.5,0.2-1,0.4-1.5,0.6c1.9,2.3,4.6,3.9,6.3,6.4c1.8,2.5,2.9,5.4,3.4,8.5c0.5-0.3,0.9-0.6,1.4-0.8c-1.8-1.8-3.6-3.5-5.2-5.4
				C68.8,143.3,67.6,144.5,68.3,145.4"/>
			<path class="st21" d="M67.4,143c1,0.8,2,1.6,3,2.4c0.6,0.5,1.4-0.3,1.3-1c-0.6-2-2.5-3.2-3.4-5.1c-0.4-0.8-1.6-0.4-1.6,0.4
				c0.1,1,0.2,1.9,0.5,2.9c0.3,1.1,1.9,0.6,1.6-0.5c-0.2-0.8-0.4-1.6-0.4-2.4c-0.5,0.1-1.1,0.3-1.6,0.4c0.8,1.7,2.7,2.9,3.2,4.7
				c0.4-0.3,0.8-0.6,1.3-1c-0.9-0.7-1.8-1.4-2.7-2.1C67.8,141,66.6,142.2,67.4,143"/>
			<path class="st21" d="M62,133.9c1.5,7.1,6.7,12.1,11.6,17.1c0.7,0.7,1.5,0,1.4-0.8c-0.4-3.2-1.7-6.2-3.4-8.8
				c-1.8-2.8-4.7-4.5-6.8-7c-0.5-0.6-1.4-0.1-1.5,0.6c-0.2,4.9,3.6,8,7.2,10.6c0.6,0.5,1.4-0.3,1.3-1c-0.6-2.1-2.6-3.3-3.4-5.3
				c-0.3-0.8-1.7-0.8-1.7,0.2c0.1,3.3,1.4,6.9,3.7,9.3c0.8,0.8,2-0.4,1.2-1.2c-2-2.1-3.1-5.3-3.2-8.1c-0.6,0.1-1.1,0.2-1.7,0.2
				c0.8,2,2.9,3.3,3.4,5.3c0.4-0.3,0.8-0.6,1.3-1c-3.1-2.3-6.6-4.9-6.4-9.1c-0.5,0.2-1,0.4-1.5,0.6c2,2.4,4.7,4.1,6.6,6.7
				c1.7,2.5,2.9,5.4,3.3,8.4c0.5-0.3,0.9-0.6,1.4-0.8c-4.7-4.7-9.8-9.5-11.2-16.3C63.4,132.3,61.7,132.8,62,133.9"/>
			<path class="st21" d="M64.2,144c-1.5-1.3-1.5-3.9-1.5-5.7c0-1.9,0.2-3.9,0.7-5.7c-0.3,0.2-0.7,0.4-1,0.6c0,0,0.1,0,0.1,0
				c-0.2-0.3-0.4-0.7-0.6-1c-0.5,2.3-0.8,4.6-0.7,7c0,2,0.2,4.7,1.9,6.1c0-0.3-0.1-0.7-0.1-1c0,0,0,0.1-0.1,0.1
				c-0.7,0.9,0.8,1.7,1.5,0.9c0,0,0-0.1,0.1-0.1C64.6,144.6,64.5,144.1,64.2,144c-1.5-1.3-1.4-4-1.4-5.8c0-1.9,0.2-3.8,0.7-5.7
				c0.1-0.4-0.1-0.9-0.6-1c0,0-0.1,0-0.1,0c-0.4-0.1-0.9,0.1-1,0.6c-0.5,2.3-0.8,4.7-0.7,7c0,2.1,0.3,4.7,2,6.1
				C63.8,145.9,65.1,144.7,64.2,144"/>
			<path class="st21" d="M61.8,132c-0.6,2.3-0.8,4.7-0.7,7.1c0,2,0.3,4.6,2,6c0.8,0.7,2.1-0.5,1.2-1.2c-1.5-1.3-1.5-3.8-1.5-5.6
				c0-1.9,0.2-3.9,0.7-5.8C63.7,131.4,62,131,61.8,132"/>
			<path class="st21" d="M60.7,87.7C60.7,87.7,60.7,87.6,60.7,87.7c-0.3,0.2-0.6,0.5-0.9,0.8c2.8-0.3,4.9-2.1,7.5-2.6
				c-0.4-0.3-0.7-0.5-1.1-0.8c0,0,0,0.1,0,0.1c0.2-0.3,0.4-0.5,0.6-0.8c-2.5,0.4-4.5,2.3-7.1,2.5c-1.1,0.1-1.1,1.8,0,1.7
				c2.8-0.3,4.9-2.1,7.6-2.6c0.3-0.1,0.7-0.5,0.6-0.8c0,0,0-0.1,0-0.1c-0.1-0.6-0.5-0.9-1.1-0.8c-2.5,0.4-4.5,2.3-7.1,2.5
				c-0.4,0-0.9,0.4-0.9,0.9c0,0,0,0.1,0,0.1C59.1,88.8,60.8,88.8,60.7,87.7"/>
			<path class="st21" d="M59.9,88.5c2.8-0.3,4.9-2.1,7.6-2.6c1.1-0.2,0.6-1.8-0.5-1.6c-2.5,0.4-4.5,2.3-7.1,2.5
				C58.8,86.9,58.8,88.6,59.9,88.5"/>
			<path class="st22" d="M99.9,182.3c-5.2,0-9.9-1.1-9.9-1.1l-0.1,0l9.3-20.5l11.8,18.9l0,0C108.5,181.4,104.7,182.3,99.9,182.3
				L99.9,182.3z"/>
			<path class="st22" d="M99.2,160.8L90,181.2c0,0,13.9,3.3,21-1.5L99.2,160.8z"/>
			<path class="st23" d="M99.2,160.8L99.2,160.8c6.6-0.3,17.7-7.1,17.8-7.2l0.1-0.1l-6,26.2L99.2,160.8z"/>
			<path class="st23" d="M117,153.6c0,0-11.1,6.8-17.7,7.2l11.8,18.8L117,153.6z"/>
			<path class="st24" d="M81.4,153.5l0.1,0.1c0.1,0.1,11.1,6.8,17.7,7.1l0.1,0L90,181.3L81.4,153.5z"/>
			<path class="st24" d="M81.5,153.6c0,0,11.1,6.8,17.7,7.2L90,181.2L81.5,153.6z"/>
			<polygon class="st25" points="73.1,166.6 81.5,153.5 90.1,181.3 			"/>
			<polygon class="st25" points="73.2,166.6 90,181.2 81.5,153.6 			"/>
			<path class="st26" d="M73.2,166.7c-1.5-0.5-6.6-12.5-6.8-13l0,0l6.3-4.8l9,4.8L73.2,166.7L73.2,166.7z"/>
			<path class="st26" d="M66.4,153.6c0,0,5.4,12.5,6.8,13l8.3-13l-8.9-4.8L66.4,153.6z"/>
			<polygon class="st27" points="62.1,144.6 63.2,132.8 72.6,148.9 66.3,153.7 			"/>
			<polygon class="st27" points="63.2,132.9 72.6,148.9 66.4,153.6 62.1,144.5 			"/>
			<path class="st28" d="M62.1,144.5c0,0-0.7-3-1.4-6.4c-0.9-4.5-1.2-7.3-1-8.6l0-0.1l3.6,3.4l0,0L62.1,144.5L62.1,144.5z
				 M59.8,129.7c-0.4,2.7,1.9,12.7,2.3,14.5l1.1-11.3L59.8,129.7z"/>
			<path class="st28" d="M59.7,129.6l3.5,3.3l-1.1,11.6C62.1,144.5,59.2,132.5,59.7,129.6"/>
			<polygon class="st29" points="63.1,132.9 70.1,130.6 72.6,148.9 72.5,148.9 			"/>
			<polygon class="st29" points="70.1,130.6 63.2,132.9 72.6,148.9 			"/>
			<polygon class="st30" points="59.7,129.6 61,120.4 70.2,130.7 63.2,133 			"/>
			<polygon class="st30" points="61.1,120.5 59.7,129.6 63.2,132.9 70.1,130.6 			"/>
			<path class="st31" d="M91.6,158.8c-2.2-0.8-10.1-5.1-10.1-5.1l-9-4.8l8.2-3.6l11.1,13.6L91.6,158.8z"/>
			<path class="st31" d="M80.7,145.3l-8.1,3.6l8.9,4.8c0,0,7.9,4.3,10.1,5.1L80.7,145.3z"/>
			<polygon class="st32" points="71.4,140.6 80.8,145.3 72.5,148.9 			"/>
			<polygon class="st32" points="71.5,140.7 80.7,145.3 72.6,148.9 			"/>
			<polygon class="st33" points="71.4,140.7 85.4,132.8 80.7,145.4 			"/>
			<polygon class="st33" points="85.3,132.9 80.7,145.3 71.5,140.7 			"/>
			<polygon class="st34" points="85.2,132.9 94.3,128.4 95.4,134.1 83,138.8 			"/>
			<polygon class="st34" points="94.3,128.4 85.3,132.9 83.1,138.7 95.3,134.1 			"/>
			<polygon class="st35" points="94.2,128.4 96.9,127.9 99.6,130.6 99.3,133 95.3,134.1 			"/>
			<polygon class="st35" points="99.6,130.6 96.9,127.9 94.3,128.4 95.3,134.1 99.2,132.9 			"/>
			<path class="st36" d="M103.9,136.5c-0.6,0-3.2-3.2-3.4-3.5l0-2.4l3.5-2.2l5.1,3.4l-2.3,4.7H103.9z"/>
			<path class="st36" d="M103.9,128.4l-3.4,2.2v2.3c0,0,2.8,3.5,3.4,3.5h2.7l2.3-4.6L103.9,128.4z"/>
			<path class="st37" d="M116.9,153.6l9,7.9l0,0c-0.5,0.7-12.3,16.9-14.8,18.2l-0.1,0L116.9,153.6z"/>
			<path class="st37" d="M125.8,161.5c0,0-12.3,16.8-14.8,18.1l6-26L125.8,161.5z"/>
			<path class="st38" d="M116.9,153.6l7.5-9.4l10.5,0.5l0,0.1c-0.4,0.7-8.7,16.2-9,16.7l0,0L116.9,153.6z"/>
			<path class="st38" d="M134.8,144.8c0,0-8.7,16.2-9,16.7l-8.9-7.8l7.5-9.3L134.8,144.8z"/>
			<path class="st39" d="M134.9,144.8L134.9,144.8l-10.5-0.5l0-0.1l9-20.2l0,0c1.8,0.8,2.6,4.5,2.3,11.1
				C135.6,140,134.9,144.7,134.9,144.8L134.9,144.8z M124.5,144.3l10.3,0.5c0.1-0.5,0.8-4.9,0.9-9.6c0.3-6.4-0.5-10.1-2.2-10.9
				L124.5,144.3z"/>
			<path class="st39" d="M133.5,124.2l-9,20.1l10.4,0.5C134.8,144.8,137.8,126,133.5,124.2"/>
			<polygon class="st40" points="116.9,149.5 120.9,141.3 124.5,144.3 116.9,153.8 			"/>
			<polygon class="st40" points="117,153.6 117,149.5 120.9,141.4 124.4,144.3 			"/>
			<polygon class="st41" points="80.6,145.3 83.1,138.7 87.2,137.1 80.7,145.3 			"/>
			<polygon class="st41" points="87.1,137.2 80.7,145.3 83.1,138.7 			"/>
			<path class="st20" d="M100.1,141.8c-4.1,0-9-1-13-4.5l-0.1-0.1l0.2,0c0.2,0,15.5,2.1,25.4,1.9l0,0.1c0,0-3.9,1.7-8.9,2.4
				C102.5,141.7,101.3,141.8,100.1,141.8 M87.2,137.3c5.2,4.5,11.7,4.7,16.3,4.2c4.3-0.5,7.7-1.9,8.6-2.3c-0.4,0-0.8,0-1.2,0
				C101.7,139.2,88.8,137.5,87.2,137.3"/>
			<path class="st20" d="M112.4,139.1c0,0-15.2,7-25.4-1.9C87.1,137.2,102.5,139.3,112.4,139.1"/>
			<path class="st8" d="M101.9,141.7l0.1,0c0.1,0,6.2-0.7,10.4-2.6c0,0,0,0,0,0c0.2,0,2.3,0.2,4.6,10.4l0,4.3L101.9,141.7z"/>
			<path class="st8" d="M117,153.6L102,141.7c0,0,6.1-0.7,10.4-2.6c0,0,2.2,0,4.5,10.3V153.6z"/>
			<path class="st9" d="M99.2,160.8L99.2,160.8l2.8-19.2l0.1,0.1l15,12l-0.1,0C116.9,153.8,105.1,160.6,99.2,160.8L99.2,160.8z
				 M102.1,141.8l-2.8,18.9c5.7-0.3,16.7-6.6,17.6-7.1L102.1,141.8z"/>
			<path class="st9" d="M99.2,160.8l2.8-19.1l14.9,11.9C117,153.6,105.2,160.5,99.2,160.8"/>
			<polygon class="st42" points="92.3,147.5 98.6,144.3 101.6,144.7 100.9,149.5 			"/>
			<polygon class="st42" points="98.6,144.3 92.4,147.5 100.9,149.5 101.6,144.8 			"/>
			<polygon class="st43" points="80.6,145.3 87.1,137.1 91.7,158.8 91.6,158.8 			"/>
			<polygon class="st43" points="87.1,137.2 91.6,158.8 80.7,145.3 			"/>
			<polygon class="st44" points="98.5,144.3 102.1,141.6 101.6,144.8 			"/>
			<polygon class="st44" points="98.6,144.3 102,141.7 101.6,144.8 			"/>
			<path class="st45" d="M87,137.2L87,137.2c0.1,0,4.3,4.5,13.8,4.5c0.4,0,0.8,0,1.3,0l0.2,0l-3.5,2.7l-6.3,3.2L87,137.2z"/>
			<path class="st45" d="M92.4,147.5l-5.3-10.3c0,0,4.5,4.9,15,4.5l-3.4,2.6L92.4,147.5z"/>
			<path class="st46" d="M99,160.9c-1.9,0-7.1-2-7.4-2l0,0l0,0L87,137.2l0.1,0l5.3,10.3l6.8,13.3l-0.1,0
				C99.2,160.9,99.1,160.9,99,160.9 M91.7,158.7c0.4,0.1,5.5,2,7.3,2c0.1,0,0.1,0,0.2,0l-6.8-13.2l-5.2-10L91.7,158.7z"/>
			<path class="st46" d="M99.2,160.8l-6.8-13.3l-5.3-10.3l4.6,21.6C91.6,158.8,97.6,161,99.2,160.8"/>
			<polygon class="st47" points="92.3,147.4 101,149.4 99.3,161 			"/>
			<polygon class="st47" points="100.9,149.5 99.2,160.8 92.4,147.5 			"/>
			<path class="st48" d="M103.9,136.5c-0.1,0-5.8-1.9-14.2-0.2l0-0.1l5.6-2.1l3.9-1.1l0.3-2.2l-2.7-2.7l0.9-1.1l0,0
				c0,0,3.1,1.4,5.7,0.2l0,0l0.5,1.4l0,0l-3.4,2.2v2.3C100.7,133.2,103.1,136.1,103.9,136.5L103.9,136.5z M96.6,135.5
				c3.6,0,6.1,0.6,7,0.8c-1-0.8-3-3.2-3.1-3.3l0,0v-2.3l3.4-2.2l-0.4-1.2c-2.5,1.1-5.4-0.1-5.7-0.2l-0.8,1l2.7,2.7l0,0l-0.3,2.3l0,0
				l-3.9,1.1l-5.1,2C92.6,135.6,94.7,135.5,96.6,135.5"/>
			<path class="st48" d="M89.7,136.2l5.6-2.1l3.9-1.1l0.3-2.3l-2.7-2.7l0.8-1c0,0,3,1.4,5.8,0.2l0.5,1.3l-3.4,2.2v2.3
				c0,0,2.6,3.2,3.4,3.5C103.9,136.4,98.2,134.6,89.7,136.2"/>
			<polygon class="st49" points="61,120.5 64.1,106.9 76.5,137.8 76.4,137.8 			"/>
			<polygon class="st49" points="64.1,107 61.1,120.5 76.5,137.8 			"/>
			<polygon class="st50" points="70,130.5 76.6,137.9 71.4,140.8 			"/>
			<polygon class="st50" points="70.1,130.6 71.5,140.7 76.5,137.9 			"/>
			<polygon class="st51" points="70.4,122.6 90.5,122.6 76.5,137.9 			"/>
			<polygon class="st51" points="90.4,122.7 76.5,137.9 70.4,122.7 			"/>
			<polygon class="st52" points="70.3,122.7 78.4,113.1 90.5,122.7 			"/>
			<polygon class="st52" points="78.4,113.1 70.4,122.7 90.4,122.7 			"/>
			<polygon class="st53" points="78.3,113.1 95.4,110.5 90.4,122.7 			"/>
			<polygon class="st53" points="95.3,110.5 90.4,122.7 78.4,113.1 			"/>
			<polygon class="st54" points="64,107 73.2,102.4 78.4,113.1 70.4,122.8 			"/>
			<polygon class="st54" points="73.2,102.5 78.4,113.1 70.4,122.7 64.1,107 			"/>
			<path class="st12" d="M76.5,137.9L76.5,137.9l13.8-15.3l4,5.9l-0.1,0C89.5,130.5,76.7,137.8,76.5,137.9 M90.4,122.7l-13.6,14.9
				c1.9-1.1,13-7.4,17.5-9.3L90.4,122.7z"/>
			<path class="st12" d="M94.3,128.4l-3.9-5.8l-13.9,15.2C76.5,137.9,89.4,130.4,94.3,128.4"/>
			<polygon class="st55" points="95.3,110.5 95.4,110.5 95.4,118.8 90.3,122.8 			"/>
			<polygon class="st55" points="95.3,118.8 90.4,122.7 95.3,110.5 			"/>
			<path class="st56" d="M64,107c0.8-14.2,7.3-23.9,7.4-24l0.1-0.1l1.7,19.6L64,107L64,107z"/>
			<path class="st56" d="M71.5,83c0,0-6.6,9.7-7.4,24l9.1-4.6L71.5,83z"/>
			<path class="st57" d="M94.5,125.7L94.5,125.7c0.1-0.1,1-1.4,2-1.4c0,0,0.1,0,0.1,0c0.5,0,1,0.4,1.4,1.2l0,0.1L94.5,125.7z
				 M96.5,124.4c-0.8,0-1.6,0.9-1.8,1.2l3.1-0.1C97.4,124.8,97,124.5,96.5,124.4C96.5,124.4,96.5,124.4,96.5,124.4"/>
			<path class="st57" d="M97.9,125.5l-3.3,0.1C94.6,125.7,96.5,122.9,97.9,125.5"/>
			<path class="st58" d="M104.2,126.4L104.2,126.4c0.1-0.1,0.6-1.4,1.4-1.5c0.4,0,0.7,0.2,1.1,0.7l0,0.1L104.2,126.4z M105.7,125
				C105.7,125,105.6,125,105.7,125c-0.7,0.1-1.1,1-1.3,1.3l2.2-0.6C106.3,125.2,106,125,105.7,125"/>
			<path class="st58" d="M106.6,125.7l-2.3,0.7C104.3,126.3,105.4,123.7,106.6,125.7"/>
			<path class="st59" d="M94.6,125.7l-4.3-3.1l5-3.9l0,0l2.6,2.8l0,0l-1.5,2.8l0,0C96.4,124.4,95.3,124.6,94.6,125.7L94.6,125.7z
				 M90.5,122.7l4.1,2.9c0.6-1,1.6-1.2,1.8-1.3l1.5-2.7l-2.5-2.8L90.5,122.7z"/>
			<path class="st59" d="M94.6,125.7l-4.2-3l4.9-3.9l2.6,2.8l-1.5,2.8C96.4,124.4,95.3,124.6,94.6,125.7"/>
			<polygon class="st60" points="90.3,122.7 90.4,122.6 94.6,125.6 97.9,125.5 97.7,126.9 96.9,128 94.3,128.5 			"/>
			<polygon class="st60" points="97.7,126.9 97.9,125.5 94.6,125.7 90.4,122.7 94.3,128.4 96.9,127.9 			"/>
			<path class="st61" d="M101.3,127.6c-1.8,0-3.6-0.7-3.6-0.7l0,0l0.2-1.4l0,0l6.9-4l1.3,3.5l-0.1,0.1c-0.1-0.1-0.2-0.1-0.3-0.1
				c-0.6,0.1-1.2,1.4-1.2,1.4l0,0l-0.9,0.8C102.8,127.5,102,127.6,101.3,127.6 M97.7,126.8c0.4,0.1,3.6,1.3,5.7,0.2l0.8-0.8
				c0.1-0.1,0.7-1.4,1.3-1.5c0.1,0,0.2,0,0.3,0l-1.2-3.3l-6.8,4L97.7,126.8z"/>
			<path class="st61" d="M106,125l-1.2-3.5l-6.9,4l-0.2,1.3c0,0,3.5,1.4,5.8,0.2l0.9-0.8C104.3,126.3,105.3,124.4,106,125"/>
			<polygon class="st62" points="95.2,118.8 99.6,116 104.8,121.6 97.9,121.7 			"/>
			<polygon class="st62" points="99.6,116 95.3,118.8 97.9,121.6 104.7,121.5 			"/>
			<polygon class="st63" points="95.3,110.5 102.4,110.5 99.6,116.1 95.3,118.9 			"/>
			<polygon class="st63" points="102.3,110.5 99.6,116 95.3,118.8 95.3,110.5 			"/>
			<polygon class="st64" points="99.5,116 102.4,110.4 104.8,121.7 			"/>
			<polygon class="st64" points="104.7,121.5 102.3,110.5 99.6,116 			"/>
			<polygon class="st65" points="103.9,117.9 104.7,108.8 104.8,108.7 109.5,124.9 109.4,125 			"/>
			<polygon class="st65" points="104.7,108.8 103.9,117.9 109.4,125 			"/>
			<polygon class="st66" points="102.3,110.5 103.7,106.7 104.8,108.6 104,117.9 103.9,117.9 			"/>
			<polygon class="st66" points="103.7,106.8 102.3,110.5 103.9,117.9 104.7,108.6 			"/>
			<polygon class="st67" points="120.9,141.4 116.9,139.1 117.7,124.5 130.2,131.6 124.5,144.4 			"/>
			<polygon class="st67" points="117,139.1 117.7,124.6 130.1,131.6 124.4,144.3 120.9,141.4 			"/>
			<polygon class="st68" points="117.6,124.6 132.6,113 133.5,124.2 130.2,131.7 			"/>
			<polygon class="st68" points="132.5,113.1 117.7,124.6 130.1,131.6 133.5,124.2 			"/>
			<path class="st69" d="M116.9,139.1c0-0.1-3.2-5.5-8-7.3l-5-3.4l-0.5-1.4l0.9-0.8l5.1-1.4l8.4-0.4l-0.8,14.8L116.9,139.1z"/>
			<path class="st69" d="M109.4,125l8.3-0.4l-0.8,14.6c0,0-3.2-5.5-8-7.3l-5-3.4l-0.5-1.3l0.9-0.8L109.4,125z"/>
			<path class="st70" d="M109.4,125L109.4,125l-2.8-9.6l0,0l5.2-6.7l0,0c2.7,1.3,5.9,0.9,5.9,0.8l0,0l0,0l8.7,8.3l0,0l-8.6,6.7l0,0
				L109.4,125z M106.7,115.4l2.8,9.5l8.3-0.4l8.6-6.6l-8.6-8.2c-0.3,0-3.3,0.4-5.9-0.8L106.7,115.4z"/>
			<path class="st70" d="M111.8,108.8l-5.2,6.6l2.8,9.6l8.3-0.4l8.6-6.7l-8.6-8.3C117.7,109.6,114.6,110.1,111.8,108.8"/>
			<path class="st71" d="M117.6,109.6l0.1,0c0,0,4.2-0.1,6.7-1.2l7.6-4l0.6,8.7l-6.2,4.8L117.6,109.6z"/>
			<path class="st71" d="M131.9,104.5l0.6,8.6l-6.2,4.8l-8.6-8.3c0,0,4.2-0.1,6.7-1.2L131.9,104.5z"/>
			<polygon class="st72" points="104.7,108.6 103.6,106.7 111.9,108.7 106.6,115.5 			"/>
			<polygon class="st72" points="103.7,106.8 111.8,108.8 106.6,115.4 104.7,108.6 			"/>
			<polygon class="st73" points="95.3,110.6 96.2,98.1 103.8,106.8 102.4,110.6 			"/>
			<polygon class="st73" points="95.3,110.5 96.2,98.2 103.7,106.8 102.3,110.5 			"/>
			<polygon class="st74" points="96.2,98.2 99.2,94 108.2,98.2 103.7,106.9 			"/>
			<polygon class="st74" points="108.1,98.2 103.7,106.8 96.2,98.2 99.2,94.1 			"/>
			<polygon class="st75" points="103.6,106.8 108.1,103.7 108.3,108 			"/>
			<polygon class="st75" points="108.3,107.9 108.1,103.8 103.7,106.8 			"/>
			<polygon class="st76" points="103.7,106.8 108.1,98.1 111.2,100.4 108.1,103.8 103.7,106.8 			"/>
			<polygon class="st76" points="111.2,100.5 108.1,103.8 103.7,106.8 108.1,98.2 			"/>
			<path class="st77" d="M108.2,107.9v-0.5l0,0c2.3-2.2,4.7-3.3,7.3-3.3c3.8,0,6.5,2.6,6.6,2.6l0,0l-0.9,0.5l0,0
				c-1.7-1.4-3.5-2.1-5.3-2.1c-3.8,0-6.8,2.9-6.8,2.9l0,0L108.2,107.9z"/>
			<path class="st77" d="M109,108.1c0,0,6.1-6,12.3-0.9l0.8-0.4c0,0-6.5-6.4-13.8,0.7v0.4L109,108.1z"/>
			<path class="st78" d="M117.9,109.7L117.9,109.7c1.1-0.7,3.2-2,3.3-2.4l0,0l0.9-0.4l0,0l2.9,1.4l-0.1,0
				C124.8,108.3,123.4,109.3,117.9,109.7 M121.3,107.3c-0.2,0.5-2.5,1.9-3.2,2.3c2.8-0.2,4.4-0.5,5.4-0.8c0.8-0.2,1.2-0.4,1.3-0.5
				l-2.7-1.4L121.3,107.3z"/>
			<path class="st78" d="M117.9,109.6c0,0,3.1-1.8,3.4-2.4l0.8-0.4l2.8,1.4C124.9,108.2,123.5,109.3,117.9,109.6"/>
			<path class="st79" d="M116.4,109.7c-1.2,0-2.9-0.2-4.6-0.9l-2.9-0.7l1-0.8l0,0c0,0,5,1.7,8,1.7c0.5,0,0.9,0,1.2-0.1l0,0.1
				l-1.2,0.7C117.9,109.7,117.3,109.7,116.4,109.7"/>
			<path class="st79" d="M109,108.1l0.9-0.7c0,0,6.6,2.2,9.2,1.5l-1.2,0.7c0,0-3.1,0.5-6.1-0.8L109,108.1z"/>
			<path class="st80" d="M114,108.5L114,108.5c-0.1,0-3.4-0.7-4.2-1.1l-0.1,0l0.1,0c0.1-0.1,1.9-1.5,3.1-1.7l0,0l0,0
				C113.1,106.4,113.5,108.3,114,108.5L114,108.5L114,108.5L114,108.5z M110,107.3c0.7,0.4,3,0.9,3.8,1c-0.5-0.5-0.8-2.3-0.8-2.7
				C111.9,105.9,110.3,107.1,110,107.3"/>
			<path class="st80" d="M113,105.7c0,0,0.3,2.7,1.1,2.8c0,0-3.4-0.7-4.2-1.1C109.9,107.3,111.8,105.8,113,105.7"/>
			<path class="st81" d="M118.1,109c-0.7,0-1.4-0.1-1.5-0.1l0-0.1c1.9-0.6,1.8-3.3,1.8-3.3l0-0.1l0.1,0c0,0,3,1.4,2.9,1.7
				c-0.1,0.3-2,1.6-2.1,1.7C119,109,118.6,109,118.1,109 M116.8,108.9c0.7,0,2,0.1,2.3-0.1c0.4-0.3,2-1.4,2.1-1.6
				c0-0.2-2.3-1.4-2.7-1.6c0,0.2,0,0.8-0.2,1.4C118,107.9,117.5,108.6,116.8,108.9"/>
			<path class="st81" d="M118.4,105.6c0,0,0.2,2.7-1.8,3.3c0,0,2.2,0.2,2.5,0c0.3-0.2,2-1.4,2.1-1.6
				C121.3,107,118.6,105.6,118.4,105.6"/>
			<path class="st82" d="M116.6,109L116.6,109c-0.2,0-2.4-0.4-2.7-0.5c-0.4-0.1-0.9-2.5-0.9-2.8l0,0l0,0c3.1-1,5.4-0.1,5.5-0.1l0,0
				l0,0c0.1,1.5-0.5,2.4-1,2.8C117.1,108.8,116.7,109,116.6,109 M113,105.7c0.2,1,0.6,2.6,0.9,2.7c0.4,0.1,2.6,0.5,2.7,0.5h0
				c0.1,0,0.5-0.2,0.9-0.6c0.4-0.5,0.9-1.3,0.9-2.7C117.6,105.3,115.4,104.9,113,105.7"/>
			<path class="st82" d="M113,105.7c0,0,0.5,2.6,0.9,2.7c0.4,0.1,2.6,0.5,2.7,0.5c0.1,0,1.9-0.8,1.8-3.3
				C118.4,105.6,116.1,104.6,113,105.7"/>
			<polygon class="st83" points="108.1,98.2 108.1,98.2 114.1,99.8 114.1,99.9 111.1,100.5 			"/>
			<polygon class="st83" points="114,99.8 111.2,100.5 108.1,98.2 			"/>
			<polygon class="st84" points="108.1,98.2 108.1,98.1 115.8,96.7 114.1,99.9 			"/>
			<polygon class="st84" points="115.7,96.8 114,99.8 108.1,98.2 			"/>
			<path class="st85" d="M115.7,96.7l5.6,2.6l0,0.1c0,0-1.4-0.1-2.9-0.1c-2.1,0-3.6,0.2-4.2,0.6l-0.2,0.1L115.7,96.7z"/>
			<path class="st85" d="M121.2,99.3c0,0-5.5-0.5-7.2,0.5l1.7-3.1L121.2,99.3z"/>
			<path class="st86" d="M121.2,99.4L121.2,99.4l-5.7-2.6l0.2,0c0.3-0.1,8.2-1.5,8.8,0l0,0l0,0L121.2,99.4z M115.9,96.8l5.4,2.5
				l3.2-2.5c-0.3-0.6-1.9-0.7-4.5-0.5C118.1,96.4,116.4,96.7,115.9,96.8"/>
			<path class="st86" d="M124.4,96.8l-3.2,2.5l-5.5-2.5C115.7,96.8,123.8,95.3,124.4,96.8"/>
			<path class="st87" d="M84.9,108.1c-1.4-1.3-1-3.7-1-3.8l0,0l1.8,0l1.2,1.2L84.9,108.1L84.9,108.1z"/>
			<path class="st87" d="M84,104.4c0,0-0.5,2.4,0.9,3.7l2-2.6l-1.2-1.2L84,104.4z"/>
			<polygon class="st88" points="121.1,99.4 124.4,96.7 127.8,99.9 			"/>
			<polygon class="st88" points="127.7,99.8 121.2,99.3 124.4,96.8 			"/>
			<polygon class="st89" points="122,106.8 127.7,99.8 132,104.5 124.9,108.3 			"/>
			<polygon class="st89" points="131.9,104.5 127.7,99.8 122.1,106.8 124.9,108.2 			"/>
			<path class="st90" d="M122.1,106.9L122.1,106.9c-2-1.6-3.9-2.3-5-2.5c-1.3-0.3-2.1-0.1-2.1-0.1l0,0l0,0l-0.9-4.4l0,0
				c1-0.9,7-0.5,7.2-0.5l6.5,0.5l-0.1,0.1L122.1,106.9z M115.5,104.1c0.4,0,0.9,0,1.5,0.2c1.2,0.2,3,0.9,5,2.5l5.5-6.8l-6.4-0.5
				c-0.1,0-6.1-0.4-7.1,0.5l0.9,4.3C115.1,104.1,115.3,104.1,115.5,104.1"/>
			<path class="st90" d="M114,99.8l0.9,4.3c0,0,3.2-0.5,7.1,2.6l5.6-7l-6.4-0.5C121.2,99.3,115.1,98.9,114,99.8"/>
			<path class="st91" d="M108,103.7l3.1-3.3l3-0.6l0.9,4.4l-0.1,0c-3.7,0.2-6.6,3.2-6.6,3.3l-0.1,0.1L108,103.7z"/>
			<path class="st91" d="M111.2,100.5l-3.1,3.3l0.2,3.7c0,0,2.9-3.1,6.7-3.3l-0.9-4.3L111.2,100.5z"/>
			<polygon class="st92" points="127.6,99.9 124.4,96.8 131.2,90.1 132,104.6 			"/>
			<polygon class="st92" points="131.1,90.2 124.4,96.8 127.7,99.8 131.9,104.5 			"/>
			<path class="st4" d="M124.4,96.8c-0.3-0.6-1.3-0.7-2.1-0.7c-0.5,0-0.9,0-0.9,0l0,0l-1.9-17.8l4.7-2.9l0,0
				c0.1,0.1,1.8,2.5,1.9,3.8c0.1,1.3,3.1,4.9,4.3,6.2c1,1.1,0.9,4.6,0.9,4.7l0,0L124.4,96.8L124.4,96.8z"/>
			<path class="st4" d="M119.5,78.4l1.9,17.7c0,0,2.6-0.3,3.1,0.7l6.7-6.6c0,0,0.1-3.6-0.9-4.7c-1-1.1-4.2-4.9-4.3-6.2
				c-0.1-1.3-1.9-3.7-1.9-3.7L119.5,78.4z"/>
			<path class="st93" d="M108,98.3L108,98.3l1.3-18.6l0.1,0c0.1,0,5.7,2.5,10-1.2l0.1-0.1l0,0.1l1.9,17.7l-0.1,0
				C121.3,96.2,117.3,96.3,108,98.3L108,98.3z M109.5,79.8l-1.3,18.4c8.6-1.8,12.7-2,13.2-2.1l-1.9-17.5
				C115.3,82,110.1,80,109.5,79.8"/>
			<path class="st93" d="M108.1,98.2l1.3-18.5c0,0,5.7,2.6,10-1.2l1.9,17.7C121.4,96.1,117.4,96.2,108.1,98.2"/>
			<polygon class="st3" points="99.2,94.1 109.5,79.5 108.1,98.3 			"/>
			<polygon class="st3" points="99.2,94.1 109.4,79.7 108.1,98.2 			"/>
			<path class="st94" d="M96.2,98.3L95.9,71l0.1,0.1c2.6,2.8,6.5,6.5,10.2,7.9c2.2,0.9,3.2,0.6,3.2,0.6l0.1,0L96.2,98.3z M96,71.3
				L96.3,98l13-18.3c-0.3,0.1-1.4,0.1-3.2-0.6C102.5,77.7,98.6,74.1,96,71.3"/>
			<path class="st94" d="M95.9,71.2l0.3,27l13.2-18.5C109.4,79.7,105.2,81,95.9,71.2"/>
			<path class="st95" d="M96.3,98.3L96.3,98.3c-0.1,0-2.4-0.9-5.2-1.6c-2.6-0.7-6.3-1.5-8.9-1.2l-0.1,0l0-0.1L96,71L96.3,98.3z
				 M83.3,95.3c2.5,0,5.5,0.7,7.8,1.3c2.6,0.7,4.7,1.4,5.1,1.6l-0.3-26.8l-13.7,24C82.6,95.3,82.9,95.3,83.3,95.3"/>
			<path class="st95" d="M82.1,95.4l13.8-24.2l0.3,27C96.2,98.2,87.1,94.8,82.1,95.4"/>
			<path class="st96" d="M71.4,83.1L71.4,83.1c1.9,1.1,4,1.7,6.2,1.7h0c2.1,0,3.5-0.5,3.5-0.5l0.1,0l0.9,11.3L71.4,83.1z"/>
			<path class="st96" d="M81.2,84.3c0,0-5.1,1.8-9.8-1.2l10.7,12.3L81.2,84.3z"/>
			<path class="st97" d="M81.2,84.3L81.2,84.3c2.7-1.5,0-12.4-0.1-12.5l0.1,0l8.5,10.4l-7.7,13.4L81.2,84.3z"/>
			<path class="st97" d="M81.2,71.7c0,0,2.8,11,0.1,12.5l0.9,11.1l7.6-13.3L81.2,71.7z"/>
			<path class="st98" d="M72.8,99.9l0.1-0.1c1.2-1.2,4.9-3.3,5-3.4l0,0l0,0l2,2.3h-0.1c-0.8,0-6.8,1.1-6.9,1.1L72.8,99.9z
				 M77.9,96.5c-0.4,0.2-3.6,2.1-4.8,3.2c0.9-0.2,5.6-1,6.6-1.1L77.9,96.5z"/>
			<path class="st98" d="M72.9,99.8c0,0,6.1-1.1,6.9-1.1l-1.9-2.2C77.9,96.5,74.1,98.6,72.9,99.8"/>
			<path class="st99" d="M79.6,98.8l4.6-3.5l2.9,3l-0.1,0.1c-0.5-0.2-4.9,0.2-7.3,0.4L79.6,98.8z M84.2,95.4L80,98.6
				c1-0.1,5.9-0.6,7-0.4L84.2,95.4z"/>
			<path class="st99" d="M87.1,98.3l-2.9-3l-4.4,3.4C79.8,98.7,86.5,98,87.1,98.3"/>
			<path class="st100" d="M87.1,98.4L87.1,98.4l-3-3.1l0.1,0c0.2,0,5.6,0.7,6.2,1.1l0.1,0L87.1,98.4z M84.4,95.4l2.7,2.8l3.2-1.8
				C89.5,96.1,85.2,95.5,84.4,95.4"/>
			<path class="st100" d="M90.4,96.4l-3.3,1.9l-2.9-3C84.2,95.4,89.8,96,90.4,96.4"/>
			<path class="st101" d="M93.9,99.9C93.9,99.9,93.9,99.9,93.9,99.9c-0.2-0.1-4-1.5-6.8-1.5h0l-0.2,0l3.5-2l0,0
				c0.6,0.2,5.7,1.6,5.9,1.8l0,0l0,0C95.6,98.8,94.2,99.9,93.9,99.9 M87.3,98.3c2.7,0.1,6.4,1.4,6.6,1.5c0.1,0.1,1.2-0.8,2.2-1.6
				c-0.4-0.2-3.6-1.1-5.8-1.7L87.3,98.3z"/>
			<path class="st101" d="M96.2,98.2c0,0-2.1,1.8-2.3,1.6c-0.2-0.2-4-1.5-6.8-1.5l3.3-1.9C90.4,96.4,96,98,96.2,98.2"/>
			<path class="st102" d="M73.1,102.5l-0.2-2.7l0,0c0.5-0.2,6.6-1.1,6.9-1.1l0,0l0,0c0,0,2,5,2.2,5.7l0,0.1L73.1,102.5z"/>
			<path class="st102" d="M82,104.4c-0.2-0.7-2.2-5.6-2.2-5.6s-6.3,0.9-6.9,1.1l0.2,2.6L82,104.4z"/>
			<polygon class="st103" points="73.1,102.4 82.1,104.3 75.6,107.5 			"/>
			<polygon class="st103" points="75.6,107.5 82,104.4 73.2,102.5 			"/>
			<path class="st77" d="M78.9,106.5c-0.4,0-0.6-0.1-0.6-0.1l-0.4,0l0-0.1l4.7-2.6c1.1-0.4,2.2-0.6,3.2-0.6c3.7,0,5.9,2.7,5.9,2.7
				l0,0l-0.4,0.6l0,0c-2-1.3-3.9-2-5.8-2c-2.5,0-4.3,1.1-5.2,1.7c-0.3,0.2-0.5,0.3-0.6,0.3C79.3,106.4,79.1,106.5,78.9,106.5"/>
			<path class="st77" d="M78.4,106.3c0,0,0.4,0.2,1.2,0c0.8-0.2,5.2-4.4,11.8,0l0.3-0.5c0,0-3.3-4.2-9-2.1l-4.7,2.6H78.4z"/>
			<path class="st104" d="M84.7,108.1c-0.2,0-0.3,0-0.5,0c-0.1,0-0.2,0-0.4,0c-3.5-0.1-4.3-1.7-4.3-1.7v0l1.6-0.9l0,0
				c1.1,2.5,3.7,2.5,3.8,2.5l0,0.1C84.8,108.1,84.8,108.1,84.7,108.1 M79.6,106.4c0.2,0.2,1.2,1.5,4.2,1.6c0,0,0,0,0,0
				c-0.9-0.3-2.1-0.9-2.8-2.4L79.6,106.4z"/>
			<path class="st104" d="M84.9,108.1c-0.5,0-0.6-0.1-1-0.1c-3.4-0.1-4.3-1.6-4.3-1.6l1.5-0.8C82.2,108,84.9,108.1,84.9,108.1"/>
			<path class="st105" d="M75.6,107.5l2.4-1.2l0.4,0c0.1,0.1,0.3,0.1,0.5,0.1c0.3,0,0.7-0.1,0.7-0.1l0,0l4.3,6l-5.6,0.9L75.6,107.5z
				"/>
			<path class="st105" d="M83.8,112.3l-4.3-5.9c0,0-0.7,0.2-1.2,0h-0.4l-2.3,1.1l2.7,5.6L83.8,112.3z"/>
			<polygon class="st106" points="83.8,112.2 90.8,107 91.3,106.3 91.6,105.8 94.5,107.7 91.7,111.1 83.8,112.3 			"/>
			<polygon class="st106" points="91.3,106.3 90.8,107.1 83.8,112.3 91.7,111.1 94.4,107.7 91.7,105.8 			"/>
			<polygon class="st107" points="94.4,107.6 95.7,105.9 95.4,110.6 91.5,111.1 			"/>
			<polygon class="st107" points="95.6,106.1 94.4,107.7 91.7,111.1 95.3,110.5 			"/>
			<path class="st53" d="M91.6,105.9c0,0-4.5-4.3-9.7-1.7l0,0l-2.1-5.5l0.1,0c0.1,0,7.1-0.9,9.3-0.2l0,0l0,0L91.6,105.9L91.6,105.9z
				 M85.4,103.2c3.1,0,5.5,1.9,6.1,2.4l-2.5-7.1c-2.2-0.6-8.5,0.1-9.2,0.2l2,5.3C83.2,103.5,84.3,103.2,85.4,103.2"/>
			<path class="st53" d="M89.1,98.5l2.5,7.3c0,0-4.4-4.4-9.8-1.7l-2.1-5.4C79.8,98.7,86.8,97.8,89.1,98.5"/>
			<path class="st108" d="M91.6,105.9l-2.6-7.4l0.1,0c1.3,0.1,4.5,1.3,4.7,1.3h0c0.2,0,1.5-1,2.3-1.6l0.1-0.1l-0.6,8l-1.2,1.7
				L91.6,105.9z"/>
			<path class="st108" d="M96.2,98.2c0,0-2.1,1.8-2.3,1.6c-0.2-0.1-3.4-1.2-4.7-1.3l2.5,7.3l2.8,1.8l1.2-1.6L96.2,98.2z"/>
			<path class="st109" d="M85.1,108.1l-0.1,0c0,0-2.9-0.1-3.9-2.6l0,0l0,0c0,0,1.6-0.9,2.9-1l0.1,0l0,0.1
				C84,104.5,83.6,106.8,85.1,108.1L85.1,108.1z M81.1,105.5c0.9,2.1,3.1,2.4,3.7,2.5c-1.2-1.2-0.9-3.1-0.9-3.5
				C82.7,104.7,81.4,105.4,81.1,105.5"/>
			<path class="st109" d="M84,104.5c0,0-0.4,2.3,1,3.6c0,0-2.8-0.1-3.9-2.6C81.1,105.5,82.6,104.6,84,104.5"/>
			<path class="st110" d="M87.6,108.1L87.6,108.1l0-0.1c0.8-0.3,1.5-2.9,1.5-2.9l0-0.1l0.1,0c0.6,0.3,2.1,1.2,2.2,1.2l0,0l-0.5,0.8
				l0,0L87.6,108.1C87.6,108.1,87.6,108.1,87.6,108.1 M89.2,105.2c-0.1,0.3-0.6,2.1-1.2,2.7l2.8-0.9l0.5-0.7
				C91,106.2,89.8,105.4,89.2,105.2"/>
			<path class="st110" d="M89.1,105.1c0,0-0.7,2.8-1.6,3l3.2-1l0.5-0.7C91.3,106.3,89.8,105.4,89.1,105.1"/>
			<path class="st5" d="M62.9,112.3c0-0.1-1.4-10.4-1.8-11.8c0,0-1.4-2.7-3.1-3.1l0,0l-1.5-8.2l15.2-6.2l-0.1,0.1
				c-0.1,0.1-7.1,11.9-7.4,24L62.9,112.3L62.9,112.3z"/>
			<path class="st5" d="M62.9,112.3c0,0-1.4-10.4-1.8-11.8c0,0-1.4-2.8-3.1-3.1l-1.5-8.1l15-6.2c0,0-7.2,11.8-7.4,24L62.9,112.3z"/>
			<path class="st111" d="M56.4,89.2c-1.7-4.9-1.6-8.9-1.3-11.4c0.4-2.7,1.3-4.2,1.3-4.3l0,0L71.6,83L56.4,89.2L56.4,89.2z"/>
			<path class="st111" d="M56.5,73.6c0,0-3.4,6.1,0,15.6l15-6.2L56.5,73.6z"/>
			<path class="st112" d="M130.2,85.5L130.2,85.5c-2.8-2.8-4.3-6.2-4.3-6.2c-0.7-2.8-1.8-3.7-1.9-3.7l0.1-0.1l14.4,6.7l-0.1,0
				L130.2,85.5z M124.3,75.7c0.4,0.4,1.1,1.4,1.7,3.6c0,0,1.6,3.4,4.3,6.1l8-3.2L124.3,75.7z"/>
			<path class="st112" d="M130.2,85.5l8.1-3.2l-14.3-6.7c0,0,1.1,0.9,1.9,3.7C125.9,79.3,127.5,82.7,130.2,85.5"/>
			<path class="st113" d="M131.9,104.6l0-0.1c0-0.1-0.6-8.7-0.7-14.3c-0.1-2.4-0.5-4.2-1-4.6l-0.1-0.1l0.1,0l8.2-3.3l0,0.1
				c0,0.1-0.5,8.1-1.7,11.9c-0.5,2.3-1.3,6.8-0.8,7.4l0,0.1l-0.1,0c0,0-2.6,1.1-3.9,2.9L131.9,104.6z M130.3,85.5
				c0.4,0.5,0.9,2.2,0.9,4.7c0.1,5.2,0.7,13.1,0.7,14.2c1.2-1.7,3.4-2.7,3.8-2.9c-0.5-0.9,0.8-7.1,0.8-7.4c1.2-3.6,1.6-11,1.7-11.8
				L130.3,85.5z"/>
			<path class="st113" d="M135.8,101.5c0,0-2.6,1.1-3.9,3c0,0-0.6-8.7-0.7-14.3c-0.1-2.6-0.6-4.3-1-4.7l8.1-3.2
				c0,0-0.5,8.1-1.7,11.9C136.7,94.1,135.2,100.8,135.8,101.5"/>
			<path class="st114" d="M81.1,71.7L81.1,71.7c3-2.2,5.8-3.4,8.5-3.4c4.1,0,6.3,2.7,6.4,2.8l0,0l-6.3,11L81.1,71.7z"/>
			<path class="st114" d="M95.9,71.2c0,0-5.2-6.6-14.8,0.6l8.5,10.4L95.9,71.2z"/>
			<path class="st115" d="M108.9,79.8c-3.1,0-7.4-2.9-13-8.6c-2.2-2.2-4.6-2.6-4.6-2.6l-0.1,0l14.3-19.5l4,30.7l0,0
				C109.3,79.8,109.1,79.8,108.9,79.8"/>
			<path class="st115" d="M105.5,49.2L91.3,68.6c0,0,2.4,0.4,4.6,2.6c2.2,2.2,9,9,13.5,8.5L105.5,49.2z"/>
			<path class="st116" d="M56.4,73.6c0.3-5.2,9-13.9,9-13.9l0,0l7.7,9.3L56.4,73.6L56.4,73.6z"/>
			<path class="st116" d="M65.5,59.7c0,0-8.7,8.7-9,13.9l16.7-4.7L65.5,59.7z"/>
			<polygon class="st117" points="56.4,73.6 73.3,68.8 64.2,78.5 			"/>
			<polygon class="st117" points="64.2,78.4 73.2,68.9 56.5,73.6 			"/>
			<path class="st118" d="M73.2,69L73.2,69l-7.7-9.3l0,0c0,0,2.3-2.6,5.1-4.8c3.7-3,6.3-3.9,7.9-2.8l0,0l0,0L73.2,69z M65.6,59.7
				l7.6,9.1l5.2-16.7C74.8,49.8,66.1,59.1,65.6,59.7"/>
			<path class="st118" d="M78.4,52.1l-5.2,16.8l-7.7-9.2C65.5,59.7,74.7,49.6,78.4,52.1"/>
			<path class="st119" d="M77.7,84.8c-2.4,0-4.5-0.6-6.3-1.7l-7.4-4.6l9.1-9.6l8.1,15.5l-0.1,0C81.2,84.3,79.8,84.8,77.7,84.8"/>
			<path class="st119" d="M64.2,78.4l9-9.5l8.1,15.3c0,0-5.3,1.6-9.8-1.2L64.2,78.4z"/>
			<path class="st120" d="M81.2,84.3L81.2,84.3l-8.1-15.5l8.1,2.8l0,0c1.9,8.6,1.2,11.4,0.5,12.2C81.5,84.3,81.3,84.3,81.2,84.3
				L81.2,84.3z M73.3,69l8,15.2c0.1,0,0.2-0.1,0.4-0.4c0.6-0.8,1.3-3.5-0.6-12.1L73.3,69z"/>
			<path class="st120" d="M81.2,71.7l-8-2.8l8.1,15.3C81.2,84.3,83.9,84,81.2,71.7"/>
			<polygon class="st121" points="73.1,69 76,59.7 82.5,57.8 81.2,71.8 			"/>
			<polygon class="st121" points="82.4,57.9 81.2,71.7 73.2,68.9 76,59.7 			"/>
			<path class="st122" d="M81.1,71.8l1.2-14.1l9.1,10.9l-0.1,0C86.9,67.5,81.3,71.7,81.1,71.8L81.1,71.8z M82.4,58l-1.2,13.6
				c0.7-0.5,5.9-4.1,9.9-3.1L82.4,58z"/>
			<path class="st122" d="M91.3,68.6l-8.9-10.7l-1.2,13.8C81.2,71.7,86.9,67.4,91.3,68.6"/>
			<path class="st19" d="M91.3,68.7l0-0.1l-0.5-21.2l0,0c7.3-2.6,14.6,1.7,14.7,1.8l0,0l0,0L91.3,68.7z M90.9,47.5l0.5,21l14-19.2
				C104.8,48.8,97.8,45,90.9,47.5"/>
			<path class="st19" d="M90.8,47.4l0.5,21.1l14.2-19.4C105.5,49.2,98.2,44.8,90.8,47.4"/>
			<path class="st123" d="M82.4,58L76,59.8l2.4-7.7l0.1,0c0,0,0.3,0.2,1.1,0.2c1.5,0,4.9-0.6,11.3-4.8l0.1,0l0.5,21.4L82.4,58z"/>
			<path class="st123" d="M78.4,52.1c0,0,3.1,1.5,12.4-4.7l0.5,21.1l-8.9-10.7L76,59.7L78.4,52.1z"/>
			<path class="st124" d="M105.4,49.2L105.4,49.2c0.1,0,0.2,0,0.3,0c2.8,0,15.4,5.7,15.6,5.8l0.1,0l-14.2,7.3L105.4,49.2z"/>
			<path class="st124" d="M121.2,54.9c0,0-13.4-6.1-15.8-5.7l1.7,13L121.2,54.9z"/>
			<path class="st125" d="M111.8,59.7l9.4-4.9l0,0c0.6,0,6.7,5.2,7,5.4l0.1,0.1L111.8,59.7z"/>
			<path class="st125" d="M128.2,60.3c0,0-6.6-5.6-7-5.4l-9.3,4.8L128.2,60.3z"/>
			<polygon class="st126" points="116.6,59.9 116.6,59.8 128.2,60.3 134.3,67.9 134.3,68 			"/>
			<polygon class="st126" points="134.3,68 128.2,60.3 116.6,59.9 			"/>
			<path class="st127" d="M113.4,80.6c-2.3,0-4-0.8-4-0.9l0,0l-2.3-17.6l4.9-2.5l4.7,0.2l7.5,15.7l-4.6,2.9
				C117.7,79.9,115.6,80.6,113.4,80.6L113.4,80.6z"/>
			<path class="st127" d="M124.1,75.5l-7.4-15.7l-4.6-0.2l-4.8,2.5l2.3,17.5c0,0,5,2.6,10-1.2L124.1,75.5z"/>
			<polygon class="st128" points="86.9,105.4 87.8,108.1 86.3,108.2 84.7,108.3 			"/>
			<polygon class="st128" points="87.7,108.1 86.9,105.5 84.8,108.2 86.3,108.1 			"/>
			<path class="st129" d="M124,75.6l-7.5-15.8l17.8,8.1c0.1,0.1,4.7,7.7,4.1,14.3l0,0.1L124,75.6z"/>
			<path class="st129" d="M134.3,68c0,0,4.7,7.6,4.1,14.3l-14.3-6.7l-7.4-15.7L134.3,68z"/>
			<path class="st130" d="M61.2,119.7c0,0-3.1-4.7-2.2-8.6c0.4-1.6,1.5-2.9,3.1-3.8l0.1,0l0.7,5L61.2,119.7L61.2,119.7z"/>
			<path class="st130" d="M61.3,119.7c0,0-5.8-8.6,0.9-12.3l0.7,5L61.3,119.7z"/>
			<path class="st131" d="M59.5,129.7c-0.7,0-2.3-0.7-3.1-7.3c0-0.1-1.3-7.2-1.5-7.7c-0.2-0.5-1.6-5.4-1.7-5.6l0.1,0l8,10.6l-1.6,10
				l0,0C59.7,129.7,59.7,129.7,59.5,129.7"/>
			<path class="st131" d="M59.7,129.6c0,0-2.2,0.8-3.2-7.3c0,0-1.3-7.2-1.5-7.7c-0.2-0.5-1.7-5.6-1.7-5.6l7.9,10.6L59.7,129.6z"/>
			<path class="st132" d="M59.9,109.4l-6-8.5l0,0c0.8-3,4-3.6,4.1-3.6l0,0l0,0c1.9,0.8,3.1,3.1,3.1,3.1l0,0l1.1,6.9l-0.1,0
				C61.8,107.4,60.5,108.7,59.9,109.4L59.9,109.4z M54,100.9l5.9,8.3c0.3-0.3,1.6-1.8,2.2-1.9l-1.1-6.8c-0.1-0.1-1.3-2.3-3.1-3.1
				C57.7,97.4,54.7,98.1,54,100.9"/>
			<path class="st132" d="M58,97.3c0,0-3.3,0.6-4,3.6l6,8.4c0,0,1.7-2,2.3-2l-1.1-6.9C61.1,100.5,59.9,98.2,58,97.3"/>
			<path class="st133" d="M53.2,109l6.8,0.3l-0.1,0.1c0,0-2.7,3.5,1.4,10.3l-0.1,0.1L53.2,109z"/>
			<path class="st133" d="M53.3,109.1l6.6,0.3c0,0-2.8,3.5,1.3,10.4L53.3,109.1z"/>
			<path class="st134" d="M53.3,109.1L53.3,109.1c-0.8-2.9,0.6-8.1,0.6-8.2l0-0.1l6.1,8.6L53.3,109.1z"/>
			<path class="st134" d="M53.9,100.9c0,0-1.4,5.3-0.6,8.1l6.6,0.3L53.9,100.9z"/>
			<polygon class="st17" points="131.9,104.5 133.5,102.8 133.5,124.2 133.4,124.2 			"/>
			<polygon class="st17" points="133.5,102.9 133.5,124.2 131.9,104.5 			"/>
			<path class="st135" d="M133.5,124.2L133.5,124.2l-0.1-21.3l0,0c0,0,1.6-1,2.4-1.4l0.1,0l0,0.1
				C135.9,101.7,136.6,117.3,133.5,124.2 M133.5,103l0,21c2.9-6.7,2.3-21.2,2.3-22.3C135,102,133.7,102.8,133.5,103"/>
			<path class="st135" d="M135.8,101.5c0,0,0.7,15.7-2.4,22.6l0-21.2C133.5,102.9,135,101.9,135.8,101.5"/>
			<path class="st136" d="M71.4,82.9l10.8,12.5l-0.1,0c-4.2,0.1-9.1,4.4-9.2,4.5l-0.1,0.1L71.4,82.9z"/>
			<path class="st136" d="M71.5,83l1.5,16.8c0,0,4.9-4.4,9.2-4.5L71.5,83z"/>
			<path class="st21" d="M117,139.2h-4.6l0,0c0,0-2.6-2.3-5.8-2.7l-0.1,0l2.4-4.7l0,0C109,131.8,114.1,133.8,117,139.2L117,139.2z
				 M112.5,139.1h4.4c-2.7-4.9-7.4-7-7.9-7.2l-2.2,4.5C109.8,136.7,112.2,138.9,112.5,139.1"/>
			<path class="st21" d="M117,139.1h-4.5c0,0-2.5-2.4-5.8-2.7l2.3-4.6C108.9,131.8,114.1,133.8,117,139.1"/>
			<path class="st137" d="M79.8,98.8L79.8,98.8l-2-2.3l0.1,0c0,0,2.9-1.6,6.4-1.1l0.1,0L79.8,98.8z M78,96.5l1.8,2.1l4.3-3.3
				C81,95,78.4,96.3,78,96.5"/>
			<path class="st137" d="M84.2,95.4l-4.4,3.4l-1.9-2.2C77.9,96.5,80.8,94.9,84.2,95.4"/>
			<polygon class="st138" points="70.3,122.7 78.4,113.1 90.5,122.7 			"/>
			<polygon class="st138" points="78.4,113.1 70.4,122.7 90.4,122.7 			"/>
			<path class="st139" d="M79.5,106.4L79.5,106.4l0.1,0c1.2,1.6,5.4,1.7,5.4,1.7c0.2,0.1,0.5,0.1,0.7,0.1c1.9,0,4.9-1.1,5-1.1l0,0.1
				l-7,5.3L79.5,106.4z"/>
			<path class="st139" d="M90.8,107.1c0,0-4.1,1.5-5.7,1c0,0-4.4-0.1-5.5-1.7l4.3,5.9L90.8,107.1z"/>
			<path class="st140" d="M115.7,106.3c-0.2,0-0.4,0-0.6-0.2c-0.2-0.2-0.2-0.5-0.2-0.9l0,0h1.3l0,0c0,0,0.2,0.6,0,0.9
				c-0.1,0.1-0.1,0.2-0.2,0.2C116,106.3,115.9,106.3,115.7,106.3"/>
			<path class="st140" d="M116.2,105.2c0,0,0.3,0.9-0.2,1c0,0-1.1,0.3-1-1H116.2z"/>
			<path class="st141" d="M112.6,139.2l-0.2,0c-0.1,0-14.7-1.6-25.4-1.9l0-0.1l2.6-1c0.1,0,7.8-1.6,14.1,0.2l2.9,0
				c0,0,3.1,0.3,5.8,2.7L112.6,139.2z M87.3,137.2c10.1,0.3,23.4,1.7,25,1.9c-2.7-2.3-5.6-2.6-5.6-2.6l-2.9,0
				c-6.2-1.8-13.9-0.2-14-0.2L87.3,137.2z"/>
			<path class="st141" d="M87.1,137.2l2.6-1c0,0,7.7-1.6,14,0.2l2.9,0c0,0,3.1,0.3,5.8,2.7C112.4,139.1,97.9,137.6,87.1,137.2"/>
			<path class="st11" d="M111.9,139.2c-0.9,0-3,0-6.1-0.2c-4-0.2-10.4-0.7-18.7-1.7l0-0.1c1,0.1,24.2,1.3,25.4,1.9l0,0.1
				C112.4,139.2,112.3,139.2,111.9,139.2 M88.5,137.3c13.1,1.6,21.5,1.7,23.5,1.7h0.1C109.4,138.6,93.3,137.6,88.5,137.3"/>
			<path class="st11" d="M87.1,137.2c0,0,24.2,1.3,25.4,1.9C112.4,139.1,103.2,139.3,87.1,137.2"/>
			<path class="st142" d="M106.6,125.7c-0.1-0.4-0.7-0.6-0.7-0.6l0,0l-1.2-3.5l-0.8-3.6l0.1,0l5.5,7.1L106.6,125.7L106.6,125.7z"/>
			<path class="st142" d="M109.4,125l-5.5-7.1l0.8,3.6l1.2,3.5c0,0,0.6,0.3,0.7,0.6L109.4,125z"/>
			<path class="st143" d="M97.8,125.6c-0.5-1.1-1.4-1.1-1.4-1.1l-0.1,0l1.5-2.8l7.1-0.1L97.8,125.6L97.8,125.6z"/>
			<path class="st143" d="M104.7,121.5l-6.9,0.1l-1.5,2.8c0,0,1,0.1,1.5,1.2L104.7,121.5z"/>
			<polygon class="st140" points="114.7,105.1 116.3,105.1 116.3,106.1 114.7,106.7 			"/>
			<polygon class="st140" points="116.2,105.2 116.2,106.1 114.7,106.6 114.7,105.2 			"/>
			<polygon class="st144" points="114.7,106.7 114.7,106.6 116.2,106 116.5,106.5 115.9,106.8 			"/>
			<polygon class="st144" points="116.4,106.4 115.9,106.7 114.7,106.6 116.2,106.1 			"/>
			<polygon class="st145" points="116.2,106.1 116.2,105.1 116.7,105.1 116.4,106.6 			"/>
			<polygon class="st145" points="116.6,105.2 116.4,106.4 116.2,106.1 116.2,105.2 			"/>
			<polygon class="st146" points="113.8,108.4 113.7,108.3 115.1,106.7 113.2,106.7 113.2,106.6 115.3,106.6 			"/>
			<polyline class="st146" points="113.2,106.7 115.2,106.7 113.7,108.4 			"/>
			<path class="st147" d="M86.8,105.4l0.3-1l2.1,0.7l0,0c0,0.1-0.3,2.8-1.5,2.9l0,0L86.8,105.4z"/>
			<path class="st147" d="M89.1,105.1c0,0-0.2,2.8-1.5,2.8l-0.8-2.6l0.3-0.9L89.1,105.1z"/>
			<path class="st144" d="M86.6,106.2c0,0-0.7-0.1-1-0.7c-0.2-0.3-0.2-0.7,0-1.2l0,0l1.5,0.1l0.4,0.1l0,0c0,0,0.2,0.6,0,1
				C87.4,105.9,87.1,106.1,86.6,106.2L86.6,106.2L86.6,106.2z"/>
			<path class="st144" d="M87.5,104.5c0,0,0.5,1.3-0.9,1.6c0,0-1.5-0.3-0.9-1.8l1.5,0.1L87.5,104.5z"/>
			<path class="st140" d="M86.5,105.7c0,0-0.5-0.1-0.8-0.5c-0.1-0.3-0.1-0.6,0-0.9l0,0l1.5,0.1l0,0c0,0,0.2,0.5,0,0.9
				C87,105.5,86.8,105.7,86.5,105.7L86.5,105.7L86.5,105.7z"/>
			<path class="st140" d="M87.1,104.4c0,0,0.4,1.1-0.7,1.3c0,0-1.2-0.2-0.7-1.4L87.1,104.4z"/>
			<path class="st148" d="M116.9,149.5c0-0.1-2.1-9.9-4.5-10.3l0-0.1h4.5l4,2.3l-4,8.2L116.9,149.5z"/>
			<path class="st148" d="M117,149.5c0,0-2-10-4.5-10.3h4.5l3.9,2.3L117,149.5z"/>
		</g>
	</g>
</g>
</svg>
