<?xml version="1.0" encoding="utf-8"?>
<!-- Generator: Adobe Illustrator 19.2.1, SVG Export Plug-In . SVG Version: 6.00 Build 0)  -->
<svg version="1.1" id="Layer_1" xmlns="http://www.w3.org/2000/svg" xmlns:xlink="http://www.w3.org/1999/xlink" x="0px" y="0px"
	 width="192px" height="234px" viewBox="0 0 192 234" style="enable-background:new 0 0 192 234;" xml:space="preserve">
<style type="text/css">
	.st0{fill:#F2F2F2;}
	.st1{fill:#23A684;}
	.st2{clip-path:url(#SVGID_2_);}
	.st3{clip-path:url(#SVGID_4_);fill:#F8A382;}
	.st4{clip-path:url(#SVGID_4_);fill:#CD745B;}
	.st5{clip-path:url(#SVGID_4_);fill:#955843;}
	.st6{clip-path:url(#SVGID_4_);fill:#DAA18E;}
	.st7{clip-path:url(#SVGID_4_);fill:#200D0C;}
	.st8{clip-path:url(#SVGID_4_);fill:#B17058;}
	.st9{clip-path:url(#SVGID_4_);fill:#FCC8AD;}
	.st10{clip-path:url(#SVGID_6_);fill:#AB754E;}
	.st11{clip-path:url(#SVGID_6_);fill:#9B795D;}
	.st12{clip-path:url(#SVGID_6_);fill:#F9B096;}
	.st13{clip-path:url(#SVGID_6_);fill:#DB9075;}
	.st14{clip-path:url(#SVGID_6_);fill:#AC7354;}
	.st15{clip-path:url(#SVGID_6_);fill:#A26E56;}
	.st16{clip-path:url(#SVGID_6_);fill:#F6C097;}
	.st17{clip-path:url(#SVGID_6_);fill:#ECA48A;}
	.st18{clip-path:url(#SVGID_6_);fill:#FBBC96;}
	.st19{clip-path:url(#SVGID_6_);fill:#FCC49F;}
	.st20{clip-path:url(#SVGID_6_);fill:#F9B296;}
	.st21{clip-path:url(#SVGID_6_);fill:#F3AA8B;}
	.st22{clip-path:url(#SVGID_6_);fill:#BA7C55;}
	.st23{clip-path:url(#SVGID_6_);fill:#FAB594;}
	.st24{clip-path:url(#SVGID_6_);fill:#A86C4A;}
	.st25{clip-path:url(#SVGID_6_);fill:#955843;}
	.st26{clip-path:url(#SVGID_6_);fill:#B9795D;}
	.st27{clip-path:url(#SVGID_6_);fill:#CD7B5C;}
	.st28{clip-path:url(#SVGID_6_);fill:#A45945;}
	.st29{clip-path:url(#SVGID_6_);fill:#C87260;}
	.st30{clip-path:url(#SVGID_6_);fill:#CD7468;}
	.st31{clip-path:url(#SVGID_6_);fill:#DB8B7B;}
	.st32{clip-path:url(#SVGID_6_);fill:#0D0809;}
	.st33{clip-path:url(#SVGID_6_);fill:#B96459;}
	.st34{clip-path:url(#SVGID_6_);fill:#A7654F;}
	.st35{clip-path:url(#SVGID_6_);fill:#CD8977;}
	.st36{clip-path:url(#SVGID_6_);fill:#DD947E;}
	.st37{clip-path:url(#SVGID_6_);fill:#EEAA94;}
	.st38{clip-path:url(#SVGID_6_);fill:#F8B399;}
	.st39{clip-path:url(#SVGID_6_);fill:#1B140D;}
	.st40{clip-path:url(#SVGID_6_);fill:#F69B90;}
	.st41{clip-path:url(#SVGID_6_);fill:#F69989;}
	.st42{clip-path:url(#SVGID_6_);fill:#F8A68C;}
	.st43{clip-path:url(#SVGID_6_);fill:#AD533C;}
	.st44{clip-path:url(#SVGID_6_);fill:#B35642;}
	.st45{clip-path:url(#SVGID_6_);fill:#FAB8A7;}
	.st46{clip-path:url(#SVGID_6_);fill:#A43022;}
	.st47{clip-path:url(#SVGID_6_);fill:#A54227;}
	.st48{clip-path:url(#SVGID_6_);fill:#52332B;}
	.st49{clip-path:url(#SVGID_6_);fill:#DD9E88;}
	.st50{clip-path:url(#SVGID_6_);fill:#F9B4A0;}
	.st51{clip-path:url(#SVGID_6_);fill:#B77452;}
	.st52{clip-path:url(#SVGID_6_);fill:#200D0C;}
	.st53{clip-path:url(#SVGID_6_);fill:#673F26;}
	.st54{clip-path:url(#SVGID_6_);fill:#5E3A29;}
	.st55{clip-path:url(#SVGID_6_);fill:#784E3C;}
	.st56{clip-path:url(#SVGID_6_);fill:#8E6855;}
	.st57{clip-path:url(#SVGID_6_);fill:#1C140D;}
	.st58{clip-path:url(#SVGID_6_);fill:#130B09;}
	.st59{clip-path:url(#SVGID_6_);fill:#84553D;}
	.st60{clip-path:url(#SVGID_6_);fill:#704730;}
	.st61{clip-path:url(#SVGID_6_);fill:#CA9374;}
	.st62{clip-path:url(#SVGID_6_);fill:#EFAF97;}
	.st63{clip-path:url(#SVGID_6_);fill:#FBC5AD;}
	.st64{clip-path:url(#SVGID_6_);fill:#FDCFB3;}
	.st65{clip-path:url(#SVGID_6_);fill:#FBBF9E;}
	.st66{clip-path:url(#SVGID_6_);fill:#FBBC9A;}
	.st67{clip-path:url(#SVGID_6_);fill:#F9AB87;}
	.st68{clip-path:url(#SVGID_6_);fill:#F3B187;}
	.st69{clip-path:url(#SVGID_6_);fill:#F8A382;}
	.st70{clip-path:url(#SVGID_6_);fill:#D18460;}
	.st71{clip-path:url(#SVGID_6_);fill:#FAB289;}
	.st72{clip-path:url(#SVGID_6_);fill:#171610;}
	.st73{clip-path:url(#SVGID_6_);fill:#1B1C1C;}
	.st74{clip-path:url(#SVGID_6_);fill:#0B0809;}
	.st75{clip-path:url(#SVGID_6_);fill:#13100E;}
	.st76{clip-path:url(#SVGID_6_);fill:#0C0609;}
	.st77{clip-path:url(#SVGID_6_);fill:#141512;}
	.st78{clip-path:url(#SVGID_6_);fill:#050404;}
	.st79{clip-path:url(#SVGID_6_);fill:#10100F;}
	.st80{clip-path:url(#SVGID_6_);fill:#120F0B;}
	.st81{clip-path:url(#SVGID_6_);fill:#100E0D;}
	.st82{clip-path:url(#SVGID_6_);fill:#080505;}
	.st83{clip-path:url(#SVGID_6_);}
	.st84{clip-path:url(#SVGID_6_);fill:#0F0D0B;}
	.st85{clip-path:url(#SVGID_6_);fill:#101010;}
	.st86{clip-path:url(#SVGID_6_);fill:#030303;}
	.st87{clip-path:url(#SVGID_6_);fill:#070707;}
	.st88{clip-path:url(#SVGID_6_);fill:#161412;}
	.st89{clip-path:url(#SVGID_6_);fill:#FDD0B2;}
	.st90{clip-path:url(#SVGID_6_);fill:#FCC8AD;}
	.st91{clip-path:url(#SVGID_6_);fill:#FAB99F;}
	.st92{clip-path:url(#SVGID_6_);fill:#F8A88C;}
	.st93{clip-path:url(#SVGID_6_);fill:#F8A48F;}
	.st94{clip-path:url(#SVGID_6_);fill:#CD745B;}
	.st95{clip-path:url(#SVGID_6_);fill:#C97959;}
	.st96{clip-path:url(#SVGID_6_);fill:#F59E80;}
	.st97{clip-path:url(#SVGID_6_);fill:#824A3A;}
	.st98{clip-path:url(#SVGID_6_);fill:#E2906F;}
	.st99{clip-path:url(#SVGID_6_);fill:#F8A993;}
	.st100{clip-path:url(#SVGID_6_);fill:#F3F3F3;}
	.st101{clip-path:url(#SVGID_6_);fill:#4C3233;}
	.st102{clip-path:url(#SVGID_6_);fill:#242722;}
	.st103{clip-path:url(#SVGID_6_);fill:#CCB6B4;}
	.st104{clip-path:url(#SVGID_6_);fill:#A98068;}
	.st105{clip-path:url(#SVGID_6_);fill:#A06E55;}
	.st106{clip-path:url(#SVGID_6_);fill:#985F49;}
	.st107{clip-path:url(#SVGID_6_);fill:#A26854;}
	.st108{clip-path:url(#SVGID_6_);fill:#B17058;}
	.st109{clip-path:url(#SVGID_6_);fill:#E09779;}
	.st110{clip-path:url(#SVGID_6_);fill:#F1AD8A;}
	.st111{clip-path:url(#SVGID_6_);fill:#DA988A;}
	.st112{clip-path:url(#SVGID_6_);fill:#DAA18E;}
	.st113{clip-path:url(#SVGID_6_);fill:#A5796A;}
	.st114{clip-path:url(#SVGID_6_);fill:#CD9B8B;}
	.st115{clip-path:url(#SVGID_6_);fill:#EFE3B3;}
	.st116{clip-path:url(#SVGID_8_);fill:#C08D7A;}
	.st117{clip-path:url(#SVGID_8_);fill:#E2BAA2;}
	.st118{clip-path:url(#SVGID_8_);fill:#EAB09A;}
	.st119{clip-path:url(#SVGID_8_);fill:#DEBA9F;}
	.st120{clip-path:url(#SVGID_8_);fill:#C98970;}
	.st121{clip-path:url(#SVGID_10_);fill:#FBC0A5;}
	.st122{clip-path:url(#SVGID_10_);fill:#FBC4A8;}
	.st123{clip-path:url(#SVGID_10_);fill:#53160B;}
	.st124{clip-path:url(#SVGID_10_);fill:#C17E57;}
	.st125{clip-path:url(#SVGID_10_);fill:#D78868;}
	.st126{clip-path:url(#SVGID_10_);fill:#EAAC95;}
	.st127{clip-path:url(#SVGID_10_);fill:#F1A68C;}
	.st128{clip-path:url(#SVGID_10_);fill:#F2AB91;}
	.st129{clip-path:url(#SVGID_10_);fill:#C9805E;}
	.st130{clip-path:url(#SVGID_10_);fill:#F69289;}
	.st131{clip-path:url(#SVGID_10_);fill:#EB9281;}
	.st132{clip-path:url(#SVGID_10_);fill:#FCC8AD;}
	.st133{clip-path:url(#SVGID_10_);fill:#242722;}
</style>
<rect class="st0" width="192" height="234"/>
<polygon class="st1" points="192,215.5 172.5,234 192,234 "/>
<g>
	<g>
		<defs>
			<rect id="SVGID_1_" x="5" y="55.5" width="171" height="172"/>
		</defs>
		<clipPath id="SVGID_2_">
			<use xlink:href="#SVGID_1_"  style="overflow:visible;"/>
		</clipPath>
		<g class="st2">
			<defs>
				<rect id="SVGID_3_" x="5" y="55.5" width="171" height="172"/>
			</defs>
			<clipPath id="SVGID_4_">
				<use xlink:href="#SVGID_3_"  style="overflow:visible;"/>
			</clipPath>
			<path class="st3" d="M72.3,114.1c-0.5-3.1-2.5-5.7-2.9-8.8c-0.3,0.5-0.7,0.9-1,1.4c4.4-0.8,9-0.4,13.4-0.8c2.1-0.1,4.1-0.5,6-1.1
				c1.6-0.5,2.9-1.6,4.6-2c4.3-1.2,9.3-1,13.8-1.6c1.8-0.2,3.6-0.5,5.4-1c1.4-0.4,2.2-1.7,3.4-2.1c1.5-0.5,1.3-2.9-0.4-2.8
				c-8.2,0.4-16.1,2.7-23.5,6.2c-1.7,0.8-0.2,3.2,1.4,2.5c6.9-3.2,14.5-5.4,22.1-5.8c-0.1-0.9-0.3-1.9-0.4-2.8
				c-1.4,0.4-2,1.6-3.4,2.1c-2.1,0.8-4.6,0.9-6.8,1.1c-4.1,0.5-8.4,0.5-12.4,1.4c-1,0.2-2.4,0.7-3.2,1.4c-1.9,1.5-5.3,1.6-7.6,1.8
				c-4.4,0.3-8.8,0-13.2,0.8c-0.6,0.1-1.1,0.8-1,1.4c0.4,3.4,2.5,6.3,3,9.6C69.8,116.7,72.6,115.9,72.3,114.1"/>
			<path class="st3" d="M68.6,85.3c0.2,2.1,0.2,4.2,0.2,6.3c0,1.8,2.9,1.8,2.9,0c0-2.1,0-4.2-0.2-6.3C71.3,83.5,68.5,83.5,68.6,85.3
				"/>
			<path class="st3" d="M65.4,115.7c0.1-7.8-3.7-15.5-2-23.3c-0.9,0.1-1.7,0.2-2.6,0.3c3.4,7.7,5,16.1,8.9,23.6
				c0.9,1.6,3.3,0.2,2.5-1.4c-3.9-7.5-5.6-15.9-8.9-23.6c-0.5-1.1-2.4-0.8-2.6,0.3c-1.8,8.1,2.1,16,1.9,24
				C62.5,117.6,65.4,117.6,65.4,115.7"/>
			<path class="st4" d="M77.4,131c0.6,3.3,0.4,6.6,0.4,9.9c0,1.8,2.8,1.8,2.9,0c0-3.6,0.1-7.1-0.5-10.6
				C79.8,128.5,77.1,129.2,77.4,131"/>
			<path class="st5" d="M76.9,141.3c1,4.4,1.9,8.9,2.3,13.4c0.2,1.8,3,1.8,2.9,0c-0.4-4.8-1.4-9.5-2.4-14.2
				C79.3,138.7,76.5,139.5,76.9,141.3"/>
			<path class="st5" d="M78.4,143.2c1.5,1.1,3.6,1.2,5.5,1.2c1.8,0,1.8-2.8,0-2.9c-1.3,0-2.9-0.1-4-0.9
				C78.3,139.7,76.9,142.2,78.4,143.2"/>
			<path class="st5" d="M84.9,161.5c0.9,0.5,1.9,0.8,2.9,1.1c0.9,0.3,2,0.5,2.7,1.1c1.4,1.1,3.4-0.9,2-2c-1.9-1.5-4.2-1.5-6.2-2.6
				C84.7,158.2,83.3,160.7,84.9,161.5"/>
			<path class="st5" d="M93,158.6c-2,0-4-0.2-5.9,0.3c-1.8,0.5-1,3.3,0.8,2.7c1.7-0.5,3.4-0.3,5.1-0.2
				C94.8,161.5,94.8,158.6,93,158.6"/>
			<path class="st5" d="M79.9,173.2c-0.2-0.2,0.4,0.4,0.5,0.4c0.4,0.3,0.7,0.6,1.1,0.9c0.7,0.6,1.5,1.2,2.4,1.5
				c0.9,0.3,2.2,0,2.7-0.9c0.6-1.1,0.2-2.3-0.5-3.2c-0.5-0.6-1.5-0.5-2,0c-0.6,0.6-0.5,1.4,0,2c0,0,0,0.1,0,0
				c0.1-0.5,0.4-0.7,0.8-0.6c-0.1,0-0.2,0,0,0c-0.4-0.2-0.8-0.5-1.1-0.7c-0.8-0.6-1.6-1.3-2.4-2c-0.6-0.5-1.6-0.1-1.9,0.5
				C78.9,172,79.3,172.7,79.9,173.2"/>
			<path class="st5" d="M79.2,168.5c0-0.6,2.7-1.9,3.2-2.3c0.9-0.8,1.4-2.2,0.8-3.3c-0.8-1.4-2.3-2.1-3.9-1.5
				c-1.7,0.6-1.4,2.4-1.3,3.8c0.1,1.5,2.5,2.1,2.8,0.4c0.2-1.4,0.1-2.7-0.1-4.1c-0.1-0.8-0.2-1.7-0.3-2.5c-0.1-0.4,0.4-0.3,0.7-0.5
				c1.7-1,1.7-3.4,0.2-4.6c-1.4-1.2-3.4,0.8-2,2c0.4,0.3-0.6,0.4-0.9,0.7c-0.6,0.6-0.8,0.9-0.9,1.7c-0.3,2.2,0.8,4.3,0.5,6.5
				c0.9,0.1,1.9,0.3,2.8,0.4c-0.1-0.9,0-1.3-0.9-0.7c-0.7,0.5-1.4,0.8-2,1.3c-1,0.7-1.6,1.5-1.6,2.7
				C76.3,170.3,79.1,170.3,79.2,168.5"/>
			<path class="st5" d="M91.8,116.2c1.2-0.1,2.2-0.6,3.3-0.8c0.8-0.2,1.2-1,1-1.8c-0.2-0.8-1-1.2-1.8-1c-0.9,0.2-1.7,0.6-2.6,0.7
				c-0.8,0.1-1.4,0.6-1.4,1.4C90.4,115.5,91,116.3,91.8,116.2"/>
			<path class="st6" d="M96.9,116.1c2.3-0.5,4.6-1.2,6.9-1.4c1.8-0.2,1.8-3,0-2.9c-2.6,0.2-5.1,0.9-7.7,1.5
				C94.4,113.7,95.1,116.4,96.9,116.1"/>
			<path class="st6" d="M96.3,130c2.9-0.8,5.9-1.3,8.8-1.8c1.8-0.3,1-3-0.8-2.7c-3,0.5-5.9,1-8.8,1.8
				C93.7,127.7,94.5,130.5,96.3,130"/>
			<path class="st6" d="M107.1,113c1.8,0.2,3.7,0.1,5.5,0.1c1.8,0,1.8-2.9,0-2.9c-1.8,0-3.7,0.1-5.5-0.1
				C105.3,110,105.3,112.8,107.1,113"/>
			<path class="st7" d="M84.5,118.1c-1.6,1.6-0.1,4,0.7,5.6l0.9-2.1c-1,0.2-2,0.1-3,0.1c-1.9,0-1.8,2.7,0,2.9c1,0.1,2.3,0.1,2.9-0.9
				c0.2-0.3,0.2-0.6,0.3-1c0.1-0.6,1.3-1.2,1.8-1.6c0.7-0.7,0.5-2.2-0.6-2.4c-3-0.4-7.8-0.9-9.6,2.2c-0.5,0.9,0,1.8,0.9,2.1
				c0.7,0.3,1.3,0.4,2.1,0.4c1.8,0.1,1.8-2.7,0-2.9c-0.5,0-0.9-0.1-1.3-0.3l0.9,2.1c0.9-1.6,4.9-1.1,6.4-0.9
				c-0.2-0.8-0.4-1.6-0.6-2.4c-0.8,0.8-1.8,1.2-2.3,2.3c-0.1,0.3-0.2,0.6-0.3,0.9c-0.1,0.4,0.1,0.2,0.6-0.5c-0.3,0-0.6,0-0.9,0v2.9
				c1.3,0,2.5,0,3.8-0.2c0.9-0.2,1.3-1.3,0.9-2.1c-0.2-0.4-0.4-0.8-0.6-1.2c-0.1-0.2-0.4-1.2-0.6-1
				C87.8,118.8,85.8,116.8,84.5,118.1"/>
			<path class="st7" d="M62.8,121.2c4.4,0.4,8.8,0.3,13.2,0c1.8-0.1,1.8-3,0-2.9c-4.4,0.3-8.8,0.4-13.2,0
				C61,118.2,61,121.1,62.8,121.2"/>
			<path class="st7" d="M67.6,119.8c2.1,0.4,4.2,0.1,6.3,0.3c1.8,0.2,1.8-2.6,0-2.9c-1.8-0.2-3.7,0.1-5.5-0.2
				C66.5,116.7,65.8,119.5,67.6,119.8"/>
			<path class="st8" d="M63.9,126c0.8,0.6,1.6,1.3,2.4,1.8c0.6,0.5,1.6,0.1,1.9-0.5c0.4-0.7,0.1-1.5-0.5-1.9
				c-0.3-0.2-0.6-0.5-0.9-0.7c-0.1-0.1-0.2-0.1-0.1-0.1c-0.1-0.1-0.2-0.1-0.2-0.2c-0.2-0.2-0.4-0.3-0.6-0.5c-0.6-0.5-1.4-0.6-2,0
				C63.4,124.5,63.3,125.5,63.9,126"/>
			<path class="st8" d="M62.8,129.6c1.2-0.3,2.4,0,3.7-0.2c1.3-0.2,2.6-1.1,2.7-2.5c0.1-0.8-0.7-1.4-1.4-1.4c0.1,0,0.1,0,0.2,0
				c-1.8-0.4-2.5,2.3-0.8,2.7c0.2,0,0.4,0.1,0.6,0.1c-0.5-0.5-0.9-1-1.4-1.4c0.1-0.6,0.1-0.4-0.4-0.3c-0.4,0.1-0.8,0-1.2,0
				c-0.9,0-1.8-0.1-2.7,0.2C60.3,127.3,61.1,130.1,62.8,129.6"/>
			<path class="st8" d="M65.1,127.7c1.8,0,1.8-2.9,0-2.9C63.3,124.9,63.3,127.7,65.1,127.7"/>
			<path class="st8" d="M72.3,125.9c1-0.3,2-0.5,3-0.8c1.8-0.5,1-3.3-0.8-2.7c-1,0.3-2,0.5-3,0.8C69.8,123.7,70.6,126.4,72.3,125.9"
				/>
			<path class="st8" d="M67.5,124.7c1.6-2.6,6.2-2.3,8.6-1.2c1.7,0.7,3.1-1.7,1.4-2.5c-3.9-1.7-10-1.8-12.5,2.2
				C64.1,124.9,66.5,126.3,67.5,124.7"/>
			<path class="st9" d="M108.8,125.3c-1,1.7,0,3.2,0.6,4.9c0.3-0.6,0.7-1.2,1-1.8c-2,0.5-4.1,0.1-4.4,2.8c-0.3,2.5,2.8,4.4,4.8,4.8
				c0.7,0.1,1.6-0.2,1.8-1c0.3-1.7-0.1-2.9-0.8-4.4c-0.8,0.5-1.6,1-2.5,1.4c1,1.8,1.7,3.5,2,5.6c0.3,1.8,3,1,2.7-0.8
				c-0.4-2.3-1.2-4.3-2.3-6.2c-0.9-1.6-3.2-0.2-2.5,1.4c0.4,0.7,0.6,1.4,0.5,2.2l1.8-1c-0.6-0.1-1.1-0.3-1.7-0.7
				c-0.2-0.2-0.4-0.3-0.6-0.5c-0.1-1-0.4-1.2-0.7-0.5c0.8-0.3,1.8-0.2,2.7-0.4c0.7-0.2,1.3-1,1-1.8c-0.2-0.6-1.2-2.1-0.9-2.7
				C112.2,125.1,109.8,123.7,108.8,125.3"/>
		</g>
		<g class="st2">
			<defs>
				<rect id="SVGID_5_" x="5" y="55.5" width="171" height="172"/>
			</defs>
			<clipPath id="SVGID_6_">
				<use xlink:href="#SVGID_5_"  style="overflow:visible;"/>
			</clipPath>
			<path class="st10" d="M77.8,171.3c-3.6-3.2-8.9-12.4-8.9-12.5l11.2-5.1L77.8,171.3L77.8,171.3z"/>
			<path class="st10" d="M68.9,158.8c0,0,5.3,9.2,8.9,12.4l2.3-17.5L68.9,158.8z"/>
			<polygon class="st11" points="77.8,171.3 87.2,173.4 81.4,175 			"/>
			<polygon class="st11" points="77.8,171.2 81.4,175 87.2,173.4 			"/>
			<polygon class="st12" points="92.7,163.3 106.3,169 95,171.3 87.2,173.4 			"/>
			<polygon class="st12" points="92.7,163.3 87.2,173.4 95,171.2 106.3,169.1 			"/>
			<polygon class="st13" points="77.8,171.3 92.7,163.3 87.2,173.4 			"/>
			<polygon class="st13" points="77.8,171.2 92.7,163.3 87.2,173.4 			"/>
			<path class="st14" d="M80.1,153.8c0.1,0.1,2.7,6.8,12.6,9.5l-14.8,8L80.1,153.8z"/>
			<path class="st14" d="M80.1,153.8c0,0,2.6,6.7,12.5,9.5l-14.8,8L80.1,153.8z"/>
			<path class="st15" d="M92.7,163.3c-3.6-0.8-7.7-3.7-7.7-3.7c1,0.3,2.1,0.4,3.3,0.4c4.3,0,8.4-1.9,8.5-1.9
				C94.4,163,92.7,163.3,92.7,163.3L92.7,163.3L92.7,163.3z"/>
			<path class="st15" d="M96.7,158c0,0-6.4,3-11.8,1.5c0,0,4.1,2.9,7.7,3.7C92.7,163.3,94.3,163.1,96.7,158"/>
			<polygon class="st16" points="108.7,153 121.8,162.5 106.2,169.1 			"/>
			<polygon class="st16" points="108.7,153 106.3,169.1 121.8,162.5 			"/>
			<path class="st17" d="M131.6,133.8c0,0.1,1.5,11.6-1,13.7l-11,2.8L131.6,133.8z"/>
			<path class="st17" d="M131.6,133.8c0,0,1.5,11.6-1,13.7l-10.9,2.8L131.6,133.8z"/>
			<path class="st18" d="M100.6,155.5c0-0.1,3.9-3.5,4.7-5.7l3.4,3.2l-2.5,16.1L100.6,155.5z"/>
			<path class="st18" d="M108.7,153l-2.5,16.1l-5.6-13.6c0,0,3.9-3.4,4.7-5.7L108.7,153z"/>
			<polygon class="st19" points="112.9,137.7 119.7,150.2 108.7,153 			"/>
			<polygon class="st19" points="108.7,153 112.9,137.8 119.7,150.2 			"/>
			<polygon class="st20" points="112.9,137.8 131.6,133.8 119.7,150.3 			"/>
			<polygon class="st20" points="131.6,133.8 112.9,137.8 119.7,150.2 			"/>
			<path class="st21" d="M125.8,116.9c1.7,2.6,5.8,16.7,5.8,16.9l-18.7,4L125.8,116.9z"/>
			<path class="st21" d="M125.9,116.9l-12.9,20.8l18.7-3.9C131.6,133.8,127.6,119.6,125.9,116.9"/>
			<polygon class="st22" points="105.4,149.8 106.2,149 109.6,149.8 108.7,153 			"/>
			<polygon class="st22" points="109.6,149.8 106.3,149 105.4,149.8 108.7,153 			"/>
			<polygon class="st23" points="105.4,138.6 112.9,137.7 110.4,147 			"/>
			<polygon class="st23" points="110.4,146.9 105.4,138.6 112.9,137.8 			"/>
			<path class="st24" d="M68.9,158.8c-0.9-0.8-3.1-8.2-3.2-8.6l14.5,3.5L68.9,158.8L68.9,158.8z"/>
			<path class="st24" d="M65.7,150.2c0,0,2.3,7.8,3.2,8.6l11.2-5L65.7,150.2z"/>
			<polygon class="st25" points="73.9,152.3 78.9,141 80.1,153.8 			"/>
			<polygon class="st25" points="78.9,141 73.9,152.3 80.1,153.8 			"/>
			<polygon class="st26" points="65.7,150.3 78.9,140.9 73.9,152.3 			"/>
			<polygon class="st26" points="65.7,150.2 78.9,141 73.9,152.3 			"/>
			<path class="st27" d="M62.3,140.2c-1.3-3.9-1.2-6.7-1.2-6.8l17.8,7.5l-13.3,9.3L62.3,140.2z"/>
			<path class="st27" d="M61.1,133.4c0,0-0.1,2.9,1.2,6.8l3.3,10.1l13.3-9.3L61.1,133.4z"/>
			<path class="st28" d="M84.9,159.6c-3.4-2.3-4.8-5.8-4.8-5.8c2.4,1,6.7,1.3,6.7,1.3L84.9,159.6L84.9,159.6z"/>
			<path class="st28" d="M86.8,155.1c0,0-4.3-0.3-6.7-1.3c0,0,1.4,3.4,4.8,5.8L86.8,155.1z"/>
			<path class="st29" d="M88.3,160c-2.1,0-3.4-0.4-3.4-0.4l1.9-4.5l8.8,3.4C93.1,159.5,90.7,160,88.3,160L88.3,160z"/>
			<path class="st29" d="M95.6,158.5l-8.7-3.4l-1.9,4.5C85,159.6,89.3,161,95.6,158.5"/>
			<path class="st30" d="M86.8,155.1c0.1,0,0.3,0,0.4,0c0.2,0,0.6,0,0.6,0c4.5,0,10.1-1.7,10.2-1.8l-2.4,5.2L86.8,155.1z"/>
			<path class="st30" d="M98,153.4c0,0-6.5,2-11.1,1.7l8.7,3.4L98,153.4z"/>
			<path class="st31" d="M97.9,153.4l7.4-3.6c-0.7,2.1-4.7,5.7-4.7,5.7l-3.9,2.5l-1.2,0.5L97.9,153.4z"/>
			<path class="st31" d="M105.4,149.8l-7.4,3.6l-2.4,5.2l1.2-0.5l3.9-2.5C100.6,155.5,104.6,151.9,105.4,149.8"/>
			<path class="st32" d="M86.8,155.1c-3,0-6.7-1.3-6.7-1.3l2.2-1.4L86.8,155.1L86.8,155.1z"/>
			<path class="st32" d="M82.3,152.4l-2.2,1.4c0,0,3.7,1.3,6.7,1.3L82.3,152.4z"/>
			<path class="st33" d="M80.1,153.8c0.1-0.1,2-2.6,2.5-2.9c0.5-0.3,2.9-1.5,4-1.5c0.1,0,0.2,0,0.2,0c0.1,0,0.2,0,0.3,0
				c0.7,0,1.9-0.3,2.7-0.6c0.4-0.1,0.8-0.2,1-0.3c0.1,0,0.3-0.1,0.6-0.1c1-0.2,2.7-0.5,3.8-0.5c0.1,0,0.2,0,0.3,0
				c1.3,0.1,10.6,1,10.7,1l-0.9,0.8c-2.9-0.3-5.7-0.5-8.3-0.5c-10.7,0-14.7,3.1-14.8,3.1L80.1,153.8L80.1,153.8z"/>
			<path class="st33" d="M82.3,152.4c0,0,5.9-4.7,23.1-2.6l0.9-0.8c0,0-9.4-0.9-10.7-1c-1.3-0.1-4.1,0.5-4.7,0.6c-0.6,0.1-3,1-4,0.9
				c-1-0.2-3.7,1.1-4.3,1.4c-0.5,0.3-2.5,2.9-2.5,2.9L82.3,152.4z"/>
			<path class="st34" d="M78.9,141c0,0,1.9,1.4,5.7,1.4c0.3,0,0.7,0,1,0l-3,8.5c0,0-1.9,2-2.5,2.9l0,0L78.9,141z"/>
			<path class="st34" d="M85.6,142.3l-3,8.5c0,0-1.9,2-2.5,2.9L78.9,141C78.9,141,81.1,142.6,85.6,142.3"/>
			<path class="st35" d="M85.6,142.3l7.7,5.8l-3,0.6c-1.9,0.6-2.8,0.8-3.2,0.8c-0.2,0-0.3-0.1-0.3-0.1c-0.1,0-0.1,0-0.2,0
				c-1.5,0-4,1.4-4,1.5l0,0L85.6,142.3z"/>
			<path class="st35" d="M93.3,148.1l-7.7-5.8l-3,8.5c0,0,2.8-1.6,4.3-1.4c0,0,0.2,0.4,3.4-0.7L93.3,148.1z"/>
			<path class="st36" d="M85.6,142.4c0.1,0,0.2,0,0.3,0c0,0,0.1,0,0.1,0c4.2,0,9.5-2.9,9.6-2.9l-2.3,8.7L85.6,142.4z"/>
			<path class="st36" d="M95.6,139.4c0,0-5.6,3.1-9.9,2.9l7.7,5.8L95.6,139.4z"/>
			<path class="st37" d="M106.3,149c-0.1,0-10.2-1-10.7-1c0,0-0.1,0-0.2,0c-0.6,0-2.1,0.2-2.1,0.2l12.1-9.6l5,8.3l-0.8,2.9
				L106.3,149z"/>
			<path class="st37" d="M105.4,138.6l-12.1,9.5c0,0,1.8-0.2,2.3-0.2c0.5,0,10.7,1,10.7,1l3.4,0.8l0.8-2.9L105.4,138.6z"/>
			<polygon class="st38" points="95.6,139.4 96.9,133.6 105.4,138.6 93.3,148.2 			"/>
			<polygon class="st38" points="97,133.7 95.6,139.4 93.3,148.1 105.4,138.6 			"/>
			<path class="st39" d="M131.6,133.8c0.3,0.7,0.9,1,1.8,1c1.5,0,3.2-1,3.2-1.1l-4.5,6.3L131.6,133.8z"/>
			<path class="st39" d="M136.6,133.8c0,0-3.9,2.4-5,0l0.4,6.3L136.6,133.8z"/>
			<path class="st40" d="M133.3,134.9c-1.5,0-1.7-1.1-1.7-1.1l3.1-6.8l1.9,6.7C135.3,134.5,134.2,134.9,133.3,134.9L133.3,134.9z"/>
			<path class="st40" d="M134.8,127.1l-3.1,6.7c0,0,0.5,2.4,5,0L134.8,127.1z"/>
			<path class="st41" d="M134.7,127.1l3.9,1.9c0,0.1-1,4.1-2,4.9l0,0L134.7,127.1z"/>
			<path class="st41" d="M138.6,129c0,0-1,4.1-2,4.8l-1.8-6.7L138.6,129z"/>
			<polygon class="st42" points="130.1,128.6 135.5,124.5 134.8,127.1 131.6,133.9 			"/>
			<polygon class="st42" points="130.1,128.6 135.5,124.5 134.8,127.1 131.6,133.8 			"/>
			<polygon class="st43" points="130.6,125.6 135.5,124.5 130.1,128.7 			"/>
			<polygon class="st43" points="130.6,125.6 130.1,128.6 135.5,124.5 			"/>
			<polygon class="st44" points="129.2,119.9 130.9,116.4 135.5,124.5 133.8,124.9 			"/>
			<polygon class="st44" points="129.2,119.9 133.8,124.9 135.5,124.5 130.9,116.4 			"/>
			<polygon class="st45" points="127.9,121.8 129.2,119.9 133.8,124.9 130.6,125.7 130.1,128.6 130.1,128.6 			"/>
			<polygon class="st45" points="127.9,121.8 129.2,119.9 133.8,124.9 130.6,125.6 130.1,128.6 			"/>
			<polygon class="st46" points="133.1,110.9 135.5,110.6 137.7,124.3 137.7,124.3 			"/>
			<polygon class="st46" points="133.1,110.9 137.7,124.3 135.5,110.6 			"/>
			<polygon class="st47" points="135.9,126.6 137.7,124.3 137.3,127.4 			"/>
			<polygon class="st47" points="135.9,126.6 137.3,127.3 137.7,124.3 			"/>
			<path class="st48" d="M127.9,121.8c0,0-1.6-4.2-2-4.9l-2-5.4l5.7-0.3l-0.3,8.7L127.9,121.8L127.9,121.8z"/>
			<path class="st48" d="M129.6,111.2l-0.3,8.7l-1.4,1.9c0,0-1.6-4.1-2-4.9l-2-5.4L129.6,111.2z"/>
			<polygon class="st49" points="129.2,119.9 129.6,111.2 134.8,108.2 136.6,110.1 135.5,110.6 133.1,110.9 130.9,116.4 
				129.3,119.9 			"/>
			<polygon class="st49" points="134.8,108.2 129.6,111.2 129.2,119.9 130.9,116.4 133.1,110.9 135.5,110.6 136.6,110.1 			"/>
			<polygon class="st50" points="135.5,124.5 130.9,116.4 133.1,110.9 137.7,124.3 135.9,126.6 134.7,127.1 			"/>
			<polygon class="st50" points="134.8,127.1 135.9,126.6 137.7,124.3 133.1,110.9 130.9,116.4 135.5,124.5 			"/>
			<path class="st51" d="M60.5,119.7c-3.2-21.9,1.5-28.5,1.5-28.5l1.6,24.3l-2.1,3.9L60.5,119.7L60.5,119.7z"/>
			<path class="st51" d="M62.1,91.1c0,0-4.7,6.4-1.5,28.5l1.1-0.3l2.1-3.9L62.1,91.1z"/>
			<path class="st52" d="M63.7,133.5c-0.9,0-1.7,0-2.6-0.1h0c-0.2,0-2.2-0.1-3.2-2.3l-2.7-7.8c0,0,0-1.8,2.3-2.6
				c0,0,3.8-2.2,13.5-2.2c2.6,0,5.4,0.2,8.3,0.5c0,0,1.8,0.1,1.8,2.2l-0.4,7c0,0-0.5,1.9-2.3,2.6C75.8,131.8,70.4,133.5,63.7,133.5
				 M71.9,119.5c-5,0-11.8,0.5-15.4,2.7c0,0-0.6,0.4-0.5,1.1c0.4,1.4,2.8,9.3,4.1,9.3c0,0,1.2,0.1,2.9,0.1c3.9,0,11.1-0.4,15.4-3.1
				c0,0,0.9-1,1.1-1.9c0.2-0.9,0-6.6,0-6.6c0,0-0.2-1.3-1.2-1.4l-0.1,0C75.7,119.5,73.4,119.5,71.9,119.5"/>
			<path class="st52" d="M78.5,119.7c1.1,0.1,1.2,1.4,1.2,1.4s0.2,5.7,0,6.6c-0.2,1-1.1,1.9-1.1,1.9c-6.2,3.8-18.3,3-18.3,3
				c-1.5,0-3.9-8.6-4.1-9.3c-0.2-0.7,0.5-1.1,0.5-1.1C62.7,118.4,78,119.7,78.5,119.7 M57.9,131.1c1,2.4,3.2,2.3,3.2,2.3
				c8.6,0.6,15.5-1.9,17.3-2.6c1.8-0.7,2.3-2.6,2.3-2.6l0.4-7c-0.1-2.1-1.8-2.2-1.8-2.2c-16-1.7-21.8,1.7-21.8,1.7
				c-2.3,0.8-2.2,2.6-2.2,2.6L57.9,131.1z"/>
			<polygon class="st53" points="63.7,115.5 70.4,114 61.6,119.5 			"/>
			<polygon class="st53" points="70.4,114 61.6,119.4 63.7,115.5 			"/>
			<path class="st54" d="M61.6,119.4l8.8-5.4c0.3,0.4,2.4,4.4,2.3,4.6c-0.7,0-1.3,0-2,0C66,118.5,61.7,119.4,61.6,119.4L61.6,119.4z
				"/>
			<path class="st54" d="M72.7,118.6c0.3,0-2.2-4.6-2.2-4.6l-8.8,5.4C61.6,119.4,67.3,118.2,72.7,118.6"/>
			<path class="st55" d="M72.6,118.6c0,0-0.3-1-2.2-4.6l8.1,0.3L72.6,118.6L72.6,118.6z"/>
			<path class="st55" d="M78.6,114.3l-5.9,4.2c0,0-0.2-0.9-2.2-4.6L78.6,114.3z"/>
			<path class="st56" d="M80.3,119.4L80.3,119.4c-0.3-0.6-7.6-0.9-7.6-0.9l5.9-4.2L80.3,119.4L80.3,119.4L80.3,119.4z"/>
			<path class="st56" d="M80.3,119.4l-1.7-5.1l-5.9,4.2C72.6,118.5,80.2,118.8,80.3,119.4"/>
			<path class="st52" d="M80.3,119.4l3.1-0.4c0.9-0.1,2.4-0.7,2.4-0.7l0.9,3.3c-0.6-1.2-1.2-1.7-2.3-1.7c-0.3,0-0.7,0-1.2,0.1
				c-1.7,0.3-2.1,2.5-2.1,2.5l0,0L80.3,119.4z"/>
			<path class="st52" d="M81.1,122.5c0,0,0.3-2.2,2.1-2.5c1.8-0.3,2.7-0.2,3.5,1.6l-0.9-3.2c0,0-1.5,0.6-2.4,0.7l-3.1,0.4
				L81.1,122.5z"/>
			<path class="st52" d="M92.8,128.4c-0.6,0-1.8-0.3-3.3-2.3c-2.3-2.9-2.8-4.6-2.9-4.6l-0.9-3.2c0.1-0.1,7-6.5,28-7l1.6,4.7
				c0,0-0.4,1.9-0.4,4c0,2.2-0.2,3.6-1.8,4.4c-0.1,0-7.8,3.9-19.9,4.1C93.3,128.4,93.1,128.4,92.8,128.4 M111.2,111.9
				c-0.1,0-0.1,0-0.2,0c-1.5,0.1-16.8,2-22.7,5.5c0,0-2.1,1.1-1.2,3.2c0.8,1.9,3.9,6.7,5.9,6.7c1.8,0,15.6-0.8,19.9-3.8
				c0,0,1.1-0.2,1.1-1.7c0-1.5-1.1-8.7-1.1-8.8C112.9,113,112.6,111.9,111.2,111.9"/>
			<path class="st52" d="M114,121.8c0,1.5-1.1,1.7-1.1,1.7c-4.3,3.1-18,3.8-19.9,3.8c-1.9,0-5-4.6-5.9-6.7c-0.9-2.1,1.2-3.2,1.2-3.2
				c5.8-3.5,21.1-5.4,22.7-5.5c1.6-0.1,1.9,1.1,1.9,1.1S114,120.3,114,121.8 M86.7,121.5c0,0,0.6,1.7,2.9,4.6
				c2.3,2.9,3.8,2.2,3.8,2.2c10.8-0.2,18.3-3.3,19.9-4.1c1.6-0.8,1.9-2.2,1.8-4.3c0-2.2,0.4-4,0.4-4l-1.6-4.7
				c-21.2,0.6-27.9,7-27.9,7L86.7,121.5z"/>
			<polygon class="st57" points="113.8,111.3 122.8,108.7 123.9,111.5 120.7,112.4 			"/>
			<polygon class="st57" points="122.8,108.7 113.8,111.2 120.7,112.4 123.9,111.5 			"/>
			<path class="st58" d="M113.7,111.2l6.9,1.2c-4.3,0.7-5.3,3.5-5.3,3.5l0,0L113.7,111.2z"/>
			<path class="st58" d="M115.4,115.9c0,0,0.9-2.8,5.3-3.5l-6.9-1.2L115.4,115.9z"/>
			<path class="st59" d="M104.7,106.8l9,4.5c-5,0-11.5,1-11.5,1.1l0,0L104.7,106.8z"/>
			<path class="st59" d="M104.7,106.8l-2.5,5.5c0,0,6.5-1,11.5-1L104.7,106.8z"/>
			<polygon class="st60" points="95.2,108.5 104.7,106.8 102.2,112.3 			"/>
			<polygon class="st60" points="95.2,108.4 102.2,112.3 104.7,106.8 			"/>
			<path class="st53" d="M91.4,115.1l3.8-6.7l7.1,3.8C102.1,112.3,93.1,114,91.4,115.1L91.4,115.1z"/>
			<path class="st53" d="M91.4,115.1l3.8-6.7l7,3.8C102.2,112.3,93.2,113.9,91.4,115.1"/>
			<path class="st54" d="M85.8,110.6c1.8-0.9,9.3-2.2,9.4-2.2l-3.8,6.7L85.8,110.6z"/>
			<path class="st54" d="M85.8,110.6l5.6,4.6l3.8-6.7C95.2,108.4,87.7,109.7,85.8,110.6"/>
			<polygon class="st61" points="82.5,112.4 85.8,110.6 91.4,115.1 89.4,116 			"/>
			<polygon class="st61" points="82.5,112.4 89.4,116 91.4,115.1 85.8,110.6 			"/>
			<polygon class="st62" points="111.5,87.5 122.8,108.7 113.7,111.3 			"/>
			<polygon class="st62" points="111.5,87.5 113.8,111.2 122.8,108.7 			"/>
			<polygon class="st63" points="104.7,106.8 112.1,94.2 113.8,111.3 			"/>
			<polygon class="st63" points="104.7,106.8 112.1,94.2 113.8,111.2 			"/>
			<path class="st64" d="M99.9,82c7.5,0.4,11.5,5.4,11.6,5.5l0.6,6.7l-7.4,12.6L99.9,82z"/>
			<path class="st64" d="M100,82l4.8,24.8l7.4-12.6l-0.6-6.7C111.5,87.5,107.5,82.4,100,82"/>
			<polygon class="st65" points="99.9,82 104.7,106.8 95.2,108.5 			"/>
			<polygon class="st65" points="95.2,108.4 100,82 104.7,106.8 			"/>
			<path class="st66" d="M84.8,82.5c4-0.6,8-0.7,10.7-0.7c2.6,0,4.4,0.1,4.4,0.1l-4.8,26.5L84.8,82.5z"/>
			<path class="st66" d="M84.8,82.5l10.4,25.9L100,82C100,82,92.2,81.5,84.8,82.5"/>
			<path class="st67" d="M84.8,82.5l10.4,25.9c-0.1,0-8.8,1.6-9.4,2.2l-3.3,1.9L84.8,82.5z"/>
			<path class="st67" d="M82.5,112.4l2.3-29.9l10.4,25.9c0,0-8.8,1.6-9.4,2.1L82.5,112.4z"/>
			<path class="st68" d="M78.5,114.3l4-1.9l6.9,3.6c0,0-2.9,1.5-3.6,2.3c0,0-2.5,0.9-5.5,1.2l0,0L78.5,114.3z"/>
			<path class="st68" d="M78.6,114.3l4-1.9l6.9,3.6c0,0-2.9,1.4-3.6,2.3c0,0-2.4,0.9-5.5,1.1L78.6,114.3z"/>
			<polygon class="st69" points="70.4,114 70.9,85 83.1,105.4 82.6,112.4 78.6,114.3 			"/>
			<polygon class="st69" points="70.4,114 70.9,85 83.1,105.4 82.5,112.4 78.6,114.3 			"/>
			<path class="st70" d="M62,91.2c0.1-0.1,5-4.4,8.8-6.2l-0.3,29l0,0L62,91.2z"/>
			<path class="st70" d="M62,91.2c0,0,5-4.4,8.8-6.2l-0.4,29L62,91.2z"/>
			<path class="st71" d="M70.9,85c3.9-2.2,9.1-2.6,11.8-2.6c1.3,0,2.1,0.1,2.1,0.1l-1.7,22.9L70.9,85z"/>
			<path class="st71" d="M84.8,82.5c0,0-8.3-0.7-13.9,2.5l12.1,20.4L84.8,82.5z"/>
			<polygon class="st72" points="133.8,86.4 136.6,110.1 134.7,108.2 129.6,111.3 123.9,111.5 			"/>
			<polygon class="st72" points="133.8,86.4 123.9,111.5 129.6,111.2 134.8,108.2 136.6,110.1 			"/>
			<polygon class="st73" points="122.8,108.7 111.5,87.5 128.5,99.9 123.9,111.6 			"/>
			<polygon class="st73" points="111.5,87.5 128.5,99.9 123.9,111.5 122.8,108.7 			"/>
			<path class="st74" d="M120.7,94.2l5.2-23.4c3.1,3,7.9,15.4,7.9,15.5l-5.3,13.5L120.7,94.2z"/>
			<path class="st74" d="M125.9,70.9l-5.2,23.4l7.8,5.7l5.3-13.5C133.8,86.4,129,73.9,125.9,70.9"/>
			<polygon class="st75" points="111.5,87.5 113.2,73.8 123.4,81.9 120.7,94.2 			"/>
			<polygon class="st75" points="113.2,73.8 111.5,87.5 120.7,94.2 123.4,81.9 			"/>
			<path class="st76" d="M111.5,87.5c0,0-3.9-5-11.5-5.5l13.2-8.2L111.5,87.5L111.5,87.5z"/>
			<path class="st76" d="M100,82l13.2-8.2l-1.7,13.7C111.5,87.5,107.6,82.5,100,82"/>
			<path class="st77" d="M113.2,73.8l-2-15c5.2,1.6,14.6,11.9,14.7,12l-2.4,11L113.2,73.8z"/>
			<path class="st77" d="M111.2,58.8l2,15l10.2,8.1l2.4-11C125.9,70.9,116.4,60.5,111.2,58.8"/>
			<polygon class="st78" points="105.6,71.8 113.2,73.8 99.9,82 			"/>
			<polygon class="st78" points="105.6,71.9 100,82 113.2,73.8 			"/>
			<path class="st79" d="M105.6,71.9l-5.6-16.6c0.2,0,0.4,0,0.5,0c4.6,0,10.7,3.6,10.7,3.6l2,15L105.6,71.9z"/>
			<path class="st79" d="M100,55.2l5.6,16.6l7.6,1.9l-2-15C111.2,58.8,104.7,54.9,100,55.2"/>
			<path class="st80" d="M89.6,69.9L100,82c0,0-0.1,0-0.3,0c-0.5,0-1.9,0-3.6,0c-3.5,0-8.3,0.1-11.2,0.6l0,0L89.6,69.9z"/>
			<path class="st80" d="M84.8,82.5l4.8-12.6L100,82C100,82,89.8,81.7,84.8,82.5"/>
			<polygon class="st81" points="89.6,69.9 99.9,55.2 105.6,71.8 100,82 			"/>
			<polygon class="st81" points="100,55.2 89.6,69.9 100,82 105.6,71.9 			"/>
			<path class="st82" d="M75.9,63.6c0,0,0.1-0.1,0.4-0.1c1.2-0.1,4.3-0.4,6-2.1c1.1-1.1,5.3-4.2,6.1-4.2c0.2,0,0.8-0.2,1.6-0.5
				c2.1-0.7,5.5-1.8,8-1.8c0.8,0,1.4,0.1,1.9,0.3L89.6,69.9L75.9,63.6z"/>
			<path class="st82" d="M75.9,63.6c0.1-0.1,4.4-0.1,6.4-2.1c1-1,5.3-4.2,6.1-4.2c0.9,0,8.5-3.3,11.5-2L89.6,69.9L75.9,63.6z"/>
			<path class="st83" d="M70.9,85l18.6-15.1l-4.7,12.7c0,0,0,0,0,0c-0.1,0-0.8-0.1-1.8-0.1C80.3,82.5,75.3,82.8,70.9,85L70.9,85z"/>
			<path class="st83" d="M70.9,85l18.6-15.1l-4.8,12.6C84.8,82.5,77.1,81.9,70.9,85"/>
			<polygon class="st84" points="75.9,63.6 89.6,69.9 70.9,85.1 			"/>
			<polygon class="st84" points="75.9,63.6 70.9,85 89.6,69.9 			"/>
			<path class="st85" d="M61.5,66.5c0.8-1.1,2-1.7,3.6-1.7c0.6,0,1.2,0.1,1.8,0.2c0.5,0.1,1.1,0.2,1.7,0.2c3.4,0,7.2-1.7,7.2-1.7
				l-4.9,21.5L61.5,66.5z"/>
			<path class="st85" d="M61.6,66.5c0.4-0.5,1.6-2.2,5.4-1.4c3.8,0.8,8.9-1.5,8.9-1.5l-5,21.4L61.6,66.5z"/>
			<path class="st86" d="M64,71.3L71,85c0,0-4.1,2-8.9,6.1l0,0L64,71.3z"/>
			<path class="st86" d="M62.1,91.1L64,71.3l7,13.7C70.9,85,66.9,86.9,62.1,91.1"/>
			<path class="st87" d="M54.1,75.7c1.5-0.6,7.4-9.1,7.4-9.2l2.4,4.8l-1.9,19.9L54.1,75.7z"/>
			<path class="st87" d="M54.1,75.7l7.9,15.4L64,71.3l-2.4-4.8C61.6,66.5,55.7,75.1,54.1,75.7"/>
			<path class="st88" d="M48.2,85.8c0.1-0.3,5.7-9.7,5.9-10.1l8,15.5L48.2,85.8z"/>
			<path class="st88" d="M48.2,85.8c0.1-0.3,5.9-10.1,5.9-10.1l7.9,15.4L48.2,85.8z"/>
			<path class="st75" d="M54.5,105.7c-6-4.2-6.3-19.7-6.3-19.9l13.9,5.3L54.5,105.7L54.5,105.7z"/>
			<path class="st75" d="M54.5,105.7l7.6-14.5l-13.9-5.3C48.2,85.8,48.5,101.5,54.5,105.7"/>
			<path class="st78" d="M54.5,105.7L61.6,92c0.3-0.6,0.4-0.8,0.4-0.8L61.7,92l0,0c-1.1,2.6-3.5,10.4-1,27.7l-1.8,0.6L54.5,105.7z"
				/>
			<path class="st78" d="M58.8,120.2l-4.3-14.5l7.6-14.5c0,0-4.6,6.9-1.5,28.5L58.8,120.2z"/>
			<path class="st89" d="M114.4,123.2c0.4-0.6,0.5-2,0.5-2c-0.2-1.2,0.4-5.2,0.4-5.3c1-2.2,3.7-3.1,3.7-3.1l1.5,12.7L114.4,123.2z"
				/>
			<path class="st89" d="M114.5,123.2l6.1,2.4l-1.5-12.7c0,0-2.7,0.9-3.7,3.1c0,0-0.6,4-0.4,5.3C115,121.2,114.9,122.6,114.5,123.2"
				/>
			<path class="st90" d="M110.2,125.5c3.8-1.5,4.3-2.1,4.4-2.3c0,0,0-0.1,0-0.1l6.1,2.3l-7.6,12.3L110.2,125.5z"/>
			<path class="st90" d="M110.2,125.5l2.8,12.2l7.6-12.2l-6.1-2.4C114.5,123.1,115.1,123.6,110.2,125.5"/>
			<polygon class="st91" points="106.5,126.6 110.1,125.5 112.9,137.7 105.4,138.6 			"/>
			<polygon class="st91" points="106.5,126.6 105.4,138.6 112.9,137.8 110.1,125.5 			"/>
			<path class="st92" d="M97,133.7l-1.4-5.4c0,0,0,0,0.1,0c0.1,0,0.2,0,0.3,0c1.1,0,4.2-0.2,10.5-1.7l-1.1,12.1L97,133.7z"/>
			<path class="st92" d="M97,133.7l-1.4-5.4c0,0,2.9,0.3,11-1.7l-1.2,12L97,133.7z"/>
			<path class="st93" d="M92.5,128.4c0.2,0,0.3,0,0.4,0c0.3,0,0.4-0.1,0.4-0.1l2.3-0.1l1.4,5.4l-1.2,5.2L92.5,128.4z"/>
			<path class="st93" d="M92.5,128.4l3.2,10.4l1.2-5.1l-1.4-5.4l-2.3,0.1C93.3,128.3,93.1,128.6,92.5,128.4"/>
			<path class="st94" d="M61.1,133.4C61.1,133.4,61.1,133.4,61.1,133.4c0.3,0,1.2,0.1,2.5,0.1h0c3,0,8.9-0.3,14.8-2.7
				c0,0.1-0.5,9,0.5,10.2l0,0L61.1,133.4z"/>
			<path class="st94" d="M78.4,130.8c0,0-0.6,8.9,0.5,10.2l-17.8-7.6C61.1,133.4,69.8,134.3,78.4,130.8"/>
			<path class="st95" d="M78.5,139.4c-0.2-1,0-8.6,0-8.6c2-1,2.3-2.6,2.3-2.6l1.2,3l0.4,2.4L78.5,139.4L78.5,139.4z"/>
			<path class="st95" d="M78.5,139.4l3.8-5.8l-0.4-2.4l-1.1-3c0,0-0.2,1.6-2.3,2.6C78.4,130.8,78.3,138.5,78.5,139.4"/>
			<path class="st96" d="M82.3,133.7l-0.4-2.4l4.9-9.5c0,0,2.2,3.9,3.1,4.8l-4.4,13.6L82.3,133.7z"/>
			<path class="st96" d="M85.5,140.1l-3.2-6.4l-0.4-2.4l4.9-9.5c0,0,2.2,3.9,3.1,4.8L85.5,140.1z"/>
			<path class="st97" d="M84,142.4c-2.3,0-4.5-1-4.5-1l2.3-1.4L84,142.4L84,142.4z"/>
			<path class="st97" d="M84,142.3l-2.1-2.4l-2.3,1.4C79.5,141.3,81.6,142.3,84,142.3"/>
			<path class="st98" d="M81.8,139.9l-2.3,1.4c0,0-0.9-0.2-1.1-1.9l3.8-5.8l3.3,6.4l-1.5,2.3L81.8,139.9z"/>
			<path class="st98" d="M85.5,140.1l-1.5,2.3l-2.1-2.4l-2.3,1.4c0,0-0.8-0.1-1.1-1.9l3.8-5.8L85.5,140.1z"/>
			<path class="st99" d="M84,142.4l1.5-2.3l4.4-13.5c1.4,1.7,2.6,1.8,2.6,1.8l3.2,10.4l-0.2,0.7c-3.4,1.9-6.9,2.9-9.8,2.9l-0.9,0
				L84,142.4z"/>
			<path class="st99" d="M92.5,128.4c0,0-1.3-0.1-2.6-1.8l-4.4,13.5l-1.5,2.3c0,0,0.9,0,1.6,0c0.8,0,4.5,0.1,9.9-2.9l0.2-0.7
				L92.5,128.4z"/>
			<path class="st52" d="M88.9,123.7c-2.1-3.1-2-4.5-2-4.5l3.6,2L88.9,123.7L88.9,123.7z"/>
			<path class="st52" d="M90.5,121.2l-3.6-2c0,0-0.2,1.4,2,4.5L90.5,121.2z"/>
			<path class="st100" d="M60.2,132.7c-0.2,0-0.5-0.1-1-0.9c-0.5-0.9-2.1-4.2-3.1-8.4c0,0-0.3-0.8,0.8-1.4c1.1-0.5,4-1.5,4-1.5
				l0.2,12.2C61.1,132.7,60.2,132.7,60.2,132.7"/>
			<path class="st100" d="M60.9,120.5l0.2,12.2l-0.9,0c0,0-0.4,0.1-1-0.9c-0.6-1-2.1-4.2-3.1-8.4c0,0-0.3-0.8,0.8-1.4
				C58,121.5,60.9,120.5,60.9,120.5"/>
			<path class="st52" d="M65.3,127c-0.2,0-0.3-0.2-0.3-0.6c0-0.1,1.8-5.2,8-5.2c0.8,0,1.6,0.1,2.4,0.2l1.8,0.7l-0.3,0.6
				c0,0-1.9-0.9-4.1-0.9c-2.7,0-4.9,1.3-6.3,4C66.5,125.8,65.8,127,65.3,127"/>
			<path class="st52" d="M65,126.3c0,0,2.2-6.5,10.4-4.9l1.8,0.7l-0.3,0.6c0,0-6.8-3.6-10.4,3.1C66.5,125.8,65.1,128,65,126.3"/>
			<path class="st101" d="M76.9,122.7l0.3-0.6l-1.8-0.7l-1.6-0.2c0,0,3.2-1.6,3.2-1.6c0,0,0.6,0,1.5,0.1c1,0.1,1.2,1.4,1.2,1.4
				l0.1,3.6L76.9,122.7z"/>
			<path class="st101" d="M77,119.6l-3.2,1.6l1.6,0.2l1.8,0.7l-0.3,0.6l2.9,2l-0.1-3.5c0,0-0.3-1.3-1.2-1.4
				C77.5,119.7,77,119.6,77,119.6"/>
			<path class="st102" d="M73.9,124.1c-0.1,0-0.1,0-0.1,0c0.4-0.6-0.4-2.3-0.4-2.3c0.1,0,0.2,0,0.3,0c1,0,3.3,0.9,3.3,0.9
				C75.7,124,74.3,124.1,73.9,124.1"/>
			<path class="st102" d="M73.4,121.8c0,0,0.9,1.7,0.4,2.3c0,0,1.6,0.1,3.1-1.4C76.9,122.7,74.2,121.6,73.4,121.8"/>
			<path class="st103" d="M68.8,125c-1,0-1.6-0.2-1.6-0.2c0.9-1.7,2.6-2.4,2.6-2.4c-0.2,1.1,1.4,2.2,1.4,2.2
				C70.4,124.9,69.6,125,68.8,125"/>
			<path class="st103" d="M67.2,124.9c0,0,1.8,0.5,4-0.2c0,0-1.6-1.1-1.4-2.2C69.7,122.5,68.1,123.2,67.2,124.9"/>
			<path class="st104" d="M60.9,120.5c3.6-0.9,8.4-1,11.8-1c2.5,0,4.3,0.1,4.3,0.1l-3.2,1.6l-0.1,0c-5.4,0-7,2.5-7,2.5l0,0
				L60.9,120.5z"/>
			<path class="st104" d="M60.9,120.5l5.8,3.2c0,0,1.6-2.6,7.1-2.6l3.2-1.6C77,119.6,67.2,119.1,60.9,120.5"/>
			<path class="st105" d="M61,129l-0.1-8.5l5.8,3.2c-1.4,1.3-1.7,2.6-1.7,2.6C63.4,127.4,61.1,128.9,61,129L61,129z"/>
			<path class="st105" d="M61.1,129c0-0.1,3.9-2.6,3.9-2.6s0.3-1.4,1.7-2.6l-5.8-3.2L61.1,129z"/>
			<path class="st106" d="M73.8,124.2c1.6-0.3,3.1-1.5,3.1-1.5l2.9,2c0,0,0,2-0.1,3.1c-0.1,0.9-0.5,1.3-0.9,1.6
				c-0.1,0.1-0.2,0.2-0.3,0.3c-0.3,0.4-2.8,1.3-2.9,1.4l0,0L73.8,124.2z"/>
			<path class="st106" d="M73.8,124.2l1.8,6.9c0,0,2.6-0.9,2.9-1.3c0.3-0.4,1.1-0.7,1.1-1.9c0.1-1.2,0.1-3.1,0.1-3.1l-2.9-2
				C76.9,122.7,75.4,123.9,73.8,124.2"/>
			<path class="st107" d="M67.1,124.9c0.6,0.1,1.2,0.1,1.7,0.1c1.4,0,2.2-0.3,2.2-0.3c2.2,0,2.7-0.6,2.7-0.6l1.9,7L67.1,124.9z"/>
			<path class="st107" d="M67.2,124.9l8.5,6.2l-1.8-7c0,0-0.5,0.6-2.7,0.6C71.1,124.7,69.7,125.2,67.2,124.9"/>
			<path class="st108" d="M65.7,126.8c0.7-0.2,1.5-1.9,1.5-1.9l8.5,6.2c-3.6,1.5-10.5,1.7-10.5,1.7l0,0L65.7,126.8z"/>
			<path class="st108" d="M65.7,126.8l-0.6,5.9c0,0,6.9-0.1,10.5-1.7l-8.5-6.2C67.2,124.9,66.4,126.6,65.7,126.8"/>
			<path class="st103" d="M97.3,119.9c-0.7,0-1.2-0.1-1.6-0.2c0-0.1,1.8-2.8,3.9-3.4c0,0-0.5,0.8-0.3,1.6c0.2,0.6,0.7,1.1,1.6,1.5
				C100.9,119.4,99,119.9,97.3,119.9"/>
			<path class="st103" d="M95.7,119.6c0,0,1.8-2.7,3.9-3.3c0,0-1.5,1.9,1.3,3.1C100.9,119.4,97.3,120.2,95.7,119.6"/>
			<path class="st102" d="M100.9,119.4c0,0-1.2-0.4-1.6-1.3c-0.2-0.5-0.1-1.2,0.3-1.8c0,0,1.6-0.7,3.6-0.7c0.6,0,1.1,0.1,1.6,0.2
				c0,0,0.8,1.6,0,2.4C104.7,118.1,102.1,119.4,100.9,119.4L100.9,119.4L100.9,119.4z"/>
			<path class="st102" d="M104.7,118.1c0,0-2.6,1.3-3.8,1.3c0,0-2.7-0.8-1.3-3.1c0,0,2.6-1.2,5.1-0.6
				C104.7,115.7,105.5,117.3,104.7,118.1"/>
			<path class="st103" d="M104.7,118.1c0.8-0.6,0-2.3,0-2.3l2.4,1.2L104.7,118.1L104.7,118.1z"/>
			<path class="st103" d="M107.1,116.9l-2.4-1.2c0,0,0.8,1.7,0,2.3L107.1,116.9z"/>
			<path class="st52" d="M95.7,119.6c0,0,1.5-4.6,6.6-4.6c1.6,0,3.4,0.4,5.4,1.3l1.2,0.5l0,0.4l-1.8-0.3l-2.4-1.2
				c0,0-0.5-0.2-1.4-0.2c-1.1,0-2.4,0.2-3.8,0.7C99.6,116.3,97.4,117.3,95.7,119.6L95.7,119.6z"/>
			<path class="st52" d="M95.7,119.6c0,0,2.3-7.6,12-3.3l1.2,0.5v0.3l-1.8-0.3l-2.4-1.2c0,0-1.7-0.6-5.1,0.6
				C99.6,116.3,97.4,117.2,95.7,119.6"/>
			<path class="st109" d="M93.3,120.7l2.4-1.1c0.4,0.2,0.9,0.3,1.6,0.3c1.6,0,3.6-0.5,3.6-0.5l1.7-0.4l-3.3,8L93.3,120.7z"/>
			<path class="st109" d="M95.7,119.6l-2.4,1l6,6.3l3.3-7.9l-1.7,0.4C100.9,119.4,97.1,120.3,95.7,119.6"/>
			<path class="st110" d="M102.6,119c1-0.3,4.5-2.1,4.5-2.1l1.8,0.3l0-0.3l4.6,0.4c0,0,0.6,2.9,0.5,4.5c-0.1,1.6-1.1,1.7-1.1,1.7
				l0,0L102.6,119z"/>
			<path class="st110" d="M113.5,117.3l-4.6-0.5v0.3l-1.8-0.3c0,0-3.5,1.8-4.5,2l10.3,4.5c0,0,1-0.1,1.1-1.7
				C114.1,120.2,113.5,117.3,113.5,117.3"/>
			<path class="st111" d="M108.9,116.9c-1.1-0.7-4.4-1.6-4.4-1.6l1.5-2.8c0,0,3.4-0.5,5-0.7c0.1,0,0.2,0,0.3,0
				c1.4,0,1.6,1.2,1.7,1.2l0.6,4.3L108.9,116.9z"/>
			<path class="st111" d="M106,112.6l-1.5,2.7c0,0,3.3,0.9,4.4,1.6l4.6,0.5l-0.6-4.3c0,0-0.3-1.3-1.9-1.1
				C109.4,112.1,106,112.6,106,112.6"/>
			<path class="st112" d="M96.1,114.6l9.9-2.1l-1.5,2.8c-0.8-0.1-1.6-0.2-2.3-0.2c-2.8,0-4,1.1-4,1.2l0,0L96.1,114.6z"/>
			<path class="st112" d="M96.1,114.6l2.2,1.6c0,0,1.8-1.8,6.2-0.9l1.5-2.7L96.1,114.6z"/>
			<path class="st113" d="M89.4,116.9c0-0.1,4.7-2.1,6.7-2.3l2.2,1.6c0,0-2.3,1.7-2.6,3.4l0,0L89.4,116.9z"/>
			<path class="st113" d="M95.7,119.6l-6.3-2.8c0,0,4.7-2.1,6.7-2.2l2.2,1.6C98.3,116.2,96,117.9,95.7,119.6"/>
			<path class="st114" d="M86.9,119.2c0,0,0.1-1.3,2.6-2.3l6.3,2.8l-2.4,1.1l-2.8,0.5L86.9,119.2z"/>
			<path class="st114" d="M86.9,119.2c0,0,0.1-1.2,2.6-2.3l6.3,2.8l-2.4,1l-2.8,0.5L86.9,119.2z"/>
			<path class="st115" d="M87.8,155.1c-0.6,0-1,0-1,0l-4.6-2.7c4-2.6,10.2-3.2,14.8-3.2c4.6,0,8.3,0.5,8.3,0.5l-7.4,3.6
				C93.3,154.9,89.6,155.1,87.8,155.1z"/>
			<path class="st115" d="M82.3,152.4l4.6,2.7c0,0,4.6,0.4,11.1-1.7l7.4-3.6C105.4,149.8,89.8,147.5,82.3,152.4"/>
		</g>
		<g class="st2">
			<defs>
				<path id="SVGID_7_" d="M106.3,169.1L95,171.2L81.4,175c0,0,19,14.7,40.5-12.5L106.3,169.1z"/>
			</defs>
			<clipPath id="SVGID_8_">
				<use xlink:href="#SVGID_7_"  style="overflow:visible;"/>
			</clipPath>
			<path class="st116" d="M96.9,182c-3.7,0-6.4-1-6.4-1l4.6-9.7l8,9.7C101.1,181.6,99,182,96.9,182L96.9,182z"/>
			<path class="st116" d="M95,171.2l-4.6,9.7c0,0,6,2.3,12.5,0L95,171.2z"/>
			<path class="st117" d="M106.2,169.1l8.2,4.7c-2.9,4.7-11.3,7.1-11.4,7.2l0,0L106.2,169.1z"/>
			<path class="st117" d="M106.3,169.1l-3.2,11.9c0,0,8.5-2.4,11.4-7.1L106.3,169.1z"/>
			<polygon class="st118" points="95,171.3 106.3,169 103,181 			"/>
			<polygon class="st118" points="95,171.2 106.3,169.1 103,180.9 			"/>
			<polygon class="st119" points="106.2,169.1 121.8,162.5 114.4,173.8 			"/>
			<polygon class="st119" points="121.8,162.5 114.4,173.8 106.3,169.1 			"/>
			<path class="st120" d="M90.5,181c-2.8-0.3-9.1-5.9-9.1-5.9l13.7-3.8L90.5,181L90.5,181z"/>
			<path class="st120" d="M81.4,175c0,0,6.3,5.7,9.1,5.9l4.6-9.7L81.4,175z"/>
		</g>
		<g class="st2">
			<defs>
				<rect id="SVGID_9_" x="5" y="55.5" width="171" height="172"/>
			</defs>
			<clipPath id="SVGID_10_">
				<use xlink:href="#SVGID_9_"  style="overflow:visible;"/>
			</clipPath>
			<polygon class="st121" points="108.7,153 130.6,147.5 121.8,162.5 			"/>
			<polygon class="st121" points="130.6,147.5 121.8,162.5 108.7,153 			"/>
			<path class="st122" d="M92.7,163.3c0,0,1.8-0.3,4.1-5.2l3.9-2.5l5.6,13.6L92.7,163.3z"/>
			<path class="st122" d="M92.7,163.3c0,0,1.8-0.2,4.1-5.2l3.9-2.5l5.6,13.6L92.7,163.3z"/>
			<path class="st123" d="M93,139.8c-0.1,0-2.6,0-3.1-0.5c-0.2-0.2-0.3-0.3-0.2-0.5c0-0.2,0.2-0.4,0.2-0.4c0,0,0.7-0.1,1.5-0.1
				c1,0,1.7,0.3,1.9,0.7C93.5,139.5,93,139.8,93,139.8L93,139.8L93,139.8z"/>
			<path class="st123" d="M93,139.7c0,0-2.6,0-3.1-0.5c-0.5-0.5,0-0.8,0-0.8s2.9-0.6,3.4,0.6C93.5,139.5,93,139.7,93,139.7"/>
			<path class="st124" d="M61.1,132.7L61,129l4-2.7c0,0.4,0.1,0.6,0.3,0.6c0.2,0,0.4-0.2,0.4-0.2l-0.5,6H61.1z"/>
			<path class="st124" d="M61.1,132.7h4l0.6-5.9c0,0-0.6,0.6-0.7-0.4l-3.9,2.6L61.1,132.7z"/>
			<path class="st125" d="M80.7,128.2l0.4-5.8c0,0,0.6-2.2,2.1-2.5c0.4-0.1,0.8-0.1,1.1-0.1c1,0,1.4,0.3,1.6,0.5
				c0.3,0.3,1,1.5,1,1.5l-5,9.5L80.7,128.2z"/>
			<path class="st125" d="M86.8,121.8l-4.9,9.5l-1.1-3l0.4-5.8c0,0,0.6-2.2,2.1-2.5c1.5-0.3,2.3,0,2.7,0.4
				C86.1,120.6,86.8,121.8,86.8,121.8"/>
			<path class="st126" d="M102.6,119l10.3,4.5c-2.6,2.3-13.5,3.4-13.6,3.4l0,0L102.6,119z"/>
			<path class="st126" d="M112.9,123.5l-10.3-4.5l-3.3,7.9C99.3,126.9,110.3,125.8,112.9,123.5"/>
			<path class="st127" d="M93,127.4c-1.7,0-4.1-3.6-4.1-3.7l1.6-2.5l2.8-0.5l6.1,6.3C99.3,126.9,94.7,127.3,93,127.4L93,127.4z"/>
			<path class="st127" d="M99.3,126.9l-6-6.3l-2.8,0.5l-1.6,2.5c0,0,2.4,3.7,4.1,3.7C94.7,127.3,99.3,126.9,99.3,126.9"/>
			<polygon class="st128" points="119,112.8 120.6,112.4 123.9,111.5 125.9,116.9 120.5,125.6 			"/>
			<polygon class="st128" points="119.1,112.8 120.5,125.5 125.9,116.9 123.9,111.5 120.7,112.4 			"/>
			<polygon class="st129" points="62.1,91.1 70.4,114 63.7,115.5 			"/>
			<polygon class="st129" points="70.4,114 62.1,91.1 63.7,115.5 			"/>
			<path class="st130" d="M134.8,127.1l1.1-0.5l1.4,0.8l0.4-3.1l1.6,0c0.1,1.1-0.6,4.7-0.6,4.7l0,0L134.8,127.1z"/>
			<path class="st130" d="M138.6,129c0,0,0.7-3.6,0.7-4.7h-1.6l-0.4,3.1l-1.4-0.8l-1.1,0.5L138.6,129z"/>
			<path class="st131" d="M137.7,124.3l-2.2-13.7l1.1-0.5c0,0.1,2.6,9.1,2.7,14.1l0,0H137.7z"/>
			<path class="st131" d="M136.6,110.1c0,0,2.6,9,2.7,14.1h-1.6l-2.2-13.7L136.6,110.1z"/>
			<path class="st132" d="M103.1,117.5c-0.2,0-0.5,0-0.7-0.3c-0.2-0.2-0.2-0.5-0.1-0.9c0,0,0.4-0.3,0.8-0.3c0.2,0,0.5,0.1,0.6,0.3
				c0.2,0.2,0.2,0.4,0.1,0.6c-0.1,0.3-0.6,0.5-0.6,0.5C103.3,117.5,103.2,117.5,103.1,117.5"/>
			<path class="st132" d="M103.3,117.5c0,0-1.3,0.2-1-1.1c0,0,0.9-0.7,1.4,0C104.3,117.1,103.3,117.5,103.3,117.5"/>
			<path class="st133" d="M71.6,124.7c-0.2,0-0.3,0-0.5,0c0,0-1.6-1.1-1.4-2.2c0,0,1.3-0.7,2.9-0.7c0.3,0,0.5,0,0.8,0.1
				c0,0,1,1.4,0.7,2.3C74.1,124.1,73,124.7,71.6,124.7"/>
			<path class="st133" d="M74.1,124.1c0,0-1.4,0.8-2.9,0.6c0,0-1.6-1.1-1.4-2.2c0,0,1.7-1,3.6-0.7C73.4,121.8,74.4,123.1,74.1,124.1
				"/>
		</g>
	</g>
</g>
</svg>
