<?xml version="1.0" encoding="utf-8"?>
<!-- Generator: Adobe Illustrator 19.2.1, SVG Export Plug-In . SVG Version: 6.00 Build 0)  -->
<svg version="1.1" id="Layer_1" xmlns="http://www.w3.org/2000/svg" xmlns:xlink="http://www.w3.org/1999/xlink" x="0px" y="0px"
	 width="192px" height="234px" viewBox="0 0 192 234" style="enable-background:new 0 0 192 234;" xml:space="preserve">
<style type="text/css">
	.st0{fill:#F2F2F2;}
	.st1{fill:#23A684;}
	.st2{clip-path:url(#SVGID_2_);}
	.st3{clip-path:url(#SVGID_4_);fill:#FEB694;}
	.st4{clip-path:url(#SVGID_4_);fill:#DBB1A2;}
	.st5{clip-path:url(#SVGID_4_);fill:#DCA695;}
	.st6{clip-path:url(#SVGID_4_);fill:#9B6C47;}
	.st7{clip-path:url(#SVGID_4_);fill:#CD8A67;}
	.st8{clip-path:url(#SVGID_4_);fill:#EF9D7B;}
	.st9{clip-path:url(#SVGID_4_);fill:#E4B39A;}
	.st10{clip-path:url(#SVGID_4_);fill:#EAA674;}
	.st11{clip-path:url(#SVGID_4_);fill:#F8AE7F;}
	.st12{clip-path:url(#SVGID_4_);fill:#F2AC7F;}
	.st13{clip-path:url(#SVGID_4_);fill:#F5A887;}
	.st14{clip-path:url(#SVGID_4_);fill:#B9815D;}
	.st15{clip-path:url(#SVGID_4_);fill:#DE9A7B;}
	.st16{clip-path:url(#SVGID_4_);fill:#DE9A78;}
	.st17{clip-path:url(#SVGID_4_);fill:#DC9B87;}
	.st18{clip-path:url(#SVGID_4_);fill:#EEB597;}
	.st19{clip-path:url(#SVGID_4_);fill:#C29172;}
	.st20{clip-path:url(#SVGID_4_);fill:#FCAF91;}
	.st21{clip-path:url(#SVGID_4_);fill:#E7AE88;}
	.st22{clip-path:url(#SVGID_4_);fill:#FDB493;}
	.st23{clip-path:url(#SVGID_4_);fill:#FFB38B;}
	.st24{clip-path:url(#SVGID_4_);fill:#F2B494;}
	.st25{clip-path:url(#SVGID_4_);fill:#FFB374;}
	.st26{clip-path:url(#SVGID_4_);fill:#F5B49A;}
	.st27{clip-path:url(#SVGID_4_);fill:#FFBB8E;}
	.st28{clip-path:url(#SVGID_4_);fill:#FEBCA4;}
	.st29{clip-path:url(#SVGID_4_);fill:#FAC0AC;}
	.st30{clip-path:url(#SVGID_4_);fill:#D79880;}
	.st31{clip-path:url(#SVGID_4_);fill:#E79373;}
	.st32{clip-path:url(#SVGID_4_);fill:#F8AA83;}
	.st33{clip-path:url(#SVGID_4_);fill:#D0885D;}
	.st34{clip-path:url(#SVGID_4_);fill:#DEAE8A;}
	.st35{clip-path:url(#SVGID_4_);fill:#D29D84;}
	.st36{clip-path:url(#SVGID_4_);fill:#F0AE86;}
	.st37{clip-path:url(#SVGID_4_);fill:#F8B384;}
	.st38{clip-path:url(#SVGID_4_);fill:#F2A48B;}
	.st39{clip-path:url(#SVGID_4_);fill:#E4AD87;}
	.st40{clip-path:url(#SVGID_4_);fill:#D39D81;}
	.st41{clip-path:url(#SVGID_4_);fill:#D79A7B;}
	.st42{clip-path:url(#SVGID_4_);fill:#C68D73;}
	.st43{clip-path:url(#SVGID_4_);fill:#D9A68D;}
	.st44{clip-path:url(#SVGID_4_);fill:#D99891;}
	.st45{clip-path:url(#SVGID_4_);fill:#DF9F91;}
	.st46{clip-path:url(#SVGID_4_);fill:#FFBD9B;}
	.st47{clip-path:url(#SVGID_4_);fill:#FFC18D;}
	.st48{clip-path:url(#SVGID_4_);fill:#EA895E;}
	.st49{clip-path:url(#SVGID_4_);fill:#C77B5E;}
	.st50{clip-path:url(#SVGID_4_);fill:#E28962;}
	.st51{clip-path:url(#SVGID_4_);fill:#FFAE7C;}
	.st52{clip-path:url(#SVGID_4_);fill:#DE8867;}
	.st53{clip-path:url(#SVGID_4_);fill:#F89F79;}
	.st54{clip-path:url(#SVGID_4_);fill:#F8A884;}
	.st55{clip-path:url(#SVGID_4_);fill:#BC603D;}
	.st56{clip-path:url(#SVGID_4_);fill:#862915;}
	.st57{clip-path:url(#SVGID_4_);fill:#D08367;}
	.st58{clip-path:url(#SVGID_4_);fill:#B96F5F;}
	.st59{clip-path:url(#SVGID_4_);fill:#F9A873;}
	.st60{clip-path:url(#SVGID_4_);fill:#EC934E;}
	.st61{clip-path:url(#SVGID_4_);fill:#A65B21;}
	.st62{clip-path:url(#SVGID_4_);fill:#D8916B;}
	.st63{clip-path:url(#SVGID_4_);fill:#DE9773;}
	.st64{clip-path:url(#SVGID_4_);fill:#D49582;}
	.st65{clip-path:url(#SVGID_4_);fill:#AB6C4B;}
	.st66{clip-path:url(#SVGID_4_);fill:#AD6F52;}
	.st67{clip-path:url(#SVGID_4_);fill:#BA8874;}
	.st68{clip-path:url(#SVGID_4_);fill:#CB987D;}
	.st69{clip-path:url(#SVGID_4_);fill:#88553A;}
	.st70{clip-path:url(#SVGID_4_);fill:#8D4F32;}
	.st71{clip-path:url(#SVGID_4_);fill:#A7725A;}
	.st72{clip-path:url(#SVGID_4_);fill:#CB785F;}
	.st73{clip-path:url(#SVGID_4_);fill:#B77B60;}
	.st74{clip-path:url(#SVGID_4_);fill:#4A1500;}
	.st75{clip-path:url(#SVGID_4_);fill:#2C130D;}
	.st76{clip-path:url(#SVGID_4_);fill:#5E321B;}
	.st77{clip-path:url(#SVGID_4_);fill:#622D13;}
	.st78{clip-path:url(#SVGID_4_);fill:#E28E73;}
	.st79{clip-path:url(#SVGID_4_);fill:#E79C7A;}
	.st80{clip-path:url(#SVGID_4_);fill:#F8A97D;}
	.st81{clip-path:url(#SVGID_4_);fill:#D48760;}
	.st82{clip-path:url(#SVGID_4_);fill:#C8886D;}
	.st83{clip-path:url(#SVGID_4_);fill:#975236;}
	.st84{clip-path:url(#SVGID_4_);fill:#A85B33;}
	.st85{clip-path:url(#SVGID_4_);fill:#F2A172;}
	.st86{clip-path:url(#SVGID_4_);fill:#7C3403;}
	.st87{clip-path:url(#SVGID_4_);fill:#511B03;}
	.st88{clip-path:url(#SVGID_4_);fill:#4A1A01;}
	.st89{clip-path:url(#SVGID_4_);fill:#572618;}
	.st90{clip-path:url(#SVGID_4_);fill:#FFA265;}
	.st91{clip-path:url(#SVGID_4_);fill:#FFB480;}
	.st92{clip-path:url(#SVGID_4_);fill:#FFB979;}
	.st93{clip-path:url(#SVGID_4_);fill:#FFC6AB;}
	.st94{clip-path:url(#SVGID_4_);fill:#FFC9A2;}
	.st95{clip-path:url(#SVGID_4_);fill:#FFC594;}
	.st96{clip-path:url(#SVGID_4_);fill:#FFC09B;}
	.st97{clip-path:url(#SVGID_4_);fill:#FDB08B;}
	.st98{clip-path:url(#SVGID_4_);fill:#EF9D6F;}
	.st99{clip-path:url(#SVGID_4_);fill:#AB6A42;}
	.st100{clip-path:url(#SVGID_4_);fill:#D07B45;}
	.st101{clip-path:url(#SVGID_4_);fill:#CB7A43;}
	.st102{clip-path:url(#SVGID_4_);fill:#C7784B;}
	.st103{clip-path:url(#SVGID_4_);fill:#FFAD87;}
	.st104{clip-path:url(#SVGID_4_);fill:#FDBA87;}
	.st105{clip-path:url(#SVGID_4_);fill:#F2BCA9;}
	.st106{clip-path:url(#SVGID_4_);fill:#EAB9A3;}
	.st107{clip-path:url(#SVGID_4_);fill:#F4BA9C;}
	.st108{clip-path:url(#SVGID_4_);fill:#DC8A56;}
	.st109{clip-path:url(#SVGID_4_);fill:#3A0501;}
	.st110{clip-path:url(#SVGID_4_);fill:#5D1B00;}
	.st111{clip-path:url(#SVGID_4_);fill:#5D2100;}
	.st112{clip-path:url(#SVGID_4_);fill:#91481B;}
	.st113{clip-path:url(#SVGID_4_);fill:#7A3805;}
	.st114{clip-path:url(#SVGID_4_);fill:#904212;}
	.st115{clip-path:url(#SVGID_4_);fill:#6F2600;}
	.st116{clip-path:url(#SVGID_4_);fill:#420809;}
	.st117{clip-path:url(#SVGID_4_);fill:#521300;}
	.st118{clip-path:url(#SVGID_4_);fill:#2D0100;}
	.st119{clip-path:url(#SVGID_4_);fill:#8A4213;}
	.st120{clip-path:url(#SVGID_4_);fill:#944E1B;}
	.st121{clip-path:url(#SVGID_4_);fill:#4F1301;}
	.st122{clip-path:url(#SVGID_4_);fill:#2F0000;}
	.st123{clip-path:url(#SVGID_4_);fill:#4E130E;}
	.st124{clip-path:url(#SVGID_4_);fill:#470D04;}
	.st125{clip-path:url(#SVGID_4_);fill:#320501;}
	.st126{clip-path:url(#SVGID_4_);fill:#501300;}
	.st127{clip-path:url(#SVGID_4_);fill:#471E0D;}
	.st128{clip-path:url(#SVGID_4_);fill:#482915;}
	.st129{clip-path:url(#SVGID_4_);fill:#341208;}
	.st130{clip-path:url(#SVGID_4_);fill:#090A0E;}
	.st131{clip-path:url(#SVGID_4_);fill:#E77F53;}
	.st132{clip-path:url(#SVGID_4_);fill:#F2A388;}
	.st133{clip-path:url(#SVGID_4_);fill:#DB9D64;}
	.st134{clip-path:url(#SVGID_4_);fill:#F8A278;}
	.st135{clip-path:url(#SVGID_4_);fill:#FFAC71;}
	.st136{clip-path:url(#SVGID_4_);fill:#FFB994;}
	.st137{clip-path:url(#SVGID_4_);fill:#C9875E;}
	.st138{clip-path:url(#SVGID_4_);fill:#CC896E;}
	.st139{clip-path:url(#SVGID_4_);fill:#B1734B;}
	.st140{clip-path:url(#SVGID_4_);fill:#B76547;}
	.st141{clip-path:url(#SVGID_4_);fill:#C17252;}
	.st142{clip-path:url(#SVGID_4_);fill:#AA6E56;}
	.st143{clip-path:url(#SVGID_4_);fill:#D5A292;}
	.st144{clip-path:url(#SVGID_4_);fill:#E3A492;}
	.st145{clip-path:url(#SVGID_4_);fill:#FFC7A3;}
	.st146{clip-path:url(#SVGID_4_);fill:#FFC69A;}
	.st147{clip-path:url(#SVGID_4_);fill:#FFB793;}
	.st148{clip-path:url(#SVGID_4_);fill:#D9905F;}
	.st149{clip-path:url(#SVGID_4_);fill:#6D331C;}
	.st150{clip-path:url(#SVGID_4_);fill:#532F17;}
	.st151{clip-path:url(#SVGID_4_);fill:#450E00;}
	.st152{clip-path:url(#SVGID_4_);fill:#4C1301;}
	.st153{clip-path:url(#SVGID_4_);fill:#714838;}
	.st154{clip-path:url(#SVGID_4_);fill:#9C4F2C;}
	.st155{clip-path:url(#SVGID_4_);fill:#C2A492;}
	.st156{clip-path:url(#SVGID_4_);fill:#E8C3C1;}
	.st157{clip-path:url(#SVGID_4_);fill:#623A2F;}
	.st158{clip-path:url(#SVGID_4_);fill:#A66752;}
	.st159{clip-path:url(#SVGID_4_);fill:#2D0900;}
	.st160{clip-path:url(#SVGID_4_);fill:#5F1C00;}
	.st161{clip-path:url(#SVGID_4_);fill:#441302;}
	.st162{clip-path:url(#SVGID_4_);fill:#44211A;}
	.st163{clip-path:url(#SVGID_4_);fill:#A1786E;}
	.st164{clip-path:url(#SVGID_4_);fill:#452420;}
	.st165{clip-path:url(#SVGID_4_);fill:#D5B7B0;}
	.st166{clip-path:url(#SVGID_4_);fill:#F5795D;}
	.st167{clip-path:url(#SVGID_4_);fill:#F78F80;}
	.st168{clip-path:url(#SVGID_4_);fill:#E7716F;}
	.st169{clip-path:url(#SVGID_4_);fill:#BA4F2F;}
	.st170{clip-path:url(#SVGID_4_);fill:#D05A45;}
	.st171{clip-path:url(#SVGID_4_);fill:#DC7F73;}
	.st172{clip-path:url(#SVGID_4_);fill:#F9A19D;}
	.st173{clip-path:url(#SVGID_4_);fill:#E78E89;}
	.st174{clip-path:url(#SVGID_4_);fill:#EF847F;}
	.st175{clip-path:url(#SVGID_4_);fill:#EE734E;}
	.st176{clip-path:url(#SVGID_4_);fill:#97421E;}
	.st177{clip-path:url(#SVGID_4_);fill:#B55E4B;}
	.st178{clip-path:url(#SVGID_4_);fill:#CB5657;}
	.st179{clip-path:url(#SVGID_4_);fill:#A44C43;}
	.st180{clip-path:url(#SVGID_4_);fill:#B1624A;}
	.st181{clip-path:url(#SVGID_4_);fill:#5F170E;}
	.st182{clip-path:url(#SVGID_4_);fill:#9A4B38;}
	.st183{clip-path:url(#SVGID_4_);fill:#B96A65;}
	.st184{clip-path:url(#SVGID_4_);fill:#FFE4DC;}
</style>
<rect class="st0" width="192" height="234"/>
<polygon class="st1" points="192,215.5 172.5,234 192,234 "/>
<g>
	<g>
		<defs>
			<rect id="SVGID_1_" x="-27.2" y="51.8" width="253.2" height="253.2"/>
		</defs>
		<clipPath id="SVGID_2_">
			<use xlink:href="#SVGID_1_"  style="overflow:visible;"/>
		</clipPath>
		<g class="st2">
			<defs>
				<rect id="SVGID_3_" x="-27.2" y="51.8" width="253.2" height="253.2"/>
			</defs>
			<clipPath id="SVGID_4_">
				<use xlink:href="#SVGID_3_"  style="overflow:visible;"/>
			</clipPath>
			<path class="st3" d="M96.9,178.5c-17.3,0-31.5-21.1-31.5-47c0-25.9,14.1-47,31.5-47c17.3,0,31.5,21.1,31.5,47
				C128.3,157.4,114.2,178.5,96.9,178.5"/>
			<path class="st3" d="M128.2,131.5c0,25.9-14,46.9-31.4,46.9c-17.3,0-31.4-21-31.4-46.9c0-25.9,14-46.9,31.4-46.9
				C114.2,84.5,128.2,105.6,128.2,131.5"/>
			<path class="st4" d="M97.3,179.3c-4,0-7.2-0.8-7.2-0.8l-0.1,0l6.5-11.2l7.5,11.2l-0.1,0C101.8,179,99.6,179.3,97.3,179.3
				L97.3,179.3z"/>
			<path class="st4" d="M90.1,178.4c0,0,7,1.8,13.7,0l-7.4-10.9L90.1,178.4z"/>
			<path class="st5" d="M96.2,167.3l16.9,6l-0.2,0.1c-0.3,0.2-7.4,4.7-9.1,5.1l-0.1,0L96.2,167.3z"/>
			<path class="st5" d="M112.9,173.3c0,0-7.3,4.7-9.1,5.1l-7.4-10.9L112.9,173.3z"/>
			<path class="st6" d="M113.5,163.6l9.1,1.3l-0.1,0.1c-1,1.4-9.2,8.1-9.6,8.4l-0.2,0.1L113.5,163.6z"/>
			<path class="st6" d="M113.6,163.7l-0.7,9.6c0,0,8.6-6.9,9.6-8.3L113.6,163.7z"/>
			<polygon class="st7" points="96.1,167.4 113.7,163.6 113,173.4 			"/>
			<polygon class="st7" points="96.4,167.5 113.6,163.7 112.9,173.3 			"/>
			<polygon class="st8" points="96.3,159.2 107.2,165.2 96.3,167.6 			"/>
			<polygon class="st8" points="96.4,159.3 96.4,167.5 107,165.1 			"/>
			<path class="st9" d="M90.1,178.5c-1-0.2-8.9-5.3-9.2-5.5l-0.2-0.1l15.9-5.6L90.1,178.5L90.1,178.5z"/>
			<path class="st9" d="M80.9,172.9c0,0,8.1,5.2,9.2,5.5l6.3-10.9L80.9,172.9z"/>
			<path class="st10" d="M80.9,173c-1.3-0.8-7.5-7.3-7.8-7.6l-0.1-0.1l12.7-4L80.9,173L80.9,173z"/>
			<path class="st10" d="M73.1,165.4c0,0,6.5,6.7,7.8,7.6l4.6-11.5L73.1,165.4z"/>
			<polygon class="st11" points="85.5,161.3 96.7,167.5 80.8,173.1 			"/>
			<polygon class="st11" points="96.4,167.5 85.5,161.4 80.9,172.9 			"/>
			<path class="st12" d="M73.1,165.4c-2.3-2.4-4.8-9.7-4.9-10l-0.1-0.2l17.7,6.2L73.1,165.4L73.1,165.4z"/>
			<path class="st12" d="M68.2,155.4c0,0,2.6,7.6,4.9,10l12.4-3.9L68.2,155.4z"/>
			<polygon class="st13" points="85.2,161.4 96.5,159.2 96.5,167.6 			"/>
			<polygon class="st13" points="96.4,159.3 85.5,161.4 96.4,167.5 			"/>
			<path class="st14" d="M113.5,163.8l3.8-6.7h8.8l0,0.1c-0.3,1.2-3.3,7.6-3.5,7.9l0,0.1L113.5,163.8z"/>
			<path class="st14" d="M117.3,157.1l-3.7,6.6l8.8,1.3c0,0,3.1-6.7,3.5-7.9H117.3z"/>
			<polygon class="st15" points="106.4,153.7 113.8,163.7 106.9,165.3 			"/>
			<polygon class="st15" points="107,165.1 106.5,154 113.6,163.7 			"/>
			<polygon class="st16" points="106.2,153.9 117.5,157 113.6,163.8 			"/>
			<polygon class="st16" points="117.3,157.1 106.5,154 113.6,163.7 			"/>
			<path class="st17" d="M96.2,159.3l0.2-0.1c0.1,0,8.7-3.5,10-5.3l0.2-0.2l0.5,11.5L96.2,159.3z"/>
			<path class="st17" d="M96.4,159.3c0,0,8.7-3.5,10-5.3l0.5,11.1L96.4,159.3z"/>
			<path class="st18" d="M106.3,154.1l0.1-0.1c1.9-1.4,5.4-5.2,5.4-5.2l0-0.1l5.9,2.9l-0.4,5.6L106.3,154.1z"/>
			<path class="st18" d="M111.9,148.8c0,0-3.5,3.8-5.4,5.2l10.8,3.1l0.4-5.4L111.9,148.8z"/>
			<path class="st19" d="M117.2,157.2l0.4-5.5l10.7-7.3l0,0.2c-0.2,5.2-2.2,12.5-2.3,12.6l0,0.1H117.2z"/>
			<path class="st19" d="M128.2,144.6l-10.5,7.1l-0.4,5.4h8.6C125.9,157.1,127.9,149.8,128.2,144.6"/>
			<path class="st20" d="M84.8,153l0.2-0.1c0,0,2,3,11.5,6.3l0.3,0.1l-11.4,2.2L84.8,153z"/>
			<path class="st20" d="M84.9,153c0,0,1.9,3,11.6,6.4l-10.9,2.1L84.9,153z"/>
			<path class="st21" d="M68.2,155.4c-0.2-0.6-2.6-10.4-2.7-10.9l0-0.1l15.1,2.6l-12.3,8.6L68.2,155.4z"/>
			<path class="st21" d="M65.5,144.6c0,0,2.5,10.3,2.7,10.8l12-8.4L65.5,144.6z"/>
			<path class="st22" d="M68.2,155.3l12.1-8.4l0.1,0.1c0,0.1,4.2,5.5,4.6,5.9L85,153l-16.8,2.5L68.2,155.3z"/>
			<path class="st22" d="M84.9,153l-16.6,2.5l12-8.4C80.3,147.1,84.5,152.5,84.9,153"/>
			<polygon class="st23" points="68.2,155.5 68.2,155.3 84.9,152.9 85.6,161.6 			"/>
			<polygon class="st23" points="85.5,161.4 68.2,155.4 84.9,153 			"/>
			<polygon class="st24" points="65.4,144.6 64.3,135.5 77.2,146.6 			"/>
			<polygon class="st24" points="64.5,135.7 65.5,144.6 76.9,146.5 			"/>
			<path class="st25" d="M64.4,135.7c-0.1-0.5-1.4-13.5-0.7-16l0-0.1l9.6,3.1L64.4,136L64.4,135.7z"/>
			<path class="st25" d="M73.1,122.8l-8.7,12.9c0,0-1.4-13.4-0.7-16L73.1,122.8z"/>
			<polygon class="st26" points="64.3,135.7 79.4,132.3 76.9,146.7 			"/>
			<polygon class="st26" points="76.9,146.5 79.3,132.4 64.5,135.7 			"/>
			<path class="st27" d="M73,122.7l0.2,0c1.4,0.2,3,0.3,4.8,0.3c6,0,12.1-1.3,12.1-1.3l0.3-0.1l-11.1,10.9L73,122.7z"/>
			<path class="st27" d="M90.1,121.8c0,0-9.8,2.1-16.9,1l6.2,9.6L90.1,121.8z"/>
			<polygon class="st28" points="79.2,132.5 90,121.8 90.2,121.9 83.5,134.8 			"/>
			<polygon class="st28" points="83.5,134.7 79.3,132.4 90.1,121.8 			"/>
			<polygon class="st29" points="76.8,146.5 79.3,132.3 83.6,134.6 77,146.5 			"/>
			<polygon class="st29" points="83.5,134.7 76.9,146.5 79.3,132.4 			"/>
			<polygon class="st30" points="118.8,132.2 128.3,144.6 117.6,151.9 			"/>
			<polygon class="st30" points="117.7,151.7 118.9,132.4 128.2,144.6 			"/>
			<polygon class="st31" points="118.8,132.4 130.8,127 128.2,144.8 			"/>
			<polygon class="st31" points="130.7,127.1 118.9,132.4 128.2,144.6 			"/>
			<polygon class="st3" points="106.3,129.2 119,127.6 119,132.4 118.2,144.8 			"/>
			<polygon class="st3" points="106.5,129.3 118.1,144.6 118.9,132.4 118.9,127.7 			"/>
			<polygon class="st32" points="101.5,121.7 118.9,127.6 118.9,127.8 106.4,129.4 			"/>
			<polygon class="st32" points="101.7,121.8 106.5,129.3 118.9,127.7 			"/>
			<polygon class="st33" points="118.8,127.7 130.1,115.2 130.8,127.2 118.8,132.6 			"/>
			<polygon class="st33" points="130,115.4 118.9,127.7 118.9,132.4 130.7,127.1 			"/>
			<polygon class="st34" points="111.7,148.8 118.2,144.4 117.8,151.9 			"/>
			<polygon class="st34" points="111.9,148.8 118.1,144.6 117.7,151.7 			"/>
			<polygon class="st35" points="106.4,129.3 106.5,129.2 118.3,144.6 111.8,149 			"/>
			<polygon class="st35" points="106.5,129.3 111.9,148.8 118.1,144.6 			"/>
			<polygon class="st36" points="76.7,146.5 81.2,138.6 87.7,144.6 80.3,147.1 			"/>
			<polygon class="st36" points="87.5,144.6 80.3,147.1 76.9,146.5 81.2,138.8 			"/>
			<polygon class="st37" points="81,138.7 90.8,137.5 87.5,144.7 			"/>
			<polygon class="st37" points="90.6,137.7 87.5,144.6 81.2,138.8 			"/>
			<polygon class="st38" points="85,131.5 87,138.2 81,138.9 			"/>
			<polygon class="st38" points="85,131.8 86.9,138.1 81.2,138.8 			"/>
			<polygon class="st39" points="87.4,144.7 90.6,137.5 97.2,144.7 			"/>
			<polygon class="st39" points="97,144.6 87.5,144.6 90.6,137.7 			"/>
			<path class="st40" d="M107.7,145.9c-0.1,0-9.4-1.2-10.8-1.2h-0.2l5.6-7.2l5.6,8.4L107.7,145.9z"/>
			<path class="st40" d="M107.8,145.8c0,0-9.4-1.2-10.8-1.2l5.4-6.9L107.8,145.8z"/>
			<polygon class="st41" points="107.7,145.8 108.7,137.6 108.9,137.6 112.1,149.1 			"/>
			<polygon class="st41" points="108.8,137.7 107.8,145.8 111.9,148.8 			"/>
			<polygon class="st42" points="102.2,137.6 108,134.5 108.9,137.6 107.8,146 			"/>
			<polygon class="st42" points="108,134.7 102.4,137.7 107.8,145.8 108.8,137.7 			"/>
			<polygon class="st43" points="90.4,137.5 96.5,139.2 102.6,137.5 97,144.7 			"/>
			<polygon class="st43" points="90.6,137.7 96.4,139.3 102.4,137.7 97,144.6 			"/>
			<polygon class="st44" points="96.3,132.3 101.2,135.7 96.3,139.5 			"/>
			<polygon class="st44" points="96.4,132.4 96.4,139.3 101,135.7 			"/>
			<polygon class="st45" points="92.1,135.3 96.5,132.3 96.5,139.5 			"/>
			<polygon class="st45" points="92.2,135.3 96.4,132.4 96.4,139.3 			"/>
			<polygon class="st46" points="96.4,121.2 96.6,121.2 96.5,132.5 92.1,135.5 			"/>
			<polygon class="st46" points="92.2,135.3 96.5,121.2 96.4,132.4 			"/>
			<polygon class="st47" points="92.1,135.3 90,121.7 96.6,121.1 92.3,135.3 			"/>
			<polygon class="st47" points="90.1,121.8 96.5,121.2 92.2,135.3 			"/>
			<polygon class="st48" points="96.4,121.1 101.8,121.8 101.1,135.7 100.9,135.8 			"/>
			<polygon class="st48" points="101.7,121.8 101,135.7 96.5,121.2 			"/>
			<polygon class="st49" points="100.8,135.8 105.6,132.3 106.6,135.5 105,136.4 			"/>
			<polygon class="st49" points="105.6,132.4 101,135.7 105,136.3 106.5,135.5 			"/>
			<polygon class="st50" points="101.6,121.8 101.8,121.8 105.7,132.5 100.9,135.9 			"/>
			<polygon class="st50" points="101.7,121.8 105.6,132.4 101,135.7 			"/>
			<polygon class="st51" points="87.4,134.8 90,121.8 90.2,121.8 92.3,135.4 			"/>
			<polygon class="st51" points="87.5,134.7 92.2,135.3 90.1,121.8 			"/>
			<polygon class="st52" points="87.4,134.6 92.5,135.2 86.8,138.3 			"/>
			<polygon class="st52" points="86.9,138.1 87.5,134.7 92.2,135.3 			"/>
			<polygon class="st53" points="84.9,131.8 90,121.8 90.2,121.8 87,138.1 86.8,138.1 			"/>
			<polygon class="st53" points="85,131.8 86.9,138.1 90.1,121.8 			"/>
			<polygon class="st54" points="101.6,121.9 101.8,121.8 106.5,129.2 108.1,134.7 106.4,135.6 			"/>
			<polygon class="st54" points="106.5,135.5 101.7,121.8 106.5,129.3 108,134.7 			"/>
			<polygon class="st55" points="89.8,136.4 92.2,135.2 94.1,136.9 			"/>
			<polygon class="st55" points="93.8,136.8 90.1,136.4 92.2,135.3 			"/>
			<polygon class="st56" points="99.6,136.7 101,135.6 103.7,135.9 103.7,136.1 99.6,136.9 			"/>
			<polygon class="st56" points="99.6,136.8 103.7,136 101,135.7 			"/>
			<polygon class="st57" points="90.6,137.7 86.9,138.2 86.9,138 90,136.3 93.9,136.7 96.5,139.2 96.4,139.4 			"/>
			<polygon class="st57" points="86.9,138.1 90.1,136.4 93.8,136.8 96.4,139.3 90.6,137.7 			"/>
			<polygon class="st58" points="96.4,139.2 99.6,136.7 103.5,136 105.3,136.2 102.4,137.7 96.5,139.4 			"/>
			<polygon class="st58" points="96.4,139.3 99.6,136.8 103.5,136.1 105,136.3 102.4,137.7 			"/>
			<polygon class="st59" points="63.6,119.8 68.4,113.1 73.3,122.9 			"/>
			<polygon class="st59" points="68.4,113.3 63.7,119.7 73.1,122.8 			"/>
			<polygon class="st60" points="64.4,98.5 64.5,98.5 68.4,113.3 63.6,120 			"/>
			<polygon class="st60" points="64.5,98.5 63.7,119.7 68.4,113.3 			"/>
			<polygon class="st61" points="129.3,98.5 129.5,98.5 130.1,115.5 124.2,122.1 			"/>
			<polygon class="st61" points="129.4,98.5 124.3,121.8 130,115.4 			"/>
			<polygon class="st62" points="117.6,120.3 124.5,121.8 118.8,127.9 			"/>
			<polygon class="st62" points="117.7,120.4 118.9,127.7 124.3,121.8 			"/>
			<polygon class="st63" points="109.8,124.7 117.7,120.3 119,127.9 			"/>
			<polygon class="st63" points="110,124.7 117.7,120.4 118.9,127.7 			"/>
			<path class="st64" d="M103.7,119.4l0.1-0.2c1.2,0.5,13.8,1.1,13.9,1.1l0.3,0l-8,4.4L103.7,119.4z"/>
			<path class="st64" d="M103.7,119.4l6.3,5.3l7.6-4.3C117.7,120.4,105,119.9,103.7,119.4"/>
			<polygon class="st65" points="119.6,120.9 126.2,112.6 126.4,112.7 124.4,121.9 			"/>
			<polygon class="st65" points="126.3,112.7 119.8,120.9 124.3,121.8 			"/>
			<path class="st66" d="M116.3,111.7l0.1,0c5.7,0.3,7.9,3.4,8,3.5l0,0.1l-4.3,5.4L116.3,111.7z"/>
			<path class="st66" d="M116.4,111.8l3.7,8.7l4.2-5.3C124.3,115.2,122.1,112.1,116.4,111.8"/>
			<path class="st67" d="M120,120.5c-2.5-3.2-6.4-5-6.5-5l-0.1,0l3-3.9l3.7,8.8L120,120.5z"/>
			<path class="st67" d="M113.6,115.4c0,0,4,1.8,6.5,5l-3.7-8.7L113.6,115.4z"/>
			<path class="st68" d="M108.6,112.3l0.2,0c2.6-0.5,7.6-0.5,7.7-0.5h0.2l-3,3.9L108.6,112.3z"/>
			<path class="st68" d="M108.8,112.3l4.8,3.1l2.8-3.6C116.4,111.8,111.4,111.8,108.8,112.3"/>
			<path class="st69" d="M105.5,117.2l3.3-5l4.9,3.2l-0.1,0.2c-0.8-0.2-1.5-0.3-2.3-0.3c-3.5,0-5.7,2.1-5.7,2.1L105.5,117.2z"/>
			<path class="st69" d="M105.6,117.3c0,0,3.2-3.1,8-1.9l-4.8-3.1L105.6,117.3z"/>
			<path class="st70" d="M101.6,115.9L101.6,115.9c1.6-3.5,7.2-3.7,7.2-3.7l0.2,0l-3.4,5.2L101.6,115.9z"/>
			<path class="st70" d="M101.7,115.8l3.9,1.4l3.2-5C108.8,112.3,103.3,112.4,101.7,115.8"/>
			<polygon class="st71" points="101.5,115.7 105.7,117.2 103.7,119.5 			"/>
			<polygon class="st71" points="103.7,119.4 105.6,117.3 101.7,115.8 			"/>
			<polygon class="st72" points="101.5,121.9 103.7,119.2 110.1,124.6 110,124.8 			"/>
			<polygon class="st72" points="101.7,121.8 103.7,119.4 110,124.7 			"/>
			<polygon class="st73" points="101.6,115.5 103.9,119.4 101.6,122.1 			"/>
			<polygon class="st73" points="101.7,115.8 101.7,121.8 103.7,119.4 			"/>
			<path class="st74" d="M104.8,113.2L104.8,113.2c-0.1-0.1-0.2-0.2,1.6-5.2l0-0.1l8.4,3.9l-0.4,0c0,0-3.6,0.2-5.7,0.5
				C108.8,112.4,106.7,112.4,104.8,113.2L104.8,113.2L104.8,113.2z"/>
			<path class="st74" d="M104.8,113.1c-0.2,0.1,1.6-5.1,1.6-5.1l8,3.7c0,0-3.6,0.2-5.7,0.5C108.8,112.3,106.7,112.3,104.8,113.1"/>
			<path class="st75" d="M106.2,108l0.2-0.1c0,0,4.6-1.1,8.5-1.1c1.7,0,3,0.2,4,0.6l0.1,0.1l-4.6,4.4L106.2,108z"/>
			<path class="st75" d="M118.9,107.5l-4.4,4.3l-8-3.7C106.5,108,115,105.9,118.9,107.5"/>
			<path class="st76" d="M121.6,113.2c-2.7-1.3-6-1.4-7-1.4l-0.4,0l4.7-4.5l3,6L121.6,113.2z"/>
			<path class="st76" d="M121.7,113.1l-2.8-5.6l-4.4,4.3C114.5,111.8,118.6,111.7,121.7,113.1"/>
			<path class="st77" d="M121.6,113.2l-2.9-5.8l0.1,0c0.1,0,0.1,0,0.2,0c2.3,0,7.1,5,7.3,5.2l0.1,0.1l-2.1,2.6L121.6,113.2z"/>
			<path class="st77" d="M126.3,112.7c0,0-5.3-5.5-7.4-5.2l2.8,5.6l2.6,2L126.3,112.7z"/>
			<path class="st78" d="M83.5,119.3h6.2l0.6,2.6l-0.1,0c-2.4,0.7-9.7,1.2-9.8,1.2l-0.2,0L83.5,119.3z"/>
			<path class="st78" d="M90.1,121.8l-0.5-2.5h-6.1l-3.2,3.7C80.3,123.1,87.6,122.6,90.1,121.8"/>
			<path class="st79" d="M74.5,119.7l0.2,0c0.9-0.2,8.4-0.4,8.7-0.4l0.2,0l-3.4,3.9L74.5,119.7z"/>
			<path class="st79" d="M74.8,119.7l5.5,3.3l3.2-3.7C83.5,119.4,75.6,119.6,74.8,119.7"/>
			<path class="st80" d="M78.2,123.2c-1.9,0-4.3-0.1-5.1-0.3l-0.1,0l1.7-3.2l5.9,3.5l-0.3,0C80.3,123.2,79.4,123.2,78.2,123.2"/>
			<path class="st80" d="M73.1,122.8l1.6-3.1l5.5,3.3C80.3,123.1,74.4,123.2,73.1,122.8"/>
			<polygon class="st81" points="68.1,113.3 73.2,111.2 76.1,117.5 			"/>
			<polygon class="st81" points="75.9,117.3 73.1,111.3 68.4,113.3 			"/>
			<path class="st82" d="M73,111.3l0.1,0c1.5-0.4,3.3-0.6,5.3-0.6c1.6,0,2.8,0.1,2.9,0.1l0.2,0l-5.5,6.6L73,111.3z"/>
			<path class="st82" d="M81.2,110.9c0,0-4.3-0.5-8.1,0.4l2.8,5.9L81.2,110.9z"/>
			<path class="st83" d="M75.9,117.2l5.3-6.4l0,0c0.2,0,5.3,0.1,6.4,0.7l0.1,0.1l-2.9,3.4l-0.1,0c0,0-0.6-0.1-1.5-0.1
				c-1.6,0-4.6,0.3-7.2,2.6L75.9,117.2z"/>
			<path class="st83" d="M84.7,114.8c0,0-4.9-0.9-8.8,2.5l5.3-6.4c0,0,5.3,0.1,6.3,0.7L84.7,114.8z"/>
			<path class="st84" d="M89.5,117.7c-1.4-0.9-4.2-2.7-4.8-2.8l-0.2,0l3-3.4l2.4,0.8l-0.3,5.5L89.5,117.7z"/>
			<path class="st84" d="M89.6,117.6c0,0-4.1-2.7-4.9-2.8l2.8-3.2l2.3,0.7L89.6,117.6z"/>
			<polygon class="st85" points="71.5,119.7 74.9,119.7 73.1,123 			"/>
			<polygon class="st85" points="74.8,119.7 71.6,119.7 73.1,122.8 			"/>
			<polygon class="st86" points="70.2,107.3 73.3,111.4 68.2,113.4 			"/>
			<polygon class="st86" points="70.2,107.5 68.4,113.3 73.1,111.3 			"/>
			<path class="st87" d="M70.1,107.4l0.1,0c0,0,4-1.7,7.8-1.7c0.1,0,0.5,0,0.5,0l-5.4,5.8L70.1,107.4z"/>
			<path class="st87" d="M78.4,105.8l-5.2,5.6l-2.9-3.8C70.2,107.5,74.5,105.7,78.4,105.8"/>
			<path class="st88" d="M78.4,105.6l3,5.4l-0.2,0c-0.9-0.1-1.7-0.1-2.6-0.1c-3.4,0-5.5,0.5-5.5,0.5l-0.3,0.1L78.4,105.6z"/>
			<path class="st88" d="M81.2,110.9l-2.8-5.1l-5.2,5.6C73.1,111.3,76.1,110.5,81.2,110.9"/>
			<path class="st75" d="M78.2,105.7l0.2,0c0.2,0,6.1,0.3,8.3,2.3l0.1,0.1l-5.5,3L78.2,105.7z"/>
			<path class="st75" d="M86.6,108l-5.3,2.9l-2.8-5.1C78.4,105.8,84.4,106,86.6,108"/>
			<path class="st89" d="M87.5,111.6c-1.7-0.6-6.3-0.7-6.3-0.7l0-0.2l5.4-2.9l3.5,4.6L87.5,111.6z"/>
			<path class="st89" d="M89.8,112.3l-3.3-4.3l-5.3,2.9c0,0,4.6,0,6.3,0.7L89.8,112.3z"/>
			<polygon class="st90" points="64.4,98.5 65.4,88.4 72.7,103.7 70.3,107.5 68.3,113.6 			"/>
			<polygon class="st90" points="65.4,88.7 64.5,98.5 68.4,113.3 70.2,107.5 72.6,103.7 			"/>
			<path class="st91" d="M72.5,103.6l5.1-8.5l0.8,10.8l-0.1,0c-0.2,0-0.5,0-0.7,0c-2.9,0-7.3,1.7-7.3,1.7l-0.3,0.1L72.5,103.6z"/>
			<path class="st91" d="M77.6,95.4l-5,8.3l-2.3,3.8c0,0,5.2-2.1,8.1-1.7L77.6,95.4z"/>
			<path class="st92" d="M65.3,88.7L65.3,88.7c0-0.1,1.4-3.2,3.5-6.3c2-2.9,5-6.3,8.4-6.3h0.1l0.4,19.3l-5.1,8.5L65.3,88.7z"/>
			<path class="st92" d="M77.2,76.2l0.4,19.2l-5,8.3l-7.1-14.9C65.4,88.7,70.7,76.2,77.2,76.2"/>
			<polygon class="st93" points="96.4,78.1 96.6,78.1 97,107 86.4,108.1 			"/>
			<polygon class="st93" points="96.5,78.1 86.6,108 97,106.9 			"/>
			<path class="st94" d="M77,76.1l0.1,0c0,0,1.3,0,3.3,0c5,0,13.8,0.3,16.1,2l0.1,0l-10.1,30.2L77,76.1z"/>
			<path class="st94" d="M77.2,76.2c0,0,16.1-0.5,19.3,1.9l-10,29.9L77.2,76.2z"/>
			<path class="st95" d="M86.5,108.1c0,0-1.9-1.9-8.1-2.2l-0.1,0l-0.8-10.4l-0.4-19.2l0.2,0l9.4,31.8L86.5,108.1z"/>
			<path class="st95" d="M78.4,105.8l-0.8-10.4l-0.4-19.2l9.4,31.8C86.6,108,84.7,106,78.4,105.8"/>
			<path class="st96" d="M96.4,78l0.1,0c0.2,0,15.4,2.1,17,2.1c0.1,0,0.1,0,0.1,0l0.2,0l-7.3,28.2L96.4,78z"/>
			<path class="st96" d="M113.6,80.2l-7.1,27.8l-10-29.9C96.5,78.1,113.1,80.4,113.6,80.2"/>
			<path class="st97" d="M113.5,80.2l0.2,0l5.3,27.4l-0.2-0.1c-0.8-0.4-2.1-0.6-3.8-0.6c-3.9,0-8.6,1.1-8.6,1.1l-0.1,0L113.5,80.2z"
				/>
			<path class="st97" d="M118.9,107.5l-5.3-27.3l-7.1,27.8C106.5,108,115.4,105.8,118.9,107.5"/>
			<polygon class="st98" points="113.5,80.2 129.5,98.5 118.8,107.7 			"/>
			<polygon class="st98" points="129.4,98.5 118.9,107.5 113.7,80.6 			"/>
			<path class="st99" d="M126.2,112.8c0-0.1-4.8-5.2-7.2-5.2l-0.4,0l10.9-9.3l-3.2,14.7L126.2,112.8z"/>
			<path class="st99" d="M126.3,112.7c0,0-4.9-5.4-7.4-5.2l10.5-9L126.3,112.7z"/>
			<path class="st100" d="M121.4,89.5l6.7-4l0,0.1c0.6,1.2,1.3,12.4,1.3,12.9l0,0.3L121.4,89.5z"/>
			<path class="st100" d="M128.1,85.6l-6.5,3.9l7.9,9C129.4,98.5,128.7,86.8,128.1,85.6"/>
			<path class="st101" d="M120.9,79.5L120.9,79.5c0.1,0,0.1,0,0.2,0c1.8,0,6.9,5.8,7.1,6.1l0.1,0.1l-6.8,4.1L120.9,79.5z"/>
			<path class="st101" d="M121,79.6l0.5,9.9l6.5-3.9C128.1,85.6,122.7,79.4,121,79.6"/>
			<polygon class="st102" points="113.4,80.1 121.1,79.5 121.6,89.8 			"/>
			<polygon class="st102" points="113.6,80.2 121,79.6 121.5,89.5 			"/>
			<polygon class="st103" points="96.5,121.3 89.9,121.9 93.8,114.1 102,122 			"/>
			<polygon class="st103" points="93.8,114.3 90.1,121.8 96.5,121.2 101.7,121.8 			"/>
			<polygon class="st104" points="93.7,114.3 101.1,112.2 101.8,115.8 101.8,122 			"/>
			<polygon class="st104" points="101,112.3 101.7,115.8 101.7,121.8 93.8,114.3 			"/>
			<path class="st105" d="M100.9,112.3l-4.2-5.6l9.8,1.2l-1.7,5.3l0,0c-2.3,0.7-3.1,2.6-3.1,2.7l-0.1,0.3L100.9,112.3z"/>
			<path class="st105" d="M97,106.9l4.1,5.4l0.7,3.5c0,0,0.8-2,3.1-2.7l1.6-5.1L97,106.9z"/>
			<polygon class="st106" points="86.4,107.9 97.3,106.8 89.8,112.4 			"/>
			<polygon class="st106" points="86.6,108 89.8,112.3 97,106.9 			"/>
			<polygon class="st107" points="89.7,112.3 97,106.8 101.2,112.4 93.8,114.4 			"/>
			<polygon class="st107" points="93.8,114.3 89.8,112.3 97,106.9 101,112.3 			"/>
			<polygon class="st108" points="89.5,119.4 89.5,117.6 89.7,112.2 94,114.3 90.1,122.1 			"/>
			<polygon class="st108" points="89.6,119.4 89.6,117.6 89.8,112.3 93.8,114.3 90.1,121.8 			"/>
			<path class="st109" d="M63.5,125.6c-1.5-3.7-8-9.6-8.1-9.7l0,0c0,0,9.9-27.1,10-27.2l0.2,0.1l0,0.1c-0.7,2.2-1.8,36.4-1.8,36.7
				L63.5,125.6z"/>
			<path class="st109" d="M65.4,88.7l-9.9,27.1c0,0,6.5,5.9,8.1,9.7C63.6,125.5,64.8,90.2,65.4,88.7"/>
			<path class="st110" d="M55.4,115.8c0.6-8,3.6-33.4,3.6-33.6l0-0.2l6.5,6.7l-10,27.2L55.4,115.8z"/>
			<path class="st110" d="M59.1,82.2c0,0-3,25.5-3.6,33.6l9.9-27.1L59.1,82.2z"/>
			<path class="st111" d="M62.3,85.6l5.9-14l8.6,4.5c3,0,3,0,3,0.1c0,0.1,0,0.1-2.6,0.1c-5.8,0-11.6,12.4-11.7,12.5l-0.1,0.1
				L62.3,85.6z"/>
			<path class="st111" d="M68.2,71.7l-5.8,13.9l3,3.1c0,0,5.8-12.5,11.7-12.5c6,0-0.5,0-0.5,0L68.2,71.7z"/>
			<polygon class="st112" points="59,82.2 68.2,71.6 68.3,71.7 62.4,85.8 			"/>
			<polygon class="st112" points="59.1,82.2 68.2,71.7 62.4,85.6 			"/>
			<path class="st113" d="M96.4,78.2c-2.1-1.4-11.2-1.9-11.3-2l-0.3,0l7.4-4.7l4.3,6.5L96.4,78.2z"/>
			<path class="st113" d="M92.2,71.7l-7,4.5c0,0,9.2,0.5,11.3,2L92.2,71.7z"/>
			<polygon class="st114" points="76.7,76.3 76.7,76.1 77.2,76.1 85.5,71.6 87.7,74.7 85.2,76.3 77.3,76.3 77.2,76.3 			"/>
			<polygon class="st114" points="77.2,76.2 85.5,71.7 87.5,74.7 85.2,76.2 76.7,76.2 			"/>
			<polygon class="st115" points="85.3,71.6 92.5,71.6 87.5,74.8 			"/>
			<polygon class="st115" points="92.2,71.7 85.5,71.7 87.5,74.7 91.7,72.1 			"/>
			<path class="st116" d="M68.1,71.7L68.1,71.7c1.3-1.5,8.9-8.9,9-8.9l0.2-0.2l-0.5,13.7L68.1,71.7z"/>
			<path class="st116" d="M77.2,62.9c0,0-7.7,7.4-8.9,8.8l8.5,4.5L77.2,62.9z"/>
			<path class="st117" d="M77.1,62.8L77.1,62.8c0.8-0.8,11.3-4.7,11.8-4.9l0.2-0.1l-3.4,13.9l-9,4.5L77.1,62.8z"/>
			<path class="st117" d="M88.9,58.1c0,0-10.9,4.1-11.7,4.8l-0.5,13.3l8.8-4.5L88.9,58.1z"/>
			<path class="st118" d="M85.4,71.8L88.8,58l0,0c0.4-0.1,1.5-0.2,3.3-0.2c3.1,0,7.4,0.2,7.4,0.2l0.1,0l-7.5,13.8H85.4z"/>
			<path class="st118" d="M99.6,58.1c0,0-9.6-0.4-10.7,0l-3.4,13.7h6.7L99.6,58.1z"/>
			<polygon class="st119" points="92,71.5 101.9,74.9 96.5,78.3 			"/>
			<polygon class="st119" points="101.7,74.9 92.2,71.7 96.5,78.1 			"/>
			<polygon class="st120" points="96.2,78.2 101.7,74.8 106.7,79.6 			"/>
			<polygon class="st120" points="106.5,79.4 101.7,74.9 96.5,78.1 			"/>
			<polygon class="st121" points="92.1,71.8 99.7,57.8 101.8,75.1 			"/>
			<polygon class="st121" points="99.6,58.1 101.7,74.9 92.2,71.7 			"/>
			<polygon class="st122" points="106.5,79.5 101.6,75 99.5,58.1 99.7,58 113.8,80.3 			"/>
			<polygon class="st122" points="113.6,80.2 99.6,58.1 101.7,74.9 106.5,79.4 			"/>
			<path class="st123" d="M99.4,57.9l0.2,0c0.6,0.1,13.6,2,14.9,3.1l0,0l-4.5,13.7L99.4,57.9z"/>
			<path class="st123" d="M114.5,61.1L110,74.6L99.6,58.1C99.6,58.1,113.2,60,114.5,61.1"/>
			<polygon class="st124" points="109.9,74.6 114.5,60.8 121.1,79.7 113.6,80.3 			"/>
			<polygon class="st124" points="121,79.6 114.5,61.1 110,74.6 113.6,80.2 			"/>
			<path class="st125" d="M114.3,60.9l0.2,0.2c0.1,0.1,11.3,7.7,12.6,8.9l0.1,0.1l-6.2,9.8L114.3,60.9z"/>
			<path class="st125" d="M127.1,70l-6.1,9.6l-6.5-18.5C114.5,61.1,125.7,68.8,127.1,70"/>
			<path class="st126" d="M128,85.7c-3.3-4.3-7-6-7-6l-0.1,0l6.2-9.8l5.4,7.8l-4.4,8.1L128,85.7z"/>
			<path class="st126" d="M128.1,85.6l4.3-8l-5.3-7.7l-6.1,9.6C121,79.6,124.7,81.2,128.1,85.6"/>
			<path class="st127" d="M128,85.6l4.4-8.2l0.1,0.1c0.1,0.1,6.8,12.4,7.4,21.4l0,0.3L128,85.6z"/>
			<path class="st127" d="M139.8,99l-11.7-13.4l4.3-8C132.4,77.7,139.1,89.9,139.8,99"/>
			<path class="st128" d="M129.5,107.5c-0.2-9.6-1.5-21.7-1.5-21.9l0-0.3l12,13.7l-10.4,8.6L129.5,107.5z"/>
			<path class="st128" d="M129.6,107.5l10.2-8.5l-11.7-13.4C128.1,85.6,129.4,97.8,129.6,107.5"/>
			<path class="st129" d="M129.5,107.5l10.4-8.7l0,0.2c0,0.1-0.6,12.2-2.7,17.1l-0.1,0.1L129.5,107.5z"/>
			<path class="st129" d="M137.1,116.1l-7.5-8.6l10.2-8.5C139.8,99,139.2,111.1,137.1,116.1"/>
			<polygon class="st130" points="129.5,107.2 137.2,116.1 130.6,127.4 			"/>
			<polygon class="st130" points="130.7,127.1 137.1,116.1 129.6,107.5 			"/>
			<path class="st131" d="M54.7,127.1c-0.1-0.4-1.7-10.6,0.8-11.4l0.1,0l4.3,4.4l-5.1,7.3L54.7,127.1z"/>
			<path class="st131" d="M54.7,127.1c0,0-1.7-10.5,0.7-11.3l4.2,4.3L54.7,127.1z"/>
			<polygon class="st132" points="57.2,123.5 59.7,119.9 63.6,125.5 65,139.4 64.8,139.5 			"/>
			<polygon class="st132" points="64.9,139.5 57.3,123.5 59.7,120.1 63.6,125.5 			"/>
			<path class="st133" d="M65.3,143c0,0-3.8-0.4-5.7-2.7l-0.1-0.1l5.5-0.8l0.4,3.7L65.3,143z"/>
			<path class="st133" d="M65.3,142.9c0,0-3.8-0.4-5.6-2.7l5.2-0.8L65.3,142.9z"/>
			<polygon class="st134" points="60.9,130.8 65,139.5 59.6,140.3 			"/>
			<polygon class="st134" points="60.9,131.1 59.7,140.2 64.9,139.5 			"/>
			<path class="st135" d="M59.6,140.3c0-0.1-3.5-6.6-4.2-9.1l0-0.1H61l-1.3,9.5L59.6,140.3z"/>
			<path class="st135" d="M55.5,131.1h5.5l-1.3,9.1C59.7,140.2,56.2,133.7,55.5,131.1"/>
			<polygon class="st136" points="55.4,131.2 54.6,127.1 57.3,123.3 61.1,131.2 			"/>
			<polygon class="st136" points="54.7,127.1 55.5,131.1 60.9,131.1 57.3,123.5 			"/>
			<path class="st137" d="M129.3,144.2c-0.6,0-1.1-0.1-1.1-0.1l-0.1,0l0.7-4.9l7-0.5l0,0.1C135,143.6,131,144.2,129.3,144.2"/>
			<path class="st137" d="M128.2,144c0,0,6.4,1.1,7.5-5.2l-6.8,0.5L128.2,144z"/>
			<polygon class="st138" points="138.9,131.7 139,131.8 135.8,138.9 128.6,139.4 			"/>
			<polygon class="st138" points="138.9,131.8 128.9,139.3 135.7,138.8 			"/>
			<polygon class="st139" points="130.6,126.9 133.5,130.7 132.5,136.7 128.8,139.5 			"/>
			<polygon class="st139" points="130.7,127.1 133.4,130.7 132.4,136.6 128.9,139.3 			"/>
			<polygon class="st140" points="137,122.9 140.6,125.5 139,131.8 136,134.1 			"/>
			<polygon class="st140" points="136.1,133.9 137.1,123.1 140.5,125.5 138.9,131.8 			"/>
			<path class="st141" d="M137,123.1l1.9-6.1l0.1,0c0.3,0,0.6,0.1,0.8,0.4c1.5,1.6,0.9,7.9,0.9,8.2l0,0.2L137,123.1z"/>
			<path class="st141" d="M138.9,117.1l-1.8,6l3.4,2.5C140.5,125.5,141.3,117.1,138.9,117.1"/>
			<polygon class="st142" points="130.6,127.1 137.1,116 139,117 137.2,123.1 130.7,127.2 			"/>
			<polygon class="st142" points="137.1,116.1 138.9,117.1 137.1,123.1 130.7,127.1 			"/>
			<polygon class="st143" points="133.3,130.8 130.5,127.1 137.2,122.9 136.2,134.1 			"/>
			<polygon class="st143" points="136.1,133.9 133.4,130.7 130.7,127.1 137.1,123.1 			"/>
			<polygon class="st144" points="133.3,130.5 136.2,133.9 132.3,136.8 			"/>
			<polygon class="st144" points="132.4,136.6 136.1,133.9 133.4,130.7 			"/>
			<polygon class="st145" points="96.9,107 96.4,78.1 96.6,78.1 106.6,108.1 			"/>
			<polygon class="st145" points="106.5,108 97,106.9 96.5,78.1 			"/>
			<polygon class="st146" points="73.1,122.6 79.5,132.5 64.3,135.9 			"/>
			<polygon class="st146" points="73.1,122.8 79.3,132.4 64.5,135.7 			"/>
			<polygon class="st147" points="96.3,132.5 96.4,121.2 96.6,121.2 101.2,136 			"/>
			<polygon class="st147" points="96.5,121.2 96.4,132.4 101,135.7 			"/>
			<path class="st148" d="M71.5,119.8l-3.4-6.8l8,4.2l-0.1,0.1c-0.7,0.5-2.7,1.8-2.8,2.4l0,0.1H71.5z"/>
			<path class="st148" d="M75.9,117.3c0,0-2.7,1.7-2.8,2.5h-1.5l-3.3-6.5L75.9,117.3z"/>
			<path class="st149" d="M73.1,119.7c0.1-0.1,1.6-2,2.9-2.5l0,0l1.4,0.8l-1.7,1.7l-2.7,0.1L73.1,119.7z"/>
			<path class="st149" d="M77.2,118l-1.6,1.6l-2.4,0.1c0,0,1.5-2,2.8-2.5L77.2,118z"/>
			<polygon class="st150" points="75.7,117.2 80.9,116 80.9,116.2 77.2,118.1 			"/>
			<polygon class="st150" points="80.9,116.1 77.2,118 75.9,117.3 			"/>
			<path class="st151" d="M75.9,117.2c0,0,2.4-2.3,5.9-2.5l0.2,0l-1,1.5l-5.3,1.3L75.9,117.2z"/>
			<path class="st151" d="M81.7,114.8l-0.9,1.3l-4.9,1.2C75.9,117.3,78.2,115,81.7,114.8"/>
			<polygon class="st152" points="81.7,114.7 84.8,114.7 84.5,115.8 80.7,116.2 			"/>
			<polygon class="st152" points="84.4,115.7 80.9,116.1 81.7,114.8 84.7,114.8 			"/>
			<path class="st153" d="M84.3,115.8l0.3-1.1l0.1,0.1c0.2,0.1,4.5,2.3,4.9,2.8l0.2,0.2L84.3,115.8z"/>
			<path class="st153" d="M89.6,117.6l-5.1-1.9l0.3-0.9C84.7,114.8,89.2,117,89.6,117.6"/>
			<path class="st154" d="M88.1,119.5L88.1,119.5c-0.4-1.1-1.2-2.7-1.6-2.9l0.1-0.2l3.1,1.1v1.9H88.1z"/>
			<path class="st154" d="M88.2,119.4c0,0-1.1-2.7-1.6-2.9l3,1.1v1.8H88.2z"/>
			<path class="st155" d="M77.1,118l1.8-1l0,0.2c0,0,0,1.6,0.9,2.3l0.2,0.2l-4.7,0.2L77.1,118z"/>
			<path class="st155" d="M78.8,117.2c0,0,0,1.7,0.9,2.3l-4.2,0.2l1.6-1.6L78.8,117.2z"/>
			<path class="st156" d="M84,119.5l0.2-0.2c0,0,0.8-0.6,0.9-3.3l0-0.1l1.4,0.5c0,0,0.8,0.5,1.7,2.9l0,0.1H84z"/>
			<path class="st156" d="M88.2,119.4h-3.9c0,0,0.8-0.6,1-3.3l1.3,0.5C86.6,116.5,87.3,117,88.2,119.4"/>
			<path class="st157" d="M79.7,119.6c-0.9-0.7-0.9-2.3-0.9-2.4l0-0.1l2.1-1.1c0.7-0.2,3.5-0.4,3.6-0.4l0.9,0.3l0,0.1
				c-0.1,2.6-1,3.4-1,3.4L79.7,119.6L79.7,119.6z"/>
			<path class="st157" d="M78.8,117.2c0,0,0,1.7,0.9,2.3l4.5-0.1c0,0,0.9-0.8,1-3.3l-0.8-0.3c0,0-2.9,0.2-3.6,0.4L78.8,117.2z"/>
			<polygon class="st156" points="80.8,116.1 81.2,115.8 83.3,115.7 83.1,117.1 82.1,117.9 			"/>
			<polygon class="st156" points="80.9,116.1 82.1,117.7 83,117.1 83.2,115.8 81.2,115.9 			"/>
			<path class="st158" d="M107.1,119.9c-0.1,0-0.1,0-0.2-0.1l-3.3-0.4l1.9-2.2l1.1-0.8l0,0.2c-0.1,0.8-0.2,2.8,0.4,3.1l0.3,0l0,0.2
				C107.1,119.9,107.1,119.9,107.1,119.9"/>
			<path class="st158" d="M106.5,116.6c0,0-0.3,3.5,0.7,3.2l-3.4-0.5l1.8-2.1L106.5,116.6z"/>
			<path class="st159" d="M118.1,120.6c-0.8-1.4-3.6-3.2-3.6-3.2l-0.9-2.1c0,0,0.1,0,0.1,0c1.2,0,4.5,2.9,4.6,3l0,0l-0.1,2.5
				L118.1,120.6z"/>
			<path class="st159" d="M113.6,115.4l0.9,1.9c0,0,2.8,1.8,3.7,3.2l0.1-2.1C118.2,118.4,114.7,115.4,113.6,115.4"/>
			<path class="st160" d="M118,120.6v-2.5l0.2,0.1c0.2,0.2,1.9,1.8,2,2.1l0,0l-0.4,0.5L118,120.6z"/>
			<path class="st160" d="M119.8,120.9l-1.6-0.3v-2.2c0,0,1.9,1.7,2,2.1L119.8,120.9z"/>
			<path class="st161" d="M114.4,117.4c-1.1-0.8-4.1-1.1-4.1-1.1l0-0.2l3.4-0.8l1,2.3L114.4,117.4z"/>
			<path class="st161" d="M110.3,116.2c0,0,3,0.3,4.2,1.1l-0.9-1.9L110.3,116.2z"/>
			<path class="st162" d="M106.4,116.5L106.4,116.5c1.7-1,3.4-1.6,5-1.6c1.4,0,2.2,0.3,2.2,0.4l0.3,0.1l-3.6,0.9c-0.1,0-0.2,0-0.2,0
				c-1.2,0-3.5,1-3.6,1l-0.1,0.1V116.5z"/>
			<path class="st162" d="M106.5,117.2c0,0,2.8-1.1,3.8-1l3.3-0.8c0,0-3.2-1.3-7.1,1.2V117.2z"/>
			<path class="st163" d="M117.7,120.5l-4-0.2l0-0.2c1.1-0.2,1.9-2.1,1.9-2.1l0-0.1l0.1,0c1,0.4,2.5,2.4,2.6,2.5l0.1,0.2
				L117.7,120.5z"/>
			<path class="st163" d="M115.6,118.1c0,0-0.8,2-2,2.2l4.1,0.2l0.5,0.1C118.1,120.5,116.5,118.5,115.6,118.1"/>
			<path class="st164" d="M109.4,120.1c-0.4,0-0.5-2.3-0.6-3.7l0-0.1l0.1,0c0.5-0.1,1.1-0.2,1.7-0.2c2.9,0,5.1,1.9,5.1,1.9l0,0
				l0,0.1c-0.9,2.1-2,2.2-2,2.2l0,0L109.4,120.1z"/>
			<path class="st164" d="M108.9,116.4c0,0,0.1,3.6,0.5,3.6l4.2,0.3c0,0,1.1-0.1,2-2.2C115.6,118.1,112.7,115.4,108.9,116.4"/>
			<path class="st165" d="M106.9,119.9c-0.7-0.6-0.5-2.6-0.5-2.7l0,0l0,0c0.4-0.3,2.4-0.8,2.5-0.8l0.1,0v0.1c0,2.9,0.5,3.6,0.5,3.6
				l0.1,0.2L106.9,119.9z"/>
			<path class="st165" d="M106.5,117.2c0,0-0.2,2.1,0.4,2.6l2.5,0.2c0,0-0.5-0.7-0.5-3.6C108.9,116.4,106.8,116.8,106.5,117.2"/>
			<polygon class="st156" points="111.5,118.5 110.9,115.9 114.3,117.1 112.7,118.9 			"/>
			<polygon class="st156" points="111,116 111.5,118.4 112.7,118.8 114.2,117.2 			"/>
			<path class="st166" d="M87.1,152.1l0.1,0c0.3,0.1,1,0.1,2,0.1c1.8,0,4-0.1,4-0.1l0,0.2l-6.2,2.9V152.1z"/>
			<path class="st166" d="M93.3,152.2c0,0-5.1,0.3-6.1,0v2.8L93.3,152.2z"/>
			<polygon class="st167" points="88.3,154.4 93.3,152.1 97.2,152.1 94.9,154.1 88.3,154.6 			"/>
			<polygon class="st167" points="94.8,154 88.3,154.5 93.3,152.2 97,152.2 			"/>
			<polygon class="st168" points="94.6,154.1 96.9,152.1 99.1,152.1 101.2,154.1 			"/>
			<polygon class="st168" points="101,154 99.1,152.2 97,152.2 94.8,154 			"/>
			<path class="st169" d="M104,151.9h5l-0.2,0.2c-0.1,0.1-1.6,1.6-2.3,2c-0.1,0-1.5,1.2-1.8,1.4l-0.1,0.1L104,151.9z"/>
			<path class="st169" d="M104.7,155.4l-0.6-3.4h4.6c0,0-1.6,1.6-2.3,2C106.5,154,105,155.2,104.7,155.4"/>
			<path class="st170" d="M101,154.1l-2.1-2h0.2c0.4,0,5-0.2,5-0.2l0.1,0l0.6,3.6L101,154.1z"/>
			<path class="st170" d="M101,154l3.7,1.4l-0.6-3.4c0,0-4.6,0.2-5,0.2L101,154z"/>
			<path class="st171" d="M100.8,153.9l4.1,1.5l-0.2,0.1c-0.3,0.1-6.8,3.7-8.3,3.9l-0.3,0L100.8,153.9z"/>
			<path class="st171" d="M96.4,159.3l4.4-5.3l3.8,1.4C104.7,155.4,97.9,159.1,96.4,159.3"/>
			<polygon class="st172" points="94.7,154 101.1,154 96.4,159.5 			"/>
			<polygon class="st172" points="94.8,154 96.4,159.3 100.9,154 			"/>
			<path class="st173" d="M96.5,159.4c-0.7,0-5.4-2.1-5.6-2.2l-0.1-0.1l4.1-3.2l1.7,5.4L96.5,159.4L96.5,159.4z"/>
			<path class="st173" d="M90.9,157.1c0,0,5.1,2.3,5.6,2.2l-1.7-5.2L90.9,157.1z"/>
			<path class="st174" d="M90.9,157.2c-0.5-0.2-3.6-2-3.7-2.1L87,155l1.3-0.6l6.8-0.5L90.9,157.2L90.9,157.2z"/>
			<path class="st174" d="M87.2,155c0,0,3.2,1.9,3.7,2.1l3.9-3.1l-6.5,0.4L87.2,155z"/>
			<path class="st175" d="M87.1,155.1c-0.1-0.1-2.2-1.8-2.3-2.1c-0.2-0.2-3.1-4-3.1-4l0.1-0.1l5.5,3.3v3L87.1,155.1z"/>
			<path class="st175" d="M87.2,152.2l-5.5-3.3c0,0,3,3.8,3.1,4c0.2,0.2,2.3,2,2.3,2V152.2z"/>
			<polygon class="st176" points="81.7,149 80.1,147 81.9,146.4 86.1,147.8 84,150.4 			"/>
			<polygon class="st176" points="85.9,147.9 84,150.3 81.7,148.9 80.3,147.1 82,146.5 			"/>
			<polygon class="st177" points="85.9,147.8 81.8,146.4 87.5,144.5 91.9,147.8 			"/>
			<polygon class="st177" points="91.6,147.7 85.9,147.7 82.1,146.4 87.5,144.6 			"/>
			<polygon class="st178" points="91.6,147.8 87.2,144.5 97,144.5 99.8,147.8 			"/>
			<polygon class="st178" points="99.6,147.7 91.6,147.7 87.5,144.6 97,144.6 			"/>
			<polygon class="st179" points="99.6,147.8 96.7,144.4 107,147.7 107,147.8 			"/>
			<polygon class="st179" points="107,147.7 99.6,147.7 97,144.6 			"/>
			<path class="st180" d="M96.9,144.7l0-0.2c0.4,0,9.6,0.9,10.8,1.2l0.1,0l-0.9,2.2L96.9,144.7z"/>
			<path class="st180" d="M107.8,145.8l-0.8,2l-10-3.2C97,144.6,106.6,145.4,107.8,145.8"/>
			<polygon class="st181" points="106.9,147.8 107.7,145.6 112,148.8 110.7,150.1 			"/>
			<polygon class="st181" points="110.7,150 107,147.7 107.8,145.8 111.9,148.8 			"/>
			<polygon class="st182" points="106.2,152 109.4,149.1 110.9,150 108.8,152.1 			"/>
			<polygon class="st182" points="106.5,152 109.4,149.2 110.7,150 108.7,152 			"/>
			<polygon class="st183" points="83.8,150.3 85.2,148.7 87,152.2 			"/>
			<polygon class="st183" points="86.8,152 85.2,148.8 84,150.3 			"/>
			<polygon class="st184" points="86.7,152 85.1,148.8 85.9,147.7 107,147.7 109.6,149.2 106.5,152 87.2,152.3 			"/>
			<polygon class="st184" points="85.9,147.7 85.2,148.8 86.8,152 87.2,152.2 106.5,152 109.4,149.2 107,147.7 			"/>
		</g>
	</g>
</g>
</svg>
