<?xml version="1.0" encoding="utf-8"?>
<!-- Generator: Adobe Illustrator 19.2.1, SVG Export Plug-In . SVG Version: 6.00 Build 0)  -->
<svg version="1.1" id="Layer_1" xmlns="http://www.w3.org/2000/svg" xmlns:xlink="http://www.w3.org/1999/xlink" x="0px" y="0px"
	 width="192px" height="234px" viewBox="0 0 192 234" style="enable-background:new 0 0 192 234;" xml:space="preserve">
<style type="text/css">
	.st0{fill:#F2F2F2;}
	.st1{fill:#23A684;}
	.st2{fill:#CF9084;}
	.st3{fill:#B47A69;}
	.st4{fill:#B0806B;}
	.st5{fill:#B5836B;}
	.st6{fill:#E49D8A;}
	.st7{fill:#C69485;}
	.st8{fill:#AF7C68;}
	.st9{fill:#AF836B;}
	.st10{fill:#C18674;}
	.st11{fill:#BF7E79;}
	.st12{fill:#B6856D;}
	.st13{fill:#C98B7C;}
	.st14{fill:#AE746D;}
	.st15{fill:#B47C6B;}
	.st16{fill:#B77F6E;}
	.st17{fill:#BE877C;}
	.st18{fill:#C78C84;}
	.st19{fill:#D99A88;}
	.st20{fill:#E89C87;}
	.st21{fill:#CA9174;}
	.st22{fill:#D0957A;}
	.st23{fill:#D59C7F;}
	.st24{fill:#DD927F;}
	.st25{fill:#E2A180;}
	.st26{fill:#D8A19E;}
	.st27{fill:#D5988C;}
	.st28{fill:#B27769;}
	.st29{fill:#B37868;}
	.st30{fill:#ECA188;}
	.st31{fill:#FBAC90;}
	.st32{fill:#FCAC8A;}
	.st33{fill:#C88A72;}
	.st34{fill:#E8A68A;}
	.st35{fill:#260F0F;}
	.st36{fill:#CA8370;}
	.st37{fill:#B07C6A;}
	.st38{fill:#A25E4D;}
	.st39{fill:#9A5D4D;}
	.st40{fill:#885144;}
	.st41{fill:#6B2D23;}
	.st42{fill:#834237;}
	.st43{fill:#774E4A;}
	.st44{fill:#643D35;}
	.st45{fill:#623F39;}
	.st46{fill:#673F3B;}
	.st47{fill:#7C5044;}
	.st48{fill:#8D5850;}
	.st49{fill:#6E3E36;}
	.st50{fill:#764842;}
	.st51{fill:#9A6051;}
	.st52{fill:#B57A5E;}
	.st53{fill:#966B5C;}
	.st54{fill:#91614F;}
	.st55{fill:#987464;}
	.st56{fill:#E7AC9A;}
	.st57{fill:#F1B4A1;}
	.st58{fill:#FBB9A1;}
	.st59{fill:#FDB691;}
	.st60{fill:#F9B083;}
	.st61{fill:#EFAB7B;}
	.st62{fill:#FAB287;}
	.st63{fill:#E0A37A;}
	.st64{fill:#C78764;}
	.st65{fill:#DB9E84;}
	.st66{fill:#D19F83;}
	.st67{fill:#C29274;}
	.st68{fill:#B78C6D;}
	.st69{fill:#A67958;}
	.st70{fill:#C59C81;}
	.st71{fill:#AC9079;}
	.st72{fill:#43241A;}
	.st73{fill:#7A5340;}
	.st74{fill:#886248;}
	.st75{fill:#624633;}
	.st76{fill:#BD8A62;}
	.st77{fill:#E4B794;}
	.st78{fill:#855E46;}
	.st79{fill:#503725;}
	.st80{fill:#6D4B3C;}
	.st81{fill:#B28464;}
	.st82{fill:#D8AC8D;}
	.st83{fill:#C6A58A;}
	.st84{fill:#D3B398;}
	.st85{fill:#DBB49C;}
	.st86{fill:#311810;}
	.st87{fill:#422A21;}
	.st88{fill:#230E08;}
	.st89{fill:#725D4E;}
	.st90{fill:#AD9989;}
	.st91{fill:#5D443B;}
	.st92{fill:#BB9A84;}
	.st93{fill:#BB9980;}
	.st94{fill:#997A62;}
	.st95{fill:#B29883;}
	.st96{fill:#3B2823;}
	.st97{fill:#553B2D;}
	.st98{fill:#886D5F;}
	.st99{fill:#534644;}
	.st100{fill:#66615C;}
	.st101{fill:#938070;}
	.st102{fill:#7B7168;}
	.st103{fill:#78726A;}
	.st104{fill:#7E685C;}
	.st105{fill:#A49A89;}
	.st106{fill:#6E584A;}
	.st107{fill:#2C1915;}
	.st108{fill:#554B45;}
	.st109{fill:#92513E;}
	.st110{fill:#BF7960;}
	.st111{fill:#C57F62;}
	.st112{fill:#392226;}
	.st113{fill:#E8C3C1;}
	.st114{fill:#DFA17E;}
	.st115{fill:#DA9983;}
	.st116{fill:#BF856B;}
	.st117{fill:#DFA295;}
	.st118{fill:#EBAE95;}
	.st119{fill:#F1AB94;}
	.st120{fill:#C1918E;}
	.st121{fill:#B7827F;}
	.st122{fill:#34252F;}
	.st123{fill:#855D58;}
	.st124{fill:#8E6A6A;}
	.st125{fill:#DBAE9B;}
	.st126{fill:#B7938D;}
	.st127{fill:#96645C;}
	.st128{fill:#BE968B;}
	.st129{fill:#A57268;}
	.st130{fill:#4B3D43;}
	.st131{fill:#5F4A4F;}
	.st132{fill:#6A545C;}
	.st133{fill:#7C6869;}
	.st134{fill:#4A3121;}
	.st135{fill:#432923;}
	.st136{fill:#593524;}
	.st137{fill:#562E1F;}
	.st138{fill:#6B4F3A;}
	.st139{fill:#463429;}
	.st140{fill:#4A3322;}
	.st141{fill:#4B3223;}
	.st142{fill:#6F5642;}
	.st143{fill:#CA767C;}
	.st144{fill:#D67B80;}
	.st145{fill:#DD7F7E;}
	.st146{fill:#E18C7E;}
	.st147{fill:#BD6D73;}
	.st148{fill:#AD6665;}
	.st149{fill:#945754;}
	.st150{fill:#4D1815;}
	.st151{fill:#8C4644;}
	.st152{fill:#9D4E50;}
	.st153{fill:#9F4C50;}
	.st154{fill:#A2504E;}
	.st155{fill:#6D202A;}
	.st156{fill:#A44C48;}
	.st157{fill:#9E4C4C;}
	.st158{fill:#833D3C;}
	.st159{fill:#853C3A;}
	.st160{fill:#C0B0A6;}
	.st161{fill:#B3806D;}
	.st162{fill:#E1A48B;}
	.st163{fill:#E19C84;}
	.st164{fill:#C0886B;}
	.st165{fill:#46484F;}
	.st166{fill:#C8C7C7;}
</style>
<rect class="st0" width="192" height="234"/>
<polygon class="st1" points="192,215.5 172.5,234 192,234 "/>
<g>
	<path class="st2" d="M96.5,163.4l-7.7,12.7c0,0,9.1,4.8,17.5-0.9L96.5,163.4z"/>
	<path class="st3" d="M80.5,169.2c0,0,6.7,6.2,8.4,6.9l7.7-12.7L80.5,169.2z"/>
	<path class="st4" d="M71.1,158.6c0,0,8.2,9.4,9.4,10.6l4.1-13.5L71.1,158.6z"/>
	<path class="st5" d="M96.5,163.4c0,0-6-0.2-11.9-7.7l-4.1,13.5L96.5,163.4z"/>
	<polygon class="st6" points="115.2,167.2 106.3,175.2 96.5,163.4 	"/>
	<path class="st7" d="M111,152.3l4.2,15c0,0,9.8-12.3,10-12.9L111,152.3z"/>
	<polygon class="st8" points="74.4,138.4 65.1,150.1 82.3,152 	"/>
	<path class="st9" d="M61.8,139.7c0,0,0.9,5.4,3.2,10.4l9.3-11.7L61.8,139.7z"/>
	<polygon class="st10" points="80.5,149 86.2,139.5 74.4,138.4 	"/>
	<polygon class="st11" points="80.5,132.5 74.4,138.4 86.2,139.5 	"/>
	<polygon class="st12" points="60.1,127.5 61.8,139.7 74.4,138.4 	"/>
	<path class="st13" d="M80.5,132.5c0,0-8.7,1.7-16.5-2l10.4,7.9L80.5,132.5z"/>
	<path class="st14" d="M86.2,139.5l3-10.2c0,0-3.3,2.8-8.7,3.2L86.2,139.5z"/>
	<path class="st15" d="M86.2,139.5l3.6,13c0,0-5.3,0.2-7.9-1l-1.4-2.5L86.2,139.5z"/>
	<path class="st16" d="M96.5,145.2l-6.7,7.3l-3.6-13C86.2,139.5,89.2,144.9,96.5,145.2z"/>
	<path class="st17" d="M96.5,153.2v-8l-6.7,7.3C89.8,152.5,93.6,152.6,96.5,153.2z"/>
	<path class="st18" d="M103.1,152.7l-6.6-7.5v8C96.5,153.2,99.5,152.6,103.1,152.7z"/>
	<path class="st19" d="M104.4,142.4c0,0-5.4,2.5-7.9,2.8l6.6,7.5L104.4,142.4z"/>
	<path class="st20" d="M111,152.3l-3.8-11.7l-3.1,2l0.2-0.1l-1.3,10.3C103.1,152.7,106.8,152.9,111,152.3z"/>
	<path class="st21" d="M125.3,154.4c0,0,3.2-6.3,3.3-6.8l-17.5,4.7L125.3,154.4z"/>
	<polygon class="st22" points="107.3,140.5 122,145.4 128.6,147.5 111,152.3 	"/>
	<path class="st23" d="M131.2,136.4c0,0-10.6,8.6-10.4,8.6c0.2,0.1,7.8,2.5,7.8,2.5L131.2,136.4z"/>
	<polygon class="st24" points="107.3,140.5 119.9,131.4 120.8,145 	"/>
	<path class="st25" d="M132.5,126.2c0,0-2.8,4.4-12.6,5.2l11.3,5L132.5,126.2z"/>
	<path class="st26" d="M110.6,131l-3.3,9.5l12.6-9.1C119.9,131.4,114.2,131.9,110.6,131z"/>
	<path class="st27" d="M103.2,129.1l7.4,1.9l-3.3,9.5C107.3,140.5,106.2,132.9,103.2,129.1z"/>
	<path class="st28" d="M92.5,138.9l4,6.3c0,0-6.8,0-10.3-5.7L92.5,138.9z"/>
	<polygon class="st29" points="89.2,129.3 92.5,138.9 86.2,139.5 	"/>
	<path class="st30" d="M96.5,145.2l3-6.8l4.9,4C104.4,142.4,99.4,144.7,96.5,145.2z"/>
	<path class="st31" d="M107.3,140.5l-2.8,1.9l-1.2-13.3C103.2,129.1,105.9,132.3,107.3,140.5z"/>
	<polygon class="st30" points="95.1,119.6 92.5,138.9 96.5,145.2 99.6,138.4 96.3,119.6 	"/>
	<polygon class="st32" points="103.2,129.1 96.3,119.6 99.6,138.4 104.4,142.4 	"/>
	<path class="st33" d="M89.2,129.3c0,0,3.5-4.4,3.4-9.4l2.6-0.3l-2.6,19.3L89.2,129.3z"/>
	<path class="st34" d="M100.9,119.8c0,0,1.3,6.6,2.3,9.3l-6.9-9.5C96.3,119.6,98.7,119.4,100.9,119.8z"/>
	<path class="st35" d="M101.8,118.4c0,0,1.1-3.4,14-5c0,0,9.4-1.1,15.1,1.1c0,0,2.2,1.1,2,4.6c0,0-0.4,6.3-1.5,7.4
		c-1,1.1-3.7,3.5-11.5,4.5c0,0-8.8,1.2-14.2-2.3c-0.6-0.4-1.1-0.9-1.5-1.4C103.1,125.6,100.7,121.8,101.8,118.4z M101.5,122.9
		c1.2,7.1,9,8.1,9,8.1c3.3,0.9,9.3,0.4,9.3,0.4c8.8-0.3,12.6-5.2,12.6-5.2c0.1-0.5,0.5-5,0.9-5.6c0.2-0.3,0.5-0.1,0.9-0.1
		c0.5,0,0.5-0.5,0.5-0.5s-0.3-4.8-0.5-5.6s-0.6-0.7-0.6-0.7l-3.1-0.2c-5-1.7-14.1-0.9-14.1-0.9c-13.4,1.1-15.3,5.8-15.3,5.8
		C100.8,119.3,101.5,122.9,101.5,122.9z"/>
	<path class="st36" d="M101.9,124.3l1.3,4.8l5.2,1.3C108.4,130.4,103.5,129.2,101.9,124.3z"/>
	<path class="st35" d="M92.2,118.9l9.2-0.4v1.3l-0.5-0.1c0,0-4.1-0.5-8.3,0.1h-0.4V118.9z"/>
	<path class="st35" d="M62.5,117.3c0,0,5.5-2.5,11.6-2.4c6.1,0.1,13.8,0.7,17,3.3c0,0,2.1,1.2,0.1,6.3c0,0.1-0.1,0.2-0.1,0.4
		c-0.3,0.8-1.8,4.9-5.6,5.8c0,0,0,0-0.1,0c-0.5,0.2-5.7,2.3-14.6,1.3c0,0-6.6-0.4-8.1-4.1C62.8,127.9,59.5,120.1,62.5,117.3z
		 M60.1,116.5c-0.6,0-0.7,0.7-0.7,0.7c-0.2,3,0.7,10.2,0.7,10.2l3.9,3c7.3,3.8,16.5,2,16.5,2c5.7-0.4,8.7-3.2,8.7-3.2
		c4.3-5.5,3.3-10.3,3.3-10.3c-0.5-1.2-1.7-1.9-1.7-1.9c-15.1-5.9-27.6-0.9-27.7-0.8C63,116.2,60.6,116.5,60.1,116.5z"/>
	<path class="st37" d="M61.5,137.3c0,0-3.4-1.2-3.4-7.3l2.1-1.7L61.5,137.3z"/>
	<path class="st38" d="M57.9,123.5c0,0,0.6,6.2,0.7,6.1c0.1,0,1.6-1.3,1.6-1.3l-0.2-1.4L57.9,123.5z"/>
	<polygon class="st39" points="56.6,119.5 58.1,130 58.6,129.6 57.9,123.5 	"/>
	<path class="st40" d="M59.4,117.2L59.4,117.2l-2.7,2.3l1.4,4.1l2,3.3C60,126.9,59,118.5,59.4,117.2z"/>
	<polygon class="st41" points="56.6,112.8 56.6,119.5 59.3,117.3 	"/>
	<path class="st42" d="M57.6,110c0,0-4-0.8-1,9.5c0,0-0.1-6.5,0-6.7C56.7,112.6,57.6,110,57.6,110z"/>
	<path class="st42" d="M59.3,117.3L59,110l-1.4,0l-1,2.8C56.6,112.8,59,116.8,59.3,117.3z"/>
	<path class="st43" d="M88.7,116.2l-3.4-4.6c0,0-2.1,3.2-1.9,3.2S87.1,115.6,88.7,116.2z"/>
	<path class="st44" d="M81.4,111.4l1.9,3.5c0,0,0.8-1.8,1.9-3.2C85.3,111.6,82.1,111.2,81.4,111.4z"/>
	<path class="st45" d="M78.4,114.2c0,0,3.1-2.8,3.1-2.8l1.9,3.5C83.4,114.9,81.4,114.4,78.4,114.2z"/>
	<path class="st46" d="M76,111.5l2.4,2.7l3.1-2.8C81.4,111.4,76.3,111.5,76,111.5z"/>
	<path class="st47" d="M71.7,114.3l4.2-2.8l2.4,2.7C78.4,114.2,73.6,114.1,71.7,114.3z"/>
	<path class="st48" d="M103.3,116.2l1.1-4.2l5.2,1.7C109.6,113.6,105,114.7,103.3,116.2z"/>
	<path class="st49" d="M111.3,110.2l-1.7,3.5l-5.2-1.7C104.4,112,110.2,110.2,111.3,110.2z"/>
	<path class="st50" d="M119.8,112.4l-8.5-2.3l-1.7,3.5C109.6,113.6,112.3,112.8,119.8,112.4z"/>
	<path class="st51" d="M122.3,108.8l-2.5,3.6l-8.5-2.3C111.3,110.2,115.9,108.5,122.3,108.8z"/>
	<path class="st52" d="M128.2,110.2l-5.9-1.4l-2.5,3.6c0,0,4.3,0,5.9,0.2L128.2,110.2z"/>
	<polygon class="st53" points="81.4,111.4 76,110.4 76,111.5 	"/>
	<path class="st54" d="M71.7,114.3c0.2-0.6,1.6-4.5,1.6-4.5l2.6,0.6v1.1L71.7,114.3z"/>
	<path class="st55" d="M68.2,110.2l3.5,4.2l1.6-4.5C73.4,109.8,69.9,109.7,68.2,110.2z"/>
	<path class="st55" d="M64.8,115.6l3.4-5.4l3.5,4.2C71.7,114.3,66.3,114.8,64.8,115.6z"/>
	<path class="st56" d="M95.1,86.1l-6.4,30.1c0,0,3.4,1.1,3.8,2.7l8.6-0.3c0,0,0.3-1.3,2.2-2.4L95.1,86.1z"/>
	<path class="st57" d="M104.4,112l1.7-31.8c0,0-3.8-0.2-11,5.9l8.2,30.1L104.4,112z"/>
	<path class="st58" d="M116.2,109.1l-10-28.9l-1.7,31.8c0,0,4.7-1.6,6.9-1.8C111.3,110.2,115.1,109,116.2,109.1z"/>
	<path class="st59" d="M117.9,84.9l-1.7,24.1l-10-28.9C106.1,80.2,110,79,117.9,84.9z"/>
	<path class="st60" d="M126.4,95.3c0,0-3.9-7.4-8.5-10.4L117,98.2L126.4,95.3z"/>
	<polygon class="st61" points="128,105.7 126.4,95.3 117,98.2 	"/>
	<path class="st62" d="M122.3,108.8l5.7-3.1l-11-7.5l-0.8,10.9C116.2,109.1,119.7,108.6,122.3,108.8z"/>
	<polygon class="st63" points="128.2,110.2 129.1,110.4 128,105.7 122.3,108.8 	"/>
	<path class="st64" d="M125.7,112.6l2.5-2.5l0.9,0.2l0.6,2.9C129.7,113.3,127.1,112.7,125.7,112.6z"/>
	<path class="st65" d="M82.3,81.1l2.9,30.5l3.4,4.6l6.4-30.1C95.1,86.1,89.8,81.3,82.3,81.1z"/>
	<path class="st66" d="M76,110.4l6.4-29.3l2.9,30.5c0,0-3.1-0.4-3.8-0.2L76,110.4z"/>
	<path class="st67" d="M70.6,86.1l5.4,24.3l6.4-29.3C82.3,81.1,74.2,82,70.6,86.1z"/>
	<path class="st68" d="M66.2,93.8l7.1,16l2.6,0.6l-5.4-24.3C70.6,86.1,67.4,89,66.2,93.8z"/>
	<polygon class="st69" points="65.1,102.2 66.2,93.8 71.1,104.7 	"/>
	<path class="st70" d="M68.2,110.2l-3.6-5l0.5-2.9l6,2.5l2.3,5.1C73.4,109.8,69.8,109.7,68.2,110.2z"/>
	<path class="st71" d="M63,116.2c0-0.3,0.7-9.8,1.6-11l3.6,5l-3.4,5.4L63,116.2z"/>
	<path class="st72" d="M129.5,112.1l4.9-20.5l-0.3,22.3c0,0-0.1-0.2-0.4-0.2c-0.3,0-3.1-0.2-3.1-0.2l-0.8-0.2L129.5,112.1z"/>
	<polygon class="st73" points="126.4,95.3 131.7,102.5 129.5,112.1 129.1,110.4 128,105.7 	"/>
	<polygon class="st74" points="133.5,95.3 126.4,95.3 131.7,102.5 	"/>
	<polygon class="st75" points="127.7,92.5 129.5,95.3 133.5,95.3 134.4,91.6 	"/>
	<path class="st76" d="M126.4,95.3h3.1l-1.7-2.9l-6-4.1C121.7,88.4,124.6,92,126.4,95.3z"/>
	<path class="st77" d="M117.9,84.9l8.5-7l1.3,14.6l-6-4.1C121.7,88.4,118.8,85.5,117.9,84.9z"/>
	<polygon class="st78" points="134.4,91.6 126.4,77.9 127.7,92.5 	"/>
	<path class="st79" d="M126.4,67.4v10.5l8,13.7C134.4,91.6,135.2,79.1,126.4,67.4z"/>
	<polygon class="st80" points="121.4,82 126.4,67.4 126.4,77.9 	"/>
	<polygon class="st81" points="118.5,77.4 124.3,73.5 121.4,82 	"/>
	<path class="st82" d="M108.2,80.2l10.3-2.8l2.9,4.7l-3.5,2.9C117.9,84.9,112.4,80.7,108.2,80.2z"/>
	<polygon class="st83" points="113.8,74.2 123.9,69.6 122.5,74.7 118.5,77.4 108.2,80.2 	"/>
	<polygon class="st84" points="116.2,66.7 113.8,74.2 108.2,80.2 110.3,72.1 	"/>
	<path class="st85" d="M117,59l-6.6,13.2l-2.1,8.1c0,0-1.4-0.1-2.1,0s-4.5,0.4-11,5.9l8.2-12.6L117,59z"/>
	<path class="st86" d="M122.5,62.8c0,0,3.9,4.1,3.9,4.6l-2.1,6.1l-1.8,1.2l1.4-5.1L122.5,62.8z"/>
	<polygon class="st87" points="116.2,66.7 122.5,62.8 123.9,69.6 113.8,74.2 	"/>
	<path class="st88" d="M122.5,62.8c0,0-4.3-3.8-5.5-3.9l-6.6,13.2l5.9-5.4L122.5,62.8z"/>
	<path class="st89" d="M104.4,56.3l1.7,14.2L117,59C117,59,109.4,56.2,104.4,56.3z"/>
	<path class="st90" d="M96.5,71.4l7.9-15.1c0,0-10.9-0.6-13.3,0L96.5,71.4z"/>
	<polygon class="st91" points="106.1,70.4 100.1,64.7 104.4,56.3 	"/>
	<polygon class="st92" points="96.5,71.4 99.6,79.2 103.3,73.4 106.1,70.4 100.1,64.7 	"/>
	<path class="st93" d="M87.8,82l3.3-4.1l5.4-6.6l3,7.9l-4.4,6.8C95.1,86.1,91.3,83,87.8,82z"/>
	<polygon class="st94" points="93.8,63.7 89.4,80.1 96.5,71.4 	"/>
	<path class="st95" d="M82.3,81.1l4-10.3l4.9,2.3l-1.8,7l-1.6,2C87.8,82,84.6,81.1,82.3,81.1z"/>
	<path class="st96" d="M79.1,59l7.3,11.8l4.9,2.3l2.5-9.4l-2.7-7.4C91.1,56.3,82.7,56.4,79.1,59z"/>
	<polygon class="st97" points="75.6,69.1 82.3,81.1 86.4,70.8 	"/>
	<path class="st98" d="M73,84.1l4.5-11.6l4.9,8.6C82.3,81.1,75.7,82.4,73,84.1z"/>
	<polygon class="st99" points="79.1,59 75.6,69.1 86.4,70.8 	"/>
	<path class="st100" d="M68.2,65.5l7.3,3.6L79.1,59C79.1,59,69.5,64.1,68.2,65.5z"/>
	<polygon class="st101" points="67.4,78.7 73,84.1 77.5,72.5 	"/>
	<path class="st102" d="M64.6,70.8c0.3-0.2,3.6-5.2,3.6-5.2l7.3,3.6l1.9,3.4L64.6,70.8z"/>
	<path class="st103" d="M60.8,79.2c0,0,2.6-7.4,3.8-8.5l12.9,1.7l-10.1,6.2L60.8,79.2z"/>
	<path class="st104" d="M66.2,94.1l-5.3-14.9l6.6-0.5l5.6,5.4c0,0-1.7,1.2-2.4,2C70.6,86.1,67.2,89.2,66.2,94.1z"/>
	<polygon class="st105" points="59,94.1 60.8,79.2 66.2,94.1 	"/>
	<polygon class="st106" points="64.6,105.2 59,94.1 66.2,94.1 65.1,102.2 	"/>
	<path class="st107" d="M59,110l5.5-4.8c0,0-0.8,2.2-1.1,5.6l-0.5,5.4l-3,0.3c0,0-0.4-0.1-0.8,0.8L59,110z"/>
	<polygon class="st108" points="59,94.1 57.6,110 59,110 64.6,105.2 	"/>
	<path class="st109" d="M134.1,109.5c0,0,3.2-3.2,1.7,5.9l-0.5,5.2l-0.6-0.6c0,0-0.3-5.5-0.7-6.1L134.1,109.5z"/>
	<path class="st110" d="M134.2,125.1c0.1,0.2,0.5,1.5,0.5,1.5s0.1-1.4,0.2-1.6l0.4-4.5l-0.6-0.6c0,0,0,0.6-0.6,0.4
		c-0.3-0.1-0.6-0.2-0.8,0.2c-0.1,0.3-0.2,0.8-0.3,1.1c0,0.1,0,0.1,0,0.2L134.2,125.1z"/>
	<path class="st111" d="M134.7,126.6l-1.7-4.9l-1.9,14.6l-0.4,1.6l1.5-0.6C133.1,136.1,134.6,137.2,134.7,126.6z"/>
	<path class="st112" d="M101.6,120.5l2.9,2.3l-1.7,1.8C102.7,124.7,101.6,122.7,101.6,120.5z"/>
	<path class="st113" d="M106.1,119.9l5.2-2.1c0,0,0,2.5,1.4,3.1l-6.1-0.5C106.7,120.3,105.4,120.2,106.1,119.9z"/>
	<path class="st113" d="M117.9,117.7c0,0,0.1,2.6-1.5,3.1c0,0,2.4-0.4,4-1.4C120.4,119.4,121.7,118.2,117.9,117.7z"/>
	<path class="st114" d="M132.4,116.2l-5.8,13.3c0,0,3.5-1.4,4.8-3c0,0,0.9-1.2,1.2-4.5C132.6,122,133.4,117.5,132.4,116.2z"/>
	<path class="st115" d="M118.5,131.1l6-11.2l4.9,3.2l-2.8,6.4C126.6,129.5,124.3,130.6,118.5,131.1z"/>
	<path class="st116" d="M120.8,113.1l3.7,6.8l5.5-5.7C130,114.2,127,113.1,120.8,113.1z"/>
	<path class="st117" d="M104.4,122.9l4.5,3.3l2.3,4.6c0,0-4.4-1.1-5.5-2.1c-1.1-1-0.2-0.2-0.2-0.2s-1.1-0.4-2.8-3.8L104.4,122.9z"/>
	<path class="st118" d="M118.5,131.1l-0.9-8.7c0,0,3.8-0.1,6.9-2.5L118.5,131.1z"/>
	<path class="st119" d="M117.6,122.4l-8.7,3.8l2.3,4.6c0,0,2.9,0.7,7.3,0.4L117.6,122.4z"/>
	<polygon class="st120" points="109.2,120.5 108.9,126.2 117.6,122.4 112.7,120.9 	"/>
	<polygon class="st121" points="104.4,122.9 106.1,120.2 109.2,120.5 108.9,126.2 	"/>
	<path class="st122" d="M109.4,118.6l-0.1-1.6h3.9l1.2,0.4c0,0-2.2,0-3.1,0.4L109.4,118.6z"/>
	<path class="st122" d="M120.4,117.5l-1.9-0.2l-2.2-0.2l-3-0.1l1.1,0.4c0.1,0,0.1,0,0.2,0c0.4,0,2.2,0.1,3.4,0.4c0,0,2.2,0.2,2.7,1
		c0,0.1,0,0.1,0.1,0.2c0,0,0.1,0.1,0.1,0.1l2.3,1.5c0.1,0.1,0.2,0.2,0.3,0.2c0,0,0.4-0.2,0.5-0.3l0.7-0.5l-0.4-0.7l-2.4-1.2
		C121.7,118,121,117.5,120.4,117.5z"/>
	<path class="st123" d="M120.6,121.8l-0.7-2.1c0,0,0.7-0.2,0.7-0.8l2.7,1.8C123.3,120.7,121.4,121.8,120.6,121.8z"/>
	<path class="st124" d="M117.6,122.4c0,0,2.3-0.2,3-0.6l-0.7-2.1c0,0-1.9,0.9-3.4,1.1c0,0-2.5,0.5-3.7,0L117.6,122.4z"/>
	<path class="st125" d="M113.3,116.9l2.9-3.6c0,0,3.4-0.3,4.6-0.2l3.3,6.1l-2.4-1.2c0,0-0.3-0.3-0.7-0.4
		C119.5,117.1,113.1,116.9,113.3,116.9z"/>
	<path class="st126" d="M109.3,116.9l-2.1-1.8c0,0,4.1-1.3,8.9-1.8l-2.9,3.6H109.3z"/>
	<path class="st127" d="M107.1,119.5l-5.1-1.4c0,0,0.9-1.6,5.3-3l2.1,1.8l0.1,1.6L107.1,119.5z"/>
	<path class="st128" d="M104.4,122.9l-2.9-2.3l4.4-1.4l1.2,0.3c0,0-1.9,0.6-0.9,0.7L104.4,122.9z"/>
	<path class="st129" d="M102,118.1c0,0-0.6,1.1-0.5,2.4l4.1-1.4L102,118.1z"/>
	<path class="st112" d="M92.1,120.5l-3.4,2.8l2.1,2.3C90.8,125.6,92.4,121.9,92.1,120.5z"/>
	<path class="st113" d="M71.1,120.4c0,0,1.2-1.9,4-2.3c0,0,0.2,3.7,2.8,3.7c0,0,4.1,0.6,4.4-3.5c0,0,2.2,0.3,2.1,0.9
		c-0.1,0.5-1.7,2.6-2.8,3.1c-0.6,0.3-4,1.6-9.3-0.8C72.2,121.6,70.4,121,71.1,120.4z"/>
	<path class="st122" d="M69.7,120.5c0-0.2-0.5-2.2,5.2-3c0,0,2.6-1,8.1,0.3l1.2,1.1c0,0-0.9-0.5-1.9-0.5c0,0-2.3-1.6-7.2-0.2
		c0,0-2.8,0.5-4,2.3L69.7,120.5z"/>
	<path class="st130" d="M72,123.5c0,0-2.3-2-2.3-3l1.4-0.1c0,0-0.6,0.4,0.6,0.9L72,123.5z"/>
	<polygon class="st131" points="74.5,122.4 72,123.5 71.7,121.3 	"/>
	<polygon class="st132" points="77.1,123.9 72,123.5 74.5,122.4 	"/>
	<path class="st133" d="M80.8,122.4l-3.7,1.5l-2.6-1.5C74.5,122.4,77.2,123.4,80.8,122.4z"/>
	<path class="st114" d="M61.4,119.6l12,12.6c0,0-7,0-9.8-3.2C63.5,129.1,61.1,125.9,61.4,119.6z"/>
	<path class="st115" d="M72,123.5l1.4,8.8l-7.4-7.8l3.7-4C69.7,120.5,69.5,121.3,72,123.5z"/>
	<polygon class="st118" points="77.1,123.9 73.4,132.3 72,123.5 	"/>
	<path class="st119" d="M86,130.6c0.2-0.1-8.9-6.7-8.9-6.7l-3.7,8.4C73.4,132.3,80.9,132.8,86,130.6z"/>
	<path class="st125" d="M76.2,117.2l-1.1-2.3c0,0-3.5-0.1-6.5,0.6l1.1,5c0,0-0.7-2.2,5.2-3C74.8,117.5,75.8,117.3,76.2,117.2z"/>
	<path class="st126" d="M83.2,115.6l-0.2,2.1c0,0-4.2-1-6.8-0.5l-1.1-2.3C75.1,114.9,81.9,115.2,83.2,115.6z"/>
	<path class="st129" d="M88.7,116.9l0,6.5l3.4-2.8C92.1,120.5,92.5,117.9,88.7,116.9z"/>
	<path class="st127" d="M84.4,119.2l4.4,4.2l0-6.5c0,0-3.2-1.2-5.5-1.3l-0.2,2.1l1.2,1.1L84.4,119.2z"/>
	<path class="st117" d="M86,130.6l-1.8-7.7l4.6,0.5l2.1,2.3C90.8,125.6,89.7,129.4,86,130.6z"/>
	<polygon class="st117" points="80.6,122.5 77.1,123.9 86,130.6 84.2,122.9 	"/>
	<path class="st134" d="M136.5,108l-2.1-16.5l-0.2,18c0,0,2.6-2.6,1.9,3.6L136.5,108z"/>
	<polygon class="st135" points="125.3,154.4 125.4,161.8 136.5,166.2 128.6,147.5 	"/>
	<polygon class="st136" points="128.6,147.5 136,140.5 136.5,166.2 	"/>
	<path class="st137" d="M130.8,137.9l-2.3,9.6l7.5-7l-1.7-8.1C134.4,132.5,134.4,136.8,130.8,137.9z"/>
	<path class="st138" d="M58.3,132.5l-0.7,18.5l5-7.8c0,0-0.9-3.7-1.1-5.8C61.5,137.3,59.2,136.4,58.3,132.5z"/>
	<path class="st139" d="M67.4,156.2c-0.8-0.6-9.8-5.3-9.8-5.3l5-7.8c0,0,2.2,6.6,2.5,7c0.4,0.5,2.2,3.1,2.2,3.1L67.4,156.2z"/>
	<path class="st140" d="M59.3,166.2c0-0.4-1.7-15.2-1.7-15.2l6.4,3.2L59.3,166.2z"/>
	<polygon class="st141" points="68.2,162.4 64.8,163.4 62.5,158 64,154.2 67.4,156.2 	"/>
	<polygon class="st142" points="59.3,166.2 64.8,163.4 62.5,158 	"/>
	<path class="st143" d="M96.3,158.2l-3.6,4.4c0,0,2.4,0.9,3.8,0.8c1.4-0.1,3.6-0.4,4.3-0.7L96.3,158.2z"/>
	<path class="st144" d="M103.8,156.3c0,0-2.2,1.9-7.5,1.9l4.6,4.5L103.8,156.3z"/>
	<path class="st145" d="M107.1,153.7l-3.2,2.6l-3,6.4c0,0,3.3-1.3,4.7-2.6L107.1,153.7z"/>
	<path class="st146" d="M111,152.3l-4,1.4l-1.5,6.4C105.6,160.1,109.6,156.8,111,152.3z"/>
	<path class="st147" d="M88.5,155.7l4.3,6.8l3.6-4.4C96.3,158.2,91.4,158.1,88.5,155.7z"/>
	<path class="st148" d="M85.8,153.4l0.3,4.3c0,0,3.1,3.6,6.7,4.9l-4.3-6.8C88.5,155.7,86.1,153.8,85.8,153.4z"/>
	<polygon class="st149" points="83.7,152 85.8,153.4 86.1,157.7 84.6,155.7 82.3,152 81.9,151.4 	"/>
	<polygon class="st150" points="86.3,153.2 87.2,154.6 85.8,153.4 85.3,153 	"/>
	<path class="st151" d="M92.2,153.7l-2.3-1.2c0,0-4.3,0-6.1-0.5l1.6,1l1.1,0.2L92.2,153.7z"/>
	<path class="st152" d="M96.5,153.2l-4.4,0.4l-2.3-1.2C89.8,152.5,95.1,152.7,96.5,153.2z"/>
	<path class="st153" d="M101.3,153.8l-4.7-0.6l-4.4,0.4C92.2,153.7,94.9,154.3,101.3,153.8z"/>
	<path class="st154" d="M103.1,152.7l-1.8,1.1l-4.7-0.6C96.5,153.2,100.7,152.5,103.1,152.7z"/>
	<polygon class="st155" points="107.2,153.6 106.5,153.4 106.5,154.2 	"/>
	<path class="st156" d="M105.6,152.7l0.8,0.6l0.8,0.2l3.8-1.3C111,152.3,108.1,152.7,105.6,152.7z"/>
	<polygon class="st157" points="101.3,153.8 106.5,153.4 105.6,152.7 103.1,152.7 	"/>
	<path class="st158" d="M92.4,157.6c0,0-0.7-1-0.7-1.1c0-0.2,0,0.2,0,0.2s-1.7,0.1-3.2-1.5l-1.4-0.5l1.3,1.1
		C88.5,155.7,90.2,157.1,92.4,157.6z"/>
	<path class="st159" d="M105,155.4l-0.5-0.3c0,0-1.1,2-2.9,1.6c0,0-1,1-1.2,1.1C100.3,157.8,103.2,157.3,105,155.4z"/>
	<path class="st160" d="M86.3,153.2l0.8,1.4l1.4,0.5c0,0,1.3,1.5,3.2,1.5c0,0,0.6,0.8,0.7,1c0,0,3.5,1.2,7.9,0.2
		c0.2-0.1,1.2-1.1,1.2-1.1s1.6,0.6,2.9-1.6l0.5,0.3l1.5-1.2v-0.8l-5.2,0.5c0,0-6.7,0.4-9.1-0.2L86.3,153.2z"/>
	<path class="st161" d="M65.1,150.1c0,0,5.3,7.7,6,8.5l13.5-2.9l-2.4-3.7L65.1,150.1z"/>
	<path class="st162" d="M96.5,163.4c0,0,9.8,0.3,14.5-11.1l4.2,15L96.5,163.4z"/>
	<path class="st163" d="M131.2,136.4c0,0-10.1,8.1-10.4,8.6l-0.9-13.6L131.2,136.4z"/>
	<path class="st164" d="M68.6,115.5l1.1,5l-3.7,4l-4.6-4.8c0,0,0.4-1.9,1.2-2.3C63.3,117,66.6,115.8,68.6,115.5z"/>
	<path class="st164" d="M124.5,119.9l5.5-5.7c0,0,1.8,0.4,2.4,2l-3,6.9L124.5,119.9z"/>
	<path class="st165" d="M82.3,118.3c0,0-2.3-1.6-7.2-0.2c0,0,0,3.5,2.8,3.7C77.9,121.8,81.9,122.5,82.3,118.3z"/>
	<path class="st166" d="M78.7,119.3c0,0-2-0.4-0.6-1.5c0,0,1.1-0.1,1.2,0.6C79.4,119.2,78.9,119.4,78.7,119.3z"/>
	<path class="st165" d="M112.7,120.9c0,0,1.6,0.6,3.7,0c0,0,1.5-0.3,1.5-3.1c0,0-3.6-1-6.6,0C111.3,117.7,111.4,120.4,112.7,120.9z"
		/>
	<path class="st166" d="M113.8,118.8c0,0-1.1,0.2-1.2-0.5c0,0-0.2-0.9,1.2-0.8c0,0,0.7,0.2,0.7,0.6
		C114.5,118.2,114.6,118.9,113.8,118.8z"/>
	<path class="st135" d="M125.3,154.4l0.1,7.4c0,0-4.8-1.4-4.7-1.5C120.8,160.2,125.3,154.4,125.3,154.4z"/>
	<polygon class="st135" points="67.2,153.2 67.4,156.2 68.2,162.4 73.2,161.1 	"/>
	<path class="st128" d="M80.6,122.5l8.1,0.9l-4.6-4.5C84.1,118.8,82.9,121.9,80.6,122.5z"/>
</g>
</svg>
