<?xml version="1.0" encoding="utf-8"?>
<!-- Generator: Adobe Illustrator 19.2.1, SVG Export Plug-In . SVG Version: 6.00 Build 0)  -->
<svg version="1.1" id="Layer_1" xmlns="http://www.w3.org/2000/svg" xmlns:xlink="http://www.w3.org/1999/xlink" x="0px" y="0px"
	 width="192px" height="234px" viewBox="0 0 192 234" style="enable-background:new 0 0 192 234;" xml:space="preserve">
<style type="text/css">
	.st0{fill:#F2F2F2;}
	.st1{fill:#D54339;}
	.st2{clip-path:url(#SVGID_2_);}
	.st3{clip-path:url(#SVGID_4_);}
	.st4{clip-path:url(#SVGID_6_);fill:#051717;}
	.st5{clip-path:url(#SVGID_6_);fill:#CD927A;}
	.st6{clip-path:url(#SVGID_6_);fill:#452218;}
	.st7{clip-path:url(#SVGID_6_);fill:#6A4034;}
	.st8{clip-path:url(#SVGID_6_);fill:#B47F5E;}
	.st9{clip-path:url(#SVGID_6_);fill:#6D5145;}
	.st10{clip-path:url(#SVGID_6_);fill:#D7B8B0;}
	.st11{clip-path:url(#SVGID_6_);fill:#CF8486;}
	.st12{clip-path:url(#SVGID_6_);fill:#BE7A5F;}
	.st13{clip-path:url(#SVGID_8_);fill:#D28575;}
	.st14{clip-path:url(#SVGID_8_);fill:#D79081;}
	.st15{clip-path:url(#SVGID_8_);fill:#CD947C;}
	.st16{clip-path:url(#SVGID_8_);fill:#D99478;}
	.st17{clip-path:url(#SVGID_8_);fill:#DE9680;}
	.st18{clip-path:url(#SVGID_8_);fill:#D19379;}
	.st19{clip-path:url(#SVGID_8_);fill:#DA9480;}
	.st20{clip-path:url(#SVGID_8_);fill:#452218;}
	.st21{clip-path:url(#SVGID_8_);fill:#734439;}
	.st22{clip-path:url(#SVGID_8_);fill:#D09177;}
	.st23{clip-path:url(#SVGID_8_);fill:#CC8E71;}
	.st24{clip-path:url(#SVGID_8_);fill:#DE9279;}
	.st25{clip-path:url(#SVGID_8_);fill:#A87861;}
	.st26{clip-path:url(#SVGID_8_);fill:#E7A18D;}
	.st27{clip-path:url(#SVGID_8_);fill:#D79895;}
	.st28{clip-path:url(#SVGID_8_);fill:#C57F66;}
	.st29{clip-path:url(#SVGID_8_);fill:#C88266;}
	.st30{clip-path:url(#SVGID_8_);fill:#BD7C5A;}
	.st31{clip-path:url(#SVGID_8_);fill:#C07963;}
	.st32{clip-path:url(#SVGID_8_);fill:#BE7A5F;}
	.st33{clip-path:url(#SVGID_8_);fill:#7F563E;}
	.st34{clip-path:url(#SVGID_8_);fill:#BB8977;}
	.st35{clip-path:url(#SVGID_8_);fill:#CF8486;}
	.st36{clip-path:url(#SVGID_8_);fill:#794A39;}
	.st37{clip-path:url(#SVGID_8_);fill:#896354;}
	.st38{clip-path:url(#SVGID_8_);fill:#C47E7D;}
	.st39{clip-path:url(#SVGID_8_);fill:#9F5857;}
	.st40{clip-path:url(#SVGID_8_);fill:#935352;}
	.st41{clip-path:url(#SVGID_8_);fill:#A2705F;}
	.st42{clip-path:url(#SVGID_8_);fill:#CD8B80;}
	.st43{clip-path:url(#SVGID_8_);fill:#DF9B86;}
	.st44{clip-path:url(#SVGID_8_);fill:#36130E;}
	.st45{clip-path:url(#SVGID_8_);fill:#BC7362;}
	.st46{clip-path:url(#SVGID_8_);fill:#B4775B;}
	.st47{clip-path:url(#SVGID_8_);fill:#8C5E54;}
	.st48{clip-path:url(#SVGID_8_);fill:#C98B7D;}
	.st49{clip-path:url(#SVGID_8_);fill:#A37863;}
	.st50{clip-path:url(#SVGID_8_);fill:#B2785B;}
	.st51{clip-path:url(#SVGID_8_);fill:#CB8D6E;}
	.st52{clip-path:url(#SVGID_8_);fill:#BC816C;}
	.st53{clip-path:url(#SVGID_8_);fill:#CD927A;}
	.st54{clip-path:url(#SVGID_8_);fill:#CD8E73;}
	.st55{clip-path:url(#SVGID_8_);fill:#1D1B0F;}
	.st56{clip-path:url(#SVGID_8_);fill:#B0764D;}
	.st57{clip-path:url(#SVGID_8_);fill:#B47F5E;}
	.st58{clip-path:url(#SVGID_8_);fill:#1B190E;}
	.st59{clip-path:url(#SVGID_8_);fill:#0D170F;}
	.st60{clip-path:url(#SVGID_8_);fill:#191612;}
	.st61{clip-path:url(#SVGID_8_);fill:#2B221D;}
	.st62{clip-path:url(#SVGID_8_);fill:#A46459;}
	.st63{clip-path:url(#SVGID_8_);fill:#A46450;}
	.st64{clip-path:url(#SVGID_8_);fill:#794F43;}
	.st65{clip-path:url(#SVGID_8_);fill:#6A4034;}
	.st66{clip-path:url(#SVGID_8_);fill:#88674E;}
	.st67{clip-path:url(#SVGID_8_);fill:#785C4C;}
	.st68{clip-path:url(#SVGID_8_);fill:#484235;}
	.st69{clip-path:url(#SVGID_8_);fill:#3C3C2B;}
	.st70{clip-path:url(#SVGID_8_);fill:#2D3129;}
	.st71{clip-path:url(#SVGID_8_);fill:#2D2D22;}
	.st72{clip-path:url(#SVGID_8_);fill:#23221C;}
	.st73{clip-path:url(#SVGID_8_);fill:#BB897A;}
	.st74{clip-path:url(#SVGID_8_);fill:#C48A72;}
	.st75{clip-path:url(#SVGID_8_);fill:#DE9780;}
	.st76{clip-path:url(#SVGID_8_);fill:#B0816F;}
	.st77{clip-path:url(#SVGID_8_);fill:#8F654F;}
	.st78{clip-path:url(#SVGID_8_);fill:#E39980;}
	.st79{clip-path:url(#SVGID_8_);fill:#CA886D;}
	.st80{clip-path:url(#SVGID_8_);fill:#985643;}
	.st81{clip-path:url(#SVGID_8_);fill:#D98C70;}
	.st82{clip-path:url(#SVGID_8_);fill:#DF967C;}
	.st83{clip-path:url(#SVGID_8_);fill:#C28669;}
	.st84{clip-path:url(#SVGID_8_);fill:#2E100E;}
	.st85{clip-path:url(#SVGID_8_);fill:#081516;}
	.st86{clip-path:url(#SVGID_8_);fill:#051717;}
	.st87{clip-path:url(#SVGID_8_);fill:#121819;}
	.st88{clip-path:url(#SVGID_8_);fill:#060908;}
	.st89{clip-path:url(#SVGID_8_);fill:#060B0C;}
	.st90{clip-path:url(#SVGID_8_);fill:#05181B;}
	.st91{clip-path:url(#SVGID_8_);fill:#081515;}
	.st92{clip-path:url(#SVGID_8_);fill:#1A1A1D;}
	.st93{clip-path:url(#SVGID_8_);fill:#060B0D;}
	.st94{clip-path:url(#SVGID_8_);fill:#06090A;}
	.st95{clip-path:url(#SVGID_8_);fill:#040506;}
	.st96{clip-path:url(#SVGID_8_);fill:#D1B4AA;}
	.st97{clip-path:url(#SVGID_8_);fill:#242016;}
	.st98{clip-path:url(#SVGID_8_);fill:#C7BFBB;}
	.st99{clip-path:url(#SVGID_8_);fill:#6D5145;}
	.st100{clip-path:url(#SVGID_8_);fill:#291A0D;}
	.st101{clip-path:url(#SVGID_8_);fill:#906B50;}
	.st102{clip-path:url(#SVGID_8_);fill:#282714;}
	.st103{clip-path:url(#SVGID_8_);fill:#D9A29E;}
	.st104{clip-path:url(#SVGID_8_);fill:#241B12;}
	.st105{opacity:0.8;clip-path:url(#SVGID_8_);}
	.st106{clip-path:url(#SVGID_10_);}
	.st107{clip-path:url(#SVGID_12_);fill:#EDD6E1;}
	.st108{clip-path:url(#SVGID_8_);fill:#D7B8B0;}
	.st109{clip-path:url(#SVGID_8_);fill:#785546;}
	.st110{clip-path:url(#SVGID_8_);fill:#9D6F4E;}
	.st111{clip-path:url(#SVGID_8_);fill:#F1A29F;}
	.st112{clip-path:url(#SVGID_8_);fill:#EF9D88;}
	.st113{clip-path:url(#SVGID_8_);fill:#F19983;}
	.st114{clip-path:url(#SVGID_8_);fill:#F09E8A;}
	.st115{clip-path:url(#SVGID_8_);fill:#D99588;}
	.st116{clip-path:url(#SVGID_8_);fill:#E1948E;}
</style>
<rect class="st0" width="192" height="234"/>
<polygon class="st1" points="192,215.5 172.5,234 192,234 "/>
<g>
	<g>
		<defs>
			<rect id="SVGID_1_" x="-42.6" y="-66.2" width="284" height="367.5"/>
		</defs>
		<clipPath id="SVGID_2_">
			<use xlink:href="#SVGID_1_"  style="overflow:visible;"/>
		</clipPath>
		<g class="st2">
			<defs>
				<rect id="SVGID_3_" x="-42.6" y="-66.2" width="284" height="367.5"/>
			</defs>
			<clipPath id="SVGID_4_">
				<use xlink:href="#SVGID_3_"  style="overflow:visible;"/>
			</clipPath>
			<g class="st3">
				<defs>
					<rect id="SVGID_5_" x="-42.6" y="-66.2" width="284" height="367.5"/>
				</defs>
				<clipPath id="SVGID_6_">
					<use xlink:href="#SVGID_5_"  style="overflow:visible;"/>
				</clipPath>
				<path class="st4" d="M125.3,73.5c-1.1,2.5-1.2,5.1-1.2,7.8c0.1,3.5,0.3,6.9,0,10.3c-0.5,7.8-1.3,15.3-0.1,23
					c0.2,1.5,2.5,0.8,2.2-0.6c-1.1-6.9-0.5-13.7,0-20.7c0.2-3.1,0.4-6.2,0.2-9.3c-0.2-3.1-0.6-6.5,0.7-9.3
					C127.9,73.4,125.9,72.2,125.3,73.5"/>
				<path class="st4" d="M112,63.9c0.1,3.7,1,7.3,1.3,11.1c0.3,3.5-0.8,6.8-1,10.3c-0.2,3.1-0.4,6.2,0,9.3c0.4,2.9,2.5,5.3,2.6,8.1
					c0,0.9,0.9,1.4,1.7,1c0.6-0.3,1-0.8,1.3-1.3c0.8-1.2-1.2-2.4-2-1.2c-0.2,0.2-0.3,0.3-0.5,0.5c0.6,0.3,1.2,0.7,1.7,1
					c-0.2-2.9-1.9-5-2.5-7.8c-0.7-3.1-0.2-6.6-0.1-9.7c0.2-3.5,1.2-6.8,1-10.3c-0.2-3.7-1.3-7.3-1.3-11.1
					C114.3,62.4,112,62.4,112,63.9"/>
				<path class="st4" d="M117.7,81.7c0.2,5,4.3,8.1,5.1,12.8c0.7-0.2,1.5-0.4,2.2-0.6c-1.6-4-2.8-8.2-4.2-12.3c-1-2.9-1.7-5.5-4.5-7
					c-0.8-0.5-1.6,0.1-1.7,1c-0.3,2.5,1.6,4.5,2.6,6.6c0.6,1.2,2.3,0.3,2.1-0.9c-0.4-2.2-1.9-3.9-3.4-5.5c-1-1.1-2.7,0.6-1.6,1.6
					c1.2,1.3,2.5,2.6,2.8,4.4l2.1-0.9c-0.8-1.7-2.6-3.5-2.3-5.4c-0.6,0.3-1.2,0.7-1.7,1c2.8,1.5,3.3,5.2,4.3,8
					c1.1,3.3,2.1,6.6,3.4,9.8c0.6,1.4,2.5,0.9,2.2-0.6c-0.8-4.5-4.9-7.6-5.1-12.2C120,80.2,117.6,80.2,117.7,81.7"/>
				<path class="st4" d="M95.1,80.1c1.3-2.4,1.9-5,2.6-7.6c0.7-2.7,2.1-5.1,2.6-7.9c0.3-1.5-2-2.1-2.2-0.6c-0.5,2.5-1.6,4.7-2.4,7.1
					c-0.9,2.6-1.2,5.3-2.6,7.8C92.4,80.3,94.4,81.4,95.1,80.1"/>
				<path class="st4" d="M98.7,60.1c-0.2,1.1-0.5,2-1.1,3c-0.8,1.2,0.9,2.2,1.8,1.4c1.7-1.3,2.9-3.4,2.5-5.6
					c-0.3-1.5-2.6-0.8-2.2,0.6c0.3,1.3-0.9,2.6-1.9,3.4c0.6,0.5,1.2,0.9,1.8,1.4c0.7-1.1,1.2-2.3,1.4-3.5c0.1-0.6-0.1-1.2-0.8-1.4
					C99.6,59.1,98.8,59.4,98.7,60.1"/>
				<path class="st4" d="M75.7,62.1c1.2,4,3.8,7.3,5.4,11.2c1.4,3.4,1.1,6.7,4,9.4c0.6,0.6,1.8,0.4,1.9-0.5c0.6-3.1-1.2-5.3-2.6-7.9
					c-1.5-2.8-1.4-6-3.6-8.4c-1-1.1-2.6,0.5-1.6,1.6c1.7,1.9,2,4.8,2.9,7.1c0.8,2.3,3.3,4.3,2.7,6.9c0.6-0.2,1.3-0.3,1.9-0.5
					c-2.6-2.4-2.4-5.9-3.7-9.1c-1.5-3.6-4-6.7-5.1-10.5C77.5,60,75.2,60.6,75.7,62.1"/>
				<path class="st4" d="M61.2,70.5c1.6,3.3,3.7,6.5,5,9.9c1.2,3.2,1.4,6.5,3.5,9.4c0.9,1.2,2.9,0,2-1.2c-2.1-2.9-2.4-6.3-3.6-9.6
					c-1.3-3.4-3.4-6.5-4.9-9.7C62.6,68,60.6,69.2,61.2,70.5"/>
				<path class="st4" d="M69,82.5c-0.3,2.3-0.1,4.5,0.9,6.6c0.6,1.4,2.6,0.2,2-1.2c-0.7-1.5-0.9-3.2-0.7-4.8
					C71.5,81.6,69.2,81,69,82.5"/>
				<path class="st4" d="M57.7,99.1c2.6-2.9,2.9-7.3,3.3-10.9c0.2-2,0.6-4.1,0.7-6.1c0.1-2.8-0.7-5.9,0.5-8.6c0.6-1.4-1.4-2.5-2-1.2
					c-0.9,2-1,4-0.9,6.1c0.1,2.4,0,4.6-0.2,6.9c-0.4,3.7-0.3,9.2-3,12.1C55,98.5,56.7,100.2,57.7,99.1"/>
				<path class="st4" d="M50.5,94.9c0.8,2.2,2.4,4,4.7,4.7c1.4,0.4,2.1-1.8,0.6-2.2c-1.5-0.4-2.5-1.7-3.1-3.1
					C52.2,92.9,49.9,93.5,50.5,94.9"/>
				<path class="st4" d="M123.7,97.2c4.2,2.8,5.8,7.9,9.2,11.4c1,1.1,2.7-0.6,1.6-1.6c-3.6-3.7-5.2-8.8-9.7-11.8
					C123.6,94.4,122.5,96.4,123.7,97.2"/>
				<path class="st4" d="M126.5,123.2v1.1c0,0.6,0.5,1.2,1.2,1.2c0.6,0,1.2-0.5,1.2-1.2v-1.1c0-0.6-0.5-1.2-1.2-1.2
					C127.1,122,126.5,122.5,126.5,123.2"/>
				<path class="st4" d="M127,122.9c0.1,0.2,0.1,0.4,0.2,0.6c0,0.1,0.1,0.2,0.1,0.3c0,0.1,0,0.1,0,0c0,0.1,0,0.1,0,0.2
					c0,0.6,0.5,1.2,1.2,1.2c0.6,0,1.2-0.5,1.2-1.2c0-0.6-0.2-1.1-0.4-1.7c-0.2-0.6-0.8-1-1.4-0.8C127.3,121.6,126.8,122.3,127,122.9
					"/>
				<path class="st4" d="M127.9,123.3c0.2,0.3,0.3,0.6,0.5,0.9c0.3,0.6,1.1,0.7,1.6,0.4c0.6-0.3,0.7-1,0.4-1.6
					c-0.2-0.3-0.3-0.6-0.5-0.9c-0.3-0.6-1.1-0.7-1.6-0.4C127.8,122,127.6,122.7,127.9,123.3"/>
				<path class="st5" d="M85.7,84.6c0.4,3.9-0.1,7.6-0.4,11.5c-0.3,4,0,8-0.8,11.9c-0.3,1.5,1.9,2.1,2.2,0.6
					c0.8-3.9,0.7-7.8,0.9-11.7c0.2-4.1,0.9-8.1,0.4-12.3C87.8,83.2,85.5,83.2,85.7,84.6"/>
				<path class="st5" d="M70.7,92.1c-2.6,6.5-1.2,13.7-1.9,20.6c-0.1,1.5,2.2,1.5,2.3,0c0.7-6.6-0.7-13.6,1.8-20
					C73.5,91.3,71.3,90.7,70.7,92.1"/>
				<path class="st5" d="M72.3,92.9c2.2,2.7,4.7,5,6.7,7.8c1.9,2.7,1.8,6.1,3.9,8.6c1,1.1,2.6-0.5,1.6-1.6c-1.1-1.3-1.2-3.2-1.7-4.7
					c-0.5-1.4-1.4-2.7-2.3-3.9c-2-2.8-4.5-5.1-6.7-7.7C73,90.1,71.3,91.7,72.3,92.9"/>
				<path class="st5" d="M68.6,156.9c3.2,0.6,5.9,1.9,8.5,3.8c1.2,0.9,2.4-1.1,1.2-2c-2.8-2-5.7-3.3-9.1-4
					C67.7,154.4,67.1,156.6,68.6,156.9"/>
				<path class="st5" d="M66.4,131.4c0,3.4,0.3,6.8,0.6,10.2c0.1,1.5,2.5,1.5,2.3,0c-0.3-3.4-0.6-6.8-0.6-10.2
					C68.7,129.9,66.3,129.9,66.4,131.4"/>
				<path class="st5" d="M62.9,143c4.4,0.6,10.1,1.5,14.2-0.6c1.1-0.5,0.5-2.1-0.6-2.2c-1.5,0-3-0.3-4.5-0.3v2.3
					c0.5,0,1-0.1,1.5-0.2c1.5-0.1,1.5-2.4,0-2.3c-0.5,0-1,0.1-1.5,0.2c-1.5,0.1-1.5,2.3,0,2.3c1.5,0,3,0.3,4.5,0.3
					c-0.2-0.7-0.4-1.4-0.6-2.2c-3.5,1.7-8.7,0.9-12.4,0.3C62,140.5,61.4,142.8,62.9,143"/>
				<path class="st5" d="M110,121.8c0.1,2.9,1.3,5.4,2.3,8c1.2,3.2,0.9,6.6,1.4,9.9c0.6,3.5,1.7,6.9,2.1,10.4c0.4,3,0.2,6,1.2,8.9
					c0.4,1.1,1.8,1.1,2.2,0c0.8-2.2,0.9-4.8,0.3-7.1c-0.3-1.1-2-1.1-2.2,0c-0.8,3,0,5.9,0.1,9c0,1.5,2.4,1.5,2.3,0
					c-0.1-2.8-0.9-5.6-0.2-8.4h-2.2c0.5,1.9,0.4,4-0.3,5.9h2.2c-1-3-0.9-6.1-1.2-9.1c-0.4-3.2-1.3-6.2-2-9.3
					c-0.6-3.1-0.4-6.3-1.1-9.4c-0.7-3-2.5-5.6-2.6-8.8C112.2,120.3,109.9,120.3,110,121.8"/>
				<path class="st6" d="M128.1,124.1c0.1,3.8-0.1,7.5-0.2,11.3c0,1.5,2.3,1.5,2.3,0c0-3.8,0.3-7.5,0.2-11.3
					C130.3,122.6,128,122.6,128.1,124.1"/>
				<path class="st7" d="M73.2,118.8c-0.2,1.3,0.1,2.5,0.6,3.7c0.3,0.6,1.1,0.7,1.6,0.4c0.6-0.3,0.7-1,0.4-1.6
					c-0.4-0.8-0.4-1.6-0.3-2.5c0.1-0.6-0.6-1.2-1.2-1.2C73.6,117.7,73.2,118.2,73.2,118.8"/>
				<path class="st7" d="M75.8,121.5c0,1.8-0.1,3.5,0.2,5.3c0.1,0.7,1.1,1,1.7,0.7c1.2-0.7,1.9-1.8,2.1-3.2
					c-0.7,0.1-1.4,0.2-2.1,0.3c0.1,0.3,0.2,0.5,0.3,0.8c0.6,1.4,2.6,0.2,2-1.2c-0.1-0.3-0.2-0.5-0.3-0.8c-0.4-0.9-2-0.7-2.1,0.3
					c-0.1,0.8-0.3,1.4-1,1.8l1.7,0.7c-0.3-1.5-0.1-3.1-0.1-4.6C78.1,120,75.8,120,75.8,121.5"/>
				<path class="st8" d="M102,114.2c2.6,0.4,5.3,0.5,7.9,0c1.9-0.3,2-2.2,1.9-3.8c-0.1-1.5-2.3-1.5-2.3,0v7.6c0,1.5,2.3,1.5,2.3,0
					v-7.6h-2.3c0.1,1.3,0.3,1.5-0.9,1.6c-2,0.2-4,0.2-6-0.1C101.2,111.8,100.5,114,102,114.2"/>
				<path class="st8" d="M110.2,110.9c1.5,0,1.5-2.3,0-2.3C108.7,108.5,108.7,110.9,110.2,110.9"/>
				<path class="st8" d="M109.8,108.9c-0.1,1-0.2,2-0.2,2.9c0,1.5,2.3,1.5,2.3,0c0-1,0-2,0.2-2.9c0.1-0.6-0.6-1.2-1.2-1.2
					C110.3,107.8,109.9,108.3,109.8,108.9"/>
				<path class="st9" d="M59.6,122.6c6.3,0,12-2.7,17.9-4.2c1.4-0.4,0.8-2.6-0.6-2.2c-5.7,1.5-11.3,4.2-17.3,4.1
					C58.1,120.3,58.1,122.6,59.6,122.6"/>
				<path class="st10" d="M99.5,122.9c2.6,0.2,6.1,1,8.1-1.1c1-1.1-0.6-2.7-1.6-1.6c-1.4,1.5-4.7,0.6-6.4,0.4
					C98,120.5,98.1,122.8,99.5,122.9"/>
				<path class="st11" d="M99.5,152.4c-1.9,2-2.7,4.6-4.3,6.7c-0.9,1.2,0.7,2.8,1.6,1.6c1.7-2.1,2.5-4.7,4.3-6.7
					C102.2,152.9,100.5,151.3,99.5,152.4"/>
				<path class="st11" d="M79,157.7c7.7,0.2,15.1-1.9,22.6-3.3c1.5-0.3,0.8-2.5-0.6-2.2c-7.3,1.4-14.5,3.4-22,3.2
					C77.5,155.4,77.5,157.7,79,157.7"/>
				<path class="st12" d="M79.2,160.4c1.7-2.3,1-5.4,0.7-8c-0.4-3.2-1-7.6,0.3-10.6c0.6-1.4-1.4-2.5-2-1.2c-1.2,2.8-0.9,5.9-0.7,8.8
					c0.1,1.6,0.2,3.1,0.4,4.6c0.2,1.7,0.5,3.7-0.6,5.1C76.3,160.4,78.3,161.6,79.2,160.4"/>
				<path class="st12" d="M77.8,142c1.2,1.8,3.2,2.3,4.9,3.5c1.2,0.8,2.4-1.2,1.2-2c-1.3-0.9-3.1-1.3-4.1-2.7
					C79,139.6,77,140.8,77.8,142"/>
				<path class="st12" d="M84.5,146.4c4.8-0.4,11.3-1.2,12.9-6.6c0.4-1.4-1.8-2.1-2.2-0.6c-1.2,4.2-7,4.6-10.6,4.9
					C83,144.2,83,146.6,84.5,146.4"/>
				<path class="st12" d="M80.8,124.9c4.7-0.1,9.2,1.3,13.9,1.2c1.5,0,1.5-2.3,0-2.3c-4.7,0.1-9.2-1.3-13.9-1.2
					C79.3,122.6,79.3,125,80.8,124.9"/>
				<path class="st12" d="M93.5,122.9c1.3,0.1,2.7,0.2,4,0.3c0.6,0.1,1.2-0.6,1.2-1.2c0-0.7-0.5-1.1-1.2-1.2c-1.3-0.2-2.7-0.2-4-0.3
					c-0.6-0.1-1.2,0.6-1.2,1.2C92.3,122.5,92.9,122.9,93.5,122.9"/>
				<path class="st12" d="M92,122.4v2.9c0,1.5,2.3,1.5,2.3,0v-2.9C94.3,120.9,92,120.9,92,122.4"/>
				<path class="st12" d="M90.8,113.4c0,2.9-0.1,5.8,0.7,8.7c0.4,1.4,2.6,0.8,2.2-0.6c-0.7-2.6-0.6-5.4-0.6-8
					C93.1,111.9,90.8,111.9,90.8,113.4"/>
				<path class="st12" d="M92.6,114.6c1.5,0,1.5-2.3,0-2.3C91.1,112.3,91.1,114.6,92.6,114.6"/>
				<path class="st12" d="M93.8,115.3c2.3-0.3,4.5-1.1,6.8-1c1.5,0,1.5-2.3,0-2.3c-2.5-0.1-4.9,0.7-7.4,1.1
					C91.7,113.3,92.3,115.5,93.8,115.3"/>
			</g>
			<g class="st3">
				<defs>
					<rect id="SVGID_7_" x="-42.6" y="-66.2" width="284" height="367.5"/>
				</defs>
				<clipPath id="SVGID_8_">
					<use xlink:href="#SVGID_7_"  style="overflow:visible;"/>
				</clipPath>
				<path class="st13" d="M89.1,177c0,0-10.8-5.7-16.4-13.2l11.8-1.9L89.1,177z"/>
				<polygon class="st14" points="96.9,160.4 84.5,161.9 89.1,177 				"/>
				<path class="st15" d="M110.5,172l-13.5-11.6L89.1,177C89.1,177,102.4,179.9,110.5,172"/>
				<polygon class="st15" points="120,164.2 110.5,172 96.9,160.4 				"/>
				<polygon class="st16" points="132.7,153.4 120,164.2 117.1,145.6 				"/>
				<polygon class="st17" points="96.9,160.4 117.1,145.6 120,164.2 				"/>
				<path class="st18" d="M132.7,133.5c0,0,3.6,14.3,0,19.8l-15.6-7.8L132.7,133.5z"/>
				<polygon class="st19" points="102,130.1 104.7,154.7 117.1,145.6 				"/>
				<polygon class="st20" points="128.5,136.7 126.8,123.4 130.1,123.4 				"/>
				<polygon class="st21" points="132.7,133.5 130.1,123.4 128.5,136.7 				"/>
				<polygon class="st22" points="124.9,115.7 126.8,123.4 128.5,136.7 117.1,145.6 				"/>
				<polygon class="st23" points="110.9,118.9 124.9,115.7 117.1,145.6 				"/>
				<polygon class="st24" points="102,130.1 110.9,118.9 117.1,145.6 				"/>
				<polygon class="st25" points="115.8,105.8 124.9,115.7 110.9,118.9 				"/>
				<polygon class="st26" points="95.8,136 104.7,154.7 102,130.1 				"/>
				<polygon class="st27" points="94.1,125 95.8,136 102,130.1 				"/>
				<polygon class="st28" points="66.3,154.4 72.7,163.8 84.5,161.9 				"/>
				<path class="st29" d="M79.4,140.4l-13.1,14c0,0-4.2-11.8-4.5-12.7L79.4,140.4z"/>
				<path class="st30" d="M79.9,129l-11.7,12.3l11.2-0.9C79.4,140.4,79.7,132.8,79.9,129"/>
				<path class="st31" d="M60,131c0,0,1.2,9,1.8,10.7l6.4-0.5L60,131z"/>
				<polygon class="st32" points="79.4,140.4 78.5,159.4 66.3,154.4 				"/>
				<polygon class="st33" points="84.5,161.9 78.6,156.4 78.5,159.4 				"/>
				<polygon class="st34" points="101,152.9 104.7,154.7 96.9,160.4 				"/>
				<polygon class="st35" points="91.3,161.1 99.8,154.9 96.9,160.4 				"/>
				<polygon class="st36" points="80.4,158 82.6,156.1 78.7,156.4 				"/>
				<polygon class="st37" points="101,152.9 103,151.2 104.7,154.7 				"/>
				<polygon class="st38" points="91.3,161.1 84.9,155.8 82.6,156.1 80.4,158 84.5,161.9 				"/>
				<path class="st35" d="M94.1,154l-2.8,7.1l-6.3-5.3C84.9,155.8,93.5,154,94.1,154"/>
				<polygon class="st35" points="98.1,152.9 94.1,154 91.3,161.1 99.8,154.9 101,152.9 				"/>
				<path class="st39" d="M78.7,156.4c0,0,5.1-4.9,5.9-5c0,0,1.3-0.5,3,0.6c0,0,1.5,0.6,2-0.2c0.5-0.8,1.5-2.1,3.5-1.5l-2.7,4.3
					l-5.4,1.1L78.7,156.4z"/>
				<polygon class="st40" points="101.8,152.2 93,150.4 90.3,154.7 94.1,154 98.1,152.9 101,152.9 				"/>
				<path class="st41" d="M84,144.6v7.1l-5.4,4.7l0.7-16C79.4,140.4,80.8,144.6,84,144.6"/>
				<path class="st42" d="M90.1,143.5l-6.1,1.1v7.1c0,0,1.1-1,4,0.5c0,0,1.4,0.4,1.9-1c0,0,1-1.6,3-0.8L90.1,143.5z"/>
				<path class="st43" d="M96.9,138.5c0,0,0.1,4.6-6.8,5l2.9,6.9l8.8,1.8l1.2-1L96.9,138.5z"/>
				<path class="st44" d="M86.6,142c0,0,2.2-3.1,6-1.6c0,0,1.9,0.7,0.9,0.9c-0.9,0.2-4.1-0.6-5.7,1.1C87.8,142.4,86,143.4,86.6,142"
					/>
				<polygon class="st45" points="60,131 67.8,129.8 68.2,141.2 				"/>
				<polygon class="st46" points="79.9,129 67.8,129.8 68.2,141.2 				"/>
				<path class="st47" d="M80.6,123.8c0,0-6.2,5-12.8,6l12.1-0.8L80.6,123.8z"/>
				<path class="st48" d="M93.7,121.7l0.4,3.3l7.9,5l8.8-11.2c0,0-6,4.9-13.1,2.4L93.7,121.7z"/>
				<polygon class="st49" points="57.2,99.9 58.3,118.9 69.6,114.8 				"/>
				<path class="st50" d="M72.6,90.6l-3,24.1L57.2,99.9C57.2,99.9,65.3,93.2,72.6,90.6"/>
				<path class="st51" d="M87.6,83.3c0,0-12.6-0.1-15,7.4l13.2,19.4L87.6,83.3z"/>
				<polygon class="st52" points="69.6,114.8 85.9,110.1 72.6,90.6 				"/>
				<path class="st53" d="M106.5,80.5c0,0-3.4,1.4-5.4,1.1s-3.4-0.8-5.3-1.1s-7.3,1.2-8.2,2.8l-1.7,26.8L106.5,80.5z"/>
				<polygon class="st54" points="110.9,108.7 85.9,110.1 106.5,80.5 				"/>
				<path class="st55" d="M115.8,105.8c-0.1-0.6-2.6-17.3-2.6-17.3l-6.8-8L115.8,105.8z"/>
				<polygon class="st56" points="110.9,108.7 115.8,105.8 106.5,80.5 				"/>
				<polygon class="st57" points="110.9,118.9 110.9,108.7 115.8,105.8 				"/>
				<polygon class="st58" points="58.9,121.6 58.3,118.9 61.8,117.6 66,120.3 				"/>
				<polygon class="st59" points="69.6,114.8 66,120.3 61.8,117.6 				"/>
				<polygon class="st60" points="74.6,118.1 69.6,114.8 66,120.3 				"/>
				<polygon class="st61" points="78.7,116.3 75.1,113.2 69.6,114.8 74.6,118.1 				"/>
				<polygon class="st62" points="60,131 58.9,121.6 64.1,126.3 				"/>
				<polygon class="st63" points="67.8,129.8 64.1,126.3 60,131 				"/>
				<polygon class="st64" points="80.6,123.8 78.7,116.3 74.6,118.1 75.1,121.6 				"/>
				<path class="st65" d="M76,126.8c0.5-0.3,1.3-3-0.9-5.2l5.5,2.2L76,126.8z"/>
				<polygon class="st66" points="110.9,112.8 103.6,109.1 110.9,108.7 				"/>
				<polygon class="st67" points="102,112.8 103.6,109.1 110.9,112.8 				"/>
				<polygon class="st68" points="95.1,109.6 102,112.8 103.6,109.1 				"/>
				<polygon class="st69" points="93,113.9 95.1,109.6 102,112.8 				"/>
				<polygon class="st70" points="89.1,109.9 93,113.9 95.1,109.6 				"/>
				<polygon class="st71" points="85.9,114.2 89.1,109.9 93,113.9 				"/>
				<polygon class="st72" points="83,110.9 85.9,114.2 89.1,109.9 85.9,110.1 				"/>
				<polygon class="st73" points="80.6,123.8 85.9,114.2 83,110.9 75.1,113.2 78.7,116.3 				"/>
				<polygon class="st74" points="93.7,121.7 85.9,114.2 80.6,123.8 94.1,125 				"/>
				<polygon class="st75" points="95.8,136 80.6,123.8 94.1,125 				"/>
				<polygon class="st76" points="93.7,121.7 93.7,121.7 93,113.9 85.9,114.2 				"/>
				<path class="st77" d="M110.9,118.9c0,0-2.3-4.1-8.8-6h8.8V118.9z"/>
				<path class="st78" d="M133.7,139.2c0,0,2.6,3.1,5.4,2.6l-0.9-13.3c0,0-1.7,4.4-5.6,5L133.7,139.2z"/>
				<path class="st79" d="M142.4,135.2c0,0,1.2,6.4-3.3,6.6l-0.9-13.3L142.4,135.2z"/>
				<path class="st80" d="M132.7,133.5l1-3c0,0,3.1,0.1,3.9-3.5c0.2-0.8,0.1-1.6-0.3-2.4c-0.5-1-1.7-2.2-4.2-2.1l-0.1-2.9
					c0,0,7.6,1.1,5.2,8.9C138.2,128.5,136.5,133,132.7,133.5"/>
				<path class="st81" d="M130.1,123.4l-0.3-6.3l5.2-8.4c0,0,5.8-1.2,8.2,8.8l-10.2,2.1l0.1,2.9L130.1,123.4z"/>
				<path class="st82" d="M142.4,135.2c0,0,3.8-6.5,0.8-17.7l-10.2,2.1c0,0,7.7,1.3,5.2,8.9L142.4,135.2z"/>
				<polygon class="st83" points="132.7,133.5 133.7,130.5 133.1,122.5 130.1,123.4 				"/>
				<path class="st84" d="M139.1,141.8l3,3.8c0,0,6.3-10.2,1.7-14.4l-1.4,3.9C142.4,135.2,143.3,142,139.1,141.8"/>
				<polygon class="st85" points="124,94.6 124.9,115.7 126.8,123.4 130.1,123.4 129.8,117.1 135,108.7 				"/>
				<path class="st86" d="M127.3,72.9L124,94.6l11,14.1c0,0,2-0.6,5,2.1C140,110.8,137.7,76.8,127.3,72.9"/>
				<polygon class="st87" points="113.3,88.5 115.4,76.6 124,94.6 124.9,115.7 115.8,105.8 				"/>
				<path class="st88" d="M112.9,61.2l2.5,15.4l8.6,18l3.3-21.7C127.3,72.9,119.9,62.4,112.9,61.2"/>
				<path class="st89" d="M100.7,57.6l12.2,3.5l2.5,15.4l-2.1,11.9l-6.8-8c0,0-3.5,1.5-5.4,1.1c-1.9-0.4-5.6-1.4-7-1.1L100.7,57.6z"
					/>
				<path class="st90" d="M87.6,83.3L76.7,60.3c0,0,13.5-5,24-2.7l-6.6,22.9C94.1,80.5,88.4,81.7,87.6,83.3"/>
				<path class="st91" d="M72.6,90.6L62.2,68.8c0,0,11.5-7.8,14.5-8.4l10.9,22.9C87.6,83.3,75.1,83.2,72.6,90.6"/>
				<path class="st92" d="M57.2,99.9l5-31.1l10.4,21.9C72.6,90.6,63.4,94.3,57.2,99.9"/>
				<path class="st93" d="M50,92.6l7.2,7.3l5-31.1C62.2,68.8,53.6,75.7,50,92.6"/>
				<path class="st94" d="M60,131c0,0-7.3-15.7-8.1-21.4l5.3-9.7l1.1,19l0.6,2.7L60,131z"/>
				<path class="st95" d="M50,92.6c0,0,0.8,11.8,1.9,16.9l5.3-9.7L50,92.6z"/>
				<path class="st96" d="M67.8,129.8l-2.9-2.7c0,0,0.8-2.3,3-3.6c0,0-0.3,4,3,3.9c0,0,4.3-0.2,3.1-4.4l2.4,0.7c0,0,0.6,1.9-0.4,3
					C76,126.8,71.1,129.5,67.8,129.8"/>
				<path class="st97" d="M67.9,123.5c0,0-0.3,4.1,3,3.9c0,0,4.5-0.2,3.1-4.4C74,123.1,70.1,121.9,67.9,123.5"/>
				<path class="st98" d="M73,123.8c0,0,0.2,1-1,1.4c-1.2,0.4-2.9,0.4-2.6-1.2C69.4,124,70.5,122.7,73,123.8"/>
				<path class="st99" d="M58.9,121.6l7.1-1.3l8.6-2.2l0.5,3.5l1.1,1.6c0,0-8.4-3.7-12.2,3.1L58.9,121.6z"/>
				<path class="st100" d="M64.9,127.1c0,0,1.8-6.9,11.5-3.3l-0.2-0.6c0,0-8.3-4.7-12.2,3.1L64.9,127.1z"/>
				<path class="st101" d="M98.7,113.2l-2.7,4.6c0,0,5.3-5.2,13.9-0.2c0,0-2.9-3.4-7.9-4.8L98.7,113.2z"/>
				<path class="st102" d="M109.9,117.6c-0.2-0.2-7.9-5.7-13.9,0.2l0.8,0.8c0,0,4.4-5.5,12-0.4L109.9,117.6z"/>
				<polygon class="st103" points="96.8,118.6 99.4,121.7 97.8,121.2 93.7,121.7 96,117.8 				"/>
				<path class="st104" d="M100.1,116.4c0,0-1.1,4.1,3.1,4.2c0,0,3.5-1.1,2.7-3.8C105.9,116.8,103.6,115.3,100.1,116.4"/>
				<g class="st105">
					<g>
						<defs>
							<rect id="SVGID_9_" x="102" y="116" width="2.3" height="2.2"/>
						</defs>
						<clipPath id="SVGID_10_">
							<use xlink:href="#SVGID_9_"  style="overflow:visible;"/>
						</clipPath>
						<g class="st106">
							<defs>
								<rect id="SVGID_11_" x="102" y="116" width="2.3" height="2.2"/>
							</defs>
							<clipPath id="SVGID_12_">
								<use xlink:href="#SVGID_11_"  style="overflow:visible;"/>
							</clipPath>
							<path class="st107" d="M104.1,117.8c0,0-1.2,0.9-1.8,0c0,0-0.6-0.9-0.1-1.8l1.9,0.1C104.1,116.1,104.6,117.4,104.1,117.8"/>
						</g>
					</g>
				</g>
				<path class="st108" d="M96.8,118.6l2.6,3.1c0,0,8.7,1.4,9.5-3.5l-3-1.4c0,0,1.1,2.1-2.7,3.8c0,0-3.9,0.2-3.1-4.2
					C100.1,116.4,98.4,116.9,96.8,118.6"/>
				<path class="st109" d="M110.9,118.9l-0.9-1.2l-1.1,0.6c0,0-0.1,1.9-2.4,2.9C106.5,121.1,108.2,120.8,110.9,118.9"/>
				<polygon class="st110" points="98.7,113.2 93,113.9 93.7,121.7 				"/>
				<path class="st111" d="M133.1,122.5l0.6,8c0,0,3.7,0.1,4-4.2C137.7,126.3,137.8,122.4,133.1,122.5"/>
				<path class="st112" d="M80.6,123.8l-0.7,5.2l-0.5,11.4c0,0,0.9,3.8,4.6,4.2l2.6-2.6L80.6,123.8z"/>
				<polygon class="st113" points="90.6,131.8 86.6,142 80.6,123.8 				"/>
				<path class="st114" d="M86.6,142c0,0,2.4-3.7,7-1.2l2.2-4.8l-5.2-4.2L86.6,142z"/>
				<path class="st115" d="M84,144.6l2.6-2.6c0,0-0.5,1.4,1.2,0.4c0,0,0.8-1.4,4.4-1.1c0,0,2.3,0.1,1.3-0.4l1.5,1c0,0-1.6,1.5-5,1.6
					L84,144.6z"/>
				<path class="st116" d="M93.5,140.9l1.5,1c0,0,2-1.6,1.9-3.4l-1.2-2.4L93.5,140.9z"/>
			</g>
		</g>
	</g>
</g>
</svg>
