<?xml version="1.0" encoding="utf-8"?>
<!-- Generator: Adobe Illustrator 19.2.1, SVG Export Plug-In . SVG Version: 6.00 Build 0)  -->
<svg version="1.1" id="Layer_1" xmlns="http://www.w3.org/2000/svg" xmlns:xlink="http://www.w3.org/1999/xlink" x="0px" y="0px"
	 width="192px" height="234px" viewBox="0 0 192 234" style="enable-background:new 0 0 192 234;" xml:space="preserve">
<style type="text/css">
	.st0{fill:#F2F2F2;}
	.st1{fill:#D54339;}
	.st2{clip-path:url(#SVGID_2_);}
	.st3{clip-path:url(#SVGID_4_);}
	.st4{clip-path:url(#SVGID_6_);fill:#684832;}
	.st5{clip-path:url(#SVGID_6_);fill:#131512;}
	.st6{clip-path:url(#SVGID_6_);fill:#6D4738;}
	.st7{clip-path:url(#SVGID_8_);fill:#131512;}
	.st8{clip-path:url(#SVGID_8_);fill:#59331C;}
	.st9{clip-path:url(#SVGID_8_);fill:#58381C;}
	.st10{clip-path:url(#SVGID_8_);fill:#654B3B;}
	.st11{clip-path:url(#SVGID_8_);fill:#9D7253;}
	.st12{clip-path:url(#SVGID_8_);fill:#896748;}
	.st13{clip-path:url(#SVGID_8_);fill:#2E1810;}
	.st14{clip-path:url(#SVGID_8_);fill:#CFA992;}
	.st15{clip-path:url(#SVGID_8_);fill:#5B321F;}
	.st16{clip-path:url(#SVGID_8_);fill:#5D3C22;}
	.st17{clip-path:url(#SVGID_8_);fill:#866052;}
	.st18{clip-path:url(#SVGID_8_);fill:#69422C;}
	.st19{clip-path:url(#SVGID_8_);fill:#6F4934;}
	.st20{clip-path:url(#SVGID_8_);fill:#83543D;}
	.st21{clip-path:url(#SVGID_8_);fill:#79533A;}
	.st22{clip-path:url(#SVGID_8_);fill:#654E3C;}
	.st23{clip-path:url(#SVGID_8_);fill:#684632;}
	.st24{clip-path:url(#SVGID_8_);fill:#604832;}
	.st25{clip-path:url(#SVGID_8_);fill:#674A35;}
	.st26{clip-path:url(#SVGID_8_);fill:#6F4629;}
	.st27{clip-path:url(#SVGID_8_);fill:#61422D;}
	.st28{clip-path:url(#SVGID_8_);fill:#472716;}
	.st29{clip-path:url(#SVGID_8_);fill:#5B3E2C;}
	.st30{clip-path:url(#SVGID_8_);fill:#8F6949;}
	.st31{clip-path:url(#SVGID_8_);fill:#AE835C;}
	.st32{clip-path:url(#SVGID_8_);fill:#AC805D;}
	.st33{clip-path:url(#SVGID_8_);fill:#997047;}
	.st34{clip-path:url(#SVGID_8_);fill:#A37F67;}
	.st35{clip-path:url(#SVGID_8_);fill:#573E27;}
	.st36{clip-path:url(#SVGID_8_);fill:#5E3F29;}
	.st37{clip-path:url(#SVGID_8_);fill:#684832;}
	.st38{clip-path:url(#SVGID_8_);fill:#825D3E;}
	.st39{clip-path:url(#SVGID_8_);fill:#825B40;}
	.st40{clip-path:url(#SVGID_8_);fill:#8C6C5A;}
	.st41{clip-path:url(#SVGID_8_);fill:#452616;}
	.st42{clip-path:url(#SVGID_8_);fill:#906B4F;}
	.st43{clip-path:url(#SVGID_8_);fill:#836247;}
	.st44{clip-path:url(#SVGID_8_);fill:#472E20;}
	.st45{clip-path:url(#SVGID_8_);fill:#AA8168;}
	.st46{clip-path:url(#SVGID_8_);fill:#916441;}
	.st47{clip-path:url(#SVGID_8_);fill:#92684B;}
	.st48{clip-path:url(#SVGID_8_);fill:#89664F;}
	.st49{clip-path:url(#SVGID_8_);fill:#8F6950;}
	.st50{clip-path:url(#SVGID_8_);fill:#926D54;}
	.st51{clip-path:url(#SVGID_8_);fill:#0F0D0C;}
	.st52{clip-path:url(#SVGID_8_);fill:#131311;}
	.st53{clip-path:url(#SVGID_8_);fill:#121210;}
	.st54{clip-path:url(#SVGID_8_);fill:#0F0F10;}
	.st55{clip-path:url(#SVGID_8_);fill:#171614;}
	.st56{clip-path:url(#SVGID_8_);fill:#151615;}
	.st57{clip-path:url(#SVGID_8_);fill:#191B1B;}
	.st58{clip-path:url(#SVGID_8_);fill:#121010;}
	.st59{clip-path:url(#SVGID_8_);fill:#161510;}
	.st60{clip-path:url(#SVGID_8_);fill:#151617;}
	.st61{clip-path:url(#SVGID_8_);fill:#1B1E1D;}
	.st62{clip-path:url(#SVGID_8_);fill:#6D4738;}
	.st63{clip-path:url(#SVGID_8_);fill:#654D40;}
	.st64{clip-path:url(#SVGID_8_);fill:#784D39;}
	.st65{clip-path:url(#SVGID_8_);fill:#1F1E1D;}
	.st66{clip-path:url(#SVGID_8_);fill:#2B1E15;}
	.st67{clip-path:url(#SVGID_8_);fill:#7E5534;}
	.st68{clip-path:url(#SVGID_8_);fill:#5C4330;}
	.st69{clip-path:url(#SVGID_8_);fill:#845D4A;}
	.st70{opacity:0.6;clip-path:url(#SVGID_8_);}
	.st71{clip-path:url(#SVGID_10_);}
	.st72{clip-path:url(#SVGID_12_);fill:#CFA992;}
	.st73{clip-path:url(#SVGID_14_);}
	.st74{clip-path:url(#SVGID_16_);fill:#CFA992;}
</style>
<rect class="st0" width="192" height="234"/>
<polygon class="st1" points="192,215.5 172.5,234 192,234 "/>
<g>
	<g>
		<defs>
			<rect id="SVGID_1_" x="-43" y="2" width="267" height="345.5"/>
		</defs>
		<clipPath id="SVGID_2_">
			<use xlink:href="#SVGID_1_"  style="overflow:visible;"/>
		</clipPath>
		<g class="st2">
			<defs>
				<rect id="SVGID_3_" x="-43" y="2" width="267" height="345.5"/>
			</defs>
			<clipPath id="SVGID_4_">
				<use xlink:href="#SVGID_3_"  style="overflow:visible;"/>
			</clipPath>
			<g class="st3">
				<defs>
					<rect id="SVGID_5_" x="-43" y="2" width="267" height="345.5"/>
				</defs>
				<clipPath id="SVGID_6_">
					<use xlink:href="#SVGID_5_"  style="overflow:visible;"/>
				</clipPath>
				<path class="st4" d="M76.6,96.7c0,7-0.5,13.9-1,20.8h2.2c0.2-7.9,5.8-14.8,5-22.8c-0.1-1-1.1-1.4-1.9-0.8
					c-7,5.6-7.7,16.3-7.8,24.6c0.7-0.1,1.4-0.2,2.1-0.3c-2.4-7.3-2.9-15-6.1-22.1c-0.4-0.9-1.8-0.6-2,0.3
					c-1.1,4.8-0.3,10.1,0.6,14.8c0.8,4.1,2.1,9.7,5.8,12.2c1.2,0.8,2.3-1.1,1.1-1.9c-3.3-2.1-4.2-7.9-4.9-11.4
					c-0.8-4.1-1.5-9-0.5-13.2c-0.7,0.1-1.3,0.2-2,0.3c3.1,6.9,3.5,14.4,5.8,21.6c0.4,1.2,2.1,1,2.1-0.3c0-7.7,0.6-17.8,7.1-23
					c-0.6-0.3-1.2-0.5-1.9-0.8c0.9,7.9-4.8,14.9-5,22.8c0,1.4,2.1,1.4,2.2,0c0.5-6.9,1-13.9,1-20.8C78.8,95.3,76.6,95.3,76.6,96.7"
					/>
				<path class="st4" d="M74.3,123.8c3.4-8.9,4.5-18.5,6.4-27.8c0.2-1.2-1.4-2-2-0.8c-3.5,6.9-6.5,14-6.6,21.9
					c0.7-0.1,1.4-0.2,2.1-0.3c-0.4-1.1-1.2-2.3-1.5-3.5c-0.2-1.1-1.8-1-2.1,0c-0.6,1.7-1,3.4-1,5.2c0,1.4,2.1,1.4,2.2,0
					c0.3-8.4-4.3-15.9-4-24.3h-2.2c0.1,3.9,1,7.6,2.5,11.2c0.5,1.3,2.6,0.7,2.1-0.6c-1.4-3.4-2.4-6.9-2.4-10.6c0-1.4-2.1-1.4-2.2,0
					c-0.3,8.4,4.3,15.9,4,24.3h2.2c0.1-1.6,0.4-3.1,1-4.7h-2.1c0.3,1.2,1.1,2.3,1.5,3.5c0.4,1.1,2.1,1,2.1-0.3
					c0.1-7.5,3-14.2,6.3-20.8c-0.7-0.3-1.3-0.6-2-0.8c-1.9,9.3-3,18.8-6.4,27.8C71.7,124.5,73.8,125.1,74.3,123.8"/>
				<path class="st4" d="M70.5,119.7c-0.7,0.8-0.7,1.8-1.2,2.7c-0.3,0.5-0.2,1.2,0.4,1.5c0.5,0.3,1.2,0.1,1.5-0.4
					c0.2-0.5,0.4-1,0.5-1.5c0.1-0.2,0.1-0.4,0.2-0.6c0,0,0.1-0.2,0.1-0.2C73,120.2,71.4,118.7,70.5,119.7"/>
				<path class="st4" d="M69.7,118.8c0.4,1.4,0.5,2.7,0.5,4.2c0,1.4,2.2,1.4,2.2,0c0-1.6-0.1-3.2-0.5-4.8
					C71.4,116.9,69.3,117.4,69.7,118.8"/>
				<path class="st4" d="M65.2,125c0,0.3,0.1,0.9-0.2,1.2c-0.5,0.5-0.7,1-0.8,1.8c0.7-0.2,1.4-0.4,2-0.6c-0.4-0.8-0.3-1.6-0.3-2.4
					c0-1.4-2.2-1.4-2.2,0c0,1.2,0.1,2.4,0.6,3.5c0.2,0.4,0.8,0.6,1.2,0.5c0.5-0.1,0.7-0.6,0.8-1.1c0,0.1,0.2-0.2,0.2-0.2
					c0.2-0.3,0.4-0.5,0.6-0.9c0.2-0.6,0.3-1.3,0.3-1.9C67.4,123.5,65.2,123.5,65.2,125"/>
				<path class="st4" d="M63.7,123c-0.5,3.5-0.5,6.9-0.5,10.4c0,1,1.5,1.5,2,0.6c0.5-1,1-2,1.5-3c-0.7-0.3-1.3-0.6-2-0.8
					c-0.5,1.4-0.1,2.8,0,4.3c0.1,1.1,1.4,1.5,2,0.6c3.3-5.1,5.3-10.9,7.9-16.4c-0.7-0.2-1.4-0.4-2-0.6c0,1.6,0,3.1-0.5,4.7
					c-0.2,0.8,0.5,1.6,1.3,1.3c0.6-0.2,1-0.4,1.5-0.8c-0.6-0.4-1.2-0.7-1.8-1.1c-0.6,3.2-1.6,6.3-2.5,9.4c-0.4,1.4,1.7,1.9,2.1,0.6
					c0.9-3.1,1.9-6.2,2.5-9.4c0.2-1.1-1-1.8-1.8-1.1c-0.2,0.1-0.3,0.1-0.5,0.2c0.4,0.4,0.9,0.9,1.3,1.3c0.5-1.7,0.5-3.5,0.5-5.2
					c0-1-1.5-1.6-2-0.6c-2.7,5.4-4.6,11.3-7.9,16.4c0.7,0.2,1.4,0.4,2,0.6c-0.1-1.2-0.4-2.5,0-3.7c0.4-1.2-1.4-1.9-2-0.8
					c-0.5,1-1,2-1.5,3c0.7,0.2,1.4,0.4,2,0.6c0-3.5,0-7,0.5-10.4C66.1,121.6,63.9,121.6,63.7,123"/>
				<path class="st4" d="M66.3,150.8h3.5c1.4,0,1.4-2.2,0-2.2h-4.5c0.1,0.7,0.2,1.4,0.3,2.1c2.5-0.5,5.1-0.5,7.6-0.5
					c1.4,0,1.4-2.2,0-2.2c-2.8,0-5.5,0-8.2,0.5c-1.2,0.2-0.9,2.1,0.3,2.1h4.5c1.4,0,1.4-2.2,0-2.2h-3.5
					C64.9,148.6,64.9,150.8,66.3,150.8"/>
				<path class="st4" d="M69.7,148.3c0.5,5.7,0.7,11.8,4.8,16.1c0.5,0.6,1.7,0.3,1.8-0.5c0.8-4.4-1.8-7.9-1.9-12.2
					c-0.1-1.4-2.1-1.4-2.2,0c-0.4,7.1,1.2,13.5,4.1,19.9c0.3,0.6,1.3,0.7,1.7,0.2c1.6-1.6,3.1-3.2,3.8-5.4c0.4-1.3-1.7-1.9-2.1-0.6
					c-0.6,1.8-1.9,3.1-3.2,4.5c0.6,0.1,1.1,0.1,1.7,0.2c-2.8-6.1-4.2-12.1-3.8-18.8h-2.2c0.2,4,2.7,7.6,2,11.6
					c0.6-0.2,1.2-0.3,1.8-0.5c-3.7-3.9-3.7-9.6-4.1-14.6C71.7,146.9,69.5,146.9,69.7,148.3"/>
				<path class="st4" d="M79.7,153.6c-1.9,2.9-3.9,5.8-5.5,8.9c-0.7,1.3,1,2.2,1.9,1.1c1.4-1.9,3-3.6,4.5-5.5
					c-0.6-0.4-1.3-0.7-1.9-1.1c-0.9,1.3-1.6,2.7-2.5,4c0.6,0.4,1.3,0.7,1.9,1.1c1-2,2-4,3-5.9c0.6-1.3-1.3-2.4-1.9-1.1
					c-1,2-2,4-3,5.9c-0.6,1.3,1.1,2.3,1.9,1.1c0.9-1.3,1.6-2.7,2.5-4c0.8-1.2-1.1-2.2-1.9-1.1c-1.4,1.9-3,3.6-4.5,5.5
					c0.6,0.4,1.3,0.7,1.9,1.1c1.6-3.1,3.5-6,5.5-8.9C82.4,153.6,80.5,152.5,79.7,153.6"/>
				<path class="st4" d="M87.6,158c1.2,6.1,7.7,10.7,7.4,17.1c0.7-0.2,1.4-0.4,2-0.6c-1.6-2.4-2.7-5.2-3.8-7.8
					c-1.2-3-2.5-6.2-2.5-9.5c0-1.4-2.2-1.4-2.2,0c0.1,3.3,1.3,6.5,2.4,9.5c1.1,3,2.4,6.2,4.2,8.9c0.6,0.9,2,0.5,2-0.6
					c0.3-6.8-6.2-11.3-7.5-17.6C89.4,156,87.3,156.6,87.6,158"/>
				<path class="st4" d="M101.1,158.1c-2.9,4-4.5,8.5-5.1,13.4c-0.2,1.3,1.7,1.3,2.1,0.3c2-5,4.9-9.6,5-15.2c0-1.4-2.1-1.4-2.2,0
					c-0.1,5.3-3,9.8-4.9,14.6c0.7,0.1,1.4,0.2,2.1,0.3c0.6-4.5,2.1-8.7,4.8-12.3C103.8,158.1,101.9,157,101.1,158.1"/>
				<path class="st4" d="M97.5,155.6h-6.4c-1.2,0-1.5,1.8-0.3,2.1c3.4,1,6.9,1.9,10.4,2.5c1.4,0.2,2-1.9,0.6-2.1
					c-3.5-0.5-7-1.5-10.4-2.5c-0.1,0.7-0.2,1.4-0.3,2.1h6.4C98.9,157.8,98.9,155.6,97.5,155.6"/>
				<path class="st4" d="M100.5,160.4c-1,4.1-2,8.3-3,12.4c-0.3,1.4,1.8,1.9,2.1,0.6c1-4.1,2-8.3,3-12.4
					C102.9,159.6,100.8,159,100.5,160.4"/>
				<path class="st4" d="M116.9,153.3h0.7c1.4,0,1.4-2.2,0-2.2h-4.2c-1.4,0-1.4,2.2,0,2.2h3c1.4,0,1.4-2.2,0-2.2h-3
					c-1.4,0-1.4,2.2,0,2.2h4.2c1.4,0,1.4-2.2,0-2.2h-0.7C115.5,151.1,115.5,153.3,116.9,153.3"/>
				<path class="st4" d="M114,149.9c-0.6-2.7-1.6-5.1-3.8-6.9c-0.6-0.5-1.5-0.3-1.8,0.5c-1.1,3.1-0.5,6.4,0,9.5
					c0.2,1.2,1.8,0.9,2.1,0c1.5-3.8,1-7.7,0-11.5c-0.7,0.2-1.4,0.4-2.1,0.6c1.3,3.7,4.4,7.3,7.2,9.9c1.1,1,2.7,2.3,4.3,2.1
					c2-0.2,2.4-2.3,2.5-4c0.1-0.9-1-1.3-1.6-0.9c-4.4,2.2-8.8,5-9,10.4c0,1,1.2,1.4,1.9,0.8c2.1-2.2,4-4.6,5.6-7.2
					c0.7-1.2-1.1-2.3-1.9-1.1c-1.5,2.4-3.3,4.7-5.3,6.7c0.6,0.3,1.2,0.5,1.9,0.8c0.2-4.5,4.3-6.7,7.9-8.5c-0.5-0.3-1.1-0.6-1.6-0.9
					c-0.1,1-0.1,2.1-1.3,1.6c-1.3-0.6-2.4-1.9-3.4-3c-1.9-2.1-4.1-4.7-5-7.3c-0.5-1.3-2.5-0.8-2.1,0.6c0.9,3.5,1.3,6.9,0,10.3h2.1
					c-0.5-2.8-0.9-5.6,0-8.3c-0.6,0.2-1.2,0.3-1.8,0.5c1.9,1.6,2.7,3.6,3.2,6C112.2,151.9,114.3,151.3,114,149.9"/>
				<path class="st4" d="M122.4,149.7c-0.4,0.8-1.3,1.2-2.1,1.6c-0.5,0.3-0.7,1-0.4,1.5c0.3,0.5,1,0.7,1.5,0.4
					c1.1-0.6,2.3-1.2,2.9-2.4C124.9,149.5,123,148.4,122.4,149.7"/>
				<path class="st4" d="M105.9,143.8c0,2-0.5,4-0.5,5.9c0,1.4,2.2,1.4,2.2,0c0-2,0.5-4,0.5-5.9
					C108.1,142.4,105.9,142.4,105.9,143.8"/>
				<path class="st4" d="M95.6,112.4c1-5.9,2.5-11.7,3-17.6c-0.7,0.1-1.4,0.2-2.1,0.3c1.5,8.7-2.4,17.4-3,26
					c-0.1,1.2,1.9,1.5,2.1,0.3c2.4-9.6,3-19.6,5.5-29.3c0.4-1.4-1.8-1.9-2.1-0.6c-2.5,9.6-3.1,19.6-5.5,29.3
					c0.7,0.1,1.4,0.2,2.1,0.3c0.6-8.9,4.4-17.6,2.9-26.6c-0.2-1.3-2-0.8-2.1,0.3c-0.5,5.8-2,11.4-2.9,17.1
					C93.3,113.1,95.4,113.7,95.6,112.4"/>
				<path class="st4" d="M95.6,120.7c5.8-0.6,11.9,1.5,17.5,2.9c1.4,0.3,1.9-1.8,0.6-2.1c-5.8-1.4-12-3.6-18-2.9
					C94.2,118.7,94.2,120.9,95.6,120.7"/>
				<path class="st4" d="M115.8,116.4c1.1-8.1,0.4-16.3,0.3-24.4c0-1.4-2.2-1.4-2.2,0c0,7.9,0.8,15.9-0.3,23.9
					C113.5,117.2,115.6,117.8,115.8,116.4"/>
				<path class="st4" d="M112.9,93.6c-5.1,5.1-10.7,9.6-15.4,15.1c-0.6,0.7-0.1,2.2,1.1,1.8c3.9-1.5,9.3-4.4,10.4-8.9
					c0.2-0.9-0.5-1.5-1.3-1.3c-4.4,0.6-9.1,3.9-12.4,6.7c-1.1,0.9,0.5,2.4,1.5,1.5c3-2.6,7.5-5.6,11.4-6.1c-0.4-0.4-0.9-0.9-1.3-1.3
					c-0.8,3.7-5.6,6.2-8.8,7.4c0.4,0.6,0.7,1.2,1.1,1.8c4.7-5.5,10.3-10.1,15.4-15.1C115.4,94.1,113.9,92.6,112.9,93.6"/>
				<path class="st4" d="M122.3,104.3c-0.8,1.3-2,2.2-3.4,2.8c0.4,0.6,0.7,1.3,1.1,1.9c0.4-0.3,0.7-0.5,1-1c0.6-0.8-0.4-1.9-1.2-1.6
					c-1,0.3-1.9,0.6-2.9,0.9c0.3,0.7,0.6,1.3,0.8,2c2.8-1.7,5.4-3.9,8.1-5.8c1.2-0.8,0.1-2.7-1.1-1.9c-2.8,1.9-5.3,4.1-8.1,5.8
					c-1,0.6-0.4,2.4,0.8,2c1-0.3,1.9-0.6,2.9-0.9c-0.4-0.5-0.8-1.1-1.2-1.6c-0.1,0.1-0.1,0.1-0.2,0.2c-1.2,0.8-0.2,2.4,1.1,1.9
					c1.7-0.8,3.1-2,4.2-3.6C124.9,104.2,123,103.1,122.3,104.3"/>
				<path class="st4" d="M124.4,115.5c-3.2,2-6.6,3.5-9.9,5.2c0.4,0.6,0.7,1.3,1.1,1.9c3.5-2,6.9-4.1,10.2-6.4
					c1.1-0.8,0-2.7-1.1-1.9c-3.3,2.3-6.7,4.4-10.2,6.4c-1.2,0.7-0.1,2.5,1.1,1.9c3.3-1.8,6.7-3.3,9.9-5.2
					C126.7,116.7,125.6,114.8,124.4,115.5"/>
				<path class="st4" d="M124.2,118.2c-1,4-3.4,7.4-4.4,11.3c-0.2,1,1.1,2,1.8,1.1c2.8-3.5,5.1-7.4,6.1-11.8
					c0.3-1.4-1.8-1.9-2.1-0.6c-0.9,4-3,7.6-5.5,10.9c0.6,0.4,1.2,0.7,1.8,1.1c1-4,3.4-7.4,4.4-11.3
					C126.6,117.4,124.5,116.8,124.2,118.2"/>
				<path class="st4" d="M107.6,140.3c0,3.7,0.4,7.4,0.9,11.1c0.2,1.4,2.3,0.8,2.1-0.6c-0.5-3.5-0.8-7-0.8-10.5
					C109.8,138.9,107.6,138.9,107.6,140.3"/>
				<path class="st4" d="M72.9,123.6c1.4,0,1.4-2.2,0-2.2C71.5,121.5,71.5,123.6,72.9,123.6"/>
				<path class="st4" d="M63.1,119.9c0,1.3,0,2.5,0.3,3.8c0.2,0.9,1.6,1.1,2,0.3c0.5-1.1,0.7-2.2,0.7-3.5c0-1.4-2.2-1.4-2.2,0
					c0,0.8-0.1,1.6-0.4,2.4c0.7,0.1,1.3,0.2,2,0.3c-0.2-1.1-0.3-2.1-0.3-3.2C65.3,118.5,63.1,118.5,63.1,119.9"/>
				<path class="st4" d="M71.8,124.3c0.2,3.8-1.5,8.2-4.3,10.9c0.6,0.4,1.2,0.7,1.8,1.1c0.9-4.4,3.2-8.1,5.4-12
					c0.7-1.2-1.2-2.3-1.9-1.1c-2.3,4-4.7,7.9-5.6,12.5c-0.2,1.1,1,1.8,1.8,1.1c3.2-3,5.2-8,5-12.4C73.9,122.9,71.7,122.9,71.8,124.3
					"/>
				<path class="st4" d="M62.4,150.4c1.4,0,1.4-2.2,0-2.2C61,148.2,61,150.4,62.4,150.4"/>
				<path class="st4" d="M67.4,152.4c1.4,0,1.4-2.2,0-2.2C66,150.3,66,152.4,67.4,152.4"/>
				<path class="st4" d="M64.5,151.3c1.4,0,1.4-2.2,0-2.2C63.1,149.1,63.1,151.3,64.5,151.3"/>
				<path class="st4" d="M64.2,151c1.4,0,1.4-2.2,0-2.2C62.8,148.8,62.8,151,64.2,151"/>
				<path class="st4" d="M65.3,150.7h8.1c1.4,0,1.4-2.2,0-2.2h-8.1C63.9,148.5,63.9,150.7,65.3,150.7"/>
				<path class="st4" d="M62.7,150.4c1.4,0,1.4-2.2,0-2.2C61.3,148.2,61.3,150.4,62.7,150.4"/>
				<path class="st5" d="M66.4,74c2.3,5.3,5.2,11,5.4,16.9c0,1.4,2.2,1.4,2.2,0c-0.1-6.3-3.2-12.3-5.7-18
					C67.8,71.6,65.9,72.7,66.4,74"/>
				<path class="st5" d="M59,81.4c4,3.7,8.3,7,11.9,11.1c0.9,1.1,2.5-0.5,1.5-1.5c-3.6-4.1-7.9-7.4-11.9-11.1
					C59.6,79,58,80.5,59,81.4"/>
				<path class="st5" d="M61.6,93.7c1.9,0.6,3.8,1.4,5.8,1.7c1.4,0.2,2-1.9,0.6-2.1c-2-0.3-3.9-1.2-5.8-1.7
					C60.8,91.1,60.2,93.3,61.6,93.7"/>
				<path class="st5" d="M75.7,90.5c2.4-2,4.9-4,6.8-6.6c1.7-2.4,2.6-5.3,3.4-8.2c0.3-1-0.8-1.6-1.6-1.2C79,77,75.4,82.5,73.1,87.7
					c-0.4,0.9,0.5,2.2,1.5,1.5c8.7-6.5,13.2-17.2,19-26c0.8-1.2-1.1-2.3-1.9-1.1c-5.6,8.5-9.9,19-18.2,25.2c0.5,0.5,1,1,1.5,1.5
					c2.2-4.8,5.4-10.1,10.4-12.4c-0.5-0.4-1.1-0.8-1.6-1.2c-0.8,2.7-1.6,5.3-3.2,7.6c-1.7,2.4-4.2,4.3-6.4,6.1
					C73.1,89.8,74.6,91.3,75.7,90.5"/>
				<path class="st5" d="M95.4,60.9c-1,8.9-5.1,17.1-6.9,25.9c-0.3,1.4,1.8,2,2.1,0.6c1.9-9,6-17.3,7-26.5
					C97.7,59.5,95.5,59.5,95.4,60.9"/>
				<path class="st5" d="M93.2,78.7c6.8-3.4,10.2-10.4,15.6-15.3c1-0.9-0.5-2.5-1.5-1.5c-5.3,4.8-8.6,11.7-15.2,15
					C90.9,77.5,92,79.3,93.2,78.7"/>
				<path class="st5" d="M121.9,91.7c1.6-5.5,5.1-10.2,5.6-16c0.1-1.4-2.1-1.4-2.2,0c-0.4,5.6-4,10.1-5.5,15.4
					C119.5,92.5,121.6,93.1,121.9,91.7"/>
				<path class="st5" d="M124.7,96.3c1.6,0,3.2-0.1,4.7-0.6c1.3-0.5,0.7-2.6-0.6-2.1c-1.3,0.5-2.7,0.5-4.1,0.5
					C123.3,94.1,123.3,96.3,124.7,96.3"/>
				<path class="st5" d="M125.4,82.7c0.6,3.5-0.9,10.4,3.4,12.1c1.3,0.5,1.9-1.6,0.6-2.1c-1.5-0.6-1.4-3.8-1.5-5.1
					c-0.1-1.8-0.1-3.7-0.4-5.5C127.3,80.7,125.1,81.3,125.4,82.7"/>
				<path class="st5" d="M100.8,71.6c7.8,0.1,15.5,2,23.3,2c1.4,0,1.4-2.2,0-2.2c-7.8-0.1-15.5-2-23.3-2
					C99.4,69.4,99.4,71.6,100.8,71.6"/>
				<path class="st5" d="M122.2,79.1c0.6-0.5,1.2-1,1.6-1.7c0.6-1-0.6-1.9-1.5-1.5c-3,1.4-5.3,3.8-7.5,6.3c-0.9,1.1,0.5,2.5,1.5,1.5
					c2.4-2.1,4.7-4.1,6.6-6.6c0.9-1.1-1-2.2-1.9-1.1c-1.8,2.3-4,4.3-6.2,6.2c0.5,0.5,1,1,1.5,1.5c2-2.3,4.2-4.6,7.1-5.9
					c-0.5-0.5-1-1-1.5-1.5c-0.3,0.5-0.9,0.8-1.3,1.2C119.7,78.5,121.2,80.1,122.2,79.1"/>
				<path class="st5" d="M124.1,75.1c-3.9,1.9-7.5,4.4-11.6,5.8c-2.2,0.8-4.4,0.9-6.3-0.6c-1.8-1.4-3.2-3.8-3.7-6.1
					c-0.6,0.4-1.2,0.7-1.8,1.1c2.6,3,8.2,4.6,8.7,9.1c0.1,1.4,2.3,1.4,2.2,0c-0.6-5.6-6.1-7-9.3-10.7c-0.7-0.9-2.1,0.1-1.8,1.1
					c1.1,4.5,4.9,9.3,10,8.8c5.4-0.6,10.1-4.4,14.9-6.7C126.5,76.4,125.4,74.5,124.1,75.1"/>
				<path class="st5" d="M101.3,73.7c2,3.1,4.8,5.5,7.4,8.1c0.7,0.7,2.2,0,1.8-1.1c-1.8-4.7-6.8-7.2-8.4-11.9
					c-0.4,0.4-0.9,0.9-1.3,1.3c3,0.9,6.2,1.4,9,2.8c1.3,0.6,2.4-1.3,1.1-1.9c-3.1-1.4-6.3-2.1-9.6-3c-0.8-0.2-1.6,0.5-1.3,1.3
					c1.7,4.8,6.7,7.3,8.4,11.9c0.6-0.4,1.2-0.7,1.8-1.1c-2.5-2.4-5.2-4.7-7.1-7.6C102.5,71.4,100.6,72.5,101.3,73.7"/>
				<path class="st6" d="M59.2,126.3c1.4,0,1.4-2.2,0-2.2C57.8,124.1,57.8,126.3,59.2,126.3"/>
				<path class="st6" d="M59,125.5c0.3,3.6,1,7.2,0,10.8c-0.3,1.2,1.4,1.9,2,0.8c2-3.5,2.2-7.4,2.2-11.3c0-1.4-2.2-1.4-2.2,0
					c0,3.5,0,7.1-1.9,10.2c0.7,0.3,1.3,0.6,2,0.8c1-3.8,0.4-7.5,0-11.3C61.1,124.1,58.9,124.1,59,125.5"/>
				<path class="st6" d="M62.5,115.9c-1.1,2.7-1.2,5.6-1.5,8.4c-0.1,1.2,1.5,1.4,2,0.6c1.6-2.4,3.2-5,3.9-7.9
					c0.8-3.4-2.5-5.3-3.9-8.1c-0.6-1.3-2.5-0.2-1.9,1.1c0.6,1.2,1.5,2.3,2.4,3.3c1.2,1.4,1.5,2.3,1,4c-0.7,2.3-2.1,4.4-3.4,6.4
					c0.7,0.2,1.4,0.4,2,0.6c0.3-2.7,0.4-5.3,1.4-7.9C65.2,115.1,63.1,114.6,62.5,115.9"/>
				<path class="st6" d="M58.6,111.8c0.9,1.7,2,3.3,2.9,4.9c0.3,0.6,1.2,0.7,1.7,0.2c2.4-2.4,1.7-5.1-0.1-7.7c-0.7-1-2.4-0.4-2,0.8
					c1,3.1,2.7,6.4,1.5,9.6c-0.5,1.3,1.6,1.9,2.1,0.6c1.4-3.6-0.4-7.3-1.5-10.8c-0.7,0.3-1.3,0.6-2,0.8c1.2,1.7,2.2,3.4,0.5,5.1
					c0.6,0.1,1.1,0.1,1.7,0.2c-0.9-1.7-2-3.3-2.9-4.9C59.8,109.4,57.9,110.5,58.6,111.8"/>
				<path class="st6" d="M79.4,115.8c1.8,1.8,3.5,3.8,5.7,5.1c1.2,0.7,2.3-1.2,1.1-1.9c-2.1-1.2-3.6-3.1-5.3-4.8
					C80,113.2,78.4,114.8,79.4,115.8"/>
			</g>
			<g class="st3">
				<defs>
					<rect id="SVGID_7_" x="-43" y="2" width="267" height="345.5"/>
				</defs>
				<clipPath id="SVGID_8_">
					<use xlink:href="#SVGID_7_"  style="overflow:visible;"/>
				</clipPath>
				<path class="st7" d="M127.1,101.1c-0.6,0-1.2-0.2-1.7-0.6c-0.4-0.3-0.7-0.5-1.1-0.8c-0.8-0.6-1.5-1.1-2.2-1.9
					c-1.2-1.4-2.3-2.6-3.7-3.7c-0.3-0.2-0.6-0.4-0.9-0.6c-0.9-0.6-1.8-1.2-2.5-2.1c-0.4-0.5-0.7-1-1-1.6c-0.1-0.1-0.1-0.3-0.2-0.6
					c0,0,0-0.1,0-0.1c-0.2,0.1-0.4,0.3-0.5,0.4c-0.4,0.3-0.8,0.6-1.1,0.8c-1.2,0.7-2.3,1.3-3.3,1.7c-2.5,1-4.9,1.3-7.7,1
					c-0.6-0.1-1.1-0.4-1.5-1c-0.5-0.7-0.6-1.6-0.4-2.3c0.3-1.1,1.3-2.1,3.3-1.9c3,0.4,5.8-1.4,8.3-3c0.3-0.2,0.5-0.4,0.8-0.5
					c1.5-0.9,2.7-1.3,3.7-1c1,0.2,1.8,0.9,2.5,2.2c0.2,0.4,0.4,0.8,0.6,1.2c0.3,0.7,0.6,1.4,1.1,1.9c0.6,0.5,1.3,1,1.9,1.4
					c0.6,0.4,1.2,0.8,1.7,1.2c1.1,0.9,1.9,1.9,2.8,3l0.2,0.2c0.6,0.7,1.3,1.2,2,1.7c0.4,0.2,0.7,0.5,1.1,0.8
					c0.8,0.7,1.4,1.9,0.4,3.2C128.9,100.6,128,101.1,127.1,101.1 M113.7,88.9c0,0.1,0,0.1,0.1,0.2c0.1,0.3,0.2,0.5,0.2,0.6
					c0.3,0.7,0.6,1.1,1,1.6c0.7,0.9,1.6,1.5,2.5,2.1c0.3,0.2,0.6,0.4,0.9,0.6c1.4,1,2.5,2.3,3.8,3.7c0.7,0.8,1.4,1.3,2.2,1.9
					c0.3,0.2,0.7,0.5,1.1,0.8c1.4,1.1,3.1,0.6,4-0.6c0.6-0.8,0.9-2.1-0.4-3.1c-0.3-0.3-0.7-0.5-1.1-0.8c-0.7-0.5-1.4-1-2-1.7
					l-0.2-0.2c-0.9-1.1-1.8-2-2.8-2.9c-0.5-0.4-1.1-0.8-1.7-1.2c-0.7-0.4-1.4-0.9-1.9-1.4c-0.6-0.5-0.9-1.3-1.2-2
					c-0.2-0.4-0.3-0.8-0.5-1.1c-0.7-1.2-1.5-1.9-2.4-2.1c-1-0.2-2.2,0.1-3.6,1c-0.3,0.2-0.5,0.3-0.8,0.5c-2.5,1.6-5.3,3.5-8.4,3
					c-1.2-0.2-2.7,0.2-3.2,1.8c-0.2,0.7,0,1.5,0.4,2.2c0.4,0.5,0.8,0.9,1.4,1c2.7,0.4,5.1,0.1,7.6-1c1.1-0.5,2.2-1,3.3-1.7
					c0.3-0.2,0.7-0.5,1.1-0.8c0.2-0.1,0.4-0.3,0.6-0.4c-0.2-0.4-0.3-0.9-0.5-1l0-0.1l2,0.3l0,0.1C114.7,88.3,114.2,88.6,113.7,88.9
					 M113.3,87.9c0.1,0.2,0.3,0.5,0.4,0.9c0.4-0.3,0.8-0.6,1.2-0.7L113.3,87.9z"/>
				<path class="st7" d="M101,92.8c2.7,0.4,5.1,0.1,7.6-1c1.2-0.5,2.3-1.1,3.3-1.7c0.9-0.6,2.2-1.7,3.2-2.1c-0.7-0.1-1.3-0.2-2-0.3
					c0.3,0.2,0.6,1.6,0.8,1.9c0.3,0.6,0.6,1.1,1,1.6c0.9,1.2,2.2,1.9,3.4,2.7c1.4,1,2.6,2.3,3.7,3.7c1,1.1,2.1,1.8,3.3,2.7
					c2.6,2.1,6.3-1.6,3.7-3.7c-1-0.8-2.2-1.4-3.1-2.4c-1-1.1-1.9-2.2-3-3.2c-1.1-1-2.6-1.7-3.6-2.6c-0.9-0.8-1.1-2.1-1.7-3.1
					c-1.6-2.8-3.6-2.8-6.1-1.2c-2.7,1.7-5.8,4-9.2,3.6c-1.4-0.2-2.8,0.3-3.2,1.8C98.8,90.8,99.6,92.6,101,92.8"/>
				<path class="st7" d="M84.7,92.4c-0.8,0-1.5-0.3-1.9-0.9c-0.5-0.8-0.6-1.9-0.2-2.9c0.4-0.9,1.2-1.5,2.3-1.6
					c4.9-0.4,9.8-0.5,14.7-0.4c1.7,0,2.6,1.4,2.6,2.8c0,1.2-0.8,2.6-2.5,2.6c0,0,0,0-0.1,0c-4.9-0.1-9.8,0.1-14.7,0.4l0-0.1l0,0.1
					C84.9,92.4,84.8,92.4,84.7,92.4 M96.8,86.7c-3.9,0-7.9,0.2-11.8,0.5c-1,0.1-1.8,0.6-2.2,1.5c-0.4,0.9-0.4,2,0.1,2.8
					c0.4,0.6,1.2,0.9,2,0.9c4.9-0.4,9.8-0.5,14.7-0.4c0,0,0,0,0.1,0c1.6,0,2.4-1.3,2.4-2.4c0-1.3-0.8-2.6-2.5-2.7
					C98.7,86.7,97.7,86.7,96.8,86.7"/>
				<path class="st7" d="M85,92.3c4.9-0.4,9.8-0.5,14.7-0.4c3.4,0.1,3.4-5.2,0-5.2c-4.9-0.1-9.8,0-14.7,0.4
					C81.7,87.4,81.6,92.6,85,92.3"/>
				<path class="st7" d="M73.4,96.5c-0.3,0-0.7-0.1-1.1-0.3c-0.7-0.4-1.3-1.1-1.5-1.8c-0.4-1.4,0.4-2.7,1.9-3.3
					c1.5-0.6,3.1-1.1,4.6-1.6c0.5-0.2,1-0.3,1.6-0.5l0.1,0c2-0.7,3.9-1.3,6-1.3c0,0,0,0,0,0c1.8,0,2.6,1.4,2.6,2.6
					c0,1.3-0.9,2.7-2.6,2.7c-1.5,0-2.9,0.5-4.3,1c-0.4,0.1-0.8,0.3-1.2,0.4l-0.7,0.2c-1.6,0.5-3.2,1-4.7,1.7
					C73.9,96.4,73.6,96.5,73.4,96.5 M84.9,87.8L84.9,87.8c-2.1,0-4,0.6-6,1.3l-0.1,0c-0.5,0.2-1,0.3-1.6,0.5c-1.5,0.5-3.1,1-4.6,1.6
					c-1.7,0.7-2.1,2.1-1.8,3.1c0.2,0.7,0.7,1.3,1.5,1.7c0.6,0.3,1.2,0.3,1.7,0.1c1.5-0.6,3.1-1.2,4.7-1.7l0.7-0.2
					c0.4-0.1,0.8-0.3,1.2-0.4c1.4-0.5,2.8-1,4.3-1c1.2,0,2.5-0.8,2.5-2.6C87.4,89.1,86.6,87.8,84.9,87.8"/>
				<path class="st7" d="M74.1,96.3c1.8-0.7,3.6-1.3,5.4-1.9c1.8-0.6,3.5-1.4,5.4-1.4c3.4,0,3.4-5.3,0-5.2c-2.2,0-4.1,0.7-6.1,1.3
					c-2.1,0.7-4.1,1.3-6.1,2.1c-1.3,0.6-2.2,1.7-1.8,3.2C71.2,95.7,72.8,96.8,74.1,96.3"/>
				<path class="st7" d="M133.1,96.1c-1.2,0-2.6-0.8-2.6-2.7c0-0.7,0.2-1.4,0.6-1.8c0.5-0.5,1.1-0.8,1.9-0.8c0.8,0,1.5,0.3,1.9,0.8
					c0.4,0.5,0.6,1.1,0.6,1.8C135.7,95.2,134.3,96.1,133.1,96.1 M133.1,90.8c-1.7,0-2.5,1.3-2.5,2.6c0,0.7,0.2,1.3,0.6,1.8
					c0.4,0.5,1.1,0.8,1.8,0.8c1.7,0,2.5-1.3,2.5-2.6C135.6,92.1,134.8,90.8,133.1,90.8"/>
				<path class="st7" d="M133.1,96c3.4,0,3.4-5.2,0-5.2C129.7,90.8,129.7,96,133.1,96"/>
				<path class="st8" d="M63.2,120.7c-0.8,0-1.5-0.3-1.9-0.8c-0.4-0.5-0.6-1.1-0.6-1.8c0-1.8,1.3-2.7,2.6-2.7c0.8,0,1.5,0.3,1.9,0.8
					c0.4,0.5,0.6,1.1,0.6,1.8C65.8,119.8,64.5,120.7,63.2,120.7 M63.2,115.4c-1.7,0-2.5,1.3-2.5,2.6c0,0.7,0.2,1.3,0.6,1.8
					c0.4,0.5,1.1,0.8,1.8,0.8c1.7,0,2.5-1.3,2.5-2.6C65.7,116.8,64.9,115.4,63.2,115.4"/>
				<path class="st8" d="M63.2,120.6c3.4,0,3.4-5.2,0-5.2C59.8,115.4,59.8,120.6,63.2,120.6"/>
				<path class="st8" d="M62.3,119.3c-0.8,0-1.5-0.3-1.9-0.8c-0.4-0.5-0.6-1.1-0.6-1.8c0-1.8,1.3-2.7,2.6-2.7c0.8,0,1.5,0.3,1.9,0.8
					c0.4,0.5,0.6,1.1,0.6,1.8C64.9,118.5,63.6,119.3,62.3,119.3 M62.3,114.1c-1.7,0-2.5,1.3-2.5,2.6c0,0.7,0.2,1.3,0.6,1.8
					c0.4,0.5,1.1,0.8,1.8,0.8c1.7,0,2.5-1.3,2.5-2.6C64.8,115.4,64,114.1,62.3,114.1"/>
				<path class="st8" d="M62.3,119.2c3.4,0,3.4-5.2,0-5.2C58.9,114,58.9,119.2,62.3,119.2"/>
				<path class="st8" d="M61.5,121.6c-0.8,0-1.5-0.3-1.9-0.8c-0.4-0.5-0.6-1.1-0.6-1.8c0-1.8,1.3-2.7,2.6-2.7c0.8,0,1.5,0.3,1.9,0.8
					c0.4,0.5,0.6,1.1,0.6,1.8C64.1,120.8,62.8,121.6,61.5,121.6 M61.5,116.4c-1.7,0-2.5,1.3-2.5,2.6c0,0.7,0.2,1.3,0.6,1.8
					c0.4,0.5,1.1,0.8,1.8,0.8c1.7,0,2.5-1.3,2.5-2.6C64,117.7,63.2,116.4,61.5,116.4"/>
				<path class="st8" d="M61.5,121.5c3.4,0,3.4-5.2,0-5.2C58.1,116.3,58.1,121.5,61.5,121.5"/>
				<path class="st9" d="M74.5,147.8c-0.5,0-1-0.1-1.5-0.2c-0.1,0-0.2,0-0.4-0.1c0,0,0,0,0,0h0c-1.5-0.1-2.6-1.2-2.7-2.7
					c0-0.7,0.3-1.4,0.8-1.9c0.5-0.5,1.2-0.8,1.9-0.8c0.5,0,0.9,0.1,1.4,0.2c0.1,0,0.2,0,0.4,0.1c0.1,0,0.1,0,0.2,0c0,0,0,0,0.1,0
					c1.4,0,2.6,1.2,2.6,2.7c0,0.6-0.2,1.3-0.7,1.8C76.1,147.5,75.3,147.8,74.5,147.8C74.6,147.8,74.6,147.8,74.5,147.8 M72.9,147.5
					c0,0,0.1,0,0.1,0c0.5,0.1,1,0.2,1.5,0.2c0.7,0,1.4-0.3,1.9-0.9c0.4-0.5,0.7-1.1,0.7-1.7c-0.1-1.3-1.1-2.4-2.3-2.5l0,0.1
					l-0.7-0.1l0,0c0,0-0.1,0-0.1,0c-0.4-0.1-0.9-0.2-1.4-0.2c-0.6,0-1.3,0.2-1.8,0.8c-0.5,0.5-0.8,1.2-0.8,1.8
					c0.1,1.3,0.9,2.3,2.1,2.5l0,0L72.9,147.5L72.9,147.5z"/>
				<path class="st9" d="M72.7,147.5c0.1,0,0.2,0,0.3,0c-0.2,0-0.5-0.1-0.7-0.1c0.8,0.1,1.6,0.4,2.4,0.3c1.4,0,2.7-1.2,2.6-2.6
					c-0.1-1.4-1.2-2.6-2.6-2.6c-0.1,0-0.3,0-0.4,0l0.7,0.1c-0.7-0.1-1.5-0.3-2.2-0.3c-1.4-0.1-2.7,1.2-2.6,2.6
					C70.1,146.3,71.2,147.4,72.7,147.5"/>
				<path class="st10" d="M98.4,156c-0.1,0-0.3,0-0.4,0c-1.4-0.2-2.9-0.4-4.3-0.6c-1.5-0.3-3.1-0.5-4.7-0.7
					c-0.9-0.1-1.7-0.1-2.5-0.2c-2-0.1-4-0.2-6-1.2c-0.8-0.4-1.3-1-1.4-1.9c-0.1-0.9,0.5-2,1.3-2.6c0.8-0.6,1.8-0.7,2.8-0.2
					c1.3,0.6,3,0.7,4.6,0.7c0.9,0,1.8,0,2.7,0.1c1,0.1,2.1,0.3,3.1,0.5c1.5,0.2,2.9,0.5,4.4,0.7c1.8,0.2,2.7,1.9,2.5,3.4
					C100.4,154.9,99.8,156,98.4,156 M82,148.4c-0.5,0-1,0.2-1.5,0.5c-0.8,0.6-1.3,1.6-1.3,2.5c0.1,0.8,0.5,1.4,1.3,1.8
					c2,0.9,3.9,1,5.9,1.1c0.8,0,1.7,0.1,2.5,0.2c1.6,0.2,3.2,0.5,4.7,0.7c1.4,0.2,2.8,0.5,4.3,0.6c1.6,0.2,2.3-0.9,2.4-1.9
					c0.2-1.4-0.7-3-2.4-3.3c-1.5-0.2-3-0.4-4.4-0.7c-1-0.2-2-0.3-3.1-0.5c-0.8-0.1-1.7-0.1-2.6-0.1c-1.6,0-3.3,0-4.7-0.7
					C82.8,148.5,82.4,148.4,82,148.4"/>
				<path class="st10" d="M80.6,153.2c2.8,1.3,5.5,1,8.5,1.3c3,0.4,6,1,9,1.4c3.3,0.4,3.3-4.8,0-5.2c-2.5-0.3-5-0.8-7.5-1.2
					c-2.3-0.3-5.2,0.2-7.3-0.8C80.2,147.2,77.5,151.7,80.6,153.2"/>
				<path class="st10" d="M106.1,159c-1.2,0-2.6-0.8-2.6-2.7c0-0.7,0.2-1.4,0.6-1.8c0.5-0.5,1.1-0.8,1.9-0.8c0.8,0,1.5,0.3,1.9,0.8
					c0.4,0.5,0.6,1.1,0.6,1.8C108.7,158.2,107.3,159,106.1,159 M106.1,153.8c-1.7,0-2.5,1.3-2.5,2.6c0,0.7,0.2,1.3,0.6,1.8
					c0.4,0.5,1.1,0.8,1.8,0.8c1.7,0,2.5-1.3,2.5-2.6C108.6,155.1,107.8,153.8,106.1,153.8"/>
				<path class="st10" d="M106.1,159c3.4,0,3.4-5.2,0-5.2C102.7,153.7,102.7,159,106.1,159"/>
				<path class="st10" d="M96.2,159.9c-1.2,0-2.6-0.8-2.6-2.7c0-0.7,0.2-1.4,0.6-1.8c0.5-0.5,1.1-0.8,1.9-0.8c0.8,0,1.5,0.3,1.9,0.8
					c0.4,0.5,0.6,1.1,0.6,1.8C98.8,159,97.4,159.9,96.2,159.9 M96.2,154.6c-1.7,0-2.5,1.3-2.5,2.6c0,0.7,0.2,1.3,0.6,1.8
					c0.4,0.5,1.1,0.8,1.8,0.8c1.7,0,2.5-1.3,2.5-2.6C98.6,155.9,97.9,154.6,96.2,154.6"/>
				<path class="st10" d="M96.2,159.8c3.4,0,3.4-5.2,0-5.2C92.8,154.6,92.8,159.8,96.2,159.8"/>
				<path class="st11" d="M115.7,138.1c-1.9,0-3.6-0.2-5.1-0.5c-0.9-0.2-1.5-0.7-1.8-1.4c-0.3-0.9-0.1-2,0.6-2.8
					c0.7-0.8,1.6-1.1,2.6-0.9c1.6,0.3,5.7,0.9,8.6-0.5c0.9-0.4,1.9-0.4,2.7,0.2c0.9,0.6,1.4,1.6,1.3,2.6c-0.1,0.8-0.5,1.5-1.4,1.9
					C120.9,137.7,118.2,138.1,115.7,138.1 M110.7,137.5c3.4,0.6,8.4,1,12.6-1.1c0.8-0.4,1.2-1,1.3-1.8c0.1-0.9-0.4-1.9-1.3-2.5
					c-0.8-0.5-1.7-0.6-2.6-0.2c-3,1.4-7,0.9-8.7,0.6c-1-0.2-1.9,0.1-2.5,0.9c-0.7,0.8-0.9,1.8-0.6,2.7
					C109.3,136.9,109.9,137.4,110.7,137.5"/>
				<path class="st11" d="M110.7,137.6c4.2,0.8,8.8,0.8,12.7-1.1c3-1.5,0.4-6-2.6-4.5c-2.5,1.2-6,1-8.6,0.5
					C108.8,131.9,107.4,137,110.7,137.6"/>
				<path class="st11" d="M122.3,134.9c-1.2,0-2.6-0.8-2.6-2.7c0-0.7,0.2-1.4,0.6-1.8c0.5-0.5,1.1-0.8,1.9-0.8
					c0.8,0,1.5,0.3,1.9,0.8c0.4,0.5,0.6,1.1,0.6,1.8C124.9,134.1,123.5,134.9,122.3,134.9 M122.3,129.7c-1.7,0-2.5,1.3-2.5,2.6
					c0,0.7,0.2,1.3,0.6,1.8c0.4,0.5,1.1,0.8,1.8,0.8c1.7,0,2.5-1.3,2.5-2.6C124.8,131,124,129.7,122.3,129.7"/>
				<path class="st11" d="M122.3,134.9c3.4,0,3.4-5.2,0-5.2C118.9,129.6,118.9,134.9,122.3,134.9"/>
				<path class="st11" d="M121.4,135.5c-1.2,0-2.6-0.8-2.6-2.7c0-0.7,0.2-1.4,0.6-1.8c0.5-0.5,1.1-0.8,1.9-0.8
					c0.8,0,1.5,0.3,1.9,0.8c0.4,0.5,0.6,1.1,0.6,1.8C124,134.7,122.7,135.5,121.4,135.5 M121.4,130.3c-1.7,0-2.5,1.3-2.5,2.6
					c0,0.7,0.2,1.3,0.6,1.8c0.4,0.5,1.1,0.8,1.8,0.8c1.7,0,2.5-1.3,2.5-2.6C123.9,131.6,123.1,130.3,121.4,130.3"/>
				<path class="st11" d="M121.4,135.5c3.4,0,3.4-5.2,0-5.2C118.1,130.2,118.1,135.5,121.4,135.5"/>
				<path class="st12" d="M123.4,132.8c-1.2,0-2.6-0.8-2.6-2.7c0-0.7,0.2-1.4,0.6-1.8c0.5-0.5,1.1-0.8,1.9-0.8
					c0.8,0,1.5,0.3,1.9,0.8c0.4,0.5,0.6,1.1,0.6,1.8C126,132,124.7,132.8,123.4,132.8 M123.4,127.6c-1.7,0-2.5,1.3-2.5,2.6
					c0,0.7,0.2,1.3,0.6,1.8c0.4,0.5,1.1,0.8,1.8,0.8c1.7,0,2.5-1.3,2.5-2.6C125.9,128.9,125.1,127.6,123.4,127.6"/>
				<path class="st12" d="M123.4,132.8c3.4,0,3.4-5.2,0-5.2C120,127.5,120,132.8,123.4,132.8"/>
				<path class="st12" d="M122.6,132.8c-1.2,0-2.6-0.8-2.6-2.7c0-1.8,1.3-2.7,2.6-2.7c0.8,0,1.5,0.3,1.9,0.8
					c0.4,0.5,0.6,1.1,0.6,1.8C125.2,131.9,123.9,132.8,122.6,132.8 M122.6,127.5c-1.7,0-2.5,1.3-2.5,2.6c0,0.7,0.2,1.3,0.6,1.8
					c0.4,0.5,1.1,0.8,1.8,0.8c1.7,0,2.5-1.3,2.5-2.6C125.1,128.9,124.3,127.5,122.6,127.5"/>
				<path class="st12" d="M122.6,132.7c3.4,0,3.4-5.2,0-5.2C119.2,127.5,119.2,132.7,122.6,132.7"/>
				<path class="st11" d="M107.8,137c-1.2,0-2.6-0.8-2.6-2.7c0-0.7,0.2-1.4,0.6-1.8c0.5-0.5,1.1-0.8,1.9-0.8c0.8,0,1.5,0.3,1.9,0.8
					c0.4,0.5,0.6,1.1,0.6,1.8C110.4,136.1,109.1,137,107.8,137 M107.8,131.7c-1.7,0-2.5,1.3-2.5,2.6c0,0.7,0.2,1.3,0.6,1.8
					c0.4,0.5,1.1,0.8,1.8,0.8c1.7,0,2.5-1.3,2.5-2.6C110.3,133.1,109.5,131.7,107.8,131.7"/>
				<path class="st11" d="M107.8,136.9c3.4,0,3.4-5.2,0-5.2C104.5,131.7,104.5,136.9,107.8,136.9"/>
				<path class="st13" d="M92.9,132.2c-0.8,0-1.5-0.3-1.9-0.8c-0.4-0.5-0.6-1.1-0.6-1.8c0-1.8,1.3-2.7,2.6-2.7
					c0.8,0,1.5,0.3,1.9,0.8c0.4,0.5,0.6,1.1,0.6,1.8C95.5,131.4,94.1,132.2,92.9,132.2 M92.9,127c-1.7,0-2.5,1.3-2.5,2.6
					c0,0.7,0.2,1.3,0.6,1.8c0.4,0.5,1.1,0.8,1.8,0.8c1.7,0,2.5-1.3,2.5-2.6C95.4,128.3,94.6,127,92.9,127"/>
				<path class="st13" d="M92.9,132.1c3.4,0,3.4-5.2,0-5.2C89.5,126.9,89.5,132.1,92.9,132.1"/>
				<path class="st13" d="M92.4,132.5c-0.8,0-1.5-0.3-1.9-0.8c-0.4-0.5-0.6-1.1-0.6-1.8c0-1.8,1.3-2.7,2.6-2.7
					c0.8,0,1.5,0.3,1.9,0.8c0.4,0.5,0.6,1.1,0.6,1.8C95,131.7,93.6,132.5,92.4,132.5 M92.4,127.3c-0.8,0-1.4,0.3-1.8,0.8
					c-0.4,0.5-0.6,1.1-0.6,1.8c0,1.2,0.8,2.6,2.5,2.6c1.7,0,2.5-1.3,2.5-2.6C94.8,128.6,94.1,127.3,92.4,127.3"/>
				<path class="st13" d="M92.4,132.4c3.4,0,3.4-5.2,0-5.2C89,127.2,89,132.4,92.4,132.4"/>
				<path class="st13" d="M92.4,132.6c-1.2,0-2.6-0.8-2.6-2.7c0-1.8,1.3-2.7,2.6-2.7c0.8,0,1.5,0.3,1.9,0.8c0.4,0.5,0.6,1.1,0.6,1.8
					C95,131.8,93.7,132.6,92.4,132.6 M92.4,127.4c-1.7,0-2.5,1.3-2.5,2.6c0,0.7,0.2,1.3,0.6,1.8c0.4,0.5,1.1,0.8,1.8,0.8
					c1.7,0,2.5-1.3,2.5-2.6C94.9,128.7,94.1,127.4,92.4,127.4"/>
				<path class="st13" d="M92.4,132.6c3.4,0,3.4-5.2,0-5.2C89.1,127.3,89.1,132.6,92.4,132.6"/>
				<path class="st13" d="M92.1,132.5c-0.8,0-1.5-0.3-1.9-0.8c-0.4-0.5-0.6-1.1-0.6-1.8c0-1.8,1.3-2.7,2.6-2.7
					c0.8,0,1.5,0.3,1.9,0.8c0.4,0.5,0.6,1.1,0.6,1.8C94.7,131.7,93.4,132.5,92.1,132.5 M92.1,127.3c-1.7,0-2.5,1.3-2.5,2.6
					c0,0.7,0.2,1.3,0.6,1.8c0.4,0.5,1.1,0.8,1.8,0.8c1.7,0,2.5-1.3,2.5-2.6C94.6,128.6,93.8,127.3,92.1,127.3"/>
				<path class="st13" d="M92.1,132.4c3.4,0,3.4-5.2,0-5.2C88.7,127.2,88.7,132.4,92.1,132.4"/>
				<path class="st14" d="M83.1,128.4c-0.2,0-0.4,0-0.6-0.1c-0.9-0.2-1.9-0.4-2.8-0.6c-1.4-0.4-2.2-1.8-1.9-3.3
					c0.1-0.6,0.6-1.2,1.1-1.5c0.6-0.4,1.5-0.5,2.1-0.3c0.9,0.2,1.8,0.4,2.8,0.6c0.6,0.1,1.1,0.5,1.5,1c0.4,0.7,0.6,1.5,0.4,2.3
					C85.5,127.7,84.3,128.4,83.1,128.4 M80.5,122.6c-0.5,0-1,0.1-1.4,0.4c-0.6,0.3-1,0.9-1.1,1.5c-0.3,1.4,0.5,2.8,1.8,3.1
					c0.9,0.2,1.8,0.4,2.8,0.6c1.3,0.2,2.8-0.4,3.1-1.8c0.2-0.7,0-1.6-0.4-2.2c-0.3-0.5-0.8-0.8-1.4-0.9c-0.9-0.2-1.9-0.4-2.8-0.6
					C80.9,122.6,80.7,122.6,80.5,122.6"/>
				<path class="st14" d="M79.7,127.7c0.9,0.2,1.8,0.4,2.8,0.6c1.3,0.2,2.9-0.4,3.2-1.8c0.3-1.3-0.4-3-1.8-3.2
					c-0.9-0.2-1.9-0.4-2.8-0.6c-1.3-0.3-2.9,0.4-3.2,1.8C77.6,125.8,78.3,127.3,79.7,127.7"/>
				<path class="st14" d="M88.7,130.6c-0.5,0-1-0.1-1.4-0.3c-0.8-0.4-1.5-0.8-2.3-1.3c-1.1-0.6-1.8-2.2-1-3.7c0.3-0.6,0.8-1,1.5-1.2
					c0.7-0.2,1.5-0.1,2.2,0.2l2.3,1.3c1.1,0.6,1.8,2.2,1,3.7c-0.3,0.6-0.8,1-1.5,1.2C89.3,130.6,89,130.6,88.7,130.6 M86.3,124.2
					c-0.3,0-0.5,0-0.8,0.1c-0.6,0.2-1.1,0.6-1.4,1.1c-0.8,1.4-0.1,2.9,0.9,3.5c0.8,0.4,1.5,0.8,2.3,1.3c0.6,0.3,1.4,0.4,2.1,0.2
					c0.6-0.2,1.1-0.6,1.4-1.1c0.8-1.4,0.1-2.9-0.9-3.5l-2.3-1.3C87.3,124.3,86.8,124.2,86.3,124.2"/>
				<path class="st14" d="M85,129c0.8,0.4,1.5,0.8,2.3,1.3c1.2,0.7,2.9,0.3,3.6-0.9c0.6-1.2,0.3-2.9-0.9-3.6
					c-0.8-0.4-1.5-0.8-2.3-1.3c-1.2-0.7-2.9-0.3-3.6,0.9C83.5,126.6,83.8,128.3,85,129"/>
				<path class="st14" d="M78.4,128.4c-0.2,0-0.5,0-0.7-0.1c-1.2-0.5-2.5-0.8-3.7-1.2c-1.4-0.3-2.2-1.8-1.9-3.3
					c0.1-0.6,0.5-1.2,1.1-1.5c0.6-0.4,1.5-0.5,2.2-0.3c1.3,0.3,2.5,0.7,3.8,1.2c1.5,0.5,2.2,1.8,1.9,3.3c-0.2,0.7-0.7,1.3-1.4,1.7
					C79.2,128.2,78.8,128.4,78.4,128.4 M74.7,121.9c-0.5,0-1,0.1-1.5,0.4c-0.6,0.3-0.9,0.9-1.1,1.4c-0.3,1.2,0.3,2.8,1.8,3.1
					c1.3,0.3,2.5,0.7,3.8,1.2c0.6,0.2,1.2,0.1,1.8-0.2c0.7-0.4,1.2-1,1.3-1.6c0.3-1.4-0.4-2.6-1.8-3.1c-1.2-0.5-2.5-0.8-3.7-1.2
					C75.1,122,74.9,121.9,74.7,121.9"/>
				<path class="st14" d="M79.1,123.1c-1.2-0.5-2.5-0.8-3.7-1.2c-1.3-0.3-2.9,0.4-3.2,1.8c-0.3,1.4,0.4,2.9,1.8,3.2
					c1.3,0.3,2.5,0.7,3.7,1.2c1.3,0.5,2.9-0.5,3.2-1.8C81.2,124.9,80.5,123.6,79.1,123.1"/>
				<path class="st13" d="M96.3,132.4c-1.2,0-2.6-0.8-2.6-2.7c0-0.7,0.2-1.4,0.6-1.8c0.5-0.5,1.1-0.8,1.9-0.8c0.8,0,1.5,0.3,1.9,0.8
					c0.4,0.5,0.6,1.1,0.6,1.8C98.9,131.6,97.5,132.4,96.3,132.4 M96.3,127.2c-1.7,0-2.5,1.3-2.5,2.6c0,0.7,0.2,1.3,0.6,1.8
					c0.4,0.5,1.1,0.8,1.8,0.8c1.7,0,2.5-1.3,2.5-2.6C98.8,128.5,98,127.2,96.3,127.2"/>
				<path class="st13" d="M96.3,132.4c3.4,0,3.4-5.2,0-5.2C92.9,127.1,92.9,132.4,96.3,132.4"/>
				<path class="st13" d="M94.2,133c-1.2,0-2.6-0.8-2.6-2.7c0-0.7,0.2-1.4,0.6-1.8c0.5-0.5,1.1-0.8,1.9-0.8c0.8,0,1.5,0.3,1.9,0.8
					c0.4,0.5,0.6,1.1,0.6,1.8C96.8,132.2,95.5,133,94.2,133 M94.2,127.8c-1.7,0-2.5,1.3-2.5,2.6c0,0.7,0.2,1.3,0.6,1.8
					c0.4,0.5,1.1,0.8,1.8,0.8c1.7,0,2.5-1.3,2.5-2.6C96.7,129.1,95.9,127.8,94.2,127.8"/>
				<path class="st13" d="M94.2,133c3.4,0,3.4-5.2,0-5.2C90.8,127.7,90.8,133,94.2,133"/>
				<path class="st13" d="M93.2,132.5c-0.8,0-1.5-0.3-1.9-0.8c-0.4-0.5-0.6-1.1-0.6-1.8c0-1.8,1.3-2.7,2.6-2.7
					c0.8,0,1.5,0.3,1.9,0.8c0.4,0.5,0.6,1.1,0.6,1.8C95.7,131.7,94.4,132.5,93.2,132.5 M93.2,127.3c-1.7,0-2.5,1.3-2.5,2.6
					c0,0.7,0.2,1.3,0.6,1.8c0.4,0.5,1.1,0.8,1.8,0.8c1.7,0,2.5-1.3,2.5-2.6C95.6,128.6,94.9,127.3,93.2,127.3"/>
				<path class="st13" d="M93.2,132.4c3.4,0,3.4-5.2,0-5.2C89.8,127.2,89.8,132.4,93.2,132.4"/>
				<path class="st13" d="M92.8,132.5c-0.8,0-1.5-0.3-1.9-0.8c-0.4-0.5-0.6-1.1-0.6-1.8c0-1.8,1.3-2.7,2.6-2.7
					c0.8,0,1.5,0.3,1.9,0.8c0.4,0.5,0.6,1.1,0.6,1.8C95.4,131.7,94.1,132.5,92.8,132.5 M92.8,127.3c-1.7,0-2.5,1.3-2.5,2.6
					c0,0.7,0.2,1.3,0.6,1.8c0.4,0.5,1.1,0.8,1.8,0.8c1.7,0,2.5-1.3,2.5-2.6C95.3,128.6,94.5,127.3,92.8,127.3"/>
				<path class="st13" d="M92.8,132.4c3.4,0,3.4-5.2,0-5.2C89.4,127.2,89.4,132.4,92.8,132.4"/>
				<path class="st13" d="M92.5,132.7c-0.8,0-1.5-0.3-1.9-0.8c-0.4-0.5-0.6-1.1-0.6-1.8c0-1.8,1.3-2.7,2.6-2.7
					c0.8,0,1.5,0.3,1.9,0.8c0.4,0.5,0.6,1.1,0.6,1.8C95.1,131.8,93.7,132.7,92.5,132.7 M92.5,127.4c-1.7,0-2.5,1.3-2.5,2.6
					c0,0.7,0.2,1.3,0.6,1.8c0.4,0.5,1.1,0.8,1.8,0.8c1.7,0,2.5-1.3,2.5-2.6C94.9,128.8,94.2,127.4,92.5,127.4"/>
				<path class="st13" d="M92.5,132.6c3.4,0,3.4-5.2,0-5.2C89.1,127.4,89.1,132.6,92.5,132.6"/>
				<path class="st13" d="M92.1,132.8c-0.8,0-1.5-0.3-1.9-0.8c-0.4-0.5-0.6-1.1-0.6-1.8c0-1.8,1.3-2.7,2.6-2.7
					c0.8,0,1.5,0.3,1.9,0.8c0.4,0.5,0.6,1.1,0.6,1.8C94.7,131.9,93.4,132.8,92.1,132.8 M92.1,127.5c-1.7,0-2.5,1.3-2.5,2.6
					c0,0.7,0.2,1.3,0.6,1.8c0.4,0.5,1.1,0.8,1.8,0.8c1.7,0,2.5-1.3,2.5-2.6C94.6,128.9,93.8,127.5,92.1,127.5"/>
				<path class="st13" d="M92.1,132.7c3.4,0,3.4-5.2,0-5.2C88.8,127.5,88.8,132.7,92.1,132.7"/>
				<path class="st13" d="M92,133c-0.6,0-1.3-0.3-1.8-0.8c-0.5-0.5-0.8-1.2-0.8-1.9v0c0-0.7,0.3-1.3,0.8-1.9
					c0.4-0.5,1.1-0.8,1.9-0.8c0,0,0.1,0,0.1,0c0.6,0,1.3,0.3,1.8,0.8c0.5,0.5,0.8,1.2,0.8,1.9c0,0.7-0.3,1.3-0.8,1.9
					C93.5,132.7,92.8,133,92,133C92,133,92,133,92,133 M92.1,127.8C92.1,127.8,92.1,127.8,92.1,127.8c-0.8,0-1.5,0.3-1.9,0.7
					c-0.5,0.5-0.7,1.2-0.7,1.8v0c0,0.7,0.3,1.3,0.7,1.8c0.5,0.5,1.2,0.8,1.8,0.7c0.8,0,1.4-0.3,1.8-0.7c0.5-0.5,0.8-1.2,0.8-1.8
					c0-0.7-0.3-1.4-0.7-1.8C93.4,128.1,92.7,127.8,92.1,127.8"/>
				<path class="st13" d="M89.4,130.3L89.4,130.3c0,0.7,0.3,1.4,0.8,1.9c0.5,0.5,1.2,0.8,1.9,0.8c0.7,0,1.4-0.3,1.9-0.8
					c0.5-0.5,0.8-1.1,0.8-1.9v0c0-0.7-0.3-1.4-0.8-1.9c-0.5-0.5-1.2-0.8-1.9-0.8c-0.7,0-1.4,0.3-1.9,0.8
					C89.7,129,89.4,129.6,89.4,130.3"/>
				<path class="st13" d="M92.5,132.3c-0.8,0-1.5-0.3-1.9-0.8c-0.4-0.5-0.6-1.1-0.6-1.8c0-1.8,1.3-2.7,2.6-2.7
					c0.8,0,1.5,0.3,1.9,0.8c0.4,0.5,0.6,1.1,0.6,1.8C95.1,131.5,93.8,132.3,92.5,132.3 M92.5,127.1c-1.7,0-2.5,1.3-2.5,2.6
					c0,0.7,0.2,1.3,0.6,1.8c0.4,0.5,1.1,0.8,1.8,0.8c1.7,0,2.5-1.3,2.5-2.6C95,128.4,94.2,127.1,92.5,127.1"/>
				<path class="st13" d="M92.5,132.3c3.4,0,3.4-5.2,0-5.2C89.2,127,89.2,132.3,92.5,132.3"/>
				<path class="st13" d="M92.4,132.4c-0.8,0-1.5-0.3-1.9-0.8c-0.4-0.5-0.6-1.1-0.6-1.8c0-1.8,1.3-2.7,2.6-2.7
					c0.8,0,1.5,0.3,1.9,0.8c0.4,0.5,0.6,1.1,0.6,1.8C95,131.5,93.6,132.4,92.4,132.4 M92.4,127.1c-1.7,0-2.5,1.3-2.5,2.6
					c0,0.7,0.2,1.3,0.6,1.8c0.4,0.5,1.1,0.8,1.8,0.8c1.7,0,2.5-1.3,2.5-2.6C94.9,128.5,94.1,127.1,92.4,127.1"/>
				<path class="st13" d="M92.4,132.3c3.4,0,3.4-5.2,0-5.2C89,127.1,89,132.3,92.4,132.3"/>
				<path class="st13" d="M92.1,132.5c-0.8,0-1.5-0.3-1.9-0.8c-0.4-0.5-0.6-1.1-0.6-1.8c0-1.8,1.3-2.7,2.6-2.7
					c0.8,0,1.5,0.3,1.9,0.8c0.4,0.5,0.6,1.1,0.6,1.8C94.7,131.6,93.4,132.5,92.1,132.5 M92.1,127.2c-1.7,0-2.5,1.3-2.5,2.6
					c0,0.7,0.2,1.3,0.6,1.8c0.4,0.5,1.1,0.8,1.8,0.8c1.7,0,2.5-1.3,2.5-2.6C94.6,128.5,93.8,127.2,92.1,127.2"/>
				<path class="st13" d="M92.1,132.4c3.4,0,3.4-5.2,0-5.2C88.8,127.2,88.8,132.4,92.1,132.4"/>
				<polygon class="st15" points="103,129.4 109.8,125.4 119.3,123.9 116.3,126.7 109.3,128.1 108.2,128.7 103,129.5 				"/>
				<polygon class="st15" points="119.1,124 109.8,125.5 106.2,127.6 103,129.4 108.2,128.6 109.2,128.1 116.3,126.7 				"/>
				<polygon class="st15" points="85.1,122.3 79,116.4 79,116.3 89.7,121.1 96.5,126.5 93,127.3 				"/>
				<polygon class="st15" points="96.4,126.5 89.7,121.2 79,116.4 85.1,122.3 93,127.3 				"/>
				<path class="st16" d="M77.9,173.8l-0.1-0.1c-0.1-0.1-13.6-13.9-16.6-24.5l0-0.1l0.1,0l12,0.7L77.9,173.8z M61.4,149.2
					c2.8,10,14.9,22.7,16.4,24.2l-4.6-23.5L61.4,149.2z"/>
				<path class="st16" d="M61.3,149.1l11.9,0.7l4.7,23.8C77.8,173.6,64.3,159.9,61.3,149.1"/>
				<path class="st17" d="M98.4,156.9c-1.9,0-3.3-0.2-3.9-0.3c-5.2-0.5-13.1-5.7-13.2-5.7l0-0.1l1.4,0.4c2.8,1.5,13.1,3,13.2,3
					c4.6,0.4,6.9,0.6,8.2,0.6c0.7,0,1.2,0,1.7-0.2c1.2-0.3,4.4-1.4,4.4-1.5l0.1,0.1l-1,1.1C105.6,156.4,101.3,156.9,98.4,156.9"/>
				<path class="st17" d="M81.4,150.8c0,0,7.9,5.2,13.1,5.7c0.1,0,8.2,1.4,14.9-2.3l1-1.1c0,0-3.2,1.2-4.4,1.5
					c-1.1,0.3-2.6,0.3-10-0.4c0,0-10.4-1.5-13.2-3L81.4,150.8z"/>
				<path class="st18" d="M90.1,157.1c-0.2,0-0.3,0-0.3,0c-0.2-0.1-4-3.5-4.4-3.9l0.1-0.1c4.4,2.5,10.1,3.5,10.1,3.5l0,0.1
					C94.7,156.8,91.1,157.1,90.1,157.1 M85.8,153.5c1.7,1.5,3.9,3.4,4,3.5c0.2,0.1,3.1-0.1,5.3-0.3
					C93.7,156.4,89.4,155.4,85.8,153.5"/>
				<path class="st18" d="M85.4,153.2c0,0,4.2,3.7,4.4,3.9c0.2,0.1,5.7-0.3,5.7-0.3S89.8,155.7,85.4,153.2"/>
				<path class="st19" d="M98.3,158.5c-3.8,0-8.5-1.4-8.5-1.4l0-0.1l5.5-0.4l0,0l6.2,1.4l-0.2,0.1
					C100.4,158.4,99.4,158.5,98.3,158.5 M90.2,157.1c1.5,0.4,7.7,2,10.8,1l-5.7-1.3L90.2,157.1z"/>
				<path class="st19" d="M101.2,158l-6-1.4l-5.5,0.4C89.8,157,97.6,159.4,101.2,158"/>
				<path class="st20" d="M101.2,158.1L101.2,158.1l-6.1-1.4l0,0c0,0,0,0,0,0l-0.2-0.2l0.3,0.1c0.7,0.1,7.1,0.2,10.3-0.8l0,0.1
					L101.2,158.1z M95.9,156.7l5.3,1.2l3.7-1.9C102.2,156.8,97.7,156.8,95.9,156.7"/>
				<path class="st20" d="M105.5,155.9l-4.3,2.2l-6.1-1.4C95.2,156.7,102.1,156.9,105.5,155.9"/>
				<path class="st21" d="M96.3,178l-0.1-0.2l-6.6-20.9l0.1,0c7.3,1.9,11.3,1,11.4,1l0.1,0l0,0.1L96.3,178z M89.9,157.1l6.4,20.5
					l4.8-19.5C100.5,158.2,96.5,158.8,89.9,157.1"/>
				<path class="st21" d="M89.8,157l6.5,20.8l4.9-19.8C101.2,158,97.2,158.9,89.8,157"/>
				<path class="st22" d="M93.4,178.2c-1.9,0-4.9-0.3-8.8-1.6L76.1,165l5.3-14.2l0.1,0c0,0,1.6,1.1,4,2.3c1.3,0.7,2.4,1.9,3.6,3
					c0.3,0.3,0.6,0.6,0.9,0.9l6.6,20.9l-0.1,0C96.3,177.9,95.3,178.2,93.4,178.2"/>
				<path class="st22" d="M76.2,165l5.3-14.1c0,0,1.6,1.1,4,2.3c1.6,0.8,3,2.5,4.4,3.9l6.5,20.8c0,0-4.3,1.2-11.7-1.3L76.2,165z"/>
				<polygon class="st23" points="110.4,153.2 108.5,141 108.6,141 115.9,152.4 113.3,157.7 				"/>
				<polygon class="st23" points="115.8,152.4 113.3,157.5 110.4,153.2 108.5,141 				"/>
				<path class="st24" d="M113.2,157.6l2.6-5.2l11.2-3.4l0,0.1c-1.3,6.6-9,15.3-9.1,15.4l-0.1,0.1L113.2,157.6z"/>
				<path class="st24" d="M117.8,164.5c0,0,7.8-8.8,9.1-15.4l-11.1,3.3l-2.5,5.1L117.8,164.5z"/>
				<polygon class="st25" points="73.1,149.8 77,146.6 81.5,150.8 76.1,165.2 				"/>
				<polygon class="st25" points="77,146.7 73.2,149.8 76.2,165 81.4,150.8 				"/>
				<path class="st9" d="M73.2,149.9l-12-0.7l0,0c-3-9.6,2.9-34.3,3-34.5l0.1,0c0.4,8.9,1.9,20.9,6.8,27.7c3,4,5.8,4.3,5.8,4.3
					l0.2,0L73.2,149.9z M61.3,149l11.9,0.7l3.7-3c-0.6-0.1-3.2-0.7-5.8-4.3c-4.9-6.7-6.4-18.5-6.8-27.3
					C63.4,118.4,58.6,140.1,61.3,149"/>
				<path class="st9" d="M64.3,114.6c0,0-6,24.7-3,34.5l11.9,0.7l3.8-3.1C77,146.7,65.6,145.9,64.3,114.6"/>
				<path class="st26" d="M77,146.8c-0.1,0-1.4-0.2-3.3-1.6c-1.7-1.3-4.1-4-6-9.2l0,0l6.2-12.2l13.3,14.5L77,146.8L77,146.8z"/>
				<path class="st26" d="M87.1,138.2L77,146.7c0,0-5.6-0.6-9.2-10.8l6.1-12.1L87.1,138.2z"/>
				<path class="st27" d="M67.8,136.1l-0.1-0.1c0-0.1-2.9-6.4-3.5-21.3l0-0.2l9.8,9.3l0,0L67.8,136.1z M64.3,114.8
					c0.3,7.7,1.3,13,2,16.1c0.7,2.9,1.3,4.4,1.5,4.8l6.1-12L64.3,114.8z"/>
				<path class="st27" d="M64.3,114.6l9.7,9.2l-6.1,12.1C67.8,135.9,64.9,129.8,64.3,114.6"/>
				<path class="st28" d="M100.8,150.7L100.8,150.7c0,0-0.8-0.4-2.4-0.1l0,0l0,0c-0.3-0.2-6.9-4.5-7.3-4.8c-0.4-0.3-1.9-2.1-2-2.2
					l-0.1-0.1l0.2,0c0,0,1.6,0.3,3.5,1c1.8,0.7,4.1,1.9,5.4,3.8c0,0,1.2,1.2,2,0.7c0.2-0.1,0.4-0.3,0.7-0.5c1.3-1,3.4-2.6,5.1-1.9
					l0,0c0,0,0.3,0.3,0.2,0.6c0,0.1-0.1,0.2-0.3,0.3C105.4,147.8,100.9,150.6,100.8,150.7L100.8,150.7z M99.6,150.3
					c0.7,0,1.1,0.2,1.2,0.2c0.4-0.2,4.6-2.8,5.1-3.1c0.1-0.1,0.2-0.1,0.2-0.2c0-0.2-0.2-0.4-0.2-0.4c-1.7-0.7-3.8,0.9-5,1.9
					c-0.3,0.2-0.6,0.4-0.7,0.5c-0.9,0.5-2.1-0.7-2.2-0.7c-1.2-1.9-3.6-3.1-5.3-3.7c-1.5-0.6-2.9-0.9-3.4-1c0.4,0.4,1.5,1.8,1.8,2
					c0.3,0.3,6.8,4.5,7.3,4.7C98.9,150.3,99.2,150.3,99.6,150.3"/>
				<path class="st28" d="M89.1,143.6c0,0,6.5,1.2,8.9,4.8c0,0,1.2,1.2,2.1,0.7c0.9-0.5,3.6-3.3,5.8-2.4c0,0,0.5,0.5,0,0.8
					c-0.5,0.3-5.1,3.1-5.1,3.1s-0.7-0.4-2.4-0.1c0,0-6.9-4.5-7.3-4.8C90.7,145.5,89.1,143.6,89.1,143.6"/>
				<path class="st29" d="M96.4,150.9c-0.7,0-1.3-0.2-1.7-0.5c0,0-2.4-0.7-6.9-0.7l-6.4,1.2l-4.5-4.2l10.2-8.6l2.1,5.5l2,2.2
					l7.4,4.8l-0.1,0C98.4,150.6,97.4,150.9,96.4,150.9"/>
				<path class="st29" d="M87.1,138.2l2,5.4l2,2.2l7.3,4.8c0,0-2.3,0.8-3.7-0.1c0,0-2.4-0.7-6.9-0.7l-6.4,1.2l-4.4-4.1L87.1,138.2z"
					/>
				<path class="st30" d="M110.5,153.2L110.5,153.2c-0.3,0-4.6-0.3-6.3-1.1c0,0-2.6-1.5-3.4-1.5c0,0,0,0,0,0l-0.2,0l5.3-3.3
					c0.1-0.2,1.9-2.7,1.9-3.4c-0.1-0.7-1.6-5.8-1.7-5.8l0.1-0.1l2.4,2.8l0,0L110.5,153.2z M101,150.6c0.9,0.2,3.2,1.4,3.3,1.5
					c1.6,0.8,5.5,1,6.1,1.1l-1.9-12.2l-2.2-2.6c0.3,1.1,1.5,4.9,1.6,5.6c0.1,0.7-1.8,3.4-1.9,3.5l0,0L101,150.6z"/>
				<path class="st30" d="M106.1,138.1l2.4,2.8l1.9,12.3c0,0-4.5-0.3-6.2-1.1c0,0-2.7-1.5-3.5-1.5l5.1-3.2c0,0,2-2.7,1.9-3.5
					C107.7,143.2,106.1,138.1,106.1,138.1"/>
				<path class="st31" d="M96.3,146.7c-1.8-1.6-7.1-3-7.2-3l0,0l-2.1-5.5l6.4-3l3.1,11.6L96.3,146.7z"/>
				<path class="st31" d="M93.3,135.2l-6.3,2.9l2,5.4c0,0,5.3,1.4,7.2,3L93.3,135.2z"/>
				<polygon class="st32" points="93.3,135.3 95.6,128.8 99.9,136.2 96.3,146.8 				"/>
				<polygon class="st32" points="95.6,129 93.3,135.2 96.3,146.6 99.8,136.2 				"/>
				<path class="st33" d="M99.6,149.3L99.6,149.3c-0.9,0-1.6-0.9-1.6-0.9c-0.9-1.1-1.7-1.7-1.7-1.8l0,0l0,0l3.6-10.5l5.5,10.5
					l-0.1,0c-1.1-0.2-4.3,1.9-4.6,2.2C100.3,149.1,100,149.3,99.6,149.3 M96.4,146.6c0.2,0.1,0.9,0.7,1.6,1.7c0,0,0.7,0.8,1.5,0.9
					c0.3,0,0.7-0.1,0.9-0.4c0.3-0.3,3.3-2.3,4.5-2.3c0,0,0,0,0,0l-5.2-10.1L96.4,146.6z"/>
				<path class="st33" d="M105.2,146.5l-5.3-10.3l-3.5,10.4c0,0,0.8,0.6,1.7,1.8c0,0,1.4,1.7,2.6,0.4
					C100.8,148.5,104.1,146.4,105.2,146.5"/>
				<path class="st34" d="M105.9,146.8l-0.7-0.2l-5.4-10.4l3.2-6.9l3.4,9.1c0,0,1.2,4.3,1.5,5.2c0.3,1.1-1.6,3.5-1.7,3.6l-0.1,0.1
					L105.9,146.8z"/>
				<path class="st34" d="M103,129.4l-3.1,6.8l5.3,10.3l0.7,0.2l0.2,0.4c0,0,1.9-2.5,1.6-3.5c-0.2-0.9-1.5-5.2-1.5-5.2L103,129.4z"
					/>
				<polygon class="st35" points="64.2,114.7 67.7,94 67.8,94 74,124 				"/>
				<polygon class="st35" points="67.8,94.1 64.3,114.6 73.9,123.8 				"/>
				<path class="st36" d="M74,123.8l-0.1,0L67.7,94l0,0c0.1,0,7-3.6,13.7-3.9l0.1,0l0,0.1L74,123.8z M67.9,94.1l6.1,29.4l7.4-33.3
					C75,90.5,68.4,93.8,67.9,94.1"/>
				<path class="st36" d="M81.4,90.1l-7.5,33.7l-6.1-29.7C67.8,94.1,74.6,90.4,81.4,90.1"/>
				<path class="st37" d="M74,123.8l-0.1-0.1l7.5-33.7l0,0c0.1,0,11.9-2.9,19.1,0l0.1,0l-0.1,0.1L74,123.8z M81.5,90.2L74,123.5
					l26.4-33.4C93.4,87.4,82.2,90,81.5,90.2"/>
				<path class="st37" d="M100.5,90.1l-26.6,33.7l7.5-33.7C81.4,90.1,93.3,87.2,100.5,90.1"/>
				<path class="st38" d="M93,127.3c-7.3-2.5-19-3.4-19.1-3.5l-0.1,0l7.4-9.3l0,0.1l11.9,12.6L93,127.3z M74,123.7
					c1.2,0.1,11.8,1,18.8,3.4l-11.6-12.4L74,123.7z"/>
				<path class="st38" d="M93,127.3l-11.9-12.6l-7.2,9.2C73.9,123.8,85.6,124.7,93,127.3"/>
				<polygon class="st39" points="81.1,114.6 100.5,90.1 100.6,90.1 93,127.4 				"/>
				<polygon class="st39" points="100.5,90.1 93,127.3 81.2,114.6 				"/>
				<path class="st40" d="M79,129.5L79,129.5c4.1,2.2,9.5,2.3,9.5,2.4c2.5,0,3.4-3.2,3.4-3.2l0-0.1l3.7,0.3l-2.3,6.4l-6.3,3
					L79,129.5z"/>
				<path class="st40" d="M95.6,129l-3.6-0.3c0,0-0.9,3.3-3.4,3.3c0,0-5.4-0.1-9.5-2.5l8,8.7l6.3-2.9L95.6,129z"/>
				<polygon class="st41" points="95.6,129 91.9,128.7 93,127.2 93.5,124.1 98.4,128.1 97.4,132.1 				"/>
				<polygon class="st41" points="93.6,124.2 98.4,128.1 97.3,131.9 95.6,129 92,128.6 93,127.3 				"/>
				<path class="st13" d="M92.1,128.7l-2.3-0.1l0,0c-0.4-1.9-2.7-2.8-2.7-2.8l0-0.1c3.6,0.6,5.9,1.6,5.9,1.6l0.1,0L92.1,128.7z
					 M89.9,128.5l2.1,0.1l0.9-1.3c-0.4-0.2-2.4-0.9-5.4-1.5C88.3,126.2,89.6,127,89.9,128.5"/>
				<path class="st13" d="M87.1,125.7c0,0,2.4,0.9,2.8,2.8l2.2,0.1l1-1.4C93,127.3,90.7,126.3,87.1,125.7"/>
				<path class="st42" d="M106.1,138.2l-3.2-8.8l0.1-0.1c0.1,0.1,5.2,5.8,12.3,5.8c1.5,0,2.9-0.2,4.3-0.7l0,0.1l-11.2,6.5
					L106.1,138.2z"/>
				<path class="st42" d="M103,129.4c0,0,7.2,8.3,16.7,5.1l-11.2,6.4l-2.4-2.8L103,129.4z"/>
				<path class="st43" d="M119.6,134.5c2.7-2.5,2.2-4.8,2.2-4.8l5.8-14.6l0.1,0l0.4,14.6L119.6,134.5L119.6,134.5z"/>
				<path class="st43" d="M127.7,115.2l-5.8,14.6c0,0,0.5,2.3-2.2,4.8l8.4-4.8L127.7,115.2z"/>
				<path class="st12" d="M120.1,130.5L120.1,130.5c-0.1-0.1-2.8-3.7-17.1-1l0-0.1l24.9-14.4l-0.1,0.2l-5.8,14.6l0,0L120.1,130.5z
					 M112.4,128.4c1.6,0,3.2,0.1,4.6,0.5c2.2,0.5,3,1.3,3.1,1.5l1.7-0.6l5.7-14.4l-24.3,14C106,128.8,109.3,128.4,112.4,128.4"/>
				<path class="st12" d="M103,129.4l24.7-14.3l-5.8,14.6l-1.8,0.6C120.1,130.4,117.5,126.7,103,129.4"/>
				<path class="st44" d="M112.9,130.9c-2.9,0-6.4-0.3-10-1.5l0-0.1c0,0,3.3-0.6,7-0.8c5-0.3,8.4,0.3,10.1,1.6l0.1,0.1l-0.1,0
					C120,130.2,117.1,130.9,112.9,130.9 M103.2,129.4c7.9,2.5,15.6,1,16.7,0.7c-2.2-1.5-6.6-1.6-9.9-1.5
					C106.9,128.8,104.1,129.3,103.2,129.4"/>
				<path class="st44" d="M120.1,130.2c0,0-8.4,2-17.1-0.8C103,129.4,115.9,127,120.1,130.2"/>
				<polygon class="st45" points="97.3,131.9 98.3,128 103,129.4 99.8,136.4 				"/>
				<polygon class="st45" points="98.4,128.1 103,129.4 99.8,136.2 97.3,131.9 				"/>
				<polygon class="st46" points="98.4,128.1 93.5,124.3 94.6,119.1 115.5,122.3 103,129.5 				"/>
				<polygon class="st46" points="94.6,119.2 115.3,122.3 103,129.4 98.4,128.1 93.6,124.2 				"/>
				<polygon class="st47" points="94.6,119.2 95.6,113.9 115.9,92.8 115.4,122.4 				"/>
				<polygon class="st47" points="115.8,92.9 95.7,113.9 94.6,119.2 115.3,122.3 				"/>
				<path class="st48" d="M115.5,109.7l12.2-8.8l0,0.1c0.5,1.2,0,13.7,0,14.3l0,0l-12.5,7.2L115.5,109.7z"/>
				<path class="st48" d="M127.7,115.2c0,0,0.5-13,0-14.2l-12.2,8.8l-0.2,12.6L127.7,115.2z"/>
				<path class="st49" d="M115.7,92.9l1.2-2.2l2.6,0.8c0.3,0.1,0.6,0.3,0.9,0.5c0.9,0.9,2.3,2.4,2.5,3.3c0.3,1.1,4.7,5.5,4.7,5.6
					l0.1,0.1l-12.3,8.9L115.7,92.9z"/>
				<path class="st49" d="M127.7,100.9c0,0-4.5-4.5-4.7-5.6c-0.2-0.8-1.8-2.5-2.5-3.2c-0.2-0.2-0.5-0.4-0.9-0.5l-2.6-0.8l-1.2,2.1
					l-0.3,16.8L127.7,100.9z"/>
				<path class="st50" d="M100.5,90.1L100.5,90.1c0.1,0,3,0.3,5.2,0.3c1.6,0,2.2-0.2,2.4-0.3c0.8-0.6,2.7-2.3,3.2-2.8
					c0.2-0.1,0.3-0.2,0.5-0.3c0.3-0.1,1-0.3,1.8-0.3c0.3,0,0.7,0,1,0.1c0.8,0.2,1.4,0.8,1.8,1.3c0.3,0.3,0.4,0.7,0.5,1.2l0.2,1.4
					l-1.2,2.2l-20.3,21.2L100.5,90.1z"/>
				<path class="st50" d="M100.5,90.1c0,0,6.6,0.7,7.6,0c0.8-0.6,2.6-2.2,3.2-2.8c0.1-0.1,0.3-0.2,0.5-0.3c0.5-0.2,1.7-0.5,2.7-0.2
					c0.8,0.2,1.4,0.8,1.8,1.3c0.3,0.3,0.4,0.7,0.5,1.2l0.2,1.4l-1.2,2.1l-20.1,21L100.5,90.1z"/>
				<path class="st51" d="M64.2,114.7l-2.5-7.7v0c0.1-3.1,0.2-9,0.1-9.3c0-0.1,0-0.3,0-0.5c0-0.6,0.1-1.3-0.5-2.1
					c-0.9-1.1-0.8-3.3-0.8-3.4l0-0.1l7.5,2.4l0,0.1l-3.5,20.6L64.2,114.7z M61.8,107l2.5,7.4l3.5-20.3l-7.2-2.4
					c0,0.4,0.1,2.3,0.8,3.3c0.6,0.8,0.6,1.6,0.6,2.2c0,0.2,0,0.4,0,0.5C62,98.1,61.8,106.5,61.8,107"/>
				<path class="st51" d="M60.4,91.7l7.3,2.4l-3.5,20.6l-2.5-7.7c0,0,0.2-8.9,0.1-9.3c-0.1-0.4,0.3-1.5-0.5-2.6
					C60.4,93.9,60.4,91.7,60.4,91.7"/>
				<path class="st52" d="M60.4,91.7c-0.1,0-0.2,0.1-0.4,0.1c-1.2,0-3-1.5-3.1-1.6c-2.9-5.7,1-10.7,1.1-10.8l0,0l15.2,12.5l-5.5,2.3
					L60.4,91.7z"/>
				<path class="st52" d="M58.1,79.4c0,0-4,5-1.1,10.7c0,0,2.3,2,3.4,1.5l7.3,2.4l5.4-2.3L58.1,79.4z"/>
				<path class="st53" d="M58,79.5L58,79.5c1.7-3.3,3.8-5.7,6.1-7c1.8-1,3.2-1.1,3.6-1.1c0.1,0,0.1,0,0.1,0L73.3,92L58,79.5z"/>
				<path class="st53" d="M67.8,71.4c0,0-5.3-0.3-9.7,8.1l15.1,12.4L67.8,71.4z"/>
				<path class="st54" d="M67.7,71.4l1.3-3c0,0,1-1.6,0.5-2.6c-0.4-0.7-0.1-1,0.3-1.3c0.2-0.2,0.4-0.3,0.6-0.6
					c0.5-0.6,1.3-0.7,2.4-0.7l0.7,0c0.3,0,0.7,0,1.1,0c1.1-0.1,1.4-0.3,1.6-0.6c0.2-0.2,0.3-0.4,0.8-0.5c0.7-0.1,0.9-0.7,1.1-1.4
					c0.1-0.4,0.3-0.8,0.5-1.2c0.4-0.7,1.2-1,1.8-1.2c0.3-0.1,0.6-0.2,0.8-0.4c0.1-0.2,0.4-0.2,0.7-0.2c0.3,0,0.6,0.1,0.9,0.1
					c0.2,0,0.5,0.1,0.8,0.1c0,0,0.1,0,0.1,0c0.6,0,1.3-0.3,2.2-0.7c0.8-0.3,1.7-0.7,2.7-1c0.3-0.1,0.8-0.1,1.4-0.1
					c2.8,0,7.4,1.2,7.5,1.2l0.1,0L73.2,91.9L67.7,71.4z"/>
				<path class="st54" d="M97.3,57.3c0,0-6.5-1.7-8.8-1.1c-2.3,0.7-4,1.9-5.1,1.7c-1-0.1-1.9-0.4-2.3,0c-0.4,0.4-1.9,0.5-2.5,1.6
					S78.1,62,77,62.2c-1.1,0.2-0.4,1-2.4,1.1c-2,0.1-3.5-0.2-4.2,0.7s-1.4,0.9-0.9,1.9c0.5,1-0.5,2.6-0.5,2.6l-1.3,2.9l5.4,20.4
					L97.3,57.3z"/>
				<path class="st55" d="M73,91.9l0.1-0.2l24.1-34.5l0.1,0L89.7,89l-0.1,0c-1.3-0.2-8.1,1.2-8.2,1.2c-3.5,0-8.2,1.7-8.2,1.7
					L73,91.9z M97.2,57.6L73.4,91.7c0.9-0.3,4.9-1.6,8.1-1.6c0.3-0.1,6.8-1.4,8.2-1.2L97.2,57.6z"/>
				<path class="st55" d="M89.6,88.9l7.7-31.6L73.2,91.8c0,0,4.7-1.7,8.2-1.7C81.4,90.1,88.3,88.7,89.6,88.9"/>
				<path class="st56" d="M97.3,57.2L97.3,57.2c0.1,0,1.7,0.5,2.7,0.7c0.3,0.1,0.6,0.1,1.1,0.1c0.4,0,0.8,0,1.3,0
					c0.6,0,1.1-0.1,1.7-0.1c1.7,0,7.3,1.2,7.4,1.3l0.1,0L92.1,78.4L97.3,57.2z"/>
				<path class="st56" d="M111.4,59.2c0,0-5.7-1.3-7.4-1.3c-1.7,0-3.2,0.2-4.1,0c-0.9-0.2-2.6-0.7-2.6-0.7l-5.1,20.9L111.4,59.2z"/>
				<path class="st7" d="M105.7,90.5c-2.2,0-5-0.3-5.2-0.3l0,0C96.4,88.3,89.7,89,89.6,89l-0.1,0l0-0.1l2.6-10.8l0,0l8-7.9l0,0.1
					l13,16.5l-0.1,0c-0.5,0-1.7,0.6-1.7,0.6c-0.7,0.6-1.3,1.1-1.8,1.5c-0.5,0.4-1,0.8-1.4,1.2C107.8,90.4,106.8,90.5,105.7,90.5
					 M100.5,90.1c0.3,0,6.6,0.7,7.5,0c0.5-0.4,0.9-0.8,1.4-1.2c0.5-0.5,1.1-1,1.8-1.5c0.1,0,1.1-0.6,1.7-0.6l-12.8-16.2l-7.9,7.8
					l-2.6,10.7C90.5,88.8,96.7,88.2,100.5,90.1"/>
				<path class="st7" d="M113.1,86.7l-12.9-16.4l-7.9,7.8l-2.6,10.8c0,0,6.8-0.8,10.9,1.2c0,0,6.6,0.8,7.6,0c1-0.8,1.9-1.6,3.2-2.8
					C111.3,87.4,112.5,86.7,113.1,86.7"/>
				<path class="st57" d="M128.5,72.7L100,70.4l11.4-11.3l0,0c0,0,2.5,0.4,5.8,2.3c3,1.7,7.5,5.1,11.2,11.2L128.5,72.7z M100.3,70.3
					l27.9,2.3c-6.8-11.2-16.2-13.2-16.8-13.3L100.3,70.3z"/>
				<path class="st57" d="M128.3,72.7l-28.2-2.3l11.3-11.1C111.4,59.2,121.2,60.9,128.3,72.7"/>
				<polygon class="st58" points="100,70.3 128.5,72.6 113.1,86.8 				"/>
				<polygon class="st58" points="113.1,86.7 128.3,72.7 100.2,70.3 				"/>
				<path class="st59" d="M127.6,119.2l0-4c0,0,0.1-2.8,0.2-6.5c0.1-3.6-0.2-7.7-0.2-7.8c0,0-3.7-4-4.2-4.6
					c-0.4-0.5-0.5-0.8-0.7-1.2c0-0.1-0.1-0.2-0.1-0.2c-0.2-0.5-2.3-2.7-2.3-2.7l-0.2-0.2l13.1,4l-0.1,0.1
					c-0.4,0.5-3.8,15.4-5.6,23.1L127.6,119.2z"/>
				<path class="st59" d="M127.7,119.2c0,0,5.1-22.5,5.6-23.2l-12.8-3.9c0,0,2.1,2.3,2.3,2.8c0.2,0.5,0.3,0.8,0.8,1.4
					c0.5,0.6,4.2,4.6,4.2,4.6s0.3,4.1,0.2,7.8c-0.1,3.7-0.2,6.5-0.2,6.5L127.7,119.2z"/>
				<path class="st60" d="M120.4,92.1l8-19.6l0.1,0.1c0.1,0.1,6.4,12.2,4.9,23.4l0,0.1L120.4,92.1z"/>
				<path class="st60" d="M128.3,72.7c0,0,6.4,12.1,4.9,23.3l-12.8-3.9L128.3,72.7z"/>
				<path class="st61" d="M120.4,92.1c0-0.3-2.1-0.9-3.4-1.2l0,0l0,0c0-3.8-3.1-4-3.8-4c-0.1,0-0.1,0-0.1,0l-0.2,0l15.4-14.2
					l0.1,0.1l-7.9,19.4L120.4,92.1z"/>
				<path class="st61" d="M113.1,86.7c0,0,3.9-0.2,3.9,4c0,0,3.4,0.8,3.4,1.3l7.9-19.4L113.1,86.7z"/>
				<path class="st62" d="M58.4,139.5c-0.1,0-0.2,0-0.3-0.1c-0.7-0.4-2.7-2.3-2.5-3.5c0.1-0.7,0.4-2.5,1.3-3.8
					c0.7-1.1,0.9-4.4,0.9-4.9c0-0.4,0.3-3.8,0.3-3.9v-1.5l0.1,0l3.2,9l0,0c0,0.1-0.7,6.7-0.7,7.4l0,0l0,0
					C60.5,138.4,59.2,139.5,58.4,139.5 M58.2,122.2v1.1c0,0-0.3,3.6-0.3,3.9c0,0.4-0.2,3.8-0.9,4.9c-0.8,1.3-1.1,3-1.2,3.7
					c-0.2,1,1.7,2.9,2.4,3.3c0.6,0.4,2.2-0.9,2.3-1c0.1-0.8,0.7-7.1,0.7-7.4L58.2,122.2z"/>
				<path class="st62" d="M60.5,138.3c0,0-1.7,1.5-2.4,1.1s-2.6-2.3-2.5-3.4c0.2-1.1,0.5-2.6,1.3-3.8c0.7-1.1,0.9-4.5,0.9-4.9
					c0-0.4,0.3-3.9,0.3-3.9v-1.5l3.2,9C61.3,130.8,60.6,137.5,60.5,138.3"/>
				<path class="st8" d="M61.2,121.6c-1.3-1.3-1.2-4.1-1.2-4.2c0-0.1,0.6-2.3,2.1-2.3c0,0,0.1,0,0.1,0c0.3,0,0.6,0.2,0.9,0.4
					c0.7,0.8,0.5,2.4,0.5,2.4l-1.1,5.6L61.2,121.6z"/>
				<path class="st8" d="M63.5,117.9c0,0,0.3-2.7-1.3-2.8c-1.6-0.1-2.1,2.2-2.1,2.2s-0.1,2.9,1.2,4.2l1.2,1.8L63.5,117.9z"/>
				<path class="st63" d="M63.5,117.9c0.1-1.2-0.1-2-0.5-2.4c-0.2-0.2-0.5-0.3-0.8-0.3c-0.2,0-0.4,0.1-0.4,0.1l-0.1,0l-3.3-7.2
					l0.5-0.7c0.3-0.4,0.8-0.6,1.6-0.6c0.7,0,1.3,0.2,1.3,0.2l0,0l2.6,7.7l-0.7,3.3L63.5,117.9z"/>
				<path class="st63" d="M61.7,107c0,0-2-0.6-2.8,0.4l-0.5,0.7l3.2,7.1c0,0,2-0.8,1.8,2.7l0.7-3.3L61.7,107z"/>
				<path class="st64" d="M58,121.9c0-0.3-1.1-6.6-0.4-8.7c0.6-2.1,0.8-5.1,0.8-5.1l0.1,0l3.3,7.2c0,0-0.1,0-0.1,0
					c-0.1,0-1,0.1-1.6,2.1c0,0,0,1.6,0.4,2.6c0,0,0.3,0.9,0.8,1.6c0.5,0.7,1.2,1.8,1.2,1.8l-1.2,7.5l-0.1,0L58,121.9z"/>
				<path class="st64" d="M58.1,121.9c0,0-1.1-6.5-0.4-8.7s0.8-5.1,0.8-5.1l3.2,7.1c0,0-1-0.1-1.6,2.2c0,0,0,1.7,0.4,2.6
					c0,0,0.3,0.9,0.8,1.6c0.5,0.7,1.2,1.8,1.2,1.8l-1.2,7.4L58.1,121.9z"/>
				<path class="st65" d="M136.9,96.1H133l0.2-0.1c0,0,0.1,0,0.1-0.2c0-0.2-0.1-0.7-1.1-1.7c-0.8-0.8-2-1.7-2.9-2.5
					c-1.2-1-1.7-1.3-1.7-1.5c0-0.2-0.5-5.7-0.7-8.5l0-0.1l10,0.8c0.2-0.2,1.7-1.2,2.4-0.4c0.7,0.9,2.2,2.9,2.3,3.5
					c0,0.1,0.1,0.3,0.2,0.4c0.2,0.4,0.4,0.9-0.2,1.5c-0.8,0.9-1.6,2.2-1.6,2.7c0,0.6-0.1,2.8-0.1,2.8l0,0l-1.6,2L136.9,96.1z
					 M133.4,96h3.5l1.3-1.1l1.6-2c0-0.2,0.1-2.2,0.1-2.8c0-0.6,1-2,1.6-2.8c0.5-0.6,0.3-1,0.2-1.4c-0.1-0.1-0.1-0.3-0.2-0.4
					c-0.1-0.6-1.6-2.6-2.3-3.5c-0.7-0.8-2.2,0.4-2.2,0.4l0,0l0,0l-9.9-0.8c0.1,0.9,0.8,8.2,0.7,8.5c0,0.1,0.8,0.8,1.6,1.4
					c0.9,0.7,2.1,1.7,2.9,2.5c1,1,1.2,1.5,1.1,1.8C133.4,95.9,133.4,95.9,133.4,96"/>
				<path class="st65" d="M127,81.6l9.9,0.8c0,0,1.6-1.3,2.3-0.4c0.7,0.9,2.2,2.9,2.3,3.5c0.1,0.6,0.7,1,0,1.9
					c-0.7,0.9-1.6,2.2-1.6,2.8s-0.1,2.8-0.1,2.8l-1.6,2l-1.3,1.1h-3.6c0,0,0.6-0.4-1-2c-1.6-1.6-4.6-3.6-4.5-3.9
					C127.7,89.8,127,81.6,127,81.6"/>
				<path class="st34" d="M104.6,154.9c-3.3,0-8.3-0.5-8.6-0.6c-11.1-1.6-13.2-3-13.2-3l-0.2-0.1l0.2,0c0.6,0,2.4,0.3,2.7,0.3
					l6.7,1.1c7.7,1,14.5,2,14.5,2l0,0.1C106.4,154.8,105.6,154.9,104.6,154.9 M83.1,151.3c0.8,0.4,3.9,1.6,12.9,2.9
					c0.1,0,7.9,0.9,10.4,0.5c-1.5-0.2-7.5-1.1-14.2-1.9l-6.7-1.1C85.3,151.5,83.9,151.4,83.1,151.3"/>
				<path class="st34" d="M82.8,151.2c0,0,2,1.4,13.2,3c0,0,8.7,0.9,10.8,0.4c0,0-6.8-1-14.5-2l-6.7-1.1
					C85.2,151.5,83.4,151.2,82.8,151.2"/>
				<path class="st66" d="M84.8,176.6l-0.2-0.1c-2.9-0.9-6.7-2.9-6.8-2.9l0,0l-1.7-8.6l0.1,0L84.8,176.6z M77.9,173.6
					c0.3,0.2,3.8,1.9,6.5,2.8l-8.2-11.1L77.9,173.6z"/>
				<path class="st66" d="M84.6,176.5L76.2,165l1.7,8.6C77.8,173.6,81.7,175.6,84.6,176.5"/>
				<path class="st67" d="M115.8,152.5L115.8,152.5l-7.3-11.5l0.1,0l19.6-11.3l0,0.1c0.1,1.2-1.2,18.6-1.2,19.4l0,0l0,0L115.8,152.5
					z M108.6,141l7.2,11.3l11-3.3c0.1-1,1.3-17.4,1.2-19.2L108.6,141z"/>
				<path class="st67" d="M128.1,129.8L108.5,141l7.3,11.4l11.1-3.3C126.9,149.1,128.2,131,128.1,129.8"/>
				<path class="st68" d="M96.2,177.9L96.2,177.9l4.9-19.9l4.3-2.2l0,0c0.2-0.1,1-0.4,3.9-1.6l1.1-1.1l7.4,11.4l0,0
					C117.7,164.6,102.6,177.9,96.2,177.9L96.2,177.9z"/>
				<path class="st68" d="M117.8,164.5c0,0-15.1,13.4-21.5,13.4l4.9-19.8l4.3-2.2c0,0-0.9,0.5,3.9-1.6l1-1.1L117.8,164.5z"/>
				<path class="st10" d="M106.8,154.7c0,0-5-0.7-10.1-1.4c-3.8-0.5-7.6-1.2-9.7-1.5c-0.7-0.1-1.2-0.2-1.4-0.2
					c-0.3,0-0.7-0.1-1.2-0.1c-0.6-0.1-1.2-0.1-1.7-0.2c-0.8-0.1-1.3-0.3-1.3-0.3l-0.2-0.1l6.6-1.2h0c1.9,0,5.9,0.2,6.9,0.7
					c0.8,0.4,1.3,0.4,1.6,0.4l0.3,0c0.3,0,0.5-0.1,0.9-0.1c0.4-0.1,0.9-0.2,1.7-0.3c0.1,0,0.2,0,0.3,0c1.4,0,2.9,0.8,4.2,1.5
					l0.4,0.2c1.5,0.8,6.1,1.1,6.2,1.1l0,0.1L106.8,154.7L106.8,154.7z"/>
				<path class="st10" d="M81.5,150.8c0,0,0.5,0.2,1.3,0.3c0.9,0.1,2.3,0.3,2.9,0.4c0.9,0.1,6.1,1.1,11.1,1.8
					c5.1,0.7,10.1,1.4,10.1,1.4l3.6-1.5c0,0-4.7-0.3-6.2-1.1c-1.5-0.8-3.3-1.8-4.9-1.7c-1.5,0.1-2,0.4-2.6,0.4c-0.5,0-0.9,0.1-2-0.4
					c-1-0.5-4.9-0.7-6.9-0.7L81.5,150.8z"/>
				<path class="st13" d="M120.1,130.4c-3.5-2.9-17-0.9-17.1-0.9l0-0.1c4.2-1.2,10-2.4,14.1-1.1C119.5,129,120.1,130.3,120.1,130.4
					L120.1,130.4z M112,128.7c3.8,0,6.4,0.5,7.8,1.4c-0.3-0.4-1.2-1.2-2.9-1.7c-2.2-0.7-6.2-1-13.2,0.9c1.3-0.2,3.7-0.4,6.4-0.5
					C110.8,128.7,111.4,128.7,112,128.7"/>
				<path class="st13" d="M103,129.4c0,0,13.6-2,17.1,0.9C120.1,130.4,117.6,125.2,103,129.4"/>
				<path class="st14" d="M115.2,130.9C115.2,130.9,115.2,130.9,115.2,130.9l-0.1-0.1c0.8-0.2,1.4-1.7,1.4-1.7l0,0l0.1,0
					c2.1,0.5,3.3,0.9,3.4,1.1c0,0,0,0.1,0,0.1l0,0l0,0C117.3,130.8,115.5,130.9,115.2,130.9 M116.6,129.2c-0.1,0.2-0.5,1.2-1.2,1.6
					c0.6,0,2.2-0.1,4.4-0.6C119.7,130.1,119.2,129.7,116.6,129.2"/>
				<path class="st14" d="M116.6,129.1c0,0-0.6,1.5-1.4,1.7c0,0,1.8,0,4.7-0.6C119.9,130.2,120.1,129.9,116.6,129.1"/>
				<path class="st14" d="M110.9,130.9c-0.4,0-4.5-0.2-8-1.4l0-0.1l6-0.6l0,0c0,0,0.8,1.8,1.9,1.9l0,0L110.9,130.9L110.9,130.9z"/>
				<path class="st14" d="M109,128.9c0,0,0.9,1.9,2,1.9c0,0-4.3-0.2-8-1.4L109,128.9z"/>
				<path class="st15" d="M107.4,130.5c-0.1,0-3.4-0.5-4.4-1l-0.2-0.1l2.6-0.3l0,0c0,0,1.5,1.1,2,1.3L107.4,130.5z"/>
				<path class="st15" d="M105.3,129.2c0,0,1.5,1.1,2,1.3c0,0-3.4-0.5-4.4-1L105.3,129.2z"/>
				<path class="st11" d="M115.4,135.3c-3.1,0-5.8-1-7.7-2.1c-3-1.7-4.8-3.7-4.8-3.7l-0.1-0.2l0.2,0.1c10.2,2.9,18.8,0.3,18.9,0.3
					l0.1,0l0,0.1c0.3,2.8-2.2,4.9-2.2,4.9l0,0C118.2,135.1,116.7,135.3,115.4,135.3 M103.2,129.6c0.5,0.5,2.1,2.2,4.6,3.6
					c2.7,1.5,7,3,11.9,1.4c0.2-0.1,2.4-2.1,2.2-4.7C121,130.1,112.8,132.3,103.2,129.6"/>
				<path class="st11" d="M121.9,129.8c0,0-8.7,2.6-19-0.3c0,0,7.1,8.2,16.7,5.1C119.7,134.6,122.2,132.5,121.9,129.8"/>
				<path class="st69" d="M88.5,132c-2.7,0-8.5-1.4-9.5-2.5l-5.2-5.7l0.1-0.1c0.1,0,12.3,4.8,17.6,4.8c0.2,0,0.3,0,0.5,0l0.1,0
					l0,0.1C92.1,128.7,91.2,131.9,88.5,132L88.5,132z"/>
				<path class="st69" d="M73.9,123.8c0,0,13,5.2,18.1,4.8c0,0-0.8,3.3-3.4,3.3c-2.8,0-8.5-1.4-9.5-2.5L73.9,123.8z"/>
				<path class="st44" d="M84.9,127.5L84.9,127.5c0,0-2.9-0.8-4.3-1.3l0,0l0,0c0,0-0.6-0.9-0.5-1.8l0-0.1l0.1,0c0,0,1.6,0.2,3.2,0.5
					c3.2,0.5,3.2,0.6,3.2,0.7l0,0C86.5,125.7,85.8,127.4,84.9,127.5L84.9,127.5z M80.8,126.2c1.3,0.5,4,1.2,4.2,1.2
					c0.7-0.1,1.4-1.6,1.5-1.8c-0.3-0.2-3.9-0.8-6.2-1.1C80.2,125.3,80.7,126,80.8,126.2"/>
				<path class="st44" d="M86.5,125.6c0,0-0.7,1.7-1.6,1.9c0,0-2.9-0.8-4.2-1.3c0,0-0.6-0.9-0.5-1.7
					C80.2,124.5,86.5,125.3,86.5,125.6"/>
				<path class="st13" d="M93,127.3c-0.1,0-8.3-2.6-19.1-3.5l0-0.1c0.1,0,9.4-0.7,19.1,3.5L93,127.3z M75,123.8
					c7.9,0.7,14.4,2.3,16.9,3C84.5,124,77.5,123.8,75,123.8"/>
				<path class="st13" d="M73.9,123.8c0,0,9.3-0.7,19.1,3.5C93,127.3,84.8,124.6,73.9,123.8"/>
				<g class="st70">
					<g>
						<defs>
							<rect id="SVGID_9_" x="83.5" y="125.4" width="1" height="1"/>
						</defs>
						<clipPath id="SVGID_10_">
							<use xlink:href="#SVGID_9_"  style="overflow:visible;"/>
						</clipPath>
						<g class="st71">
							<defs>
								<rect id="SVGID_11_" x="83.6" y="125.5" width="0.8" height="0.8"/>
							</defs>
							<clipPath id="SVGID_12_">
								<use xlink:href="#SVGID_11_"  style="overflow:visible;"/>
							</clipPath>
							<polygon class="st72" points="83.5,125.8 84,125.4 84.4,126.1 83.8,126.4 							"/>
							<polygon class="st72" points="84,125.5 83.6,125.8 83.9,126.3 84.3,126.1 							"/>
						</g>
					</g>
				</g>
				<g class="st70">
					<g>
						<defs>
							<rect id="SVGID_13_" x="111.8" y="129.1" width="1.4" height="0.8"/>
						</defs>
						<clipPath id="SVGID_14_">
							<use xlink:href="#SVGID_13_"  style="overflow:visible;"/>
						</clipPath>
						<g class="st73">
							<defs>
								<rect id="SVGID_15_" x="111.8" y="129.2" width="1.1" height="0.7"/>
							</defs>
							<clipPath id="SVGID_16_">
								<use xlink:href="#SVGID_15_"  style="overflow:visible;"/>
							</clipPath>
							<path class="st74" d="M111.9,129.9c-0.1,0-0.1,0-0.2-0.7l0-0.1l1.4,0.1l-0.2,0.1C112.6,129.5,112,129.9,111.9,129.9
								L111.9,129.9z"/>
							<path class="st74" d="M111.8,129.2c0,0,0.1,0.7,0.1,0.7c0,0,1-0.6,1-0.6L111.8,129.2z"/>
						</g>
					</g>
				</g>
				<polygon class="st15" points="102.5,128.8 109.2,125 118.6,123.4 115.7,126.2 108.7,127.6 107.6,128.2 102.5,129 				"/>
				<polygon class="st15" points="118.4,123.5 109.2,125 105.6,127.1 102.5,128.9 107.6,128.1 108.7,127.6 115.7,126.2 				"/>
				<polygon class="st15" points="84.6,121.9 78.6,116 78.6,115.9 89.2,120.6 96,126 92.5,126.8 				"/>
				<polygon class="st15" points="95.9,126 89.2,120.7 78.6,115.9 84.6,121.8 92.5,126.8 				"/>
			</g>
		</g>
	</g>
</g>
</svg>
