<?xml version="1.0" encoding="utf-8"?>
<!-- Generator: Adobe Illustrator 19.2.1, SVG Export Plug-In . SVG Version: 6.00 Build 0)  -->
<svg version="1.1" id="Layer_1" xmlns="http://www.w3.org/2000/svg" xmlns:xlink="http://www.w3.org/1999/xlink" x="0px" y="0px"
	 width="192px" height="234px" viewBox="0 0 192 234" style="enable-background:new 0 0 192 234;" xml:space="preserve">
<style type="text/css">
	.st0{fill:#F2F2F2;}
	.st1{fill:#D54339;}
	.st2{fill:#382819;}
	.st3{fill:#5D3C2A;}
	.st4{fill:#593922;}
	.st5{fill:#3F200D;}
	.st6{fill:#5E3A24;}
	.st7{fill:#582A14;}
	.st8{fill:#5D3015;}
	.st9{fill:#43240F;}
	.st10{fill:#9F6645;}
	.st11{fill:#6A3E25;}
	.st12{fill:#DCB08B;}
	.st13{fill:#E9BE9D;}
	.st14{fill:#552313;}
	.st15{fill:#713820;}
	.st16{fill:#CF966E;}
	.st17{fill:#8C5132;}
	.st18{fill:#C8815C;}
	.st19{fill:#AC5D36;}
	.st20{fill:#241506;}
	.st21{fill:#955731;}
	.st22{fill:#C67F5D;}
	.st23{fill:#DDAF8B;}
	.st24{fill:#582E16;}
	.st25{fill:#632B11;}
	.st26{fill:#7B3F25;}
	.st27{fill:#77412F;}
	.st28{fill:#4E2512;}
	.st29{fill:#DDA382;}
	.st30{fill:#EAB695;}
	.st31{fill:#E2B996;}
	.st32{fill:#E8C29F;}
	.st33{fill:#EAC8A5;}
	.st34{fill:#E8C6A5;}
	.st35{fill:#E4C19A;}
	.st36{fill:#E5BC97;}
	.st37{fill:#E7BA99;}
	.st38{fill:#DAAC88;}
	.st39{fill:#E5C39F;}
	.st40{fill:#E4B390;}
	.st41{fill:#E2AD8C;}
	.st42{fill:#E8B996;}
	.st43{fill:#E9C8A7;}
	.st44{fill:#E8C8A4;}
	.st45{fill:#E6C19B;}
	.st46{fill:#221A10;}
	.st47{fill:#E1C5A6;}
	.st48{fill:#030000;}
	.st49{fill:#EAC3A2;}
	.st50{fill:#8F2F14;}
	.st51{fill:#DEB18D;}
	.st52{fill:#6F381C;}
	.st53{fill:#451F0B;}
	.st54{fill:#4F250F;}
	.st55{fill:#220A00;}
	.st56{fill:#301004;}
	.st57{fill:#562B1B;}
	.st58{fill:#DEAF89;}
	.st59{fill:#99421F;}
	.st60{fill:#CA805A;}
	.st61{fill:#DDA888;}
	.st62{fill:#D59774;}
	.st63{fill:#BF724D;}
	.st64{fill:#0A0000;}
	.st65{fill:#B96338;}
	.st66{fill:#AA542D;}
	.st67{fill:#B15F30;}
	.st68{fill:#C27247;}
	.st69{fill:#BE693D;}
	.st70{fill:#BF6C40;}
	.st71{fill:#CB7F53;}
	.st72{fill:#D59266;}
	.st73{fill:#D3885B;}
	.st74{fill:#E1AE8C;}
	.st75{fill:#E3B995;}
	.st76{fill:#E2B087;}
	.st77{fill:#EFC29F;}
	.st78{fill:#ECC9AB;}
	.st79{fill:#ECCBAA;}
	.st80{fill:#48260B;}
	.st81{fill:#18100B;}
	.st82{fill:#040000;}
	.st83{fill:#010200;}
	.st84{fill:#1E1309;}
	.st85{fill:#9F592E;}
	.st86{fill:#873F1D;}
	.st87{fill:#AC6241;}
	.st88{fill:#AE6341;}
	.st89{fill:#B56E43;}
	.st90{fill:#DEA984;}
	.st91{fill:none;stroke:#FFFFFF;stroke-width:0.25;stroke-miterlimit:10;}
	.st92{fill:#E7BC97;}
	.st93{fill:#E6B894;}
	.st94{fill:#DCA881;}
	.st95{fill:#D39365;}
	.st96{fill:#CE895D;}
	.st97{fill:#BD6B3B;}
	.st98{fill:#4B2610;}
	.st99{fill:#241301;}
	.st100{fill:#EBCCAB;}
	.st101{fill:#E4BF9D;}
	.st102{fill:#E2B38F;}
	.st103{fill:#ECCEAA;}
	.st104{fill:#E3B18B;}
	.st105{fill:#D3855D;}
	.st106{fill:#EDCCAA;}
	.st107{fill:#E4B48F;}
	.st108{fill:#CE7C56;}
	.st109{fill:#F0CFAE;}
	.st110{fill:#000101;}
	.st111{fill:#101407;}
	.st112{fill:#030B05;}
	.st113{fill:#794A35;}
	.st114{fill:#111911;}
	.st115{fill:#391A05;}
	.st116{fill:#021107;}
	.st117{fill:#010202;}
	.st118{fill:#010102;}
	.st119{fill:#000702;}
	.st120{fill:#111811;}
	.st121{fill:#030803;}
	.st122{fill:#0E130B;}
	.st123{fill:#090F06;}
	.st124{fill:#0B0E05;}
	.st125{fill:#1F1605;}
	.st126{fill:#000001;}
	.st127{fill:#010100;}
	.st128{fill:#000902;}
	.st129{fill:#040700;}
	.st130{fill:#010000;}
	.st131{fill:#020700;}
	.st132{fill:#D86548;}
	.st133{fill:#D86F54;}
	.st134{fill:#E58469;}
	.st135{fill:#D7674C;}
	.st136{fill:#DD725A;}
	.st137{fill:#CC533A;}
	.st138{fill:#DAAE83;}
	.st139{fill:#D99F72;}
	.st140{fill:#DCB18D;}
	.st141{fill:#522117;}
	.st142{fill:#D3996E;}
	.st143{fill:#DA9D78;}
	.st144{fill:#824321;}
	.st145{fill:#E9C6A2;}
	.st146{fill:#DBA67E;}
	.st147{fill:#D79770;}
	.st148{fill:#ECC5A1;}
</style>
<rect class="st0" width="192" height="234"/>
<polygon class="st1" points="192,215.5 172.5,234 192,234 "/>
<g>
	<path class="st2" d="M85,179.4c-3.9,0-7.8-1.5-7.9-1.5l3.2-8.5l8.4,9.5C87.6,179.2,86.4,179.4,85,179.4C85,179.4,85,179.4,85,179.4
		z"/>
	<path class="st2" d="M80.2,169.4l-3.2,8.5c0,0,6.9,2.7,11.5,0.9L80.2,169.4z"/>
	<polygon class="st3" points="89.4,171.9 96,174.4 88.6,178.8 	"/>
	<polygon class="st3" points="96,174.4 88.6,178.8 89.4,171.9 	"/>
	<polygon class="st4" points="80.2,169.4 89.4,171.9 88.6,178.8 	"/>
	<polygon class="st4" points="80.2,169.4 89.4,171.9 88.6,178.8 	"/>
	<polygon class="st5" points="89.4,171.9 97.9,167.3 96,174.4 	"/>
	<polygon class="st5" points="97.9,167.3 89.4,171.9 96,174.4 	"/>
	<path class="st6" d="M97.9,167.3l13.6-1c-2,1.9-15.3,8-15.5,8l0,0L97.9,167.3z"/>
	<path class="st6" d="M111.5,166.4l-13.6,0.9l-1.9,7.1C96,174.4,109.5,168.3,111.5,166.4z"/>
	<polygon class="st7" points="112.8,159.2 120.4,159.2 111.5,166.4 	"/>
	<polygon class="st7" points="120.4,159.2 111.5,166.4 112.8,159.2 	"/>
	<polygon class="st8" points="97.9,167.3 112.8,159.2 111.5,166.4 97.9,167.3 	"/>
	<polygon class="st8" points="97.9,167.3 112.8,159.2 111.5,166.4 	"/>
	<path class="st9" d="M77.1,177.9c-2.9-0.9-6.1-7-6.2-7l9.3-1.5L77.1,177.9L77.1,177.9z"/>
	<path class="st9" d="M70.9,170.8c0,0,3.2,6.2,6.2,7l3.2-8.5L70.9,170.8z"/>
	<path class="st10" d="M112.8,159.3l6.3-13l6.6-5.1c-0.6,5.6-5.3,17.9-5.4,18l0,0H112.8z"/>
	<path class="st10" d="M125.7,141.2l-6.6,5.1l-6.3,12.9h7.6C120.4,159.2,125.1,146.9,125.7,141.2z"/>
	<polygon class="st11" points="124.5,129.6 125.7,141.2 119.1,146.3 	"/>
	<polygon class="st11" points="124.5,129.6 119.1,146.3 125.7,141.2 	"/>
	<polygon class="st12" points="96,157.7 112.8,159.2 97.9,167.3 	"/>
	<polygon class="st12" points="96,157.7 97.9,167.3 112.8,159.2 	"/>
	<path class="st13" d="M91.1,155.5C91.1,155.5,91.1,155.5,91.1,155.5c3.3,0,4.9,2.2,4.9,2.2l1.9,9.6l-8.5,4.6L91.1,155.5z"/>
	<path class="st13" d="M91.1,155.5l-1.7,16.4l8.5-4.6l-1.9-9.6C96,157.7,94.5,155.5,91.1,155.5z"/>
	<polygon class="st14" points="77.1,163.3 84.8,162.5 81,167.3 	"/>
	<polygon class="st14" points="77.1,163.3 81,167.3 84.8,162.5 	"/>
	<polygon class="st15" points="73.4,162.5 77.1,163.3 74.4,164.9 	"/>
	<polygon class="st15" points="73.5,162.5 74.4,164.9 77.1,163.3 	"/>
	<polygon class="st16" points="74.4,164.9 81,167.3 80.2,169.4 70.9,170.9 	"/>
	<polygon class="st16" points="70.9,170.8 74.4,164.9 81,167.3 80.2,169.4 	"/>
	<path class="st17" d="M96,157.7c-1.6-2.2-4.9-2.2-4.9-2.2l2.5-5.2l4.3,2.5L96,157.7L96,157.7z"/>
	<path class="st17" d="M93.7,150.2l-2.5,5.2c0,0,3.3,0,4.9,2.2l1.9-4.9L93.7,150.2z"/>
	<polygon class="st18" points="67.7,162.5 73.5,162.5 74.4,164.9 70.9,170.9 	"/>
	<polygon class="st18" points="67.7,162.5 70.9,170.8 74.4,164.9 73.5,162.5 	"/>
	<polygon class="st19" points="67.7,162.5 67.2,155.5 70.1,154.9 73.5,162.5 	"/>
	<polygon class="st19" points="67.2,155.5 67.7,162.5 73.5,162.5 70.1,154.9 	"/>
	<polygon class="st20" points="66,149 70.1,154.9 67.2,155.5 	"/>
	<polygon class="st20" points="66,149 67.2,155.5 70.1,154.9 	"/>
	<polygon class="st20" points="66,149 69.5,148 70.1,155 	"/>
	<polygon class="st20" points="69.5,148 66,149 70.1,154.9 	"/>
	<path class="st21" d="M67.7,162.5c-1.1-1-5.5-9.8-5.6-9.9L66,149l1.3,6.5L67.7,162.5L67.7,162.5z"/>
	<path class="st21" d="M62.1,152.6c0,0,4.5,8.9,5.6,9.9l-0.5-7L66,149L62.1,152.6z"/>
	<path class="st22" d="M73.5,162.5l-3.4-7.5c0,0.1,2.7,5.8,6.8,6l0.3,2.4L73.5,162.5z"/>
	<path class="st22" d="M76.8,160.9l0.3,2.3l-3.6-0.8l-3.4-7.5C70.1,154.9,72.7,160.7,76.8,160.9z"/>
	<path class="st23" d="M76.8,160.9c0.7,0.1,1.4,0.1,2.1,0.1c0,0,0,0,0,0c6.1,0,10-3.3,11.4-4.8l0.7-0.8c0,0-0.2,0.3-0.7,0.8l0,0
		l-5.6,6.2l-7.7,0.8L76.8,160.9z"/>
	<path class="st23" d="M91.1,155.5c0,0-5,6.6-14.3,5.5l0.3,2.3l7.7-0.8L91.1,155.5z"/>
	<path class="st24" d="M69.5,148l1.8-2.4c0,0,2.5,1.8,4.5,1.8c0.1,0,0.1,0,0.2,0l-6,6.5L69.5,148z"/>
	<path class="st24" d="M76,147.5l-6,6.5l-0.5-5.9l1.8-2.4C71.3,145.6,73.6,147.2,76,147.5z"/>
	<polygon class="st25" points="76,147.5 79,153.5 70,154 	"/>
	<polygon class="st25" points="79,153.5 70,154 76,147.5 	"/>
	<polygon class="st26" points="76,147.5 78.5,146.3 84,147.1 79,153.5 	"/>
	<polygon class="st26" points="84,147.1 79,153.5 76,147.5 78.5,146.3 	"/>
	<polygon class="st27" points="79,153.5 84,147.1 88.6,154 	"/>
	<polygon class="st27" points="88.6,154 84,147.1 79,153.5 	"/>
	<polygon class="st28" points="88.6,154 84,147.1 93.7,150.2 91.1,155.5 	"/>
	<polygon class="st28" points="91.1,155.5 88.6,154 84,147.1 93.7,150.2 	"/>
	<path class="st29" d="M77,155.7c-0.8,0-1.3-0.3-1.3-0.3c-2.2-0.5-3.6-0.6-4.4-0.6c-0.9,0-1.2,0.1-1.2,0.1l-0.1-1l9-0.4l-0.5,1.9
		C78,155.6,77.5,155.7,77,155.7z"/>
	<path class="st29" d="M70.1,154.9c0,0,1.3-0.5,5.6,0.5c0,0,1.1,0.6,2.8,0l0.5-1.9l-9,0.4L70.1,154.9z"/>
	<path class="st30" d="M91.1,155.5c-1.6-0.2-3.9-0.4-6.4-0.4c-2.8,0-5.5,0.2-6.2,0.4l0.5-1.9l9.6,0.4L91.1,155.5L91.1,155.5z"/>
	<path class="st30" d="M91.1,155.5c-4.1-0.6-11.4-0.4-12.7,0l0.5-1.9l9.6,0.4L91.1,155.5z"/>
	<polygon class="st31" points="96,157.7 97.9,152.8 119.1,146.3 112.8,159.3 	"/>
	<polygon class="st31" points="119.1,146.3 97.9,152.8 96,157.7 112.8,159.2 	"/>
	<polygon class="st32" points="99.8,133.7 119.1,146.3 97.9,152.8 	"/>
	<polygon class="st32" points="99.8,133.7 97.9,152.8 119.1,146.3 	"/>
	<polygon class="st11" points="121.5,138.8 122.4,124 125.7,124.2 124.5,129.6 121.5,138.8 	"/>
	<polygon class="st11" points="122.4,124 121.5,138.8 124.5,129.6 125.7,124.2 	"/>
	<polygon class="st33" points="109.2,139.9 122,130.3 121.5,138.8 119.1,146.3 	"/>
	<polygon class="st33" points="109.2,139.9 122,130.3 121.5,138.8 119.1,146.3 	"/>
	<polygon class="st34" points="121.5,110.6 122.4,124 122,130.3 109.2,139.9 	"/>
	<polygon class="st34" points="121.5,110.6 122.4,124 122,130.3 109.2,139.9 	"/>
	<polygon class="st35" points="99.8,133.8 116.5,122.4 109.2,139.9 	"/>
	<polygon class="st35" points="99.8,133.7 116.5,122.4 109.2,139.9 	"/>
	<polygon class="st36" points="93.7,150.3 88.8,140.6 99.8,133.7 97.9,152.8 	"/>
	<polygon class="st36" points="88.8,140.6 93.7,150.2 97.9,152.8 99.8,133.7 	"/>
	<polygon class="st37" points="99.2,129.6 107.6,128.5 99.8,133.8 	"/>
	<polygon class="st37" points="99.3,129.6 99.8,133.7 107.6,128.5 	"/>
	<polygon class="st38" points="104.6,125 107.6,128.5 99.2,129.6 	"/>
	<polygon class="st38" points="104.6,125 99.3,129.6 107.6,128.5 	"/>
	<path class="st39" d="M104.6,125c0.1,0,11.1-2.6,11.9-2.6l-9,6.1L104.6,125z"/>
	<path class="st39" d="M116.5,122.4c-0.8,0.1-11.9,2.6-11.9,2.6l2.9,3.5L116.5,122.4z"/>
	<polygon class="st40" points="93.7,137.5 99.2,129.6 99.8,133.7 93.7,137.6 	"/>
	<polygon class="st40" points="93.7,137.5 99.3,129.6 99.8,133.7 	"/>
	<polygon class="st41" points="90.4,129.1 99.3,129.6 93.7,137.6 	"/>
	<polygon class="st41" points="90.4,129.1 93.7,137.5 99.3,129.6 	"/>
	<polygon class="st42" points="90.4,129.1 93.7,137.5 88.8,140.6 	"/>
	<polygon class="st42" points="88.8,140.6 90.4,129.1 93.7,137.5 	"/>
	<polygon class="st43" points="85,124.4 90.4,129.1 88.8,140.6 88.8,140.6 	"/>
	<polygon class="st43" points="85,124.4 90.4,129.1 88.8,140.6 	"/>
	<polygon class="st44" points="109.2,114.5 121.5,110.6 116.5,122.4 	"/>
	<polygon class="st44" points="109.2,114.5 116.5,122.4 121.5,110.6 	"/>
	<polygon class="st45" points="109.2,114.5 116.5,122.4 104.6,125 	"/>
	<polygon class="st45" points="104.6,125 109.2,114.5 116.5,122.4 	"/>
	<polygon class="st41" points="90.4,129.1 93.4,125.4 99.3,129.6 	"/>
	<polygon class="st41" points="93.4,125.4 90.4,129.1 99.3,129.6 	"/>
	<polygon class="st41" points="85,124.5 93.4,125.4 90.4,129.1 	"/>
	<polygon class="st41" points="85,124.4 93.4,125.4 90.4,129.1 	"/>
	<path class="st46" d="M97.7,125.4c-0.1,0-0.2,0-0.4,0c-1-0.1-1.7-0.4-2.2-1.1c-0.8-1.2-0.3-2.9-0.3-2.9c0.3-0.1,0.7-0.2,1.2-0.2
		c1.8,0,4.5,0.7,4.6,0.7c0,0,0.1,1.7-0.8,2.7C99.2,125.2,98.5,125.4,97.7,125.4L97.7,125.4z"/>
	<path class="st46" d="M94.8,121.4c0,0-1.1,3.7,2.5,4s3.3-3.5,3.3-3.5S96.7,120.8,94.8,121.4z"/>
	<path class="st47" d="M98.9,125.2c0,0,1.8-0.5,1.7-3.3c0.1,0,2.2,1.4,1.8,2C102.4,124,100.4,125,98.9,125.2L98.9,125.2z"/>
	<path class="st47" d="M102.4,124c0,0-2,1.1-3.5,1.2c0,0,1.8-0.5,1.7-3.3C100.6,122,102.7,123.3,102.4,124z"/>
	<path class="st48" d="M102.7,124c-0.1,0-0.2,0-0.3,0c0,0,0-0.8-1.8-2c0,0-2-0.7-4.2-0.7c-0.6,0-1.1,0-1.5,0.1l-0.1,0
		c-0.7,0-4.2,0.1-6.2,1.5c0,0,2-2.3,6.8-2.3c0.3,0,0.6,0,0.9,0c0,0,0,0,0,0c0.3,0,3.2,0,6.4,1.7c0.3,0.2,0.6,0.5,0.6,0.8
		c0.1,0.3,0,0.5-0.1,0.7C103.1,124,102.9,124,102.7,124z"/>
	<path class="st48" d="M88.5,123c0,0,2.1-2.5,7.7-2.3c0,0,3.1,0,6.4,1.7c0.3,0.2,0.6,0.4,0.6,0.8c0.1,0.4,0,1-0.8,0.8
		c0,0,0-0.8-1.8-2c0,0-3.1-1-5.7-0.5C94.8,121.4,90.7,121.3,88.5,123z"/>
	<path class="st41" d="M93.4,125.4c0.2,0,0.6,0,1.3,0c1.1,0,2.6,0,2.6,0c0.1,0,0.3,0,0.4,0c0.7,0,1.2-0.2,1.2-0.2
		c1.3-0.2,3.5-1.2,3.5-1.2l0.6,0l1.7,1l-5.4,4.6L93.4,125.4z"/>
	<path class="st41" d="M104.6,125l-1.7-1h-0.6c0,0-2.2,1-3.5,1.2c0,0-0.7,0.3-1.6,0.2c0,0-3.3,0.1-3.9,0l5.9,4.1L104.6,125z"/>
	<polygon class="st49" points="84,147.1 78.5,146.3 80,145.3 86.6,144.2 88.8,140.6 93.7,150.3 	"/>
	<polygon class="st49" points="78.5,146.3 80,145.3 86.6,144.2 88.8,140.6 93.7,150.2 84,147.1 	"/>
	<path class="st50" d="M80,145.3c0,0-0.2-0.1-0.2-0.2c0-0.2,0.3-0.5,1.6-0.9c0,0,2.8-0.6,4.5-0.6c0.4,0,0.8,0,1,0.1l-0.3,0.6
		L80,145.3L80,145.3z"/>
	<path class="st50" d="M81.4,144.2c0,0,4.2-0.9,5.5-0.5l-0.3,0.6l-6.7,1C80,145.3,79.1,145,81.4,144.2z"/>
	<path class="st51" d="M103,124c0.3-0.3,0.4-0.5,0.3-0.8c-0.2-1-2.7-1.6-2.7-1.6l0-4.1l6.2,2.6l-2.1,4.9L103,124z"/>
	<path class="st51" d="M100.6,117.4v4.1c0,0,3.9,1,2.4,2.4l1.7,1l2.1-4.9L100.6,117.4z"/>
	<polygon class="st52" points="81.3,113.8 84,110.9 88.1,114.2 84,115.8 	"/>
	<polygon class="st52" points="84,110.9 81.3,113.8 84,115.8 88.1,114.2 	"/>
	<polygon class="st53" points="84,110.9 90.4,110.1 88.1,114.3 	"/>
	<polygon class="st53" points="90.4,110.1 84,110.9 88.1,114.2 	"/>
	<polygon class="st54" points="90.4,110.1 95.2,113.3 88.1,114.3 	"/>
	<polygon class="st54" points="95.2,113.4 90.4,110.1 88.1,114.2 	"/>
	<path class="st55" d="M90.4,110.1c0,0,3-0.1,5.4-0.1c1.1,0,1.9,0,2.4,0.1l-3,3.4L90.4,110.1z"/>
	<path class="st55" d="M98.2,110l-3,3.4l-4.8-3.3C90.4,110.1,96.2,109.8,98.2,110z"/>
	<path class="st56" d="M95.2,113.4l3-3.4c0.2,0.1,3.6,3.1,3.6,3.4l0,0H95.2z"/>
	<path class="st56" d="M101.8,113.4c0-0.2-3.6-3.4-3.6-3.4l-3,3.4H101.8z"/>
	<polygon class="st57" points="101.8,113.4 98.2,110 104.1,110.6 109.2,114.5 109.2,114.5 	"/>
	<polygon class="st57" points="109.2,114.5 101.8,113.4 98.2,110 104.1,110.6 	"/>
	<polygon class="st58" points="100.6,117.4 101.6,113.4 109.2,114.5 106.8,120.1 	"/>
	<polygon class="st58" points="101.6,113.4 100.6,117.4 106.8,120 109.2,114.5 	"/>
	<path class="st59" d="M85,124.5l3.5-1.5c0,0,0,1.6,4.9,2.4l0,0L85,124.5z"/>
	<path class="st59" d="M85,124.4l3.5-1.5c0,0-0.1,1.6,4.9,2.4L85,124.4z"/>
	<path class="st60" d="M87.7,116.8l4.6,4.2c-1.9,0.3-3.8,1.9-3.8,2l-3.5,1.5L87.7,116.8z"/>
	<path class="st60" d="M87.7,116.8l-2.7,7.6l3.5-1.5c0,0,1.9-1.7,3.8-2L87.7,116.8z"/>
	<path class="st61" d="M87.7,116.9c0,0,3.1-1.2,6.7-1.2c0.7,0,1.3,0,2,0.1l-4.1,5.3L87.7,116.9z"/>
	<path class="st61" d="M96.4,115.8l-4.1,5.2l-4.6-4.2C87.7,116.8,91.9,115.2,96.4,115.8z"/>
	<path class="st61" d="M100.6,121.5c-1.9-0.7-3.9-0.8-5.3-0.8c-1.7,0-2.9,0.2-3,0.3l4.1-5.2l4.2,1.6L100.6,121.5L100.6,121.5z"/>
	<path class="st61" d="M100.6,117.4l-4.2-1.6c0,0-4.2,5.5-4.1,5.2c0.2-0.2,3.9-0.6,8.3,0.5V117.4z"/>
	<polygon class="st62" points="96.3,115.8 95.2,113.4 101.6,113.3 100.6,117.4 	"/>
	<polygon class="st62" points="95.2,113.4 96.4,115.8 100.6,117.4 101.6,113.4 	"/>
	<path class="st63" d="M88.1,114.2l7.1-0.9l1.2,2.4c-0.7-0.1-1.3-0.1-2-0.1c-3.9,0-6.7,1.2-6.7,1.2l0,0L88.1,114.2z"/>
	<path class="st63" d="M88.1,114.2l-0.5,2.6c0,0,3.8-1.6,8.7-1.1l-1.1-2.4L88.1,114.2z"/>
	<path class="st60" d="M85,124.5c-0.1,0-0.8-7.2-1-8.7l4.1-1.5l-0.5,2.6L85,124.5L85,124.5z"/>
	<path class="st60" d="M84,115.8c0,0,0.9,8.9,0.9,8.7c0.1-0.2,2.7-7.6,2.7-7.6l0.5-2.6L84,115.8z"/>
	<path class="st46" d="M67.8,125c-0.1,0-0.2,0-0.3,0c0,0-1.3-0.2-2-1.3c-0.5-0.8-0.5-1.8-0.1-3c0,0,0.6-0.2,1.6-0.2
		c1.2,0,2.4,0.3,3.6,0.8c0,0,0.4,1.7-0.5,2.8C69.6,124.7,68.8,125,67.8,125z"/>
	<path class="st46" d="M70.6,121.3c0,0,0.8,3.9-3.1,3.7c0,0-3.4-0.5-2.1-4.3C65.4,120.7,67.7,120,70.6,121.3z"/>
	<path class="st47" d="M69.2,124.7c2-1,1.4-3.4,1.4-3.5c1,0.2,2.5,1.7,2.5,1.7C72.9,123.7,69.3,124.7,69.2,124.7L69.2,124.7z"/>
	<path class="st47" d="M73.1,123c0,0-1.5-1.5-2.5-1.7c0,0,0.6,2.5-1.4,3.5C69.2,124.7,72.9,123.7,73.1,123z"/>
	<path class="st64" d="M73.1,123c-1.2-1.2-2.5-1.7-2.5-1.7c-1.3-0.6-2.7-0.7-3.6-0.7c-0.9,0-1.6,0.1-1.6,0.1
		c-2.4,0.1-3.5,1.2-3.5,1.2c-0.9,0.8-1.8,1-2.4,1c-0.6,0-1-0.2-1-0.2l0,0c1.5,0,2.2-1.7,2.2-1.7c0.2-0.5,1.3-0.7,1.3-0.7
		c1.6-0.2,3-0.3,4.3-0.3c3.8,0,5.5,0.9,6.2,1.7C73.1,122.3,73.1,123,73.1,123L73.1,123L73.1,123z"/>
	<path class="st64" d="M60.7,121c0,0-0.7,1.8-2.3,1.7c0,0,1.9,0.7,3.4-0.9c0,0,1.1-1.1,3.6-1.2c0,0,2.7-0.6,5.2,0.6
		c0,0,1.3,0.5,2.5,1.7c0,0-1.3-4.5-11.2-2.6C61.9,120.3,60.9,120.6,60.7,121z"/>
	<path class="st65" d="M69.5,124.7c3.6-1,3.6-1.7,3.6-1.7l2.2-0.2l-1.6,4.3l-5.6,1.4L69.5,124.7z"/>
	<path class="st65" d="M75.3,122.8l-2.2,0.2c0,0,0,0.6-3.6,1.7l-1.3,3.8l5.6-1.4L75.3,122.8z"/>
	<path class="st66" d="M63.8,124.9c0.5,0.1,1,0.2,1.7,0.2c0.9,0,1.7-0.1,1.7-0.1c0.2,0,0.3,0,0.5,0c0.9,0,1.8-0.4,1.8-0.4l-1.3,3.8
		L63.8,124.9z"/>
	<path class="st66" d="M63.8,124.9l4.3,3.6l1.3-3.8c0,0-1.1,0.5-2.3,0.3C67.2,125,65.2,125.4,63.8,124.9z"/>
	<polygon class="st66" points="62.1,128.3 63.8,124.9 68.1,128.5 	"/>
	<polygon class="st66" points="62.1,128.3 63.8,124.9 68.1,128.5 	"/>
	<path class="st67" d="M59.6,124.2l0-1.3c0.1,0,0.2,0,0.3,0c1,0,1.8-0.8,1.8-0.8c0,2.5,2.2,2.8,2.2,2.8l-1.7,3.4L59.6,124.2z"/>
	<path class="st67" d="M59.6,124.2l2.6,4.1l1.7-3.4c0,0-2.2-0.2-2.2-2.8c0,0-0.9,0.6-2,0.8V124.2z"/>
	<polygon class="st67" points="59.5,124.2 62.1,128.3 58.4,132.8 	"/>
	<polygon class="st67" points="58.4,132.8 62.1,128.3 59.6,124.2 	"/>
	<polygon class="st65" points="68.1,128.5 73.7,127 72.7,133 	"/>
	<polygon class="st65" points="72.7,133 73.7,127 68.1,128.5 	"/>
	<path class="st68" d="M70.1,137L70.1,137l-1.9-8.5l0,0l4.6,4.5l0,0L70.1,137z M68.1,128.5l1.9,8.4l2.7-4L68.1,128.5z"/>
	<polyline class="st68" points="71.5,131.7 68.1,128.5 70.1,136.9 72.7,133 71.5,131.7 	"/>
	<polygon class="st69" points="60.4,130.4 62.1,128.3 68.1,128.5 69.3,133.6 	"/>
	<polygon class="st69" points="60.4,130.4 69.3,133.6 68.1,128.5 62.1,128.3 	"/>
	<polygon class="st70" points="68.3,142.7 71.3,145.6 69.5,148 66,149 	"/>
	<polygon class="st70" points="68.3,142.7 71.3,145.6 69.5,148 66,149 	"/>
	<path class="st71" d="M62.1,152.6c-0.6-0.7-2.8-10.2-2.8-10.3l9,0.4L66,149L62.1,152.6L62.1,152.6z"/>
	<path class="st71" d="M59.3,142.4c0,0,2.3,9.6,2.8,10.3L66,149l2.3-6.2L59.3,142.4z"/>
	<path class="st72" d="M59.3,142.4l10-8.8l0.8,3.4c0,0-3.3,4.3-1.7,5.8l0,0L59.3,142.4z"/>
	<path class="st72" d="M70.1,136.9c0,0-3.3,4.2-1.7,5.8l-9-0.4l10-8.8L70.1,136.9z"/>
	<path class="st73" d="M59.3,142.4c-1.4-2.1-0.9-9.5-0.9-9.6l2-2.4l8.9,3.2L59.3,142.4L59.3,142.4z"/>
	<path class="st73" d="M58.4,132.8c0,0-0.5,7.5,0.9,9.6l10-8.8l-8.9-3.2L58.4,132.8z"/>
	<path class="st74" d="M75.9,147.5c-1.8,0-4.5-1.8-4.6-1.8l-3-2.9l5.3-0.8l2.4,5.5C75.9,147.5,75.9,147.5,75.9,147.5
		C75.9,147.5,75.9,147.5,75.9,147.5z"/>
	<path class="st74" d="M76,147.5l-2.4-5.5l-5.3,0.8l3,2.9C71.3,145.6,74.2,147.6,76,147.5z"/>
	<path class="st75" d="M73.6,142l7.4,2.3c-1,0.4-1.1,0.6-1.1,0.8c0,0.1,0.2,0.2,0.2,0.2l-1.4,1l-2.6,1.2L73.6,142z"/>
	<path class="st75" d="M80.9,144.3l-7.4-2.3l2.4,5.5l2.5-1.2l1.5-1C80,145.3,79.2,145.1,80.9,144.3z"/>
	<path class="st76" d="M68.3,142.8c0,0-0.3-0.2-0.4-0.8c-0.1-0.8,0.1-2.3,2.1-5l2.7-4l0.9,9L68.3,142.8L68.3,142.8z"/>
	<path class="st76" d="M72.7,133l0.8,9l-5.3,0.8c0,0-1.7-1.2,1.7-5.8L72.7,133z"/>
	<polygon class="st77" points="73.6,142 72.7,133 73.7,127 75.3,122.8 80.9,144.4 	"/>
	<polygon class="st77" points="75.2,123 75.3,122.8 80.9,144.3 73.6,142 72.7,133 73.7,127 	"/>
	<polygon class="st78" points="75.3,122.8 86.6,131.4 80.9,144.4 	"/>
	<polygon class="st78" points="75.3,122.8 86.6,131.4 80.9,144.3 	"/>
	<polygon class="st79" points="75.3,122.8 84,115.8 85,124.4 86.6,131.4 	"/>
	<polygon class="st79" points="84,115.8 75.3,122.8 86.6,131.4 85,124.4 	"/>
	<polygon class="st80" points="66.5,113.9 69.1,110.3 70.7,114.5 	"/>
	<polygon class="st80" points="70.7,114.5 69.2,110.3 66.5,113.9 	"/>
	<path class="st81" d="M64.2,109.1c0,0,0.1,0,0.2,0c1.1,0,4.7,1.2,4.8,1.2l-2.7,3.6L64.2,109.1z"/>
	<path class="st81" d="M64.2,109.1l2.3,4.8l2.7-3.6C69.2,110.3,65,108.9,64.2,109.1z"/>
	<polygon class="st82" points="60.7,113.5 64.2,109.1 66.5,113.9 	"/>
	<polygon class="st82" points="60.7,113.5 64.2,109.1 66.5,113.9 	"/>
	<path class="st83" d="M59.3,110c0.7-0.7,4.9-0.9,4.9-0.9l-3.5,4.5L59.3,110z"/>
	<path class="st83" d="M59.3,110l1.4,3.5l3.5-4.5C64.2,109.1,60,109.3,59.3,110z"/>
	<path class="st84" d="M57.9,116.3c-0.7-3.4,1.4-6.3,1.4-6.3l1.4,3.5L57.9,116.3L57.9,116.3z"/>
	<path class="st84" d="M57.9,116.3l2.8-2.8l-1.4-3.5C59.3,110,57.2,112.9,57.9,116.3z"/>
	<path class="st85" d="M57.9,116.3l2.8-2.8l0,7.3c0,0-0.7,1.4-1.2,1.6l0,0L57.9,116.3z"/>
	<path class="st85" d="M59.5,122.4l-1.6-6.2l2.8-2.8v7.3C60.7,120.9,60.4,122.2,59.5,122.4z"/>
	<path class="st86" d="M73.1,123c0-1.6-2.4-2.3-2.4-2.3L74,118l1.3,4.8L73.1,123L73.1,123z"/>
	<path class="st86" d="M75.3,122.8L74,118l-3.3,2.6c0,0,2,0.6,2.5,2.4L75.3,122.8z"/>
	<polygon class="st87" points="68,120 67.2,116.3 74,118 70.6,120.6 	"/>
	<polygon class="st87" points="67.2,116.3 68,120 70.6,120.6 74,118 	"/>
	<path class="st88" d="M60.7,120.9c0.1-0.1,0.2-0.2,0.3-0.2l6.2-4.4L68,120c0,0,0,0,0,0c-0.1,0-0.9,0-2,0c-1.7,0-3.9,0.1-5,0.7l0,0
		L60.7,120.9L60.7,120.9z"/>
	<path class="st88" d="M60.7,120.9l6.5-4.6L68,120C68,120,62,119.6,60.7,120.9z"/>
	<polygon class="st89" points="60.7,113.5 67.2,116.3 60.7,120.9 	"/>
	<polygon class="st89" points="60.7,113.5 67.2,116.3 60.7,120.9 	"/>
	<polygon class="st90" points="74,118 81.3,118 75.3,122.8 	"/>
	<polygon class="st90" points="81.3,118 74,118 75.3,122.8 	"/>
	<polygon class="st79" points="66.7,121 68.6,120.9 69.5,121.5 68.6,122.1 	"/>
	<polygon class="st79" points="68.6,120.9 66.7,121 68.6,122.1 69.5,121.5 	"/>
	<polygon class="st79" points="97.6,122.4 98.2,122 99.3,122.3 98.5,123 	"/>
	<polygon class="st79" points="98.2,122 97.6,122.4 98.5,123 99.3,122.4 	"/>
	<polygon class="st43" points="104.1,110.6 112,92.8 117.9,99.6 113.3,105.6 121.5,110.6 109.2,114.5 	"/>
	<polygon class="st43" points="112,92.8 104.1,110.6 109.2,114.5 121.5,110.6 113.3,105.6 117.8,99.6 	"/>
	<path class="st91" d="M90.4,110.1"/>
	<path class="st91" d="M90.4,110.1"/>
	<path class="st92" d="M98.2,110c0,0-2.1-0.1-4.3-0.1c-1.6,0-2.7,0.1-3.5,0.2l7.2-23.3l6.5,23.9L98.2,110z"/>
	<path class="st92" d="M90.4,110.1l7.2-23.3l6.5,23.8l-5.9-0.6C98.2,110,92.7,109.7,90.4,110.1z"/>
	<polygon class="st93" points="84.7,86.1 97.6,86.7 90.4,110.1 84,110.9 	"/>
	<polygon class="st93" points="84.7,86.1 84,110.9 90.4,110.1 97.6,86.7 	"/>
	<polygon class="st94" points="69.2,110.3 84.6,91.3 84,110.9 81.3,113.8 	"/>
	<polygon class="st94" points="69.2,110.3 84.6,91.3 84,110.9 81.3,113.8 	"/>
	<path class="st95" d="M65.7,91.1c2.2-2.6,10-3.6,10.1-3.6l0.5,14.1l-2.9,3.5L65.7,91.1z"/>
	<path class="st95" d="M65.8,91l7.6,14l2.9-3.5l-0.5-14.1C75.8,87.5,68.3,88.1,65.8,91z"/>
	<path class="st96" d="M69.2,110.3c0,0-3.7-1.2-5-1.2c-0.1,0-0.1,0-0.2,0l5.5-11.2l3.9,7.2L69.2,110.3L69.2,110.3z"/>
	<path class="st96" d="M64,109.1l5.5-11.2l3.9,7.2l-4.2,5.2C69.2,110.3,65.1,108.9,64,109.1z"/>
	<path class="st97" d="M59.3,110L59.3,110c-0.1-0.3,1.3-5.1,2.8-9.4c1.5-4.3,3.2-9.2,3.7-9.6l3.7,6.8L64,109.1
		C63.9,109.1,60.6,109.3,59.3,110L59.3,110L59.3,110z"/>
	<path class="st97" d="M59.3,110c-0.5,0.3,5.4-18.1,6.5-19l3.7,6.8L64,109.1C64,109.1,60.6,109.2,59.3,110z"/>
	<polygon class="st98" points="113.3,105.6 117.8,99.6 119.1,98.7 124.2,104.1 121.5,110.6 	"/>
	<polygon class="st98" points="119.1,98.7 117.8,99.6 113.3,105.6 121.5,110.6 124.2,104.1 	"/>
	<path class="st99" d="M122.4,124c-0.3,0-0.9-12.8-0.9-13.4l7.8,6.8c-1.6,0.5-3.5,6.8-3.6,6.8l0,0L122.4,124z"/>
	<path class="st99" d="M129.3,117.4l-7.8-6.8c0,0,0.6,13.4,0.9,13.4s3.3,0.2,3.3,0.2S127.7,117.9,129.3,117.4z"/>
	<path class="st100" d="M128.3,142.8c-0.9,0-2.2-0.3-2.6-1.6l-0.7-6.7l8,2.2c0,0.1-1.3,5.5-2.7,5.8
		C130.3,142.5,129.3,142.8,128.3,142.8z"/>
	<path class="st100" d="M130.3,142.5c0,0-4.3,1.6-4.6-1.3l-0.7-6.7l8,2.2C133,136.7,131.7,142.2,130.3,142.5z"/>
	<polygon class="st101" points="128.4,135.5 134.4,131.7 133,136.7 	"/>
	<polygon class="st101" points="134.4,131.7 128.4,135.5 133,136.7 	"/>
	<polygon class="st102" points="127.1,135.1 131.4,132.3 132.1,133.2 128.4,135.5 	"/>
	<polygon class="st102" points="127.1,135.1 131.4,132.3 132.1,133.2 128.4,135.5 	"/>
	<polygon class="st103" points="125,134.5 124.5,129.6 127.8,126.8 131.4,132.3 127.1,135.1 	"/>
	<polygon class="st103" points="127.8,126.8 124.5,129.6 125,134.5 127.1,135.1 131.4,132.3 	"/>
	<polygon class="st104" points="131.4,132.3 129.8,129.8 132,127 134.4,131.7 132,133.2 	"/>
	<polygon class="st104" points="132.1,127 129.8,129.8 131.4,132.3 132.1,133.2 134.4,131.7 	"/>
	<polygon class="st105" points="127.8,126.8 129.3,125.2 132.1,127 129.8,129.8 	"/>
	<polygon class="st105" points="129.3,125.2 127.8,126.8 129.8,129.8 132.1,127 	"/>
	<path class="st106" d="M124.5,129.6c0,0,1-4.7,1.3-5.4c0,0,0-0.1,0.1-0.2c1.6-5,2.8-6.3,3.5-6.6c0,0,1.9-1.2,3.4-1.2
		c0.5,0,0.8,0.1,1.2,0.3l1,0.9l-0.8,0.9c0,0-2.1,0.3-3.3,2.4l-1.5,4.5l-1.5,1.5L124.5,129.6L124.5,129.6z"/>
	<path class="st106" d="M129.3,117.4c0,0,3-2,4.6-0.9l1,0.9l-0.8,0.9c0,0-2.1,0.3-3.3,2.4l-1.5,4.5l-1.5,1.5l-3.3,2.8
		c0,0,1-4.7,1.3-5.3C125.9,123.5,127.6,118,129.3,117.4z"/>
	<path class="st107" d="M132,127l-2.8-1.8l0.8-2.4l6.1,1.1c0.1,1.8-1.7,7.7-1.7,7.8l0,0L132,127z"/>
	<path class="st107" d="M134.4,131.7c0,0,1.8-5.9,1.7-7.8l-6.1-1.1l-0.8,2.4l2.8,1.8L134.4,131.7z"/>
	<path class="st108" d="M131.9,119.4c0.3-0.4,2.1-1,2.1-1l0.8,5.4l0,0L131.9,119.4z"/>
	<path class="st108" d="M131.9,119.4l2.9,4.4l-0.8-5.4C134.1,118.3,132.2,118.9,131.9,119.4z"/>
	<path class="st109" d="M130,122.9l0.6-1.9c0.8-1.4,1.3-1.6,1.3-1.6l2.9,4.4L130,122.9z"/>
	<path class="st109" d="M131.9,119.4c0,0-0.7-0.3-1.3,1.6l-0.6,1.9l4.8,0.9L131.9,119.4z"/>
	<path class="st110" d="M121.5,110.6l2.8-6.5l9,12.1l0,0c-0.4,0-2.4,0.1-3.9,1.2l0,0L121.5,110.6z"/>
	<path class="st110" d="M124.2,104.1l8.9,12.1c0,0-2.3-0.1-3.9,1.2l-7.8-6.8L124.2,104.1z"/>
	<path class="st111" d="M124.2,104.1l10.2-15.5c1.1,1.7,1.9,5.6-0.3,14.1c0,0.1-0.1,0.3-0.1,0.3c-0.2,1-0.9,13-0.9,13.1l0,0
		L124.2,104.1z"/>
	<path class="st111" d="M134.4,88.6l-10.2,15.5l8.9,12.1c0,0,0.7-12.1,0.9-13.1S137,92.7,134.4,88.6z"/>
	<polygon class="st112" points="119.1,98.7 134.4,88.6 124.2,104.1 	"/>
	<polygon class="st112" points="119.1,98.7 134.4,88.6 124.2,104.1 	"/>
	<polygon class="st113" points="112,92.8 121.5,97.1 119.1,98.7 117.8,99.6 	"/>
	<polygon class="st113" points="112,92.8 121.5,97.1 119.1,98.7 117.8,99.6 	"/>
	<path class="st114" d="M119.1,96l10.8-16.3c1,0.7,4.5,8.8,4.6,8.9l-12.9,8.5L119.1,96z"/>
	<path class="st114" d="M129.9,79.7L119.1,96l2.4,1.1l12.9-8.5C134.4,88.6,130.8,80.4,129.9,79.7z"/>
	<polygon class="st115" points="112,92.8 97.6,86.8 110.6,86.1 116.6,94.9 	"/>
	<polygon class="st115" points="110.6,86.1 97.6,86.7 112,92.8 116.5,94.8 	"/>
	<polygon class="st116" points="116.5,94.8 110.6,86.1 129.9,79.7 119.1,96 	"/>
	<polygon class="st116" points="129.9,79.7 129.3,79.9 110.6,86.1 116.5,94.8 119.1,96 	"/>
	<polygon class="st117" points="121.5,70 129.9,79.7 110.6,86.1 	"/>
	<polygon class="st117" points="121.5,70 110.6,86.1 129.9,79.7 	"/>
	<polygon points="96.7,70 110.6,86.1 97.6,86.8 	"/>
	<polygon points="96.7,70 97.6,86.7 110.6,86.1 	"/>
	<polygon class="st118" points="100.6,74.6 121.5,70 110.6,86.1 	"/>
	<polygon class="st118" points="121.5,70 100.6,74.6 110.6,86.1 	"/>
	<polygon class="st119" points="106.8,62.9 112.8,54.6 121.5,70 	"/>
	<polygon class="st119" points="112.8,54.6 106.8,62.9 121.5,70 	"/>
	<polygon class="st120" points="96.7,70 95.2,55.6 110.6,72.4 100.6,74.6 	"/>
	<polygon class="st120" points="100.6,74.6 96.7,70 95.2,55.6 110.6,72.4 	"/>
	<polygon class="st121" points="95.2,55.6 106.8,62.9 121.5,70 110.6,72.4 	"/>
	<polygon class="st121" points="106.8,62.9 95.2,55.6 110.6,72.4 121.5,70 	"/>
	<path class="st122" d="M95.2,55.6c1-0.8,7.6-1,12.9-1c2.6,0,4.6,0,4.6,0l-6,8.3L95.2,55.6z"/>
	<path class="st122" d="M112.8,54.6c0,0-16-0.4-17.6,0.9l11.6,7.3L112.8,54.6z"/>
	<path class="st123" d="M86.6,55.6c0.4-0.1,1.3-0.2,2.8-0.2c2.5,0,5.7,0.2,5.8,0.2L96.7,70l0.4,6.9l0,0L86.6,55.6z"/>
	<path class="st123" d="M86.6,55.6l10.5,21.3L96.7,70l-1.5-14.4C95.2,55.6,87.9,55.1,86.6,55.6z"/>
	<polygon class="st124" points="84.7,86.1 93.4,69.3 97.1,76.9 97.6,86.8 	"/>
	<polygon class="st124" points="84.7,86.1 93.4,69.3 97.1,76.9 97.6,86.7 	"/>
	<polygon class="st125" points="74.6,71.1 84.7,86.1 75.8,87.5 	"/>
	<polygon class="st125" points="74.6,71.1 75.8,87.5 84.7,86.1 	"/>
	<path class="st126" d="M66.5,72.4l4.7-12.6l3.4,11.3l1.2,16.4c-3.7,0.3-6.2,1.2-7.7,2c-1.6,0.8-2.3,1.6-2.3,1.6l0,0L66.5,72.4z"/>
	<path class="st126" d="M66.5,72.4L65.8,91c0,0,2.9-3,10-3.6l-1.2-16.4l-3.4-11.3L66.5,72.4z"/>
	<polygon class="st127" points="79,57.5 86.6,55.6 93.4,69.3 88.9,78.1 	"/>
	<polygon class="st127" points="79,57.5 88.9,78 93.4,69.3 86.6,55.6 	"/>
	<path class="st128" d="M74.6,71.1l-3.4-11.3c0,0,0,0,0,0c0,0,0.6,0.5,1.8,0.5c1.2,0,3.2-0.5,6-2.9l6,29.3l0,0L74.6,71.1z"/>
	<path class="st128" d="M71.1,59.8c0,0,2.4,2.3,7.9-2.4l6,29.3L74.6,71.1L71.1,59.8z"/>
	<polygon class="st129" points="79,57.5 88.9,78 84.7,86.1 	"/>
	<polygon class="st129" points="88.9,78 79,57.5 84.7,86.1 	"/>
	<path class="st130" d="M59.6,64c0,0,0.1,0,0.1,0c0.1,0,0.1,0,0.2,0c3.5,0,11.2-4.1,11.3-4.2l-4.7,12.6L59.6,64z"/>
	<path class="st130" d="M59.6,64l6.9,8.4l4.7-12.6C71.1,59.8,62.9,64.2,59.6,64z"/>
	<path class="st131" d="M59.2,82.1L59.2,82.1c0,0-1.2-3.3-1.7-7.1c-0.3-2.2-0.3-4.3-0.1-6c0.3-2.2,1-3.9,2.1-5.1l0,0l0,0l6.9,8.4
		l0,0L59.2,82.1z M59.6,64c-1.1,1.2-1.8,2.9-2.1,5.1c-0.2,1.7-0.2,3.7,0.1,6c0.5,3.7,1.6,6.8,1.7,7l7.2-9.7L59.6,64z"/>
	<path class="st131" d="M64.9,70.5l1.6,1.9l-7.3,9.7c0,0-4.6-12.8,0.3-18.1L64.9,70.5"/>
	<path class="st126" d="M59.3,110c0-0.1-4.3-6.8-3.3-15.2l3.3-12.7l7.3-9.7L65.8,91C65.7,91.2,60,105.3,59.3,110L59.3,110L59.3,110z
		"/>
	<path class="st126" d="M59.3,110c0,0-4.3-6.7-3.3-15.2l3.2-12.7l7.3-9.7L65.8,91C65.8,91,60,105.2,59.3,110z"/>
	<path class="st132" d="M76.7,160.9c-0.6,0-3.9-0.3-6.7-6c0.1,0,4.8,2.5,5.9,2.7L76.7,160.9C76.8,160.9,76.8,160.9,76.7,160.9z"/>
	<path class="st132" d="M70.1,154.9c0,0,4.7,2.5,5.9,2.7l0.8,3.3C76.8,160.9,73.2,161.2,70.1,154.9z"/>
	<path class="st133" d="M76,157.7C76,157.7,76,157.7,76,157.7c0.1,0,3.2,0.4,4.8,0.4c0,0,0,0,0,0c0.4,0,0.6,0,0.8-0.1l-4.7,3
		L76,157.7z"/>
	<path class="st133" d="M81.5,158l-4.7,2.9l-0.8-3.3C76,157.7,80.8,158.3,81.5,158z"/>
	<path class="st134" d="M78.8,161.1c-1.2,0-2-0.1-2-0.1l4.7-2.9l9.7-2.5C86.9,160.4,81.6,161.1,78.8,161.1
		C78.8,161.1,78.8,161.1,78.8,161.1z"/>
	<path class="st134" d="M91.1,155.5l-9.6,2.5l-4.7,2.9C76.8,160.9,85,162.5,91.1,155.5z"/>
	<path class="st135" d="M76,157.7c-1.2-0.1-5.9-2.7-5.9-2.7c0.3-0.1,0.8-0.1,1.2-0.1c2,0,4.4,0.6,4.4,0.6c0.4,0.2,0.8,0.3,1.3,0.3
		c0.8,0,1.5-0.3,1.5-0.3L76,157.7L76,157.7z"/>
	<path class="st135" d="M70.1,154.9c0,0,4.7,2.6,5.9,2.7l2.5-2.2c0,0-1.5,0.6-2.8,0C75.7,155.5,72.2,154.6,70.1,154.9z"/>
	<path class="st136" d="M78.5,155.5c0,0,3.1-0.4,6.8-0.4c2.2,0,4.1,0.1,5.8,0.4l-6.6,1.7L78.5,155.5z"/>
	<path class="st136" d="M91.1,155.5l-6.6,1.7l-6.1-1.7C78.5,155.5,84.3,154.5,91.1,155.5z"/>
	<path class="st137" d="M80.7,158.1c-1.6,0-4.7-0.4-4.7-0.4l2.5-2.2l6.1,1.7l-3,0.8C81.4,158,81.1,158.1,80.7,158.1
		C80.7,158.1,80.7,158.1,80.7,158.1z"/>
	<path class="st137" d="M78.5,155.5l-2.5,2.2c0,0,4.9,0.6,5.6,0.3l3-0.8L78.5,155.5z"/>
	<path class="st138" d="M120.3,159.2c2.7-5.3,5.3-17.9,5.4-18c0.1,1.1,0.9,1.6,2.4,1.6c1.1,0,2.2-0.3,2.2-0.3c0,1.4,2.2,7.7,2.2,7.7
		L120.3,159.2L120.3,159.2z"/>
	<path class="st138" d="M132.5,150.2c0,0-2.2-6.3-2.2-7.7c0,0-4.3,1.3-4.6-1.3c0,0-3,12.4-5.4,18L132.5,150.2z"/>
	<polygon class="st139" points="120.3,159.2 132.5,150.2 136.2,156.8 120.4,159.3 	"/>
	<polygon class="st139" points="136.2,156.8 132.5,150.2 120.4,159.2 	"/>
	<polygon class="st140" points="80.2,169.4 81,167.3 84.8,162.5 91.1,155.5 89.4,171.9 	"/>
	<polygon class="st140" points="80.2,169.4 81,167.3 84.8,162.5 91.1,155.5 89.4,171.9 	"/>
	<polygon class="st141" points="74.4,164.9 77.1,163.3 81,167.3 81,167.3 	"/>
	<polygon class="st141" points="81,167.3 74.4,164.9 77.1,163.3 	"/>
	<polygon class="st142" points="81.3,113.8 84,115.8 81.3,118 73.9,118 	"/>
	<polygon class="st142" points="81.3,113.8 74,118 81.3,118 84,115.8 	"/>
	<polygon class="st143" points="70.7,114.5 69.1,110.3 81.3,113.8 74,118 	"/>
	<polygon class="st143" points="69.2,110.3 81.3,113.8 74,118 70.7,114.5 	"/>
	<polygon class="st144" points="67.2,116.3 60.7,113.5 66.5,113.9 70.7,114.5 74,118 	"/>
	<polygon class="st144" points="70.7,114.5 74,118 67.2,116.3 60.7,113.5 66.5,113.9 	"/>
	<path class="st47" d="M65.6,125.1c-1.5,0-4-0.4-4.1-3c0,0,1.3-1.3,3.8-1.4c0,0-0.6,1.3-0.1,2.5c0.3,0.8,1,1.4,2,1.8
		C67.2,125,66.5,125.1,65.6,125.1z"/>
	<path class="st47" d="M67.2,125c0,0-5.6,1-5.6-2.9c0,0,1.3-1.3,3.8-1.4C65.4,120.7,63.9,123.7,67.2,125z"/>
	<path class="st47" d="M94.8,125.5c-0.7,0-1.1,0-1.4,0c-1.1-0.1-4.8-1-4.9-2.5c0,0,2.5-1.6,6-1.6c0.1,0,0.2,0,0.4,0
		c0,0-0.5,1.7,0.3,2.9c0.4,0.6,1.2,1,2.2,1.1C97.3,125.4,95.9,125.5,94.8,125.5z"/>
	<path class="st47" d="M88.5,123c0,0,2.6-1.6,6.3-1.5c0,0-1.1,3.7,2.5,4c0,0-3,0.1-3.9,0S88.6,124.4,88.5,123z"/>
	<polygon class="st145" points="97.6,86.7 112,92.8 104.1,110.6 	"/>
	<polygon class="st145" points="97.6,86.7 104.1,110.6 112,92.8 	"/>
	<polygon class="st146" points="75.8,87.5 84.7,86.1 84.6,91.3 76.3,101.6 	"/>
	<polygon class="st146" points="75.8,87.5 76.3,101.6 84.6,91.3 84.7,86.1 	"/>
	<path class="st147" d="M134.9,123.7l-0.8-5.4l0.8-0.9c0,0,1.6,4.4,1.3,6.6l0,0L134.9,123.7z"/>
	<path class="st147" d="M134.8,117.4c0,0,1.6,4.4,1.3,6.6l-1.3-0.2l-0.8-5.4L134.8,117.4z"/>
	<path class="st148" d="M86.6,131.4l2.2,9.2l-1.8,3.1c-0.2-0.1-0.5-0.1-0.9-0.1c-1.8,0-5.2,0.8-5.2,0.8l0,0L86.6,131.4z"/>
	<path class="st148" d="M86.6,131.4l-5.7,12.9c0,0,5-1.2,6-0.7l1.8-3.1L86.6,131.4z"/>
</g>
</svg>
