<?xml version="1.0" encoding="utf-8"?>
<!-- Generator: Adobe Illustrator 16.0.0, SVG Export Plug-In . SVG Version: 6.00 Build 0)  -->
<!DOCTYPE svg PUBLIC "-//W3C//DTD SVG 1.1//EN" "http://www.w3.org/Graphics/SVG/1.1/DTD/svg11.dtd">
<svg version="1.1" id="Layer_1" xmlns="http://www.w3.org/2000/svg" xmlns:xlink="http://www.w3.org/1999/xlink" x="0px" y="0px"
	 width="600px" height="200px" viewBox="0 0 600 200" enable-background="new 0 0 600 200" xml:space="preserve">
<g>
	<path fill="#FFFFFF" d="M94.682,129.854c-1.437-0.767-2.283-1.523-2.533-2.283c-1.016-5.831-1.397-12.969-1.143-21.42
		c0.675-19.439,1.18-33.847,1.52-43.228c-0.169-0.676-0.212-2.069-0.127-4.181c0.167-1.774-0.065-2.957-0.696-3.549
		c-0.635-0.592-1.313-1.139-2.032-1.647c-0.719-0.509-1.502-0.635-2.344-0.382c-3.807,2.2-5.752,6.762-5.835,13.69
		c-0.17,6.594-0.254,9.973-0.254,10.139c0.084,4.145,0.084,11.708,0,22.689c0,9.552,0.128,17.115,0.382,22.693
		c0.083,3.295,0.166,6.59,0.253,9.885c0.167,3.973,0.632,7.184,1.395,9.633c1.1,2.199,2.877,3.045,5.329,2.537
		c4.312-3.212,6.975-6.806,7.991-10.774c0.167-0.509,0.253-0.974,0.253-1.396C96.84,131.414,96.119,130.611,94.682,129.854z"/>
	<path fill="#FFFFFF" d="M281.367,122.316c-7.019,4.091-13.913,6.135-20.677,6.135c-2.539,0-4.949-0.297-7.23-0.889
		c-4.739-1.104-7.697-2.84-8.881-5.213c5.508-5.848,8.261-10.847,8.261-15.002c0-3.135-1.224-5.761-3.664-7.882
		c-1.518-0.762-3.032-1.143-4.546-1.143c-1.432,0-3.054,0.3-4.862,0.9c-1.812,0.602-2.736,1.146-4.244,2.204
		c-1.633,1.146-3.524,2.694-4.788,4.302c-1.434,1.863-2.403,3.541-2.908,5.02c-0.505,1.482-0.756,2.945-0.756,4.386
		c0,2.044,0.587,3.982,1.751,5.817c-4.881,2.226-9.676,3.338-14.388,3.338c-1.186,0-2.37-0.04-3.553-0.127
		c-2.285-0.682-3.679-2.469-4.188-5.361c-0.675-3.486-1.436-5.654-2.283-6.506c-0.762-0.168-1.567-0.255-2.409-0.255
		c-4.23,0-8.332,2.537-12.304,7.608c-1.356,0.85-2.413,1.271-3.171,1.271c-0.596,0-1.06-0.294-1.398-0.89
		c0-9.47,0.167-14.503,0.509-15.099c18.508-13.619,31.503-28.042,38.982-43.266c7.479-15.226,11.221-27.534,11.221-36.924
		c0-8.121-2.409-14.971-7.229-20.555c-3.127-1.859-7.017-2.791-11.666-2.791c-3.215,0-6.553,0.425-10.015,1.27
		c-8.547,5.039-15.054,12.738-19.535,23.078c-0.609,0.026-1.116,0.073-1.506,0.144c-25.287,1.478-42.708,3.076-52.263,4.797
		c-0.848,0.328-2.351,0.533-4.507,0.613c-2.155,0.083-3.698,0.372-4.626,0.861c-0.425-0.167-0.849-0.254-1.271-0.254
		c-0.674,0-1.606,0.191-2.79,0.572s-2.116,0.57-2.792,0.57c-0.423,0-0.848-0.083-1.27-0.254c-1.183,0.932-3.254,1.44-6.215,1.524
		c-2.96,0.083-5.033,0.465-6.216,1.139c-1.861-0.083-4.463,0.319-7.802,1.205c-3.341,0.889-5.943,1.292-7.801,1.205l-6.723,1.651
		c-2.621,0.675-4.862,1.012-6.721,1.012c-1.269,0.679-3.364,1.251-6.281,1.716s-5.011,1.034-6.278,1.709
		c-9.643,1.777-17.634,3.723-23.977,5.834c-1.27,0.254-3.973,1.104-8.117,2.541c-3.302,1.182-6.009,1.774-8.121,1.774
		c-1.437,0-2.834-0.22-4.184-0.666c-4.397,0.929-6.937,2.532-7.612,4.813c-0.083,1.859,0.464,3.8,1.647,5.825
		c1.183,2.025,2.664,3.038,4.441,3.038c0.675,0,1.607-0.207,2.79-0.622c1.183-0.415,2.072-0.667,2.664-0.753
		c1.524-0.917,3.807-1.707,6.851-2.372c3.549-0.917,5.919-1.623,7.104-2.126c9.726-2.997,15.136-4.619,16.238-4.871
		c12.599-3.333,22.114-5.748,28.542-7.247c3.72-0.583,10.738-2.041,21.058-4.373c8.708-1.914,15.813-3.123,21.311-3.623
		c5.414-1.249,9.515-2.042,12.306-2.377c3.722-0.164,9.854-0.829,18.396-1.997c7.609-1.084,13.699-1.666,18.268-1.749
		c1.011,0,2.111,0,3.297,0c1.096,0,2.809-0.13,5.135-0.397c1.331-0.15,2.456-0.257,3.384-0.322
		c-0.354,0.727-0.739,1.511-1.175,2.382c-1.523,3.048-2.242,5.754-2.155,8.12c-1.691,4.147-3.001,9.478-3.93,15.987
		c-0.592,5.584-1.226,11.208-1.902,16.876c0.263,3.638,0.396,7.15,0.396,10.533c0,6.088-0.495,11.502-1.487,16.241
		c-0.663,3.128-1.529,5.961-2.601,8.502c-0.75,1.523-1.036,2.282-0.867,2.282c0.083,0,0.253-0.04,0.508-0.127
		c0.166,0,0.337,0,0.507,0c1.096,0.932,1.815,2.369,2.155,4.312c0.167,1.524,0.339,3.09,0.509,4.692
		c0.842,2.199,2.787,3.466,5.835,3.808c1.691,0.166,3.084,0.088,4.187-0.238c1.437-0.172,3.465-1.021,6.089-2.551
		c2.111-1.269,3.888-1.779,5.326-1.526c4.906,3.116,10.317,4.671,16.239,4.671c5.359,0,13.031-1.811,19.763-4.48
		c0.671,0.65,1.424,1.287,2.261,1.907c3.549,2.626,7.82,4.531,12.813,5.72c2.874,0.676,6.004,1.019,9.387,1.019
		c5.581,0,13.151-1.108,22.708-3.324c1.52-0.598,3.041-1.239,4.564-1.917c1.524-0.682,2.37-1.79,2.54-3.326
		C284.919,122.827,283.566,122.316,281.367,122.316z M184.229,97.363c-0.385-0.507-0.447-1.099-0.192-1.774
		c-0.087-1.861-0.127-3.722-0.127-5.584c0-5.754,0.508-12.565,1.527-20.431c0.932-6.684,1.864-13.324,2.8-19.924
		c1.681-5.44,3.18-10.041,4.5-13.807c0.353,0.196,0.698,0.402,1.021,0.632c0.929,0.337,2.958,0.007,6.088-0.998
		c2.454-1.907,3.51-3.487,3.171-4.732c-0.506-1.66-1.86-3.112-4.059-4.357c-0.833-0.081-1.627-0.154-2.387-0.221
		c0.108-0.218,0.214-0.432,0.316-0.627c3.222-9.558,8.731-16.157,16.537-19.797c1.443-0.254,2.715-0.38,3.818-0.38
		c3.051,0,5.001,1.016,5.851,3.045c2.458,6.095,3.601,11.719,3.435,16.879c-0.254,6.092-1.571,12.692-3.943,19.796
		c-0.682,2.032-3.097,8.121-7.253,18.273c-4.581,6.008-9.161,12.013-13.74,18.018c-5.512,7.025-10.767,12.608-15.772,16.752
		C185.14,98.125,184.61,97.872,184.229,97.363z M241.142,115.718c-0.926,0.761-1.515,1.103-1.769,1.015
		c-1.096-1.438-1.433-4.731-1.009-9.893c1.263-2.453,2.4-3.68,3.41-3.68c1.176,0,1.892,0.72,2.147,2.154
		C244.174,109.039,243.248,112.505,241.142,115.718z"/>
	<path fill="#FFFFFF" d="M314.414,133.279c-0.254,0-0.718,0.041-1.391,0.128c-0.673,0.084-1.179,0.126-1.512,0.126
		c-1.097,0-1.896-0.254-2.396-0.762c-1.853-1.438-2.775-3.724-2.775-6.852c0-0.842,0.204-2.913,0.619-6.216
		c0-0.509,0.062-1.331,0.188-2.474c0.122-1.141,0.186-2.008,0.186-2.601c0-1.86-0.636-3.17-1.906-3.933
		c-0.848-0.508-1.78-0.762-2.795-0.762c-1.694,0-3.433,0.551-5.21,1.649c-0.932,0.253-1.695,0.381-2.285,0.381
		c-1.697,0-2.588-1.483-2.671-4.452c-0.086-3.477-0.721-5.597-1.904-6.361c-1.273-0.168-2.162-0.084-2.67,0.254
		c-0.849,0.594-1.778,2.201-2.793,4.828c-0.428,0.848-1.146,2.709-2.162,5.59c-0.254,0.679-0.381,1.396-0.381,2.16
		c0,1.018,0.34,2.246,1.026,3.685c1.02,2.034,1.576,3.222,1.663,3.56c-0.172,0.508,0.427,0.762,1.792,0.762
		c2.304,0,5.636-0.549,9.991-1.65c1.279,0.171,2.003,0.805,2.178,1.907c-0.664,4.069-0.992,6.989-0.992,8.774
		c0,4.402,1.307,7.711,3.921,9.916c3.711,1.268,6.876,1.352,9.488,0.254c2.361-2.297,3.688-3.83,3.986-4.594
		c0.294-0.768,0.441-1.404,0.441-1.916C316.052,133.747,315.505,133.279,314.414,133.279z"/>
	<path fill="#FFFFFF" d="M357.887,157.836c-0.003,0.014-0.005,0.035-0.005,0.068C357.882,157.881,357.887,157.859,357.887,157.836z"
		/>
	<path fill="#FFFFFF" d="M432.349,140.82c-2.825,0.519-8.501,1.228-17.127,1.648c-9.471,0.508-14.547,0.801-15.222,0.889
		c-0.93,0-2.41,0.272-4.441,0.824c-2.03,0.547-3.468,0.822-4.312,0.822c-0.762,0-1.356-0.126-1.777-0.381
		c-1.184-7.691-1.817-16.443-1.9-26.253c16.45-17.586,27.631-40.755,33.538-69.502c0.93-4.311,1.395-8.16,1.395-11.543
		c0-6.086-1.521-9.213-4.56-9.385c-5.32-0.254-10.468,1.692-15.449,5.833c-2.953,2.537-6.71,6.804-11.271,12.807
		c-8.778,11.583-13.168,25.784-13.168,42.603c0,0.846,0.295,7.904,0.888,21.172c0.084,1.437,0.492,3.199,0.097,5.922
		c-0.401,2.763-4.027,4.723-6.442,6.039c-0.009,0-0.019,0-0.026,0c-7.021,4.091-13.913,6.135-20.679,6.135
		c-2.539,0-4.948-0.297-7.23-0.889c-4.739-1.104-7.696-2.84-8.88-5.213c5.508-5.848,8.262-10.847,8.262-15.002
		c0-3.135-1.224-5.761-3.665-7.882c-1.518-0.762-3.032-1.143-4.547-1.143c-1.433,0-3.054,0.3-4.862,0.9
		c-1.812,0.602-3.407,1.376-4.915,2.434c-1.632,1.145-2.853,2.464-4.115,4.069c-1.434,1.864-2.403,3.541-2.907,5.021
		c-0.507,1.483-0.757,2.946-0.757,4.386c0,3.896,2.112,7.412,6.343,10.547c3.551,2.625,7.82,4.53,12.812,5.719
		c2.873,0.677,6.005,1.019,9.388,1.019c5.58,0,13.313-0.494,22.707-3.324c2.318-0.698,2.874-1.038,3.596-1.432
		c1.865-0.747,4.677-1.916,5.188-2.372c0,0,0.167,10.128,0.507,12.327c0.424,3.127,0.721,6.129,0.892,9.002l-0.128,0.255
		c-3.636,0.843-7.315,1.646-11.034,2.41c-4.058,1.182-7.316,3.041-9.77,5.576c-0.579,0.91-0.871,1.9-0.885,2.977
		c0.044-0.189,0.378,1.605,1.009,5.393c8.788,14.283,17.873,26.078,27.258,35.375h3.932c1.69-0.509,2.746-1.477,3.169-2.914
		c0.166-1.438,0.337-2.873,0.506-4.308c-1.27-17.319-2.326-30.287-3.171-38.901c0.255-0.422,0.762-0.761,1.524-1.014
		c0.253-0.088,0.928-0.255,2.029-0.509c0.845,0,2.749-0.21,5.713-0.632c15.229-2.282,23.438-3.295,24.621-3.042
		c1.859,0.084,5.33-0.214,10.409-0.888c0,0,2.279-0.703,1.628-3.881C436.117,140.585,433.097,140.686,432.349,140.82z
		 M390.875,74.222c1.697-13.785,5.306-24.103,10.828-30.952c3.908-3.89,7.263-6.43,10.064-7.613c1.272-0.167,2.083,0.17,2.424,1.016
		c0.253,1.27,0.381,2.536,0.381,3.803c0,2.286-0.512,5.077-1.531,8.375c-1.783,5.752-2.716,8.796-2.803,9.133
		c-3.313,13.028-6.157,22.625-8.535,28.798c-3.654,9.302-8.11,16.62-13.377,21.944C389.176,97.223,390.024,85.724,390.875,74.222z
		 M332.341,115.718c-0.925,0.761-1.515,1.103-1.769,1.015c-1.098-1.438-1.434-4.731-1.011-9.893c1.265-2.453,2.4-3.68,3.411-3.68
		c1.177,0,1.893,0.72,2.146,2.154C335.373,109.039,334.446,112.505,332.341,115.718z M372.854,171.012l-7.357-12.687
		c-0.338-1.015-0.041-1.861,0.889-2.535c2.285-0.341,4.563-0.724,6.848-1.144c2.708-0.422,5.032-0.549,6.978-0.381l0.254,0.381
		c1.605,15.729,2.748,25.963,3.426,30.701C378.896,179.089,375.22,174.311,372.854,171.012z"/>
	<path fill="#FFFFFF" d="M508.032,133.279c-0.254,0-0.719,0.041-1.391,0.128c-0.673,0.084-1.177,0.126-1.511,0.126
		c-1.097,0-1.896-0.254-2.397-0.762c-1.853-1.438-2.774-3.724-2.774-6.852c0-0.842,0.203-2.913,0.619-6.216
		c0-0.509,0.062-1.331,0.187-2.474c0.123-1.141,0.187-2.008,0.187-2.601c0-1.86-0.635-3.17-1.905-3.933
		c-0.849-0.508-1.78-0.762-2.796-0.762c-1.694,0-3.432,0.551-5.209,1.649c-0.934,0.253-1.694,0.381-2.286,0.381
		c-1.697,0-2.586-1.483-2.669-4.452c-0.087-3.477-0.724-5.597-1.906-6.361c-1.271-0.168-2.162-0.084-2.669,0.254
		c-0.849,0.594-1.776,2.201-2.793,4.828c-0.428,0.848-1.146,2.709-2.162,5.59c-0.255,0.679-0.382,1.396-0.382,2.16
		c0,1.018,0.341,2.246,1.025,3.685c0.134,0.267,0.259,0.515,0.376,0.753c-5.047,1.658-9.917,2.496-14.608,2.496
		c-2.2,0-4.293-0.124-6.281-0.374c-1.988-0.252-3.764-1.569-5.327-3.96c-1.563-2.384-3.149-3.746-4.757-4.083
		c-2.198-0.336-4.398-0.503-6.598-0.503c-6.681,0-12.388,1.73-17.124,5.188c-4.312,3.207-6.47,6.666-6.47,10.377
		c0,2.274,0.974,4.131,2.919,5.563c2.364,1.771,5.241,2.657,8.624,2.657c6.089,0,13.953-3.008,23.597-9.02
		c5.241-0.762,10.483-1.479,15.73-2.158c4.645-0.709,8.618-1.643,11.934-2.797c0.302,0.119,0.779,0.181,1.441,0.181
		c2.305,0,5.638-0.55,9.991-1.65c1.278,0.171,2.004,0.806,2.178,1.907c-0.663,4.07-0.991,6.99-0.991,8.773
		c0,4.403,1.308,7.713,3.921,9.916c3.711,1.269,6.876,1.353,9.489,0.256c2.359-2.299,3.688-3.832,3.984-4.594
		c0.295-0.769,0.442-1.406,0.442-1.918C509.67,133.747,509.123,133.279,508.032,133.279z M438.474,129.672
		c-2.372,0.93-5.209,0.719-8.511-0.635c-1.522-1.184-2.54-3.128-3.048-5.835c0.167-2.62,1.438-4.481,3.81-5.581
		c0.764,0.087,1.693,0.611,2.797,1.586c1.101,0.973,1.988,1.546,2.668,1.713c3.555,1.016,5.673,2.282,6.352,3.807
		C442.115,126.925,440.76,128.572,438.474,129.672z"/>
	<path fill="#FFFFFF" d="M566.186,122.316c-7.02,4.091-13.912,6.135-20.677,6.135c-2.54,0-4.948-0.297-7.231-0.889
		c-4.739-1.104-7.696-2.84-8.878-5.213c5.506-5.848,8.26-10.847,8.26-15.002c0-3.135-1.225-5.761-3.664-7.882
		c-1.519-0.762-3.032-1.143-4.546-1.143c-1.433,0-3.056,0.3-4.863,0.9c-1.812,0.602-3.048,1.147-4.557,2.204
		c-1.635,1.146-3.211,2.694-4.476,4.302c-1.434,1.863-2.402,3.541-2.907,5.02c-0.506,1.482-0.757,2.945-0.757,4.386
		c0,3.896,2.112,7.412,6.344,10.546c3.55,2.627,7.82,4.531,12.812,5.721c2.875,0.676,6.004,1.018,9.387,1.018
		c5.581,0,13.15-1.109,22.707-3.324c1.521-0.598,3.042-1.238,4.566-1.917c1.522-0.682,2.369-1.79,2.538-3.325
		C569.737,122.827,568.383,122.316,566.186,122.316z M525.959,115.718c-0.925,0.761-1.513,1.103-1.768,1.015
		c-1.098-1.438-1.436-4.731-1.01-9.893c1.265-2.453,2.398-3.68,3.409-3.68c1.178,0,1.893,0.72,2.146,2.154
		C528.991,109.039,528.066,112.505,525.959,115.718z"/>
</g>
<polygon fill="#FFFFFF" points="528.497,71.239 528.447,70.641 528.349,70.093 528.051,69.094 527.457,68.146 526.764,67.349 
	526.218,66.899 525.725,66.598 524.043,66.598 523.548,66.65 522.755,66.848 522.061,67.198 521.417,67.598 520.923,68.096 
	520.13,68.795 519.585,69.644 519.287,70.492 519.239,71.489 519.287,72.289 519.388,72.637 519.635,73.038 520.18,73.736 
	521.069,74.434 524.388,75.482 528.349,73.637 528.447,72.887 528.497,72.486 528.596,72.138 528.497,71.539 "/>
<polygon fill="#FFFFFF" points="558.596,67.28 558.546,66.681 558.447,66.133 558.149,65.133 557.556,64.186 556.862,63.388 
	556.316,62.939 555.823,62.64 554.142,62.64 553.646,62.689 552.854,62.888 552.159,63.238 551.516,63.637 551.021,64.135 
	550.229,64.834 549.685,65.683 549.386,66.531 549.338,67.528 549.386,68.327 549.486,68.677 549.733,69.077 550.278,69.773 
	551.168,70.474 554.486,71.522 558.447,69.676 558.546,68.926 558.596,68.528 558.694,68.178 558.596,67.579 "/>
<polygon fill="#FFFFFF" points="542.754,43.517 542.704,42.918 542.605,42.37 542.308,41.371 541.714,40.424 541.021,39.626 
	540.475,39.176 539.981,38.877 538.3,38.877 537.805,38.926 537.013,39.126 536.317,39.476 535.675,39.875 535.18,40.373 
	534.388,41.072 533.843,41.92 533.544,42.769 533.497,43.766 533.544,44.565 533.646,44.915 533.892,45.314 534.438,46.012 
	535.326,46.711 538.645,47.76 542.605,45.914 542.704,45.164 542.754,44.765 542.854,44.415 542.754,43.816 "/>
</svg>
